%FSLAX45Y45*%
G04 Gerber Fmt 4.5, Leading zero omitted, Abs format (unit mm)*
G04 Created by KiCad (PCBNEW (5.1.9)-1) date 2021-04-20 10:13:04*
%MOMM*%
%LPD*%
G01*
G04 APERTURE LIST*
%TA.AperFunction,Profile*%
%ADD10C,0.200000*%
%TD*%
%ADD11C,0.200000*%
%ADD12C,0.300000*%
G04 APERTURE END LIST*
D10*
X48285000Y-10760800D02*
X48285000Y-25992500D01*
X13480000Y-10760000D02*
G75*
G02*
X13684939Y-10560000I204939J-5000D01*
G01*
X13710140Y-26190000D02*
G75*
G02*
X13480000Y-25937860I12123J242166D01*
G01*
X48285000Y-25992500D02*
G75*
G02*
X48085000Y-26192500I-200000J0D01*
G01*
X48088800Y-10559844D02*
G75*
G02*
X48285000Y-10760800I0J-196256D01*
G01*
X13684939Y-10560000D02*
X48088800Y-10559844D01*
X13480000Y-25937860D02*
X13480000Y-10760000D01*
X48085000Y-26192500D02*
X13710140Y-26190000D01*
D11*
X30531000Y-11147500D02*
X30596000Y-11212500D01*
X30596000Y-11147500D02*
X30531000Y-11212500D01*
X31109000Y-11147500D02*
X31174000Y-11212500D01*
X31174000Y-11147500D02*
X31109000Y-11212500D01*
X14032000Y-14752500D02*
G75*
G03*
X14032000Y-14752500I-87500J0D01*
G01*
X14032000Y-17610000D02*
G75*
G03*
X14032000Y-17610000I-87500J0D01*
G01*
X14270125Y-23325000D02*
G75*
G03*
X14270125Y-23325000I-87500J0D01*
G01*
X14270125Y-25230000D02*
G75*
G03*
X14270125Y-25230000I-87500J0D01*
G01*
X14508250Y-19515000D02*
G75*
G03*
X14508250Y-19515000I-87500J0D01*
G01*
X14746375Y-21420000D02*
G75*
G03*
X14746375Y-21420000I-87500J0D01*
G01*
X15048000Y-14752500D02*
G75*
G03*
X15048000Y-14752500I-87500J0D01*
G01*
X15048000Y-17610000D02*
G75*
G03*
X15048000Y-17610000I-87500J0D01*
G01*
X15224500Y-23325000D02*
G75*
G03*
X15224500Y-23325000I-87500J0D01*
G01*
X15286125Y-23325000D02*
G75*
G03*
X15286125Y-23325000I-87500J0D01*
G01*
X15286125Y-25230000D02*
G75*
G03*
X15286125Y-25230000I-87500J0D01*
G01*
X15524250Y-19515000D02*
G75*
G03*
X15524250Y-19515000I-87500J0D01*
G01*
X15762375Y-21420000D02*
G75*
G03*
X15762375Y-21420000I-87500J0D01*
G01*
X15937000Y-17610000D02*
G75*
G03*
X15937000Y-17610000I-87500J0D01*
G01*
X16240500Y-23325000D02*
G75*
G03*
X16240500Y-23325000I-87500J0D01*
G01*
X16413250Y-23325000D02*
G75*
G03*
X16413250Y-23325000I-87500J0D01*
G01*
X16651375Y-25230000D02*
G75*
G03*
X16651375Y-25230000I-87500J0D01*
G01*
X16889500Y-19515000D02*
G75*
G03*
X16889500Y-19515000I-87500J0D01*
G01*
X16953000Y-17610000D02*
G75*
G03*
X16953000Y-17610000I-87500J0D01*
G01*
X17365750Y-21420000D02*
G75*
G03*
X17365750Y-21420000I-87500J0D01*
G01*
X17429250Y-23325000D02*
G75*
G03*
X17429250Y-23325000I-87500J0D01*
G01*
X17667375Y-25230000D02*
G75*
G03*
X17667375Y-25230000I-87500J0D01*
G01*
X17842000Y-14752500D02*
G75*
G03*
X17842000Y-14752500I-87500J0D01*
G01*
X17842000Y-17610000D02*
G75*
G03*
X17842000Y-17610000I-87500J0D01*
G01*
X17905500Y-19515000D02*
G75*
G03*
X17905500Y-19515000I-87500J0D01*
G01*
X18318250Y-23325000D02*
G75*
G03*
X18318250Y-23325000I-87500J0D01*
G01*
X18381750Y-21420000D02*
G75*
G03*
X18381750Y-21420000I-87500J0D01*
G01*
X18794500Y-19515000D02*
G75*
G03*
X18794500Y-19515000I-87500J0D01*
G01*
X18858000Y-14752500D02*
G75*
G03*
X18858000Y-14752500I-87500J0D01*
G01*
X18858000Y-17610000D02*
G75*
G03*
X18858000Y-17610000I-87500J0D01*
G01*
X19032625Y-25230000D02*
G75*
G03*
X19032625Y-25230000I-87500J0D01*
G01*
X19270750Y-21420000D02*
G75*
G03*
X19270750Y-21420000I-87500J0D01*
G01*
X19334250Y-23325000D02*
G75*
G03*
X19334250Y-23325000I-87500J0D01*
G01*
X19747000Y-14752500D02*
G75*
G03*
X19747000Y-14752500I-87500J0D01*
G01*
X19747000Y-17610000D02*
G75*
G03*
X19747000Y-17610000I-87500J0D01*
G01*
X19810500Y-19515000D02*
G75*
G03*
X19810500Y-19515000I-87500J0D01*
G01*
X20048625Y-25230000D02*
G75*
G03*
X20048625Y-25230000I-87500J0D01*
G01*
X20223250Y-23325000D02*
G75*
G03*
X20223250Y-23325000I-87500J0D01*
G01*
X20286750Y-21420000D02*
G75*
G03*
X20286750Y-21420000I-87500J0D01*
G01*
X20699500Y-19515000D02*
G75*
G03*
X20699500Y-19515000I-87500J0D01*
G01*
X20763000Y-14752500D02*
G75*
G03*
X20763000Y-14752500I-87500J0D01*
G01*
X20763000Y-17610000D02*
G75*
G03*
X20763000Y-17610000I-87500J0D01*
G01*
X21175750Y-21420000D02*
G75*
G03*
X21175750Y-21420000I-87500J0D01*
G01*
X21239250Y-23325000D02*
G75*
G03*
X21239250Y-23325000I-87500J0D01*
G01*
X21652000Y-14752500D02*
G75*
G03*
X21652000Y-14752500I-87500J0D01*
G01*
X21652000Y-17610000D02*
G75*
G03*
X21652000Y-17610000I-87500J0D01*
G01*
X21715500Y-19515000D02*
G75*
G03*
X21715500Y-19515000I-87500J0D01*
G01*
X22128250Y-23325000D02*
G75*
G03*
X22128250Y-23325000I-87500J0D01*
G01*
X22191750Y-21420000D02*
G75*
G03*
X22191750Y-21420000I-87500J0D01*
G01*
X22604500Y-19515000D02*
G75*
G03*
X22604500Y-19515000I-87500J0D01*
G01*
X22668000Y-14752500D02*
G75*
G03*
X22668000Y-14752500I-87500J0D01*
G01*
X22668000Y-17610000D02*
G75*
G03*
X22668000Y-17610000I-87500J0D01*
G01*
X23080750Y-21420000D02*
G75*
G03*
X23080750Y-21420000I-87500J0D01*
G01*
X23144250Y-23325000D02*
G75*
G03*
X23144250Y-23325000I-87500J0D01*
G01*
X23557000Y-14752500D02*
G75*
G03*
X23557000Y-14752500I-87500J0D01*
G01*
X23557000Y-17610000D02*
G75*
G03*
X23557000Y-17610000I-87500J0D01*
G01*
X23620500Y-19515000D02*
G75*
G03*
X23620500Y-19515000I-87500J0D01*
G01*
X24033250Y-23325000D02*
G75*
G03*
X24033250Y-23325000I-87500J0D01*
G01*
X24096750Y-21420000D02*
G75*
G03*
X24096750Y-21420000I-87500J0D01*
G01*
X24509500Y-19515000D02*
G75*
G03*
X24509500Y-19515000I-87500J0D01*
G01*
X24573000Y-14752500D02*
G75*
G03*
X24573000Y-14752500I-87500J0D01*
G01*
X24573000Y-17610000D02*
G75*
G03*
X24573000Y-17610000I-87500J0D01*
G01*
X24985750Y-21420000D02*
G75*
G03*
X24985750Y-21420000I-87500J0D01*
G01*
X25049250Y-23325000D02*
G75*
G03*
X25049250Y-23325000I-87500J0D01*
G01*
X25462000Y-17610000D02*
G75*
G03*
X25462000Y-17610000I-87500J0D01*
G01*
X25525500Y-19515000D02*
G75*
G03*
X25525500Y-19515000I-87500J0D01*
G01*
X25938250Y-23325000D02*
G75*
G03*
X25938250Y-23325000I-87500J0D01*
G01*
X26001750Y-21420000D02*
G75*
G03*
X26001750Y-21420000I-87500J0D01*
G01*
X26176375Y-25230000D02*
G75*
G03*
X26176375Y-25230000I-87500J0D01*
G01*
X26414500Y-14752500D02*
G75*
G03*
X26414500Y-14752500I-87500J0D01*
G01*
X26414500Y-19515000D02*
G75*
G03*
X26414500Y-19515000I-87500J0D01*
G01*
X26478000Y-17610000D02*
G75*
G03*
X26478000Y-17610000I-87500J0D01*
G01*
X26890750Y-21420000D02*
G75*
G03*
X26890750Y-21420000I-87500J0D01*
G01*
X26954250Y-23325000D02*
G75*
G03*
X26954250Y-23325000I-87500J0D01*
G01*
X27192375Y-25230000D02*
G75*
G03*
X27192375Y-25230000I-87500J0D01*
G01*
X27367000Y-17610000D02*
G75*
G03*
X27367000Y-17610000I-87500J0D01*
G01*
X27430500Y-14752500D02*
G75*
G03*
X27430500Y-14752500I-87500J0D01*
G01*
X27430500Y-19515000D02*
G75*
G03*
X27430500Y-19515000I-87500J0D01*
G01*
X27843250Y-23325000D02*
G75*
G03*
X27843250Y-23325000I-87500J0D01*
G01*
X27906750Y-21420000D02*
G75*
G03*
X27906750Y-21420000I-87500J0D01*
G01*
X28319500Y-14752500D02*
G75*
G03*
X28319500Y-14752500I-87500J0D01*
G01*
X28319500Y-19515000D02*
G75*
G03*
X28319500Y-19515000I-87500J0D01*
G01*
X28383000Y-17610000D02*
G75*
G03*
X28383000Y-17610000I-87500J0D01*
G01*
X28795750Y-21420000D02*
G75*
G03*
X28795750Y-21420000I-87500J0D01*
G01*
X28859250Y-23325000D02*
G75*
G03*
X28859250Y-23325000I-87500J0D01*
G01*
X29272000Y-17610000D02*
G75*
G03*
X29272000Y-17610000I-87500J0D01*
G01*
X29335500Y-14752500D02*
G75*
G03*
X29335500Y-14752500I-87500J0D01*
G01*
X29335500Y-19515000D02*
G75*
G03*
X29335500Y-19515000I-87500J0D01*
G01*
X29748250Y-23325000D02*
G75*
G03*
X29748250Y-23325000I-87500J0D01*
G01*
X29811750Y-21420000D02*
G75*
G03*
X29811750Y-21420000I-87500J0D01*
G01*
X30224500Y-14752500D02*
G75*
G03*
X30224500Y-14752500I-87500J0D01*
G01*
X30224500Y-19515000D02*
G75*
G03*
X30224500Y-19515000I-87500J0D01*
G01*
X30288000Y-17610000D02*
G75*
G03*
X30288000Y-17610000I-87500J0D01*
G01*
X30700750Y-21420000D02*
G75*
G03*
X30700750Y-21420000I-87500J0D01*
G01*
X30764250Y-23325000D02*
G75*
G03*
X30764250Y-23325000I-87500J0D01*
G01*
X31177000Y-17610000D02*
G75*
G03*
X31177000Y-17610000I-87500J0D01*
G01*
X31240500Y-14752500D02*
G75*
G03*
X31240500Y-14752500I-87500J0D01*
G01*
X31240500Y-19515000D02*
G75*
G03*
X31240500Y-19515000I-87500J0D01*
G01*
X31653250Y-23325000D02*
G75*
G03*
X31653250Y-23325000I-87500J0D01*
G01*
X31716750Y-21420000D02*
G75*
G03*
X31716750Y-21420000I-87500J0D01*
G01*
X32129500Y-14752500D02*
G75*
G03*
X32129500Y-14752500I-87500J0D01*
G01*
X32129500Y-19515000D02*
G75*
G03*
X32129500Y-19515000I-87500J0D01*
G01*
X32193000Y-17610000D02*
G75*
G03*
X32193000Y-17610000I-87500J0D01*
G01*
X32605750Y-21420000D02*
G75*
G03*
X32605750Y-21420000I-87500J0D01*
G01*
X32669250Y-23325000D02*
G75*
G03*
X32669250Y-23325000I-87500J0D01*
G01*
X33082000Y-17610000D02*
G75*
G03*
X33082000Y-17610000I-87500J0D01*
G01*
X33145500Y-14752500D02*
G75*
G03*
X33145500Y-14752500I-87500J0D01*
G01*
X33145500Y-19515000D02*
G75*
G03*
X33145500Y-19515000I-87500J0D01*
G01*
X33320125Y-25230000D02*
G75*
G03*
X33320125Y-25230000I-87500J0D01*
G01*
X33558250Y-23325000D02*
G75*
G03*
X33558250Y-23325000I-87500J0D01*
G01*
X33621750Y-21420000D02*
G75*
G03*
X33621750Y-21420000I-87500J0D01*
G01*
X34034500Y-19515000D02*
G75*
G03*
X34034500Y-19515000I-87500J0D01*
G01*
X34098000Y-17610000D02*
G75*
G03*
X34098000Y-17610000I-87500J0D01*
G01*
X34336125Y-25230000D02*
G75*
G03*
X34336125Y-25230000I-87500J0D01*
G01*
X34510750Y-21420000D02*
G75*
G03*
X34510750Y-21420000I-87500J0D01*
G01*
X34574250Y-23325000D02*
G75*
G03*
X34574250Y-23325000I-87500J0D01*
G01*
X34987000Y-14752500D02*
G75*
G03*
X34987000Y-14752500I-87500J0D01*
G01*
X34987000Y-17610000D02*
G75*
G03*
X34987000Y-17610000I-87500J0D01*
G01*
X35050500Y-19515000D02*
G75*
G03*
X35050500Y-19515000I-87500J0D01*
G01*
X35463250Y-23325000D02*
G75*
G03*
X35463250Y-23325000I-87500J0D01*
G01*
X35526750Y-21420000D02*
G75*
G03*
X35526750Y-21420000I-87500J0D01*
G01*
X35701375Y-25230000D02*
G75*
G03*
X35701375Y-25230000I-87500J0D01*
G01*
X35939500Y-19515000D02*
G75*
G03*
X35939500Y-19515000I-87500J0D01*
G01*
X36003000Y-14752500D02*
G75*
G03*
X36003000Y-14752500I-87500J0D01*
G01*
X36003000Y-17610000D02*
G75*
G03*
X36003000Y-17610000I-87500J0D01*
G01*
X36415750Y-21420000D02*
G75*
G03*
X36415750Y-21420000I-87500J0D01*
G01*
X36479250Y-23325000D02*
G75*
G03*
X36479250Y-23325000I-87500J0D01*
G01*
X36717375Y-25230000D02*
G75*
G03*
X36717375Y-25230000I-87500J0D01*
G01*
X36892000Y-14752500D02*
G75*
G03*
X36892000Y-14752500I-87500J0D01*
G01*
X36892000Y-17610000D02*
G75*
G03*
X36892000Y-17610000I-87500J0D01*
G01*
X36955500Y-19515000D02*
G75*
G03*
X36955500Y-19515000I-87500J0D01*
G01*
X37431750Y-21420000D02*
G75*
G03*
X37431750Y-21420000I-87500J0D01*
G01*
X37844500Y-19515000D02*
G75*
G03*
X37844500Y-19515000I-87500J0D01*
G01*
X37908000Y-14752500D02*
G75*
G03*
X37908000Y-14752500I-87500J0D01*
G01*
X37908000Y-17610000D02*
G75*
G03*
X37908000Y-17610000I-87500J0D01*
G01*
X38082625Y-25230000D02*
G75*
G03*
X38082625Y-25230000I-87500J0D01*
G01*
X38320750Y-21420000D02*
G75*
G03*
X38320750Y-21420000I-87500J0D01*
G01*
X38797000Y-14752500D02*
G75*
G03*
X38797000Y-14752500I-87500J0D01*
G01*
X38860500Y-19515000D02*
G75*
G03*
X38860500Y-19515000I-87500J0D01*
G01*
X39035125Y-23325000D02*
G75*
G03*
X39035125Y-23325000I-87500J0D01*
G01*
X39098625Y-25230000D02*
G75*
G03*
X39098625Y-25230000I-87500J0D01*
G01*
X39336750Y-21420000D02*
G75*
G03*
X39336750Y-21420000I-87500J0D01*
G01*
X39509500Y-21417000D02*
G75*
G03*
X39509500Y-21417000I-87500J0D01*
G01*
X39749500Y-17610000D02*
G75*
G03*
X39749500Y-17610000I-87500J0D01*
G01*
X39813000Y-14752500D02*
G75*
G03*
X39813000Y-14752500I-87500J0D01*
G01*
X40051125Y-23325000D02*
G75*
G03*
X40051125Y-23325000I-87500J0D01*
G01*
X40224500Y-19512500D02*
G75*
G03*
X40224500Y-19512500I-87500J0D01*
G01*
X40463875Y-25230000D02*
G75*
G03*
X40463875Y-25230000I-87500J0D01*
G01*
X40525500Y-21417000D02*
G75*
G03*
X40525500Y-21417000I-87500J0D01*
G01*
X40702000Y-14752500D02*
G75*
G03*
X40702000Y-14752500I-87500J0D01*
G01*
X40765500Y-17610000D02*
G75*
G03*
X40765500Y-17610000I-87500J0D01*
G01*
X40970000Y-19959500D02*
G75*
G03*
X40970000Y-19959500I-87500J0D01*
G01*
X40970000Y-20975500D02*
G75*
G03*
X40970000Y-20975500I-87500J0D01*
G01*
X41240500Y-19512500D02*
G75*
G03*
X41240500Y-19512500I-87500J0D01*
G01*
X41479875Y-25230000D02*
G75*
G03*
X41479875Y-25230000I-87500J0D01*
G01*
X41718000Y-14752500D02*
G75*
G03*
X41718000Y-14752500I-87500J0D01*
G01*
X43083250Y-14752500D02*
G75*
G03*
X43083250Y-14752500I-87500J0D01*
G01*
X43083250Y-17610000D02*
G75*
G03*
X43083250Y-17610000I-87500J0D01*
G01*
X43083250Y-19515000D02*
G75*
G03*
X43083250Y-19515000I-87500J0D01*
G01*
X43083250Y-25230000D02*
G75*
G03*
X43083250Y-25230000I-87500J0D01*
G01*
X44099250Y-14752500D02*
G75*
G03*
X44099250Y-14752500I-87500J0D01*
G01*
X44099250Y-17610000D02*
G75*
G03*
X44099250Y-17610000I-87500J0D01*
G01*
X44099250Y-19515000D02*
G75*
G03*
X44099250Y-19515000I-87500J0D01*
G01*
X44099250Y-25230000D02*
G75*
G03*
X44099250Y-25230000I-87500J0D01*
G01*
X44988250Y-14752500D02*
G75*
G03*
X44988250Y-14752500I-87500J0D01*
G01*
X44988250Y-17610000D02*
G75*
G03*
X44988250Y-17610000I-87500J0D01*
G01*
X44988250Y-19515000D02*
G75*
G03*
X44988250Y-19515000I-87500J0D01*
G01*
X44988250Y-23325000D02*
G75*
G03*
X44988250Y-23325000I-87500J0D01*
G01*
X44988250Y-25230000D02*
G75*
G03*
X44988250Y-25230000I-87500J0D01*
G01*
X46004250Y-14752500D02*
G75*
G03*
X46004250Y-14752500I-87500J0D01*
G01*
X46004250Y-17610000D02*
G75*
G03*
X46004250Y-17610000I-87500J0D01*
G01*
X46004250Y-19515000D02*
G75*
G03*
X46004250Y-19515000I-87500J0D01*
G01*
X46004250Y-23325000D02*
G75*
G03*
X46004250Y-23325000I-87500J0D01*
G01*
X46004250Y-25230000D02*
G75*
G03*
X46004250Y-25230000I-87500J0D01*
G01*
X46893250Y-14752500D02*
G75*
G03*
X46893250Y-14752500I-87500J0D01*
G01*
X46893250Y-17610000D02*
G75*
G03*
X46893250Y-17610000I-87500J0D01*
G01*
X46893250Y-19515000D02*
G75*
G03*
X46893250Y-19515000I-87500J0D01*
G01*
X46893250Y-25230000D02*
G75*
G03*
X46893250Y-25230000I-87500J0D01*
G01*
X47909250Y-14752500D02*
G75*
G03*
X47909250Y-14752500I-87500J0D01*
G01*
X47909250Y-17610000D02*
G75*
G03*
X47909250Y-17610000I-87500J0D01*
G01*
X47909250Y-19515000D02*
G75*
G03*
X47909250Y-19515000I-87500J0D01*
G01*
X47909250Y-25230000D02*
G75*
G03*
X47909250Y-25230000I-87500J0D01*
G01*
X13915000Y-10912500D02*
X13915000Y-11132500D01*
X13805000Y-11022500D02*
X14025000Y-11022500D01*
X13935000Y-24165000D02*
X13935000Y-24385000D01*
X13825000Y-24275000D02*
X14045000Y-24275000D01*
X14455000Y-16070000D02*
X14455000Y-16290000D01*
X14345000Y-16180000D02*
X14565000Y-16180000D01*
X15882500Y-25605000D02*
X15882500Y-25825000D01*
X15772500Y-25715000D02*
X15992500Y-25715000D01*
X30855000Y-16070000D02*
X30855000Y-16290000D01*
X30745000Y-16180000D02*
X30965000Y-16180000D01*
X30855000Y-20330000D02*
X30855000Y-20550000D01*
X30745000Y-20440000D02*
X30965000Y-20440000D01*
X30855000Y-25605000D02*
X30855000Y-25825000D01*
X30745000Y-25715000D02*
X30965000Y-25715000D01*
X46361500Y-25605000D02*
X46361500Y-25825000D01*
X46251500Y-25715000D02*
X46471500Y-25715000D01*
X47310000Y-16070000D02*
X47310000Y-16290000D01*
X47200000Y-16180000D02*
X47420000Y-16180000D01*
X47822500Y-10912500D02*
X47822500Y-11132500D01*
X47712500Y-11022500D02*
X47932500Y-11022500D01*
X47830000Y-24165000D02*
X47830000Y-24385000D01*
X47720000Y-24275000D02*
X47940000Y-24275000D01*
X14562139Y-22734264D02*
X14562139Y-22518736D01*
X14346611Y-22518736D01*
X14346611Y-22734264D01*
X14562139Y-22734264D01*
X16943389Y-22734264D02*
X16943389Y-22518736D01*
X16727861Y-22518736D01*
X16727861Y-22734264D01*
X16943389Y-22734264D01*
X21704649Y-26036264D02*
X21704649Y-25820736D01*
X21489121Y-25820736D01*
X21489121Y-26036264D01*
X21704649Y-26036264D01*
X31704629Y-26036264D02*
X31704629Y-25820736D01*
X31489101Y-25820736D01*
X31489101Y-26036264D01*
X31704629Y-26036264D01*
X38372764Y-22734264D02*
X38372764Y-22518736D01*
X38157236Y-22518736D01*
X38157236Y-22734264D01*
X38372764Y-22734264D01*
X38847139Y-20826264D02*
X38847139Y-20610736D01*
X38631611Y-20610736D01*
X38631611Y-20826264D01*
X38847139Y-20826264D01*
X39087139Y-17019264D02*
X39087139Y-16803736D01*
X38871611Y-16803736D01*
X38871611Y-17019264D01*
X39087139Y-17019264D01*
X40754014Y-22734264D02*
X40754014Y-22518736D01*
X40538486Y-22518736D01*
X40538486Y-22734264D01*
X40754014Y-22734264D01*
X41228389Y-20826264D02*
X41228389Y-20610736D01*
X41012861Y-20610736D01*
X41012861Y-20826264D01*
X41228389Y-20826264D01*
X41468389Y-17019264D02*
X41468389Y-16803736D01*
X41252861Y-16803736D01*
X41252861Y-17019264D01*
X41468389Y-17019264D01*
X41688764Y-19381464D02*
X41688764Y-19165936D01*
X41473236Y-19165936D01*
X41473236Y-19381464D01*
X41688764Y-19381464D01*
X41688764Y-21769064D02*
X41688764Y-21553536D01*
X41473236Y-21553536D01*
X41473236Y-21769064D01*
X41688764Y-21769064D01*
X14452500Y-14951890D02*
X14651890Y-14752500D01*
X14452500Y-14553110D01*
X14253110Y-14752500D01*
X14452500Y-14951890D01*
X14452500Y-17809390D02*
X14651890Y-17610000D01*
X14452500Y-17410610D01*
X14253110Y-17610000D01*
X14452500Y-17809390D01*
X14454375Y-24349890D02*
X14653765Y-24150500D01*
X14454375Y-23951110D01*
X14254985Y-24150500D01*
X14454375Y-24349890D01*
X14690625Y-23524390D02*
X14890015Y-23325000D01*
X14690625Y-23125610D01*
X14491235Y-23325000D01*
X14690625Y-23524390D01*
X14690625Y-25429390D02*
X14890015Y-25230000D01*
X14690625Y-25030610D01*
X14491235Y-25230000D01*
X14690625Y-25429390D01*
X14928750Y-19714390D02*
X15128140Y-19515000D01*
X14928750Y-19315610D01*
X14729360Y-19515000D01*
X14928750Y-19714390D01*
X15166875Y-21619390D02*
X15366265Y-21420000D01*
X15166875Y-21220610D01*
X14967485Y-21420000D01*
X15166875Y-21619390D01*
X15645000Y-23524390D02*
X15844390Y-23325000D01*
X15645000Y-23125610D01*
X15445610Y-23325000D01*
X15645000Y-23524390D01*
X16357500Y-17809390D02*
X16556890Y-17610000D01*
X16357500Y-17410610D01*
X16158110Y-17610000D01*
X16357500Y-17809390D01*
X16833750Y-23524390D02*
X17033140Y-23325000D01*
X16833750Y-23125610D01*
X16634360Y-23325000D01*
X16833750Y-23524390D01*
X16835625Y-24349890D02*
X17035015Y-24150500D01*
X16835625Y-23951110D01*
X16636235Y-24150500D01*
X16835625Y-24349890D01*
X17071875Y-25429390D02*
X17271265Y-25230000D01*
X17071875Y-25030610D01*
X16872485Y-25230000D01*
X17071875Y-25429390D01*
X17310000Y-19714390D02*
X17509390Y-19515000D01*
X17310000Y-19315610D01*
X17110610Y-19515000D01*
X17310000Y-19714390D01*
X17786250Y-21619390D02*
X17985640Y-21420000D01*
X17786250Y-21220610D01*
X17586860Y-21420000D01*
X17786250Y-21619390D01*
X18262500Y-14951890D02*
X18461890Y-14752500D01*
X18262500Y-14553110D01*
X18063110Y-14752500D01*
X18262500Y-14951890D01*
X18262500Y-17809390D02*
X18461890Y-17610000D01*
X18262500Y-17410610D01*
X18063110Y-17610000D01*
X18262500Y-17809390D01*
X18738750Y-23524390D02*
X18938140Y-23325000D01*
X18738750Y-23125610D01*
X18539360Y-23325000D01*
X18738750Y-23524390D01*
X19215000Y-19714390D02*
X19414390Y-19515000D01*
X19215000Y-19315610D01*
X19015610Y-19515000D01*
X19215000Y-19714390D01*
X19453125Y-25429390D02*
X19652515Y-25230000D01*
X19453125Y-25030610D01*
X19253735Y-25230000D01*
X19453125Y-25429390D01*
X19691250Y-21619390D02*
X19890640Y-21420000D01*
X19691250Y-21220610D01*
X19491860Y-21420000D01*
X19691250Y-21619390D01*
X20167500Y-14951890D02*
X20366890Y-14752500D01*
X20167500Y-14553110D01*
X19968110Y-14752500D01*
X20167500Y-14951890D01*
X20167500Y-17809390D02*
X20366890Y-17610000D01*
X20167500Y-17410610D01*
X19968110Y-17610000D01*
X20167500Y-17809390D01*
X20643750Y-23524390D02*
X20843140Y-23325000D01*
X20643750Y-23125610D01*
X20444360Y-23325000D01*
X20643750Y-23524390D01*
X21120000Y-19714390D02*
X21319390Y-19515000D01*
X21120000Y-19315610D01*
X20920610Y-19515000D01*
X21120000Y-19714390D01*
X21596250Y-21619390D02*
X21795640Y-21420000D01*
X21596250Y-21220610D01*
X21396860Y-21420000D01*
X21596250Y-21619390D01*
X21596885Y-24603890D02*
X21796275Y-24404500D01*
X21596885Y-24205110D01*
X21397495Y-24404500D01*
X21596885Y-24603890D01*
X22072500Y-14951890D02*
X22271890Y-14752500D01*
X22072500Y-14553110D01*
X21873110Y-14752500D01*
X22072500Y-14951890D01*
X22072500Y-17809390D02*
X22271890Y-17610000D01*
X22072500Y-17410610D01*
X21873110Y-17610000D01*
X22072500Y-17809390D01*
X22548750Y-23524390D02*
X22748140Y-23325000D01*
X22548750Y-23125610D01*
X22349360Y-23325000D01*
X22548750Y-23524390D01*
X23025000Y-19714390D02*
X23224390Y-19515000D01*
X23025000Y-19315610D01*
X22825610Y-19515000D01*
X23025000Y-19714390D01*
X23501250Y-21619390D02*
X23700640Y-21420000D01*
X23501250Y-21220610D01*
X23301860Y-21420000D01*
X23501250Y-21619390D01*
X23977500Y-14951890D02*
X24176890Y-14752500D01*
X23977500Y-14553110D01*
X23778110Y-14752500D01*
X23977500Y-14951890D01*
X23977500Y-17809390D02*
X24176890Y-17610000D01*
X23977500Y-17410610D01*
X23778110Y-17610000D01*
X23977500Y-17809390D01*
X24453750Y-23524390D02*
X24653140Y-23325000D01*
X24453750Y-23125610D01*
X24254360Y-23325000D01*
X24453750Y-23524390D01*
X24930000Y-19714390D02*
X25129390Y-19515000D01*
X24930000Y-19315610D01*
X24730610Y-19515000D01*
X24930000Y-19714390D01*
X25406250Y-21619390D02*
X25605640Y-21420000D01*
X25406250Y-21220610D01*
X25206860Y-21420000D01*
X25406250Y-21619390D01*
X25882500Y-17809390D02*
X26081890Y-17610000D01*
X25882500Y-17410610D01*
X25683110Y-17610000D01*
X25882500Y-17809390D01*
X26358750Y-23524390D02*
X26558140Y-23325000D01*
X26358750Y-23125610D01*
X26159360Y-23325000D01*
X26358750Y-23524390D01*
X26596875Y-25429390D02*
X26796265Y-25230000D01*
X26596875Y-25030610D01*
X26397485Y-25230000D01*
X26596875Y-25429390D01*
X26835000Y-14951890D02*
X27034390Y-14752500D01*
X26835000Y-14553110D01*
X26635610Y-14752500D01*
X26835000Y-14951890D01*
X26835000Y-19714390D02*
X27034390Y-19515000D01*
X26835000Y-19315610D01*
X26635610Y-19515000D01*
X26835000Y-19714390D01*
X27311250Y-21619390D02*
X27510640Y-21420000D01*
X27311250Y-21220610D01*
X27111860Y-21420000D01*
X27311250Y-21619390D01*
X27787500Y-17809390D02*
X27986890Y-17610000D01*
X27787500Y-17410610D01*
X27588110Y-17610000D01*
X27787500Y-17809390D01*
X28263750Y-23524390D02*
X28463140Y-23325000D01*
X28263750Y-23125610D01*
X28064360Y-23325000D01*
X28263750Y-23524390D01*
X28740000Y-14951890D02*
X28939390Y-14752500D01*
X28740000Y-14553110D01*
X28540610Y-14752500D01*
X28740000Y-14951890D01*
X28740000Y-19714390D02*
X28939390Y-19515000D01*
X28740000Y-19315610D01*
X28540610Y-19515000D01*
X28740000Y-19714390D01*
X29216250Y-21619390D02*
X29415640Y-21420000D01*
X29216250Y-21220610D01*
X29016860Y-21420000D01*
X29216250Y-21619390D01*
X29692500Y-17809390D02*
X29891890Y-17610000D01*
X29692500Y-17410610D01*
X29493110Y-17610000D01*
X29692500Y-17809390D01*
X30168750Y-23524390D02*
X30368140Y-23325000D01*
X30168750Y-23125610D01*
X29969360Y-23325000D01*
X30168750Y-23524390D01*
X30645000Y-14951890D02*
X30844390Y-14752500D01*
X30645000Y-14553110D01*
X30445610Y-14752500D01*
X30645000Y-14951890D01*
X30645000Y-19714390D02*
X30844390Y-19515000D01*
X30645000Y-19315610D01*
X30445610Y-19515000D01*
X30645000Y-19714390D01*
X31121250Y-21619390D02*
X31320640Y-21420000D01*
X31121250Y-21220610D01*
X30921860Y-21420000D01*
X31121250Y-21619390D01*
X31596865Y-24603890D02*
X31796255Y-24404500D01*
X31596865Y-24205110D01*
X31397475Y-24404500D01*
X31596865Y-24603890D01*
X31597500Y-17809390D02*
X31796890Y-17610000D01*
X31597500Y-17410610D01*
X31398110Y-17610000D01*
X31597500Y-17809390D01*
X32073750Y-23524390D02*
X32273140Y-23325000D01*
X32073750Y-23125610D01*
X31874360Y-23325000D01*
X32073750Y-23524390D01*
X32550000Y-14951890D02*
X32749390Y-14752500D01*
X32550000Y-14553110D01*
X32350610Y-14752500D01*
X32550000Y-14951890D01*
X32550000Y-19714390D02*
X32749390Y-19515000D01*
X32550000Y-19315610D01*
X32350610Y-19515000D01*
X32550000Y-19714390D01*
X33026250Y-21619390D02*
X33225640Y-21420000D01*
X33026250Y-21220610D01*
X32826860Y-21420000D01*
X33026250Y-21619390D01*
X33502500Y-17809390D02*
X33701890Y-17610000D01*
X33502500Y-17410610D01*
X33303110Y-17610000D01*
X33502500Y-17809390D01*
X33740625Y-25429390D02*
X33940015Y-25230000D01*
X33740625Y-25030610D01*
X33541235Y-25230000D01*
X33740625Y-25429390D01*
X33978750Y-23524390D02*
X34178140Y-23325000D01*
X33978750Y-23125610D01*
X33779360Y-23325000D01*
X33978750Y-23524390D01*
X34455000Y-19714390D02*
X34654390Y-19515000D01*
X34455000Y-19315610D01*
X34255610Y-19515000D01*
X34455000Y-19714390D01*
X34931250Y-21619390D02*
X35130640Y-21420000D01*
X34931250Y-21220610D01*
X34731860Y-21420000D01*
X34931250Y-21619390D01*
X35407500Y-14951890D02*
X35606890Y-14752500D01*
X35407500Y-14553110D01*
X35208110Y-14752500D01*
X35407500Y-14951890D01*
X35407500Y-17809390D02*
X35606890Y-17610000D01*
X35407500Y-17410610D01*
X35208110Y-17610000D01*
X35407500Y-17809390D01*
X35883750Y-23524390D02*
X36083140Y-23325000D01*
X35883750Y-23125610D01*
X35684360Y-23325000D01*
X35883750Y-23524390D01*
X36121875Y-25429390D02*
X36321265Y-25230000D01*
X36121875Y-25030610D01*
X35922485Y-25230000D01*
X36121875Y-25429390D01*
X36360000Y-19714390D02*
X36559390Y-19515000D01*
X36360000Y-19315610D01*
X36160610Y-19515000D01*
X36360000Y-19714390D01*
X36836250Y-21619390D02*
X37035640Y-21420000D01*
X36836250Y-21220610D01*
X36636860Y-21420000D01*
X36836250Y-21619390D01*
X37312500Y-14951890D02*
X37511890Y-14752500D01*
X37312500Y-14553110D01*
X37113110Y-14752500D01*
X37312500Y-14951890D01*
X37312500Y-17809390D02*
X37511890Y-17610000D01*
X37312500Y-17410610D01*
X37113110Y-17610000D01*
X37312500Y-17809390D01*
X38265000Y-19714390D02*
X38464390Y-19515000D01*
X38265000Y-19315610D01*
X38065610Y-19515000D01*
X38265000Y-19714390D01*
X38265000Y-24349890D02*
X38464390Y-24150500D01*
X38265000Y-23951110D01*
X38065610Y-24150500D01*
X38265000Y-24349890D01*
X38503125Y-25429390D02*
X38702515Y-25230000D01*
X38503125Y-25030610D01*
X38303735Y-25230000D01*
X38503125Y-25429390D01*
X38739375Y-22441890D02*
X38938765Y-22242500D01*
X38739375Y-22043110D01*
X38539985Y-22242500D01*
X38739375Y-22441890D01*
X38741250Y-21619390D02*
X38940640Y-21420000D01*
X38741250Y-21220610D01*
X38541860Y-21420000D01*
X38741250Y-21619390D01*
X38979375Y-18634890D02*
X39178765Y-18435500D01*
X38979375Y-18236110D01*
X38779985Y-18435500D01*
X38979375Y-18634890D01*
X39217500Y-14951890D02*
X39416890Y-14752500D01*
X39217500Y-14553110D01*
X39018110Y-14752500D01*
X39217500Y-14951890D01*
X39455625Y-23524390D02*
X39655015Y-23325000D01*
X39455625Y-23125610D01*
X39256235Y-23325000D01*
X39455625Y-23524390D01*
X39930000Y-21616390D02*
X40129390Y-21417000D01*
X39930000Y-21217610D01*
X39730610Y-21417000D01*
X39930000Y-21616390D01*
X40057000Y-19473090D02*
X40256390Y-19273700D01*
X40057000Y-19074310D01*
X39857610Y-19273700D01*
X40057000Y-19473090D01*
X40057000Y-21860690D02*
X40256390Y-21661300D01*
X40057000Y-21461910D01*
X39857610Y-21661300D01*
X40057000Y-21860690D01*
X40170000Y-17809390D02*
X40369390Y-17610000D01*
X40170000Y-17410610D01*
X39970610Y-17610000D01*
X40170000Y-17809390D01*
X40645000Y-19711890D02*
X40844390Y-19512500D01*
X40645000Y-19313110D01*
X40445610Y-19512500D01*
X40645000Y-19711890D01*
X40646250Y-24349890D02*
X40845640Y-24150500D01*
X40646250Y-23951110D01*
X40446860Y-24150500D01*
X40646250Y-24349890D01*
X40882500Y-20666890D02*
X41081890Y-20467500D01*
X40882500Y-20268110D01*
X40683110Y-20467500D01*
X40882500Y-20666890D01*
X40884375Y-25429390D02*
X41083765Y-25230000D01*
X40884375Y-25030610D01*
X40684985Y-25230000D01*
X40884375Y-25429390D01*
X41120625Y-22441890D02*
X41320015Y-22242500D01*
X41120625Y-22043110D01*
X40921235Y-22242500D01*
X41120625Y-22441890D01*
X41122500Y-14951890D02*
X41321890Y-14752500D01*
X41122500Y-14553110D01*
X40923110Y-14752500D01*
X41122500Y-14951890D01*
X41360625Y-18634890D02*
X41560015Y-18435500D01*
X41360625Y-18236110D01*
X41161235Y-18435500D01*
X41360625Y-18634890D01*
X43503750Y-14951890D02*
X43703140Y-14752500D01*
X43503750Y-14553110D01*
X43304360Y-14752500D01*
X43503750Y-14951890D01*
X43503750Y-17809390D02*
X43703140Y-17610000D01*
X43503750Y-17410610D01*
X43304360Y-17610000D01*
X43503750Y-17809390D01*
X43503750Y-19714390D02*
X43703140Y-19515000D01*
X43503750Y-19315610D01*
X43304360Y-19515000D01*
X43503750Y-19714390D01*
X43503750Y-25429390D02*
X43703140Y-25230000D01*
X43503750Y-25030610D01*
X43304360Y-25230000D01*
X43503750Y-25429390D01*
X45408750Y-14951890D02*
X45608140Y-14752500D01*
X45408750Y-14553110D01*
X45209360Y-14752500D01*
X45408750Y-14951890D01*
X45408750Y-17809390D02*
X45608140Y-17610000D01*
X45408750Y-17410610D01*
X45209360Y-17610000D01*
X45408750Y-17809390D01*
X45408750Y-19714390D02*
X45608140Y-19515000D01*
X45408750Y-19315610D01*
X45209360Y-19515000D01*
X45408750Y-19714390D01*
X45408750Y-23524390D02*
X45608140Y-23325000D01*
X45408750Y-23125610D01*
X45209360Y-23325000D01*
X45408750Y-23524390D01*
X45408750Y-25429390D02*
X45608140Y-25230000D01*
X45408750Y-25030610D01*
X45209360Y-25230000D01*
X45408750Y-25429390D01*
X47313750Y-14951890D02*
X47513140Y-14752500D01*
X47313750Y-14553110D01*
X47114360Y-14752500D01*
X47313750Y-14951890D01*
X47313750Y-17809390D02*
X47513140Y-17610000D01*
X47313750Y-17410610D01*
X47114360Y-17610000D01*
X47313750Y-17809390D01*
X47313750Y-19714390D02*
X47513140Y-19515000D01*
X47313750Y-19315610D01*
X47114360Y-19515000D01*
X47313750Y-19714390D01*
X47313750Y-25429390D02*
X47513140Y-25230000D01*
X47313750Y-25030610D01*
X47114360Y-25230000D01*
X47313750Y-25429390D01*
D12*
X13756223Y-26668214D02*
X13756223Y-26368214D01*
X13827652Y-26368214D01*
X13870509Y-26382500D01*
X13899080Y-26411071D01*
X13913366Y-26439643D01*
X13927652Y-26496786D01*
X13927652Y-26539643D01*
X13913366Y-26596786D01*
X13899080Y-26625357D01*
X13870509Y-26653929D01*
X13827652Y-26668214D01*
X13756223Y-26668214D01*
X14056223Y-26668214D02*
X14056223Y-26468214D01*
X14056223Y-26525357D02*
X14070509Y-26496786D01*
X14084795Y-26482500D01*
X14113366Y-26468214D01*
X14141937Y-26468214D01*
X14241937Y-26668214D02*
X14241937Y-26468214D01*
X14241937Y-26368214D02*
X14227652Y-26382500D01*
X14241937Y-26396786D01*
X14256223Y-26382500D01*
X14241937Y-26368214D01*
X14241937Y-26396786D01*
X14427652Y-26668214D02*
X14399080Y-26653929D01*
X14384795Y-26625357D01*
X14384795Y-26368214D01*
X14584795Y-26668214D02*
X14556223Y-26653929D01*
X14541937Y-26625357D01*
X14541937Y-26368214D01*
X14927652Y-26668214D02*
X14927652Y-26368214D01*
X15027652Y-26582500D01*
X15127652Y-26368214D01*
X15127652Y-26668214D01*
X15399080Y-26668214D02*
X15399080Y-26511071D01*
X15384795Y-26482500D01*
X15356223Y-26468214D01*
X15299080Y-26468214D01*
X15270509Y-26482500D01*
X15399080Y-26653929D02*
X15370509Y-26668214D01*
X15299080Y-26668214D01*
X15270509Y-26653929D01*
X15256223Y-26625357D01*
X15256223Y-26596786D01*
X15270509Y-26568214D01*
X15299080Y-26553929D01*
X15370509Y-26553929D01*
X15399080Y-26539643D01*
X15541937Y-26468214D02*
X15541937Y-26768214D01*
X15541937Y-26482500D02*
X15570509Y-26468214D01*
X15627652Y-26468214D01*
X15656223Y-26482500D01*
X15670509Y-26496786D01*
X15684795Y-26525357D01*
X15684795Y-26611071D01*
X15670509Y-26639643D01*
X15656223Y-26653929D01*
X15627652Y-26668214D01*
X15570509Y-26668214D01*
X15541937Y-26653929D01*
X15813366Y-26639643D02*
X15827652Y-26653929D01*
X15813366Y-26668214D01*
X15799080Y-26653929D01*
X15813366Y-26639643D01*
X15813366Y-26668214D01*
X15813366Y-26482500D02*
X15827652Y-26496786D01*
X15813366Y-26511071D01*
X15799080Y-26496786D01*
X15813366Y-26482500D01*
X15813366Y-26511071D01*
X13404795Y-27130000D02*
X13469795Y-27195000D01*
X13469795Y-27130000D02*
X13404795Y-27195000D01*
X13813366Y-26998214D02*
X13841937Y-26998214D01*
X13870509Y-27012500D01*
X13884795Y-27026786D01*
X13899080Y-27055357D01*
X13913366Y-27112500D01*
X13913366Y-27183929D01*
X13899080Y-27241071D01*
X13884795Y-27269643D01*
X13870509Y-27283929D01*
X13841937Y-27298214D01*
X13813366Y-27298214D01*
X13784795Y-27283929D01*
X13770509Y-27269643D01*
X13756223Y-27241071D01*
X13741937Y-27183929D01*
X13741937Y-27112500D01*
X13756223Y-27055357D01*
X13770509Y-27026786D01*
X13784795Y-27012500D01*
X13813366Y-26998214D01*
X14041937Y-27269643D02*
X14056223Y-27283929D01*
X14041937Y-27298214D01*
X14027652Y-27283929D01*
X14041937Y-27269643D01*
X14041937Y-27298214D01*
X14313366Y-26998214D02*
X14256223Y-26998214D01*
X14227652Y-27012500D01*
X14213366Y-27026786D01*
X14184795Y-27069643D01*
X14170509Y-27126786D01*
X14170509Y-27241071D01*
X14184795Y-27269643D01*
X14199080Y-27283929D01*
X14227652Y-27298214D01*
X14284795Y-27298214D01*
X14313366Y-27283929D01*
X14327652Y-27269643D01*
X14341937Y-27241071D01*
X14341937Y-27169643D01*
X14327652Y-27141071D01*
X14313366Y-27126786D01*
X14284795Y-27112500D01*
X14227652Y-27112500D01*
X14199080Y-27126786D01*
X14184795Y-27141071D01*
X14170509Y-27169643D01*
X14613366Y-26998214D02*
X14470509Y-26998214D01*
X14456223Y-27141071D01*
X14470509Y-27126786D01*
X14499080Y-27112500D01*
X14570509Y-27112500D01*
X14599080Y-27126786D01*
X14613366Y-27141071D01*
X14627652Y-27169643D01*
X14627652Y-27241071D01*
X14613366Y-27269643D01*
X14599080Y-27283929D01*
X14570509Y-27298214D01*
X14499080Y-27298214D01*
X14470509Y-27283929D01*
X14456223Y-27269643D01*
X14756223Y-27298214D02*
X14756223Y-27098214D01*
X14756223Y-27126786D02*
X14770509Y-27112500D01*
X14799080Y-27098214D01*
X14841937Y-27098214D01*
X14870509Y-27112500D01*
X14884795Y-27141071D01*
X14884795Y-27298214D01*
X14884795Y-27141071D02*
X14899080Y-27112500D01*
X14927652Y-27098214D01*
X14970509Y-27098214D01*
X14999080Y-27112500D01*
X15013366Y-27141071D01*
X15013366Y-27298214D01*
X15156223Y-27298214D02*
X15156223Y-27098214D01*
X15156223Y-27126786D02*
X15170509Y-27112500D01*
X15199080Y-27098214D01*
X15241937Y-27098214D01*
X15270509Y-27112500D01*
X15284795Y-27141071D01*
X15284795Y-27298214D01*
X15284795Y-27141071D02*
X15299080Y-27112500D01*
X15327652Y-27098214D01*
X15370509Y-27098214D01*
X15399080Y-27112500D01*
X15413366Y-27141071D01*
X15413366Y-27298214D01*
X15999080Y-26983929D02*
X15741937Y-27369643D01*
X16384795Y-26998214D02*
X16413366Y-26998214D01*
X16441937Y-27012500D01*
X16456223Y-27026786D01*
X16470509Y-27055357D01*
X16484795Y-27112500D01*
X16484795Y-27183929D01*
X16470509Y-27241071D01*
X16456223Y-27269643D01*
X16441937Y-27283929D01*
X16413366Y-27298214D01*
X16384795Y-27298214D01*
X16356223Y-27283929D01*
X16341937Y-27269643D01*
X16327652Y-27241071D01*
X16313366Y-27183929D01*
X16313366Y-27112500D01*
X16327652Y-27055357D01*
X16341937Y-27026786D01*
X16356223Y-27012500D01*
X16384795Y-26998214D01*
X16613366Y-27269643D02*
X16627652Y-27283929D01*
X16613366Y-27298214D01*
X16599080Y-27283929D01*
X16613366Y-27269643D01*
X16613366Y-27298214D01*
X16813366Y-26998214D02*
X16841937Y-26998214D01*
X16870509Y-27012500D01*
X16884795Y-27026786D01*
X16899080Y-27055357D01*
X16913366Y-27112500D01*
X16913366Y-27183929D01*
X16899080Y-27241071D01*
X16884795Y-27269643D01*
X16870509Y-27283929D01*
X16841937Y-27298214D01*
X16813366Y-27298214D01*
X16784795Y-27283929D01*
X16770509Y-27269643D01*
X16756223Y-27241071D01*
X16741937Y-27183929D01*
X16741937Y-27112500D01*
X16756223Y-27055357D01*
X16770509Y-27026786D01*
X16784795Y-27012500D01*
X16813366Y-26998214D01*
X17027652Y-27026786D02*
X17041937Y-27012500D01*
X17070509Y-26998214D01*
X17141937Y-26998214D01*
X17170509Y-27012500D01*
X17184795Y-27026786D01*
X17199080Y-27055357D01*
X17199080Y-27083929D01*
X17184795Y-27126786D01*
X17013366Y-27298214D01*
X17199080Y-27298214D01*
X17456223Y-26998214D02*
X17399080Y-26998214D01*
X17370509Y-27012500D01*
X17356223Y-27026786D01*
X17327652Y-27069643D01*
X17313366Y-27126786D01*
X17313366Y-27241071D01*
X17327652Y-27269643D01*
X17341937Y-27283929D01*
X17370509Y-27298214D01*
X17427652Y-27298214D01*
X17456223Y-27283929D01*
X17470509Y-27269643D01*
X17484795Y-27241071D01*
X17484795Y-27169643D01*
X17470509Y-27141071D01*
X17456223Y-27126786D01*
X17427652Y-27112500D01*
X17370509Y-27112500D01*
X17341937Y-27126786D01*
X17327652Y-27141071D01*
X17313366Y-27169643D01*
X17599080Y-26998214D02*
X17599080Y-27055357D01*
X17713366Y-26998214D02*
X17713366Y-27055357D01*
X18156223Y-27412500D02*
X18141937Y-27398214D01*
X18113366Y-27355357D01*
X18099080Y-27326786D01*
X18084795Y-27283929D01*
X18070509Y-27212500D01*
X18070509Y-27155357D01*
X18084795Y-27083929D01*
X18099080Y-27041071D01*
X18113366Y-27012500D01*
X18141937Y-26969643D01*
X18156223Y-26955357D01*
X18256223Y-27026786D02*
X18270509Y-27012500D01*
X18299080Y-26998214D01*
X18370509Y-26998214D01*
X18399080Y-27012500D01*
X18413366Y-27026786D01*
X18427652Y-27055357D01*
X18427652Y-27083929D01*
X18413366Y-27126786D01*
X18241937Y-27298214D01*
X18427652Y-27298214D01*
X18784795Y-27298214D02*
X18784795Y-26998214D01*
X18913366Y-27298214D02*
X18913366Y-27141071D01*
X18899080Y-27112500D01*
X18870509Y-27098214D01*
X18827652Y-27098214D01*
X18799080Y-27112500D01*
X18784795Y-27126786D01*
X19099080Y-27298214D02*
X19070509Y-27283929D01*
X19056223Y-27269643D01*
X19041937Y-27241071D01*
X19041937Y-27155357D01*
X19056223Y-27126786D01*
X19070509Y-27112500D01*
X19099080Y-27098214D01*
X19141937Y-27098214D01*
X19170509Y-27112500D01*
X19184795Y-27126786D01*
X19199080Y-27155357D01*
X19199080Y-27241071D01*
X19184795Y-27269643D01*
X19170509Y-27283929D01*
X19141937Y-27298214D01*
X19099080Y-27298214D01*
X19370509Y-27298214D02*
X19341937Y-27283929D01*
X19327652Y-27255357D01*
X19327652Y-26998214D01*
X19599080Y-27283929D02*
X19570509Y-27298214D01*
X19513366Y-27298214D01*
X19484795Y-27283929D01*
X19470509Y-27255357D01*
X19470509Y-27141071D01*
X19484795Y-27112500D01*
X19513366Y-27098214D01*
X19570509Y-27098214D01*
X19599080Y-27112500D01*
X19613366Y-27141071D01*
X19613366Y-27169643D01*
X19470509Y-27198214D01*
X19727652Y-27283929D02*
X19756223Y-27298214D01*
X19813366Y-27298214D01*
X19841937Y-27283929D01*
X19856223Y-27255357D01*
X19856223Y-27241071D01*
X19841937Y-27212500D01*
X19813366Y-27198214D01*
X19770509Y-27198214D01*
X19741937Y-27183929D01*
X19727652Y-27155357D01*
X19727652Y-27141071D01*
X19741937Y-27112500D01*
X19770509Y-27098214D01*
X19813366Y-27098214D01*
X19841937Y-27112500D01*
X19956223Y-27412500D02*
X19970509Y-27398214D01*
X19999080Y-27355357D01*
X20013366Y-27326786D01*
X20027652Y-27283929D01*
X20041937Y-27212500D01*
X20041937Y-27155357D01*
X20027652Y-27083929D01*
X20013366Y-27041071D01*
X19999080Y-27012500D01*
X19970509Y-26969643D01*
X19956223Y-26955357D01*
X20499080Y-27412500D02*
X20484795Y-27398214D01*
X20456223Y-27355357D01*
X20441937Y-27326786D01*
X20427652Y-27283929D01*
X20413366Y-27212500D01*
X20413366Y-27155357D01*
X20427652Y-27083929D01*
X20441937Y-27041071D01*
X20456223Y-27012500D01*
X20484795Y-26969643D01*
X20499080Y-26955357D01*
X20613366Y-27098214D02*
X20613366Y-27298214D01*
X20613366Y-27126786D02*
X20627652Y-27112500D01*
X20656223Y-27098214D01*
X20699080Y-27098214D01*
X20727652Y-27112500D01*
X20741937Y-27141071D01*
X20741937Y-27298214D01*
X20927652Y-27298214D02*
X20899080Y-27283929D01*
X20884795Y-27269643D01*
X20870509Y-27241071D01*
X20870509Y-27155357D01*
X20884795Y-27126786D01*
X20899080Y-27112500D01*
X20927652Y-27098214D01*
X20970509Y-27098214D01*
X20999080Y-27112500D01*
X21013366Y-27126786D01*
X21027652Y-27155357D01*
X21027652Y-27241071D01*
X21013366Y-27269643D01*
X20999080Y-27283929D01*
X20970509Y-27298214D01*
X20927652Y-27298214D01*
X21113366Y-27098214D02*
X21227652Y-27098214D01*
X21156223Y-26998214D02*
X21156223Y-27255357D01*
X21170509Y-27283929D01*
X21199080Y-27298214D01*
X21227652Y-27298214D01*
X21556223Y-27098214D02*
X21556223Y-27398214D01*
X21556223Y-27112500D02*
X21584795Y-27098214D01*
X21641937Y-27098214D01*
X21670509Y-27112500D01*
X21684795Y-27126786D01*
X21699080Y-27155357D01*
X21699080Y-27241071D01*
X21684795Y-27269643D01*
X21670509Y-27283929D01*
X21641937Y-27298214D01*
X21584795Y-27298214D01*
X21556223Y-27283929D01*
X21870509Y-27298214D02*
X21841937Y-27283929D01*
X21827652Y-27255357D01*
X21827652Y-26998214D01*
X22113366Y-27298214D02*
X22113366Y-27141071D01*
X22099080Y-27112500D01*
X22070509Y-27098214D01*
X22013366Y-27098214D01*
X21984795Y-27112500D01*
X22113366Y-27283929D02*
X22084795Y-27298214D01*
X22013366Y-27298214D01*
X21984795Y-27283929D01*
X21970509Y-27255357D01*
X21970509Y-27226786D01*
X21984795Y-27198214D01*
X22013366Y-27183929D01*
X22084795Y-27183929D01*
X22113366Y-27169643D01*
X22213366Y-27098214D02*
X22327652Y-27098214D01*
X22256223Y-26998214D02*
X22256223Y-27255357D01*
X22270509Y-27283929D01*
X22299080Y-27298214D01*
X22327652Y-27298214D01*
X22541937Y-27283929D02*
X22513366Y-27298214D01*
X22456223Y-27298214D01*
X22427652Y-27283929D01*
X22413366Y-27255357D01*
X22413366Y-27141071D01*
X22427652Y-27112500D01*
X22456223Y-27098214D01*
X22513366Y-27098214D01*
X22541937Y-27112500D01*
X22556223Y-27141071D01*
X22556223Y-27169643D01*
X22413366Y-27198214D01*
X22813366Y-27298214D02*
X22813366Y-26998214D01*
X22813366Y-27283929D02*
X22784795Y-27298214D01*
X22727652Y-27298214D01*
X22699080Y-27283929D01*
X22684795Y-27269643D01*
X22670509Y-27241071D01*
X22670509Y-27155357D01*
X22684795Y-27126786D01*
X22699080Y-27112500D01*
X22727652Y-27098214D01*
X22784795Y-27098214D01*
X22813366Y-27112500D01*
X22927652Y-27412500D02*
X22941937Y-27398214D01*
X22970509Y-27355357D01*
X22984795Y-27326786D01*
X22999080Y-27283929D01*
X23013366Y-27212500D01*
X23013366Y-27155357D01*
X22999080Y-27083929D01*
X22984795Y-27041071D01*
X22970509Y-27012500D01*
X22941937Y-26969643D01*
X22927652Y-26955357D01*
X13469795Y-27558500D02*
G75*
G03*
X13469795Y-27558500I-87500J0D01*
G01*
X13913366Y-27694214D02*
X13741937Y-27694214D01*
X13827652Y-27694214D02*
X13827652Y-27394214D01*
X13799080Y-27437071D01*
X13770509Y-27465643D01*
X13741937Y-27479929D01*
X14041937Y-27665643D02*
X14056223Y-27679929D01*
X14041937Y-27694214D01*
X14027652Y-27679929D01*
X14041937Y-27665643D01*
X14041937Y-27694214D01*
X14156223Y-27394214D02*
X14356223Y-27394214D01*
X14227652Y-27694214D01*
X14613366Y-27394214D02*
X14470509Y-27394214D01*
X14456223Y-27537071D01*
X14470509Y-27522786D01*
X14499080Y-27508500D01*
X14570509Y-27508500D01*
X14599080Y-27522786D01*
X14613366Y-27537071D01*
X14627652Y-27565643D01*
X14627652Y-27637071D01*
X14613366Y-27665643D01*
X14599080Y-27679929D01*
X14570509Y-27694214D01*
X14499080Y-27694214D01*
X14470509Y-27679929D01*
X14456223Y-27665643D01*
X14756223Y-27694214D02*
X14756223Y-27494214D01*
X14756223Y-27522786D02*
X14770509Y-27508500D01*
X14799080Y-27494214D01*
X14841937Y-27494214D01*
X14870509Y-27508500D01*
X14884795Y-27537071D01*
X14884795Y-27694214D01*
X14884795Y-27537071D02*
X14899080Y-27508500D01*
X14927652Y-27494214D01*
X14970509Y-27494214D01*
X14999080Y-27508500D01*
X15013366Y-27537071D01*
X15013366Y-27694214D01*
X15156223Y-27694214D02*
X15156223Y-27494214D01*
X15156223Y-27522786D02*
X15170509Y-27508500D01*
X15199080Y-27494214D01*
X15241937Y-27494214D01*
X15270509Y-27508500D01*
X15284795Y-27537071D01*
X15284795Y-27694214D01*
X15284795Y-27537071D02*
X15299080Y-27508500D01*
X15327652Y-27494214D01*
X15370509Y-27494214D01*
X15399080Y-27508500D01*
X15413366Y-27537071D01*
X15413366Y-27694214D01*
X15999080Y-27379929D02*
X15741937Y-27765643D01*
X16384795Y-27394214D02*
X16413366Y-27394214D01*
X16441937Y-27408500D01*
X16456223Y-27422786D01*
X16470509Y-27451357D01*
X16484795Y-27508500D01*
X16484795Y-27579929D01*
X16470509Y-27637071D01*
X16456223Y-27665643D01*
X16441937Y-27679929D01*
X16413366Y-27694214D01*
X16384795Y-27694214D01*
X16356223Y-27679929D01*
X16341937Y-27665643D01*
X16327652Y-27637071D01*
X16313366Y-27579929D01*
X16313366Y-27508500D01*
X16327652Y-27451357D01*
X16341937Y-27422786D01*
X16356223Y-27408500D01*
X16384795Y-27394214D01*
X16613366Y-27665643D02*
X16627652Y-27679929D01*
X16613366Y-27694214D01*
X16599080Y-27679929D01*
X16613366Y-27665643D01*
X16613366Y-27694214D01*
X16813366Y-27394214D02*
X16841937Y-27394214D01*
X16870509Y-27408500D01*
X16884795Y-27422786D01*
X16899080Y-27451357D01*
X16913366Y-27508500D01*
X16913366Y-27579929D01*
X16899080Y-27637071D01*
X16884795Y-27665643D01*
X16870509Y-27679929D01*
X16841937Y-27694214D01*
X16813366Y-27694214D01*
X16784795Y-27679929D01*
X16770509Y-27665643D01*
X16756223Y-27637071D01*
X16741937Y-27579929D01*
X16741937Y-27508500D01*
X16756223Y-27451357D01*
X16770509Y-27422786D01*
X16784795Y-27408500D01*
X16813366Y-27394214D01*
X17170509Y-27394214D02*
X17113366Y-27394214D01*
X17084795Y-27408500D01*
X17070509Y-27422786D01*
X17041937Y-27465643D01*
X17027652Y-27522786D01*
X17027652Y-27637071D01*
X17041937Y-27665643D01*
X17056223Y-27679929D01*
X17084795Y-27694214D01*
X17141937Y-27694214D01*
X17170509Y-27679929D01*
X17184795Y-27665643D01*
X17199080Y-27637071D01*
X17199080Y-27565643D01*
X17184795Y-27537071D01*
X17170509Y-27522786D01*
X17141937Y-27508500D01*
X17084795Y-27508500D01*
X17056223Y-27522786D01*
X17041937Y-27537071D01*
X17027652Y-27565643D01*
X17341937Y-27694214D02*
X17399080Y-27694214D01*
X17427652Y-27679929D01*
X17441937Y-27665643D01*
X17470509Y-27622786D01*
X17484795Y-27565643D01*
X17484795Y-27451357D01*
X17470509Y-27422786D01*
X17456223Y-27408500D01*
X17427652Y-27394214D01*
X17370509Y-27394214D01*
X17341937Y-27408500D01*
X17327652Y-27422786D01*
X17313366Y-27451357D01*
X17313366Y-27522786D01*
X17327652Y-27551357D01*
X17341937Y-27565643D01*
X17370509Y-27579929D01*
X17427652Y-27579929D01*
X17456223Y-27565643D01*
X17470509Y-27551357D01*
X17484795Y-27522786D01*
X17599080Y-27394214D02*
X17599080Y-27451357D01*
X17713366Y-27394214D02*
X17713366Y-27451357D01*
X18156223Y-27808500D02*
X18141937Y-27794214D01*
X18113366Y-27751357D01*
X18099080Y-27722786D01*
X18084795Y-27679929D01*
X18070509Y-27608500D01*
X18070509Y-27551357D01*
X18084795Y-27479929D01*
X18099080Y-27437071D01*
X18113366Y-27408500D01*
X18141937Y-27365643D01*
X18156223Y-27351357D01*
X18427652Y-27694214D02*
X18256223Y-27694214D01*
X18341937Y-27694214D02*
X18341937Y-27394214D01*
X18313366Y-27437071D01*
X18284795Y-27465643D01*
X18256223Y-27479929D01*
X18599080Y-27522786D02*
X18570509Y-27508500D01*
X18556223Y-27494214D01*
X18541937Y-27465643D01*
X18541937Y-27451357D01*
X18556223Y-27422786D01*
X18570509Y-27408500D01*
X18599080Y-27394214D01*
X18656223Y-27394214D01*
X18684795Y-27408500D01*
X18699080Y-27422786D01*
X18713366Y-27451357D01*
X18713366Y-27465643D01*
X18699080Y-27494214D01*
X18684795Y-27508500D01*
X18656223Y-27522786D01*
X18599080Y-27522786D01*
X18570509Y-27537071D01*
X18556223Y-27551357D01*
X18541937Y-27579929D01*
X18541937Y-27637071D01*
X18556223Y-27665643D01*
X18570509Y-27679929D01*
X18599080Y-27694214D01*
X18656223Y-27694214D01*
X18684795Y-27679929D01*
X18699080Y-27665643D01*
X18713366Y-27637071D01*
X18713366Y-27579929D01*
X18699080Y-27551357D01*
X18684795Y-27537071D01*
X18656223Y-27522786D01*
X18827652Y-27422786D02*
X18841937Y-27408500D01*
X18870509Y-27394214D01*
X18941937Y-27394214D01*
X18970509Y-27408500D01*
X18984795Y-27422786D01*
X18999080Y-27451357D01*
X18999080Y-27479929D01*
X18984795Y-27522786D01*
X18813366Y-27694214D01*
X18999080Y-27694214D01*
X19356223Y-27694214D02*
X19356223Y-27394214D01*
X19484795Y-27694214D02*
X19484795Y-27537071D01*
X19470509Y-27508500D01*
X19441937Y-27494214D01*
X19399080Y-27494214D01*
X19370509Y-27508500D01*
X19356223Y-27522786D01*
X19670509Y-27694214D02*
X19641937Y-27679929D01*
X19627652Y-27665643D01*
X19613366Y-27637071D01*
X19613366Y-27551357D01*
X19627652Y-27522786D01*
X19641937Y-27508500D01*
X19670509Y-27494214D01*
X19713366Y-27494214D01*
X19741937Y-27508500D01*
X19756223Y-27522786D01*
X19770509Y-27551357D01*
X19770509Y-27637071D01*
X19756223Y-27665643D01*
X19741937Y-27679929D01*
X19713366Y-27694214D01*
X19670509Y-27694214D01*
X19941937Y-27694214D02*
X19913366Y-27679929D01*
X19899080Y-27651357D01*
X19899080Y-27394214D01*
X20170509Y-27679929D02*
X20141937Y-27694214D01*
X20084795Y-27694214D01*
X20056223Y-27679929D01*
X20041937Y-27651357D01*
X20041937Y-27537071D01*
X20056223Y-27508500D01*
X20084795Y-27494214D01*
X20141937Y-27494214D01*
X20170509Y-27508500D01*
X20184795Y-27537071D01*
X20184795Y-27565643D01*
X20041937Y-27594214D01*
X20299080Y-27679929D02*
X20327652Y-27694214D01*
X20384795Y-27694214D01*
X20413366Y-27679929D01*
X20427652Y-27651357D01*
X20427652Y-27637071D01*
X20413366Y-27608500D01*
X20384795Y-27594214D01*
X20341937Y-27594214D01*
X20313366Y-27579929D01*
X20299080Y-27551357D01*
X20299080Y-27537071D01*
X20313366Y-27508500D01*
X20341937Y-27494214D01*
X20384795Y-27494214D01*
X20413366Y-27508500D01*
X20527652Y-27808500D02*
X20541937Y-27794214D01*
X20570509Y-27751357D01*
X20584795Y-27722786D01*
X20599080Y-27679929D01*
X20613366Y-27608500D01*
X20613366Y-27551357D01*
X20599080Y-27479929D01*
X20584795Y-27437071D01*
X20570509Y-27408500D01*
X20541937Y-27365643D01*
X20527652Y-27351357D01*
X21070509Y-27808500D02*
X21056223Y-27794214D01*
X21027652Y-27751357D01*
X21013366Y-27722786D01*
X20999080Y-27679929D01*
X20984795Y-27608500D01*
X20984795Y-27551357D01*
X20999080Y-27479929D01*
X21013366Y-27437071D01*
X21027652Y-27408500D01*
X21056223Y-27365643D01*
X21070509Y-27351357D01*
X21184795Y-27494214D02*
X21184795Y-27694214D01*
X21184795Y-27522786D02*
X21199080Y-27508500D01*
X21227652Y-27494214D01*
X21270509Y-27494214D01*
X21299080Y-27508500D01*
X21313366Y-27537071D01*
X21313366Y-27694214D01*
X21499080Y-27694214D02*
X21470509Y-27679929D01*
X21456223Y-27665643D01*
X21441937Y-27637071D01*
X21441937Y-27551357D01*
X21456223Y-27522786D01*
X21470509Y-27508500D01*
X21499080Y-27494214D01*
X21541937Y-27494214D01*
X21570509Y-27508500D01*
X21584795Y-27522786D01*
X21599080Y-27551357D01*
X21599080Y-27637071D01*
X21584795Y-27665643D01*
X21570509Y-27679929D01*
X21541937Y-27694214D01*
X21499080Y-27694214D01*
X21684795Y-27494214D02*
X21799080Y-27494214D01*
X21727652Y-27394214D02*
X21727652Y-27651357D01*
X21741937Y-27679929D01*
X21770509Y-27694214D01*
X21799080Y-27694214D01*
X22127652Y-27494214D02*
X22127652Y-27794214D01*
X22127652Y-27508500D02*
X22156223Y-27494214D01*
X22213366Y-27494214D01*
X22241937Y-27508500D01*
X22256223Y-27522786D01*
X22270509Y-27551357D01*
X22270509Y-27637071D01*
X22256223Y-27665643D01*
X22241937Y-27679929D01*
X22213366Y-27694214D01*
X22156223Y-27694214D01*
X22127652Y-27679929D01*
X22441937Y-27694214D02*
X22413366Y-27679929D01*
X22399080Y-27651357D01*
X22399080Y-27394214D01*
X22684795Y-27694214D02*
X22684795Y-27537071D01*
X22670509Y-27508500D01*
X22641937Y-27494214D01*
X22584795Y-27494214D01*
X22556223Y-27508500D01*
X22684795Y-27679929D02*
X22656223Y-27694214D01*
X22584795Y-27694214D01*
X22556223Y-27679929D01*
X22541937Y-27651357D01*
X22541937Y-27622786D01*
X22556223Y-27594214D01*
X22584795Y-27579929D01*
X22656223Y-27579929D01*
X22684795Y-27565643D01*
X22784795Y-27494214D02*
X22899080Y-27494214D01*
X22827652Y-27394214D02*
X22827652Y-27651357D01*
X22841937Y-27679929D01*
X22870509Y-27694214D01*
X22899080Y-27694214D01*
X23113366Y-27679929D02*
X23084795Y-27694214D01*
X23027652Y-27694214D01*
X22999080Y-27679929D01*
X22984795Y-27651357D01*
X22984795Y-27537071D01*
X22999080Y-27508500D01*
X23027652Y-27494214D01*
X23084795Y-27494214D01*
X23113366Y-27508500D01*
X23127652Y-27537071D01*
X23127652Y-27565643D01*
X22984795Y-27594214D01*
X23384795Y-27694214D02*
X23384795Y-27394214D01*
X23384795Y-27679929D02*
X23356223Y-27694214D01*
X23299080Y-27694214D01*
X23270509Y-27679929D01*
X23256223Y-27665643D01*
X23241937Y-27637071D01*
X23241937Y-27551357D01*
X23256223Y-27522786D01*
X23270509Y-27508500D01*
X23299080Y-27494214D01*
X23356223Y-27494214D01*
X23384795Y-27508500D01*
X23499080Y-27808500D02*
X23513366Y-27794214D01*
X23541937Y-27751357D01*
X23556223Y-27722786D01*
X23570509Y-27679929D01*
X23584795Y-27608500D01*
X23584795Y-27551357D01*
X23570509Y-27479929D01*
X23556223Y-27437071D01*
X23541937Y-27408500D01*
X23513366Y-27365643D01*
X23499080Y-27351357D01*
X13359795Y-27844500D02*
X13359795Y-28064500D01*
X13249795Y-27954500D02*
X13469795Y-27954500D01*
X13741937Y-27818786D02*
X13756223Y-27804500D01*
X13784795Y-27790214D01*
X13856223Y-27790214D01*
X13884795Y-27804500D01*
X13899080Y-27818786D01*
X13913366Y-27847357D01*
X13913366Y-27875929D01*
X13899080Y-27918786D01*
X13727652Y-28090214D01*
X13913366Y-28090214D01*
X14041937Y-28061643D02*
X14056223Y-28075929D01*
X14041937Y-28090214D01*
X14027652Y-28075929D01*
X14041937Y-28061643D01*
X14041937Y-28090214D01*
X14170509Y-27818786D02*
X14184795Y-27804500D01*
X14213366Y-27790214D01*
X14284795Y-27790214D01*
X14313366Y-27804500D01*
X14327652Y-27818786D01*
X14341937Y-27847357D01*
X14341937Y-27875929D01*
X14327652Y-27918786D01*
X14156223Y-28090214D01*
X14341937Y-28090214D01*
X14527652Y-27790214D02*
X14556223Y-27790214D01*
X14584795Y-27804500D01*
X14599080Y-27818786D01*
X14613366Y-27847357D01*
X14627652Y-27904500D01*
X14627652Y-27975929D01*
X14613366Y-28033071D01*
X14599080Y-28061643D01*
X14584795Y-28075929D01*
X14556223Y-28090214D01*
X14527652Y-28090214D01*
X14499080Y-28075929D01*
X14484795Y-28061643D01*
X14470509Y-28033071D01*
X14456223Y-27975929D01*
X14456223Y-27904500D01*
X14470509Y-27847357D01*
X14484795Y-27818786D01*
X14499080Y-27804500D01*
X14527652Y-27790214D01*
X14756223Y-28090214D02*
X14756223Y-27890214D01*
X14756223Y-27918786D02*
X14770509Y-27904500D01*
X14799080Y-27890214D01*
X14841937Y-27890214D01*
X14870509Y-27904500D01*
X14884795Y-27933071D01*
X14884795Y-28090214D01*
X14884795Y-27933071D02*
X14899080Y-27904500D01*
X14927652Y-27890214D01*
X14970509Y-27890214D01*
X14999080Y-27904500D01*
X15013366Y-27933071D01*
X15013366Y-28090214D01*
X15156223Y-28090214D02*
X15156223Y-27890214D01*
X15156223Y-27918786D02*
X15170509Y-27904500D01*
X15199080Y-27890214D01*
X15241937Y-27890214D01*
X15270509Y-27904500D01*
X15284795Y-27933071D01*
X15284795Y-28090214D01*
X15284795Y-27933071D02*
X15299080Y-27904500D01*
X15327652Y-27890214D01*
X15370509Y-27890214D01*
X15399080Y-27904500D01*
X15413366Y-27933071D01*
X15413366Y-28090214D01*
X15999080Y-27775929D02*
X15741937Y-28161643D01*
X16384795Y-27790214D02*
X16413366Y-27790214D01*
X16441937Y-27804500D01*
X16456223Y-27818786D01*
X16470509Y-27847357D01*
X16484795Y-27904500D01*
X16484795Y-27975929D01*
X16470509Y-28033071D01*
X16456223Y-28061643D01*
X16441937Y-28075929D01*
X16413366Y-28090214D01*
X16384795Y-28090214D01*
X16356223Y-28075929D01*
X16341937Y-28061643D01*
X16327652Y-28033071D01*
X16313366Y-27975929D01*
X16313366Y-27904500D01*
X16327652Y-27847357D01*
X16341937Y-27818786D01*
X16356223Y-27804500D01*
X16384795Y-27790214D01*
X16613366Y-28061643D02*
X16627652Y-28075929D01*
X16613366Y-28090214D01*
X16599080Y-28075929D01*
X16613366Y-28061643D01*
X16613366Y-28090214D01*
X16813366Y-27790214D02*
X16841937Y-27790214D01*
X16870509Y-27804500D01*
X16884795Y-27818786D01*
X16899080Y-27847357D01*
X16913366Y-27904500D01*
X16913366Y-27975929D01*
X16899080Y-28033071D01*
X16884795Y-28061643D01*
X16870509Y-28075929D01*
X16841937Y-28090214D01*
X16813366Y-28090214D01*
X16784795Y-28075929D01*
X16770509Y-28061643D01*
X16756223Y-28033071D01*
X16741937Y-27975929D01*
X16741937Y-27904500D01*
X16756223Y-27847357D01*
X16770509Y-27818786D01*
X16784795Y-27804500D01*
X16813366Y-27790214D01*
X17084795Y-27918786D02*
X17056223Y-27904500D01*
X17041937Y-27890214D01*
X17027652Y-27861643D01*
X17027652Y-27847357D01*
X17041937Y-27818786D01*
X17056223Y-27804500D01*
X17084795Y-27790214D01*
X17141937Y-27790214D01*
X17170509Y-27804500D01*
X17184795Y-27818786D01*
X17199080Y-27847357D01*
X17199080Y-27861643D01*
X17184795Y-27890214D01*
X17170509Y-27904500D01*
X17141937Y-27918786D01*
X17084795Y-27918786D01*
X17056223Y-27933071D01*
X17041937Y-27947357D01*
X17027652Y-27975929D01*
X17027652Y-28033071D01*
X17041937Y-28061643D01*
X17056223Y-28075929D01*
X17084795Y-28090214D01*
X17141937Y-28090214D01*
X17170509Y-28075929D01*
X17184795Y-28061643D01*
X17199080Y-28033071D01*
X17199080Y-27975929D01*
X17184795Y-27947357D01*
X17170509Y-27933071D01*
X17141937Y-27918786D01*
X17299080Y-27790214D02*
X17499080Y-27790214D01*
X17370509Y-28090214D01*
X17599080Y-27790214D02*
X17599080Y-27847357D01*
X17713366Y-27790214D02*
X17713366Y-27847357D01*
X18156223Y-28204500D02*
X18141937Y-28190214D01*
X18113366Y-28147357D01*
X18099080Y-28118786D01*
X18084795Y-28075929D01*
X18070509Y-28004500D01*
X18070509Y-27947357D01*
X18084795Y-27875929D01*
X18099080Y-27833071D01*
X18113366Y-27804500D01*
X18141937Y-27761643D01*
X18156223Y-27747357D01*
X18427652Y-28090214D02*
X18256223Y-28090214D01*
X18341937Y-28090214D02*
X18341937Y-27790214D01*
X18313366Y-27833071D01*
X18284795Y-27861643D01*
X18256223Y-27875929D01*
X18713366Y-28090214D02*
X18541937Y-28090214D01*
X18627652Y-28090214D02*
X18627652Y-27790214D01*
X18599080Y-27833071D01*
X18570509Y-27861643D01*
X18541937Y-27875929D01*
X19070509Y-28090214D02*
X19070509Y-27790214D01*
X19199080Y-28090214D02*
X19199080Y-27933071D01*
X19184795Y-27904500D01*
X19156223Y-27890214D01*
X19113366Y-27890214D01*
X19084795Y-27904500D01*
X19070509Y-27918786D01*
X19384795Y-28090214D02*
X19356223Y-28075929D01*
X19341937Y-28061643D01*
X19327652Y-28033071D01*
X19327652Y-27947357D01*
X19341937Y-27918786D01*
X19356223Y-27904500D01*
X19384795Y-27890214D01*
X19427652Y-27890214D01*
X19456223Y-27904500D01*
X19470509Y-27918786D01*
X19484795Y-27947357D01*
X19484795Y-28033071D01*
X19470509Y-28061643D01*
X19456223Y-28075929D01*
X19427652Y-28090214D01*
X19384795Y-28090214D01*
X19656223Y-28090214D02*
X19627652Y-28075929D01*
X19613366Y-28047357D01*
X19613366Y-27790214D01*
X19884795Y-28075929D02*
X19856223Y-28090214D01*
X19799080Y-28090214D01*
X19770509Y-28075929D01*
X19756223Y-28047357D01*
X19756223Y-27933071D01*
X19770509Y-27904500D01*
X19799080Y-27890214D01*
X19856223Y-27890214D01*
X19884795Y-27904500D01*
X19899080Y-27933071D01*
X19899080Y-27961643D01*
X19756223Y-27990214D01*
X20013366Y-28075929D02*
X20041937Y-28090214D01*
X20099080Y-28090214D01*
X20127652Y-28075929D01*
X20141937Y-28047357D01*
X20141937Y-28033071D01*
X20127652Y-28004500D01*
X20099080Y-27990214D01*
X20056223Y-27990214D01*
X20027652Y-27975929D01*
X20013366Y-27947357D01*
X20013366Y-27933071D01*
X20027652Y-27904500D01*
X20056223Y-27890214D01*
X20099080Y-27890214D01*
X20127652Y-27904500D01*
X20241937Y-28204500D02*
X20256223Y-28190214D01*
X20284795Y-28147357D01*
X20299080Y-28118786D01*
X20313366Y-28075929D01*
X20327652Y-28004500D01*
X20327652Y-27947357D01*
X20313366Y-27875929D01*
X20299080Y-27833071D01*
X20284795Y-27804500D01*
X20256223Y-27761643D01*
X20241937Y-27747357D01*
X20784795Y-28204500D02*
X20770509Y-28190214D01*
X20741937Y-28147357D01*
X20727652Y-28118786D01*
X20713366Y-28075929D01*
X20699080Y-28004500D01*
X20699080Y-27947357D01*
X20713366Y-27875929D01*
X20727652Y-27833071D01*
X20741937Y-27804500D01*
X20770509Y-27761643D01*
X20784795Y-27747357D01*
X20899080Y-27890214D02*
X20899080Y-28090214D01*
X20899080Y-27918786D02*
X20913366Y-27904500D01*
X20941937Y-27890214D01*
X20984795Y-27890214D01*
X21013366Y-27904500D01*
X21027652Y-27933071D01*
X21027652Y-28090214D01*
X21213366Y-28090214D02*
X21184795Y-28075929D01*
X21170509Y-28061643D01*
X21156223Y-28033071D01*
X21156223Y-27947357D01*
X21170509Y-27918786D01*
X21184795Y-27904500D01*
X21213366Y-27890214D01*
X21256223Y-27890214D01*
X21284795Y-27904500D01*
X21299080Y-27918786D01*
X21313366Y-27947357D01*
X21313366Y-28033071D01*
X21299080Y-28061643D01*
X21284795Y-28075929D01*
X21256223Y-28090214D01*
X21213366Y-28090214D01*
X21399080Y-27890214D02*
X21513366Y-27890214D01*
X21441937Y-27790214D02*
X21441937Y-28047357D01*
X21456223Y-28075929D01*
X21484795Y-28090214D01*
X21513366Y-28090214D01*
X21841937Y-27890214D02*
X21841937Y-28190214D01*
X21841937Y-27904500D02*
X21870509Y-27890214D01*
X21927652Y-27890214D01*
X21956223Y-27904500D01*
X21970509Y-27918786D01*
X21984795Y-27947357D01*
X21984795Y-28033071D01*
X21970509Y-28061643D01*
X21956223Y-28075929D01*
X21927652Y-28090214D01*
X21870509Y-28090214D01*
X21841937Y-28075929D01*
X22156223Y-28090214D02*
X22127652Y-28075929D01*
X22113366Y-28047357D01*
X22113366Y-27790214D01*
X22399080Y-28090214D02*
X22399080Y-27933071D01*
X22384795Y-27904500D01*
X22356223Y-27890214D01*
X22299080Y-27890214D01*
X22270509Y-27904500D01*
X22399080Y-28075929D02*
X22370509Y-28090214D01*
X22299080Y-28090214D01*
X22270509Y-28075929D01*
X22256223Y-28047357D01*
X22256223Y-28018786D01*
X22270509Y-27990214D01*
X22299080Y-27975929D01*
X22370509Y-27975929D01*
X22399080Y-27961643D01*
X22499080Y-27890214D02*
X22613366Y-27890214D01*
X22541937Y-27790214D02*
X22541937Y-28047357D01*
X22556223Y-28075929D01*
X22584795Y-28090214D01*
X22613366Y-28090214D01*
X22827652Y-28075929D02*
X22799080Y-28090214D01*
X22741937Y-28090214D01*
X22713366Y-28075929D01*
X22699080Y-28047357D01*
X22699080Y-27933071D01*
X22713366Y-27904500D01*
X22741937Y-27890214D01*
X22799080Y-27890214D01*
X22827652Y-27904500D01*
X22841937Y-27933071D01*
X22841937Y-27961643D01*
X22699080Y-27990214D01*
X23099080Y-28090214D02*
X23099080Y-27790214D01*
X23099080Y-28075929D02*
X23070509Y-28090214D01*
X23013366Y-28090214D01*
X22984795Y-28075929D01*
X22970509Y-28061643D01*
X22956223Y-28033071D01*
X22956223Y-27947357D01*
X22970509Y-27918786D01*
X22984795Y-27904500D01*
X23013366Y-27890214D01*
X23070509Y-27890214D01*
X23099080Y-27904500D01*
X23213366Y-28204500D02*
X23227652Y-28190214D01*
X23256223Y-28147357D01*
X23270509Y-28118786D01*
X23284795Y-28075929D01*
X23299080Y-28004500D01*
X23299080Y-27947357D01*
X23284795Y-27875929D01*
X23270509Y-27833071D01*
X23256223Y-27804500D01*
X23227652Y-27761643D01*
X23213366Y-27747357D01*
X13425159Y-28458264D02*
X13425159Y-28242736D01*
X13209630Y-28242736D01*
X13209630Y-28458264D01*
X13425159Y-28458264D01*
X13727652Y-28186214D02*
X13913366Y-28186214D01*
X13813366Y-28300500D01*
X13856223Y-28300500D01*
X13884795Y-28314786D01*
X13899080Y-28329071D01*
X13913366Y-28357643D01*
X13913366Y-28429071D01*
X13899080Y-28457643D01*
X13884795Y-28471929D01*
X13856223Y-28486214D01*
X13770509Y-28486214D01*
X13741937Y-28471929D01*
X13727652Y-28457643D01*
X14041937Y-28457643D02*
X14056223Y-28471929D01*
X14041937Y-28486214D01*
X14027652Y-28471929D01*
X14041937Y-28457643D01*
X14041937Y-28486214D01*
X14241937Y-28186214D02*
X14270509Y-28186214D01*
X14299080Y-28200500D01*
X14313366Y-28214786D01*
X14327652Y-28243357D01*
X14341937Y-28300500D01*
X14341937Y-28371929D01*
X14327652Y-28429071D01*
X14313366Y-28457643D01*
X14299080Y-28471929D01*
X14270509Y-28486214D01*
X14241937Y-28486214D01*
X14213366Y-28471929D01*
X14199080Y-28457643D01*
X14184795Y-28429071D01*
X14170509Y-28371929D01*
X14170509Y-28300500D01*
X14184795Y-28243357D01*
X14199080Y-28214786D01*
X14213366Y-28200500D01*
X14241937Y-28186214D01*
X14613366Y-28186214D02*
X14470509Y-28186214D01*
X14456223Y-28329071D01*
X14470509Y-28314786D01*
X14499080Y-28300500D01*
X14570509Y-28300500D01*
X14599080Y-28314786D01*
X14613366Y-28329071D01*
X14627652Y-28357643D01*
X14627652Y-28429071D01*
X14613366Y-28457643D01*
X14599080Y-28471929D01*
X14570509Y-28486214D01*
X14499080Y-28486214D01*
X14470509Y-28471929D01*
X14456223Y-28457643D01*
X14756223Y-28486214D02*
X14756223Y-28286214D01*
X14756223Y-28314786D02*
X14770509Y-28300500D01*
X14799080Y-28286214D01*
X14841937Y-28286214D01*
X14870509Y-28300500D01*
X14884795Y-28329071D01*
X14884795Y-28486214D01*
X14884795Y-28329071D02*
X14899080Y-28300500D01*
X14927652Y-28286214D01*
X14970509Y-28286214D01*
X14999080Y-28300500D01*
X15013366Y-28329071D01*
X15013366Y-28486214D01*
X15156223Y-28486214D02*
X15156223Y-28286214D01*
X15156223Y-28314786D02*
X15170509Y-28300500D01*
X15199080Y-28286214D01*
X15241937Y-28286214D01*
X15270509Y-28300500D01*
X15284795Y-28329071D01*
X15284795Y-28486214D01*
X15284795Y-28329071D02*
X15299080Y-28300500D01*
X15327652Y-28286214D01*
X15370509Y-28286214D01*
X15399080Y-28300500D01*
X15413366Y-28329071D01*
X15413366Y-28486214D01*
X15999080Y-28171929D02*
X15741937Y-28557643D01*
X16384795Y-28186214D02*
X16413366Y-28186214D01*
X16441937Y-28200500D01*
X16456223Y-28214786D01*
X16470509Y-28243357D01*
X16484795Y-28300500D01*
X16484795Y-28371929D01*
X16470509Y-28429071D01*
X16456223Y-28457643D01*
X16441937Y-28471929D01*
X16413366Y-28486214D01*
X16384795Y-28486214D01*
X16356223Y-28471929D01*
X16341937Y-28457643D01*
X16327652Y-28429071D01*
X16313366Y-28371929D01*
X16313366Y-28300500D01*
X16327652Y-28243357D01*
X16341937Y-28214786D01*
X16356223Y-28200500D01*
X16384795Y-28186214D01*
X16613366Y-28457643D02*
X16627652Y-28471929D01*
X16613366Y-28486214D01*
X16599080Y-28471929D01*
X16613366Y-28457643D01*
X16613366Y-28486214D01*
X16913366Y-28486214D02*
X16741937Y-28486214D01*
X16827652Y-28486214D02*
X16827652Y-28186214D01*
X16799080Y-28229071D01*
X16770509Y-28257643D01*
X16741937Y-28271929D01*
X17027652Y-28214786D02*
X17041937Y-28200500D01*
X17070509Y-28186214D01*
X17141937Y-28186214D01*
X17170509Y-28200500D01*
X17184795Y-28214786D01*
X17199080Y-28243357D01*
X17199080Y-28271929D01*
X17184795Y-28314786D01*
X17013366Y-28486214D01*
X17199080Y-28486214D01*
X17384795Y-28186214D02*
X17413366Y-28186214D01*
X17441937Y-28200500D01*
X17456223Y-28214786D01*
X17470509Y-28243357D01*
X17484795Y-28300500D01*
X17484795Y-28371929D01*
X17470509Y-28429071D01*
X17456223Y-28457643D01*
X17441937Y-28471929D01*
X17413366Y-28486214D01*
X17384795Y-28486214D01*
X17356223Y-28471929D01*
X17341937Y-28457643D01*
X17327652Y-28429071D01*
X17313366Y-28371929D01*
X17313366Y-28300500D01*
X17327652Y-28243357D01*
X17341937Y-28214786D01*
X17356223Y-28200500D01*
X17384795Y-28186214D01*
X17599080Y-28186214D02*
X17599080Y-28243357D01*
X17713366Y-28186214D02*
X17713366Y-28243357D01*
X18156223Y-28600500D02*
X18141937Y-28586214D01*
X18113366Y-28543357D01*
X18099080Y-28514786D01*
X18084795Y-28471929D01*
X18070509Y-28400500D01*
X18070509Y-28343357D01*
X18084795Y-28271929D01*
X18099080Y-28229071D01*
X18113366Y-28200500D01*
X18141937Y-28157643D01*
X18156223Y-28143357D01*
X18427652Y-28486214D02*
X18256223Y-28486214D01*
X18341937Y-28486214D02*
X18341937Y-28186214D01*
X18313366Y-28229071D01*
X18284795Y-28257643D01*
X18256223Y-28271929D01*
X18541937Y-28214786D02*
X18556223Y-28200500D01*
X18584795Y-28186214D01*
X18656223Y-28186214D01*
X18684795Y-28200500D01*
X18699080Y-28214786D01*
X18713366Y-28243357D01*
X18713366Y-28271929D01*
X18699080Y-28314786D01*
X18527652Y-28486214D01*
X18713366Y-28486214D01*
X19070509Y-28486214D02*
X19070509Y-28186214D01*
X19199080Y-28486214D02*
X19199080Y-28329071D01*
X19184795Y-28300500D01*
X19156223Y-28286214D01*
X19113366Y-28286214D01*
X19084795Y-28300500D01*
X19070509Y-28314786D01*
X19384795Y-28486214D02*
X19356223Y-28471929D01*
X19341937Y-28457643D01*
X19327652Y-28429071D01*
X19327652Y-28343357D01*
X19341937Y-28314786D01*
X19356223Y-28300500D01*
X19384795Y-28286214D01*
X19427652Y-28286214D01*
X19456223Y-28300500D01*
X19470509Y-28314786D01*
X19484795Y-28343357D01*
X19484795Y-28429071D01*
X19470509Y-28457643D01*
X19456223Y-28471929D01*
X19427652Y-28486214D01*
X19384795Y-28486214D01*
X19656223Y-28486214D02*
X19627652Y-28471929D01*
X19613366Y-28443357D01*
X19613366Y-28186214D01*
X19884795Y-28471929D02*
X19856223Y-28486214D01*
X19799080Y-28486214D01*
X19770509Y-28471929D01*
X19756223Y-28443357D01*
X19756223Y-28329071D01*
X19770509Y-28300500D01*
X19799080Y-28286214D01*
X19856223Y-28286214D01*
X19884795Y-28300500D01*
X19899080Y-28329071D01*
X19899080Y-28357643D01*
X19756223Y-28386214D01*
X20013366Y-28471929D02*
X20041937Y-28486214D01*
X20099080Y-28486214D01*
X20127652Y-28471929D01*
X20141937Y-28443357D01*
X20141937Y-28429071D01*
X20127652Y-28400500D01*
X20099080Y-28386214D01*
X20056223Y-28386214D01*
X20027652Y-28371929D01*
X20013366Y-28343357D01*
X20013366Y-28329071D01*
X20027652Y-28300500D01*
X20056223Y-28286214D01*
X20099080Y-28286214D01*
X20127652Y-28300500D01*
X20241937Y-28600500D02*
X20256223Y-28586214D01*
X20284795Y-28543357D01*
X20299080Y-28514786D01*
X20313366Y-28471929D01*
X20327652Y-28400500D01*
X20327652Y-28343357D01*
X20313366Y-28271929D01*
X20299080Y-28229071D01*
X20284795Y-28200500D01*
X20256223Y-28157643D01*
X20241937Y-28143357D01*
X20784795Y-28600500D02*
X20770509Y-28586214D01*
X20741937Y-28543357D01*
X20727652Y-28514786D01*
X20713366Y-28471929D01*
X20699080Y-28400500D01*
X20699080Y-28343357D01*
X20713366Y-28271929D01*
X20727652Y-28229071D01*
X20741937Y-28200500D01*
X20770509Y-28157643D01*
X20784795Y-28143357D01*
X20899080Y-28286214D02*
X20899080Y-28486214D01*
X20899080Y-28314786D02*
X20913366Y-28300500D01*
X20941937Y-28286214D01*
X20984795Y-28286214D01*
X21013366Y-28300500D01*
X21027652Y-28329071D01*
X21027652Y-28486214D01*
X21213366Y-28486214D02*
X21184795Y-28471929D01*
X21170509Y-28457643D01*
X21156223Y-28429071D01*
X21156223Y-28343357D01*
X21170509Y-28314786D01*
X21184795Y-28300500D01*
X21213366Y-28286214D01*
X21256223Y-28286214D01*
X21284795Y-28300500D01*
X21299080Y-28314786D01*
X21313366Y-28343357D01*
X21313366Y-28429071D01*
X21299080Y-28457643D01*
X21284795Y-28471929D01*
X21256223Y-28486214D01*
X21213366Y-28486214D01*
X21399080Y-28286214D02*
X21513366Y-28286214D01*
X21441937Y-28186214D02*
X21441937Y-28443357D01*
X21456223Y-28471929D01*
X21484795Y-28486214D01*
X21513366Y-28486214D01*
X21841937Y-28286214D02*
X21841937Y-28586214D01*
X21841937Y-28300500D02*
X21870509Y-28286214D01*
X21927652Y-28286214D01*
X21956223Y-28300500D01*
X21970509Y-28314786D01*
X21984795Y-28343357D01*
X21984795Y-28429071D01*
X21970509Y-28457643D01*
X21956223Y-28471929D01*
X21927652Y-28486214D01*
X21870509Y-28486214D01*
X21841937Y-28471929D01*
X22156223Y-28486214D02*
X22127652Y-28471929D01*
X22113366Y-28443357D01*
X22113366Y-28186214D01*
X22399080Y-28486214D02*
X22399080Y-28329071D01*
X22384795Y-28300500D01*
X22356223Y-28286214D01*
X22299080Y-28286214D01*
X22270509Y-28300500D01*
X22399080Y-28471929D02*
X22370509Y-28486214D01*
X22299080Y-28486214D01*
X22270509Y-28471929D01*
X22256223Y-28443357D01*
X22256223Y-28414786D01*
X22270509Y-28386214D01*
X22299080Y-28371929D01*
X22370509Y-28371929D01*
X22399080Y-28357643D01*
X22499080Y-28286214D02*
X22613366Y-28286214D01*
X22541937Y-28186214D02*
X22541937Y-28443357D01*
X22556223Y-28471929D01*
X22584795Y-28486214D01*
X22613366Y-28486214D01*
X22827652Y-28471929D02*
X22799080Y-28486214D01*
X22741937Y-28486214D01*
X22713366Y-28471929D01*
X22699080Y-28443357D01*
X22699080Y-28329071D01*
X22713366Y-28300500D01*
X22741937Y-28286214D01*
X22799080Y-28286214D01*
X22827652Y-28300500D01*
X22841937Y-28329071D01*
X22841937Y-28357643D01*
X22699080Y-28386214D01*
X23099080Y-28486214D02*
X23099080Y-28186214D01*
X23099080Y-28471929D02*
X23070509Y-28486214D01*
X23013366Y-28486214D01*
X22984795Y-28471929D01*
X22970509Y-28457643D01*
X22956223Y-28429071D01*
X22956223Y-28343357D01*
X22970509Y-28314786D01*
X22984795Y-28300500D01*
X23013366Y-28286214D01*
X23070509Y-28286214D01*
X23099080Y-28300500D01*
X23213366Y-28600500D02*
X23227652Y-28586214D01*
X23256223Y-28543357D01*
X23270509Y-28514786D01*
X23284795Y-28471929D01*
X23299080Y-28400500D01*
X23299080Y-28343357D01*
X23284795Y-28271929D01*
X23270509Y-28229071D01*
X23256223Y-28200500D01*
X23227652Y-28157643D01*
X23213366Y-28143357D01*
X13270405Y-28984690D02*
X13469795Y-28785300D01*
X13270405Y-28585910D01*
X13071015Y-28785300D01*
X13270405Y-28984690D01*
X13727652Y-28621014D02*
X13913366Y-28621014D01*
X13813366Y-28735300D01*
X13856223Y-28735300D01*
X13884795Y-28749586D01*
X13899080Y-28763871D01*
X13913366Y-28792443D01*
X13913366Y-28863871D01*
X13899080Y-28892443D01*
X13884795Y-28906729D01*
X13856223Y-28921014D01*
X13770509Y-28921014D01*
X13741937Y-28906729D01*
X13727652Y-28892443D01*
X14041937Y-28892443D02*
X14056223Y-28906729D01*
X14041937Y-28921014D01*
X14027652Y-28906729D01*
X14041937Y-28892443D01*
X14041937Y-28921014D01*
X14199080Y-28921014D02*
X14256223Y-28921014D01*
X14284795Y-28906729D01*
X14299080Y-28892443D01*
X14327652Y-28849586D01*
X14341937Y-28792443D01*
X14341937Y-28678157D01*
X14327652Y-28649586D01*
X14313366Y-28635300D01*
X14284795Y-28621014D01*
X14227652Y-28621014D01*
X14199080Y-28635300D01*
X14184795Y-28649586D01*
X14170509Y-28678157D01*
X14170509Y-28749586D01*
X14184795Y-28778157D01*
X14199080Y-28792443D01*
X14227652Y-28806729D01*
X14284795Y-28806729D01*
X14313366Y-28792443D01*
X14327652Y-28778157D01*
X14341937Y-28749586D01*
X14484795Y-28921014D02*
X14541937Y-28921014D01*
X14570509Y-28906729D01*
X14584795Y-28892443D01*
X14613366Y-28849586D01*
X14627652Y-28792443D01*
X14627652Y-28678157D01*
X14613366Y-28649586D01*
X14599080Y-28635300D01*
X14570509Y-28621014D01*
X14513366Y-28621014D01*
X14484795Y-28635300D01*
X14470509Y-28649586D01*
X14456223Y-28678157D01*
X14456223Y-28749586D01*
X14470509Y-28778157D01*
X14484795Y-28792443D01*
X14513366Y-28806729D01*
X14570509Y-28806729D01*
X14599080Y-28792443D01*
X14613366Y-28778157D01*
X14627652Y-28749586D01*
X14756223Y-28921014D02*
X14756223Y-28721014D01*
X14756223Y-28749586D02*
X14770509Y-28735300D01*
X14799080Y-28721014D01*
X14841937Y-28721014D01*
X14870509Y-28735300D01*
X14884795Y-28763871D01*
X14884795Y-28921014D01*
X14884795Y-28763871D02*
X14899080Y-28735300D01*
X14927652Y-28721014D01*
X14970509Y-28721014D01*
X14999080Y-28735300D01*
X15013366Y-28763871D01*
X15013366Y-28921014D01*
X15156223Y-28921014D02*
X15156223Y-28721014D01*
X15156223Y-28749586D02*
X15170509Y-28735300D01*
X15199080Y-28721014D01*
X15241937Y-28721014D01*
X15270509Y-28735300D01*
X15284795Y-28763871D01*
X15284795Y-28921014D01*
X15284795Y-28763871D02*
X15299080Y-28735300D01*
X15327652Y-28721014D01*
X15370509Y-28721014D01*
X15399080Y-28735300D01*
X15413366Y-28763871D01*
X15413366Y-28921014D01*
X15999080Y-28606729D02*
X15741937Y-28992443D01*
X16384795Y-28621014D02*
X16413366Y-28621014D01*
X16441937Y-28635300D01*
X16456223Y-28649586D01*
X16470509Y-28678157D01*
X16484795Y-28735300D01*
X16484795Y-28806729D01*
X16470509Y-28863871D01*
X16456223Y-28892443D01*
X16441937Y-28906729D01*
X16413366Y-28921014D01*
X16384795Y-28921014D01*
X16356223Y-28906729D01*
X16341937Y-28892443D01*
X16327652Y-28863871D01*
X16313366Y-28806729D01*
X16313366Y-28735300D01*
X16327652Y-28678157D01*
X16341937Y-28649586D01*
X16356223Y-28635300D01*
X16384795Y-28621014D01*
X16613366Y-28892443D02*
X16627652Y-28906729D01*
X16613366Y-28921014D01*
X16599080Y-28906729D01*
X16613366Y-28892443D01*
X16613366Y-28921014D01*
X16913366Y-28921014D02*
X16741937Y-28921014D01*
X16827652Y-28921014D02*
X16827652Y-28621014D01*
X16799080Y-28663871D01*
X16770509Y-28692443D01*
X16741937Y-28706729D01*
X17184795Y-28621014D02*
X17041937Y-28621014D01*
X17027652Y-28763871D01*
X17041937Y-28749586D01*
X17070509Y-28735300D01*
X17141937Y-28735300D01*
X17170509Y-28749586D01*
X17184795Y-28763871D01*
X17199080Y-28792443D01*
X17199080Y-28863871D01*
X17184795Y-28892443D01*
X17170509Y-28906729D01*
X17141937Y-28921014D01*
X17070509Y-28921014D01*
X17041937Y-28906729D01*
X17027652Y-28892443D01*
X17299080Y-28621014D02*
X17499080Y-28621014D01*
X17370509Y-28921014D01*
X17599080Y-28621014D02*
X17599080Y-28678157D01*
X17713366Y-28621014D02*
X17713366Y-28678157D01*
X18156223Y-29035300D02*
X18141937Y-29021014D01*
X18113366Y-28978157D01*
X18099080Y-28949586D01*
X18084795Y-28906729D01*
X18070509Y-28835300D01*
X18070509Y-28778157D01*
X18084795Y-28706729D01*
X18099080Y-28663871D01*
X18113366Y-28635300D01*
X18141937Y-28592443D01*
X18156223Y-28578157D01*
X18427652Y-28921014D02*
X18256223Y-28921014D01*
X18341937Y-28921014D02*
X18341937Y-28621014D01*
X18313366Y-28663871D01*
X18284795Y-28692443D01*
X18256223Y-28706729D01*
X18613366Y-28621014D02*
X18641937Y-28621014D01*
X18670509Y-28635300D01*
X18684795Y-28649586D01*
X18699080Y-28678157D01*
X18713366Y-28735300D01*
X18713366Y-28806729D01*
X18699080Y-28863871D01*
X18684795Y-28892443D01*
X18670509Y-28906729D01*
X18641937Y-28921014D01*
X18613366Y-28921014D01*
X18584795Y-28906729D01*
X18570509Y-28892443D01*
X18556223Y-28863871D01*
X18541937Y-28806729D01*
X18541937Y-28735300D01*
X18556223Y-28678157D01*
X18570509Y-28649586D01*
X18584795Y-28635300D01*
X18613366Y-28621014D01*
X18813366Y-28621014D02*
X18999080Y-28621014D01*
X18899080Y-28735300D01*
X18941937Y-28735300D01*
X18970509Y-28749586D01*
X18984795Y-28763871D01*
X18999080Y-28792443D01*
X18999080Y-28863871D01*
X18984795Y-28892443D01*
X18970509Y-28906729D01*
X18941937Y-28921014D01*
X18856223Y-28921014D01*
X18827652Y-28906729D01*
X18813366Y-28892443D01*
X19356223Y-28921014D02*
X19356223Y-28621014D01*
X19484795Y-28921014D02*
X19484795Y-28763871D01*
X19470509Y-28735300D01*
X19441937Y-28721014D01*
X19399080Y-28721014D01*
X19370509Y-28735300D01*
X19356223Y-28749586D01*
X19670509Y-28921014D02*
X19641937Y-28906729D01*
X19627652Y-28892443D01*
X19613366Y-28863871D01*
X19613366Y-28778157D01*
X19627652Y-28749586D01*
X19641937Y-28735300D01*
X19670509Y-28721014D01*
X19713366Y-28721014D01*
X19741937Y-28735300D01*
X19756223Y-28749586D01*
X19770509Y-28778157D01*
X19770509Y-28863871D01*
X19756223Y-28892443D01*
X19741937Y-28906729D01*
X19713366Y-28921014D01*
X19670509Y-28921014D01*
X19941937Y-28921014D02*
X19913366Y-28906729D01*
X19899080Y-28878157D01*
X19899080Y-28621014D01*
X20170509Y-28906729D02*
X20141937Y-28921014D01*
X20084795Y-28921014D01*
X20056223Y-28906729D01*
X20041937Y-28878157D01*
X20041937Y-28763871D01*
X20056223Y-28735300D01*
X20084795Y-28721014D01*
X20141937Y-28721014D01*
X20170509Y-28735300D01*
X20184795Y-28763871D01*
X20184795Y-28792443D01*
X20041937Y-28821014D01*
X20299080Y-28906729D02*
X20327652Y-28921014D01*
X20384795Y-28921014D01*
X20413366Y-28906729D01*
X20427652Y-28878157D01*
X20427652Y-28863871D01*
X20413366Y-28835300D01*
X20384795Y-28821014D01*
X20341937Y-28821014D01*
X20313366Y-28806729D01*
X20299080Y-28778157D01*
X20299080Y-28763871D01*
X20313366Y-28735300D01*
X20341937Y-28721014D01*
X20384795Y-28721014D01*
X20413366Y-28735300D01*
X20527652Y-29035300D02*
X20541937Y-29021014D01*
X20570509Y-28978157D01*
X20584795Y-28949586D01*
X20599080Y-28906729D01*
X20613366Y-28835300D01*
X20613366Y-28778157D01*
X20599080Y-28706729D01*
X20584795Y-28663871D01*
X20570509Y-28635300D01*
X20541937Y-28592443D01*
X20527652Y-28578157D01*
X21070509Y-29035300D02*
X21056223Y-29021014D01*
X21027652Y-28978157D01*
X21013366Y-28949586D01*
X20999080Y-28906729D01*
X20984795Y-28835300D01*
X20984795Y-28778157D01*
X20999080Y-28706729D01*
X21013366Y-28663871D01*
X21027652Y-28635300D01*
X21056223Y-28592443D01*
X21070509Y-28578157D01*
X21184795Y-28721014D02*
X21184795Y-28921014D01*
X21184795Y-28749586D02*
X21199080Y-28735300D01*
X21227652Y-28721014D01*
X21270509Y-28721014D01*
X21299080Y-28735300D01*
X21313366Y-28763871D01*
X21313366Y-28921014D01*
X21499080Y-28921014D02*
X21470509Y-28906729D01*
X21456223Y-28892443D01*
X21441937Y-28863871D01*
X21441937Y-28778157D01*
X21456223Y-28749586D01*
X21470509Y-28735300D01*
X21499080Y-28721014D01*
X21541937Y-28721014D01*
X21570509Y-28735300D01*
X21584795Y-28749586D01*
X21599080Y-28778157D01*
X21599080Y-28863871D01*
X21584795Y-28892443D01*
X21570509Y-28906729D01*
X21541937Y-28921014D01*
X21499080Y-28921014D01*
X21684795Y-28721014D02*
X21799080Y-28721014D01*
X21727652Y-28621014D02*
X21727652Y-28878157D01*
X21741937Y-28906729D01*
X21770509Y-28921014D01*
X21799080Y-28921014D01*
X22127652Y-28721014D02*
X22127652Y-29021014D01*
X22127652Y-28735300D02*
X22156223Y-28721014D01*
X22213366Y-28721014D01*
X22241937Y-28735300D01*
X22256223Y-28749586D01*
X22270509Y-28778157D01*
X22270509Y-28863871D01*
X22256223Y-28892443D01*
X22241937Y-28906729D01*
X22213366Y-28921014D01*
X22156223Y-28921014D01*
X22127652Y-28906729D01*
X22441937Y-28921014D02*
X22413366Y-28906729D01*
X22399080Y-28878157D01*
X22399080Y-28621014D01*
X22684795Y-28921014D02*
X22684795Y-28763871D01*
X22670509Y-28735300D01*
X22641937Y-28721014D01*
X22584795Y-28721014D01*
X22556223Y-28735300D01*
X22684795Y-28906729D02*
X22656223Y-28921014D01*
X22584795Y-28921014D01*
X22556223Y-28906729D01*
X22541937Y-28878157D01*
X22541937Y-28849586D01*
X22556223Y-28821014D01*
X22584795Y-28806729D01*
X22656223Y-28806729D01*
X22684795Y-28792443D01*
X22784795Y-28721014D02*
X22899080Y-28721014D01*
X22827652Y-28621014D02*
X22827652Y-28878157D01*
X22841937Y-28906729D01*
X22870509Y-28921014D01*
X22899080Y-28921014D01*
X23113366Y-28906729D02*
X23084795Y-28921014D01*
X23027652Y-28921014D01*
X22999080Y-28906729D01*
X22984795Y-28878157D01*
X22984795Y-28763871D01*
X22999080Y-28735300D01*
X23027652Y-28721014D01*
X23084795Y-28721014D01*
X23113366Y-28735300D01*
X23127652Y-28763871D01*
X23127652Y-28792443D01*
X22984795Y-28821014D01*
X23384795Y-28921014D02*
X23384795Y-28621014D01*
X23384795Y-28906729D02*
X23356223Y-28921014D01*
X23299080Y-28921014D01*
X23270509Y-28906729D01*
X23256223Y-28892443D01*
X23241937Y-28863871D01*
X23241937Y-28778157D01*
X23256223Y-28749586D01*
X23270509Y-28735300D01*
X23299080Y-28721014D01*
X23356223Y-28721014D01*
X23384795Y-28735300D01*
X23499080Y-29035300D02*
X23513366Y-29021014D01*
X23541937Y-28978157D01*
X23556223Y-28949586D01*
X23570509Y-28906729D01*
X23584795Y-28835300D01*
X23584795Y-28778157D01*
X23570509Y-28706729D01*
X23556223Y-28663871D01*
X23541937Y-28635300D01*
X23513366Y-28592443D01*
X23499080Y-28578157D01*
M02*
