M48
; DRILL file {KiCad (5.1.9)-1} date 04/15/21 20:32:36
; FORMAT={-:-/ absolute / inch / decimal}
; #@! TF.CreationDate,2021-04-15T20:32:36+01:00
; #@! TF.GenerationSoftware,Kicad,Pcbnew,(5.1.9)-1
FMAT,2
INCH
T1C0.0157
T2C0.0236
T3C0.0315
T4C0.0394
T5C0.0402
T6C0.0433
T7C0.0579
T8C0.0256
T9C0.0689
T10C0.0866
T11C0.1200
T12C0.1570
%
G90
G05
T1
X12.1358Y-4.5177
X12.1555Y-4.3898
X12.3249Y-4.5006
X12.3249Y-4.5546
X12.8425Y-4.5846
X13.4665Y-4.5079
X13.6079Y-4.7421
X15.6687Y-4.2317
T3
X5.8524Y-4.5079
X5.8524Y-4.6654
X5.8524Y-4.8228
X5.8524Y-4.9803
X5.8524Y-5.1378
X5.8524Y-5.2953
X6.0524Y-4.5079
X6.0524Y-4.6654
X6.0524Y-4.8228
X6.0524Y-4.9803
X6.0524Y-5.1378
X6.0524Y-5.2953
X6.5413Y-4.5079
X6.5413Y-4.6654
X6.5413Y-5.1378
X6.7413Y-4.5079
X6.7413Y-4.6654
X6.7413Y-5.1378
X7.2303Y-4.6654
X7.2303Y-4.8228
X7.2303Y-4.9803
X7.2303Y-5.1378
X7.2303Y-5.2953
X7.4303Y-4.6654
X7.4303Y-4.8228
X7.4303Y-4.9803
X7.4303Y-5.1378
X7.4303Y-5.2953
X7.9193Y-4.5079
X7.9193Y-4.6654
X7.9193Y-4.8228
X7.9193Y-4.9803
X7.9193Y-5.1378
X7.9193Y-5.2953
X8.1193Y-4.5079
X8.1193Y-4.6654
X8.1193Y-4.8228
X8.1193Y-4.9803
X8.1193Y-5.1378
X8.1193Y-5.2953
X8.6083Y-4.6654
X8.6083Y-4.8228
X8.6083Y-4.9803
X8.6083Y-5.1378
X8.6083Y-5.2953
X8.8083Y-4.6654
X8.8083Y-4.8228
X8.8083Y-4.9803
X8.8083Y-5.1378
X8.8083Y-5.2953
X9.2972Y-4.6654
X9.2972Y-4.8228
X9.2972Y-4.9803
X9.2972Y-5.1378
X9.2972Y-5.2953
X9.4972Y-4.6654
X9.4972Y-4.8228
X9.4972Y-4.9803
X9.4972Y-5.1378
X9.4972Y-5.2953
X9.9862Y-4.5079
X9.9862Y-4.6654
X9.9862Y-4.8228
X9.9862Y-4.9803
X9.9862Y-5.1378
X10.1862Y-4.5079
X10.1862Y-4.6654
X10.1862Y-4.8228
X10.1862Y-4.9803
X10.1862Y-5.1378
X10.6752Y-4.6654
X10.6752Y-4.8228
X10.6752Y-4.9803
X10.6752Y-5.1378
X10.6752Y-5.2953
X10.8752Y-4.6654
X10.8752Y-4.8228
X10.8752Y-4.9803
X10.8752Y-5.1378
X10.8752Y-5.2953
X11.3642Y-4.6654
X11.3642Y-4.8228
X11.3642Y-4.9803
X11.3642Y-5.1378
X11.3642Y-5.2953
X11.5642Y-4.6654
X11.5642Y-4.8228
X11.5642Y-4.9803
X11.5642Y-5.1378
X11.5642Y-5.2953
X12.0531Y-4.6654
X12.0531Y-4.8228
X12.0531Y-4.9803
X12.0531Y-5.1378
X12.0531Y-5.2953
X12.2531Y-4.6654
X12.2531Y-4.8228
X12.2531Y-4.9803
X12.2531Y-5.1378
X12.2531Y-5.2953
X12.7421Y-4.5079
X12.7421Y-4.6654
X12.7421Y-4.8228
X12.7421Y-4.9803
X12.7421Y-5.1378
X12.7421Y-5.2953
X12.9421Y-4.5079
X12.9421Y-4.6654
X12.9421Y-4.8228
X12.9421Y-4.9803
X12.9421Y-5.1378
X12.9421Y-5.2953
X15.6949Y-4.5079
X15.6949Y-4.6654
X15.6949Y-4.8228
X15.6949Y-4.9803
X15.6949Y-5.1378
X15.6949Y-5.2953
X15.8949Y-4.5079
X15.8949Y-4.6654
X15.8949Y-4.8228
X15.8949Y-4.9803
X15.8949Y-5.1378
X15.8949Y-5.2953
X16.185Y-5.2953
X16.187Y-4.8228
X16.187Y-4.9803
X16.187Y-5.1378
X16.385Y-5.2953
X16.387Y-4.8228
X16.387Y-4.9803
X16.387Y-5.1378
X16.6791Y-4.5079
X16.6791Y-4.6654
X16.6791Y-4.8228
X16.6791Y-4.9803
X16.6791Y-5.2953
X16.8791Y-4.5079
X16.8791Y-4.6654
X16.8791Y-4.8228
X16.8791Y-4.9803
X16.8791Y-5.2953
X17.1713Y-4.5079
X17.1713Y-4.8228
X17.1713Y-4.9803
X17.1713Y-5.1378
X17.1713Y-5.2953
X17.3713Y-4.5079
X17.3713Y-4.8228
X17.3713Y-4.9803
X17.3713Y-5.1378
X17.3713Y-5.2953
X17.6634Y-4.5079
X17.6634Y-4.9803
X17.6634Y-5.1378
X17.6634Y-5.2953
X17.8634Y-4.5079
X17.8634Y-4.9803
X17.8634Y-5.1378
X17.8634Y-5.2953
X18.1555Y-4.5079
X18.1555Y-4.6654
X18.1555Y-4.9803
X18.1555Y-5.1378
X18.1555Y-5.2953
X18.3555Y-4.5079
X18.3555Y-4.6654
X18.3555Y-4.9803
X18.3555Y-5.1378
X18.3555Y-5.2953
X18.6476Y-4.5079
X18.6476Y-4.9803
X18.6476Y-5.1378
X18.6476Y-5.2953
X18.8476Y-4.5079
X18.8476Y-4.9803
X18.8476Y-5.1378
X18.8476Y-5.2953
T4
X10.9469Y-4.2579
X10.9469Y-4.435
X11.2028Y-4.2579
X11.2028Y-4.435
X16.2165Y-4.2394
X16.2165Y-4.3394
X16.2165Y-4.4394
X16.2165Y-4.5394
T5
X13.4142Y-4.3921
X13.4142Y-5.0921
X13.5142Y-4.3921
X13.5142Y-5.0921
X13.6142Y-4.3921
X13.6142Y-5.0921
X13.7142Y-4.3921
X13.7142Y-5.0921
X13.8142Y-4.3921
X13.8142Y-5.0921
X13.9142Y-4.3921
X13.9142Y-5.0921
X14.0142Y-4.3921
X14.0142Y-5.0921
X14.1142Y-4.3921
X14.1142Y-5.0921
X14.2142Y-4.3921
X14.2142Y-5.0921
X14.3142Y-4.3921
X14.3142Y-5.0921
X14.4142Y-4.3921
X14.4142Y-5.0921
X14.5142Y-4.3921
X14.5142Y-5.0921
X14.6142Y-4.3921
X14.6142Y-5.0921
X14.7142Y-4.3921
X14.7142Y-5.0921
X14.8142Y-4.3921
X14.8142Y-5.0921
X14.9142Y-4.3921
X14.9142Y-5.0921
X15.0142Y-4.3921
X15.0142Y-5.0921
X15.1142Y-4.3921
X15.1142Y-5.0921
X15.2142Y-4.3921
X15.2142Y-5.0921
X15.3051Y-4.6421
X15.3051Y-4.7421
X15.3051Y-4.8421
X15.3142Y-4.3921
X15.3142Y-5.0921
T6
X13.4144Y-4.7021
X13.4144Y-4.7821
T7
X5.54Y-5.7081
X5.54Y-6.8331
X5.6337Y-9.0831
X5.6337Y-9.8331
X5.7275Y-7.5831
X5.79Y-5.6081
X5.79Y-6.7331
X5.8212Y-8.3331
X5.8837Y-8.9831
X5.8837Y-9.7331
X5.9775Y-7.4831
X6.0094Y-9.0831
X6.0712Y-8.2331
X6.2594Y-8.9831
X6.29Y-6.8331
X6.4775Y-9.0831
X6.54Y-6.7331
X6.5712Y-9.8331
X6.665Y-7.5831
X6.7275Y-8.9831
X6.8212Y-9.7331
X6.8525Y-8.3331
X6.915Y-7.4831
X7.04Y-5.7081
X7.04Y-6.8331
X7.1025Y-8.2331
X7.2275Y-9.0831
X7.29Y-5.6081
X7.29Y-6.7331
X7.415Y-7.5831
X7.4775Y-8.9831
X7.5087Y-9.8331
X7.6025Y-8.3331
X7.665Y-7.4831
X7.7587Y-9.7331
X7.79Y-5.7081
X7.79Y-6.8331
X7.8525Y-8.2331
X7.9775Y-9.0831
X8.04Y-5.6081
X8.04Y-6.7331
X8.165Y-7.5831
X8.2275Y-8.9831
X8.3525Y-8.3331
X8.415Y-7.4831
X8.54Y-5.7081
X8.54Y-6.8331
X8.6025Y-8.2331
X8.7275Y-9.0831
X8.79Y-5.6081
X8.79Y-6.7331
X8.915Y-7.5831
X8.9775Y-8.9831
X9.1025Y-8.3331
X9.165Y-7.4831
X9.29Y-5.7081
X9.29Y-6.8331
X9.3525Y-8.2331
X9.4775Y-9.0831
X9.54Y-5.6081
X9.54Y-6.7331
X9.665Y-7.5831
X9.7275Y-8.9831
X9.8525Y-8.3331
X9.915Y-7.4831
X10.04Y-6.8331
X10.1025Y-8.2331
X10.2275Y-9.0831
X10.29Y-6.7331
X10.3212Y-9.8331
X10.415Y-5.7081
X10.415Y-7.5831
X10.4775Y-8.9831
X10.5712Y-9.7331
X10.6025Y-8.3331
X10.665Y-5.6081
X10.665Y-7.4831
X10.79Y-6.8331
X10.8525Y-8.2331
X10.9775Y-9.0831
X11.04Y-6.7331
X11.165Y-5.7081
X11.165Y-7.5831
X11.2275Y-8.9831
X11.3525Y-8.3331
X11.415Y-5.6081
X11.415Y-7.4831
X11.54Y-6.8331
X11.6025Y-8.2331
X11.7275Y-9.0831
X11.79Y-6.7331
X11.915Y-5.7081
X11.915Y-7.5831
X11.9775Y-8.9831
X12.1025Y-8.3331
X12.165Y-5.6081
X12.165Y-7.4831
X12.29Y-6.8331
X12.3525Y-8.2331
X12.4775Y-9.0831
X12.54Y-6.7331
X12.665Y-5.7081
X12.665Y-7.5831
X12.7275Y-8.9831
X12.8525Y-8.3331
X12.915Y-5.6081
X12.915Y-7.4831
X13.04Y-6.8331
X13.1025Y-8.2331
X13.1337Y-9.8331
X13.2275Y-9.0831
X13.29Y-6.7331
X13.3837Y-9.7331
X13.415Y-7.5831
X13.4775Y-8.9831
X13.6025Y-8.3331
X13.665Y-7.4831
X13.79Y-5.7081
X13.79Y-6.8331
X13.8525Y-8.2331
X13.9775Y-9.0831
X14.04Y-5.6081
X14.04Y-6.7331
X14.0712Y-9.8331
X14.165Y-7.5831
X14.2275Y-8.9831
X14.3212Y-9.7331
X14.3525Y-8.3331
X14.415Y-7.4831
X14.54Y-5.7081
X14.54Y-6.8331
X14.6025Y-8.2331
X14.79Y-5.6081
X14.79Y-6.7331
X14.915Y-7.5831
X15.0087Y-9.8331
X15.1025Y-8.3331
X15.165Y-7.4831
X15.2587Y-9.7331
X15.29Y-5.7081
X15.3525Y-8.2331
X15.3837Y-9.0831
X15.54Y-5.6081
X15.5705Y-8.3319
X15.6337Y-8.9831
X15.665Y-6.8331
X15.8205Y-8.2319
X15.852Y-7.5821
X15.915Y-6.7331
X15.9462Y-9.8331
X16.04Y-5.7081
X16.102Y-7.4821
X16.1955Y-7.9081
X16.1962Y-9.7331
X16.29Y-5.6081
X16.2955Y-8.1581
X16.9775Y-5.7081
X16.9775Y-6.8331
X16.9775Y-7.5831
X16.9775Y-9.8331
X17.2275Y-5.6081
X17.2275Y-6.7331
X17.2275Y-7.4831
X17.2275Y-9.7331
X17.7275Y-5.7081
X17.7275Y-6.8331
X17.7275Y-7.5831
X17.7275Y-9.0831
X17.7275Y-9.8331
X17.9775Y-5.6081
X17.9775Y-6.7331
X17.9775Y-7.4831
X17.9775Y-8.9831
X17.9775Y-9.7331
X18.4775Y-5.7081
X18.4775Y-6.8331
X18.4775Y-7.5831
X18.4775Y-9.8331
X18.7275Y-5.6081
X18.7275Y-6.7331
X18.7275Y-7.4831
X18.7275Y-9.7331
T8
X12.0329Y-4.4016
X12.2604Y-4.4016
T9
X5.49Y-5.8081
X5.49Y-6.9331
X5.5837Y-9.1831
X5.5837Y-9.9331
X5.6775Y-7.6831
X5.7712Y-8.4331
X5.89Y-5.8081
X5.89Y-6.9331
X5.9594Y-9.1831
X5.9837Y-9.1831
X5.9837Y-9.9331
X6.0775Y-7.6831
X6.1712Y-8.4331
X6.24Y-6.9331
X6.3594Y-9.1831
X6.4275Y-9.1831
X6.5212Y-9.9331
X6.615Y-7.6831
X6.64Y-6.9331
X6.8025Y-8.4331
X6.8275Y-9.1831
X6.9212Y-9.9331
X6.99Y-5.8081
X6.99Y-6.9331
X7.015Y-7.6831
X7.1775Y-9.1831
X7.2025Y-8.4331
X7.365Y-7.6831
X7.39Y-5.8081
X7.39Y-6.9331
X7.4587Y-9.9331
X7.5525Y-8.4331
X7.5775Y-9.1831
X7.74Y-5.8081
X7.74Y-6.9331
X7.765Y-7.6831
X7.8587Y-9.9331
X7.9275Y-9.1831
X7.9525Y-8.4331
X8.115Y-7.6831
X8.14Y-5.8081
X8.14Y-6.9331
X8.3025Y-8.4331
X8.3275Y-9.1831
X8.49Y-5.8081
X8.49Y-6.9331
X8.515Y-7.6831
X8.6775Y-9.1831
X8.7025Y-8.4331
X8.865Y-7.6831
X8.89Y-5.8081
X8.89Y-6.9331
X9.0525Y-8.4331
X9.0775Y-9.1831
X9.24Y-5.8081
X9.24Y-6.9331
X9.265Y-7.6831
X9.4275Y-9.1831
X9.4525Y-8.4331
X9.615Y-7.6831
X9.64Y-5.8081
X9.64Y-6.9331
X9.8025Y-8.4331
X9.8275Y-9.1831
X9.99Y-6.9331
X10.015Y-7.6831
X10.1775Y-9.1831
X10.2025Y-8.4331
X10.2712Y-9.9331
X10.365Y-5.8081
X10.365Y-7.6831
X10.39Y-6.9331
X10.5525Y-8.4331
X10.5775Y-9.1831
X10.6712Y-9.9331
X10.74Y-6.9331
X10.765Y-5.8081
X10.765Y-7.6831
X10.9275Y-9.1831
X10.9525Y-8.4331
X11.115Y-5.8081
X11.115Y-7.6831
X11.14Y-6.9331
X11.3025Y-8.4331
X11.3275Y-9.1831
X11.49Y-6.9331
X11.515Y-5.8081
X11.515Y-7.6831
X11.6775Y-9.1831
X11.7025Y-8.4331
X11.865Y-5.8081
X11.865Y-7.6831
X11.89Y-6.9331
X12.0525Y-8.4331
X12.0775Y-9.1831
X12.24Y-6.9331
X12.265Y-5.8081
X12.265Y-7.6831
X12.4275Y-9.1831
X12.4525Y-8.4331
X12.615Y-5.8081
X12.615Y-7.6831
X12.64Y-6.9331
X12.8025Y-8.4331
X12.8275Y-9.1831
X12.99Y-6.9331
X13.015Y-5.8081
X13.015Y-7.6831
X13.0837Y-9.9331
X13.1775Y-9.1831
X13.2025Y-8.4331
X13.365Y-7.6831
X13.39Y-6.9331
X13.4837Y-9.9331
X13.5525Y-8.4331
X13.5775Y-9.1831
X13.74Y-5.8081
X13.74Y-6.9331
X13.765Y-7.6831
X13.9275Y-9.1831
X13.9525Y-8.4331
X14.0212Y-9.9331
X14.115Y-7.6831
X14.14Y-5.8081
X14.14Y-6.9331
X14.3025Y-8.4331
X14.3275Y-9.1831
X14.4212Y-9.9331
X14.49Y-5.8081
X14.49Y-6.9331
X14.515Y-7.6831
X14.7025Y-8.4331
X14.865Y-7.6831
X14.89Y-5.8081
X14.89Y-6.9331
X14.9587Y-9.9331
X15.0525Y-8.4331
X15.24Y-5.8081
X15.265Y-7.6831
X15.3337Y-9.1831
X15.3587Y-9.9331
X15.4525Y-8.4331
X15.5205Y-8.4319
X15.615Y-6.9331
X15.64Y-5.8081
X15.7337Y-9.1831
X15.802Y-7.6821
X15.8962Y-9.9331
X15.9205Y-8.4319
X15.99Y-5.8081
X16.015Y-6.9331
X16.0955Y-7.8581
X16.0955Y-8.2581
X16.202Y-7.6821
X16.2962Y-9.9331
X16.39Y-5.8081
X16.9275Y-5.8081
X16.9275Y-6.9331
X16.9275Y-7.6831
X16.9275Y-9.9331
X17.3275Y-5.8081
X17.3275Y-6.9331
X17.3275Y-7.6831
X17.3275Y-9.9331
X17.6775Y-5.8081
X17.6775Y-6.9331
X17.6775Y-7.6831
X17.6775Y-9.1831
X17.6775Y-9.9331
X18.0775Y-5.8081
X18.0775Y-6.9331
X18.0775Y-7.6831
X18.0775Y-9.1831
X18.0775Y-9.9331
X18.4275Y-5.8081
X18.4275Y-6.9331
X18.4275Y-7.6831
X18.4275Y-9.9331
X18.8275Y-5.8081
X18.8275Y-6.9331
X18.8275Y-7.6831
X18.8275Y-9.9331
T10
X5.4783Y-4.3396
X5.4862Y-9.5571
X5.6909Y-6.3701
X6.253Y-10.124
X12.1476Y-6.3701
X12.1476Y-8.0472
X12.1476Y-10.124
X18.2526Y-10.124
X18.626Y-6.3701
X18.8278Y-4.3396
X18.8307Y-9.5571
T11
X5.6907Y-8.9081
X6.6282Y-8.9081
X8.5027Y-10.2081
X12.4397Y-10.2081
X15.065Y-8.9081
X15.2517Y-8.1569
X15.3462Y-6.6581
X16.0025Y-8.9081
X16.1892Y-8.1569
X16.2837Y-6.6581
X16.3705Y-7.5881
X16.3705Y-8.5281
T12
X5.69Y-5.8081
X5.69Y-6.9331
X5.6907Y-9.5081
X5.7837Y-9.1831
X5.7837Y-9.9331
X5.8775Y-7.6831
X5.9712Y-8.4331
X6.1594Y-9.1831
X6.44Y-6.9331
X6.6275Y-9.1831
X6.6282Y-9.5081
X6.7212Y-9.9331
X6.815Y-7.6831
X7.0025Y-8.4331
X7.19Y-5.8081
X7.19Y-6.9331
X7.3775Y-9.1831
X7.565Y-7.6831
X7.6587Y-9.9331
X7.7525Y-8.4331
X7.94Y-5.8081
X7.94Y-6.9331
X8.1275Y-9.1831
X8.315Y-7.6831
X8.5025Y-8.4331
X8.5027Y-9.6081
X8.69Y-5.8081
X8.69Y-6.9331
X8.8775Y-9.1831
X9.065Y-7.6831
X9.2525Y-8.4331
X9.44Y-5.8081
X9.44Y-6.9331
X9.6275Y-9.1831
X9.815Y-7.6831
X10.0025Y-8.4331
X10.19Y-6.9331
X10.3775Y-9.1831
X10.4712Y-9.9331
X10.565Y-5.8081
X10.565Y-7.6831
X10.7525Y-8.4331
X10.94Y-6.9331
X11.1275Y-9.1831
X11.315Y-5.8081
X11.315Y-7.6831
X11.5025Y-8.4331
X11.69Y-6.9331
X11.8775Y-9.1831
X12.065Y-5.8081
X12.065Y-7.6831
X12.2525Y-8.4331
X12.4397Y-9.6081
X12.44Y-6.9331
X12.6275Y-9.1831
X12.815Y-5.8081
X12.815Y-7.6831
X13.0025Y-8.4331
X13.19Y-6.9331
X13.2837Y-9.9331
X13.3775Y-9.1831
X13.565Y-7.6831
X13.7525Y-8.4331
X13.94Y-5.8081
X13.94Y-6.9331
X14.1275Y-9.1831
X14.2212Y-9.9331
X14.315Y-7.6831
X14.5025Y-8.4331
X14.69Y-5.8081
X14.69Y-6.9331
X15.065Y-7.6831
X15.065Y-9.5081
X15.1587Y-9.9331
X15.2517Y-8.7569
X15.2525Y-8.4331
X15.3462Y-7.2581
X15.44Y-5.8081
X15.5337Y-9.1831
X15.7205Y-8.4319
X15.7705Y-7.5881
X15.7705Y-8.5281
X15.815Y-6.9331
X16.002Y-7.6821
X16.0025Y-9.5081
X16.0955Y-8.0581
X16.0962Y-9.9331
X16.1892Y-8.7569
X16.19Y-5.8081
X16.2837Y-7.2581
X17.1275Y-5.8081
X17.1275Y-6.9331
X17.1275Y-7.6831
X17.1275Y-9.9331
X17.8775Y-5.8081
X17.8775Y-6.9331
X17.8775Y-7.6831
X17.8775Y-9.1831
X17.8775Y-9.9331
X18.6275Y-5.8081
X18.6275Y-6.9331
X18.6275Y-7.6831
X18.6275Y-9.9331
T2
G00X11.9766Y-4.2697
M15
G01X11.9766Y-4.2461
M16
G05
G00X11.9766Y-4.4441
M15
G01X11.9766Y-4.4008
M16
G05
G00X12.3167Y-4.2697
M15
G01X12.3167Y-4.2461
M16
G05
G00X12.3167Y-4.4441
M15
G01X12.3167Y-4.4008
M16
G05
T0
M30
