%FSLAX45Y45*%
G04 Gerber Fmt 4.5, Leading zero omitted, Abs format (unit mm)*
G04 Created by KiCad (PCBNEW (5.1.9)-1) date 2021-04-20 10:13:04*
%MOMM*%
%LPD*%
G01*
G04 APERTURE LIST*
%TA.AperFunction,Profile*%
%ADD10C,0.200000*%
%TD*%
%ADD11C,0.200000*%
%ADD12C,0.300000*%
G04 APERTURE END LIST*
D10*
X48285000Y-10760800D02*
X48285000Y-25992500D01*
X13480000Y-10760000D02*
G75*
G02*
X13684939Y-10560000I204939J-5000D01*
G01*
X13710140Y-26190000D02*
G75*
G02*
X13480000Y-25937860I12123J242166D01*
G01*
X48285000Y-25992500D02*
G75*
G02*
X48085000Y-26192500I-200000J0D01*
G01*
X48088800Y-10559844D02*
G75*
G02*
X48285000Y-10760800I0J-196256D01*
G01*
X13684939Y-10560000D02*
X48088800Y-10559844D01*
X13480000Y-25937860D02*
X13480000Y-10760000D01*
X48085000Y-26192500D02*
X13710140Y-26190000D01*
D11*
X30805000Y-11455000D02*
X30845000Y-11495000D01*
X30845000Y-11455000D02*
X30805000Y-11495000D01*
X30855000Y-11130000D02*
X30895000Y-11170000D01*
X30895000Y-11130000D02*
X30855000Y-11170000D01*
X31285310Y-11411420D02*
X31325310Y-11451420D01*
X31325310Y-11411420D02*
X31285310Y-11451420D01*
X31285310Y-11548580D02*
X31325310Y-11588580D01*
X31325310Y-11548580D02*
X31285310Y-11588580D01*
X32600000Y-11625000D02*
X32640000Y-11665000D01*
X32640000Y-11625000D02*
X32600000Y-11665000D01*
X34185000Y-11430000D02*
X34225000Y-11470000D01*
X34225000Y-11430000D02*
X34185000Y-11470000D01*
X34544000Y-12025000D02*
X34584000Y-12065000D01*
X34584000Y-12025000D02*
X34544000Y-12065000D01*
X39778546Y-10728410D02*
X39818546Y-10768410D01*
X39818546Y-10728410D02*
X39778546Y-10768410D01*
X30450500Y-10815000D02*
G75*
G03*
X30450500Y-10815000I-30000J0D01*
G01*
X30440500Y-10845000D02*
X30440500Y-10785000D01*
X30400500Y-10845000D02*
X30400500Y-10785000D01*
X30440500Y-10785000D02*
G75*
G03*
X30400500Y-10785000I-20000J0D01*
G01*
X30400500Y-10845000D02*
G75*
G03*
X30440500Y-10845000I20000J0D01*
G01*
X30450500Y-11233000D02*
G75*
G03*
X30450500Y-11233000I-30000J0D01*
G01*
X30440500Y-11288000D02*
X30440500Y-11178000D01*
X30400500Y-11288000D02*
X30400500Y-11178000D01*
X30440500Y-11178000D02*
G75*
G03*
X30400500Y-11178000I-20000J0D01*
G01*
X30400500Y-11288000D02*
G75*
G03*
X30440500Y-11288000I20000J0D01*
G01*
X31314500Y-10815000D02*
G75*
G03*
X31314500Y-10815000I-30000J0D01*
G01*
X31304500Y-10845000D02*
X31304500Y-10785000D01*
X31264500Y-10845000D02*
X31264500Y-10785000D01*
X31304500Y-10785000D02*
G75*
G03*
X31264500Y-10785000I-20000J0D01*
G01*
X31264500Y-10845000D02*
G75*
G03*
X31304500Y-10845000I20000J0D01*
G01*
X31314500Y-11233000D02*
G75*
G03*
X31314500Y-11233000I-30000J0D01*
G01*
X31304500Y-11288000D02*
X31304500Y-11178000D01*
X31264500Y-11288000D02*
X31264500Y-11178000D01*
X31304500Y-11178000D02*
G75*
G03*
X31264500Y-11178000I-20000J0D01*
G01*
X31264500Y-11288000D02*
G75*
G03*
X31304500Y-11288000I20000J0D01*
G01*
X14865000Y-11410000D02*
X14865000Y-11490000D01*
X14825000Y-11450000D02*
X14905000Y-11450000D01*
X14865000Y-11810000D02*
X14865000Y-11890000D01*
X14825000Y-11850000D02*
X14905000Y-11850000D01*
X14865000Y-12210000D02*
X14865000Y-12290000D01*
X14825000Y-12250000D02*
X14905000Y-12250000D01*
X14865000Y-12610000D02*
X14865000Y-12690000D01*
X14825000Y-12650000D02*
X14905000Y-12650000D01*
X14865000Y-13010000D02*
X14865000Y-13090000D01*
X14825000Y-13050000D02*
X14905000Y-13050000D01*
X14865000Y-13410000D02*
X14865000Y-13490000D01*
X14825000Y-13450000D02*
X14905000Y-13450000D01*
X15373000Y-11410000D02*
X15373000Y-11490000D01*
X15333000Y-11450000D02*
X15413000Y-11450000D01*
X15373000Y-11810000D02*
X15373000Y-11890000D01*
X15333000Y-11850000D02*
X15413000Y-11850000D01*
X15373000Y-12210000D02*
X15373000Y-12290000D01*
X15333000Y-12250000D02*
X15413000Y-12250000D01*
X15373000Y-12610000D02*
X15373000Y-12690000D01*
X15333000Y-12650000D02*
X15413000Y-12650000D01*
X15373000Y-13010000D02*
X15373000Y-13090000D01*
X15333000Y-13050000D02*
X15413000Y-13050000D01*
X15373000Y-13410000D02*
X15373000Y-13490000D01*
X15333000Y-13450000D02*
X15413000Y-13450000D01*
X16615000Y-11410000D02*
X16615000Y-11490000D01*
X16575000Y-11450000D02*
X16655000Y-11450000D01*
X16615000Y-11810000D02*
X16615000Y-11890000D01*
X16575000Y-11850000D02*
X16655000Y-11850000D01*
X16615000Y-13010000D02*
X16615000Y-13090000D01*
X16575000Y-13050000D02*
X16655000Y-13050000D01*
X17123000Y-11410000D02*
X17123000Y-11490000D01*
X17083000Y-11450000D02*
X17163000Y-11450000D01*
X17123000Y-11810000D02*
X17123000Y-11890000D01*
X17083000Y-11850000D02*
X17163000Y-11850000D01*
X17123000Y-13010000D02*
X17123000Y-13090000D01*
X17083000Y-13050000D02*
X17163000Y-13050000D01*
X18365000Y-11810000D02*
X18365000Y-11890000D01*
X18325000Y-11850000D02*
X18405000Y-11850000D01*
X18365000Y-12210000D02*
X18365000Y-12290000D01*
X18325000Y-12250000D02*
X18405000Y-12250000D01*
X18365000Y-12610000D02*
X18365000Y-12690000D01*
X18325000Y-12650000D02*
X18405000Y-12650000D01*
X18365000Y-13010000D02*
X18365000Y-13090000D01*
X18325000Y-13050000D02*
X18405000Y-13050000D01*
X18365000Y-13410000D02*
X18365000Y-13490000D01*
X18325000Y-13450000D02*
X18405000Y-13450000D01*
X18873000Y-11810000D02*
X18873000Y-11890000D01*
X18833000Y-11850000D02*
X18913000Y-11850000D01*
X18873000Y-12210000D02*
X18873000Y-12290000D01*
X18833000Y-12250000D02*
X18913000Y-12250000D01*
X18873000Y-12610000D02*
X18873000Y-12690000D01*
X18833000Y-12650000D02*
X18913000Y-12650000D01*
X18873000Y-13010000D02*
X18873000Y-13090000D01*
X18833000Y-13050000D02*
X18913000Y-13050000D01*
X18873000Y-13410000D02*
X18873000Y-13490000D01*
X18833000Y-13450000D02*
X18913000Y-13450000D01*
X20115000Y-11410000D02*
X20115000Y-11490000D01*
X20075000Y-11450000D02*
X20155000Y-11450000D01*
X20115000Y-11810000D02*
X20115000Y-11890000D01*
X20075000Y-11850000D02*
X20155000Y-11850000D01*
X20115000Y-12210000D02*
X20115000Y-12290000D01*
X20075000Y-12250000D02*
X20155000Y-12250000D01*
X20115000Y-12610000D02*
X20115000Y-12690000D01*
X20075000Y-12650000D02*
X20155000Y-12650000D01*
X20115000Y-13010000D02*
X20115000Y-13090000D01*
X20075000Y-13050000D02*
X20155000Y-13050000D01*
X20115000Y-13410000D02*
X20115000Y-13490000D01*
X20075000Y-13450000D02*
X20155000Y-13450000D01*
X20623000Y-11410000D02*
X20623000Y-11490000D01*
X20583000Y-11450000D02*
X20663000Y-11450000D01*
X20623000Y-11810000D02*
X20623000Y-11890000D01*
X20583000Y-11850000D02*
X20663000Y-11850000D01*
X20623000Y-12210000D02*
X20623000Y-12290000D01*
X20583000Y-12250000D02*
X20663000Y-12250000D01*
X20623000Y-12610000D02*
X20623000Y-12690000D01*
X20583000Y-12650000D02*
X20663000Y-12650000D01*
X20623000Y-13010000D02*
X20623000Y-13090000D01*
X20583000Y-13050000D02*
X20663000Y-13050000D01*
X20623000Y-13410000D02*
X20623000Y-13490000D01*
X20583000Y-13450000D02*
X20663000Y-13450000D01*
X21865000Y-11810000D02*
X21865000Y-11890000D01*
X21825000Y-11850000D02*
X21905000Y-11850000D01*
X21865000Y-12210000D02*
X21865000Y-12290000D01*
X21825000Y-12250000D02*
X21905000Y-12250000D01*
X21865000Y-12610000D02*
X21865000Y-12690000D01*
X21825000Y-12650000D02*
X21905000Y-12650000D01*
X21865000Y-13010000D02*
X21865000Y-13090000D01*
X21825000Y-13050000D02*
X21905000Y-13050000D01*
X21865000Y-13410000D02*
X21865000Y-13490000D01*
X21825000Y-13450000D02*
X21905000Y-13450000D01*
X22373000Y-11810000D02*
X22373000Y-11890000D01*
X22333000Y-11850000D02*
X22413000Y-11850000D01*
X22373000Y-12210000D02*
X22373000Y-12290000D01*
X22333000Y-12250000D02*
X22413000Y-12250000D01*
X22373000Y-12610000D02*
X22373000Y-12690000D01*
X22333000Y-12650000D02*
X22413000Y-12650000D01*
X22373000Y-13010000D02*
X22373000Y-13090000D01*
X22333000Y-13050000D02*
X22413000Y-13050000D01*
X22373000Y-13410000D02*
X22373000Y-13490000D01*
X22333000Y-13450000D02*
X22413000Y-13450000D01*
X23615000Y-11810000D02*
X23615000Y-11890000D01*
X23575000Y-11850000D02*
X23655000Y-11850000D01*
X23615000Y-12210000D02*
X23615000Y-12290000D01*
X23575000Y-12250000D02*
X23655000Y-12250000D01*
X23615000Y-12610000D02*
X23615000Y-12690000D01*
X23575000Y-12650000D02*
X23655000Y-12650000D01*
X23615000Y-13010000D02*
X23615000Y-13090000D01*
X23575000Y-13050000D02*
X23655000Y-13050000D01*
X23615000Y-13410000D02*
X23615000Y-13490000D01*
X23575000Y-13450000D02*
X23655000Y-13450000D01*
X24123000Y-11810000D02*
X24123000Y-11890000D01*
X24083000Y-11850000D02*
X24163000Y-11850000D01*
X24123000Y-12210000D02*
X24123000Y-12290000D01*
X24083000Y-12250000D02*
X24163000Y-12250000D01*
X24123000Y-12610000D02*
X24123000Y-12690000D01*
X24083000Y-12650000D02*
X24163000Y-12650000D01*
X24123000Y-13010000D02*
X24123000Y-13090000D01*
X24083000Y-13050000D02*
X24163000Y-13050000D01*
X24123000Y-13410000D02*
X24123000Y-13490000D01*
X24083000Y-13450000D02*
X24163000Y-13450000D01*
X25365000Y-11410000D02*
X25365000Y-11490000D01*
X25325000Y-11450000D02*
X25405000Y-11450000D01*
X25365000Y-11810000D02*
X25365000Y-11890000D01*
X25325000Y-11850000D02*
X25405000Y-11850000D01*
X25365000Y-12210000D02*
X25365000Y-12290000D01*
X25325000Y-12250000D02*
X25405000Y-12250000D01*
X25365000Y-12610000D02*
X25365000Y-12690000D01*
X25325000Y-12650000D02*
X25405000Y-12650000D01*
X25365000Y-13010000D02*
X25365000Y-13090000D01*
X25325000Y-13050000D02*
X25405000Y-13050000D01*
X25873000Y-11410000D02*
X25873000Y-11490000D01*
X25833000Y-11450000D02*
X25913000Y-11450000D01*
X25873000Y-11810000D02*
X25873000Y-11890000D01*
X25833000Y-11850000D02*
X25913000Y-11850000D01*
X25873000Y-12210000D02*
X25873000Y-12290000D01*
X25833000Y-12250000D02*
X25913000Y-12250000D01*
X25873000Y-12610000D02*
X25873000Y-12690000D01*
X25833000Y-12650000D02*
X25913000Y-12650000D01*
X25873000Y-13010000D02*
X25873000Y-13090000D01*
X25833000Y-13050000D02*
X25913000Y-13050000D01*
X27115000Y-11810000D02*
X27115000Y-11890000D01*
X27075000Y-11850000D02*
X27155000Y-11850000D01*
X27115000Y-12210000D02*
X27115000Y-12290000D01*
X27075000Y-12250000D02*
X27155000Y-12250000D01*
X27115000Y-12610000D02*
X27115000Y-12690000D01*
X27075000Y-12650000D02*
X27155000Y-12650000D01*
X27115000Y-13010000D02*
X27115000Y-13090000D01*
X27075000Y-13050000D02*
X27155000Y-13050000D01*
X27115000Y-13410000D02*
X27115000Y-13490000D01*
X27075000Y-13450000D02*
X27155000Y-13450000D01*
X27623000Y-11810000D02*
X27623000Y-11890000D01*
X27583000Y-11850000D02*
X27663000Y-11850000D01*
X27623000Y-12210000D02*
X27623000Y-12290000D01*
X27583000Y-12250000D02*
X27663000Y-12250000D01*
X27623000Y-12610000D02*
X27623000Y-12690000D01*
X27583000Y-12650000D02*
X27663000Y-12650000D01*
X27623000Y-13010000D02*
X27623000Y-13090000D01*
X27583000Y-13050000D02*
X27663000Y-13050000D01*
X27623000Y-13410000D02*
X27623000Y-13490000D01*
X27583000Y-13450000D02*
X27663000Y-13450000D01*
X28865000Y-11810000D02*
X28865000Y-11890000D01*
X28825000Y-11850000D02*
X28905000Y-11850000D01*
X28865000Y-12210000D02*
X28865000Y-12290000D01*
X28825000Y-12250000D02*
X28905000Y-12250000D01*
X28865000Y-12610000D02*
X28865000Y-12690000D01*
X28825000Y-12650000D02*
X28905000Y-12650000D01*
X28865000Y-13010000D02*
X28865000Y-13090000D01*
X28825000Y-13050000D02*
X28905000Y-13050000D01*
X28865000Y-13410000D02*
X28865000Y-13490000D01*
X28825000Y-13450000D02*
X28905000Y-13450000D01*
X29373000Y-11810000D02*
X29373000Y-11890000D01*
X29333000Y-11850000D02*
X29413000Y-11850000D01*
X29373000Y-12210000D02*
X29373000Y-12290000D01*
X29333000Y-12250000D02*
X29413000Y-12250000D01*
X29373000Y-12610000D02*
X29373000Y-12690000D01*
X29333000Y-12650000D02*
X29413000Y-12650000D01*
X29373000Y-13010000D02*
X29373000Y-13090000D01*
X29333000Y-13050000D02*
X29413000Y-13050000D01*
X29373000Y-13410000D02*
X29373000Y-13490000D01*
X29333000Y-13450000D02*
X29413000Y-13450000D01*
X30615000Y-11810000D02*
X30615000Y-11890000D01*
X30575000Y-11850000D02*
X30655000Y-11850000D01*
X30615000Y-12210000D02*
X30615000Y-12290000D01*
X30575000Y-12250000D02*
X30655000Y-12250000D01*
X30615000Y-12610000D02*
X30615000Y-12690000D01*
X30575000Y-12650000D02*
X30655000Y-12650000D01*
X30615000Y-13010000D02*
X30615000Y-13090000D01*
X30575000Y-13050000D02*
X30655000Y-13050000D01*
X30615000Y-13410000D02*
X30615000Y-13490000D01*
X30575000Y-13450000D02*
X30655000Y-13450000D01*
X31123000Y-11810000D02*
X31123000Y-11890000D01*
X31083000Y-11850000D02*
X31163000Y-11850000D01*
X31123000Y-12210000D02*
X31123000Y-12290000D01*
X31083000Y-12250000D02*
X31163000Y-12250000D01*
X31123000Y-12610000D02*
X31123000Y-12690000D01*
X31083000Y-12650000D02*
X31163000Y-12650000D01*
X31123000Y-13010000D02*
X31123000Y-13090000D01*
X31083000Y-13050000D02*
X31163000Y-13050000D01*
X31123000Y-13410000D02*
X31123000Y-13490000D01*
X31083000Y-13450000D02*
X31163000Y-13450000D01*
X32365000Y-11410000D02*
X32365000Y-11490000D01*
X32325000Y-11450000D02*
X32405000Y-11450000D01*
X32365000Y-11810000D02*
X32365000Y-11890000D01*
X32325000Y-11850000D02*
X32405000Y-11850000D01*
X32365000Y-12210000D02*
X32365000Y-12290000D01*
X32325000Y-12250000D02*
X32405000Y-12250000D01*
X32365000Y-12610000D02*
X32365000Y-12690000D01*
X32325000Y-12650000D02*
X32405000Y-12650000D01*
X32365000Y-13010000D02*
X32365000Y-13090000D01*
X32325000Y-13050000D02*
X32405000Y-13050000D01*
X32365000Y-13410000D02*
X32365000Y-13490000D01*
X32325000Y-13450000D02*
X32405000Y-13450000D01*
X32873000Y-11410000D02*
X32873000Y-11490000D01*
X32833000Y-11450000D02*
X32913000Y-11450000D01*
X32873000Y-11810000D02*
X32873000Y-11890000D01*
X32833000Y-11850000D02*
X32913000Y-11850000D01*
X32873000Y-12210000D02*
X32873000Y-12290000D01*
X32833000Y-12250000D02*
X32913000Y-12250000D01*
X32873000Y-12610000D02*
X32873000Y-12690000D01*
X32833000Y-12650000D02*
X32913000Y-12650000D01*
X32873000Y-13010000D02*
X32873000Y-13090000D01*
X32833000Y-13050000D02*
X32913000Y-13050000D01*
X32873000Y-13410000D02*
X32873000Y-13490000D01*
X32833000Y-13450000D02*
X32913000Y-13450000D01*
X39865000Y-11410000D02*
X39865000Y-11490000D01*
X39825000Y-11450000D02*
X39905000Y-11450000D01*
X39865000Y-11810000D02*
X39865000Y-11890000D01*
X39825000Y-11850000D02*
X39905000Y-11850000D01*
X39865000Y-12210000D02*
X39865000Y-12290000D01*
X39825000Y-12250000D02*
X39905000Y-12250000D01*
X39865000Y-12610000D02*
X39865000Y-12690000D01*
X39825000Y-12650000D02*
X39905000Y-12650000D01*
X39865000Y-13010000D02*
X39865000Y-13090000D01*
X39825000Y-13050000D02*
X39905000Y-13050000D01*
X39865000Y-13410000D02*
X39865000Y-13490000D01*
X39825000Y-13450000D02*
X39905000Y-13450000D01*
X40373000Y-11410000D02*
X40373000Y-11490000D01*
X40333000Y-11450000D02*
X40413000Y-11450000D01*
X40373000Y-11810000D02*
X40373000Y-11890000D01*
X40333000Y-11850000D02*
X40413000Y-11850000D01*
X40373000Y-12210000D02*
X40373000Y-12290000D01*
X40333000Y-12250000D02*
X40413000Y-12250000D01*
X40373000Y-12610000D02*
X40373000Y-12690000D01*
X40333000Y-12650000D02*
X40413000Y-12650000D01*
X40373000Y-13010000D02*
X40373000Y-13090000D01*
X40333000Y-13050000D02*
X40413000Y-13050000D01*
X40373000Y-13410000D02*
X40373000Y-13490000D01*
X40333000Y-13450000D02*
X40413000Y-13450000D01*
X41110000Y-13410000D02*
X41110000Y-13490000D01*
X41070000Y-13450000D02*
X41150000Y-13450000D01*
X41115000Y-12210000D02*
X41115000Y-12290000D01*
X41075000Y-12250000D02*
X41155000Y-12250000D01*
X41115000Y-12610000D02*
X41115000Y-12690000D01*
X41075000Y-12650000D02*
X41155000Y-12650000D01*
X41115000Y-13010000D02*
X41115000Y-13090000D01*
X41075000Y-13050000D02*
X41155000Y-13050000D01*
X41618000Y-13410000D02*
X41618000Y-13490000D01*
X41578000Y-13450000D02*
X41658000Y-13450000D01*
X41623000Y-12210000D02*
X41623000Y-12290000D01*
X41583000Y-12250000D02*
X41663000Y-12250000D01*
X41623000Y-12610000D02*
X41623000Y-12690000D01*
X41583000Y-12650000D02*
X41663000Y-12650000D01*
X41623000Y-13010000D02*
X41623000Y-13090000D01*
X41583000Y-13050000D02*
X41663000Y-13050000D01*
X42365000Y-11410000D02*
X42365000Y-11490000D01*
X42325000Y-11450000D02*
X42405000Y-11450000D01*
X42365000Y-11810000D02*
X42365000Y-11890000D01*
X42325000Y-11850000D02*
X42405000Y-11850000D01*
X42365000Y-12210000D02*
X42365000Y-12290000D01*
X42325000Y-12250000D02*
X42405000Y-12250000D01*
X42365000Y-12610000D02*
X42365000Y-12690000D01*
X42325000Y-12650000D02*
X42405000Y-12650000D01*
X42365000Y-13410000D02*
X42365000Y-13490000D01*
X42325000Y-13450000D02*
X42405000Y-13450000D01*
X42873000Y-11410000D02*
X42873000Y-11490000D01*
X42833000Y-11450000D02*
X42913000Y-11450000D01*
X42873000Y-11810000D02*
X42873000Y-11890000D01*
X42833000Y-11850000D02*
X42913000Y-11850000D01*
X42873000Y-12210000D02*
X42873000Y-12290000D01*
X42833000Y-12250000D02*
X42913000Y-12250000D01*
X42873000Y-12610000D02*
X42873000Y-12690000D01*
X42833000Y-12650000D02*
X42913000Y-12650000D01*
X42873000Y-13410000D02*
X42873000Y-13490000D01*
X42833000Y-13450000D02*
X42913000Y-13450000D01*
X43615000Y-11410000D02*
X43615000Y-11490000D01*
X43575000Y-11450000D02*
X43655000Y-11450000D01*
X43615000Y-12210000D02*
X43615000Y-12290000D01*
X43575000Y-12250000D02*
X43655000Y-12250000D01*
X43615000Y-12610000D02*
X43615000Y-12690000D01*
X43575000Y-12650000D02*
X43655000Y-12650000D01*
X43615000Y-13010000D02*
X43615000Y-13090000D01*
X43575000Y-13050000D02*
X43655000Y-13050000D01*
X43615000Y-13410000D02*
X43615000Y-13490000D01*
X43575000Y-13450000D02*
X43655000Y-13450000D01*
X44123000Y-11410000D02*
X44123000Y-11490000D01*
X44083000Y-11450000D02*
X44163000Y-11450000D01*
X44123000Y-12210000D02*
X44123000Y-12290000D01*
X44083000Y-12250000D02*
X44163000Y-12250000D01*
X44123000Y-12610000D02*
X44123000Y-12690000D01*
X44083000Y-12650000D02*
X44163000Y-12650000D01*
X44123000Y-13010000D02*
X44123000Y-13090000D01*
X44083000Y-13050000D02*
X44163000Y-13050000D01*
X44123000Y-13410000D02*
X44123000Y-13490000D01*
X44083000Y-13450000D02*
X44163000Y-13450000D01*
X44865000Y-11410000D02*
X44865000Y-11490000D01*
X44825000Y-11450000D02*
X44905000Y-11450000D01*
X44865000Y-12610000D02*
X44865000Y-12690000D01*
X44825000Y-12650000D02*
X44905000Y-12650000D01*
X44865000Y-13010000D02*
X44865000Y-13090000D01*
X44825000Y-13050000D02*
X44905000Y-13050000D01*
X44865000Y-13410000D02*
X44865000Y-13490000D01*
X44825000Y-13450000D02*
X44905000Y-13450000D01*
X45373000Y-11410000D02*
X45373000Y-11490000D01*
X45333000Y-11450000D02*
X45413000Y-11450000D01*
X45373000Y-12610000D02*
X45373000Y-12690000D01*
X45333000Y-12650000D02*
X45413000Y-12650000D01*
X45373000Y-13010000D02*
X45373000Y-13090000D01*
X45333000Y-13050000D02*
X45413000Y-13050000D01*
X45373000Y-13410000D02*
X45373000Y-13490000D01*
X45333000Y-13450000D02*
X45413000Y-13450000D01*
X46115000Y-11410000D02*
X46115000Y-11490000D01*
X46075000Y-11450000D02*
X46155000Y-11450000D01*
X46115000Y-11810000D02*
X46115000Y-11890000D01*
X46075000Y-11850000D02*
X46155000Y-11850000D01*
X46115000Y-12610000D02*
X46115000Y-12690000D01*
X46075000Y-12650000D02*
X46155000Y-12650000D01*
X46115000Y-13010000D02*
X46115000Y-13090000D01*
X46075000Y-13050000D02*
X46155000Y-13050000D01*
X46115000Y-13410000D02*
X46115000Y-13490000D01*
X46075000Y-13450000D02*
X46155000Y-13450000D01*
X46623000Y-11410000D02*
X46623000Y-11490000D01*
X46583000Y-11450000D02*
X46663000Y-11450000D01*
X46623000Y-11810000D02*
X46623000Y-11890000D01*
X46583000Y-11850000D02*
X46663000Y-11850000D01*
X46623000Y-12610000D02*
X46623000Y-12690000D01*
X46583000Y-12650000D02*
X46663000Y-12650000D01*
X46623000Y-13010000D02*
X46623000Y-13090000D01*
X46583000Y-13050000D02*
X46663000Y-13050000D01*
X46623000Y-13410000D02*
X46623000Y-13490000D01*
X46583000Y-13450000D02*
X46663000Y-13450000D01*
X47365000Y-11410000D02*
X47365000Y-11490000D01*
X47325000Y-11450000D02*
X47405000Y-11450000D01*
X47365000Y-12610000D02*
X47365000Y-12690000D01*
X47325000Y-12650000D02*
X47405000Y-12650000D01*
X47365000Y-13010000D02*
X47365000Y-13090000D01*
X47325000Y-13050000D02*
X47405000Y-13050000D01*
X47365000Y-13410000D02*
X47365000Y-13490000D01*
X47325000Y-13450000D02*
X47405000Y-13450000D01*
X47873000Y-11410000D02*
X47873000Y-11490000D01*
X47833000Y-11450000D02*
X47913000Y-11450000D01*
X47873000Y-12610000D02*
X47873000Y-12690000D01*
X47833000Y-12650000D02*
X47913000Y-12650000D01*
X47873000Y-13010000D02*
X47873000Y-13090000D01*
X47833000Y-13050000D02*
X47913000Y-13050000D01*
X47873000Y-13410000D02*
X47873000Y-13490000D01*
X47833000Y-13450000D02*
X47913000Y-13450000D01*
X27840356Y-10850356D02*
X27840356Y-10779644D01*
X27769644Y-10779644D01*
X27769644Y-10850356D01*
X27840356Y-10850356D01*
X27840356Y-11300356D02*
X27840356Y-11229644D01*
X27769644Y-11229644D01*
X27769644Y-11300356D01*
X27840356Y-11300356D01*
X28490356Y-10850356D02*
X28490356Y-10779644D01*
X28419644Y-10779644D01*
X28419644Y-10850356D01*
X28490356Y-10850356D01*
X28490356Y-11300356D02*
X28490356Y-11229644D01*
X28419644Y-11229644D01*
X28419644Y-11300356D01*
X28490356Y-11300356D01*
X41225356Y-10803356D02*
X41225356Y-10732644D01*
X41154644Y-10732644D01*
X41154644Y-10803356D01*
X41225356Y-10803356D01*
X41225356Y-11057356D02*
X41225356Y-10986644D01*
X41154644Y-10986644D01*
X41154644Y-11057356D01*
X41225356Y-11057356D01*
X41225356Y-11311356D02*
X41225356Y-11240644D01*
X41154644Y-11240644D01*
X41154644Y-11311356D01*
X41225356Y-11311356D01*
X41225356Y-11565356D02*
X41225356Y-11494644D01*
X41154644Y-11494644D01*
X41154644Y-11565356D01*
X41225356Y-11565356D01*
X34072000Y-11207000D02*
X34123000Y-11156000D01*
X34072000Y-11105000D01*
X34021000Y-11156000D01*
X34072000Y-11207000D01*
X34072000Y-12985000D02*
X34123000Y-12934000D01*
X34072000Y-12883000D01*
X34021000Y-12934000D01*
X34072000Y-12985000D01*
X34326000Y-11207000D02*
X34377000Y-11156000D01*
X34326000Y-11105000D01*
X34275000Y-11156000D01*
X34326000Y-11207000D01*
X34326000Y-12985000D02*
X34377000Y-12934000D01*
X34326000Y-12883000D01*
X34275000Y-12934000D01*
X34326000Y-12985000D01*
X34580000Y-11207000D02*
X34631000Y-11156000D01*
X34580000Y-11105000D01*
X34529000Y-11156000D01*
X34580000Y-11207000D01*
X34580000Y-12985000D02*
X34631000Y-12934000D01*
X34580000Y-12883000D01*
X34529000Y-12934000D01*
X34580000Y-12985000D01*
X34834000Y-11207000D02*
X34885000Y-11156000D01*
X34834000Y-11105000D01*
X34783000Y-11156000D01*
X34834000Y-11207000D01*
X34834000Y-12985000D02*
X34885000Y-12934000D01*
X34834000Y-12883000D01*
X34783000Y-12934000D01*
X34834000Y-12985000D01*
X35088000Y-11207000D02*
X35139000Y-11156000D01*
X35088000Y-11105000D01*
X35037000Y-11156000D01*
X35088000Y-11207000D01*
X35088000Y-12985000D02*
X35139000Y-12934000D01*
X35088000Y-12883000D01*
X35037000Y-12934000D01*
X35088000Y-12985000D01*
X35342000Y-11207000D02*
X35393000Y-11156000D01*
X35342000Y-11105000D01*
X35291000Y-11156000D01*
X35342000Y-11207000D01*
X35342000Y-12985000D02*
X35393000Y-12934000D01*
X35342000Y-12883000D01*
X35291000Y-12934000D01*
X35342000Y-12985000D01*
X35596000Y-11207000D02*
X35647000Y-11156000D01*
X35596000Y-11105000D01*
X35545000Y-11156000D01*
X35596000Y-11207000D01*
X35596000Y-12985000D02*
X35647000Y-12934000D01*
X35596000Y-12883000D01*
X35545000Y-12934000D01*
X35596000Y-12985000D01*
X35850000Y-11207000D02*
X35901000Y-11156000D01*
X35850000Y-11105000D01*
X35799000Y-11156000D01*
X35850000Y-11207000D01*
X35850000Y-12985000D02*
X35901000Y-12934000D01*
X35850000Y-12883000D01*
X35799000Y-12934000D01*
X35850000Y-12985000D01*
X36104000Y-11207000D02*
X36155000Y-11156000D01*
X36104000Y-11105000D01*
X36053000Y-11156000D01*
X36104000Y-11207000D01*
X36104000Y-12985000D02*
X36155000Y-12934000D01*
X36104000Y-12883000D01*
X36053000Y-12934000D01*
X36104000Y-12985000D01*
X36358000Y-11207000D02*
X36409000Y-11156000D01*
X36358000Y-11105000D01*
X36307000Y-11156000D01*
X36358000Y-11207000D01*
X36358000Y-12985000D02*
X36409000Y-12934000D01*
X36358000Y-12883000D01*
X36307000Y-12934000D01*
X36358000Y-12985000D01*
X36612000Y-11207000D02*
X36663000Y-11156000D01*
X36612000Y-11105000D01*
X36561000Y-11156000D01*
X36612000Y-11207000D01*
X36612000Y-12985000D02*
X36663000Y-12934000D01*
X36612000Y-12883000D01*
X36561000Y-12934000D01*
X36612000Y-12985000D01*
X36866000Y-11207000D02*
X36917000Y-11156000D01*
X36866000Y-11105000D01*
X36815000Y-11156000D01*
X36866000Y-11207000D01*
X36866000Y-12985000D02*
X36917000Y-12934000D01*
X36866000Y-12883000D01*
X36815000Y-12934000D01*
X36866000Y-12985000D01*
X37120000Y-11207000D02*
X37171000Y-11156000D01*
X37120000Y-11105000D01*
X37069000Y-11156000D01*
X37120000Y-11207000D01*
X37120000Y-12985000D02*
X37171000Y-12934000D01*
X37120000Y-12883000D01*
X37069000Y-12934000D01*
X37120000Y-12985000D01*
X37374000Y-11207000D02*
X37425000Y-11156000D01*
X37374000Y-11105000D01*
X37323000Y-11156000D01*
X37374000Y-11207000D01*
X37374000Y-12985000D02*
X37425000Y-12934000D01*
X37374000Y-12883000D01*
X37323000Y-12934000D01*
X37374000Y-12985000D01*
X37628000Y-11207000D02*
X37679000Y-11156000D01*
X37628000Y-11105000D01*
X37577000Y-11156000D01*
X37628000Y-11207000D01*
X37628000Y-12985000D02*
X37679000Y-12934000D01*
X37628000Y-12883000D01*
X37577000Y-12934000D01*
X37628000Y-12985000D01*
X37882000Y-11207000D02*
X37933000Y-11156000D01*
X37882000Y-11105000D01*
X37831000Y-11156000D01*
X37882000Y-11207000D01*
X37882000Y-12985000D02*
X37933000Y-12934000D01*
X37882000Y-12883000D01*
X37831000Y-12934000D01*
X37882000Y-12985000D01*
X38136000Y-11207000D02*
X38187000Y-11156000D01*
X38136000Y-11105000D01*
X38085000Y-11156000D01*
X38136000Y-11207000D01*
X38136000Y-12985000D02*
X38187000Y-12934000D01*
X38136000Y-12883000D01*
X38085000Y-12934000D01*
X38136000Y-12985000D01*
X38390000Y-11207000D02*
X38441000Y-11156000D01*
X38390000Y-11105000D01*
X38339000Y-11156000D01*
X38390000Y-11207000D01*
X38390000Y-12985000D02*
X38441000Y-12934000D01*
X38390000Y-12883000D01*
X38339000Y-12934000D01*
X38390000Y-12985000D01*
X38644000Y-11207000D02*
X38695000Y-11156000D01*
X38644000Y-11105000D01*
X38593000Y-11156000D01*
X38644000Y-11207000D01*
X38644000Y-12985000D02*
X38695000Y-12934000D01*
X38644000Y-12883000D01*
X38593000Y-12934000D01*
X38644000Y-12985000D01*
X38875000Y-11842000D02*
X38926000Y-11791000D01*
X38875000Y-11740000D01*
X38824000Y-11791000D01*
X38875000Y-11842000D01*
X38875000Y-12096000D02*
X38926000Y-12045000D01*
X38875000Y-11994000D01*
X38824000Y-12045000D01*
X38875000Y-12096000D01*
X38875000Y-12350000D02*
X38926000Y-12299000D01*
X38875000Y-12248000D01*
X38824000Y-12299000D01*
X38875000Y-12350000D01*
X38898000Y-11207000D02*
X38949000Y-11156000D01*
X38898000Y-11105000D01*
X38847000Y-11156000D01*
X38898000Y-11207000D01*
X38898000Y-12985000D02*
X38949000Y-12934000D01*
X38898000Y-12883000D01*
X38847000Y-12934000D01*
X38898000Y-12985000D01*
X34017500Y-11888400D02*
X34127500Y-11998400D01*
X34127500Y-11888400D02*
X34017500Y-11998400D01*
X34127500Y-11943400D02*
G75*
G03*
X34127500Y-11943400I-55000J0D01*
G01*
X34017500Y-12091600D02*
X34127500Y-12201600D01*
X34127500Y-12091600D02*
X34017500Y-12201600D01*
X34127500Y-12146600D02*
G75*
G03*
X34127500Y-12146600I-55000J0D01*
G01*
X13998000Y-14425000D02*
X14145000Y-14572000D01*
X14145000Y-14425000D02*
X13998000Y-14572000D01*
X14071500Y-14425000D02*
X14071500Y-14572000D01*
X13998000Y-14498500D02*
X14145000Y-14498500D01*
X13998000Y-17282500D02*
X14145000Y-17429500D01*
X14145000Y-17282500D02*
X13998000Y-17429500D01*
X14071500Y-17282500D02*
X14071500Y-17429500D01*
X13998000Y-17356000D02*
X14145000Y-17356000D01*
X14236125Y-22997500D02*
X14383125Y-23144500D01*
X14383125Y-22997500D02*
X14236125Y-23144500D01*
X14309625Y-22997500D02*
X14309625Y-23144500D01*
X14236125Y-23071000D02*
X14383125Y-23071000D01*
X14236125Y-24902500D02*
X14383125Y-25049500D01*
X14383125Y-24902500D02*
X14236125Y-25049500D01*
X14309625Y-24902500D02*
X14309625Y-25049500D01*
X14236125Y-24976000D02*
X14383125Y-24976000D01*
X14474250Y-19187500D02*
X14621250Y-19334500D01*
X14621250Y-19187500D02*
X14474250Y-19334500D01*
X14547750Y-19187500D02*
X14547750Y-19334500D01*
X14474250Y-19261000D02*
X14621250Y-19261000D01*
X14633000Y-14171000D02*
X14780000Y-14318000D01*
X14780000Y-14171000D02*
X14633000Y-14318000D01*
X14706500Y-14171000D02*
X14706500Y-14318000D01*
X14633000Y-14244500D02*
X14780000Y-14244500D01*
X14633000Y-17028500D02*
X14780000Y-17175500D01*
X14780000Y-17028500D02*
X14633000Y-17175500D01*
X14706500Y-17028500D02*
X14706500Y-17175500D01*
X14633000Y-17102000D02*
X14780000Y-17102000D01*
X14712375Y-21092500D02*
X14859375Y-21239500D01*
X14859375Y-21092500D02*
X14712375Y-21239500D01*
X14785875Y-21092500D02*
X14785875Y-21239500D01*
X14712375Y-21166000D02*
X14859375Y-21166000D01*
X14871125Y-22743500D02*
X15018125Y-22890500D01*
X15018125Y-22743500D02*
X14871125Y-22890500D01*
X14944625Y-22743500D02*
X14944625Y-22890500D01*
X14871125Y-22817000D02*
X15018125Y-22817000D01*
X14871125Y-24648500D02*
X15018125Y-24795500D01*
X15018125Y-24648500D02*
X14871125Y-24795500D01*
X14944625Y-24648500D02*
X14944625Y-24795500D01*
X14871125Y-24722000D02*
X15018125Y-24722000D01*
X15109250Y-18933500D02*
X15256250Y-19080500D01*
X15256250Y-18933500D02*
X15109250Y-19080500D01*
X15182750Y-18933500D02*
X15182750Y-19080500D01*
X15109250Y-19007000D02*
X15256250Y-19007000D01*
X15190500Y-22997500D02*
X15337500Y-23144500D01*
X15337500Y-22997500D02*
X15190500Y-23144500D01*
X15264000Y-22997500D02*
X15264000Y-23144500D01*
X15190500Y-23071000D02*
X15337500Y-23071000D01*
X15347375Y-20838500D02*
X15494375Y-20985500D01*
X15494375Y-20838500D02*
X15347375Y-20985500D01*
X15420875Y-20838500D02*
X15420875Y-20985500D01*
X15347375Y-20912000D02*
X15494375Y-20912000D01*
X15825500Y-22743500D02*
X15972500Y-22890500D01*
X15972500Y-22743500D02*
X15825500Y-22890500D01*
X15899000Y-22743500D02*
X15899000Y-22890500D01*
X15825500Y-22817000D02*
X15972500Y-22817000D01*
X15903000Y-17282500D02*
X16050000Y-17429500D01*
X16050000Y-17282500D02*
X15903000Y-17429500D01*
X15976500Y-17282500D02*
X15976500Y-17429500D01*
X15903000Y-17356000D02*
X16050000Y-17356000D01*
X16379250Y-22997500D02*
X16526250Y-23144500D01*
X16526250Y-22997500D02*
X16379250Y-23144500D01*
X16452750Y-22997500D02*
X16452750Y-23144500D01*
X16379250Y-23071000D02*
X16526250Y-23071000D01*
X16538000Y-17028500D02*
X16685000Y-17175500D01*
X16685000Y-17028500D02*
X16538000Y-17175500D01*
X16611500Y-17028500D02*
X16611500Y-17175500D01*
X16538000Y-17102000D02*
X16685000Y-17102000D01*
X16617375Y-24902500D02*
X16764375Y-25049500D01*
X16764375Y-24902500D02*
X16617375Y-25049500D01*
X16690875Y-24902500D02*
X16690875Y-25049500D01*
X16617375Y-24976000D02*
X16764375Y-24976000D01*
X16855500Y-19187500D02*
X17002500Y-19334500D01*
X17002500Y-19187500D02*
X16855500Y-19334500D01*
X16929000Y-19187500D02*
X16929000Y-19334500D01*
X16855500Y-19261000D02*
X17002500Y-19261000D01*
X17014250Y-22743500D02*
X17161250Y-22890500D01*
X17161250Y-22743500D02*
X17014250Y-22890500D01*
X17087750Y-22743500D02*
X17087750Y-22890500D01*
X17014250Y-22817000D02*
X17161250Y-22817000D01*
X17252375Y-24648500D02*
X17399375Y-24795500D01*
X17399375Y-24648500D02*
X17252375Y-24795500D01*
X17325875Y-24648500D02*
X17325875Y-24795500D01*
X17252375Y-24722000D02*
X17399375Y-24722000D01*
X17331750Y-21092500D02*
X17478750Y-21239500D01*
X17478750Y-21092500D02*
X17331750Y-21239500D01*
X17405250Y-21092500D02*
X17405250Y-21239500D01*
X17331750Y-21166000D02*
X17478750Y-21166000D01*
X17490500Y-18933500D02*
X17637500Y-19080500D01*
X17637500Y-18933500D02*
X17490500Y-19080500D01*
X17564000Y-18933500D02*
X17564000Y-19080500D01*
X17490500Y-19007000D02*
X17637500Y-19007000D01*
X17808000Y-14425000D02*
X17955000Y-14572000D01*
X17955000Y-14425000D02*
X17808000Y-14572000D01*
X17881500Y-14425000D02*
X17881500Y-14572000D01*
X17808000Y-14498500D02*
X17955000Y-14498500D01*
X17808000Y-17282500D02*
X17955000Y-17429500D01*
X17955000Y-17282500D02*
X17808000Y-17429500D01*
X17881500Y-17282500D02*
X17881500Y-17429500D01*
X17808000Y-17356000D02*
X17955000Y-17356000D01*
X17966750Y-20838500D02*
X18113750Y-20985500D01*
X18113750Y-20838500D02*
X17966750Y-20985500D01*
X18040250Y-20838500D02*
X18040250Y-20985500D01*
X17966750Y-20912000D02*
X18113750Y-20912000D01*
X18284250Y-22997500D02*
X18431250Y-23144500D01*
X18431250Y-22997500D02*
X18284250Y-23144500D01*
X18357750Y-22997500D02*
X18357750Y-23144500D01*
X18284250Y-23071000D02*
X18431250Y-23071000D01*
X18443000Y-14171000D02*
X18590000Y-14318000D01*
X18590000Y-14171000D02*
X18443000Y-14318000D01*
X18516500Y-14171000D02*
X18516500Y-14318000D01*
X18443000Y-14244500D02*
X18590000Y-14244500D01*
X18443000Y-17028500D02*
X18590000Y-17175500D01*
X18590000Y-17028500D02*
X18443000Y-17175500D01*
X18516500Y-17028500D02*
X18516500Y-17175500D01*
X18443000Y-17102000D02*
X18590000Y-17102000D01*
X18760500Y-19187500D02*
X18907500Y-19334500D01*
X18907500Y-19187500D02*
X18760500Y-19334500D01*
X18834000Y-19187500D02*
X18834000Y-19334500D01*
X18760500Y-19261000D02*
X18907500Y-19261000D01*
X18919250Y-22743500D02*
X19066250Y-22890500D01*
X19066250Y-22743500D02*
X18919250Y-22890500D01*
X18992750Y-22743500D02*
X18992750Y-22890500D01*
X18919250Y-22817000D02*
X19066250Y-22817000D01*
X18998625Y-24902500D02*
X19145625Y-25049500D01*
X19145625Y-24902500D02*
X18998625Y-25049500D01*
X19072125Y-24902500D02*
X19072125Y-25049500D01*
X18998625Y-24976000D02*
X19145625Y-24976000D01*
X19236750Y-21092500D02*
X19383750Y-21239500D01*
X19383750Y-21092500D02*
X19236750Y-21239500D01*
X19310250Y-21092500D02*
X19310250Y-21239500D01*
X19236750Y-21166000D02*
X19383750Y-21166000D01*
X19395500Y-18933500D02*
X19542500Y-19080500D01*
X19542500Y-18933500D02*
X19395500Y-19080500D01*
X19469000Y-18933500D02*
X19469000Y-19080500D01*
X19395500Y-19007000D02*
X19542500Y-19007000D01*
X19633625Y-24648500D02*
X19780625Y-24795500D01*
X19780625Y-24648500D02*
X19633625Y-24795500D01*
X19707125Y-24648500D02*
X19707125Y-24795500D01*
X19633625Y-24722000D02*
X19780625Y-24722000D01*
X19713000Y-14425000D02*
X19860000Y-14572000D01*
X19860000Y-14425000D02*
X19713000Y-14572000D01*
X19786500Y-14425000D02*
X19786500Y-14572000D01*
X19713000Y-14498500D02*
X19860000Y-14498500D01*
X19713000Y-17282500D02*
X19860000Y-17429500D01*
X19860000Y-17282500D02*
X19713000Y-17429500D01*
X19786500Y-17282500D02*
X19786500Y-17429500D01*
X19713000Y-17356000D02*
X19860000Y-17356000D01*
X19871750Y-20838500D02*
X20018750Y-20985500D01*
X20018750Y-20838500D02*
X19871750Y-20985500D01*
X19945250Y-20838500D02*
X19945250Y-20985500D01*
X19871750Y-20912000D02*
X20018750Y-20912000D01*
X20189250Y-22997500D02*
X20336250Y-23144500D01*
X20336250Y-22997500D02*
X20189250Y-23144500D01*
X20262750Y-22997500D02*
X20262750Y-23144500D01*
X20189250Y-23071000D02*
X20336250Y-23071000D01*
X20348000Y-14171000D02*
X20495000Y-14318000D01*
X20495000Y-14171000D02*
X20348000Y-14318000D01*
X20421500Y-14171000D02*
X20421500Y-14318000D01*
X20348000Y-14244500D02*
X20495000Y-14244500D01*
X20348000Y-17028500D02*
X20495000Y-17175500D01*
X20495000Y-17028500D02*
X20348000Y-17175500D01*
X20421500Y-17028500D02*
X20421500Y-17175500D01*
X20348000Y-17102000D02*
X20495000Y-17102000D01*
X20665500Y-19187500D02*
X20812500Y-19334500D01*
X20812500Y-19187500D02*
X20665500Y-19334500D01*
X20739000Y-19187500D02*
X20739000Y-19334500D01*
X20665500Y-19261000D02*
X20812500Y-19261000D01*
X20824250Y-22743500D02*
X20971250Y-22890500D01*
X20971250Y-22743500D02*
X20824250Y-22890500D01*
X20897750Y-22743500D02*
X20897750Y-22890500D01*
X20824250Y-22817000D02*
X20971250Y-22817000D01*
X21141750Y-21092500D02*
X21288750Y-21239500D01*
X21288750Y-21092500D02*
X21141750Y-21239500D01*
X21215250Y-21092500D02*
X21215250Y-21239500D01*
X21141750Y-21166000D02*
X21288750Y-21166000D01*
X21300500Y-18933500D02*
X21447500Y-19080500D01*
X21447500Y-18933500D02*
X21300500Y-19080500D01*
X21374000Y-18933500D02*
X21374000Y-19080500D01*
X21300500Y-19007000D02*
X21447500Y-19007000D01*
X21618000Y-14425000D02*
X21765000Y-14572000D01*
X21765000Y-14425000D02*
X21618000Y-14572000D01*
X21691500Y-14425000D02*
X21691500Y-14572000D01*
X21618000Y-14498500D02*
X21765000Y-14498500D01*
X21618000Y-17282500D02*
X21765000Y-17429500D01*
X21765000Y-17282500D02*
X21618000Y-17429500D01*
X21691500Y-17282500D02*
X21691500Y-17429500D01*
X21618000Y-17356000D02*
X21765000Y-17356000D01*
X21776750Y-20838500D02*
X21923750Y-20985500D01*
X21923750Y-20838500D02*
X21776750Y-20985500D01*
X21850250Y-20838500D02*
X21850250Y-20985500D01*
X21776750Y-20912000D02*
X21923750Y-20912000D01*
X22094250Y-22997500D02*
X22241250Y-23144500D01*
X22241250Y-22997500D02*
X22094250Y-23144500D01*
X22167750Y-22997500D02*
X22167750Y-23144500D01*
X22094250Y-23071000D02*
X22241250Y-23071000D01*
X22253000Y-14171000D02*
X22400000Y-14318000D01*
X22400000Y-14171000D02*
X22253000Y-14318000D01*
X22326500Y-14171000D02*
X22326500Y-14318000D01*
X22253000Y-14244500D02*
X22400000Y-14244500D01*
X22253000Y-17028500D02*
X22400000Y-17175500D01*
X22400000Y-17028500D02*
X22253000Y-17175500D01*
X22326500Y-17028500D02*
X22326500Y-17175500D01*
X22253000Y-17102000D02*
X22400000Y-17102000D01*
X22570500Y-19187500D02*
X22717500Y-19334500D01*
X22717500Y-19187500D02*
X22570500Y-19334500D01*
X22644000Y-19187500D02*
X22644000Y-19334500D01*
X22570500Y-19261000D02*
X22717500Y-19261000D01*
X22729250Y-22743500D02*
X22876250Y-22890500D01*
X22876250Y-22743500D02*
X22729250Y-22890500D01*
X22802750Y-22743500D02*
X22802750Y-22890500D01*
X22729250Y-22817000D02*
X22876250Y-22817000D01*
X23046750Y-21092500D02*
X23193750Y-21239500D01*
X23193750Y-21092500D02*
X23046750Y-21239500D01*
X23120250Y-21092500D02*
X23120250Y-21239500D01*
X23046750Y-21166000D02*
X23193750Y-21166000D01*
X23205500Y-18933500D02*
X23352500Y-19080500D01*
X23352500Y-18933500D02*
X23205500Y-19080500D01*
X23279000Y-18933500D02*
X23279000Y-19080500D01*
X23205500Y-19007000D02*
X23352500Y-19007000D01*
X23523000Y-14425000D02*
X23670000Y-14572000D01*
X23670000Y-14425000D02*
X23523000Y-14572000D01*
X23596500Y-14425000D02*
X23596500Y-14572000D01*
X23523000Y-14498500D02*
X23670000Y-14498500D01*
X23523000Y-17282500D02*
X23670000Y-17429500D01*
X23670000Y-17282500D02*
X23523000Y-17429500D01*
X23596500Y-17282500D02*
X23596500Y-17429500D01*
X23523000Y-17356000D02*
X23670000Y-17356000D01*
X23681750Y-20838500D02*
X23828750Y-20985500D01*
X23828750Y-20838500D02*
X23681750Y-20985500D01*
X23755250Y-20838500D02*
X23755250Y-20985500D01*
X23681750Y-20912000D02*
X23828750Y-20912000D01*
X23999250Y-22997500D02*
X24146250Y-23144500D01*
X24146250Y-22997500D02*
X23999250Y-23144500D01*
X24072750Y-22997500D02*
X24072750Y-23144500D01*
X23999250Y-23071000D02*
X24146250Y-23071000D01*
X24158000Y-14171000D02*
X24305000Y-14318000D01*
X24305000Y-14171000D02*
X24158000Y-14318000D01*
X24231500Y-14171000D02*
X24231500Y-14318000D01*
X24158000Y-14244500D02*
X24305000Y-14244500D01*
X24158000Y-17028500D02*
X24305000Y-17175500D01*
X24305000Y-17028500D02*
X24158000Y-17175500D01*
X24231500Y-17028500D02*
X24231500Y-17175500D01*
X24158000Y-17102000D02*
X24305000Y-17102000D01*
X24475500Y-19187500D02*
X24622500Y-19334500D01*
X24622500Y-19187500D02*
X24475500Y-19334500D01*
X24549000Y-19187500D02*
X24549000Y-19334500D01*
X24475500Y-19261000D02*
X24622500Y-19261000D01*
X24634250Y-22743500D02*
X24781250Y-22890500D01*
X24781250Y-22743500D02*
X24634250Y-22890500D01*
X24707750Y-22743500D02*
X24707750Y-22890500D01*
X24634250Y-22817000D02*
X24781250Y-22817000D01*
X24951750Y-21092500D02*
X25098750Y-21239500D01*
X25098750Y-21092500D02*
X24951750Y-21239500D01*
X25025250Y-21092500D02*
X25025250Y-21239500D01*
X24951750Y-21166000D02*
X25098750Y-21166000D01*
X25110500Y-18933500D02*
X25257500Y-19080500D01*
X25257500Y-18933500D02*
X25110500Y-19080500D01*
X25184000Y-18933500D02*
X25184000Y-19080500D01*
X25110500Y-19007000D02*
X25257500Y-19007000D01*
X25428000Y-17282500D02*
X25575000Y-17429500D01*
X25575000Y-17282500D02*
X25428000Y-17429500D01*
X25501500Y-17282500D02*
X25501500Y-17429500D01*
X25428000Y-17356000D02*
X25575000Y-17356000D01*
X25586750Y-20838500D02*
X25733750Y-20985500D01*
X25733750Y-20838500D02*
X25586750Y-20985500D01*
X25660250Y-20838500D02*
X25660250Y-20985500D01*
X25586750Y-20912000D02*
X25733750Y-20912000D01*
X25904250Y-22997500D02*
X26051250Y-23144500D01*
X26051250Y-22997500D02*
X25904250Y-23144500D01*
X25977750Y-22997500D02*
X25977750Y-23144500D01*
X25904250Y-23071000D02*
X26051250Y-23071000D01*
X26063000Y-17028500D02*
X26210000Y-17175500D01*
X26210000Y-17028500D02*
X26063000Y-17175500D01*
X26136500Y-17028500D02*
X26136500Y-17175500D01*
X26063000Y-17102000D02*
X26210000Y-17102000D01*
X26142375Y-24902500D02*
X26289375Y-25049500D01*
X26289375Y-24902500D02*
X26142375Y-25049500D01*
X26215875Y-24902500D02*
X26215875Y-25049500D01*
X26142375Y-24976000D02*
X26289375Y-24976000D01*
X26380500Y-14425000D02*
X26527500Y-14572000D01*
X26527500Y-14425000D02*
X26380500Y-14572000D01*
X26454000Y-14425000D02*
X26454000Y-14572000D01*
X26380500Y-14498500D02*
X26527500Y-14498500D01*
X26380500Y-19187500D02*
X26527500Y-19334500D01*
X26527500Y-19187500D02*
X26380500Y-19334500D01*
X26454000Y-19187500D02*
X26454000Y-19334500D01*
X26380500Y-19261000D02*
X26527500Y-19261000D01*
X26539250Y-22743500D02*
X26686250Y-22890500D01*
X26686250Y-22743500D02*
X26539250Y-22890500D01*
X26612750Y-22743500D02*
X26612750Y-22890500D01*
X26539250Y-22817000D02*
X26686250Y-22817000D01*
X26777375Y-24648500D02*
X26924375Y-24795500D01*
X26924375Y-24648500D02*
X26777375Y-24795500D01*
X26850875Y-24648500D02*
X26850875Y-24795500D01*
X26777375Y-24722000D02*
X26924375Y-24722000D01*
X26856750Y-21092500D02*
X27003750Y-21239500D01*
X27003750Y-21092500D02*
X26856750Y-21239500D01*
X26930250Y-21092500D02*
X26930250Y-21239500D01*
X26856750Y-21166000D02*
X27003750Y-21166000D01*
X27015500Y-14171000D02*
X27162500Y-14318000D01*
X27162500Y-14171000D02*
X27015500Y-14318000D01*
X27089000Y-14171000D02*
X27089000Y-14318000D01*
X27015500Y-14244500D02*
X27162500Y-14244500D01*
X27015500Y-18933500D02*
X27162500Y-19080500D01*
X27162500Y-18933500D02*
X27015500Y-19080500D01*
X27089000Y-18933500D02*
X27089000Y-19080500D01*
X27015500Y-19007000D02*
X27162500Y-19007000D01*
X27333000Y-17282500D02*
X27480000Y-17429500D01*
X27480000Y-17282500D02*
X27333000Y-17429500D01*
X27406500Y-17282500D02*
X27406500Y-17429500D01*
X27333000Y-17356000D02*
X27480000Y-17356000D01*
X27491750Y-20838500D02*
X27638750Y-20985500D01*
X27638750Y-20838500D02*
X27491750Y-20985500D01*
X27565250Y-20838500D02*
X27565250Y-20985500D01*
X27491750Y-20912000D02*
X27638750Y-20912000D01*
X27809250Y-22997500D02*
X27956250Y-23144500D01*
X27956250Y-22997500D02*
X27809250Y-23144500D01*
X27882750Y-22997500D02*
X27882750Y-23144500D01*
X27809250Y-23071000D02*
X27956250Y-23071000D01*
X27968000Y-17028500D02*
X28115000Y-17175500D01*
X28115000Y-17028500D02*
X27968000Y-17175500D01*
X28041500Y-17028500D02*
X28041500Y-17175500D01*
X27968000Y-17102000D02*
X28115000Y-17102000D01*
X28285500Y-14425000D02*
X28432500Y-14572000D01*
X28432500Y-14425000D02*
X28285500Y-14572000D01*
X28359000Y-14425000D02*
X28359000Y-14572000D01*
X28285500Y-14498500D02*
X28432500Y-14498500D01*
X28285500Y-19187500D02*
X28432500Y-19334500D01*
X28432500Y-19187500D02*
X28285500Y-19334500D01*
X28359000Y-19187500D02*
X28359000Y-19334500D01*
X28285500Y-19261000D02*
X28432500Y-19261000D01*
X28444250Y-22743500D02*
X28591250Y-22890500D01*
X28591250Y-22743500D02*
X28444250Y-22890500D01*
X28517750Y-22743500D02*
X28517750Y-22890500D01*
X28444250Y-22817000D02*
X28591250Y-22817000D01*
X28761750Y-21092500D02*
X28908750Y-21239500D01*
X28908750Y-21092500D02*
X28761750Y-21239500D01*
X28835250Y-21092500D02*
X28835250Y-21239500D01*
X28761750Y-21166000D02*
X28908750Y-21166000D01*
X28920500Y-14171000D02*
X29067500Y-14318000D01*
X29067500Y-14171000D02*
X28920500Y-14318000D01*
X28994000Y-14171000D02*
X28994000Y-14318000D01*
X28920500Y-14244500D02*
X29067500Y-14244500D01*
X28920500Y-18933500D02*
X29067500Y-19080500D01*
X29067500Y-18933500D02*
X28920500Y-19080500D01*
X28994000Y-18933500D02*
X28994000Y-19080500D01*
X28920500Y-19007000D02*
X29067500Y-19007000D01*
X29238000Y-17282500D02*
X29385000Y-17429500D01*
X29385000Y-17282500D02*
X29238000Y-17429500D01*
X29311500Y-17282500D02*
X29311500Y-17429500D01*
X29238000Y-17356000D02*
X29385000Y-17356000D01*
X29396750Y-20838500D02*
X29543750Y-20985500D01*
X29543750Y-20838500D02*
X29396750Y-20985500D01*
X29470250Y-20838500D02*
X29470250Y-20985500D01*
X29396750Y-20912000D02*
X29543750Y-20912000D01*
X29714250Y-22997500D02*
X29861250Y-23144500D01*
X29861250Y-22997500D02*
X29714250Y-23144500D01*
X29787750Y-22997500D02*
X29787750Y-23144500D01*
X29714250Y-23071000D02*
X29861250Y-23071000D01*
X29873000Y-17028500D02*
X30020000Y-17175500D01*
X30020000Y-17028500D02*
X29873000Y-17175500D01*
X29946500Y-17028500D02*
X29946500Y-17175500D01*
X29873000Y-17102000D02*
X30020000Y-17102000D01*
X30190500Y-14425000D02*
X30337500Y-14572000D01*
X30337500Y-14425000D02*
X30190500Y-14572000D01*
X30264000Y-14425000D02*
X30264000Y-14572000D01*
X30190500Y-14498500D02*
X30337500Y-14498500D01*
X30190500Y-19187500D02*
X30337500Y-19334500D01*
X30337500Y-19187500D02*
X30190500Y-19334500D01*
X30264000Y-19187500D02*
X30264000Y-19334500D01*
X30190500Y-19261000D02*
X30337500Y-19261000D01*
X30349250Y-22743500D02*
X30496250Y-22890500D01*
X30496250Y-22743500D02*
X30349250Y-22890500D01*
X30422750Y-22743500D02*
X30422750Y-22890500D01*
X30349250Y-22817000D02*
X30496250Y-22817000D01*
X30666750Y-21092500D02*
X30813750Y-21239500D01*
X30813750Y-21092500D02*
X30666750Y-21239500D01*
X30740250Y-21092500D02*
X30740250Y-21239500D01*
X30666750Y-21166000D02*
X30813750Y-21166000D01*
X30825500Y-14171000D02*
X30972500Y-14318000D01*
X30972500Y-14171000D02*
X30825500Y-14318000D01*
X30899000Y-14171000D02*
X30899000Y-14318000D01*
X30825500Y-14244500D02*
X30972500Y-14244500D01*
X30825500Y-18933500D02*
X30972500Y-19080500D01*
X30972500Y-18933500D02*
X30825500Y-19080500D01*
X30899000Y-18933500D02*
X30899000Y-19080500D01*
X30825500Y-19007000D02*
X30972500Y-19007000D01*
X31143000Y-17282500D02*
X31290000Y-17429500D01*
X31290000Y-17282500D02*
X31143000Y-17429500D01*
X31216500Y-17282500D02*
X31216500Y-17429500D01*
X31143000Y-17356000D02*
X31290000Y-17356000D01*
X31301750Y-20838500D02*
X31448750Y-20985500D01*
X31448750Y-20838500D02*
X31301750Y-20985500D01*
X31375250Y-20838500D02*
X31375250Y-20985500D01*
X31301750Y-20912000D02*
X31448750Y-20912000D01*
X31619250Y-22997500D02*
X31766250Y-23144500D01*
X31766250Y-22997500D02*
X31619250Y-23144500D01*
X31692750Y-22997500D02*
X31692750Y-23144500D01*
X31619250Y-23071000D02*
X31766250Y-23071000D01*
X31778000Y-17028500D02*
X31925000Y-17175500D01*
X31925000Y-17028500D02*
X31778000Y-17175500D01*
X31851500Y-17028500D02*
X31851500Y-17175500D01*
X31778000Y-17102000D02*
X31925000Y-17102000D01*
X32095500Y-14425000D02*
X32242500Y-14572000D01*
X32242500Y-14425000D02*
X32095500Y-14572000D01*
X32169000Y-14425000D02*
X32169000Y-14572000D01*
X32095500Y-14498500D02*
X32242500Y-14498500D01*
X32095500Y-19187500D02*
X32242500Y-19334500D01*
X32242500Y-19187500D02*
X32095500Y-19334500D01*
X32169000Y-19187500D02*
X32169000Y-19334500D01*
X32095500Y-19261000D02*
X32242500Y-19261000D01*
X32254250Y-22743500D02*
X32401250Y-22890500D01*
X32401250Y-22743500D02*
X32254250Y-22890500D01*
X32327750Y-22743500D02*
X32327750Y-22890500D01*
X32254250Y-22817000D02*
X32401250Y-22817000D01*
X32571750Y-21092500D02*
X32718750Y-21239500D01*
X32718750Y-21092500D02*
X32571750Y-21239500D01*
X32645250Y-21092500D02*
X32645250Y-21239500D01*
X32571750Y-21166000D02*
X32718750Y-21166000D01*
X32730500Y-14171000D02*
X32877500Y-14318000D01*
X32877500Y-14171000D02*
X32730500Y-14318000D01*
X32804000Y-14171000D02*
X32804000Y-14318000D01*
X32730500Y-14244500D02*
X32877500Y-14244500D01*
X32730500Y-18933500D02*
X32877500Y-19080500D01*
X32877500Y-18933500D02*
X32730500Y-19080500D01*
X32804000Y-18933500D02*
X32804000Y-19080500D01*
X32730500Y-19007000D02*
X32877500Y-19007000D01*
X33048000Y-17282500D02*
X33195000Y-17429500D01*
X33195000Y-17282500D02*
X33048000Y-17429500D01*
X33121500Y-17282500D02*
X33121500Y-17429500D01*
X33048000Y-17356000D02*
X33195000Y-17356000D01*
X33206750Y-20838500D02*
X33353750Y-20985500D01*
X33353750Y-20838500D02*
X33206750Y-20985500D01*
X33280250Y-20838500D02*
X33280250Y-20985500D01*
X33206750Y-20912000D02*
X33353750Y-20912000D01*
X33286125Y-24902500D02*
X33433125Y-25049500D01*
X33433125Y-24902500D02*
X33286125Y-25049500D01*
X33359625Y-24902500D02*
X33359625Y-25049500D01*
X33286125Y-24976000D02*
X33433125Y-24976000D01*
X33524250Y-22997500D02*
X33671250Y-23144500D01*
X33671250Y-22997500D02*
X33524250Y-23144500D01*
X33597750Y-22997500D02*
X33597750Y-23144500D01*
X33524250Y-23071000D02*
X33671250Y-23071000D01*
X33683000Y-17028500D02*
X33830000Y-17175500D01*
X33830000Y-17028500D02*
X33683000Y-17175500D01*
X33756500Y-17028500D02*
X33756500Y-17175500D01*
X33683000Y-17102000D02*
X33830000Y-17102000D01*
X33921125Y-24648500D02*
X34068125Y-24795500D01*
X34068125Y-24648500D02*
X33921125Y-24795500D01*
X33994625Y-24648500D02*
X33994625Y-24795500D01*
X33921125Y-24722000D02*
X34068125Y-24722000D01*
X34000500Y-19187500D02*
X34147500Y-19334500D01*
X34147500Y-19187500D02*
X34000500Y-19334500D01*
X34074000Y-19187500D02*
X34074000Y-19334500D01*
X34000500Y-19261000D02*
X34147500Y-19261000D01*
X34159250Y-22743500D02*
X34306250Y-22890500D01*
X34306250Y-22743500D02*
X34159250Y-22890500D01*
X34232750Y-22743500D02*
X34232750Y-22890500D01*
X34159250Y-22817000D02*
X34306250Y-22817000D01*
X34476750Y-21092500D02*
X34623750Y-21239500D01*
X34623750Y-21092500D02*
X34476750Y-21239500D01*
X34550250Y-21092500D02*
X34550250Y-21239500D01*
X34476750Y-21166000D02*
X34623750Y-21166000D01*
X34635500Y-18933500D02*
X34782500Y-19080500D01*
X34782500Y-18933500D02*
X34635500Y-19080500D01*
X34709000Y-18933500D02*
X34709000Y-19080500D01*
X34635500Y-19007000D02*
X34782500Y-19007000D01*
X34953000Y-14425000D02*
X35100000Y-14572000D01*
X35100000Y-14425000D02*
X34953000Y-14572000D01*
X35026500Y-14425000D02*
X35026500Y-14572000D01*
X34953000Y-14498500D02*
X35100000Y-14498500D01*
X34953000Y-17282500D02*
X35100000Y-17429500D01*
X35100000Y-17282500D02*
X34953000Y-17429500D01*
X35026500Y-17282500D02*
X35026500Y-17429500D01*
X34953000Y-17356000D02*
X35100000Y-17356000D01*
X35111750Y-20838500D02*
X35258750Y-20985500D01*
X35258750Y-20838500D02*
X35111750Y-20985500D01*
X35185250Y-20838500D02*
X35185250Y-20985500D01*
X35111750Y-20912000D02*
X35258750Y-20912000D01*
X35429250Y-22997500D02*
X35576250Y-23144500D01*
X35576250Y-22997500D02*
X35429250Y-23144500D01*
X35502750Y-22997500D02*
X35502750Y-23144500D01*
X35429250Y-23071000D02*
X35576250Y-23071000D01*
X35588000Y-14171000D02*
X35735000Y-14318000D01*
X35735000Y-14171000D02*
X35588000Y-14318000D01*
X35661500Y-14171000D02*
X35661500Y-14318000D01*
X35588000Y-14244500D02*
X35735000Y-14244500D01*
X35588000Y-17028500D02*
X35735000Y-17175500D01*
X35735000Y-17028500D02*
X35588000Y-17175500D01*
X35661500Y-17028500D02*
X35661500Y-17175500D01*
X35588000Y-17102000D02*
X35735000Y-17102000D01*
X35667375Y-24902500D02*
X35814375Y-25049500D01*
X35814375Y-24902500D02*
X35667375Y-25049500D01*
X35740875Y-24902500D02*
X35740875Y-25049500D01*
X35667375Y-24976000D02*
X35814375Y-24976000D01*
X35905500Y-19187500D02*
X36052500Y-19334500D01*
X36052500Y-19187500D02*
X35905500Y-19334500D01*
X35979000Y-19187500D02*
X35979000Y-19334500D01*
X35905500Y-19261000D02*
X36052500Y-19261000D01*
X36064250Y-22743500D02*
X36211250Y-22890500D01*
X36211250Y-22743500D02*
X36064250Y-22890500D01*
X36137750Y-22743500D02*
X36137750Y-22890500D01*
X36064250Y-22817000D02*
X36211250Y-22817000D01*
X36302375Y-24648500D02*
X36449375Y-24795500D01*
X36449375Y-24648500D02*
X36302375Y-24795500D01*
X36375875Y-24648500D02*
X36375875Y-24795500D01*
X36302375Y-24722000D02*
X36449375Y-24722000D01*
X36381750Y-21092500D02*
X36528750Y-21239500D01*
X36528750Y-21092500D02*
X36381750Y-21239500D01*
X36455250Y-21092500D02*
X36455250Y-21239500D01*
X36381750Y-21166000D02*
X36528750Y-21166000D01*
X36540500Y-18933500D02*
X36687500Y-19080500D01*
X36687500Y-18933500D02*
X36540500Y-19080500D01*
X36614000Y-18933500D02*
X36614000Y-19080500D01*
X36540500Y-19007000D02*
X36687500Y-19007000D01*
X36858000Y-14425000D02*
X37005000Y-14572000D01*
X37005000Y-14425000D02*
X36858000Y-14572000D01*
X36931500Y-14425000D02*
X36931500Y-14572000D01*
X36858000Y-14498500D02*
X37005000Y-14498500D01*
X36858000Y-17282500D02*
X37005000Y-17429500D01*
X37005000Y-17282500D02*
X36858000Y-17429500D01*
X36931500Y-17282500D02*
X36931500Y-17429500D01*
X36858000Y-17356000D02*
X37005000Y-17356000D01*
X37016750Y-20838500D02*
X37163750Y-20985500D01*
X37163750Y-20838500D02*
X37016750Y-20985500D01*
X37090250Y-20838500D02*
X37090250Y-20985500D01*
X37016750Y-20912000D02*
X37163750Y-20912000D01*
X37493000Y-14171000D02*
X37640000Y-14318000D01*
X37640000Y-14171000D02*
X37493000Y-14318000D01*
X37566500Y-14171000D02*
X37566500Y-14318000D01*
X37493000Y-14244500D02*
X37640000Y-14244500D01*
X37493000Y-17028500D02*
X37640000Y-17175500D01*
X37640000Y-17028500D02*
X37493000Y-17175500D01*
X37566500Y-17028500D02*
X37566500Y-17175500D01*
X37493000Y-17102000D02*
X37640000Y-17102000D01*
X37810500Y-19187500D02*
X37957500Y-19334500D01*
X37957500Y-19187500D02*
X37810500Y-19334500D01*
X37884000Y-19187500D02*
X37884000Y-19334500D01*
X37810500Y-19261000D02*
X37957500Y-19261000D01*
X38048625Y-24902500D02*
X38195625Y-25049500D01*
X38195625Y-24902500D02*
X38048625Y-25049500D01*
X38122125Y-24902500D02*
X38122125Y-25049500D01*
X38048625Y-24976000D02*
X38195625Y-24976000D01*
X38286750Y-21092500D02*
X38433750Y-21239500D01*
X38433750Y-21092500D02*
X38286750Y-21239500D01*
X38360250Y-21092500D02*
X38360250Y-21239500D01*
X38286750Y-21166000D02*
X38433750Y-21166000D01*
X38445500Y-18933500D02*
X38592500Y-19080500D01*
X38592500Y-18933500D02*
X38445500Y-19080500D01*
X38519000Y-18933500D02*
X38519000Y-19080500D01*
X38445500Y-19007000D02*
X38592500Y-19007000D01*
X38683625Y-24648500D02*
X38830625Y-24795500D01*
X38830625Y-24648500D02*
X38683625Y-24795500D01*
X38757125Y-24648500D02*
X38757125Y-24795500D01*
X38683625Y-24722000D02*
X38830625Y-24722000D01*
X38763000Y-14425000D02*
X38910000Y-14572000D01*
X38910000Y-14425000D02*
X38763000Y-14572000D01*
X38836500Y-14425000D02*
X38836500Y-14572000D01*
X38763000Y-14498500D02*
X38910000Y-14498500D01*
X38921750Y-20838500D02*
X39068750Y-20985500D01*
X39068750Y-20838500D02*
X38921750Y-20985500D01*
X38995250Y-20838500D02*
X38995250Y-20985500D01*
X38921750Y-20912000D02*
X39068750Y-20912000D01*
X39001125Y-22997500D02*
X39148125Y-23144500D01*
X39148125Y-22997500D02*
X39001125Y-23144500D01*
X39074625Y-22997500D02*
X39074625Y-23144500D01*
X39001125Y-23071000D02*
X39148125Y-23071000D01*
X39398000Y-14171000D02*
X39545000Y-14318000D01*
X39545000Y-14171000D02*
X39398000Y-14318000D01*
X39471500Y-14171000D02*
X39471500Y-14318000D01*
X39398000Y-14244500D02*
X39545000Y-14244500D01*
X39475500Y-21089500D02*
X39622500Y-21236500D01*
X39622500Y-21089500D02*
X39475500Y-21236500D01*
X39549000Y-21089500D02*
X39549000Y-21236500D01*
X39475500Y-21163000D02*
X39622500Y-21163000D01*
X39636125Y-22743500D02*
X39783125Y-22890500D01*
X39783125Y-22743500D02*
X39636125Y-22890500D01*
X39709625Y-22743500D02*
X39709625Y-22890500D01*
X39636125Y-22817000D02*
X39783125Y-22817000D01*
X39715500Y-17282500D02*
X39862500Y-17429500D01*
X39862500Y-17282500D02*
X39715500Y-17429500D01*
X39789000Y-17282500D02*
X39789000Y-17429500D01*
X39715500Y-17356000D02*
X39862500Y-17356000D01*
X40110500Y-20835500D02*
X40257500Y-20982500D01*
X40257500Y-20835500D02*
X40110500Y-20982500D01*
X40184000Y-20835500D02*
X40184000Y-20982500D01*
X40110500Y-20909000D02*
X40257500Y-20909000D01*
X40190500Y-19185000D02*
X40337500Y-19332000D01*
X40337500Y-19185000D02*
X40190500Y-19332000D01*
X40264000Y-19185000D02*
X40264000Y-19332000D01*
X40190500Y-19258500D02*
X40337500Y-19258500D01*
X40350500Y-17028500D02*
X40497500Y-17175500D01*
X40497500Y-17028500D02*
X40350500Y-17175500D01*
X40424000Y-17028500D02*
X40424000Y-17175500D01*
X40350500Y-17102000D02*
X40497500Y-17102000D01*
X40429875Y-24902500D02*
X40576875Y-25049500D01*
X40576875Y-24902500D02*
X40429875Y-25049500D01*
X40503375Y-24902500D02*
X40503375Y-25049500D01*
X40429875Y-24976000D02*
X40576875Y-24976000D01*
X40668000Y-14425000D02*
X40815000Y-14572000D01*
X40815000Y-14425000D02*
X40668000Y-14572000D01*
X40741500Y-14425000D02*
X40741500Y-14572000D01*
X40668000Y-14498500D02*
X40815000Y-14498500D01*
X40825500Y-18931000D02*
X40972500Y-19078000D01*
X40972500Y-18931000D02*
X40825500Y-19078000D01*
X40899000Y-18931000D02*
X40899000Y-19078000D01*
X40825500Y-19004500D02*
X40972500Y-19004500D01*
X41063000Y-20013000D02*
X41210000Y-20160000D01*
X41210000Y-20013000D02*
X41063000Y-20160000D01*
X41136500Y-20013000D02*
X41136500Y-20160000D01*
X41063000Y-20086500D02*
X41210000Y-20086500D01*
X41064875Y-24648500D02*
X41211875Y-24795500D01*
X41211875Y-24648500D02*
X41064875Y-24795500D01*
X41138375Y-24648500D02*
X41138375Y-24795500D01*
X41064875Y-24722000D02*
X41211875Y-24722000D01*
X41303000Y-14171000D02*
X41450000Y-14318000D01*
X41450000Y-14171000D02*
X41303000Y-14318000D01*
X41376500Y-14171000D02*
X41376500Y-14318000D01*
X41303000Y-14244500D02*
X41450000Y-14244500D01*
X41317000Y-20648000D02*
X41464000Y-20795000D01*
X41464000Y-20648000D02*
X41317000Y-20795000D01*
X41390500Y-20648000D02*
X41390500Y-20795000D01*
X41317000Y-20721500D02*
X41464000Y-20721500D01*
X43049250Y-14425000D02*
X43196250Y-14572000D01*
X43196250Y-14425000D02*
X43049250Y-14572000D01*
X43122750Y-14425000D02*
X43122750Y-14572000D01*
X43049250Y-14498500D02*
X43196250Y-14498500D01*
X43049250Y-17282500D02*
X43196250Y-17429500D01*
X43196250Y-17282500D02*
X43049250Y-17429500D01*
X43122750Y-17282500D02*
X43122750Y-17429500D01*
X43049250Y-17356000D02*
X43196250Y-17356000D01*
X43049250Y-19187500D02*
X43196250Y-19334500D01*
X43196250Y-19187500D02*
X43049250Y-19334500D01*
X43122750Y-19187500D02*
X43122750Y-19334500D01*
X43049250Y-19261000D02*
X43196250Y-19261000D01*
X43049250Y-24902500D02*
X43196250Y-25049500D01*
X43196250Y-24902500D02*
X43049250Y-25049500D01*
X43122750Y-24902500D02*
X43122750Y-25049500D01*
X43049250Y-24976000D02*
X43196250Y-24976000D01*
X43684250Y-14171000D02*
X43831250Y-14318000D01*
X43831250Y-14171000D02*
X43684250Y-14318000D01*
X43757750Y-14171000D02*
X43757750Y-14318000D01*
X43684250Y-14244500D02*
X43831250Y-14244500D01*
X43684250Y-17028500D02*
X43831250Y-17175500D01*
X43831250Y-17028500D02*
X43684250Y-17175500D01*
X43757750Y-17028500D02*
X43757750Y-17175500D01*
X43684250Y-17102000D02*
X43831250Y-17102000D01*
X43684250Y-18933500D02*
X43831250Y-19080500D01*
X43831250Y-18933500D02*
X43684250Y-19080500D01*
X43757750Y-18933500D02*
X43757750Y-19080500D01*
X43684250Y-19007000D02*
X43831250Y-19007000D01*
X43684250Y-24648500D02*
X43831250Y-24795500D01*
X43831250Y-24648500D02*
X43684250Y-24795500D01*
X43757750Y-24648500D02*
X43757750Y-24795500D01*
X43684250Y-24722000D02*
X43831250Y-24722000D01*
X44954250Y-14425000D02*
X45101250Y-14572000D01*
X45101250Y-14425000D02*
X44954250Y-14572000D01*
X45027750Y-14425000D02*
X45027750Y-14572000D01*
X44954250Y-14498500D02*
X45101250Y-14498500D01*
X44954250Y-17282500D02*
X45101250Y-17429500D01*
X45101250Y-17282500D02*
X44954250Y-17429500D01*
X45027750Y-17282500D02*
X45027750Y-17429500D01*
X44954250Y-17356000D02*
X45101250Y-17356000D01*
X44954250Y-19187500D02*
X45101250Y-19334500D01*
X45101250Y-19187500D02*
X44954250Y-19334500D01*
X45027750Y-19187500D02*
X45027750Y-19334500D01*
X44954250Y-19261000D02*
X45101250Y-19261000D01*
X44954250Y-22997500D02*
X45101250Y-23144500D01*
X45101250Y-22997500D02*
X44954250Y-23144500D01*
X45027750Y-22997500D02*
X45027750Y-23144500D01*
X44954250Y-23071000D02*
X45101250Y-23071000D01*
X44954250Y-24902500D02*
X45101250Y-25049500D01*
X45101250Y-24902500D02*
X44954250Y-25049500D01*
X45027750Y-24902500D02*
X45027750Y-25049500D01*
X44954250Y-24976000D02*
X45101250Y-24976000D01*
X45589250Y-14171000D02*
X45736250Y-14318000D01*
X45736250Y-14171000D02*
X45589250Y-14318000D01*
X45662750Y-14171000D02*
X45662750Y-14318000D01*
X45589250Y-14244500D02*
X45736250Y-14244500D01*
X45589250Y-17028500D02*
X45736250Y-17175500D01*
X45736250Y-17028500D02*
X45589250Y-17175500D01*
X45662750Y-17028500D02*
X45662750Y-17175500D01*
X45589250Y-17102000D02*
X45736250Y-17102000D01*
X45589250Y-18933500D02*
X45736250Y-19080500D01*
X45736250Y-18933500D02*
X45589250Y-19080500D01*
X45662750Y-18933500D02*
X45662750Y-19080500D01*
X45589250Y-19007000D02*
X45736250Y-19007000D01*
X45589250Y-22743500D02*
X45736250Y-22890500D01*
X45736250Y-22743500D02*
X45589250Y-22890500D01*
X45662750Y-22743500D02*
X45662750Y-22890500D01*
X45589250Y-22817000D02*
X45736250Y-22817000D01*
X45589250Y-24648500D02*
X45736250Y-24795500D01*
X45736250Y-24648500D02*
X45589250Y-24795500D01*
X45662750Y-24648500D02*
X45662750Y-24795500D01*
X45589250Y-24722000D02*
X45736250Y-24722000D01*
X46859250Y-14425000D02*
X47006250Y-14572000D01*
X47006250Y-14425000D02*
X46859250Y-14572000D01*
X46932750Y-14425000D02*
X46932750Y-14572000D01*
X46859250Y-14498500D02*
X47006250Y-14498500D01*
X46859250Y-17282500D02*
X47006250Y-17429500D01*
X47006250Y-17282500D02*
X46859250Y-17429500D01*
X46932750Y-17282500D02*
X46932750Y-17429500D01*
X46859250Y-17356000D02*
X47006250Y-17356000D01*
X46859250Y-19187500D02*
X47006250Y-19334500D01*
X47006250Y-19187500D02*
X46859250Y-19334500D01*
X46932750Y-19187500D02*
X46932750Y-19334500D01*
X46859250Y-19261000D02*
X47006250Y-19261000D01*
X46859250Y-24902500D02*
X47006250Y-25049500D01*
X47006250Y-24902500D02*
X46859250Y-25049500D01*
X46932750Y-24902500D02*
X46932750Y-25049500D01*
X46859250Y-24976000D02*
X47006250Y-24976000D01*
X47494250Y-14171000D02*
X47641250Y-14318000D01*
X47641250Y-14171000D02*
X47494250Y-14318000D01*
X47567750Y-14171000D02*
X47567750Y-14318000D01*
X47494250Y-14244500D02*
X47641250Y-14244500D01*
X47494250Y-17028500D02*
X47641250Y-17175500D01*
X47641250Y-17028500D02*
X47494250Y-17175500D01*
X47567750Y-17028500D02*
X47567750Y-17175500D01*
X47494250Y-17102000D02*
X47641250Y-17102000D01*
X47494250Y-18933500D02*
X47641250Y-19080500D01*
X47641250Y-18933500D02*
X47494250Y-19080500D01*
X47567750Y-18933500D02*
X47567750Y-19080500D01*
X47494250Y-19007000D02*
X47641250Y-19007000D01*
X47494250Y-24648500D02*
X47641250Y-24795500D01*
X47641250Y-24648500D02*
X47494250Y-24795500D01*
X47567750Y-24648500D02*
X47567750Y-24795500D01*
X47494250Y-24722000D02*
X47641250Y-24722000D01*
D12*
X13756223Y-26668214D02*
X13756223Y-26368214D01*
X13827652Y-26368214D01*
X13870509Y-26382500D01*
X13899080Y-26411071D01*
X13913366Y-26439643D01*
X13927652Y-26496786D01*
X13927652Y-26539643D01*
X13913366Y-26596786D01*
X13899080Y-26625357D01*
X13870509Y-26653929D01*
X13827652Y-26668214D01*
X13756223Y-26668214D01*
X14056223Y-26668214D02*
X14056223Y-26468214D01*
X14056223Y-26525357D02*
X14070509Y-26496786D01*
X14084795Y-26482500D01*
X14113366Y-26468214D01*
X14141937Y-26468214D01*
X14241937Y-26668214D02*
X14241937Y-26468214D01*
X14241937Y-26368214D02*
X14227652Y-26382500D01*
X14241937Y-26396786D01*
X14256223Y-26382500D01*
X14241937Y-26368214D01*
X14241937Y-26396786D01*
X14427652Y-26668214D02*
X14399080Y-26653929D01*
X14384795Y-26625357D01*
X14384795Y-26368214D01*
X14584795Y-26668214D02*
X14556223Y-26653929D01*
X14541937Y-26625357D01*
X14541937Y-26368214D01*
X14927652Y-26668214D02*
X14927652Y-26368214D01*
X15027652Y-26582500D01*
X15127652Y-26368214D01*
X15127652Y-26668214D01*
X15399080Y-26668214D02*
X15399080Y-26511071D01*
X15384795Y-26482500D01*
X15356223Y-26468214D01*
X15299080Y-26468214D01*
X15270509Y-26482500D01*
X15399080Y-26653929D02*
X15370509Y-26668214D01*
X15299080Y-26668214D01*
X15270509Y-26653929D01*
X15256223Y-26625357D01*
X15256223Y-26596786D01*
X15270509Y-26568214D01*
X15299080Y-26553929D01*
X15370509Y-26553929D01*
X15399080Y-26539643D01*
X15541937Y-26468214D02*
X15541937Y-26768214D01*
X15541937Y-26482500D02*
X15570509Y-26468214D01*
X15627652Y-26468214D01*
X15656223Y-26482500D01*
X15670509Y-26496786D01*
X15684795Y-26525357D01*
X15684795Y-26611071D01*
X15670509Y-26639643D01*
X15656223Y-26653929D01*
X15627652Y-26668214D01*
X15570509Y-26668214D01*
X15541937Y-26653929D01*
X15813366Y-26639643D02*
X15827652Y-26653929D01*
X15813366Y-26668214D01*
X15799080Y-26653929D01*
X15813366Y-26639643D01*
X15813366Y-26668214D01*
X15813366Y-26482500D02*
X15827652Y-26496786D01*
X15813366Y-26511071D01*
X15799080Y-26496786D01*
X15813366Y-26482500D01*
X15813366Y-26511071D01*
X13429795Y-27142500D02*
X13469795Y-27182500D01*
X13469795Y-27142500D02*
X13429795Y-27182500D01*
X13813366Y-26998214D02*
X13841937Y-26998214D01*
X13870509Y-27012500D01*
X13884795Y-27026786D01*
X13899080Y-27055357D01*
X13913366Y-27112500D01*
X13913366Y-27183929D01*
X13899080Y-27241071D01*
X13884795Y-27269643D01*
X13870509Y-27283929D01*
X13841937Y-27298214D01*
X13813366Y-27298214D01*
X13784795Y-27283929D01*
X13770509Y-27269643D01*
X13756223Y-27241071D01*
X13741937Y-27183929D01*
X13741937Y-27112500D01*
X13756223Y-27055357D01*
X13770509Y-27026786D01*
X13784795Y-27012500D01*
X13813366Y-26998214D01*
X14041937Y-27269643D02*
X14056223Y-27283929D01*
X14041937Y-27298214D01*
X14027652Y-27283929D01*
X14041937Y-27269643D01*
X14041937Y-27298214D01*
X14313366Y-27098214D02*
X14313366Y-27298214D01*
X14241937Y-26983929D02*
X14170509Y-27198214D01*
X14356223Y-27198214D01*
X14527652Y-26998214D02*
X14556223Y-26998214D01*
X14584795Y-27012500D01*
X14599080Y-27026786D01*
X14613366Y-27055357D01*
X14627652Y-27112500D01*
X14627652Y-27183929D01*
X14613366Y-27241071D01*
X14599080Y-27269643D01*
X14584795Y-27283929D01*
X14556223Y-27298214D01*
X14527652Y-27298214D01*
X14499080Y-27283929D01*
X14484795Y-27269643D01*
X14470509Y-27241071D01*
X14456223Y-27183929D01*
X14456223Y-27112500D01*
X14470509Y-27055357D01*
X14484795Y-27026786D01*
X14499080Y-27012500D01*
X14527652Y-26998214D01*
X14756223Y-27298214D02*
X14756223Y-27098214D01*
X14756223Y-27126786D02*
X14770509Y-27112500D01*
X14799080Y-27098214D01*
X14841937Y-27098214D01*
X14870509Y-27112500D01*
X14884795Y-27141071D01*
X14884795Y-27298214D01*
X14884795Y-27141071D02*
X14899080Y-27112500D01*
X14927652Y-27098214D01*
X14970509Y-27098214D01*
X14999080Y-27112500D01*
X15013366Y-27141071D01*
X15013366Y-27298214D01*
X15156223Y-27298214D02*
X15156223Y-27098214D01*
X15156223Y-27126786D02*
X15170509Y-27112500D01*
X15199080Y-27098214D01*
X15241937Y-27098214D01*
X15270509Y-27112500D01*
X15284795Y-27141071D01*
X15284795Y-27298214D01*
X15284795Y-27141071D02*
X15299080Y-27112500D01*
X15327652Y-27098214D01*
X15370509Y-27098214D01*
X15399080Y-27112500D01*
X15413366Y-27141071D01*
X15413366Y-27298214D01*
X15999080Y-26983929D02*
X15741937Y-27369643D01*
X16384795Y-26998214D02*
X16413366Y-26998214D01*
X16441937Y-27012500D01*
X16456223Y-27026786D01*
X16470509Y-27055357D01*
X16484795Y-27112500D01*
X16484795Y-27183929D01*
X16470509Y-27241071D01*
X16456223Y-27269643D01*
X16441937Y-27283929D01*
X16413366Y-27298214D01*
X16384795Y-27298214D01*
X16356223Y-27283929D01*
X16341937Y-27269643D01*
X16327652Y-27241071D01*
X16313366Y-27183929D01*
X16313366Y-27112500D01*
X16327652Y-27055357D01*
X16341937Y-27026786D01*
X16356223Y-27012500D01*
X16384795Y-26998214D01*
X16613366Y-27269643D02*
X16627652Y-27283929D01*
X16613366Y-27298214D01*
X16599080Y-27283929D01*
X16613366Y-27269643D01*
X16613366Y-27298214D01*
X16813366Y-26998214D02*
X16841937Y-26998214D01*
X16870509Y-27012500D01*
X16884795Y-27026786D01*
X16899080Y-27055357D01*
X16913366Y-27112500D01*
X16913366Y-27183929D01*
X16899080Y-27241071D01*
X16884795Y-27269643D01*
X16870509Y-27283929D01*
X16841937Y-27298214D01*
X16813366Y-27298214D01*
X16784795Y-27283929D01*
X16770509Y-27269643D01*
X16756223Y-27241071D01*
X16741937Y-27183929D01*
X16741937Y-27112500D01*
X16756223Y-27055357D01*
X16770509Y-27026786D01*
X16784795Y-27012500D01*
X16813366Y-26998214D01*
X17199080Y-27298214D02*
X17027652Y-27298214D01*
X17113366Y-27298214D02*
X17113366Y-26998214D01*
X17084795Y-27041071D01*
X17056223Y-27069643D01*
X17027652Y-27083929D01*
X17456223Y-26998214D02*
X17399080Y-26998214D01*
X17370509Y-27012500D01*
X17356223Y-27026786D01*
X17327652Y-27069643D01*
X17313366Y-27126786D01*
X17313366Y-27241071D01*
X17327652Y-27269643D01*
X17341937Y-27283929D01*
X17370509Y-27298214D01*
X17427652Y-27298214D01*
X17456223Y-27283929D01*
X17470509Y-27269643D01*
X17484795Y-27241071D01*
X17484795Y-27169643D01*
X17470509Y-27141071D01*
X17456223Y-27126786D01*
X17427652Y-27112500D01*
X17370509Y-27112500D01*
X17341937Y-27126786D01*
X17327652Y-27141071D01*
X17313366Y-27169643D01*
X17599080Y-26998214D02*
X17599080Y-27055357D01*
X17713366Y-26998214D02*
X17713366Y-27055357D01*
X18156223Y-27412500D02*
X18141937Y-27398214D01*
X18113366Y-27355357D01*
X18099080Y-27326786D01*
X18084795Y-27283929D01*
X18070509Y-27212500D01*
X18070509Y-27155357D01*
X18084795Y-27083929D01*
X18099080Y-27041071D01*
X18113366Y-27012500D01*
X18141937Y-26969643D01*
X18156223Y-26955357D01*
X18313366Y-27126786D02*
X18284795Y-27112500D01*
X18270509Y-27098214D01*
X18256223Y-27069643D01*
X18256223Y-27055357D01*
X18270509Y-27026786D01*
X18284795Y-27012500D01*
X18313366Y-26998214D01*
X18370509Y-26998214D01*
X18399080Y-27012500D01*
X18413366Y-27026786D01*
X18427652Y-27055357D01*
X18427652Y-27069643D01*
X18413366Y-27098214D01*
X18399080Y-27112500D01*
X18370509Y-27126786D01*
X18313366Y-27126786D01*
X18284795Y-27141071D01*
X18270509Y-27155357D01*
X18256223Y-27183929D01*
X18256223Y-27241071D01*
X18270509Y-27269643D01*
X18284795Y-27283929D01*
X18313366Y-27298214D01*
X18370509Y-27298214D01*
X18399080Y-27283929D01*
X18413366Y-27269643D01*
X18427652Y-27241071D01*
X18427652Y-27183929D01*
X18413366Y-27155357D01*
X18399080Y-27141071D01*
X18370509Y-27126786D01*
X18784795Y-27298214D02*
X18784795Y-26998214D01*
X18913366Y-27298214D02*
X18913366Y-27141071D01*
X18899080Y-27112500D01*
X18870509Y-27098214D01*
X18827652Y-27098214D01*
X18799080Y-27112500D01*
X18784795Y-27126786D01*
X19099080Y-27298214D02*
X19070509Y-27283929D01*
X19056223Y-27269643D01*
X19041937Y-27241071D01*
X19041937Y-27155357D01*
X19056223Y-27126786D01*
X19070509Y-27112500D01*
X19099080Y-27098214D01*
X19141937Y-27098214D01*
X19170509Y-27112500D01*
X19184795Y-27126786D01*
X19199080Y-27155357D01*
X19199080Y-27241071D01*
X19184795Y-27269643D01*
X19170509Y-27283929D01*
X19141937Y-27298214D01*
X19099080Y-27298214D01*
X19370509Y-27298214D02*
X19341937Y-27283929D01*
X19327652Y-27255357D01*
X19327652Y-26998214D01*
X19599080Y-27283929D02*
X19570509Y-27298214D01*
X19513366Y-27298214D01*
X19484795Y-27283929D01*
X19470509Y-27255357D01*
X19470509Y-27141071D01*
X19484795Y-27112500D01*
X19513366Y-27098214D01*
X19570509Y-27098214D01*
X19599080Y-27112500D01*
X19613366Y-27141071D01*
X19613366Y-27169643D01*
X19470509Y-27198214D01*
X19727652Y-27283929D02*
X19756223Y-27298214D01*
X19813366Y-27298214D01*
X19841937Y-27283929D01*
X19856223Y-27255357D01*
X19856223Y-27241071D01*
X19841937Y-27212500D01*
X19813366Y-27198214D01*
X19770509Y-27198214D01*
X19741937Y-27183929D01*
X19727652Y-27155357D01*
X19727652Y-27141071D01*
X19741937Y-27112500D01*
X19770509Y-27098214D01*
X19813366Y-27098214D01*
X19841937Y-27112500D01*
X19956223Y-27412500D02*
X19970509Y-27398214D01*
X19999080Y-27355357D01*
X20013366Y-27326786D01*
X20027652Y-27283929D01*
X20041937Y-27212500D01*
X20041937Y-27155357D01*
X20027652Y-27083929D01*
X20013366Y-27041071D01*
X19999080Y-27012500D01*
X19970509Y-26969643D01*
X19956223Y-26955357D01*
X13469795Y-27558500D02*
G75*
G03*
X13469795Y-27558500I-30000J0D01*
G01*
X13813366Y-27394214D02*
X13841937Y-27394214D01*
X13870509Y-27408500D01*
X13884795Y-27422786D01*
X13899080Y-27451357D01*
X13913366Y-27508500D01*
X13913366Y-27579929D01*
X13899080Y-27637071D01*
X13884795Y-27665643D01*
X13870509Y-27679929D01*
X13841937Y-27694214D01*
X13813366Y-27694214D01*
X13784795Y-27679929D01*
X13770509Y-27665643D01*
X13756223Y-27637071D01*
X13741937Y-27579929D01*
X13741937Y-27508500D01*
X13756223Y-27451357D01*
X13770509Y-27422786D01*
X13784795Y-27408500D01*
X13813366Y-27394214D01*
X14041937Y-27665643D02*
X14056223Y-27679929D01*
X14041937Y-27694214D01*
X14027652Y-27679929D01*
X14041937Y-27665643D01*
X14041937Y-27694214D01*
X14313366Y-27394214D02*
X14256223Y-27394214D01*
X14227652Y-27408500D01*
X14213366Y-27422786D01*
X14184795Y-27465643D01*
X14170509Y-27522786D01*
X14170509Y-27637071D01*
X14184795Y-27665643D01*
X14199080Y-27679929D01*
X14227652Y-27694214D01*
X14284795Y-27694214D01*
X14313366Y-27679929D01*
X14327652Y-27665643D01*
X14341937Y-27637071D01*
X14341937Y-27565643D01*
X14327652Y-27537071D01*
X14313366Y-27522786D01*
X14284795Y-27508500D01*
X14227652Y-27508500D01*
X14199080Y-27522786D01*
X14184795Y-27537071D01*
X14170509Y-27565643D01*
X14527652Y-27394214D02*
X14556223Y-27394214D01*
X14584795Y-27408500D01*
X14599080Y-27422786D01*
X14613366Y-27451357D01*
X14627652Y-27508500D01*
X14627652Y-27579929D01*
X14613366Y-27637071D01*
X14599080Y-27665643D01*
X14584795Y-27679929D01*
X14556223Y-27694214D01*
X14527652Y-27694214D01*
X14499080Y-27679929D01*
X14484795Y-27665643D01*
X14470509Y-27637071D01*
X14456223Y-27579929D01*
X14456223Y-27508500D01*
X14470509Y-27451357D01*
X14484795Y-27422786D01*
X14499080Y-27408500D01*
X14527652Y-27394214D01*
X14756223Y-27694214D02*
X14756223Y-27494214D01*
X14756223Y-27522786D02*
X14770509Y-27508500D01*
X14799080Y-27494214D01*
X14841937Y-27494214D01*
X14870509Y-27508500D01*
X14884795Y-27537071D01*
X14884795Y-27694214D01*
X14884795Y-27537071D02*
X14899080Y-27508500D01*
X14927652Y-27494214D01*
X14970509Y-27494214D01*
X14999080Y-27508500D01*
X15013366Y-27537071D01*
X15013366Y-27694214D01*
X15156223Y-27694214D02*
X15156223Y-27494214D01*
X15156223Y-27522786D02*
X15170509Y-27508500D01*
X15199080Y-27494214D01*
X15241937Y-27494214D01*
X15270509Y-27508500D01*
X15284795Y-27537071D01*
X15284795Y-27694214D01*
X15284795Y-27537071D02*
X15299080Y-27508500D01*
X15327652Y-27494214D01*
X15370509Y-27494214D01*
X15399080Y-27508500D01*
X15413366Y-27537071D01*
X15413366Y-27694214D01*
X15999080Y-27379929D02*
X15741937Y-27765643D01*
X16384795Y-27394214D02*
X16413366Y-27394214D01*
X16441937Y-27408500D01*
X16456223Y-27422786D01*
X16470509Y-27451357D01*
X16484795Y-27508500D01*
X16484795Y-27579929D01*
X16470509Y-27637071D01*
X16456223Y-27665643D01*
X16441937Y-27679929D01*
X16413366Y-27694214D01*
X16384795Y-27694214D01*
X16356223Y-27679929D01*
X16341937Y-27665643D01*
X16327652Y-27637071D01*
X16313366Y-27579929D01*
X16313366Y-27508500D01*
X16327652Y-27451357D01*
X16341937Y-27422786D01*
X16356223Y-27408500D01*
X16384795Y-27394214D01*
X16613366Y-27665643D02*
X16627652Y-27679929D01*
X16613366Y-27694214D01*
X16599080Y-27679929D01*
X16613366Y-27665643D01*
X16613366Y-27694214D01*
X16813366Y-27394214D02*
X16841937Y-27394214D01*
X16870509Y-27408500D01*
X16884795Y-27422786D01*
X16899080Y-27451357D01*
X16913366Y-27508500D01*
X16913366Y-27579929D01*
X16899080Y-27637071D01*
X16884795Y-27665643D01*
X16870509Y-27679929D01*
X16841937Y-27694214D01*
X16813366Y-27694214D01*
X16784795Y-27679929D01*
X16770509Y-27665643D01*
X16756223Y-27637071D01*
X16741937Y-27579929D01*
X16741937Y-27508500D01*
X16756223Y-27451357D01*
X16770509Y-27422786D01*
X16784795Y-27408500D01*
X16813366Y-27394214D01*
X17027652Y-27422786D02*
X17041937Y-27408500D01*
X17070509Y-27394214D01*
X17141937Y-27394214D01*
X17170509Y-27408500D01*
X17184795Y-27422786D01*
X17199080Y-27451357D01*
X17199080Y-27479929D01*
X17184795Y-27522786D01*
X17013366Y-27694214D01*
X17199080Y-27694214D01*
X17456223Y-27494214D02*
X17456223Y-27694214D01*
X17384795Y-27379929D02*
X17313366Y-27594214D01*
X17499080Y-27594214D01*
X17599080Y-27394214D02*
X17599080Y-27451357D01*
X17713366Y-27394214D02*
X17713366Y-27451357D01*
X18156223Y-27808500D02*
X18141937Y-27794214D01*
X18113366Y-27751357D01*
X18099080Y-27722786D01*
X18084795Y-27679929D01*
X18070509Y-27608500D01*
X18070509Y-27551357D01*
X18084795Y-27479929D01*
X18099080Y-27437071D01*
X18113366Y-27408500D01*
X18141937Y-27365643D01*
X18156223Y-27351357D01*
X18327652Y-27394214D02*
X18356223Y-27394214D01*
X18384795Y-27408500D01*
X18399080Y-27422786D01*
X18413366Y-27451357D01*
X18427652Y-27508500D01*
X18427652Y-27579929D01*
X18413366Y-27637071D01*
X18399080Y-27665643D01*
X18384795Y-27679929D01*
X18356223Y-27694214D01*
X18327652Y-27694214D01*
X18299080Y-27679929D01*
X18284795Y-27665643D01*
X18270509Y-27637071D01*
X18256223Y-27579929D01*
X18256223Y-27508500D01*
X18270509Y-27451357D01*
X18284795Y-27422786D01*
X18299080Y-27408500D01*
X18327652Y-27394214D01*
X18784795Y-27694214D02*
X18784795Y-27394214D01*
X18913366Y-27694214D02*
X18913366Y-27537071D01*
X18899080Y-27508500D01*
X18870509Y-27494214D01*
X18827652Y-27494214D01*
X18799080Y-27508500D01*
X18784795Y-27522786D01*
X19099080Y-27694214D02*
X19070509Y-27679929D01*
X19056223Y-27665643D01*
X19041937Y-27637071D01*
X19041937Y-27551357D01*
X19056223Y-27522786D01*
X19070509Y-27508500D01*
X19099080Y-27494214D01*
X19141937Y-27494214D01*
X19170509Y-27508500D01*
X19184795Y-27522786D01*
X19199080Y-27551357D01*
X19199080Y-27637071D01*
X19184795Y-27665643D01*
X19170509Y-27679929D01*
X19141937Y-27694214D01*
X19099080Y-27694214D01*
X19370509Y-27694214D02*
X19341937Y-27679929D01*
X19327652Y-27651357D01*
X19327652Y-27394214D01*
X19599080Y-27679929D02*
X19570509Y-27694214D01*
X19513366Y-27694214D01*
X19484795Y-27679929D01*
X19470509Y-27651357D01*
X19470509Y-27537071D01*
X19484795Y-27508500D01*
X19513366Y-27494214D01*
X19570509Y-27494214D01*
X19599080Y-27508500D01*
X19613366Y-27537071D01*
X19613366Y-27565643D01*
X19470509Y-27594214D01*
X19727652Y-27679929D02*
X19756223Y-27694214D01*
X19813366Y-27694214D01*
X19841937Y-27679929D01*
X19856223Y-27651357D01*
X19856223Y-27637071D01*
X19841937Y-27608500D01*
X19813366Y-27594214D01*
X19770509Y-27594214D01*
X19741937Y-27579929D01*
X19727652Y-27551357D01*
X19727652Y-27537071D01*
X19741937Y-27508500D01*
X19770509Y-27494214D01*
X19813366Y-27494214D01*
X19841937Y-27508500D01*
X20213366Y-27579929D02*
X20441937Y-27579929D01*
X20327652Y-27694214D02*
X20327652Y-27465643D01*
X20941937Y-27494214D02*
X20941937Y-27694214D01*
X20870509Y-27379929D02*
X20799080Y-27594214D01*
X20984795Y-27594214D01*
X21313366Y-27679929D02*
X21341937Y-27694214D01*
X21399080Y-27694214D01*
X21427652Y-27679929D01*
X21441937Y-27651357D01*
X21441937Y-27637071D01*
X21427652Y-27608500D01*
X21399080Y-27594214D01*
X21356223Y-27594214D01*
X21327652Y-27579929D01*
X21313366Y-27551357D01*
X21313366Y-27537071D01*
X21327652Y-27508500D01*
X21356223Y-27494214D01*
X21399080Y-27494214D01*
X21427652Y-27508500D01*
X21613366Y-27694214D02*
X21584795Y-27679929D01*
X21570509Y-27651357D01*
X21570509Y-27394214D01*
X21770509Y-27694214D02*
X21741937Y-27679929D01*
X21727652Y-27665643D01*
X21713366Y-27637071D01*
X21713366Y-27551357D01*
X21727652Y-27522786D01*
X21741937Y-27508500D01*
X21770509Y-27494214D01*
X21813366Y-27494214D01*
X21841937Y-27508500D01*
X21856223Y-27522786D01*
X21870509Y-27551357D01*
X21870509Y-27637071D01*
X21856223Y-27665643D01*
X21841937Y-27679929D01*
X21813366Y-27694214D01*
X21770509Y-27694214D01*
X21956223Y-27494214D02*
X22070509Y-27494214D01*
X21999080Y-27394214D02*
X21999080Y-27651357D01*
X22013366Y-27679929D01*
X22041937Y-27694214D01*
X22070509Y-27694214D01*
X22156223Y-27679929D02*
X22184795Y-27694214D01*
X22241937Y-27694214D01*
X22270509Y-27679929D01*
X22284795Y-27651357D01*
X22284795Y-27637071D01*
X22270509Y-27608500D01*
X22241937Y-27594214D01*
X22199080Y-27594214D01*
X22170509Y-27579929D01*
X22156223Y-27551357D01*
X22156223Y-27537071D01*
X22170509Y-27508500D01*
X22199080Y-27494214D01*
X22241937Y-27494214D01*
X22270509Y-27508500D01*
X22384795Y-27808500D02*
X22399080Y-27794214D01*
X22427652Y-27751357D01*
X22441937Y-27722786D01*
X22456223Y-27679929D01*
X22470509Y-27608500D01*
X22470509Y-27551357D01*
X22456223Y-27479929D01*
X22441937Y-27437071D01*
X22427652Y-27408500D01*
X22399080Y-27365643D01*
X22384795Y-27351357D01*
X13429795Y-27914500D02*
X13429795Y-27994500D01*
X13389795Y-27954500D02*
X13469795Y-27954500D01*
X13813366Y-27790214D02*
X13841937Y-27790214D01*
X13870509Y-27804500D01*
X13884795Y-27818786D01*
X13899080Y-27847357D01*
X13913366Y-27904500D01*
X13913366Y-27975929D01*
X13899080Y-28033071D01*
X13884795Y-28061643D01*
X13870509Y-28075929D01*
X13841937Y-28090214D01*
X13813366Y-28090214D01*
X13784795Y-28075929D01*
X13770509Y-28061643D01*
X13756223Y-28033071D01*
X13741937Y-27975929D01*
X13741937Y-27904500D01*
X13756223Y-27847357D01*
X13770509Y-27818786D01*
X13784795Y-27804500D01*
X13813366Y-27790214D01*
X14041937Y-28061643D02*
X14056223Y-28075929D01*
X14041937Y-28090214D01*
X14027652Y-28075929D01*
X14041937Y-28061643D01*
X14041937Y-28090214D01*
X14227652Y-27918786D02*
X14199080Y-27904500D01*
X14184795Y-27890214D01*
X14170509Y-27861643D01*
X14170509Y-27847357D01*
X14184795Y-27818786D01*
X14199080Y-27804500D01*
X14227652Y-27790214D01*
X14284795Y-27790214D01*
X14313366Y-27804500D01*
X14327652Y-27818786D01*
X14341937Y-27847357D01*
X14341937Y-27861643D01*
X14327652Y-27890214D01*
X14313366Y-27904500D01*
X14284795Y-27918786D01*
X14227652Y-27918786D01*
X14199080Y-27933071D01*
X14184795Y-27947357D01*
X14170509Y-27975929D01*
X14170509Y-28033071D01*
X14184795Y-28061643D01*
X14199080Y-28075929D01*
X14227652Y-28090214D01*
X14284795Y-28090214D01*
X14313366Y-28075929D01*
X14327652Y-28061643D01*
X14341937Y-28033071D01*
X14341937Y-27975929D01*
X14327652Y-27947357D01*
X14313366Y-27933071D01*
X14284795Y-27918786D01*
X14527652Y-27790214D02*
X14556223Y-27790214D01*
X14584795Y-27804500D01*
X14599080Y-27818786D01*
X14613366Y-27847357D01*
X14627652Y-27904500D01*
X14627652Y-27975929D01*
X14613366Y-28033071D01*
X14599080Y-28061643D01*
X14584795Y-28075929D01*
X14556223Y-28090214D01*
X14527652Y-28090214D01*
X14499080Y-28075929D01*
X14484795Y-28061643D01*
X14470509Y-28033071D01*
X14456223Y-27975929D01*
X14456223Y-27904500D01*
X14470509Y-27847357D01*
X14484795Y-27818786D01*
X14499080Y-27804500D01*
X14527652Y-27790214D01*
X14756223Y-28090214D02*
X14756223Y-27890214D01*
X14756223Y-27918786D02*
X14770509Y-27904500D01*
X14799080Y-27890214D01*
X14841937Y-27890214D01*
X14870509Y-27904500D01*
X14884795Y-27933071D01*
X14884795Y-28090214D01*
X14884795Y-27933071D02*
X14899080Y-27904500D01*
X14927652Y-27890214D01*
X14970509Y-27890214D01*
X14999080Y-27904500D01*
X15013366Y-27933071D01*
X15013366Y-28090214D01*
X15156223Y-28090214D02*
X15156223Y-27890214D01*
X15156223Y-27918786D02*
X15170509Y-27904500D01*
X15199080Y-27890214D01*
X15241937Y-27890214D01*
X15270509Y-27904500D01*
X15284795Y-27933071D01*
X15284795Y-28090214D01*
X15284795Y-27933071D02*
X15299080Y-27904500D01*
X15327652Y-27890214D01*
X15370509Y-27890214D01*
X15399080Y-27904500D01*
X15413366Y-27933071D01*
X15413366Y-28090214D01*
X15999080Y-27775929D02*
X15741937Y-28161643D01*
X16384795Y-27790214D02*
X16413366Y-27790214D01*
X16441937Y-27804500D01*
X16456223Y-27818786D01*
X16470509Y-27847357D01*
X16484795Y-27904500D01*
X16484795Y-27975929D01*
X16470509Y-28033071D01*
X16456223Y-28061643D01*
X16441937Y-28075929D01*
X16413366Y-28090214D01*
X16384795Y-28090214D01*
X16356223Y-28075929D01*
X16341937Y-28061643D01*
X16327652Y-28033071D01*
X16313366Y-27975929D01*
X16313366Y-27904500D01*
X16327652Y-27847357D01*
X16341937Y-27818786D01*
X16356223Y-27804500D01*
X16384795Y-27790214D01*
X16613366Y-28061643D02*
X16627652Y-28075929D01*
X16613366Y-28090214D01*
X16599080Y-28075929D01*
X16613366Y-28061643D01*
X16613366Y-28090214D01*
X16813366Y-27790214D02*
X16841937Y-27790214D01*
X16870509Y-27804500D01*
X16884795Y-27818786D01*
X16899080Y-27847357D01*
X16913366Y-27904500D01*
X16913366Y-27975929D01*
X16899080Y-28033071D01*
X16884795Y-28061643D01*
X16870509Y-28075929D01*
X16841937Y-28090214D01*
X16813366Y-28090214D01*
X16784795Y-28075929D01*
X16770509Y-28061643D01*
X16756223Y-28033071D01*
X16741937Y-27975929D01*
X16741937Y-27904500D01*
X16756223Y-27847357D01*
X16770509Y-27818786D01*
X16784795Y-27804500D01*
X16813366Y-27790214D01*
X17013366Y-27790214D02*
X17199080Y-27790214D01*
X17099080Y-27904500D01*
X17141937Y-27904500D01*
X17170509Y-27918786D01*
X17184795Y-27933071D01*
X17199080Y-27961643D01*
X17199080Y-28033071D01*
X17184795Y-28061643D01*
X17170509Y-28075929D01*
X17141937Y-28090214D01*
X17056223Y-28090214D01*
X17027652Y-28075929D01*
X17013366Y-28061643D01*
X17484795Y-28090214D02*
X17313366Y-28090214D01*
X17399080Y-28090214D02*
X17399080Y-27790214D01*
X17370509Y-27833071D01*
X17341937Y-27861643D01*
X17313366Y-27875929D01*
X17599080Y-27790214D02*
X17599080Y-27847357D01*
X17713366Y-27790214D02*
X17713366Y-27847357D01*
X18156223Y-28204500D02*
X18141937Y-28190214D01*
X18113366Y-28147357D01*
X18099080Y-28118786D01*
X18084795Y-28075929D01*
X18070509Y-28004500D01*
X18070509Y-27947357D01*
X18084795Y-27875929D01*
X18099080Y-27833071D01*
X18113366Y-27804500D01*
X18141937Y-27761643D01*
X18156223Y-27747357D01*
X18427652Y-28090214D02*
X18256223Y-28090214D01*
X18341937Y-28090214D02*
X18341937Y-27790214D01*
X18313366Y-27833071D01*
X18284795Y-27861643D01*
X18256223Y-27875929D01*
X18527652Y-27790214D02*
X18727652Y-27790214D01*
X18599080Y-28090214D01*
X18884795Y-27918786D02*
X18856223Y-27904500D01*
X18841937Y-27890214D01*
X18827652Y-27861643D01*
X18827652Y-27847357D01*
X18841937Y-27818786D01*
X18856223Y-27804500D01*
X18884795Y-27790214D01*
X18941937Y-27790214D01*
X18970509Y-27804500D01*
X18984795Y-27818786D01*
X18999080Y-27847357D01*
X18999080Y-27861643D01*
X18984795Y-27890214D01*
X18970509Y-27904500D01*
X18941937Y-27918786D01*
X18884795Y-27918786D01*
X18856223Y-27933071D01*
X18841937Y-27947357D01*
X18827652Y-27975929D01*
X18827652Y-28033071D01*
X18841937Y-28061643D01*
X18856223Y-28075929D01*
X18884795Y-28090214D01*
X18941937Y-28090214D01*
X18970509Y-28075929D01*
X18984795Y-28061643D01*
X18999080Y-28033071D01*
X18999080Y-27975929D01*
X18984795Y-27947357D01*
X18970509Y-27933071D01*
X18941937Y-27918786D01*
X19356223Y-28090214D02*
X19356223Y-27790214D01*
X19484795Y-28090214D02*
X19484795Y-27933071D01*
X19470509Y-27904500D01*
X19441937Y-27890214D01*
X19399080Y-27890214D01*
X19370509Y-27904500D01*
X19356223Y-27918786D01*
X19670509Y-28090214D02*
X19641937Y-28075929D01*
X19627652Y-28061643D01*
X19613366Y-28033071D01*
X19613366Y-27947357D01*
X19627652Y-27918786D01*
X19641937Y-27904500D01*
X19670509Y-27890214D01*
X19713366Y-27890214D01*
X19741937Y-27904500D01*
X19756223Y-27918786D01*
X19770509Y-27947357D01*
X19770509Y-28033071D01*
X19756223Y-28061643D01*
X19741937Y-28075929D01*
X19713366Y-28090214D01*
X19670509Y-28090214D01*
X19941937Y-28090214D02*
X19913366Y-28075929D01*
X19899080Y-28047357D01*
X19899080Y-27790214D01*
X20170509Y-28075929D02*
X20141937Y-28090214D01*
X20084795Y-28090214D01*
X20056223Y-28075929D01*
X20041937Y-28047357D01*
X20041937Y-27933071D01*
X20056223Y-27904500D01*
X20084795Y-27890214D01*
X20141937Y-27890214D01*
X20170509Y-27904500D01*
X20184795Y-27933071D01*
X20184795Y-27961643D01*
X20041937Y-27990214D01*
X20299080Y-28075929D02*
X20327652Y-28090214D01*
X20384795Y-28090214D01*
X20413366Y-28075929D01*
X20427652Y-28047357D01*
X20427652Y-28033071D01*
X20413366Y-28004500D01*
X20384795Y-27990214D01*
X20341937Y-27990214D01*
X20313366Y-27975929D01*
X20299080Y-27947357D01*
X20299080Y-27933071D01*
X20313366Y-27904500D01*
X20341937Y-27890214D01*
X20384795Y-27890214D01*
X20413366Y-27904500D01*
X20527652Y-28204500D02*
X20541937Y-28190214D01*
X20570509Y-28147357D01*
X20584795Y-28118786D01*
X20599080Y-28075929D01*
X20613366Y-28004500D01*
X20613366Y-27947357D01*
X20599080Y-27875929D01*
X20584795Y-27833071D01*
X20570509Y-27804500D01*
X20541937Y-27761643D01*
X20527652Y-27747357D01*
X13455150Y-28385856D02*
X13455150Y-28315144D01*
X13384439Y-28315144D01*
X13384439Y-28385856D01*
X13455150Y-28385856D01*
X13913366Y-28486214D02*
X13741937Y-28486214D01*
X13827652Y-28486214D02*
X13827652Y-28186214D01*
X13799080Y-28229071D01*
X13770509Y-28257643D01*
X13741937Y-28271929D01*
X14041937Y-28457643D02*
X14056223Y-28471929D01*
X14041937Y-28486214D01*
X14027652Y-28471929D01*
X14041937Y-28457643D01*
X14041937Y-28486214D01*
X14241937Y-28186214D02*
X14270509Y-28186214D01*
X14299080Y-28200500D01*
X14313366Y-28214786D01*
X14327652Y-28243357D01*
X14341937Y-28300500D01*
X14341937Y-28371929D01*
X14327652Y-28429071D01*
X14313366Y-28457643D01*
X14299080Y-28471929D01*
X14270509Y-28486214D01*
X14241937Y-28486214D01*
X14213366Y-28471929D01*
X14199080Y-28457643D01*
X14184795Y-28429071D01*
X14170509Y-28371929D01*
X14170509Y-28300500D01*
X14184795Y-28243357D01*
X14199080Y-28214786D01*
X14213366Y-28200500D01*
X14241937Y-28186214D01*
X14527652Y-28186214D02*
X14556223Y-28186214D01*
X14584795Y-28200500D01*
X14599080Y-28214786D01*
X14613366Y-28243357D01*
X14627652Y-28300500D01*
X14627652Y-28371929D01*
X14613366Y-28429071D01*
X14599080Y-28457643D01*
X14584795Y-28471929D01*
X14556223Y-28486214D01*
X14527652Y-28486214D01*
X14499080Y-28471929D01*
X14484795Y-28457643D01*
X14470509Y-28429071D01*
X14456223Y-28371929D01*
X14456223Y-28300500D01*
X14470509Y-28243357D01*
X14484795Y-28214786D01*
X14499080Y-28200500D01*
X14527652Y-28186214D01*
X14756223Y-28486214D02*
X14756223Y-28286214D01*
X14756223Y-28314786D02*
X14770509Y-28300500D01*
X14799080Y-28286214D01*
X14841937Y-28286214D01*
X14870509Y-28300500D01*
X14884795Y-28329071D01*
X14884795Y-28486214D01*
X14884795Y-28329071D02*
X14899080Y-28300500D01*
X14927652Y-28286214D01*
X14970509Y-28286214D01*
X14999080Y-28300500D01*
X15013366Y-28329071D01*
X15013366Y-28486214D01*
X15156223Y-28486214D02*
X15156223Y-28286214D01*
X15156223Y-28314786D02*
X15170509Y-28300500D01*
X15199080Y-28286214D01*
X15241937Y-28286214D01*
X15270509Y-28300500D01*
X15284795Y-28329071D01*
X15284795Y-28486214D01*
X15284795Y-28329071D02*
X15299080Y-28300500D01*
X15327652Y-28286214D01*
X15370509Y-28286214D01*
X15399080Y-28300500D01*
X15413366Y-28329071D01*
X15413366Y-28486214D01*
X15999080Y-28171929D02*
X15741937Y-28557643D01*
X16384795Y-28186214D02*
X16413366Y-28186214D01*
X16441937Y-28200500D01*
X16456223Y-28214786D01*
X16470509Y-28243357D01*
X16484795Y-28300500D01*
X16484795Y-28371929D01*
X16470509Y-28429071D01*
X16456223Y-28457643D01*
X16441937Y-28471929D01*
X16413366Y-28486214D01*
X16384795Y-28486214D01*
X16356223Y-28471929D01*
X16341937Y-28457643D01*
X16327652Y-28429071D01*
X16313366Y-28371929D01*
X16313366Y-28300500D01*
X16327652Y-28243357D01*
X16341937Y-28214786D01*
X16356223Y-28200500D01*
X16384795Y-28186214D01*
X16613366Y-28457643D02*
X16627652Y-28471929D01*
X16613366Y-28486214D01*
X16599080Y-28471929D01*
X16613366Y-28457643D01*
X16613366Y-28486214D01*
X16813366Y-28186214D02*
X16841937Y-28186214D01*
X16870509Y-28200500D01*
X16884795Y-28214786D01*
X16899080Y-28243357D01*
X16913366Y-28300500D01*
X16913366Y-28371929D01*
X16899080Y-28429071D01*
X16884795Y-28457643D01*
X16870509Y-28471929D01*
X16841937Y-28486214D01*
X16813366Y-28486214D01*
X16784795Y-28471929D01*
X16770509Y-28457643D01*
X16756223Y-28429071D01*
X16741937Y-28371929D01*
X16741937Y-28300500D01*
X16756223Y-28243357D01*
X16770509Y-28214786D01*
X16784795Y-28200500D01*
X16813366Y-28186214D01*
X17013366Y-28186214D02*
X17199080Y-28186214D01*
X17099080Y-28300500D01*
X17141937Y-28300500D01*
X17170509Y-28314786D01*
X17184795Y-28329071D01*
X17199080Y-28357643D01*
X17199080Y-28429071D01*
X17184795Y-28457643D01*
X17170509Y-28471929D01*
X17141937Y-28486214D01*
X17056223Y-28486214D01*
X17027652Y-28471929D01*
X17013366Y-28457643D01*
X17341937Y-28486214D02*
X17399080Y-28486214D01*
X17427652Y-28471929D01*
X17441937Y-28457643D01*
X17470509Y-28414786D01*
X17484795Y-28357643D01*
X17484795Y-28243357D01*
X17470509Y-28214786D01*
X17456223Y-28200500D01*
X17427652Y-28186214D01*
X17370509Y-28186214D01*
X17341937Y-28200500D01*
X17327652Y-28214786D01*
X17313366Y-28243357D01*
X17313366Y-28314786D01*
X17327652Y-28343357D01*
X17341937Y-28357643D01*
X17370509Y-28371929D01*
X17427652Y-28371929D01*
X17456223Y-28357643D01*
X17470509Y-28343357D01*
X17484795Y-28314786D01*
X17599080Y-28186214D02*
X17599080Y-28243357D01*
X17713366Y-28186214D02*
X17713366Y-28243357D01*
X18156223Y-28600500D02*
X18141937Y-28586214D01*
X18113366Y-28543357D01*
X18099080Y-28514786D01*
X18084795Y-28471929D01*
X18070509Y-28400500D01*
X18070509Y-28343357D01*
X18084795Y-28271929D01*
X18099080Y-28229071D01*
X18113366Y-28200500D01*
X18141937Y-28157643D01*
X18156223Y-28143357D01*
X18313366Y-28314786D02*
X18284795Y-28300500D01*
X18270509Y-28286214D01*
X18256223Y-28257643D01*
X18256223Y-28243357D01*
X18270509Y-28214786D01*
X18284795Y-28200500D01*
X18313366Y-28186214D01*
X18370509Y-28186214D01*
X18399080Y-28200500D01*
X18413366Y-28214786D01*
X18427652Y-28243357D01*
X18427652Y-28257643D01*
X18413366Y-28286214D01*
X18399080Y-28300500D01*
X18370509Y-28314786D01*
X18313366Y-28314786D01*
X18284795Y-28329071D01*
X18270509Y-28343357D01*
X18256223Y-28371929D01*
X18256223Y-28429071D01*
X18270509Y-28457643D01*
X18284795Y-28471929D01*
X18313366Y-28486214D01*
X18370509Y-28486214D01*
X18399080Y-28471929D01*
X18413366Y-28457643D01*
X18427652Y-28429071D01*
X18427652Y-28371929D01*
X18413366Y-28343357D01*
X18399080Y-28329071D01*
X18370509Y-28314786D01*
X18784795Y-28486214D02*
X18784795Y-28186214D01*
X18913366Y-28486214D02*
X18913366Y-28329071D01*
X18899080Y-28300500D01*
X18870509Y-28286214D01*
X18827652Y-28286214D01*
X18799080Y-28300500D01*
X18784795Y-28314786D01*
X19099080Y-28486214D02*
X19070509Y-28471929D01*
X19056223Y-28457643D01*
X19041937Y-28429071D01*
X19041937Y-28343357D01*
X19056223Y-28314786D01*
X19070509Y-28300500D01*
X19099080Y-28286214D01*
X19141937Y-28286214D01*
X19170509Y-28300500D01*
X19184795Y-28314786D01*
X19199080Y-28343357D01*
X19199080Y-28429071D01*
X19184795Y-28457643D01*
X19170509Y-28471929D01*
X19141937Y-28486214D01*
X19099080Y-28486214D01*
X19370509Y-28486214D02*
X19341937Y-28471929D01*
X19327652Y-28443357D01*
X19327652Y-28186214D01*
X19599080Y-28471929D02*
X19570509Y-28486214D01*
X19513366Y-28486214D01*
X19484795Y-28471929D01*
X19470509Y-28443357D01*
X19470509Y-28329071D01*
X19484795Y-28300500D01*
X19513366Y-28286214D01*
X19570509Y-28286214D01*
X19599080Y-28300500D01*
X19613366Y-28329071D01*
X19613366Y-28357643D01*
X19470509Y-28386214D01*
X19727652Y-28471929D02*
X19756223Y-28486214D01*
X19813366Y-28486214D01*
X19841937Y-28471929D01*
X19856223Y-28443357D01*
X19856223Y-28429071D01*
X19841937Y-28400500D01*
X19813366Y-28386214D01*
X19770509Y-28386214D01*
X19741937Y-28371929D01*
X19727652Y-28343357D01*
X19727652Y-28329071D01*
X19741937Y-28300500D01*
X19770509Y-28286214D01*
X19813366Y-28286214D01*
X19841937Y-28300500D01*
X19956223Y-28600500D02*
X19970509Y-28586214D01*
X19999080Y-28543357D01*
X20013366Y-28514786D01*
X20027652Y-28471929D01*
X20041937Y-28400500D01*
X20041937Y-28343357D01*
X20027652Y-28271929D01*
X20013366Y-28229071D01*
X19999080Y-28200500D01*
X19970509Y-28157643D01*
X19956223Y-28143357D01*
X13418795Y-28797500D02*
X13469795Y-28746500D01*
X13418795Y-28695500D01*
X13367795Y-28746500D01*
X13418795Y-28797500D01*
X13913366Y-28882214D02*
X13741937Y-28882214D01*
X13827652Y-28882214D02*
X13827652Y-28582214D01*
X13799080Y-28625071D01*
X13770509Y-28653643D01*
X13741937Y-28667929D01*
X14041937Y-28853643D02*
X14056223Y-28867929D01*
X14041937Y-28882214D01*
X14027652Y-28867929D01*
X14041937Y-28853643D01*
X14041937Y-28882214D01*
X14241937Y-28582214D02*
X14270509Y-28582214D01*
X14299080Y-28596500D01*
X14313366Y-28610786D01*
X14327652Y-28639357D01*
X14341937Y-28696500D01*
X14341937Y-28767929D01*
X14327652Y-28825071D01*
X14313366Y-28853643D01*
X14299080Y-28867929D01*
X14270509Y-28882214D01*
X14241937Y-28882214D01*
X14213366Y-28867929D01*
X14199080Y-28853643D01*
X14184795Y-28825071D01*
X14170509Y-28767929D01*
X14170509Y-28696500D01*
X14184795Y-28639357D01*
X14199080Y-28610786D01*
X14213366Y-28596500D01*
X14241937Y-28582214D01*
X14456223Y-28610786D02*
X14470509Y-28596500D01*
X14499080Y-28582214D01*
X14570509Y-28582214D01*
X14599080Y-28596500D01*
X14613366Y-28610786D01*
X14627652Y-28639357D01*
X14627652Y-28667929D01*
X14613366Y-28710786D01*
X14441937Y-28882214D01*
X14627652Y-28882214D01*
X14756223Y-28882214D02*
X14756223Y-28682214D01*
X14756223Y-28710786D02*
X14770509Y-28696500D01*
X14799080Y-28682214D01*
X14841937Y-28682214D01*
X14870509Y-28696500D01*
X14884795Y-28725071D01*
X14884795Y-28882214D01*
X14884795Y-28725071D02*
X14899080Y-28696500D01*
X14927652Y-28682214D01*
X14970509Y-28682214D01*
X14999080Y-28696500D01*
X15013366Y-28725071D01*
X15013366Y-28882214D01*
X15156223Y-28882214D02*
X15156223Y-28682214D01*
X15156223Y-28710786D02*
X15170509Y-28696500D01*
X15199080Y-28682214D01*
X15241937Y-28682214D01*
X15270509Y-28696500D01*
X15284795Y-28725071D01*
X15284795Y-28882214D01*
X15284795Y-28725071D02*
X15299080Y-28696500D01*
X15327652Y-28682214D01*
X15370509Y-28682214D01*
X15399080Y-28696500D01*
X15413366Y-28725071D01*
X15413366Y-28882214D01*
X15999080Y-28567929D02*
X15741937Y-28953643D01*
X16384795Y-28582214D02*
X16413366Y-28582214D01*
X16441937Y-28596500D01*
X16456223Y-28610786D01*
X16470509Y-28639357D01*
X16484795Y-28696500D01*
X16484795Y-28767929D01*
X16470509Y-28825071D01*
X16456223Y-28853643D01*
X16441937Y-28867929D01*
X16413366Y-28882214D01*
X16384795Y-28882214D01*
X16356223Y-28867929D01*
X16341937Y-28853643D01*
X16327652Y-28825071D01*
X16313366Y-28767929D01*
X16313366Y-28696500D01*
X16327652Y-28639357D01*
X16341937Y-28610786D01*
X16356223Y-28596500D01*
X16384795Y-28582214D01*
X16613366Y-28853643D02*
X16627652Y-28867929D01*
X16613366Y-28882214D01*
X16599080Y-28867929D01*
X16613366Y-28853643D01*
X16613366Y-28882214D01*
X16813366Y-28582214D02*
X16841937Y-28582214D01*
X16870509Y-28596500D01*
X16884795Y-28610786D01*
X16899080Y-28639357D01*
X16913366Y-28696500D01*
X16913366Y-28767929D01*
X16899080Y-28825071D01*
X16884795Y-28853643D01*
X16870509Y-28867929D01*
X16841937Y-28882214D01*
X16813366Y-28882214D01*
X16784795Y-28867929D01*
X16770509Y-28853643D01*
X16756223Y-28825071D01*
X16741937Y-28767929D01*
X16741937Y-28696500D01*
X16756223Y-28639357D01*
X16770509Y-28610786D01*
X16784795Y-28596500D01*
X16813366Y-28582214D01*
X17170509Y-28682214D02*
X17170509Y-28882214D01*
X17099080Y-28567929D02*
X17027652Y-28782214D01*
X17213366Y-28782214D01*
X17384795Y-28582214D02*
X17413366Y-28582214D01*
X17441937Y-28596500D01*
X17456223Y-28610786D01*
X17470509Y-28639357D01*
X17484795Y-28696500D01*
X17484795Y-28767929D01*
X17470509Y-28825071D01*
X17456223Y-28853643D01*
X17441937Y-28867929D01*
X17413366Y-28882214D01*
X17384795Y-28882214D01*
X17356223Y-28867929D01*
X17341937Y-28853643D01*
X17327652Y-28825071D01*
X17313366Y-28767929D01*
X17313366Y-28696500D01*
X17327652Y-28639357D01*
X17341937Y-28610786D01*
X17356223Y-28596500D01*
X17384795Y-28582214D01*
X17599080Y-28582214D02*
X17599080Y-28639357D01*
X17713366Y-28582214D02*
X17713366Y-28639357D01*
X18156223Y-28996500D02*
X18141937Y-28982214D01*
X18113366Y-28939357D01*
X18099080Y-28910786D01*
X18084795Y-28867929D01*
X18070509Y-28796500D01*
X18070509Y-28739357D01*
X18084795Y-28667929D01*
X18099080Y-28625071D01*
X18113366Y-28596500D01*
X18141937Y-28553643D01*
X18156223Y-28539357D01*
X18399080Y-28682214D02*
X18399080Y-28882214D01*
X18327652Y-28567929D02*
X18256223Y-28782214D01*
X18441937Y-28782214D01*
X18527652Y-28582214D02*
X18713366Y-28582214D01*
X18613366Y-28696500D01*
X18656223Y-28696500D01*
X18684795Y-28710786D01*
X18699080Y-28725071D01*
X18713366Y-28753643D01*
X18713366Y-28825071D01*
X18699080Y-28853643D01*
X18684795Y-28867929D01*
X18656223Y-28882214D01*
X18570509Y-28882214D01*
X18541937Y-28867929D01*
X18527652Y-28853643D01*
X19070509Y-28882214D02*
X19070509Y-28582214D01*
X19199080Y-28882214D02*
X19199080Y-28725071D01*
X19184795Y-28696500D01*
X19156223Y-28682214D01*
X19113366Y-28682214D01*
X19084795Y-28696500D01*
X19070509Y-28710786D01*
X19384795Y-28882214D02*
X19356223Y-28867929D01*
X19341937Y-28853643D01*
X19327652Y-28825071D01*
X19327652Y-28739357D01*
X19341937Y-28710786D01*
X19356223Y-28696500D01*
X19384795Y-28682214D01*
X19427652Y-28682214D01*
X19456223Y-28696500D01*
X19470509Y-28710786D01*
X19484795Y-28739357D01*
X19484795Y-28825071D01*
X19470509Y-28853643D01*
X19456223Y-28867929D01*
X19427652Y-28882214D01*
X19384795Y-28882214D01*
X19656223Y-28882214D02*
X19627652Y-28867929D01*
X19613366Y-28839357D01*
X19613366Y-28582214D01*
X19884795Y-28867929D02*
X19856223Y-28882214D01*
X19799080Y-28882214D01*
X19770509Y-28867929D01*
X19756223Y-28839357D01*
X19756223Y-28725071D01*
X19770509Y-28696500D01*
X19799080Y-28682214D01*
X19856223Y-28682214D01*
X19884795Y-28696500D01*
X19899080Y-28725071D01*
X19899080Y-28753643D01*
X19756223Y-28782214D01*
X20013366Y-28867929D02*
X20041937Y-28882214D01*
X20099080Y-28882214D01*
X20127652Y-28867929D01*
X20141937Y-28839357D01*
X20141937Y-28825071D01*
X20127652Y-28796500D01*
X20099080Y-28782214D01*
X20056223Y-28782214D01*
X20027652Y-28767929D01*
X20013366Y-28739357D01*
X20013366Y-28725071D01*
X20027652Y-28696500D01*
X20056223Y-28682214D01*
X20099080Y-28682214D01*
X20127652Y-28696500D01*
X20241937Y-28996500D02*
X20256223Y-28982214D01*
X20284795Y-28939357D01*
X20299080Y-28910786D01*
X20313366Y-28867929D01*
X20327652Y-28796500D01*
X20327652Y-28739357D01*
X20313366Y-28667929D01*
X20299080Y-28625071D01*
X20284795Y-28596500D01*
X20256223Y-28553643D01*
X20241937Y-28539357D01*
X13359795Y-29087500D02*
X13469795Y-29197500D01*
X13469795Y-29087500D02*
X13359795Y-29197500D01*
X13469795Y-29142500D02*
G75*
G03*
X13469795Y-29142500I-55000J0D01*
G01*
X13913366Y-29278214D02*
X13741937Y-29278214D01*
X13827652Y-29278214D02*
X13827652Y-28978214D01*
X13799080Y-29021071D01*
X13770509Y-29049643D01*
X13741937Y-29063929D01*
X14041937Y-29249643D02*
X14056223Y-29263929D01*
X14041937Y-29278214D01*
X14027652Y-29263929D01*
X14041937Y-29249643D01*
X14041937Y-29278214D01*
X14341937Y-29278214D02*
X14170509Y-29278214D01*
X14256223Y-29278214D02*
X14256223Y-28978214D01*
X14227652Y-29021071D01*
X14199080Y-29049643D01*
X14170509Y-29063929D01*
X14527652Y-28978214D02*
X14556223Y-28978214D01*
X14584795Y-28992500D01*
X14599080Y-29006786D01*
X14613366Y-29035357D01*
X14627652Y-29092500D01*
X14627652Y-29163929D01*
X14613366Y-29221071D01*
X14599080Y-29249643D01*
X14584795Y-29263929D01*
X14556223Y-29278214D01*
X14527652Y-29278214D01*
X14499080Y-29263929D01*
X14484795Y-29249643D01*
X14470509Y-29221071D01*
X14456223Y-29163929D01*
X14456223Y-29092500D01*
X14470509Y-29035357D01*
X14484795Y-29006786D01*
X14499080Y-28992500D01*
X14527652Y-28978214D01*
X14756223Y-29278214D02*
X14756223Y-29078214D01*
X14756223Y-29106786D02*
X14770509Y-29092500D01*
X14799080Y-29078214D01*
X14841937Y-29078214D01*
X14870509Y-29092500D01*
X14884795Y-29121071D01*
X14884795Y-29278214D01*
X14884795Y-29121071D02*
X14899080Y-29092500D01*
X14927652Y-29078214D01*
X14970509Y-29078214D01*
X14999080Y-29092500D01*
X15013366Y-29121071D01*
X15013366Y-29278214D01*
X15156223Y-29278214D02*
X15156223Y-29078214D01*
X15156223Y-29106786D02*
X15170509Y-29092500D01*
X15199080Y-29078214D01*
X15241937Y-29078214D01*
X15270509Y-29092500D01*
X15284795Y-29121071D01*
X15284795Y-29278214D01*
X15284795Y-29121071D02*
X15299080Y-29092500D01*
X15327652Y-29078214D01*
X15370509Y-29078214D01*
X15399080Y-29092500D01*
X15413366Y-29121071D01*
X15413366Y-29278214D01*
X15999080Y-28963929D02*
X15741937Y-29349643D01*
X16384795Y-28978214D02*
X16413366Y-28978214D01*
X16441937Y-28992500D01*
X16456223Y-29006786D01*
X16470509Y-29035357D01*
X16484795Y-29092500D01*
X16484795Y-29163929D01*
X16470509Y-29221071D01*
X16456223Y-29249643D01*
X16441937Y-29263929D01*
X16413366Y-29278214D01*
X16384795Y-29278214D01*
X16356223Y-29263929D01*
X16341937Y-29249643D01*
X16327652Y-29221071D01*
X16313366Y-29163929D01*
X16313366Y-29092500D01*
X16327652Y-29035357D01*
X16341937Y-29006786D01*
X16356223Y-28992500D01*
X16384795Y-28978214D01*
X16613366Y-29249643D02*
X16627652Y-29263929D01*
X16613366Y-29278214D01*
X16599080Y-29263929D01*
X16613366Y-29249643D01*
X16613366Y-29278214D01*
X16813366Y-28978214D02*
X16841937Y-28978214D01*
X16870509Y-28992500D01*
X16884795Y-29006786D01*
X16899080Y-29035357D01*
X16913366Y-29092500D01*
X16913366Y-29163929D01*
X16899080Y-29221071D01*
X16884795Y-29249643D01*
X16870509Y-29263929D01*
X16841937Y-29278214D01*
X16813366Y-29278214D01*
X16784795Y-29263929D01*
X16770509Y-29249643D01*
X16756223Y-29221071D01*
X16741937Y-29163929D01*
X16741937Y-29092500D01*
X16756223Y-29035357D01*
X16770509Y-29006786D01*
X16784795Y-28992500D01*
X16813366Y-28978214D01*
X17170509Y-29078214D02*
X17170509Y-29278214D01*
X17099080Y-28963929D02*
X17027652Y-29178214D01*
X17213366Y-29178214D01*
X17299080Y-28978214D02*
X17484795Y-28978214D01*
X17384795Y-29092500D01*
X17427652Y-29092500D01*
X17456223Y-29106786D01*
X17470509Y-29121071D01*
X17484795Y-29149643D01*
X17484795Y-29221071D01*
X17470509Y-29249643D01*
X17456223Y-29263929D01*
X17427652Y-29278214D01*
X17341937Y-29278214D01*
X17313366Y-29263929D01*
X17299080Y-29249643D01*
X17599080Y-28978214D02*
X17599080Y-29035357D01*
X17713366Y-28978214D02*
X17713366Y-29035357D01*
X18156223Y-29392500D02*
X18141937Y-29378214D01*
X18113366Y-29335357D01*
X18099080Y-29306786D01*
X18084795Y-29263929D01*
X18070509Y-29192500D01*
X18070509Y-29135357D01*
X18084795Y-29063929D01*
X18099080Y-29021071D01*
X18113366Y-28992500D01*
X18141937Y-28949643D01*
X18156223Y-28935357D01*
X18256223Y-29006786D02*
X18270509Y-28992500D01*
X18299080Y-28978214D01*
X18370509Y-28978214D01*
X18399080Y-28992500D01*
X18413366Y-29006786D01*
X18427652Y-29035357D01*
X18427652Y-29063929D01*
X18413366Y-29106786D01*
X18241937Y-29278214D01*
X18427652Y-29278214D01*
X18784795Y-29278214D02*
X18784795Y-28978214D01*
X18913366Y-29278214D02*
X18913366Y-29121071D01*
X18899080Y-29092500D01*
X18870509Y-29078214D01*
X18827652Y-29078214D01*
X18799080Y-29092500D01*
X18784795Y-29106786D01*
X19099080Y-29278214D02*
X19070509Y-29263929D01*
X19056223Y-29249643D01*
X19041937Y-29221071D01*
X19041937Y-29135357D01*
X19056223Y-29106786D01*
X19070509Y-29092500D01*
X19099080Y-29078214D01*
X19141937Y-29078214D01*
X19170509Y-29092500D01*
X19184795Y-29106786D01*
X19199080Y-29135357D01*
X19199080Y-29221071D01*
X19184795Y-29249643D01*
X19170509Y-29263929D01*
X19141937Y-29278214D01*
X19099080Y-29278214D01*
X19370509Y-29278214D02*
X19341937Y-29263929D01*
X19327652Y-29235357D01*
X19327652Y-28978214D01*
X19599080Y-29263929D02*
X19570509Y-29278214D01*
X19513366Y-29278214D01*
X19484795Y-29263929D01*
X19470509Y-29235357D01*
X19470509Y-29121071D01*
X19484795Y-29092500D01*
X19513366Y-29078214D01*
X19570509Y-29078214D01*
X19599080Y-29092500D01*
X19613366Y-29121071D01*
X19613366Y-29149643D01*
X19470509Y-29178214D01*
X19727652Y-29263929D02*
X19756223Y-29278214D01*
X19813366Y-29278214D01*
X19841937Y-29263929D01*
X19856223Y-29235357D01*
X19856223Y-29221071D01*
X19841937Y-29192500D01*
X19813366Y-29178214D01*
X19770509Y-29178214D01*
X19741937Y-29163929D01*
X19727652Y-29135357D01*
X19727652Y-29121071D01*
X19741937Y-29092500D01*
X19770509Y-29078214D01*
X19813366Y-29078214D01*
X19841937Y-29092500D01*
X19956223Y-29392500D02*
X19970509Y-29378214D01*
X19999080Y-29335357D01*
X20013366Y-29306786D01*
X20027652Y-29263929D01*
X20041937Y-29192500D01*
X20041937Y-29135357D01*
X20027652Y-29063929D01*
X20013366Y-29021071D01*
X19999080Y-28992500D01*
X19970509Y-28949643D01*
X19956223Y-28935357D01*
X13322795Y-29465000D02*
X13469795Y-29612000D01*
X13469795Y-29465000D02*
X13322795Y-29612000D01*
X13396295Y-29465000D02*
X13396295Y-29612000D01*
X13322795Y-29538500D02*
X13469795Y-29538500D01*
X13913366Y-29674214D02*
X13741937Y-29674214D01*
X13827652Y-29674214D02*
X13827652Y-29374214D01*
X13799080Y-29417071D01*
X13770509Y-29445643D01*
X13741937Y-29459929D01*
X14041937Y-29645643D02*
X14056223Y-29659929D01*
X14041937Y-29674214D01*
X14027652Y-29659929D01*
X14041937Y-29645643D01*
X14041937Y-29674214D01*
X14313366Y-29474214D02*
X14313366Y-29674214D01*
X14241937Y-29359929D02*
X14170509Y-29574214D01*
X14356223Y-29574214D01*
X14441937Y-29374214D02*
X14641937Y-29374214D01*
X14513366Y-29674214D01*
X14756223Y-29674214D02*
X14756223Y-29474214D01*
X14756223Y-29502786D02*
X14770509Y-29488500D01*
X14799080Y-29474214D01*
X14841937Y-29474214D01*
X14870509Y-29488500D01*
X14884795Y-29517071D01*
X14884795Y-29674214D01*
X14884795Y-29517071D02*
X14899080Y-29488500D01*
X14927652Y-29474214D01*
X14970509Y-29474214D01*
X14999080Y-29488500D01*
X15013366Y-29517071D01*
X15013366Y-29674214D01*
X15156223Y-29674214D02*
X15156223Y-29474214D01*
X15156223Y-29502786D02*
X15170509Y-29488500D01*
X15199080Y-29474214D01*
X15241937Y-29474214D01*
X15270509Y-29488500D01*
X15284795Y-29517071D01*
X15284795Y-29674214D01*
X15284795Y-29517071D02*
X15299080Y-29488500D01*
X15327652Y-29474214D01*
X15370509Y-29474214D01*
X15399080Y-29488500D01*
X15413366Y-29517071D01*
X15413366Y-29674214D01*
X15999080Y-29359929D02*
X15741937Y-29745643D01*
X16384795Y-29374214D02*
X16413366Y-29374214D01*
X16441937Y-29388500D01*
X16456223Y-29402786D01*
X16470509Y-29431357D01*
X16484795Y-29488500D01*
X16484795Y-29559929D01*
X16470509Y-29617071D01*
X16456223Y-29645643D01*
X16441937Y-29659929D01*
X16413366Y-29674214D01*
X16384795Y-29674214D01*
X16356223Y-29659929D01*
X16341937Y-29645643D01*
X16327652Y-29617071D01*
X16313366Y-29559929D01*
X16313366Y-29488500D01*
X16327652Y-29431357D01*
X16341937Y-29402786D01*
X16356223Y-29388500D01*
X16384795Y-29374214D01*
X16613366Y-29645643D02*
X16627652Y-29659929D01*
X16613366Y-29674214D01*
X16599080Y-29659929D01*
X16613366Y-29645643D01*
X16613366Y-29674214D01*
X16813366Y-29374214D02*
X16841937Y-29374214D01*
X16870509Y-29388500D01*
X16884795Y-29402786D01*
X16899080Y-29431357D01*
X16913366Y-29488500D01*
X16913366Y-29559929D01*
X16899080Y-29617071D01*
X16884795Y-29645643D01*
X16870509Y-29659929D01*
X16841937Y-29674214D01*
X16813366Y-29674214D01*
X16784795Y-29659929D01*
X16770509Y-29645643D01*
X16756223Y-29617071D01*
X16741937Y-29559929D01*
X16741937Y-29488500D01*
X16756223Y-29431357D01*
X16770509Y-29402786D01*
X16784795Y-29388500D01*
X16813366Y-29374214D01*
X17184795Y-29374214D02*
X17041937Y-29374214D01*
X17027652Y-29517071D01*
X17041937Y-29502786D01*
X17070509Y-29488500D01*
X17141937Y-29488500D01*
X17170509Y-29502786D01*
X17184795Y-29517071D01*
X17199080Y-29545643D01*
X17199080Y-29617071D01*
X17184795Y-29645643D01*
X17170509Y-29659929D01*
X17141937Y-29674214D01*
X17070509Y-29674214D01*
X17041937Y-29659929D01*
X17027652Y-29645643D01*
X17370509Y-29502786D02*
X17341937Y-29488500D01*
X17327652Y-29474214D01*
X17313366Y-29445643D01*
X17313366Y-29431357D01*
X17327652Y-29402786D01*
X17341937Y-29388500D01*
X17370509Y-29374214D01*
X17427652Y-29374214D01*
X17456223Y-29388500D01*
X17470509Y-29402786D01*
X17484795Y-29431357D01*
X17484795Y-29445643D01*
X17470509Y-29474214D01*
X17456223Y-29488500D01*
X17427652Y-29502786D01*
X17370509Y-29502786D01*
X17341937Y-29517071D01*
X17327652Y-29531357D01*
X17313366Y-29559929D01*
X17313366Y-29617071D01*
X17327652Y-29645643D01*
X17341937Y-29659929D01*
X17370509Y-29674214D01*
X17427652Y-29674214D01*
X17456223Y-29659929D01*
X17470509Y-29645643D01*
X17484795Y-29617071D01*
X17484795Y-29559929D01*
X17470509Y-29531357D01*
X17456223Y-29517071D01*
X17427652Y-29502786D01*
X17599080Y-29374214D02*
X17599080Y-29431357D01*
X17713366Y-29374214D02*
X17713366Y-29431357D01*
X18156223Y-29788500D02*
X18141937Y-29774214D01*
X18113366Y-29731357D01*
X18099080Y-29702786D01*
X18084795Y-29659929D01*
X18070509Y-29588500D01*
X18070509Y-29531357D01*
X18084795Y-29459929D01*
X18099080Y-29417071D01*
X18113366Y-29388500D01*
X18141937Y-29345643D01*
X18156223Y-29331357D01*
X18427652Y-29674214D02*
X18256223Y-29674214D01*
X18341937Y-29674214D02*
X18341937Y-29374214D01*
X18313366Y-29417071D01*
X18284795Y-29445643D01*
X18256223Y-29459929D01*
X18599080Y-29502786D02*
X18570509Y-29488500D01*
X18556223Y-29474214D01*
X18541937Y-29445643D01*
X18541937Y-29431357D01*
X18556223Y-29402786D01*
X18570509Y-29388500D01*
X18599080Y-29374214D01*
X18656223Y-29374214D01*
X18684795Y-29388500D01*
X18699080Y-29402786D01*
X18713366Y-29431357D01*
X18713366Y-29445643D01*
X18699080Y-29474214D01*
X18684795Y-29488500D01*
X18656223Y-29502786D01*
X18599080Y-29502786D01*
X18570509Y-29517071D01*
X18556223Y-29531357D01*
X18541937Y-29559929D01*
X18541937Y-29617071D01*
X18556223Y-29645643D01*
X18570509Y-29659929D01*
X18599080Y-29674214D01*
X18656223Y-29674214D01*
X18684795Y-29659929D01*
X18699080Y-29645643D01*
X18713366Y-29617071D01*
X18713366Y-29559929D01*
X18699080Y-29531357D01*
X18684795Y-29517071D01*
X18656223Y-29502786D01*
X18827652Y-29402786D02*
X18841937Y-29388500D01*
X18870509Y-29374214D01*
X18941937Y-29374214D01*
X18970509Y-29388500D01*
X18984795Y-29402786D01*
X18999080Y-29431357D01*
X18999080Y-29459929D01*
X18984795Y-29502786D01*
X18813366Y-29674214D01*
X18999080Y-29674214D01*
X19356223Y-29674214D02*
X19356223Y-29374214D01*
X19484795Y-29674214D02*
X19484795Y-29517071D01*
X19470509Y-29488500D01*
X19441937Y-29474214D01*
X19399080Y-29474214D01*
X19370509Y-29488500D01*
X19356223Y-29502786D01*
X19670509Y-29674214D02*
X19641937Y-29659929D01*
X19627652Y-29645643D01*
X19613366Y-29617071D01*
X19613366Y-29531357D01*
X19627652Y-29502786D01*
X19641937Y-29488500D01*
X19670509Y-29474214D01*
X19713366Y-29474214D01*
X19741937Y-29488500D01*
X19756223Y-29502786D01*
X19770509Y-29531357D01*
X19770509Y-29617071D01*
X19756223Y-29645643D01*
X19741937Y-29659929D01*
X19713366Y-29674214D01*
X19670509Y-29674214D01*
X19941937Y-29674214D02*
X19913366Y-29659929D01*
X19899080Y-29631357D01*
X19899080Y-29374214D01*
X20170509Y-29659929D02*
X20141937Y-29674214D01*
X20084795Y-29674214D01*
X20056223Y-29659929D01*
X20041937Y-29631357D01*
X20041937Y-29517071D01*
X20056223Y-29488500D01*
X20084795Y-29474214D01*
X20141937Y-29474214D01*
X20170509Y-29488500D01*
X20184795Y-29517071D01*
X20184795Y-29545643D01*
X20041937Y-29574214D01*
X20299080Y-29659929D02*
X20327652Y-29674214D01*
X20384795Y-29674214D01*
X20413366Y-29659929D01*
X20427652Y-29631357D01*
X20427652Y-29617071D01*
X20413366Y-29588500D01*
X20384795Y-29574214D01*
X20341937Y-29574214D01*
X20313366Y-29559929D01*
X20299080Y-29531357D01*
X20299080Y-29517071D01*
X20313366Y-29488500D01*
X20341937Y-29474214D01*
X20384795Y-29474214D01*
X20413366Y-29488500D01*
X20527652Y-29788500D02*
X20541937Y-29774214D01*
X20570509Y-29731357D01*
X20584795Y-29702786D01*
X20599080Y-29659929D01*
X20613366Y-29588500D01*
X20613366Y-29531357D01*
X20599080Y-29459929D01*
X20584795Y-29417071D01*
X20570509Y-29388500D01*
X20541937Y-29345643D01*
X20527652Y-29331357D01*
M02*
