%TF.GenerationSoftware,KiCad,Pcbnew,(5.1.9)-1*%
%TF.CreationDate,2021-04-15T20:32:39+01:00*%
%TF.ProjectId,ENV_KB,454e565f-4b42-42e6-9b69-6361645f7063,Rev.1*%
%TF.SameCoordinates,Original*%
%TF.FileFunction,Paste,Top*%
%TF.FilePolarity,Positive*%
%FSLAX46Y46*%
G04 Gerber Fmt 4.6, Leading zero omitted, Abs format (unit mm)*
G04 Created by KiCad (PCBNEW (5.1.9)-1) date 2021-04-15 20:32:39*
%MOMM*%
%LPD*%
G01*
G04 APERTURE LIST*
%ADD10R,0.300000X1.450000*%
%ADD11R,0.600000X1.450000*%
G04 APERTURE END LIST*
D10*
%TO.C,J0*%
X308775000Y-113245000D03*
X306775000Y-113245000D03*
X307275000Y-113245000D03*
X307775000Y-113245000D03*
X308275000Y-113245000D03*
X309275000Y-113245000D03*
X309775000Y-113245000D03*
X310275000Y-113245000D03*
D11*
X305275000Y-113245000D03*
X306075000Y-113245000D03*
X310975000Y-113245000D03*
X311775000Y-113245000D03*
X311775000Y-113245000D03*
X310975000Y-113245000D03*
X306075000Y-113245000D03*
X305275000Y-113245000D03*
%TD*%
%TO.C,PowerLED0*%
G36*
G01*
X295430000Y-110855000D02*
X296230000Y-110855000D01*
G75*
G02*
X296480000Y-111105000I0J-250000D01*
G01*
X296480000Y-111930000D01*
G75*
G02*
X296230000Y-112180000I-250000J0D01*
G01*
X295430000Y-112180000D01*
G75*
G02*
X295180000Y-111930000I0J250000D01*
G01*
X295180000Y-111105000D01*
G75*
G02*
X295430000Y-110855000I250000J0D01*
G01*
G37*
G36*
G01*
X295430000Y-112780000D02*
X296230000Y-112780000D01*
G75*
G02*
X296480000Y-113030000I0J-250000D01*
G01*
X296480000Y-113855000D01*
G75*
G02*
X296230000Y-114105000I-250000J0D01*
G01*
X295430000Y-114105000D01*
G75*
G02*
X295180000Y-113855000I0J250000D01*
G01*
X295180000Y-113030000D01*
G75*
G02*
X295430000Y-112780000I250000J0D01*
G01*
G37*
%TD*%
%TO.C,PowerLedResistor0*%
G36*
G01*
X297999999Y-112880000D02*
X298900001Y-112880000D01*
G75*
G02*
X299150000Y-113129999I0J-249999D01*
G01*
X299150000Y-113655001D01*
G75*
G02*
X298900001Y-113905000I-249999J0D01*
G01*
X297999999Y-113905000D01*
G75*
G02*
X297750000Y-113655001I0J249999D01*
G01*
X297750000Y-113129999D01*
G75*
G02*
X297999999Y-112880000I249999J0D01*
G01*
G37*
G36*
G01*
X297999999Y-111055000D02*
X298900001Y-111055000D01*
G75*
G02*
X299150000Y-111304999I0J-249999D01*
G01*
X299150000Y-111830001D01*
G75*
G02*
X298900001Y-112080000I-249999J0D01*
G01*
X297999999Y-112080000D01*
G75*
G02*
X297750000Y-111830001I0J249999D01*
G01*
X297750000Y-111304999D01*
G75*
G02*
X297999999Y-111055000I249999J0D01*
G01*
G37*
%TD*%
%TO.C,RESISTOR0*%
G36*
G01*
X300465000Y-112720000D02*
X300835000Y-112720000D01*
G75*
G02*
X300970000Y-112855000I0J-135000D01*
G01*
X300970000Y-113125000D01*
G75*
G02*
X300835000Y-113260000I-135000J0D01*
G01*
X300465000Y-113260000D01*
G75*
G02*
X300330000Y-113125000I0J135000D01*
G01*
X300330000Y-112855000D01*
G75*
G02*
X300465000Y-112720000I135000J0D01*
G01*
G37*
G36*
G01*
X300465000Y-111700000D02*
X300835000Y-111700000D01*
G75*
G02*
X300970000Y-111835000I0J-135000D01*
G01*
X300970000Y-112105000D01*
G75*
G02*
X300835000Y-112240000I-135000J0D01*
G01*
X300465000Y-112240000D01*
G75*
G02*
X300330000Y-112105000I0J135000D01*
G01*
X300330000Y-111835000D01*
G75*
G02*
X300465000Y-111700000I135000J0D01*
G01*
G37*
%TD*%
%TO.C,RESISTOR1*%
G36*
G01*
X301825000Y-111700000D02*
X302195000Y-111700000D01*
G75*
G02*
X302330000Y-111835000I0J-135000D01*
G01*
X302330000Y-112105000D01*
G75*
G02*
X302195000Y-112240000I-135000J0D01*
G01*
X301825000Y-112240000D01*
G75*
G02*
X301690000Y-112105000I0J135000D01*
G01*
X301690000Y-111835000D01*
G75*
G02*
X301825000Y-111700000I135000J0D01*
G01*
G37*
G36*
G01*
X301825000Y-112720000D02*
X302195000Y-112720000D01*
G75*
G02*
X302330000Y-112855000I0J-135000D01*
G01*
X302330000Y-113125000D01*
G75*
G02*
X302195000Y-113260000I-135000J0D01*
G01*
X301825000Y-113260000D01*
G75*
G02*
X301690000Y-113125000I0J135000D01*
G01*
X301690000Y-112855000D01*
G75*
G02*
X301825000Y-112720000I135000J0D01*
G01*
G37*
%TD*%
M02*
