M48
; DRILL file {KiCad (5.1.9)-1} date 05/12/21 05:53:45
; FORMAT={-:-/ absolute / metric / decimal}
; #@! TF.CreationDate,2021-05-12T05:53:45+01:00
; #@! TF.GenerationSoftware,Kicad,Pcbnew,(5.1.9)-1
; #@! TF.FileFunction,NonPlated,1,2,NPTH
FMAT,2
METRIC
T1C0.650
T2C1.750
T3C3.048
T4C3.200
T5C3.988
%
G90
G05
T1
X307.11Y-111.65
X312.89Y-111.65
T2
X139.445Y-147.525
X139.445Y-176.1
X141.826Y-233.25
X141.826Y-252.3
X144.207Y-195.15
X146.589Y-214.2
X149.605Y-147.525
X149.605Y-176.1
X151.37Y-233.25
X151.986Y-233.25
X151.986Y-252.3
X154.368Y-195.15
X156.749Y-214.2
X158.495Y-176.1
X161.53Y-233.25
X163.257Y-233.25
X165.639Y-252.3
X168.02Y-195.15
X168.655Y-176.1
X172.782Y-214.2
X173.417Y-233.25
X175.799Y-252.3
X177.545Y-147.525
X177.545Y-176.1
X178.18Y-195.15
X182.308Y-233.25
X182.942Y-214.2
X187.07Y-195.15
X187.705Y-147.525
X187.705Y-176.1
X189.451Y-252.3
X191.832Y-214.2
X192.468Y-233.25
X196.595Y-147.525
X196.595Y-176.1
X197.23Y-195.15
X199.611Y-252.3
X201.357Y-233.25
X201.992Y-214.2
X206.12Y-195.15
X206.755Y-147.525
X206.755Y-176.1
X210.882Y-214.2
X211.517Y-233.25
X215.645Y-147.525
X215.645Y-176.1
X216.28Y-195.15
X220.407Y-233.25
X221.042Y-214.2
X225.17Y-195.15
X225.805Y-147.525
X225.805Y-176.1
X229.932Y-214.2
X230.567Y-233.25
X234.695Y-147.525
X234.695Y-176.1
X235.33Y-195.15
X239.457Y-233.25
X240.093Y-214.2
X244.22Y-195.15
X244.855Y-147.525
X244.855Y-176.1
X248.982Y-214.2
X249.617Y-233.25
X253.745Y-176.1
X254.38Y-195.15
X258.507Y-233.25
X259.142Y-214.2
X260.889Y-252.3
X263.27Y-147.525
X263.27Y-195.15
X263.905Y-176.1
X268.032Y-214.2
X268.667Y-233.25
X271.049Y-252.3
X272.795Y-176.1
X273.43Y-147.525
X273.43Y-195.15
X277.558Y-233.25
X278.192Y-214.2
X282.32Y-147.525
X282.32Y-195.15
X282.955Y-176.1
X287.082Y-214.2
X287.717Y-233.25
X291.845Y-176.1
X292.48Y-147.525
X292.48Y-195.15
X296.607Y-233.25
X297.243Y-214.2
X301.37Y-147.525
X301.37Y-195.15
X302.005Y-176.1
X306.132Y-214.2
X306.767Y-233.25
X310.895Y-176.1
X311.53Y-147.525
X311.53Y-195.15
X315.657Y-233.25
X316.292Y-214.2
X320.42Y-147.525
X320.42Y-195.15
X321.055Y-176.1
X325.183Y-214.2
X325.817Y-233.25
X329.945Y-176.1
X330.58Y-147.525
X330.58Y-195.15
X332.326Y-252.3
X334.707Y-233.25
X335.342Y-214.2
X339.47Y-195.15
X340.105Y-176.1
X342.486Y-252.3
X344.232Y-214.2
X344.868Y-233.25
X348.995Y-147.525
X348.995Y-176.1
X349.63Y-195.15
X353.757Y-233.25
X354.392Y-214.2
X356.139Y-252.3
X358.52Y-195.15
X359.155Y-147.525
X359.155Y-176.1
X363.282Y-214.2
X363.917Y-233.25
X366.299Y-252.3
X368.045Y-147.525
X368.045Y-176.1
X368.68Y-195.15
X373.442Y-214.2
X377.57Y-195.15
X378.205Y-147.525
X378.205Y-176.1
X379.951Y-252.3
X382.332Y-214.2
X387.095Y-147.525
X387.73Y-195.15
X389.476Y-233.25
X390.111Y-252.3
X392.493Y-214.2
X394.22Y-214.17
X396.62Y-176.1
X397.255Y-147.525
X399.636Y-233.25
X401.37Y-195.125
X403.764Y-252.3
X404.38Y-214.17
X406.145Y-147.525
X406.78Y-176.1
X408.825Y-199.595
X408.825Y-209.755
X411.53Y-195.125
X413.924Y-252.3
X416.305Y-147.525
X429.957Y-147.525
X429.957Y-176.1
X429.957Y-195.15
X429.957Y-252.3
X440.118Y-147.525
X440.118Y-176.1
X440.118Y-195.15
X440.118Y-252.3
X449.007Y-147.525
X449.007Y-176.1
X449.007Y-195.15
X449.007Y-233.25
X449.007Y-252.3
X459.167Y-147.525
X459.167Y-176.1
X459.167Y-195.15
X459.167Y-233.25
X459.167Y-252.3
X468.058Y-147.525
X468.058Y-176.1
X468.058Y-195.15
X468.058Y-252.3
X478.217Y-147.525
X478.217Y-176.1
X478.217Y-195.15
X478.217Y-252.3
T3
X144.544Y-226.265
X168.356Y-226.265
X215.969Y-259.285
X315.969Y-259.285
X382.65Y-226.265
X387.394Y-207.185
X389.794Y-169.115
X406.462Y-226.265
X411.206Y-207.185
X413.606Y-169.115
X415.81Y-192.737
X415.81Y-216.613
T4
X136.325Y-258.25
X137.5Y-110.4
X145.9Y-161.8
X305.137Y-257.15
X310.0Y-161.825
X474.1Y-161.8
X482.5Y-110.4
X483.725Y-258.3
T5
X144.525Y-147.525
X144.525Y-176.1
X144.544Y-241.505
X146.906Y-233.25
X146.906Y-252.3
X149.287Y-195.15
X151.669Y-214.2
X156.45Y-233.25
X163.575Y-176.1
X168.338Y-233.25
X168.356Y-241.505
X170.719Y-252.3
X173.1Y-195.15
X177.862Y-214.2
X182.625Y-147.525
X182.625Y-176.1
X187.387Y-233.25
X192.15Y-195.15
X194.531Y-252.3
X196.912Y-214.2
X201.675Y-147.525
X201.675Y-176.1
X206.438Y-233.25
X211.2Y-195.15
X215.962Y-214.2
X215.969Y-244.045
X220.725Y-147.525
X220.725Y-176.1
X225.487Y-233.25
X230.25Y-195.15
X235.012Y-214.2
X239.775Y-147.525
X239.775Y-176.1
X244.537Y-233.25
X249.3Y-195.15
X254.062Y-214.2
X258.825Y-176.1
X263.587Y-233.25
X265.969Y-252.3
X268.35Y-147.525
X268.35Y-195.15
X273.113Y-214.2
X277.875Y-176.1
X282.637Y-233.25
X287.4Y-147.525
X287.4Y-195.15
X292.162Y-214.2
X296.925Y-176.1
X301.688Y-233.25
X306.45Y-147.525
X306.45Y-195.15
X311.212Y-214.2
X315.969Y-244.045
X315.975Y-176.1
X320.738Y-233.25
X325.5Y-147.525
X325.5Y-195.15
X330.262Y-214.2
X335.025Y-176.1
X337.406Y-252.3
X339.787Y-233.25
X344.55Y-195.15
X349.312Y-214.2
X354.075Y-147.525
X354.075Y-176.1
X358.837Y-233.25
X361.219Y-252.3
X363.6Y-195.15
X368.363Y-214.2
X373.125Y-147.525
X373.125Y-176.1
X382.65Y-195.15
X382.65Y-241.505
X385.031Y-252.3
X387.394Y-222.425
X387.412Y-214.2
X389.794Y-184.355
X392.175Y-147.525
X394.556Y-233.25
X399.3Y-214.17
X400.57Y-192.737
X400.57Y-216.613
X401.7Y-176.1
X406.45Y-195.125
X406.462Y-241.505
X408.825Y-204.675
X408.844Y-252.3
X411.206Y-222.425
X411.225Y-147.525
X413.606Y-184.355
X435.037Y-147.525
X435.037Y-176.1
X435.037Y-195.15
X435.037Y-252.3
X454.087Y-147.525
X454.087Y-176.1
X454.087Y-195.15
X454.087Y-233.25
X454.087Y-252.3
X473.137Y-147.525
X473.137Y-176.1
X473.137Y-195.15
X473.137Y-252.3
T0
M30
