G04 #@! TF.GenerationSoftware,KiCad,Pcbnew,(5.1.9)-1*
G04 #@! TF.CreationDate,2021-04-20T10:13:08+01:00*
G04 #@! TF.ProjectId,ENV_KB,454e565f-4b42-42e6-9b69-6361645f7063,Rev.1*
G04 #@! TF.SameCoordinates,Original*
G04 #@! TF.FileFunction,Soldermask,Bot*
G04 #@! TF.FilePolarity,Negative*
%FSLAX46Y46*%
G04 Gerber Fmt 4.6, Leading zero omitted, Abs format (unit mm)*
G04 Created by KiCad (PCBNEW (5.1.9)-1) date 2021-04-20 10:13:08*
%MOMM*%
%LPD*%
G01*
G04 APERTURE LIST*
%ADD10C,2.302000*%
%ADD11C,4.089800*%
%ADD12C,3.150000*%
%ADD13C,1.852000*%
%ADD14C,2.352000*%
%ADD15O,1.102000X1.702000*%
%ADD16C,0.752000*%
%ADD17O,1.102000X2.202000*%
%ADD18O,1.702000X1.702000*%
%ADD19C,1.702000*%
%ADD20O,1.802000X1.802000*%
%ADD21C,0.150000*%
G04 APERTURE END LIST*
D10*
X473100000Y-161800000D03*
X144550000Y-161800000D03*
X308550000Y-204400000D03*
X308550000Y-257150000D03*
X308550000Y-161800000D03*
X139350000Y-242750000D03*
D11*
X400570000Y-192737000D03*
X400570000Y-216613000D03*
D12*
X415810000Y-192737000D03*
X415810000Y-216613000D03*
D13*
X408825000Y-209755000D03*
X408825000Y-199595000D03*
D14*
X411365000Y-200865000D03*
D11*
X408825000Y-204675000D03*
D14*
X413905000Y-207215000D03*
X158990000Y-228170000D03*
D11*
X156450000Y-233250000D03*
D14*
X152640000Y-230710000D03*
D13*
X151370000Y-233250000D03*
X161530000Y-233250000D03*
D12*
X144543750Y-226265000D03*
X168356250Y-226265000D03*
D11*
X144543750Y-241505000D03*
X168356250Y-241505000D03*
D14*
X401840000Y-209090000D03*
D11*
X399300000Y-214170000D03*
D14*
X395490000Y-211630000D03*
D13*
X394220000Y-214170000D03*
X404380000Y-214170000D03*
D12*
X387393750Y-207185000D03*
X411206250Y-207185000D03*
D11*
X387393750Y-222425000D03*
X411206250Y-222425000D03*
D14*
X408990000Y-190045000D03*
D11*
X406450000Y-195125000D03*
D14*
X402640000Y-192585000D03*
D13*
X401370000Y-195125000D03*
X411530000Y-195125000D03*
D14*
X151827500Y-190070000D03*
D11*
X149287500Y-195150000D03*
D14*
X145477500Y-192610000D03*
D13*
X144207500Y-195150000D03*
X154367500Y-195150000D03*
D15*
X304205000Y-108150000D03*
D16*
X305635000Y-111800000D03*
D15*
X312845000Y-108150000D03*
D16*
X311415000Y-111800000D03*
D17*
X312845000Y-112330000D03*
X304205000Y-112330000D03*
D14*
X149446250Y-228170000D03*
D11*
X146906250Y-233250000D03*
D14*
X143096250Y-230710000D03*
D13*
X141826250Y-233250000D03*
X151986250Y-233250000D03*
D14*
X170877500Y-228170000D03*
D11*
X168337500Y-233250000D03*
D14*
X164527500Y-230710000D03*
D13*
X163257500Y-233250000D03*
X173417500Y-233250000D03*
D14*
X397096250Y-228170000D03*
D11*
X394556250Y-233250000D03*
D14*
X390746250Y-230710000D03*
D13*
X389476250Y-233250000D03*
X399636250Y-233250000D03*
D12*
X382650000Y-226265000D03*
X406462500Y-226265000D03*
D11*
X382650000Y-241505000D03*
X406462500Y-241505000D03*
D14*
X456627500Y-228170000D03*
D11*
X454087500Y-233250000D03*
D14*
X450277500Y-230710000D03*
D13*
X449007500Y-233250000D03*
X459167500Y-233250000D03*
D14*
X149446250Y-247220000D03*
D11*
X146906250Y-252300000D03*
D14*
X143096250Y-249760000D03*
D13*
X141826250Y-252300000D03*
X151986250Y-252300000D03*
D11*
X315968650Y-244045000D03*
X215968850Y-244045000D03*
D12*
X315968650Y-259285000D03*
X215968850Y-259285000D03*
D13*
X271048750Y-252300000D03*
X260888750Y-252300000D03*
D14*
X262158750Y-249760000D03*
D11*
X265968750Y-252300000D03*
D14*
X268508750Y-247220000D03*
X339946250Y-247220000D03*
D11*
X337406250Y-252300000D03*
D14*
X333596250Y-249760000D03*
D13*
X332326250Y-252300000D03*
X342486250Y-252300000D03*
D14*
X437577500Y-247220000D03*
D11*
X435037500Y-252300000D03*
D14*
X431227500Y-249760000D03*
D13*
X429957500Y-252300000D03*
X440117500Y-252300000D03*
G36*
G01*
X442081000Y-121700000D02*
X442081000Y-123300000D01*
G75*
G02*
X442030000Y-123351000I-51000J0D01*
G01*
X440430000Y-123351000D01*
G75*
G02*
X440379000Y-123300000I0J51000D01*
G01*
X440379000Y-121700000D01*
G75*
G02*
X440430000Y-121649000I51000J0D01*
G01*
X442030000Y-121649000D01*
G75*
G02*
X442081000Y-121700000I0J-51000D01*
G01*
G37*
D18*
X436150000Y-122500000D03*
D19*
X284550000Y-112650000D03*
X284550000Y-108150000D03*
X278050000Y-112650000D03*
X278050000Y-108150000D03*
D10*
X478300000Y-242750000D03*
X158825000Y-257150000D03*
X463615000Y-257150000D03*
X478225000Y-110225000D03*
X139150000Y-110225000D03*
D20*
X411900000Y-107680000D03*
X411900000Y-110220000D03*
X411900000Y-112760000D03*
G36*
G01*
X412801000Y-114450000D02*
X412801000Y-116150000D01*
G75*
G02*
X412750000Y-116201000I-51000J0D01*
G01*
X411050000Y-116201000D01*
G75*
G02*
X410999000Y-116150000I0J51000D01*
G01*
X410999000Y-114450000D01*
G75*
G02*
X411050000Y-114399000I51000J0D01*
G01*
X412750000Y-114399000D01*
G75*
G02*
X412801000Y-114450000I0J-51000D01*
G01*
G37*
D18*
X411100000Y-134500000D03*
G36*
G01*
X417031000Y-133700000D02*
X417031000Y-135300000D01*
G75*
G02*
X416980000Y-135351000I-51000J0D01*
G01*
X415380000Y-135351000D01*
G75*
G02*
X415329000Y-135300000I0J51000D01*
G01*
X415329000Y-133700000D01*
G75*
G02*
X415380000Y-133649000I51000J0D01*
G01*
X416980000Y-133649000D01*
G75*
G02*
X417031000Y-133700000I0J-51000D01*
G01*
G37*
X423650000Y-134500000D03*
G36*
G01*
X429581000Y-133700000D02*
X429581000Y-135300000D01*
G75*
G02*
X429530000Y-135351000I-51000J0D01*
G01*
X427930000Y-135351000D01*
G75*
G02*
X427879000Y-135300000I0J51000D01*
G01*
X427879000Y-133700000D01*
G75*
G02*
X427930000Y-133649000I51000J0D01*
G01*
X429530000Y-133649000D01*
G75*
G02*
X429581000Y-133700000I0J-51000D01*
G01*
G37*
D20*
X340720000Y-129340000D03*
X343260000Y-129340000D03*
G36*
G01*
X346650000Y-130241000D02*
X344950000Y-130241000D01*
G75*
G02*
X344899000Y-130190000I0J51000D01*
G01*
X344899000Y-128490000D01*
G75*
G02*
X344950000Y-128439000I51000J0D01*
G01*
X346650000Y-128439000D01*
G75*
G02*
X346701000Y-128490000I0J-51000D01*
G01*
X346701000Y-130190000D01*
G75*
G02*
X346650000Y-130241000I-51000J0D01*
G01*
G37*
X348340000Y-129340000D03*
X350880000Y-129340000D03*
X353420000Y-129340000D03*
X355960000Y-129340000D03*
G36*
G01*
X359350000Y-130241000D02*
X357650000Y-130241000D01*
G75*
G02*
X357599000Y-130190000I0J51000D01*
G01*
X357599000Y-128490000D01*
G75*
G02*
X357650000Y-128439000I51000J0D01*
G01*
X359350000Y-128439000D01*
G75*
G02*
X359401000Y-128490000I0J-51000D01*
G01*
X359401000Y-130190000D01*
G75*
G02*
X359350000Y-130241000I-51000J0D01*
G01*
G37*
X361040000Y-129340000D03*
X363580000Y-129340000D03*
X366120000Y-129340000D03*
X368660000Y-129340000D03*
G36*
G01*
X372050000Y-130241000D02*
X370350000Y-130241000D01*
G75*
G02*
X370299000Y-130190000I0J51000D01*
G01*
X370299000Y-128490000D01*
G75*
G02*
X370350000Y-128439000I51000J0D01*
G01*
X372050000Y-128439000D01*
G75*
G02*
X372101000Y-128490000I0J-51000D01*
G01*
X372101000Y-130190000D01*
G75*
G02*
X372050000Y-130241000I-51000J0D01*
G01*
G37*
X373740000Y-129340000D03*
X376280000Y-129340000D03*
X378820000Y-129340000D03*
X381360000Y-129340000D03*
G36*
G01*
X384750000Y-130241000D02*
X383050000Y-130241000D01*
G75*
G02*
X382999000Y-130190000I0J51000D01*
G01*
X382999000Y-128490000D01*
G75*
G02*
X383050000Y-128439000I51000J0D01*
G01*
X384750000Y-128439000D01*
G75*
G02*
X384801000Y-128490000I0J-51000D01*
G01*
X384801000Y-130190000D01*
G75*
G02*
X384750000Y-130241000I-51000J0D01*
G01*
G37*
X386440000Y-129340000D03*
X388980000Y-129340000D03*
X388980000Y-111560000D03*
X386440000Y-111560000D03*
G36*
G01*
X384750000Y-112461000D02*
X383050000Y-112461000D01*
G75*
G02*
X382999000Y-112410000I0J51000D01*
G01*
X382999000Y-110710000D01*
G75*
G02*
X383050000Y-110659000I51000J0D01*
G01*
X384750000Y-110659000D01*
G75*
G02*
X384801000Y-110710000I0J-51000D01*
G01*
X384801000Y-112410000D01*
G75*
G02*
X384750000Y-112461000I-51000J0D01*
G01*
G37*
X381360000Y-111560000D03*
X378820000Y-111560000D03*
X376280000Y-111560000D03*
X373740000Y-111560000D03*
G36*
G01*
X372050000Y-112461000D02*
X370350000Y-112461000D01*
G75*
G02*
X370299000Y-112410000I0J51000D01*
G01*
X370299000Y-110710000D01*
G75*
G02*
X370350000Y-110659000I51000J0D01*
G01*
X372050000Y-110659000D01*
G75*
G02*
X372101000Y-110710000I0J-51000D01*
G01*
X372101000Y-112410000D01*
G75*
G02*
X372050000Y-112461000I-51000J0D01*
G01*
G37*
X368660000Y-111560000D03*
X366120000Y-111560000D03*
X363580000Y-111560000D03*
X361040000Y-111560000D03*
G36*
G01*
X359350000Y-112461000D02*
X357650000Y-112461000D01*
G75*
G02*
X357599000Y-112410000I0J51000D01*
G01*
X357599000Y-110710000D01*
G75*
G02*
X357650000Y-110659000I51000J0D01*
G01*
X359350000Y-110659000D01*
G75*
G02*
X359401000Y-110710000I0J-51000D01*
G01*
X359401000Y-112410000D01*
G75*
G02*
X359350000Y-112461000I-51000J0D01*
G01*
G37*
X355960000Y-111560000D03*
X353420000Y-111560000D03*
X350880000Y-111560000D03*
X348340000Y-111560000D03*
G36*
G01*
X346650000Y-112461000D02*
X344950000Y-112461000D01*
G75*
G02*
X344899000Y-112410000I0J51000D01*
G01*
X344899000Y-110710000D01*
G75*
G02*
X344950000Y-110659000I51000J0D01*
G01*
X346650000Y-110659000D01*
G75*
G02*
X346701000Y-110710000I0J-51000D01*
G01*
X346701000Y-112410000D01*
G75*
G02*
X346650000Y-112461000I-51000J0D01*
G01*
G37*
X343260000Y-111560000D03*
X340720000Y-111560000D03*
X388750000Y-122990000D03*
G36*
G01*
X389600000Y-121351000D02*
X387900000Y-121351000D01*
G75*
G02*
X387849000Y-121300000I0J51000D01*
G01*
X387849000Y-119600000D01*
G75*
G02*
X387900000Y-119549000I51000J0D01*
G01*
X389600000Y-119549000D01*
G75*
G02*
X389651000Y-119600000I0J-51000D01*
G01*
X389651000Y-121300000D01*
G75*
G02*
X389600000Y-121351000I-51000J0D01*
G01*
G37*
X388750000Y-117910000D03*
D14*
X404240000Y-171020000D03*
D11*
X401700000Y-176100000D03*
D14*
X397890000Y-173560000D03*
D13*
X396620000Y-176100000D03*
X406780000Y-176100000D03*
D12*
X389793750Y-169115000D03*
X413606250Y-169115000D03*
D11*
X389793750Y-184355000D03*
X413606250Y-184355000D03*
D14*
X154208750Y-209120000D03*
D11*
X151668750Y-214200000D03*
D14*
X147858750Y-211660000D03*
D13*
X146588750Y-214200000D03*
X156748750Y-214200000D03*
D14*
X173258750Y-247220000D03*
D11*
X170718750Y-252300000D03*
D14*
X166908750Y-249760000D03*
D13*
X165638750Y-252300000D03*
X175798750Y-252300000D03*
D14*
X197071250Y-247220000D03*
D11*
X194531250Y-252300000D03*
D14*
X190721250Y-249760000D03*
D13*
X189451250Y-252300000D03*
X199611250Y-252300000D03*
D14*
X363758750Y-247220000D03*
D11*
X361218750Y-252300000D03*
D14*
X357408750Y-249760000D03*
D13*
X356138750Y-252300000D03*
X366298750Y-252300000D03*
D14*
X387571250Y-247220000D03*
D11*
X385031250Y-252300000D03*
D14*
X381221250Y-249760000D03*
D13*
X379951250Y-252300000D03*
X390111250Y-252300000D03*
D14*
X411383750Y-247220000D03*
D11*
X408843750Y-252300000D03*
D14*
X405033750Y-249760000D03*
D13*
X403763750Y-252300000D03*
X413923750Y-252300000D03*
D14*
X147065000Y-142445000D03*
D11*
X144525000Y-147525000D03*
D14*
X140715000Y-144985000D03*
D13*
X139445000Y-147525000D03*
X149605000Y-147525000D03*
D14*
X185165000Y-142445000D03*
D11*
X182625000Y-147525000D03*
D14*
X178815000Y-144985000D03*
D13*
X177545000Y-147525000D03*
X187705000Y-147525000D03*
D14*
X204215000Y-142445000D03*
D11*
X201675000Y-147525000D03*
D14*
X197865000Y-144985000D03*
D13*
X196595000Y-147525000D03*
X206755000Y-147525000D03*
D14*
X223265000Y-142445000D03*
D11*
X220725000Y-147525000D03*
D14*
X216915000Y-144985000D03*
D13*
X215645000Y-147525000D03*
X225805000Y-147525000D03*
D14*
X270890000Y-142445000D03*
D11*
X268350000Y-147525000D03*
D14*
X264540000Y-144985000D03*
D13*
X263270000Y-147525000D03*
X273430000Y-147525000D03*
D14*
X308990000Y-142445000D03*
D11*
X306450000Y-147525000D03*
D14*
X302640000Y-144985000D03*
D13*
X301370000Y-147525000D03*
X311530000Y-147525000D03*
D14*
X356615000Y-142445000D03*
D11*
X354075000Y-147525000D03*
D14*
X350265000Y-144985000D03*
D13*
X348995000Y-147525000D03*
X359155000Y-147525000D03*
D14*
X375665000Y-142445000D03*
D11*
X373125000Y-147525000D03*
D14*
X369315000Y-144985000D03*
D13*
X368045000Y-147525000D03*
X378205000Y-147525000D03*
D14*
X394715000Y-142445000D03*
D11*
X392175000Y-147525000D03*
D14*
X388365000Y-144985000D03*
D13*
X387095000Y-147525000D03*
X397255000Y-147525000D03*
D14*
X413765000Y-142445000D03*
D11*
X411225000Y-147525000D03*
D14*
X407415000Y-144985000D03*
D13*
X406145000Y-147525000D03*
X416305000Y-147525000D03*
D14*
X437577500Y-142445000D03*
D11*
X435037500Y-147525000D03*
D14*
X431227500Y-144985000D03*
D13*
X429957500Y-147525000D03*
X440117500Y-147525000D03*
D14*
X456627500Y-142445000D03*
D11*
X454087500Y-147525000D03*
D14*
X450277500Y-144985000D03*
D13*
X449007500Y-147525000D03*
X459167500Y-147525000D03*
D14*
X475677500Y-142445000D03*
D11*
X473137500Y-147525000D03*
D14*
X469327500Y-144985000D03*
D13*
X468057500Y-147525000D03*
X478217500Y-147525000D03*
D14*
X147065000Y-171020000D03*
D11*
X144525000Y-176100000D03*
D14*
X140715000Y-173560000D03*
D13*
X139445000Y-176100000D03*
X149605000Y-176100000D03*
D14*
X166115000Y-171020000D03*
D11*
X163575000Y-176100000D03*
D14*
X159765000Y-173560000D03*
D13*
X158495000Y-176100000D03*
X168655000Y-176100000D03*
D14*
X204215000Y-171020000D03*
D11*
X201675000Y-176100000D03*
D14*
X197865000Y-173560000D03*
D13*
X196595000Y-176100000D03*
X206755000Y-176100000D03*
D14*
X223265000Y-171020000D03*
D11*
X220725000Y-176100000D03*
D14*
X216915000Y-173560000D03*
D13*
X215645000Y-176100000D03*
X225805000Y-176100000D03*
D14*
X242315000Y-171020000D03*
D11*
X239775000Y-176100000D03*
D14*
X235965000Y-173560000D03*
D13*
X234695000Y-176100000D03*
X244855000Y-176100000D03*
D14*
X261365000Y-171020000D03*
D11*
X258825000Y-176100000D03*
D14*
X255015000Y-173560000D03*
D13*
X253745000Y-176100000D03*
X263905000Y-176100000D03*
D14*
X280415000Y-171020000D03*
D11*
X277875000Y-176100000D03*
D14*
X274065000Y-173560000D03*
D13*
X272795000Y-176100000D03*
X282955000Y-176100000D03*
D14*
X299465000Y-171020000D03*
D11*
X296925000Y-176100000D03*
D14*
X293115000Y-173560000D03*
D13*
X291845000Y-176100000D03*
X302005000Y-176100000D03*
D14*
X318515000Y-171020000D03*
D11*
X315975000Y-176100000D03*
D14*
X312165000Y-173560000D03*
D13*
X310895000Y-176100000D03*
X321055000Y-176100000D03*
D14*
X337565000Y-171020000D03*
D11*
X335025000Y-176100000D03*
D14*
X331215000Y-173560000D03*
D13*
X329945000Y-176100000D03*
X340105000Y-176100000D03*
D14*
X356615000Y-171020000D03*
D11*
X354075000Y-176100000D03*
D14*
X350265000Y-173560000D03*
D13*
X348995000Y-176100000D03*
X359155000Y-176100000D03*
D14*
X375665000Y-171020000D03*
D11*
X373125000Y-176100000D03*
D14*
X369315000Y-173560000D03*
D13*
X368045000Y-176100000D03*
X378205000Y-176100000D03*
D14*
X437577500Y-171020000D03*
D11*
X435037500Y-176100000D03*
D14*
X431227500Y-173560000D03*
D13*
X429957500Y-176100000D03*
X440117500Y-176100000D03*
D14*
X456627500Y-171020000D03*
D11*
X454087500Y-176100000D03*
D14*
X450277500Y-173560000D03*
D13*
X449007500Y-176100000D03*
X459167500Y-176100000D03*
D14*
X475677500Y-171020000D03*
D11*
X473137500Y-176100000D03*
D14*
X469327500Y-173560000D03*
D13*
X468057500Y-176100000D03*
X478217500Y-176100000D03*
D14*
X175640000Y-190070000D03*
D11*
X173100000Y-195150000D03*
D14*
X169290000Y-192610000D03*
D13*
X168020000Y-195150000D03*
X178180000Y-195150000D03*
D14*
X194690000Y-190070000D03*
D11*
X192150000Y-195150000D03*
D14*
X188340000Y-192610000D03*
D13*
X187070000Y-195150000D03*
X197230000Y-195150000D03*
D14*
X213740000Y-190070000D03*
D11*
X211200000Y-195150000D03*
D14*
X207390000Y-192610000D03*
D13*
X206120000Y-195150000D03*
X216280000Y-195150000D03*
D14*
X232790000Y-190070000D03*
D11*
X230250000Y-195150000D03*
D14*
X226440000Y-192610000D03*
D13*
X225170000Y-195150000D03*
X235330000Y-195150000D03*
D14*
X251840000Y-190070000D03*
D11*
X249300000Y-195150000D03*
D14*
X245490000Y-192610000D03*
D13*
X244220000Y-195150000D03*
X254380000Y-195150000D03*
D14*
X270890000Y-190070000D03*
D11*
X268350000Y-195150000D03*
D14*
X264540000Y-192610000D03*
D13*
X263270000Y-195150000D03*
X273430000Y-195150000D03*
D14*
X289940000Y-190070000D03*
D11*
X287400000Y-195150000D03*
D14*
X283590000Y-192610000D03*
D13*
X282320000Y-195150000D03*
X292480000Y-195150000D03*
D14*
X308990000Y-190070000D03*
D11*
X306450000Y-195150000D03*
D14*
X302640000Y-192610000D03*
D13*
X301370000Y-195150000D03*
X311530000Y-195150000D03*
D14*
X328040000Y-190070000D03*
D11*
X325500000Y-195150000D03*
D14*
X321690000Y-192610000D03*
D13*
X320420000Y-195150000D03*
X330580000Y-195150000D03*
D14*
X347090000Y-190070000D03*
D11*
X344550000Y-195150000D03*
D14*
X340740000Y-192610000D03*
D13*
X339470000Y-195150000D03*
X349630000Y-195150000D03*
D14*
X366140000Y-190070000D03*
D11*
X363600000Y-195150000D03*
D14*
X359790000Y-192610000D03*
D13*
X358520000Y-195150000D03*
X368680000Y-195150000D03*
D14*
X385190000Y-190070000D03*
D11*
X382650000Y-195150000D03*
D14*
X378840000Y-192610000D03*
D13*
X377570000Y-195150000D03*
X387730000Y-195150000D03*
D14*
X437577500Y-190070000D03*
D11*
X435037500Y-195150000D03*
D14*
X431227500Y-192610000D03*
D13*
X429957500Y-195150000D03*
X440117500Y-195150000D03*
D14*
X456627500Y-190070000D03*
D11*
X454087500Y-195150000D03*
D14*
X450277500Y-192610000D03*
D13*
X449007500Y-195150000D03*
X459167500Y-195150000D03*
D14*
X475677500Y-190070000D03*
D11*
X473137500Y-195150000D03*
D14*
X469327500Y-192610000D03*
D13*
X468057500Y-195150000D03*
X478217500Y-195150000D03*
D14*
X180402500Y-209120000D03*
D11*
X177862500Y-214200000D03*
D14*
X174052500Y-211660000D03*
D13*
X172782500Y-214200000D03*
X182942500Y-214200000D03*
D14*
X199452500Y-209120000D03*
D11*
X196912500Y-214200000D03*
D14*
X193102500Y-211660000D03*
D13*
X191832500Y-214200000D03*
X201992500Y-214200000D03*
D14*
X218502500Y-209120000D03*
D11*
X215962500Y-214200000D03*
D14*
X212152500Y-211660000D03*
D13*
X210882500Y-214200000D03*
X221042500Y-214200000D03*
D14*
X237552500Y-209120000D03*
D11*
X235012500Y-214200000D03*
D14*
X231202500Y-211660000D03*
D13*
X229932500Y-214200000D03*
X240092500Y-214200000D03*
D14*
X256602500Y-209120000D03*
D11*
X254062500Y-214200000D03*
D14*
X250252500Y-211660000D03*
D13*
X248982500Y-214200000D03*
X259142500Y-214200000D03*
D14*
X275652500Y-209120000D03*
D11*
X273112500Y-214200000D03*
D14*
X269302500Y-211660000D03*
D13*
X268032500Y-214200000D03*
X278192500Y-214200000D03*
D14*
X294702500Y-209120000D03*
D11*
X292162500Y-214200000D03*
D14*
X288352500Y-211660000D03*
D13*
X287082500Y-214200000D03*
X297242500Y-214200000D03*
D14*
X313752500Y-209120000D03*
D11*
X311212500Y-214200000D03*
D14*
X307402500Y-211660000D03*
D13*
X306132500Y-214200000D03*
X316292500Y-214200000D03*
D14*
X332802500Y-209120000D03*
D11*
X330262500Y-214200000D03*
D14*
X326452500Y-211660000D03*
D13*
X325182500Y-214200000D03*
X335342500Y-214200000D03*
D14*
X351852500Y-209120000D03*
D11*
X349312500Y-214200000D03*
D14*
X345502500Y-211660000D03*
D13*
X344232500Y-214200000D03*
X354392500Y-214200000D03*
D14*
X370902500Y-209120000D03*
D11*
X368362500Y-214200000D03*
D14*
X364552500Y-211660000D03*
D13*
X363282500Y-214200000D03*
X373442500Y-214200000D03*
D14*
X389952500Y-209120000D03*
D11*
X387412500Y-214200000D03*
D14*
X383602500Y-211660000D03*
D13*
X382332500Y-214200000D03*
X392492500Y-214200000D03*
D14*
X189927500Y-228170000D03*
D11*
X187387500Y-233250000D03*
D14*
X183577500Y-230710000D03*
D13*
X182307500Y-233250000D03*
X192467500Y-233250000D03*
D14*
X208977500Y-228170000D03*
D11*
X206437500Y-233250000D03*
D14*
X202627500Y-230710000D03*
D13*
X201357500Y-233250000D03*
X211517500Y-233250000D03*
D14*
X228027500Y-228170000D03*
D11*
X225487500Y-233250000D03*
D14*
X221677500Y-230710000D03*
D13*
X220407500Y-233250000D03*
X230567500Y-233250000D03*
D14*
X247077500Y-228170000D03*
D11*
X244537500Y-233250000D03*
D14*
X240727500Y-230710000D03*
D13*
X239457500Y-233250000D03*
X249617500Y-233250000D03*
D14*
X266127500Y-228170000D03*
D11*
X263587500Y-233250000D03*
D14*
X259777500Y-230710000D03*
D13*
X258507500Y-233250000D03*
X268667500Y-233250000D03*
D14*
X285177500Y-228170000D03*
D11*
X282637500Y-233250000D03*
D14*
X278827500Y-230710000D03*
D13*
X277557500Y-233250000D03*
X287717500Y-233250000D03*
D14*
X304227500Y-228170000D03*
D11*
X301687500Y-233250000D03*
D14*
X297877500Y-230710000D03*
D13*
X296607500Y-233250000D03*
X306767500Y-233250000D03*
D14*
X323277500Y-228170000D03*
D11*
X320737500Y-233250000D03*
D14*
X316927500Y-230710000D03*
D13*
X315657500Y-233250000D03*
X325817500Y-233250000D03*
D14*
X342327500Y-228170000D03*
D11*
X339787500Y-233250000D03*
D14*
X335977500Y-230710000D03*
D13*
X334707500Y-233250000D03*
X344867500Y-233250000D03*
D14*
X361377500Y-228170000D03*
D11*
X358837500Y-233250000D03*
D14*
X355027500Y-230710000D03*
D13*
X353757500Y-233250000D03*
X363917500Y-233250000D03*
D14*
X456627500Y-247220000D03*
D11*
X454087500Y-252300000D03*
D14*
X450277500Y-249760000D03*
D13*
X449007500Y-252300000D03*
X459167500Y-252300000D03*
D14*
X475677500Y-247220000D03*
D11*
X473137500Y-252300000D03*
D14*
X469327500Y-249760000D03*
D13*
X468057500Y-252300000D03*
X478217500Y-252300000D03*
D14*
X185165000Y-171020000D03*
D11*
X182625000Y-176100000D03*
D14*
X178815000Y-173560000D03*
D13*
X177545000Y-176100000D03*
X187705000Y-176100000D03*
D14*
X242315000Y-142445000D03*
D11*
X239775000Y-147525000D03*
D14*
X235965000Y-144985000D03*
D13*
X234695000Y-147525000D03*
X244855000Y-147525000D03*
D14*
X289940000Y-142445000D03*
D11*
X287400000Y-147525000D03*
D14*
X283590000Y-144985000D03*
D13*
X282320000Y-147525000D03*
X292480000Y-147525000D03*
D14*
X328040000Y-142445000D03*
D11*
X325500000Y-147525000D03*
D14*
X321690000Y-144985000D03*
D13*
X320420000Y-147525000D03*
X330580000Y-147525000D03*
D18*
X148650000Y-134500000D03*
G36*
G01*
X154581000Y-133700000D02*
X154581000Y-135300000D01*
G75*
G02*
X154530000Y-135351000I-51000J0D01*
G01*
X152930000Y-135351000D01*
G75*
G02*
X152879000Y-135300000I0J51000D01*
G01*
X152879000Y-133700000D01*
G75*
G02*
X152930000Y-133649000I51000J0D01*
G01*
X154530000Y-133649000D01*
G75*
G02*
X154581000Y-133700000I0J-51000D01*
G01*
G37*
X183650000Y-134500000D03*
G36*
G01*
X189581000Y-133700000D02*
X189581000Y-135300000D01*
G75*
G02*
X189530000Y-135351000I-51000J0D01*
G01*
X187930000Y-135351000D01*
G75*
G02*
X187879000Y-135300000I0J51000D01*
G01*
X187879000Y-133700000D01*
G75*
G02*
X187930000Y-133649000I51000J0D01*
G01*
X189530000Y-133649000D01*
G75*
G02*
X189581000Y-133700000I0J-51000D01*
G01*
G37*
X201150000Y-134500000D03*
G36*
G01*
X207081000Y-133700000D02*
X207081000Y-135300000D01*
G75*
G02*
X207030000Y-135351000I-51000J0D01*
G01*
X205430000Y-135351000D01*
G75*
G02*
X205379000Y-135300000I0J51000D01*
G01*
X205379000Y-133700000D01*
G75*
G02*
X205430000Y-133649000I51000J0D01*
G01*
X207030000Y-133649000D01*
G75*
G02*
X207081000Y-133700000I0J-51000D01*
G01*
G37*
X218650000Y-134500000D03*
G36*
G01*
X224581000Y-133700000D02*
X224581000Y-135300000D01*
G75*
G02*
X224530000Y-135351000I-51000J0D01*
G01*
X222930000Y-135351000D01*
G75*
G02*
X222879000Y-135300000I0J51000D01*
G01*
X222879000Y-133700000D01*
G75*
G02*
X222930000Y-133649000I51000J0D01*
G01*
X224530000Y-133649000D01*
G75*
G02*
X224581000Y-133700000I0J-51000D01*
G01*
G37*
X236150000Y-134500000D03*
G36*
G01*
X242081000Y-133700000D02*
X242081000Y-135300000D01*
G75*
G02*
X242030000Y-135351000I-51000J0D01*
G01*
X240430000Y-135351000D01*
G75*
G02*
X240379000Y-135300000I0J51000D01*
G01*
X240379000Y-133700000D01*
G75*
G02*
X240430000Y-133649000I51000J0D01*
G01*
X242030000Y-133649000D01*
G75*
G02*
X242081000Y-133700000I0J-51000D01*
G01*
G37*
X271150000Y-134500000D03*
G36*
G01*
X277081000Y-133700000D02*
X277081000Y-135300000D01*
G75*
G02*
X277030000Y-135351000I-51000J0D01*
G01*
X275430000Y-135351000D01*
G75*
G02*
X275379000Y-135300000I0J51000D01*
G01*
X275379000Y-133700000D01*
G75*
G02*
X275430000Y-133649000I51000J0D01*
G01*
X277030000Y-133649000D01*
G75*
G02*
X277081000Y-133700000I0J-51000D01*
G01*
G37*
X288650000Y-134500000D03*
G36*
G01*
X294581000Y-133700000D02*
X294581000Y-135300000D01*
G75*
G02*
X294530000Y-135351000I-51000J0D01*
G01*
X292930000Y-135351000D01*
G75*
G02*
X292879000Y-135300000I0J51000D01*
G01*
X292879000Y-133700000D01*
G75*
G02*
X292930000Y-133649000I51000J0D01*
G01*
X294530000Y-133649000D01*
G75*
G02*
X294581000Y-133700000I0J-51000D01*
G01*
G37*
X398650000Y-134500000D03*
G36*
G01*
X404581000Y-133700000D02*
X404581000Y-135300000D01*
G75*
G02*
X404530000Y-135351000I-51000J0D01*
G01*
X402930000Y-135351000D01*
G75*
G02*
X402879000Y-135300000I0J51000D01*
G01*
X402879000Y-133700000D01*
G75*
G02*
X402930000Y-133649000I51000J0D01*
G01*
X404530000Y-133649000D01*
G75*
G02*
X404581000Y-133700000I0J-51000D01*
G01*
G37*
X436150000Y-134500000D03*
G36*
G01*
X442081000Y-133700000D02*
X442081000Y-135300000D01*
G75*
G02*
X442030000Y-135351000I-51000J0D01*
G01*
X440430000Y-135351000D01*
G75*
G02*
X440379000Y-135300000I0J51000D01*
G01*
X440379000Y-133700000D01*
G75*
G02*
X440430000Y-133649000I51000J0D01*
G01*
X442030000Y-133649000D01*
G75*
G02*
X442081000Y-133700000I0J-51000D01*
G01*
G37*
X448650000Y-134500000D03*
G36*
G01*
X454581000Y-133700000D02*
X454581000Y-135300000D01*
G75*
G02*
X454530000Y-135351000I-51000J0D01*
G01*
X452930000Y-135351000D01*
G75*
G02*
X452879000Y-135300000I0J51000D01*
G01*
X452879000Y-133700000D01*
G75*
G02*
X452930000Y-133649000I51000J0D01*
G01*
X454530000Y-133649000D01*
G75*
G02*
X454581000Y-133700000I0J-51000D01*
G01*
G37*
X461150000Y-134500000D03*
G36*
G01*
X467081000Y-133700000D02*
X467081000Y-135300000D01*
G75*
G02*
X467030000Y-135351000I-51000J0D01*
G01*
X465430000Y-135351000D01*
G75*
G02*
X465379000Y-135300000I0J51000D01*
G01*
X465379000Y-133700000D01*
G75*
G02*
X465430000Y-133649000I51000J0D01*
G01*
X467030000Y-133649000D01*
G75*
G02*
X467081000Y-133700000I0J-51000D01*
G01*
G37*
X473650000Y-134500000D03*
G36*
G01*
X479581000Y-133700000D02*
X479581000Y-135300000D01*
G75*
G02*
X479530000Y-135351000I-51000J0D01*
G01*
X477930000Y-135351000D01*
G75*
G02*
X477879000Y-135300000I0J51000D01*
G01*
X477879000Y-133700000D01*
G75*
G02*
X477930000Y-133649000I51000J0D01*
G01*
X479530000Y-133649000D01*
G75*
G02*
X479581000Y-133700000I0J-51000D01*
G01*
G37*
X148650000Y-130500000D03*
G36*
G01*
X154581000Y-129700000D02*
X154581000Y-131300000D01*
G75*
G02*
X154530000Y-131351000I-51000J0D01*
G01*
X152930000Y-131351000D01*
G75*
G02*
X152879000Y-131300000I0J51000D01*
G01*
X152879000Y-129700000D01*
G75*
G02*
X152930000Y-129649000I51000J0D01*
G01*
X154530000Y-129649000D01*
G75*
G02*
X154581000Y-129700000I0J-51000D01*
G01*
G37*
X166150000Y-130500000D03*
G36*
G01*
X172081000Y-129700000D02*
X172081000Y-131300000D01*
G75*
G02*
X172030000Y-131351000I-51000J0D01*
G01*
X170430000Y-131351000D01*
G75*
G02*
X170379000Y-131300000I0J51000D01*
G01*
X170379000Y-129700000D01*
G75*
G02*
X170430000Y-129649000I51000J0D01*
G01*
X172030000Y-129649000D01*
G75*
G02*
X172081000Y-129700000I0J-51000D01*
G01*
G37*
X183650000Y-130500000D03*
G36*
G01*
X189581000Y-129700000D02*
X189581000Y-131300000D01*
G75*
G02*
X189530000Y-131351000I-51000J0D01*
G01*
X187930000Y-131351000D01*
G75*
G02*
X187879000Y-131300000I0J51000D01*
G01*
X187879000Y-129700000D01*
G75*
G02*
X187930000Y-129649000I51000J0D01*
G01*
X189530000Y-129649000D01*
G75*
G02*
X189581000Y-129700000I0J-51000D01*
G01*
G37*
X201150000Y-130500000D03*
G36*
G01*
X207081000Y-129700000D02*
X207081000Y-131300000D01*
G75*
G02*
X207030000Y-131351000I-51000J0D01*
G01*
X205430000Y-131351000D01*
G75*
G02*
X205379000Y-131300000I0J51000D01*
G01*
X205379000Y-129700000D01*
G75*
G02*
X205430000Y-129649000I51000J0D01*
G01*
X207030000Y-129649000D01*
G75*
G02*
X207081000Y-129700000I0J-51000D01*
G01*
G37*
X218650000Y-130500000D03*
G36*
G01*
X224581000Y-129700000D02*
X224581000Y-131300000D01*
G75*
G02*
X224530000Y-131351000I-51000J0D01*
G01*
X222930000Y-131351000D01*
G75*
G02*
X222879000Y-131300000I0J51000D01*
G01*
X222879000Y-129700000D01*
G75*
G02*
X222930000Y-129649000I51000J0D01*
G01*
X224530000Y-129649000D01*
G75*
G02*
X224581000Y-129700000I0J-51000D01*
G01*
G37*
X236150000Y-130500000D03*
G36*
G01*
X242081000Y-129700000D02*
X242081000Y-131300000D01*
G75*
G02*
X242030000Y-131351000I-51000J0D01*
G01*
X240430000Y-131351000D01*
G75*
G02*
X240379000Y-131300000I0J51000D01*
G01*
X240379000Y-129700000D01*
G75*
G02*
X240430000Y-129649000I51000J0D01*
G01*
X242030000Y-129649000D01*
G75*
G02*
X242081000Y-129700000I0J-51000D01*
G01*
G37*
X253650000Y-130500000D03*
G36*
G01*
X259581000Y-129700000D02*
X259581000Y-131300000D01*
G75*
G02*
X259530000Y-131351000I-51000J0D01*
G01*
X257930000Y-131351000D01*
G75*
G02*
X257879000Y-131300000I0J51000D01*
G01*
X257879000Y-129700000D01*
G75*
G02*
X257930000Y-129649000I51000J0D01*
G01*
X259530000Y-129649000D01*
G75*
G02*
X259581000Y-129700000I0J-51000D01*
G01*
G37*
X271150000Y-130500000D03*
G36*
G01*
X277081000Y-129700000D02*
X277081000Y-131300000D01*
G75*
G02*
X277030000Y-131351000I-51000J0D01*
G01*
X275430000Y-131351000D01*
G75*
G02*
X275379000Y-131300000I0J51000D01*
G01*
X275379000Y-129700000D01*
G75*
G02*
X275430000Y-129649000I51000J0D01*
G01*
X277030000Y-129649000D01*
G75*
G02*
X277081000Y-129700000I0J-51000D01*
G01*
G37*
X288650000Y-130500000D03*
G36*
G01*
X294581000Y-129700000D02*
X294581000Y-131300000D01*
G75*
G02*
X294530000Y-131351000I-51000J0D01*
G01*
X292930000Y-131351000D01*
G75*
G02*
X292879000Y-131300000I0J51000D01*
G01*
X292879000Y-129700000D01*
G75*
G02*
X292930000Y-129649000I51000J0D01*
G01*
X294530000Y-129649000D01*
G75*
G02*
X294581000Y-129700000I0J-51000D01*
G01*
G37*
X306150000Y-130500000D03*
G36*
G01*
X312081000Y-129700000D02*
X312081000Y-131300000D01*
G75*
G02*
X312030000Y-131351000I-51000J0D01*
G01*
X310430000Y-131351000D01*
G75*
G02*
X310379000Y-131300000I0J51000D01*
G01*
X310379000Y-129700000D01*
G75*
G02*
X310430000Y-129649000I51000J0D01*
G01*
X312030000Y-129649000D01*
G75*
G02*
X312081000Y-129700000I0J-51000D01*
G01*
G37*
X323650000Y-130500000D03*
G36*
G01*
X329581000Y-129700000D02*
X329581000Y-131300000D01*
G75*
G02*
X329530000Y-131351000I-51000J0D01*
G01*
X327930000Y-131351000D01*
G75*
G02*
X327879000Y-131300000I0J51000D01*
G01*
X327879000Y-129700000D01*
G75*
G02*
X327930000Y-129649000I51000J0D01*
G01*
X329530000Y-129649000D01*
G75*
G02*
X329581000Y-129700000I0J-51000D01*
G01*
G37*
X398650000Y-130500000D03*
G36*
G01*
X404581000Y-129700000D02*
X404581000Y-131300000D01*
G75*
G02*
X404530000Y-131351000I-51000J0D01*
G01*
X402930000Y-131351000D01*
G75*
G02*
X402879000Y-131300000I0J51000D01*
G01*
X402879000Y-129700000D01*
G75*
G02*
X402930000Y-129649000I51000J0D01*
G01*
X404530000Y-129649000D01*
G75*
G02*
X404581000Y-129700000I0J-51000D01*
G01*
G37*
X411150000Y-130500000D03*
G36*
G01*
X417081000Y-129700000D02*
X417081000Y-131300000D01*
G75*
G02*
X417030000Y-131351000I-51000J0D01*
G01*
X415430000Y-131351000D01*
G75*
G02*
X415379000Y-131300000I0J51000D01*
G01*
X415379000Y-129700000D01*
G75*
G02*
X415430000Y-129649000I51000J0D01*
G01*
X417030000Y-129649000D01*
G75*
G02*
X417081000Y-129700000I0J-51000D01*
G01*
G37*
X436150000Y-130500000D03*
G36*
G01*
X442081000Y-129700000D02*
X442081000Y-131300000D01*
G75*
G02*
X442030000Y-131351000I-51000J0D01*
G01*
X440430000Y-131351000D01*
G75*
G02*
X440379000Y-131300000I0J51000D01*
G01*
X440379000Y-129700000D01*
G75*
G02*
X440430000Y-129649000I51000J0D01*
G01*
X442030000Y-129649000D01*
G75*
G02*
X442081000Y-129700000I0J-51000D01*
G01*
G37*
X448650000Y-130500000D03*
G36*
G01*
X454581000Y-129700000D02*
X454581000Y-131300000D01*
G75*
G02*
X454530000Y-131351000I-51000J0D01*
G01*
X452930000Y-131351000D01*
G75*
G02*
X452879000Y-131300000I0J51000D01*
G01*
X452879000Y-129700000D01*
G75*
G02*
X452930000Y-129649000I51000J0D01*
G01*
X454530000Y-129649000D01*
G75*
G02*
X454581000Y-129700000I0J-51000D01*
G01*
G37*
X461150000Y-130500000D03*
G36*
G01*
X467081000Y-129700000D02*
X467081000Y-131300000D01*
G75*
G02*
X467030000Y-131351000I-51000J0D01*
G01*
X465430000Y-131351000D01*
G75*
G02*
X465379000Y-131300000I0J51000D01*
G01*
X465379000Y-129700000D01*
G75*
G02*
X465430000Y-129649000I51000J0D01*
G01*
X467030000Y-129649000D01*
G75*
G02*
X467081000Y-129700000I0J-51000D01*
G01*
G37*
X473650000Y-130500000D03*
G36*
G01*
X479581000Y-129700000D02*
X479581000Y-131300000D01*
G75*
G02*
X479530000Y-131351000I-51000J0D01*
G01*
X477930000Y-131351000D01*
G75*
G02*
X477879000Y-131300000I0J51000D01*
G01*
X477879000Y-129700000D01*
G75*
G02*
X477930000Y-129649000I51000J0D01*
G01*
X479530000Y-129649000D01*
G75*
G02*
X479581000Y-129700000I0J-51000D01*
G01*
G37*
X148650000Y-126500000D03*
G36*
G01*
X154581000Y-125700000D02*
X154581000Y-127300000D01*
G75*
G02*
X154530000Y-127351000I-51000J0D01*
G01*
X152930000Y-127351000D01*
G75*
G02*
X152879000Y-127300000I0J51000D01*
G01*
X152879000Y-125700000D01*
G75*
G02*
X152930000Y-125649000I51000J0D01*
G01*
X154530000Y-125649000D01*
G75*
G02*
X154581000Y-125700000I0J-51000D01*
G01*
G37*
X183650000Y-126500000D03*
G36*
G01*
X189581000Y-125700000D02*
X189581000Y-127300000D01*
G75*
G02*
X189530000Y-127351000I-51000J0D01*
G01*
X187930000Y-127351000D01*
G75*
G02*
X187879000Y-127300000I0J51000D01*
G01*
X187879000Y-125700000D01*
G75*
G02*
X187930000Y-125649000I51000J0D01*
G01*
X189530000Y-125649000D01*
G75*
G02*
X189581000Y-125700000I0J-51000D01*
G01*
G37*
X201150000Y-126500000D03*
G36*
G01*
X207081000Y-125700000D02*
X207081000Y-127300000D01*
G75*
G02*
X207030000Y-127351000I-51000J0D01*
G01*
X205430000Y-127351000D01*
G75*
G02*
X205379000Y-127300000I0J51000D01*
G01*
X205379000Y-125700000D01*
G75*
G02*
X205430000Y-125649000I51000J0D01*
G01*
X207030000Y-125649000D01*
G75*
G02*
X207081000Y-125700000I0J-51000D01*
G01*
G37*
X218650000Y-126500000D03*
G36*
G01*
X224581000Y-125700000D02*
X224581000Y-127300000D01*
G75*
G02*
X224530000Y-127351000I-51000J0D01*
G01*
X222930000Y-127351000D01*
G75*
G02*
X222879000Y-127300000I0J51000D01*
G01*
X222879000Y-125700000D01*
G75*
G02*
X222930000Y-125649000I51000J0D01*
G01*
X224530000Y-125649000D01*
G75*
G02*
X224581000Y-125700000I0J-51000D01*
G01*
G37*
X236150000Y-126500000D03*
G36*
G01*
X242081000Y-125700000D02*
X242081000Y-127300000D01*
G75*
G02*
X242030000Y-127351000I-51000J0D01*
G01*
X240430000Y-127351000D01*
G75*
G02*
X240379000Y-127300000I0J51000D01*
G01*
X240379000Y-125700000D01*
G75*
G02*
X240430000Y-125649000I51000J0D01*
G01*
X242030000Y-125649000D01*
G75*
G02*
X242081000Y-125700000I0J-51000D01*
G01*
G37*
X253650000Y-126500000D03*
G36*
G01*
X259581000Y-125700000D02*
X259581000Y-127300000D01*
G75*
G02*
X259530000Y-127351000I-51000J0D01*
G01*
X257930000Y-127351000D01*
G75*
G02*
X257879000Y-127300000I0J51000D01*
G01*
X257879000Y-125700000D01*
G75*
G02*
X257930000Y-125649000I51000J0D01*
G01*
X259530000Y-125649000D01*
G75*
G02*
X259581000Y-125700000I0J-51000D01*
G01*
G37*
X271150000Y-126500000D03*
G36*
G01*
X277081000Y-125700000D02*
X277081000Y-127300000D01*
G75*
G02*
X277030000Y-127351000I-51000J0D01*
G01*
X275430000Y-127351000D01*
G75*
G02*
X275379000Y-127300000I0J51000D01*
G01*
X275379000Y-125700000D01*
G75*
G02*
X275430000Y-125649000I51000J0D01*
G01*
X277030000Y-125649000D01*
G75*
G02*
X277081000Y-125700000I0J-51000D01*
G01*
G37*
X288650000Y-126500000D03*
G36*
G01*
X294581000Y-125700000D02*
X294581000Y-127300000D01*
G75*
G02*
X294530000Y-127351000I-51000J0D01*
G01*
X292930000Y-127351000D01*
G75*
G02*
X292879000Y-127300000I0J51000D01*
G01*
X292879000Y-125700000D01*
G75*
G02*
X292930000Y-125649000I51000J0D01*
G01*
X294530000Y-125649000D01*
G75*
G02*
X294581000Y-125700000I0J-51000D01*
G01*
G37*
X306150000Y-126500000D03*
G36*
G01*
X312081000Y-125700000D02*
X312081000Y-127300000D01*
G75*
G02*
X312030000Y-127351000I-51000J0D01*
G01*
X310430000Y-127351000D01*
G75*
G02*
X310379000Y-127300000I0J51000D01*
G01*
X310379000Y-125700000D01*
G75*
G02*
X310430000Y-125649000I51000J0D01*
G01*
X312030000Y-125649000D01*
G75*
G02*
X312081000Y-125700000I0J-51000D01*
G01*
G37*
X323650000Y-126500000D03*
G36*
G01*
X329581000Y-125700000D02*
X329581000Y-127300000D01*
G75*
G02*
X329530000Y-127351000I-51000J0D01*
G01*
X327930000Y-127351000D01*
G75*
G02*
X327879000Y-127300000I0J51000D01*
G01*
X327879000Y-125700000D01*
G75*
G02*
X327930000Y-125649000I51000J0D01*
G01*
X329530000Y-125649000D01*
G75*
G02*
X329581000Y-125700000I0J-51000D01*
G01*
G37*
X398650000Y-126500000D03*
G36*
G01*
X404581000Y-125700000D02*
X404581000Y-127300000D01*
G75*
G02*
X404530000Y-127351000I-51000J0D01*
G01*
X402930000Y-127351000D01*
G75*
G02*
X402879000Y-127300000I0J51000D01*
G01*
X402879000Y-125700000D01*
G75*
G02*
X402930000Y-125649000I51000J0D01*
G01*
X404530000Y-125649000D01*
G75*
G02*
X404581000Y-125700000I0J-51000D01*
G01*
G37*
X411150000Y-126500000D03*
G36*
G01*
X417081000Y-125700000D02*
X417081000Y-127300000D01*
G75*
G02*
X417030000Y-127351000I-51000J0D01*
G01*
X415430000Y-127351000D01*
G75*
G02*
X415379000Y-127300000I0J51000D01*
G01*
X415379000Y-125700000D01*
G75*
G02*
X415430000Y-125649000I51000J0D01*
G01*
X417030000Y-125649000D01*
G75*
G02*
X417081000Y-125700000I0J-51000D01*
G01*
G37*
X423650000Y-126500000D03*
G36*
G01*
X429581000Y-125700000D02*
X429581000Y-127300000D01*
G75*
G02*
X429530000Y-127351000I-51000J0D01*
G01*
X427930000Y-127351000D01*
G75*
G02*
X427879000Y-127300000I0J51000D01*
G01*
X427879000Y-125700000D01*
G75*
G02*
X427930000Y-125649000I51000J0D01*
G01*
X429530000Y-125649000D01*
G75*
G02*
X429581000Y-125700000I0J-51000D01*
G01*
G37*
X436150000Y-126500000D03*
G36*
G01*
X442081000Y-125700000D02*
X442081000Y-127300000D01*
G75*
G02*
X442030000Y-127351000I-51000J0D01*
G01*
X440430000Y-127351000D01*
G75*
G02*
X440379000Y-127300000I0J51000D01*
G01*
X440379000Y-125700000D01*
G75*
G02*
X440430000Y-125649000I51000J0D01*
G01*
X442030000Y-125649000D01*
G75*
G02*
X442081000Y-125700000I0J-51000D01*
G01*
G37*
X448650000Y-126500000D03*
G36*
G01*
X454581000Y-125700000D02*
X454581000Y-127300000D01*
G75*
G02*
X454530000Y-127351000I-51000J0D01*
G01*
X452930000Y-127351000D01*
G75*
G02*
X452879000Y-127300000I0J51000D01*
G01*
X452879000Y-125700000D01*
G75*
G02*
X452930000Y-125649000I51000J0D01*
G01*
X454530000Y-125649000D01*
G75*
G02*
X454581000Y-125700000I0J-51000D01*
G01*
G37*
X461150000Y-126500000D03*
G36*
G01*
X467081000Y-125700000D02*
X467081000Y-127300000D01*
G75*
G02*
X467030000Y-127351000I-51000J0D01*
G01*
X465430000Y-127351000D01*
G75*
G02*
X465379000Y-127300000I0J51000D01*
G01*
X465379000Y-125700000D01*
G75*
G02*
X465430000Y-125649000I51000J0D01*
G01*
X467030000Y-125649000D01*
G75*
G02*
X467081000Y-125700000I0J-51000D01*
G01*
G37*
X473650000Y-126500000D03*
G36*
G01*
X479581000Y-125700000D02*
X479581000Y-127300000D01*
G75*
G02*
X479530000Y-127351000I-51000J0D01*
G01*
X477930000Y-127351000D01*
G75*
G02*
X477879000Y-127300000I0J51000D01*
G01*
X477879000Y-125700000D01*
G75*
G02*
X477930000Y-125649000I51000J0D01*
G01*
X479530000Y-125649000D01*
G75*
G02*
X479581000Y-125700000I0J-51000D01*
G01*
G37*
X148650000Y-122500000D03*
G36*
G01*
X154581000Y-121700000D02*
X154581000Y-123300000D01*
G75*
G02*
X154530000Y-123351000I-51000J0D01*
G01*
X152930000Y-123351000D01*
G75*
G02*
X152879000Y-123300000I0J51000D01*
G01*
X152879000Y-121700000D01*
G75*
G02*
X152930000Y-121649000I51000J0D01*
G01*
X154530000Y-121649000D01*
G75*
G02*
X154581000Y-121700000I0J-51000D01*
G01*
G37*
X183650000Y-122500000D03*
G36*
G01*
X189581000Y-121700000D02*
X189581000Y-123300000D01*
G75*
G02*
X189530000Y-123351000I-51000J0D01*
G01*
X187930000Y-123351000D01*
G75*
G02*
X187879000Y-123300000I0J51000D01*
G01*
X187879000Y-121700000D01*
G75*
G02*
X187930000Y-121649000I51000J0D01*
G01*
X189530000Y-121649000D01*
G75*
G02*
X189581000Y-121700000I0J-51000D01*
G01*
G37*
X201150000Y-122500000D03*
G36*
G01*
X207081000Y-121700000D02*
X207081000Y-123300000D01*
G75*
G02*
X207030000Y-123351000I-51000J0D01*
G01*
X205430000Y-123351000D01*
G75*
G02*
X205379000Y-123300000I0J51000D01*
G01*
X205379000Y-121700000D01*
G75*
G02*
X205430000Y-121649000I51000J0D01*
G01*
X207030000Y-121649000D01*
G75*
G02*
X207081000Y-121700000I0J-51000D01*
G01*
G37*
X218650000Y-122500000D03*
G36*
G01*
X224581000Y-121700000D02*
X224581000Y-123300000D01*
G75*
G02*
X224530000Y-123351000I-51000J0D01*
G01*
X222930000Y-123351000D01*
G75*
G02*
X222879000Y-123300000I0J51000D01*
G01*
X222879000Y-121700000D01*
G75*
G02*
X222930000Y-121649000I51000J0D01*
G01*
X224530000Y-121649000D01*
G75*
G02*
X224581000Y-121700000I0J-51000D01*
G01*
G37*
X236150000Y-122500000D03*
G36*
G01*
X242081000Y-121700000D02*
X242081000Y-123300000D01*
G75*
G02*
X242030000Y-123351000I-51000J0D01*
G01*
X240430000Y-123351000D01*
G75*
G02*
X240379000Y-123300000I0J51000D01*
G01*
X240379000Y-121700000D01*
G75*
G02*
X240430000Y-121649000I51000J0D01*
G01*
X242030000Y-121649000D01*
G75*
G02*
X242081000Y-121700000I0J-51000D01*
G01*
G37*
X253650000Y-122500000D03*
G36*
G01*
X259581000Y-121700000D02*
X259581000Y-123300000D01*
G75*
G02*
X259530000Y-123351000I-51000J0D01*
G01*
X257930000Y-123351000D01*
G75*
G02*
X257879000Y-123300000I0J51000D01*
G01*
X257879000Y-121700000D01*
G75*
G02*
X257930000Y-121649000I51000J0D01*
G01*
X259530000Y-121649000D01*
G75*
G02*
X259581000Y-121700000I0J-51000D01*
G01*
G37*
X271150000Y-122500000D03*
G36*
G01*
X277081000Y-121700000D02*
X277081000Y-123300000D01*
G75*
G02*
X277030000Y-123351000I-51000J0D01*
G01*
X275430000Y-123351000D01*
G75*
G02*
X275379000Y-123300000I0J51000D01*
G01*
X275379000Y-121700000D01*
G75*
G02*
X275430000Y-121649000I51000J0D01*
G01*
X277030000Y-121649000D01*
G75*
G02*
X277081000Y-121700000I0J-51000D01*
G01*
G37*
X288650000Y-122500000D03*
G36*
G01*
X294581000Y-121700000D02*
X294581000Y-123300000D01*
G75*
G02*
X294530000Y-123351000I-51000J0D01*
G01*
X292930000Y-123351000D01*
G75*
G02*
X292879000Y-123300000I0J51000D01*
G01*
X292879000Y-121700000D01*
G75*
G02*
X292930000Y-121649000I51000J0D01*
G01*
X294530000Y-121649000D01*
G75*
G02*
X294581000Y-121700000I0J-51000D01*
G01*
G37*
X306150000Y-122500000D03*
G36*
G01*
X312081000Y-121700000D02*
X312081000Y-123300000D01*
G75*
G02*
X312030000Y-123351000I-51000J0D01*
G01*
X310430000Y-123351000D01*
G75*
G02*
X310379000Y-123300000I0J51000D01*
G01*
X310379000Y-121700000D01*
G75*
G02*
X310430000Y-121649000I51000J0D01*
G01*
X312030000Y-121649000D01*
G75*
G02*
X312081000Y-121700000I0J-51000D01*
G01*
G37*
X323650000Y-122500000D03*
G36*
G01*
X329581000Y-121700000D02*
X329581000Y-123300000D01*
G75*
G02*
X329530000Y-123351000I-51000J0D01*
G01*
X327930000Y-123351000D01*
G75*
G02*
X327879000Y-123300000I0J51000D01*
G01*
X327879000Y-121700000D01*
G75*
G02*
X327930000Y-121649000I51000J0D01*
G01*
X329530000Y-121649000D01*
G75*
G02*
X329581000Y-121700000I0J-51000D01*
G01*
G37*
X398650000Y-122500000D03*
G36*
G01*
X404581000Y-121700000D02*
X404581000Y-123300000D01*
G75*
G02*
X404530000Y-123351000I-51000J0D01*
G01*
X402930000Y-123351000D01*
G75*
G02*
X402879000Y-123300000I0J51000D01*
G01*
X402879000Y-121700000D01*
G75*
G02*
X402930000Y-121649000I51000J0D01*
G01*
X404530000Y-121649000D01*
G75*
G02*
X404581000Y-121700000I0J-51000D01*
G01*
G37*
X411150000Y-122500000D03*
G36*
G01*
X417081000Y-121700000D02*
X417081000Y-123300000D01*
G75*
G02*
X417030000Y-123351000I-51000J0D01*
G01*
X415430000Y-123351000D01*
G75*
G02*
X415379000Y-123300000I0J51000D01*
G01*
X415379000Y-121700000D01*
G75*
G02*
X415430000Y-121649000I51000J0D01*
G01*
X417030000Y-121649000D01*
G75*
G02*
X417081000Y-121700000I0J-51000D01*
G01*
G37*
X423650000Y-122500000D03*
G36*
G01*
X429581000Y-121700000D02*
X429581000Y-123300000D01*
G75*
G02*
X429530000Y-123351000I-51000J0D01*
G01*
X427930000Y-123351000D01*
G75*
G02*
X427879000Y-123300000I0J51000D01*
G01*
X427879000Y-121700000D01*
G75*
G02*
X427930000Y-121649000I51000J0D01*
G01*
X429530000Y-121649000D01*
G75*
G02*
X429581000Y-121700000I0J-51000D01*
G01*
G37*
X148650000Y-118500000D03*
G36*
G01*
X154581000Y-117700000D02*
X154581000Y-119300000D01*
G75*
G02*
X154530000Y-119351000I-51000J0D01*
G01*
X152930000Y-119351000D01*
G75*
G02*
X152879000Y-119300000I0J51000D01*
G01*
X152879000Y-117700000D01*
G75*
G02*
X152930000Y-117649000I51000J0D01*
G01*
X154530000Y-117649000D01*
G75*
G02*
X154581000Y-117700000I0J-51000D01*
G01*
G37*
X166150000Y-118500000D03*
G36*
G01*
X172081000Y-117700000D02*
X172081000Y-119300000D01*
G75*
G02*
X172030000Y-119351000I-51000J0D01*
G01*
X170430000Y-119351000D01*
G75*
G02*
X170379000Y-119300000I0J51000D01*
G01*
X170379000Y-117700000D01*
G75*
G02*
X170430000Y-117649000I51000J0D01*
G01*
X172030000Y-117649000D01*
G75*
G02*
X172081000Y-117700000I0J-51000D01*
G01*
G37*
X183650000Y-118500000D03*
G36*
G01*
X189581000Y-117700000D02*
X189581000Y-119300000D01*
G75*
G02*
X189530000Y-119351000I-51000J0D01*
G01*
X187930000Y-119351000D01*
G75*
G02*
X187879000Y-119300000I0J51000D01*
G01*
X187879000Y-117700000D01*
G75*
G02*
X187930000Y-117649000I51000J0D01*
G01*
X189530000Y-117649000D01*
G75*
G02*
X189581000Y-117700000I0J-51000D01*
G01*
G37*
X201150000Y-118500000D03*
G36*
G01*
X207081000Y-117700000D02*
X207081000Y-119300000D01*
G75*
G02*
X207030000Y-119351000I-51000J0D01*
G01*
X205430000Y-119351000D01*
G75*
G02*
X205379000Y-119300000I0J51000D01*
G01*
X205379000Y-117700000D01*
G75*
G02*
X205430000Y-117649000I51000J0D01*
G01*
X207030000Y-117649000D01*
G75*
G02*
X207081000Y-117700000I0J-51000D01*
G01*
G37*
X218650000Y-118500000D03*
G36*
G01*
X224581000Y-117700000D02*
X224581000Y-119300000D01*
G75*
G02*
X224530000Y-119351000I-51000J0D01*
G01*
X222930000Y-119351000D01*
G75*
G02*
X222879000Y-119300000I0J51000D01*
G01*
X222879000Y-117700000D01*
G75*
G02*
X222930000Y-117649000I51000J0D01*
G01*
X224530000Y-117649000D01*
G75*
G02*
X224581000Y-117700000I0J-51000D01*
G01*
G37*
X236150000Y-118500000D03*
G36*
G01*
X242081000Y-117700000D02*
X242081000Y-119300000D01*
G75*
G02*
X242030000Y-119351000I-51000J0D01*
G01*
X240430000Y-119351000D01*
G75*
G02*
X240379000Y-119300000I0J51000D01*
G01*
X240379000Y-117700000D01*
G75*
G02*
X240430000Y-117649000I51000J0D01*
G01*
X242030000Y-117649000D01*
G75*
G02*
X242081000Y-117700000I0J-51000D01*
G01*
G37*
X253650000Y-118500000D03*
G36*
G01*
X259581000Y-117700000D02*
X259581000Y-119300000D01*
G75*
G02*
X259530000Y-119351000I-51000J0D01*
G01*
X257930000Y-119351000D01*
G75*
G02*
X257879000Y-119300000I0J51000D01*
G01*
X257879000Y-117700000D01*
G75*
G02*
X257930000Y-117649000I51000J0D01*
G01*
X259530000Y-117649000D01*
G75*
G02*
X259581000Y-117700000I0J-51000D01*
G01*
G37*
X271150000Y-118500000D03*
G36*
G01*
X277081000Y-117700000D02*
X277081000Y-119300000D01*
G75*
G02*
X277030000Y-119351000I-51000J0D01*
G01*
X275430000Y-119351000D01*
G75*
G02*
X275379000Y-119300000I0J51000D01*
G01*
X275379000Y-117700000D01*
G75*
G02*
X275430000Y-117649000I51000J0D01*
G01*
X277030000Y-117649000D01*
G75*
G02*
X277081000Y-117700000I0J-51000D01*
G01*
G37*
X288650000Y-118500000D03*
G36*
G01*
X294581000Y-117700000D02*
X294581000Y-119300000D01*
G75*
G02*
X294530000Y-119351000I-51000J0D01*
G01*
X292930000Y-119351000D01*
G75*
G02*
X292879000Y-119300000I0J51000D01*
G01*
X292879000Y-117700000D01*
G75*
G02*
X292930000Y-117649000I51000J0D01*
G01*
X294530000Y-117649000D01*
G75*
G02*
X294581000Y-117700000I0J-51000D01*
G01*
G37*
X306150000Y-118500000D03*
G36*
G01*
X312081000Y-117700000D02*
X312081000Y-119300000D01*
G75*
G02*
X312030000Y-119351000I-51000J0D01*
G01*
X310430000Y-119351000D01*
G75*
G02*
X310379000Y-119300000I0J51000D01*
G01*
X310379000Y-117700000D01*
G75*
G02*
X310430000Y-117649000I51000J0D01*
G01*
X312030000Y-117649000D01*
G75*
G02*
X312081000Y-117700000I0J-51000D01*
G01*
G37*
X323650000Y-118500000D03*
G36*
G01*
X329581000Y-117700000D02*
X329581000Y-119300000D01*
G75*
G02*
X329530000Y-119351000I-51000J0D01*
G01*
X327930000Y-119351000D01*
G75*
G02*
X327879000Y-119300000I0J51000D01*
G01*
X327879000Y-117700000D01*
G75*
G02*
X327930000Y-117649000I51000J0D01*
G01*
X329530000Y-117649000D01*
G75*
G02*
X329581000Y-117700000I0J-51000D01*
G01*
G37*
X398650000Y-118500000D03*
G36*
G01*
X404581000Y-117700000D02*
X404581000Y-119300000D01*
G75*
G02*
X404530000Y-119351000I-51000J0D01*
G01*
X402930000Y-119351000D01*
G75*
G02*
X402879000Y-119300000I0J51000D01*
G01*
X402879000Y-117700000D01*
G75*
G02*
X402930000Y-117649000I51000J0D01*
G01*
X404530000Y-117649000D01*
G75*
G02*
X404581000Y-117700000I0J-51000D01*
G01*
G37*
X423650000Y-118500000D03*
G36*
G01*
X429581000Y-117700000D02*
X429581000Y-119300000D01*
G75*
G02*
X429530000Y-119351000I-51000J0D01*
G01*
X427930000Y-119351000D01*
G75*
G02*
X427879000Y-119300000I0J51000D01*
G01*
X427879000Y-117700000D01*
G75*
G02*
X427930000Y-117649000I51000J0D01*
G01*
X429530000Y-117649000D01*
G75*
G02*
X429581000Y-117700000I0J-51000D01*
G01*
G37*
X461150000Y-118500000D03*
G36*
G01*
X467081000Y-117700000D02*
X467081000Y-119300000D01*
G75*
G02*
X467030000Y-119351000I-51000J0D01*
G01*
X465430000Y-119351000D01*
G75*
G02*
X465379000Y-119300000I0J51000D01*
G01*
X465379000Y-117700000D01*
G75*
G02*
X465430000Y-117649000I51000J0D01*
G01*
X467030000Y-117649000D01*
G75*
G02*
X467081000Y-117700000I0J-51000D01*
G01*
G37*
X148650000Y-114500000D03*
G36*
G01*
X154581000Y-113700000D02*
X154581000Y-115300000D01*
G75*
G02*
X154530000Y-115351000I-51000J0D01*
G01*
X152930000Y-115351000D01*
G75*
G02*
X152879000Y-115300000I0J51000D01*
G01*
X152879000Y-113700000D01*
G75*
G02*
X152930000Y-113649000I51000J0D01*
G01*
X154530000Y-113649000D01*
G75*
G02*
X154581000Y-113700000I0J-51000D01*
G01*
G37*
X166150000Y-114500000D03*
G36*
G01*
X172081000Y-113700000D02*
X172081000Y-115300000D01*
G75*
G02*
X172030000Y-115351000I-51000J0D01*
G01*
X170430000Y-115351000D01*
G75*
G02*
X170379000Y-115300000I0J51000D01*
G01*
X170379000Y-113700000D01*
G75*
G02*
X170430000Y-113649000I51000J0D01*
G01*
X172030000Y-113649000D01*
G75*
G02*
X172081000Y-113700000I0J-51000D01*
G01*
G37*
X201150000Y-114500000D03*
G36*
G01*
X207081000Y-113700000D02*
X207081000Y-115300000D01*
G75*
G02*
X207030000Y-115351000I-51000J0D01*
G01*
X205430000Y-115351000D01*
G75*
G02*
X205379000Y-115300000I0J51000D01*
G01*
X205379000Y-113700000D01*
G75*
G02*
X205430000Y-113649000I51000J0D01*
G01*
X207030000Y-113649000D01*
G75*
G02*
X207081000Y-113700000I0J-51000D01*
G01*
G37*
X253650000Y-114500000D03*
G36*
G01*
X259581000Y-113700000D02*
X259581000Y-115300000D01*
G75*
G02*
X259530000Y-115351000I-51000J0D01*
G01*
X257930000Y-115351000D01*
G75*
G02*
X257879000Y-115300000I0J51000D01*
G01*
X257879000Y-113700000D01*
G75*
G02*
X257930000Y-113649000I51000J0D01*
G01*
X259530000Y-113649000D01*
G75*
G02*
X259581000Y-113700000I0J-51000D01*
G01*
G37*
X323650000Y-114500000D03*
G36*
G01*
X329581000Y-113700000D02*
X329581000Y-115300000D01*
G75*
G02*
X329530000Y-115351000I-51000J0D01*
G01*
X327930000Y-115351000D01*
G75*
G02*
X327879000Y-115300000I0J51000D01*
G01*
X327879000Y-113700000D01*
G75*
G02*
X327930000Y-113649000I51000J0D01*
G01*
X329530000Y-113649000D01*
G75*
G02*
X329581000Y-113700000I0J-51000D01*
G01*
G37*
X398650000Y-114500000D03*
G36*
G01*
X404581000Y-113700000D02*
X404581000Y-115300000D01*
G75*
G02*
X404530000Y-115351000I-51000J0D01*
G01*
X402930000Y-115351000D01*
G75*
G02*
X402879000Y-115300000I0J51000D01*
G01*
X402879000Y-113700000D01*
G75*
G02*
X402930000Y-113649000I51000J0D01*
G01*
X404530000Y-113649000D01*
G75*
G02*
X404581000Y-113700000I0J-51000D01*
G01*
G37*
X423650000Y-114500000D03*
G36*
G01*
X429581000Y-113700000D02*
X429581000Y-115300000D01*
G75*
G02*
X429530000Y-115351000I-51000J0D01*
G01*
X427930000Y-115351000D01*
G75*
G02*
X427879000Y-115300000I0J51000D01*
G01*
X427879000Y-113700000D01*
G75*
G02*
X427930000Y-113649000I51000J0D01*
G01*
X429530000Y-113649000D01*
G75*
G02*
X429581000Y-113700000I0J-51000D01*
G01*
G37*
X436150000Y-114500000D03*
G36*
G01*
X442081000Y-113700000D02*
X442081000Y-115300000D01*
G75*
G02*
X442030000Y-115351000I-51000J0D01*
G01*
X440430000Y-115351000D01*
G75*
G02*
X440379000Y-115300000I0J51000D01*
G01*
X440379000Y-113700000D01*
G75*
G02*
X440430000Y-113649000I51000J0D01*
G01*
X442030000Y-113649000D01*
G75*
G02*
X442081000Y-113700000I0J-51000D01*
G01*
G37*
X448650000Y-114500000D03*
G36*
G01*
X454581000Y-113700000D02*
X454581000Y-115300000D01*
G75*
G02*
X454530000Y-115351000I-51000J0D01*
G01*
X452930000Y-115351000D01*
G75*
G02*
X452879000Y-115300000I0J51000D01*
G01*
X452879000Y-113700000D01*
G75*
G02*
X452930000Y-113649000I51000J0D01*
G01*
X454530000Y-113649000D01*
G75*
G02*
X454581000Y-113700000I0J-51000D01*
G01*
G37*
X461150000Y-114500000D03*
G36*
G01*
X467081000Y-113700000D02*
X467081000Y-115300000D01*
G75*
G02*
X467030000Y-115351000I-51000J0D01*
G01*
X465430000Y-115351000D01*
G75*
G02*
X465379000Y-115300000I0J51000D01*
G01*
X465379000Y-113700000D01*
G75*
G02*
X465430000Y-113649000I51000J0D01*
G01*
X467030000Y-113649000D01*
G75*
G02*
X467081000Y-113700000I0J-51000D01*
G01*
G37*
X473650000Y-114500000D03*
G36*
G01*
X479581000Y-113700000D02*
X479581000Y-115300000D01*
G75*
G02*
X479530000Y-115351000I-51000J0D01*
G01*
X477930000Y-115351000D01*
G75*
G02*
X477879000Y-115300000I0J51000D01*
G01*
X477879000Y-113700000D01*
G75*
G02*
X477930000Y-113649000I51000J0D01*
G01*
X479530000Y-113649000D01*
G75*
G02*
X479581000Y-113700000I0J-51000D01*
G01*
G37*
X306150000Y-134500000D03*
G36*
G01*
X312081000Y-133700000D02*
X312081000Y-135300000D01*
G75*
G02*
X312030000Y-135351000I-51000J0D01*
G01*
X310430000Y-135351000D01*
G75*
G02*
X310379000Y-135300000I0J51000D01*
G01*
X310379000Y-133700000D01*
G75*
G02*
X310430000Y-133649000I51000J0D01*
G01*
X312030000Y-133649000D01*
G75*
G02*
X312081000Y-133700000I0J-51000D01*
G01*
G37*
X323650000Y-134500000D03*
G36*
G01*
X329581000Y-133700000D02*
X329581000Y-135300000D01*
G75*
G02*
X329530000Y-135351000I-51000J0D01*
G01*
X327930000Y-135351000D01*
G75*
G02*
X327879000Y-135300000I0J51000D01*
G01*
X327879000Y-133700000D01*
G75*
G02*
X327930000Y-133649000I51000J0D01*
G01*
X329530000Y-133649000D01*
G75*
G02*
X329581000Y-133700000I0J-51000D01*
G01*
G37*
D21*
G36*
X162395598Y-233572061D02*
G01*
X162442614Y-233685566D01*
X162495450Y-233764641D01*
X162495581Y-233766637D01*
X162493918Y-233767748D01*
X162492241Y-233767021D01*
X162480717Y-233752979D01*
X162462080Y-233737683D01*
X162440817Y-233726318D01*
X162417742Y-233719318D01*
X162393751Y-233716955D01*
X162369759Y-233719318D01*
X162346684Y-233726318D01*
X162325421Y-233737683D01*
X162306784Y-233752978D01*
X162295259Y-233767021D01*
X162293387Y-233767725D01*
X162291841Y-233766456D01*
X162292050Y-233764641D01*
X162344886Y-233685566D01*
X162391902Y-233572061D01*
X162393489Y-233570843D01*
X162395598Y-233572061D01*
G37*
G36*
X162295259Y-232732979D02*
G01*
X162306783Y-232747021D01*
X162325420Y-232762317D01*
X162346683Y-232773682D01*
X162369758Y-232780682D01*
X162393749Y-232783045D01*
X162417741Y-232780682D01*
X162440816Y-232773682D01*
X162462079Y-232762317D01*
X162480716Y-232747022D01*
X162492241Y-232732979D01*
X162494113Y-232732275D01*
X162495659Y-232733544D01*
X162495450Y-232735359D01*
X162442614Y-232814434D01*
X162395598Y-232927939D01*
X162394011Y-232929157D01*
X162391902Y-232927939D01*
X162344886Y-232814434D01*
X162292050Y-232735359D01*
X162291919Y-232733363D01*
X162293582Y-232732252D01*
X162295259Y-232732979D01*
G37*
G36*
X393364311Y-214507061D02*
G01*
X393405114Y-214605566D01*
X393467971Y-214699639D01*
X393468102Y-214701635D01*
X393466439Y-214702746D01*
X393464762Y-214702019D01*
X393453240Y-214687979D01*
X393434604Y-214672684D01*
X393413340Y-214661318D01*
X393390265Y-214654318D01*
X393366274Y-214651955D01*
X393342283Y-214654318D01*
X393319208Y-214661318D01*
X393297944Y-214672683D01*
X393279307Y-214687978D01*
X393267784Y-214702019D01*
X393265912Y-214702723D01*
X393264366Y-214701454D01*
X393264575Y-214699639D01*
X393307386Y-214635566D01*
X393360615Y-214507061D01*
X393362202Y-214505843D01*
X393364311Y-214507061D01*
G37*
G36*
X393247738Y-213667981D02*
G01*
X393259260Y-213682021D01*
X393277896Y-213697316D01*
X393299160Y-213708682D01*
X393322235Y-213715682D01*
X393346226Y-213718045D01*
X393370217Y-213715682D01*
X393393292Y-213708682D01*
X393414556Y-213697317D01*
X393433193Y-213682022D01*
X393444716Y-213667981D01*
X393446588Y-213667277D01*
X393448134Y-213668546D01*
X393447925Y-213670361D01*
X393405114Y-213734434D01*
X393351885Y-213862939D01*
X393350298Y-213864157D01*
X393348189Y-213862939D01*
X393307386Y-213764434D01*
X393244529Y-213670361D01*
X393244398Y-213668365D01*
X393246061Y-213667254D01*
X393247738Y-213667981D01*
G37*
G36*
X412756389Y-207431360D02*
G01*
X412757032Y-207432474D01*
X412781562Y-207555793D01*
X412869257Y-207767508D01*
X412868996Y-207769491D01*
X412867148Y-207770256D01*
X412865863Y-207769542D01*
X412852844Y-207753678D01*
X412834207Y-207738383D01*
X412812944Y-207727018D01*
X412789869Y-207720018D01*
X412765878Y-207717655D01*
X412741887Y-207720018D01*
X412718812Y-207727018D01*
X412697548Y-207738383D01*
X412678911Y-207753679D01*
X412663616Y-207772316D01*
X412655053Y-207788337D01*
X412653354Y-207789393D01*
X412651591Y-207788450D01*
X412651441Y-207786629D01*
X412711507Y-207641616D01*
X412753108Y-207432474D01*
X412754427Y-207430970D01*
X412756389Y-207431360D01*
G37*
G36*
X412670396Y-206618703D02*
G01*
X412678958Y-206634724D01*
X412694253Y-206653361D01*
X412712890Y-206668656D01*
X412734154Y-206680021D01*
X412757229Y-206687021D01*
X412781220Y-206689384D01*
X412805211Y-206687021D01*
X412828286Y-206680021D01*
X412849550Y-206668656D01*
X412868187Y-206653361D01*
X412879715Y-206639314D01*
X412881587Y-206638610D01*
X412883133Y-206639879D01*
X412882924Y-206641694D01*
X412869634Y-206661584D01*
X412781562Y-206874207D01*
X412763000Y-206967526D01*
X412761681Y-206969030D01*
X412759719Y-206968640D01*
X412759076Y-206967526D01*
X412711507Y-206728384D01*
X412666784Y-206620411D01*
X412667045Y-206618428D01*
X412668893Y-206617663D01*
X412670396Y-206618703D01*
G37*
G36*
X409809333Y-206466827D02*
G01*
X409702090Y-206725734D01*
X409700503Y-206726952D01*
X409698655Y-206726187D01*
X409698252Y-206724773D01*
X409700632Y-206700618D01*
X409698269Y-206676627D01*
X409691269Y-206653552D01*
X409679904Y-206632288D01*
X409664609Y-206613651D01*
X409645972Y-206598356D01*
X409624708Y-206586991D01*
X409601633Y-206579991D01*
X409577642Y-206577628D01*
X409553651Y-206579991D01*
X409536259Y-206585267D01*
X409534311Y-206584813D01*
X409533730Y-206582899D01*
X409534913Y-206581505D01*
X409788012Y-206476668D01*
X409806374Y-206464399D01*
X409808370Y-206464268D01*
X409809333Y-206466827D01*
G37*
G36*
X410688382Y-205496862D02*
G01*
X410688709Y-205498661D01*
X410683433Y-205516052D01*
X410681070Y-205540043D01*
X410683433Y-205564034D01*
X410690433Y-205587109D01*
X410701798Y-205608373D01*
X410717093Y-205627010D01*
X410735730Y-205642305D01*
X410756994Y-205653670D01*
X410780069Y-205660670D01*
X410804060Y-205663033D01*
X410822140Y-205661252D01*
X410823962Y-205662077D01*
X410824158Y-205664067D01*
X410822726Y-205665204D01*
X410749634Y-205679743D01*
X410547148Y-205763615D01*
X410545165Y-205763354D01*
X410544720Y-205760656D01*
X410626668Y-205638012D01*
X410684947Y-205497315D01*
X410686534Y-205496097D01*
X410688382Y-205496862D01*
G37*
M02*
