M48
; DRILL file {KiCad (5.1.9)-1} date 04/17/21 21:59:52
; FORMAT={-:-/ absolute / metric / decimal}
; #@! TF.CreationDate,2021-04-17T21:59:52+01:00
; #@! TF.GenerationSoftware,Kicad,Pcbnew,(5.1.9)-1
; #@! TF.FileFunction,Plated,1,2,PTH
FMAT,2
METRIC
T1C0.400
T2C0.600
T3C0.700
T4C0.800
T5C0.900
T6C1.000
T7C1.020
T8C1.100
T9C1.470
%
G90
G05
T1
X308.25Y-114.75
X308.75Y-111.5
X313.053Y-114.314
X313.053Y-115.686
X326.2Y-116.45
X342.05Y-114.5
X345.64Y-120.45
X397.985Y-107.484
X466.225Y-109.525
X477.225Y-117.025
X481.525Y-121.025
X481.525Y-126.025
X481.525Y-131.025
X553.525Y-144.025
X555.525Y-155.525
T3
X482.73Y-111.275
X482.73Y-114.425
X490.35Y-111.275
X490.35Y-114.425
X512.905Y-129.025
X512.905Y-132.025
X512.905Y-135.025
X520.525Y-129.025
X520.525Y-132.025
X520.525Y-135.025
T4
X148.65Y-114.5
X148.65Y-118.5
X148.65Y-122.5
X148.65Y-126.5
X148.65Y-130.5
X148.65Y-134.5
X153.73Y-114.5
X153.73Y-118.5
X153.73Y-122.5
X153.73Y-126.5
X153.73Y-130.5
X153.73Y-134.5
X166.15Y-114.5
X166.15Y-118.5
X166.15Y-130.5
X171.23Y-114.5
X171.23Y-118.5
X171.23Y-130.5
X183.65Y-118.5
X183.65Y-122.5
X183.65Y-126.5
X183.65Y-130.5
X183.65Y-134.5
X188.73Y-118.5
X188.73Y-122.5
X188.73Y-126.5
X188.73Y-130.5
X188.73Y-134.5
X201.15Y-114.5
X201.15Y-118.5
X201.15Y-122.5
X201.15Y-126.5
X201.15Y-130.5
X201.15Y-134.5
X206.23Y-114.5
X206.23Y-118.5
X206.23Y-122.5
X206.23Y-126.5
X206.23Y-130.5
X206.23Y-134.5
X218.65Y-118.5
X218.65Y-122.5
X218.65Y-126.5
X218.65Y-130.5
X218.65Y-134.5
X223.73Y-118.5
X223.73Y-122.5
X223.73Y-126.5
X223.73Y-130.5
X223.73Y-134.5
X236.15Y-118.5
X236.15Y-122.5
X236.15Y-126.5
X236.15Y-130.5
X236.15Y-134.5
X241.23Y-118.5
X241.23Y-122.5
X241.23Y-126.5
X241.23Y-130.5
X241.23Y-134.5
X253.65Y-114.5
X253.65Y-118.5
X253.65Y-122.5
X253.65Y-126.5
X253.65Y-130.5
X258.73Y-114.5
X258.73Y-118.5
X258.73Y-122.5
X258.73Y-126.5
X258.73Y-130.5
X271.15Y-118.5
X271.15Y-122.5
X271.15Y-126.5
X271.15Y-130.5
X271.15Y-134.5
X276.23Y-118.5
X276.23Y-122.5
X276.23Y-126.5
X276.23Y-130.5
X276.23Y-134.5
X288.65Y-118.5
X288.65Y-122.5
X288.65Y-126.5
X288.65Y-130.5
X288.65Y-134.5
X293.73Y-118.5
X293.73Y-122.5
X293.73Y-126.5
X293.73Y-130.5
X293.73Y-134.5
X306.15Y-118.5
X306.15Y-122.5
X306.15Y-126.5
X306.15Y-130.5
X306.15Y-134.5
X311.23Y-118.5
X311.23Y-122.5
X311.23Y-126.5
X311.23Y-130.5
X311.23Y-134.5
X323.65Y-114.5
X323.65Y-118.5
X323.65Y-122.5
X323.65Y-126.5
X323.65Y-130.5
X323.65Y-134.5
X328.73Y-114.5
X328.73Y-118.5
X328.73Y-122.5
X328.73Y-126.5
X328.73Y-130.5
X328.73Y-134.5
X398.65Y-114.5
X398.65Y-118.5
X398.65Y-122.5
X398.65Y-126.5
X398.65Y-130.5
X398.65Y-134.5
X403.73Y-114.5
X403.73Y-118.5
X403.73Y-122.5
X403.73Y-126.5
X403.73Y-130.5
X403.73Y-134.5
X411.1Y-134.5
X411.15Y-122.5
X411.15Y-126.5
X411.15Y-130.5
X416.18Y-134.5
X416.23Y-122.5
X416.23Y-126.5
X416.23Y-130.5
X423.65Y-114.5
X423.65Y-118.5
X423.65Y-122.5
X423.65Y-126.5
X423.65Y-134.5
X428.73Y-114.5
X428.73Y-118.5
X428.73Y-122.5
X428.73Y-126.5
X428.73Y-134.5
X436.15Y-114.5
X436.15Y-122.5
X436.15Y-126.5
X436.15Y-130.5
X436.15Y-134.5
X441.23Y-114.5
X441.23Y-122.5
X441.23Y-126.5
X441.23Y-130.5
X441.23Y-134.5
X448.65Y-114.5
X448.65Y-126.5
X448.65Y-130.5
X448.65Y-134.5
X453.73Y-114.5
X453.73Y-126.5
X453.73Y-130.5
X453.73Y-134.5
X461.15Y-114.5
X461.15Y-118.5
X461.15Y-126.5
X461.15Y-130.5
X461.15Y-134.5
X466.23Y-114.5
X466.23Y-118.5
X466.23Y-126.5
X466.23Y-130.5
X466.23Y-134.5
X473.65Y-114.5
X473.65Y-126.5
X473.65Y-130.5
X473.65Y-134.5
X478.73Y-114.5
X478.73Y-126.5
X478.73Y-130.5
X478.73Y-134.5
X489.965Y-118.315
X489.965Y-125.935
X492.505Y-118.315
X492.505Y-125.935
X495.045Y-118.315
X495.045Y-125.935
X495.045Y-146.255
X495.045Y-151.335
X495.045Y-156.415
X495.045Y-161.495
X497.585Y-118.315
X497.585Y-125.935
X500.125Y-118.315
X500.125Y-125.935
X500.125Y-146.255
X500.125Y-151.335
X500.125Y-156.415
X500.125Y-161.495
X502.665Y-118.315
X502.665Y-125.935
X505.205Y-118.315
X505.205Y-125.935
X507.745Y-118.315
X507.745Y-125.935
X510.285Y-118.315
X510.285Y-125.935
X512.825Y-118.315
X512.825Y-125.935
X514.095Y-141.175
X514.095Y-146.255
X514.095Y-151.335
X514.095Y-156.415
X514.095Y-161.495
X515.365Y-118.315
X515.365Y-125.935
X517.905Y-118.315
X517.905Y-125.935
X519.175Y-141.175
X519.175Y-146.255
X519.175Y-151.335
X519.175Y-156.415
X519.175Y-161.495
X520.445Y-118.315
X520.445Y-125.935
X522.985Y-118.315
X522.985Y-125.935
X533.145Y-141.175
X533.145Y-146.255
X533.145Y-151.335
X533.145Y-156.415
X533.145Y-161.495
X538.225Y-141.175
X538.225Y-146.255
X538.225Y-151.335
X538.225Y-156.415
X538.225Y-161.495
X552.195Y-141.175
X552.195Y-151.335
X552.195Y-161.495
X557.275Y-141.175
X557.275Y-151.335
X557.275Y-161.495
T5
X433.775Y-214.275
X436.315Y-214.275
X452.775Y-214.275
X455.315Y-214.275
X471.775Y-214.025
X474.315Y-214.025
T6
X278.05Y-108.15
X278.05Y-112.65
X284.55Y-108.15
X284.55Y-112.65
X411.9Y-107.68
X411.9Y-110.22
X411.9Y-112.76
X411.9Y-115.3
X495.085Y-112.825
X497.535Y-130.015
X497.625Y-112.825
X500.075Y-130.015
X500.165Y-112.825
X502.615Y-130.015
X502.705Y-112.825
X505.245Y-112.825
X507.785Y-112.825
X510.325Y-112.825
X512.865Y-112.825
X515.405Y-112.825
X517.945Y-112.825
X520.485Y-112.825
X523.025Y-112.825
T7
X340.72Y-111.56
X340.72Y-129.34
X343.26Y-111.56
X343.26Y-129.34
X345.8Y-111.56
X345.8Y-129.34
X348.34Y-111.56
X348.34Y-129.34
X350.88Y-111.56
X350.88Y-129.34
X353.42Y-111.56
X353.42Y-129.34
X355.96Y-111.56
X355.96Y-129.34
X358.5Y-111.56
X358.5Y-129.34
X361.04Y-111.56
X361.04Y-129.34
X363.58Y-111.56
X363.58Y-129.34
X366.12Y-111.56
X366.12Y-129.34
X368.66Y-111.56
X368.66Y-129.34
X371.2Y-111.56
X371.2Y-129.34
X373.74Y-111.56
X373.74Y-129.34
X376.28Y-111.56
X376.28Y-129.34
X378.82Y-111.56
X378.82Y-129.34
X381.36Y-111.56
X381.36Y-129.34
X383.9Y-111.56
X383.9Y-129.34
X386.44Y-111.56
X386.44Y-129.34
X388.75Y-117.91
X388.75Y-120.45
X388.75Y-122.99
X388.98Y-111.56
X388.98Y-129.34
T8
X340.725Y-119.434
X340.725Y-121.466
T9
X140.715Y-144.985
X140.715Y-173.56
X143.096Y-230.71
X143.096Y-249.76
X145.477Y-192.61
X147.065Y-142.445
X147.065Y-171.02
X147.859Y-211.66
X149.446Y-228.17
X149.446Y-247.22
X151.827Y-190.07
X152.64Y-230.71
X154.209Y-209.12
X158.99Y-228.17
X159.765Y-173.56
X164.528Y-230.71
X166.115Y-171.02
X166.909Y-249.76
X169.29Y-192.61
X170.877Y-228.17
X173.259Y-247.22
X174.052Y-211.66
X175.64Y-190.07
X178.815Y-144.985
X178.815Y-173.56
X180.403Y-209.12
X183.577Y-230.71
X185.165Y-142.445
X185.165Y-171.02
X188.34Y-192.61
X189.927Y-228.17
X190.721Y-249.76
X193.102Y-211.66
X194.69Y-190.07
X197.071Y-247.22
X197.865Y-144.985
X197.865Y-173.56
X199.452Y-209.12
X202.627Y-230.71
X204.215Y-142.445
X204.215Y-171.02
X207.39Y-192.61
X208.977Y-228.17
X212.153Y-211.66
X213.74Y-190.07
X216.915Y-144.985
X216.915Y-173.56
X218.502Y-209.12
X221.677Y-230.71
X223.265Y-142.445
X223.265Y-171.02
X226.44Y-192.61
X228.028Y-228.17
X231.202Y-211.66
X232.79Y-190.07
X235.965Y-144.985
X235.965Y-173.56
X237.552Y-209.12
X240.727Y-230.71
X242.315Y-142.445
X242.315Y-171.02
X245.49Y-192.61
X247.077Y-228.17
X250.252Y-211.66
X251.84Y-190.07
X255.015Y-173.56
X256.602Y-209.12
X259.777Y-230.71
X261.365Y-171.02
X262.159Y-249.76
X264.54Y-144.985
X264.54Y-192.61
X266.127Y-228.17
X268.509Y-247.22
X269.303Y-211.66
X270.89Y-142.445
X270.89Y-190.07
X274.065Y-173.56
X275.652Y-209.12
X278.827Y-230.71
X280.415Y-171.02
X283.59Y-144.985
X283.59Y-192.61
X285.178Y-228.17
X288.352Y-211.66
X289.94Y-142.445
X289.94Y-190.07
X293.115Y-173.56
X294.702Y-209.12
X297.877Y-230.71
X299.465Y-171.02
X302.64Y-144.985
X302.64Y-192.61
X304.227Y-228.17
X307.402Y-211.66
X308.99Y-142.445
X308.99Y-190.07
X312.165Y-173.56
X313.752Y-209.12
X316.928Y-230.71
X318.515Y-171.02
X321.69Y-144.985
X321.69Y-192.61
X323.277Y-228.17
X326.452Y-211.66
X328.04Y-142.445
X328.04Y-190.07
X331.215Y-173.56
X332.803Y-209.12
X333.596Y-249.76
X335.977Y-230.71
X337.565Y-171.02
X339.946Y-247.22
X340.74Y-192.61
X342.327Y-228.17
X345.502Y-211.66
X347.09Y-190.07
X350.265Y-144.985
X350.265Y-173.56
X351.852Y-209.12
X355.027Y-230.71
X356.615Y-142.445
X356.615Y-171.02
X357.409Y-249.76
X359.79Y-192.61
X361.377Y-228.17
X363.759Y-247.22
X364.553Y-211.66
X366.14Y-190.07
X369.315Y-144.985
X369.315Y-173.56
X370.902Y-209.12
X375.665Y-142.445
X375.665Y-171.02
X378.84Y-192.61
X381.221Y-249.76
X383.602Y-211.66
X385.19Y-190.07
X387.571Y-247.22
X388.365Y-144.985
X389.952Y-209.12
X390.746Y-230.71
X394.715Y-142.445
X395.49Y-211.63
X397.096Y-228.17
X397.89Y-173.56
X401.84Y-209.09
X402.64Y-192.585
X404.24Y-171.02
X405.034Y-249.76
X407.415Y-144.985
X408.99Y-190.045
X411.365Y-200.865
X411.384Y-247.22
X413.765Y-142.445
X413.905Y-207.215
X431.227Y-144.985
X431.227Y-173.56
X431.227Y-192.61
X431.227Y-249.76
X437.577Y-142.445
X437.577Y-171.02
X437.577Y-190.07
X437.577Y-247.22
X450.277Y-144.985
X450.277Y-173.56
X450.277Y-192.61
X450.277Y-230.71
X450.277Y-249.76
X456.627Y-142.445
X456.627Y-171.02
X456.627Y-190.07
X456.627Y-228.17
X456.627Y-247.22
X469.327Y-144.985
X469.327Y-173.56
X469.327Y-192.61
X469.327Y-249.76
X475.677Y-142.445
X475.677Y-171.02
X475.677Y-190.07
X475.677Y-247.22
X493.14Y-173.56
X493.14Y-192.61
X493.14Y-211.66
X493.14Y-230.71
X499.49Y-171.02
X499.49Y-190.07
X499.49Y-209.12
X499.49Y-228.17
X502.665Y-249.76
X509.015Y-247.22
X512.19Y-173.56
X512.19Y-192.61
X512.19Y-211.66
X512.19Y-230.71
X518.54Y-171.02
X518.54Y-190.07
X518.54Y-209.12
X518.54Y-228.17
X531.24Y-173.56
X531.24Y-192.61
X531.24Y-211.66
X531.24Y-230.71
X531.24Y-249.76
X537.59Y-171.02
X537.59Y-190.07
X537.59Y-209.12
X537.59Y-228.17
X537.59Y-247.22
X550.29Y-173.56
X556.64Y-171.02
X556.64Y-200.865
X556.64Y-238.965
X559.18Y-207.215
X559.18Y-245.315
T2
X304.205Y-108.45G85X304.205Y-107.85
G05
X304.205Y-112.88G85X304.205Y-111.78
G05
X312.845Y-108.45G85X312.845Y-107.85
G05
X312.845Y-112.88G85X312.845Y-111.78
G05
T0
M30
