G04 #@! TF.GenerationSoftware,KiCad,Pcbnew,(5.1.9)-1*
G04 #@! TF.CreationDate,2021-04-20T10:13:08+01:00*
G04 #@! TF.ProjectId,ENV_KB,454e565f-4b42-42e6-9b69-6361645f7063,Rev.1*
G04 #@! TF.SameCoordinates,Original*
G04 #@! TF.FileFunction,Paste,Top*
G04 #@! TF.FilePolarity,Positive*
%FSLAX46Y46*%
G04 Gerber Fmt 4.6, Leading zero omitted, Abs format (unit mm)*
G04 Created by KiCad (PCBNEW (5.1.9)-1) date 2021-04-20 10:13:08*
%MOMM*%
%LPD*%
G01*
G04 APERTURE LIST*
%ADD10R,0.300000X1.450000*%
%ADD11R,0.600000X1.450000*%
G04 APERTURE END LIST*
D10*
X308775000Y-113245000D03*
X306775000Y-113245000D03*
X307275000Y-113245000D03*
X307775000Y-113245000D03*
X308275000Y-113245000D03*
X309275000Y-113245000D03*
X309775000Y-113245000D03*
X310275000Y-113245000D03*
D11*
X305275000Y-113245000D03*
X306075000Y-113245000D03*
X310975000Y-113245000D03*
X311775000Y-113245000D03*
X311775000Y-113245000D03*
X310975000Y-113245000D03*
X306075000Y-113245000D03*
X305275000Y-113245000D03*
G36*
G01*
X295429999Y-110855000D02*
X296230001Y-110855000D01*
G75*
G02*
X296480000Y-111104999I0J-249999D01*
G01*
X296480000Y-111930001D01*
G75*
G02*
X296230001Y-112180000I-249999J0D01*
G01*
X295429999Y-112180000D01*
G75*
G02*
X295180000Y-111930001I0J249999D01*
G01*
X295180000Y-111104999D01*
G75*
G02*
X295429999Y-110855000I249999J0D01*
G01*
G37*
G36*
G01*
X295429999Y-112780000D02*
X296230001Y-112780000D01*
G75*
G02*
X296480000Y-113029999I0J-249999D01*
G01*
X296480000Y-113855001D01*
G75*
G02*
X296230001Y-114105000I-249999J0D01*
G01*
X295429999Y-114105000D01*
G75*
G02*
X295180000Y-113855001I0J249999D01*
G01*
X295180000Y-113029999D01*
G75*
G02*
X295429999Y-112780000I249999J0D01*
G01*
G37*
G36*
G01*
X297999998Y-112880000D02*
X298900002Y-112880000D01*
G75*
G02*
X299150000Y-113129998I0J-249998D01*
G01*
X299150000Y-113655002D01*
G75*
G02*
X298900002Y-113905000I-249998J0D01*
G01*
X297999998Y-113905000D01*
G75*
G02*
X297750000Y-113655002I0J249998D01*
G01*
X297750000Y-113129998D01*
G75*
G02*
X297999998Y-112880000I249998J0D01*
G01*
G37*
G36*
G01*
X297999998Y-111055000D02*
X298900002Y-111055000D01*
G75*
G02*
X299150000Y-111304998I0J-249998D01*
G01*
X299150000Y-111830002D01*
G75*
G02*
X298900002Y-112080000I-249998J0D01*
G01*
X297999998Y-112080000D01*
G75*
G02*
X297750000Y-111830002I0J249998D01*
G01*
X297750000Y-111304998D01*
G75*
G02*
X297999998Y-111055000I249998J0D01*
G01*
G37*
G36*
G01*
X300465000Y-112720000D02*
X300835000Y-112720000D01*
G75*
G02*
X300970000Y-112855000I0J-135000D01*
G01*
X300970000Y-113125000D01*
G75*
G02*
X300835000Y-113260000I-135000J0D01*
G01*
X300465000Y-113260000D01*
G75*
G02*
X300330000Y-113125000I0J135000D01*
G01*
X300330000Y-112855000D01*
G75*
G02*
X300465000Y-112720000I135000J0D01*
G01*
G37*
G36*
G01*
X300465000Y-111700000D02*
X300835000Y-111700000D01*
G75*
G02*
X300970000Y-111835000I0J-135000D01*
G01*
X300970000Y-112105000D01*
G75*
G02*
X300835000Y-112240000I-135000J0D01*
G01*
X300465000Y-112240000D01*
G75*
G02*
X300330000Y-112105000I0J135000D01*
G01*
X300330000Y-111835000D01*
G75*
G02*
X300465000Y-111700000I135000J0D01*
G01*
G37*
G36*
G01*
X301825000Y-111700000D02*
X302195000Y-111700000D01*
G75*
G02*
X302330000Y-111835000I0J-135000D01*
G01*
X302330000Y-112105000D01*
G75*
G02*
X302195000Y-112240000I-135000J0D01*
G01*
X301825000Y-112240000D01*
G75*
G02*
X301690000Y-112105000I0J135000D01*
G01*
X301690000Y-111835000D01*
G75*
G02*
X301825000Y-111700000I135000J0D01*
G01*
G37*
G36*
G01*
X301825000Y-112720000D02*
X302195000Y-112720000D01*
G75*
G02*
X302330000Y-112855000I0J-135000D01*
G01*
X302330000Y-113125000D01*
G75*
G02*
X302195000Y-113260000I-135000J0D01*
G01*
X301825000Y-113260000D01*
G75*
G02*
X301690000Y-113125000I0J135000D01*
G01*
X301690000Y-112855000D01*
G75*
G02*
X301825000Y-112720000I135000J0D01*
G01*
G37*
M02*
