G04 #@! TF.GenerationSoftware,KiCad,Pcbnew,(5.1.9)-1*
G04 #@! TF.CreationDate,2021-05-12T05:53:46+01:00*
G04 #@! TF.ProjectId,ENV_KB,454e565f-4b42-42e6-9b69-6361645f7063,Rev.1*
G04 #@! TF.SameCoordinates,Original*
G04 #@! TF.FileFunction,Paste,Top*
G04 #@! TF.FilePolarity,Positive*
%FSLAX46Y46*%
G04 Gerber Fmt 4.6, Leading zero omitted, Abs format (unit mm)*
G04 Created by KiCad (PCBNEW (5.1.9)-1) date 2021-05-12 05:53:46*
%MOMM*%
%LPD*%
G01*
G04 APERTURE LIST*
%ADD10R,1.550000X1.000000*%
%ADD11R,0.300000X1.450000*%
%ADD12R,0.600000X1.450000*%
G04 APERTURE END LIST*
D10*
X301900000Y-108050000D03*
X296650000Y-108050000D03*
X296650000Y-106350000D03*
X301900000Y-106350000D03*
G36*
G01*
X303300000Y-112570000D02*
X303670000Y-112570000D01*
G75*
G02*
X303805000Y-112705000I0J-135000D01*
G01*
X303805000Y-112975000D01*
G75*
G02*
X303670000Y-113110000I-135000J0D01*
G01*
X303300000Y-113110000D01*
G75*
G02*
X303165000Y-112975000I0J135000D01*
G01*
X303165000Y-112705000D01*
G75*
G02*
X303300000Y-112570000I135000J0D01*
G01*
G37*
G36*
G01*
X303300000Y-111550000D02*
X303670000Y-111550000D01*
G75*
G02*
X303805000Y-111685000I0J-135000D01*
G01*
X303805000Y-111955000D01*
G75*
G02*
X303670000Y-112090000I-135000J0D01*
G01*
X303300000Y-112090000D01*
G75*
G02*
X303165000Y-111955000I0J135000D01*
G01*
X303165000Y-111685000D01*
G75*
G02*
X303300000Y-111550000I135000J0D01*
G01*
G37*
G36*
G01*
X301940000Y-111550000D02*
X302310000Y-111550000D01*
G75*
G02*
X302445000Y-111685000I0J-135000D01*
G01*
X302445000Y-111955000D01*
G75*
G02*
X302310000Y-112090000I-135000J0D01*
G01*
X301940000Y-112090000D01*
G75*
G02*
X301805000Y-111955000I0J135000D01*
G01*
X301805000Y-111685000D01*
G75*
G02*
X301940000Y-111550000I135000J0D01*
G01*
G37*
G36*
G01*
X301940000Y-112570000D02*
X302310000Y-112570000D01*
G75*
G02*
X302445000Y-112705000I0J-135000D01*
G01*
X302445000Y-112975000D01*
G75*
G02*
X302310000Y-113110000I-135000J0D01*
G01*
X301940000Y-113110000D01*
G75*
G02*
X301805000Y-112975000I0J135000D01*
G01*
X301805000Y-112705000D01*
G75*
G02*
X301940000Y-112570000I135000J0D01*
G01*
G37*
G36*
G01*
X299474998Y-110905000D02*
X300375002Y-110905000D01*
G75*
G02*
X300625000Y-111154998I0J-249998D01*
G01*
X300625000Y-111680002D01*
G75*
G02*
X300375002Y-111930000I-249998J0D01*
G01*
X299474998Y-111930000D01*
G75*
G02*
X299225000Y-111680002I0J249998D01*
G01*
X299225000Y-111154998D01*
G75*
G02*
X299474998Y-110905000I249998J0D01*
G01*
G37*
G36*
G01*
X299474998Y-112730000D02*
X300375002Y-112730000D01*
G75*
G02*
X300625000Y-112979998I0J-249998D01*
G01*
X300625000Y-113505002D01*
G75*
G02*
X300375002Y-113755000I-249998J0D01*
G01*
X299474998Y-113755000D01*
G75*
G02*
X299225000Y-113505002I0J249998D01*
G01*
X299225000Y-112979998D01*
G75*
G02*
X299474998Y-112730000I249998J0D01*
G01*
G37*
G36*
G01*
X296904999Y-112630000D02*
X297705001Y-112630000D01*
G75*
G02*
X297955000Y-112879999I0J-249999D01*
G01*
X297955000Y-113705001D01*
G75*
G02*
X297705001Y-113955000I-249999J0D01*
G01*
X296904999Y-113955000D01*
G75*
G02*
X296655000Y-113705001I0J249999D01*
G01*
X296655000Y-112879999D01*
G75*
G02*
X296904999Y-112630000I249999J0D01*
G01*
G37*
G36*
G01*
X296904999Y-110705000D02*
X297705001Y-110705000D01*
G75*
G02*
X297955000Y-110954999I0J-249999D01*
G01*
X297955000Y-111780001D01*
G75*
G02*
X297705001Y-112030000I-249999J0D01*
G01*
X296904999Y-112030000D01*
G75*
G02*
X296655000Y-111780001I0J249999D01*
G01*
X296655000Y-110954999D01*
G75*
G02*
X296904999Y-110705000I249999J0D01*
G01*
G37*
D11*
X310250000Y-113095000D03*
X308250000Y-113095000D03*
X308750000Y-113095000D03*
X309250000Y-113095000D03*
X309750000Y-113095000D03*
X310750000Y-113095000D03*
X311250000Y-113095000D03*
X311750000Y-113095000D03*
D12*
X306750000Y-113095000D03*
X307550000Y-113095000D03*
X312450000Y-113095000D03*
X313250000Y-113095000D03*
X313250000Y-113095000D03*
X312450000Y-113095000D03*
X307550000Y-113095000D03*
X306750000Y-113095000D03*
M02*
