0
SECTION
2
HEADER
9
$INSUNITS
70
4
9
$ACADVER
1
AC1014
9
$HANDSEED
5
FFFF
0
ENDSEC
0
SECTION
2
TABLES
0
TABLE
2
VPORT
5
8
100
AcDbSymbolTable
0
ENDTAB
0
TABLE
2
LTYPE
5
5
100
AcDbSymbolTable
0
LTYPE
5
14
100
AcDbSymbolTableRecord
100
AcDbLinetypeTableRecord
2
BYBLOCK
70
0
0
LTYPE
5
15
100
AcDbSymbolTableRecord
100
AcDbLinetypeTableRecord
2
BYLAYER
70
0
0
ENDTAB
0
TABLE
2
LAYER
5
2
100
AcDbSymbolTable
70
2
0
LAYER
5
50
100
AcDbSymbolTableRecord
100
AcDbLayerTableRecord
2
0
70
0
6
CONTINUOUS
0
ENDTAB
0
TABLE
2
STYLE
5
3
100
AcDbSymbolTable
70
1
0
STYLE
5
11
100
AcDbSymbolTableRecord
100
AcDbTextStyleTableRecord
2
STANDARD
70
0
0
ENDTAB
0
TABLE
2
VIEW
5
6
100
AcDbSymbolTable
70
0
0
ENDTAB
0
TABLE
2
UCS
5
7
100
AcDbSymbolTable
70
0
0
ENDTAB
0
TABLE
2
APPID
5
9
100
AcDbSymbolTable
70
2
0
APPID
5
12
100
AcDbSymbolTableRecord
100
AcDbRegAppTableRecord
2
ACAD
70
0
0
ENDTAB
0
TABLE
2
DIMSTYLE
5
A
100
AcDbSymbolTable
70
1
0
ENDTAB
0
TABLE
2
BLOCK_RECORD
5
1
100
AcDbSymbolTable
70
1
0
BLOCK_RECORD
5
1F
100
AcDbSymbolTableRecord
100
AcDbBlockTableRecord
2
*MODEL_SPACE
0
BLOCK_RECORD
5
1B
100
AcDbSymbolTableRecord
100
AcDbBlockTableRecord
2
*PAPER_SPACE
0
ENDTAB
0
ENDSEC
0
SECTION
2
BLOCKS
0
BLOCK
5
20
100
AcDbEntity
100
AcDbBlockBegin
2
*MODEL_SPACE
0
ENDBLK
5
21
100
AcDbEntity
100
AcDbBlockEnd
0
BLOCK
5
1C
100
AcDbEntity
100
AcDbBlockBegin
2
*PAPER_SPACE
0
ENDBLK
5
1D
100
AcDbEntity
100
AcDbBlockEnd
0
ENDSEC
0
SECTION
2
ENTITIES
0
CIRCLE
5
100
100
AcDbEntity
8
0
100
AcDbCircle
10
-203.90000000000001
20
176
30
0
40
1.099999999999997
210
0
220
-0
230
1
0
CIRCLE
5
101
100
AcDbEntity
8
0
100
AcDbCircle
10
-379.60000000000002
20
193.40000000000003
30
0
40
1.099999999999997
210
0
220
-0
230
1
0
CIRCLE
5
102
100
AcDbEntity
8
0
100
AcDbCircle
10
-40.100000000000009
20
196.30000000000001
30
0
40
1.099999999999997
210
0
220
-0
230
1
0
CIRCLE
5
103
100
AcDbEntity
8
0
100
AcDbCircle
10
-325.20000000000005
20
209.90000000000003
30
0
40
1.099999999999997
210
0
220
-0
230
1
0
CIRCLE
5
104
100
AcDbEntity
8
0
100
AcDbCircle
10
-376
20
116.00000000000001
30
0
40
1.099999999999997
210
0
220
-0
230
1
0
CIRCLE
5
105
100
AcDbEntity
8
0
100
AcDbCircle
10
-212.19999999999999
20
116.00000000000001
30
0
40
1.099999999999997
210
0
220
-0
230
1
0
CIRCLE
5
106
100
AcDbEntity
8
0
100
AcDbCircle
10
-48.299999999999997
20
116.00000000000001
30
0
40
1.099999999999997
210
0
220
-0
230
1
0
LWPOLYLINE
5
107
100
AcDbEntity
8
0
100
AcDbPolyline
90
8
70
1
43
0.0
10
-64.016052871680614
20
180.42855300222087
42
0.41421356237313667
10
-63.516052871680614
20
180.92855300222087
10
-63.516052871680621
20
193.92855300222089
42
0.4142135623730222
10
-64.016052871680614
20
194.42855300222089
10
-77.016052871680628
20
194.42855300222089
42
0.41421356237312623
10
-77.516052871680628
20
193.92855300222089
10
-77.516052871680628
20
180.92855300222087
42
0.41421356237307422
10
-77.016052871680628
20
180.42855300222087
0
LWPOLYLINE
5
108
100
AcDbEntity
8
0
100
AcDbPolyline
90
8
70
1
43
0.0
10
-220.39105287168064
20
161.87855300222088
42
0.41421356237309503
10
-219.89105287168064
20
161.37855300222094
10
-206.89105287168061
20
161.37855300222088
42
0.41421356237313667
10
-206.39105287168061
20
161.87855300222088
10
-206.39105287168064
20
174.87855300222088
42
0.41421356237309503
10
-206.89105287168061
20
175.37855300222091
10
-219.89105287168064
20
175.37855300222088
42
0.41421356237313667
10
-220.39105287168067
20
174.87855300222088
0
LWPOLYLINE
5
109
100
AcDbEntity
8
0
100
AcDbPolyline
90
8
70
1
43
0.0
10
-270.39730287168061
20
199.97855300222088
42
0.41421356237311585
10
-269.89730287168067
20
199.47855300222088
10
-256.89730287168061
20
199.47855300222088
42
0.41421356237313667
10
-256.39730287168061
20
199.97855300222088
10
-256.39730287168061
20
212.97855300222091
42
0.41421356237309503
10
-256.89730287168061
20
213.47855300222085
10
-269.89730287168067
20
213.47855300222085
42
0.41421356237309503
10
-270.39730287168061
20
212.97855300222091
0
LWPOLYLINE
5
110
100
AcDbEntity
8
0
100
AcDbPolyline
90
8
70
1
43
0.0
10
-221.64730287168061
20
199.97855300222088
10
-221.64730287168067
20
213.97855300222088
42
-0.41421356237313667
10
-221.14730287168067
20
214.47855300222088
10
-215.14730287168064
20
214.47855300222091
42
-0.4142135623730534
10
-214.64730287168061
20
213.97855300222088
10
-214.64730287168064
20
199.97855300222088
42
-0.41421356237313667
10
-215.14730287168064
20
199.47855300222088
10
-221.14730287168067
20
199.47855300222088
42
-0.41421356237311585
0
LWPOLYLINE
5
111
100
AcDbEntity
8
0
100
AcDbPolyline
90
8
70
1
43
0.0
10
-282.30355287168067
20
123.77855300222087
10
-282.30355287168061
20
136.77855300222089
42
-0.41421356237310542
10
-281.80355287168061
20
137.27855300222089
10
-268.80355287168067
20
137.27855300222092
42
-0.4142135623730846
10
-268.30355287168061
20
136.77855300222089
10
-268.30355287168067
20
123.77855300222087
42
-0.41421356237310542
10
-268.80355287168067
20
123.27855300222086
10
-281.80355287168061
20
123.27855300222085
42
-0.4142135623730846
0
LWPOLYLINE
5
112
100
AcDbEntity
8
0
100
AcDbPolyline
90
8
70
1
43
0.0
10
-230.70355287168064
20
123.27855300222086
10
-243.70355287168067
20
123.2785530022209
42
-0.41421356237309503
10
-244.20355287168064
20
123.77855300222087
10
-244.20355287168064
20
136.77855300222089
42
-0.41421356237310542
10
-243.70355287168067
20
137.27855300222089
10
-230.70355287168064
20
137.27855300222086
42
-0.41421356237309503
10
-230.20355287168064
20
136.77855300222089
10
-230.20355287168064
20
123.77855300222087
42
-0.41421356237310542
0
LWPOLYLINE
5
113
100
AcDbEntity
8
0
100
AcDbPolyline
90
8
70
1
43
0.0
10
-263.25355287168065
20
123.77855300222087
10
-263.2535528716806
20
136.77855300222089
42
-0.41421356237310542
10
-262.7535528716806
20
137.27855300222089
10
-249.75355287168065
20
137.27855300222092
42
-0.4142135623730846
10
-249.2535528716806
20
136.77855300222089
10
-249.25355287168065
20
123.77855300222087
42
-0.41421356237310542
10
-249.75355287168065
20
123.27855300222086
10
-262.7535528716806
20
123.27855300222085
42
-0.4142135623730846
0
LWPOLYLINE
5
114
100
AcDbEntity
8
0
100
AcDbPolyline
90
8
70
1
43
0.0
10
-368.81605287168065
20
123.27855300222086
42
0.41421356237313667
10
-368.3160528716806
20
123.77855300222087
10
-368.31605287168065
20
136.77855300222089
42
0.4142135623730222
10
-368.81605287168065
20
137.27855300222086
10
-381.8160528716806
20
137.27855300222086
42
0.41421356237318868
10
-382.3160528716806
20
136.77855300222089
10
-382.31605287168065
20
123.77855300222087
42
0.41421356237309503
10
-381.8160528716806
20
123.27855300222083
0
LWPOLYLINE
5
115
100
AcDbEntity
8
0
100
AcDbPolyline
90
8
70
1
43
0.0
10
-343.71605287168063
20
137.27855300222089
10
-330.71605287168069
20
137.27855300222097
42
-0.41421356237303258
10
-330.21605287168063
20
136.77855300222089
10
-330.21605287168074
20
123.77855300222087
42
-0.41421356237312623
10
-330.71605287168069
20
123.27855300222086
10
-343.71605287168063
20
123.27855300222089
42
-0.4142135623730222
10
-344.21605287168063
20
123.77855300222087
10
-344.21605287168063
20
136.77855300222089
42
-0.41421356237312623
0
LWPOLYLINE
5
116
100
AcDbEntity
8
0
100
AcDbPolyline
90
8
70
1
43
0.0
10
-124.64105287168064
20
175.37855300222088
42
0.41421356237310542
10
-125.14105287168066
20
174.87855300222088
10
-125.14105287168064
20
161.87855300222088
42
0.41421356237310542
10
-124.64105287168064
20
161.37855300222088
10
-111.64105287168063
20
161.37855300222088
42
0.41421356237310542
10
-111.14105287168061
20
161.87855300222088
10
-111.14105287168061
20
174.87855300222088
42
0.41421356237310542
10
-111.64105287168063
20
175.37855300222088
0
LWPOLYLINE
5
117
100
AcDbEntity
8
0
100
AcDbPolyline
90
8
70
1
43
0.0
10
-161.14730287168067
20
212.97855300222091
42
0.41421356237309503
10
-161.64730287168061
20
213.47855300222085
10
-174.64730287168064
20
213.47855300222085
42
0.41421356237311585
10
-175.14730287168061
20
212.97855300222091
10
-175.14730287168064
20
199.97855300222088
42
0.4142135623731783
10
-174.64730287168064
20
199.47855300222088
10
-161.64730287168061
20
199.47855300222088
42
0.41421356237313667
10
-161.14730287168061
20
199.97855300222088
0
LWPOLYLINE
5
118
100
AcDbEntity
8
0
100
AcDbPolyline
90
8
70
1
43
0.0
10
-129.40355287168063
20
137.27855300222089
10
-116.40355287168062
20
137.27855300222089
42
-0.41421356237312623
10
-115.90355287168063
20
136.77855300222089
10
-115.9035528716806
20
123.77855300222087
42
-0.41421356237307422
10
-116.40355287168062
20
123.27855300222086
10
-129.40355287168063
20
123.27855300222086
42
-0.41421356237307422
10
-129.90355287168063
20
123.77855300222087
10
-129.90355287168063
20
136.77855300222089
42
-0.41421356237307422
0
LWPOLYLINE
5
119
100
AcDbEntity
8
0
100
AcDbPolyline
90
8
70
1
43
0.0
10
-44.466052871680617
20
155.82855300222087
10
-44.46605287168061
20
142.82855300222087
42
-0.41421356237310025
10
-44.966052871680624
20
142.32855300222087
10
-57.966052871680624
20
142.32855300222087
42
-0.41421356237308982
10
-58.466052871680617
20
142.82855300222087
10
-58.466052871680631
20
155.82855300222087
42
-0.41421356237307422
10
-57.966052871680624
20
156.32855300222087
10
-44.966052871680624
20
156.32855300222087
42
-0.41421356237307944
0
LWPOLYLINE
5
120
100
AcDbEntity
8
0
100
AcDbPolyline
90
8
70
1
43
0.0
10
-330.71605287168069
20
142.32855300222087
10
-343.71605287168063
20
142.3285530022209
42
-0.4142135623730222
10
-344.21605287168063
20
142.82855300222087
10
-344.21605287168063
20
155.82855300222087
42
-0.41421356237310542
10
-343.71605287168063
20
156.32855300222087
10
-330.71605287168069
20
156.32855300222099
42
-0.41421356237304302
10
-330.21605287168063
20
155.82855300222087
10
-330.21605287168074
20
142.82855300222087
42
-0.41421356237312623
0
LWPOLYLINE
5
121
100
AcDbEntity
8
0
100
AcDbPolyline
90
8
70
1
43
0.0
10
-368.31605287168065
20
212.97855300222091
10
-368.3160528716806
20
199.97855300222088
42
-0.41421356237313667
10
-368.81605287168065
20
199.47855300222088
10
-381.81605287168054
20
199.47855300222088
42
-0.41421356237303258
10
-382.3160528716806
20
199.97855300222088
10
-382.3160528716806
20
212.97855300222091
42
-0.41421356237301177
10
-381.8160528716806
20
213.47855300222085
10
-368.81605287168065
20
213.47855300222085
42
-0.41421356237301177
0
LWPOLYLINE
5
122
100
AcDbEntity
8
0
100
AcDbPolyline
90
8
70
1
43
0.0
10
-303.52230287168061
20
167.29155300222089
42
0.41421356237309503
10
-303.02230287168067
20
167.79155300222087
10
-303.02230287168067
20
173.79155300222089
42
0.41421356237309503
10
-303.52230287168061
20
174.29155300222089
10
-317.52230287168061
20
174.29155300222089
42
0.41421356237313667
10
-318.02230287168067
20
173.79155300222089
10
-318.02230287168067
20
167.79155300222087
42
0.4142135623730534
10
-317.52230287168061
20
167.29155300222089
0
LWPOLYLINE
5
123
100
AcDbEntity
8
0
100
AcDbPolyline
90
8
70
1
43
0.0
10
-280.70980287168061
20
199.47855300222088
10
-293.70980287168067
20
199.47855300222088
42
-0.41421356237311585
10
-294.20980287168061
20
199.97855300222088
10
-294.20980287168061
20
212.97855300222091
42
-0.41421356237309503
10
-293.70980287168067
20
213.47855300222085
10
-280.70980287168061
20
213.47855300222085
42
-0.41421356237309503
10
-280.20980287168067
20
212.97855300222091
10
-280.20980287168061
20
199.97855300222088
42
-0.41421356237313667
0
LWPOLYLINE
5
124
100
AcDbEntity
8
0
100
AcDbPolyline
90
8
70
1
43
0.0
10
-139.42855287168064
20
142.82855300222087
10
-139.42855287168064
20
155.82855300222087
42
-0.4142135623730534
10
-138.92855287168064
20
156.32855300222087
10
-125.92855287168062
20
156.32855300222087
42
-0.4142135623730534
10
-125.42855287168061
20
155.82855300222087
10
-125.42855287168061
20
142.82855300222087
42
-0.41421356237307422
10
-125.92855287168062
20
142.32855300222087
10
-138.92855287168064
20
142.32855300222087
42
-0.41421356237307422
0
LWPOLYLINE
5
125
100
AcDbEntity
8
0
100
AcDbPolyline
90
8
70
1
43
0.0
10
-248.4660528716806
20
194.42855300222089
42
0.41421356237313667
10
-248.9660528716806
20
193.92855300222089
10
-248.96605287168063
20
180.92855300222087
42
0.4142135623730534
10
-248.4660528716806
20
180.42855300222087
10
-235.46605287168063
20
180.42855300222087
42
0.41421356237313667
10
-234.96605287168063
20
180.92855300222087
10
-234.96605287168066
20
193.92855300222089
42
0.41421356237309503
10
-235.46605287168063
20
194.42855300222089
0
LWPOLYLINE
5
126
100
AcDbEntity
8
0
100
AcDbPolyline
90
8
70
1
43
0.0
10
-72.253552871680625
20
137.27855300222086
42
0.41421356237311063
10
-72.753552871680597
20
136.77855300222089
10
-72.753552871680625
20
123.77855300222087
42
0.41421356237310542
10
-72.253552871680625
20
123.27855300222086
10
-59.253552871680611
20
123.27855300222086
42
0.41421356237310025
10
-58.753552871680625
20
123.77855300222087
10
-58.753552871680625
20
136.77855300222089
42
0.41421356237311063
10
-59.253552871680611
20
137.27855300222086
0
LWPOLYLINE
5
127
100
AcDbEntity
8
0
100
AcDbPolyline
90
8
70
1
43
0.0
10
-60.847302871680625
20
161.87855300222088
10
-60.847302871680604
20
174.87855300222088
42
-0.41421356237312623
10
-60.347302871680611
20
175.37855300222088
10
-47.347302871680618
20
175.37855300222083
42
-0.4142135623730222
10
-46.847302871680618
20
174.87855300222088
10
-46.84730287168064
20
161.87855300222088
42
-0.41421356237312101
10
-47.347302871680618
20
161.37855300222088
10
-60.347302871680611
20
161.37855300222085
42
-0.41421356237312623
0
LWPOLYLINE
5
128
100
AcDbEntity
8
0
100
AcDbPolyline
90
8
70
1
43
0.0
10
-154.50355287168063
20
123.27855300222086
10
-167.50355287168063
20
123.2785530022209
42
-0.41421356237309503
10
-168.0035528716806
20
123.77855300222087
10
-168.0035528716806
20
136.77855300222089
42
-0.41421356237310542
10
-167.50355287168063
20
137.27855300222089
10
-154.50355287168063
20
137.27855300222089
42
-0.41421356237307422
10
-154.00355287168063
20
136.77855300222089
10
-154.00355287168063
20
123.77855300222087
42
-0.41421356237307422
0
LWPOLYLINE
5
129
100
AcDbEntity
8
0
100
AcDbPolyline
90
8
70
1
43
0.0
10
-192.10355287168062
20
136.77855300222089
10
-192.10355287168062
20
123.77855300222087
42
-0.41421356237313667
10
-192.60355287168065
20
123.27855300222086
10
-205.60355287168065
20
123.2785530022209
42
-0.41421356237309503
10
-206.10355287168062
20
123.77855300222087
10
-206.10355287168062
20
136.77855300222089
42
-0.41421356237310542
10
-205.60355287168065
20
137.27855300222089
10
-192.60355287168065
20
137.27855300222089
42
-0.41421356237313667
0
LWPOLYLINE
5
130
100
AcDbEntity
8
0
100
AcDbPolyline
90
8
70
1
43
0.0
10
-148.95355287168064
20
123.77855300222087
10
-148.95355287168061
20
136.77855300222089
42
-0.41421356237312623
10
-148.45355287168064
20
137.27855300222086
10
-135.45355287168061
20
137.27855300222089
42
-0.41421356237312623
10
-134.95355287168064
20
136.77855300222089
10
-134.95355287168061
20
123.77855300222087
42
-0.41421356237307422
10
-135.45355287168061
20
123.27855300222086
10
-148.45355287168064
20
123.27855300222086
42
-0.41421356237307422
0
LWPOLYLINE
5
131
100
AcDbEntity
8
0
100
AcDbPolyline
90
8
70
1
43
0.0
10
-130.19105287168063
20
174.87855300222088
42
0.4142135623730846
10
-130.69105287168063
20
175.37855300222091
10
-143.69105287168063
20
175.37855300222091
42
0.41421356237309503
10
-144.19105287168068
20
174.87855300222088
10
-144.19105287168063
20
161.87855300222088
42
0.4142135623730846
10
-143.69105287168063
20
161.37855300222088
10
-130.69105287168063
20
161.37855300222088
42
0.4142135623730846
10
-130.19105287168063
20
161.87855300222088
0
LWPOLYLINE
5
132
100
AcDbEntity
8
0
100
AcDbPolyline
90
8
70
1
43
0.0
10
-202.1285528716806
20
94.703553002220872
42
0.4142135623730846
10
-201.62855287168057
20
95.203553002220872
10
-201.62855287168065
20
108.20355300222087
42
0.41421356237309503
10
-202.1285528716806
20
108.70355300222087
10
-215.1285528716806
20
108.70355300222087
42
0.41421356237310542
10
-215.62855287168063
20
108.20355300222087
10
-215.62855287168063
20
95.203553002220872
42
0.41421356237309503
10
-215.1285528716806
20
94.703553002220872
0
LWPOLYLINE
5
133
100
AcDbEntity
8
0
100
AcDbPolyline
90
8
70
1
43
0.0
10
-163.24105287168064
20
161.87855300222088
42
0.41421356237313667
10
-162.74105287168061
20
161.37855300222088
10
-149.74105287168064
20
161.37855300222088
42
0.4142135623730846
10
-149.24105287168064
20
161.87855300222088
10
-149.24105287168064
20
174.87855300222088
42
0.4142135623730846
10
-149.74105287168064
20
175.37855300222091
10
-162.74105287168061
20
175.37855300222091
42
0.4142135623730534
10
-163.24105287168064
20
174.87855300222088
0
LWPOLYLINE
5
134
100
AcDbEntity
8
0
100
AcDbPolyline
90
8
70
1
43
0.0
10
-105.59105287168063
20
175.37855300222088
42
0.41421356237310542
10
-106.09105287168065
20
174.87855300222088
10
-106.09105287168062
20
161.87855300222088
42
0.41421356237307422
10
-105.59105287168063
20
161.37855300222088
10
-92.591052871680617
20
161.37855300222088
42
0.41421356237310542
10
-92.091052871680631
20
161.87855300222088
10
-92.091052871680631
20
174.87855300222088
42
0.41421356237307422
10
-92.591052871680617
20
175.37855300222083
0
LWPOLYLINE
5
135
100
AcDbEntity
8
0
100
AcDbPolyline
90
8
70
1
43
0.0
10
-216.41605287168062
20
180.42855300222087
10
-229.41605287168068
20
180.42855300222087
42
-0.41421356237311585
10
-229.91605287168062
20
180.92855300222087
10
-229.91605287168068
20
193.92855300222089
42
-0.41421356237313667
10
-229.41605287168068
20
194.42855300222089
10
-216.41605287168062
20
194.42855300222084
42
-0.41421356237309503
10
-215.91605287168065
20
193.92855300222089
10
-215.91605287168062
20
180.92855300222087
42
-0.41421356237313667
0
LWPOLYLINE
5
136
100
AcDbEntity
8
0
100
AcDbPolyline
90
8
70
1
43
0.0
10
-290.23480287168064
20
180.42855300222087
42
0.41421356237313667
10
-289.73480287168064
20
180.92855300222087
10
-289.73480287168064
20
193.92855300222089
42
0.41421356237309503
10
-290.23480287168064
20
194.42855300222084
10
-303.23480287168059
20
194.42855300222089
42
0.41421356237313667
10
-303.73480287168059
20
193.92855300222089
10
-303.73480287168064
20
180.92855300222087
42
0.4142135623730534
10
-303.23480287168059
20
180.42855300222084
0
LWPOLYLINE
5
137
100
AcDbEntity
8
0
100
AcDbPolyline
90
8
70
1
43
0.0
10
-187.05355287168061
20
123.77855300222087
42
0.41421356237309503
10
-186.55355287168064
20
123.2785530022209
10
-173.55355287168064
20
123.27855300222086
42
0.41421356237313667
10
-173.05355287168061
20
123.77855300222087
10
-173.05355287168061
20
136.77855300222089
42
0.41421356237313667
10
-173.55355287168064
20
137.27855300222086
10
-186.55355287168064
20
137.27855300222086
42
0.41421356237307422
10
-187.05355287168061
20
136.77855300222089
0
LWPOLYLINE
5
138
100
AcDbEntity
8
0
100
AcDbPolyline
90
8
70
1
43
0.0
10
-306.90355287168069
20
94.703553002220872
42
0.4142135623730846
10
-306.40355287168063
20
95.203553002220872
10
-306.40355287168063
20
108.20355300222087
42
0.4142135623730846
10
-306.90355287168069
20
108.70355300222087
10
-319.90355287168063
20
108.70355300222087
42
0.41421356237313667
10
-320.40355287168069
20
108.20355300222087
10
-320.40355287168069
20
95.203553002220872
42
0.41421356237312623
10
-319.90355287168063
20
94.703553002220872
0
LWPOLYLINE
5
139
100
AcDbEntity
8
0
100
AcDbPolyline
90
8
70
1
43
0.0
10
-381.8160528716806
20
108.70355300222087
42
0.41421356237313667
10
-382.31605287168065
20
108.20355300222087
10
-382.3160528716806
20
95.203553002220872
42
0.4142135623730222
10
-381.8160528716806
20
94.703553002220872
10
-368.81605287168065
20
94.703553002220872
42
0.41421356237313667
10
-368.31605287168065
20
95.203553002220872
10
-368.31605287168065
20
108.20355300222087
42
0.4142135623730222
10
-368.81605287168065
20
108.70355300222087
0
LWPOLYLINE
5
140
100
AcDbEntity
8
0
100
AcDbPolyline
90
8
70
1
43
0.0
10
-344.21605287168063
20
199.97855300222088
10
-344.21605287168063
20
212.97855300222091
42
-0.41421356237301177
10
-343.71605287168063
20
213.47855300222085
10
-330.71605287168069
20
213.47855300222093
42
-0.41421356237301177
10
-330.21605287168063
20
212.97855300222091
10
-330.2160528716808
20
199.97855300222088
42
-0.41421356237307422
10
-330.71605287168069
20
199.47855300222088
10
-343.71605287168063
20
199.47855300222088
42
-0.41421356237303258
0
LWPOLYLINE
5
141
100
AcDbEntity
8
0
100
AcDbPolyline
90
8
70
1
43
0.0
10
-197.36605287168061
20
180.42855300222087
10
-210.36605287168067
20
180.42855300222087
42
-0.41421356237311585
10
-210.86605287168061
20
180.92855300222087
10
-210.86605287168067
20
193.92855300222089
42
-0.41421356237313667
10
-210.36605287168067
20
194.42855300222089
10
-197.36605287168061
20
194.42855300222084
42
-0.41421356237309503
10
-196.86605287168064
20
193.92855300222089
10
-196.86605287168061
20
180.92855300222087
42
-0.41421356237313667
0
LWPOLYLINE
5
142
100
AcDbEntity
8
0
100
AcDbPolyline
90
8
70
1
43
0.0
10
-82.278552871680617
20
142.82855300222087
10
-82.278552871680617
20
155.82855300222087
42
-0.41421356237312623
10
-81.778552871680603
20
156.32855300222087
10
-68.778552871680617
20
156.32855300222087
42
-0.41421356237310542
10
-68.278552871680617
20
155.82855300222087
10
-68.278552871680603
20
142.82855300222087
42
-0.41421356237310025
10
-68.778552871680617
20
142.32855300222087
10
-81.778552871680603
20
142.32855300222087
42
-0.41421356237309503
0
LWPOLYLINE
5
143
100
AcDbEntity
8
0
100
AcDbPolyline
90
8
70
1
43
0.0
10
-91.803552871680623
20
123.77855300222087
10
-91.803552871680623
20
136.77855300222089
42
-0.41421356237309503
10
-91.303552871680608
20
137.27855300222089
10
-78.303552871680623
20
137.27855300222089
42
-0.41421356237308982
10
-77.803552871680623
20
136.77855300222089
10
-77.803552871680608
20
123.77855300222087
42
-0.41421356237309503
10
-78.303552871680623
20
123.27855300222086
10
-91.303552871680608
20
123.27855300222086
42
-0.41421356237309503
0
LWPOLYLINE
5
144
100
AcDbEntity
8
0
100
AcDbPolyline
90
8
70
1
43
0.0
10
-91.803552871680623
20
95.203553002220872
42
0.41421356237307422
10
-91.303552871680608
20
94.703553002220872
10
-78.303552871680623
20
94.703553002220872
42
0.41421356237307422
10
-77.803552871680623
20
95.203553002220872
10
-77.803552871680623
20
108.20355300222087
42
0.41421356237308982
10
-78.303552871680623
20
108.70355300222087
10
-91.303552871680608
20
108.70355300222087
42
0.41421356237309503
10
-91.803552871680623
20
108.20355300222087
0
LWPOLYLINE
5
145
100
AcDbEntity
8
0
100
AcDbPolyline
90
8
70
1
43
0.0
10
-115.90355287168063
20
108.20355300222087
42
0.41421356237312623
10
-116.40355287168062
20
108.70355300222087
10
-129.40355287168063
20
108.70355300222087
42
0.41421356237307422
10
-129.90355287168063
20
108.20355300222087
10
-129.9035528716806
20
95.203553002220872
42
0.41421356237309503
10
-129.40355287168063
20
94.703553002220886
10
-116.40355287168062
20
94.703553002220872
42
0.4142135623730534
10
-115.90355287168063
20
95.203553002220872
0
LWPOLYLINE
5
146
100
AcDbEntity
8
0
100
AcDbPolyline
90
8
70
1
43
0.0
10
-296.87855287168065
20
136.77855300222089
10
-296.87855287168065
20
123.77855300222087
42
-0.41421356237310542
10
-297.3785528716806
20
123.27855300222086
10
-310.37855287168065
20
123.2785530022209
42
-0.41421356237309503
10
-310.8785528716806
20
123.77855300222087
10
-310.8785528716806
20
136.77855300222089
42
-0.41421356237307422
10
-310.37855287168065
20
137.27855300222086
10
-297.3785528716806
20
137.27855300222086
42
-0.41421356237309503
0
LWPOLYLINE
5
147
100
AcDbEntity
8
0
100
AcDbPolyline
90
8
70
1
43
0.0
10
-211.65355287168063
20
123.27855300222086
42
0.41421356237310542
10
-211.15355287168063
20
123.77855300222087
10
-211.15355287168063
20
136.77855300222089
42
0.41421356237309503
10
-211.65355287168063
20
137.27855300222086
10
-224.65355287168057
20
137.27855300222086
42
0.41421356237307422
10
-225.15355287168063
20
136.77855300222089
10
-225.15355287168063
20
123.77855300222087
42
0.4142135623730846
10
-224.65355287168057
20
123.27855300222086
0
LWPOLYLINE
5
148
100
AcDbEntity
8
0
100
AcDbPolyline
90
8
70
1
43
0.0
10
-294.94055287168067
20
138.27855300222086
42
0.41421356237307422
10
-295.44055287168067
20
137.77855300222089
10
-295.44055287168067
20
123.77855300222087
42
0.41421356237309503
10
-294.94055287168067
20
123.2785530022209
10
-288.94055287168067
20
123.27855300222086
42
0.41421356237310542
10
-288.44055287168061
20
123.77855300222087
10
-288.44055287168061
20
137.77855300222089
42
0.41421356237309503
10
-288.94055287168067
20
138.27855300222086
0
LWPOLYLINE
5
149
100
AcDbEntity
8
0
100
AcDbPolyline
90
8
70
1
43
0.0
10
-363.26605287168064
20
199.97855300222088
42
0.41421356237303258
10
-362.7660528716807
20
199.47855300222088
10
-349.76605287168064
20
199.47855300222088
42
0.41421356237313667
10
-349.26605287168059
20
199.97855300222088
10
-349.26605287168059
20
212.97855300222091
42
0.41421356237307422
10
-349.76605287168064
20
213.47855300222085
10
-362.76605287168059
20
213.47855300222085
42
0.41421356237301177
10
-363.26605287168059
20
212.97855300222091
0
LWPOLYLINE
5
150
100
AcDbEntity
8
0
100
AcDbPolyline
90
8
70
1
43
0.0
10
-283.09105287168063
20
161.37855300222088
42
0.41421356237313667
10
-282.59105287168063
20
161.87855300222088
10
-282.59105287168063
20
174.87855300222088
42
0.4142135623730534
10
-283.09105287168063
20
175.37855300222091
10
-296.09105287168063
20
175.37855300222088
42
0.41421356237313667
10
-296.59105287168069
20
174.87855300222088
10
-296.59105287168069
20
161.87855300222088
42
0.4142135623730534
10
-296.09105287168063
20
161.37855300222085
0
LWPOLYLINE
5
151
100
AcDbEntity
8
0
100
AcDbPolyline
90
8
70
1
43
0.0
10
-225.94105287168063
20
161.37855300222088
10
-238.9410528716806
20
161.37855300222085
42
-0.4142135623730534
10
-239.44105287168065
20
161.87855300222088
10
-239.44105287168065
20
174.87855300222088
42
-0.4142135623730534
10
-238.9410528716806
20
175.37855300222091
10
-225.94105287168063
20
175.37855300222091
42
-0.4142135623730534
10
-225.4410528716806
20
174.87855300222088
10
-225.44105287168063
20
161.87855300222088
42
-0.41421356237313667
0
LWPOLYLINE
5
152
100
AcDbEntity
8
0
100
AcDbPolyline
90
8
70
1
43
0.0
10
-287.7968028716806
20
195.42855300222087
10
-281.7968028716806
20
195.42855300222087
42
-0.41421356237309503
10
-281.29680287168065
20
194.92855300222089
10
-281.2968028716806
20
180.92855300222087
42
-0.41421356237313667
10
-281.7968028716806
20
180.42855300222087
10
-287.7968028716806
20
180.42855300222087
42
-0.41421356237311585
10
-288.2968028716806
20
180.92855300222087
10
-288.2968028716806
20
194.92855300222089
42
-0.41421356237309503
0
LWPOLYLINE
5
153
100
AcDbEntity
8
0
100
AcDbPolyline
90
8
70
1
43
0.0
10
-96.566052871680625
20
180.92855300222087
10
-96.56605287168064
20
193.92855300222089
42
-0.41421356237310542
10
-96.066052871680625
20
194.42855300222089
10
-83.066052871680611
20
194.42855300222084
42
-0.41421356237307422
10
-82.566052871680625
20
193.92855300222089
10
-82.566052871680597
20
180.92855300222087
42
-0.41421356237313667
10
-83.066052871680611
20
180.42855300222087
10
-96.066052871680625
20
180.42855300222087
42
-0.41421356237313667
0
LWPOLYLINE
5
154
100
AcDbEntity
8
0
100
AcDbPolyline
90
8
70
1
43
0.0
10
-42.084802871680616
20
193.92855300222089
10
-42.084802871680616
20
180.92855300222087
42
-0.41421356237313667
10
-42.584802871680623
20
180.42855300222087
10
-55.584802871680623
20
180.42855300222084
42
-0.41421356237307422
10
-56.084802871680623
20
180.92855300222087
10
-56.084802871680601
20
193.92855300222089
42
-0.41421356237312101
10
-55.584802871680623
20
194.42855300222089
10
-42.584802871680623
20
194.42855300222092
42
-0.41421356237312623
0
LWPOLYLINE
5
155
100
AcDbEntity
8
0
100
AcDbPolyline
90
8
70
1
43
0.0
10
-79.897302871680623
20
199.97855300222088
42
0.41421356237313145
10
-79.397302871680623
20
199.47855300222088
10
-66.397302871680623
20
199.47855300222088
42
0.41421356237313667
10
-65.897302871680623
20
199.97855300222088
10
-65.897302871680623
20
212.97855300222091
42
0.4142135623730222
10
-66.397302871680623
20
213.47855300222085
10
-79.397302871680623
20
213.47855300222085
42
0.41421356237310025
10
-79.897302871680608
20
212.97855300222091
0
LWPOLYLINE
5
156
100
AcDbEntity
8
0
100
AcDbPolyline
90
8
70
1
43
0.0
10
-287.35355287168062
20
108.20355300222087
42
0.4142135623730846
10
-287.85355287168068
20
108.70355300222089
10
-300.85355287168062
20
108.70355300222087
42
0.41421356237310542
10
-301.35355287168068
20
108.20355300222087
10
-301.35355287168068
20
95.203553002220872
42
0.41421356237309503
10
-300.85355287168062
20
94.703553002220872
10
-287.85355287168068
20
94.703553002220872
42
0.4142135623730846
10
-287.35355287168062
20
95.203553002220872
0
LWPOLYLINE
5
157
100
AcDbEntity
8
0
100
AcDbPolyline
90
8
70
1
43
0.0
10
-234.67855287168064
20
95.203553002220872
10
-234.67855287168064
20
108.20355300222087
42
-0.41421356237310542
10
-234.17855287168067
20
108.70355300222087
10
-221.17855287168061
20
108.70355300222084
42
-0.41421356237309503
10
-220.67855287168067
20
108.20355300222087
10
-220.67855287168058
20
95.203553002220872
42
-0.4142135623730846
10
-221.17855287168061
20
94.703553002220872
10
-234.17855287168067
20
94.7035530022209
42
-0.41421356237309503
0
LWPOLYLINE
5
158
100
AcDbEntity
8
0
100
AcDbPolyline
90
8
70
1
43
0.0
10
-277.04105287168062
20
175.37855300222088
42
0.41421356237313667
10
-277.54105287168062
20
174.87855300222088
10
-277.54105287168068
20
161.87855300222088
42
0.4142135623730534
10
-277.04105287168062
20
161.37855300222088
10
-264.04105287168068
20
161.37855300222088
42
0.41421356237313667
10
-263.54105287168062
20
161.87855300222088
10
-263.54105287168062
20
174.87855300222088
42
0.4142135623730534
10
-264.04105287168068
20
175.37855300222091
0
LWPOLYLINE
5
159
100
AcDbEntity
8
0
100
AcDbPolyline
90
8
70
1
43
0.0
10
-220.67855287168067
20
155.82855300222087
42
0.41421356237309503
10
-221.17855287168061
20
156.32855300222084
10
-234.17855287168067
20
156.32855300222087
42
0.41421356237307422
10
-234.67855287168064
20
155.82855300222087
10
-234.67855287168064
20
142.82855300222087
42
0.41421356237309503
10
-234.17855287168067
20
142.32855300222087
10
-221.17855287168061
20
142.32855300222087
42
0.41421356237310542
10
-220.67855287168061
20
142.82855300222087
0
LWPOLYLINE
5
160
100
AcDbEntity
8
0
100
AcDbPolyline
90
8
70
1
43
0.0
10
-317.52230287168061
20
213.47855300222085
42
0.41421356237309503
10
-318.02230287168061
20
212.97855300222091
10
-318.02230287168067
20
199.97855300222088
42
0.4142135623730534
10
-317.52230287168061
20
199.47855300222085
10
-304.52230287168061
20
199.47855300222088
42
0.41421356237313667
10
-304.02230287168061
20
199.97855300222088
10
-304.02230287168061
20
212.97855300222091
42
0.4142135623730534
10
-304.52230287168061
20
213.47855300222093
0
LWPOLYLINE
5
161
100
AcDbEntity
8
0
100
AcDbPolyline
90
8
70
1
43
0.0
10
-272.77855287168063
20
142.82855300222087
10
-272.77855287168063
20
155.82855300222087
42
-0.4142135623730846
10
-272.27855287168063
20
156.32855300222087
10
-259.27855287168063
20
156.32855300222093
42
-0.41421356237309503
10
-258.77855287168063
20
155.82855300222087
10
-258.77855287168069
20
142.82855300222087
42
-0.41421356237310542
10
-259.27855287168063
20
142.32855300222087
10
-272.27855287168063
20
142.32855300222087
42
-0.4142135623730846
0
LWPOLYLINE
5
162
100
AcDbEntity
8
0
100
AcDbPolyline
90
8
70
1
43
0.0
10
-318.02230287168067
20
152.35355300222088
42
0.41421356237309503
10
-317.52230287168061
20
151.85355300222082
10
-304.52230287168061
20
151.85355300222088
42
0.41421356237307422
10
-304.02230287168067
20
152.35355300222088
10
-304.02230287168067
20
165.35355300222085
42
0.41421356237309503
10
-304.52230287168061
20
165.85355300222088
10
-317.52230287168061
20
165.85355300222088
42
0.41421356237313667
10
-318.02230287168067
20
165.35355300222085
0
LWPOLYLINE
5
163
100
AcDbEntity
8
0
100
AcDbPolyline
90
8
70
1
43
0.0
10
-349.76605287168064
20
123.27855300222086
42
0.41421356237313667
10
-349.26605287168059
20
123.77855300222087
10
-349.26605287168059
20
136.77855300222089
42
0.41421356237309503
10
-349.76605287168064
20
137.27855300222092
10
-362.76605287168059
20
137.27855300222089
42
0.41421356237313667
10
-363.26605287168059
20
136.77855300222089
10
-363.26605287168059
20
123.77855300222087
42
0.4142135623730222
10
-362.76605287168059
20
123.27855300222086
0
LWPOLYLINE
5
164
100
AcDbEntity
8
0
100
AcDbPolyline
90
8
70
1
43
0.0
10
-101.61605287168061
20
193.92855300222089
10
-101.61605287168061
20
180.92855300222087
42
-0.41421356237313667
10
-102.11605287168062
20
180.42855300222087
10
-115.11605287168064
20
180.42855300222087
42
-0.4142135623730846
10
-115.61605287168062
20
180.92855300222087
10
-115.61605287168065
20
193.92855300222089
42
-0.41421356237310542
10
-115.11605287168064
20
194.42855300222089
10
-102.11605287168062
20
194.42855300222084
42
-0.41421356237310542
0
LWPOLYLINE
5
165
100
AcDbEntity
8
0
100
AcDbPolyline
90
8
70
1
43
0.0
10
-140.21605287168063
20
180.42855300222087
42
0.41421356237309503
10
-139.71605287168063
20
180.92855300222087
10
-139.71605287168063
20
193.92855300222089
42
0.4142135623730846
10
-140.21605287168063
20
194.42855300222089
10
-153.21605287168063
20
194.42855300222089
42
0.41421356237310542
10
-153.71605287168063
20
193.92855300222089
10
-153.71605287168063
20
180.92855300222087
42
0.41421356237313667
10
-153.21605287168063
20
180.42855300222087
0
LWPOLYLINE
5
166
100
AcDbEntity
8
0
100
AcDbPolyline
90
8
70
1
43
0.0
10
-87.328552871680628
20
155.82855300222087
42
0.41421356237312623
10
-87.828552871680614
20
156.32855300222084
10
-100.82855287168061
20
156.32855300222087
42
0.41421356237312623
10
-101.32855287168063
20
155.82855300222087
10
-101.32855287168063
20
142.82855300222087
42
0.41421356237309503
10
-100.82855287168061
20
142.32855300222087
10
-87.828552871680614
20
142.32855300222087
42
0.41421356237309503
10
-87.328552871680614
20
142.82855300222087
0
LWPOLYLINE
5
167
100
AcDbEntity
8
0
100
AcDbPolyline
90
8
70
1
43
0.0
10
-42.584802871680623
20
199.47855300222088
42
0.41421356237313667
10
-42.084802871680616
20
199.97855300222088
10
-42.084802871680616
20
212.97855300222091
42
0.41421356237312623
10
-42.584802871680623
20
213.47855300222085
10
-55.584802871680623
20
213.47855300222085
42
0.41421356237310025
10
-56.084802871680594
20
212.97855300222091
10
-56.084802871680623
20
199.97855300222088
42
0.41421356237307422
10
-55.584802871680623
20
199.47855300222088
0
LWPOLYLINE
5
168
100
AcDbEntity
8
0
100
AcDbPolyline
90
8
70
1
43
0.0
10
-349.76605287168064
20
94.703553002220872
10
-362.76605287168059
20
94.703553002220886
42
-0.4142135623730222
10
-363.26605287168059
20
95.203553002220872
10
-363.26605287168064
20
108.20355300222087
42
-0.41421356237313667
10
-362.76605287168059
20
108.70355300222087
10
-349.76605287168064
20
108.7035530022209
42
-0.41421356237309503
10
-349.26605287168059
20
108.20355300222087
10
-349.26605287168059
20
95.203553002220872
42
-0.41421356237313667
0
LWPOLYLINE
5
169
100
AcDbEntity
8
0
100
AcDbPolyline
90
8
70
1
43
0.0
10
-317.52230287168061
20
150.41555300222086
42
0.41421356237307422
10
-318.02230287168061
20
149.91555300222086
10
-318.02230287168067
20
143.91555300222086
42
0.4142135623730846
10
-317.52230287168061
20
143.41555300222086
10
-303.52230287168061
20
143.41555300222086
42
0.41421356237310542
10
-303.02230287168067
20
143.91555300222086
10
-303.02230287168067
20
149.91555300222086
42
0.41421356237309503
10
-303.52230287168061
20
150.41555300222086
0
LWPOLYLINE
5
170
100
AcDbEntity
8
0
100
AcDbPolyline
90
8
70
1
43
0.0
10
-368.81605287168065
20
142.32855300222087
10
-381.8160528716806
20
142.3285530022209
42
-0.4142135623730222
10
-382.3160528716806
20
142.82855300222087
10
-382.3160528716806
20
155.82855300222087
42
-0.41421356237318868
10
-381.8160528716806
20
156.32855300222087
10
-368.81605287168065
20
156.32855300222087
42
-0.4142135623730222
10
-368.31605287168065
20
155.82855300222087
10
-368.3160528716806
20
142.82855300222087
42
-0.41421356237313667
0
LWPOLYLINE
5
171
100
AcDbEntity
8
0
100
AcDbPolyline
90
8
70
1
43
0.0
10
-177.02855287168063
20
156.32855300222087
42
0.4142135623730846
10
-177.52855287168069
20
155.82855300222087
10
-177.5285528716806
20
142.82855300222087
42
0.41421356237309503
10
-177.02855287168063
20
142.32855300222087
10
-164.02855287168063
20
142.32855300222087
42
0.41421356237313667
10
-163.52855287168063
20
142.82855300222087
10
-163.52855287168063
20
155.82855300222087
42
0.41421356237309503
10
-164.02855287168063
20
156.32855300222087
0
LWPOLYLINE
5
172
100
AcDbEntity
8
0
100
AcDbPolyline
90
8
70
1
43
0.0
10
-254.51605287168064
20
180.42855300222087
42
0.41421356237313667
10
-254.01605287168064
20
180.92855300222087
10
-254.01605287168059
20
193.92855300222089
42
0.4142135623730534
10
-254.51605287168064
20
194.42855300222092
10
-267.51605287168059
20
194.42855300222089
42
0.41421356237313667
10
-268.01605287168064
20
193.92855300222089
10
-268.01605287168064
20
180.92855300222087
42
0.4142135623730534
10
-267.51605287168059
20
180.42855300222087
0
LWPOLYLINE
5
173
100
AcDbEntity
8
0
100
AcDbPolyline
90
8
70
1
43
0.0
10
-215.62855287168063
20
142.82855300222087
42
0.4142135623730846
10
-215.1285528716806
20
142.32855300222087
10
-202.1285528716806
20
142.32855300222087
42
0.41421356237310542
10
-201.6285528716806
20
142.82855300222087
10
-201.62855287168065
20
155.82855300222087
42
0.41421356237309503
10
-202.1285528716806
20
156.32855300222087
10
-215.1285528716806
20
156.32855300222087
42
0.4142135623730846
10
-215.6285528716806
20
155.82855300222087
0
LWPOLYLINE
5
174
100
AcDbEntity
8
0
100
AcDbPolyline
90
8
70
1
43
0.0
10
-53.703552871680614
20
123.77855300222087
10
-53.703552871680607
20
136.77855300222089
42
-0.41421356237311585
10
-53.203552871680621
20
137.27855300222086
10
-40.203552871680621
20
137.27855300222089
42
-0.41421356237309503
10
-39.703552871680621
20
136.77855300222089
10
-39.703552871680621
20
123.77855300222087
42
-0.41421356237308982
10
-40.203552871680621
20
123.27855300222086
10
-53.203552871680621
20
123.27855300222086
42
-0.41421356237308982
0
LWPOLYLINE
5
175
100
AcDbEntity
8
0
100
AcDbPolyline
90
8
70
1
43
0.0
10
-73.54105287168062
20
161.37855300222088
42
0.41421356237312623
10
-73.041052871680634
20
161.87855300222088
10
-73.04105287168062
20
174.87855300222088
42
0.41421356237312623
10
-73.54105287168062
20
175.37855300222091
10
-86.54105287168062
20
175.37855300222091
42
0.4142135623730846
10
-87.041052871680648
20
174.87855300222088
10
-87.04105287168062
20
161.87855300222088
42
0.41421356237310542
10
-86.54105287168062
20
161.37855300222088
0
LWPOLYLINE
5
176
100
AcDbEntity
8
0
100
AcDbPolyline
90
8
70
1
43
0.0
10
-177.5285528716806
20
95.203553002220872
42
0.41421356237309503
10
-177.02855287168063
20
94.7035530022209
10
-164.02855287168063
20
94.703553002220872
42
0.41421356237309503
10
-163.52855287168063
20
95.203553002220872
10
-163.52855287168063
20
108.20355300222087
42
0.41421356237313667
10
-164.02855287168063
20
108.70355300222087
10
-177.02855287168063
20
108.70355300222087
42
0.41421356237310542
10
-177.5285528716806
20
108.20355300222087
0
LWPOLYLINE
5
177
100
AcDbEntity
8
0
100
AcDbPolyline
90
8
70
1
43
0.0
10
-183.07855287168064
20
94.703553002220872
42
0.41421356237309503
10
-182.57855287168064
20
95.203553002220872
10
-182.57855287168064
20
108.20355300222087
42
0.41421356237313667
10
-183.07855287168064
20
108.70355300222087
10
-196.07855287168064
20
108.70355300222087
42
0.41421356237310542
10
-196.57855287168061
20
108.20355300222087
10
-196.57855287168061
20
95.203553002220872
42
0.41421356237309503
10
-196.07855287168064
20
94.7035530022209
0
LWPOLYLINE
5
178
100
AcDbEntity
8
0
100
AcDbPolyline
90
8
70
1
43
0.0
10
-134.16605287168062
20
194.42855300222089
10
-121.16605287168062
20
194.42855300222092
42
-0.4142135623730846
10
-120.66605287168061
20
193.92855300222089
10
-120.66605287168061
20
180.92855300222087
42
-0.41421356237309503
10
-121.16605287168062
20
180.42855300222087
10
-134.16605287168062
20
180.42855300222087
42
-0.41421356237309503
10
-134.66605287168062
20
180.92855300222087
10
-134.66605287168062
20
193.92855300222089
42
-0.4142135623730846
0
LWPOLYLINE
5
179
100
AcDbEntity
8
0
100
AcDbPolyline
90
8
70
1
43
0.0
10
-168.79105287168068
20
161.37855300222088
10
-181.79105287168062
20
161.37855300222088
42
-0.41421356237313667
10
-182.29105287168065
20
161.87855300222088
10
-182.29105287168065
20
174.87855300222088
42
-0.41421356237313667
10
-181.79105287168062
20
175.37855300222088
10
-168.79105287168068
20
175.37855300222091
42
-0.4142135623730534
10
-168.29105287168062
20
174.87855300222088
10
-168.29105287168065
20
161.87855300222088
42
-0.41421356237313667
0
LWPOLYLINE
5
180
100
AcDbEntity
8
0
100
AcDbPolyline
90
8
70
1
43
0.0
10
-134.95355287168064
20
108.20355300222087
42
0.41421356237312623
10
-135.45355287168061
20
108.70355300222087
10
-148.45355287168064
20
108.70355300222087
42
0.41421356237307422
10
-148.95355287168064
20
108.20355300222087
10
-148.95355287168064
20
95.203553002220872
42
0.4142135623730534
10
-148.45355287168064
20
94.703553002220872
10
-135.45355287168061
20
94.703553002220872
42
0.4142135623730534
10
-134.95355287168061
20
95.203553002220872
0
LWPOLYLINE
5
181
100
AcDbEntity
8
0
100
AcDbPolyline
90
8
70
1
43
0.0
10
-201.34105287168063
20
161.87855300222088
42
0.41421356237309503
10
-200.84105287168063
20
161.37855300222094
10
-187.8410528716806
20
161.37855300222088
42
0.41421356237313667
10
-187.34105287168063
20
161.87855300222088
10
-187.34105287168063
20
174.87855300222088
42
0.41421356237309503
10
-187.8410528716806
20
175.37855300222091
10
-200.84105287168063
20
175.37855300222088
42
0.41421356237313667
10
-201.34105287168063
20
174.87855300222088
0
LWPOLYLINE
5
182
100
AcDbEntity
8
0
100
AcDbPolyline
90
8
70
1
43
0.0
10
-96.85355287168062
20
136.77855300222089
10
-96.85355287168062
20
123.77855300222087
42
-0.41421356237309503
10
-97.35355287168062
20
123.27855300222086
10
-110.35355287168062
20
123.27855300222089
42
-0.41421356237313667
10
-110.85355287168062
20
123.77855300222087
10
-110.85355287168063
20
136.77855300222089
42
-0.41421356237309503
10
-110.35355287168062
20
137.27855300222089
10
-97.35355287168062
20
137.27855300222089
42
-0.41421356237309503
0
LWPOLYLINE
5
183
100
AcDbEntity
8
0
100
AcDbPolyline
90
8
70
1
43
0.0
10
-246.08480287168064
20
213.47855300222085
42
0.41421356237309503
10
-246.58480287168061
20
212.97855300222091
10
-246.58480287168061
20
199.97855300222088
42
0.41421356237311585
10
-246.08480287168064
20
199.47855300222088
10
-233.08480287168067
20
199.47855300222088
42
0.41421356237313667
10
-232.58480287168061
20
199.97855300222088
10
-232.58480287168061
20
212.97855300222091
42
0.4142135623730534
10
-233.08480287168067
20
213.47855300222093
0
LWPOLYLINE
5
184
100
AcDbEntity
8
0
100
AcDbPolyline
90
8
70
1
43
0.0
10
-182.57855287168064
20
155.82855300222087
42
0.41421356237309503
10
-183.07855287168064
20
156.32855300222087
10
-196.07855287168064
20
156.32855300222087
42
0.41421356237307422
10
-196.57855287168061
20
155.82855300222087
10
-196.57855287168061
20
142.82855300222087
42
0.41421356237309503
10
-196.07855287168064
20
142.32855300222093
10
-183.07855287168064
20
142.32855300222087
42
0.41421356237313667
10
-182.57855287168064
20
142.82855300222087
0
LWPOLYLINE
5
185
100
AcDbEntity
8
0
100
AcDbPolyline
90
8
70
1
43
0.0
10
-158.47855287168062
20
142.82855300222087
42
0.41421356237309503
10
-157.97855287168062
20
142.32855300222087
10
-144.97855287168062
20
142.32855300222087
42
0.41421356237307422
10
-144.47855287168062
20
142.82855300222087
10
-144.47855287168062
20
155.82855300222087
42
0.4142135623730534
10
-144.97855287168062
20
156.32855300222087
10
-157.97855287168062
20
156.32855300222087
42
0.41421356237307422
10
-158.47855287168062
20
155.82855300222087
0
LWPOLYLINE
5
186
100
AcDbEntity
8
0
100
AcDbPolyline
90
8
70
1
43
0.0
10
-362.76605287168059
20
156.32855300222087
42
0.41421356237318868
10
-363.26605287168059
20
155.82855300222087
10
-363.26605287168059
20
142.82855300222087
42
0.4142135623730222
10
-362.76605287168059
20
142.32855300222093
10
-349.76605287168064
20
142.32855300222087
42
0.41421356237313667
10
-349.26605287168059
20
142.82855300222087
10
-349.26605287168059
20
155.82855300222087
42
0.41421356237310542
10
-349.76605287168064
20
156.32855300222087
0
LWPOLYLINE
5
187
100
AcDbEntity
8
0
100
AcDbPolyline
90
8
70
1
43
0.0
10
-344.21605287168063
20
95.203553002220872
42
0.4142135623730222
10
-343.71605287168063
20
94.703553002220886
10
-330.71605287168069
20
94.703553002220872
42
0.41421356237310542
10
-330.21605287168074
20
95.203553002220872
10
-330.21605287168063
20
108.20355300222087
42
0.41421356237303258
10
-330.71605287168069
20
108.70355300222087
10
-343.71605287168063
20
108.70355300222087
42
0.41421356237312623
10
-344.21605287168063
20
108.20355300222087
0
LWPOLYLINE
5
188
100
AcDbEntity
8
0
100
AcDbPolyline
90
8
70
1
43
0.0
10
-363.26605287168059
20
180.92855300222087
42
0.41421356237299095
10
-362.7660528716807
20
180.42855300222087
10
-349.76605287168064
20
180.42855300222087
42
0.41421356237313667
10
-349.26605287168059
20
180.92855300222087
10
-349.26605287168059
20
193.92855300222089
42
0.41421356237307422
10
-349.76605287168064
20
194.42855300222092
10
-362.76605287168059
20
194.42855300222089
42
0.41421356237313667
10
-363.26605287168059
20
193.92855300222089
0
LWPOLYLINE
5
189
100
AcDbEntity
8
0
100
AcDbPolyline
90
8
70
1
43
0.0
10
-178.3160528716806
20
180.42855300222087
42
0.41421356237313667
10
-177.8160528716806
20
180.92855300222087
10
-177.81605287168063
20
193.92855300222089
42
0.41421356237309503
10
-178.3160528716806
20
194.42855300222084
10
-191.31605287168065
20
194.42855300222089
42
0.41421356237313667
10
-191.8160528716806
20
193.92855300222089
10
-191.8160528716806
20
180.92855300222087
42
0.41421356237311585
10
-191.31605287168065
20
180.42855300222087
0
LWPOLYLINE
5
190
100
AcDbEntity
8
0
100
AcDbPolyline
90
8
70
1
43
0.0
10
-119.87855287168063
20
156.32855300222087
10
-106.87855287168063
20
156.32855300222087
42
-0.41421356237307422
10
-106.37855287168063
20
155.82855300222087
10
-106.37855287168063
20
142.82855300222087
42
-0.41421356237309503
10
-106.87855287168063
20
142.32855300222087
10
-119.87855287168063
20
142.32855300222087
42
-0.41421356237309503
10
-120.37855287168064
20
142.82855300222087
10
-120.37855287168064
20
155.82855300222087
42
-0.41421356237307422
0
LWPOLYLINE
5
191
100
AcDbEntity
8
0
100
AcDbPolyline
90
8
70
1
43
0.0
10
-172.76605287168064
20
180.92855300222087
42
0.41421356237313667
10
-172.26605287168064
20
180.42855300222087
10
-159.26605287168064
20
180.42855300222087
42
0.41421356237309503
10
-158.76605287168064
20
180.92855300222087
10
-158.76605287168064
20
193.92855300222089
42
0.4142135623730846
10
-159.26605287168064
20
194.42855300222089
10
-172.26605287168064
20
194.42855300222089
42
0.41421356237313667
10
-172.76605287168064
20
193.92855300222089
0
LWPOLYLINE
5
192
100
AcDbEntity
8
0
100
AcDbPolyline
90
8
70
1
43
0.0
10
-97.35355287168062
20
94.703553002220872
10
-110.35355287168062
20
94.7035530022209
42
-0.41421356237312623
10
-110.85355287168062
20
95.203553002220872
10
-110.85355287168063
20
108.20355300222087
42
-0.41421356237309503
10
-110.35355287168062
20
108.70355300222087
10
-97.35355287168062
20
108.70355300222087
42
-0.41421356237309503
10
-96.85355287168062
20
108.20355300222087
10
-96.85355287168062
20
95.203553002220872
42
-0.41421356237307422
0
LWPOLYLINE
5
193
100
AcDbEntity
8
0
100
AcDbPolyline
90
8
70
1
43
0.0
10
-39.703552871680621
20
108.20355300222087
10
-39.703552871680621
20
95.2035530022209
42
-0.414213562373069
10
-40.203552871680621
20
94.703553002220872
10
-53.203552871680621
20
94.703553002220886
42
-0.41421356237310025
10
-53.703552871680614
20
95.203553002220872
10
-53.703552871680628
20
108.20355300222087
42
-0.41421356237309503
10
-53.203552871680621
20
108.70355300222087
10
-40.203552871680621
20
108.70355300222087
42
-0.41421356237309503
0
LWPOLYLINE
5
194
100
AcDbEntity
8
0
100
AcDbPolyline
90
8
70
1
43
0.0
10
-312.31655287168059
20
137.77855300222089
10
-312.31655287168064
20
123.77855300222087
42
-0.41421356237310542
10
-312.81655287168064
20
123.27855300222086
10
-318.81655287168059
20
123.27855300222085
42
-0.4142135623730846
10
-319.31655287168064
20
123.77855300222087
10
-319.31655287168053
20
137.77855300222089
42
-0.41421356237307422
10
-318.81655287168059
20
138.27855300222086
10
-312.81655287168064
20
138.27855300222092
42
-0.41421356237309503
0
LWPOLYLINE
5
195
100
AcDbEntity
8
0
100
AcDbPolyline
90
8
70
1
43
0.0
10
-305.17280287168063
20
194.92855300222089
42
0.4142135623730534
10
-305.67280287168069
20
195.42855300222095
10
-311.67280287168069
20
195.42855300222087
42
0.41421356237309503
10
-312.17280287168069
20
194.92855300222089
10
-312.17280287168069
20
180.92855300222087
42
0.41421356237311585
10
-311.67280287168069
20
180.42855300222087
10
-305.67280287168069
20
180.42855300222087
42
0.41421356237313667
10
-305.17280287168063
20
180.92855300222087
0
LWPOLYLINE
5
196
100
AcDbEntity
8
0
100
AcDbPolyline
90
8
70
1
43
0.0
10
-277.82855287168059
20
155.82855300222087
10
-277.8285528716807
20
142.82855300222087
42
-0.41421356237310542
10
-278.32855287168064
20
142.32855300222087
10
-291.32855287168064
20
142.32855300222087
42
-0.4142135623730846
10
-291.8285528716807
20
142.82855300222087
10
-291.82855287168059
20
155.82855300222087
42
-0.41421356237307422
10
-291.32855287168064
20
156.32855300222087
10
-278.32855287168064
20
156.32855300222093
42
-0.41421356237309503
0
LWPOLYLINE
5
197
100
AcDbEntity
8
0
100
AcDbPolyline
90
8
70
1
43
0.0
10
-239.72855287168068
20
155.82855300222087
10
-239.72855287168068
20
142.82855300222087
42
-0.41421356237310542
10
-240.22855287168062
20
142.32855300222087
10
-253.22855287168068
20
142.32855300222093
42
-0.41421356237309503
10
-253.72855287168065
20
142.82855300222087
10
-253.72855287168073
20
155.82855300222087
42
-0.4142135623730846
10
-253.22855287168068
20
156.32855300222087
10
-240.22855287168062
20
156.32855300222084
42
-0.41421356237309503
0
LWPOLYLINE
5
198
100
AcDbEntity
8
0
100
AcDbPolyline
90
8
70
1
43
0.0
10
-249.2535528716806
20
108.20355300222087
42
0.4142135623730846
10
-249.75355287168065
20
108.70355300222089
10
-262.7535528716806
20
108.70355300222087
42
0.41421356237310542
10
-263.25355287168065
20
108.20355300222087
10
-263.25355287168065
20
95.203553002220872
42
0.41421356237309503
10
-262.7535528716806
20
94.703553002220872
10
-249.75355287168065
20
94.703553002220872
42
0.4142135623730846
10
-249.2535528716806
20
95.203553002220872
0
LWPOLYLINE
5
199
100
AcDbEntity
8
0
100
AcDbPolyline
90
8
70
1
43
0.0
10
-257.99105287168061
20
175.37855300222088
42
0.41421356237313667
10
-258.49105287168061
20
174.87855300222088
10
-258.49105287168067
20
161.87855300222088
42
0.4142135623730534
10
-257.99105287168061
20
161.37855300222088
10
-244.99105287168064
20
161.37855300222088
42
0.41421356237313667
10
-244.49105287168064
20
161.87855300222088
10
-244.49105287168067
20
174.87855300222088
42
0.41421356237309503
10
-244.99105287168064
20
175.37855300222091
0
LWPOLYLINE
5
200
100
AcDbEntity
8
0
100
AcDbPolyline
90
8
70
1
43
0.0
10
-268.80355287168067
20
94.703553002220872
10
-281.80355287168061
20
94.703553002220829
42
-0.41421356237309503
10
-282.30355287168067
20
95.203553002220872
10
-282.30355287168061
20
108.20355300222087
42
-0.41421356237310542
10
-281.80355287168061
20
108.70355300222087
10
-268.80355287168067
20
108.70355300222089
42
-0.4142135623730846
10
-268.30355287168061
20
108.20355300222087
10
-268.30355287168061
20
95.203553002220872
42
-0.4142135623730846
0
LWPOLYLINE
5
201
100
AcDbEntity
8
0
100
AcDbPolyline
90
8
70
1
43
0.0
10
-103.70980287168064
20
199.97855300222088
42
0.41421356237313667
10
-103.20980287168062
20
199.47855300222088
10
-90.209802871680608
20
199.47855300222088
42
0.41421356237313667
10
-89.709802871680623
20
199.97855300222088
10
-89.709802871680623
20
212.97855300222091
42
0.41421356237307422
10
-90.209802871680608
20
213.47855300222085
10
-103.20980287168062
20
213.47855300222085
42
0.41421356237309503
10
-103.70980287168059
20
212.97855300222091
0
LWPOLYLINE
5
202
100
AcDbEntity
8
0
100
AcDbPolyline
90
8
70
1
43
0.0
10
-114.64730287168064
20
213.97855300222088
10
-114.64730287168061
20
199.97855300222088
42
-0.41421356237309503
10
-115.14730287168062
20
199.47855300222088
10
-121.14730287168061
20
199.47855300222088
42
-0.41421356237313667
10
-121.64730287168062
20
199.97855300222088
10
-121.64730287168062
20
213.97855300222088
42
-0.41421356237313667
10
-121.14730287168061
20
214.47855300222088
10
-115.14730287168062
20
214.47855300222088
42
-0.41421356237307422
0
LWPOLYLINE
5
203
100
AcDbEntity
8
0
100
AcDbPolyline
90
8
70
1
43
0.0
10
-38.20406368885866
20
90.695196517588968
42
0.4142210240067089
10
-35.704000000000022
20
93.195196516777713
10
-35.704000000000001
20
215.97900000000004
42
0.41421356237310181
10
-38.204000000000001
20
218.47900000000004
10
-383.81591863112988
20
218.47900000000004
42
0.41420610077882231
10
-386.31591863031861
20
215.9790636888587
10
-386.31904639013754
20
93.204064936777712
42
0.41421356237307216
10
-383.81911007980733
20
90.704001248730293
0
ENDSEC
0
SECTION
2
OBJECTS
0
DICTIONARY
5
C
100
AcDbDictionary
3
ACAD_GROUP
350
D
3
ACAD_MLINESTYLE
350
17
0
DICTIONARY
5
D
100
AcDbDictionary
0
DICTIONARY
5
1A
330
C
100
AcDbDictionary
0
DICTIONARY
5
17
100
AcDbDictionary
0
ENDSEC
0
EOF
