<?xml version="1.0" standalone="no"?>
 <!DOCTYPE svg PUBLIC "-//W3C//DTD SVG 1.1//EN" 
 "http://www.w3.org/Graphics/SVG/1.1/DTD/svg11.dtd"> 
<svg
  xmlns:svg="http://www.w3.org/2000/svg"
  xmlns="http://www.w3.org/2000/svg"
  xmlns:xlink="http://www.w3.org/1999/xlink"
  version="1.1"
  width="34.869120cm" height="15.651480cm" viewBox="0 0 137280 61620">
<title>SVG Picture created as ENV_KB-brd.svg date 2021/04/06 13:27:55 </title>
  <desc>Picture generated by PCBNEW </desc>
<g style="fill:#000000; fill-opacity:1;stroke:#000000; stroke-opacity:1;
stroke-linecap:round; stroke-linejoin:round;"
 transform="translate(0 0) scale(1 1)">
</g>
<g style="fill:#000000; fill-opacity:0.0; 
stroke:#000000; stroke-width:-0.000393701; stroke-opacity:1; 
stroke-linecap:round; stroke-linejoin:round;">
<g >
</g>
<g style="fill:#000000; fill-opacity:0.0; 
stroke:#000000; stroke-width:39.3701; stroke-opacity:1; 
stroke-linecap:round; stroke-linejoin:round;">
<circle cx="68623.4" cy="38937.6" r="413.386" /> 
</g>
<g >
</g>
<g style="fill:#000000; fill-opacity:0.0; 
stroke:#000000; stroke-width:39.3701; stroke-opacity:1; 
stroke-linecap:round; stroke-linejoin:round;">
<circle cx="68623.4" cy="59961.2" r="413.386" /> 
</g>
<g >
</g>
<g style="fill:#000000; fill-opacity:0.0; 
stroke:#000000; stroke-width:39.3701; stroke-opacity:1; 
stroke-linecap:round; stroke-linejoin:round;">
<circle cx="68623.4" cy="22166" r="413.386" /> 
</g>
<g >
</g>
<g style="fill:#000000; fill-opacity:0.0; 
stroke:#000000; stroke-width:39.3701; stroke-opacity:1; 
stroke-linecap:round; stroke-linejoin:round;">
<circle cx="2461.99" cy="46457.3" r="413.386" /> 
</g>
<g >
</g>
<g >
</g>
<g >
</g>
<g >
</g>
<g >
</g>
<g >
</g>
<g >
</g>
<g >
</g>
<g >
</g>
<g >
</g>
<g >
</g>
<g >
</g>
<g >
</g>
<g >
</g>
<g >
</g>
<g >
</g>
<g >
</g>
<g style="fill:#000000; fill-opacity:0.0; 
stroke:#000000; stroke-width:39.3701; stroke-opacity:1; 
stroke-linecap:round; stroke-linejoin:round;">
<circle cx="135425" cy="52008.5" r="413.386" /> 
</g>
<g >
</g>
<g style="fill:#000000; fill-opacity:0.0; 
stroke:#000000; stroke-width:39.3701; stroke-opacity:1; 
stroke-linecap:round; stroke-linejoin:round;">
<circle cx="9676.56" cy="59695.5" r="413.386" /> 
</g>
<g >
</g>
<g style="fill:#000000; fill-opacity:0.0; 
stroke:#000000; stroke-width:39.3701; stroke-opacity:1; 
stroke-linecap:round; stroke-linejoin:round;">
<circle cx="129673" cy="59792" r="413.386" /> 
</g>
<g >
</g>
<g style="fill:#000000; fill-opacity:0.0; 
stroke:#000000; stroke-width:39.3701; stroke-opacity:1; 
stroke-linecap:round; stroke-linejoin:round;">
<circle cx="135425" cy="1860.85" r="413.386" /> 
</g>
<g >
</g>
<g style="fill:#000000; fill-opacity:0.0; 
stroke:#000000; stroke-width:39.3701; stroke-opacity:1; 
stroke-linecap:round; stroke-linejoin:round;">
<circle cx="1861.6" cy="1860.85" r="413.386" /> 
</g>
<g >
</g>
<g >
</g>
<g >
</g>
<g >
</g>
<g >
</g>
<g >
</g>
<g >
</g>
<g >
</g>
<g >
</g>
<g >
</g>
<g >
</g>
<g >
</g>
<g >
</g>
<g >
</g>
<g >
</g>
<g >
</g>
<g >
</g>
<g >
</g>
<g >
</g>
<g >
</g>
<g >
</g>
<g >
</g>
<g >
</g>
<g >
</g>
<g >
</g>
<g >
</g>
<g >
</g>
<g >
</g>
<g >
</g>
<g >
</g>
<g >
</g>
<g >
</g>
<g >
</g>
<g >
</g>
<g >
</g>
<g >
</g>
<g >
</g>
<g >
</g>
<g >
</g>
<g >
</g>
<g >
</g>
<g >
</g>
<g >
</g>
<g >
</g>
<g >
</g>
<g >
</g>
<g >
</g>
<g >
</g>
<g >
</g>
<g >
</g>
<g >
</g>
<g >
</g>
<g >
</g>
<g >
</g>
<g >
</g>
<g >
</g>
<g >
</g>
<g >
</g>
<g >
</g>
<g >
</g>
<g >
</g>
<g >
</g>
<g >
</g>
<g >
</g>
<g >
</g>
<g >
</g>
<g >
</g>
<g >
</g>
<g >
</g>
<g >
</g>
<g >
</g>
<g >
</g>
<g >
</g>
<g >
</g>
<g >
</g>
<g >
</g>
<g >
</g>
<g >
</g>
<g >
</g>
<g >
</g>
<g >
</g>
<g >
</g>
<g >
</g>
<g >
</g>
<g >
</g>
<g >
</g>
<g >
</g>
<g >
</g>
<g >
</g>
<g >
</g>
<g >
</g>
<g >
</g>
<g >
</g>
<g >
</g>
<g >
</g>
<g >
</g>
<g >
</g>
<g >
</g>
<g >
</g>
<g >
</g>
<g >
</g>
<g >
</g>
<g >
</g>
<g >
</g>
<g >
</g>
<g >
</g>
<g >
</g>
<g >
</g>
<g >
</g>
<g >
</g>
<g >
</g>
<g >
</g>
<g >
</g>
<g >
</g>
<g >
</g>
<g >
</g>
<g >
</g>
<g >
</g>
<g >
</g>
<g >
</g>
<g >
</g>
<g >
</g>
<g >
</g>
<g >
</g>
<g >
</g>
<g >
</g>
<g >
</g>
<g >
</g>
<g >
</g>
<g >
</g>
<g >
</g>
<g >
</g>
<g >
</g>
<g >
</g>
<g >
</g>
<g >
</g>
<g >
</g>
<g >
</g>
<g >
</g>
<g >
</g>
<g >
</g>
<g >
</g>
<g >
</g>
<g >
</g>
<g >
</g>
<g >
</g>
<g >
</g>
<g >
</g>
<g >
</g>
<g >
</g>
<g >
</g>
<g >
</g>
<g >
</g>
<g >
</g>
<g >
</g>
<g >
</g>
<g >
</g>
<g >
</g>
<g >
</g>
<g >
</g>
<g >
</g>
<g >
</g>
<g >
</g>
<g >
</g>
<g >
</g>
<g >
</g>
<g >
</g>
<g >
</g>
<g >
</g>
<g >
</g>
<g >
</g>
<g >
</g>
<g >
</g>
<g >
</g>
</g>
<g style="fill:#000000; fill-opacity:0.0; 
stroke:#000000; stroke-width:39.3701; stroke-opacity:1; 
stroke-linecap:round; stroke-linejoin:round;">
</g>
<g style="fill:#000000; fill-opacity:0.0; 
stroke:#000000; stroke-width:59.0551; stroke-opacity:1; 
stroke-linecap:round; stroke-linejoin:round;">
<path d="M2228 47539
L16177 47539
" />
<path d="M110373 45551
L109693 45551
" />
<path d="M96915 45551
L99024 45551
" />
<path d="M100323 45551
L101602 45551
" />
<path d="M109926 35689
L109926 36289
" />
<path d="M123165 60551
L123165 55039
" />
<path d="M115665 55039
L121177 55039
" />
<path d="M121177 60551
L115665 60551
" />
<path d="M128677 60551
L123165 60551
" />
<path d="M121177 55039
L121177 60551
" />
<path d="M96470 49390
L96145 49390
" />
<path d="M96470 48118
L96470 49390
" />
<path d="M99128 49390
L99128 48118
" />
<path d="M99728 49390
L99128 49390
" />
<path d="M99128 48118
L96470 48118
" />
<path d="M110865 41801
L110865 36289
" />
<path d="M110865 36289
L109926 36289
" />
<path d="M110697 41801
L110865 41801
" />
<path d="M109926 35689
L110286 35689
" />
<path d="M130665 32539
L136177 32539
" />
<path d="M110286 35689
L110286 33032
" />
<path d="M110286 33032
L109927 33032
" />
<path d="M128677 55039
L128677 60551
" />
<path d="M123165 55039
L128677 55039
" />
<path d="M136177 55039
L136177 60551
" />
<path d="M130665 60551
L130665 55039
" />
<path d="M136177 60551
L130665 60551
" />
<path d="M70894 54657
L70894 55130
" />
<path d="M70214 56889
L54614 56889
" />
<path d="M70894 55130
L70214 55130
" />
<path d="M70214 55130
L70214 56889
" />
<path d="M54614 56889
L54614 55039
" />
<path d="M30844 57598
L30520 57598
" />
<path d="M30844 58700
L30844 59972
" />
<path d="M30520 57598
L30520 58700
" />
<path d="M30844 59972
L33502 59972
" />
<path d="M30520 58700
L30844 58700
" />
<path d="M94927 40039
L94927 45551
" />
<path d="M87427 40039
L87427 45551
" />
<path d="M66915 45551
L66915 40039
" />
<path d="M87427 45551
L81915 45551
" />
<path d="M72427 45551
L66915 45551
" />
<path d="M72427 40039
L72427 45551
" />
<path d="M96915 45551
L96915 40039
" />
<path d="M89415 40039
L94927 40039
" />
<path d="M74415 40039
L79927 40039
" />
<path d="M79927 40039
L79927 45551
" />
<path d="M74415 45551
L74415 40039
" />
<path d="M81915 40039
L87427 40039
" />
<path d="M2228 53051
L2228 47539
" />
<path d="M79927 45551
L74415 45551
" />
<path d="M94927 45551
L89415 45551
" />
<path d="M89415 45551
L89415 40039
" />
<path d="M66915 40039
L72427 40039
" />
<path d="M81915 45551
L81915 40039
" />
<path d="M96915 40039
L102427 40039
" />
<path d="M57427 40039
L57427 45551
" />
<path d="M51915 40039
L57427 40039
" />
<path d="M64927 45551
L59415 45551
" />
<path d="M34927 40039
L34927 45551
" />
<path d="M21916 40039
L27427 40039
" />
<path d="M29416 45551
L29416 40039
" />
<path d="M34927 45551
L29416 45551
" />
<path d="M29416 40039
L34927 40039
" />
<path d="M36916 45551
L36916 40039
" />
<path d="M42427 45551
L36916 45551
" />
<path d="M42427 40039
L42427 45551
" />
<path d="M49927 45551
L44415 45551
" />
<path d="M57427 45551
L51915 45551
" />
<path d="M51915 45551
L51915 40039
" />
<path d="M49927 40039
L49927 45551
" />
<path d="M59415 45551
L59415 40039
" />
<path d="M59415 40039
L64927 40039
" />
<path d="M44415 40039
L49927 40039
" />
<path d="M64927 40039
L64927 45551
" />
<path d="M27427 45551
L21916 45551
" />
<path d="M27427 40039
L27427 45551
" />
<path d="M36916 40039
L42427 40039
" />
<path d="M44415 45551
L44415 40039
" />
<path d="M32823 55130
L32823 54657
" />
<path d="M30844 55130
L30844 57598
" />
<path d="M31523 55130
L30844 55130
" />
<path d="M31523 54657
L31523 55130
" />
<path d="M32823 54657
L31523 54657
" />
<path d="M128677 32539
L128677 38051
" />
<path d="M115665 38051
L115665 32539
" />
<path d="M128677 38051
L123165 38051
" />
<path d="M121177 38051
L115665 38051
" />
<path d="M80041 38051
L80041 32539
" />
<path d="M80041 32539
L85552 32539
" />
<path d="M123165 32539
L128677 32539
" />
<path d="M85552 32539
L85552 38051
" />
<path d="M100552 32539
L100552 38051
" />
<path d="M85552 38051
L80041 38051
" />
<path d="M87541 38051
L87541 32539
" />
<path d="M93052 38051
L87541 38051
" />
<path d="M95041 32539
L100552 32539
" />
<path d="M95041 38051
L95041 32539
" />
<path d="M136177 38051
L130665 38051
" />
<path d="M93052 32539
L93052 38051
" />
<path d="M136177 32539
L136177 38051
" />
<path d="M87541 32539
L93052 32539
" />
<path d="M100552 38051
L95041 38051
" />
<path d="M115665 32539
L121177 32539
" />
<path d="M123165 38051
L123165 32539
" />
<path d="M121177 32539
L121177 38051
" />
<path d="M130665 38051
L130665 32539
" />
<path d="M21916 45551
L21916 40039
" />
<path d="M14416 40039
L19927 40039
" />
<path d="M19927 45551
L14416 45551
" />
<path d="M9615 45551
L4102 45551
" />
<path d="M9615 40039
L9615 45551
" />
<path d="M4102 40039
L9615 40039
" />
<path d="M4102 45551
L4102 40039
" />
<path d="M105352 38051
L105352 40040
" />
<path d="M14416 45551
L14416 40039
" />
<path d="M19927 40039
L19927 45551
" />
<path d="M99128 51201
L99728 51201
" />
<path d="M98448 52960
L99128 52960
" />
<path d="M99128 52960
L99128 51201
" />
<path d="M98448 53433
L98448 52960
" />
<path d="M97149 53433
L98448 53433
" />
<path d="M11602 60551
L11602 55039
" />
<path d="M17115 55039
L17115 60551
" />
<path d="M11602 55039
L17115 55039
" />
<path d="M20978 60551
L20978 55039
" />
<path d="M17115 60551
L11602 60551
" />
<path d="M78165 53051
L78165 47539
" />
<path d="M91177 53051
L85665 53051
" />
<path d="M85665 53051
L85665 47539
" />
<path d="M85665 47539
L91177 47539
" />
<path d="M63165 53051
L63165 47539
" />
<path d="M76177 53051
L70665 53051
" />
<path d="M83677 53051
L78165 53051
" />
<path d="M63165 47539
L68677 47539
" />
<path d="M53677 47539
L53677 53051
" />
<path d="M48165 47539
L53677 47539
" />
<path d="M55665 53051
L55665 47539
" />
<path d="M68677 53051
L63165 53051
" />
<path d="M61177 53051
L55665 53051
" />
<path d="M61177 47539
L61177 53051
" />
<path d="M70665 47539
L76177 47539
" />
<path d="M91177 47539
L91177 53051
" />
<path d="M55665 47539
L61177 47539
" />
<path d="M83677 47539
L83677 53051
" />
<path d="M78165 47539
L83677 47539
" />
<path d="M123165 53051
L123165 47539
" />
<path d="M76177 47539
L76177 53051
" />
<path d="M68677 47539
L68677 53051
" />
<path d="M70665 53051
L70665 47539
" />
<path d="M78052 32539
L78052 38051
" />
<path d="M63052 32539
L63052 38051
" />
<path d="M42541 38051
L42541 32539
" />
<path d="M48052 38051
L42541 38051
" />
<path d="M48052 32539
L48052 38051
" />
<path d="M42541 32539
L48052 32539
" />
<path d="M57541 32539
L63052 32539
" />
<path d="M65041 32539
L70552 32539
" />
<path d="M78052 38051
L72541 38051
" />
<path d="M70552 38051
L65041 38051
" />
<path d="M50041 38051
L50041 32539
" />
<path d="M65041 38051
L65041 32539
" />
<path d="M72541 38051
L72541 32539
" />
<path d="M50041 32539
L55552 32539
" />
<path d="M70552 32539
L70552 38051
" />
<path d="M55552 38051
L50041 38051
" />
<path d="M55552 32539
L55552 38051
" />
<path d="M57541 38051
L57541 32539
" />
<path d="M63052 38051
L57541 38051
" />
<path d="M40552 38051
L35041 38051
" />
<path d="M40552 32539
L40552 38051
" />
<path d="M72541 32539
L78052 32539
" />
<path d="M35041 32539
L40552 32539
" />
<path d="M115665 60551
L115665 55039
" />
<path d="M105352 60551
L105352 55039
" />
<path d="M110865 60551
L105352 60551
" />
<path d="M105352 55039
L110865 55039
" />
<path d="M110865 55039
L110865 60551
" />
<path d="M86602 60551
L86602 55039
" />
<path d="M92115 55039
L92115 60551
" />
<path d="M82739 55039
L82739 60551
" />
<path d="M92115 60551
L86602 60551
" />
<path d="M77228 55039
L82739 55039
" />
<path d="M108497 49390
L108497 48118
" />
<path d="M108497 52960
L108497 50492
" />
<path d="M106519 53433
L107818 53433
" />
<path d="M106519 52960
L106519 53433
" />
<path d="M99728 51201
L99728 53051
" />
<path d="M108823 49390
L108497 49390
" />
<path d="M105840 51201
L105840 52960
" />
<path d="M105239 51201
L105840 51201
" />
<path d="M128677 53051
L123165 53051
" />
<path d="M108497 48118
L105840 48118
" />
<path d="M99728 53051
L105239 53051
" />
<path d="M128677 47539
L128677 53051
" />
<path d="M105840 48118
L105840 49390
" />
<path d="M107818 52960
L108497 52960
" />
<path d="M107818 53433
L107818 52960
" />
<path d="M123165 47539
L128677 47539
" />
<path d="M105239 47539
L99728 47539
" />
<path d="M105239 49390
L105239 47539
" />
<path d="M108823 50492
L108823 49390
" />
<path d="M108497 50492
L108823 50492
" />
<path d="M105840 52960
L106519 52960
" />
<path d="M105239 53051
L105239 51201
" />
<path d="M105840 49390
L105239 49390
" />
<path d="M54614 60551
L54614 58700
" />
<path d="M54614 58700
L70214 58700
" />
<path d="M72872 55130
L72193 55130
" />
<path d="M72872 57598
L72872 55130
" />
<path d="M73197 57598
L72872 57598
" />
<path d="M70214 58700
L70214 59972
" />
<path d="M72872 59972
L72872 58700
" />
<path d="M70214 59972
L72872 59972
" />
<path d="M72193 54657
L70894 54657
" />
<path d="M73197 58700
L73197 57598
" />
<path d="M72193 55130
L72193 54657
" />
<path d="M72872 58700
L73197 58700
" />
<path d="M20978 55039
L26490 55039
" />
<path d="M77228 60551
L77228 55039
" />
<path d="M26490 55039
L26490 60551
" />
<path d="M82739 60551
L77228 60551
" />
<path d="M26490 60551
L20978 60551
" />
<path d="M12541 32539
L18052 32539
" />
<path d="M20041 38051
L20041 32539
" />
<path d="M102541 26890
L101940 26890
" />
<path d="M8677 38051
L3165 38051
" />
<path d="M8677 32539
L8677 38051
" />
<path d="M33052 38051
L27541 38051
" />
<path d="M25552 32539
L25552 38051
" />
<path d="M18052 32539
L18052 38051
" />
<path d="M27541 32539
L33052 32539
" />
<path d="M20041 32539
L25552 32539
" />
<path d="M18052 38051
L12541 38051
" />
<path d="M35041 38051
L35041 32539
" />
<path d="M33052 32539
L33052 38051
" />
<path d="M3165 38051
L3165 32539
" />
<path d="M27541 38051
L27541 32539
" />
<path d="M102541 25039
L102541 26890
" />
<path d="M101940 25618
L99283 25618
" />
<path d="M25552 38051
L20041 38051
" />
<path d="M99283 26890
L98958 26890
" />
<path d="M99283 25618
L99283 26890
" />
<path d="M3165 32539
L8677 32539
" />
<path d="M12541 38051
L12541 32539
" />
<path d="M101940 26890
L101940 25618
" />
<path d="M101489 60551
L95978 60551
" />
<path d="M86602 55039
L92115 55039
" />
<path d="M95978 60551
L95978 55039
" />
<path d="M101489 55039
L101489 60551
" />
<path d="M95978 55039
L101489 55039
" />
<path d="M31291 19301
L31291 13789
" />
<path d="M55552 19301
L50041 19301
" />
<path d="M55552 13789
L55552 19301
" />
<path d="M50041 13789
L55552 13789
" />
<path d="M36802 13789
L36802 19301
" />
<path d="M6802 13789
L6802 19301
" />
<path d="M23791 13789
L29302 13789
" />
<path d="M1290 19301
L1290 13789
" />
<path d="M29302 19301
L23791 19301
" />
<path d="M38790 19301
L38790 13789
" />
<path d="M44302 19301
L38790 19301
" />
<path d="M23791 19301
L23791 13789
" />
<path d="M29302 13789
L29302 19301
" />
<path d="M16291 13789
L21802 13789
" />
<path d="M31291 13789
L36802 13789
" />
<path d="M50041 19301
L50041 13789
" />
<path d="M21802 19301
L16291 19301
" />
<path d="M44302 13789
L44302 19301
" />
<path d="M21802 13789
L21802 19301
" />
<path d="M36802 19301
L31291 19301
" />
<path d="M38790 13789
L44302 13789
" />
<path d="M6802 19301
L1290 19301
" />
<path d="M1290 13789
L6802 13789
" />
<path d="M57541 19301
L57541 13789
" />
<path d="M16291 19301
L16291 13789
" />
<path d="M6802 30551
L1290 30551
" />
<path d="M96802 19301
L91291 19301
" />
<path d="M98791 13789
L104302 13789
" />
<path d="M136177 19301
L130665 19301
" />
<path d="M1290 30551
L1290 25039
" />
<path d="M16291 30551
L16291 25039
" />
<path d="M38790 30551
L38790 25039
" />
<path d="M78052 13789
L78052 19301
" />
<path d="M83791 19301
L83791 13789
" />
<path d="M106291 19301
L106291 13789
" />
<path d="M115665 19301
L115665 13789
" />
<path d="M23791 30551
L23791 25039
" />
<path d="M36802 25039
L36802 30551
" />
<path d="M16291 25039
L21802 25039
" />
<path d="M96802 13789
L96802 19301
" />
<path d="M14302 30551
L8791 30551
" />
<path d="M136177 13789
L136177 19301
" />
<path d="M29302 25039
L29302 30551
" />
<path d="M38790 25039
L44302 25039
" />
<path d="M8791 30551
L8791 25039
" />
<path d="M83791 13789
L89302 13789
" />
<path d="M23791 25039
L29302 25039
" />
<path d="M70552 13789
L70552 19301
" />
<path d="M78052 19301
L72541 19301
" />
<path d="M115665 13789
L121177 13789
" />
<path d="M128677 13789
L128677 19301
" />
<path d="M44302 30551
L38790 30551
" />
<path d="M1290 25039
L6802 25039
" />
<path d="M36802 30551
L31291 30551
" />
<path d="M104302 13789
L104302 19301
" />
<path d="M63052 19301
L57541 19301
" />
<path d="M63052 13789
L63052 19301
" />
<path d="M65041 19301
L65041 13789
" />
<path d="M104302 19301
L98791 19301
" />
<path d="M121177 13789
L121177 19301
" />
<path d="M72541 13789
L78052 13789
" />
<path d="M57541 13789
L63052 13789
" />
<path d="M21802 30551
L16291 30551
" />
<path d="M21802 25039
L21802 30551
" />
<path d="M46290 30551
L46290 25039
" />
<path d="M70552 19301
L65041 19301
" />
<path d="M65041 13789
L70552 13789
" />
<path d="M72541 19301
L72541 13789
" />
<path d="M123165 13789
L128677 13789
" />
<path d="M89302 19301
L83791 19301
" />
<path d="M89302 13789
L89302 19301
" />
<path d="M91291 19301
L91291 13789
" />
<path d="M91291 13789
L96802 13789
" />
<path d="M123165 19301
L123165 13789
" />
<path d="M98791 19301
L98791 13789
" />
<path d="M111802 13789
L111802 19301
" />
<path d="M44302 25039
L44302 30551
" />
<path d="M106291 13789
L111802 13789
" />
<path d="M121177 19301
L115665 19301
" />
<path d="M128677 19301
L123165 19301
" />
<path d="M130665 19301
L130665 13789
" />
<path d="M29302 30551
L23791 30551
" />
<path d="M14302 25039
L14302 30551
" />
<path d="M8791 25039
L14302 25039
" />
<path d="M6802 25039
L6802 30551
" />
<path d="M31291 30551
L31291 25039
" />
<path d="M111802 19301
L106291 19301
" />
<path d="M130665 13789
L136177 13789
" />
<path d="M31291 25039
L36802 25039
" />
<path d="M101940 30460
L101940 28701
" />
<path d="M111310 27992
L111635 27992
" />
<path d="M111310 30460
L111310 27992
" />
<path d="M110631 30933
L110631 30460
" />
<path d="M109332 30933
L110631 30933
" />
<path d="M109332 30460
L109332 30933
" />
<path d="M108653 30460
L109332 30460
" />
<path d="M108653 28701
L108653 30460
" />
<path d="M108052 28701
L108653 28701
" />
<path d="M102541 28701
L102541 30551
" />
<path d="M98958 26890
L98958 27992
" />
<path d="M108052 30551
L108052 28701
" />
<path d="M102541 30551
L108052 30551
" />
<path d="M99961 30460
L99961 30933
" />
<path d="M101940 28701
L102541 28701
" />
<path d="M101261 30933
L101261 30460
" />
<path d="M99283 27992
L99283 30460
" />
<path d="M99961 30933
L101261 30933
" />
<path d="M98958 27992
L99283 27992
" />
<path d="M101261 30460
L101940 30460
" />
<path d="M99283 30460
L99961 30460
" />
<path d="M111635 27992
L111635 26890
" />
<path d="M110631 30460
L111310 30460
" />
<path d="M96145 49390
L96145 50492
" />
<path d="M97149 52960
L97149 53433
" />
<path d="M96470 52960
L97149 52960
" />
<path d="M96470 50492
L96470 52960
" />
<path d="M96145 50492
L96470 50492
" />
<path d="M49102 55039
L49102 56889
" />
<path d="M54614 55039
L49102 55039
" />
<path d="M33502 56889
L33502 55130
" />
<path d="M49102 56889
L33502 56889
" />
<path d="M33502 55130
L32823 55130
" />
<path d="M128677 25039
L128677 30551
" />
<path d="M96802 30551
L91291 30551
" />
<path d="M123165 30551
L123165 25039
" />
<path d="M130665 30551
L130665 25039
" />
<path d="M130665 25039
L136177 25039
" />
<path d="M108653 26890
L108052 26890
" />
<path d="M121177 25039
L121177 30551
" />
<path d="M128677 30551
L123165 30551
" />
<path d="M115665 30551
L115665 25039
" />
<path d="M123165 25039
L128677 25039
" />
<path d="M111635 26890
L111310 26890
" />
<path d="M96802 25039
L96802 30551
" />
<path d="M111310 26890
L111310 25618
" />
<path d="M115665 25039
L121177 25039
" />
<path d="M91291 25039
L96802 25039
" />
<path d="M121177 30551
L115665 30551
" />
<path d="M136177 25039
L136177 30551
" />
<path d="M108653 25618
L108653 26890
" />
<path d="M136177 30551
L130665 30551
" />
<path d="M91291 30551
L91291 25039
" />
<path d="M108052 25039
L102541 25039
" />
<path d="M108052 26890
L108052 25039
" />
<path d="M111310 25618
L108653 25618
" />
<path d="M130665 55039
L136177 55039
" />
<path d="M33502 59972
L33502 58700
" />
<path d="M49102 58700
L49102 60551
" />
<path d="M49102 60551
L54614 60551
" />
<path d="M33502 58700
L49102 58700
" />
<path d="M7740 55039
L7740 60551
" />
<path d="M2228 60551
L2228 55039
" />
<path d="M2228 55039
L7740 55039
" />
<path d="M7740 60551
L2228 60551
" />
<path d="M99728 47539
L99728 49390
" />
<path d="M59302 30551
L53791 30551
" />
<path d="M53791 25039
L59302 25039
" />
<path d="M51802 25039
L51802 30551
" />
<path d="M53791 30551
L53791 25039
" />
<path d="M66802 30551
L61291 30551
" />
<path d="M68791 30551
L68791 25039
" />
<path d="M68791 25039
L74302 25039
" />
<path d="M76291 30551
L76291 25039
" />
<path d="M83791 25039
L89302 25039
" />
<path d="M66802 25039
L66802 30551
" />
<path d="M74302 30551
L68791 30551
" />
<path d="M74302 25039
L74302 30551
" />
<path d="M76291 25039
L81802 25039
" />
<path d="M81802 30551
L76291 30551
" />
<path d="M89302 25039
L89302 30551
" />
<path d="M83791 30551
L83791 25039
" />
<path d="M81802 25039
L81802 30551
" />
<path d="M89302 30551
L83791 30551
" />
<path d="M61291 25039
L66802 25039
" />
<path d="M59302 25039
L59302 30551
" />
<path d="M51802 30551
L46290 30551
" />
<path d="M46290 25039
L51802 25039
" />
<path d="M61291 30551
L61291 25039
" />
<path d="M31177 47539
L31177 53051
" />
<path d="M46177 53051
L40665 53051
" />
<path d="M38677 53051
L33166 53051
" />
<path d="M46177 47539
L46177 53051
" />
<path d="M38677 47539
L38677 53051
" />
<path d="M23677 47539
L23677 53051
" />
<path d="M40665 53051
L40665 47539
" />
<path d="M31177 53051
L25666 53051
" />
<path d="M18166 53051
L18166 47539
" />
<path d="M18166 47539
L23677 47539
" />
<path d="M25666 47539
L31177 47539
" />
<path d="M53677 53051
L48165 53051
" />
<path d="M16177 47539
L16177 53051
" />
<path d="M33166 53051
L33166 47539
" />
<path d="M25666 53051
L25666 47539
" />
<path d="M33166 47539
L38677 47539
" />
<path d="M48165 53051
L48165 47539
" />
<path d="M23677 53051
L18166 53051
" />
<path d="M40665 47539
L46177 47539
" />
<path d="M3399 53051
L3399 53433
" />
<path d="M14068 53051
L16177 53051
" />
<path d="M4698 53051
L12769 53051
" />
<path d="M3399 53433
L4698 53433
" />
<path d="M12769 53433
L14068 53433
" />
<path d="M14068 53433
L14068 53051
" />
<path d="M12769 53051
L12769 53433
" />
<path d="M4698 53433
L4698 53051
" />
<path d="M3399 53051
L2228 53051
" />
<path d="M99128 52961
L99128 51201
" />
<path d="M97149 52961
L97149 53433
" />
<path d="M96145 50492
L96470 50492
" />
<path d="M99728 47540
L99728 49390
" />
<path d="M96470 52961
L97149 52961
" />
<path d="M99128 48119
L96470 48119
" />
<path d="M98448 52961
L99128 52961
" />
<path d="M105239 47540
L99728 47540
" />
<path d="M105840 49390
L105239 49390
" />
<path d="M106519 52961
L106519 53433
" />
<path d="M105840 48119
L105840 49390
" />
<path d="M98448 53433
L98448 52961
" />
<path d="M96470 49390
L96145 49390
" />
<path d="M108497 50492
L108823 50492
" />
<path d="M108823 49390
L108497 49390
" />
<path d="M107818 52961
L108497 52961
" />
<path d="M97149 53433
L98448 53433
" />
<path d="M99128 49390
L99128 48119
" />
<path d="M105239 51201
L105840 51201
" />
<path d="M105239 53051
L105239 51201
" />
<path d="M96145 49390
L96145 50492
" />
<path d="M107818 53433
L107818 52961
" />
<path d="M96470 48119
L96470 49390
" />
<path d="M106519 53433
L107818 53433
" />
<path d="M105239 49390
L105239 47540
" />
<path d="M108497 49390
L108497 48119
" />
<path d="M99128 51201
L99728 51201
" />
<path d="M108823 50492
L108823 49390
" />
<path d="M108497 52961
L108497 50492
" />
<path d="M105840 52961
L106519 52961
" />
<path d="M108497 48119
L105840 48119
" />
<path d="M105840 51201
L105840 52961
" />
<path d="M99728 53051
L105239 53051
" />
<path d="M96470 50492
L96470 52961
" />
<path d="M99728 51201
L99728 53051
" />
<path d="M99728 49390
L99128 49390
" />
<path d="M108394 45933
L109693 45933
" />
<path d="M109693 45933
L109693 45551
" />
<path d="M110373 42992
L110697 42992
" />
<path d="M105352 40040
L101602 40040
" />
<path d="M108394 45551
L108394 45933
" />
<path d="M110697 42992
L110697 41801
" />
<path d="M110373 45551
L110373 42992
" />
<path d="M101602 45551
L108394 45551
" />
<path d="M99024 45551
L99024 45933
" />
<path d="M100323 45933
L100323 45551
" />
<path d="M99024 45933
L100323 45933
" />
<path d="M104415 38051
L104415 32540
" />
<path d="M105352 38051
L104415 38051
" />
<path d="M109927 32540
L109927 33032
" />
<path d="M104415 32540
L109927 32540
" />
<g >
</g>
<g >
</g>
<g >
</g>
<g >
</g>
<g >
</g>
<g >
</g>
<g >
</g>
<g >
</g>
<g >
</g>
<g >
</g>
<g >
</g>
<g >
</g>
<g >
</g>
<g >
</g>
<g >
</g>
<g >
</g>
<g >
</g>
<g >
</g>
<g >
</g>
<g >
</g>
<g >
</g>
<g >
</g>
<g >
</g>
<g >
</g>
<g >
</g>
<g >
</g>
<g >
</g>
<g >
</g>
<g >
</g>
<g >
</g>
<g >
</g>
<g >
</g>
<g >
</g>
<g >
</g>
<g >
</g>
<g >
</g>
<g >
</g>
<g >
</g>
<g >
</g>
<g >
</g>
<g >
</g>
<g >
</g>
<g >
</g>
<g >
</g>
<g >
</g>
<g >
</g>
<g >
</g>
<g >
</g>
<g >
</g>
<g >
</g>
<g >
</g>
<g >
</g>
<g >
</g>
<g >
</g>
<g >
</g>
<g >
</g>
<g >
</g>
<g >
</g>
<g >
</g>
<g >
</g>
<g >
</g>
<g >
</g>
<g >
</g>
<g >
</g>
<g >
</g>
<g >
</g>
<g >
</g>
<g >
</g>
<g >
</g>
<g >
</g>
<g >
</g>
<g >
</g>
<g >
</g>
<g >
</g>
<g >
</g>
<g >
</g>
<g >
</g>
<g >
</g>
<g >
</g>
<g >
</g>
<g >
</g>
<g >
</g>
<g >
</g>
<g >
</g>
<g >
</g>
<g >
</g>
<g >
</g>
<g >
</g>
<g >
</g>
<g >
</g>
<g >
</g>
<g >
</g>
<g >
</g>
<g >
</g>
<g >
</g>
<g >
</g>
<g >
</g>
<g >
</g>
<g >
</g>
<g >
</g>
<g >
</g>
<g >
</g>
<g >
</g>
<g >
</g>
<g >
</g>
<g >
</g>
<g >
</g>
<g >
</g>
<g >
</g>
<g >
</g>
<g >
</g>
<g >
</g>
<g >
</g>
<g >
</g>
<g >
</g>
<g >
</g>
<g >
</g>
<g >
</g>
<g >
</g>
<g >
</g>
<g >
</g>
<g >
</g>
<g >
</g>
<g >
</g>
<g >
</g>
<g >
</g>
<g >
</g>
<g >
</g>
<g >
</g>
<g >
</g>
<g >
</g>
<g >
</g>
<g >
</g>
<g >
</g>
<g >
</g>
<g >
</g>
<g >
</g>
<g >
</g>
<g >
</g>
<g >
</g>
<g >
</g>
<g >
</g>
<g >
</g>
<g >
</g>
<g >
</g>
<g >
</g>
<g >
</g>
<g >
</g>
<g >
</g>
<g >
</g>
<g >
</g>
<g >
</g>
<g >
</g>
<g >
</g>
<g >
</g>
<g >
</g>
<g >
</g>
<g >
</g>
<g >
</g>
<g >
</g>
<g >
</g>
<g >
</g>
<g >
</g>
<g >
</g>
<g >
</g>
<g >
</g>
<g >
</g>
<g >
</g>
<g >
</g>
<g >
</g>
<g >
</g>
<g >
</g>
<g >
</g>
<g >
</g>
<g >
</g>
<g >
</g>
<g >
</g>
<g >
</g>
<g >
</g>
<g >
</g>
<g >
</g>
<g >
</g>
<g >
</g>
<g >
</g>
<g >
</g>
<g >
</g>
<g >
</g>
<g >
</g>
<g >
</g>
<g >
</g>
<g >
</g>
<g >
</g>
<g >
</g>
<g >
</g>
<g >
</g>
<g >
</g>
<g >
</g>
<g >
</g>
<g >
</g>
</g>
<g style="fill:#000000; fill-opacity:0.0; 
stroke:#000000; stroke-width:59.0551; stroke-opacity:1; 
stroke-linecap:round; stroke-linejoin:round;">
</g>
<g style="fill:#000000; fill-opacity:0.0; 
stroke:#000000; stroke-width:78.7402; stroke-opacity:1; 
stroke-linecap:round; stroke-linejoin:round;">
<path d="M137245 830
L137245 60797
" />
<path d="M847.578 39.9858 A807.087 807.087 0.0 0 0 40.7318 827.387" />
<path d="M40.1786 60582.7 A954.601 954.601 0.0 0 0 946.244 61575.4" />
<path d="M136458 61585.3 A787.402 787.402 0.0 0 0 137245 60797.9" />
<path d="M137245 830.537 A772.663 772.663 0.0 0 0 136473 39.3705" />
<path d="M847 39
L136473 39
" />
<path d="M40 60582
L40 827
" />
<path d="M136458 61585
L946 61575
" />
<g >
</g>
<g >
</g>
<g >
</g>
<g >
</g>
<g >
</g>
<g >
</g>
<g >
</g>
<g >
</g>
<g >
</g>
<g >
</g>
<g >
</g>
<g >
</g>
<g >
</g>
<g >
</g>
<g >
</g>
<g >
</g>
<g >
</g>
<g >
</g>
<g >
</g>
<g >
</g>
<g >
</g>
<g >
</g>
<g >
</g>
<g >
</g>
<g >
</g>
<g >
</g>
<g >
</g>
<g >
</g>
<g >
</g>
<g >
</g>
<g >
</g>
<g >
</g>
<g >
</g>
<g >
</g>
<g >
</g>
<g >
</g>
<g >
</g>
<g >
</g>
<g >
</g>
<g >
</g>
<g >
</g>
<g >
</g>
<g >
</g>
<g >
</g>
<g >
</g>
<g >
</g>
<g >
</g>
<g >
</g>
<g >
</g>
<g >
</g>
<g >
</g>
<g >
</g>
<g >
</g>
<g >
</g>
<g >
</g>
<g >
</g>
<g >
</g>
<g >
</g>
<g >
</g>
<g >
</g>
<g >
</g>
<g >
</g>
<g >
</g>
<g >
</g>
<g >
</g>
<g >
</g>
<g >
</g>
<g >
</g>
<g >
</g>
<g >
</g>
<g >
</g>
<g >
</g>
<g >
</g>
<g >
</g>
<g >
</g>
<g >
</g>
<g >
</g>
<g >
</g>
<g >
</g>
<g >
</g>
<g >
</g>
<g >
</g>
<g >
</g>
<g >
</g>
<g >
</g>
<g >
</g>
<g >
</g>
<g >
</g>
<g >
</g>
<g >
</g>
<g >
</g>
<g >
</g>
<g >
</g>
<g >
</g>
<g >
</g>
<g >
</g>
<g >
</g>
<g >
</g>
<g >
</g>
<g >
</g>
<g >
</g>
<g >
</g>
<g >
</g>
<g >
</g>
<g >
</g>
<g >
</g>
<g >
</g>
<g >
</g>
<g >
</g>
<g >
</g>
<g >
</g>
<g >
</g>
<g >
</g>
<g >
</g>
<g >
</g>
<g >
</g>
<g >
</g>
<g >
</g>
<g >
</g>
<g >
</g>
<g >
</g>
<g >
</g>
<g >
</g>
<g >
</g>
<g >
</g>
<g >
</g>
<g >
</g>
<g >
</g>
<g >
</g>
<g >
</g>
<g >
</g>
<g >
</g>
<g >
</g>
<g >
</g>
<g >
</g>
<g >
</g>
<g >
</g>
<g >
</g>
<g >
</g>
<g >
</g>
<g >
</g>
<g >
</g>
<g >
</g>
<g >
</g>
<g >
</g>
<g >
</g>
<g >
</g>
<g >
</g>
<g >
</g>
<g >
</g>
<g >
</g>
<g >
</g>
<g >
</g>
<g >
</g>
<g >
</g>
<g >
</g>
<g >
</g>
<g >
</g>
<g >
</g>
<g >
</g>
<g >
</g>
<g >
</g>
<g >
</g>
<g >
</g>
<g >
</g>
<g >
</g>
<g >
</g>
<g >
</g>
<g >
</g>
<g >
</g>
<g >
</g>
<g >
</g>
<g >
</g>
<g >
</g>
<g >
</g>
<g >
</g>
<g >
</g>
<g >
</g>
<g >
</g>
<g >
</g>
<g >
</g>
<g >
</g>
<g >
</g>
<g >
</g>
<g >
</g>
<g >
</g>
<g >
</g>
<g >
</g>
<g >
</g>
<g >
</g>
<g >
</g>
<g >
</g>
<g >
</g>
<g >
</g>
<g >
</g>
<g >
</g>
<g >
</g>
<g >
</g>
<g >
</g>
</g> 
</svg>
