  0
SECTION
  2
HEADER
  9
$ANGBASE
  50
0.0
  9
$ANGDIR
  70
1
  9
$MEASUREMENT
  70
1
  0
ENDSEC
  0
SECTION
  2
TABLES
  0
TABLE
  2
LTYPE
  70
4
  0
LTYPE
  5
40F
  2
CONTINUOUS
  70
0
  3
Solid line
  72
65
  73
0
  40
0.0
  0
LTYPE
  5
410
  2
DASHDOT
 70
0
  3
Dash Dot ____ _ ____ _
 72
65
 73
4
 40
2.0
 49
1.25
 49
-0.25
 49
0.25
 49
-0.25
  0
LTYPE
  5
411
  2
DASHED
 70
0
  3
Dashed __ __ __ __ __
 72
65
 73
2
 40
0.75
 49
0.5
 49
-0.25
  0
LTYPE
  5
43B
  2
DOTTED
 70
0
  3
Dotted .  .  .  .
 72
65
 73
2
 40
0.2
 49
0.0
 49
-0.2
  0
ENDTAB
  0
TABLE
  2
STYLE
  70
4
  0
STYLE
  2
KICAD
  70
0
  40
0
  41
1
  42
1
  50
0
  71
0
  3
isocp.shx
  0
STYLE
  2
KICADB
  70
0
  40
0
  41
1
  42
1
  50
0
  71
0
  3
isocp.shx
  0
STYLE
  2
KICADI
  70
0
  40
0
  41
1
  42
1
  50
15
  71
0
  3
isocp.shx
  0
STYLE
  2
KICADBI
  70
0
  40
0
  41
1
  42
1
  50
15
  71
0
  3
isocp.shx
  0
ENDTAB
  0
TABLE
  2
LAYER
  70
1
  0
LAYER
  2
BLACK
  70
0
  62
7
  6
CONTINUOUS
  0
ENDTAB
  0
ENDSEC
  0
SECTION
  2
ENTITIES
0
LINE
8
BLACK
6
CONTINUOUS
10
304.045
20
-161.46
11
282.615
21
-161.46
0
LINE
8
BLACK
6
CONTINUOUS
10
317.62
20
-166.16
11
316.796
21
-166.16
0
LINE
8
BLACK
6
CONTINUOUS
10
158.79
20
-194.509
11
158.79
21
-180.51
0
LINE
8
BLACK
6
CONTINUOUS
10
115.639
20
-194.509
11
101.64
21
-194.509
0
LINE
8
BLACK
6
CONTINUOUS
10
301.665
20
-142.41
11
301.665
21
-156.409
0
LINE
8
BLACK
6
CONTINUOUS
10
316.796
20
-175.229
11
316.796
21
-168.959
0
LINE
8
BLACK
6
CONTINUOUS
10
317.62
20
-168.959
11
317.62
21
-166.16
0
LINE
8
BLACK
6
CONTINUOUS
10
115.639
20
-180.51
11
115.639
21
-194.509
0
LINE
8
BLACK
6
CONTINUOUS
10
304.045
20
-156.409
11
304.045
21
-161.46
0
LINE
8
BLACK
6
CONTINUOUS
10
101.64
20
-194.509
11
101.64
21
-180.51
0
LINE
8
BLACK
6
CONTINUOUS
10
82.5902
20
-180.51
11
96.5895
21
-180.51
0
LINE
8
BLACK
6
CONTINUOUS
10
315.071
20
-176.429
11
315.071
21
-175.229
0
LINE
8
BLACK
6
CONTINUOUS
10
287.97
20
-176.429
11
291.269
21
-176.429
0
LINE
8
BLACK
6
CONTINUOUS
10
316.796
20
-166.16
11
316.796
21
-165.934
0
LINE
8
BLACK
6
CONTINUOUS
10
120.69
20
-180.51
11
134.689
21
-180.51
0
LINE
8
BLACK
6
CONTINUOUS
10
310.045
20
-175.229
11
311.77
21
-175.229
0
LINE
8
BLACK
6
CONTINUOUS
10
158.79
20
-180.51
11
172.79
21
-180.51
0
LINE
8
BLACK
6
CONTINUOUS
10
101.64
20
-180.51
11
115.639
21
-180.51
0
LINE
8
BLACK
6
CONTINUOUS
10
311.77
20
-175.229
11
311.77
21
-176.429
0
LINE
8
BLACK
6
CONTINUOUS
10
316.796
20
-168.959
11
317.62
21
-168.959
0
LINE
8
BLACK
6
CONTINUOUS
10
318.046
20
-165.934
11
318.046
21
-151.935
0
LINE
8
BLACK
6
CONTINUOUS
10
308.521
20
-175.459
11
308.521
21
-174.209
0
LINE
8
BLACK
6
CONTINUOUS
10
96.5895
20
-180.51
11
96.5895
21
-194.509
0
LINE
8
BLACK
6
CONTINUOUS
10
308.521
20
-174.209
11
310.045
21
-174.209
0
LINE
8
BLACK
6
CONTINUOUS
10
291.269
20
-175.459
11
308.521
21
-175.459
0
LINE
8
BLACK
6
CONTINUOUS
10
172.79
20
-180.51
11
172.79
21
-194.509
0
LINE
8
BLACK
6
CONTINUOUS
10
172.79
20
-194.509
11
158.79
21
-194.509
0
LINE
8
BLACK
6
CONTINUOUS
10
287.97
20
-175.459
11
287.97
21
-176.429
0
LINE
8
BLACK
6
CONTINUOUS
10
316.796
20
-165.934
11
318.046
21
-165.934
0
LINE
8
BLACK
6
CONTINUOUS
10
134.689
20
-194.509
11
120.69
21
-194.509
0
LINE
8
BLACK
6
CONTINUOUS
10
139.74
20
-194.509
11
139.74
21
-180.51
0
LINE
8
BLACK
6
CONTINUOUS
10
82.5902
20
-194.509
11
82.5902
21
-180.51
0
LINE
8
BLACK
6
CONTINUOUS
10
311.77
20
-176.429
11
315.071
21
-176.429
0
LINE
8
BLACK
6
CONTINUOUS
10
318.046
20
-151.935
11
315.665
21
-151.935
0
LINE
8
BLACK
6
CONTINUOUS
10
120.69
20
-194.509
11
120.69
21
-180.51
0
LINE
8
BLACK
6
CONTINUOUS
10
282.615
20
-161.46
11
282.615
21
-175.459
0
LINE
8
BLACK
6
CONTINUOUS
10
315.071
20
-175.229
11
316.796
21
-175.229
0
LINE
8
BLACK
6
CONTINUOUS
10
139.74
20
-180.51
11
153.74
21
-180.51
0
LINE
8
BLACK
6
CONTINUOUS
10
310.045
20
-174.209
11
310.045
21
-175.229
0
LINE
8
BLACK
6
CONTINUOUS
10
153.74
20
-180.51
11
153.74
21
-194.509
0
LINE
8
BLACK
6
CONTINUOUS
10
153.74
20
-194.509
11
139.74
21
-194.509
0
LINE
8
BLACK
6
CONTINUOUS
10
96.5895
20
-194.509
11
82.5902
21
-194.509
0
LINE
8
BLACK
6
CONTINUOUS
10
282.615
20
-175.459
11
287.97
21
-175.459
0
LINE
8
BLACK
6
CONTINUOUS
10
134.689
20
-180.51
11
134.689
21
-194.509
0
LINE
8
BLACK
6
CONTINUOUS
10
301.665
20
-156.409
11
304.045
21
-156.409
0
LINE
8
BLACK
6
CONTINUOUS
10
291.269
20
-176.429
11
291.269
21
-175.459
0
LINE
8
BLACK
6
CONTINUOUS
10
310.902
20
-123.36
11
296.903
21
-123.36
0
LINE
8
BLACK
6
CONTINUOUS
10
312.428
20
-124.83
11
312.428
21
-128.06
0
LINE
8
BLACK
6
CONTINUOUS
10
317.452
20
-138.329
11
317.452
21
-137.129
0
LINE
8
BLACK
6
CONTINUOUS
10
319.177
20
-137.129
11
319.177
21
-130.859
0
LINE
8
BLACK
6
CONTINUOUS
10
319.177
20
-130.859
11
320.003
21
-130.859
0
LINE
8
BLACK
6
CONTINUOUS
10
368.34
20
-123.36
11
382.34
21
-123.36
0
LINE
8
BLACK
6
CONTINUOUS
10
320.003
20
-128.06
11
319.177
21
-128.06
0
LINE
8
BLACK
6
CONTINUOUS
10
363.29
20
-123.36
11
363.29
21
-137.359
0
LINE
8
BLACK
6
CONTINUOUS
10
319.177
20
-128.06
11
319.177
21
-124.83
0
LINE
8
BLACK
6
CONTINUOUS
10
363.29
20
-137.359
11
349.29
21
-137.359
0
LINE
8
BLACK
6
CONTINUOUS
10
382.34
20
-137.359
11
368.34
21
-137.359
0
LINE
8
BLACK
6
CONTINUOUS
10
320.003
20
-130.859
11
320.003
21
-128.06
0
LINE
8
BLACK
6
CONTINUOUS
10
312.428
20
-128.06
11
310.902
21
-128.06
0
LINE
8
BLACK
6
CONTINUOUS
10
319.177
20
-124.83
11
312.428
21
-124.83
0
LINE
8
BLACK
6
CONTINUOUS
10
349.29
20
-123.36
11
363.29
21
-123.36
0
LINE
8
BLACK
6
CONTINUOUS
10
312.428
20
-132.66
11
312.428
21
-137.129
0
LINE
8
BLACK
6
CONTINUOUS
10
310.902
20
-128.06
11
310.902
21
-123.36
0
LINE
8
BLACK
6
CONTINUOUS
10
368.34
20
-137.359
11
368.34
21
-123.36
0
LINE
8
BLACK
6
CONTINUOUS
10
382.34
20
-123.36
11
382.34
21
-137.359
0
LINE
8
BLACK
6
CONTINUOUS
10
312.428
20
-137.129
11
314.153
21
-137.129
0
LINE
8
BLACK
6
CONTINUOUS
10
317.452
20
-137.129
11
319.177
21
-137.129
0
LINE
8
BLACK
6
CONTINUOUS
10
314.153
20
-137.129
11
314.153
21
-138.329
0
LINE
8
BLACK
6
CONTINUOUS
10
314.153
20
-138.329
11
317.452
21
-138.329
0
LINE
8
BLACK
6
CONTINUOUS
10
163.553
20
-156.409
11
163.553
21
-142.41
0
LINE
8
BLACK
6
CONTINUOUS
10
125.453
20
-156.409
11
125.453
21
-142.41
0
LINE
8
BLACK
6
CONTINUOUS
10
106.403
20
-156.409
11
106.403
21
-142.41
0
LINE
8
BLACK
6
CONTINUOUS
10
101.352
20
-142.41
11
101.352
21
-156.409
0
LINE
8
BLACK
6
CONTINUOUS
10
144.503
20
-142.41
11
158.502
21
-142.41
0
LINE
8
BLACK
6
CONTINUOUS
10
158.502
20
-142.41
11
158.502
21
-156.409
0
LINE
8
BLACK
6
CONTINUOUS
10
144.503
20
-156.409
11
144.503
21
-142.41
0
LINE
8
BLACK
6
CONTINUOUS
10
82.302
20
-156.409
11
68.3027
21
-156.409
0
LINE
8
BLACK
6
CONTINUOUS
10
125.453
20
-142.41
11
139.452
21
-142.41
0
LINE
8
BLACK
6
CONTINUOUS
10
139.452
20
-142.41
11
139.452
21
-156.409
0
LINE
8
BLACK
6
CONTINUOUS
10
44.4902
20
-142.41
11
58.4897
21
-142.41
0
LINE
8
BLACK
6
CONTINUOUS
10
158.502
20
-156.409
11
144.503
21
-156.409
0
LINE
8
BLACK
6
CONTINUOUS
10
120.402
20
-142.41
11
120.402
21
-156.409
0
LINE
8
BLACK
6
CONTINUOUS
10
139.452
20
-156.409
11
125.453
21
-156.409
0
LINE
8
BLACK
6
CONTINUOUS
10
106.403
20
-142.41
11
120.402
21
-142.41
0
LINE
8
BLACK
6
CONTINUOUS
10
120.402
20
-156.409
11
106.403
21
-156.409
0
LINE
8
BLACK
6
CONTINUOUS
10
87.3527
20
-142.41
11
101.352
21
-142.41
0
LINE
8
BLACK
6
CONTINUOUS
10
82.302
20
-142.41
11
82.302
21
-156.409
0
LINE
8
BLACK
6
CONTINUOUS
10
101.352
20
-156.409
11
87.3527
21
-156.409
0
LINE
8
BLACK
6
CONTINUOUS
10
87.3527
20
-156.409
11
87.3527
21
-142.41
0
LINE
8
BLACK
6
CONTINUOUS
10
68.3027
20
-156.409
11
68.3027
21
-142.41
0
LINE
8
BLACK
6
CONTINUOUS
10
68.3027
20
-142.41
11
82.302
21
-142.41
0
LINE
8
BLACK
6
CONTINUOUS
10
177.552
20
-156.409
11
163.553
21
-156.409
0
LINE
8
BLACK
6
CONTINUOUS
10
182.603
20
-142.41
11
196.602
21
-142.41
0
LINE
8
BLACK
6
CONTINUOUS
10
291.852
20
-156.409
11
277.853
21
-156.409
0
LINE
8
BLACK
6
CONTINUOUS
10
60.8709
20
-175.459
11
46.87
21
-175.459
0
LINE
8
BLACK
6
CONTINUOUS
10
196.602
20
-142.41
11
196.602
21
-156.409
0
LINE
8
BLACK
6
CONTINUOUS
10
215.652
20
-142.41
11
215.652
21
-156.409
0
LINE
8
BLACK
6
CONTINUOUS
10
349.29
20
-156.409
11
349.29
21
-142.41
0
LINE
8
BLACK
6
CONTINUOUS
10
234.702
20
-156.409
11
220.703
21
-156.409
0
LINE
8
BLACK
6
CONTINUOUS
10
215.652
20
-156.409
11
201.653
21
-156.409
0
LINE
8
BLACK
6
CONTINUOUS
10
182.603
20
-156.409
11
182.603
21
-142.41
0
LINE
8
BLACK
6
CONTINUOUS
10
253.752
20
-156.409
11
239.753
21
-156.409
0
LINE
8
BLACK
6
CONTINUOUS
10
46.87
20
-175.459
11
46.87
21
-161.46
0
LINE
8
BLACK
6
CONTINUOUS
10
368.34
20
-142.41
11
382.34
21
-142.41
0
LINE
8
BLACK
6
CONTINUOUS
10
382.34
20
-142.41
11
382.34
21
-156.409
0
LINE
8
BLACK
6
CONTINUOUS
10
277.853
20
-142.41
11
291.852
21
-142.41
0
LINE
8
BLACK
6
CONTINUOUS
10
272.802
20
-156.409
11
258.803
21
-156.409
0
LINE
8
BLACK
6
CONTINUOUS
10
330.24
20
-156.409
11
330.24
21
-142.41
0
LINE
8
BLACK
6
CONTINUOUS
10
239.753
20
-156.409
11
239.753
21
-142.41
0
LINE
8
BLACK
6
CONTINUOUS
10
73.0652
20
-161.46
11
87.0645
21
-161.46
0
LINE
8
BLACK
6
CONTINUOUS
10
87.0645
20
-175.459
11
73.0652
21
-175.459
0
LINE
8
BLACK
6
CONTINUOUS
10
46.87
20
-161.46
11
60.8709
21
-161.46
0
LINE
8
BLACK
6
CONTINUOUS
10
60.8709
20
-161.46
11
60.8709
21
-175.459
0
LINE
8
BLACK
6
CONTINUOUS
10
382.34
20
-156.409
11
368.34
21
-156.409
0
LINE
8
BLACK
6
CONTINUOUS
10
368.34
20
-156.409
11
368.34
21
-142.41
0
LINE
8
BLACK
6
CONTINUOUS
10
277.853
20
-156.409
11
277.853
21
-142.41
0
LINE
8
BLACK
6
CONTINUOUS
10
291.852
20
-142.41
11
291.852
21
-156.409
0
LINE
8
BLACK
6
CONTINUOUS
10
163.553
20
-142.41
11
177.552
21
-142.41
0
LINE
8
BLACK
6
CONTINUOUS
10
253.752
20
-142.41
11
253.752
21
-156.409
0
LINE
8
BLACK
6
CONTINUOUS
10
363.29
20
-142.41
11
363.29
21
-156.409
0
LINE
8
BLACK
6
CONTINUOUS
10
363.29
20
-156.409
11
349.29
21
-156.409
0
LINE
8
BLACK
6
CONTINUOUS
10
239.753
20
-142.41
11
253.752
21
-142.41
0
LINE
8
BLACK
6
CONTINUOUS
10
344.24
20
-156.409
11
330.24
21
-156.409
0
LINE
8
BLACK
6
CONTINUOUS
10
258.803
20
-142.41
11
272.802
21
-142.41
0
LINE
8
BLACK
6
CONTINUOUS
10
272.802
20
-142.41
11
272.802
21
-156.409
0
LINE
8
BLACK
6
CONTINUOUS
10
196.602
20
-156.409
11
182.603
21
-156.409
0
LINE
8
BLACK
6
CONTINUOUS
10
258.803
20
-156.409
11
258.803
21
-142.41
0
LINE
8
BLACK
6
CONTINUOUS
10
220.703
20
-156.409
11
220.703
21
-142.41
0
LINE
8
BLACK
6
CONTINUOUS
10
177.552
20
-142.41
11
177.552
21
-156.409
0
LINE
8
BLACK
6
CONTINUOUS
10
201.653
20
-142.41
11
215.652
21
-142.41
0
LINE
8
BLACK
6
CONTINUOUS
10
344.24
20
-142.41
11
344.24
21
-156.409
0
LINE
8
BLACK
6
CONTINUOUS
10
220.703
20
-142.41
11
234.702
21
-142.41
0
LINE
8
BLACK
6
CONTINUOUS
10
201.653
20
-156.409
11
201.653
21
-142.41
0
LINE
8
BLACK
6
CONTINUOUS
10
234.702
20
-142.41
11
234.702
21
-156.409
0
LINE
8
BLACK
6
CONTINUOUS
10
87.0645
20
-161.46
11
87.0645
21
-175.459
0
LINE
8
BLACK
6
CONTINUOUS
10
73.0652
20
-175.459
11
73.0652
21
-161.46
0
LINE
8
BLACK
6
CONTINUOUS
10
349.29
20
-142.41
11
363.29
21
-142.41
0
LINE
8
BLACK
6
CONTINUOUS
10
330.24
20
-142.41
11
344.24
21
-142.41
0
LINE
8
BLACK
6
CONTINUOUS
10
288.628
20
-130.859
11
288.628
21
-137.129
0
LINE
8
BLACK
6
CONTINUOUS
10
290.351
20
-138.329
11
293.652
21
-138.329
0
LINE
8
BLACK
6
CONTINUOUS
10
293.652
20
-137.129
11
295.377
21
-137.129
0
LINE
8
BLACK
6
CONTINUOUS
10
295.377
20
-132.66
11
296.903
21
-132.66
0
LINE
8
BLACK
6
CONTINUOUS
10
310.902
20
-132.66
11
312.428
21
-132.66
0
LINE
8
BLACK
6
CONTINUOUS
10
295.377
20
-137.129
11
295.377
21
-132.66
0
LINE
8
BLACK
6
CONTINUOUS
10
293.652
20
-138.329
11
293.652
21
-137.129
0
LINE
8
BLACK
6
CONTINUOUS
10
58.4897
20
-142.41
11
58.4897
21
-156.409
0
LINE
8
BLACK
6
CONTINUOUS
10
290.351
20
-137.129
11
290.351
21
-138.329
0
LINE
8
BLACK
6
CONTINUOUS
10
296.903
20
-137.359
11
310.902
21
-137.359
0
LINE
8
BLACK
6
CONTINUOUS
10
288.628
20
-137.129
11
290.351
21
-137.129
0
LINE
8
BLACK
6
CONTINUOUS
10
58.4897
20
-156.409
11
44.4902
21
-156.409
0
LINE
8
BLACK
6
CONTINUOUS
10
296.903
20
-128.06
11
295.377
21
-128.06
0
LINE
8
BLACK
6
CONTINUOUS
10
44.4902
20
-156.409
11
44.4902
21
-142.41
0
LINE
8
BLACK
6
CONTINUOUS
10
296.903
20
-123.36
11
296.903
21
-128.06
0
LINE
8
BLACK
6
CONTINUOUS
10
295.377
20
-128.06
11
295.377
21
-124.83
0
LINE
8
BLACK
6
CONTINUOUS
10
287.802
20
-128.06
11
287.802
21
-130.859
0
LINE
8
BLACK
6
CONTINUOUS
10
296.903
20
-132.66
11
296.903
21
-137.359
0
LINE
8
BLACK
6
CONTINUOUS
10
295.377
20
-124.83
11
288.628
21
-124.83
0
LINE
8
BLACK
6
CONTINUOUS
10
288.628
20
-124.83
11
288.628
21
-128.06
0
LINE
8
BLACK
6
CONTINUOUS
10
310.902
20
-137.359
11
310.902
21
-132.66
0
LINE
8
BLACK
6
CONTINUOUS
10
287.802
20
-130.859
11
288.628
21
-130.859
0
LINE
8
BLACK
6
CONTINUOUS
10
288.628
20
-128.06
11
287.802
21
-128.06
0
LINE
8
BLACK
6
CONTINUOUS
10
72.1832
20
-194.509
11
77.5395
21
-194.509
0
LINE
8
BLACK
6
CONTINUOUS
10
68.8828
20
-195.48
11
72.1832
21
-195.48
0
LINE
8
BLACK
6
CONTINUOUS
10
303.758
20
-185.21
11
303.758
21
-180.51
0
LINE
8
BLACK
6
CONTINUOUS
10
42.1089
20
-180.51
11
42.1089
21
-194.509
0
LINE
8
BLACK
6
CONTINUOUS
10
68.8828
20
-194.509
11
68.8828
21
-195.48
0
LINE
8
BLACK
6
CONTINUOUS
10
215.94
20
-180.51
11
229.94
21
-180.51
0
LINE
8
BLACK
6
CONTINUOUS
10
210.89
20
-194.509
11
196.89
21
-194.509
0
LINE
8
BLACK
6
CONTINUOUS
10
196.89
20
-194.509
11
196.89
21
-180.51
0
LINE
8
BLACK
6
CONTINUOUS
10
72.1832
20
-195.48
11
72.1832
21
-194.509
0
LINE
8
BLACK
6
CONTINUOUS
10
303.758
20
-180.51
11
289.758
21
-180.51
0
LINE
8
BLACK
6
CONTINUOUS
10
45.0841
20
-194.509
11
45.0841
21
-195.48
0
LINE
8
BLACK
6
CONTINUOUS
10
248.99
20
-194.509
11
234.99
21
-194.509
0
LINE
8
BLACK
6
CONTINUOUS
10
42.1089
20
-194.509
11
45.0841
21
-194.509
0
LINE
8
BLACK
6
CONTINUOUS
10
363.29
20
-180.51
11
363.29
21
-194.509
0
LINE
8
BLACK
6
CONTINUOUS
10
254.04
20
-194.509
11
254.04
21
-180.51
0
LINE
8
BLACK
6
CONTINUOUS
10
229.94
20
-194.509
11
215.94
21
-194.509
0
LINE
8
BLACK
6
CONTINUOUS
10
45.0841
20
-195.48
11
48.3831
21
-195.48
0
LINE
8
BLACK
6
CONTINUOUS
10
191.84
20
-194.509
11
177.84
21
-194.509
0
LINE
8
BLACK
6
CONTINUOUS
10
254.04
20
-180.51
11
268.04
21
-180.51
0
LINE
8
BLACK
6
CONTINUOUS
10
234.99
20
-180.51
11
248.99
21
-180.51
0
LINE
8
BLACK
6
CONTINUOUS
10
229.94
20
-180.51
11
229.94
21
-194.509
0
LINE
8
BLACK
6
CONTINUOUS
10
196.89
20
-180.51
11
210.89
21
-180.51
0
LINE
8
BLACK
6
CONTINUOUS
10
349.29
20
-194.509
11
349.29
21
-180.51
0
LINE
8
BLACK
6
CONTINUOUS
10
268.04
20
-180.51
11
268.04
21
-194.509
0
LINE
8
BLACK
6
CONTINUOUS
10
215.94
20
-194.509
11
215.94
21
-180.51
0
LINE
8
BLACK
6
CONTINUOUS
10
312.033
20
-194.279
11
312.033
21
-188.009
0
LINE
8
BLACK
6
CONTINUOUS
10
312.859
20
-185.21
11
312.033
21
-185.21
0
LINE
8
BLACK
6
CONTINUOUS
10
305.284
20
-181.98
11
305.284
21
-185.21
0
LINE
8
BLACK
6
CONTINUOUS
10
349.29
20
-180.51
11
363.29
21
-180.51
0
LINE
8
BLACK
6
CONTINUOUS
10
305.284
20
-185.21
11
303.758
21
-185.21
0
LINE
8
BLACK
6
CONTINUOUS
10
48.3831
20
-194.509
11
68.8828
21
-194.509
0
LINE
8
BLACK
6
CONTINUOUS
10
77.5395
20
-194.509
11
77.5395
21
-180.51
0
LINE
8
BLACK
6
CONTINUOUS
10
248.99
20
-180.51
11
248.99
21
-194.509
0
LINE
8
BLACK
6
CONTINUOUS
10
234.99
20
-194.509
11
234.99
21
-180.51
0
LINE
8
BLACK
6
CONTINUOUS
10
177.84
20
-180.51
11
191.84
21
-180.51
0
LINE
8
BLACK
6
CONTINUOUS
10
210.89
20
-180.51
11
210.89
21
-194.509
0
LINE
8
BLACK
6
CONTINUOUS
10
177.84
20
-194.509
11
177.84
21
-180.51
0
LINE
8
BLACK
6
CONTINUOUS
10
191.84
20
-180.51
11
191.84
21
-194.509
0
LINE
8
BLACK
6
CONTINUOUS
10
268.04
20
-194.509
11
254.04
21
-194.509
0
LINE
8
BLACK
6
CONTINUOUS
10
312.033
20
-188.009
11
312.859
21
-188.009
0
LINE
8
BLACK
6
CONTINUOUS
10
312.859
20
-188.009
11
312.859
21
-185.21
0
LINE
8
BLACK
6
CONTINUOUS
10
48.3831
20
-195.48
11
48.3831
21
-194.509
0
LINE
8
BLACK
6
CONTINUOUS
10
77.5395
20
-180.51
11
42.1089
21
-180.51
0
LINE
8
BLACK
6
CONTINUOUS
10
312.033
20
-185.21
11
312.033
21
-181.98
0
LINE
8
BLACK
6
CONTINUOUS
10
312.033
20
-181.98
11
305.284
21
-181.98
0
LINE
8
BLACK
6
CONTINUOUS
10
363.29
20
-194.509
11
349.29
21
-194.509
0
LINE
8
BLACK
6
CONTINUOUS
10
316.575
20
-143.66
11
315.665
21
-143.66
0
LINE
8
BLACK
6
CONTINUOUS
10
111.165
20
-161.46
11
125.164
21
-161.46
0
LINE
8
BLACK
6
CONTINUOUS
10
182.315
20
-175.459
11
168.315
21
-175.459
0
LINE
8
BLACK
6
CONTINUOUS
10
258.515
20
-175.459
11
244.515
21
-175.459
0
LINE
8
BLACK
6
CONTINUOUS
10
206.415
20
-161.46
11
220.415
21
-161.46
0
LINE
8
BLACK
6
CONTINUOUS
10
106.114
20
-175.459
11
92.1152
21
-175.459
0
LINE
8
BLACK
6
CONTINUOUS
10
220.415
20
-175.459
11
206.415
21
-175.459
0
LINE
8
BLACK
6
CONTINUOUS
10
220.415
20
-161.46
11
220.415
21
-175.459
0
LINE
8
BLACK
6
CONTINUOUS
10
206.415
20
-175.459
11
206.415
21
-161.46
0
LINE
8
BLACK
6
CONTINUOUS
10
144.215
20
-175.459
11
130.215
21
-175.459
0
LINE
8
BLACK
6
CONTINUOUS
10
239.465
20
-161.46
11
239.465
21
-175.459
0
LINE
8
BLACK
6
CONTINUOUS
10
182.315
20
-161.46
11
182.315
21
-175.459
0
LINE
8
BLACK
6
CONTINUOUS
10
149.265
20
-161.46
11
163.265
21
-161.46
0
LINE
8
BLACK
6
CONTINUOUS
10
225.465
20
-175.459
11
225.465
21
-161.46
0
LINE
8
BLACK
6
CONTINUOUS
10
315.665
20
-151.935
11
315.665
21
-150.41
0
LINE
8
BLACK
6
CONTINUOUS
10
277.565
20
-175.459
11
263.565
21
-175.459
0
LINE
8
BLACK
6
CONTINUOUS
10
187.365
20
-161.46
11
201.365
21
-161.46
0
LINE
8
BLACK
6
CONTINUOUS
10
163.265
20
-161.46
11
163.265
21
-175.459
0
LINE
8
BLACK
6
CONTINUOUS
10
315.665
20
-150.41
11
316.575
21
-150.41
0
LINE
8
BLACK
6
CONTINUOUS
10
130.215
20
-175.459
11
130.215
21
-161.46
0
LINE
8
BLACK
6
CONTINUOUS
10
106.114
20
-161.46
11
106.114
21
-175.459
0
LINE
8
BLACK
6
CONTINUOUS
10
263.565
20
-161.46
11
277.565
21
-161.46
0
LINE
8
BLACK
6
CONTINUOUS
10
201.365
20
-175.459
11
187.365
21
-175.459
0
LINE
8
BLACK
6
CONTINUOUS
10
316.575
20
-150.41
11
316.575
21
-143.66
0
LINE
8
BLACK
6
CONTINUOUS
10
315.665
20
-143.66
11
315.665
21
-142.41
0
LINE
8
BLACK
6
CONTINUOUS
10
144.215
20
-161.46
11
144.215
21
-175.459
0
LINE
8
BLACK
6
CONTINUOUS
10
168.315
20
-161.46
11
182.315
21
-161.46
0
LINE
8
BLACK
6
CONTINUOUS
10
277.565
20
-161.46
11
277.565
21
-175.459
0
LINE
8
BLACK
6
CONTINUOUS
10
263.565
20
-175.459
11
263.565
21
-161.46
0
LINE
8
BLACK
6
CONTINUOUS
10
244.515
20
-161.46
11
258.515
21
-161.46
0
LINE
8
BLACK
6
CONTINUOUS
10
258.515
20
-161.46
11
258.515
21
-175.459
0
LINE
8
BLACK
6
CONTINUOUS
10
168.315
20
-175.459
11
168.315
21
-161.46
0
LINE
8
BLACK
6
CONTINUOUS
10
225.465
20
-161.46
11
239.465
21
-161.46
0
LINE
8
BLACK
6
CONTINUOUS
10
201.365
20
-161.46
11
201.365
21
-175.459
0
LINE
8
BLACK
6
CONTINUOUS
10
92.1152
20
-161.46
11
106.114
21
-161.46
0
LINE
8
BLACK
6
CONTINUOUS
10
130.215
20
-161.46
11
144.215
21
-161.46
0
LINE
8
BLACK
6
CONTINUOUS
10
163.265
20
-175.459
11
149.265
21
-175.459
0
LINE
8
BLACK
6
CONTINUOUS
10
125.164
20
-161.46
11
125.164
21
-175.459
0
LINE
8
BLACK
6
CONTINUOUS
10
125.164
20
-175.459
11
111.165
21
-175.459
0
LINE
8
BLACK
6
CONTINUOUS
10
111.165
20
-175.459
11
111.165
21
-161.46
0
LINE
8
BLACK
6
CONTINUOUS
10
92.1152
20
-175.459
11
92.1152
21
-161.46
0
LINE
8
BLACK
6
CONTINUOUS
10
315.665
20
-142.41
11
301.665
21
-142.41
0
LINE
8
BLACK
6
CONTINUOUS
10
244.515
20
-175.459
11
244.515
21
-161.46
0
LINE
8
BLACK
6
CONTINUOUS
10
187.365
20
-175.459
11
187.365
21
-161.46
0
LINE
8
BLACK
6
CONTINUOUS
10
149.265
20
-175.459
11
149.265
21
-161.46
0
LINE
8
BLACK
6
CONTINUOUS
10
239.465
20
-175.459
11
225.465
21
-175.459
0
LINE
8
BLACK
6
CONTINUOUS
10
330.24
20
-137.359
11
330.24
21
-123.36
0
LINE
8
BLACK
6
CONTINUOUS
10
344.24
20
-137.359
11
330.24
21
-137.359
0
LINE
8
BLACK
6
CONTINUOUS
10
268.328
20
-123.36
11
282.327
21
-123.36
0
LINE
8
BLACK
6
CONTINUOUS
10
249.278
20
-123.36
11
263.277
21
-123.36
0
LINE
8
BLACK
6
CONTINUOUS
10
244.227
20
-123.36
11
244.227
21
-137.359
0
LINE
8
BLACK
6
CONTINUOUS
10
230.228
20
-137.359
11
230.228
21
-123.36
0
LINE
8
BLACK
6
CONTINUOUS
10
244.227
20
-137.359
11
230.228
21
-137.359
0
LINE
8
BLACK
6
CONTINUOUS
10
206.127
20
-123.36
11
206.127
21
-137.359
0
LINE
8
BLACK
6
CONTINUOUS
10
211.178
20
-123.36
11
225.177
21
-123.36
0
LINE
8
BLACK
6
CONTINUOUS
10
263.277
20
-137.359
11
249.278
21
-137.359
0
LINE
8
BLACK
6
CONTINUOUS
10
282.327
20
-123.36
11
282.327
21
-137.359
0
LINE
8
BLACK
6
CONTINUOUS
10
282.327
20
-137.359
11
268.328
21
-137.359
0
LINE
8
BLACK
6
CONTINUOUS
10
249.278
20
-137.359
11
249.278
21
-123.36
0
LINE
8
BLACK
6
CONTINUOUS
10
225.177
20
-123.36
11
225.177
21
-137.359
0
LINE
8
BLACK
6
CONTINUOUS
10
192.128
20
-123.36
11
206.127
21
-123.36
0
LINE
8
BLACK
6
CONTINUOUS
10
225.177
20
-137.359
11
211.178
21
-137.359
0
LINE
8
BLACK
6
CONTINUOUS
10
330.24
20
-123.36
11
344.24
21
-123.36
0
LINE
8
BLACK
6
CONTINUOUS
10
263.277
20
-123.36
11
263.277
21
-137.359
0
LINE
8
BLACK
6
CONTINUOUS
10
230.228
20
-123.36
11
244.227
21
-123.36
0
LINE
8
BLACK
6
CONTINUOUS
10
268.328
20
-137.359
11
268.328
21
-123.36
0
LINE
8
BLACK
6
CONTINUOUS
10
349.29
20
-137.359
11
349.29
21
-123.36
0
LINE
8
BLACK
6
CONTINUOUS
10
344.24
20
-123.36
11
344.24
21
-137.359
0
LINE
8
BLACK
6
CONTINUOUS
10
211.178
20
-137.359
11
211.178
21
-123.36
0
LINE
8
BLACK
6
CONTINUOUS
10
115.928
20
-108.784
11
115.928
21
-94.785
0
LINE
8
BLACK
6
CONTINUOUS
10
77.8277
20
-94.785
11
91.827
21
-94.785
0
LINE
8
BLACK
6
CONTINUOUS
10
110.877
20
-94.785
11
110.877
21
-108.784
0
LINE
8
BLACK
6
CONTINUOUS
10
91.827
20
-94.785
11
91.827
21
-108.784
0
LINE
8
BLACK
6
CONTINUOUS
10
96.8777
20
-108.784
11
96.8777
21
-94.785
0
LINE
8
BLACK
6
CONTINUOUS
10
129.927
20
-94.785
11
129.927
21
-108.784
0
LINE
8
BLACK
6
CONTINUOUS
10
115.928
20
-94.785
11
129.927
21
-94.785
0
LINE
8
BLACK
6
CONTINUOUS
10
177.552
20
-108.784
11
163.553
21
-108.784
0
LINE
8
BLACK
6
CONTINUOUS
10
177.552
20
-94.785
11
177.552
21
-108.784
0
LINE
8
BLACK
6
CONTINUOUS
10
96.8777
20
-94.785
11
110.877
21
-94.785
0
LINE
8
BLACK
6
CONTINUOUS
10
110.877
20
-108.784
11
96.8777
21
-108.784
0
LINE
8
BLACK
6
CONTINUOUS
10
182.603
20
-94.785
11
196.602
21
-94.785
0
LINE
8
BLACK
6
CONTINUOUS
10
196.602
20
-108.784
11
182.603
21
-108.784
0
LINE
8
BLACK
6
CONTINUOUS
10
201.653
20
-108.784
11
201.653
21
-94.785
0
LINE
8
BLACK
6
CONTINUOUS
10
196.602
20
-94.785
11
196.602
21
-108.784
0
LINE
8
BLACK
6
CONTINUOUS
10
163.553
20
-108.784
11
163.553
21
-94.785
0
LINE
8
BLACK
6
CONTINUOUS
10
182.603
20
-108.784
11
182.603
21
-94.785
0
LINE
8
BLACK
6
CONTINUOUS
10
148.977
20
-108.784
11
134.976
21
-108.784
0
LINE
8
BLACK
6
CONTINUOUS
10
134.976
20
-108.784
11
134.976
21
-94.785
0
LINE
8
BLACK
6
CONTINUOUS
10
163.553
20
-94.785
11
177.552
21
-94.785
0
LINE
8
BLACK
6
CONTINUOUS
10
134.976
20
-94.785
11
148.977
21
-94.785
0
LINE
8
BLACK
6
CONTINUOUS
10
129.927
20
-108.784
11
115.928
21
-108.784
0
LINE
8
BLACK
6
CONTINUOUS
10
148.977
20
-94.785
11
148.977
21
-108.784
0
LINE
8
BLACK
6
CONTINUOUS
10
222.371
20
-206.061
11
221.547
21
-206.061
0
LINE
8
BLACK
6
CONTINUOUS
10
221.547
20
-212.09
11
221.547
21
-208.86
0
LINE
8
BLACK
6
CONTINUOUS
10
222.371
20
-208.86
11
222.371
21
-206.061
0
LINE
8
BLACK
6
CONTINUOUS
10
221.547
20
-206.061
11
221.547
21
-199.791
0
LINE
8
BLACK
6
CONTINUOUS
10
214.796
20
-212.09
11
221.547
21
-212.09
0
LINE
8
BLACK
6
CONTINUOUS
10
175.172
20
-213.56
11
175.172
21
-208.86
0
LINE
8
BLACK
6
CONTINUOUS
10
175.172
20
-208.86
11
214.796
21
-208.86
0
LINE
8
BLACK
6
CONTINUOUS
10
214.796
20
-208.86
11
214.796
21
-212.09
0
LINE
8
BLACK
6
CONTINUOUS
10
221.547
20
-208.86
11
222.371
21
-208.86
0
LINE
8
BLACK
6
CONTINUOUS
10
283.209
20
-194.279
11
283.209
21
-195.48
0
LINE
8
BLACK
6
CONTINUOUS
10
307.009
20
-195.48
11
310.308
21
-195.48
0
LINE
8
BLACK
6
CONTINUOUS
10
310.308
20
-194.279
11
312.033
21
-194.279
0
LINE
8
BLACK
6
CONTINUOUS
10
289.758
20
-189.81
11
289.758
21
-194.509
0
LINE
8
BLACK
6
CONTINUOUS
10
289.758
20
-194.509
11
303.758
21
-194.509
0
LINE
8
BLACK
6
CONTINUOUS
10
281.484
20
-181.98
11
281.484
21
-185.21
0
LINE
8
BLACK
6
CONTINUOUS
10
56.1084
20
-213.559
11
42.1089
21
-213.559
0
LINE
8
BLACK
6
CONTINUOUS
10
42.1089
20
-213.559
11
42.1089
21
-199.56
0
LINE
8
BLACK
6
CONTINUOUS
10
288.234
20
-185.21
11
288.234
21
-181.98
0
LINE
8
BLACK
6
CONTINUOUS
10
286.508
20
-195.48
11
286.508
21
-194.279
0
LINE
8
BLACK
6
CONTINUOUS
10
289.758
20
-185.21
11
288.234
21
-185.21
0
LINE
8
BLACK
6
CONTINUOUS
10
280.658
20
-188.009
11
281.484
21
-188.009
0
LINE
8
BLACK
6
CONTINUOUS
10
288.234
20
-194.279
11
288.234
21
-189.81
0
LINE
8
BLACK
6
CONTINUOUS
10
280.658
20
-185.21
11
280.658
21
-188.009
0
LINE
8
BLACK
6
CONTINUOUS
10
286.508
20
-194.279
11
288.234
21
-194.279
0
LINE
8
BLACK
6
CONTINUOUS
10
288.234
20
-181.98
11
281.484
21
-181.98
0
LINE
8
BLACK
6
CONTINUOUS
10
281.484
20
-185.21
11
280.658
21
-185.21
0
LINE
8
BLACK
6
CONTINUOUS
10
283.209
20
-195.48
11
286.508
21
-195.48
0
LINE
8
BLACK
6
CONTINUOUS
10
288.234
20
-189.81
11
289.758
21
-189.81
0
LINE
8
BLACK
6
CONTINUOUS
10
305.284
20
-189.81
11
305.284
21
-194.279
0
LINE
8
BLACK
6
CONTINUOUS
10
305.284
20
-194.279
11
307.009
21
-194.279
0
LINE
8
BLACK
6
CONTINUOUS
10
303.758
20
-194.509
11
303.758
21
-189.81
0
LINE
8
BLACK
6
CONTINUOUS
10
303.758
20
-189.81
11
305.284
21
-189.81
0
LINE
8
BLACK
6
CONTINUOUS
10
307.009
20
-194.279
11
307.009
21
-195.48
0
LINE
8
BLACK
6
CONTINUOUS
10
310.308
20
-195.48
11
310.308
21
-194.279
0
LINE
8
BLACK
6
CONTINUOUS
10
281.484
20
-194.279
11
283.209
21
-194.279
0
LINE
8
BLACK
6
CONTINUOUS
10
289.758
20
-180.51
11
289.758
21
-185.21
0
LINE
8
BLACK
6
CONTINUOUS
10
281.484
20
-188.009
11
281.484
21
-194.279
0
LINE
8
BLACK
6
CONTINUOUS
10
344.24
20
-213.559
11
330.24
21
-213.559
0
LINE
8
BLACK
6
CONTINUOUS
10
121.547
20
-199.791
11
119.822
21
-199.791
0
LINE
8
BLACK
6
CONTINUOUS
10
349.29
20
-213.559
11
349.29
21
-199.56
0
LINE
8
BLACK
6
CONTINUOUS
10
256.42
20
-213.559
11
256.42
21
-199.56
0
LINE
8
BLACK
6
CONTINUOUS
10
119.822
20
-199.791
11
119.822
21
-198.59
0
LINE
8
BLACK
6
CONTINUOUS
10
119.822
20
-198.59
11
116.521
21
-198.59
0
LINE
8
BLACK
6
CONTINUOUS
10
116.521
20
-198.59
11
116.521
21
-199.791
0
LINE
8
BLACK
6
CONTINUOUS
10
280.234
20
-213.559
11
280.234
21
-199.56
0
LINE
8
BLACK
6
CONTINUOUS
10
116.521
20
-199.791
11
114.796
21
-199.791
0
LINE
8
BLACK
6
CONTINUOUS
10
114.796
20
-206.061
11
113.972
21
-206.061
0
LINE
8
BLACK
6
CONTINUOUS
10
113.972
20
-208.86
11
114.796
21
-208.86
0
LINE
8
BLACK
6
CONTINUOUS
10
161.171
20
-213.56
11
175.172
21
-213.56
0
LINE
8
BLACK
6
CONTINUOUS
10
121.547
20
-208.86
11
161.171
21
-208.86
0
LINE
8
BLACK
6
CONTINUOUS
10
382.34
20
-213.559
11
368.34
21
-213.559
0
LINE
8
BLACK
6
CONTINUOUS
10
330.24
20
-213.559
11
330.24
21
-199.56
0
LINE
8
BLACK
6
CONTINUOUS
10
280.234
20
-199.56
11
294.233
21
-199.56
0
LINE
8
BLACK
6
CONTINUOUS
10
89.734
20
-199.56
11
103.733
21
-199.561
0
LINE
8
BLACK
6
CONTINUOUS
10
42.1089
20
-199.56
11
56.1084
21
-199.56
0
LINE
8
BLACK
6
CONTINUOUS
10
79.9208
20
-213.559
11
65.92
21
-213.559
0
LINE
8
BLACK
6
CONTINUOUS
10
65.92
20
-213.559
11
65.92
21
-199.56
0
LINE
8
BLACK
6
CONTINUOUS
10
121.547
20
-212.09
11
121.547
21
-208.86
0
LINE
8
BLACK
6
CONTINUOUS
10
161.171
20
-208.86
11
161.171
21
-213.56
0
LINE
8
BLACK
6
CONTINUOUS
10
382.34
20
-199.56
11
382.34
21
-213.559
0
LINE
8
BLACK
6
CONTINUOUS
10
349.29
20
-199.56
11
363.29
21
-199.56
0
LINE
8
BLACK
6
CONTINUOUS
10
270.421
20
-213.559
11
256.42
21
-213.559
0
LINE
8
BLACK
6
CONTINUOUS
10
56.1084
20
-199.56
11
56.1084
21
-213.559
0
LINE
8
BLACK
6
CONTINUOUS
10
363.29
20
-199.56
11
363.29
21
-213.559
0
LINE
8
BLACK
6
CONTINUOUS
10
294.233
20
-199.56
11
294.233
21
-213.559
0
LINE
8
BLACK
6
CONTINUOUS
10
270.421
20
-199.56
11
270.421
21
-213.559
0
LINE
8
BLACK
6
CONTINUOUS
10
318.046
20
-199.56
11
318.046
21
-213.559
0
LINE
8
BLACK
6
CONTINUOUS
10
89.734
20
-213.559
11
89.734
21
-199.56
0
LINE
8
BLACK
6
CONTINUOUS
10
221.547
20
-199.791
11
219.822
21
-199.791
0
LINE
8
BLACK
6
CONTINUOUS
10
368.34
20
-213.559
11
368.34
21
-199.56
0
LINE
8
BLACK
6
CONTINUOUS
10
219.822
20
-199.791
11
219.822
21
-198.59
0
LINE
8
BLACK
6
CONTINUOUS
10
219.822
20
-198.59
11
216.521
21
-198.59
0
LINE
8
BLACK
6
CONTINUOUS
10
330.24
20
-199.56
11
344.24
21
-199.56
0
LINE
8
BLACK
6
CONTINUOUS
10
363.29
20
-213.559
11
349.29
21
-213.559
0
LINE
8
BLACK
6
CONTINUOUS
10
246.608
20
-213.559
11
232.609
21
-213.559
0
LINE
8
BLACK
6
CONTINUOUS
10
216.521
20
-198.59
11
216.521
21
-199.791
0
LINE
8
BLACK
6
CONTINUOUS
10
304.045
20
-213.559
11
304.045
21
-199.56
0
LINE
8
BLACK
6
CONTINUOUS
10
216.521
20
-199.791
11
214.796
21
-199.791
0
LINE
8
BLACK
6
CONTINUOUS
10
114.796
20
-212.09
11
121.547
21
-212.09
0
LINE
8
BLACK
6
CONTINUOUS
10
246.608
20
-199.56
11
246.608
21
-213.559
0
LINE
8
BLACK
6
CONTINUOUS
10
232.609
20
-199.56
11
246.608
21
-199.56
0
LINE
8
BLACK
6
CONTINUOUS
10
175.172
20
-204.26
11
175.172
21
-199.561
0
LINE
8
BLACK
6
CONTINUOUS
10
344.24
20
-199.56
11
344.24
21
-213.559
0
LINE
8
BLACK
6
CONTINUOUS
10
65.92
20
-199.56
11
79.9208
21
-199.56
0
LINE
8
BLACK
6
CONTINUOUS
10
318.046
20
-213.559
11
304.045
21
-213.559
0
LINE
8
BLACK
6
CONTINUOUS
10
214.796
20
-199.791
11
214.796
21
-204.26
0
LINE
8
BLACK
6
CONTINUOUS
10
114.796
20
-199.791
11
114.796
21
-206.061
0
LINE
8
BLACK
6
CONTINUOUS
10
214.796
20
-204.26
11
175.172
21
-204.26
0
LINE
8
BLACK
6
CONTINUOUS
10
304.045
20
-199.56
11
318.046
21
-199.56
0
LINE
8
BLACK
6
CONTINUOUS
10
113.972
20
-206.061
11
113.972
21
-208.86
0
LINE
8
BLACK
6
CONTINUOUS
10
294.233
20
-213.559
11
280.234
21
-213.559
0
LINE
8
BLACK
6
CONTINUOUS
10
79.9208
20
-199.56
11
79.9208
21
-213.559
0
LINE
8
BLACK
6
CONTINUOUS
10
103.733
20
-213.559
11
89.734
21
-213.559
0
LINE
8
BLACK
6
CONTINUOUS
10
368.34
20
-199.56
11
382.34
21
-199.56
0
LINE
8
BLACK
6
CONTINUOUS
10
103.733
20
-199.561
11
103.733
21
-213.56
0
LINE
8
BLACK
6
CONTINUOUS
10
175.172
20
-199.561
11
161.171
21
-199.561
0
LINE
8
BLACK
6
CONTINUOUS
10
161.171
20
-199.561
11
161.171
21
-204.26
0
LINE
8
BLACK
6
CONTINUOUS
10
256.42
20
-199.56
11
270.421
21
-199.56
0
LINE
8
BLACK
6
CONTINUOUS
10
161.171
20
-204.26
11
121.547
21
-204.26
0
LINE
8
BLACK
6
CONTINUOUS
10
121.547
20
-204.26
11
121.547
21
-199.791
0
LINE
8
BLACK
6
CONTINUOUS
10
114.796
20
-208.86
11
114.796
21
-212.09
0
LINE
8
BLACK
6
CONTINUOUS
10
301.377
20
-108.784
11
287.378
21
-108.784
0
LINE
8
BLACK
6
CONTINUOUS
10
268.328
20
-108.784
11
268.328
21
-94.785
0
LINE
8
BLACK
6
CONTINUOUS
10
263.277
20
-108.784
11
249.278
21
-108.784
0
LINE
8
BLACK
6
CONTINUOUS
10
201.653
20
-94.785
11
215.652
21
-94.785
0
LINE
8
BLACK
6
CONTINUOUS
10
249.278
20
-108.784
11
249.278
21
-94.785
0
LINE
8
BLACK
6
CONTINUOUS
10
215.652
20
-94.785
11
215.652
21
-108.784
0
LINE
8
BLACK
6
CONTINUOUS
10
249.278
20
-94.785
11
263.277
21
-94.785
0
LINE
8
BLACK
6
CONTINUOUS
10
234.702
20
-108.784
11
220.703
21
-108.784
0
LINE
8
BLACK
6
CONTINUOUS
10
306.428
20
-94.785
11
320.427
21
-94.785
0
LINE
8
BLACK
6
CONTINUOUS
10
263.277
20
-94.785
11
263.277
21
-108.784
0
LINE
8
BLACK
6
CONTINUOUS
10
268.328
20
-94.785
11
282.327
21
-94.785
0
LINE
8
BLACK
6
CONTINUOUS
10
320.427
20
-94.785
11
320.427
21
-108.784
0
LINE
8
BLACK
6
CONTINUOUS
10
320.427
20
-108.784
11
306.428
21
-108.784
0
LINE
8
BLACK
6
CONTINUOUS
10
220.703
20
-108.784
11
220.703
21
-94.785
0
LINE
8
BLACK
6
CONTINUOUS
10
287.378
20
-108.784
11
287.378
21
-94.785
0
LINE
8
BLACK
6
CONTINUOUS
10
282.327
20
-94.785
11
282.327
21
-108.784
0
LINE
8
BLACK
6
CONTINUOUS
10
220.703
20
-94.785
11
234.702
21
-94.785
0
LINE
8
BLACK
6
CONTINUOUS
10
234.702
20
-94.785
11
234.702
21
-108.784
0
LINE
8
BLACK
6
CONTINUOUS
10
215.652
20
-108.784
11
201.653
21
-108.784
0
LINE
8
BLACK
6
CONTINUOUS
10
282.327
20
-108.784
11
268.328
21
-108.784
0
LINE
8
BLACK
6
CONTINUOUS
10
301.377
20
-94.785
11
301.377
21
-108.784
0
LINE
8
BLACK
6
CONTINUOUS
10
306.428
20
-108.784
11
306.428
21
-94.785
0
LINE
8
BLACK
6
CONTINUOUS
10
287.378
20
-94.785
11
301.377
21
-94.785
0
LINE
8
BLACK
6
CONTINUOUS
10
168.027
20
-137.359
11
154.026
21
-137.359
0
LINE
8
BLACK
6
CONTINUOUS
10
148.977
20
-123.36
11
148.977
21
-137.359
0
LINE
8
BLACK
6
CONTINUOUS
10
154.026
20
-137.359
11
154.026
21
-123.36
0
LINE
8
BLACK
6
CONTINUOUS
10
115.928
20
-137.359
11
115.928
21
-123.36
0
LINE
8
BLACK
6
CONTINUOUS
10
148.977
20
-137.359
11
134.976
21
-137.359
0
LINE
8
BLACK
6
CONTINUOUS
10
134.976
20
-123.36
11
148.977
21
-123.36
0
LINE
8
BLACK
6
CONTINUOUS
10
115.928
20
-123.36
11
129.927
21
-123.36
0
LINE
8
BLACK
6
CONTINUOUS
10
134.976
20
-137.359
11
134.976
21
-123.36
0
LINE
8
BLACK
6
CONTINUOUS
10
110.877
20
-137.359
11
96.8777
21
-137.359
0
LINE
8
BLACK
6
CONTINUOUS
10
129.927
20
-123.36
11
129.927
21
-137.359
0
LINE
8
BLACK
6
CONTINUOUS
10
206.127
20
-137.359
11
192.128
21
-137.359
0
LINE
8
BLACK
6
CONTINUOUS
10
77.8277
20
-123.36
11
91.827
21
-123.36
0
LINE
8
BLACK
6
CONTINUOUS
10
192.128
20
-137.359
11
192.128
21
-123.36
0
LINE
8
BLACK
6
CONTINUOUS
10
173.078
20
-123.36
11
187.077
21
-123.36
0
LINE
8
BLACK
6
CONTINUOUS
10
187.077
20
-123.36
11
187.077
21
-137.359
0
LINE
8
BLACK
6
CONTINUOUS
10
96.8777
20
-137.359
11
96.8777
21
-123.36
0
LINE
8
BLACK
6
CONTINUOUS
10
173.078
20
-137.359
11
173.078
21
-123.36
0
LINE
8
BLACK
6
CONTINUOUS
10
168.027
20
-123.36
11
168.027
21
-137.359
0
LINE
8
BLACK
6
CONTINUOUS
10
110.877
20
-123.36
11
110.877
21
-137.359
0
LINE
8
BLACK
6
CONTINUOUS
10
187.077
20
-137.359
11
173.078
21
-137.359
0
LINE
8
BLACK
6
CONTINUOUS
10
154.026
20
-123.36
11
168.027
21
-123.36
0
LINE
8
BLACK
6
CONTINUOUS
10
96.8777
20
-123.36
11
110.877
21
-123.36
0
LINE
8
BLACK
6
CONTINUOUS
10
129.927
20
-137.359
11
115.928
21
-137.359
0
LINE
8
BLACK
6
CONTINUOUS
10
382.34
20
-94.785
11
382.34
21
-108.784
0
LINE
8
BLACK
6
CONTINUOUS
10
53.7272
20
-137.359
11
39.7276
21
-137.359
0
LINE
8
BLACK
6
CONTINUOUS
10
344.24
20
-108.784
11
330.24
21
-108.784
0
LINE
8
BLACK
6
CONTINUOUS
10
363.29
20
-108.784
11
349.29
21
-108.784
0
LINE
8
BLACK
6
CONTINUOUS
10
72.777
20
-137.359
11
58.7777
21
-137.359
0
LINE
8
BLACK
6
CONTINUOUS
10
58.7777
20
-137.359
11
58.7777
21
-123.36
0
LINE
8
BLACK
6
CONTINUOUS
10
363.29
20
-94.785
11
363.29
21
-108.784
0
LINE
8
BLACK
6
CONTINUOUS
10
349.29
20
-108.784
11
349.29
21
-94.785
0
LINE
8
BLACK
6
CONTINUOUS
10
39.7276
20
-123.36
11
53.7272
21
-123.36
0
LINE
8
BLACK
6
CONTINUOUS
10
382.34
20
-108.784
11
368.34
21
-108.784
0
LINE
8
BLACK
6
CONTINUOUS
10
368.34
20
-108.784
11
368.34
21
-94.785
0
LINE
8
BLACK
6
CONTINUOUS
10
39.7276
20
-137.359
11
39.7276
21
-123.36
0
LINE
8
BLACK
6
CONTINUOUS
10
344.24
20
-94.785
11
344.24
21
-108.784
0
LINE
8
BLACK
6
CONTINUOUS
10
53.7272
20
-123.36
11
53.7272
21
-137.359
0
LINE
8
BLACK
6
CONTINUOUS
10
72.777
20
-123.36
11
72.777
21
-137.359
0
LINE
8
BLACK
6
CONTINUOUS
10
330.24
20
-94.785
11
344.24
21
-94.785
0
LINE
8
BLACK
6
CONTINUOUS
10
368.34
20
-94.785
11
382.34
21
-94.785
0
LINE
8
BLACK
6
CONTINUOUS
10
349.29
20
-94.785
11
363.29
21
-94.785
0
LINE
8
BLACK
6
CONTINUOUS
10
91.827
20
-123.36
11
91.827
21
-137.359
0
LINE
8
BLACK
6
CONTINUOUS
10
91.827
20
-137.359
11
77.8277
21
-137.359
0
LINE
8
BLACK
6
CONTINUOUS
10
77.8277
20
-137.359
11
77.8277
21
-123.36
0
LINE
8
BLACK
6
CONTINUOUS
10
330.24
20
-108.784
11
330.24
21
-94.785
0
LINE
8
BLACK
6
CONTINUOUS
10
58.7777
20
-123.36
11
72.777
21
-123.36
0
LINE
8
BLACK
6
CONTINUOUS
10
39.7276
20
-108.784
11
39.7276
21
-94.785
0
LINE
8
BLACK
6
CONTINUOUS
10
232.609
20
-199.56
11
232.609
21
-213.559
0
LINE
8
BLACK
6
CONTINUOUS
10
91.827
20
-108.784
11
77.8277
21
-108.784
0
LINE
8
BLACK
6
CONTINUOUS
10
77.8277
20
-108.784
11
77.8277
21
-94.785
0
LINE
8
BLACK
6
CONTINUOUS
10
39.7276
20
-94.785
11
53.7272
21
-94.785
0
LINE
8
BLACK
6
CONTINUOUS
10
53.7272
20
-94.785
11
53.7272
21
-108.784
0
LINE
8
BLACK
6
CONTINUOUS
10
53.7272
20
-108.784
11
39.7276
21
-108.784
0
CIRCLE
8
BLACK
10
212.225
20
-116.085
40
1.6
0
CIRCLE
8
BLACK
10
48.375
20
-116.085
40
1.6
0
CIRCLE
8
BLACK
10
376.075
20
-116.06
40
1.6
0
CIRCLE
8
BLACK
10
209.225
20
-210.185
40
1.6
0
CIRCLE
8
BLACK
10
38.525
20
-212.185
40
1.6
0
CIRCLE
8
BLACK
10
38.625
20
-63.385
40
1.6
0
CIRCLE
8
BLACK
10
385.825
20
-63.385
40
1.6
0
CIRCLE
8
BLACK
10
385.925
20
-212.085
40
1.6
0
LINE
8
BLACK
6
CONTINUOUS
10
389.525
20
-62.685
11
389.525
21
-212.785
0
ARC
8
BLACK
10
386.525
20
-62.685
40
3
50
-0
51
90
0
ARC
8
BLACK
10
37.925
20
-62.685
40
3
50
90
51
180
0
ARC
8
BLACK
10
37.925
20
-212.785
40
3
50
180
51
270
0
ARC
8
BLACK
10
386.525
20
-212.785
40
3
50
-90
51
-0
0
LINE
8
BLACK
6
CONTINUOUS
10
292.827
20
-64.0134
11
292.827
21
-85.3494
0
LINE
8
BLACK
6
CONTINUOUS
10
239.944
20
-85.3494
11
239.944
21
-64.0134
0
LINE
8
BLACK
6
CONTINUOUS
10
239.944
20
-85.3494
11
292.827
21
-85.3494
0
LINE
8
BLACK
6
CONTINUOUS
10
239.944
20
-64.0134
11
292.827
21
-64.0134
0
LINE
8
BLACK
6
CONTINUOUS
10
37.925
20
-59.685
11
386.525
21
-59.685
0
LINE
8
BLACK
6
CONTINUOUS
10
34.925
20
-212.785
11
34.925
21
-62.685
0
LINE
8
BLACK
6
CONTINUOUS
10
386.525
20
-215.785
11
37.925
21
-215.785
  0
ENDSEC
  0
EOF
