G04 #@! TF.GenerationSoftware,KiCad,Pcbnew,(5.1.9)-1*
G04 #@! TF.CreationDate,2021-05-27T06:16:38+01:00*
G04 #@! TF.ProjectId,ENV_KB,454e565f-4b42-42e6-9b69-6361645f7063,Rev.1*
G04 #@! TF.SameCoordinates,Original*
G04 #@! TF.FileFunction,Legend,Bot*
G04 #@! TF.FilePolarity,Positive*
%FSLAX46Y46*%
G04 Gerber Fmt 4.6, Leading zero omitted, Abs format (unit mm)*
G04 Created by KiCad (PCBNEW (5.1.9)-1) date 2021-05-27 06:16:38*
%MOMM*%
%LPD*%
G01*
G04 APERTURE LIST*
%ADD10C,2.352000*%
%ADD11C,4.089800*%
%ADD12C,1.852000*%
%ADD13C,3.150000*%
%ADD14O,1.102000X1.702000*%
%ADD15O,1.102000X2.202000*%
%ADD16C,0.752000*%
%ADD17O,1.702000X1.702000*%
%ADD18O,1.802000X1.802000*%
%ADD19C,3.302000*%
G04 APERTURE END LIST*
%LPC*%
D10*
X377877500Y-201480000D03*
D11*
X375337500Y-206560000D03*
D10*
X371527500Y-204020000D03*
D12*
X370257500Y-206560000D03*
X380417500Y-206560000D03*
D10*
X358827500Y-201480000D03*
D11*
X356287500Y-206560000D03*
D10*
X352477500Y-204020000D03*
D12*
X351207500Y-206560000D03*
X361367500Y-206560000D03*
D10*
X339777500Y-201480000D03*
D11*
X337237500Y-206560000D03*
D10*
X333427500Y-204020000D03*
D12*
X332157500Y-206560000D03*
X342317500Y-206560000D03*
D10*
X313583750Y-201480000D03*
D11*
X311043750Y-206560000D03*
D10*
X307233750Y-204020000D03*
D12*
X305963750Y-206560000D03*
X316123750Y-206560000D03*
D10*
X289771250Y-201480000D03*
D11*
X287231250Y-206560000D03*
D10*
X283421250Y-204020000D03*
D12*
X282151250Y-206560000D03*
X292311250Y-206560000D03*
D10*
X265958750Y-201480000D03*
D11*
X263418750Y-206560000D03*
D10*
X259608750Y-204020000D03*
D12*
X258338750Y-206560000D03*
X268498750Y-206560000D03*
D10*
X242146250Y-201480000D03*
D11*
X239606250Y-206560000D03*
D10*
X235796250Y-204020000D03*
D12*
X234526250Y-206560000D03*
X244686250Y-206560000D03*
D10*
X170708750Y-201480000D03*
D11*
X168168750Y-206560000D03*
D10*
X164358750Y-204020000D03*
D12*
X163088750Y-206560000D03*
X173248750Y-206560000D03*
D13*
X118168850Y-213545000D03*
X218168650Y-213545000D03*
D11*
X118168850Y-198305000D03*
X218168650Y-198305000D03*
D10*
X99271250Y-201480000D03*
D11*
X96731250Y-206560000D03*
D10*
X92921250Y-204020000D03*
D12*
X91651250Y-206560000D03*
X101811250Y-206560000D03*
D10*
X75458750Y-201480000D03*
D11*
X72918750Y-206560000D03*
D10*
X69108750Y-204020000D03*
D12*
X67838750Y-206560000D03*
X77998750Y-206560000D03*
D10*
X51646250Y-201480000D03*
D11*
X49106250Y-206560000D03*
D10*
X45296250Y-204020000D03*
D12*
X44026250Y-206560000D03*
X54186250Y-206560000D03*
D10*
X358827500Y-182430000D03*
D11*
X356287500Y-187510000D03*
D10*
X352477500Y-184970000D03*
D12*
X351207500Y-187510000D03*
X361367500Y-187510000D03*
D10*
X299296250Y-182430000D03*
D11*
X296756250Y-187510000D03*
D10*
X292946250Y-184970000D03*
D12*
X291676250Y-187510000D03*
X301836250Y-187510000D03*
D13*
X284850000Y-180525000D03*
X308662500Y-180525000D03*
D11*
X284850000Y-195765000D03*
X308662500Y-195765000D03*
D10*
X263577500Y-182430000D03*
D11*
X261037500Y-187510000D03*
D10*
X257227500Y-184970000D03*
D12*
X255957500Y-187510000D03*
X266117500Y-187510000D03*
D10*
X244527500Y-182430000D03*
D11*
X241987500Y-187510000D03*
D10*
X238177500Y-184970000D03*
D12*
X236907500Y-187510000D03*
X247067500Y-187510000D03*
D10*
X225477500Y-182430000D03*
D11*
X222937500Y-187510000D03*
D10*
X219127500Y-184970000D03*
D12*
X217857500Y-187510000D03*
X228017500Y-187510000D03*
D10*
X206427500Y-182430000D03*
D11*
X203887500Y-187510000D03*
D10*
X200077500Y-184970000D03*
D12*
X198807500Y-187510000D03*
X208967500Y-187510000D03*
D10*
X187377500Y-182430000D03*
D11*
X184837500Y-187510000D03*
D10*
X181027500Y-184970000D03*
D12*
X179757500Y-187510000D03*
X189917500Y-187510000D03*
D10*
X168327500Y-182430000D03*
D11*
X165787500Y-187510000D03*
D10*
X161977500Y-184970000D03*
D12*
X160707500Y-187510000D03*
X170867500Y-187510000D03*
D10*
X149277500Y-182430000D03*
D11*
X146737500Y-187510000D03*
D10*
X142927500Y-184970000D03*
D12*
X141657500Y-187510000D03*
X151817500Y-187510000D03*
D10*
X130227500Y-182430000D03*
D11*
X127687500Y-187510000D03*
D10*
X123877500Y-184970000D03*
D12*
X122607500Y-187510000D03*
X132767500Y-187510000D03*
D10*
X111177500Y-182430000D03*
D11*
X108637500Y-187510000D03*
D10*
X104827500Y-184970000D03*
D12*
X103557500Y-187510000D03*
X113717500Y-187510000D03*
D10*
X92127500Y-182430000D03*
D11*
X89587500Y-187510000D03*
D10*
X85777500Y-184970000D03*
D12*
X84507500Y-187510000D03*
X94667500Y-187510000D03*
D10*
X73077500Y-182430000D03*
D11*
X70537500Y-187510000D03*
D10*
X66727500Y-184970000D03*
D12*
X65457500Y-187510000D03*
X75617500Y-187510000D03*
D10*
X51646250Y-182430000D03*
D11*
X49106250Y-187510000D03*
D10*
X45296250Y-184970000D03*
D12*
X44026250Y-187510000D03*
X54186250Y-187510000D03*
D10*
X292152500Y-163380000D03*
D11*
X289612500Y-168460000D03*
D10*
X285802500Y-165920000D03*
D12*
X284532500Y-168460000D03*
X294692500Y-168460000D03*
D10*
X273102500Y-163380000D03*
D11*
X270562500Y-168460000D03*
D10*
X266752500Y-165920000D03*
D12*
X265482500Y-168460000D03*
X275642500Y-168460000D03*
D10*
X254052500Y-163380000D03*
D11*
X251512500Y-168460000D03*
D10*
X247702500Y-165920000D03*
D12*
X246432500Y-168460000D03*
X256592500Y-168460000D03*
D10*
X235002500Y-163380000D03*
D11*
X232462500Y-168460000D03*
D10*
X228652500Y-165920000D03*
D12*
X227382500Y-168460000D03*
X237542500Y-168460000D03*
D10*
X215952500Y-163380000D03*
D11*
X213412500Y-168460000D03*
D10*
X209602500Y-165920000D03*
D12*
X208332500Y-168460000D03*
X218492500Y-168460000D03*
D10*
X196902500Y-163380000D03*
D11*
X194362500Y-168460000D03*
D10*
X190552500Y-165920000D03*
D12*
X189282500Y-168460000D03*
X199442500Y-168460000D03*
D10*
X177852500Y-163380000D03*
D11*
X175312500Y-168460000D03*
D10*
X171502500Y-165920000D03*
D12*
X170232500Y-168460000D03*
X180392500Y-168460000D03*
D10*
X158802500Y-163380000D03*
D11*
X156262500Y-168460000D03*
D10*
X152452500Y-165920000D03*
D12*
X151182500Y-168460000D03*
X161342500Y-168460000D03*
D10*
X139752500Y-163380000D03*
D11*
X137212500Y-168460000D03*
D10*
X133402500Y-165920000D03*
D12*
X132132500Y-168460000D03*
X142292500Y-168460000D03*
D10*
X120702500Y-163380000D03*
D11*
X118162500Y-168460000D03*
D10*
X114352500Y-165920000D03*
D12*
X113082500Y-168460000D03*
X123242500Y-168460000D03*
D10*
X101652500Y-163380000D03*
D11*
X99112500Y-168460000D03*
D10*
X95302500Y-165920000D03*
D12*
X94032500Y-168460000D03*
X104192500Y-168460000D03*
D10*
X82602500Y-163380000D03*
D11*
X80062500Y-168460000D03*
D10*
X76252500Y-165920000D03*
D12*
X74982500Y-168460000D03*
X85142500Y-168460000D03*
D10*
X56408750Y-163380000D03*
D11*
X53868750Y-168460000D03*
D10*
X50058750Y-165920000D03*
D12*
X48788750Y-168460000D03*
X58948750Y-168460000D03*
D10*
X377877500Y-144330000D03*
D11*
X375337500Y-149410000D03*
D10*
X371527500Y-146870000D03*
D12*
X370257500Y-149410000D03*
X380417500Y-149410000D03*
D10*
X358827500Y-144330000D03*
D11*
X356287500Y-149410000D03*
D10*
X352477500Y-146870000D03*
D12*
X351207500Y-149410000D03*
X361367500Y-149410000D03*
D10*
X339777500Y-144330000D03*
D11*
X337237500Y-149410000D03*
D10*
X333427500Y-146870000D03*
D12*
X332157500Y-149410000D03*
X342317500Y-149410000D03*
D10*
X287390000Y-144330000D03*
D11*
X284850000Y-149410000D03*
D10*
X281040000Y-146870000D03*
D12*
X279770000Y-149410000D03*
X289930000Y-149410000D03*
D10*
X268340000Y-144330000D03*
D11*
X265800000Y-149410000D03*
D10*
X261990000Y-146870000D03*
D12*
X260720000Y-149410000D03*
X270880000Y-149410000D03*
D10*
X249290000Y-144330000D03*
D11*
X246750000Y-149410000D03*
D10*
X242940000Y-146870000D03*
D12*
X241670000Y-149410000D03*
X251830000Y-149410000D03*
D10*
X230240000Y-144330000D03*
D11*
X227700000Y-149410000D03*
D10*
X223890000Y-146870000D03*
D12*
X222620000Y-149410000D03*
X232780000Y-149410000D03*
D10*
X211190000Y-144330000D03*
D11*
X208650000Y-149410000D03*
D10*
X204840000Y-146870000D03*
D12*
X203570000Y-149410000D03*
X213730000Y-149410000D03*
D10*
X192140000Y-144330000D03*
D11*
X189600000Y-149410000D03*
D10*
X185790000Y-146870000D03*
D12*
X184520000Y-149410000D03*
X194680000Y-149410000D03*
D10*
X173090000Y-144330000D03*
D11*
X170550000Y-149410000D03*
D10*
X166740000Y-146870000D03*
D12*
X165470000Y-149410000D03*
X175630000Y-149410000D03*
D10*
X154040000Y-144330000D03*
D11*
X151500000Y-149410000D03*
D10*
X147690000Y-146870000D03*
D12*
X146420000Y-149410000D03*
X156580000Y-149410000D03*
D10*
X134990000Y-144330000D03*
D11*
X132450000Y-149410000D03*
D10*
X128640000Y-146870000D03*
D12*
X127370000Y-149410000D03*
X137530000Y-149410000D03*
D10*
X115940000Y-144330000D03*
D11*
X113400000Y-149410000D03*
D10*
X109590000Y-146870000D03*
D12*
X108320000Y-149410000D03*
X118480000Y-149410000D03*
D10*
X96890000Y-144330000D03*
D11*
X94350000Y-149410000D03*
D10*
X90540000Y-146870000D03*
D12*
X89270000Y-149410000D03*
X99430000Y-149410000D03*
D10*
X77840000Y-144330000D03*
D11*
X75300000Y-149410000D03*
D10*
X71490000Y-146870000D03*
D12*
X70220000Y-149410000D03*
X80380000Y-149410000D03*
D10*
X54027500Y-144330000D03*
D11*
X51487500Y-149410000D03*
D10*
X47677500Y-146870000D03*
D12*
X46407500Y-149410000D03*
X56567500Y-149410000D03*
D10*
X377877500Y-125280000D03*
D11*
X375337500Y-130360000D03*
D10*
X371527500Y-127820000D03*
D12*
X370257500Y-130360000D03*
X380417500Y-130360000D03*
D10*
X358827500Y-125280000D03*
D11*
X356287500Y-130360000D03*
D10*
X352477500Y-127820000D03*
D12*
X351207500Y-130360000D03*
X361367500Y-130360000D03*
D10*
X339777500Y-125280000D03*
D11*
X337237500Y-130360000D03*
D10*
X333427500Y-127820000D03*
D12*
X332157500Y-130360000D03*
X342317500Y-130360000D03*
D10*
X306440000Y-125280000D03*
D11*
X303900000Y-130360000D03*
D10*
X300090000Y-127820000D03*
D12*
X298820000Y-130360000D03*
X308980000Y-130360000D03*
D13*
X291993750Y-123375000D03*
X315806250Y-123375000D03*
D11*
X291993750Y-138615000D03*
X315806250Y-138615000D03*
D10*
X277865000Y-125280000D03*
D11*
X275325000Y-130360000D03*
D10*
X271515000Y-127820000D03*
D12*
X270245000Y-130360000D03*
X280405000Y-130360000D03*
D10*
X258815000Y-125280000D03*
D11*
X256275000Y-130360000D03*
D10*
X252465000Y-127820000D03*
D12*
X251195000Y-130360000D03*
X261355000Y-130360000D03*
D10*
X239765000Y-125280000D03*
D11*
X237225000Y-130360000D03*
D10*
X233415000Y-127820000D03*
D12*
X232145000Y-130360000D03*
X242305000Y-130360000D03*
D10*
X220715000Y-125280000D03*
D11*
X218175000Y-130360000D03*
D10*
X214365000Y-127820000D03*
D12*
X213095000Y-130360000D03*
X223255000Y-130360000D03*
D10*
X201665000Y-125280000D03*
D11*
X199125000Y-130360000D03*
D10*
X195315000Y-127820000D03*
D12*
X194045000Y-130360000D03*
X204205000Y-130360000D03*
D10*
X182615000Y-125280000D03*
D11*
X180075000Y-130360000D03*
D10*
X176265000Y-127820000D03*
D12*
X174995000Y-130360000D03*
X185155000Y-130360000D03*
D10*
X163565000Y-125280000D03*
D11*
X161025000Y-130360000D03*
D10*
X157215000Y-127820000D03*
D12*
X155945000Y-130360000D03*
X166105000Y-130360000D03*
D10*
X144515000Y-125280000D03*
D11*
X141975000Y-130360000D03*
D10*
X138165000Y-127820000D03*
D12*
X136895000Y-130360000D03*
X147055000Y-130360000D03*
D10*
X125465000Y-125280000D03*
D11*
X122925000Y-130360000D03*
D10*
X119115000Y-127820000D03*
D12*
X117845000Y-130360000D03*
X128005000Y-130360000D03*
D10*
X106415000Y-125280000D03*
D11*
X103875000Y-130360000D03*
D10*
X100065000Y-127820000D03*
D12*
X98795000Y-130360000D03*
X108955000Y-130360000D03*
D10*
X87365000Y-125280000D03*
D11*
X84825000Y-130360000D03*
D10*
X81015000Y-127820000D03*
D12*
X79745000Y-130360000D03*
X89905000Y-130360000D03*
D10*
X68315000Y-125280000D03*
D11*
X65775000Y-130360000D03*
D10*
X61965000Y-127820000D03*
D12*
X60695000Y-130360000D03*
X70855000Y-130360000D03*
D10*
X49265000Y-125280000D03*
D11*
X46725000Y-130360000D03*
D10*
X42915000Y-127820000D03*
D12*
X41645000Y-130360000D03*
X51805000Y-130360000D03*
D10*
X377877500Y-96705000D03*
D11*
X375337500Y-101785000D03*
D10*
X371527500Y-99245000D03*
D12*
X370257500Y-101785000D03*
X380417500Y-101785000D03*
D10*
X358827500Y-96705000D03*
D11*
X356287500Y-101785000D03*
D10*
X352477500Y-99245000D03*
D12*
X351207500Y-101785000D03*
X361367500Y-101785000D03*
D10*
X339777500Y-96705000D03*
D11*
X337237500Y-101785000D03*
D10*
X333427500Y-99245000D03*
D12*
X332157500Y-101785000D03*
X342317500Y-101785000D03*
D10*
X315965000Y-96705000D03*
D11*
X313425000Y-101785000D03*
D10*
X309615000Y-99245000D03*
D12*
X308345000Y-101785000D03*
X318505000Y-101785000D03*
D10*
X296915000Y-96705000D03*
D11*
X294375000Y-101785000D03*
D10*
X290565000Y-99245000D03*
D12*
X289295000Y-101785000D03*
X299455000Y-101785000D03*
D10*
X277865000Y-96705000D03*
D11*
X275325000Y-101785000D03*
D10*
X271515000Y-99245000D03*
D12*
X270245000Y-101785000D03*
X280405000Y-101785000D03*
D10*
X258815000Y-96705000D03*
D11*
X256275000Y-101785000D03*
D10*
X252465000Y-99245000D03*
D12*
X251195000Y-101785000D03*
X261355000Y-101785000D03*
D10*
X230240000Y-96705000D03*
D11*
X227700000Y-101785000D03*
D10*
X223890000Y-99245000D03*
D12*
X222620000Y-101785000D03*
X232780000Y-101785000D03*
D10*
X211190000Y-96705000D03*
D11*
X208650000Y-101785000D03*
D10*
X204840000Y-99245000D03*
D12*
X203570000Y-101785000D03*
X213730000Y-101785000D03*
D10*
X192140000Y-96705000D03*
D11*
X189600000Y-101785000D03*
D10*
X185790000Y-99245000D03*
D12*
X184520000Y-101785000D03*
X194680000Y-101785000D03*
D10*
X173090000Y-96705000D03*
D11*
X170550000Y-101785000D03*
D10*
X166740000Y-99245000D03*
D12*
X165470000Y-101785000D03*
X175630000Y-101785000D03*
D10*
X144515000Y-96705000D03*
D11*
X141975000Y-101785000D03*
D10*
X138165000Y-99245000D03*
D12*
X136895000Y-101785000D03*
X147055000Y-101785000D03*
D10*
X125465000Y-96705000D03*
D11*
X122925000Y-101785000D03*
D10*
X119115000Y-99245000D03*
D12*
X117845000Y-101785000D03*
X128005000Y-101785000D03*
D10*
X106415000Y-96705000D03*
D11*
X103875000Y-101785000D03*
D10*
X100065000Y-99245000D03*
D12*
X98795000Y-101785000D03*
X108955000Y-101785000D03*
D10*
X87365000Y-96705000D03*
D11*
X84825000Y-101785000D03*
D10*
X81015000Y-99245000D03*
D12*
X79745000Y-101785000D03*
X89905000Y-101785000D03*
D10*
X49265000Y-96705000D03*
D11*
X46725000Y-101785000D03*
D10*
X42915000Y-99245000D03*
D12*
X41645000Y-101785000D03*
X51805000Y-101785000D03*
D10*
X61190000Y-182430000D03*
D11*
X58650000Y-187510000D03*
D10*
X54840000Y-184970000D03*
D12*
X53570000Y-187510000D03*
X63730000Y-187510000D03*
D13*
X46743750Y-180525000D03*
X70556250Y-180525000D03*
D11*
X46743750Y-195765000D03*
X70556250Y-195765000D03*
X313406250Y-176685000D03*
X289593750Y-176685000D03*
D13*
X313406250Y-161445000D03*
X289593750Y-161445000D03*
D12*
X306580000Y-168430000D03*
X296420000Y-168430000D03*
D10*
X297690000Y-165890000D03*
D11*
X301500000Y-168430000D03*
D10*
X304040000Y-163350000D03*
D12*
X313730000Y-149385000D03*
X303570000Y-149385000D03*
D10*
X304840000Y-146845000D03*
D11*
X308650000Y-149385000D03*
D10*
X311190000Y-144305000D03*
D14*
X207905000Y-62235000D03*
X216545000Y-62235000D03*
D15*
X207905000Y-66415000D03*
X216545000Y-66415000D03*
D16*
X215115000Y-65885000D03*
X209335000Y-65885000D03*
D17*
X374155000Y-66685000D03*
G36*
G01*
X382626000Y-65885000D02*
X382626000Y-67485000D01*
G75*
G02*
X382575000Y-67536000I-51000J0D01*
G01*
X380975000Y-67536000D01*
G75*
G02*
X380924000Y-67485000I0J51000D01*
G01*
X380924000Y-65885000D01*
G75*
G02*
X380975000Y-65834000I51000J0D01*
G01*
X382575000Y-65834000D01*
G75*
G02*
X382626000Y-65885000I0J-51000D01*
G01*
G37*
X361605000Y-66685000D03*
G36*
G01*
X370076000Y-65885000D02*
X370076000Y-67485000D01*
G75*
G02*
X370025000Y-67536000I-51000J0D01*
G01*
X368425000Y-67536000D01*
G75*
G02*
X368374000Y-67485000I0J51000D01*
G01*
X368374000Y-65885000D01*
G75*
G02*
X368425000Y-65834000I51000J0D01*
G01*
X370025000Y-65834000D01*
G75*
G02*
X370076000Y-65885000I0J-51000D01*
G01*
G37*
X349055000Y-66685000D03*
G36*
G01*
X357526000Y-65885000D02*
X357526000Y-67485000D01*
G75*
G02*
X357475000Y-67536000I-51000J0D01*
G01*
X355875000Y-67536000D01*
G75*
G02*
X355824000Y-67485000I0J51000D01*
G01*
X355824000Y-65885000D01*
G75*
G02*
X355875000Y-65834000I51000J0D01*
G01*
X357475000Y-65834000D01*
G75*
G02*
X357526000Y-65885000I0J-51000D01*
G01*
G37*
X336505000Y-66685000D03*
G36*
G01*
X344976000Y-65885000D02*
X344976000Y-67485000D01*
G75*
G02*
X344925000Y-67536000I-51000J0D01*
G01*
X343325000Y-67536000D01*
G75*
G02*
X343274000Y-67485000I0J51000D01*
G01*
X343274000Y-65885000D01*
G75*
G02*
X343325000Y-65834000I51000J0D01*
G01*
X344925000Y-65834000D01*
G75*
G02*
X344976000Y-65885000I0J-51000D01*
G01*
G37*
X323955000Y-66685000D03*
G36*
G01*
X332426000Y-65885000D02*
X332426000Y-67485000D01*
G75*
G02*
X332375000Y-67536000I-51000J0D01*
G01*
X330775000Y-67536000D01*
G75*
G02*
X330724000Y-67485000I0J51000D01*
G01*
X330724000Y-65885000D01*
G75*
G02*
X330775000Y-65834000I51000J0D01*
G01*
X332375000Y-65834000D01*
G75*
G02*
X332426000Y-65885000I0J-51000D01*
G01*
G37*
X298855000Y-66685000D03*
G36*
G01*
X307326000Y-65885000D02*
X307326000Y-67485000D01*
G75*
G02*
X307275000Y-67536000I-51000J0D01*
G01*
X305675000Y-67536000D01*
G75*
G02*
X305624000Y-67485000I0J51000D01*
G01*
X305624000Y-65885000D01*
G75*
G02*
X305675000Y-65834000I51000J0D01*
G01*
X307275000Y-65834000D01*
G75*
G02*
X307326000Y-65885000I0J-51000D01*
G01*
G37*
X222605000Y-69185000D03*
G36*
G01*
X231076000Y-68385000D02*
X231076000Y-69985000D01*
G75*
G02*
X231025000Y-70036000I-51000J0D01*
G01*
X229425000Y-70036000D01*
G75*
G02*
X229374000Y-69985000I0J51000D01*
G01*
X229374000Y-68385000D01*
G75*
G02*
X229425000Y-68334000I51000J0D01*
G01*
X231025000Y-68334000D01*
G75*
G02*
X231076000Y-68385000I0J-51000D01*
G01*
G37*
X150205000Y-69185000D03*
G36*
G01*
X158676000Y-68385000D02*
X158676000Y-69985000D01*
G75*
G02*
X158625000Y-70036000I-51000J0D01*
G01*
X157025000Y-70036000D01*
G75*
G02*
X156974000Y-69985000I0J51000D01*
G01*
X156974000Y-68385000D01*
G75*
G02*
X157025000Y-68334000I51000J0D01*
G01*
X158625000Y-68334000D01*
G75*
G02*
X158676000Y-68385000I0J-51000D01*
G01*
G37*
X96005000Y-69185000D03*
G36*
G01*
X104476000Y-68385000D02*
X104476000Y-69985000D01*
G75*
G02*
X104425000Y-70036000I-51000J0D01*
G01*
X102825000Y-70036000D01*
G75*
G02*
X102774000Y-69985000I0J51000D01*
G01*
X102774000Y-68385000D01*
G75*
G02*
X102825000Y-68334000I51000J0D01*
G01*
X104425000Y-68334000D01*
G75*
G02*
X104476000Y-68385000I0J-51000D01*
G01*
G37*
X59805000Y-69185000D03*
G36*
G01*
X68276000Y-68385000D02*
X68276000Y-69985000D01*
G75*
G02*
X68225000Y-70036000I-51000J0D01*
G01*
X66625000Y-70036000D01*
G75*
G02*
X66574000Y-69985000I0J51000D01*
G01*
X66574000Y-68385000D01*
G75*
G02*
X66625000Y-68334000I51000J0D01*
G01*
X68225000Y-68334000D01*
G75*
G02*
X68276000Y-68385000I0J-51000D01*
G01*
G37*
X41605000Y-69185000D03*
G36*
G01*
X50076000Y-68385000D02*
X50076000Y-69985000D01*
G75*
G02*
X50025000Y-70036000I-51000J0D01*
G01*
X48425000Y-70036000D01*
G75*
G02*
X48374000Y-69985000I0J51000D01*
G01*
X48374000Y-68385000D01*
G75*
G02*
X48425000Y-68334000I51000J0D01*
G01*
X50025000Y-68334000D01*
G75*
G02*
X50076000Y-68385000I0J-51000D01*
G01*
G37*
X361605000Y-70635000D03*
G36*
G01*
X370076000Y-69835000D02*
X370076000Y-71435000D01*
G75*
G02*
X370025000Y-71486000I-51000J0D01*
G01*
X368425000Y-71486000D01*
G75*
G02*
X368374000Y-71435000I0J51000D01*
G01*
X368374000Y-69835000D01*
G75*
G02*
X368425000Y-69784000I51000J0D01*
G01*
X370025000Y-69784000D01*
G75*
G02*
X370076000Y-69835000I0J-51000D01*
G01*
G37*
X323955000Y-70635000D03*
G36*
G01*
X332426000Y-69835000D02*
X332426000Y-71435000D01*
G75*
G02*
X332375000Y-71486000I-51000J0D01*
G01*
X330775000Y-71486000D01*
G75*
G02*
X330724000Y-71435000I0J51000D01*
G01*
X330724000Y-69835000D01*
G75*
G02*
X330775000Y-69784000I51000J0D01*
G01*
X332375000Y-69784000D01*
G75*
G02*
X332426000Y-69835000I0J-51000D01*
G01*
G37*
X298855000Y-70635000D03*
G36*
G01*
X307326000Y-69835000D02*
X307326000Y-71435000D01*
G75*
G02*
X307275000Y-71486000I-51000J0D01*
G01*
X305675000Y-71486000D01*
G75*
G02*
X305624000Y-71435000I0J51000D01*
G01*
X305624000Y-69835000D01*
G75*
G02*
X305675000Y-69784000I51000J0D01*
G01*
X307275000Y-69784000D01*
G75*
G02*
X307326000Y-69835000I0J-51000D01*
G01*
G37*
X222605000Y-73185000D03*
G36*
G01*
X231076000Y-72385000D02*
X231076000Y-73985000D01*
G75*
G02*
X231025000Y-74036000I-51000J0D01*
G01*
X229425000Y-74036000D01*
G75*
G02*
X229374000Y-73985000I0J51000D01*
G01*
X229374000Y-72385000D01*
G75*
G02*
X229425000Y-72334000I51000J0D01*
G01*
X231025000Y-72334000D01*
G75*
G02*
X231076000Y-72385000I0J-51000D01*
G01*
G37*
X204505000Y-73185000D03*
G36*
G01*
X212976000Y-72385000D02*
X212976000Y-73985000D01*
G75*
G02*
X212925000Y-74036000I-51000J0D01*
G01*
X211325000Y-74036000D01*
G75*
G02*
X211274000Y-73985000I0J51000D01*
G01*
X211274000Y-72385000D01*
G75*
G02*
X211325000Y-72334000I51000J0D01*
G01*
X212925000Y-72334000D01*
G75*
G02*
X212976000Y-72385000I0J-51000D01*
G01*
G37*
X186405000Y-73185000D03*
G36*
G01*
X194876000Y-72385000D02*
X194876000Y-73985000D01*
G75*
G02*
X194825000Y-74036000I-51000J0D01*
G01*
X193225000Y-74036000D01*
G75*
G02*
X193174000Y-73985000I0J51000D01*
G01*
X193174000Y-72385000D01*
G75*
G02*
X193225000Y-72334000I51000J0D01*
G01*
X194825000Y-72334000D01*
G75*
G02*
X194876000Y-72385000I0J-51000D01*
G01*
G37*
X168305000Y-73185000D03*
G36*
G01*
X176776000Y-72385000D02*
X176776000Y-73985000D01*
G75*
G02*
X176725000Y-74036000I-51000J0D01*
G01*
X175125000Y-74036000D01*
G75*
G02*
X175074000Y-73985000I0J51000D01*
G01*
X175074000Y-72385000D01*
G75*
G02*
X175125000Y-72334000I51000J0D01*
G01*
X176725000Y-72334000D01*
G75*
G02*
X176776000Y-72385000I0J-51000D01*
G01*
G37*
X150205000Y-73185000D03*
G36*
G01*
X158676000Y-72385000D02*
X158676000Y-73985000D01*
G75*
G02*
X158625000Y-74036000I-51000J0D01*
G01*
X157025000Y-74036000D01*
G75*
G02*
X156974000Y-73985000I0J51000D01*
G01*
X156974000Y-72385000D01*
G75*
G02*
X157025000Y-72334000I51000J0D01*
G01*
X158625000Y-72334000D01*
G75*
G02*
X158676000Y-72385000I0J-51000D01*
G01*
G37*
X132205000Y-73185000D03*
G36*
G01*
X140676000Y-72385000D02*
X140676000Y-73985000D01*
G75*
G02*
X140625000Y-74036000I-51000J0D01*
G01*
X139025000Y-74036000D01*
G75*
G02*
X138974000Y-73985000I0J51000D01*
G01*
X138974000Y-72385000D01*
G75*
G02*
X139025000Y-72334000I51000J0D01*
G01*
X140625000Y-72334000D01*
G75*
G02*
X140676000Y-72385000I0J-51000D01*
G01*
G37*
X114105000Y-73185000D03*
G36*
G01*
X122576000Y-72385000D02*
X122576000Y-73985000D01*
G75*
G02*
X122525000Y-74036000I-51000J0D01*
G01*
X120925000Y-74036000D01*
G75*
G02*
X120874000Y-73985000I0J51000D01*
G01*
X120874000Y-72385000D01*
G75*
G02*
X120925000Y-72334000I51000J0D01*
G01*
X122525000Y-72334000D01*
G75*
G02*
X122576000Y-72385000I0J-51000D01*
G01*
G37*
X96005000Y-73185000D03*
G36*
G01*
X104476000Y-72385000D02*
X104476000Y-73985000D01*
G75*
G02*
X104425000Y-74036000I-51000J0D01*
G01*
X102825000Y-74036000D01*
G75*
G02*
X102774000Y-73985000I0J51000D01*
G01*
X102774000Y-72385000D01*
G75*
G02*
X102825000Y-72334000I51000J0D01*
G01*
X104425000Y-72334000D01*
G75*
G02*
X104476000Y-72385000I0J-51000D01*
G01*
G37*
X77905000Y-73185000D03*
G36*
G01*
X86376000Y-72385000D02*
X86376000Y-73985000D01*
G75*
G02*
X86325000Y-74036000I-51000J0D01*
G01*
X84725000Y-74036000D01*
G75*
G02*
X84674000Y-73985000I0J51000D01*
G01*
X84674000Y-72385000D01*
G75*
G02*
X84725000Y-72334000I51000J0D01*
G01*
X86325000Y-72334000D01*
G75*
G02*
X86376000Y-72385000I0J-51000D01*
G01*
G37*
X59805000Y-73185000D03*
G36*
G01*
X68276000Y-72385000D02*
X68276000Y-73985000D01*
G75*
G02*
X68225000Y-74036000I-51000J0D01*
G01*
X66625000Y-74036000D01*
G75*
G02*
X66574000Y-73985000I0J51000D01*
G01*
X66574000Y-72385000D01*
G75*
G02*
X66625000Y-72334000I51000J0D01*
G01*
X68225000Y-72334000D01*
G75*
G02*
X68276000Y-72385000I0J-51000D01*
G01*
G37*
X41705000Y-73185000D03*
G36*
G01*
X50176000Y-72385000D02*
X50176000Y-73985000D01*
G75*
G02*
X50125000Y-74036000I-51000J0D01*
G01*
X48525000Y-74036000D01*
G75*
G02*
X48474000Y-73985000I0J51000D01*
G01*
X48474000Y-72385000D01*
G75*
G02*
X48525000Y-72334000I51000J0D01*
G01*
X50125000Y-72334000D01*
G75*
G02*
X50176000Y-72385000I0J-51000D01*
G01*
G37*
X336505000Y-74585000D03*
G36*
G01*
X344976000Y-73785000D02*
X344976000Y-75385000D01*
G75*
G02*
X344925000Y-75436000I-51000J0D01*
G01*
X343325000Y-75436000D01*
G75*
G02*
X343274000Y-75385000I0J51000D01*
G01*
X343274000Y-73785000D01*
G75*
G02*
X343325000Y-73734000I51000J0D01*
G01*
X344925000Y-73734000D01*
G75*
G02*
X344976000Y-73785000I0J-51000D01*
G01*
G37*
X323955000Y-74585000D03*
G36*
G01*
X332426000Y-73785000D02*
X332426000Y-75385000D01*
G75*
G02*
X332375000Y-75436000I-51000J0D01*
G01*
X330775000Y-75436000D01*
G75*
G02*
X330724000Y-75385000I0J51000D01*
G01*
X330724000Y-73785000D01*
G75*
G02*
X330775000Y-73734000I51000J0D01*
G01*
X332375000Y-73734000D01*
G75*
G02*
X332426000Y-73785000I0J-51000D01*
G01*
G37*
X311405000Y-74585000D03*
G36*
G01*
X319876000Y-73785000D02*
X319876000Y-75385000D01*
G75*
G02*
X319825000Y-75436000I-51000J0D01*
G01*
X318225000Y-75436000D01*
G75*
G02*
X318174000Y-75385000I0J51000D01*
G01*
X318174000Y-73785000D01*
G75*
G02*
X318225000Y-73734000I51000J0D01*
G01*
X319825000Y-73734000D01*
G75*
G02*
X319876000Y-73785000I0J-51000D01*
G01*
G37*
X298855000Y-74585000D03*
G36*
G01*
X307326000Y-73785000D02*
X307326000Y-75385000D01*
G75*
G02*
X307275000Y-75436000I-51000J0D01*
G01*
X305675000Y-75436000D01*
G75*
G02*
X305624000Y-75385000I0J51000D01*
G01*
X305624000Y-73785000D01*
G75*
G02*
X305675000Y-73734000I51000J0D01*
G01*
X307275000Y-73734000D01*
G75*
G02*
X307326000Y-73785000I0J-51000D01*
G01*
G37*
X222605000Y-77185000D03*
G36*
G01*
X231076000Y-76385000D02*
X231076000Y-77985000D01*
G75*
G02*
X231025000Y-78036000I-51000J0D01*
G01*
X229425000Y-78036000D01*
G75*
G02*
X229374000Y-77985000I0J51000D01*
G01*
X229374000Y-76385000D01*
G75*
G02*
X229425000Y-76334000I51000J0D01*
G01*
X231025000Y-76334000D01*
G75*
G02*
X231076000Y-76385000I0J-51000D01*
G01*
G37*
X204505000Y-77185000D03*
G36*
G01*
X212976000Y-76385000D02*
X212976000Y-77985000D01*
G75*
G02*
X212925000Y-78036000I-51000J0D01*
G01*
X211325000Y-78036000D01*
G75*
G02*
X211274000Y-77985000I0J51000D01*
G01*
X211274000Y-76385000D01*
G75*
G02*
X211325000Y-76334000I51000J0D01*
G01*
X212925000Y-76334000D01*
G75*
G02*
X212976000Y-76385000I0J-51000D01*
G01*
G37*
X186405000Y-77185000D03*
G36*
G01*
X194876000Y-76385000D02*
X194876000Y-77985000D01*
G75*
G02*
X194825000Y-78036000I-51000J0D01*
G01*
X193225000Y-78036000D01*
G75*
G02*
X193174000Y-77985000I0J51000D01*
G01*
X193174000Y-76385000D01*
G75*
G02*
X193225000Y-76334000I51000J0D01*
G01*
X194825000Y-76334000D01*
G75*
G02*
X194876000Y-76385000I0J-51000D01*
G01*
G37*
X168305000Y-77185000D03*
G36*
G01*
X176776000Y-76385000D02*
X176776000Y-77985000D01*
G75*
G02*
X176725000Y-78036000I-51000J0D01*
G01*
X175125000Y-78036000D01*
G75*
G02*
X175074000Y-77985000I0J51000D01*
G01*
X175074000Y-76385000D01*
G75*
G02*
X175125000Y-76334000I51000J0D01*
G01*
X176725000Y-76334000D01*
G75*
G02*
X176776000Y-76385000I0J-51000D01*
G01*
G37*
X150205000Y-77185000D03*
G36*
G01*
X158676000Y-76385000D02*
X158676000Y-77985000D01*
G75*
G02*
X158625000Y-78036000I-51000J0D01*
G01*
X157025000Y-78036000D01*
G75*
G02*
X156974000Y-77985000I0J51000D01*
G01*
X156974000Y-76385000D01*
G75*
G02*
X157025000Y-76334000I51000J0D01*
G01*
X158625000Y-76334000D01*
G75*
G02*
X158676000Y-76385000I0J-51000D01*
G01*
G37*
X132205000Y-77185000D03*
G36*
G01*
X140676000Y-76385000D02*
X140676000Y-77985000D01*
G75*
G02*
X140625000Y-78036000I-51000J0D01*
G01*
X139025000Y-78036000D01*
G75*
G02*
X138974000Y-77985000I0J51000D01*
G01*
X138974000Y-76385000D01*
G75*
G02*
X139025000Y-76334000I51000J0D01*
G01*
X140625000Y-76334000D01*
G75*
G02*
X140676000Y-76385000I0J-51000D01*
G01*
G37*
X114105000Y-77185000D03*
G36*
G01*
X122576000Y-76385000D02*
X122576000Y-77985000D01*
G75*
G02*
X122525000Y-78036000I-51000J0D01*
G01*
X120925000Y-78036000D01*
G75*
G02*
X120874000Y-77985000I0J51000D01*
G01*
X120874000Y-76385000D01*
G75*
G02*
X120925000Y-76334000I51000J0D01*
G01*
X122525000Y-76334000D01*
G75*
G02*
X122576000Y-76385000I0J-51000D01*
G01*
G37*
X96005000Y-77185000D03*
G36*
G01*
X104476000Y-76385000D02*
X104476000Y-77985000D01*
G75*
G02*
X104425000Y-78036000I-51000J0D01*
G01*
X102825000Y-78036000D01*
G75*
G02*
X102774000Y-77985000I0J51000D01*
G01*
X102774000Y-76385000D01*
G75*
G02*
X102825000Y-76334000I51000J0D01*
G01*
X104425000Y-76334000D01*
G75*
G02*
X104476000Y-76385000I0J-51000D01*
G01*
G37*
X77905000Y-77185000D03*
G36*
G01*
X86376000Y-76385000D02*
X86376000Y-77985000D01*
G75*
G02*
X86325000Y-78036000I-51000J0D01*
G01*
X84725000Y-78036000D01*
G75*
G02*
X84674000Y-77985000I0J51000D01*
G01*
X84674000Y-76385000D01*
G75*
G02*
X84725000Y-76334000I51000J0D01*
G01*
X86325000Y-76334000D01*
G75*
G02*
X86376000Y-76385000I0J-51000D01*
G01*
G37*
X41705000Y-77185000D03*
G36*
G01*
X50176000Y-76385000D02*
X50176000Y-77985000D01*
G75*
G02*
X50125000Y-78036000I-51000J0D01*
G01*
X48525000Y-78036000D01*
G75*
G02*
X48474000Y-77985000I0J51000D01*
G01*
X48474000Y-76385000D01*
G75*
G02*
X48525000Y-76334000I51000J0D01*
G01*
X50125000Y-76334000D01*
G75*
G02*
X50176000Y-76385000I0J-51000D01*
G01*
G37*
X374155000Y-78535000D03*
G36*
G01*
X382626000Y-77735000D02*
X382626000Y-79335000D01*
G75*
G02*
X382575000Y-79386000I-51000J0D01*
G01*
X380975000Y-79386000D01*
G75*
G02*
X380924000Y-79335000I0J51000D01*
G01*
X380924000Y-77735000D01*
G75*
G02*
X380975000Y-77684000I51000J0D01*
G01*
X382575000Y-77684000D01*
G75*
G02*
X382626000Y-77735000I0J-51000D01*
G01*
G37*
X361605000Y-78535000D03*
G36*
G01*
X370076000Y-77735000D02*
X370076000Y-79335000D01*
G75*
G02*
X370025000Y-79386000I-51000J0D01*
G01*
X368425000Y-79386000D01*
G75*
G02*
X368374000Y-79335000I0J51000D01*
G01*
X368374000Y-77735000D01*
G75*
G02*
X368425000Y-77684000I51000J0D01*
G01*
X370025000Y-77684000D01*
G75*
G02*
X370076000Y-77735000I0J-51000D01*
G01*
G37*
X349055000Y-78535000D03*
G36*
G01*
X357526000Y-77735000D02*
X357526000Y-79335000D01*
G75*
G02*
X357475000Y-79386000I-51000J0D01*
G01*
X355875000Y-79386000D01*
G75*
G02*
X355824000Y-79335000I0J51000D01*
G01*
X355824000Y-77735000D01*
G75*
G02*
X355875000Y-77684000I51000J0D01*
G01*
X357475000Y-77684000D01*
G75*
G02*
X357526000Y-77735000I0J-51000D01*
G01*
G37*
X336505000Y-78535000D03*
G36*
G01*
X344976000Y-77735000D02*
X344976000Y-79335000D01*
G75*
G02*
X344925000Y-79386000I-51000J0D01*
G01*
X343325000Y-79386000D01*
G75*
G02*
X343274000Y-79335000I0J51000D01*
G01*
X343274000Y-77735000D01*
G75*
G02*
X343325000Y-77684000I51000J0D01*
G01*
X344925000Y-77684000D01*
G75*
G02*
X344976000Y-77735000I0J-51000D01*
G01*
G37*
X323955000Y-78535000D03*
G36*
G01*
X332426000Y-77735000D02*
X332426000Y-79335000D01*
G75*
G02*
X332375000Y-79386000I-51000J0D01*
G01*
X330775000Y-79386000D01*
G75*
G02*
X330724000Y-79335000I0J51000D01*
G01*
X330724000Y-77735000D01*
G75*
G02*
X330775000Y-77684000I51000J0D01*
G01*
X332375000Y-77684000D01*
G75*
G02*
X332426000Y-77735000I0J-51000D01*
G01*
G37*
X311405000Y-78535000D03*
G36*
G01*
X319876000Y-77735000D02*
X319876000Y-79335000D01*
G75*
G02*
X319825000Y-79386000I-51000J0D01*
G01*
X318225000Y-79386000D01*
G75*
G02*
X318174000Y-79335000I0J51000D01*
G01*
X318174000Y-77735000D01*
G75*
G02*
X318225000Y-77684000I51000J0D01*
G01*
X319825000Y-77684000D01*
G75*
G02*
X319876000Y-77735000I0J-51000D01*
G01*
G37*
X298855000Y-78535000D03*
G36*
G01*
X307326000Y-77735000D02*
X307326000Y-79335000D01*
G75*
G02*
X307275000Y-79386000I-51000J0D01*
G01*
X305675000Y-79386000D01*
G75*
G02*
X305624000Y-79335000I0J51000D01*
G01*
X305624000Y-77735000D01*
G75*
G02*
X305675000Y-77684000I51000J0D01*
G01*
X307275000Y-77684000D01*
G75*
G02*
X307326000Y-77735000I0J-51000D01*
G01*
G37*
X222605000Y-81185000D03*
G36*
G01*
X231076000Y-80385000D02*
X231076000Y-81985000D01*
G75*
G02*
X231025000Y-82036000I-51000J0D01*
G01*
X229425000Y-82036000D01*
G75*
G02*
X229374000Y-81985000I0J51000D01*
G01*
X229374000Y-80385000D01*
G75*
G02*
X229425000Y-80334000I51000J0D01*
G01*
X231025000Y-80334000D01*
G75*
G02*
X231076000Y-80385000I0J-51000D01*
G01*
G37*
X204505000Y-81185000D03*
G36*
G01*
X212976000Y-80385000D02*
X212976000Y-81985000D01*
G75*
G02*
X212925000Y-82036000I-51000J0D01*
G01*
X211325000Y-82036000D01*
G75*
G02*
X211274000Y-81985000I0J51000D01*
G01*
X211274000Y-80385000D01*
G75*
G02*
X211325000Y-80334000I51000J0D01*
G01*
X212925000Y-80334000D01*
G75*
G02*
X212976000Y-80385000I0J-51000D01*
G01*
G37*
X186405000Y-81185000D03*
G36*
G01*
X194876000Y-80385000D02*
X194876000Y-81985000D01*
G75*
G02*
X194825000Y-82036000I-51000J0D01*
G01*
X193225000Y-82036000D01*
G75*
G02*
X193174000Y-81985000I0J51000D01*
G01*
X193174000Y-80385000D01*
G75*
G02*
X193225000Y-80334000I51000J0D01*
G01*
X194825000Y-80334000D01*
G75*
G02*
X194876000Y-80385000I0J-51000D01*
G01*
G37*
X168305000Y-81185000D03*
G36*
G01*
X176776000Y-80385000D02*
X176776000Y-81985000D01*
G75*
G02*
X176725000Y-82036000I-51000J0D01*
G01*
X175125000Y-82036000D01*
G75*
G02*
X175074000Y-81985000I0J51000D01*
G01*
X175074000Y-80385000D01*
G75*
G02*
X175125000Y-80334000I51000J0D01*
G01*
X176725000Y-80334000D01*
G75*
G02*
X176776000Y-80385000I0J-51000D01*
G01*
G37*
X150205000Y-81185000D03*
G36*
G01*
X158676000Y-80385000D02*
X158676000Y-81985000D01*
G75*
G02*
X158625000Y-82036000I-51000J0D01*
G01*
X157025000Y-82036000D01*
G75*
G02*
X156974000Y-81985000I0J51000D01*
G01*
X156974000Y-80385000D01*
G75*
G02*
X157025000Y-80334000I51000J0D01*
G01*
X158625000Y-80334000D01*
G75*
G02*
X158676000Y-80385000I0J-51000D01*
G01*
G37*
X132205000Y-81185000D03*
G36*
G01*
X140676000Y-80385000D02*
X140676000Y-81985000D01*
G75*
G02*
X140625000Y-82036000I-51000J0D01*
G01*
X139025000Y-82036000D01*
G75*
G02*
X138974000Y-81985000I0J51000D01*
G01*
X138974000Y-80385000D01*
G75*
G02*
X139025000Y-80334000I51000J0D01*
G01*
X140625000Y-80334000D01*
G75*
G02*
X140676000Y-80385000I0J-51000D01*
G01*
G37*
X114105000Y-81185000D03*
G36*
G01*
X122576000Y-80385000D02*
X122576000Y-81985000D01*
G75*
G02*
X122525000Y-82036000I-51000J0D01*
G01*
X120925000Y-82036000D01*
G75*
G02*
X120874000Y-81985000I0J51000D01*
G01*
X120874000Y-80385000D01*
G75*
G02*
X120925000Y-80334000I51000J0D01*
G01*
X122525000Y-80334000D01*
G75*
G02*
X122576000Y-80385000I0J-51000D01*
G01*
G37*
X96005000Y-81185000D03*
G36*
G01*
X104476000Y-80385000D02*
X104476000Y-81985000D01*
G75*
G02*
X104425000Y-82036000I-51000J0D01*
G01*
X102825000Y-82036000D01*
G75*
G02*
X102774000Y-81985000I0J51000D01*
G01*
X102774000Y-80385000D01*
G75*
G02*
X102825000Y-80334000I51000J0D01*
G01*
X104425000Y-80334000D01*
G75*
G02*
X104476000Y-80385000I0J-51000D01*
G01*
G37*
X77905000Y-81185000D03*
G36*
G01*
X86376000Y-80385000D02*
X86376000Y-81985000D01*
G75*
G02*
X86325000Y-82036000I-51000J0D01*
G01*
X84725000Y-82036000D01*
G75*
G02*
X84674000Y-81985000I0J51000D01*
G01*
X84674000Y-80385000D01*
G75*
G02*
X84725000Y-80334000I51000J0D01*
G01*
X86325000Y-80334000D01*
G75*
G02*
X86376000Y-80385000I0J-51000D01*
G01*
G37*
X41705000Y-81185000D03*
G36*
G01*
X50176000Y-80385000D02*
X50176000Y-81985000D01*
G75*
G02*
X50125000Y-82036000I-51000J0D01*
G01*
X48525000Y-82036000D01*
G75*
G02*
X48474000Y-81985000I0J51000D01*
G01*
X48474000Y-80385000D01*
G75*
G02*
X48525000Y-80334000I51000J0D01*
G01*
X50125000Y-80334000D01*
G75*
G02*
X50176000Y-80385000I0J-51000D01*
G01*
G37*
X374155000Y-82485000D03*
G36*
G01*
X382626000Y-81685000D02*
X382626000Y-83285000D01*
G75*
G02*
X382575000Y-83336000I-51000J0D01*
G01*
X380975000Y-83336000D01*
G75*
G02*
X380924000Y-83285000I0J51000D01*
G01*
X380924000Y-81685000D01*
G75*
G02*
X380975000Y-81634000I51000J0D01*
G01*
X382575000Y-81634000D01*
G75*
G02*
X382626000Y-81685000I0J-51000D01*
G01*
G37*
X361605000Y-82485000D03*
G36*
G01*
X370076000Y-81685000D02*
X370076000Y-83285000D01*
G75*
G02*
X370025000Y-83336000I-51000J0D01*
G01*
X368425000Y-83336000D01*
G75*
G02*
X368374000Y-83285000I0J51000D01*
G01*
X368374000Y-81685000D01*
G75*
G02*
X368425000Y-81634000I51000J0D01*
G01*
X370025000Y-81634000D01*
G75*
G02*
X370076000Y-81685000I0J-51000D01*
G01*
G37*
X349055000Y-82485000D03*
G36*
G01*
X357526000Y-81685000D02*
X357526000Y-83285000D01*
G75*
G02*
X357475000Y-83336000I-51000J0D01*
G01*
X355875000Y-83336000D01*
G75*
G02*
X355824000Y-83285000I0J51000D01*
G01*
X355824000Y-81685000D01*
G75*
G02*
X355875000Y-81634000I51000J0D01*
G01*
X357475000Y-81634000D01*
G75*
G02*
X357526000Y-81685000I0J-51000D01*
G01*
G37*
X336505000Y-82485000D03*
G36*
G01*
X344976000Y-81685000D02*
X344976000Y-83285000D01*
G75*
G02*
X344925000Y-83336000I-51000J0D01*
G01*
X343325000Y-83336000D01*
G75*
G02*
X343274000Y-83285000I0J51000D01*
G01*
X343274000Y-81685000D01*
G75*
G02*
X343325000Y-81634000I51000J0D01*
G01*
X344925000Y-81634000D01*
G75*
G02*
X344976000Y-81685000I0J-51000D01*
G01*
G37*
X311405000Y-82485000D03*
G36*
G01*
X319876000Y-81685000D02*
X319876000Y-83285000D01*
G75*
G02*
X319825000Y-83336000I-51000J0D01*
G01*
X318225000Y-83336000D01*
G75*
G02*
X318174000Y-83285000I0J51000D01*
G01*
X318174000Y-81685000D01*
G75*
G02*
X318225000Y-81634000I51000J0D01*
G01*
X319825000Y-81634000D01*
G75*
G02*
X319876000Y-81685000I0J-51000D01*
G01*
G37*
X298855000Y-82485000D03*
G36*
G01*
X307326000Y-81685000D02*
X307326000Y-83285000D01*
G75*
G02*
X307275000Y-83336000I-51000J0D01*
G01*
X305675000Y-83336000D01*
G75*
G02*
X305624000Y-83285000I0J51000D01*
G01*
X305624000Y-81685000D01*
G75*
G02*
X305675000Y-81634000I51000J0D01*
G01*
X307275000Y-81634000D01*
G75*
G02*
X307326000Y-81685000I0J-51000D01*
G01*
G37*
X222605000Y-85185000D03*
G36*
G01*
X231076000Y-84385000D02*
X231076000Y-85985000D01*
G75*
G02*
X231025000Y-86036000I-51000J0D01*
G01*
X229425000Y-86036000D01*
G75*
G02*
X229374000Y-85985000I0J51000D01*
G01*
X229374000Y-84385000D01*
G75*
G02*
X229425000Y-84334000I51000J0D01*
G01*
X231025000Y-84334000D01*
G75*
G02*
X231076000Y-84385000I0J-51000D01*
G01*
G37*
X204505000Y-85185000D03*
G36*
G01*
X212976000Y-84385000D02*
X212976000Y-85985000D01*
G75*
G02*
X212925000Y-86036000I-51000J0D01*
G01*
X211325000Y-86036000D01*
G75*
G02*
X211274000Y-85985000I0J51000D01*
G01*
X211274000Y-84385000D01*
G75*
G02*
X211325000Y-84334000I51000J0D01*
G01*
X212925000Y-84334000D01*
G75*
G02*
X212976000Y-84385000I0J-51000D01*
G01*
G37*
X186405000Y-85185000D03*
G36*
G01*
X194876000Y-84385000D02*
X194876000Y-85985000D01*
G75*
G02*
X194825000Y-86036000I-51000J0D01*
G01*
X193225000Y-86036000D01*
G75*
G02*
X193174000Y-85985000I0J51000D01*
G01*
X193174000Y-84385000D01*
G75*
G02*
X193225000Y-84334000I51000J0D01*
G01*
X194825000Y-84334000D01*
G75*
G02*
X194876000Y-84385000I0J-51000D01*
G01*
G37*
X168335000Y-85185000D03*
G36*
G01*
X176806000Y-84385000D02*
X176806000Y-85985000D01*
G75*
G02*
X176755000Y-86036000I-51000J0D01*
G01*
X175155000Y-86036000D01*
G75*
G02*
X175104000Y-85985000I0J51000D01*
G01*
X175104000Y-84385000D01*
G75*
G02*
X175155000Y-84334000I51000J0D01*
G01*
X176755000Y-84334000D01*
G75*
G02*
X176806000Y-84385000I0J-51000D01*
G01*
G37*
X150245000Y-85185000D03*
G36*
G01*
X158716000Y-84385000D02*
X158716000Y-85985000D01*
G75*
G02*
X158665000Y-86036000I-51000J0D01*
G01*
X157065000Y-86036000D01*
G75*
G02*
X157014000Y-85985000I0J51000D01*
G01*
X157014000Y-84385000D01*
G75*
G02*
X157065000Y-84334000I51000J0D01*
G01*
X158665000Y-84334000D01*
G75*
G02*
X158716000Y-84385000I0J-51000D01*
G01*
G37*
X132155000Y-85185000D03*
G36*
G01*
X140626000Y-84385000D02*
X140626000Y-85985000D01*
G75*
G02*
X140575000Y-86036000I-51000J0D01*
G01*
X138975000Y-86036000D01*
G75*
G02*
X138924000Y-85985000I0J51000D01*
G01*
X138924000Y-84385000D01*
G75*
G02*
X138975000Y-84334000I51000J0D01*
G01*
X140575000Y-84334000D01*
G75*
G02*
X140626000Y-84385000I0J-51000D01*
G01*
G37*
X114105000Y-85185000D03*
G36*
G01*
X122576000Y-84385000D02*
X122576000Y-85985000D01*
G75*
G02*
X122525000Y-86036000I-51000J0D01*
G01*
X120925000Y-86036000D01*
G75*
G02*
X120874000Y-85985000I0J51000D01*
G01*
X120874000Y-84385000D01*
G75*
G02*
X120925000Y-84334000I51000J0D01*
G01*
X122525000Y-84334000D01*
G75*
G02*
X122576000Y-84385000I0J-51000D01*
G01*
G37*
X96005000Y-85185000D03*
G36*
G01*
X104476000Y-84385000D02*
X104476000Y-85985000D01*
G75*
G02*
X104425000Y-86036000I-51000J0D01*
G01*
X102825000Y-86036000D01*
G75*
G02*
X102774000Y-85985000I0J51000D01*
G01*
X102774000Y-84385000D01*
G75*
G02*
X102825000Y-84334000I51000J0D01*
G01*
X104425000Y-84334000D01*
G75*
G02*
X104476000Y-84385000I0J-51000D01*
G01*
G37*
X77905000Y-85185000D03*
G36*
G01*
X86376000Y-84385000D02*
X86376000Y-85985000D01*
G75*
G02*
X86325000Y-86036000I-51000J0D01*
G01*
X84725000Y-86036000D01*
G75*
G02*
X84674000Y-85985000I0J51000D01*
G01*
X84674000Y-84385000D01*
G75*
G02*
X84725000Y-84334000I51000J0D01*
G01*
X86325000Y-84334000D01*
G75*
G02*
X86376000Y-84385000I0J-51000D01*
G01*
G37*
X59805000Y-85185000D03*
G36*
G01*
X68276000Y-84385000D02*
X68276000Y-85985000D01*
G75*
G02*
X68225000Y-86036000I-51000J0D01*
G01*
X66625000Y-86036000D01*
G75*
G02*
X66574000Y-85985000I0J51000D01*
G01*
X66574000Y-84385000D01*
G75*
G02*
X66625000Y-84334000I51000J0D01*
G01*
X68225000Y-84334000D01*
G75*
G02*
X68276000Y-84385000I0J-51000D01*
G01*
G37*
X41705000Y-85185000D03*
G36*
G01*
X50176000Y-84385000D02*
X50176000Y-85985000D01*
G75*
G02*
X50125000Y-86036000I-51000J0D01*
G01*
X48525000Y-86036000D01*
G75*
G02*
X48474000Y-85985000I0J51000D01*
G01*
X48474000Y-84385000D01*
G75*
G02*
X48525000Y-84334000I51000J0D01*
G01*
X50125000Y-84334000D01*
G75*
G02*
X50176000Y-84385000I0J-51000D01*
G01*
G37*
X374155000Y-86435000D03*
G36*
G01*
X382626000Y-85635000D02*
X382626000Y-87235000D01*
G75*
G02*
X382575000Y-87286000I-51000J0D01*
G01*
X380975000Y-87286000D01*
G75*
G02*
X380924000Y-87235000I0J51000D01*
G01*
X380924000Y-85635000D01*
G75*
G02*
X380975000Y-85584000I51000J0D01*
G01*
X382575000Y-85584000D01*
G75*
G02*
X382626000Y-85635000I0J-51000D01*
G01*
G37*
X361605000Y-86435000D03*
G36*
G01*
X370076000Y-85635000D02*
X370076000Y-87235000D01*
G75*
G02*
X370025000Y-87286000I-51000J0D01*
G01*
X368425000Y-87286000D01*
G75*
G02*
X368374000Y-87235000I0J51000D01*
G01*
X368374000Y-85635000D01*
G75*
G02*
X368425000Y-85584000I51000J0D01*
G01*
X370025000Y-85584000D01*
G75*
G02*
X370076000Y-85635000I0J-51000D01*
G01*
G37*
X349055000Y-86435000D03*
G36*
G01*
X357526000Y-85635000D02*
X357526000Y-87235000D01*
G75*
G02*
X357475000Y-87286000I-51000J0D01*
G01*
X355875000Y-87286000D01*
G75*
G02*
X355824000Y-87235000I0J51000D01*
G01*
X355824000Y-85635000D01*
G75*
G02*
X355875000Y-85584000I51000J0D01*
G01*
X357475000Y-85584000D01*
G75*
G02*
X357526000Y-85635000I0J-51000D01*
G01*
G37*
X336505000Y-86435000D03*
G36*
G01*
X344976000Y-85635000D02*
X344976000Y-87235000D01*
G75*
G02*
X344925000Y-87286000I-51000J0D01*
G01*
X343325000Y-87286000D01*
G75*
G02*
X343274000Y-87235000I0J51000D01*
G01*
X343274000Y-85635000D01*
G75*
G02*
X343325000Y-85584000I51000J0D01*
G01*
X344925000Y-85584000D01*
G75*
G02*
X344976000Y-85635000I0J-51000D01*
G01*
G37*
X323955000Y-86435000D03*
G36*
G01*
X332426000Y-85635000D02*
X332426000Y-87235000D01*
G75*
G02*
X332375000Y-87286000I-51000J0D01*
G01*
X330775000Y-87286000D01*
G75*
G02*
X330724000Y-87235000I0J51000D01*
G01*
X330724000Y-85635000D01*
G75*
G02*
X330775000Y-85584000I51000J0D01*
G01*
X332375000Y-85584000D01*
G75*
G02*
X332426000Y-85635000I0J-51000D01*
G01*
G37*
X311405000Y-86435000D03*
G36*
G01*
X319876000Y-85635000D02*
X319876000Y-87235000D01*
G75*
G02*
X319825000Y-87286000I-51000J0D01*
G01*
X318225000Y-87286000D01*
G75*
G02*
X318174000Y-87235000I0J51000D01*
G01*
X318174000Y-85635000D01*
G75*
G02*
X318225000Y-85584000I51000J0D01*
G01*
X319825000Y-85584000D01*
G75*
G02*
X319876000Y-85635000I0J-51000D01*
G01*
G37*
X298855000Y-86435000D03*
G36*
G01*
X307326000Y-85635000D02*
X307326000Y-87235000D01*
G75*
G02*
X307275000Y-87286000I-51000J0D01*
G01*
X305675000Y-87286000D01*
G75*
G02*
X305624000Y-87235000I0J51000D01*
G01*
X305624000Y-85635000D01*
G75*
G02*
X305675000Y-85584000I51000J0D01*
G01*
X307275000Y-85584000D01*
G75*
G02*
X307326000Y-85635000I0J-51000D01*
G01*
G37*
X222605000Y-89185000D03*
G36*
G01*
X231076000Y-88385000D02*
X231076000Y-89985000D01*
G75*
G02*
X231025000Y-90036000I-51000J0D01*
G01*
X229425000Y-90036000D01*
G75*
G02*
X229374000Y-89985000I0J51000D01*
G01*
X229374000Y-88385000D01*
G75*
G02*
X229425000Y-88334000I51000J0D01*
G01*
X231025000Y-88334000D01*
G75*
G02*
X231076000Y-88385000I0J-51000D01*
G01*
G37*
X204505000Y-89185000D03*
G36*
G01*
X212976000Y-88385000D02*
X212976000Y-89985000D01*
G75*
G02*
X212925000Y-90036000I-51000J0D01*
G01*
X211325000Y-90036000D01*
G75*
G02*
X211274000Y-89985000I0J51000D01*
G01*
X211274000Y-88385000D01*
G75*
G02*
X211325000Y-88334000I51000J0D01*
G01*
X212925000Y-88334000D01*
G75*
G02*
X212976000Y-88385000I0J-51000D01*
G01*
G37*
X186405000Y-89185000D03*
G36*
G01*
X194876000Y-88385000D02*
X194876000Y-89985000D01*
G75*
G02*
X194825000Y-90036000I-51000J0D01*
G01*
X193225000Y-90036000D01*
G75*
G02*
X193174000Y-89985000I0J51000D01*
G01*
X193174000Y-88385000D01*
G75*
G02*
X193225000Y-88334000I51000J0D01*
G01*
X194825000Y-88334000D01*
G75*
G02*
X194876000Y-88385000I0J-51000D01*
G01*
G37*
X168345000Y-89185000D03*
G36*
G01*
X176816000Y-88385000D02*
X176816000Y-89985000D01*
G75*
G02*
X176765000Y-90036000I-51000J0D01*
G01*
X175165000Y-90036000D01*
G75*
G02*
X175114000Y-89985000I0J51000D01*
G01*
X175114000Y-88385000D01*
G75*
G02*
X175165000Y-88334000I51000J0D01*
G01*
X176765000Y-88334000D01*
G75*
G02*
X176816000Y-88385000I0J-51000D01*
G01*
G37*
X132155000Y-89185000D03*
G36*
G01*
X140626000Y-88385000D02*
X140626000Y-89985000D01*
G75*
G02*
X140575000Y-90036000I-51000J0D01*
G01*
X138975000Y-90036000D01*
G75*
G02*
X138924000Y-89985000I0J51000D01*
G01*
X138924000Y-88385000D01*
G75*
G02*
X138975000Y-88334000I51000J0D01*
G01*
X140575000Y-88334000D01*
G75*
G02*
X140626000Y-88385000I0J-51000D01*
G01*
G37*
X114105000Y-89185000D03*
G36*
G01*
X122576000Y-88385000D02*
X122576000Y-89985000D01*
G75*
G02*
X122525000Y-90036000I-51000J0D01*
G01*
X120925000Y-90036000D01*
G75*
G02*
X120874000Y-89985000I0J51000D01*
G01*
X120874000Y-88385000D01*
G75*
G02*
X120925000Y-88334000I51000J0D01*
G01*
X122525000Y-88334000D01*
G75*
G02*
X122576000Y-88385000I0J-51000D01*
G01*
G37*
X96005000Y-89185000D03*
G36*
G01*
X104476000Y-88385000D02*
X104476000Y-89985000D01*
G75*
G02*
X104425000Y-90036000I-51000J0D01*
G01*
X102825000Y-90036000D01*
G75*
G02*
X102774000Y-89985000I0J51000D01*
G01*
X102774000Y-88385000D01*
G75*
G02*
X102825000Y-88334000I51000J0D01*
G01*
X104425000Y-88334000D01*
G75*
G02*
X104476000Y-88385000I0J-51000D01*
G01*
G37*
X77905000Y-89185000D03*
G36*
G01*
X86376000Y-88385000D02*
X86376000Y-89985000D01*
G75*
G02*
X86325000Y-90036000I-51000J0D01*
G01*
X84725000Y-90036000D01*
G75*
G02*
X84674000Y-89985000I0J51000D01*
G01*
X84674000Y-88385000D01*
G75*
G02*
X84725000Y-88334000I51000J0D01*
G01*
X86325000Y-88334000D01*
G75*
G02*
X86376000Y-88385000I0J-51000D01*
G01*
G37*
X41705000Y-89185000D03*
G36*
G01*
X50176000Y-88385000D02*
X50176000Y-89985000D01*
G75*
G02*
X50125000Y-90036000I-51000J0D01*
G01*
X48525000Y-90036000D01*
G75*
G02*
X48474000Y-89985000I0J51000D01*
G01*
X48474000Y-88385000D01*
G75*
G02*
X48525000Y-88334000I51000J0D01*
G01*
X50125000Y-88334000D01*
G75*
G02*
X50176000Y-88385000I0J-51000D01*
G01*
G37*
G36*
G01*
X243388000Y-74620000D02*
X242462000Y-74620000D01*
G75*
G02*
X241999000Y-74157000I0J463000D01*
G01*
X241999000Y-73231000D01*
G75*
G02*
X242462000Y-72768000I463000J0D01*
G01*
X243388000Y-72768000D01*
G75*
G02*
X243851000Y-73231000I0J-463000D01*
G01*
X243851000Y-74157000D01*
G75*
G02*
X243388000Y-74620000I-463000J0D01*
G01*
G37*
G36*
G01*
X243388000Y-76652000D02*
X242462000Y-76652000D01*
G75*
G02*
X241999000Y-76189000I0J463000D01*
G01*
X241999000Y-75263000D01*
G75*
G02*
X242462000Y-74800000I463000J0D01*
G01*
X243388000Y-74800000D01*
G75*
G02*
X243851000Y-75263000I0J-463000D01*
G01*
X243851000Y-76189000D01*
G75*
G02*
X243388000Y-76652000I-463000J0D01*
G01*
G37*
D18*
X242920000Y-83600000D03*
X245460000Y-83600000D03*
G36*
G01*
X248850000Y-84501000D02*
X247150000Y-84501000D01*
G75*
G02*
X247099000Y-84450000I0J51000D01*
G01*
X247099000Y-82750000D01*
G75*
G02*
X247150000Y-82699000I51000J0D01*
G01*
X248850000Y-82699000D01*
G75*
G02*
X248901000Y-82750000I0J-51000D01*
G01*
X248901000Y-84450000D01*
G75*
G02*
X248850000Y-84501000I-51000J0D01*
G01*
G37*
X250540000Y-83600000D03*
X253080000Y-83600000D03*
X255620000Y-83600000D03*
X258160000Y-83600000D03*
G36*
G01*
X261550000Y-84501000D02*
X259850000Y-84501000D01*
G75*
G02*
X259799000Y-84450000I0J51000D01*
G01*
X259799000Y-82750000D01*
G75*
G02*
X259850000Y-82699000I51000J0D01*
G01*
X261550000Y-82699000D01*
G75*
G02*
X261601000Y-82750000I0J-51000D01*
G01*
X261601000Y-84450000D01*
G75*
G02*
X261550000Y-84501000I-51000J0D01*
G01*
G37*
X263240000Y-83600000D03*
X265780000Y-83600000D03*
X268320000Y-83600000D03*
X270860000Y-83600000D03*
G36*
G01*
X274250000Y-84501000D02*
X272550000Y-84501000D01*
G75*
G02*
X272499000Y-84450000I0J51000D01*
G01*
X272499000Y-82750000D01*
G75*
G02*
X272550000Y-82699000I51000J0D01*
G01*
X274250000Y-82699000D01*
G75*
G02*
X274301000Y-82750000I0J-51000D01*
G01*
X274301000Y-84450000D01*
G75*
G02*
X274250000Y-84501000I-51000J0D01*
G01*
G37*
X275940000Y-83600000D03*
X278480000Y-83600000D03*
X281020000Y-83600000D03*
X283560000Y-83600000D03*
G36*
G01*
X286950000Y-84501000D02*
X285250000Y-84501000D01*
G75*
G02*
X285199000Y-84450000I0J51000D01*
G01*
X285199000Y-82750000D01*
G75*
G02*
X285250000Y-82699000I51000J0D01*
G01*
X286950000Y-82699000D01*
G75*
G02*
X287001000Y-82750000I0J-51000D01*
G01*
X287001000Y-84450000D01*
G75*
G02*
X286950000Y-84501000I-51000J0D01*
G01*
G37*
X288640000Y-83600000D03*
X291180000Y-83600000D03*
X291180000Y-65820000D03*
X288640000Y-65820000D03*
G36*
G01*
X286950000Y-66721000D02*
X285250000Y-66721000D01*
G75*
G02*
X285199000Y-66670000I0J51000D01*
G01*
X285199000Y-64970000D01*
G75*
G02*
X285250000Y-64919000I51000J0D01*
G01*
X286950000Y-64919000D01*
G75*
G02*
X287001000Y-64970000I0J-51000D01*
G01*
X287001000Y-66670000D01*
G75*
G02*
X286950000Y-66721000I-51000J0D01*
G01*
G37*
X283560000Y-65820000D03*
X281020000Y-65820000D03*
X278480000Y-65820000D03*
X275940000Y-65820000D03*
G36*
G01*
X274250000Y-66721000D02*
X272550000Y-66721000D01*
G75*
G02*
X272499000Y-66670000I0J51000D01*
G01*
X272499000Y-64970000D01*
G75*
G02*
X272550000Y-64919000I51000J0D01*
G01*
X274250000Y-64919000D01*
G75*
G02*
X274301000Y-64970000I0J-51000D01*
G01*
X274301000Y-66670000D01*
G75*
G02*
X274250000Y-66721000I-51000J0D01*
G01*
G37*
X270860000Y-65820000D03*
X268320000Y-65820000D03*
X265780000Y-65820000D03*
X263240000Y-65820000D03*
G36*
G01*
X261550000Y-66721000D02*
X259850000Y-66721000D01*
G75*
G02*
X259799000Y-66670000I0J51000D01*
G01*
X259799000Y-64970000D01*
G75*
G02*
X259850000Y-64919000I51000J0D01*
G01*
X261550000Y-64919000D01*
G75*
G02*
X261601000Y-64970000I0J-51000D01*
G01*
X261601000Y-66670000D01*
G75*
G02*
X261550000Y-66721000I-51000J0D01*
G01*
G37*
X258160000Y-65820000D03*
X255620000Y-65820000D03*
X253080000Y-65820000D03*
X250540000Y-65820000D03*
G36*
G01*
X248850000Y-66721000D02*
X247150000Y-66721000D01*
G75*
G02*
X247099000Y-66670000I0J51000D01*
G01*
X247099000Y-64970000D01*
G75*
G02*
X247150000Y-64919000I51000J0D01*
G01*
X248850000Y-64919000D01*
G75*
G02*
X248901000Y-64970000I0J-51000D01*
G01*
X248901000Y-66670000D01*
G75*
G02*
X248850000Y-66721000I-51000J0D01*
G01*
G37*
X245460000Y-65820000D03*
X242920000Y-65820000D03*
X290950000Y-77250000D03*
G36*
G01*
X291800000Y-75611000D02*
X290100000Y-75611000D01*
G75*
G02*
X290049000Y-75560000I0J51000D01*
G01*
X290049000Y-73860000D01*
G75*
G02*
X290100000Y-73809000I51000J0D01*
G01*
X291800000Y-73809000D01*
G75*
G02*
X291851000Y-73860000I0J-51000D01*
G01*
X291851000Y-75560000D01*
G75*
G02*
X291800000Y-75611000I-51000J0D01*
G01*
G37*
X290950000Y-72170000D03*
D19*
X376075000Y-116060000D03*
X48375000Y-116085000D03*
X209225000Y-210185000D03*
X212225000Y-116085000D03*
X385925000Y-212085000D03*
X38525000Y-212185000D03*
X385825000Y-63385000D03*
X38625000Y-63385000D03*
D18*
X314100000Y-61940000D03*
X314100000Y-64480000D03*
X314100000Y-67020000D03*
G36*
G01*
X315001000Y-68710000D02*
X315001000Y-70410000D01*
G75*
G02*
X314950000Y-70461000I-51000J0D01*
G01*
X313250000Y-70461000D01*
G75*
G02*
X313199000Y-70410000I0J51000D01*
G01*
X313199000Y-68710000D01*
G75*
G02*
X313250000Y-68659000I51000J0D01*
G01*
X314950000Y-68659000D01*
G75*
G02*
X315001000Y-68710000I0J-51000D01*
G01*
G37*
D11*
X302770000Y-146997000D03*
X302770000Y-170873000D03*
D13*
X318010000Y-146997000D03*
X318010000Y-170873000D03*
D12*
X311025000Y-164015000D03*
X311025000Y-153855000D03*
D10*
X313565000Y-155125000D03*
D11*
X311025000Y-158935000D03*
D10*
X316105000Y-161475000D03*
M02*
