M48
; DRILL file {KiCad (5.1.9)-1} date 05/31/21 01:16:24
; FORMAT={-:-/ absolute / metric / decimal}
; #@! TF.CreationDate,2021-05-31T01:16:24+01:00
; #@! TF.GenerationSoftware,Kicad,Pcbnew,(5.1.9)-1
; #@! TF.FileFunction,Plated,1,2,PTH
FMAT,2
METRIC
T1C0.400
T2C0.600
T3C0.800
T4C1.000
T5C1.020
T6C1.470
%
G90
G05
T1
X202.625Y-61.385
X211.975Y-68.659
X212.475Y-66.001
X217.181Y-70.059
X217.749Y-71.43
X244.25Y-68.76
X245.7Y-74.691
X300.185Y-61.744
X303.825Y-68.735
X303.825Y-72.61
X343.375Y-90.235
X352.615Y-81.445
T3
X41.605Y-69.185
X41.705Y-73.185
X41.705Y-77.185
X41.705Y-81.185
X41.705Y-85.185
X41.705Y-89.185
X49.225Y-69.185
X49.325Y-73.185
X49.325Y-77.185
X49.325Y-81.185
X49.325Y-85.185
X49.325Y-89.185
X59.805Y-69.185
X59.805Y-73.185
X59.805Y-85.185
X67.425Y-69.185
X67.425Y-73.185
X67.425Y-85.185
X77.905Y-73.185
X77.905Y-77.185
X77.905Y-81.185
X77.905Y-85.185
X77.905Y-89.185
X85.525Y-73.185
X85.525Y-77.185
X85.525Y-81.185
X85.525Y-85.185
X85.525Y-89.185
X96.005Y-69.185
X96.005Y-73.185
X96.005Y-77.185
X96.005Y-81.185
X96.005Y-85.185
X96.005Y-89.185
X103.625Y-69.185
X103.625Y-73.185
X103.625Y-77.185
X103.625Y-81.185
X103.625Y-85.185
X103.625Y-89.185
X114.105Y-73.185
X114.105Y-77.185
X114.105Y-81.185
X114.105Y-85.185
X114.105Y-89.185
X121.725Y-73.185
X121.725Y-77.185
X121.725Y-81.185
X121.725Y-85.185
X121.725Y-89.185
X132.155Y-85.185
X132.155Y-89.185
X132.205Y-73.185
X132.205Y-77.185
X132.205Y-81.185
X139.775Y-85.185
X139.775Y-89.185
X139.825Y-73.185
X139.825Y-77.185
X139.825Y-81.185
X150.205Y-69.185
X150.205Y-73.185
X150.205Y-77.185
X150.205Y-81.185
X150.245Y-85.185
X157.825Y-69.185
X157.825Y-73.185
X157.825Y-77.185
X157.825Y-81.185
X157.865Y-85.185
X168.305Y-73.185
X168.305Y-77.185
X168.305Y-81.185
X168.335Y-85.185
X168.345Y-89.185
X175.925Y-73.185
X175.925Y-77.185
X175.925Y-81.185
X175.955Y-85.185
X175.965Y-89.185
X186.405Y-73.185
X186.405Y-77.185
X186.405Y-81.185
X186.405Y-85.185
X186.405Y-89.185
X194.025Y-73.185
X194.025Y-77.185
X194.025Y-81.185
X194.025Y-85.185
X194.025Y-89.185
X204.505Y-73.185
X204.505Y-77.185
X204.505Y-81.185
X204.505Y-85.185
X204.505Y-89.185
X212.125Y-73.185
X212.125Y-77.185
X212.125Y-81.185
X212.125Y-85.185
X212.125Y-89.185
X222.605Y-69.185
X222.605Y-73.185
X222.605Y-77.185
X222.605Y-81.185
X222.605Y-85.185
X222.605Y-89.185
X230.225Y-69.185
X230.225Y-73.185
X230.225Y-77.185
X230.225Y-81.185
X230.225Y-85.185
X230.225Y-89.185
X298.855Y-66.685
X298.855Y-70.635
X298.855Y-74.585
X298.855Y-78.535
X298.855Y-82.485
X298.855Y-86.435
X306.475Y-66.685
X306.475Y-70.635
X306.475Y-74.585
X306.475Y-78.535
X306.475Y-82.485
X306.475Y-86.435
X311.405Y-74.585
X311.405Y-78.535
X311.405Y-82.485
X311.405Y-86.435
X319.025Y-74.585
X319.025Y-78.535
X319.025Y-82.485
X319.025Y-86.435
X323.955Y-66.685
X323.955Y-70.635
X323.955Y-74.585
X323.955Y-78.535
X323.955Y-86.435
X331.575Y-66.685
X331.575Y-70.635
X331.575Y-74.585
X331.575Y-78.535
X331.575Y-86.435
X336.505Y-66.685
X336.505Y-74.585
X336.505Y-78.535
X336.505Y-82.485
X336.505Y-86.435
X344.125Y-66.685
X344.125Y-74.585
X344.125Y-78.535
X344.125Y-82.485
X344.125Y-86.435
X349.055Y-66.685
X349.055Y-78.535
X349.055Y-82.485
X349.055Y-86.435
X356.675Y-66.685
X356.675Y-78.535
X356.675Y-82.485
X356.675Y-86.435
X361.605Y-66.685
X361.605Y-70.635
X361.605Y-78.535
X361.605Y-82.485
X361.605Y-86.435
X369.225Y-66.685
X369.225Y-70.635
X369.225Y-78.535
X369.225Y-82.485
X369.225Y-86.435
X374.155Y-66.685
X374.155Y-78.535
X374.155Y-82.485
X374.155Y-86.435
X381.775Y-66.685
X381.775Y-78.535
X381.775Y-82.485
X381.775Y-86.435
T4
X242.925Y-73.694
X242.925Y-75.726
X314.1Y-61.94
X314.1Y-64.48
X314.1Y-67.02
X314.1Y-69.56
T5
X242.92Y-65.82
X242.92Y-83.6
X245.46Y-65.82
X245.46Y-83.6
X248.0Y-65.82
X248.0Y-83.6
X250.54Y-65.82
X250.54Y-83.6
X253.08Y-65.82
X253.08Y-83.6
X255.62Y-65.82
X255.62Y-83.6
X258.16Y-65.82
X258.16Y-83.6
X260.7Y-65.82
X260.7Y-83.6
X263.24Y-65.82
X263.24Y-83.6
X265.78Y-65.82
X265.78Y-83.6
X268.32Y-65.82
X268.32Y-83.6
X270.86Y-65.82
X270.86Y-83.6
X273.4Y-65.82
X273.4Y-83.6
X275.94Y-65.82
X275.94Y-83.6
X278.48Y-65.82
X278.48Y-83.6
X281.02Y-65.82
X281.02Y-83.6
X283.56Y-65.82
X283.56Y-83.6
X286.1Y-65.82
X286.1Y-83.6
X288.64Y-65.82
X288.64Y-83.6
X290.95Y-72.17
X290.95Y-74.71
X290.95Y-77.25
X291.18Y-65.82
X291.18Y-83.6
T6
X42.915Y-99.245
X42.915Y-127.82
X45.296Y-184.97
X45.296Y-204.02
X47.677Y-146.87
X49.265Y-96.705
X49.265Y-125.28
X50.059Y-165.92
X51.646Y-182.43
X51.646Y-201.48
X54.027Y-144.33
X54.84Y-184.97
X56.409Y-163.38
X61.19Y-182.43
X61.965Y-127.82
X66.727Y-184.97
X68.315Y-125.28
X69.109Y-204.02
X71.49Y-146.87
X73.078Y-182.43
X75.459Y-201.48
X76.252Y-165.92
X77.84Y-144.33
X81.015Y-99.245
X81.015Y-127.82
X82.602Y-163.38
X85.777Y-184.97
X87.365Y-96.705
X87.365Y-125.28
X90.54Y-146.87
X92.127Y-182.43
X92.921Y-204.02
X95.302Y-165.92
X96.89Y-144.33
X99.271Y-201.48
X100.065Y-99.245
X100.065Y-127.82
X101.652Y-163.38
X104.828Y-184.97
X106.415Y-96.705
X106.415Y-125.28
X109.59Y-146.87
X111.177Y-182.43
X114.352Y-165.92
X115.94Y-144.33
X119.115Y-99.245
X119.115Y-127.82
X120.703Y-163.38
X123.877Y-184.97
X125.465Y-96.705
X125.465Y-125.28
X128.64Y-146.87
X130.227Y-182.43
X133.403Y-165.92
X134.99Y-144.33
X138.165Y-99.245
X138.165Y-127.82
X139.752Y-163.38
X142.927Y-184.97
X144.515Y-96.705
X144.515Y-125.28
X147.69Y-146.87
X149.278Y-182.43
X152.452Y-165.92
X154.04Y-144.33
X157.215Y-127.82
X158.802Y-163.38
X161.977Y-184.97
X163.565Y-125.28
X164.359Y-204.02
X166.74Y-99.245
X166.74Y-146.87
X168.327Y-182.43
X170.709Y-201.48
X171.502Y-165.92
X173.09Y-96.705
X173.09Y-144.33
X176.265Y-127.82
X177.852Y-163.38
X181.028Y-184.97
X182.615Y-125.28
X185.79Y-99.245
X185.79Y-146.87
X187.377Y-182.43
X190.552Y-165.92
X192.14Y-96.705
X192.14Y-144.33
X195.315Y-127.82
X196.903Y-163.38
X200.077Y-184.97
X201.665Y-125.28
X204.84Y-99.245
X204.84Y-146.87
X206.427Y-182.43
X209.602Y-165.92
X211.19Y-96.705
X211.19Y-144.33
X214.365Y-127.82
X215.952Y-163.38
X219.127Y-184.97
X220.715Y-125.28
X223.89Y-99.245
X223.89Y-146.87
X225.477Y-182.43
X228.653Y-165.92
X230.24Y-96.705
X230.24Y-144.33
X233.415Y-127.82
X235.002Y-163.38
X235.796Y-204.02
X238.177Y-184.97
X239.765Y-125.28
X242.146Y-201.48
X242.94Y-146.87
X244.527Y-182.43
X247.702Y-165.92
X249.29Y-144.33
X252.465Y-99.245
X252.465Y-127.82
X254.052Y-163.38
X257.227Y-184.97
X258.815Y-96.705
X258.815Y-125.28
X259.609Y-204.02
X261.99Y-146.87
X263.577Y-182.43
X265.959Y-201.48
X266.752Y-165.92
X268.34Y-144.33
X271.515Y-99.245
X271.515Y-127.82
X273.102Y-163.38
X277.865Y-96.705
X277.865Y-125.28
X281.04Y-146.87
X283.421Y-204.02
X285.803Y-165.92
X287.39Y-144.33
X289.771Y-201.48
X290.565Y-99.245
X292.152Y-163.38
X292.946Y-184.97
X296.915Y-96.705
X297.69Y-165.89
X299.296Y-182.43
X300.09Y-127.82
X304.04Y-163.35
X304.84Y-146.845
X306.44Y-125.28
X307.234Y-204.02
X309.615Y-99.245
X311.19Y-144.305
X313.565Y-155.125
X313.584Y-201.48
X315.965Y-96.705
X316.105Y-161.475
X333.428Y-99.245
X333.428Y-127.82
X333.428Y-146.87
X333.428Y-204.02
X339.777Y-96.705
X339.777Y-125.28
X339.777Y-144.33
X339.777Y-201.48
X352.477Y-99.245
X352.477Y-127.82
X352.477Y-146.87
X352.477Y-184.97
X352.477Y-204.02
X358.827Y-96.705
X358.827Y-125.28
X358.827Y-144.33
X358.827Y-182.43
X358.827Y-201.48
X371.527Y-99.245
X371.527Y-127.82
X371.527Y-146.87
X371.527Y-204.02
X377.877Y-96.705
X377.877Y-125.28
X377.877Y-144.33
X377.877Y-201.48
T2
X207.905Y-62.535G85X207.905Y-61.935
G05
X207.905Y-66.965G85X207.905Y-65.865
G05
X216.545Y-62.535G85X216.545Y-61.935
G05
X216.545Y-66.965G85X216.545Y-65.865
G05
T0
M30
