G04 #@! TF.GenerationSoftware,KiCad,Pcbnew,(5.1.9)-1*
G04 #@! TF.CreationDate,2021-05-20T19:00:34+01:00*
G04 #@! TF.ProjectId,ENV_KB,454e565f-4b42-42e6-9b69-6361645f7063,Rev.1*
G04 #@! TF.SameCoordinates,Original*
G04 #@! TF.FileFunction,Paste,Top*
G04 #@! TF.FilePolarity,Positive*
%FSLAX46Y46*%
G04 Gerber Fmt 4.6, Leading zero omitted, Abs format (unit mm)*
G04 Created by KiCad (PCBNEW (5.1.9)-1) date 2021-05-20 19:00:34*
%MOMM*%
%LPD*%
G01*
G04 APERTURE LIST*
%ADD10R,0.900000X1.700000*%
%ADD11R,0.300000X1.450000*%
%ADD12R,0.600000X1.450000*%
G04 APERTURE END LIST*
G36*
G01*
X202752500Y-66830000D02*
X203122500Y-66830000D01*
G75*
G02*
X203257500Y-66965000I0J-135000D01*
G01*
X203257500Y-67235000D01*
G75*
G02*
X203122500Y-67370000I-135000J0D01*
G01*
X202752500Y-67370000D01*
G75*
G02*
X202617500Y-67235000I0J135000D01*
G01*
X202617500Y-66965000D01*
G75*
G02*
X202752500Y-66830000I135000J0D01*
G01*
G37*
G36*
G01*
X202752500Y-65810000D02*
X203122500Y-65810000D01*
G75*
G02*
X203257500Y-65945000I0J-135000D01*
G01*
X203257500Y-66215000D01*
G75*
G02*
X203122500Y-66350000I-135000J0D01*
G01*
X202752500Y-66350000D01*
G75*
G02*
X202617500Y-66215000I0J135000D01*
G01*
X202617500Y-65945000D01*
G75*
G02*
X202752500Y-65810000I135000J0D01*
G01*
G37*
D10*
X199037500Y-61425000D03*
X202437500Y-61425000D03*
G36*
G01*
X205500000Y-66830000D02*
X205870000Y-66830000D01*
G75*
G02*
X206005000Y-66965000I0J-135000D01*
G01*
X206005000Y-67235000D01*
G75*
G02*
X205870000Y-67370000I-135000J0D01*
G01*
X205500000Y-67370000D01*
G75*
G02*
X205365000Y-67235000I0J135000D01*
G01*
X205365000Y-66965000D01*
G75*
G02*
X205500000Y-66830000I135000J0D01*
G01*
G37*
G36*
G01*
X205500000Y-65810000D02*
X205870000Y-65810000D01*
G75*
G02*
X206005000Y-65945000I0J-135000D01*
G01*
X206005000Y-66215000D01*
G75*
G02*
X205870000Y-66350000I-135000J0D01*
G01*
X205500000Y-66350000D01*
G75*
G02*
X205365000Y-66215000I0J135000D01*
G01*
X205365000Y-65945000D01*
G75*
G02*
X205500000Y-65810000I135000J0D01*
G01*
G37*
G36*
G01*
X204140000Y-65810000D02*
X204510000Y-65810000D01*
G75*
G02*
X204645000Y-65945000I0J-135000D01*
G01*
X204645000Y-66215000D01*
G75*
G02*
X204510000Y-66350000I-135000J0D01*
G01*
X204140000Y-66350000D01*
G75*
G02*
X204005000Y-66215000I0J135000D01*
G01*
X204005000Y-65945000D01*
G75*
G02*
X204140000Y-65810000I135000J0D01*
G01*
G37*
G36*
G01*
X204140000Y-66830000D02*
X204510000Y-66830000D01*
G75*
G02*
X204645000Y-66965000I0J-135000D01*
G01*
X204645000Y-67235000D01*
G75*
G02*
X204510000Y-67370000I-135000J0D01*
G01*
X204140000Y-67370000D01*
G75*
G02*
X204005000Y-67235000I0J135000D01*
G01*
X204005000Y-66965000D01*
G75*
G02*
X204140000Y-66830000I135000J0D01*
G01*
G37*
G36*
G01*
X200475000Y-66990001D02*
X200475000Y-66189999D01*
G75*
G02*
X200724999Y-65940000I249999J0D01*
G01*
X201550001Y-65940000D01*
G75*
G02*
X201800000Y-66189999I0J-249999D01*
G01*
X201800000Y-66990001D01*
G75*
G02*
X201550001Y-67240000I-249999J0D01*
G01*
X200724999Y-67240000D01*
G75*
G02*
X200475000Y-66990001I0J249999D01*
G01*
G37*
G36*
G01*
X198550000Y-66990001D02*
X198550000Y-66189999D01*
G75*
G02*
X198799999Y-65940000I249999J0D01*
G01*
X199625001Y-65940000D01*
G75*
G02*
X199875000Y-66189999I0J-249999D01*
G01*
X199875000Y-66990001D01*
G75*
G02*
X199625001Y-67240000I-249999J0D01*
G01*
X198799999Y-67240000D01*
G75*
G02*
X198550000Y-66990001I0J249999D01*
G01*
G37*
D11*
X212450000Y-67355000D03*
X210450000Y-67355000D03*
X210950000Y-67355000D03*
X211450000Y-67355000D03*
X211950000Y-67355000D03*
X212950000Y-67355000D03*
X213450000Y-67355000D03*
X213950000Y-67355000D03*
D12*
X208950000Y-67355000D03*
X209750000Y-67355000D03*
X214650000Y-67355000D03*
X215450000Y-67355000D03*
X215450000Y-67355000D03*
X214650000Y-67355000D03*
X209750000Y-67355000D03*
X208950000Y-67355000D03*
M02*
