G04 #@! TF.GenerationSoftware,KiCad,Pcbnew,(5.1.9)-1*
G04 #@! TF.CreationDate,2021-05-20T18:40:50+01:00*
G04 #@! TF.ProjectId,ENV_KB,454e565f-4b42-42e6-9b69-6361645f7063,Rev.1*
G04 #@! TF.SameCoordinates,Original*
G04 #@! TF.FileFunction,Paste,Top*
G04 #@! TF.FilePolarity,Positive*
%FSLAX46Y46*%
G04 Gerber Fmt 4.6, Leading zero omitted, Abs format (unit mm)*
G04 Created by KiCad (PCBNEW (5.1.9)-1) date 2021-05-20 18:40:50*
%MOMM*%
%LPD*%
G01*
G04 APERTURE LIST*
%ADD10R,1.550000X1.000000*%
%ADD11R,0.300000X1.450000*%
%ADD12R,0.600000X1.450000*%
G04 APERTURE END LIST*
D10*
X204100000Y-62310000D03*
X198850000Y-62310000D03*
X198850000Y-60610000D03*
X204100000Y-60610000D03*
G36*
G01*
X205500000Y-66830000D02*
X205870000Y-66830000D01*
G75*
G02*
X206005000Y-66965000I0J-135000D01*
G01*
X206005000Y-67235000D01*
G75*
G02*
X205870000Y-67370000I-135000J0D01*
G01*
X205500000Y-67370000D01*
G75*
G02*
X205365000Y-67235000I0J135000D01*
G01*
X205365000Y-66965000D01*
G75*
G02*
X205500000Y-66830000I135000J0D01*
G01*
G37*
G36*
G01*
X205500000Y-65810000D02*
X205870000Y-65810000D01*
G75*
G02*
X206005000Y-65945000I0J-135000D01*
G01*
X206005000Y-66215000D01*
G75*
G02*
X205870000Y-66350000I-135000J0D01*
G01*
X205500000Y-66350000D01*
G75*
G02*
X205365000Y-66215000I0J135000D01*
G01*
X205365000Y-65945000D01*
G75*
G02*
X205500000Y-65810000I135000J0D01*
G01*
G37*
G36*
G01*
X204140000Y-65810000D02*
X204510000Y-65810000D01*
G75*
G02*
X204645000Y-65945000I0J-135000D01*
G01*
X204645000Y-66215000D01*
G75*
G02*
X204510000Y-66350000I-135000J0D01*
G01*
X204140000Y-66350000D01*
G75*
G02*
X204005000Y-66215000I0J135000D01*
G01*
X204005000Y-65945000D01*
G75*
G02*
X204140000Y-65810000I135000J0D01*
G01*
G37*
G36*
G01*
X204140000Y-66830000D02*
X204510000Y-66830000D01*
G75*
G02*
X204645000Y-66965000I0J-135000D01*
G01*
X204645000Y-67235000D01*
G75*
G02*
X204510000Y-67370000I-135000J0D01*
G01*
X204140000Y-67370000D01*
G75*
G02*
X204005000Y-67235000I0J135000D01*
G01*
X204005000Y-66965000D01*
G75*
G02*
X204140000Y-66830000I135000J0D01*
G01*
G37*
G36*
G01*
X201674998Y-65165000D02*
X202575002Y-65165000D01*
G75*
G02*
X202825000Y-65414998I0J-249998D01*
G01*
X202825000Y-65940002D01*
G75*
G02*
X202575002Y-66190000I-249998J0D01*
G01*
X201674998Y-66190000D01*
G75*
G02*
X201425000Y-65940002I0J249998D01*
G01*
X201425000Y-65414998D01*
G75*
G02*
X201674998Y-65165000I249998J0D01*
G01*
G37*
G36*
G01*
X201674998Y-66990000D02*
X202575002Y-66990000D01*
G75*
G02*
X202825000Y-67239998I0J-249998D01*
G01*
X202825000Y-67765002D01*
G75*
G02*
X202575002Y-68015000I-249998J0D01*
G01*
X201674998Y-68015000D01*
G75*
G02*
X201425000Y-67765002I0J249998D01*
G01*
X201425000Y-67239998D01*
G75*
G02*
X201674998Y-66990000I249998J0D01*
G01*
G37*
G36*
G01*
X199104999Y-66890000D02*
X199905001Y-66890000D01*
G75*
G02*
X200155000Y-67139999I0J-249999D01*
G01*
X200155000Y-67965001D01*
G75*
G02*
X199905001Y-68215000I-249999J0D01*
G01*
X199104999Y-68215000D01*
G75*
G02*
X198855000Y-67965001I0J249999D01*
G01*
X198855000Y-67139999D01*
G75*
G02*
X199104999Y-66890000I249999J0D01*
G01*
G37*
G36*
G01*
X199104999Y-64965000D02*
X199905001Y-64965000D01*
G75*
G02*
X200155000Y-65214999I0J-249999D01*
G01*
X200155000Y-66040001D01*
G75*
G02*
X199905001Y-66290000I-249999J0D01*
G01*
X199104999Y-66290000D01*
G75*
G02*
X198855000Y-66040001I0J249999D01*
G01*
X198855000Y-65214999D01*
G75*
G02*
X199104999Y-64965000I249999J0D01*
G01*
G37*
D11*
X212450000Y-67355000D03*
X210450000Y-67355000D03*
X210950000Y-67355000D03*
X211450000Y-67355000D03*
X211950000Y-67355000D03*
X212950000Y-67355000D03*
X213450000Y-67355000D03*
X213950000Y-67355000D03*
D12*
X208950000Y-67355000D03*
X209750000Y-67355000D03*
X214650000Y-67355000D03*
X215450000Y-67355000D03*
X215450000Y-67355000D03*
X214650000Y-67355000D03*
X209750000Y-67355000D03*
X208950000Y-67355000D03*
M02*
