M48
; DRILL file {KiCad (5.1.9)-1} date 05/20/21 19:00:32
; FORMAT={-:-/ absolute / metric / decimal}
; #@! TF.CreationDate,2021-05-20T19:00:32+01:00
; #@! TF.GenerationSoftware,Kicad,Pcbnew,(5.1.9)-1
; #@! TF.FileFunction,NonPlated,1,2,NPTH
FMAT,2
METRIC
T1C0.650
T2C1.750
T3C3.048
T4C3.200
T5C3.988
%
G90
G05
T1
X209.31Y-65.91
X215.09Y-65.91
T2
X41.645Y-101.785
X41.645Y-130.36
X44.026Y-187.51
X44.026Y-206.56
X46.407Y-149.41
X48.789Y-168.46
X51.805Y-101.785
X51.805Y-130.36
X53.57Y-187.51
X54.186Y-187.51
X54.186Y-206.56
X56.567Y-149.41
X58.949Y-168.46
X60.695Y-130.36
X63.73Y-187.51
X65.457Y-187.51
X67.839Y-206.56
X70.22Y-149.41
X70.855Y-130.36
X74.983Y-168.46
X75.617Y-187.51
X77.999Y-206.56
X79.745Y-101.785
X79.745Y-130.36
X80.38Y-149.41
X84.507Y-187.51
X85.142Y-168.46
X89.27Y-149.41
X89.905Y-101.785
X89.905Y-130.36
X91.651Y-206.56
X94.032Y-168.46
X94.667Y-187.51
X98.795Y-101.785
X98.795Y-130.36
X99.43Y-149.41
X101.811Y-206.56
X103.557Y-187.51
X104.192Y-168.46
X108.32Y-149.41
X108.955Y-101.785
X108.955Y-130.36
X113.082Y-168.46
X113.718Y-187.51
X117.845Y-101.785
X117.845Y-130.36
X118.48Y-149.41
X122.607Y-187.51
X123.242Y-168.46
X127.37Y-149.41
X128.005Y-101.785
X128.005Y-130.36
X132.132Y-168.46
X132.767Y-187.51
X136.895Y-101.785
X136.895Y-130.36
X137.53Y-149.41
X141.657Y-187.51
X142.292Y-168.46
X146.42Y-149.41
X147.055Y-101.785
X147.055Y-130.36
X151.183Y-168.46
X151.817Y-187.51
X155.945Y-130.36
X156.58Y-149.41
X160.707Y-187.51
X161.343Y-168.46
X163.089Y-206.56
X165.47Y-101.785
X165.47Y-149.41
X166.105Y-130.36
X170.232Y-168.46
X170.867Y-187.51
X173.249Y-206.56
X174.995Y-130.36
X175.63Y-101.785
X175.63Y-149.41
X179.757Y-187.51
X180.392Y-168.46
X184.52Y-101.785
X184.52Y-149.41
X185.155Y-130.36
X189.282Y-168.46
X189.917Y-187.51
X194.045Y-130.36
X194.68Y-101.785
X194.68Y-149.41
X198.808Y-187.51
X199.442Y-168.46
X203.57Y-101.785
X203.57Y-149.41
X204.205Y-130.36
X208.332Y-168.46
X208.968Y-187.51
X213.095Y-130.36
X213.73Y-101.785
X213.73Y-149.41
X217.857Y-187.51
X218.492Y-168.46
X222.62Y-101.785
X222.62Y-149.41
X223.255Y-130.36
X227.382Y-168.46
X228.017Y-187.51
X232.145Y-130.36
X232.78Y-101.785
X232.78Y-149.41
X234.526Y-206.56
X236.907Y-187.51
X237.542Y-168.46
X241.67Y-149.41
X242.305Y-130.36
X244.686Y-206.56
X246.432Y-168.46
X247.067Y-187.51
X251.195Y-101.785
X251.195Y-130.36
X251.83Y-149.41
X255.957Y-187.51
X256.592Y-168.46
X258.339Y-206.56
X260.72Y-149.41
X261.355Y-101.785
X261.355Y-130.36
X265.483Y-168.46
X266.118Y-187.51
X268.499Y-206.56
X270.245Y-101.785
X270.245Y-130.36
X270.88Y-149.41
X275.642Y-168.46
X279.77Y-149.41
X280.405Y-101.785
X280.405Y-130.36
X282.151Y-206.56
X284.532Y-168.46
X289.295Y-101.785
X289.93Y-149.41
X291.676Y-187.51
X292.311Y-206.56
X294.692Y-168.46
X296.42Y-168.43
X298.82Y-130.36
X299.455Y-101.785
X301.836Y-187.51
X303.57Y-149.385
X305.964Y-206.56
X306.58Y-168.43
X308.345Y-101.785
X308.98Y-130.36
X311.025Y-153.855
X311.025Y-164.015
X313.73Y-149.385
X316.124Y-206.56
X318.505Y-101.785
X332.157Y-101.785
X332.157Y-130.36
X332.157Y-149.41
X332.157Y-206.56
X342.317Y-101.785
X342.317Y-130.36
X342.317Y-149.41
X342.317Y-206.56
X351.207Y-101.785
X351.207Y-130.36
X351.207Y-149.41
X351.207Y-187.51
X351.207Y-206.56
X361.368Y-101.785
X361.368Y-130.36
X361.368Y-149.41
X361.368Y-187.51
X361.368Y-206.56
X370.257Y-101.785
X370.257Y-130.36
X370.257Y-149.41
X370.257Y-206.56
X380.417Y-101.785
X380.417Y-130.36
X380.417Y-149.41
X380.417Y-206.56
T3
X46.744Y-180.525
X70.556Y-180.525
X118.169Y-213.545
X218.169Y-213.545
X284.85Y-180.525
X289.594Y-161.445
X291.994Y-123.375
X308.662Y-180.525
X313.406Y-161.445
X315.806Y-123.375
X318.01Y-146.997
X318.01Y-170.873
T4
X38.525Y-212.51
X39.7Y-64.66
X48.1Y-116.06
X182.463Y-64.16
X207.337Y-211.41
X212.2Y-116.085
X376.3Y-116.06
X384.7Y-64.66
X385.925Y-212.56
T5
X46.725Y-101.785
X46.725Y-130.36
X46.744Y-195.765
X49.106Y-187.51
X49.106Y-206.56
X51.487Y-149.41
X53.869Y-168.46
X58.65Y-187.51
X65.775Y-130.36
X70.537Y-187.51
X70.556Y-195.765
X72.919Y-206.56
X75.3Y-149.41
X80.062Y-168.46
X84.825Y-101.785
X84.825Y-130.36
X89.587Y-187.51
X94.35Y-149.41
X96.731Y-206.56
X99.112Y-168.46
X103.875Y-101.785
X103.875Y-130.36
X108.637Y-187.51
X113.4Y-149.41
X118.162Y-168.46
X118.169Y-198.305
X122.925Y-101.785
X122.925Y-130.36
X127.688Y-187.51
X132.45Y-149.41
X137.213Y-168.46
X141.975Y-101.785
X141.975Y-130.36
X146.737Y-187.51
X151.5Y-149.41
X156.262Y-168.46
X161.025Y-130.36
X165.787Y-187.51
X168.169Y-206.56
X170.55Y-101.785
X170.55Y-149.41
X175.312Y-168.46
X180.075Y-130.36
X184.838Y-187.51
X189.6Y-101.785
X189.6Y-149.41
X194.362Y-168.46
X199.125Y-130.36
X203.887Y-187.51
X208.65Y-101.785
X208.65Y-149.41
X213.412Y-168.46
X218.169Y-198.305
X218.175Y-130.36
X222.938Y-187.51
X227.7Y-101.785
X227.7Y-149.41
X232.462Y-168.46
X237.225Y-130.36
X239.606Y-206.56
X241.987Y-187.51
X246.75Y-149.41
X251.512Y-168.46
X256.275Y-101.785
X256.275Y-130.36
X261.037Y-187.51
X263.419Y-206.56
X265.8Y-149.41
X270.562Y-168.46
X275.325Y-101.785
X275.325Y-130.36
X284.85Y-149.41
X284.85Y-195.765
X287.231Y-206.56
X289.594Y-176.685
X289.613Y-168.46
X291.994Y-138.615
X294.375Y-101.785
X296.756Y-187.51
X301.5Y-168.43
X302.77Y-146.997
X302.77Y-170.873
X303.9Y-130.36
X308.65Y-149.385
X308.662Y-195.765
X311.025Y-158.935
X311.044Y-206.56
X313.406Y-176.685
X313.425Y-101.785
X315.806Y-138.615
X337.238Y-101.785
X337.238Y-130.36
X337.238Y-149.41
X337.238Y-206.56
X356.287Y-101.785
X356.287Y-130.36
X356.287Y-149.41
X356.287Y-187.51
X356.287Y-206.56
X375.337Y-101.785
X375.337Y-130.36
X375.337Y-149.41
X375.337Y-206.56
T0
M30
