%FSLAX45Y45*%
G04 Gerber Fmt 4.5, Leading zero omitted, Abs format (unit mm)*
G04 Created by KiCad (PCBNEW (5.1.9)-1) date 2021-05-20 19:00:32*
%MOMM*%
%LPD*%
G01*
G04 APERTURE LIST*
%TA.AperFunction,Profile*%
%ADD10C,0.100000*%
%TD*%
%ADD11C,0.200000*%
%ADD12C,0.300000*%
G04 APERTURE END LIST*
D10*
X38650000Y-5966000D02*
G75*
G02*
X38950000Y-6266000I0J-300000D01*
G01*
X3490000Y-6266000D02*
G75*
G02*
X3790000Y-5966000I300000J0D01*
G01*
X3790000Y-21616000D02*
G75*
G02*
X3490000Y-21316000I0J300000D01*
G01*
X38950000Y-21316000D02*
G75*
G02*
X38650000Y-21616000I-300000J0D01*
G01*
X38950000Y-6266000D02*
X38950000Y-21316000D01*
X3790000Y-5966000D02*
X38650000Y-5966000D01*
X3490000Y-21316000D02*
X3490000Y-6266000D01*
X38650000Y-21616000D02*
X3790000Y-21616000D01*
D11*
X20898500Y-6558500D02*
X20963500Y-6623500D01*
X20963500Y-6558500D02*
X20898500Y-6623500D01*
X21476500Y-6558500D02*
X21541500Y-6623500D01*
X21541500Y-6558500D02*
X21476500Y-6623500D01*
X4252000Y-10178500D02*
G75*
G03*
X4252000Y-10178500I-87500J0D01*
G01*
X4252000Y-13036000D02*
G75*
G03*
X4252000Y-13036000I-87500J0D01*
G01*
X4490125Y-18751000D02*
G75*
G03*
X4490125Y-18751000I-87500J0D01*
G01*
X4490125Y-20656000D02*
G75*
G03*
X4490125Y-20656000I-87500J0D01*
G01*
X4728250Y-14941000D02*
G75*
G03*
X4728250Y-14941000I-87500J0D01*
G01*
X4966375Y-16846000D02*
G75*
G03*
X4966375Y-16846000I-87500J0D01*
G01*
X5268000Y-10178500D02*
G75*
G03*
X5268000Y-10178500I-87500J0D01*
G01*
X5268000Y-13036000D02*
G75*
G03*
X5268000Y-13036000I-87500J0D01*
G01*
X5444500Y-18751000D02*
G75*
G03*
X5444500Y-18751000I-87500J0D01*
G01*
X5506125Y-18751000D02*
G75*
G03*
X5506125Y-18751000I-87500J0D01*
G01*
X5506125Y-20656000D02*
G75*
G03*
X5506125Y-20656000I-87500J0D01*
G01*
X5744250Y-14941000D02*
G75*
G03*
X5744250Y-14941000I-87500J0D01*
G01*
X5982375Y-16846000D02*
G75*
G03*
X5982375Y-16846000I-87500J0D01*
G01*
X6157000Y-13036000D02*
G75*
G03*
X6157000Y-13036000I-87500J0D01*
G01*
X6460500Y-18751000D02*
G75*
G03*
X6460500Y-18751000I-87500J0D01*
G01*
X6633250Y-18751000D02*
G75*
G03*
X6633250Y-18751000I-87500J0D01*
G01*
X6871375Y-20656000D02*
G75*
G03*
X6871375Y-20656000I-87500J0D01*
G01*
X7109500Y-14941000D02*
G75*
G03*
X7109500Y-14941000I-87500J0D01*
G01*
X7173000Y-13036000D02*
G75*
G03*
X7173000Y-13036000I-87500J0D01*
G01*
X7585750Y-16846000D02*
G75*
G03*
X7585750Y-16846000I-87500J0D01*
G01*
X7649250Y-18751000D02*
G75*
G03*
X7649250Y-18751000I-87500J0D01*
G01*
X7887375Y-20656000D02*
G75*
G03*
X7887375Y-20656000I-87500J0D01*
G01*
X8062000Y-10178500D02*
G75*
G03*
X8062000Y-10178500I-87500J0D01*
G01*
X8062000Y-13036000D02*
G75*
G03*
X8062000Y-13036000I-87500J0D01*
G01*
X8125500Y-14941000D02*
G75*
G03*
X8125500Y-14941000I-87500J0D01*
G01*
X8538250Y-18751000D02*
G75*
G03*
X8538250Y-18751000I-87500J0D01*
G01*
X8601750Y-16846000D02*
G75*
G03*
X8601750Y-16846000I-87500J0D01*
G01*
X9014500Y-14941000D02*
G75*
G03*
X9014500Y-14941000I-87500J0D01*
G01*
X9078000Y-10178500D02*
G75*
G03*
X9078000Y-10178500I-87500J0D01*
G01*
X9078000Y-13036000D02*
G75*
G03*
X9078000Y-13036000I-87500J0D01*
G01*
X9252625Y-20656000D02*
G75*
G03*
X9252625Y-20656000I-87500J0D01*
G01*
X9490750Y-16846000D02*
G75*
G03*
X9490750Y-16846000I-87500J0D01*
G01*
X9554250Y-18751000D02*
G75*
G03*
X9554250Y-18751000I-87500J0D01*
G01*
X9967000Y-10178500D02*
G75*
G03*
X9967000Y-10178500I-87500J0D01*
G01*
X9967000Y-13036000D02*
G75*
G03*
X9967000Y-13036000I-87500J0D01*
G01*
X10030500Y-14941000D02*
G75*
G03*
X10030500Y-14941000I-87500J0D01*
G01*
X10268625Y-20656000D02*
G75*
G03*
X10268625Y-20656000I-87500J0D01*
G01*
X10443250Y-18751000D02*
G75*
G03*
X10443250Y-18751000I-87500J0D01*
G01*
X10506750Y-16846000D02*
G75*
G03*
X10506750Y-16846000I-87500J0D01*
G01*
X10919500Y-14941000D02*
G75*
G03*
X10919500Y-14941000I-87500J0D01*
G01*
X10983000Y-10178500D02*
G75*
G03*
X10983000Y-10178500I-87500J0D01*
G01*
X10983000Y-13036000D02*
G75*
G03*
X10983000Y-13036000I-87500J0D01*
G01*
X11395750Y-16846000D02*
G75*
G03*
X11395750Y-16846000I-87500J0D01*
G01*
X11459250Y-18751000D02*
G75*
G03*
X11459250Y-18751000I-87500J0D01*
G01*
X11872000Y-10178500D02*
G75*
G03*
X11872000Y-10178500I-87500J0D01*
G01*
X11872000Y-13036000D02*
G75*
G03*
X11872000Y-13036000I-87500J0D01*
G01*
X11935500Y-14941000D02*
G75*
G03*
X11935500Y-14941000I-87500J0D01*
G01*
X12348250Y-18751000D02*
G75*
G03*
X12348250Y-18751000I-87500J0D01*
G01*
X12411750Y-16846000D02*
G75*
G03*
X12411750Y-16846000I-87500J0D01*
G01*
X12824500Y-14941000D02*
G75*
G03*
X12824500Y-14941000I-87500J0D01*
G01*
X12888000Y-10178500D02*
G75*
G03*
X12888000Y-10178500I-87500J0D01*
G01*
X12888000Y-13036000D02*
G75*
G03*
X12888000Y-13036000I-87500J0D01*
G01*
X13300750Y-16846000D02*
G75*
G03*
X13300750Y-16846000I-87500J0D01*
G01*
X13364250Y-18751000D02*
G75*
G03*
X13364250Y-18751000I-87500J0D01*
G01*
X13777000Y-10178500D02*
G75*
G03*
X13777000Y-10178500I-87500J0D01*
G01*
X13777000Y-13036000D02*
G75*
G03*
X13777000Y-13036000I-87500J0D01*
G01*
X13840500Y-14941000D02*
G75*
G03*
X13840500Y-14941000I-87500J0D01*
G01*
X14253250Y-18751000D02*
G75*
G03*
X14253250Y-18751000I-87500J0D01*
G01*
X14316750Y-16846000D02*
G75*
G03*
X14316750Y-16846000I-87500J0D01*
G01*
X14729500Y-14941000D02*
G75*
G03*
X14729500Y-14941000I-87500J0D01*
G01*
X14793000Y-10178500D02*
G75*
G03*
X14793000Y-10178500I-87500J0D01*
G01*
X14793000Y-13036000D02*
G75*
G03*
X14793000Y-13036000I-87500J0D01*
G01*
X15205750Y-16846000D02*
G75*
G03*
X15205750Y-16846000I-87500J0D01*
G01*
X15269250Y-18751000D02*
G75*
G03*
X15269250Y-18751000I-87500J0D01*
G01*
X15682000Y-13036000D02*
G75*
G03*
X15682000Y-13036000I-87500J0D01*
G01*
X15745500Y-14941000D02*
G75*
G03*
X15745500Y-14941000I-87500J0D01*
G01*
X16158250Y-18751000D02*
G75*
G03*
X16158250Y-18751000I-87500J0D01*
G01*
X16221750Y-16846000D02*
G75*
G03*
X16221750Y-16846000I-87500J0D01*
G01*
X16396375Y-20656000D02*
G75*
G03*
X16396375Y-20656000I-87500J0D01*
G01*
X16634500Y-10178500D02*
G75*
G03*
X16634500Y-10178500I-87500J0D01*
G01*
X16634500Y-14941000D02*
G75*
G03*
X16634500Y-14941000I-87500J0D01*
G01*
X16698000Y-13036000D02*
G75*
G03*
X16698000Y-13036000I-87500J0D01*
G01*
X17110750Y-16846000D02*
G75*
G03*
X17110750Y-16846000I-87500J0D01*
G01*
X17174250Y-18751000D02*
G75*
G03*
X17174250Y-18751000I-87500J0D01*
G01*
X17412375Y-20656000D02*
G75*
G03*
X17412375Y-20656000I-87500J0D01*
G01*
X17587000Y-13036000D02*
G75*
G03*
X17587000Y-13036000I-87500J0D01*
G01*
X17650500Y-10178500D02*
G75*
G03*
X17650500Y-10178500I-87500J0D01*
G01*
X17650500Y-14941000D02*
G75*
G03*
X17650500Y-14941000I-87500J0D01*
G01*
X18063250Y-18751000D02*
G75*
G03*
X18063250Y-18751000I-87500J0D01*
G01*
X18126750Y-16846000D02*
G75*
G03*
X18126750Y-16846000I-87500J0D01*
G01*
X18539500Y-10178500D02*
G75*
G03*
X18539500Y-10178500I-87500J0D01*
G01*
X18539500Y-14941000D02*
G75*
G03*
X18539500Y-14941000I-87500J0D01*
G01*
X18603000Y-13036000D02*
G75*
G03*
X18603000Y-13036000I-87500J0D01*
G01*
X19015750Y-16846000D02*
G75*
G03*
X19015750Y-16846000I-87500J0D01*
G01*
X19079250Y-18751000D02*
G75*
G03*
X19079250Y-18751000I-87500J0D01*
G01*
X19492000Y-13036000D02*
G75*
G03*
X19492000Y-13036000I-87500J0D01*
G01*
X19555500Y-10178500D02*
G75*
G03*
X19555500Y-10178500I-87500J0D01*
G01*
X19555500Y-14941000D02*
G75*
G03*
X19555500Y-14941000I-87500J0D01*
G01*
X19968250Y-18751000D02*
G75*
G03*
X19968250Y-18751000I-87500J0D01*
G01*
X20031750Y-16846000D02*
G75*
G03*
X20031750Y-16846000I-87500J0D01*
G01*
X20444500Y-10178500D02*
G75*
G03*
X20444500Y-10178500I-87500J0D01*
G01*
X20444500Y-14941000D02*
G75*
G03*
X20444500Y-14941000I-87500J0D01*
G01*
X20508000Y-13036000D02*
G75*
G03*
X20508000Y-13036000I-87500J0D01*
G01*
X20920750Y-16846000D02*
G75*
G03*
X20920750Y-16846000I-87500J0D01*
G01*
X20984250Y-18751000D02*
G75*
G03*
X20984250Y-18751000I-87500J0D01*
G01*
X21397000Y-13036000D02*
G75*
G03*
X21397000Y-13036000I-87500J0D01*
G01*
X21460500Y-10178500D02*
G75*
G03*
X21460500Y-10178500I-87500J0D01*
G01*
X21460500Y-14941000D02*
G75*
G03*
X21460500Y-14941000I-87500J0D01*
G01*
X21873250Y-18751000D02*
G75*
G03*
X21873250Y-18751000I-87500J0D01*
G01*
X21936750Y-16846000D02*
G75*
G03*
X21936750Y-16846000I-87500J0D01*
G01*
X22349500Y-10178500D02*
G75*
G03*
X22349500Y-10178500I-87500J0D01*
G01*
X22349500Y-14941000D02*
G75*
G03*
X22349500Y-14941000I-87500J0D01*
G01*
X22413000Y-13036000D02*
G75*
G03*
X22413000Y-13036000I-87500J0D01*
G01*
X22825750Y-16846000D02*
G75*
G03*
X22825750Y-16846000I-87500J0D01*
G01*
X22889250Y-18751000D02*
G75*
G03*
X22889250Y-18751000I-87500J0D01*
G01*
X23302000Y-13036000D02*
G75*
G03*
X23302000Y-13036000I-87500J0D01*
G01*
X23365500Y-10178500D02*
G75*
G03*
X23365500Y-10178500I-87500J0D01*
G01*
X23365500Y-14941000D02*
G75*
G03*
X23365500Y-14941000I-87500J0D01*
G01*
X23540125Y-20656000D02*
G75*
G03*
X23540125Y-20656000I-87500J0D01*
G01*
X23778250Y-18751000D02*
G75*
G03*
X23778250Y-18751000I-87500J0D01*
G01*
X23841750Y-16846000D02*
G75*
G03*
X23841750Y-16846000I-87500J0D01*
G01*
X24254500Y-14941000D02*
G75*
G03*
X24254500Y-14941000I-87500J0D01*
G01*
X24318000Y-13036000D02*
G75*
G03*
X24318000Y-13036000I-87500J0D01*
G01*
X24556125Y-20656000D02*
G75*
G03*
X24556125Y-20656000I-87500J0D01*
G01*
X24730750Y-16846000D02*
G75*
G03*
X24730750Y-16846000I-87500J0D01*
G01*
X24794250Y-18751000D02*
G75*
G03*
X24794250Y-18751000I-87500J0D01*
G01*
X25207000Y-10178500D02*
G75*
G03*
X25207000Y-10178500I-87500J0D01*
G01*
X25207000Y-13036000D02*
G75*
G03*
X25207000Y-13036000I-87500J0D01*
G01*
X25270500Y-14941000D02*
G75*
G03*
X25270500Y-14941000I-87500J0D01*
G01*
X25683250Y-18751000D02*
G75*
G03*
X25683250Y-18751000I-87500J0D01*
G01*
X25746750Y-16846000D02*
G75*
G03*
X25746750Y-16846000I-87500J0D01*
G01*
X25921375Y-20656000D02*
G75*
G03*
X25921375Y-20656000I-87500J0D01*
G01*
X26159500Y-14941000D02*
G75*
G03*
X26159500Y-14941000I-87500J0D01*
G01*
X26223000Y-10178500D02*
G75*
G03*
X26223000Y-10178500I-87500J0D01*
G01*
X26223000Y-13036000D02*
G75*
G03*
X26223000Y-13036000I-87500J0D01*
G01*
X26635750Y-16846000D02*
G75*
G03*
X26635750Y-16846000I-87500J0D01*
G01*
X26699250Y-18751000D02*
G75*
G03*
X26699250Y-18751000I-87500J0D01*
G01*
X26937375Y-20656000D02*
G75*
G03*
X26937375Y-20656000I-87500J0D01*
G01*
X27112000Y-10178500D02*
G75*
G03*
X27112000Y-10178500I-87500J0D01*
G01*
X27112000Y-13036000D02*
G75*
G03*
X27112000Y-13036000I-87500J0D01*
G01*
X27175500Y-14941000D02*
G75*
G03*
X27175500Y-14941000I-87500J0D01*
G01*
X27651750Y-16846000D02*
G75*
G03*
X27651750Y-16846000I-87500J0D01*
G01*
X28064500Y-14941000D02*
G75*
G03*
X28064500Y-14941000I-87500J0D01*
G01*
X28128000Y-10178500D02*
G75*
G03*
X28128000Y-10178500I-87500J0D01*
G01*
X28128000Y-13036000D02*
G75*
G03*
X28128000Y-13036000I-87500J0D01*
G01*
X28302625Y-20656000D02*
G75*
G03*
X28302625Y-20656000I-87500J0D01*
G01*
X28540750Y-16846000D02*
G75*
G03*
X28540750Y-16846000I-87500J0D01*
G01*
X29017000Y-10178500D02*
G75*
G03*
X29017000Y-10178500I-87500J0D01*
G01*
X29080500Y-14941000D02*
G75*
G03*
X29080500Y-14941000I-87500J0D01*
G01*
X29255125Y-18751000D02*
G75*
G03*
X29255125Y-18751000I-87500J0D01*
G01*
X29318625Y-20656000D02*
G75*
G03*
X29318625Y-20656000I-87500J0D01*
G01*
X29556750Y-16846000D02*
G75*
G03*
X29556750Y-16846000I-87500J0D01*
G01*
X29729500Y-16843000D02*
G75*
G03*
X29729500Y-16843000I-87500J0D01*
G01*
X29969500Y-13036000D02*
G75*
G03*
X29969500Y-13036000I-87500J0D01*
G01*
X30033000Y-10178500D02*
G75*
G03*
X30033000Y-10178500I-87500J0D01*
G01*
X30271125Y-18751000D02*
G75*
G03*
X30271125Y-18751000I-87500J0D01*
G01*
X30444500Y-14938500D02*
G75*
G03*
X30444500Y-14938500I-87500J0D01*
G01*
X30683875Y-20656000D02*
G75*
G03*
X30683875Y-20656000I-87500J0D01*
G01*
X30745500Y-16843000D02*
G75*
G03*
X30745500Y-16843000I-87500J0D01*
G01*
X30922000Y-10178500D02*
G75*
G03*
X30922000Y-10178500I-87500J0D01*
G01*
X30985500Y-13036000D02*
G75*
G03*
X30985500Y-13036000I-87500J0D01*
G01*
X31190000Y-15385500D02*
G75*
G03*
X31190000Y-15385500I-87500J0D01*
G01*
X31190000Y-16401500D02*
G75*
G03*
X31190000Y-16401500I-87500J0D01*
G01*
X31460500Y-14938500D02*
G75*
G03*
X31460500Y-14938500I-87500J0D01*
G01*
X31699875Y-20656000D02*
G75*
G03*
X31699875Y-20656000I-87500J0D01*
G01*
X31938000Y-10178500D02*
G75*
G03*
X31938000Y-10178500I-87500J0D01*
G01*
X33303250Y-10178500D02*
G75*
G03*
X33303250Y-10178500I-87500J0D01*
G01*
X33303250Y-13036000D02*
G75*
G03*
X33303250Y-13036000I-87500J0D01*
G01*
X33303250Y-14941000D02*
G75*
G03*
X33303250Y-14941000I-87500J0D01*
G01*
X33303250Y-20656000D02*
G75*
G03*
X33303250Y-20656000I-87500J0D01*
G01*
X34319250Y-10178500D02*
G75*
G03*
X34319250Y-10178500I-87500J0D01*
G01*
X34319250Y-13036000D02*
G75*
G03*
X34319250Y-13036000I-87500J0D01*
G01*
X34319250Y-14941000D02*
G75*
G03*
X34319250Y-14941000I-87500J0D01*
G01*
X34319250Y-20656000D02*
G75*
G03*
X34319250Y-20656000I-87500J0D01*
G01*
X35208250Y-10178500D02*
G75*
G03*
X35208250Y-10178500I-87500J0D01*
G01*
X35208250Y-13036000D02*
G75*
G03*
X35208250Y-13036000I-87500J0D01*
G01*
X35208250Y-14941000D02*
G75*
G03*
X35208250Y-14941000I-87500J0D01*
G01*
X35208250Y-18751000D02*
G75*
G03*
X35208250Y-18751000I-87500J0D01*
G01*
X35208250Y-20656000D02*
G75*
G03*
X35208250Y-20656000I-87500J0D01*
G01*
X36224250Y-10178500D02*
G75*
G03*
X36224250Y-10178500I-87500J0D01*
G01*
X36224250Y-13036000D02*
G75*
G03*
X36224250Y-13036000I-87500J0D01*
G01*
X36224250Y-14941000D02*
G75*
G03*
X36224250Y-14941000I-87500J0D01*
G01*
X36224250Y-18751000D02*
G75*
G03*
X36224250Y-18751000I-87500J0D01*
G01*
X36224250Y-20656000D02*
G75*
G03*
X36224250Y-20656000I-87500J0D01*
G01*
X37113250Y-10178500D02*
G75*
G03*
X37113250Y-10178500I-87500J0D01*
G01*
X37113250Y-13036000D02*
G75*
G03*
X37113250Y-13036000I-87500J0D01*
G01*
X37113250Y-14941000D02*
G75*
G03*
X37113250Y-14941000I-87500J0D01*
G01*
X37113250Y-20656000D02*
G75*
G03*
X37113250Y-20656000I-87500J0D01*
G01*
X38129250Y-10178500D02*
G75*
G03*
X38129250Y-10178500I-87500J0D01*
G01*
X38129250Y-13036000D02*
G75*
G03*
X38129250Y-13036000I-87500J0D01*
G01*
X38129250Y-14941000D02*
G75*
G03*
X38129250Y-14941000I-87500J0D01*
G01*
X38129250Y-20656000D02*
G75*
G03*
X38129250Y-20656000I-87500J0D01*
G01*
X4674375Y-17900100D02*
X4674375Y-18204900D01*
X4521975Y-18052500D02*
X4826775Y-18052500D01*
X7055625Y-17900100D02*
X7055625Y-18204900D01*
X6903225Y-18052500D02*
X7208025Y-18052500D01*
X11816885Y-21202100D02*
X11816885Y-21506900D01*
X11664485Y-21354500D02*
X11969285Y-21354500D01*
X21816865Y-21202100D02*
X21816865Y-21506900D01*
X21664465Y-21354500D02*
X21969265Y-21354500D01*
X28485000Y-17900100D02*
X28485000Y-18204900D01*
X28332600Y-18052500D02*
X28637400Y-18052500D01*
X28959375Y-15992100D02*
X28959375Y-16296900D01*
X28806975Y-16144500D02*
X29111775Y-16144500D01*
X29199375Y-12185100D02*
X29199375Y-12489900D01*
X29046975Y-12337500D02*
X29351775Y-12337500D01*
X30866250Y-17900100D02*
X30866250Y-18204900D01*
X30713850Y-18052500D02*
X31018650Y-18052500D01*
X31340625Y-15992100D02*
X31340625Y-16296900D01*
X31188225Y-16144500D02*
X31493025Y-16144500D01*
X31580625Y-12185100D02*
X31580625Y-12489900D01*
X31428225Y-12337500D02*
X31733025Y-12337500D01*
X31801000Y-14547300D02*
X31801000Y-14852100D01*
X31648600Y-14699700D02*
X31953400Y-14699700D01*
X31801000Y-16934900D02*
X31801000Y-17239700D01*
X31648600Y-17087300D02*
X31953400Y-17087300D01*
X3965638Y-21364138D02*
X3965638Y-21137862D01*
X3739362Y-21137862D01*
X3739362Y-21364138D01*
X3965638Y-21364138D01*
X4083138Y-6579138D02*
X4083138Y-6352862D01*
X3856862Y-6352862D01*
X3856862Y-6579138D01*
X4083138Y-6579138D01*
X4923138Y-11719138D02*
X4923138Y-11492862D01*
X4696862Y-11492862D01*
X4696862Y-11719138D01*
X4923138Y-11719138D01*
X18359388Y-6529138D02*
X18359388Y-6302862D01*
X18133112Y-6302862D01*
X18133112Y-6529138D01*
X18359388Y-6529138D01*
X20846888Y-21254138D02*
X20846888Y-21027862D01*
X20620612Y-21027862D01*
X20620612Y-21254138D01*
X20846888Y-21254138D01*
X21333138Y-11721638D02*
X21333138Y-11495362D01*
X21106862Y-11495362D01*
X21106862Y-11721638D01*
X21333138Y-11721638D01*
X37743138Y-11719138D02*
X37743138Y-11492862D01*
X37516862Y-11492862D01*
X37516862Y-11719138D01*
X37743138Y-11719138D01*
X38583138Y-6579138D02*
X38583138Y-6352862D01*
X38356862Y-6352862D01*
X38356862Y-6579138D01*
X38583138Y-6579138D01*
X38705638Y-21369138D02*
X38705638Y-21142862D01*
X38479362Y-21142862D01*
X38479362Y-21369138D01*
X38705638Y-21369138D01*
X4672500Y-10377890D02*
X4871890Y-10178500D01*
X4672500Y-9979110D01*
X4473110Y-10178500D01*
X4672500Y-10377890D01*
X4672500Y-13235390D02*
X4871890Y-13036000D01*
X4672500Y-12836610D01*
X4473110Y-13036000D01*
X4672500Y-13235390D01*
X4674375Y-19775890D02*
X4873765Y-19576500D01*
X4674375Y-19377110D01*
X4474985Y-19576500D01*
X4674375Y-19775890D01*
X4910625Y-18950390D02*
X5110015Y-18751000D01*
X4910625Y-18551610D01*
X4711235Y-18751000D01*
X4910625Y-18950390D01*
X4910625Y-20855390D02*
X5110015Y-20656000D01*
X4910625Y-20456610D01*
X4711235Y-20656000D01*
X4910625Y-20855390D01*
X5148750Y-15140390D02*
X5348140Y-14941000D01*
X5148750Y-14741610D01*
X4949360Y-14941000D01*
X5148750Y-15140390D01*
X5386875Y-17045390D02*
X5586265Y-16846000D01*
X5386875Y-16646610D01*
X5187485Y-16846000D01*
X5386875Y-17045390D01*
X5865000Y-18950390D02*
X6064390Y-18751000D01*
X5865000Y-18551610D01*
X5665610Y-18751000D01*
X5865000Y-18950390D01*
X6577500Y-13235390D02*
X6776890Y-13036000D01*
X6577500Y-12836610D01*
X6378110Y-13036000D01*
X6577500Y-13235390D01*
X7053750Y-18950390D02*
X7253140Y-18751000D01*
X7053750Y-18551610D01*
X6854360Y-18751000D01*
X7053750Y-18950390D01*
X7055625Y-19775890D02*
X7255015Y-19576500D01*
X7055625Y-19377110D01*
X6856235Y-19576500D01*
X7055625Y-19775890D01*
X7291875Y-20855390D02*
X7491265Y-20656000D01*
X7291875Y-20456610D01*
X7092485Y-20656000D01*
X7291875Y-20855390D01*
X7530000Y-15140390D02*
X7729390Y-14941000D01*
X7530000Y-14741610D01*
X7330610Y-14941000D01*
X7530000Y-15140390D01*
X8006250Y-17045390D02*
X8205640Y-16846000D01*
X8006250Y-16646610D01*
X7806860Y-16846000D01*
X8006250Y-17045390D01*
X8482500Y-10377890D02*
X8681890Y-10178500D01*
X8482500Y-9979110D01*
X8283110Y-10178500D01*
X8482500Y-10377890D01*
X8482500Y-13235390D02*
X8681890Y-13036000D01*
X8482500Y-12836610D01*
X8283110Y-13036000D01*
X8482500Y-13235390D01*
X8958750Y-18950390D02*
X9158140Y-18751000D01*
X8958750Y-18551610D01*
X8759360Y-18751000D01*
X8958750Y-18950390D01*
X9435000Y-15140390D02*
X9634390Y-14941000D01*
X9435000Y-14741610D01*
X9235610Y-14941000D01*
X9435000Y-15140390D01*
X9673125Y-20855390D02*
X9872515Y-20656000D01*
X9673125Y-20456610D01*
X9473735Y-20656000D01*
X9673125Y-20855390D01*
X9911250Y-17045390D02*
X10110640Y-16846000D01*
X9911250Y-16646610D01*
X9711860Y-16846000D01*
X9911250Y-17045390D01*
X10387500Y-10377890D02*
X10586890Y-10178500D01*
X10387500Y-9979110D01*
X10188110Y-10178500D01*
X10387500Y-10377890D01*
X10387500Y-13235390D02*
X10586890Y-13036000D01*
X10387500Y-12836610D01*
X10188110Y-13036000D01*
X10387500Y-13235390D01*
X10863750Y-18950390D02*
X11063140Y-18751000D01*
X10863750Y-18551610D01*
X10664360Y-18751000D01*
X10863750Y-18950390D01*
X11340000Y-15140390D02*
X11539390Y-14941000D01*
X11340000Y-14741610D01*
X11140610Y-14941000D01*
X11340000Y-15140390D01*
X11816250Y-17045390D02*
X12015640Y-16846000D01*
X11816250Y-16646610D01*
X11616860Y-16846000D01*
X11816250Y-17045390D01*
X11816885Y-20029890D02*
X12016275Y-19830500D01*
X11816885Y-19631110D01*
X11617495Y-19830500D01*
X11816885Y-20029890D01*
X12292500Y-10377890D02*
X12491890Y-10178500D01*
X12292500Y-9979110D01*
X12093110Y-10178500D01*
X12292500Y-10377890D01*
X12292500Y-13235390D02*
X12491890Y-13036000D01*
X12292500Y-12836610D01*
X12093110Y-13036000D01*
X12292500Y-13235390D01*
X12768750Y-18950390D02*
X12968140Y-18751000D01*
X12768750Y-18551610D01*
X12569360Y-18751000D01*
X12768750Y-18950390D01*
X13245000Y-15140390D02*
X13444390Y-14941000D01*
X13245000Y-14741610D01*
X13045610Y-14941000D01*
X13245000Y-15140390D01*
X13721250Y-17045390D02*
X13920640Y-16846000D01*
X13721250Y-16646610D01*
X13521860Y-16846000D01*
X13721250Y-17045390D01*
X14197500Y-10377890D02*
X14396890Y-10178500D01*
X14197500Y-9979110D01*
X13998110Y-10178500D01*
X14197500Y-10377890D01*
X14197500Y-13235390D02*
X14396890Y-13036000D01*
X14197500Y-12836610D01*
X13998110Y-13036000D01*
X14197500Y-13235390D01*
X14673750Y-18950390D02*
X14873140Y-18751000D01*
X14673750Y-18551610D01*
X14474360Y-18751000D01*
X14673750Y-18950390D01*
X15150000Y-15140390D02*
X15349390Y-14941000D01*
X15150000Y-14741610D01*
X14950610Y-14941000D01*
X15150000Y-15140390D01*
X15626250Y-17045390D02*
X15825640Y-16846000D01*
X15626250Y-16646610D01*
X15426860Y-16846000D01*
X15626250Y-17045390D01*
X16102500Y-13235390D02*
X16301890Y-13036000D01*
X16102500Y-12836610D01*
X15903110Y-13036000D01*
X16102500Y-13235390D01*
X16578750Y-18950390D02*
X16778140Y-18751000D01*
X16578750Y-18551610D01*
X16379360Y-18751000D01*
X16578750Y-18950390D01*
X16816875Y-20855390D02*
X17016265Y-20656000D01*
X16816875Y-20456610D01*
X16617485Y-20656000D01*
X16816875Y-20855390D01*
X17055000Y-10377890D02*
X17254390Y-10178500D01*
X17055000Y-9979110D01*
X16855610Y-10178500D01*
X17055000Y-10377890D01*
X17055000Y-15140390D02*
X17254390Y-14941000D01*
X17055000Y-14741610D01*
X16855610Y-14941000D01*
X17055000Y-15140390D01*
X17531250Y-17045390D02*
X17730640Y-16846000D01*
X17531250Y-16646610D01*
X17331860Y-16846000D01*
X17531250Y-17045390D01*
X18007500Y-13235390D02*
X18206890Y-13036000D01*
X18007500Y-12836610D01*
X17808110Y-13036000D01*
X18007500Y-13235390D01*
X18483750Y-18950390D02*
X18683140Y-18751000D01*
X18483750Y-18551610D01*
X18284360Y-18751000D01*
X18483750Y-18950390D01*
X18960000Y-10377890D02*
X19159390Y-10178500D01*
X18960000Y-9979110D01*
X18760610Y-10178500D01*
X18960000Y-10377890D01*
X18960000Y-15140390D02*
X19159390Y-14941000D01*
X18960000Y-14741610D01*
X18760610Y-14941000D01*
X18960000Y-15140390D01*
X19436250Y-17045390D02*
X19635640Y-16846000D01*
X19436250Y-16646610D01*
X19236860Y-16846000D01*
X19436250Y-17045390D01*
X19912500Y-13235390D02*
X20111890Y-13036000D01*
X19912500Y-12836610D01*
X19713110Y-13036000D01*
X19912500Y-13235390D01*
X20388750Y-18950390D02*
X20588140Y-18751000D01*
X20388750Y-18551610D01*
X20189360Y-18751000D01*
X20388750Y-18950390D01*
X20865000Y-10377890D02*
X21064390Y-10178500D01*
X20865000Y-9979110D01*
X20665610Y-10178500D01*
X20865000Y-10377890D01*
X20865000Y-15140390D02*
X21064390Y-14941000D01*
X20865000Y-14741610D01*
X20665610Y-14941000D01*
X20865000Y-15140390D01*
X21341250Y-17045390D02*
X21540640Y-16846000D01*
X21341250Y-16646610D01*
X21141860Y-16846000D01*
X21341250Y-17045390D01*
X21816865Y-20029890D02*
X22016255Y-19830500D01*
X21816865Y-19631110D01*
X21617475Y-19830500D01*
X21816865Y-20029890D01*
X21817500Y-13235390D02*
X22016890Y-13036000D01*
X21817500Y-12836610D01*
X21618110Y-13036000D01*
X21817500Y-13235390D01*
X22293750Y-18950390D02*
X22493140Y-18751000D01*
X22293750Y-18551610D01*
X22094360Y-18751000D01*
X22293750Y-18950390D01*
X22770000Y-10377890D02*
X22969390Y-10178500D01*
X22770000Y-9979110D01*
X22570610Y-10178500D01*
X22770000Y-10377890D01*
X22770000Y-15140390D02*
X22969390Y-14941000D01*
X22770000Y-14741610D01*
X22570610Y-14941000D01*
X22770000Y-15140390D01*
X23246250Y-17045390D02*
X23445640Y-16846000D01*
X23246250Y-16646610D01*
X23046860Y-16846000D01*
X23246250Y-17045390D01*
X23722500Y-13235390D02*
X23921890Y-13036000D01*
X23722500Y-12836610D01*
X23523110Y-13036000D01*
X23722500Y-13235390D01*
X23960625Y-20855390D02*
X24160015Y-20656000D01*
X23960625Y-20456610D01*
X23761235Y-20656000D01*
X23960625Y-20855390D01*
X24198750Y-18950390D02*
X24398140Y-18751000D01*
X24198750Y-18551610D01*
X23999360Y-18751000D01*
X24198750Y-18950390D01*
X24675000Y-15140390D02*
X24874390Y-14941000D01*
X24675000Y-14741610D01*
X24475610Y-14941000D01*
X24675000Y-15140390D01*
X25151250Y-17045390D02*
X25350640Y-16846000D01*
X25151250Y-16646610D01*
X24951860Y-16846000D01*
X25151250Y-17045390D01*
X25627500Y-10377890D02*
X25826890Y-10178500D01*
X25627500Y-9979110D01*
X25428110Y-10178500D01*
X25627500Y-10377890D01*
X25627500Y-13235390D02*
X25826890Y-13036000D01*
X25627500Y-12836610D01*
X25428110Y-13036000D01*
X25627500Y-13235390D01*
X26103750Y-18950390D02*
X26303140Y-18751000D01*
X26103750Y-18551610D01*
X25904360Y-18751000D01*
X26103750Y-18950390D01*
X26341875Y-20855390D02*
X26541265Y-20656000D01*
X26341875Y-20456610D01*
X26142485Y-20656000D01*
X26341875Y-20855390D01*
X26580000Y-15140390D02*
X26779390Y-14941000D01*
X26580000Y-14741610D01*
X26380610Y-14941000D01*
X26580000Y-15140390D01*
X27056250Y-17045390D02*
X27255640Y-16846000D01*
X27056250Y-16646610D01*
X26856860Y-16846000D01*
X27056250Y-17045390D01*
X27532500Y-10377890D02*
X27731890Y-10178500D01*
X27532500Y-9979110D01*
X27333110Y-10178500D01*
X27532500Y-10377890D01*
X27532500Y-13235390D02*
X27731890Y-13036000D01*
X27532500Y-12836610D01*
X27333110Y-13036000D01*
X27532500Y-13235390D01*
X28485000Y-15140390D02*
X28684390Y-14941000D01*
X28485000Y-14741610D01*
X28285610Y-14941000D01*
X28485000Y-15140390D01*
X28485000Y-19775890D02*
X28684390Y-19576500D01*
X28485000Y-19377110D01*
X28285610Y-19576500D01*
X28485000Y-19775890D01*
X28723125Y-20855390D02*
X28922515Y-20656000D01*
X28723125Y-20456610D01*
X28523735Y-20656000D01*
X28723125Y-20855390D01*
X28959375Y-17867890D02*
X29158765Y-17668500D01*
X28959375Y-17469110D01*
X28759985Y-17668500D01*
X28959375Y-17867890D01*
X28961250Y-17045390D02*
X29160640Y-16846000D01*
X28961250Y-16646610D01*
X28761860Y-16846000D01*
X28961250Y-17045390D01*
X29199375Y-14060890D02*
X29398765Y-13861500D01*
X29199375Y-13662110D01*
X28999985Y-13861500D01*
X29199375Y-14060890D01*
X29437500Y-10377890D02*
X29636890Y-10178500D01*
X29437500Y-9979110D01*
X29238110Y-10178500D01*
X29437500Y-10377890D01*
X29675625Y-18950390D02*
X29875015Y-18751000D01*
X29675625Y-18551610D01*
X29476235Y-18751000D01*
X29675625Y-18950390D01*
X30150000Y-17042390D02*
X30349390Y-16843000D01*
X30150000Y-16643610D01*
X29950610Y-16843000D01*
X30150000Y-17042390D01*
X30277000Y-14899090D02*
X30476390Y-14699700D01*
X30277000Y-14500310D01*
X30077610Y-14699700D01*
X30277000Y-14899090D01*
X30277000Y-17286690D02*
X30476390Y-17087300D01*
X30277000Y-16887910D01*
X30077610Y-17087300D01*
X30277000Y-17286690D01*
X30390000Y-13235390D02*
X30589390Y-13036000D01*
X30390000Y-12836610D01*
X30190610Y-13036000D01*
X30390000Y-13235390D01*
X30865000Y-15137890D02*
X31064390Y-14938500D01*
X30865000Y-14739110D01*
X30665610Y-14938500D01*
X30865000Y-15137890D01*
X30866250Y-19775890D02*
X31065640Y-19576500D01*
X30866250Y-19377110D01*
X30666860Y-19576500D01*
X30866250Y-19775890D01*
X31102500Y-16092890D02*
X31301890Y-15893500D01*
X31102500Y-15694110D01*
X30903110Y-15893500D01*
X31102500Y-16092890D01*
X31104375Y-20855390D02*
X31303765Y-20656000D01*
X31104375Y-20456610D01*
X30904985Y-20656000D01*
X31104375Y-20855390D01*
X31340625Y-17867890D02*
X31540015Y-17668500D01*
X31340625Y-17469110D01*
X31141235Y-17668500D01*
X31340625Y-17867890D01*
X31342500Y-10377890D02*
X31541890Y-10178500D01*
X31342500Y-9979110D01*
X31143110Y-10178500D01*
X31342500Y-10377890D01*
X31580625Y-14060890D02*
X31780015Y-13861500D01*
X31580625Y-13662110D01*
X31381235Y-13861500D01*
X31580625Y-14060890D01*
X33723750Y-10377890D02*
X33923140Y-10178500D01*
X33723750Y-9979110D01*
X33524360Y-10178500D01*
X33723750Y-10377890D01*
X33723750Y-13235390D02*
X33923140Y-13036000D01*
X33723750Y-12836610D01*
X33524360Y-13036000D01*
X33723750Y-13235390D01*
X33723750Y-15140390D02*
X33923140Y-14941000D01*
X33723750Y-14741610D01*
X33524360Y-14941000D01*
X33723750Y-15140390D01*
X33723750Y-20855390D02*
X33923140Y-20656000D01*
X33723750Y-20456610D01*
X33524360Y-20656000D01*
X33723750Y-20855390D01*
X35628750Y-10377890D02*
X35828140Y-10178500D01*
X35628750Y-9979110D01*
X35429360Y-10178500D01*
X35628750Y-10377890D01*
X35628750Y-13235390D02*
X35828140Y-13036000D01*
X35628750Y-12836610D01*
X35429360Y-13036000D01*
X35628750Y-13235390D01*
X35628750Y-15140390D02*
X35828140Y-14941000D01*
X35628750Y-14741610D01*
X35429360Y-14941000D01*
X35628750Y-15140390D01*
X35628750Y-18950390D02*
X35828140Y-18751000D01*
X35628750Y-18551610D01*
X35429360Y-18751000D01*
X35628750Y-18950390D01*
X35628750Y-20855390D02*
X35828140Y-20656000D01*
X35628750Y-20456610D01*
X35429360Y-20656000D01*
X35628750Y-20855390D01*
X37533750Y-10377890D02*
X37733140Y-10178500D01*
X37533750Y-9979110D01*
X37334360Y-10178500D01*
X37533750Y-10377890D01*
X37533750Y-13235390D02*
X37733140Y-13036000D01*
X37533750Y-12836610D01*
X37334360Y-13036000D01*
X37533750Y-13235390D01*
X37533750Y-15140390D02*
X37733140Y-14941000D01*
X37533750Y-14741610D01*
X37334360Y-14941000D01*
X37533750Y-15140390D01*
X37533750Y-20855390D02*
X37733140Y-20656000D01*
X37533750Y-20456610D01*
X37334360Y-20656000D01*
X37533750Y-20855390D01*
D12*
X3771428Y-22086714D02*
X3771428Y-21786714D01*
X3842857Y-21786714D01*
X3885714Y-21801000D01*
X3914286Y-21829572D01*
X3928571Y-21858143D01*
X3942857Y-21915286D01*
X3942857Y-21958143D01*
X3928571Y-22015286D01*
X3914286Y-22043857D01*
X3885714Y-22072429D01*
X3842857Y-22086714D01*
X3771428Y-22086714D01*
X4071428Y-22086714D02*
X4071428Y-21886714D01*
X4071428Y-21943857D02*
X4085714Y-21915286D01*
X4100000Y-21901000D01*
X4128571Y-21886714D01*
X4157143Y-21886714D01*
X4257143Y-22086714D02*
X4257143Y-21886714D01*
X4257143Y-21786714D02*
X4242857Y-21801000D01*
X4257143Y-21815286D01*
X4271428Y-21801000D01*
X4257143Y-21786714D01*
X4257143Y-21815286D01*
X4442857Y-22086714D02*
X4414286Y-22072429D01*
X4400000Y-22043857D01*
X4400000Y-21786714D01*
X4600000Y-22086714D02*
X4571428Y-22072429D01*
X4557143Y-22043857D01*
X4557143Y-21786714D01*
X4942857Y-22086714D02*
X4942857Y-21786714D01*
X5042857Y-22001000D01*
X5142857Y-21786714D01*
X5142857Y-22086714D01*
X5414286Y-22086714D02*
X5414286Y-21929572D01*
X5400000Y-21901000D01*
X5371428Y-21886714D01*
X5314286Y-21886714D01*
X5285714Y-21901000D01*
X5414286Y-22072429D02*
X5385714Y-22086714D01*
X5314286Y-22086714D01*
X5285714Y-22072429D01*
X5271428Y-22043857D01*
X5271428Y-22015286D01*
X5285714Y-21986714D01*
X5314286Y-21972429D01*
X5385714Y-21972429D01*
X5414286Y-21958143D01*
X5557143Y-21886714D02*
X5557143Y-22186714D01*
X5557143Y-21901000D02*
X5585714Y-21886714D01*
X5642857Y-21886714D01*
X5671428Y-21901000D01*
X5685714Y-21915286D01*
X5700000Y-21943857D01*
X5700000Y-22029572D01*
X5685714Y-22058143D01*
X5671428Y-22072429D01*
X5642857Y-22086714D01*
X5585714Y-22086714D01*
X5557143Y-22072429D01*
X5828571Y-22058143D02*
X5842857Y-22072429D01*
X5828571Y-22086714D01*
X5814286Y-22072429D01*
X5828571Y-22058143D01*
X5828571Y-22086714D01*
X5828571Y-21901000D02*
X5842857Y-21915286D01*
X5828571Y-21929572D01*
X5814286Y-21915286D01*
X5828571Y-21901000D01*
X5828571Y-21929572D01*
X3420000Y-22548500D02*
X3485000Y-22613500D01*
X3485000Y-22548500D02*
X3420000Y-22613500D01*
X3828571Y-22416714D02*
X3857143Y-22416714D01*
X3885714Y-22431000D01*
X3900000Y-22445286D01*
X3914286Y-22473857D01*
X3928571Y-22531000D01*
X3928571Y-22602429D01*
X3914286Y-22659571D01*
X3900000Y-22688143D01*
X3885714Y-22702429D01*
X3857143Y-22716714D01*
X3828571Y-22716714D01*
X3800000Y-22702429D01*
X3785714Y-22688143D01*
X3771428Y-22659571D01*
X3757143Y-22602429D01*
X3757143Y-22531000D01*
X3771428Y-22473857D01*
X3785714Y-22445286D01*
X3800000Y-22431000D01*
X3828571Y-22416714D01*
X4057143Y-22688143D02*
X4071428Y-22702429D01*
X4057143Y-22716714D01*
X4042857Y-22702429D01*
X4057143Y-22688143D01*
X4057143Y-22716714D01*
X4328571Y-22416714D02*
X4271428Y-22416714D01*
X4242857Y-22431000D01*
X4228571Y-22445286D01*
X4200000Y-22488143D01*
X4185714Y-22545286D01*
X4185714Y-22659571D01*
X4200000Y-22688143D01*
X4214286Y-22702429D01*
X4242857Y-22716714D01*
X4300000Y-22716714D01*
X4328571Y-22702429D01*
X4342857Y-22688143D01*
X4357143Y-22659571D01*
X4357143Y-22588143D01*
X4342857Y-22559571D01*
X4328571Y-22545286D01*
X4300000Y-22531000D01*
X4242857Y-22531000D01*
X4214286Y-22545286D01*
X4200000Y-22559571D01*
X4185714Y-22588143D01*
X4628571Y-22416714D02*
X4485714Y-22416714D01*
X4471428Y-22559571D01*
X4485714Y-22545286D01*
X4514286Y-22531000D01*
X4585714Y-22531000D01*
X4614286Y-22545286D01*
X4628571Y-22559571D01*
X4642857Y-22588143D01*
X4642857Y-22659571D01*
X4628571Y-22688143D01*
X4614286Y-22702429D01*
X4585714Y-22716714D01*
X4514286Y-22716714D01*
X4485714Y-22702429D01*
X4471428Y-22688143D01*
X4771428Y-22716714D02*
X4771428Y-22516714D01*
X4771428Y-22545286D02*
X4785714Y-22531000D01*
X4814286Y-22516714D01*
X4857143Y-22516714D01*
X4885714Y-22531000D01*
X4900000Y-22559571D01*
X4900000Y-22716714D01*
X4900000Y-22559571D02*
X4914286Y-22531000D01*
X4942857Y-22516714D01*
X4985714Y-22516714D01*
X5014286Y-22531000D01*
X5028571Y-22559571D01*
X5028571Y-22716714D01*
X5171428Y-22716714D02*
X5171428Y-22516714D01*
X5171428Y-22545286D02*
X5185714Y-22531000D01*
X5214286Y-22516714D01*
X5257143Y-22516714D01*
X5285714Y-22531000D01*
X5300000Y-22559571D01*
X5300000Y-22716714D01*
X5300000Y-22559571D02*
X5314286Y-22531000D01*
X5342857Y-22516714D01*
X5385714Y-22516714D01*
X5414286Y-22531000D01*
X5428571Y-22559571D01*
X5428571Y-22716714D01*
X6014286Y-22402429D02*
X5757143Y-22788143D01*
X6400000Y-22416714D02*
X6428571Y-22416714D01*
X6457143Y-22431000D01*
X6471428Y-22445286D01*
X6485714Y-22473857D01*
X6500000Y-22531000D01*
X6500000Y-22602429D01*
X6485714Y-22659571D01*
X6471428Y-22688143D01*
X6457143Y-22702429D01*
X6428571Y-22716714D01*
X6400000Y-22716714D01*
X6371428Y-22702429D01*
X6357143Y-22688143D01*
X6342857Y-22659571D01*
X6328571Y-22602429D01*
X6328571Y-22531000D01*
X6342857Y-22473857D01*
X6357143Y-22445286D01*
X6371428Y-22431000D01*
X6400000Y-22416714D01*
X6628571Y-22688143D02*
X6642857Y-22702429D01*
X6628571Y-22716714D01*
X6614286Y-22702429D01*
X6628571Y-22688143D01*
X6628571Y-22716714D01*
X6828571Y-22416714D02*
X6857143Y-22416714D01*
X6885714Y-22431000D01*
X6900000Y-22445286D01*
X6914286Y-22473857D01*
X6928571Y-22531000D01*
X6928571Y-22602429D01*
X6914286Y-22659571D01*
X6900000Y-22688143D01*
X6885714Y-22702429D01*
X6857143Y-22716714D01*
X6828571Y-22716714D01*
X6800000Y-22702429D01*
X6785714Y-22688143D01*
X6771428Y-22659571D01*
X6757143Y-22602429D01*
X6757143Y-22531000D01*
X6771428Y-22473857D01*
X6785714Y-22445286D01*
X6800000Y-22431000D01*
X6828571Y-22416714D01*
X7042857Y-22445286D02*
X7057143Y-22431000D01*
X7085714Y-22416714D01*
X7157143Y-22416714D01*
X7185714Y-22431000D01*
X7200000Y-22445286D01*
X7214286Y-22473857D01*
X7214286Y-22502429D01*
X7200000Y-22545286D01*
X7028571Y-22716714D01*
X7214286Y-22716714D01*
X7471428Y-22416714D02*
X7414286Y-22416714D01*
X7385714Y-22431000D01*
X7371428Y-22445286D01*
X7342857Y-22488143D01*
X7328571Y-22545286D01*
X7328571Y-22659571D01*
X7342857Y-22688143D01*
X7357143Y-22702429D01*
X7385714Y-22716714D01*
X7442857Y-22716714D01*
X7471428Y-22702429D01*
X7485714Y-22688143D01*
X7500000Y-22659571D01*
X7500000Y-22588143D01*
X7485714Y-22559571D01*
X7471428Y-22545286D01*
X7442857Y-22531000D01*
X7385714Y-22531000D01*
X7357143Y-22545286D01*
X7342857Y-22559571D01*
X7328571Y-22588143D01*
X7614286Y-22416714D02*
X7614286Y-22473857D01*
X7728571Y-22416714D02*
X7728571Y-22473857D01*
X8171428Y-22831000D02*
X8157143Y-22816714D01*
X8128571Y-22773857D01*
X8114286Y-22745286D01*
X8100000Y-22702429D01*
X8085714Y-22631000D01*
X8085714Y-22573857D01*
X8100000Y-22502429D01*
X8114286Y-22459571D01*
X8128571Y-22431000D01*
X8157143Y-22388143D01*
X8171428Y-22373857D01*
X8271428Y-22445286D02*
X8285714Y-22431000D01*
X8314286Y-22416714D01*
X8385714Y-22416714D01*
X8414286Y-22431000D01*
X8428571Y-22445286D01*
X8442857Y-22473857D01*
X8442857Y-22502429D01*
X8428571Y-22545286D01*
X8257143Y-22716714D01*
X8442857Y-22716714D01*
X8800000Y-22716714D02*
X8800000Y-22416714D01*
X8928571Y-22716714D02*
X8928571Y-22559571D01*
X8914286Y-22531000D01*
X8885714Y-22516714D01*
X8842857Y-22516714D01*
X8814286Y-22531000D01*
X8800000Y-22545286D01*
X9114286Y-22716714D02*
X9085714Y-22702429D01*
X9071428Y-22688143D01*
X9057143Y-22659571D01*
X9057143Y-22573857D01*
X9071428Y-22545286D01*
X9085714Y-22531000D01*
X9114286Y-22516714D01*
X9157143Y-22516714D01*
X9185714Y-22531000D01*
X9200000Y-22545286D01*
X9214286Y-22573857D01*
X9214286Y-22659571D01*
X9200000Y-22688143D01*
X9185714Y-22702429D01*
X9157143Y-22716714D01*
X9114286Y-22716714D01*
X9385714Y-22716714D02*
X9357143Y-22702429D01*
X9342857Y-22673857D01*
X9342857Y-22416714D01*
X9614286Y-22702429D02*
X9585714Y-22716714D01*
X9528571Y-22716714D01*
X9500000Y-22702429D01*
X9485714Y-22673857D01*
X9485714Y-22559571D01*
X9500000Y-22531000D01*
X9528571Y-22516714D01*
X9585714Y-22516714D01*
X9614286Y-22531000D01*
X9628571Y-22559571D01*
X9628571Y-22588143D01*
X9485714Y-22616714D01*
X9742857Y-22702429D02*
X9771428Y-22716714D01*
X9828571Y-22716714D01*
X9857143Y-22702429D01*
X9871428Y-22673857D01*
X9871428Y-22659571D01*
X9857143Y-22631000D01*
X9828571Y-22616714D01*
X9785714Y-22616714D01*
X9757143Y-22602429D01*
X9742857Y-22573857D01*
X9742857Y-22559571D01*
X9757143Y-22531000D01*
X9785714Y-22516714D01*
X9828571Y-22516714D01*
X9857143Y-22531000D01*
X9971428Y-22831000D02*
X9985714Y-22816714D01*
X10014286Y-22773857D01*
X10028571Y-22745286D01*
X10042857Y-22702429D01*
X10057143Y-22631000D01*
X10057143Y-22573857D01*
X10042857Y-22502429D01*
X10028571Y-22459571D01*
X10014286Y-22431000D01*
X9985714Y-22388143D01*
X9971428Y-22373857D01*
X10514286Y-22831000D02*
X10500000Y-22816714D01*
X10471428Y-22773857D01*
X10457143Y-22745286D01*
X10442857Y-22702429D01*
X10428571Y-22631000D01*
X10428571Y-22573857D01*
X10442857Y-22502429D01*
X10457143Y-22459571D01*
X10471428Y-22431000D01*
X10500000Y-22388143D01*
X10514286Y-22373857D01*
X10628571Y-22516714D02*
X10628571Y-22716714D01*
X10628571Y-22545286D02*
X10642857Y-22531000D01*
X10671428Y-22516714D01*
X10714286Y-22516714D01*
X10742857Y-22531000D01*
X10757143Y-22559571D01*
X10757143Y-22716714D01*
X10942857Y-22716714D02*
X10914286Y-22702429D01*
X10900000Y-22688143D01*
X10885714Y-22659571D01*
X10885714Y-22573857D01*
X10900000Y-22545286D01*
X10914286Y-22531000D01*
X10942857Y-22516714D01*
X10985714Y-22516714D01*
X11014286Y-22531000D01*
X11028571Y-22545286D01*
X11042857Y-22573857D01*
X11042857Y-22659571D01*
X11028571Y-22688143D01*
X11014286Y-22702429D01*
X10985714Y-22716714D01*
X10942857Y-22716714D01*
X11128571Y-22516714D02*
X11242857Y-22516714D01*
X11171428Y-22416714D02*
X11171428Y-22673857D01*
X11185714Y-22702429D01*
X11214286Y-22716714D01*
X11242857Y-22716714D01*
X11571428Y-22516714D02*
X11571428Y-22816714D01*
X11571428Y-22531000D02*
X11600000Y-22516714D01*
X11657143Y-22516714D01*
X11685714Y-22531000D01*
X11700000Y-22545286D01*
X11714286Y-22573857D01*
X11714286Y-22659571D01*
X11700000Y-22688143D01*
X11685714Y-22702429D01*
X11657143Y-22716714D01*
X11600000Y-22716714D01*
X11571428Y-22702429D01*
X11885714Y-22716714D02*
X11857143Y-22702429D01*
X11842857Y-22673857D01*
X11842857Y-22416714D01*
X12128571Y-22716714D02*
X12128571Y-22559571D01*
X12114286Y-22531000D01*
X12085714Y-22516714D01*
X12028571Y-22516714D01*
X12000000Y-22531000D01*
X12128571Y-22702429D02*
X12100000Y-22716714D01*
X12028571Y-22716714D01*
X12000000Y-22702429D01*
X11985714Y-22673857D01*
X11985714Y-22645286D01*
X12000000Y-22616714D01*
X12028571Y-22602429D01*
X12100000Y-22602429D01*
X12128571Y-22588143D01*
X12228571Y-22516714D02*
X12342857Y-22516714D01*
X12271428Y-22416714D02*
X12271428Y-22673857D01*
X12285714Y-22702429D01*
X12314286Y-22716714D01*
X12342857Y-22716714D01*
X12557143Y-22702429D02*
X12528571Y-22716714D01*
X12471428Y-22716714D01*
X12442857Y-22702429D01*
X12428571Y-22673857D01*
X12428571Y-22559571D01*
X12442857Y-22531000D01*
X12471428Y-22516714D01*
X12528571Y-22516714D01*
X12557143Y-22531000D01*
X12571428Y-22559571D01*
X12571428Y-22588143D01*
X12428571Y-22616714D01*
X12828571Y-22716714D02*
X12828571Y-22416714D01*
X12828571Y-22702429D02*
X12800000Y-22716714D01*
X12742857Y-22716714D01*
X12714286Y-22702429D01*
X12700000Y-22688143D01*
X12685714Y-22659571D01*
X12685714Y-22573857D01*
X12700000Y-22545286D01*
X12714286Y-22531000D01*
X12742857Y-22516714D01*
X12800000Y-22516714D01*
X12828571Y-22531000D01*
X12942857Y-22831000D02*
X12957143Y-22816714D01*
X12985714Y-22773857D01*
X13000000Y-22745286D01*
X13014286Y-22702429D01*
X13028571Y-22631000D01*
X13028571Y-22573857D01*
X13014286Y-22502429D01*
X13000000Y-22459571D01*
X12985714Y-22431000D01*
X12957143Y-22388143D01*
X12942857Y-22373857D01*
X3485000Y-22977000D02*
G75*
G03*
X3485000Y-22977000I-87500J0D01*
G01*
X3928571Y-23112714D02*
X3757143Y-23112714D01*
X3842857Y-23112714D02*
X3842857Y-22812714D01*
X3814286Y-22855571D01*
X3785714Y-22884143D01*
X3757143Y-22898429D01*
X4057143Y-23084143D02*
X4071428Y-23098429D01*
X4057143Y-23112714D01*
X4042857Y-23098429D01*
X4057143Y-23084143D01*
X4057143Y-23112714D01*
X4171428Y-22812714D02*
X4371428Y-22812714D01*
X4242857Y-23112714D01*
X4628571Y-22812714D02*
X4485714Y-22812714D01*
X4471428Y-22955571D01*
X4485714Y-22941286D01*
X4514286Y-22927000D01*
X4585714Y-22927000D01*
X4614286Y-22941286D01*
X4628571Y-22955571D01*
X4642857Y-22984143D01*
X4642857Y-23055571D01*
X4628571Y-23084143D01*
X4614286Y-23098429D01*
X4585714Y-23112714D01*
X4514286Y-23112714D01*
X4485714Y-23098429D01*
X4471428Y-23084143D01*
X4771428Y-23112714D02*
X4771428Y-22912714D01*
X4771428Y-22941286D02*
X4785714Y-22927000D01*
X4814286Y-22912714D01*
X4857143Y-22912714D01*
X4885714Y-22927000D01*
X4900000Y-22955571D01*
X4900000Y-23112714D01*
X4900000Y-22955571D02*
X4914286Y-22927000D01*
X4942857Y-22912714D01*
X4985714Y-22912714D01*
X5014286Y-22927000D01*
X5028571Y-22955571D01*
X5028571Y-23112714D01*
X5171428Y-23112714D02*
X5171428Y-22912714D01*
X5171428Y-22941286D02*
X5185714Y-22927000D01*
X5214286Y-22912714D01*
X5257143Y-22912714D01*
X5285714Y-22927000D01*
X5300000Y-22955571D01*
X5300000Y-23112714D01*
X5300000Y-22955571D02*
X5314286Y-22927000D01*
X5342857Y-22912714D01*
X5385714Y-22912714D01*
X5414286Y-22927000D01*
X5428571Y-22955571D01*
X5428571Y-23112714D01*
X6014286Y-22798429D02*
X5757143Y-23184143D01*
X6400000Y-22812714D02*
X6428571Y-22812714D01*
X6457143Y-22827000D01*
X6471428Y-22841286D01*
X6485714Y-22869857D01*
X6500000Y-22927000D01*
X6500000Y-22998429D01*
X6485714Y-23055571D01*
X6471428Y-23084143D01*
X6457143Y-23098429D01*
X6428571Y-23112714D01*
X6400000Y-23112714D01*
X6371428Y-23098429D01*
X6357143Y-23084143D01*
X6342857Y-23055571D01*
X6328571Y-22998429D01*
X6328571Y-22927000D01*
X6342857Y-22869857D01*
X6357143Y-22841286D01*
X6371428Y-22827000D01*
X6400000Y-22812714D01*
X6628571Y-23084143D02*
X6642857Y-23098429D01*
X6628571Y-23112714D01*
X6614286Y-23098429D01*
X6628571Y-23084143D01*
X6628571Y-23112714D01*
X6828571Y-22812714D02*
X6857143Y-22812714D01*
X6885714Y-22827000D01*
X6900000Y-22841286D01*
X6914286Y-22869857D01*
X6928571Y-22927000D01*
X6928571Y-22998429D01*
X6914286Y-23055571D01*
X6900000Y-23084143D01*
X6885714Y-23098429D01*
X6857143Y-23112714D01*
X6828571Y-23112714D01*
X6800000Y-23098429D01*
X6785714Y-23084143D01*
X6771428Y-23055571D01*
X6757143Y-22998429D01*
X6757143Y-22927000D01*
X6771428Y-22869857D01*
X6785714Y-22841286D01*
X6800000Y-22827000D01*
X6828571Y-22812714D01*
X7185714Y-22812714D02*
X7128571Y-22812714D01*
X7100000Y-22827000D01*
X7085714Y-22841286D01*
X7057143Y-22884143D01*
X7042857Y-22941286D01*
X7042857Y-23055571D01*
X7057143Y-23084143D01*
X7071428Y-23098429D01*
X7100000Y-23112714D01*
X7157143Y-23112714D01*
X7185714Y-23098429D01*
X7200000Y-23084143D01*
X7214286Y-23055571D01*
X7214286Y-22984143D01*
X7200000Y-22955571D01*
X7185714Y-22941286D01*
X7157143Y-22927000D01*
X7100000Y-22927000D01*
X7071428Y-22941286D01*
X7057143Y-22955571D01*
X7042857Y-22984143D01*
X7357143Y-23112714D02*
X7414286Y-23112714D01*
X7442857Y-23098429D01*
X7457143Y-23084143D01*
X7485714Y-23041286D01*
X7500000Y-22984143D01*
X7500000Y-22869857D01*
X7485714Y-22841286D01*
X7471428Y-22827000D01*
X7442857Y-22812714D01*
X7385714Y-22812714D01*
X7357143Y-22827000D01*
X7342857Y-22841286D01*
X7328571Y-22869857D01*
X7328571Y-22941286D01*
X7342857Y-22969857D01*
X7357143Y-22984143D01*
X7385714Y-22998429D01*
X7442857Y-22998429D01*
X7471428Y-22984143D01*
X7485714Y-22969857D01*
X7500000Y-22941286D01*
X7614286Y-22812714D02*
X7614286Y-22869857D01*
X7728571Y-22812714D02*
X7728571Y-22869857D01*
X8171428Y-23227000D02*
X8157143Y-23212714D01*
X8128571Y-23169857D01*
X8114286Y-23141286D01*
X8100000Y-23098429D01*
X8085714Y-23027000D01*
X8085714Y-22969857D01*
X8100000Y-22898429D01*
X8114286Y-22855571D01*
X8128571Y-22827000D01*
X8157143Y-22784143D01*
X8171428Y-22769857D01*
X8442857Y-23112714D02*
X8271428Y-23112714D01*
X8357143Y-23112714D02*
X8357143Y-22812714D01*
X8328571Y-22855571D01*
X8300000Y-22884143D01*
X8271428Y-22898429D01*
X8614286Y-22941286D02*
X8585714Y-22927000D01*
X8571428Y-22912714D01*
X8557143Y-22884143D01*
X8557143Y-22869857D01*
X8571428Y-22841286D01*
X8585714Y-22827000D01*
X8614286Y-22812714D01*
X8671428Y-22812714D01*
X8700000Y-22827000D01*
X8714286Y-22841286D01*
X8728571Y-22869857D01*
X8728571Y-22884143D01*
X8714286Y-22912714D01*
X8700000Y-22927000D01*
X8671428Y-22941286D01*
X8614286Y-22941286D01*
X8585714Y-22955571D01*
X8571428Y-22969857D01*
X8557143Y-22998429D01*
X8557143Y-23055571D01*
X8571428Y-23084143D01*
X8585714Y-23098429D01*
X8614286Y-23112714D01*
X8671428Y-23112714D01*
X8700000Y-23098429D01*
X8714286Y-23084143D01*
X8728571Y-23055571D01*
X8728571Y-22998429D01*
X8714286Y-22969857D01*
X8700000Y-22955571D01*
X8671428Y-22941286D01*
X8842857Y-22841286D02*
X8857143Y-22827000D01*
X8885714Y-22812714D01*
X8957143Y-22812714D01*
X8985714Y-22827000D01*
X9000000Y-22841286D01*
X9014286Y-22869857D01*
X9014286Y-22898429D01*
X9000000Y-22941286D01*
X8828571Y-23112714D01*
X9014286Y-23112714D01*
X9371428Y-23112714D02*
X9371428Y-22812714D01*
X9500000Y-23112714D02*
X9500000Y-22955571D01*
X9485714Y-22927000D01*
X9457143Y-22912714D01*
X9414286Y-22912714D01*
X9385714Y-22927000D01*
X9371428Y-22941286D01*
X9685714Y-23112714D02*
X9657143Y-23098429D01*
X9642857Y-23084143D01*
X9628571Y-23055571D01*
X9628571Y-22969857D01*
X9642857Y-22941286D01*
X9657143Y-22927000D01*
X9685714Y-22912714D01*
X9728571Y-22912714D01*
X9757143Y-22927000D01*
X9771428Y-22941286D01*
X9785714Y-22969857D01*
X9785714Y-23055571D01*
X9771428Y-23084143D01*
X9757143Y-23098429D01*
X9728571Y-23112714D01*
X9685714Y-23112714D01*
X9957143Y-23112714D02*
X9928571Y-23098429D01*
X9914286Y-23069857D01*
X9914286Y-22812714D01*
X10185714Y-23098429D02*
X10157143Y-23112714D01*
X10100000Y-23112714D01*
X10071428Y-23098429D01*
X10057143Y-23069857D01*
X10057143Y-22955571D01*
X10071428Y-22927000D01*
X10100000Y-22912714D01*
X10157143Y-22912714D01*
X10185714Y-22927000D01*
X10200000Y-22955571D01*
X10200000Y-22984143D01*
X10057143Y-23012714D01*
X10314286Y-23098429D02*
X10342857Y-23112714D01*
X10400000Y-23112714D01*
X10428571Y-23098429D01*
X10442857Y-23069857D01*
X10442857Y-23055571D01*
X10428571Y-23027000D01*
X10400000Y-23012714D01*
X10357143Y-23012714D01*
X10328571Y-22998429D01*
X10314286Y-22969857D01*
X10314286Y-22955571D01*
X10328571Y-22927000D01*
X10357143Y-22912714D01*
X10400000Y-22912714D01*
X10428571Y-22927000D01*
X10542857Y-23227000D02*
X10557143Y-23212714D01*
X10585714Y-23169857D01*
X10600000Y-23141286D01*
X10614286Y-23098429D01*
X10628571Y-23027000D01*
X10628571Y-22969857D01*
X10614286Y-22898429D01*
X10600000Y-22855571D01*
X10585714Y-22827000D01*
X10557143Y-22784143D01*
X10542857Y-22769857D01*
X11085714Y-23227000D02*
X11071428Y-23212714D01*
X11042857Y-23169857D01*
X11028571Y-23141286D01*
X11014286Y-23098429D01*
X11000000Y-23027000D01*
X11000000Y-22969857D01*
X11014286Y-22898429D01*
X11028571Y-22855571D01*
X11042857Y-22827000D01*
X11071428Y-22784143D01*
X11085714Y-22769857D01*
X11200000Y-22912714D02*
X11200000Y-23112714D01*
X11200000Y-22941286D02*
X11214286Y-22927000D01*
X11242857Y-22912714D01*
X11285714Y-22912714D01*
X11314286Y-22927000D01*
X11328571Y-22955571D01*
X11328571Y-23112714D01*
X11514286Y-23112714D02*
X11485714Y-23098429D01*
X11471428Y-23084143D01*
X11457143Y-23055571D01*
X11457143Y-22969857D01*
X11471428Y-22941286D01*
X11485714Y-22927000D01*
X11514286Y-22912714D01*
X11557143Y-22912714D01*
X11585714Y-22927000D01*
X11600000Y-22941286D01*
X11614286Y-22969857D01*
X11614286Y-23055571D01*
X11600000Y-23084143D01*
X11585714Y-23098429D01*
X11557143Y-23112714D01*
X11514286Y-23112714D01*
X11700000Y-22912714D02*
X11814286Y-22912714D01*
X11742857Y-22812714D02*
X11742857Y-23069857D01*
X11757143Y-23098429D01*
X11785714Y-23112714D01*
X11814286Y-23112714D01*
X12142857Y-22912714D02*
X12142857Y-23212714D01*
X12142857Y-22927000D02*
X12171428Y-22912714D01*
X12228571Y-22912714D01*
X12257143Y-22927000D01*
X12271428Y-22941286D01*
X12285714Y-22969857D01*
X12285714Y-23055571D01*
X12271428Y-23084143D01*
X12257143Y-23098429D01*
X12228571Y-23112714D01*
X12171428Y-23112714D01*
X12142857Y-23098429D01*
X12457143Y-23112714D02*
X12428571Y-23098429D01*
X12414286Y-23069857D01*
X12414286Y-22812714D01*
X12700000Y-23112714D02*
X12700000Y-22955571D01*
X12685714Y-22927000D01*
X12657143Y-22912714D01*
X12600000Y-22912714D01*
X12571428Y-22927000D01*
X12700000Y-23098429D02*
X12671428Y-23112714D01*
X12600000Y-23112714D01*
X12571428Y-23098429D01*
X12557143Y-23069857D01*
X12557143Y-23041286D01*
X12571428Y-23012714D01*
X12600000Y-22998429D01*
X12671428Y-22998429D01*
X12700000Y-22984143D01*
X12800000Y-22912714D02*
X12914286Y-22912714D01*
X12842857Y-22812714D02*
X12842857Y-23069857D01*
X12857143Y-23098429D01*
X12885714Y-23112714D01*
X12914286Y-23112714D01*
X13128571Y-23098429D02*
X13100000Y-23112714D01*
X13042857Y-23112714D01*
X13014286Y-23098429D01*
X13000000Y-23069857D01*
X13000000Y-22955571D01*
X13014286Y-22927000D01*
X13042857Y-22912714D01*
X13100000Y-22912714D01*
X13128571Y-22927000D01*
X13142857Y-22955571D01*
X13142857Y-22984143D01*
X13000000Y-23012714D01*
X13400000Y-23112714D02*
X13400000Y-22812714D01*
X13400000Y-23098429D02*
X13371428Y-23112714D01*
X13314286Y-23112714D01*
X13285714Y-23098429D01*
X13271428Y-23084143D01*
X13257143Y-23055571D01*
X13257143Y-22969857D01*
X13271428Y-22941286D01*
X13285714Y-22927000D01*
X13314286Y-22912714D01*
X13371428Y-22912714D01*
X13400000Y-22927000D01*
X13514286Y-23227000D02*
X13528571Y-23212714D01*
X13557143Y-23169857D01*
X13571428Y-23141286D01*
X13585714Y-23098429D01*
X13600000Y-23027000D01*
X13600000Y-22969857D01*
X13585714Y-22898429D01*
X13571428Y-22855571D01*
X13557143Y-22827000D01*
X13528571Y-22784143D01*
X13514286Y-22769857D01*
X3332600Y-23220600D02*
X3332600Y-23525400D01*
X3180200Y-23373000D02*
X3485000Y-23373000D01*
X3742857Y-23208714D02*
X3928571Y-23208714D01*
X3828571Y-23323000D01*
X3871428Y-23323000D01*
X3900000Y-23337286D01*
X3914286Y-23351571D01*
X3928571Y-23380143D01*
X3928571Y-23451571D01*
X3914286Y-23480143D01*
X3900000Y-23494429D01*
X3871428Y-23508714D01*
X3785714Y-23508714D01*
X3757143Y-23494429D01*
X3742857Y-23480143D01*
X4057143Y-23480143D02*
X4071428Y-23494429D01*
X4057143Y-23508714D01*
X4042857Y-23494429D01*
X4057143Y-23480143D01*
X4057143Y-23508714D01*
X4257143Y-23208714D02*
X4285714Y-23208714D01*
X4314286Y-23223000D01*
X4328571Y-23237286D01*
X4342857Y-23265857D01*
X4357143Y-23323000D01*
X4357143Y-23394429D01*
X4342857Y-23451571D01*
X4328571Y-23480143D01*
X4314286Y-23494429D01*
X4285714Y-23508714D01*
X4257143Y-23508714D01*
X4228571Y-23494429D01*
X4214286Y-23480143D01*
X4200000Y-23451571D01*
X4185714Y-23394429D01*
X4185714Y-23323000D01*
X4200000Y-23265857D01*
X4214286Y-23237286D01*
X4228571Y-23223000D01*
X4257143Y-23208714D01*
X4628571Y-23208714D02*
X4485714Y-23208714D01*
X4471428Y-23351571D01*
X4485714Y-23337286D01*
X4514286Y-23323000D01*
X4585714Y-23323000D01*
X4614286Y-23337286D01*
X4628571Y-23351571D01*
X4642857Y-23380143D01*
X4642857Y-23451571D01*
X4628571Y-23480143D01*
X4614286Y-23494429D01*
X4585714Y-23508714D01*
X4514286Y-23508714D01*
X4485714Y-23494429D01*
X4471428Y-23480143D01*
X4771428Y-23508714D02*
X4771428Y-23308714D01*
X4771428Y-23337286D02*
X4785714Y-23323000D01*
X4814286Y-23308714D01*
X4857143Y-23308714D01*
X4885714Y-23323000D01*
X4900000Y-23351571D01*
X4900000Y-23508714D01*
X4900000Y-23351571D02*
X4914286Y-23323000D01*
X4942857Y-23308714D01*
X4985714Y-23308714D01*
X5014286Y-23323000D01*
X5028571Y-23351571D01*
X5028571Y-23508714D01*
X5171428Y-23508714D02*
X5171428Y-23308714D01*
X5171428Y-23337286D02*
X5185714Y-23323000D01*
X5214286Y-23308714D01*
X5257143Y-23308714D01*
X5285714Y-23323000D01*
X5300000Y-23351571D01*
X5300000Y-23508714D01*
X5300000Y-23351571D02*
X5314286Y-23323000D01*
X5342857Y-23308714D01*
X5385714Y-23308714D01*
X5414286Y-23323000D01*
X5428571Y-23351571D01*
X5428571Y-23508714D01*
X6014286Y-23194429D02*
X5757143Y-23580143D01*
X6400000Y-23208714D02*
X6428571Y-23208714D01*
X6457143Y-23223000D01*
X6471428Y-23237286D01*
X6485714Y-23265857D01*
X6500000Y-23323000D01*
X6500000Y-23394429D01*
X6485714Y-23451571D01*
X6471428Y-23480143D01*
X6457143Y-23494429D01*
X6428571Y-23508714D01*
X6400000Y-23508714D01*
X6371428Y-23494429D01*
X6357143Y-23480143D01*
X6342857Y-23451571D01*
X6328571Y-23394429D01*
X6328571Y-23323000D01*
X6342857Y-23265857D01*
X6357143Y-23237286D01*
X6371428Y-23223000D01*
X6400000Y-23208714D01*
X6628571Y-23480143D02*
X6642857Y-23494429D01*
X6628571Y-23508714D01*
X6614286Y-23494429D01*
X6628571Y-23480143D01*
X6628571Y-23508714D01*
X6928571Y-23508714D02*
X6757143Y-23508714D01*
X6842857Y-23508714D02*
X6842857Y-23208714D01*
X6814286Y-23251571D01*
X6785714Y-23280143D01*
X6757143Y-23294429D01*
X7042857Y-23237286D02*
X7057143Y-23223000D01*
X7085714Y-23208714D01*
X7157143Y-23208714D01*
X7185714Y-23223000D01*
X7200000Y-23237286D01*
X7214286Y-23265857D01*
X7214286Y-23294429D01*
X7200000Y-23337286D01*
X7028571Y-23508714D01*
X7214286Y-23508714D01*
X7400000Y-23208714D02*
X7428571Y-23208714D01*
X7457143Y-23223000D01*
X7471428Y-23237286D01*
X7485714Y-23265857D01*
X7500000Y-23323000D01*
X7500000Y-23394429D01*
X7485714Y-23451571D01*
X7471428Y-23480143D01*
X7457143Y-23494429D01*
X7428571Y-23508714D01*
X7400000Y-23508714D01*
X7371428Y-23494429D01*
X7357143Y-23480143D01*
X7342857Y-23451571D01*
X7328571Y-23394429D01*
X7328571Y-23323000D01*
X7342857Y-23265857D01*
X7357143Y-23237286D01*
X7371428Y-23223000D01*
X7400000Y-23208714D01*
X7614286Y-23208714D02*
X7614286Y-23265857D01*
X7728571Y-23208714D02*
X7728571Y-23265857D01*
X8171428Y-23623000D02*
X8157143Y-23608714D01*
X8128571Y-23565857D01*
X8114286Y-23537286D01*
X8100000Y-23494429D01*
X8085714Y-23423000D01*
X8085714Y-23365857D01*
X8100000Y-23294429D01*
X8114286Y-23251571D01*
X8128571Y-23223000D01*
X8157143Y-23180143D01*
X8171428Y-23165857D01*
X8442857Y-23508714D02*
X8271428Y-23508714D01*
X8357143Y-23508714D02*
X8357143Y-23208714D01*
X8328571Y-23251571D01*
X8300000Y-23280143D01*
X8271428Y-23294429D01*
X8557143Y-23237286D02*
X8571428Y-23223000D01*
X8600000Y-23208714D01*
X8671428Y-23208714D01*
X8700000Y-23223000D01*
X8714286Y-23237286D01*
X8728571Y-23265857D01*
X8728571Y-23294429D01*
X8714286Y-23337286D01*
X8542857Y-23508714D01*
X8728571Y-23508714D01*
X9085714Y-23508714D02*
X9085714Y-23208714D01*
X9214286Y-23508714D02*
X9214286Y-23351571D01*
X9200000Y-23323000D01*
X9171428Y-23308714D01*
X9128571Y-23308714D01*
X9100000Y-23323000D01*
X9085714Y-23337286D01*
X9400000Y-23508714D02*
X9371428Y-23494429D01*
X9357143Y-23480143D01*
X9342857Y-23451571D01*
X9342857Y-23365857D01*
X9357143Y-23337286D01*
X9371428Y-23323000D01*
X9400000Y-23308714D01*
X9442857Y-23308714D01*
X9471428Y-23323000D01*
X9485714Y-23337286D01*
X9500000Y-23365857D01*
X9500000Y-23451571D01*
X9485714Y-23480143D01*
X9471428Y-23494429D01*
X9442857Y-23508714D01*
X9400000Y-23508714D01*
X9671428Y-23508714D02*
X9642857Y-23494429D01*
X9628571Y-23465857D01*
X9628571Y-23208714D01*
X9900000Y-23494429D02*
X9871428Y-23508714D01*
X9814286Y-23508714D01*
X9785714Y-23494429D01*
X9771428Y-23465857D01*
X9771428Y-23351571D01*
X9785714Y-23323000D01*
X9814286Y-23308714D01*
X9871428Y-23308714D01*
X9900000Y-23323000D01*
X9914286Y-23351571D01*
X9914286Y-23380143D01*
X9771428Y-23408714D01*
X10028571Y-23494429D02*
X10057143Y-23508714D01*
X10114286Y-23508714D01*
X10142857Y-23494429D01*
X10157143Y-23465857D01*
X10157143Y-23451571D01*
X10142857Y-23423000D01*
X10114286Y-23408714D01*
X10071428Y-23408714D01*
X10042857Y-23394429D01*
X10028571Y-23365857D01*
X10028571Y-23351571D01*
X10042857Y-23323000D01*
X10071428Y-23308714D01*
X10114286Y-23308714D01*
X10142857Y-23323000D01*
X10257143Y-23623000D02*
X10271428Y-23608714D01*
X10300000Y-23565857D01*
X10314286Y-23537286D01*
X10328571Y-23494429D01*
X10342857Y-23423000D01*
X10342857Y-23365857D01*
X10328571Y-23294429D01*
X10314286Y-23251571D01*
X10300000Y-23223000D01*
X10271428Y-23180143D01*
X10257143Y-23165857D01*
X10800000Y-23623000D02*
X10785714Y-23608714D01*
X10757143Y-23565857D01*
X10742857Y-23537286D01*
X10728571Y-23494429D01*
X10714286Y-23423000D01*
X10714286Y-23365857D01*
X10728571Y-23294429D01*
X10742857Y-23251571D01*
X10757143Y-23223000D01*
X10785714Y-23180143D01*
X10800000Y-23165857D01*
X10914286Y-23308714D02*
X10914286Y-23508714D01*
X10914286Y-23337286D02*
X10928571Y-23323000D01*
X10957143Y-23308714D01*
X11000000Y-23308714D01*
X11028571Y-23323000D01*
X11042857Y-23351571D01*
X11042857Y-23508714D01*
X11228571Y-23508714D02*
X11200000Y-23494429D01*
X11185714Y-23480143D01*
X11171428Y-23451571D01*
X11171428Y-23365857D01*
X11185714Y-23337286D01*
X11200000Y-23323000D01*
X11228571Y-23308714D01*
X11271428Y-23308714D01*
X11300000Y-23323000D01*
X11314286Y-23337286D01*
X11328571Y-23365857D01*
X11328571Y-23451571D01*
X11314286Y-23480143D01*
X11300000Y-23494429D01*
X11271428Y-23508714D01*
X11228571Y-23508714D01*
X11414286Y-23308714D02*
X11528571Y-23308714D01*
X11457143Y-23208714D02*
X11457143Y-23465857D01*
X11471428Y-23494429D01*
X11500000Y-23508714D01*
X11528571Y-23508714D01*
X11857143Y-23308714D02*
X11857143Y-23608714D01*
X11857143Y-23323000D02*
X11885714Y-23308714D01*
X11942857Y-23308714D01*
X11971428Y-23323000D01*
X11985714Y-23337286D01*
X12000000Y-23365857D01*
X12000000Y-23451571D01*
X11985714Y-23480143D01*
X11971428Y-23494429D01*
X11942857Y-23508714D01*
X11885714Y-23508714D01*
X11857143Y-23494429D01*
X12171428Y-23508714D02*
X12142857Y-23494429D01*
X12128571Y-23465857D01*
X12128571Y-23208714D01*
X12414286Y-23508714D02*
X12414286Y-23351571D01*
X12400000Y-23323000D01*
X12371428Y-23308714D01*
X12314286Y-23308714D01*
X12285714Y-23323000D01*
X12414286Y-23494429D02*
X12385714Y-23508714D01*
X12314286Y-23508714D01*
X12285714Y-23494429D01*
X12271428Y-23465857D01*
X12271428Y-23437286D01*
X12285714Y-23408714D01*
X12314286Y-23394429D01*
X12385714Y-23394429D01*
X12414286Y-23380143D01*
X12514286Y-23308714D02*
X12628571Y-23308714D01*
X12557143Y-23208714D02*
X12557143Y-23465857D01*
X12571428Y-23494429D01*
X12600000Y-23508714D01*
X12628571Y-23508714D01*
X12842857Y-23494429D02*
X12814286Y-23508714D01*
X12757143Y-23508714D01*
X12728571Y-23494429D01*
X12714286Y-23465857D01*
X12714286Y-23351571D01*
X12728571Y-23323000D01*
X12757143Y-23308714D01*
X12814286Y-23308714D01*
X12842857Y-23323000D01*
X12857143Y-23351571D01*
X12857143Y-23380143D01*
X12714286Y-23408714D01*
X13114286Y-23508714D02*
X13114286Y-23208714D01*
X13114286Y-23494429D02*
X13085714Y-23508714D01*
X13028571Y-23508714D01*
X13000000Y-23494429D01*
X12985714Y-23480143D01*
X12971428Y-23451571D01*
X12971428Y-23365857D01*
X12985714Y-23337286D01*
X13000000Y-23323000D01*
X13028571Y-23308714D01*
X13085714Y-23308714D01*
X13114286Y-23323000D01*
X13228571Y-23623000D02*
X13242857Y-23608714D01*
X13271428Y-23565857D01*
X13285714Y-23537286D01*
X13300000Y-23494429D01*
X13314286Y-23423000D01*
X13314286Y-23365857D01*
X13300000Y-23294429D01*
X13285714Y-23251571D01*
X13271428Y-23223000D01*
X13242857Y-23180143D01*
X13228571Y-23165857D01*
X3438138Y-23920938D02*
X3438138Y-23694662D01*
X3211862Y-23694662D01*
X3211862Y-23920938D01*
X3438138Y-23920938D01*
X3742857Y-23643514D02*
X3928571Y-23643514D01*
X3828571Y-23757800D01*
X3871428Y-23757800D01*
X3900000Y-23772086D01*
X3914286Y-23786371D01*
X3928571Y-23814943D01*
X3928571Y-23886371D01*
X3914286Y-23914943D01*
X3900000Y-23929229D01*
X3871428Y-23943514D01*
X3785714Y-23943514D01*
X3757143Y-23929229D01*
X3742857Y-23914943D01*
X4057143Y-23914943D02*
X4071428Y-23929229D01*
X4057143Y-23943514D01*
X4042857Y-23929229D01*
X4057143Y-23914943D01*
X4057143Y-23943514D01*
X4185714Y-23672086D02*
X4200000Y-23657800D01*
X4228571Y-23643514D01*
X4300000Y-23643514D01*
X4328571Y-23657800D01*
X4342857Y-23672086D01*
X4357143Y-23700657D01*
X4357143Y-23729229D01*
X4342857Y-23772086D01*
X4171428Y-23943514D01*
X4357143Y-23943514D01*
X4542857Y-23643514D02*
X4571428Y-23643514D01*
X4600000Y-23657800D01*
X4614286Y-23672086D01*
X4628571Y-23700657D01*
X4642857Y-23757800D01*
X4642857Y-23829229D01*
X4628571Y-23886371D01*
X4614286Y-23914943D01*
X4600000Y-23929229D01*
X4571428Y-23943514D01*
X4542857Y-23943514D01*
X4514286Y-23929229D01*
X4500000Y-23914943D01*
X4485714Y-23886371D01*
X4471428Y-23829229D01*
X4471428Y-23757800D01*
X4485714Y-23700657D01*
X4500000Y-23672086D01*
X4514286Y-23657800D01*
X4542857Y-23643514D01*
X4771428Y-23943514D02*
X4771428Y-23743514D01*
X4771428Y-23772086D02*
X4785714Y-23757800D01*
X4814286Y-23743514D01*
X4857143Y-23743514D01*
X4885714Y-23757800D01*
X4900000Y-23786371D01*
X4900000Y-23943514D01*
X4900000Y-23786371D02*
X4914286Y-23757800D01*
X4942857Y-23743514D01*
X4985714Y-23743514D01*
X5014286Y-23757800D01*
X5028571Y-23786371D01*
X5028571Y-23943514D01*
X5171428Y-23943514D02*
X5171428Y-23743514D01*
X5171428Y-23772086D02*
X5185714Y-23757800D01*
X5214286Y-23743514D01*
X5257143Y-23743514D01*
X5285714Y-23757800D01*
X5300000Y-23786371D01*
X5300000Y-23943514D01*
X5300000Y-23786371D02*
X5314286Y-23757800D01*
X5342857Y-23743514D01*
X5385714Y-23743514D01*
X5414286Y-23757800D01*
X5428571Y-23786371D01*
X5428571Y-23943514D01*
X6014286Y-23629229D02*
X5757143Y-24014943D01*
X6400000Y-23643514D02*
X6428571Y-23643514D01*
X6457143Y-23657800D01*
X6471428Y-23672086D01*
X6485714Y-23700657D01*
X6500000Y-23757800D01*
X6500000Y-23829229D01*
X6485714Y-23886371D01*
X6471428Y-23914943D01*
X6457143Y-23929229D01*
X6428571Y-23943514D01*
X6400000Y-23943514D01*
X6371428Y-23929229D01*
X6357143Y-23914943D01*
X6342857Y-23886371D01*
X6328571Y-23829229D01*
X6328571Y-23757800D01*
X6342857Y-23700657D01*
X6357143Y-23672086D01*
X6371428Y-23657800D01*
X6400000Y-23643514D01*
X6628571Y-23914943D02*
X6642857Y-23929229D01*
X6628571Y-23943514D01*
X6614286Y-23929229D01*
X6628571Y-23914943D01*
X6628571Y-23943514D01*
X6928571Y-23943514D02*
X6757143Y-23943514D01*
X6842857Y-23943514D02*
X6842857Y-23643514D01*
X6814286Y-23686371D01*
X6785714Y-23714943D01*
X6757143Y-23729229D01*
X7042857Y-23672086D02*
X7057143Y-23657800D01*
X7085714Y-23643514D01*
X7157143Y-23643514D01*
X7185714Y-23657800D01*
X7200000Y-23672086D01*
X7214286Y-23700657D01*
X7214286Y-23729229D01*
X7200000Y-23772086D01*
X7028571Y-23943514D01*
X7214286Y-23943514D01*
X7471428Y-23643514D02*
X7414286Y-23643514D01*
X7385714Y-23657800D01*
X7371428Y-23672086D01*
X7342857Y-23714943D01*
X7328571Y-23772086D01*
X7328571Y-23886371D01*
X7342857Y-23914943D01*
X7357143Y-23929229D01*
X7385714Y-23943514D01*
X7442857Y-23943514D01*
X7471428Y-23929229D01*
X7485714Y-23914943D01*
X7500000Y-23886371D01*
X7500000Y-23814943D01*
X7485714Y-23786371D01*
X7471428Y-23772086D01*
X7442857Y-23757800D01*
X7385714Y-23757800D01*
X7357143Y-23772086D01*
X7342857Y-23786371D01*
X7328571Y-23814943D01*
X7614286Y-23643514D02*
X7614286Y-23700657D01*
X7728571Y-23643514D02*
X7728571Y-23700657D01*
X8171428Y-24057800D02*
X8157143Y-24043514D01*
X8128571Y-24000657D01*
X8114286Y-23972086D01*
X8100000Y-23929229D01*
X8085714Y-23857800D01*
X8085714Y-23800657D01*
X8100000Y-23729229D01*
X8114286Y-23686371D01*
X8128571Y-23657800D01*
X8157143Y-23614943D01*
X8171428Y-23600657D01*
X8300000Y-23943514D02*
X8357143Y-23943514D01*
X8385714Y-23929229D01*
X8400000Y-23914943D01*
X8428571Y-23872086D01*
X8442857Y-23814943D01*
X8442857Y-23700657D01*
X8428571Y-23672086D01*
X8414286Y-23657800D01*
X8385714Y-23643514D01*
X8328571Y-23643514D01*
X8300000Y-23657800D01*
X8285714Y-23672086D01*
X8271428Y-23700657D01*
X8271428Y-23772086D01*
X8285714Y-23800657D01*
X8300000Y-23814943D01*
X8328571Y-23829229D01*
X8385714Y-23829229D01*
X8414286Y-23814943D01*
X8428571Y-23800657D01*
X8442857Y-23772086D01*
X8800000Y-23943514D02*
X8800000Y-23643514D01*
X8928571Y-23943514D02*
X8928571Y-23786371D01*
X8914286Y-23757800D01*
X8885714Y-23743514D01*
X8842857Y-23743514D01*
X8814286Y-23757800D01*
X8800000Y-23772086D01*
X9114286Y-23943514D02*
X9085714Y-23929229D01*
X9071428Y-23914943D01*
X9057143Y-23886371D01*
X9057143Y-23800657D01*
X9071428Y-23772086D01*
X9085714Y-23757800D01*
X9114286Y-23743514D01*
X9157143Y-23743514D01*
X9185714Y-23757800D01*
X9200000Y-23772086D01*
X9214286Y-23800657D01*
X9214286Y-23886371D01*
X9200000Y-23914943D01*
X9185714Y-23929229D01*
X9157143Y-23943514D01*
X9114286Y-23943514D01*
X9385714Y-23943514D02*
X9357143Y-23929229D01*
X9342857Y-23900657D01*
X9342857Y-23643514D01*
X9614286Y-23929229D02*
X9585714Y-23943514D01*
X9528571Y-23943514D01*
X9500000Y-23929229D01*
X9485714Y-23900657D01*
X9485714Y-23786371D01*
X9500000Y-23757800D01*
X9528571Y-23743514D01*
X9585714Y-23743514D01*
X9614286Y-23757800D01*
X9628571Y-23786371D01*
X9628571Y-23814943D01*
X9485714Y-23843514D01*
X9742857Y-23929229D02*
X9771428Y-23943514D01*
X9828571Y-23943514D01*
X9857143Y-23929229D01*
X9871428Y-23900657D01*
X9871428Y-23886371D01*
X9857143Y-23857800D01*
X9828571Y-23843514D01*
X9785714Y-23843514D01*
X9757143Y-23829229D01*
X9742857Y-23800657D01*
X9742857Y-23786371D01*
X9757143Y-23757800D01*
X9785714Y-23743514D01*
X9828571Y-23743514D01*
X9857143Y-23757800D01*
X9971428Y-24057800D02*
X9985714Y-24043514D01*
X10014286Y-24000657D01*
X10028571Y-23972086D01*
X10042857Y-23929229D01*
X10057143Y-23857800D01*
X10057143Y-23800657D01*
X10042857Y-23729229D01*
X10028571Y-23686371D01*
X10014286Y-23657800D01*
X9985714Y-23614943D01*
X9971428Y-23600657D01*
X10514286Y-24057800D02*
X10500000Y-24043514D01*
X10471428Y-24000657D01*
X10457143Y-23972086D01*
X10442857Y-23929229D01*
X10428571Y-23857800D01*
X10428571Y-23800657D01*
X10442857Y-23729229D01*
X10457143Y-23686371D01*
X10471428Y-23657800D01*
X10500000Y-23614943D01*
X10514286Y-23600657D01*
X10628571Y-23743514D02*
X10628571Y-23943514D01*
X10628571Y-23772086D02*
X10642857Y-23757800D01*
X10671428Y-23743514D01*
X10714286Y-23743514D01*
X10742857Y-23757800D01*
X10757143Y-23786371D01*
X10757143Y-23943514D01*
X10942857Y-23943514D02*
X10914286Y-23929229D01*
X10900000Y-23914943D01*
X10885714Y-23886371D01*
X10885714Y-23800657D01*
X10900000Y-23772086D01*
X10914286Y-23757800D01*
X10942857Y-23743514D01*
X10985714Y-23743514D01*
X11014286Y-23757800D01*
X11028571Y-23772086D01*
X11042857Y-23800657D01*
X11042857Y-23886371D01*
X11028571Y-23914943D01*
X11014286Y-23929229D01*
X10985714Y-23943514D01*
X10942857Y-23943514D01*
X11128571Y-23743514D02*
X11242857Y-23743514D01*
X11171428Y-23643514D02*
X11171428Y-23900657D01*
X11185714Y-23929229D01*
X11214286Y-23943514D01*
X11242857Y-23943514D01*
X11571428Y-23743514D02*
X11571428Y-24043514D01*
X11571428Y-23757800D02*
X11600000Y-23743514D01*
X11657143Y-23743514D01*
X11685714Y-23757800D01*
X11700000Y-23772086D01*
X11714286Y-23800657D01*
X11714286Y-23886371D01*
X11700000Y-23914943D01*
X11685714Y-23929229D01*
X11657143Y-23943514D01*
X11600000Y-23943514D01*
X11571428Y-23929229D01*
X11885714Y-23943514D02*
X11857143Y-23929229D01*
X11842857Y-23900657D01*
X11842857Y-23643514D01*
X12128571Y-23943514D02*
X12128571Y-23786371D01*
X12114286Y-23757800D01*
X12085714Y-23743514D01*
X12028571Y-23743514D01*
X12000000Y-23757800D01*
X12128571Y-23929229D02*
X12100000Y-23943514D01*
X12028571Y-23943514D01*
X12000000Y-23929229D01*
X11985714Y-23900657D01*
X11985714Y-23872086D01*
X12000000Y-23843514D01*
X12028571Y-23829229D01*
X12100000Y-23829229D01*
X12128571Y-23814943D01*
X12228571Y-23743514D02*
X12342857Y-23743514D01*
X12271428Y-23643514D02*
X12271428Y-23900657D01*
X12285714Y-23929229D01*
X12314286Y-23943514D01*
X12342857Y-23943514D01*
X12557143Y-23929229D02*
X12528571Y-23943514D01*
X12471428Y-23943514D01*
X12442857Y-23929229D01*
X12428571Y-23900657D01*
X12428571Y-23786371D01*
X12442857Y-23757800D01*
X12471428Y-23743514D01*
X12528571Y-23743514D01*
X12557143Y-23757800D01*
X12571428Y-23786371D01*
X12571428Y-23814943D01*
X12428571Y-23843514D01*
X12828571Y-23943514D02*
X12828571Y-23643514D01*
X12828571Y-23929229D02*
X12800000Y-23943514D01*
X12742857Y-23943514D01*
X12714286Y-23929229D01*
X12700000Y-23914943D01*
X12685714Y-23886371D01*
X12685714Y-23800657D01*
X12700000Y-23772086D01*
X12714286Y-23757800D01*
X12742857Y-23743514D01*
X12800000Y-23743514D01*
X12828571Y-23757800D01*
X12942857Y-24057800D02*
X12957143Y-24043514D01*
X12985714Y-24000657D01*
X13000000Y-23972086D01*
X13014286Y-23929229D01*
X13028571Y-23857800D01*
X13028571Y-23800657D01*
X13014286Y-23729229D01*
X13000000Y-23686371D01*
X12985714Y-23657800D01*
X12957143Y-23614943D01*
X12942857Y-23600657D01*
X3285610Y-24457190D02*
X3485000Y-24257800D01*
X3285610Y-24058410D01*
X3086220Y-24257800D01*
X3285610Y-24457190D01*
X3742857Y-24093514D02*
X3928571Y-24093514D01*
X3828571Y-24207800D01*
X3871428Y-24207800D01*
X3900000Y-24222086D01*
X3914286Y-24236371D01*
X3928571Y-24264943D01*
X3928571Y-24336371D01*
X3914286Y-24364943D01*
X3900000Y-24379229D01*
X3871428Y-24393514D01*
X3785714Y-24393514D01*
X3757143Y-24379229D01*
X3742857Y-24364943D01*
X4057143Y-24364943D02*
X4071428Y-24379229D01*
X4057143Y-24393514D01*
X4042857Y-24379229D01*
X4057143Y-24364943D01*
X4057143Y-24393514D01*
X4214286Y-24393514D02*
X4271428Y-24393514D01*
X4300000Y-24379229D01*
X4314286Y-24364943D01*
X4342857Y-24322086D01*
X4357143Y-24264943D01*
X4357143Y-24150657D01*
X4342857Y-24122086D01*
X4328571Y-24107800D01*
X4300000Y-24093514D01*
X4242857Y-24093514D01*
X4214286Y-24107800D01*
X4200000Y-24122086D01*
X4185714Y-24150657D01*
X4185714Y-24222086D01*
X4200000Y-24250657D01*
X4214286Y-24264943D01*
X4242857Y-24279229D01*
X4300000Y-24279229D01*
X4328571Y-24264943D01*
X4342857Y-24250657D01*
X4357143Y-24222086D01*
X4500000Y-24393514D02*
X4557143Y-24393514D01*
X4585714Y-24379229D01*
X4600000Y-24364943D01*
X4628571Y-24322086D01*
X4642857Y-24264943D01*
X4642857Y-24150657D01*
X4628571Y-24122086D01*
X4614286Y-24107800D01*
X4585714Y-24093514D01*
X4528571Y-24093514D01*
X4500000Y-24107800D01*
X4485714Y-24122086D01*
X4471428Y-24150657D01*
X4471428Y-24222086D01*
X4485714Y-24250657D01*
X4500000Y-24264943D01*
X4528571Y-24279229D01*
X4585714Y-24279229D01*
X4614286Y-24264943D01*
X4628571Y-24250657D01*
X4642857Y-24222086D01*
X4771428Y-24393514D02*
X4771428Y-24193514D01*
X4771428Y-24222086D02*
X4785714Y-24207800D01*
X4814286Y-24193514D01*
X4857143Y-24193514D01*
X4885714Y-24207800D01*
X4900000Y-24236371D01*
X4900000Y-24393514D01*
X4900000Y-24236371D02*
X4914286Y-24207800D01*
X4942857Y-24193514D01*
X4985714Y-24193514D01*
X5014286Y-24207800D01*
X5028571Y-24236371D01*
X5028571Y-24393514D01*
X5171428Y-24393514D02*
X5171428Y-24193514D01*
X5171428Y-24222086D02*
X5185714Y-24207800D01*
X5214286Y-24193514D01*
X5257143Y-24193514D01*
X5285714Y-24207800D01*
X5300000Y-24236371D01*
X5300000Y-24393514D01*
X5300000Y-24236371D02*
X5314286Y-24207800D01*
X5342857Y-24193514D01*
X5385714Y-24193514D01*
X5414286Y-24207800D01*
X5428571Y-24236371D01*
X5428571Y-24393514D01*
X6014286Y-24079229D02*
X5757143Y-24464943D01*
X6400000Y-24093514D02*
X6428571Y-24093514D01*
X6457143Y-24107800D01*
X6471428Y-24122086D01*
X6485714Y-24150657D01*
X6500000Y-24207800D01*
X6500000Y-24279229D01*
X6485714Y-24336371D01*
X6471428Y-24364943D01*
X6457143Y-24379229D01*
X6428571Y-24393514D01*
X6400000Y-24393514D01*
X6371428Y-24379229D01*
X6357143Y-24364943D01*
X6342857Y-24336371D01*
X6328571Y-24279229D01*
X6328571Y-24207800D01*
X6342857Y-24150657D01*
X6357143Y-24122086D01*
X6371428Y-24107800D01*
X6400000Y-24093514D01*
X6628571Y-24364943D02*
X6642857Y-24379229D01*
X6628571Y-24393514D01*
X6614286Y-24379229D01*
X6628571Y-24364943D01*
X6628571Y-24393514D01*
X6928571Y-24393514D02*
X6757143Y-24393514D01*
X6842857Y-24393514D02*
X6842857Y-24093514D01*
X6814286Y-24136371D01*
X6785714Y-24164943D01*
X6757143Y-24179229D01*
X7200000Y-24093514D02*
X7057143Y-24093514D01*
X7042857Y-24236371D01*
X7057143Y-24222086D01*
X7085714Y-24207800D01*
X7157143Y-24207800D01*
X7185714Y-24222086D01*
X7200000Y-24236371D01*
X7214286Y-24264943D01*
X7214286Y-24336371D01*
X7200000Y-24364943D01*
X7185714Y-24379229D01*
X7157143Y-24393514D01*
X7085714Y-24393514D01*
X7057143Y-24379229D01*
X7042857Y-24364943D01*
X7314286Y-24093514D02*
X7514286Y-24093514D01*
X7385714Y-24393514D01*
X7614286Y-24093514D02*
X7614286Y-24150657D01*
X7728571Y-24093514D02*
X7728571Y-24150657D01*
X8171428Y-24507800D02*
X8157143Y-24493514D01*
X8128571Y-24450657D01*
X8114286Y-24422086D01*
X8100000Y-24379229D01*
X8085714Y-24307800D01*
X8085714Y-24250657D01*
X8100000Y-24179229D01*
X8114286Y-24136371D01*
X8128571Y-24107800D01*
X8157143Y-24064943D01*
X8171428Y-24050657D01*
X8442857Y-24393514D02*
X8271428Y-24393514D01*
X8357143Y-24393514D02*
X8357143Y-24093514D01*
X8328571Y-24136371D01*
X8300000Y-24164943D01*
X8271428Y-24179229D01*
X8628571Y-24093514D02*
X8657143Y-24093514D01*
X8685714Y-24107800D01*
X8700000Y-24122086D01*
X8714286Y-24150657D01*
X8728571Y-24207800D01*
X8728571Y-24279229D01*
X8714286Y-24336371D01*
X8700000Y-24364943D01*
X8685714Y-24379229D01*
X8657143Y-24393514D01*
X8628571Y-24393514D01*
X8600000Y-24379229D01*
X8585714Y-24364943D01*
X8571428Y-24336371D01*
X8557143Y-24279229D01*
X8557143Y-24207800D01*
X8571428Y-24150657D01*
X8585714Y-24122086D01*
X8600000Y-24107800D01*
X8628571Y-24093514D01*
X8828571Y-24093514D02*
X9014286Y-24093514D01*
X8914286Y-24207800D01*
X8957143Y-24207800D01*
X8985714Y-24222086D01*
X9000000Y-24236371D01*
X9014286Y-24264943D01*
X9014286Y-24336371D01*
X9000000Y-24364943D01*
X8985714Y-24379229D01*
X8957143Y-24393514D01*
X8871428Y-24393514D01*
X8842857Y-24379229D01*
X8828571Y-24364943D01*
X9371428Y-24393514D02*
X9371428Y-24093514D01*
X9500000Y-24393514D02*
X9500000Y-24236371D01*
X9485714Y-24207800D01*
X9457143Y-24193514D01*
X9414286Y-24193514D01*
X9385714Y-24207800D01*
X9371428Y-24222086D01*
X9685714Y-24393514D02*
X9657143Y-24379229D01*
X9642857Y-24364943D01*
X9628571Y-24336371D01*
X9628571Y-24250657D01*
X9642857Y-24222086D01*
X9657143Y-24207800D01*
X9685714Y-24193514D01*
X9728571Y-24193514D01*
X9757143Y-24207800D01*
X9771428Y-24222086D01*
X9785714Y-24250657D01*
X9785714Y-24336371D01*
X9771428Y-24364943D01*
X9757143Y-24379229D01*
X9728571Y-24393514D01*
X9685714Y-24393514D01*
X9957143Y-24393514D02*
X9928571Y-24379229D01*
X9914286Y-24350657D01*
X9914286Y-24093514D01*
X10185714Y-24379229D02*
X10157143Y-24393514D01*
X10100000Y-24393514D01*
X10071428Y-24379229D01*
X10057143Y-24350657D01*
X10057143Y-24236371D01*
X10071428Y-24207800D01*
X10100000Y-24193514D01*
X10157143Y-24193514D01*
X10185714Y-24207800D01*
X10200000Y-24236371D01*
X10200000Y-24264943D01*
X10057143Y-24293514D01*
X10314286Y-24379229D02*
X10342857Y-24393514D01*
X10400000Y-24393514D01*
X10428571Y-24379229D01*
X10442857Y-24350657D01*
X10442857Y-24336371D01*
X10428571Y-24307800D01*
X10400000Y-24293514D01*
X10357143Y-24293514D01*
X10328571Y-24279229D01*
X10314286Y-24250657D01*
X10314286Y-24236371D01*
X10328571Y-24207800D01*
X10357143Y-24193514D01*
X10400000Y-24193514D01*
X10428571Y-24207800D01*
X10542857Y-24507800D02*
X10557143Y-24493514D01*
X10585714Y-24450657D01*
X10600000Y-24422086D01*
X10614286Y-24379229D01*
X10628571Y-24307800D01*
X10628571Y-24250657D01*
X10614286Y-24179229D01*
X10600000Y-24136371D01*
X10585714Y-24107800D01*
X10557143Y-24064943D01*
X10542857Y-24050657D01*
X11085714Y-24507800D02*
X11071428Y-24493514D01*
X11042857Y-24450657D01*
X11028571Y-24422086D01*
X11014286Y-24379229D01*
X11000000Y-24307800D01*
X11000000Y-24250657D01*
X11014286Y-24179229D01*
X11028571Y-24136371D01*
X11042857Y-24107800D01*
X11071428Y-24064943D01*
X11085714Y-24050657D01*
X11200000Y-24193514D02*
X11200000Y-24393514D01*
X11200000Y-24222086D02*
X11214286Y-24207800D01*
X11242857Y-24193514D01*
X11285714Y-24193514D01*
X11314286Y-24207800D01*
X11328571Y-24236371D01*
X11328571Y-24393514D01*
X11514286Y-24393514D02*
X11485714Y-24379229D01*
X11471428Y-24364943D01*
X11457143Y-24336371D01*
X11457143Y-24250657D01*
X11471428Y-24222086D01*
X11485714Y-24207800D01*
X11514286Y-24193514D01*
X11557143Y-24193514D01*
X11585714Y-24207800D01*
X11600000Y-24222086D01*
X11614286Y-24250657D01*
X11614286Y-24336371D01*
X11600000Y-24364943D01*
X11585714Y-24379229D01*
X11557143Y-24393514D01*
X11514286Y-24393514D01*
X11700000Y-24193514D02*
X11814286Y-24193514D01*
X11742857Y-24093514D02*
X11742857Y-24350657D01*
X11757143Y-24379229D01*
X11785714Y-24393514D01*
X11814286Y-24393514D01*
X12142857Y-24193514D02*
X12142857Y-24493514D01*
X12142857Y-24207800D02*
X12171428Y-24193514D01*
X12228571Y-24193514D01*
X12257143Y-24207800D01*
X12271428Y-24222086D01*
X12285714Y-24250657D01*
X12285714Y-24336371D01*
X12271428Y-24364943D01*
X12257143Y-24379229D01*
X12228571Y-24393514D01*
X12171428Y-24393514D01*
X12142857Y-24379229D01*
X12457143Y-24393514D02*
X12428571Y-24379229D01*
X12414286Y-24350657D01*
X12414286Y-24093514D01*
X12700000Y-24393514D02*
X12700000Y-24236371D01*
X12685714Y-24207800D01*
X12657143Y-24193514D01*
X12600000Y-24193514D01*
X12571428Y-24207800D01*
X12700000Y-24379229D02*
X12671428Y-24393514D01*
X12600000Y-24393514D01*
X12571428Y-24379229D01*
X12557143Y-24350657D01*
X12557143Y-24322086D01*
X12571428Y-24293514D01*
X12600000Y-24279229D01*
X12671428Y-24279229D01*
X12700000Y-24264943D01*
X12800000Y-24193514D02*
X12914286Y-24193514D01*
X12842857Y-24093514D02*
X12842857Y-24350657D01*
X12857143Y-24379229D01*
X12885714Y-24393514D01*
X12914286Y-24393514D01*
X13128571Y-24379229D02*
X13100000Y-24393514D01*
X13042857Y-24393514D01*
X13014286Y-24379229D01*
X13000000Y-24350657D01*
X13000000Y-24236371D01*
X13014286Y-24207800D01*
X13042857Y-24193514D01*
X13100000Y-24193514D01*
X13128571Y-24207800D01*
X13142857Y-24236371D01*
X13142857Y-24264943D01*
X13000000Y-24293514D01*
X13400000Y-24393514D02*
X13400000Y-24093514D01*
X13400000Y-24379229D02*
X13371428Y-24393514D01*
X13314286Y-24393514D01*
X13285714Y-24379229D01*
X13271428Y-24364943D01*
X13257143Y-24336371D01*
X13257143Y-24250657D01*
X13271428Y-24222086D01*
X13285714Y-24207800D01*
X13314286Y-24193514D01*
X13371428Y-24193514D01*
X13400000Y-24207800D01*
X13514286Y-24507800D02*
X13528571Y-24493514D01*
X13557143Y-24450657D01*
X13571428Y-24422086D01*
X13585714Y-24379229D01*
X13600000Y-24307800D01*
X13600000Y-24250657D01*
X13585714Y-24179229D01*
X13571428Y-24136371D01*
X13557143Y-24107800D01*
X13528571Y-24064943D01*
X13514286Y-24050657D01*
M02*
