%FSLAX45Y45*%
G04 Gerber Fmt 4.5, Leading zero omitted, Abs format (unit mm)*
G04 Created by KiCad (PCBNEW (5.1.9)-1) date 2021-05-31 01:16:24*
%MOMM*%
%LPD*%
G01*
G04 APERTURE LIST*
%TA.AperFunction,Profile*%
%ADD10C,0.100000*%
%TD*%
%ADD11C,0.200000*%
%ADD12C,0.300000*%
G04 APERTURE END LIST*
D10*
X38952500Y-6268500D02*
X38952500Y-21278500D01*
X38652500Y-5968500D02*
G75*
G02*
X38952500Y-6268500I0J-300000D01*
G01*
X3492500Y-6268500D02*
G75*
G02*
X3792500Y-5968500I300000J0D01*
G01*
X3792500Y-21578500D02*
G75*
G02*
X3492500Y-21278500I0J300000D01*
G01*
X38952500Y-21278500D02*
G75*
G02*
X38652500Y-21578500I-300000J0D01*
G01*
X3792500Y-5968500D02*
X38652500Y-5968500D01*
X3492500Y-21278500D02*
X3492500Y-6268500D01*
X38652500Y-21578500D02*
X3792500Y-21578500D01*
D11*
X20242500Y-6118499D02*
X20282500Y-6158499D01*
X20282500Y-6118499D02*
X20242500Y-6158499D01*
X21177500Y-6845860D02*
X21217500Y-6885860D01*
X21217500Y-6845860D02*
X21177500Y-6885860D01*
X21227500Y-6580140D02*
X21267500Y-6620140D01*
X21267500Y-6580140D02*
X21227500Y-6620140D01*
X21698126Y-6985887D02*
X21738126Y-7025887D01*
X21738126Y-6985887D02*
X21698126Y-7025887D01*
X21754939Y-7123047D02*
X21794939Y-7163047D01*
X21794939Y-7123047D02*
X21754939Y-7163047D01*
X24405000Y-6856000D02*
X24445000Y-6896000D01*
X24445000Y-6856000D02*
X24405000Y-6896000D01*
X24550000Y-7449100D02*
X24590000Y-7489100D01*
X24590000Y-7449100D02*
X24550000Y-7489100D01*
X29998546Y-6154409D02*
X30038546Y-6194409D01*
X30038546Y-6154409D02*
X29998546Y-6194409D01*
X30362500Y-6853500D02*
X30402500Y-6893500D01*
X30402500Y-6853500D02*
X30362500Y-6893500D01*
X30362500Y-7241000D02*
X30402500Y-7281000D01*
X30402500Y-7241000D02*
X30362500Y-7281000D01*
X34317500Y-9003500D02*
X34357500Y-9043500D01*
X34357500Y-9003500D02*
X34317500Y-9043500D01*
X35241500Y-8124500D02*
X35281500Y-8164500D01*
X35281500Y-8124500D02*
X35241500Y-8164500D01*
X20820500Y-6223500D02*
G75*
G03*
X20820500Y-6223500I-30000J0D01*
G01*
X20810500Y-6253500D02*
X20810500Y-6193500D01*
X20770500Y-6253500D02*
X20770500Y-6193500D01*
X20810500Y-6193500D02*
G75*
G03*
X20770500Y-6193500I-20000J0D01*
G01*
X20770500Y-6253500D02*
G75*
G03*
X20810500Y-6253500I20000J0D01*
G01*
X20820500Y-6641500D02*
G75*
G03*
X20820500Y-6641500I-30000J0D01*
G01*
X20810500Y-6696500D02*
X20810500Y-6586500D01*
X20770500Y-6696500D02*
X20770500Y-6586500D01*
X20810500Y-6586500D02*
G75*
G03*
X20770500Y-6586500I-20000J0D01*
G01*
X20770500Y-6696500D02*
G75*
G03*
X20810500Y-6696500I20000J0D01*
G01*
X21684500Y-6223500D02*
G75*
G03*
X21684500Y-6223500I-30000J0D01*
G01*
X21674500Y-6253500D02*
X21674500Y-6193500D01*
X21634500Y-6253500D02*
X21634500Y-6193500D01*
X21674500Y-6193500D02*
G75*
G03*
X21634500Y-6193500I-20000J0D01*
G01*
X21634500Y-6253500D02*
G75*
G03*
X21674500Y-6253500I20000J0D01*
G01*
X21684500Y-6641500D02*
G75*
G03*
X21684500Y-6641500I-30000J0D01*
G01*
X21674500Y-6696500D02*
X21674500Y-6586500D01*
X21634500Y-6696500D02*
X21634500Y-6586500D01*
X21674500Y-6586500D02*
G75*
G03*
X21634500Y-6586500I-20000J0D01*
G01*
X21634500Y-6696500D02*
G75*
G03*
X21674500Y-6696500I20000J0D01*
G01*
X4160500Y-6878500D02*
X4160500Y-6958500D01*
X4120500Y-6918500D02*
X4200500Y-6918500D01*
X4170500Y-7278500D02*
X4170500Y-7358500D01*
X4130500Y-7318500D02*
X4210500Y-7318500D01*
X4170500Y-7678500D02*
X4170500Y-7758500D01*
X4130500Y-7718500D02*
X4210500Y-7718500D01*
X4170500Y-8078500D02*
X4170500Y-8158500D01*
X4130500Y-8118500D02*
X4210500Y-8118500D01*
X4170500Y-8478500D02*
X4170500Y-8558500D01*
X4130500Y-8518500D02*
X4210500Y-8518500D01*
X4170500Y-8878500D02*
X4170500Y-8958500D01*
X4130500Y-8918500D02*
X4210500Y-8918500D01*
X4922500Y-6878500D02*
X4922500Y-6958500D01*
X4882500Y-6918500D02*
X4962500Y-6918500D01*
X4932500Y-7278500D02*
X4932500Y-7358500D01*
X4892500Y-7318500D02*
X4972500Y-7318500D01*
X4932500Y-7678500D02*
X4932500Y-7758500D01*
X4892500Y-7718500D02*
X4972500Y-7718500D01*
X4932500Y-8078500D02*
X4932500Y-8158500D01*
X4892500Y-8118500D02*
X4972500Y-8118500D01*
X4932500Y-8478500D02*
X4932500Y-8558500D01*
X4892500Y-8518500D02*
X4972500Y-8518500D01*
X4932500Y-8878500D02*
X4932500Y-8958500D01*
X4892500Y-8918500D02*
X4972500Y-8918500D01*
X5980500Y-6878500D02*
X5980500Y-6958500D01*
X5940500Y-6918500D02*
X6020500Y-6918500D01*
X5980500Y-7278500D02*
X5980500Y-7358500D01*
X5940500Y-7318500D02*
X6020500Y-7318500D01*
X5980500Y-8478500D02*
X5980500Y-8558500D01*
X5940500Y-8518500D02*
X6020500Y-8518500D01*
X6742500Y-6878500D02*
X6742500Y-6958500D01*
X6702500Y-6918500D02*
X6782500Y-6918500D01*
X6742500Y-7278500D02*
X6742500Y-7358500D01*
X6702500Y-7318500D02*
X6782500Y-7318500D01*
X6742500Y-8478500D02*
X6742500Y-8558500D01*
X6702500Y-8518500D02*
X6782500Y-8518500D01*
X7790500Y-7278500D02*
X7790500Y-7358500D01*
X7750500Y-7318500D02*
X7830500Y-7318500D01*
X7790500Y-7678500D02*
X7790500Y-7758500D01*
X7750500Y-7718500D02*
X7830500Y-7718500D01*
X7790500Y-8078500D02*
X7790500Y-8158500D01*
X7750500Y-8118500D02*
X7830500Y-8118500D01*
X7790500Y-8478500D02*
X7790500Y-8558500D01*
X7750500Y-8518500D02*
X7830500Y-8518500D01*
X7790500Y-8878500D02*
X7790500Y-8958500D01*
X7750500Y-8918500D02*
X7830500Y-8918500D01*
X8552500Y-7278500D02*
X8552500Y-7358500D01*
X8512500Y-7318500D02*
X8592500Y-7318500D01*
X8552500Y-7678500D02*
X8552500Y-7758500D01*
X8512500Y-7718500D02*
X8592500Y-7718500D01*
X8552500Y-8078500D02*
X8552500Y-8158500D01*
X8512500Y-8118500D02*
X8592500Y-8118500D01*
X8552500Y-8478500D02*
X8552500Y-8558500D01*
X8512500Y-8518500D02*
X8592500Y-8518500D01*
X8552500Y-8878500D02*
X8552500Y-8958500D01*
X8512500Y-8918500D02*
X8592500Y-8918500D01*
X9600500Y-6878500D02*
X9600500Y-6958500D01*
X9560500Y-6918500D02*
X9640500Y-6918500D01*
X9600500Y-7278500D02*
X9600500Y-7358500D01*
X9560500Y-7318500D02*
X9640500Y-7318500D01*
X9600500Y-7678500D02*
X9600500Y-7758500D01*
X9560500Y-7718500D02*
X9640500Y-7718500D01*
X9600500Y-8078500D02*
X9600500Y-8158500D01*
X9560500Y-8118500D02*
X9640500Y-8118500D01*
X9600500Y-8478500D02*
X9600500Y-8558500D01*
X9560500Y-8518500D02*
X9640500Y-8518500D01*
X9600500Y-8878500D02*
X9600500Y-8958500D01*
X9560500Y-8918500D02*
X9640500Y-8918500D01*
X10362500Y-6878500D02*
X10362500Y-6958500D01*
X10322500Y-6918500D02*
X10402500Y-6918500D01*
X10362500Y-7278500D02*
X10362500Y-7358500D01*
X10322500Y-7318500D02*
X10402500Y-7318500D01*
X10362500Y-7678500D02*
X10362500Y-7758500D01*
X10322500Y-7718500D02*
X10402500Y-7718500D01*
X10362500Y-8078500D02*
X10362500Y-8158500D01*
X10322500Y-8118500D02*
X10402500Y-8118500D01*
X10362500Y-8478500D02*
X10362500Y-8558500D01*
X10322500Y-8518500D02*
X10402500Y-8518500D01*
X10362500Y-8878500D02*
X10362500Y-8958500D01*
X10322500Y-8918500D02*
X10402500Y-8918500D01*
X11410500Y-7278500D02*
X11410500Y-7358500D01*
X11370500Y-7318500D02*
X11450500Y-7318500D01*
X11410500Y-7678500D02*
X11410500Y-7758500D01*
X11370500Y-7718500D02*
X11450500Y-7718500D01*
X11410500Y-8078500D02*
X11410500Y-8158500D01*
X11370500Y-8118500D02*
X11450500Y-8118500D01*
X11410500Y-8478500D02*
X11410500Y-8558500D01*
X11370500Y-8518500D02*
X11450500Y-8518500D01*
X11410500Y-8878500D02*
X11410500Y-8958500D01*
X11370500Y-8918500D02*
X11450500Y-8918500D01*
X12172500Y-7278500D02*
X12172500Y-7358500D01*
X12132500Y-7318500D02*
X12212500Y-7318500D01*
X12172500Y-7678500D02*
X12172500Y-7758500D01*
X12132500Y-7718500D02*
X12212500Y-7718500D01*
X12172500Y-8078500D02*
X12172500Y-8158500D01*
X12132500Y-8118500D02*
X12212500Y-8118500D01*
X12172500Y-8478500D02*
X12172500Y-8558500D01*
X12132500Y-8518500D02*
X12212500Y-8518500D01*
X12172500Y-8878500D02*
X12172500Y-8958500D01*
X12132500Y-8918500D02*
X12212500Y-8918500D01*
X13215500Y-8478500D02*
X13215500Y-8558500D01*
X13175500Y-8518500D02*
X13255500Y-8518500D01*
X13215500Y-8878500D02*
X13215500Y-8958500D01*
X13175500Y-8918500D02*
X13255500Y-8918500D01*
X13220500Y-7278500D02*
X13220500Y-7358500D01*
X13180500Y-7318500D02*
X13260500Y-7318500D01*
X13220500Y-7678500D02*
X13220500Y-7758500D01*
X13180500Y-7718500D02*
X13260500Y-7718500D01*
X13220500Y-8078500D02*
X13220500Y-8158500D01*
X13180500Y-8118500D02*
X13260500Y-8118500D01*
X13977500Y-8478500D02*
X13977500Y-8558500D01*
X13937500Y-8518500D02*
X14017500Y-8518500D01*
X13977500Y-8878500D02*
X13977500Y-8958500D01*
X13937500Y-8918500D02*
X14017500Y-8918500D01*
X13982500Y-7278500D02*
X13982500Y-7358500D01*
X13942500Y-7318500D02*
X14022500Y-7318500D01*
X13982500Y-7678500D02*
X13982500Y-7758500D01*
X13942500Y-7718500D02*
X14022500Y-7718500D01*
X13982500Y-8078500D02*
X13982500Y-8158500D01*
X13942500Y-8118500D02*
X14022500Y-8118500D01*
X15020500Y-6878500D02*
X15020500Y-6958500D01*
X14980500Y-6918500D02*
X15060500Y-6918500D01*
X15020500Y-7278500D02*
X15020500Y-7358500D01*
X14980500Y-7318500D02*
X15060500Y-7318500D01*
X15020500Y-7678500D02*
X15020500Y-7758500D01*
X14980500Y-7718500D02*
X15060500Y-7718500D01*
X15020500Y-8078500D02*
X15020500Y-8158500D01*
X14980500Y-8118500D02*
X15060500Y-8118500D01*
X15024500Y-8478500D02*
X15024500Y-8558500D01*
X14984500Y-8518500D02*
X15064500Y-8518500D01*
X15782500Y-6878500D02*
X15782500Y-6958500D01*
X15742500Y-6918500D02*
X15822500Y-6918500D01*
X15782500Y-7278500D02*
X15782500Y-7358500D01*
X15742500Y-7318500D02*
X15822500Y-7318500D01*
X15782500Y-7678500D02*
X15782500Y-7758500D01*
X15742500Y-7718500D02*
X15822500Y-7718500D01*
X15782500Y-8078500D02*
X15782500Y-8158500D01*
X15742500Y-8118500D02*
X15822500Y-8118500D01*
X15786500Y-8478500D02*
X15786500Y-8558500D01*
X15746500Y-8518500D02*
X15826500Y-8518500D01*
X16830500Y-7278500D02*
X16830500Y-7358500D01*
X16790500Y-7318500D02*
X16870500Y-7318500D01*
X16830500Y-7678500D02*
X16830500Y-7758500D01*
X16790500Y-7718500D02*
X16870500Y-7718500D01*
X16830500Y-8078500D02*
X16830500Y-8158500D01*
X16790500Y-8118500D02*
X16870500Y-8118500D01*
X16833500Y-8478500D02*
X16833500Y-8558500D01*
X16793500Y-8518500D02*
X16873500Y-8518500D01*
X16834500Y-8878500D02*
X16834500Y-8958500D01*
X16794500Y-8918500D02*
X16874500Y-8918500D01*
X17592500Y-7278500D02*
X17592500Y-7358500D01*
X17552500Y-7318500D02*
X17632500Y-7318500D01*
X17592500Y-7678500D02*
X17592500Y-7758500D01*
X17552500Y-7718500D02*
X17632500Y-7718500D01*
X17592500Y-8078500D02*
X17592500Y-8158500D01*
X17552500Y-8118500D02*
X17632500Y-8118500D01*
X17595500Y-8478500D02*
X17595500Y-8558500D01*
X17555500Y-8518500D02*
X17635500Y-8518500D01*
X17596500Y-8878500D02*
X17596500Y-8958500D01*
X17556500Y-8918500D02*
X17636500Y-8918500D01*
X18640500Y-7278500D02*
X18640500Y-7358500D01*
X18600500Y-7318500D02*
X18680500Y-7318500D01*
X18640500Y-7678500D02*
X18640500Y-7758500D01*
X18600500Y-7718500D02*
X18680500Y-7718500D01*
X18640500Y-8078500D02*
X18640500Y-8158500D01*
X18600500Y-8118500D02*
X18680500Y-8118500D01*
X18640500Y-8478500D02*
X18640500Y-8558500D01*
X18600500Y-8518500D02*
X18680500Y-8518500D01*
X18640500Y-8878500D02*
X18640500Y-8958500D01*
X18600500Y-8918500D02*
X18680500Y-8918500D01*
X19402500Y-7278500D02*
X19402500Y-7358500D01*
X19362500Y-7318500D02*
X19442500Y-7318500D01*
X19402500Y-7678500D02*
X19402500Y-7758500D01*
X19362500Y-7718500D02*
X19442500Y-7718500D01*
X19402500Y-8078500D02*
X19402500Y-8158500D01*
X19362500Y-8118500D02*
X19442500Y-8118500D01*
X19402500Y-8478500D02*
X19402500Y-8558500D01*
X19362500Y-8518500D02*
X19442500Y-8518500D01*
X19402500Y-8878500D02*
X19402500Y-8958500D01*
X19362500Y-8918500D02*
X19442500Y-8918500D01*
X20450500Y-7278500D02*
X20450500Y-7358500D01*
X20410500Y-7318500D02*
X20490500Y-7318500D01*
X20450500Y-7678500D02*
X20450500Y-7758500D01*
X20410500Y-7718500D02*
X20490500Y-7718500D01*
X20450500Y-8078500D02*
X20450500Y-8158500D01*
X20410500Y-8118500D02*
X20490500Y-8118500D01*
X20450500Y-8478500D02*
X20450500Y-8558500D01*
X20410500Y-8518500D02*
X20490500Y-8518500D01*
X20450500Y-8878500D02*
X20450500Y-8958500D01*
X20410500Y-8918500D02*
X20490500Y-8918500D01*
X21212500Y-7278500D02*
X21212500Y-7358500D01*
X21172500Y-7318500D02*
X21252500Y-7318500D01*
X21212500Y-7678500D02*
X21212500Y-7758500D01*
X21172500Y-7718500D02*
X21252500Y-7718500D01*
X21212500Y-8078500D02*
X21212500Y-8158500D01*
X21172500Y-8118500D02*
X21252500Y-8118500D01*
X21212500Y-8478500D02*
X21212500Y-8558500D01*
X21172500Y-8518500D02*
X21252500Y-8518500D01*
X21212500Y-8878500D02*
X21212500Y-8958500D01*
X21172500Y-8918500D02*
X21252500Y-8918500D01*
X22260500Y-6878500D02*
X22260500Y-6958500D01*
X22220500Y-6918500D02*
X22300500Y-6918500D01*
X22260500Y-7278500D02*
X22260500Y-7358500D01*
X22220500Y-7318500D02*
X22300500Y-7318500D01*
X22260500Y-7678500D02*
X22260500Y-7758500D01*
X22220500Y-7718500D02*
X22300500Y-7718500D01*
X22260500Y-8078500D02*
X22260500Y-8158500D01*
X22220500Y-8118500D02*
X22300500Y-8118500D01*
X22260500Y-8478500D02*
X22260500Y-8558500D01*
X22220500Y-8518500D02*
X22300500Y-8518500D01*
X22260500Y-8878500D02*
X22260500Y-8958500D01*
X22220500Y-8918500D02*
X22300500Y-8918500D01*
X23022500Y-6878500D02*
X23022500Y-6958500D01*
X22982500Y-6918500D02*
X23062500Y-6918500D01*
X23022500Y-7278500D02*
X23022500Y-7358500D01*
X22982500Y-7318500D02*
X23062500Y-7318500D01*
X23022500Y-7678500D02*
X23022500Y-7758500D01*
X22982500Y-7718500D02*
X23062500Y-7718500D01*
X23022500Y-8078500D02*
X23022500Y-8158500D01*
X22982500Y-8118500D02*
X23062500Y-8118500D01*
X23022500Y-8478500D02*
X23022500Y-8558500D01*
X22982500Y-8518500D02*
X23062500Y-8518500D01*
X23022500Y-8878500D02*
X23022500Y-8958500D01*
X22982500Y-8918500D02*
X23062500Y-8918500D01*
X29885500Y-6628500D02*
X29885500Y-6708500D01*
X29845500Y-6668500D02*
X29925500Y-6668500D01*
X29885500Y-7023500D02*
X29885500Y-7103500D01*
X29845500Y-7063500D02*
X29925500Y-7063500D01*
X29885500Y-7418500D02*
X29885500Y-7498500D01*
X29845500Y-7458500D02*
X29925500Y-7458500D01*
X29885500Y-7813500D02*
X29885500Y-7893500D01*
X29845500Y-7853500D02*
X29925500Y-7853500D01*
X29885500Y-8208500D02*
X29885500Y-8288500D01*
X29845500Y-8248500D02*
X29925500Y-8248500D01*
X29885500Y-8603500D02*
X29885500Y-8683500D01*
X29845500Y-8643500D02*
X29925500Y-8643500D01*
X30647500Y-6628500D02*
X30647500Y-6708500D01*
X30607500Y-6668500D02*
X30687500Y-6668500D01*
X30647500Y-7023500D02*
X30647500Y-7103500D01*
X30607500Y-7063500D02*
X30687500Y-7063500D01*
X30647500Y-7418500D02*
X30647500Y-7498500D01*
X30607500Y-7458500D02*
X30687500Y-7458500D01*
X30647500Y-7813500D02*
X30647500Y-7893500D01*
X30607500Y-7853500D02*
X30687500Y-7853500D01*
X30647500Y-8208500D02*
X30647500Y-8288500D01*
X30607500Y-8248500D02*
X30687500Y-8248500D01*
X30647500Y-8603500D02*
X30647500Y-8683500D01*
X30607500Y-8643500D02*
X30687500Y-8643500D01*
X31140500Y-7418500D02*
X31140500Y-7498500D01*
X31100500Y-7458500D02*
X31180500Y-7458500D01*
X31140500Y-7813500D02*
X31140500Y-7893500D01*
X31100500Y-7853500D02*
X31180500Y-7853500D01*
X31140500Y-8208500D02*
X31140500Y-8288500D01*
X31100500Y-8248500D02*
X31180500Y-8248500D01*
X31140500Y-8603500D02*
X31140500Y-8683500D01*
X31100500Y-8643500D02*
X31180500Y-8643500D01*
X31902500Y-7418500D02*
X31902500Y-7498500D01*
X31862500Y-7458500D02*
X31942500Y-7458500D01*
X31902500Y-7813500D02*
X31902500Y-7893500D01*
X31862500Y-7853500D02*
X31942500Y-7853500D01*
X31902500Y-8208500D02*
X31902500Y-8288500D01*
X31862500Y-8248500D02*
X31942500Y-8248500D01*
X31902500Y-8603500D02*
X31902500Y-8683500D01*
X31862500Y-8643500D02*
X31942500Y-8643500D01*
X32395500Y-6628500D02*
X32395500Y-6708500D01*
X32355500Y-6668500D02*
X32435500Y-6668500D01*
X32395500Y-7023500D02*
X32395500Y-7103500D01*
X32355500Y-7063500D02*
X32435500Y-7063500D01*
X32395500Y-7418500D02*
X32395500Y-7498500D01*
X32355500Y-7458500D02*
X32435500Y-7458500D01*
X32395500Y-7813500D02*
X32395500Y-7893500D01*
X32355500Y-7853500D02*
X32435500Y-7853500D01*
X32395500Y-8603500D02*
X32395500Y-8683500D01*
X32355500Y-8643500D02*
X32435500Y-8643500D01*
X33157500Y-6628500D02*
X33157500Y-6708500D01*
X33117500Y-6668500D02*
X33197500Y-6668500D01*
X33157500Y-7023500D02*
X33157500Y-7103500D01*
X33117500Y-7063500D02*
X33197500Y-7063500D01*
X33157500Y-7418500D02*
X33157500Y-7498500D01*
X33117500Y-7458500D02*
X33197500Y-7458500D01*
X33157500Y-7813500D02*
X33157500Y-7893500D01*
X33117500Y-7853500D02*
X33197500Y-7853500D01*
X33157500Y-8603500D02*
X33157500Y-8683500D01*
X33117500Y-8643500D02*
X33197500Y-8643500D01*
X33650500Y-6628500D02*
X33650500Y-6708500D01*
X33610500Y-6668500D02*
X33690500Y-6668500D01*
X33650500Y-7418500D02*
X33650500Y-7498500D01*
X33610500Y-7458500D02*
X33690500Y-7458500D01*
X33650500Y-7813500D02*
X33650500Y-7893500D01*
X33610500Y-7853500D02*
X33690500Y-7853500D01*
X33650500Y-8208500D02*
X33650500Y-8288500D01*
X33610500Y-8248500D02*
X33690500Y-8248500D01*
X33650500Y-8603500D02*
X33650500Y-8683500D01*
X33610500Y-8643500D02*
X33690500Y-8643500D01*
X34412500Y-6628500D02*
X34412500Y-6708500D01*
X34372500Y-6668500D02*
X34452500Y-6668500D01*
X34412500Y-7418500D02*
X34412500Y-7498500D01*
X34372500Y-7458500D02*
X34452500Y-7458500D01*
X34412500Y-7813500D02*
X34412500Y-7893500D01*
X34372500Y-7853500D02*
X34452500Y-7853500D01*
X34412500Y-8208500D02*
X34412500Y-8288500D01*
X34372500Y-8248500D02*
X34452500Y-8248500D01*
X34412500Y-8603500D02*
X34412500Y-8683500D01*
X34372500Y-8643500D02*
X34452500Y-8643500D01*
X34905500Y-6628500D02*
X34905500Y-6708500D01*
X34865500Y-6668500D02*
X34945500Y-6668500D01*
X34905500Y-7813500D02*
X34905500Y-7893500D01*
X34865500Y-7853500D02*
X34945500Y-7853500D01*
X34905500Y-8208500D02*
X34905500Y-8288500D01*
X34865500Y-8248500D02*
X34945500Y-8248500D01*
X34905500Y-8603500D02*
X34905500Y-8683500D01*
X34865500Y-8643500D02*
X34945500Y-8643500D01*
X35667500Y-6628500D02*
X35667500Y-6708500D01*
X35627500Y-6668500D02*
X35707500Y-6668500D01*
X35667500Y-7813500D02*
X35667500Y-7893500D01*
X35627500Y-7853500D02*
X35707500Y-7853500D01*
X35667500Y-8208500D02*
X35667500Y-8288500D01*
X35627500Y-8248500D02*
X35707500Y-8248500D01*
X35667500Y-8603500D02*
X35667500Y-8683500D01*
X35627500Y-8643500D02*
X35707500Y-8643500D01*
X36160500Y-6628500D02*
X36160500Y-6708500D01*
X36120500Y-6668500D02*
X36200500Y-6668500D01*
X36160500Y-7023500D02*
X36160500Y-7103500D01*
X36120500Y-7063500D02*
X36200500Y-7063500D01*
X36160500Y-7813500D02*
X36160500Y-7893500D01*
X36120500Y-7853500D02*
X36200500Y-7853500D01*
X36160500Y-8208500D02*
X36160500Y-8288500D01*
X36120500Y-8248500D02*
X36200500Y-8248500D01*
X36160500Y-8603500D02*
X36160500Y-8683500D01*
X36120500Y-8643500D02*
X36200500Y-8643500D01*
X36922500Y-6628500D02*
X36922500Y-6708500D01*
X36882500Y-6668500D02*
X36962500Y-6668500D01*
X36922500Y-7023500D02*
X36922500Y-7103500D01*
X36882500Y-7063500D02*
X36962500Y-7063500D01*
X36922500Y-7813500D02*
X36922500Y-7893500D01*
X36882500Y-7853500D02*
X36962500Y-7853500D01*
X36922500Y-8208500D02*
X36922500Y-8288500D01*
X36882500Y-8248500D02*
X36962500Y-8248500D01*
X36922500Y-8603500D02*
X36922500Y-8683500D01*
X36882500Y-8643500D02*
X36962500Y-8643500D01*
X37415500Y-6628500D02*
X37415500Y-6708500D01*
X37375500Y-6668500D02*
X37455500Y-6668500D01*
X37415500Y-7813500D02*
X37415500Y-7893500D01*
X37375500Y-7853500D02*
X37455500Y-7853500D01*
X37415500Y-8208500D02*
X37415500Y-8288500D01*
X37375500Y-8248500D02*
X37455500Y-8248500D01*
X37415500Y-8603500D02*
X37415500Y-8683500D01*
X37375500Y-8643500D02*
X37455500Y-8643500D01*
X38177500Y-6628500D02*
X38177500Y-6708500D01*
X38137500Y-6668500D02*
X38217500Y-6668500D01*
X38177500Y-7813500D02*
X38177500Y-7893500D01*
X38137500Y-7853500D02*
X38217500Y-7853500D01*
X38177500Y-8208500D02*
X38177500Y-8288500D01*
X38137500Y-8248500D02*
X38217500Y-8248500D01*
X38177500Y-8603500D02*
X38177500Y-8683500D01*
X38137500Y-8643500D02*
X38217500Y-8643500D01*
X24327856Y-7404756D02*
X24327856Y-7334044D01*
X24257144Y-7334044D01*
X24257144Y-7404756D01*
X24327856Y-7404756D01*
X24327856Y-7607956D02*
X24327856Y-7537244D01*
X24257144Y-7537244D01*
X24257144Y-7607956D01*
X24327856Y-7607956D01*
X31445356Y-6229356D02*
X31445356Y-6158644D01*
X31374644Y-6158644D01*
X31374644Y-6229356D01*
X31445356Y-6229356D01*
X31445356Y-6483356D02*
X31445356Y-6412644D01*
X31374644Y-6412644D01*
X31374644Y-6483356D01*
X31445356Y-6483356D01*
X31445356Y-6737356D02*
X31445356Y-6666644D01*
X31374644Y-6666644D01*
X31374644Y-6737356D01*
X31445356Y-6737356D01*
X31445356Y-6991356D02*
X31445356Y-6920644D01*
X31374644Y-6920644D01*
X31374644Y-6991356D01*
X31445356Y-6991356D01*
X24292000Y-6633000D02*
X24343000Y-6582000D01*
X24292000Y-6531000D01*
X24241000Y-6582000D01*
X24292000Y-6633000D01*
X24292000Y-8411000D02*
X24343000Y-8360000D01*
X24292000Y-8309000D01*
X24241000Y-8360000D01*
X24292000Y-8411000D01*
X24546000Y-6633000D02*
X24597000Y-6582000D01*
X24546000Y-6531000D01*
X24495000Y-6582000D01*
X24546000Y-6633000D01*
X24546000Y-8411000D02*
X24597000Y-8360000D01*
X24546000Y-8309000D01*
X24495000Y-8360000D01*
X24546000Y-8411000D01*
X24800000Y-6633000D02*
X24851000Y-6582000D01*
X24800000Y-6531000D01*
X24749000Y-6582000D01*
X24800000Y-6633000D01*
X24800000Y-8411000D02*
X24851000Y-8360000D01*
X24800000Y-8309000D01*
X24749000Y-8360000D01*
X24800000Y-8411000D01*
X25054000Y-6633000D02*
X25105000Y-6582000D01*
X25054000Y-6531000D01*
X25003000Y-6582000D01*
X25054000Y-6633000D01*
X25054000Y-8411000D02*
X25105000Y-8360000D01*
X25054000Y-8309000D01*
X25003000Y-8360000D01*
X25054000Y-8411000D01*
X25308000Y-6633000D02*
X25359000Y-6582000D01*
X25308000Y-6531000D01*
X25257000Y-6582000D01*
X25308000Y-6633000D01*
X25308000Y-8411000D02*
X25359000Y-8360000D01*
X25308000Y-8309000D01*
X25257000Y-8360000D01*
X25308000Y-8411000D01*
X25562000Y-6633000D02*
X25613000Y-6582000D01*
X25562000Y-6531000D01*
X25511000Y-6582000D01*
X25562000Y-6633000D01*
X25562000Y-8411000D02*
X25613000Y-8360000D01*
X25562000Y-8309000D01*
X25511000Y-8360000D01*
X25562000Y-8411000D01*
X25816000Y-6633000D02*
X25867000Y-6582000D01*
X25816000Y-6531000D01*
X25765000Y-6582000D01*
X25816000Y-6633000D01*
X25816000Y-8411000D02*
X25867000Y-8360000D01*
X25816000Y-8309000D01*
X25765000Y-8360000D01*
X25816000Y-8411000D01*
X26070000Y-6633000D02*
X26121000Y-6582000D01*
X26070000Y-6531000D01*
X26019000Y-6582000D01*
X26070000Y-6633000D01*
X26070000Y-8411000D02*
X26121000Y-8360000D01*
X26070000Y-8309000D01*
X26019000Y-8360000D01*
X26070000Y-8411000D01*
X26324000Y-6633000D02*
X26375000Y-6582000D01*
X26324000Y-6531000D01*
X26273000Y-6582000D01*
X26324000Y-6633000D01*
X26324000Y-8411000D02*
X26375000Y-8360000D01*
X26324000Y-8309000D01*
X26273000Y-8360000D01*
X26324000Y-8411000D01*
X26578000Y-6633000D02*
X26629000Y-6582000D01*
X26578000Y-6531000D01*
X26527000Y-6582000D01*
X26578000Y-6633000D01*
X26578000Y-8411000D02*
X26629000Y-8360000D01*
X26578000Y-8309000D01*
X26527000Y-8360000D01*
X26578000Y-8411000D01*
X26832000Y-6633000D02*
X26883000Y-6582000D01*
X26832000Y-6531000D01*
X26781000Y-6582000D01*
X26832000Y-6633000D01*
X26832000Y-8411000D02*
X26883000Y-8360000D01*
X26832000Y-8309000D01*
X26781000Y-8360000D01*
X26832000Y-8411000D01*
X27086000Y-6633000D02*
X27137000Y-6582000D01*
X27086000Y-6531000D01*
X27035000Y-6582000D01*
X27086000Y-6633000D01*
X27086000Y-8411000D02*
X27137000Y-8360000D01*
X27086000Y-8309000D01*
X27035000Y-8360000D01*
X27086000Y-8411000D01*
X27340000Y-6633000D02*
X27391000Y-6582000D01*
X27340000Y-6531000D01*
X27289000Y-6582000D01*
X27340000Y-6633000D01*
X27340000Y-8411000D02*
X27391000Y-8360000D01*
X27340000Y-8309000D01*
X27289000Y-8360000D01*
X27340000Y-8411000D01*
X27594000Y-6633000D02*
X27645000Y-6582000D01*
X27594000Y-6531000D01*
X27543000Y-6582000D01*
X27594000Y-6633000D01*
X27594000Y-8411000D02*
X27645000Y-8360000D01*
X27594000Y-8309000D01*
X27543000Y-8360000D01*
X27594000Y-8411000D01*
X27848000Y-6633000D02*
X27899000Y-6582000D01*
X27848000Y-6531000D01*
X27797000Y-6582000D01*
X27848000Y-6633000D01*
X27848000Y-8411000D02*
X27899000Y-8360000D01*
X27848000Y-8309000D01*
X27797000Y-8360000D01*
X27848000Y-8411000D01*
X28102000Y-6633000D02*
X28153000Y-6582000D01*
X28102000Y-6531000D01*
X28051000Y-6582000D01*
X28102000Y-6633000D01*
X28102000Y-8411000D02*
X28153000Y-8360000D01*
X28102000Y-8309000D01*
X28051000Y-8360000D01*
X28102000Y-8411000D01*
X28356000Y-6633000D02*
X28407000Y-6582000D01*
X28356000Y-6531000D01*
X28305000Y-6582000D01*
X28356000Y-6633000D01*
X28356000Y-8411000D02*
X28407000Y-8360000D01*
X28356000Y-8309000D01*
X28305000Y-8360000D01*
X28356000Y-8411000D01*
X28610000Y-6633000D02*
X28661000Y-6582000D01*
X28610000Y-6531000D01*
X28559000Y-6582000D01*
X28610000Y-6633000D01*
X28610000Y-8411000D02*
X28661000Y-8360000D01*
X28610000Y-8309000D01*
X28559000Y-8360000D01*
X28610000Y-8411000D01*
X28864000Y-6633000D02*
X28915000Y-6582000D01*
X28864000Y-6531000D01*
X28813000Y-6582000D01*
X28864000Y-6633000D01*
X28864000Y-8411000D02*
X28915000Y-8360000D01*
X28864000Y-8309000D01*
X28813000Y-8360000D01*
X28864000Y-8411000D01*
X29095000Y-7268000D02*
X29146000Y-7217000D01*
X29095000Y-7166000D01*
X29044000Y-7217000D01*
X29095000Y-7268000D01*
X29095000Y-7522000D02*
X29146000Y-7471000D01*
X29095000Y-7420000D01*
X29044000Y-7471000D01*
X29095000Y-7522000D01*
X29095000Y-7776000D02*
X29146000Y-7725000D01*
X29095000Y-7674000D01*
X29044000Y-7725000D01*
X29095000Y-7776000D01*
X29118000Y-6633000D02*
X29169000Y-6582000D01*
X29118000Y-6531000D01*
X29067000Y-6582000D01*
X29118000Y-6633000D01*
X29118000Y-8411000D02*
X29169000Y-8360000D01*
X29118000Y-8309000D01*
X29067000Y-8360000D01*
X29118000Y-8411000D01*
X4218000Y-9851000D02*
X4365000Y-9998000D01*
X4365000Y-9851000D02*
X4218000Y-9998000D01*
X4365000Y-9924500D02*
G75*
G03*
X4365000Y-9924500I-73500J0D01*
G01*
X4218000Y-12708500D02*
X4365000Y-12855500D01*
X4365000Y-12708500D02*
X4218000Y-12855500D01*
X4365000Y-12782000D02*
G75*
G03*
X4365000Y-12782000I-73500J0D01*
G01*
X4456125Y-18423500D02*
X4603125Y-18570500D01*
X4603125Y-18423500D02*
X4456125Y-18570500D01*
X4603125Y-18497000D02*
G75*
G03*
X4603125Y-18497000I-73500J0D01*
G01*
X4456125Y-20328500D02*
X4603125Y-20475500D01*
X4603125Y-20328500D02*
X4456125Y-20475500D01*
X4603125Y-20402000D02*
G75*
G03*
X4603125Y-20402000I-73500J0D01*
G01*
X4694250Y-14613500D02*
X4841250Y-14760500D01*
X4841250Y-14613500D02*
X4694250Y-14760500D01*
X4841250Y-14687000D02*
G75*
G03*
X4841250Y-14687000I-73500J0D01*
G01*
X4853000Y-9597000D02*
X5000000Y-9744000D01*
X5000000Y-9597000D02*
X4853000Y-9744000D01*
X5000000Y-9670500D02*
G75*
G03*
X5000000Y-9670500I-73500J0D01*
G01*
X4853000Y-12454500D02*
X5000000Y-12601500D01*
X5000000Y-12454500D02*
X4853000Y-12601500D01*
X5000000Y-12528000D02*
G75*
G03*
X5000000Y-12528000I-73500J0D01*
G01*
X4932375Y-16518500D02*
X5079375Y-16665500D01*
X5079375Y-16518500D02*
X4932375Y-16665500D01*
X5079375Y-16592000D02*
G75*
G03*
X5079375Y-16592000I-73500J0D01*
G01*
X5091125Y-18169500D02*
X5238125Y-18316500D01*
X5238125Y-18169500D02*
X5091125Y-18316500D01*
X5238125Y-18243000D02*
G75*
G03*
X5238125Y-18243000I-73500J0D01*
G01*
X5091125Y-20074500D02*
X5238125Y-20221500D01*
X5238125Y-20074500D02*
X5091125Y-20221500D01*
X5238125Y-20148000D02*
G75*
G03*
X5238125Y-20148000I-73500J0D01*
G01*
X5329250Y-14359500D02*
X5476250Y-14506500D01*
X5476250Y-14359500D02*
X5329250Y-14506500D01*
X5476250Y-14433000D02*
G75*
G03*
X5476250Y-14433000I-73500J0D01*
G01*
X5410500Y-18423500D02*
X5557500Y-18570500D01*
X5557500Y-18423500D02*
X5410500Y-18570500D01*
X5557500Y-18497000D02*
G75*
G03*
X5557500Y-18497000I-73500J0D01*
G01*
X5567375Y-16264500D02*
X5714375Y-16411500D01*
X5714375Y-16264500D02*
X5567375Y-16411500D01*
X5714375Y-16338000D02*
G75*
G03*
X5714375Y-16338000I-73500J0D01*
G01*
X6045500Y-18169500D02*
X6192500Y-18316500D01*
X6192500Y-18169500D02*
X6045500Y-18316500D01*
X6192500Y-18243000D02*
G75*
G03*
X6192500Y-18243000I-73500J0D01*
G01*
X6123000Y-12708500D02*
X6270000Y-12855500D01*
X6270000Y-12708500D02*
X6123000Y-12855500D01*
X6270000Y-12782000D02*
G75*
G03*
X6270000Y-12782000I-73500J0D01*
G01*
X6599250Y-18423500D02*
X6746250Y-18570500D01*
X6746250Y-18423500D02*
X6599250Y-18570500D01*
X6746250Y-18497000D02*
G75*
G03*
X6746250Y-18497000I-73500J0D01*
G01*
X6758000Y-12454500D02*
X6905000Y-12601500D01*
X6905000Y-12454500D02*
X6758000Y-12601500D01*
X6905000Y-12528000D02*
G75*
G03*
X6905000Y-12528000I-73500J0D01*
G01*
X6837375Y-20328500D02*
X6984375Y-20475500D01*
X6984375Y-20328500D02*
X6837375Y-20475500D01*
X6984375Y-20402000D02*
G75*
G03*
X6984375Y-20402000I-73500J0D01*
G01*
X7075500Y-14613500D02*
X7222500Y-14760500D01*
X7222500Y-14613500D02*
X7075500Y-14760500D01*
X7222500Y-14687000D02*
G75*
G03*
X7222500Y-14687000I-73500J0D01*
G01*
X7234250Y-18169500D02*
X7381250Y-18316500D01*
X7381250Y-18169500D02*
X7234250Y-18316500D01*
X7381250Y-18243000D02*
G75*
G03*
X7381250Y-18243000I-73500J0D01*
G01*
X7472375Y-20074500D02*
X7619375Y-20221500D01*
X7619375Y-20074500D02*
X7472375Y-20221500D01*
X7619375Y-20148000D02*
G75*
G03*
X7619375Y-20148000I-73500J0D01*
G01*
X7551750Y-16518500D02*
X7698750Y-16665500D01*
X7698750Y-16518500D02*
X7551750Y-16665500D01*
X7698750Y-16592000D02*
G75*
G03*
X7698750Y-16592000I-73500J0D01*
G01*
X7710500Y-14359500D02*
X7857500Y-14506500D01*
X7857500Y-14359500D02*
X7710500Y-14506500D01*
X7857500Y-14433000D02*
G75*
G03*
X7857500Y-14433000I-73500J0D01*
G01*
X8028000Y-9851000D02*
X8175000Y-9998000D01*
X8175000Y-9851000D02*
X8028000Y-9998000D01*
X8175000Y-9924500D02*
G75*
G03*
X8175000Y-9924500I-73500J0D01*
G01*
X8028000Y-12708500D02*
X8175000Y-12855500D01*
X8175000Y-12708500D02*
X8028000Y-12855500D01*
X8175000Y-12782000D02*
G75*
G03*
X8175000Y-12782000I-73500J0D01*
G01*
X8186750Y-16264500D02*
X8333750Y-16411500D01*
X8333750Y-16264500D02*
X8186750Y-16411500D01*
X8333750Y-16338000D02*
G75*
G03*
X8333750Y-16338000I-73500J0D01*
G01*
X8504250Y-18423500D02*
X8651250Y-18570500D01*
X8651250Y-18423500D02*
X8504250Y-18570500D01*
X8651250Y-18497000D02*
G75*
G03*
X8651250Y-18497000I-73500J0D01*
G01*
X8663000Y-9597000D02*
X8810000Y-9744000D01*
X8810000Y-9597000D02*
X8663000Y-9744000D01*
X8810000Y-9670500D02*
G75*
G03*
X8810000Y-9670500I-73500J0D01*
G01*
X8663000Y-12454500D02*
X8810000Y-12601500D01*
X8810000Y-12454500D02*
X8663000Y-12601500D01*
X8810000Y-12528000D02*
G75*
G03*
X8810000Y-12528000I-73500J0D01*
G01*
X8980500Y-14613500D02*
X9127500Y-14760500D01*
X9127500Y-14613500D02*
X8980500Y-14760500D01*
X9127500Y-14687000D02*
G75*
G03*
X9127500Y-14687000I-73500J0D01*
G01*
X9139250Y-18169500D02*
X9286250Y-18316500D01*
X9286250Y-18169500D02*
X9139250Y-18316500D01*
X9286250Y-18243000D02*
G75*
G03*
X9286250Y-18243000I-73500J0D01*
G01*
X9218625Y-20328500D02*
X9365625Y-20475500D01*
X9365625Y-20328500D02*
X9218625Y-20475500D01*
X9365625Y-20402000D02*
G75*
G03*
X9365625Y-20402000I-73500J0D01*
G01*
X9456750Y-16518500D02*
X9603750Y-16665500D01*
X9603750Y-16518500D02*
X9456750Y-16665500D01*
X9603750Y-16592000D02*
G75*
G03*
X9603750Y-16592000I-73500J0D01*
G01*
X9615500Y-14359500D02*
X9762500Y-14506500D01*
X9762500Y-14359500D02*
X9615500Y-14506500D01*
X9762500Y-14433000D02*
G75*
G03*
X9762500Y-14433000I-73500J0D01*
G01*
X9853625Y-20074500D02*
X10000625Y-20221500D01*
X10000625Y-20074500D02*
X9853625Y-20221500D01*
X10000625Y-20148000D02*
G75*
G03*
X10000625Y-20148000I-73500J0D01*
G01*
X9933000Y-9851000D02*
X10080000Y-9998000D01*
X10080000Y-9851000D02*
X9933000Y-9998000D01*
X10080000Y-9924500D02*
G75*
G03*
X10080000Y-9924500I-73500J0D01*
G01*
X9933000Y-12708500D02*
X10080000Y-12855500D01*
X10080000Y-12708500D02*
X9933000Y-12855500D01*
X10080000Y-12782000D02*
G75*
G03*
X10080000Y-12782000I-73500J0D01*
G01*
X10091750Y-16264500D02*
X10238750Y-16411500D01*
X10238750Y-16264500D02*
X10091750Y-16411500D01*
X10238750Y-16338000D02*
G75*
G03*
X10238750Y-16338000I-73500J0D01*
G01*
X10409250Y-18423500D02*
X10556250Y-18570500D01*
X10556250Y-18423500D02*
X10409250Y-18570500D01*
X10556250Y-18497000D02*
G75*
G03*
X10556250Y-18497000I-73500J0D01*
G01*
X10568000Y-9597000D02*
X10715000Y-9744000D01*
X10715000Y-9597000D02*
X10568000Y-9744000D01*
X10715000Y-9670500D02*
G75*
G03*
X10715000Y-9670500I-73500J0D01*
G01*
X10568000Y-12454500D02*
X10715000Y-12601500D01*
X10715000Y-12454500D02*
X10568000Y-12601500D01*
X10715000Y-12528000D02*
G75*
G03*
X10715000Y-12528000I-73500J0D01*
G01*
X10885500Y-14613500D02*
X11032500Y-14760500D01*
X11032500Y-14613500D02*
X10885500Y-14760500D01*
X11032500Y-14687000D02*
G75*
G03*
X11032500Y-14687000I-73500J0D01*
G01*
X11044250Y-18169500D02*
X11191250Y-18316500D01*
X11191250Y-18169500D02*
X11044250Y-18316500D01*
X11191250Y-18243000D02*
G75*
G03*
X11191250Y-18243000I-73500J0D01*
G01*
X11361750Y-16518500D02*
X11508750Y-16665500D01*
X11508750Y-16518500D02*
X11361750Y-16665500D01*
X11508750Y-16592000D02*
G75*
G03*
X11508750Y-16592000I-73500J0D01*
G01*
X11520500Y-14359500D02*
X11667500Y-14506500D01*
X11667500Y-14359500D02*
X11520500Y-14506500D01*
X11667500Y-14433000D02*
G75*
G03*
X11667500Y-14433000I-73500J0D01*
G01*
X11838000Y-9851000D02*
X11985000Y-9998000D01*
X11985000Y-9851000D02*
X11838000Y-9998000D01*
X11985000Y-9924500D02*
G75*
G03*
X11985000Y-9924500I-73500J0D01*
G01*
X11838000Y-12708500D02*
X11985000Y-12855500D01*
X11985000Y-12708500D02*
X11838000Y-12855500D01*
X11985000Y-12782000D02*
G75*
G03*
X11985000Y-12782000I-73500J0D01*
G01*
X11996750Y-16264500D02*
X12143750Y-16411500D01*
X12143750Y-16264500D02*
X11996750Y-16411500D01*
X12143750Y-16338000D02*
G75*
G03*
X12143750Y-16338000I-73500J0D01*
G01*
X12314250Y-18423500D02*
X12461250Y-18570500D01*
X12461250Y-18423500D02*
X12314250Y-18570500D01*
X12461250Y-18497000D02*
G75*
G03*
X12461250Y-18497000I-73500J0D01*
G01*
X12473000Y-9597000D02*
X12620000Y-9744000D01*
X12620000Y-9597000D02*
X12473000Y-9744000D01*
X12620000Y-9670500D02*
G75*
G03*
X12620000Y-9670500I-73500J0D01*
G01*
X12473000Y-12454500D02*
X12620000Y-12601500D01*
X12620000Y-12454500D02*
X12473000Y-12601500D01*
X12620000Y-12528000D02*
G75*
G03*
X12620000Y-12528000I-73500J0D01*
G01*
X12790500Y-14613500D02*
X12937500Y-14760500D01*
X12937500Y-14613500D02*
X12790500Y-14760500D01*
X12937500Y-14687000D02*
G75*
G03*
X12937500Y-14687000I-73500J0D01*
G01*
X12949250Y-18169500D02*
X13096250Y-18316500D01*
X13096250Y-18169500D02*
X12949250Y-18316500D01*
X13096250Y-18243000D02*
G75*
G03*
X13096250Y-18243000I-73500J0D01*
G01*
X13266750Y-16518500D02*
X13413750Y-16665500D01*
X13413750Y-16518500D02*
X13266750Y-16665500D01*
X13413750Y-16592000D02*
G75*
G03*
X13413750Y-16592000I-73500J0D01*
G01*
X13425500Y-14359500D02*
X13572500Y-14506500D01*
X13572500Y-14359500D02*
X13425500Y-14506500D01*
X13572500Y-14433000D02*
G75*
G03*
X13572500Y-14433000I-73500J0D01*
G01*
X13743000Y-9851000D02*
X13890000Y-9998000D01*
X13890000Y-9851000D02*
X13743000Y-9998000D01*
X13890000Y-9924500D02*
G75*
G03*
X13890000Y-9924500I-73500J0D01*
G01*
X13743000Y-12708500D02*
X13890000Y-12855500D01*
X13890000Y-12708500D02*
X13743000Y-12855500D01*
X13890000Y-12782000D02*
G75*
G03*
X13890000Y-12782000I-73500J0D01*
G01*
X13901750Y-16264500D02*
X14048750Y-16411500D01*
X14048750Y-16264500D02*
X13901750Y-16411500D01*
X14048750Y-16338000D02*
G75*
G03*
X14048750Y-16338000I-73500J0D01*
G01*
X14219250Y-18423500D02*
X14366250Y-18570500D01*
X14366250Y-18423500D02*
X14219250Y-18570500D01*
X14366250Y-18497000D02*
G75*
G03*
X14366250Y-18497000I-73500J0D01*
G01*
X14378000Y-9597000D02*
X14525000Y-9744000D01*
X14525000Y-9597000D02*
X14378000Y-9744000D01*
X14525000Y-9670500D02*
G75*
G03*
X14525000Y-9670500I-73500J0D01*
G01*
X14378000Y-12454500D02*
X14525000Y-12601500D01*
X14525000Y-12454500D02*
X14378000Y-12601500D01*
X14525000Y-12528000D02*
G75*
G03*
X14525000Y-12528000I-73500J0D01*
G01*
X14695500Y-14613500D02*
X14842500Y-14760500D01*
X14842500Y-14613500D02*
X14695500Y-14760500D01*
X14842500Y-14687000D02*
G75*
G03*
X14842500Y-14687000I-73500J0D01*
G01*
X14854250Y-18169500D02*
X15001250Y-18316500D01*
X15001250Y-18169500D02*
X14854250Y-18316500D01*
X15001250Y-18243000D02*
G75*
G03*
X15001250Y-18243000I-73500J0D01*
G01*
X15171750Y-16518500D02*
X15318750Y-16665500D01*
X15318750Y-16518500D02*
X15171750Y-16665500D01*
X15318750Y-16592000D02*
G75*
G03*
X15318750Y-16592000I-73500J0D01*
G01*
X15330500Y-14359500D02*
X15477500Y-14506500D01*
X15477500Y-14359500D02*
X15330500Y-14506500D01*
X15477500Y-14433000D02*
G75*
G03*
X15477500Y-14433000I-73500J0D01*
G01*
X15648000Y-12708500D02*
X15795000Y-12855500D01*
X15795000Y-12708500D02*
X15648000Y-12855500D01*
X15795000Y-12782000D02*
G75*
G03*
X15795000Y-12782000I-73500J0D01*
G01*
X15806750Y-16264500D02*
X15953750Y-16411500D01*
X15953750Y-16264500D02*
X15806750Y-16411500D01*
X15953750Y-16338000D02*
G75*
G03*
X15953750Y-16338000I-73500J0D01*
G01*
X16124250Y-18423500D02*
X16271250Y-18570500D01*
X16271250Y-18423500D02*
X16124250Y-18570500D01*
X16271250Y-18497000D02*
G75*
G03*
X16271250Y-18497000I-73500J0D01*
G01*
X16283000Y-12454500D02*
X16430000Y-12601500D01*
X16430000Y-12454500D02*
X16283000Y-12601500D01*
X16430000Y-12528000D02*
G75*
G03*
X16430000Y-12528000I-73500J0D01*
G01*
X16362375Y-20328500D02*
X16509375Y-20475500D01*
X16509375Y-20328500D02*
X16362375Y-20475500D01*
X16509375Y-20402000D02*
G75*
G03*
X16509375Y-20402000I-73500J0D01*
G01*
X16600500Y-9851000D02*
X16747500Y-9998000D01*
X16747500Y-9851000D02*
X16600500Y-9998000D01*
X16747500Y-9924500D02*
G75*
G03*
X16747500Y-9924500I-73500J0D01*
G01*
X16600500Y-14613500D02*
X16747500Y-14760500D01*
X16747500Y-14613500D02*
X16600500Y-14760500D01*
X16747500Y-14687000D02*
G75*
G03*
X16747500Y-14687000I-73500J0D01*
G01*
X16759250Y-18169500D02*
X16906250Y-18316500D01*
X16906250Y-18169500D02*
X16759250Y-18316500D01*
X16906250Y-18243000D02*
G75*
G03*
X16906250Y-18243000I-73500J0D01*
G01*
X16997375Y-20074500D02*
X17144375Y-20221500D01*
X17144375Y-20074500D02*
X16997375Y-20221500D01*
X17144375Y-20148000D02*
G75*
G03*
X17144375Y-20148000I-73500J0D01*
G01*
X17076750Y-16518500D02*
X17223750Y-16665500D01*
X17223750Y-16518500D02*
X17076750Y-16665500D01*
X17223750Y-16592000D02*
G75*
G03*
X17223750Y-16592000I-73500J0D01*
G01*
X17235500Y-9597000D02*
X17382500Y-9744000D01*
X17382500Y-9597000D02*
X17235500Y-9744000D01*
X17382500Y-9670500D02*
G75*
G03*
X17382500Y-9670500I-73500J0D01*
G01*
X17235500Y-14359500D02*
X17382500Y-14506500D01*
X17382500Y-14359500D02*
X17235500Y-14506500D01*
X17382500Y-14433000D02*
G75*
G03*
X17382500Y-14433000I-73500J0D01*
G01*
X17553000Y-12708500D02*
X17700000Y-12855500D01*
X17700000Y-12708500D02*
X17553000Y-12855500D01*
X17700000Y-12782000D02*
G75*
G03*
X17700000Y-12782000I-73500J0D01*
G01*
X17711750Y-16264500D02*
X17858750Y-16411500D01*
X17858750Y-16264500D02*
X17711750Y-16411500D01*
X17858750Y-16338000D02*
G75*
G03*
X17858750Y-16338000I-73500J0D01*
G01*
X18029250Y-18423500D02*
X18176250Y-18570500D01*
X18176250Y-18423500D02*
X18029250Y-18570500D01*
X18176250Y-18497000D02*
G75*
G03*
X18176250Y-18497000I-73500J0D01*
G01*
X18188000Y-12454500D02*
X18335000Y-12601500D01*
X18335000Y-12454500D02*
X18188000Y-12601500D01*
X18335000Y-12528000D02*
G75*
G03*
X18335000Y-12528000I-73500J0D01*
G01*
X18505500Y-9851000D02*
X18652500Y-9998000D01*
X18652500Y-9851000D02*
X18505500Y-9998000D01*
X18652500Y-9924500D02*
G75*
G03*
X18652500Y-9924500I-73500J0D01*
G01*
X18505500Y-14613500D02*
X18652500Y-14760500D01*
X18652500Y-14613500D02*
X18505500Y-14760500D01*
X18652500Y-14687000D02*
G75*
G03*
X18652500Y-14687000I-73500J0D01*
G01*
X18664250Y-18169500D02*
X18811250Y-18316500D01*
X18811250Y-18169500D02*
X18664250Y-18316500D01*
X18811250Y-18243000D02*
G75*
G03*
X18811250Y-18243000I-73500J0D01*
G01*
X18981750Y-16518500D02*
X19128750Y-16665500D01*
X19128750Y-16518500D02*
X18981750Y-16665500D01*
X19128750Y-16592000D02*
G75*
G03*
X19128750Y-16592000I-73500J0D01*
G01*
X19140500Y-9597000D02*
X19287500Y-9744000D01*
X19287500Y-9597000D02*
X19140500Y-9744000D01*
X19287500Y-9670500D02*
G75*
G03*
X19287500Y-9670500I-73500J0D01*
G01*
X19140500Y-14359500D02*
X19287500Y-14506500D01*
X19287500Y-14359500D02*
X19140500Y-14506500D01*
X19287500Y-14433000D02*
G75*
G03*
X19287500Y-14433000I-73500J0D01*
G01*
X19458000Y-12708500D02*
X19605000Y-12855500D01*
X19605000Y-12708500D02*
X19458000Y-12855500D01*
X19605000Y-12782000D02*
G75*
G03*
X19605000Y-12782000I-73500J0D01*
G01*
X19616750Y-16264500D02*
X19763750Y-16411500D01*
X19763750Y-16264500D02*
X19616750Y-16411500D01*
X19763750Y-16338000D02*
G75*
G03*
X19763750Y-16338000I-73500J0D01*
G01*
X19934250Y-18423500D02*
X20081250Y-18570500D01*
X20081250Y-18423500D02*
X19934250Y-18570500D01*
X20081250Y-18497000D02*
G75*
G03*
X20081250Y-18497000I-73500J0D01*
G01*
X20093000Y-12454500D02*
X20240000Y-12601500D01*
X20240000Y-12454500D02*
X20093000Y-12601500D01*
X20240000Y-12528000D02*
G75*
G03*
X20240000Y-12528000I-73500J0D01*
G01*
X20410500Y-9851000D02*
X20557500Y-9998000D01*
X20557500Y-9851000D02*
X20410500Y-9998000D01*
X20557500Y-9924500D02*
G75*
G03*
X20557500Y-9924500I-73500J0D01*
G01*
X20410500Y-14613500D02*
X20557500Y-14760500D01*
X20557500Y-14613500D02*
X20410500Y-14760500D01*
X20557500Y-14687000D02*
G75*
G03*
X20557500Y-14687000I-73500J0D01*
G01*
X20569250Y-18169500D02*
X20716250Y-18316500D01*
X20716250Y-18169500D02*
X20569250Y-18316500D01*
X20716250Y-18243000D02*
G75*
G03*
X20716250Y-18243000I-73500J0D01*
G01*
X20886750Y-16518500D02*
X21033750Y-16665500D01*
X21033750Y-16518500D02*
X20886750Y-16665500D01*
X21033750Y-16592000D02*
G75*
G03*
X21033750Y-16592000I-73500J0D01*
G01*
X21045500Y-9597000D02*
X21192500Y-9744000D01*
X21192500Y-9597000D02*
X21045500Y-9744000D01*
X21192500Y-9670500D02*
G75*
G03*
X21192500Y-9670500I-73500J0D01*
G01*
X21045500Y-14359500D02*
X21192500Y-14506500D01*
X21192500Y-14359500D02*
X21045500Y-14506500D01*
X21192500Y-14433000D02*
G75*
G03*
X21192500Y-14433000I-73500J0D01*
G01*
X21363000Y-12708500D02*
X21510000Y-12855500D01*
X21510000Y-12708500D02*
X21363000Y-12855500D01*
X21510000Y-12782000D02*
G75*
G03*
X21510000Y-12782000I-73500J0D01*
G01*
X21521750Y-16264500D02*
X21668750Y-16411500D01*
X21668750Y-16264500D02*
X21521750Y-16411500D01*
X21668750Y-16338000D02*
G75*
G03*
X21668750Y-16338000I-73500J0D01*
G01*
X21839250Y-18423500D02*
X21986250Y-18570500D01*
X21986250Y-18423500D02*
X21839250Y-18570500D01*
X21986250Y-18497000D02*
G75*
G03*
X21986250Y-18497000I-73500J0D01*
G01*
X21998000Y-12454500D02*
X22145000Y-12601500D01*
X22145000Y-12454500D02*
X21998000Y-12601500D01*
X22145000Y-12528000D02*
G75*
G03*
X22145000Y-12528000I-73500J0D01*
G01*
X22315500Y-9851000D02*
X22462500Y-9998000D01*
X22462500Y-9851000D02*
X22315500Y-9998000D01*
X22462500Y-9924500D02*
G75*
G03*
X22462500Y-9924500I-73500J0D01*
G01*
X22315500Y-14613500D02*
X22462500Y-14760500D01*
X22462500Y-14613500D02*
X22315500Y-14760500D01*
X22462500Y-14687000D02*
G75*
G03*
X22462500Y-14687000I-73500J0D01*
G01*
X22474250Y-18169500D02*
X22621250Y-18316500D01*
X22621250Y-18169500D02*
X22474250Y-18316500D01*
X22621250Y-18243000D02*
G75*
G03*
X22621250Y-18243000I-73500J0D01*
G01*
X22791750Y-16518500D02*
X22938750Y-16665500D01*
X22938750Y-16518500D02*
X22791750Y-16665500D01*
X22938750Y-16592000D02*
G75*
G03*
X22938750Y-16592000I-73500J0D01*
G01*
X22950500Y-9597000D02*
X23097500Y-9744000D01*
X23097500Y-9597000D02*
X22950500Y-9744000D01*
X23097500Y-9670500D02*
G75*
G03*
X23097500Y-9670500I-73500J0D01*
G01*
X22950500Y-14359500D02*
X23097500Y-14506500D01*
X23097500Y-14359500D02*
X22950500Y-14506500D01*
X23097500Y-14433000D02*
G75*
G03*
X23097500Y-14433000I-73500J0D01*
G01*
X23268000Y-12708500D02*
X23415000Y-12855500D01*
X23415000Y-12708500D02*
X23268000Y-12855500D01*
X23415000Y-12782000D02*
G75*
G03*
X23415000Y-12782000I-73500J0D01*
G01*
X23426750Y-16264500D02*
X23573750Y-16411500D01*
X23573750Y-16264500D02*
X23426750Y-16411500D01*
X23573750Y-16338000D02*
G75*
G03*
X23573750Y-16338000I-73500J0D01*
G01*
X23506125Y-20328500D02*
X23653125Y-20475500D01*
X23653125Y-20328500D02*
X23506125Y-20475500D01*
X23653125Y-20402000D02*
G75*
G03*
X23653125Y-20402000I-73500J0D01*
G01*
X23744250Y-18423500D02*
X23891250Y-18570500D01*
X23891250Y-18423500D02*
X23744250Y-18570500D01*
X23891250Y-18497000D02*
G75*
G03*
X23891250Y-18497000I-73500J0D01*
G01*
X23903000Y-12454500D02*
X24050000Y-12601500D01*
X24050000Y-12454500D02*
X23903000Y-12601500D01*
X24050000Y-12528000D02*
G75*
G03*
X24050000Y-12528000I-73500J0D01*
G01*
X24141125Y-20074500D02*
X24288125Y-20221500D01*
X24288125Y-20074500D02*
X24141125Y-20221500D01*
X24288125Y-20148000D02*
G75*
G03*
X24288125Y-20148000I-73500J0D01*
G01*
X24220500Y-14613500D02*
X24367500Y-14760500D01*
X24367500Y-14613500D02*
X24220500Y-14760500D01*
X24367500Y-14687000D02*
G75*
G03*
X24367500Y-14687000I-73500J0D01*
G01*
X24379250Y-18169500D02*
X24526250Y-18316500D01*
X24526250Y-18169500D02*
X24379250Y-18316500D01*
X24526250Y-18243000D02*
G75*
G03*
X24526250Y-18243000I-73500J0D01*
G01*
X24696750Y-16518500D02*
X24843750Y-16665500D01*
X24843750Y-16518500D02*
X24696750Y-16665500D01*
X24843750Y-16592000D02*
G75*
G03*
X24843750Y-16592000I-73500J0D01*
G01*
X24855500Y-14359500D02*
X25002500Y-14506500D01*
X25002500Y-14359500D02*
X24855500Y-14506500D01*
X25002500Y-14433000D02*
G75*
G03*
X25002500Y-14433000I-73500J0D01*
G01*
X25173000Y-9851000D02*
X25320000Y-9998000D01*
X25320000Y-9851000D02*
X25173000Y-9998000D01*
X25320000Y-9924500D02*
G75*
G03*
X25320000Y-9924500I-73500J0D01*
G01*
X25173000Y-12708500D02*
X25320000Y-12855500D01*
X25320000Y-12708500D02*
X25173000Y-12855500D01*
X25320000Y-12782000D02*
G75*
G03*
X25320000Y-12782000I-73500J0D01*
G01*
X25331750Y-16264500D02*
X25478750Y-16411500D01*
X25478750Y-16264500D02*
X25331750Y-16411500D01*
X25478750Y-16338000D02*
G75*
G03*
X25478750Y-16338000I-73500J0D01*
G01*
X25649250Y-18423500D02*
X25796250Y-18570500D01*
X25796250Y-18423500D02*
X25649250Y-18570500D01*
X25796250Y-18497000D02*
G75*
G03*
X25796250Y-18497000I-73500J0D01*
G01*
X25808000Y-9597000D02*
X25955000Y-9744000D01*
X25955000Y-9597000D02*
X25808000Y-9744000D01*
X25955000Y-9670500D02*
G75*
G03*
X25955000Y-9670500I-73500J0D01*
G01*
X25808000Y-12454500D02*
X25955000Y-12601500D01*
X25955000Y-12454500D02*
X25808000Y-12601500D01*
X25955000Y-12528000D02*
G75*
G03*
X25955000Y-12528000I-73500J0D01*
G01*
X25887375Y-20328500D02*
X26034375Y-20475500D01*
X26034375Y-20328500D02*
X25887375Y-20475500D01*
X26034375Y-20402000D02*
G75*
G03*
X26034375Y-20402000I-73500J0D01*
G01*
X26125500Y-14613500D02*
X26272500Y-14760500D01*
X26272500Y-14613500D02*
X26125500Y-14760500D01*
X26272500Y-14687000D02*
G75*
G03*
X26272500Y-14687000I-73500J0D01*
G01*
X26284250Y-18169500D02*
X26431250Y-18316500D01*
X26431250Y-18169500D02*
X26284250Y-18316500D01*
X26431250Y-18243000D02*
G75*
G03*
X26431250Y-18243000I-73500J0D01*
G01*
X26522375Y-20074500D02*
X26669375Y-20221500D01*
X26669375Y-20074500D02*
X26522375Y-20221500D01*
X26669375Y-20148000D02*
G75*
G03*
X26669375Y-20148000I-73500J0D01*
G01*
X26601750Y-16518500D02*
X26748750Y-16665500D01*
X26748750Y-16518500D02*
X26601750Y-16665500D01*
X26748750Y-16592000D02*
G75*
G03*
X26748750Y-16592000I-73500J0D01*
G01*
X26760500Y-14359500D02*
X26907500Y-14506500D01*
X26907500Y-14359500D02*
X26760500Y-14506500D01*
X26907500Y-14433000D02*
G75*
G03*
X26907500Y-14433000I-73500J0D01*
G01*
X27078000Y-9851000D02*
X27225000Y-9998000D01*
X27225000Y-9851000D02*
X27078000Y-9998000D01*
X27225000Y-9924500D02*
G75*
G03*
X27225000Y-9924500I-73500J0D01*
G01*
X27078000Y-12708500D02*
X27225000Y-12855500D01*
X27225000Y-12708500D02*
X27078000Y-12855500D01*
X27225000Y-12782000D02*
G75*
G03*
X27225000Y-12782000I-73500J0D01*
G01*
X27236750Y-16264500D02*
X27383750Y-16411500D01*
X27383750Y-16264500D02*
X27236750Y-16411500D01*
X27383750Y-16338000D02*
G75*
G03*
X27383750Y-16338000I-73500J0D01*
G01*
X27713000Y-9597000D02*
X27860000Y-9744000D01*
X27860000Y-9597000D02*
X27713000Y-9744000D01*
X27860000Y-9670500D02*
G75*
G03*
X27860000Y-9670500I-73500J0D01*
G01*
X27713000Y-12454500D02*
X27860000Y-12601500D01*
X27860000Y-12454500D02*
X27713000Y-12601500D01*
X27860000Y-12528000D02*
G75*
G03*
X27860000Y-12528000I-73500J0D01*
G01*
X28030500Y-14613500D02*
X28177500Y-14760500D01*
X28177500Y-14613500D02*
X28030500Y-14760500D01*
X28177500Y-14687000D02*
G75*
G03*
X28177500Y-14687000I-73500J0D01*
G01*
X28268625Y-20328500D02*
X28415625Y-20475500D01*
X28415625Y-20328500D02*
X28268625Y-20475500D01*
X28415625Y-20402000D02*
G75*
G03*
X28415625Y-20402000I-73500J0D01*
G01*
X28506750Y-16518500D02*
X28653750Y-16665500D01*
X28653750Y-16518500D02*
X28506750Y-16665500D01*
X28653750Y-16592000D02*
G75*
G03*
X28653750Y-16592000I-73500J0D01*
G01*
X28665500Y-14359500D02*
X28812500Y-14506500D01*
X28812500Y-14359500D02*
X28665500Y-14506500D01*
X28812500Y-14433000D02*
G75*
G03*
X28812500Y-14433000I-73500J0D01*
G01*
X28903625Y-20074500D02*
X29050625Y-20221500D01*
X29050625Y-20074500D02*
X28903625Y-20221500D01*
X29050625Y-20148000D02*
G75*
G03*
X29050625Y-20148000I-73500J0D01*
G01*
X28983000Y-9851000D02*
X29130000Y-9998000D01*
X29130000Y-9851000D02*
X28983000Y-9998000D01*
X29130000Y-9924500D02*
G75*
G03*
X29130000Y-9924500I-73500J0D01*
G01*
X29141750Y-16264500D02*
X29288750Y-16411500D01*
X29288750Y-16264500D02*
X29141750Y-16411500D01*
X29288750Y-16338000D02*
G75*
G03*
X29288750Y-16338000I-73500J0D01*
G01*
X29221125Y-18423500D02*
X29368125Y-18570500D01*
X29368125Y-18423500D02*
X29221125Y-18570500D01*
X29368125Y-18497000D02*
G75*
G03*
X29368125Y-18497000I-73500J0D01*
G01*
X29618000Y-9597000D02*
X29765000Y-9744000D01*
X29765000Y-9597000D02*
X29618000Y-9744000D01*
X29765000Y-9670500D02*
G75*
G03*
X29765000Y-9670500I-73500J0D01*
G01*
X29695500Y-16515500D02*
X29842500Y-16662500D01*
X29842500Y-16515500D02*
X29695500Y-16662500D01*
X29842500Y-16589000D02*
G75*
G03*
X29842500Y-16589000I-73500J0D01*
G01*
X29856125Y-18169500D02*
X30003125Y-18316500D01*
X30003125Y-18169500D02*
X29856125Y-18316500D01*
X30003125Y-18243000D02*
G75*
G03*
X30003125Y-18243000I-73500J0D01*
G01*
X29935500Y-12708500D02*
X30082500Y-12855500D01*
X30082500Y-12708500D02*
X29935500Y-12855500D01*
X30082500Y-12782000D02*
G75*
G03*
X30082500Y-12782000I-73500J0D01*
G01*
X30330500Y-16261500D02*
X30477500Y-16408500D01*
X30477500Y-16261500D02*
X30330500Y-16408500D01*
X30477500Y-16335000D02*
G75*
G03*
X30477500Y-16335000I-73500J0D01*
G01*
X30410500Y-14611000D02*
X30557500Y-14758000D01*
X30557500Y-14611000D02*
X30410500Y-14758000D01*
X30557500Y-14684500D02*
G75*
G03*
X30557500Y-14684500I-73500J0D01*
G01*
X30570500Y-12454500D02*
X30717500Y-12601500D01*
X30717500Y-12454500D02*
X30570500Y-12601500D01*
X30717500Y-12528000D02*
G75*
G03*
X30717500Y-12528000I-73500J0D01*
G01*
X30649875Y-20328500D02*
X30796875Y-20475500D01*
X30796875Y-20328500D02*
X30649875Y-20475500D01*
X30796875Y-20402000D02*
G75*
G03*
X30796875Y-20402000I-73500J0D01*
G01*
X30888000Y-9851000D02*
X31035000Y-9998000D01*
X31035000Y-9851000D02*
X30888000Y-9998000D01*
X31035000Y-9924500D02*
G75*
G03*
X31035000Y-9924500I-73500J0D01*
G01*
X31045500Y-14357000D02*
X31192500Y-14504000D01*
X31192500Y-14357000D02*
X31045500Y-14504000D01*
X31192500Y-14430500D02*
G75*
G03*
X31192500Y-14430500I-73500J0D01*
G01*
X31283000Y-15439000D02*
X31430000Y-15586000D01*
X31430000Y-15439000D02*
X31283000Y-15586000D01*
X31430000Y-15512500D02*
G75*
G03*
X31430000Y-15512500I-73500J0D01*
G01*
X31284875Y-20074500D02*
X31431875Y-20221500D01*
X31431875Y-20074500D02*
X31284875Y-20221500D01*
X31431875Y-20148000D02*
G75*
G03*
X31431875Y-20148000I-73500J0D01*
G01*
X31523000Y-9597000D02*
X31670000Y-9744000D01*
X31670000Y-9597000D02*
X31523000Y-9744000D01*
X31670000Y-9670500D02*
G75*
G03*
X31670000Y-9670500I-73500J0D01*
G01*
X31537000Y-16074000D02*
X31684000Y-16221000D01*
X31684000Y-16074000D02*
X31537000Y-16221000D01*
X31684000Y-16147500D02*
G75*
G03*
X31684000Y-16147500I-73500J0D01*
G01*
X33269250Y-9851000D02*
X33416250Y-9998000D01*
X33416250Y-9851000D02*
X33269250Y-9998000D01*
X33416250Y-9924500D02*
G75*
G03*
X33416250Y-9924500I-73500J0D01*
G01*
X33269250Y-12708500D02*
X33416250Y-12855500D01*
X33416250Y-12708500D02*
X33269250Y-12855500D01*
X33416250Y-12782000D02*
G75*
G03*
X33416250Y-12782000I-73500J0D01*
G01*
X33269250Y-14613500D02*
X33416250Y-14760500D01*
X33416250Y-14613500D02*
X33269250Y-14760500D01*
X33416250Y-14687000D02*
G75*
G03*
X33416250Y-14687000I-73500J0D01*
G01*
X33269250Y-20328500D02*
X33416250Y-20475500D01*
X33416250Y-20328500D02*
X33269250Y-20475500D01*
X33416250Y-20402000D02*
G75*
G03*
X33416250Y-20402000I-73500J0D01*
G01*
X33904250Y-9597000D02*
X34051250Y-9744000D01*
X34051250Y-9597000D02*
X33904250Y-9744000D01*
X34051250Y-9670500D02*
G75*
G03*
X34051250Y-9670500I-73500J0D01*
G01*
X33904250Y-12454500D02*
X34051250Y-12601500D01*
X34051250Y-12454500D02*
X33904250Y-12601500D01*
X34051250Y-12528000D02*
G75*
G03*
X34051250Y-12528000I-73500J0D01*
G01*
X33904250Y-14359500D02*
X34051250Y-14506500D01*
X34051250Y-14359500D02*
X33904250Y-14506500D01*
X34051250Y-14433000D02*
G75*
G03*
X34051250Y-14433000I-73500J0D01*
G01*
X33904250Y-20074500D02*
X34051250Y-20221500D01*
X34051250Y-20074500D02*
X33904250Y-20221500D01*
X34051250Y-20148000D02*
G75*
G03*
X34051250Y-20148000I-73500J0D01*
G01*
X35174250Y-9851000D02*
X35321250Y-9998000D01*
X35321250Y-9851000D02*
X35174250Y-9998000D01*
X35321250Y-9924500D02*
G75*
G03*
X35321250Y-9924500I-73500J0D01*
G01*
X35174250Y-12708500D02*
X35321250Y-12855500D01*
X35321250Y-12708500D02*
X35174250Y-12855500D01*
X35321250Y-12782000D02*
G75*
G03*
X35321250Y-12782000I-73500J0D01*
G01*
X35174250Y-14613500D02*
X35321250Y-14760500D01*
X35321250Y-14613500D02*
X35174250Y-14760500D01*
X35321250Y-14687000D02*
G75*
G03*
X35321250Y-14687000I-73500J0D01*
G01*
X35174250Y-18423500D02*
X35321250Y-18570500D01*
X35321250Y-18423500D02*
X35174250Y-18570500D01*
X35321250Y-18497000D02*
G75*
G03*
X35321250Y-18497000I-73500J0D01*
G01*
X35174250Y-20328500D02*
X35321250Y-20475500D01*
X35321250Y-20328500D02*
X35174250Y-20475500D01*
X35321250Y-20402000D02*
G75*
G03*
X35321250Y-20402000I-73500J0D01*
G01*
X35809250Y-9597000D02*
X35956250Y-9744000D01*
X35956250Y-9597000D02*
X35809250Y-9744000D01*
X35956250Y-9670500D02*
G75*
G03*
X35956250Y-9670500I-73500J0D01*
G01*
X35809250Y-12454500D02*
X35956250Y-12601500D01*
X35956250Y-12454500D02*
X35809250Y-12601500D01*
X35956250Y-12528000D02*
G75*
G03*
X35956250Y-12528000I-73500J0D01*
G01*
X35809250Y-14359500D02*
X35956250Y-14506500D01*
X35956250Y-14359500D02*
X35809250Y-14506500D01*
X35956250Y-14433000D02*
G75*
G03*
X35956250Y-14433000I-73500J0D01*
G01*
X35809250Y-18169500D02*
X35956250Y-18316500D01*
X35956250Y-18169500D02*
X35809250Y-18316500D01*
X35956250Y-18243000D02*
G75*
G03*
X35956250Y-18243000I-73500J0D01*
G01*
X35809250Y-20074500D02*
X35956250Y-20221500D01*
X35956250Y-20074500D02*
X35809250Y-20221500D01*
X35956250Y-20148000D02*
G75*
G03*
X35956250Y-20148000I-73500J0D01*
G01*
X37079250Y-9851000D02*
X37226250Y-9998000D01*
X37226250Y-9851000D02*
X37079250Y-9998000D01*
X37226250Y-9924500D02*
G75*
G03*
X37226250Y-9924500I-73500J0D01*
G01*
X37079250Y-12708500D02*
X37226250Y-12855500D01*
X37226250Y-12708500D02*
X37079250Y-12855500D01*
X37226250Y-12782000D02*
G75*
G03*
X37226250Y-12782000I-73500J0D01*
G01*
X37079250Y-14613500D02*
X37226250Y-14760500D01*
X37226250Y-14613500D02*
X37079250Y-14760500D01*
X37226250Y-14687000D02*
G75*
G03*
X37226250Y-14687000I-73500J0D01*
G01*
X37079250Y-20328500D02*
X37226250Y-20475500D01*
X37226250Y-20328500D02*
X37079250Y-20475500D01*
X37226250Y-20402000D02*
G75*
G03*
X37226250Y-20402000I-73500J0D01*
G01*
X37714250Y-9597000D02*
X37861250Y-9744000D01*
X37861250Y-9597000D02*
X37714250Y-9744000D01*
X37861250Y-9670500D02*
G75*
G03*
X37861250Y-9670500I-73500J0D01*
G01*
X37714250Y-12454500D02*
X37861250Y-12601500D01*
X37861250Y-12454500D02*
X37714250Y-12601500D01*
X37861250Y-12528000D02*
G75*
G03*
X37861250Y-12528000I-73500J0D01*
G01*
X37714250Y-14359500D02*
X37861250Y-14506500D01*
X37861250Y-14359500D02*
X37714250Y-14506500D01*
X37861250Y-14433000D02*
G75*
G03*
X37861250Y-14433000I-73500J0D01*
G01*
X37714250Y-20074500D02*
X37861250Y-20221500D01*
X37861250Y-20074500D02*
X37714250Y-20221500D01*
X37861250Y-20148000D02*
G75*
G03*
X37861250Y-20148000I-73500J0D01*
G01*
D12*
X3773928Y-22049214D02*
X3773928Y-21749214D01*
X3845357Y-21749214D01*
X3888214Y-21763500D01*
X3916786Y-21792072D01*
X3931071Y-21820643D01*
X3945357Y-21877786D01*
X3945357Y-21920643D01*
X3931071Y-21977786D01*
X3916786Y-22006357D01*
X3888214Y-22034929D01*
X3845357Y-22049214D01*
X3773928Y-22049214D01*
X4073928Y-22049214D02*
X4073928Y-21849214D01*
X4073928Y-21906357D02*
X4088214Y-21877786D01*
X4102500Y-21863500D01*
X4131071Y-21849214D01*
X4159643Y-21849214D01*
X4259643Y-22049214D02*
X4259643Y-21849214D01*
X4259643Y-21749214D02*
X4245357Y-21763500D01*
X4259643Y-21777786D01*
X4273928Y-21763500D01*
X4259643Y-21749214D01*
X4259643Y-21777786D01*
X4445357Y-22049214D02*
X4416786Y-22034929D01*
X4402500Y-22006357D01*
X4402500Y-21749214D01*
X4602500Y-22049214D02*
X4573928Y-22034929D01*
X4559643Y-22006357D01*
X4559643Y-21749214D01*
X4945357Y-22049214D02*
X4945357Y-21749214D01*
X5045357Y-21963500D01*
X5145357Y-21749214D01*
X5145357Y-22049214D01*
X5416786Y-22049214D02*
X5416786Y-21892072D01*
X5402500Y-21863500D01*
X5373928Y-21849214D01*
X5316786Y-21849214D01*
X5288214Y-21863500D01*
X5416786Y-22034929D02*
X5388214Y-22049214D01*
X5316786Y-22049214D01*
X5288214Y-22034929D01*
X5273928Y-22006357D01*
X5273928Y-21977786D01*
X5288214Y-21949214D01*
X5316786Y-21934929D01*
X5388214Y-21934929D01*
X5416786Y-21920643D01*
X5559643Y-21849214D02*
X5559643Y-22149214D01*
X5559643Y-21863500D02*
X5588214Y-21849214D01*
X5645357Y-21849214D01*
X5673928Y-21863500D01*
X5688214Y-21877786D01*
X5702500Y-21906357D01*
X5702500Y-21992072D01*
X5688214Y-22020643D01*
X5673928Y-22034929D01*
X5645357Y-22049214D01*
X5588214Y-22049214D01*
X5559643Y-22034929D01*
X5831071Y-22020643D02*
X5845357Y-22034929D01*
X5831071Y-22049214D01*
X5816786Y-22034929D01*
X5831071Y-22020643D01*
X5831071Y-22049214D01*
X5831071Y-21863500D02*
X5845357Y-21877786D01*
X5831071Y-21892072D01*
X5816786Y-21877786D01*
X5831071Y-21863500D01*
X5831071Y-21892072D01*
X3447500Y-22523500D02*
X3487500Y-22563500D01*
X3487500Y-22523500D02*
X3447500Y-22563500D01*
X3831071Y-22379214D02*
X3859643Y-22379214D01*
X3888214Y-22393500D01*
X3902500Y-22407786D01*
X3916786Y-22436357D01*
X3931071Y-22493500D01*
X3931071Y-22564929D01*
X3916786Y-22622071D01*
X3902500Y-22650643D01*
X3888214Y-22664929D01*
X3859643Y-22679214D01*
X3831071Y-22679214D01*
X3802500Y-22664929D01*
X3788214Y-22650643D01*
X3773928Y-22622071D01*
X3759643Y-22564929D01*
X3759643Y-22493500D01*
X3773928Y-22436357D01*
X3788214Y-22407786D01*
X3802500Y-22393500D01*
X3831071Y-22379214D01*
X4059643Y-22650643D02*
X4073928Y-22664929D01*
X4059643Y-22679214D01*
X4045357Y-22664929D01*
X4059643Y-22650643D01*
X4059643Y-22679214D01*
X4331071Y-22479214D02*
X4331071Y-22679214D01*
X4259643Y-22364929D02*
X4188214Y-22579214D01*
X4373928Y-22579214D01*
X4545357Y-22379214D02*
X4573928Y-22379214D01*
X4602500Y-22393500D01*
X4616786Y-22407786D01*
X4631071Y-22436357D01*
X4645357Y-22493500D01*
X4645357Y-22564929D01*
X4631071Y-22622071D01*
X4616786Y-22650643D01*
X4602500Y-22664929D01*
X4573928Y-22679214D01*
X4545357Y-22679214D01*
X4516786Y-22664929D01*
X4502500Y-22650643D01*
X4488214Y-22622071D01*
X4473928Y-22564929D01*
X4473928Y-22493500D01*
X4488214Y-22436357D01*
X4502500Y-22407786D01*
X4516786Y-22393500D01*
X4545357Y-22379214D01*
X4773928Y-22679214D02*
X4773928Y-22479214D01*
X4773928Y-22507786D02*
X4788214Y-22493500D01*
X4816786Y-22479214D01*
X4859643Y-22479214D01*
X4888214Y-22493500D01*
X4902500Y-22522071D01*
X4902500Y-22679214D01*
X4902500Y-22522071D02*
X4916786Y-22493500D01*
X4945357Y-22479214D01*
X4988214Y-22479214D01*
X5016786Y-22493500D01*
X5031071Y-22522071D01*
X5031071Y-22679214D01*
X5173928Y-22679214D02*
X5173928Y-22479214D01*
X5173928Y-22507786D02*
X5188214Y-22493500D01*
X5216786Y-22479214D01*
X5259643Y-22479214D01*
X5288214Y-22493500D01*
X5302500Y-22522071D01*
X5302500Y-22679214D01*
X5302500Y-22522071D02*
X5316786Y-22493500D01*
X5345357Y-22479214D01*
X5388214Y-22479214D01*
X5416786Y-22493500D01*
X5431071Y-22522071D01*
X5431071Y-22679214D01*
X6016786Y-22364929D02*
X5759643Y-22750643D01*
X6402500Y-22379214D02*
X6431071Y-22379214D01*
X6459643Y-22393500D01*
X6473928Y-22407786D01*
X6488214Y-22436357D01*
X6502500Y-22493500D01*
X6502500Y-22564929D01*
X6488214Y-22622071D01*
X6473928Y-22650643D01*
X6459643Y-22664929D01*
X6431071Y-22679214D01*
X6402500Y-22679214D01*
X6373928Y-22664929D01*
X6359643Y-22650643D01*
X6345357Y-22622071D01*
X6331071Y-22564929D01*
X6331071Y-22493500D01*
X6345357Y-22436357D01*
X6359643Y-22407786D01*
X6373928Y-22393500D01*
X6402500Y-22379214D01*
X6631071Y-22650643D02*
X6645357Y-22664929D01*
X6631071Y-22679214D01*
X6616786Y-22664929D01*
X6631071Y-22650643D01*
X6631071Y-22679214D01*
X6831071Y-22379214D02*
X6859643Y-22379214D01*
X6888214Y-22393500D01*
X6902500Y-22407786D01*
X6916786Y-22436357D01*
X6931071Y-22493500D01*
X6931071Y-22564929D01*
X6916786Y-22622071D01*
X6902500Y-22650643D01*
X6888214Y-22664929D01*
X6859643Y-22679214D01*
X6831071Y-22679214D01*
X6802500Y-22664929D01*
X6788214Y-22650643D01*
X6773928Y-22622071D01*
X6759643Y-22564929D01*
X6759643Y-22493500D01*
X6773928Y-22436357D01*
X6788214Y-22407786D01*
X6802500Y-22393500D01*
X6831071Y-22379214D01*
X7216786Y-22679214D02*
X7045357Y-22679214D01*
X7131071Y-22679214D02*
X7131071Y-22379214D01*
X7102500Y-22422071D01*
X7073928Y-22450643D01*
X7045357Y-22464929D01*
X7473928Y-22379214D02*
X7416786Y-22379214D01*
X7388214Y-22393500D01*
X7373928Y-22407786D01*
X7345357Y-22450643D01*
X7331071Y-22507786D01*
X7331071Y-22622071D01*
X7345357Y-22650643D01*
X7359643Y-22664929D01*
X7388214Y-22679214D01*
X7445357Y-22679214D01*
X7473928Y-22664929D01*
X7488214Y-22650643D01*
X7502500Y-22622071D01*
X7502500Y-22550643D01*
X7488214Y-22522071D01*
X7473928Y-22507786D01*
X7445357Y-22493500D01*
X7388214Y-22493500D01*
X7359643Y-22507786D01*
X7345357Y-22522071D01*
X7331071Y-22550643D01*
X7616786Y-22379214D02*
X7616786Y-22436357D01*
X7731071Y-22379214D02*
X7731071Y-22436357D01*
X8173928Y-22793500D02*
X8159643Y-22779214D01*
X8131071Y-22736357D01*
X8116786Y-22707786D01*
X8102500Y-22664929D01*
X8088214Y-22593500D01*
X8088214Y-22536357D01*
X8102500Y-22464929D01*
X8116786Y-22422071D01*
X8131071Y-22393500D01*
X8159643Y-22350643D01*
X8173928Y-22336357D01*
X8445357Y-22679214D02*
X8273928Y-22679214D01*
X8359643Y-22679214D02*
X8359643Y-22379214D01*
X8331071Y-22422071D01*
X8302500Y-22450643D01*
X8273928Y-22464929D01*
X8559643Y-22407786D02*
X8573928Y-22393500D01*
X8602500Y-22379214D01*
X8673928Y-22379214D01*
X8702500Y-22393500D01*
X8716786Y-22407786D01*
X8731071Y-22436357D01*
X8731071Y-22464929D01*
X8716786Y-22507786D01*
X8545357Y-22679214D01*
X8731071Y-22679214D01*
X9088214Y-22679214D02*
X9088214Y-22379214D01*
X9216786Y-22679214D02*
X9216786Y-22522071D01*
X9202500Y-22493500D01*
X9173928Y-22479214D01*
X9131071Y-22479214D01*
X9102500Y-22493500D01*
X9088214Y-22507786D01*
X9402500Y-22679214D02*
X9373928Y-22664929D01*
X9359643Y-22650643D01*
X9345357Y-22622071D01*
X9345357Y-22536357D01*
X9359643Y-22507786D01*
X9373928Y-22493500D01*
X9402500Y-22479214D01*
X9445357Y-22479214D01*
X9473928Y-22493500D01*
X9488214Y-22507786D01*
X9502500Y-22536357D01*
X9502500Y-22622071D01*
X9488214Y-22650643D01*
X9473928Y-22664929D01*
X9445357Y-22679214D01*
X9402500Y-22679214D01*
X9673928Y-22679214D02*
X9645357Y-22664929D01*
X9631071Y-22636357D01*
X9631071Y-22379214D01*
X9902500Y-22664929D02*
X9873928Y-22679214D01*
X9816786Y-22679214D01*
X9788214Y-22664929D01*
X9773928Y-22636357D01*
X9773928Y-22522071D01*
X9788214Y-22493500D01*
X9816786Y-22479214D01*
X9873928Y-22479214D01*
X9902500Y-22493500D01*
X9916786Y-22522071D01*
X9916786Y-22550643D01*
X9773928Y-22579214D01*
X10031071Y-22664929D02*
X10059643Y-22679214D01*
X10116786Y-22679214D01*
X10145357Y-22664929D01*
X10159643Y-22636357D01*
X10159643Y-22622071D01*
X10145357Y-22593500D01*
X10116786Y-22579214D01*
X10073928Y-22579214D01*
X10045357Y-22564929D01*
X10031071Y-22536357D01*
X10031071Y-22522071D01*
X10045357Y-22493500D01*
X10073928Y-22479214D01*
X10116786Y-22479214D01*
X10145357Y-22493500D01*
X10259643Y-22793500D02*
X10273928Y-22779214D01*
X10302500Y-22736357D01*
X10316786Y-22707786D01*
X10331071Y-22664929D01*
X10345357Y-22593500D01*
X10345357Y-22536357D01*
X10331071Y-22464929D01*
X10316786Y-22422071D01*
X10302500Y-22393500D01*
X10273928Y-22350643D01*
X10259643Y-22336357D01*
X3487500Y-22939500D02*
G75*
G03*
X3487500Y-22939500I-30000J0D01*
G01*
X3831071Y-22775214D02*
X3859643Y-22775214D01*
X3888214Y-22789500D01*
X3902500Y-22803786D01*
X3916786Y-22832357D01*
X3931071Y-22889500D01*
X3931071Y-22960929D01*
X3916786Y-23018071D01*
X3902500Y-23046643D01*
X3888214Y-23060929D01*
X3859643Y-23075214D01*
X3831071Y-23075214D01*
X3802500Y-23060929D01*
X3788214Y-23046643D01*
X3773928Y-23018071D01*
X3759643Y-22960929D01*
X3759643Y-22889500D01*
X3773928Y-22832357D01*
X3788214Y-22803786D01*
X3802500Y-22789500D01*
X3831071Y-22775214D01*
X4059643Y-23046643D02*
X4073928Y-23060929D01*
X4059643Y-23075214D01*
X4045357Y-23060929D01*
X4059643Y-23046643D01*
X4059643Y-23075214D01*
X4331071Y-22775214D02*
X4273928Y-22775214D01*
X4245357Y-22789500D01*
X4231071Y-22803786D01*
X4202500Y-22846643D01*
X4188214Y-22903786D01*
X4188214Y-23018071D01*
X4202500Y-23046643D01*
X4216786Y-23060929D01*
X4245357Y-23075214D01*
X4302500Y-23075214D01*
X4331071Y-23060929D01*
X4345357Y-23046643D01*
X4359643Y-23018071D01*
X4359643Y-22946643D01*
X4345357Y-22918071D01*
X4331071Y-22903786D01*
X4302500Y-22889500D01*
X4245357Y-22889500D01*
X4216786Y-22903786D01*
X4202500Y-22918071D01*
X4188214Y-22946643D01*
X4545357Y-22775214D02*
X4573928Y-22775214D01*
X4602500Y-22789500D01*
X4616786Y-22803786D01*
X4631071Y-22832357D01*
X4645357Y-22889500D01*
X4645357Y-22960929D01*
X4631071Y-23018071D01*
X4616786Y-23046643D01*
X4602500Y-23060929D01*
X4573928Y-23075214D01*
X4545357Y-23075214D01*
X4516786Y-23060929D01*
X4502500Y-23046643D01*
X4488214Y-23018071D01*
X4473928Y-22960929D01*
X4473928Y-22889500D01*
X4488214Y-22832357D01*
X4502500Y-22803786D01*
X4516786Y-22789500D01*
X4545357Y-22775214D01*
X4773928Y-23075214D02*
X4773928Y-22875214D01*
X4773928Y-22903786D02*
X4788214Y-22889500D01*
X4816786Y-22875214D01*
X4859643Y-22875214D01*
X4888214Y-22889500D01*
X4902500Y-22918071D01*
X4902500Y-23075214D01*
X4902500Y-22918071D02*
X4916786Y-22889500D01*
X4945357Y-22875214D01*
X4988214Y-22875214D01*
X5016786Y-22889500D01*
X5031071Y-22918071D01*
X5031071Y-23075214D01*
X5173928Y-23075214D02*
X5173928Y-22875214D01*
X5173928Y-22903786D02*
X5188214Y-22889500D01*
X5216786Y-22875214D01*
X5259643Y-22875214D01*
X5288214Y-22889500D01*
X5302500Y-22918071D01*
X5302500Y-23075214D01*
X5302500Y-22918071D02*
X5316786Y-22889500D01*
X5345357Y-22875214D01*
X5388214Y-22875214D01*
X5416786Y-22889500D01*
X5431071Y-22918071D01*
X5431071Y-23075214D01*
X6016786Y-22760929D02*
X5759643Y-23146643D01*
X6402500Y-22775214D02*
X6431071Y-22775214D01*
X6459643Y-22789500D01*
X6473928Y-22803786D01*
X6488214Y-22832357D01*
X6502500Y-22889500D01*
X6502500Y-22960929D01*
X6488214Y-23018071D01*
X6473928Y-23046643D01*
X6459643Y-23060929D01*
X6431071Y-23075214D01*
X6402500Y-23075214D01*
X6373928Y-23060929D01*
X6359643Y-23046643D01*
X6345357Y-23018071D01*
X6331071Y-22960929D01*
X6331071Y-22889500D01*
X6345357Y-22832357D01*
X6359643Y-22803786D01*
X6373928Y-22789500D01*
X6402500Y-22775214D01*
X6631071Y-23046643D02*
X6645357Y-23060929D01*
X6631071Y-23075214D01*
X6616786Y-23060929D01*
X6631071Y-23046643D01*
X6631071Y-23075214D01*
X6831071Y-22775214D02*
X6859643Y-22775214D01*
X6888214Y-22789500D01*
X6902500Y-22803786D01*
X6916786Y-22832357D01*
X6931071Y-22889500D01*
X6931071Y-22960929D01*
X6916786Y-23018071D01*
X6902500Y-23046643D01*
X6888214Y-23060929D01*
X6859643Y-23075214D01*
X6831071Y-23075214D01*
X6802500Y-23060929D01*
X6788214Y-23046643D01*
X6773928Y-23018071D01*
X6759643Y-22960929D01*
X6759643Y-22889500D01*
X6773928Y-22832357D01*
X6788214Y-22803786D01*
X6802500Y-22789500D01*
X6831071Y-22775214D01*
X7045357Y-22803786D02*
X7059643Y-22789500D01*
X7088214Y-22775214D01*
X7159643Y-22775214D01*
X7188214Y-22789500D01*
X7202500Y-22803786D01*
X7216786Y-22832357D01*
X7216786Y-22860929D01*
X7202500Y-22903786D01*
X7031071Y-23075214D01*
X7216786Y-23075214D01*
X7473928Y-22875214D02*
X7473928Y-23075214D01*
X7402500Y-22760929D02*
X7331071Y-22975214D01*
X7516786Y-22975214D01*
X7616786Y-22775214D02*
X7616786Y-22832357D01*
X7731071Y-22775214D02*
X7731071Y-22832357D01*
X8173928Y-23189500D02*
X8159643Y-23175214D01*
X8131071Y-23132357D01*
X8116786Y-23103786D01*
X8102500Y-23060929D01*
X8088214Y-22989500D01*
X8088214Y-22932357D01*
X8102500Y-22860929D01*
X8116786Y-22818071D01*
X8131071Y-22789500D01*
X8159643Y-22746643D01*
X8173928Y-22732357D01*
X8345357Y-22775214D02*
X8373928Y-22775214D01*
X8402500Y-22789500D01*
X8416786Y-22803786D01*
X8431071Y-22832357D01*
X8445357Y-22889500D01*
X8445357Y-22960929D01*
X8431071Y-23018071D01*
X8416786Y-23046643D01*
X8402500Y-23060929D01*
X8373928Y-23075214D01*
X8345357Y-23075214D01*
X8316786Y-23060929D01*
X8302500Y-23046643D01*
X8288214Y-23018071D01*
X8273928Y-22960929D01*
X8273928Y-22889500D01*
X8288214Y-22832357D01*
X8302500Y-22803786D01*
X8316786Y-22789500D01*
X8345357Y-22775214D01*
X8802500Y-23075214D02*
X8802500Y-22775214D01*
X8931071Y-23075214D02*
X8931071Y-22918071D01*
X8916786Y-22889500D01*
X8888214Y-22875214D01*
X8845357Y-22875214D01*
X8816786Y-22889500D01*
X8802500Y-22903786D01*
X9116786Y-23075214D02*
X9088214Y-23060929D01*
X9073928Y-23046643D01*
X9059643Y-23018071D01*
X9059643Y-22932357D01*
X9073928Y-22903786D01*
X9088214Y-22889500D01*
X9116786Y-22875214D01*
X9159643Y-22875214D01*
X9188214Y-22889500D01*
X9202500Y-22903786D01*
X9216786Y-22932357D01*
X9216786Y-23018071D01*
X9202500Y-23046643D01*
X9188214Y-23060929D01*
X9159643Y-23075214D01*
X9116786Y-23075214D01*
X9388214Y-23075214D02*
X9359643Y-23060929D01*
X9345357Y-23032357D01*
X9345357Y-22775214D01*
X9616786Y-23060929D02*
X9588214Y-23075214D01*
X9531071Y-23075214D01*
X9502500Y-23060929D01*
X9488214Y-23032357D01*
X9488214Y-22918071D01*
X9502500Y-22889500D01*
X9531071Y-22875214D01*
X9588214Y-22875214D01*
X9616786Y-22889500D01*
X9631071Y-22918071D01*
X9631071Y-22946643D01*
X9488214Y-22975214D01*
X9745357Y-23060929D02*
X9773928Y-23075214D01*
X9831071Y-23075214D01*
X9859643Y-23060929D01*
X9873928Y-23032357D01*
X9873928Y-23018071D01*
X9859643Y-22989500D01*
X9831071Y-22975214D01*
X9788214Y-22975214D01*
X9759643Y-22960929D01*
X9745357Y-22932357D01*
X9745357Y-22918071D01*
X9759643Y-22889500D01*
X9788214Y-22875214D01*
X9831071Y-22875214D01*
X9859643Y-22889500D01*
X10231071Y-22960929D02*
X10459643Y-22960929D01*
X10345357Y-23075214D02*
X10345357Y-22846643D01*
X10959643Y-22875214D02*
X10959643Y-23075214D01*
X10888214Y-22760929D02*
X10816786Y-22975214D01*
X11002500Y-22975214D01*
X11331071Y-23060929D02*
X11359643Y-23075214D01*
X11416786Y-23075214D01*
X11445357Y-23060929D01*
X11459643Y-23032357D01*
X11459643Y-23018071D01*
X11445357Y-22989500D01*
X11416786Y-22975214D01*
X11373928Y-22975214D01*
X11345357Y-22960929D01*
X11331071Y-22932357D01*
X11331071Y-22918071D01*
X11345357Y-22889500D01*
X11373928Y-22875214D01*
X11416786Y-22875214D01*
X11445357Y-22889500D01*
X11631071Y-23075214D02*
X11602500Y-23060929D01*
X11588214Y-23032357D01*
X11588214Y-22775214D01*
X11788214Y-23075214D02*
X11759643Y-23060929D01*
X11745357Y-23046643D01*
X11731071Y-23018071D01*
X11731071Y-22932357D01*
X11745357Y-22903786D01*
X11759643Y-22889500D01*
X11788214Y-22875214D01*
X11831071Y-22875214D01*
X11859643Y-22889500D01*
X11873928Y-22903786D01*
X11888214Y-22932357D01*
X11888214Y-23018071D01*
X11873928Y-23046643D01*
X11859643Y-23060929D01*
X11831071Y-23075214D01*
X11788214Y-23075214D01*
X11973928Y-22875214D02*
X12088214Y-22875214D01*
X12016786Y-22775214D02*
X12016786Y-23032357D01*
X12031071Y-23060929D01*
X12059643Y-23075214D01*
X12088214Y-23075214D01*
X12173928Y-23060929D02*
X12202500Y-23075214D01*
X12259643Y-23075214D01*
X12288214Y-23060929D01*
X12302500Y-23032357D01*
X12302500Y-23018071D01*
X12288214Y-22989500D01*
X12259643Y-22975214D01*
X12216786Y-22975214D01*
X12188214Y-22960929D01*
X12173928Y-22932357D01*
X12173928Y-22918071D01*
X12188214Y-22889500D01*
X12216786Y-22875214D01*
X12259643Y-22875214D01*
X12288214Y-22889500D01*
X12402500Y-23189500D02*
X12416786Y-23175214D01*
X12445357Y-23132357D01*
X12459643Y-23103786D01*
X12473928Y-23060929D01*
X12488214Y-22989500D01*
X12488214Y-22932357D01*
X12473928Y-22860929D01*
X12459643Y-22818071D01*
X12445357Y-22789500D01*
X12416786Y-22746643D01*
X12402500Y-22732357D01*
X3447500Y-23295500D02*
X3447500Y-23375500D01*
X3407500Y-23335500D02*
X3487500Y-23335500D01*
X3831071Y-23171214D02*
X3859643Y-23171214D01*
X3888214Y-23185500D01*
X3902500Y-23199786D01*
X3916786Y-23228357D01*
X3931071Y-23285500D01*
X3931071Y-23356929D01*
X3916786Y-23414071D01*
X3902500Y-23442643D01*
X3888214Y-23456929D01*
X3859643Y-23471214D01*
X3831071Y-23471214D01*
X3802500Y-23456929D01*
X3788214Y-23442643D01*
X3773928Y-23414071D01*
X3759643Y-23356929D01*
X3759643Y-23285500D01*
X3773928Y-23228357D01*
X3788214Y-23199786D01*
X3802500Y-23185500D01*
X3831071Y-23171214D01*
X4059643Y-23442643D02*
X4073928Y-23456929D01*
X4059643Y-23471214D01*
X4045357Y-23456929D01*
X4059643Y-23442643D01*
X4059643Y-23471214D01*
X4245357Y-23299786D02*
X4216786Y-23285500D01*
X4202500Y-23271214D01*
X4188214Y-23242643D01*
X4188214Y-23228357D01*
X4202500Y-23199786D01*
X4216786Y-23185500D01*
X4245357Y-23171214D01*
X4302500Y-23171214D01*
X4331071Y-23185500D01*
X4345357Y-23199786D01*
X4359643Y-23228357D01*
X4359643Y-23242643D01*
X4345357Y-23271214D01*
X4331071Y-23285500D01*
X4302500Y-23299786D01*
X4245357Y-23299786D01*
X4216786Y-23314071D01*
X4202500Y-23328357D01*
X4188214Y-23356929D01*
X4188214Y-23414071D01*
X4202500Y-23442643D01*
X4216786Y-23456929D01*
X4245357Y-23471214D01*
X4302500Y-23471214D01*
X4331071Y-23456929D01*
X4345357Y-23442643D01*
X4359643Y-23414071D01*
X4359643Y-23356929D01*
X4345357Y-23328357D01*
X4331071Y-23314071D01*
X4302500Y-23299786D01*
X4545357Y-23171214D02*
X4573928Y-23171214D01*
X4602500Y-23185500D01*
X4616786Y-23199786D01*
X4631071Y-23228357D01*
X4645357Y-23285500D01*
X4645357Y-23356929D01*
X4631071Y-23414071D01*
X4616786Y-23442643D01*
X4602500Y-23456929D01*
X4573928Y-23471214D01*
X4545357Y-23471214D01*
X4516786Y-23456929D01*
X4502500Y-23442643D01*
X4488214Y-23414071D01*
X4473928Y-23356929D01*
X4473928Y-23285500D01*
X4488214Y-23228357D01*
X4502500Y-23199786D01*
X4516786Y-23185500D01*
X4545357Y-23171214D01*
X4773928Y-23471214D02*
X4773928Y-23271214D01*
X4773928Y-23299786D02*
X4788214Y-23285500D01*
X4816786Y-23271214D01*
X4859643Y-23271214D01*
X4888214Y-23285500D01*
X4902500Y-23314071D01*
X4902500Y-23471214D01*
X4902500Y-23314071D02*
X4916786Y-23285500D01*
X4945357Y-23271214D01*
X4988214Y-23271214D01*
X5016786Y-23285500D01*
X5031071Y-23314071D01*
X5031071Y-23471214D01*
X5173928Y-23471214D02*
X5173928Y-23271214D01*
X5173928Y-23299786D02*
X5188214Y-23285500D01*
X5216786Y-23271214D01*
X5259643Y-23271214D01*
X5288214Y-23285500D01*
X5302500Y-23314071D01*
X5302500Y-23471214D01*
X5302500Y-23314071D02*
X5316786Y-23285500D01*
X5345357Y-23271214D01*
X5388214Y-23271214D01*
X5416786Y-23285500D01*
X5431071Y-23314071D01*
X5431071Y-23471214D01*
X6016786Y-23156929D02*
X5759643Y-23542643D01*
X6402500Y-23171214D02*
X6431071Y-23171214D01*
X6459643Y-23185500D01*
X6473928Y-23199786D01*
X6488214Y-23228357D01*
X6502500Y-23285500D01*
X6502500Y-23356929D01*
X6488214Y-23414071D01*
X6473928Y-23442643D01*
X6459643Y-23456929D01*
X6431071Y-23471214D01*
X6402500Y-23471214D01*
X6373928Y-23456929D01*
X6359643Y-23442643D01*
X6345357Y-23414071D01*
X6331071Y-23356929D01*
X6331071Y-23285500D01*
X6345357Y-23228357D01*
X6359643Y-23199786D01*
X6373928Y-23185500D01*
X6402500Y-23171214D01*
X6631071Y-23442643D02*
X6645357Y-23456929D01*
X6631071Y-23471214D01*
X6616786Y-23456929D01*
X6631071Y-23442643D01*
X6631071Y-23471214D01*
X6831071Y-23171214D02*
X6859643Y-23171214D01*
X6888214Y-23185500D01*
X6902500Y-23199786D01*
X6916786Y-23228357D01*
X6931071Y-23285500D01*
X6931071Y-23356929D01*
X6916786Y-23414071D01*
X6902500Y-23442643D01*
X6888214Y-23456929D01*
X6859643Y-23471214D01*
X6831071Y-23471214D01*
X6802500Y-23456929D01*
X6788214Y-23442643D01*
X6773928Y-23414071D01*
X6759643Y-23356929D01*
X6759643Y-23285500D01*
X6773928Y-23228357D01*
X6788214Y-23199786D01*
X6802500Y-23185500D01*
X6831071Y-23171214D01*
X7031071Y-23171214D02*
X7216786Y-23171214D01*
X7116786Y-23285500D01*
X7159643Y-23285500D01*
X7188214Y-23299786D01*
X7202500Y-23314071D01*
X7216786Y-23342643D01*
X7216786Y-23414071D01*
X7202500Y-23442643D01*
X7188214Y-23456929D01*
X7159643Y-23471214D01*
X7073928Y-23471214D01*
X7045357Y-23456929D01*
X7031071Y-23442643D01*
X7502500Y-23471214D02*
X7331071Y-23471214D01*
X7416786Y-23471214D02*
X7416786Y-23171214D01*
X7388214Y-23214071D01*
X7359643Y-23242643D01*
X7331071Y-23256929D01*
X7616786Y-23171214D02*
X7616786Y-23228357D01*
X7731071Y-23171214D02*
X7731071Y-23228357D01*
X8173928Y-23585500D02*
X8159643Y-23571214D01*
X8131071Y-23528357D01*
X8116786Y-23499786D01*
X8102500Y-23456929D01*
X8088214Y-23385500D01*
X8088214Y-23328357D01*
X8102500Y-23256929D01*
X8116786Y-23214071D01*
X8131071Y-23185500D01*
X8159643Y-23142643D01*
X8173928Y-23128357D01*
X8445357Y-23471214D02*
X8273928Y-23471214D01*
X8359643Y-23471214D02*
X8359643Y-23171214D01*
X8331071Y-23214071D01*
X8302500Y-23242643D01*
X8273928Y-23256929D01*
X8545357Y-23171214D02*
X8745357Y-23171214D01*
X8616786Y-23471214D01*
X8902500Y-23299786D02*
X8873928Y-23285500D01*
X8859643Y-23271214D01*
X8845357Y-23242643D01*
X8845357Y-23228357D01*
X8859643Y-23199786D01*
X8873928Y-23185500D01*
X8902500Y-23171214D01*
X8959643Y-23171214D01*
X8988214Y-23185500D01*
X9002500Y-23199786D01*
X9016786Y-23228357D01*
X9016786Y-23242643D01*
X9002500Y-23271214D01*
X8988214Y-23285500D01*
X8959643Y-23299786D01*
X8902500Y-23299786D01*
X8873928Y-23314071D01*
X8859643Y-23328357D01*
X8845357Y-23356929D01*
X8845357Y-23414071D01*
X8859643Y-23442643D01*
X8873928Y-23456929D01*
X8902500Y-23471214D01*
X8959643Y-23471214D01*
X8988214Y-23456929D01*
X9002500Y-23442643D01*
X9016786Y-23414071D01*
X9016786Y-23356929D01*
X9002500Y-23328357D01*
X8988214Y-23314071D01*
X8959643Y-23299786D01*
X9373928Y-23471214D02*
X9373928Y-23171214D01*
X9502500Y-23471214D02*
X9502500Y-23314071D01*
X9488214Y-23285500D01*
X9459643Y-23271214D01*
X9416786Y-23271214D01*
X9388214Y-23285500D01*
X9373928Y-23299786D01*
X9688214Y-23471214D02*
X9659643Y-23456929D01*
X9645357Y-23442643D01*
X9631071Y-23414071D01*
X9631071Y-23328357D01*
X9645357Y-23299786D01*
X9659643Y-23285500D01*
X9688214Y-23271214D01*
X9731071Y-23271214D01*
X9759643Y-23285500D01*
X9773928Y-23299786D01*
X9788214Y-23328357D01*
X9788214Y-23414071D01*
X9773928Y-23442643D01*
X9759643Y-23456929D01*
X9731071Y-23471214D01*
X9688214Y-23471214D01*
X9959643Y-23471214D02*
X9931071Y-23456929D01*
X9916786Y-23428357D01*
X9916786Y-23171214D01*
X10188214Y-23456929D02*
X10159643Y-23471214D01*
X10102500Y-23471214D01*
X10073928Y-23456929D01*
X10059643Y-23428357D01*
X10059643Y-23314071D01*
X10073928Y-23285500D01*
X10102500Y-23271214D01*
X10159643Y-23271214D01*
X10188214Y-23285500D01*
X10202500Y-23314071D01*
X10202500Y-23342643D01*
X10059643Y-23371214D01*
X10316786Y-23456929D02*
X10345357Y-23471214D01*
X10402500Y-23471214D01*
X10431071Y-23456929D01*
X10445357Y-23428357D01*
X10445357Y-23414071D01*
X10431071Y-23385500D01*
X10402500Y-23371214D01*
X10359643Y-23371214D01*
X10331071Y-23356929D01*
X10316786Y-23328357D01*
X10316786Y-23314071D01*
X10331071Y-23285500D01*
X10359643Y-23271214D01*
X10402500Y-23271214D01*
X10431071Y-23285500D01*
X10545357Y-23585500D02*
X10559643Y-23571214D01*
X10588214Y-23528357D01*
X10602500Y-23499786D01*
X10616786Y-23456929D01*
X10631071Y-23385500D01*
X10631071Y-23328357D01*
X10616786Y-23256929D01*
X10602500Y-23214071D01*
X10588214Y-23185500D01*
X10559643Y-23142643D01*
X10545357Y-23128357D01*
X3472856Y-23766856D02*
X3472856Y-23696144D01*
X3402144Y-23696144D01*
X3402144Y-23766856D01*
X3472856Y-23766856D01*
X3931071Y-23867214D02*
X3759643Y-23867214D01*
X3845357Y-23867214D02*
X3845357Y-23567214D01*
X3816786Y-23610071D01*
X3788214Y-23638643D01*
X3759643Y-23652929D01*
X4059643Y-23838643D02*
X4073928Y-23852929D01*
X4059643Y-23867214D01*
X4045357Y-23852929D01*
X4059643Y-23838643D01*
X4059643Y-23867214D01*
X4259643Y-23567214D02*
X4288214Y-23567214D01*
X4316786Y-23581500D01*
X4331071Y-23595786D01*
X4345357Y-23624357D01*
X4359643Y-23681500D01*
X4359643Y-23752929D01*
X4345357Y-23810071D01*
X4331071Y-23838643D01*
X4316786Y-23852929D01*
X4288214Y-23867214D01*
X4259643Y-23867214D01*
X4231071Y-23852929D01*
X4216786Y-23838643D01*
X4202500Y-23810071D01*
X4188214Y-23752929D01*
X4188214Y-23681500D01*
X4202500Y-23624357D01*
X4216786Y-23595786D01*
X4231071Y-23581500D01*
X4259643Y-23567214D01*
X4545357Y-23567214D02*
X4573928Y-23567214D01*
X4602500Y-23581500D01*
X4616786Y-23595786D01*
X4631071Y-23624357D01*
X4645357Y-23681500D01*
X4645357Y-23752929D01*
X4631071Y-23810071D01*
X4616786Y-23838643D01*
X4602500Y-23852929D01*
X4573928Y-23867214D01*
X4545357Y-23867214D01*
X4516786Y-23852929D01*
X4502500Y-23838643D01*
X4488214Y-23810071D01*
X4473928Y-23752929D01*
X4473928Y-23681500D01*
X4488214Y-23624357D01*
X4502500Y-23595786D01*
X4516786Y-23581500D01*
X4545357Y-23567214D01*
X4773928Y-23867214D02*
X4773928Y-23667214D01*
X4773928Y-23695786D02*
X4788214Y-23681500D01*
X4816786Y-23667214D01*
X4859643Y-23667214D01*
X4888214Y-23681500D01*
X4902500Y-23710071D01*
X4902500Y-23867214D01*
X4902500Y-23710071D02*
X4916786Y-23681500D01*
X4945357Y-23667214D01*
X4988214Y-23667214D01*
X5016786Y-23681500D01*
X5031071Y-23710071D01*
X5031071Y-23867214D01*
X5173928Y-23867214D02*
X5173928Y-23667214D01*
X5173928Y-23695786D02*
X5188214Y-23681500D01*
X5216786Y-23667214D01*
X5259643Y-23667214D01*
X5288214Y-23681500D01*
X5302500Y-23710071D01*
X5302500Y-23867214D01*
X5302500Y-23710071D02*
X5316786Y-23681500D01*
X5345357Y-23667214D01*
X5388214Y-23667214D01*
X5416786Y-23681500D01*
X5431071Y-23710071D01*
X5431071Y-23867214D01*
X6016786Y-23552929D02*
X5759643Y-23938643D01*
X6402500Y-23567214D02*
X6431071Y-23567214D01*
X6459643Y-23581500D01*
X6473928Y-23595786D01*
X6488214Y-23624357D01*
X6502500Y-23681500D01*
X6502500Y-23752929D01*
X6488214Y-23810071D01*
X6473928Y-23838643D01*
X6459643Y-23852929D01*
X6431071Y-23867214D01*
X6402500Y-23867214D01*
X6373928Y-23852929D01*
X6359643Y-23838643D01*
X6345357Y-23810071D01*
X6331071Y-23752929D01*
X6331071Y-23681500D01*
X6345357Y-23624357D01*
X6359643Y-23595786D01*
X6373928Y-23581500D01*
X6402500Y-23567214D01*
X6631071Y-23838643D02*
X6645357Y-23852929D01*
X6631071Y-23867214D01*
X6616786Y-23852929D01*
X6631071Y-23838643D01*
X6631071Y-23867214D01*
X6831071Y-23567214D02*
X6859643Y-23567214D01*
X6888214Y-23581500D01*
X6902500Y-23595786D01*
X6916786Y-23624357D01*
X6931071Y-23681500D01*
X6931071Y-23752929D01*
X6916786Y-23810071D01*
X6902500Y-23838643D01*
X6888214Y-23852929D01*
X6859643Y-23867214D01*
X6831071Y-23867214D01*
X6802500Y-23852929D01*
X6788214Y-23838643D01*
X6773928Y-23810071D01*
X6759643Y-23752929D01*
X6759643Y-23681500D01*
X6773928Y-23624357D01*
X6788214Y-23595786D01*
X6802500Y-23581500D01*
X6831071Y-23567214D01*
X7031071Y-23567214D02*
X7216786Y-23567214D01*
X7116786Y-23681500D01*
X7159643Y-23681500D01*
X7188214Y-23695786D01*
X7202500Y-23710071D01*
X7216786Y-23738643D01*
X7216786Y-23810071D01*
X7202500Y-23838643D01*
X7188214Y-23852929D01*
X7159643Y-23867214D01*
X7073928Y-23867214D01*
X7045357Y-23852929D01*
X7031071Y-23838643D01*
X7359643Y-23867214D02*
X7416786Y-23867214D01*
X7445357Y-23852929D01*
X7459643Y-23838643D01*
X7488214Y-23795786D01*
X7502500Y-23738643D01*
X7502500Y-23624357D01*
X7488214Y-23595786D01*
X7473928Y-23581500D01*
X7445357Y-23567214D01*
X7388214Y-23567214D01*
X7359643Y-23581500D01*
X7345357Y-23595786D01*
X7331071Y-23624357D01*
X7331071Y-23695786D01*
X7345357Y-23724357D01*
X7359643Y-23738643D01*
X7388214Y-23752929D01*
X7445357Y-23752929D01*
X7473928Y-23738643D01*
X7488214Y-23724357D01*
X7502500Y-23695786D01*
X7616786Y-23567214D02*
X7616786Y-23624357D01*
X7731071Y-23567214D02*
X7731071Y-23624357D01*
X8173928Y-23981500D02*
X8159643Y-23967214D01*
X8131071Y-23924357D01*
X8116786Y-23895786D01*
X8102500Y-23852929D01*
X8088214Y-23781500D01*
X8088214Y-23724357D01*
X8102500Y-23652929D01*
X8116786Y-23610071D01*
X8131071Y-23581500D01*
X8159643Y-23538643D01*
X8173928Y-23524357D01*
X8416786Y-23567214D02*
X8359643Y-23567214D01*
X8331071Y-23581500D01*
X8316786Y-23595786D01*
X8288214Y-23638643D01*
X8273928Y-23695786D01*
X8273928Y-23810071D01*
X8288214Y-23838643D01*
X8302500Y-23852929D01*
X8331071Y-23867214D01*
X8388214Y-23867214D01*
X8416786Y-23852929D01*
X8431071Y-23838643D01*
X8445357Y-23810071D01*
X8445357Y-23738643D01*
X8431071Y-23710071D01*
X8416786Y-23695786D01*
X8388214Y-23681500D01*
X8331071Y-23681500D01*
X8302500Y-23695786D01*
X8288214Y-23710071D01*
X8273928Y-23738643D01*
X8802500Y-23867214D02*
X8802500Y-23567214D01*
X8931071Y-23867214D02*
X8931071Y-23710071D01*
X8916786Y-23681500D01*
X8888214Y-23667214D01*
X8845357Y-23667214D01*
X8816786Y-23681500D01*
X8802500Y-23695786D01*
X9116786Y-23867214D02*
X9088214Y-23852929D01*
X9073928Y-23838643D01*
X9059643Y-23810071D01*
X9059643Y-23724357D01*
X9073928Y-23695786D01*
X9088214Y-23681500D01*
X9116786Y-23667214D01*
X9159643Y-23667214D01*
X9188214Y-23681500D01*
X9202500Y-23695786D01*
X9216786Y-23724357D01*
X9216786Y-23810071D01*
X9202500Y-23838643D01*
X9188214Y-23852929D01*
X9159643Y-23867214D01*
X9116786Y-23867214D01*
X9388214Y-23867214D02*
X9359643Y-23852929D01*
X9345357Y-23824357D01*
X9345357Y-23567214D01*
X9616786Y-23852929D02*
X9588214Y-23867214D01*
X9531071Y-23867214D01*
X9502500Y-23852929D01*
X9488214Y-23824357D01*
X9488214Y-23710071D01*
X9502500Y-23681500D01*
X9531071Y-23667214D01*
X9588214Y-23667214D01*
X9616786Y-23681500D01*
X9631071Y-23710071D01*
X9631071Y-23738643D01*
X9488214Y-23767214D01*
X9745357Y-23852929D02*
X9773928Y-23867214D01*
X9831071Y-23867214D01*
X9859643Y-23852929D01*
X9873928Y-23824357D01*
X9873928Y-23810071D01*
X9859643Y-23781500D01*
X9831071Y-23767214D01*
X9788214Y-23767214D01*
X9759643Y-23752929D01*
X9745357Y-23724357D01*
X9745357Y-23710071D01*
X9759643Y-23681500D01*
X9788214Y-23667214D01*
X9831071Y-23667214D01*
X9859643Y-23681500D01*
X9973928Y-23981500D02*
X9988214Y-23967214D01*
X10016786Y-23924357D01*
X10031071Y-23895786D01*
X10045357Y-23852929D01*
X10059643Y-23781500D01*
X10059643Y-23724357D01*
X10045357Y-23652929D01*
X10031071Y-23610071D01*
X10016786Y-23581500D01*
X9988214Y-23538643D01*
X9973928Y-23524357D01*
X3436500Y-24178500D02*
X3487500Y-24127500D01*
X3436500Y-24076500D01*
X3385500Y-24127500D01*
X3436500Y-24178500D01*
X3931071Y-24263214D02*
X3759643Y-24263214D01*
X3845357Y-24263214D02*
X3845357Y-23963214D01*
X3816786Y-24006071D01*
X3788214Y-24034643D01*
X3759643Y-24048929D01*
X4059643Y-24234643D02*
X4073928Y-24248929D01*
X4059643Y-24263214D01*
X4045357Y-24248929D01*
X4059643Y-24234643D01*
X4059643Y-24263214D01*
X4259643Y-23963214D02*
X4288214Y-23963214D01*
X4316786Y-23977500D01*
X4331071Y-23991786D01*
X4345357Y-24020357D01*
X4359643Y-24077500D01*
X4359643Y-24148929D01*
X4345357Y-24206071D01*
X4331071Y-24234643D01*
X4316786Y-24248929D01*
X4288214Y-24263214D01*
X4259643Y-24263214D01*
X4231071Y-24248929D01*
X4216786Y-24234643D01*
X4202500Y-24206071D01*
X4188214Y-24148929D01*
X4188214Y-24077500D01*
X4202500Y-24020357D01*
X4216786Y-23991786D01*
X4231071Y-23977500D01*
X4259643Y-23963214D01*
X4473928Y-23991786D02*
X4488214Y-23977500D01*
X4516786Y-23963214D01*
X4588214Y-23963214D01*
X4616786Y-23977500D01*
X4631071Y-23991786D01*
X4645357Y-24020357D01*
X4645357Y-24048929D01*
X4631071Y-24091786D01*
X4459643Y-24263214D01*
X4645357Y-24263214D01*
X4773928Y-24263214D02*
X4773928Y-24063214D01*
X4773928Y-24091786D02*
X4788214Y-24077500D01*
X4816786Y-24063214D01*
X4859643Y-24063214D01*
X4888214Y-24077500D01*
X4902500Y-24106071D01*
X4902500Y-24263214D01*
X4902500Y-24106071D02*
X4916786Y-24077500D01*
X4945357Y-24063214D01*
X4988214Y-24063214D01*
X5016786Y-24077500D01*
X5031071Y-24106071D01*
X5031071Y-24263214D01*
X5173928Y-24263214D02*
X5173928Y-24063214D01*
X5173928Y-24091786D02*
X5188214Y-24077500D01*
X5216786Y-24063214D01*
X5259643Y-24063214D01*
X5288214Y-24077500D01*
X5302500Y-24106071D01*
X5302500Y-24263214D01*
X5302500Y-24106071D02*
X5316786Y-24077500D01*
X5345357Y-24063214D01*
X5388214Y-24063214D01*
X5416786Y-24077500D01*
X5431071Y-24106071D01*
X5431071Y-24263214D01*
X6016786Y-23948929D02*
X5759643Y-24334643D01*
X6402500Y-23963214D02*
X6431071Y-23963214D01*
X6459643Y-23977500D01*
X6473928Y-23991786D01*
X6488214Y-24020357D01*
X6502500Y-24077500D01*
X6502500Y-24148929D01*
X6488214Y-24206071D01*
X6473928Y-24234643D01*
X6459643Y-24248929D01*
X6431071Y-24263214D01*
X6402500Y-24263214D01*
X6373928Y-24248929D01*
X6359643Y-24234643D01*
X6345357Y-24206071D01*
X6331071Y-24148929D01*
X6331071Y-24077500D01*
X6345357Y-24020357D01*
X6359643Y-23991786D01*
X6373928Y-23977500D01*
X6402500Y-23963214D01*
X6631071Y-24234643D02*
X6645357Y-24248929D01*
X6631071Y-24263214D01*
X6616786Y-24248929D01*
X6631071Y-24234643D01*
X6631071Y-24263214D01*
X6831071Y-23963214D02*
X6859643Y-23963214D01*
X6888214Y-23977500D01*
X6902500Y-23991786D01*
X6916786Y-24020357D01*
X6931071Y-24077500D01*
X6931071Y-24148929D01*
X6916786Y-24206071D01*
X6902500Y-24234643D01*
X6888214Y-24248929D01*
X6859643Y-24263214D01*
X6831071Y-24263214D01*
X6802500Y-24248929D01*
X6788214Y-24234643D01*
X6773928Y-24206071D01*
X6759643Y-24148929D01*
X6759643Y-24077500D01*
X6773928Y-24020357D01*
X6788214Y-23991786D01*
X6802500Y-23977500D01*
X6831071Y-23963214D01*
X7188214Y-24063214D02*
X7188214Y-24263214D01*
X7116786Y-23948929D02*
X7045357Y-24163214D01*
X7231071Y-24163214D01*
X7402500Y-23963214D02*
X7431071Y-23963214D01*
X7459643Y-23977500D01*
X7473928Y-23991786D01*
X7488214Y-24020357D01*
X7502500Y-24077500D01*
X7502500Y-24148929D01*
X7488214Y-24206071D01*
X7473928Y-24234643D01*
X7459643Y-24248929D01*
X7431071Y-24263214D01*
X7402500Y-24263214D01*
X7373928Y-24248929D01*
X7359643Y-24234643D01*
X7345357Y-24206071D01*
X7331071Y-24148929D01*
X7331071Y-24077500D01*
X7345357Y-24020357D01*
X7359643Y-23991786D01*
X7373928Y-23977500D01*
X7402500Y-23963214D01*
X7616786Y-23963214D02*
X7616786Y-24020357D01*
X7731071Y-23963214D02*
X7731071Y-24020357D01*
X8173928Y-24377500D02*
X8159643Y-24363214D01*
X8131071Y-24320357D01*
X8116786Y-24291786D01*
X8102500Y-24248929D01*
X8088214Y-24177500D01*
X8088214Y-24120357D01*
X8102500Y-24048929D01*
X8116786Y-24006071D01*
X8131071Y-23977500D01*
X8159643Y-23934643D01*
X8173928Y-23920357D01*
X8416786Y-24063214D02*
X8416786Y-24263214D01*
X8345357Y-23948929D02*
X8273928Y-24163214D01*
X8459643Y-24163214D01*
X8545357Y-23963214D02*
X8731071Y-23963214D01*
X8631071Y-24077500D01*
X8673928Y-24077500D01*
X8702500Y-24091786D01*
X8716786Y-24106071D01*
X8731071Y-24134643D01*
X8731071Y-24206071D01*
X8716786Y-24234643D01*
X8702500Y-24248929D01*
X8673928Y-24263214D01*
X8588214Y-24263214D01*
X8559643Y-24248929D01*
X8545357Y-24234643D01*
X9088214Y-24263214D02*
X9088214Y-23963214D01*
X9216786Y-24263214D02*
X9216786Y-24106071D01*
X9202500Y-24077500D01*
X9173928Y-24063214D01*
X9131071Y-24063214D01*
X9102500Y-24077500D01*
X9088214Y-24091786D01*
X9402500Y-24263214D02*
X9373928Y-24248929D01*
X9359643Y-24234643D01*
X9345357Y-24206071D01*
X9345357Y-24120357D01*
X9359643Y-24091786D01*
X9373928Y-24077500D01*
X9402500Y-24063214D01*
X9445357Y-24063214D01*
X9473928Y-24077500D01*
X9488214Y-24091786D01*
X9502500Y-24120357D01*
X9502500Y-24206071D01*
X9488214Y-24234643D01*
X9473928Y-24248929D01*
X9445357Y-24263214D01*
X9402500Y-24263214D01*
X9673928Y-24263214D02*
X9645357Y-24248929D01*
X9631071Y-24220357D01*
X9631071Y-23963214D01*
X9902500Y-24248929D02*
X9873928Y-24263214D01*
X9816786Y-24263214D01*
X9788214Y-24248929D01*
X9773928Y-24220357D01*
X9773928Y-24106071D01*
X9788214Y-24077500D01*
X9816786Y-24063214D01*
X9873928Y-24063214D01*
X9902500Y-24077500D01*
X9916786Y-24106071D01*
X9916786Y-24134643D01*
X9773928Y-24163214D01*
X10031071Y-24248929D02*
X10059643Y-24263214D01*
X10116786Y-24263214D01*
X10145357Y-24248929D01*
X10159643Y-24220357D01*
X10159643Y-24206071D01*
X10145357Y-24177500D01*
X10116786Y-24163214D01*
X10073928Y-24163214D01*
X10045357Y-24148929D01*
X10031071Y-24120357D01*
X10031071Y-24106071D01*
X10045357Y-24077500D01*
X10073928Y-24063214D01*
X10116786Y-24063214D01*
X10145357Y-24077500D01*
X10259643Y-24377500D02*
X10273928Y-24363214D01*
X10302500Y-24320357D01*
X10316786Y-24291786D01*
X10331071Y-24248929D01*
X10345357Y-24177500D01*
X10345357Y-24120357D01*
X10331071Y-24048929D01*
X10316786Y-24006071D01*
X10302500Y-23977500D01*
X10273928Y-23934643D01*
X10259643Y-23920357D01*
X3340500Y-24450000D02*
X3487500Y-24597000D01*
X3487500Y-24450000D02*
X3340500Y-24597000D01*
X3487500Y-24523500D02*
G75*
G03*
X3487500Y-24523500I-73500J0D01*
G01*
X3931071Y-24659214D02*
X3759643Y-24659214D01*
X3845357Y-24659214D02*
X3845357Y-24359214D01*
X3816786Y-24402071D01*
X3788214Y-24430643D01*
X3759643Y-24444929D01*
X4059643Y-24630643D02*
X4073928Y-24644929D01*
X4059643Y-24659214D01*
X4045357Y-24644929D01*
X4059643Y-24630643D01*
X4059643Y-24659214D01*
X4331071Y-24459214D02*
X4331071Y-24659214D01*
X4259643Y-24344929D02*
X4188214Y-24559214D01*
X4373928Y-24559214D01*
X4459643Y-24359214D02*
X4659643Y-24359214D01*
X4531071Y-24659214D01*
X4773928Y-24659214D02*
X4773928Y-24459214D01*
X4773928Y-24487786D02*
X4788214Y-24473500D01*
X4816786Y-24459214D01*
X4859643Y-24459214D01*
X4888214Y-24473500D01*
X4902500Y-24502071D01*
X4902500Y-24659214D01*
X4902500Y-24502071D02*
X4916786Y-24473500D01*
X4945357Y-24459214D01*
X4988214Y-24459214D01*
X5016786Y-24473500D01*
X5031071Y-24502071D01*
X5031071Y-24659214D01*
X5173928Y-24659214D02*
X5173928Y-24459214D01*
X5173928Y-24487786D02*
X5188214Y-24473500D01*
X5216786Y-24459214D01*
X5259643Y-24459214D01*
X5288214Y-24473500D01*
X5302500Y-24502071D01*
X5302500Y-24659214D01*
X5302500Y-24502071D02*
X5316786Y-24473500D01*
X5345357Y-24459214D01*
X5388214Y-24459214D01*
X5416786Y-24473500D01*
X5431071Y-24502071D01*
X5431071Y-24659214D01*
X6016786Y-24344929D02*
X5759643Y-24730643D01*
X6402500Y-24359214D02*
X6431071Y-24359214D01*
X6459643Y-24373500D01*
X6473928Y-24387786D01*
X6488214Y-24416357D01*
X6502500Y-24473500D01*
X6502500Y-24544929D01*
X6488214Y-24602071D01*
X6473928Y-24630643D01*
X6459643Y-24644929D01*
X6431071Y-24659214D01*
X6402500Y-24659214D01*
X6373928Y-24644929D01*
X6359643Y-24630643D01*
X6345357Y-24602071D01*
X6331071Y-24544929D01*
X6331071Y-24473500D01*
X6345357Y-24416357D01*
X6359643Y-24387786D01*
X6373928Y-24373500D01*
X6402500Y-24359214D01*
X6631071Y-24630643D02*
X6645357Y-24644929D01*
X6631071Y-24659214D01*
X6616786Y-24644929D01*
X6631071Y-24630643D01*
X6631071Y-24659214D01*
X6831071Y-24359214D02*
X6859643Y-24359214D01*
X6888214Y-24373500D01*
X6902500Y-24387786D01*
X6916786Y-24416357D01*
X6931071Y-24473500D01*
X6931071Y-24544929D01*
X6916786Y-24602071D01*
X6902500Y-24630643D01*
X6888214Y-24644929D01*
X6859643Y-24659214D01*
X6831071Y-24659214D01*
X6802500Y-24644929D01*
X6788214Y-24630643D01*
X6773928Y-24602071D01*
X6759643Y-24544929D01*
X6759643Y-24473500D01*
X6773928Y-24416357D01*
X6788214Y-24387786D01*
X6802500Y-24373500D01*
X6831071Y-24359214D01*
X7202500Y-24359214D02*
X7059643Y-24359214D01*
X7045357Y-24502071D01*
X7059643Y-24487786D01*
X7088214Y-24473500D01*
X7159643Y-24473500D01*
X7188214Y-24487786D01*
X7202500Y-24502071D01*
X7216786Y-24530643D01*
X7216786Y-24602071D01*
X7202500Y-24630643D01*
X7188214Y-24644929D01*
X7159643Y-24659214D01*
X7088214Y-24659214D01*
X7059643Y-24644929D01*
X7045357Y-24630643D01*
X7388214Y-24487786D02*
X7359643Y-24473500D01*
X7345357Y-24459214D01*
X7331071Y-24430643D01*
X7331071Y-24416357D01*
X7345357Y-24387786D01*
X7359643Y-24373500D01*
X7388214Y-24359214D01*
X7445357Y-24359214D01*
X7473928Y-24373500D01*
X7488214Y-24387786D01*
X7502500Y-24416357D01*
X7502500Y-24430643D01*
X7488214Y-24459214D01*
X7473928Y-24473500D01*
X7445357Y-24487786D01*
X7388214Y-24487786D01*
X7359643Y-24502071D01*
X7345357Y-24516357D01*
X7331071Y-24544929D01*
X7331071Y-24602071D01*
X7345357Y-24630643D01*
X7359643Y-24644929D01*
X7388214Y-24659214D01*
X7445357Y-24659214D01*
X7473928Y-24644929D01*
X7488214Y-24630643D01*
X7502500Y-24602071D01*
X7502500Y-24544929D01*
X7488214Y-24516357D01*
X7473928Y-24502071D01*
X7445357Y-24487786D01*
X7616786Y-24359214D02*
X7616786Y-24416357D01*
X7731071Y-24359214D02*
X7731071Y-24416357D01*
X8173928Y-24773500D02*
X8159643Y-24759214D01*
X8131071Y-24716357D01*
X8116786Y-24687786D01*
X8102500Y-24644929D01*
X8088214Y-24573500D01*
X8088214Y-24516357D01*
X8102500Y-24444929D01*
X8116786Y-24402071D01*
X8131071Y-24373500D01*
X8159643Y-24330643D01*
X8173928Y-24316357D01*
X8445357Y-24659214D02*
X8273928Y-24659214D01*
X8359643Y-24659214D02*
X8359643Y-24359214D01*
X8331071Y-24402071D01*
X8302500Y-24430643D01*
X8273928Y-24444929D01*
X8616786Y-24487786D02*
X8588214Y-24473500D01*
X8573928Y-24459214D01*
X8559643Y-24430643D01*
X8559643Y-24416357D01*
X8573928Y-24387786D01*
X8588214Y-24373500D01*
X8616786Y-24359214D01*
X8673928Y-24359214D01*
X8702500Y-24373500D01*
X8716786Y-24387786D01*
X8731071Y-24416357D01*
X8731071Y-24430643D01*
X8716786Y-24459214D01*
X8702500Y-24473500D01*
X8673928Y-24487786D01*
X8616786Y-24487786D01*
X8588214Y-24502071D01*
X8573928Y-24516357D01*
X8559643Y-24544929D01*
X8559643Y-24602071D01*
X8573928Y-24630643D01*
X8588214Y-24644929D01*
X8616786Y-24659214D01*
X8673928Y-24659214D01*
X8702500Y-24644929D01*
X8716786Y-24630643D01*
X8731071Y-24602071D01*
X8731071Y-24544929D01*
X8716786Y-24516357D01*
X8702500Y-24502071D01*
X8673928Y-24487786D01*
X8845357Y-24387786D02*
X8859643Y-24373500D01*
X8888214Y-24359214D01*
X8959643Y-24359214D01*
X8988214Y-24373500D01*
X9002500Y-24387786D01*
X9016786Y-24416357D01*
X9016786Y-24444929D01*
X9002500Y-24487786D01*
X8831071Y-24659214D01*
X9016786Y-24659214D01*
X9373928Y-24659214D02*
X9373928Y-24359214D01*
X9502500Y-24659214D02*
X9502500Y-24502071D01*
X9488214Y-24473500D01*
X9459643Y-24459214D01*
X9416786Y-24459214D01*
X9388214Y-24473500D01*
X9373928Y-24487786D01*
X9688214Y-24659214D02*
X9659643Y-24644929D01*
X9645357Y-24630643D01*
X9631071Y-24602071D01*
X9631071Y-24516357D01*
X9645357Y-24487786D01*
X9659643Y-24473500D01*
X9688214Y-24459214D01*
X9731071Y-24459214D01*
X9759643Y-24473500D01*
X9773928Y-24487786D01*
X9788214Y-24516357D01*
X9788214Y-24602071D01*
X9773928Y-24630643D01*
X9759643Y-24644929D01*
X9731071Y-24659214D01*
X9688214Y-24659214D01*
X9959643Y-24659214D02*
X9931071Y-24644929D01*
X9916786Y-24616357D01*
X9916786Y-24359214D01*
X10188214Y-24644929D02*
X10159643Y-24659214D01*
X10102500Y-24659214D01*
X10073928Y-24644929D01*
X10059643Y-24616357D01*
X10059643Y-24502071D01*
X10073928Y-24473500D01*
X10102500Y-24459214D01*
X10159643Y-24459214D01*
X10188214Y-24473500D01*
X10202500Y-24502071D01*
X10202500Y-24530643D01*
X10059643Y-24559214D01*
X10316786Y-24644929D02*
X10345357Y-24659214D01*
X10402500Y-24659214D01*
X10431071Y-24644929D01*
X10445357Y-24616357D01*
X10445357Y-24602071D01*
X10431071Y-24573500D01*
X10402500Y-24559214D01*
X10359643Y-24559214D01*
X10331071Y-24544929D01*
X10316786Y-24516357D01*
X10316786Y-24502071D01*
X10331071Y-24473500D01*
X10359643Y-24459214D01*
X10402500Y-24459214D01*
X10431071Y-24473500D01*
X10545357Y-24773500D02*
X10559643Y-24759214D01*
X10588214Y-24716357D01*
X10602500Y-24687786D01*
X10616786Y-24644929D01*
X10631071Y-24573500D01*
X10631071Y-24516357D01*
X10616786Y-24444929D01*
X10602500Y-24402071D01*
X10588214Y-24373500D01*
X10559643Y-24330643D01*
X10545357Y-24316357D01*
M02*
