%FSLAX45Y45*%
G04 Gerber Fmt 4.5, Leading zero omitted, Abs format (unit mm)*
G04 Created by KiCad (PCBNEW (5.1.9)-1) date 2021-05-24 00:01:18*
%MOMM*%
%LPD*%
G01*
G04 APERTURE LIST*
%TA.AperFunction,Profile*%
%ADD10C,0.100000*%
%TD*%
%ADD11C,0.200000*%
%ADD12C,0.300000*%
G04 APERTURE END LIST*
D10*
X38952500Y-6268500D02*
X38952500Y-21278500D01*
X38652500Y-5968500D02*
G75*
G02*
X38952500Y-6268500I0J-300000D01*
G01*
X3492500Y-6268500D02*
G75*
G02*
X3792500Y-5968500I300000J0D01*
G01*
X3792500Y-21578500D02*
G75*
G02*
X3492500Y-21278500I0J300000D01*
G01*
X38952500Y-21278500D02*
G75*
G02*
X38652500Y-21578500I-300000J0D01*
G01*
X3792500Y-5968500D02*
X38652500Y-5968500D01*
X3492500Y-21278500D02*
X3492500Y-6268500D01*
X38652500Y-21578500D02*
X3792500Y-21578500D01*
D11*
X20901000Y-6556000D02*
X20966000Y-6621000D01*
X20966000Y-6556000D02*
X20901000Y-6621000D01*
X21479000Y-6556000D02*
X21544000Y-6621000D01*
X21544000Y-6556000D02*
X21479000Y-6621000D01*
X4252000Y-10178500D02*
G75*
G03*
X4252000Y-10178500I-87500J0D01*
G01*
X4252000Y-13036000D02*
G75*
G03*
X4252000Y-13036000I-87500J0D01*
G01*
X4490125Y-18751000D02*
G75*
G03*
X4490125Y-18751000I-87500J0D01*
G01*
X4490125Y-20656000D02*
G75*
G03*
X4490125Y-20656000I-87500J0D01*
G01*
X4728250Y-14941000D02*
G75*
G03*
X4728250Y-14941000I-87500J0D01*
G01*
X4966375Y-16846000D02*
G75*
G03*
X4966375Y-16846000I-87500J0D01*
G01*
X5268000Y-10178500D02*
G75*
G03*
X5268000Y-10178500I-87500J0D01*
G01*
X5268000Y-13036000D02*
G75*
G03*
X5268000Y-13036000I-87500J0D01*
G01*
X5444500Y-18751000D02*
G75*
G03*
X5444500Y-18751000I-87500J0D01*
G01*
X5506125Y-18751000D02*
G75*
G03*
X5506125Y-18751000I-87500J0D01*
G01*
X5506125Y-20656000D02*
G75*
G03*
X5506125Y-20656000I-87500J0D01*
G01*
X5744250Y-14941000D02*
G75*
G03*
X5744250Y-14941000I-87500J0D01*
G01*
X5982375Y-16846000D02*
G75*
G03*
X5982375Y-16846000I-87500J0D01*
G01*
X6157000Y-13036000D02*
G75*
G03*
X6157000Y-13036000I-87500J0D01*
G01*
X6460500Y-18751000D02*
G75*
G03*
X6460500Y-18751000I-87500J0D01*
G01*
X6633250Y-18751000D02*
G75*
G03*
X6633250Y-18751000I-87500J0D01*
G01*
X6871375Y-20656000D02*
G75*
G03*
X6871375Y-20656000I-87500J0D01*
G01*
X7109500Y-14941000D02*
G75*
G03*
X7109500Y-14941000I-87500J0D01*
G01*
X7173000Y-13036000D02*
G75*
G03*
X7173000Y-13036000I-87500J0D01*
G01*
X7585750Y-16846000D02*
G75*
G03*
X7585750Y-16846000I-87500J0D01*
G01*
X7649250Y-18751000D02*
G75*
G03*
X7649250Y-18751000I-87500J0D01*
G01*
X7887375Y-20656000D02*
G75*
G03*
X7887375Y-20656000I-87500J0D01*
G01*
X8062000Y-10178500D02*
G75*
G03*
X8062000Y-10178500I-87500J0D01*
G01*
X8062000Y-13036000D02*
G75*
G03*
X8062000Y-13036000I-87500J0D01*
G01*
X8125500Y-14941000D02*
G75*
G03*
X8125500Y-14941000I-87500J0D01*
G01*
X8538250Y-18751000D02*
G75*
G03*
X8538250Y-18751000I-87500J0D01*
G01*
X8601750Y-16846000D02*
G75*
G03*
X8601750Y-16846000I-87500J0D01*
G01*
X9014500Y-14941000D02*
G75*
G03*
X9014500Y-14941000I-87500J0D01*
G01*
X9078000Y-10178500D02*
G75*
G03*
X9078000Y-10178500I-87500J0D01*
G01*
X9078000Y-13036000D02*
G75*
G03*
X9078000Y-13036000I-87500J0D01*
G01*
X9252625Y-20656000D02*
G75*
G03*
X9252625Y-20656000I-87500J0D01*
G01*
X9490750Y-16846000D02*
G75*
G03*
X9490750Y-16846000I-87500J0D01*
G01*
X9554250Y-18751000D02*
G75*
G03*
X9554250Y-18751000I-87500J0D01*
G01*
X9967000Y-10178500D02*
G75*
G03*
X9967000Y-10178500I-87500J0D01*
G01*
X9967000Y-13036000D02*
G75*
G03*
X9967000Y-13036000I-87500J0D01*
G01*
X10030500Y-14941000D02*
G75*
G03*
X10030500Y-14941000I-87500J0D01*
G01*
X10268625Y-20656000D02*
G75*
G03*
X10268625Y-20656000I-87500J0D01*
G01*
X10443250Y-18751000D02*
G75*
G03*
X10443250Y-18751000I-87500J0D01*
G01*
X10506750Y-16846000D02*
G75*
G03*
X10506750Y-16846000I-87500J0D01*
G01*
X10919500Y-14941000D02*
G75*
G03*
X10919500Y-14941000I-87500J0D01*
G01*
X10983000Y-10178500D02*
G75*
G03*
X10983000Y-10178500I-87500J0D01*
G01*
X10983000Y-13036000D02*
G75*
G03*
X10983000Y-13036000I-87500J0D01*
G01*
X11395750Y-16846000D02*
G75*
G03*
X11395750Y-16846000I-87500J0D01*
G01*
X11459250Y-18751000D02*
G75*
G03*
X11459250Y-18751000I-87500J0D01*
G01*
X11872000Y-10178500D02*
G75*
G03*
X11872000Y-10178500I-87500J0D01*
G01*
X11872000Y-13036000D02*
G75*
G03*
X11872000Y-13036000I-87500J0D01*
G01*
X11935500Y-14941000D02*
G75*
G03*
X11935500Y-14941000I-87500J0D01*
G01*
X12348250Y-18751000D02*
G75*
G03*
X12348250Y-18751000I-87500J0D01*
G01*
X12411750Y-16846000D02*
G75*
G03*
X12411750Y-16846000I-87500J0D01*
G01*
X12824500Y-14941000D02*
G75*
G03*
X12824500Y-14941000I-87500J0D01*
G01*
X12888000Y-10178500D02*
G75*
G03*
X12888000Y-10178500I-87500J0D01*
G01*
X12888000Y-13036000D02*
G75*
G03*
X12888000Y-13036000I-87500J0D01*
G01*
X13300750Y-16846000D02*
G75*
G03*
X13300750Y-16846000I-87500J0D01*
G01*
X13364250Y-18751000D02*
G75*
G03*
X13364250Y-18751000I-87500J0D01*
G01*
X13777000Y-10178500D02*
G75*
G03*
X13777000Y-10178500I-87500J0D01*
G01*
X13777000Y-13036000D02*
G75*
G03*
X13777000Y-13036000I-87500J0D01*
G01*
X13840500Y-14941000D02*
G75*
G03*
X13840500Y-14941000I-87500J0D01*
G01*
X14253250Y-18751000D02*
G75*
G03*
X14253250Y-18751000I-87500J0D01*
G01*
X14316750Y-16846000D02*
G75*
G03*
X14316750Y-16846000I-87500J0D01*
G01*
X14729500Y-14941000D02*
G75*
G03*
X14729500Y-14941000I-87500J0D01*
G01*
X14793000Y-10178500D02*
G75*
G03*
X14793000Y-10178500I-87500J0D01*
G01*
X14793000Y-13036000D02*
G75*
G03*
X14793000Y-13036000I-87500J0D01*
G01*
X15205750Y-16846000D02*
G75*
G03*
X15205750Y-16846000I-87500J0D01*
G01*
X15269250Y-18751000D02*
G75*
G03*
X15269250Y-18751000I-87500J0D01*
G01*
X15682000Y-13036000D02*
G75*
G03*
X15682000Y-13036000I-87500J0D01*
G01*
X15745500Y-14941000D02*
G75*
G03*
X15745500Y-14941000I-87500J0D01*
G01*
X16158250Y-18751000D02*
G75*
G03*
X16158250Y-18751000I-87500J0D01*
G01*
X16221750Y-16846000D02*
G75*
G03*
X16221750Y-16846000I-87500J0D01*
G01*
X16396375Y-20656000D02*
G75*
G03*
X16396375Y-20656000I-87500J0D01*
G01*
X16634500Y-10178500D02*
G75*
G03*
X16634500Y-10178500I-87500J0D01*
G01*
X16634500Y-14941000D02*
G75*
G03*
X16634500Y-14941000I-87500J0D01*
G01*
X16698000Y-13036000D02*
G75*
G03*
X16698000Y-13036000I-87500J0D01*
G01*
X17110750Y-16846000D02*
G75*
G03*
X17110750Y-16846000I-87500J0D01*
G01*
X17174250Y-18751000D02*
G75*
G03*
X17174250Y-18751000I-87500J0D01*
G01*
X17412375Y-20656000D02*
G75*
G03*
X17412375Y-20656000I-87500J0D01*
G01*
X17587000Y-13036000D02*
G75*
G03*
X17587000Y-13036000I-87500J0D01*
G01*
X17650500Y-10178500D02*
G75*
G03*
X17650500Y-10178500I-87500J0D01*
G01*
X17650500Y-14941000D02*
G75*
G03*
X17650500Y-14941000I-87500J0D01*
G01*
X18063250Y-18751000D02*
G75*
G03*
X18063250Y-18751000I-87500J0D01*
G01*
X18126750Y-16846000D02*
G75*
G03*
X18126750Y-16846000I-87500J0D01*
G01*
X18539500Y-10178500D02*
G75*
G03*
X18539500Y-10178500I-87500J0D01*
G01*
X18539500Y-14941000D02*
G75*
G03*
X18539500Y-14941000I-87500J0D01*
G01*
X18603000Y-13036000D02*
G75*
G03*
X18603000Y-13036000I-87500J0D01*
G01*
X19015750Y-16846000D02*
G75*
G03*
X19015750Y-16846000I-87500J0D01*
G01*
X19079250Y-18751000D02*
G75*
G03*
X19079250Y-18751000I-87500J0D01*
G01*
X19492000Y-13036000D02*
G75*
G03*
X19492000Y-13036000I-87500J0D01*
G01*
X19555500Y-10178500D02*
G75*
G03*
X19555500Y-10178500I-87500J0D01*
G01*
X19555500Y-14941000D02*
G75*
G03*
X19555500Y-14941000I-87500J0D01*
G01*
X19968250Y-18751000D02*
G75*
G03*
X19968250Y-18751000I-87500J0D01*
G01*
X20031750Y-16846000D02*
G75*
G03*
X20031750Y-16846000I-87500J0D01*
G01*
X20444500Y-10178500D02*
G75*
G03*
X20444500Y-10178500I-87500J0D01*
G01*
X20444500Y-14941000D02*
G75*
G03*
X20444500Y-14941000I-87500J0D01*
G01*
X20508000Y-13036000D02*
G75*
G03*
X20508000Y-13036000I-87500J0D01*
G01*
X20920750Y-16846000D02*
G75*
G03*
X20920750Y-16846000I-87500J0D01*
G01*
X20984250Y-18751000D02*
G75*
G03*
X20984250Y-18751000I-87500J0D01*
G01*
X21397000Y-13036000D02*
G75*
G03*
X21397000Y-13036000I-87500J0D01*
G01*
X21460500Y-10178500D02*
G75*
G03*
X21460500Y-10178500I-87500J0D01*
G01*
X21460500Y-14941000D02*
G75*
G03*
X21460500Y-14941000I-87500J0D01*
G01*
X21873250Y-18751000D02*
G75*
G03*
X21873250Y-18751000I-87500J0D01*
G01*
X21936750Y-16846000D02*
G75*
G03*
X21936750Y-16846000I-87500J0D01*
G01*
X22349500Y-10178500D02*
G75*
G03*
X22349500Y-10178500I-87500J0D01*
G01*
X22349500Y-14941000D02*
G75*
G03*
X22349500Y-14941000I-87500J0D01*
G01*
X22413000Y-13036000D02*
G75*
G03*
X22413000Y-13036000I-87500J0D01*
G01*
X22825750Y-16846000D02*
G75*
G03*
X22825750Y-16846000I-87500J0D01*
G01*
X22889250Y-18751000D02*
G75*
G03*
X22889250Y-18751000I-87500J0D01*
G01*
X23302000Y-13036000D02*
G75*
G03*
X23302000Y-13036000I-87500J0D01*
G01*
X23365500Y-10178500D02*
G75*
G03*
X23365500Y-10178500I-87500J0D01*
G01*
X23365500Y-14941000D02*
G75*
G03*
X23365500Y-14941000I-87500J0D01*
G01*
X23540125Y-20656000D02*
G75*
G03*
X23540125Y-20656000I-87500J0D01*
G01*
X23778250Y-18751000D02*
G75*
G03*
X23778250Y-18751000I-87500J0D01*
G01*
X23841750Y-16846000D02*
G75*
G03*
X23841750Y-16846000I-87500J0D01*
G01*
X24254500Y-14941000D02*
G75*
G03*
X24254500Y-14941000I-87500J0D01*
G01*
X24318000Y-13036000D02*
G75*
G03*
X24318000Y-13036000I-87500J0D01*
G01*
X24556125Y-20656000D02*
G75*
G03*
X24556125Y-20656000I-87500J0D01*
G01*
X24730750Y-16846000D02*
G75*
G03*
X24730750Y-16846000I-87500J0D01*
G01*
X24794250Y-18751000D02*
G75*
G03*
X24794250Y-18751000I-87500J0D01*
G01*
X25207000Y-10178500D02*
G75*
G03*
X25207000Y-10178500I-87500J0D01*
G01*
X25207000Y-13036000D02*
G75*
G03*
X25207000Y-13036000I-87500J0D01*
G01*
X25270500Y-14941000D02*
G75*
G03*
X25270500Y-14941000I-87500J0D01*
G01*
X25683250Y-18751000D02*
G75*
G03*
X25683250Y-18751000I-87500J0D01*
G01*
X25746750Y-16846000D02*
G75*
G03*
X25746750Y-16846000I-87500J0D01*
G01*
X25921375Y-20656000D02*
G75*
G03*
X25921375Y-20656000I-87500J0D01*
G01*
X26159500Y-14941000D02*
G75*
G03*
X26159500Y-14941000I-87500J0D01*
G01*
X26223000Y-10178500D02*
G75*
G03*
X26223000Y-10178500I-87500J0D01*
G01*
X26223000Y-13036000D02*
G75*
G03*
X26223000Y-13036000I-87500J0D01*
G01*
X26635750Y-16846000D02*
G75*
G03*
X26635750Y-16846000I-87500J0D01*
G01*
X26699250Y-18751000D02*
G75*
G03*
X26699250Y-18751000I-87500J0D01*
G01*
X26937375Y-20656000D02*
G75*
G03*
X26937375Y-20656000I-87500J0D01*
G01*
X27112000Y-10178500D02*
G75*
G03*
X27112000Y-10178500I-87500J0D01*
G01*
X27112000Y-13036000D02*
G75*
G03*
X27112000Y-13036000I-87500J0D01*
G01*
X27175500Y-14941000D02*
G75*
G03*
X27175500Y-14941000I-87500J0D01*
G01*
X27651750Y-16846000D02*
G75*
G03*
X27651750Y-16846000I-87500J0D01*
G01*
X28064500Y-14941000D02*
G75*
G03*
X28064500Y-14941000I-87500J0D01*
G01*
X28128000Y-10178500D02*
G75*
G03*
X28128000Y-10178500I-87500J0D01*
G01*
X28128000Y-13036000D02*
G75*
G03*
X28128000Y-13036000I-87500J0D01*
G01*
X28302625Y-20656000D02*
G75*
G03*
X28302625Y-20656000I-87500J0D01*
G01*
X28540750Y-16846000D02*
G75*
G03*
X28540750Y-16846000I-87500J0D01*
G01*
X29017000Y-10178500D02*
G75*
G03*
X29017000Y-10178500I-87500J0D01*
G01*
X29080500Y-14941000D02*
G75*
G03*
X29080500Y-14941000I-87500J0D01*
G01*
X29255125Y-18751000D02*
G75*
G03*
X29255125Y-18751000I-87500J0D01*
G01*
X29318625Y-20656000D02*
G75*
G03*
X29318625Y-20656000I-87500J0D01*
G01*
X29556750Y-16846000D02*
G75*
G03*
X29556750Y-16846000I-87500J0D01*
G01*
X29729500Y-16843000D02*
G75*
G03*
X29729500Y-16843000I-87500J0D01*
G01*
X29969500Y-13036000D02*
G75*
G03*
X29969500Y-13036000I-87500J0D01*
G01*
X30033000Y-10178500D02*
G75*
G03*
X30033000Y-10178500I-87500J0D01*
G01*
X30271125Y-18751000D02*
G75*
G03*
X30271125Y-18751000I-87500J0D01*
G01*
X30444500Y-14938500D02*
G75*
G03*
X30444500Y-14938500I-87500J0D01*
G01*
X30683875Y-20656000D02*
G75*
G03*
X30683875Y-20656000I-87500J0D01*
G01*
X30745500Y-16843000D02*
G75*
G03*
X30745500Y-16843000I-87500J0D01*
G01*
X30922000Y-10178500D02*
G75*
G03*
X30922000Y-10178500I-87500J0D01*
G01*
X30985500Y-13036000D02*
G75*
G03*
X30985500Y-13036000I-87500J0D01*
G01*
X31190000Y-15385500D02*
G75*
G03*
X31190000Y-15385500I-87500J0D01*
G01*
X31190000Y-16401500D02*
G75*
G03*
X31190000Y-16401500I-87500J0D01*
G01*
X31460500Y-14938500D02*
G75*
G03*
X31460500Y-14938500I-87500J0D01*
G01*
X31699875Y-20656000D02*
G75*
G03*
X31699875Y-20656000I-87500J0D01*
G01*
X31938000Y-10178500D02*
G75*
G03*
X31938000Y-10178500I-87500J0D01*
G01*
X33303250Y-10178500D02*
G75*
G03*
X33303250Y-10178500I-87500J0D01*
G01*
X33303250Y-13036000D02*
G75*
G03*
X33303250Y-13036000I-87500J0D01*
G01*
X33303250Y-14941000D02*
G75*
G03*
X33303250Y-14941000I-87500J0D01*
G01*
X33303250Y-20656000D02*
G75*
G03*
X33303250Y-20656000I-87500J0D01*
G01*
X34319250Y-10178500D02*
G75*
G03*
X34319250Y-10178500I-87500J0D01*
G01*
X34319250Y-13036000D02*
G75*
G03*
X34319250Y-13036000I-87500J0D01*
G01*
X34319250Y-14941000D02*
G75*
G03*
X34319250Y-14941000I-87500J0D01*
G01*
X34319250Y-20656000D02*
G75*
G03*
X34319250Y-20656000I-87500J0D01*
G01*
X35208250Y-10178500D02*
G75*
G03*
X35208250Y-10178500I-87500J0D01*
G01*
X35208250Y-13036000D02*
G75*
G03*
X35208250Y-13036000I-87500J0D01*
G01*
X35208250Y-14941000D02*
G75*
G03*
X35208250Y-14941000I-87500J0D01*
G01*
X35208250Y-18751000D02*
G75*
G03*
X35208250Y-18751000I-87500J0D01*
G01*
X35208250Y-20656000D02*
G75*
G03*
X35208250Y-20656000I-87500J0D01*
G01*
X36224250Y-10178500D02*
G75*
G03*
X36224250Y-10178500I-87500J0D01*
G01*
X36224250Y-13036000D02*
G75*
G03*
X36224250Y-13036000I-87500J0D01*
G01*
X36224250Y-14941000D02*
G75*
G03*
X36224250Y-14941000I-87500J0D01*
G01*
X36224250Y-18751000D02*
G75*
G03*
X36224250Y-18751000I-87500J0D01*
G01*
X36224250Y-20656000D02*
G75*
G03*
X36224250Y-20656000I-87500J0D01*
G01*
X37113250Y-10178500D02*
G75*
G03*
X37113250Y-10178500I-87500J0D01*
G01*
X37113250Y-13036000D02*
G75*
G03*
X37113250Y-13036000I-87500J0D01*
G01*
X37113250Y-14941000D02*
G75*
G03*
X37113250Y-14941000I-87500J0D01*
G01*
X37113250Y-20656000D02*
G75*
G03*
X37113250Y-20656000I-87500J0D01*
G01*
X38129250Y-10178500D02*
G75*
G03*
X38129250Y-10178500I-87500J0D01*
G01*
X38129250Y-13036000D02*
G75*
G03*
X38129250Y-13036000I-87500J0D01*
G01*
X38129250Y-14941000D02*
G75*
G03*
X38129250Y-14941000I-87500J0D01*
G01*
X38129250Y-20656000D02*
G75*
G03*
X38129250Y-20656000I-87500J0D01*
G01*
X4674375Y-17900100D02*
X4674375Y-18204900D01*
X4521975Y-18052500D02*
X4826775Y-18052500D01*
X7055625Y-17900100D02*
X7055625Y-18204900D01*
X6903225Y-18052500D02*
X7208025Y-18052500D01*
X11816885Y-21202100D02*
X11816885Y-21506900D01*
X11664485Y-21354500D02*
X11969285Y-21354500D01*
X21816865Y-21202100D02*
X21816865Y-21506900D01*
X21664465Y-21354500D02*
X21969265Y-21354500D01*
X28485000Y-17900100D02*
X28485000Y-18204900D01*
X28332600Y-18052500D02*
X28637400Y-18052500D01*
X28959375Y-15992100D02*
X28959375Y-16296900D01*
X28806975Y-16144500D02*
X29111775Y-16144500D01*
X29199375Y-12185100D02*
X29199375Y-12489900D01*
X29046975Y-12337500D02*
X29351775Y-12337500D01*
X30866250Y-17900100D02*
X30866250Y-18204900D01*
X30713850Y-18052500D02*
X31018650Y-18052500D01*
X31340625Y-15992100D02*
X31340625Y-16296900D01*
X31188225Y-16144500D02*
X31493025Y-16144500D01*
X31580625Y-12185100D02*
X31580625Y-12489900D01*
X31428225Y-12337500D02*
X31733025Y-12337500D01*
X31801000Y-14547300D02*
X31801000Y-14852100D01*
X31648600Y-14699700D02*
X31953400Y-14699700D01*
X31801000Y-16934900D02*
X31801000Y-17239700D01*
X31648600Y-17087300D02*
X31953400Y-17087300D01*
X3965638Y-21331638D02*
X3965638Y-21105362D01*
X3739362Y-21105362D01*
X3739362Y-21331638D01*
X3965638Y-21331638D01*
X3975638Y-6451638D02*
X3975638Y-6225362D01*
X3749362Y-6225362D01*
X3749362Y-6451638D01*
X3975638Y-6451638D01*
X4950638Y-11721638D02*
X4950638Y-11495362D01*
X4724362Y-11495362D01*
X4724362Y-11721638D01*
X4950638Y-11721638D01*
X21035638Y-21131638D02*
X21035638Y-20905362D01*
X20809362Y-20905362D01*
X20809362Y-21131638D01*
X21035638Y-21131638D01*
X21335638Y-11721638D02*
X21335638Y-11495362D01*
X21109362Y-11495362D01*
X21109362Y-11721638D01*
X21335638Y-11721638D01*
X37720638Y-11719138D02*
X37720638Y-11492862D01*
X37494362Y-11492862D01*
X37494362Y-11719138D01*
X37720638Y-11719138D01*
X38695638Y-6451638D02*
X38695638Y-6225362D01*
X38469362Y-6225362D01*
X38469362Y-6451638D01*
X38695638Y-6451638D01*
X38705638Y-21321638D02*
X38705638Y-21095362D01*
X38479362Y-21095362D01*
X38479362Y-21321638D01*
X38705638Y-21321638D01*
X4672500Y-10377890D02*
X4871890Y-10178500D01*
X4672500Y-9979110D01*
X4473110Y-10178500D01*
X4672500Y-10377890D01*
X4672500Y-13235390D02*
X4871890Y-13036000D01*
X4672500Y-12836610D01*
X4473110Y-13036000D01*
X4672500Y-13235390D01*
X4674375Y-19775890D02*
X4873765Y-19576500D01*
X4674375Y-19377110D01*
X4474985Y-19576500D01*
X4674375Y-19775890D01*
X4910625Y-18950390D02*
X5110015Y-18751000D01*
X4910625Y-18551610D01*
X4711235Y-18751000D01*
X4910625Y-18950390D01*
X4910625Y-20855390D02*
X5110015Y-20656000D01*
X4910625Y-20456610D01*
X4711235Y-20656000D01*
X4910625Y-20855390D01*
X5148750Y-15140390D02*
X5348140Y-14941000D01*
X5148750Y-14741610D01*
X4949360Y-14941000D01*
X5148750Y-15140390D01*
X5386875Y-17045390D02*
X5586265Y-16846000D01*
X5386875Y-16646610D01*
X5187485Y-16846000D01*
X5386875Y-17045390D01*
X5865000Y-18950390D02*
X6064390Y-18751000D01*
X5865000Y-18551610D01*
X5665610Y-18751000D01*
X5865000Y-18950390D01*
X6577500Y-13235390D02*
X6776890Y-13036000D01*
X6577500Y-12836610D01*
X6378110Y-13036000D01*
X6577500Y-13235390D01*
X7053750Y-18950390D02*
X7253140Y-18751000D01*
X7053750Y-18551610D01*
X6854360Y-18751000D01*
X7053750Y-18950390D01*
X7055625Y-19775890D02*
X7255015Y-19576500D01*
X7055625Y-19377110D01*
X6856235Y-19576500D01*
X7055625Y-19775890D01*
X7291875Y-20855390D02*
X7491265Y-20656000D01*
X7291875Y-20456610D01*
X7092485Y-20656000D01*
X7291875Y-20855390D01*
X7530000Y-15140390D02*
X7729390Y-14941000D01*
X7530000Y-14741610D01*
X7330610Y-14941000D01*
X7530000Y-15140390D01*
X8006250Y-17045390D02*
X8205640Y-16846000D01*
X8006250Y-16646610D01*
X7806860Y-16846000D01*
X8006250Y-17045390D01*
X8482500Y-10377890D02*
X8681890Y-10178500D01*
X8482500Y-9979110D01*
X8283110Y-10178500D01*
X8482500Y-10377890D01*
X8482500Y-13235390D02*
X8681890Y-13036000D01*
X8482500Y-12836610D01*
X8283110Y-13036000D01*
X8482500Y-13235390D01*
X8958750Y-18950390D02*
X9158140Y-18751000D01*
X8958750Y-18551610D01*
X8759360Y-18751000D01*
X8958750Y-18950390D01*
X9435000Y-15140390D02*
X9634390Y-14941000D01*
X9435000Y-14741610D01*
X9235610Y-14941000D01*
X9435000Y-15140390D01*
X9673125Y-20855390D02*
X9872515Y-20656000D01*
X9673125Y-20456610D01*
X9473735Y-20656000D01*
X9673125Y-20855390D01*
X9911250Y-17045390D02*
X10110640Y-16846000D01*
X9911250Y-16646610D01*
X9711860Y-16846000D01*
X9911250Y-17045390D01*
X10387500Y-10377890D02*
X10586890Y-10178500D01*
X10387500Y-9979110D01*
X10188110Y-10178500D01*
X10387500Y-10377890D01*
X10387500Y-13235390D02*
X10586890Y-13036000D01*
X10387500Y-12836610D01*
X10188110Y-13036000D01*
X10387500Y-13235390D01*
X10863750Y-18950390D02*
X11063140Y-18751000D01*
X10863750Y-18551610D01*
X10664360Y-18751000D01*
X10863750Y-18950390D01*
X11340000Y-15140390D02*
X11539390Y-14941000D01*
X11340000Y-14741610D01*
X11140610Y-14941000D01*
X11340000Y-15140390D01*
X11816250Y-17045390D02*
X12015640Y-16846000D01*
X11816250Y-16646610D01*
X11616860Y-16846000D01*
X11816250Y-17045390D01*
X11816885Y-20029890D02*
X12016275Y-19830500D01*
X11816885Y-19631110D01*
X11617495Y-19830500D01*
X11816885Y-20029890D01*
X12292500Y-10377890D02*
X12491890Y-10178500D01*
X12292500Y-9979110D01*
X12093110Y-10178500D01*
X12292500Y-10377890D01*
X12292500Y-13235390D02*
X12491890Y-13036000D01*
X12292500Y-12836610D01*
X12093110Y-13036000D01*
X12292500Y-13235390D01*
X12768750Y-18950390D02*
X12968140Y-18751000D01*
X12768750Y-18551610D01*
X12569360Y-18751000D01*
X12768750Y-18950390D01*
X13245000Y-15140390D02*
X13444390Y-14941000D01*
X13245000Y-14741610D01*
X13045610Y-14941000D01*
X13245000Y-15140390D01*
X13721250Y-17045390D02*
X13920640Y-16846000D01*
X13721250Y-16646610D01*
X13521860Y-16846000D01*
X13721250Y-17045390D01*
X14197500Y-10377890D02*
X14396890Y-10178500D01*
X14197500Y-9979110D01*
X13998110Y-10178500D01*
X14197500Y-10377890D01*
X14197500Y-13235390D02*
X14396890Y-13036000D01*
X14197500Y-12836610D01*
X13998110Y-13036000D01*
X14197500Y-13235390D01*
X14673750Y-18950390D02*
X14873140Y-18751000D01*
X14673750Y-18551610D01*
X14474360Y-18751000D01*
X14673750Y-18950390D01*
X15150000Y-15140390D02*
X15349390Y-14941000D01*
X15150000Y-14741610D01*
X14950610Y-14941000D01*
X15150000Y-15140390D01*
X15626250Y-17045390D02*
X15825640Y-16846000D01*
X15626250Y-16646610D01*
X15426860Y-16846000D01*
X15626250Y-17045390D01*
X16102500Y-13235390D02*
X16301890Y-13036000D01*
X16102500Y-12836610D01*
X15903110Y-13036000D01*
X16102500Y-13235390D01*
X16578750Y-18950390D02*
X16778140Y-18751000D01*
X16578750Y-18551610D01*
X16379360Y-18751000D01*
X16578750Y-18950390D01*
X16816875Y-20855390D02*
X17016265Y-20656000D01*
X16816875Y-20456610D01*
X16617485Y-20656000D01*
X16816875Y-20855390D01*
X17055000Y-10377890D02*
X17254390Y-10178500D01*
X17055000Y-9979110D01*
X16855610Y-10178500D01*
X17055000Y-10377890D01*
X17055000Y-15140390D02*
X17254390Y-14941000D01*
X17055000Y-14741610D01*
X16855610Y-14941000D01*
X17055000Y-15140390D01*
X17531250Y-17045390D02*
X17730640Y-16846000D01*
X17531250Y-16646610D01*
X17331860Y-16846000D01*
X17531250Y-17045390D01*
X18007500Y-13235390D02*
X18206890Y-13036000D01*
X18007500Y-12836610D01*
X17808110Y-13036000D01*
X18007500Y-13235390D01*
X18483750Y-18950390D02*
X18683140Y-18751000D01*
X18483750Y-18551610D01*
X18284360Y-18751000D01*
X18483750Y-18950390D01*
X18960000Y-10377890D02*
X19159390Y-10178500D01*
X18960000Y-9979110D01*
X18760610Y-10178500D01*
X18960000Y-10377890D01*
X18960000Y-15140390D02*
X19159390Y-14941000D01*
X18960000Y-14741610D01*
X18760610Y-14941000D01*
X18960000Y-15140390D01*
X19436250Y-17045390D02*
X19635640Y-16846000D01*
X19436250Y-16646610D01*
X19236860Y-16846000D01*
X19436250Y-17045390D01*
X19912500Y-13235390D02*
X20111890Y-13036000D01*
X19912500Y-12836610D01*
X19713110Y-13036000D01*
X19912500Y-13235390D01*
X20388750Y-18950390D02*
X20588140Y-18751000D01*
X20388750Y-18551610D01*
X20189360Y-18751000D01*
X20388750Y-18950390D01*
X20865000Y-10377890D02*
X21064390Y-10178500D01*
X20865000Y-9979110D01*
X20665610Y-10178500D01*
X20865000Y-10377890D01*
X20865000Y-15140390D02*
X21064390Y-14941000D01*
X20865000Y-14741610D01*
X20665610Y-14941000D01*
X20865000Y-15140390D01*
X21341250Y-17045390D02*
X21540640Y-16846000D01*
X21341250Y-16646610D01*
X21141860Y-16846000D01*
X21341250Y-17045390D01*
X21816865Y-20029890D02*
X22016255Y-19830500D01*
X21816865Y-19631110D01*
X21617475Y-19830500D01*
X21816865Y-20029890D01*
X21817500Y-13235390D02*
X22016890Y-13036000D01*
X21817500Y-12836610D01*
X21618110Y-13036000D01*
X21817500Y-13235390D01*
X22293750Y-18950390D02*
X22493140Y-18751000D01*
X22293750Y-18551610D01*
X22094360Y-18751000D01*
X22293750Y-18950390D01*
X22770000Y-10377890D02*
X22969390Y-10178500D01*
X22770000Y-9979110D01*
X22570610Y-10178500D01*
X22770000Y-10377890D01*
X22770000Y-15140390D02*
X22969390Y-14941000D01*
X22770000Y-14741610D01*
X22570610Y-14941000D01*
X22770000Y-15140390D01*
X23246250Y-17045390D02*
X23445640Y-16846000D01*
X23246250Y-16646610D01*
X23046860Y-16846000D01*
X23246250Y-17045390D01*
X23722500Y-13235390D02*
X23921890Y-13036000D01*
X23722500Y-12836610D01*
X23523110Y-13036000D01*
X23722500Y-13235390D01*
X23960625Y-20855390D02*
X24160015Y-20656000D01*
X23960625Y-20456610D01*
X23761235Y-20656000D01*
X23960625Y-20855390D01*
X24198750Y-18950390D02*
X24398140Y-18751000D01*
X24198750Y-18551610D01*
X23999360Y-18751000D01*
X24198750Y-18950390D01*
X24675000Y-15140390D02*
X24874390Y-14941000D01*
X24675000Y-14741610D01*
X24475610Y-14941000D01*
X24675000Y-15140390D01*
X25151250Y-17045390D02*
X25350640Y-16846000D01*
X25151250Y-16646610D01*
X24951860Y-16846000D01*
X25151250Y-17045390D01*
X25627500Y-10377890D02*
X25826890Y-10178500D01*
X25627500Y-9979110D01*
X25428110Y-10178500D01*
X25627500Y-10377890D01*
X25627500Y-13235390D02*
X25826890Y-13036000D01*
X25627500Y-12836610D01*
X25428110Y-13036000D01*
X25627500Y-13235390D01*
X26103750Y-18950390D02*
X26303140Y-18751000D01*
X26103750Y-18551610D01*
X25904360Y-18751000D01*
X26103750Y-18950390D01*
X26341875Y-20855390D02*
X26541265Y-20656000D01*
X26341875Y-20456610D01*
X26142485Y-20656000D01*
X26341875Y-20855390D01*
X26580000Y-15140390D02*
X26779390Y-14941000D01*
X26580000Y-14741610D01*
X26380610Y-14941000D01*
X26580000Y-15140390D01*
X27056250Y-17045390D02*
X27255640Y-16846000D01*
X27056250Y-16646610D01*
X26856860Y-16846000D01*
X27056250Y-17045390D01*
X27532500Y-10377890D02*
X27731890Y-10178500D01*
X27532500Y-9979110D01*
X27333110Y-10178500D01*
X27532500Y-10377890D01*
X27532500Y-13235390D02*
X27731890Y-13036000D01*
X27532500Y-12836610D01*
X27333110Y-13036000D01*
X27532500Y-13235390D01*
X28485000Y-15140390D02*
X28684390Y-14941000D01*
X28485000Y-14741610D01*
X28285610Y-14941000D01*
X28485000Y-15140390D01*
X28485000Y-19775890D02*
X28684390Y-19576500D01*
X28485000Y-19377110D01*
X28285610Y-19576500D01*
X28485000Y-19775890D01*
X28723125Y-20855390D02*
X28922515Y-20656000D01*
X28723125Y-20456610D01*
X28523735Y-20656000D01*
X28723125Y-20855390D01*
X28959375Y-17867890D02*
X29158765Y-17668500D01*
X28959375Y-17469110D01*
X28759985Y-17668500D01*
X28959375Y-17867890D01*
X28961250Y-17045390D02*
X29160640Y-16846000D01*
X28961250Y-16646610D01*
X28761860Y-16846000D01*
X28961250Y-17045390D01*
X29199375Y-14060890D02*
X29398765Y-13861500D01*
X29199375Y-13662110D01*
X28999985Y-13861500D01*
X29199375Y-14060890D01*
X29437500Y-10377890D02*
X29636890Y-10178500D01*
X29437500Y-9979110D01*
X29238110Y-10178500D01*
X29437500Y-10377890D01*
X29675625Y-18950390D02*
X29875015Y-18751000D01*
X29675625Y-18551610D01*
X29476235Y-18751000D01*
X29675625Y-18950390D01*
X30150000Y-17042390D02*
X30349390Y-16843000D01*
X30150000Y-16643610D01*
X29950610Y-16843000D01*
X30150000Y-17042390D01*
X30277000Y-14899090D02*
X30476390Y-14699700D01*
X30277000Y-14500310D01*
X30077610Y-14699700D01*
X30277000Y-14899090D01*
X30277000Y-17286690D02*
X30476390Y-17087300D01*
X30277000Y-16887910D01*
X30077610Y-17087300D01*
X30277000Y-17286690D01*
X30390000Y-13235390D02*
X30589390Y-13036000D01*
X30390000Y-12836610D01*
X30190610Y-13036000D01*
X30390000Y-13235390D01*
X30865000Y-15137890D02*
X31064390Y-14938500D01*
X30865000Y-14739110D01*
X30665610Y-14938500D01*
X30865000Y-15137890D01*
X30866250Y-19775890D02*
X31065640Y-19576500D01*
X30866250Y-19377110D01*
X30666860Y-19576500D01*
X30866250Y-19775890D01*
X31102500Y-16092890D02*
X31301890Y-15893500D01*
X31102500Y-15694110D01*
X30903110Y-15893500D01*
X31102500Y-16092890D01*
X31104375Y-20855390D02*
X31303765Y-20656000D01*
X31104375Y-20456610D01*
X30904985Y-20656000D01*
X31104375Y-20855390D01*
X31340625Y-17867890D02*
X31540015Y-17668500D01*
X31340625Y-17469110D01*
X31141235Y-17668500D01*
X31340625Y-17867890D01*
X31342500Y-10377890D02*
X31541890Y-10178500D01*
X31342500Y-9979110D01*
X31143110Y-10178500D01*
X31342500Y-10377890D01*
X31580625Y-14060890D02*
X31780015Y-13861500D01*
X31580625Y-13662110D01*
X31381235Y-13861500D01*
X31580625Y-14060890D01*
X33723750Y-10377890D02*
X33923140Y-10178500D01*
X33723750Y-9979110D01*
X33524360Y-10178500D01*
X33723750Y-10377890D01*
X33723750Y-13235390D02*
X33923140Y-13036000D01*
X33723750Y-12836610D01*
X33524360Y-13036000D01*
X33723750Y-13235390D01*
X33723750Y-15140390D02*
X33923140Y-14941000D01*
X33723750Y-14741610D01*
X33524360Y-14941000D01*
X33723750Y-15140390D01*
X33723750Y-20855390D02*
X33923140Y-20656000D01*
X33723750Y-20456610D01*
X33524360Y-20656000D01*
X33723750Y-20855390D01*
X35628750Y-10377890D02*
X35828140Y-10178500D01*
X35628750Y-9979110D01*
X35429360Y-10178500D01*
X35628750Y-10377890D01*
X35628750Y-13235390D02*
X35828140Y-13036000D01*
X35628750Y-12836610D01*
X35429360Y-13036000D01*
X35628750Y-13235390D01*
X35628750Y-15140390D02*
X35828140Y-14941000D01*
X35628750Y-14741610D01*
X35429360Y-14941000D01*
X35628750Y-15140390D01*
X35628750Y-18950390D02*
X35828140Y-18751000D01*
X35628750Y-18551610D01*
X35429360Y-18751000D01*
X35628750Y-18950390D01*
X35628750Y-20855390D02*
X35828140Y-20656000D01*
X35628750Y-20456610D01*
X35429360Y-20656000D01*
X35628750Y-20855390D01*
X37533750Y-10377890D02*
X37733140Y-10178500D01*
X37533750Y-9979110D01*
X37334360Y-10178500D01*
X37533750Y-10377890D01*
X37533750Y-13235390D02*
X37733140Y-13036000D01*
X37533750Y-12836610D01*
X37334360Y-13036000D01*
X37533750Y-13235390D01*
X37533750Y-15140390D02*
X37733140Y-14941000D01*
X37533750Y-14741610D01*
X37334360Y-14941000D01*
X37533750Y-15140390D01*
X37533750Y-20855390D02*
X37733140Y-20656000D01*
X37533750Y-20456610D01*
X37334360Y-20656000D01*
X37533750Y-20855390D01*
D12*
X3773928Y-22049214D02*
X3773928Y-21749214D01*
X3845357Y-21749214D01*
X3888214Y-21763500D01*
X3916786Y-21792072D01*
X3931071Y-21820643D01*
X3945357Y-21877786D01*
X3945357Y-21920643D01*
X3931071Y-21977786D01*
X3916786Y-22006357D01*
X3888214Y-22034929D01*
X3845357Y-22049214D01*
X3773928Y-22049214D01*
X4073928Y-22049214D02*
X4073928Y-21849214D01*
X4073928Y-21906357D02*
X4088214Y-21877786D01*
X4102500Y-21863500D01*
X4131071Y-21849214D01*
X4159643Y-21849214D01*
X4259643Y-22049214D02*
X4259643Y-21849214D01*
X4259643Y-21749214D02*
X4245357Y-21763500D01*
X4259643Y-21777786D01*
X4273928Y-21763500D01*
X4259643Y-21749214D01*
X4259643Y-21777786D01*
X4445357Y-22049214D02*
X4416786Y-22034929D01*
X4402500Y-22006357D01*
X4402500Y-21749214D01*
X4602500Y-22049214D02*
X4573928Y-22034929D01*
X4559643Y-22006357D01*
X4559643Y-21749214D01*
X4945357Y-22049214D02*
X4945357Y-21749214D01*
X5045357Y-21963500D01*
X5145357Y-21749214D01*
X5145357Y-22049214D01*
X5416786Y-22049214D02*
X5416786Y-21892072D01*
X5402500Y-21863500D01*
X5373928Y-21849214D01*
X5316786Y-21849214D01*
X5288214Y-21863500D01*
X5416786Y-22034929D02*
X5388214Y-22049214D01*
X5316786Y-22049214D01*
X5288214Y-22034929D01*
X5273928Y-22006357D01*
X5273928Y-21977786D01*
X5288214Y-21949214D01*
X5316786Y-21934929D01*
X5388214Y-21934929D01*
X5416786Y-21920643D01*
X5559643Y-21849214D02*
X5559643Y-22149214D01*
X5559643Y-21863500D02*
X5588214Y-21849214D01*
X5645357Y-21849214D01*
X5673928Y-21863500D01*
X5688214Y-21877786D01*
X5702500Y-21906357D01*
X5702500Y-21992072D01*
X5688214Y-22020643D01*
X5673928Y-22034929D01*
X5645357Y-22049214D01*
X5588214Y-22049214D01*
X5559643Y-22034929D01*
X5831071Y-22020643D02*
X5845357Y-22034929D01*
X5831071Y-22049214D01*
X5816786Y-22034929D01*
X5831071Y-22020643D01*
X5831071Y-22049214D01*
X5831071Y-21863500D02*
X5845357Y-21877786D01*
X5831071Y-21892072D01*
X5816786Y-21877786D01*
X5831071Y-21863500D01*
X5831071Y-21892072D01*
X3422500Y-22511000D02*
X3487500Y-22576000D01*
X3487500Y-22511000D02*
X3422500Y-22576000D01*
X3831071Y-22379214D02*
X3859643Y-22379214D01*
X3888214Y-22393500D01*
X3902500Y-22407786D01*
X3916786Y-22436357D01*
X3931071Y-22493500D01*
X3931071Y-22564929D01*
X3916786Y-22622071D01*
X3902500Y-22650643D01*
X3888214Y-22664929D01*
X3859643Y-22679214D01*
X3831071Y-22679214D01*
X3802500Y-22664929D01*
X3788214Y-22650643D01*
X3773928Y-22622071D01*
X3759643Y-22564929D01*
X3759643Y-22493500D01*
X3773928Y-22436357D01*
X3788214Y-22407786D01*
X3802500Y-22393500D01*
X3831071Y-22379214D01*
X4059643Y-22650643D02*
X4073928Y-22664929D01*
X4059643Y-22679214D01*
X4045357Y-22664929D01*
X4059643Y-22650643D01*
X4059643Y-22679214D01*
X4331071Y-22379214D02*
X4273928Y-22379214D01*
X4245357Y-22393500D01*
X4231071Y-22407786D01*
X4202500Y-22450643D01*
X4188214Y-22507786D01*
X4188214Y-22622071D01*
X4202500Y-22650643D01*
X4216786Y-22664929D01*
X4245357Y-22679214D01*
X4302500Y-22679214D01*
X4331071Y-22664929D01*
X4345357Y-22650643D01*
X4359643Y-22622071D01*
X4359643Y-22550643D01*
X4345357Y-22522071D01*
X4331071Y-22507786D01*
X4302500Y-22493500D01*
X4245357Y-22493500D01*
X4216786Y-22507786D01*
X4202500Y-22522071D01*
X4188214Y-22550643D01*
X4631071Y-22379214D02*
X4488214Y-22379214D01*
X4473928Y-22522071D01*
X4488214Y-22507786D01*
X4516786Y-22493500D01*
X4588214Y-22493500D01*
X4616786Y-22507786D01*
X4631071Y-22522071D01*
X4645357Y-22550643D01*
X4645357Y-22622071D01*
X4631071Y-22650643D01*
X4616786Y-22664929D01*
X4588214Y-22679214D01*
X4516786Y-22679214D01*
X4488214Y-22664929D01*
X4473928Y-22650643D01*
X4773928Y-22679214D02*
X4773928Y-22479214D01*
X4773928Y-22507786D02*
X4788214Y-22493500D01*
X4816786Y-22479214D01*
X4859643Y-22479214D01*
X4888214Y-22493500D01*
X4902500Y-22522071D01*
X4902500Y-22679214D01*
X4902500Y-22522071D02*
X4916786Y-22493500D01*
X4945357Y-22479214D01*
X4988214Y-22479214D01*
X5016786Y-22493500D01*
X5031071Y-22522071D01*
X5031071Y-22679214D01*
X5173928Y-22679214D02*
X5173928Y-22479214D01*
X5173928Y-22507786D02*
X5188214Y-22493500D01*
X5216786Y-22479214D01*
X5259643Y-22479214D01*
X5288214Y-22493500D01*
X5302500Y-22522071D01*
X5302500Y-22679214D01*
X5302500Y-22522071D02*
X5316786Y-22493500D01*
X5345357Y-22479214D01*
X5388214Y-22479214D01*
X5416786Y-22493500D01*
X5431071Y-22522071D01*
X5431071Y-22679214D01*
X6016786Y-22364929D02*
X5759643Y-22750643D01*
X6402500Y-22379214D02*
X6431071Y-22379214D01*
X6459643Y-22393500D01*
X6473928Y-22407786D01*
X6488214Y-22436357D01*
X6502500Y-22493500D01*
X6502500Y-22564929D01*
X6488214Y-22622071D01*
X6473928Y-22650643D01*
X6459643Y-22664929D01*
X6431071Y-22679214D01*
X6402500Y-22679214D01*
X6373928Y-22664929D01*
X6359643Y-22650643D01*
X6345357Y-22622071D01*
X6331071Y-22564929D01*
X6331071Y-22493500D01*
X6345357Y-22436357D01*
X6359643Y-22407786D01*
X6373928Y-22393500D01*
X6402500Y-22379214D01*
X6631071Y-22650643D02*
X6645357Y-22664929D01*
X6631071Y-22679214D01*
X6616786Y-22664929D01*
X6631071Y-22650643D01*
X6631071Y-22679214D01*
X6831071Y-22379214D02*
X6859643Y-22379214D01*
X6888214Y-22393500D01*
X6902500Y-22407786D01*
X6916786Y-22436357D01*
X6931071Y-22493500D01*
X6931071Y-22564929D01*
X6916786Y-22622071D01*
X6902500Y-22650643D01*
X6888214Y-22664929D01*
X6859643Y-22679214D01*
X6831071Y-22679214D01*
X6802500Y-22664929D01*
X6788214Y-22650643D01*
X6773928Y-22622071D01*
X6759643Y-22564929D01*
X6759643Y-22493500D01*
X6773928Y-22436357D01*
X6788214Y-22407786D01*
X6802500Y-22393500D01*
X6831071Y-22379214D01*
X7045357Y-22407786D02*
X7059643Y-22393500D01*
X7088214Y-22379214D01*
X7159643Y-22379214D01*
X7188214Y-22393500D01*
X7202500Y-22407786D01*
X7216786Y-22436357D01*
X7216786Y-22464929D01*
X7202500Y-22507786D01*
X7031071Y-22679214D01*
X7216786Y-22679214D01*
X7473928Y-22379214D02*
X7416786Y-22379214D01*
X7388214Y-22393500D01*
X7373928Y-22407786D01*
X7345357Y-22450643D01*
X7331071Y-22507786D01*
X7331071Y-22622071D01*
X7345357Y-22650643D01*
X7359643Y-22664929D01*
X7388214Y-22679214D01*
X7445357Y-22679214D01*
X7473928Y-22664929D01*
X7488214Y-22650643D01*
X7502500Y-22622071D01*
X7502500Y-22550643D01*
X7488214Y-22522071D01*
X7473928Y-22507786D01*
X7445357Y-22493500D01*
X7388214Y-22493500D01*
X7359643Y-22507786D01*
X7345357Y-22522071D01*
X7331071Y-22550643D01*
X7616786Y-22379214D02*
X7616786Y-22436357D01*
X7731071Y-22379214D02*
X7731071Y-22436357D01*
X8173928Y-22793500D02*
X8159643Y-22779214D01*
X8131071Y-22736357D01*
X8116786Y-22707786D01*
X8102500Y-22664929D01*
X8088214Y-22593500D01*
X8088214Y-22536357D01*
X8102500Y-22464929D01*
X8116786Y-22422071D01*
X8131071Y-22393500D01*
X8159643Y-22350643D01*
X8173928Y-22336357D01*
X8273928Y-22407786D02*
X8288214Y-22393500D01*
X8316786Y-22379214D01*
X8388214Y-22379214D01*
X8416786Y-22393500D01*
X8431071Y-22407786D01*
X8445357Y-22436357D01*
X8445357Y-22464929D01*
X8431071Y-22507786D01*
X8259643Y-22679214D01*
X8445357Y-22679214D01*
X8802500Y-22679214D02*
X8802500Y-22379214D01*
X8931071Y-22679214D02*
X8931071Y-22522071D01*
X8916786Y-22493500D01*
X8888214Y-22479214D01*
X8845357Y-22479214D01*
X8816786Y-22493500D01*
X8802500Y-22507786D01*
X9116786Y-22679214D02*
X9088214Y-22664929D01*
X9073928Y-22650643D01*
X9059643Y-22622071D01*
X9059643Y-22536357D01*
X9073928Y-22507786D01*
X9088214Y-22493500D01*
X9116786Y-22479214D01*
X9159643Y-22479214D01*
X9188214Y-22493500D01*
X9202500Y-22507786D01*
X9216786Y-22536357D01*
X9216786Y-22622071D01*
X9202500Y-22650643D01*
X9188214Y-22664929D01*
X9159643Y-22679214D01*
X9116786Y-22679214D01*
X9388214Y-22679214D02*
X9359643Y-22664929D01*
X9345357Y-22636357D01*
X9345357Y-22379214D01*
X9616786Y-22664929D02*
X9588214Y-22679214D01*
X9531071Y-22679214D01*
X9502500Y-22664929D01*
X9488214Y-22636357D01*
X9488214Y-22522071D01*
X9502500Y-22493500D01*
X9531071Y-22479214D01*
X9588214Y-22479214D01*
X9616786Y-22493500D01*
X9631071Y-22522071D01*
X9631071Y-22550643D01*
X9488214Y-22579214D01*
X9745357Y-22664929D02*
X9773928Y-22679214D01*
X9831071Y-22679214D01*
X9859643Y-22664929D01*
X9873928Y-22636357D01*
X9873928Y-22622071D01*
X9859643Y-22593500D01*
X9831071Y-22579214D01*
X9788214Y-22579214D01*
X9759643Y-22564929D01*
X9745357Y-22536357D01*
X9745357Y-22522071D01*
X9759643Y-22493500D01*
X9788214Y-22479214D01*
X9831071Y-22479214D01*
X9859643Y-22493500D01*
X9973928Y-22793500D02*
X9988214Y-22779214D01*
X10016786Y-22736357D01*
X10031071Y-22707786D01*
X10045357Y-22664929D01*
X10059643Y-22593500D01*
X10059643Y-22536357D01*
X10045357Y-22464929D01*
X10031071Y-22422071D01*
X10016786Y-22393500D01*
X9988214Y-22350643D01*
X9973928Y-22336357D01*
X10516786Y-22793500D02*
X10502500Y-22779214D01*
X10473928Y-22736357D01*
X10459643Y-22707786D01*
X10445357Y-22664929D01*
X10431071Y-22593500D01*
X10431071Y-22536357D01*
X10445357Y-22464929D01*
X10459643Y-22422071D01*
X10473928Y-22393500D01*
X10502500Y-22350643D01*
X10516786Y-22336357D01*
X10631071Y-22479214D02*
X10631071Y-22679214D01*
X10631071Y-22507786D02*
X10645357Y-22493500D01*
X10673928Y-22479214D01*
X10716786Y-22479214D01*
X10745357Y-22493500D01*
X10759643Y-22522071D01*
X10759643Y-22679214D01*
X10945357Y-22679214D02*
X10916786Y-22664929D01*
X10902500Y-22650643D01*
X10888214Y-22622071D01*
X10888214Y-22536357D01*
X10902500Y-22507786D01*
X10916786Y-22493500D01*
X10945357Y-22479214D01*
X10988214Y-22479214D01*
X11016786Y-22493500D01*
X11031071Y-22507786D01*
X11045357Y-22536357D01*
X11045357Y-22622071D01*
X11031071Y-22650643D01*
X11016786Y-22664929D01*
X10988214Y-22679214D01*
X10945357Y-22679214D01*
X11131071Y-22479214D02*
X11245357Y-22479214D01*
X11173928Y-22379214D02*
X11173928Y-22636357D01*
X11188214Y-22664929D01*
X11216786Y-22679214D01*
X11245357Y-22679214D01*
X11573928Y-22479214D02*
X11573928Y-22779214D01*
X11573928Y-22493500D02*
X11602500Y-22479214D01*
X11659643Y-22479214D01*
X11688214Y-22493500D01*
X11702500Y-22507786D01*
X11716786Y-22536357D01*
X11716786Y-22622071D01*
X11702500Y-22650643D01*
X11688214Y-22664929D01*
X11659643Y-22679214D01*
X11602500Y-22679214D01*
X11573928Y-22664929D01*
X11888214Y-22679214D02*
X11859643Y-22664929D01*
X11845357Y-22636357D01*
X11845357Y-22379214D01*
X12131071Y-22679214D02*
X12131071Y-22522071D01*
X12116786Y-22493500D01*
X12088214Y-22479214D01*
X12031071Y-22479214D01*
X12002500Y-22493500D01*
X12131071Y-22664929D02*
X12102500Y-22679214D01*
X12031071Y-22679214D01*
X12002500Y-22664929D01*
X11988214Y-22636357D01*
X11988214Y-22607786D01*
X12002500Y-22579214D01*
X12031071Y-22564929D01*
X12102500Y-22564929D01*
X12131071Y-22550643D01*
X12231071Y-22479214D02*
X12345357Y-22479214D01*
X12273928Y-22379214D02*
X12273928Y-22636357D01*
X12288214Y-22664929D01*
X12316786Y-22679214D01*
X12345357Y-22679214D01*
X12559643Y-22664929D02*
X12531071Y-22679214D01*
X12473928Y-22679214D01*
X12445357Y-22664929D01*
X12431071Y-22636357D01*
X12431071Y-22522071D01*
X12445357Y-22493500D01*
X12473928Y-22479214D01*
X12531071Y-22479214D01*
X12559643Y-22493500D01*
X12573928Y-22522071D01*
X12573928Y-22550643D01*
X12431071Y-22579214D01*
X12831071Y-22679214D02*
X12831071Y-22379214D01*
X12831071Y-22664929D02*
X12802500Y-22679214D01*
X12745357Y-22679214D01*
X12716786Y-22664929D01*
X12702500Y-22650643D01*
X12688214Y-22622071D01*
X12688214Y-22536357D01*
X12702500Y-22507786D01*
X12716786Y-22493500D01*
X12745357Y-22479214D01*
X12802500Y-22479214D01*
X12831071Y-22493500D01*
X12945357Y-22793500D02*
X12959643Y-22779214D01*
X12988214Y-22736357D01*
X13002500Y-22707786D01*
X13016786Y-22664929D01*
X13031071Y-22593500D01*
X13031071Y-22536357D01*
X13016786Y-22464929D01*
X13002500Y-22422071D01*
X12988214Y-22393500D01*
X12959643Y-22350643D01*
X12945357Y-22336357D01*
X3487500Y-22939500D02*
G75*
G03*
X3487500Y-22939500I-87500J0D01*
G01*
X3931071Y-23075214D02*
X3759643Y-23075214D01*
X3845357Y-23075214D02*
X3845357Y-22775214D01*
X3816786Y-22818071D01*
X3788214Y-22846643D01*
X3759643Y-22860929D01*
X4059643Y-23046643D02*
X4073928Y-23060929D01*
X4059643Y-23075214D01*
X4045357Y-23060929D01*
X4059643Y-23046643D01*
X4059643Y-23075214D01*
X4173928Y-22775214D02*
X4373928Y-22775214D01*
X4245357Y-23075214D01*
X4631071Y-22775214D02*
X4488214Y-22775214D01*
X4473928Y-22918071D01*
X4488214Y-22903786D01*
X4516786Y-22889500D01*
X4588214Y-22889500D01*
X4616786Y-22903786D01*
X4631071Y-22918071D01*
X4645357Y-22946643D01*
X4645357Y-23018071D01*
X4631071Y-23046643D01*
X4616786Y-23060929D01*
X4588214Y-23075214D01*
X4516786Y-23075214D01*
X4488214Y-23060929D01*
X4473928Y-23046643D01*
X4773928Y-23075214D02*
X4773928Y-22875214D01*
X4773928Y-22903786D02*
X4788214Y-22889500D01*
X4816786Y-22875214D01*
X4859643Y-22875214D01*
X4888214Y-22889500D01*
X4902500Y-22918071D01*
X4902500Y-23075214D01*
X4902500Y-22918071D02*
X4916786Y-22889500D01*
X4945357Y-22875214D01*
X4988214Y-22875214D01*
X5016786Y-22889500D01*
X5031071Y-22918071D01*
X5031071Y-23075214D01*
X5173928Y-23075214D02*
X5173928Y-22875214D01*
X5173928Y-22903786D02*
X5188214Y-22889500D01*
X5216786Y-22875214D01*
X5259643Y-22875214D01*
X5288214Y-22889500D01*
X5302500Y-22918071D01*
X5302500Y-23075214D01*
X5302500Y-22918071D02*
X5316786Y-22889500D01*
X5345357Y-22875214D01*
X5388214Y-22875214D01*
X5416786Y-22889500D01*
X5431071Y-22918071D01*
X5431071Y-23075214D01*
X6016786Y-22760929D02*
X5759643Y-23146643D01*
X6402500Y-22775214D02*
X6431071Y-22775214D01*
X6459643Y-22789500D01*
X6473928Y-22803786D01*
X6488214Y-22832357D01*
X6502500Y-22889500D01*
X6502500Y-22960929D01*
X6488214Y-23018071D01*
X6473928Y-23046643D01*
X6459643Y-23060929D01*
X6431071Y-23075214D01*
X6402500Y-23075214D01*
X6373928Y-23060929D01*
X6359643Y-23046643D01*
X6345357Y-23018071D01*
X6331071Y-22960929D01*
X6331071Y-22889500D01*
X6345357Y-22832357D01*
X6359643Y-22803786D01*
X6373928Y-22789500D01*
X6402500Y-22775214D01*
X6631071Y-23046643D02*
X6645357Y-23060929D01*
X6631071Y-23075214D01*
X6616786Y-23060929D01*
X6631071Y-23046643D01*
X6631071Y-23075214D01*
X6831071Y-22775214D02*
X6859643Y-22775214D01*
X6888214Y-22789500D01*
X6902500Y-22803786D01*
X6916786Y-22832357D01*
X6931071Y-22889500D01*
X6931071Y-22960929D01*
X6916786Y-23018071D01*
X6902500Y-23046643D01*
X6888214Y-23060929D01*
X6859643Y-23075214D01*
X6831071Y-23075214D01*
X6802500Y-23060929D01*
X6788214Y-23046643D01*
X6773928Y-23018071D01*
X6759643Y-22960929D01*
X6759643Y-22889500D01*
X6773928Y-22832357D01*
X6788214Y-22803786D01*
X6802500Y-22789500D01*
X6831071Y-22775214D01*
X7188214Y-22775214D02*
X7131071Y-22775214D01*
X7102500Y-22789500D01*
X7088214Y-22803786D01*
X7059643Y-22846643D01*
X7045357Y-22903786D01*
X7045357Y-23018071D01*
X7059643Y-23046643D01*
X7073928Y-23060929D01*
X7102500Y-23075214D01*
X7159643Y-23075214D01*
X7188214Y-23060929D01*
X7202500Y-23046643D01*
X7216786Y-23018071D01*
X7216786Y-22946643D01*
X7202500Y-22918071D01*
X7188214Y-22903786D01*
X7159643Y-22889500D01*
X7102500Y-22889500D01*
X7073928Y-22903786D01*
X7059643Y-22918071D01*
X7045357Y-22946643D01*
X7359643Y-23075214D02*
X7416786Y-23075214D01*
X7445357Y-23060929D01*
X7459643Y-23046643D01*
X7488214Y-23003786D01*
X7502500Y-22946643D01*
X7502500Y-22832357D01*
X7488214Y-22803786D01*
X7473928Y-22789500D01*
X7445357Y-22775214D01*
X7388214Y-22775214D01*
X7359643Y-22789500D01*
X7345357Y-22803786D01*
X7331071Y-22832357D01*
X7331071Y-22903786D01*
X7345357Y-22932357D01*
X7359643Y-22946643D01*
X7388214Y-22960929D01*
X7445357Y-22960929D01*
X7473928Y-22946643D01*
X7488214Y-22932357D01*
X7502500Y-22903786D01*
X7616786Y-22775214D02*
X7616786Y-22832357D01*
X7731071Y-22775214D02*
X7731071Y-22832357D01*
X8173928Y-23189500D02*
X8159643Y-23175214D01*
X8131071Y-23132357D01*
X8116786Y-23103786D01*
X8102500Y-23060929D01*
X8088214Y-22989500D01*
X8088214Y-22932357D01*
X8102500Y-22860929D01*
X8116786Y-22818071D01*
X8131071Y-22789500D01*
X8159643Y-22746643D01*
X8173928Y-22732357D01*
X8445357Y-23075214D02*
X8273928Y-23075214D01*
X8359643Y-23075214D02*
X8359643Y-22775214D01*
X8331071Y-22818071D01*
X8302500Y-22846643D01*
X8273928Y-22860929D01*
X8616786Y-22903786D02*
X8588214Y-22889500D01*
X8573928Y-22875214D01*
X8559643Y-22846643D01*
X8559643Y-22832357D01*
X8573928Y-22803786D01*
X8588214Y-22789500D01*
X8616786Y-22775214D01*
X8673928Y-22775214D01*
X8702500Y-22789500D01*
X8716786Y-22803786D01*
X8731071Y-22832357D01*
X8731071Y-22846643D01*
X8716786Y-22875214D01*
X8702500Y-22889500D01*
X8673928Y-22903786D01*
X8616786Y-22903786D01*
X8588214Y-22918071D01*
X8573928Y-22932357D01*
X8559643Y-22960929D01*
X8559643Y-23018071D01*
X8573928Y-23046643D01*
X8588214Y-23060929D01*
X8616786Y-23075214D01*
X8673928Y-23075214D01*
X8702500Y-23060929D01*
X8716786Y-23046643D01*
X8731071Y-23018071D01*
X8731071Y-22960929D01*
X8716786Y-22932357D01*
X8702500Y-22918071D01*
X8673928Y-22903786D01*
X8845357Y-22803786D02*
X8859643Y-22789500D01*
X8888214Y-22775214D01*
X8959643Y-22775214D01*
X8988214Y-22789500D01*
X9002500Y-22803786D01*
X9016786Y-22832357D01*
X9016786Y-22860929D01*
X9002500Y-22903786D01*
X8831071Y-23075214D01*
X9016786Y-23075214D01*
X9373928Y-23075214D02*
X9373928Y-22775214D01*
X9502500Y-23075214D02*
X9502500Y-22918071D01*
X9488214Y-22889500D01*
X9459643Y-22875214D01*
X9416786Y-22875214D01*
X9388214Y-22889500D01*
X9373928Y-22903786D01*
X9688214Y-23075214D02*
X9659643Y-23060929D01*
X9645357Y-23046643D01*
X9631071Y-23018071D01*
X9631071Y-22932357D01*
X9645357Y-22903786D01*
X9659643Y-22889500D01*
X9688214Y-22875214D01*
X9731071Y-22875214D01*
X9759643Y-22889500D01*
X9773928Y-22903786D01*
X9788214Y-22932357D01*
X9788214Y-23018071D01*
X9773928Y-23046643D01*
X9759643Y-23060929D01*
X9731071Y-23075214D01*
X9688214Y-23075214D01*
X9959643Y-23075214D02*
X9931071Y-23060929D01*
X9916786Y-23032357D01*
X9916786Y-22775214D01*
X10188214Y-23060929D02*
X10159643Y-23075214D01*
X10102500Y-23075214D01*
X10073928Y-23060929D01*
X10059643Y-23032357D01*
X10059643Y-22918071D01*
X10073928Y-22889500D01*
X10102500Y-22875214D01*
X10159643Y-22875214D01*
X10188214Y-22889500D01*
X10202500Y-22918071D01*
X10202500Y-22946643D01*
X10059643Y-22975214D01*
X10316786Y-23060929D02*
X10345357Y-23075214D01*
X10402500Y-23075214D01*
X10431071Y-23060929D01*
X10445357Y-23032357D01*
X10445357Y-23018071D01*
X10431071Y-22989500D01*
X10402500Y-22975214D01*
X10359643Y-22975214D01*
X10331071Y-22960929D01*
X10316786Y-22932357D01*
X10316786Y-22918071D01*
X10331071Y-22889500D01*
X10359643Y-22875214D01*
X10402500Y-22875214D01*
X10431071Y-22889500D01*
X10545357Y-23189500D02*
X10559643Y-23175214D01*
X10588214Y-23132357D01*
X10602500Y-23103786D01*
X10616786Y-23060929D01*
X10631071Y-22989500D01*
X10631071Y-22932357D01*
X10616786Y-22860929D01*
X10602500Y-22818071D01*
X10588214Y-22789500D01*
X10559643Y-22746643D01*
X10545357Y-22732357D01*
X11088214Y-23189500D02*
X11073928Y-23175214D01*
X11045357Y-23132357D01*
X11031071Y-23103786D01*
X11016786Y-23060929D01*
X11002500Y-22989500D01*
X11002500Y-22932357D01*
X11016786Y-22860929D01*
X11031071Y-22818071D01*
X11045357Y-22789500D01*
X11073928Y-22746643D01*
X11088214Y-22732357D01*
X11202500Y-22875214D02*
X11202500Y-23075214D01*
X11202500Y-22903786D02*
X11216786Y-22889500D01*
X11245357Y-22875214D01*
X11288214Y-22875214D01*
X11316786Y-22889500D01*
X11331071Y-22918071D01*
X11331071Y-23075214D01*
X11516786Y-23075214D02*
X11488214Y-23060929D01*
X11473928Y-23046643D01*
X11459643Y-23018071D01*
X11459643Y-22932357D01*
X11473928Y-22903786D01*
X11488214Y-22889500D01*
X11516786Y-22875214D01*
X11559643Y-22875214D01*
X11588214Y-22889500D01*
X11602500Y-22903786D01*
X11616786Y-22932357D01*
X11616786Y-23018071D01*
X11602500Y-23046643D01*
X11588214Y-23060929D01*
X11559643Y-23075214D01*
X11516786Y-23075214D01*
X11702500Y-22875214D02*
X11816786Y-22875214D01*
X11745357Y-22775214D02*
X11745357Y-23032357D01*
X11759643Y-23060929D01*
X11788214Y-23075214D01*
X11816786Y-23075214D01*
X12145357Y-22875214D02*
X12145357Y-23175214D01*
X12145357Y-22889500D02*
X12173928Y-22875214D01*
X12231071Y-22875214D01*
X12259643Y-22889500D01*
X12273928Y-22903786D01*
X12288214Y-22932357D01*
X12288214Y-23018071D01*
X12273928Y-23046643D01*
X12259643Y-23060929D01*
X12231071Y-23075214D01*
X12173928Y-23075214D01*
X12145357Y-23060929D01*
X12459643Y-23075214D02*
X12431071Y-23060929D01*
X12416786Y-23032357D01*
X12416786Y-22775214D01*
X12702500Y-23075214D02*
X12702500Y-22918071D01*
X12688214Y-22889500D01*
X12659643Y-22875214D01*
X12602500Y-22875214D01*
X12573928Y-22889500D01*
X12702500Y-23060929D02*
X12673928Y-23075214D01*
X12602500Y-23075214D01*
X12573928Y-23060929D01*
X12559643Y-23032357D01*
X12559643Y-23003786D01*
X12573928Y-22975214D01*
X12602500Y-22960929D01*
X12673928Y-22960929D01*
X12702500Y-22946643D01*
X12802500Y-22875214D02*
X12916786Y-22875214D01*
X12845357Y-22775214D02*
X12845357Y-23032357D01*
X12859643Y-23060929D01*
X12888214Y-23075214D01*
X12916786Y-23075214D01*
X13131071Y-23060929D02*
X13102500Y-23075214D01*
X13045357Y-23075214D01*
X13016786Y-23060929D01*
X13002500Y-23032357D01*
X13002500Y-22918071D01*
X13016786Y-22889500D01*
X13045357Y-22875214D01*
X13102500Y-22875214D01*
X13131071Y-22889500D01*
X13145357Y-22918071D01*
X13145357Y-22946643D01*
X13002500Y-22975214D01*
X13402500Y-23075214D02*
X13402500Y-22775214D01*
X13402500Y-23060929D02*
X13373928Y-23075214D01*
X13316786Y-23075214D01*
X13288214Y-23060929D01*
X13273928Y-23046643D01*
X13259643Y-23018071D01*
X13259643Y-22932357D01*
X13273928Y-22903786D01*
X13288214Y-22889500D01*
X13316786Y-22875214D01*
X13373928Y-22875214D01*
X13402500Y-22889500D01*
X13516786Y-23189500D02*
X13531071Y-23175214D01*
X13559643Y-23132357D01*
X13573928Y-23103786D01*
X13588214Y-23060929D01*
X13602500Y-22989500D01*
X13602500Y-22932357D01*
X13588214Y-22860929D01*
X13573928Y-22818071D01*
X13559643Y-22789500D01*
X13531071Y-22746643D01*
X13516786Y-22732357D01*
X3335100Y-23183100D02*
X3335100Y-23487900D01*
X3182700Y-23335500D02*
X3487500Y-23335500D01*
X3745357Y-23171214D02*
X3931071Y-23171214D01*
X3831071Y-23285500D01*
X3873928Y-23285500D01*
X3902500Y-23299786D01*
X3916786Y-23314071D01*
X3931071Y-23342643D01*
X3931071Y-23414071D01*
X3916786Y-23442643D01*
X3902500Y-23456929D01*
X3873928Y-23471214D01*
X3788214Y-23471214D01*
X3759643Y-23456929D01*
X3745357Y-23442643D01*
X4059643Y-23442643D02*
X4073928Y-23456929D01*
X4059643Y-23471214D01*
X4045357Y-23456929D01*
X4059643Y-23442643D01*
X4059643Y-23471214D01*
X4259643Y-23171214D02*
X4288214Y-23171214D01*
X4316786Y-23185500D01*
X4331071Y-23199786D01*
X4345357Y-23228357D01*
X4359643Y-23285500D01*
X4359643Y-23356929D01*
X4345357Y-23414071D01*
X4331071Y-23442643D01*
X4316786Y-23456929D01*
X4288214Y-23471214D01*
X4259643Y-23471214D01*
X4231071Y-23456929D01*
X4216786Y-23442643D01*
X4202500Y-23414071D01*
X4188214Y-23356929D01*
X4188214Y-23285500D01*
X4202500Y-23228357D01*
X4216786Y-23199786D01*
X4231071Y-23185500D01*
X4259643Y-23171214D01*
X4631071Y-23171214D02*
X4488214Y-23171214D01*
X4473928Y-23314071D01*
X4488214Y-23299786D01*
X4516786Y-23285500D01*
X4588214Y-23285500D01*
X4616786Y-23299786D01*
X4631071Y-23314071D01*
X4645357Y-23342643D01*
X4645357Y-23414071D01*
X4631071Y-23442643D01*
X4616786Y-23456929D01*
X4588214Y-23471214D01*
X4516786Y-23471214D01*
X4488214Y-23456929D01*
X4473928Y-23442643D01*
X4773928Y-23471214D02*
X4773928Y-23271214D01*
X4773928Y-23299786D02*
X4788214Y-23285500D01*
X4816786Y-23271214D01*
X4859643Y-23271214D01*
X4888214Y-23285500D01*
X4902500Y-23314071D01*
X4902500Y-23471214D01*
X4902500Y-23314071D02*
X4916786Y-23285500D01*
X4945357Y-23271214D01*
X4988214Y-23271214D01*
X5016786Y-23285500D01*
X5031071Y-23314071D01*
X5031071Y-23471214D01*
X5173928Y-23471214D02*
X5173928Y-23271214D01*
X5173928Y-23299786D02*
X5188214Y-23285500D01*
X5216786Y-23271214D01*
X5259643Y-23271214D01*
X5288214Y-23285500D01*
X5302500Y-23314071D01*
X5302500Y-23471214D01*
X5302500Y-23314071D02*
X5316786Y-23285500D01*
X5345357Y-23271214D01*
X5388214Y-23271214D01*
X5416786Y-23285500D01*
X5431071Y-23314071D01*
X5431071Y-23471214D01*
X6016786Y-23156929D02*
X5759643Y-23542643D01*
X6402500Y-23171214D02*
X6431071Y-23171214D01*
X6459643Y-23185500D01*
X6473928Y-23199786D01*
X6488214Y-23228357D01*
X6502500Y-23285500D01*
X6502500Y-23356929D01*
X6488214Y-23414071D01*
X6473928Y-23442643D01*
X6459643Y-23456929D01*
X6431071Y-23471214D01*
X6402500Y-23471214D01*
X6373928Y-23456929D01*
X6359643Y-23442643D01*
X6345357Y-23414071D01*
X6331071Y-23356929D01*
X6331071Y-23285500D01*
X6345357Y-23228357D01*
X6359643Y-23199786D01*
X6373928Y-23185500D01*
X6402500Y-23171214D01*
X6631071Y-23442643D02*
X6645357Y-23456929D01*
X6631071Y-23471214D01*
X6616786Y-23456929D01*
X6631071Y-23442643D01*
X6631071Y-23471214D01*
X6931071Y-23471214D02*
X6759643Y-23471214D01*
X6845357Y-23471214D02*
X6845357Y-23171214D01*
X6816786Y-23214071D01*
X6788214Y-23242643D01*
X6759643Y-23256929D01*
X7045357Y-23199786D02*
X7059643Y-23185500D01*
X7088214Y-23171214D01*
X7159643Y-23171214D01*
X7188214Y-23185500D01*
X7202500Y-23199786D01*
X7216786Y-23228357D01*
X7216786Y-23256929D01*
X7202500Y-23299786D01*
X7031071Y-23471214D01*
X7216786Y-23471214D01*
X7402500Y-23171214D02*
X7431071Y-23171214D01*
X7459643Y-23185500D01*
X7473928Y-23199786D01*
X7488214Y-23228357D01*
X7502500Y-23285500D01*
X7502500Y-23356929D01*
X7488214Y-23414071D01*
X7473928Y-23442643D01*
X7459643Y-23456929D01*
X7431071Y-23471214D01*
X7402500Y-23471214D01*
X7373928Y-23456929D01*
X7359643Y-23442643D01*
X7345357Y-23414071D01*
X7331071Y-23356929D01*
X7331071Y-23285500D01*
X7345357Y-23228357D01*
X7359643Y-23199786D01*
X7373928Y-23185500D01*
X7402500Y-23171214D01*
X7616786Y-23171214D02*
X7616786Y-23228357D01*
X7731071Y-23171214D02*
X7731071Y-23228357D01*
X8173928Y-23585500D02*
X8159643Y-23571214D01*
X8131071Y-23528357D01*
X8116786Y-23499786D01*
X8102500Y-23456929D01*
X8088214Y-23385500D01*
X8088214Y-23328357D01*
X8102500Y-23256929D01*
X8116786Y-23214071D01*
X8131071Y-23185500D01*
X8159643Y-23142643D01*
X8173928Y-23128357D01*
X8445357Y-23471214D02*
X8273928Y-23471214D01*
X8359643Y-23471214D02*
X8359643Y-23171214D01*
X8331071Y-23214071D01*
X8302500Y-23242643D01*
X8273928Y-23256929D01*
X8559643Y-23199786D02*
X8573928Y-23185500D01*
X8602500Y-23171214D01*
X8673928Y-23171214D01*
X8702500Y-23185500D01*
X8716786Y-23199786D01*
X8731071Y-23228357D01*
X8731071Y-23256929D01*
X8716786Y-23299786D01*
X8545357Y-23471214D01*
X8731071Y-23471214D01*
X9088214Y-23471214D02*
X9088214Y-23171214D01*
X9216786Y-23471214D02*
X9216786Y-23314071D01*
X9202500Y-23285500D01*
X9173928Y-23271214D01*
X9131071Y-23271214D01*
X9102500Y-23285500D01*
X9088214Y-23299786D01*
X9402500Y-23471214D02*
X9373928Y-23456929D01*
X9359643Y-23442643D01*
X9345357Y-23414071D01*
X9345357Y-23328357D01*
X9359643Y-23299786D01*
X9373928Y-23285500D01*
X9402500Y-23271214D01*
X9445357Y-23271214D01*
X9473928Y-23285500D01*
X9488214Y-23299786D01*
X9502500Y-23328357D01*
X9502500Y-23414071D01*
X9488214Y-23442643D01*
X9473928Y-23456929D01*
X9445357Y-23471214D01*
X9402500Y-23471214D01*
X9673928Y-23471214D02*
X9645357Y-23456929D01*
X9631071Y-23428357D01*
X9631071Y-23171214D01*
X9902500Y-23456929D02*
X9873928Y-23471214D01*
X9816786Y-23471214D01*
X9788214Y-23456929D01*
X9773928Y-23428357D01*
X9773928Y-23314071D01*
X9788214Y-23285500D01*
X9816786Y-23271214D01*
X9873928Y-23271214D01*
X9902500Y-23285500D01*
X9916786Y-23314071D01*
X9916786Y-23342643D01*
X9773928Y-23371214D01*
X10031071Y-23456929D02*
X10059643Y-23471214D01*
X10116786Y-23471214D01*
X10145357Y-23456929D01*
X10159643Y-23428357D01*
X10159643Y-23414071D01*
X10145357Y-23385500D01*
X10116786Y-23371214D01*
X10073928Y-23371214D01*
X10045357Y-23356929D01*
X10031071Y-23328357D01*
X10031071Y-23314071D01*
X10045357Y-23285500D01*
X10073928Y-23271214D01*
X10116786Y-23271214D01*
X10145357Y-23285500D01*
X10259643Y-23585500D02*
X10273928Y-23571214D01*
X10302500Y-23528357D01*
X10316786Y-23499786D01*
X10331071Y-23456929D01*
X10345357Y-23385500D01*
X10345357Y-23328357D01*
X10331071Y-23256929D01*
X10316786Y-23214071D01*
X10302500Y-23185500D01*
X10273928Y-23142643D01*
X10259643Y-23128357D01*
X10802500Y-23585500D02*
X10788214Y-23571214D01*
X10759643Y-23528357D01*
X10745357Y-23499786D01*
X10731071Y-23456929D01*
X10716786Y-23385500D01*
X10716786Y-23328357D01*
X10731071Y-23256929D01*
X10745357Y-23214071D01*
X10759643Y-23185500D01*
X10788214Y-23142643D01*
X10802500Y-23128357D01*
X10916786Y-23271214D02*
X10916786Y-23471214D01*
X10916786Y-23299786D02*
X10931071Y-23285500D01*
X10959643Y-23271214D01*
X11002500Y-23271214D01*
X11031071Y-23285500D01*
X11045357Y-23314071D01*
X11045357Y-23471214D01*
X11231071Y-23471214D02*
X11202500Y-23456929D01*
X11188214Y-23442643D01*
X11173928Y-23414071D01*
X11173928Y-23328357D01*
X11188214Y-23299786D01*
X11202500Y-23285500D01*
X11231071Y-23271214D01*
X11273928Y-23271214D01*
X11302500Y-23285500D01*
X11316786Y-23299786D01*
X11331071Y-23328357D01*
X11331071Y-23414071D01*
X11316786Y-23442643D01*
X11302500Y-23456929D01*
X11273928Y-23471214D01*
X11231071Y-23471214D01*
X11416786Y-23271214D02*
X11531071Y-23271214D01*
X11459643Y-23171214D02*
X11459643Y-23428357D01*
X11473928Y-23456929D01*
X11502500Y-23471214D01*
X11531071Y-23471214D01*
X11859643Y-23271214D02*
X11859643Y-23571214D01*
X11859643Y-23285500D02*
X11888214Y-23271214D01*
X11945357Y-23271214D01*
X11973928Y-23285500D01*
X11988214Y-23299786D01*
X12002500Y-23328357D01*
X12002500Y-23414071D01*
X11988214Y-23442643D01*
X11973928Y-23456929D01*
X11945357Y-23471214D01*
X11888214Y-23471214D01*
X11859643Y-23456929D01*
X12173928Y-23471214D02*
X12145357Y-23456929D01*
X12131071Y-23428357D01*
X12131071Y-23171214D01*
X12416786Y-23471214D02*
X12416786Y-23314071D01*
X12402500Y-23285500D01*
X12373928Y-23271214D01*
X12316786Y-23271214D01*
X12288214Y-23285500D01*
X12416786Y-23456929D02*
X12388214Y-23471214D01*
X12316786Y-23471214D01*
X12288214Y-23456929D01*
X12273928Y-23428357D01*
X12273928Y-23399786D01*
X12288214Y-23371214D01*
X12316786Y-23356929D01*
X12388214Y-23356929D01*
X12416786Y-23342643D01*
X12516786Y-23271214D02*
X12631071Y-23271214D01*
X12559643Y-23171214D02*
X12559643Y-23428357D01*
X12573928Y-23456929D01*
X12602500Y-23471214D01*
X12631071Y-23471214D01*
X12845357Y-23456929D02*
X12816786Y-23471214D01*
X12759643Y-23471214D01*
X12731071Y-23456929D01*
X12716786Y-23428357D01*
X12716786Y-23314071D01*
X12731071Y-23285500D01*
X12759643Y-23271214D01*
X12816786Y-23271214D01*
X12845357Y-23285500D01*
X12859643Y-23314071D01*
X12859643Y-23342643D01*
X12716786Y-23371214D01*
X13116786Y-23471214D02*
X13116786Y-23171214D01*
X13116786Y-23456929D02*
X13088214Y-23471214D01*
X13031071Y-23471214D01*
X13002500Y-23456929D01*
X12988214Y-23442643D01*
X12973928Y-23414071D01*
X12973928Y-23328357D01*
X12988214Y-23299786D01*
X13002500Y-23285500D01*
X13031071Y-23271214D01*
X13088214Y-23271214D01*
X13116786Y-23285500D01*
X13231071Y-23585500D02*
X13245357Y-23571214D01*
X13273928Y-23528357D01*
X13288214Y-23499786D01*
X13302500Y-23456929D01*
X13316786Y-23385500D01*
X13316786Y-23328357D01*
X13302500Y-23256929D01*
X13288214Y-23214071D01*
X13273928Y-23185500D01*
X13245357Y-23142643D01*
X13231071Y-23128357D01*
X3440638Y-23883438D02*
X3440638Y-23657162D01*
X3214362Y-23657162D01*
X3214362Y-23883438D01*
X3440638Y-23883438D01*
X3745357Y-23606014D02*
X3931071Y-23606014D01*
X3831071Y-23720300D01*
X3873928Y-23720300D01*
X3902500Y-23734586D01*
X3916786Y-23748871D01*
X3931071Y-23777443D01*
X3931071Y-23848871D01*
X3916786Y-23877443D01*
X3902500Y-23891729D01*
X3873928Y-23906014D01*
X3788214Y-23906014D01*
X3759643Y-23891729D01*
X3745357Y-23877443D01*
X4059643Y-23877443D02*
X4073928Y-23891729D01*
X4059643Y-23906014D01*
X4045357Y-23891729D01*
X4059643Y-23877443D01*
X4059643Y-23906014D01*
X4188214Y-23634586D02*
X4202500Y-23620300D01*
X4231071Y-23606014D01*
X4302500Y-23606014D01*
X4331071Y-23620300D01*
X4345357Y-23634586D01*
X4359643Y-23663157D01*
X4359643Y-23691729D01*
X4345357Y-23734586D01*
X4173928Y-23906014D01*
X4359643Y-23906014D01*
X4545357Y-23606014D02*
X4573928Y-23606014D01*
X4602500Y-23620300D01*
X4616786Y-23634586D01*
X4631071Y-23663157D01*
X4645357Y-23720300D01*
X4645357Y-23791729D01*
X4631071Y-23848871D01*
X4616786Y-23877443D01*
X4602500Y-23891729D01*
X4573928Y-23906014D01*
X4545357Y-23906014D01*
X4516786Y-23891729D01*
X4502500Y-23877443D01*
X4488214Y-23848871D01*
X4473928Y-23791729D01*
X4473928Y-23720300D01*
X4488214Y-23663157D01*
X4502500Y-23634586D01*
X4516786Y-23620300D01*
X4545357Y-23606014D01*
X4773928Y-23906014D02*
X4773928Y-23706014D01*
X4773928Y-23734586D02*
X4788214Y-23720300D01*
X4816786Y-23706014D01*
X4859643Y-23706014D01*
X4888214Y-23720300D01*
X4902500Y-23748871D01*
X4902500Y-23906014D01*
X4902500Y-23748871D02*
X4916786Y-23720300D01*
X4945357Y-23706014D01*
X4988214Y-23706014D01*
X5016786Y-23720300D01*
X5031071Y-23748871D01*
X5031071Y-23906014D01*
X5173928Y-23906014D02*
X5173928Y-23706014D01*
X5173928Y-23734586D02*
X5188214Y-23720300D01*
X5216786Y-23706014D01*
X5259643Y-23706014D01*
X5288214Y-23720300D01*
X5302500Y-23748871D01*
X5302500Y-23906014D01*
X5302500Y-23748871D02*
X5316786Y-23720300D01*
X5345357Y-23706014D01*
X5388214Y-23706014D01*
X5416786Y-23720300D01*
X5431071Y-23748871D01*
X5431071Y-23906014D01*
X6016786Y-23591729D02*
X5759643Y-23977443D01*
X6402500Y-23606014D02*
X6431071Y-23606014D01*
X6459643Y-23620300D01*
X6473928Y-23634586D01*
X6488214Y-23663157D01*
X6502500Y-23720300D01*
X6502500Y-23791729D01*
X6488214Y-23848871D01*
X6473928Y-23877443D01*
X6459643Y-23891729D01*
X6431071Y-23906014D01*
X6402500Y-23906014D01*
X6373928Y-23891729D01*
X6359643Y-23877443D01*
X6345357Y-23848871D01*
X6331071Y-23791729D01*
X6331071Y-23720300D01*
X6345357Y-23663157D01*
X6359643Y-23634586D01*
X6373928Y-23620300D01*
X6402500Y-23606014D01*
X6631071Y-23877443D02*
X6645357Y-23891729D01*
X6631071Y-23906014D01*
X6616786Y-23891729D01*
X6631071Y-23877443D01*
X6631071Y-23906014D01*
X6931071Y-23906014D02*
X6759643Y-23906014D01*
X6845357Y-23906014D02*
X6845357Y-23606014D01*
X6816786Y-23648871D01*
X6788214Y-23677443D01*
X6759643Y-23691729D01*
X7045357Y-23634586D02*
X7059643Y-23620300D01*
X7088214Y-23606014D01*
X7159643Y-23606014D01*
X7188214Y-23620300D01*
X7202500Y-23634586D01*
X7216786Y-23663157D01*
X7216786Y-23691729D01*
X7202500Y-23734586D01*
X7031071Y-23906014D01*
X7216786Y-23906014D01*
X7473928Y-23606014D02*
X7416786Y-23606014D01*
X7388214Y-23620300D01*
X7373928Y-23634586D01*
X7345357Y-23677443D01*
X7331071Y-23734586D01*
X7331071Y-23848871D01*
X7345357Y-23877443D01*
X7359643Y-23891729D01*
X7388214Y-23906014D01*
X7445357Y-23906014D01*
X7473928Y-23891729D01*
X7488214Y-23877443D01*
X7502500Y-23848871D01*
X7502500Y-23777443D01*
X7488214Y-23748871D01*
X7473928Y-23734586D01*
X7445357Y-23720300D01*
X7388214Y-23720300D01*
X7359643Y-23734586D01*
X7345357Y-23748871D01*
X7331071Y-23777443D01*
X7616786Y-23606014D02*
X7616786Y-23663157D01*
X7731071Y-23606014D02*
X7731071Y-23663157D01*
X8173928Y-24020300D02*
X8159643Y-24006014D01*
X8131071Y-23963157D01*
X8116786Y-23934586D01*
X8102500Y-23891729D01*
X8088214Y-23820300D01*
X8088214Y-23763157D01*
X8102500Y-23691729D01*
X8116786Y-23648871D01*
X8131071Y-23620300D01*
X8159643Y-23577443D01*
X8173928Y-23563157D01*
X8331071Y-23734586D02*
X8302500Y-23720300D01*
X8288214Y-23706014D01*
X8273928Y-23677443D01*
X8273928Y-23663157D01*
X8288214Y-23634586D01*
X8302500Y-23620300D01*
X8331071Y-23606014D01*
X8388214Y-23606014D01*
X8416786Y-23620300D01*
X8431071Y-23634586D01*
X8445357Y-23663157D01*
X8445357Y-23677443D01*
X8431071Y-23706014D01*
X8416786Y-23720300D01*
X8388214Y-23734586D01*
X8331071Y-23734586D01*
X8302500Y-23748871D01*
X8288214Y-23763157D01*
X8273928Y-23791729D01*
X8273928Y-23848871D01*
X8288214Y-23877443D01*
X8302500Y-23891729D01*
X8331071Y-23906014D01*
X8388214Y-23906014D01*
X8416786Y-23891729D01*
X8431071Y-23877443D01*
X8445357Y-23848871D01*
X8445357Y-23791729D01*
X8431071Y-23763157D01*
X8416786Y-23748871D01*
X8388214Y-23734586D01*
X8802500Y-23906014D02*
X8802500Y-23606014D01*
X8931071Y-23906014D02*
X8931071Y-23748871D01*
X8916786Y-23720300D01*
X8888214Y-23706014D01*
X8845357Y-23706014D01*
X8816786Y-23720300D01*
X8802500Y-23734586D01*
X9116786Y-23906014D02*
X9088214Y-23891729D01*
X9073928Y-23877443D01*
X9059643Y-23848871D01*
X9059643Y-23763157D01*
X9073928Y-23734586D01*
X9088214Y-23720300D01*
X9116786Y-23706014D01*
X9159643Y-23706014D01*
X9188214Y-23720300D01*
X9202500Y-23734586D01*
X9216786Y-23763157D01*
X9216786Y-23848871D01*
X9202500Y-23877443D01*
X9188214Y-23891729D01*
X9159643Y-23906014D01*
X9116786Y-23906014D01*
X9388214Y-23906014D02*
X9359643Y-23891729D01*
X9345357Y-23863157D01*
X9345357Y-23606014D01*
X9616786Y-23891729D02*
X9588214Y-23906014D01*
X9531071Y-23906014D01*
X9502500Y-23891729D01*
X9488214Y-23863157D01*
X9488214Y-23748871D01*
X9502500Y-23720300D01*
X9531071Y-23706014D01*
X9588214Y-23706014D01*
X9616786Y-23720300D01*
X9631071Y-23748871D01*
X9631071Y-23777443D01*
X9488214Y-23806014D01*
X9745357Y-23891729D02*
X9773928Y-23906014D01*
X9831071Y-23906014D01*
X9859643Y-23891729D01*
X9873928Y-23863157D01*
X9873928Y-23848871D01*
X9859643Y-23820300D01*
X9831071Y-23806014D01*
X9788214Y-23806014D01*
X9759643Y-23791729D01*
X9745357Y-23763157D01*
X9745357Y-23748871D01*
X9759643Y-23720300D01*
X9788214Y-23706014D01*
X9831071Y-23706014D01*
X9859643Y-23720300D01*
X9973928Y-24020300D02*
X9988214Y-24006014D01*
X10016786Y-23963157D01*
X10031071Y-23934586D01*
X10045357Y-23891729D01*
X10059643Y-23820300D01*
X10059643Y-23763157D01*
X10045357Y-23691729D01*
X10031071Y-23648871D01*
X10016786Y-23620300D01*
X9988214Y-23577443D01*
X9973928Y-23563157D01*
X10516786Y-24020300D02*
X10502500Y-24006014D01*
X10473928Y-23963157D01*
X10459643Y-23934586D01*
X10445357Y-23891729D01*
X10431071Y-23820300D01*
X10431071Y-23763157D01*
X10445357Y-23691729D01*
X10459643Y-23648871D01*
X10473928Y-23620300D01*
X10502500Y-23577443D01*
X10516786Y-23563157D01*
X10631071Y-23706014D02*
X10631071Y-23906014D01*
X10631071Y-23734586D02*
X10645357Y-23720300D01*
X10673928Y-23706014D01*
X10716786Y-23706014D01*
X10745357Y-23720300D01*
X10759643Y-23748871D01*
X10759643Y-23906014D01*
X10945357Y-23906014D02*
X10916786Y-23891729D01*
X10902500Y-23877443D01*
X10888214Y-23848871D01*
X10888214Y-23763157D01*
X10902500Y-23734586D01*
X10916786Y-23720300D01*
X10945357Y-23706014D01*
X10988214Y-23706014D01*
X11016786Y-23720300D01*
X11031071Y-23734586D01*
X11045357Y-23763157D01*
X11045357Y-23848871D01*
X11031071Y-23877443D01*
X11016786Y-23891729D01*
X10988214Y-23906014D01*
X10945357Y-23906014D01*
X11131071Y-23706014D02*
X11245357Y-23706014D01*
X11173928Y-23606014D02*
X11173928Y-23863157D01*
X11188214Y-23891729D01*
X11216786Y-23906014D01*
X11245357Y-23906014D01*
X11573928Y-23706014D02*
X11573928Y-24006014D01*
X11573928Y-23720300D02*
X11602500Y-23706014D01*
X11659643Y-23706014D01*
X11688214Y-23720300D01*
X11702500Y-23734586D01*
X11716786Y-23763157D01*
X11716786Y-23848871D01*
X11702500Y-23877443D01*
X11688214Y-23891729D01*
X11659643Y-23906014D01*
X11602500Y-23906014D01*
X11573928Y-23891729D01*
X11888214Y-23906014D02*
X11859643Y-23891729D01*
X11845357Y-23863157D01*
X11845357Y-23606014D01*
X12131071Y-23906014D02*
X12131071Y-23748871D01*
X12116786Y-23720300D01*
X12088214Y-23706014D01*
X12031071Y-23706014D01*
X12002500Y-23720300D01*
X12131071Y-23891729D02*
X12102500Y-23906014D01*
X12031071Y-23906014D01*
X12002500Y-23891729D01*
X11988214Y-23863157D01*
X11988214Y-23834586D01*
X12002500Y-23806014D01*
X12031071Y-23791729D01*
X12102500Y-23791729D01*
X12131071Y-23777443D01*
X12231071Y-23706014D02*
X12345357Y-23706014D01*
X12273928Y-23606014D02*
X12273928Y-23863157D01*
X12288214Y-23891729D01*
X12316786Y-23906014D01*
X12345357Y-23906014D01*
X12559643Y-23891729D02*
X12531071Y-23906014D01*
X12473928Y-23906014D01*
X12445357Y-23891729D01*
X12431071Y-23863157D01*
X12431071Y-23748871D01*
X12445357Y-23720300D01*
X12473928Y-23706014D01*
X12531071Y-23706014D01*
X12559643Y-23720300D01*
X12573928Y-23748871D01*
X12573928Y-23777443D01*
X12431071Y-23806014D01*
X12831071Y-23906014D02*
X12831071Y-23606014D01*
X12831071Y-23891729D02*
X12802500Y-23906014D01*
X12745357Y-23906014D01*
X12716786Y-23891729D01*
X12702500Y-23877443D01*
X12688214Y-23848871D01*
X12688214Y-23763157D01*
X12702500Y-23734586D01*
X12716786Y-23720300D01*
X12745357Y-23706014D01*
X12802500Y-23706014D01*
X12831071Y-23720300D01*
X12945357Y-24020300D02*
X12959643Y-24006014D01*
X12988214Y-23963157D01*
X13002500Y-23934586D01*
X13016786Y-23891729D01*
X13031071Y-23820300D01*
X13031071Y-23763157D01*
X13016786Y-23691729D01*
X13002500Y-23648871D01*
X12988214Y-23620300D01*
X12959643Y-23577443D01*
X12945357Y-23563157D01*
X3288110Y-24419690D02*
X3487500Y-24220300D01*
X3288110Y-24020910D01*
X3088720Y-24220300D01*
X3288110Y-24419690D01*
X3745357Y-24056014D02*
X3931071Y-24056014D01*
X3831071Y-24170300D01*
X3873928Y-24170300D01*
X3902500Y-24184586D01*
X3916786Y-24198871D01*
X3931071Y-24227443D01*
X3931071Y-24298871D01*
X3916786Y-24327443D01*
X3902500Y-24341729D01*
X3873928Y-24356014D01*
X3788214Y-24356014D01*
X3759643Y-24341729D01*
X3745357Y-24327443D01*
X4059643Y-24327443D02*
X4073928Y-24341729D01*
X4059643Y-24356014D01*
X4045357Y-24341729D01*
X4059643Y-24327443D01*
X4059643Y-24356014D01*
X4216786Y-24356014D02*
X4273928Y-24356014D01*
X4302500Y-24341729D01*
X4316786Y-24327443D01*
X4345357Y-24284586D01*
X4359643Y-24227443D01*
X4359643Y-24113157D01*
X4345357Y-24084586D01*
X4331071Y-24070300D01*
X4302500Y-24056014D01*
X4245357Y-24056014D01*
X4216786Y-24070300D01*
X4202500Y-24084586D01*
X4188214Y-24113157D01*
X4188214Y-24184586D01*
X4202500Y-24213157D01*
X4216786Y-24227443D01*
X4245357Y-24241729D01*
X4302500Y-24241729D01*
X4331071Y-24227443D01*
X4345357Y-24213157D01*
X4359643Y-24184586D01*
X4502500Y-24356014D02*
X4559643Y-24356014D01*
X4588214Y-24341729D01*
X4602500Y-24327443D01*
X4631071Y-24284586D01*
X4645357Y-24227443D01*
X4645357Y-24113157D01*
X4631071Y-24084586D01*
X4616786Y-24070300D01*
X4588214Y-24056014D01*
X4531071Y-24056014D01*
X4502500Y-24070300D01*
X4488214Y-24084586D01*
X4473928Y-24113157D01*
X4473928Y-24184586D01*
X4488214Y-24213157D01*
X4502500Y-24227443D01*
X4531071Y-24241729D01*
X4588214Y-24241729D01*
X4616786Y-24227443D01*
X4631071Y-24213157D01*
X4645357Y-24184586D01*
X4773928Y-24356014D02*
X4773928Y-24156014D01*
X4773928Y-24184586D02*
X4788214Y-24170300D01*
X4816786Y-24156014D01*
X4859643Y-24156014D01*
X4888214Y-24170300D01*
X4902500Y-24198871D01*
X4902500Y-24356014D01*
X4902500Y-24198871D02*
X4916786Y-24170300D01*
X4945357Y-24156014D01*
X4988214Y-24156014D01*
X5016786Y-24170300D01*
X5031071Y-24198871D01*
X5031071Y-24356014D01*
X5173928Y-24356014D02*
X5173928Y-24156014D01*
X5173928Y-24184586D02*
X5188214Y-24170300D01*
X5216786Y-24156014D01*
X5259643Y-24156014D01*
X5288214Y-24170300D01*
X5302500Y-24198871D01*
X5302500Y-24356014D01*
X5302500Y-24198871D02*
X5316786Y-24170300D01*
X5345357Y-24156014D01*
X5388214Y-24156014D01*
X5416786Y-24170300D01*
X5431071Y-24198871D01*
X5431071Y-24356014D01*
X6016786Y-24041729D02*
X5759643Y-24427443D01*
X6402500Y-24056014D02*
X6431071Y-24056014D01*
X6459643Y-24070300D01*
X6473928Y-24084586D01*
X6488214Y-24113157D01*
X6502500Y-24170300D01*
X6502500Y-24241729D01*
X6488214Y-24298871D01*
X6473928Y-24327443D01*
X6459643Y-24341729D01*
X6431071Y-24356014D01*
X6402500Y-24356014D01*
X6373928Y-24341729D01*
X6359643Y-24327443D01*
X6345357Y-24298871D01*
X6331071Y-24241729D01*
X6331071Y-24170300D01*
X6345357Y-24113157D01*
X6359643Y-24084586D01*
X6373928Y-24070300D01*
X6402500Y-24056014D01*
X6631071Y-24327443D02*
X6645357Y-24341729D01*
X6631071Y-24356014D01*
X6616786Y-24341729D01*
X6631071Y-24327443D01*
X6631071Y-24356014D01*
X6931071Y-24356014D02*
X6759643Y-24356014D01*
X6845357Y-24356014D02*
X6845357Y-24056014D01*
X6816786Y-24098871D01*
X6788214Y-24127443D01*
X6759643Y-24141729D01*
X7202500Y-24056014D02*
X7059643Y-24056014D01*
X7045357Y-24198871D01*
X7059643Y-24184586D01*
X7088214Y-24170300D01*
X7159643Y-24170300D01*
X7188214Y-24184586D01*
X7202500Y-24198871D01*
X7216786Y-24227443D01*
X7216786Y-24298871D01*
X7202500Y-24327443D01*
X7188214Y-24341729D01*
X7159643Y-24356014D01*
X7088214Y-24356014D01*
X7059643Y-24341729D01*
X7045357Y-24327443D01*
X7316786Y-24056014D02*
X7516786Y-24056014D01*
X7388214Y-24356014D01*
X7616786Y-24056014D02*
X7616786Y-24113157D01*
X7731071Y-24056014D02*
X7731071Y-24113157D01*
X8173928Y-24470300D02*
X8159643Y-24456014D01*
X8131071Y-24413157D01*
X8116786Y-24384586D01*
X8102500Y-24341729D01*
X8088214Y-24270300D01*
X8088214Y-24213157D01*
X8102500Y-24141729D01*
X8116786Y-24098871D01*
X8131071Y-24070300D01*
X8159643Y-24027443D01*
X8173928Y-24013157D01*
X8445357Y-24356014D02*
X8273928Y-24356014D01*
X8359643Y-24356014D02*
X8359643Y-24056014D01*
X8331071Y-24098871D01*
X8302500Y-24127443D01*
X8273928Y-24141729D01*
X8631071Y-24056014D02*
X8659643Y-24056014D01*
X8688214Y-24070300D01*
X8702500Y-24084586D01*
X8716786Y-24113157D01*
X8731071Y-24170300D01*
X8731071Y-24241729D01*
X8716786Y-24298871D01*
X8702500Y-24327443D01*
X8688214Y-24341729D01*
X8659643Y-24356014D01*
X8631071Y-24356014D01*
X8602500Y-24341729D01*
X8588214Y-24327443D01*
X8573928Y-24298871D01*
X8559643Y-24241729D01*
X8559643Y-24170300D01*
X8573928Y-24113157D01*
X8588214Y-24084586D01*
X8602500Y-24070300D01*
X8631071Y-24056014D01*
X8831071Y-24056014D02*
X9016786Y-24056014D01*
X8916786Y-24170300D01*
X8959643Y-24170300D01*
X8988214Y-24184586D01*
X9002500Y-24198871D01*
X9016786Y-24227443D01*
X9016786Y-24298871D01*
X9002500Y-24327443D01*
X8988214Y-24341729D01*
X8959643Y-24356014D01*
X8873928Y-24356014D01*
X8845357Y-24341729D01*
X8831071Y-24327443D01*
X9373928Y-24356014D02*
X9373928Y-24056014D01*
X9502500Y-24356014D02*
X9502500Y-24198871D01*
X9488214Y-24170300D01*
X9459643Y-24156014D01*
X9416786Y-24156014D01*
X9388214Y-24170300D01*
X9373928Y-24184586D01*
X9688214Y-24356014D02*
X9659643Y-24341729D01*
X9645357Y-24327443D01*
X9631071Y-24298871D01*
X9631071Y-24213157D01*
X9645357Y-24184586D01*
X9659643Y-24170300D01*
X9688214Y-24156014D01*
X9731071Y-24156014D01*
X9759643Y-24170300D01*
X9773928Y-24184586D01*
X9788214Y-24213157D01*
X9788214Y-24298871D01*
X9773928Y-24327443D01*
X9759643Y-24341729D01*
X9731071Y-24356014D01*
X9688214Y-24356014D01*
X9959643Y-24356014D02*
X9931071Y-24341729D01*
X9916786Y-24313157D01*
X9916786Y-24056014D01*
X10188214Y-24341729D02*
X10159643Y-24356014D01*
X10102500Y-24356014D01*
X10073928Y-24341729D01*
X10059643Y-24313157D01*
X10059643Y-24198871D01*
X10073928Y-24170300D01*
X10102500Y-24156014D01*
X10159643Y-24156014D01*
X10188214Y-24170300D01*
X10202500Y-24198871D01*
X10202500Y-24227443D01*
X10059643Y-24256014D01*
X10316786Y-24341729D02*
X10345357Y-24356014D01*
X10402500Y-24356014D01*
X10431071Y-24341729D01*
X10445357Y-24313157D01*
X10445357Y-24298871D01*
X10431071Y-24270300D01*
X10402500Y-24256014D01*
X10359643Y-24256014D01*
X10331071Y-24241729D01*
X10316786Y-24213157D01*
X10316786Y-24198871D01*
X10331071Y-24170300D01*
X10359643Y-24156014D01*
X10402500Y-24156014D01*
X10431071Y-24170300D01*
X10545357Y-24470300D02*
X10559643Y-24456014D01*
X10588214Y-24413157D01*
X10602500Y-24384586D01*
X10616786Y-24341729D01*
X10631071Y-24270300D01*
X10631071Y-24213157D01*
X10616786Y-24141729D01*
X10602500Y-24098871D01*
X10588214Y-24070300D01*
X10559643Y-24027443D01*
X10545357Y-24013157D01*
X11088214Y-24470300D02*
X11073928Y-24456014D01*
X11045357Y-24413157D01*
X11031071Y-24384586D01*
X11016786Y-24341729D01*
X11002500Y-24270300D01*
X11002500Y-24213157D01*
X11016786Y-24141729D01*
X11031071Y-24098871D01*
X11045357Y-24070300D01*
X11073928Y-24027443D01*
X11088214Y-24013157D01*
X11202500Y-24156014D02*
X11202500Y-24356014D01*
X11202500Y-24184586D02*
X11216786Y-24170300D01*
X11245357Y-24156014D01*
X11288214Y-24156014D01*
X11316786Y-24170300D01*
X11331071Y-24198871D01*
X11331071Y-24356014D01*
X11516786Y-24356014D02*
X11488214Y-24341729D01*
X11473928Y-24327443D01*
X11459643Y-24298871D01*
X11459643Y-24213157D01*
X11473928Y-24184586D01*
X11488214Y-24170300D01*
X11516786Y-24156014D01*
X11559643Y-24156014D01*
X11588214Y-24170300D01*
X11602500Y-24184586D01*
X11616786Y-24213157D01*
X11616786Y-24298871D01*
X11602500Y-24327443D01*
X11588214Y-24341729D01*
X11559643Y-24356014D01*
X11516786Y-24356014D01*
X11702500Y-24156014D02*
X11816786Y-24156014D01*
X11745357Y-24056014D02*
X11745357Y-24313157D01*
X11759643Y-24341729D01*
X11788214Y-24356014D01*
X11816786Y-24356014D01*
X12145357Y-24156014D02*
X12145357Y-24456014D01*
X12145357Y-24170300D02*
X12173928Y-24156014D01*
X12231071Y-24156014D01*
X12259643Y-24170300D01*
X12273928Y-24184586D01*
X12288214Y-24213157D01*
X12288214Y-24298871D01*
X12273928Y-24327443D01*
X12259643Y-24341729D01*
X12231071Y-24356014D01*
X12173928Y-24356014D01*
X12145357Y-24341729D01*
X12459643Y-24356014D02*
X12431071Y-24341729D01*
X12416786Y-24313157D01*
X12416786Y-24056014D01*
X12702500Y-24356014D02*
X12702500Y-24198871D01*
X12688214Y-24170300D01*
X12659643Y-24156014D01*
X12602500Y-24156014D01*
X12573928Y-24170300D01*
X12702500Y-24341729D02*
X12673928Y-24356014D01*
X12602500Y-24356014D01*
X12573928Y-24341729D01*
X12559643Y-24313157D01*
X12559643Y-24284586D01*
X12573928Y-24256014D01*
X12602500Y-24241729D01*
X12673928Y-24241729D01*
X12702500Y-24227443D01*
X12802500Y-24156014D02*
X12916786Y-24156014D01*
X12845357Y-24056014D02*
X12845357Y-24313157D01*
X12859643Y-24341729D01*
X12888214Y-24356014D01*
X12916786Y-24356014D01*
X13131071Y-24341729D02*
X13102500Y-24356014D01*
X13045357Y-24356014D01*
X13016786Y-24341729D01*
X13002500Y-24313157D01*
X13002500Y-24198871D01*
X13016786Y-24170300D01*
X13045357Y-24156014D01*
X13102500Y-24156014D01*
X13131071Y-24170300D01*
X13145357Y-24198871D01*
X13145357Y-24227443D01*
X13002500Y-24256014D01*
X13402500Y-24356014D02*
X13402500Y-24056014D01*
X13402500Y-24341729D02*
X13373928Y-24356014D01*
X13316786Y-24356014D01*
X13288214Y-24341729D01*
X13273928Y-24327443D01*
X13259643Y-24298871D01*
X13259643Y-24213157D01*
X13273928Y-24184586D01*
X13288214Y-24170300D01*
X13316786Y-24156014D01*
X13373928Y-24156014D01*
X13402500Y-24170300D01*
X13516786Y-24470300D02*
X13531071Y-24456014D01*
X13559643Y-24413157D01*
X13573928Y-24384586D01*
X13588214Y-24341729D01*
X13602500Y-24270300D01*
X13602500Y-24213157D01*
X13588214Y-24141729D01*
X13573928Y-24098871D01*
X13559643Y-24070300D01*
X13531071Y-24027443D01*
X13516786Y-24013157D01*
M02*
