G04 #@! TF.GenerationSoftware,KiCad,Pcbnew,(5.1.9)-1*
G04 #@! TF.CreationDate,2021-06-14T20:25:05+01:00*
G04 #@! TF.ProjectId,ENV_KB_RGB,454e565f-4b42-45f5-9247-422e6b696361,Rev.1*
G04 #@! TF.SameCoordinates,Original*
G04 #@! TF.FileFunction,Paste,Bot*
G04 #@! TF.FilePolarity,Positive*
%FSLAX46Y46*%
G04 Gerber Fmt 4.6, Leading zero omitted, Abs format (unit mm)*
G04 Created by KiCad (PCBNEW (5.1.9)-1) date 2021-06-14 20:25:05*
%MOMM*%
%LPD*%
G01*
G04 APERTURE LIST*
%ADD10R,2.500000X2.550000*%
%ADD11R,2.550000X2.500000*%
G04 APERTURE END LIST*
D10*
X316105000Y-164777000D03*
X313565000Y-151850000D03*
D11*
X381179500Y-201480000D03*
X368252500Y-204020000D03*
X362129500Y-201480000D03*
X349202500Y-204020000D03*
X343079500Y-201480000D03*
X330152500Y-204020000D03*
X316885750Y-201480000D03*
X303958750Y-204020000D03*
X293073250Y-201480000D03*
X280146250Y-204020000D03*
X269260750Y-201480000D03*
X256333750Y-204020000D03*
X245448250Y-201480000D03*
X232521250Y-204020000D03*
X174010750Y-201480000D03*
X161083750Y-204020000D03*
X102573250Y-201480000D03*
X89646250Y-204020000D03*
X78760750Y-201480000D03*
X65833750Y-204020000D03*
X54948250Y-201480000D03*
X42021250Y-204020000D03*
X362129500Y-182430000D03*
X349202500Y-184970000D03*
X302598250Y-182430000D03*
X289671250Y-184970000D03*
X266879500Y-182430000D03*
X253952500Y-184970000D03*
X247829500Y-182430000D03*
X234902500Y-184970000D03*
X228779500Y-182430000D03*
X215852500Y-184970000D03*
X209729500Y-182430000D03*
X196802500Y-184970000D03*
X190679500Y-182430000D03*
X177752500Y-184970000D03*
X171629500Y-182430000D03*
X158702500Y-184970000D03*
X152579500Y-182430000D03*
X139652500Y-184970000D03*
X133529500Y-182430000D03*
X120602500Y-184970000D03*
X114479500Y-182430000D03*
X101552500Y-184970000D03*
X95429500Y-182430000D03*
X82502500Y-184970000D03*
X76379500Y-182430000D03*
X63452500Y-184970000D03*
X54948250Y-182430000D03*
X42021250Y-184970000D03*
X295454500Y-163380000D03*
X282527500Y-165920000D03*
X276404500Y-163380000D03*
X263477500Y-165920000D03*
X257354500Y-163380000D03*
X244427500Y-165920000D03*
X238304500Y-163380000D03*
X225377500Y-165920000D03*
X219254500Y-163380000D03*
X206327500Y-165920000D03*
X200204500Y-163380000D03*
X187277500Y-165920000D03*
X181154500Y-163380000D03*
X168227500Y-165920000D03*
X162104500Y-163380000D03*
X149177500Y-165920000D03*
X143054500Y-163380000D03*
X130127500Y-165920000D03*
X124004500Y-163380000D03*
X111077500Y-165920000D03*
X104954500Y-163380000D03*
X92027500Y-165920000D03*
X85904500Y-163380000D03*
X72977500Y-165920000D03*
X59710750Y-163380000D03*
X46783750Y-165920000D03*
X381179500Y-144330000D03*
X368252500Y-146870000D03*
X362129500Y-144330000D03*
X349202500Y-146870000D03*
X343079500Y-144330000D03*
X330152500Y-146870000D03*
X290692000Y-144330000D03*
X277765000Y-146870000D03*
X271642000Y-144330000D03*
X258715000Y-146870000D03*
X252592000Y-144330000D03*
X239665000Y-146870000D03*
X233542000Y-144330000D03*
X220615000Y-146870000D03*
X214492000Y-144330000D03*
X201565000Y-146870000D03*
X195442000Y-144330000D03*
X182515000Y-146870000D03*
X176392000Y-144330000D03*
X163465000Y-146870000D03*
X157342000Y-144330000D03*
X144415000Y-146870000D03*
X138292000Y-144330000D03*
X125365000Y-146870000D03*
X119242000Y-144330000D03*
X106315000Y-146870000D03*
X100192000Y-144330000D03*
X87265000Y-146870000D03*
X81142000Y-144330000D03*
X68215000Y-146870000D03*
X57329500Y-144330000D03*
X44402500Y-146870000D03*
X381179500Y-125280000D03*
X368252500Y-127820000D03*
X362129500Y-125280000D03*
X349202500Y-127820000D03*
X343079500Y-125280000D03*
X330152500Y-127820000D03*
X309742000Y-125280000D03*
X296815000Y-127820000D03*
X281167000Y-125280000D03*
X268240000Y-127820000D03*
X262117000Y-125280000D03*
X249190000Y-127820000D03*
X243067000Y-125280000D03*
X230140000Y-127820000D03*
X224017000Y-125280000D03*
X211090000Y-127820000D03*
X204967000Y-125280000D03*
X192040000Y-127820000D03*
X185917000Y-125280000D03*
X172990000Y-127820000D03*
X166867000Y-125280000D03*
X153940000Y-127820000D03*
X147817000Y-125280000D03*
X134890000Y-127820000D03*
X128767000Y-125280000D03*
X115840000Y-127820000D03*
X109717000Y-125280000D03*
X96790000Y-127820000D03*
X90667000Y-125280000D03*
X77740000Y-127820000D03*
X71617000Y-125280000D03*
X58690000Y-127820000D03*
X52567000Y-125280000D03*
X39640000Y-127820000D03*
X381179500Y-96705000D03*
X368252500Y-99245000D03*
X362129500Y-96705000D03*
X349202500Y-99245000D03*
X343079500Y-96705000D03*
X330152500Y-99245000D03*
X319267000Y-96705000D03*
X306340000Y-99245000D03*
X300217000Y-96705000D03*
X287290000Y-99245000D03*
X281167000Y-96705000D03*
X268240000Y-99245000D03*
X262117000Y-96705000D03*
X249190000Y-99245000D03*
X233542000Y-96705000D03*
X220615000Y-99245000D03*
X214492000Y-96705000D03*
X201565000Y-99245000D03*
X195442000Y-96705000D03*
X182515000Y-99245000D03*
X176392000Y-96705000D03*
X163465000Y-99245000D03*
X147817000Y-96705000D03*
X134890000Y-99245000D03*
X128767000Y-96705000D03*
X115840000Y-99245000D03*
X109717000Y-96705000D03*
X96790000Y-99245000D03*
X90667000Y-96705000D03*
X77740000Y-99245000D03*
X52567000Y-96705000D03*
X39640000Y-99245000D03*
G36*
G01*
X373455500Y-211300000D02*
X372019500Y-211300000D01*
G75*
G02*
X371937500Y-211218000I0J82000D01*
G01*
X371937500Y-210562000D01*
G75*
G02*
X372019500Y-210480000I82000J0D01*
G01*
X373455500Y-210480000D01*
G75*
G02*
X373537500Y-210562000I0J-82000D01*
G01*
X373537500Y-211218000D01*
G75*
G02*
X373455500Y-211300000I-82000J0D01*
G01*
G37*
G36*
G01*
X373455500Y-212800000D02*
X372019500Y-212800000D01*
G75*
G02*
X371937500Y-212718000I0J82000D01*
G01*
X371937500Y-212062000D01*
G75*
G02*
X372019500Y-211980000I82000J0D01*
G01*
X373455500Y-211980000D01*
G75*
G02*
X373537500Y-212062000I0J-82000D01*
G01*
X373537500Y-212718000D01*
G75*
G02*
X373455500Y-212800000I-82000J0D01*
G01*
G37*
G36*
G01*
X378655500Y-211300000D02*
X377219500Y-211300000D01*
G75*
G02*
X377137500Y-211218000I0J82000D01*
G01*
X377137500Y-210562000D01*
G75*
G02*
X377219500Y-210480000I82000J0D01*
G01*
X378655500Y-210480000D01*
G75*
G02*
X378737500Y-210562000I0J-82000D01*
G01*
X378737500Y-211218000D01*
G75*
G02*
X378655500Y-211300000I-82000J0D01*
G01*
G37*
G36*
G01*
X378655500Y-212800000D02*
X377219500Y-212800000D01*
G75*
G02*
X377137500Y-212718000I0J82000D01*
G01*
X377137500Y-212062000D01*
G75*
G02*
X377219500Y-211980000I82000J0D01*
G01*
X378655500Y-211980000D01*
G75*
G02*
X378737500Y-212062000I0J-82000D01*
G01*
X378737500Y-212718000D01*
G75*
G02*
X378655500Y-212800000I-82000J0D01*
G01*
G37*
G36*
G01*
X354405500Y-211300000D02*
X352969500Y-211300000D01*
G75*
G02*
X352887500Y-211218000I0J82000D01*
G01*
X352887500Y-210562000D01*
G75*
G02*
X352969500Y-210480000I82000J0D01*
G01*
X354405500Y-210480000D01*
G75*
G02*
X354487500Y-210562000I0J-82000D01*
G01*
X354487500Y-211218000D01*
G75*
G02*
X354405500Y-211300000I-82000J0D01*
G01*
G37*
G36*
G01*
X354405500Y-212800000D02*
X352969500Y-212800000D01*
G75*
G02*
X352887500Y-212718000I0J82000D01*
G01*
X352887500Y-212062000D01*
G75*
G02*
X352969500Y-211980000I82000J0D01*
G01*
X354405500Y-211980000D01*
G75*
G02*
X354487500Y-212062000I0J-82000D01*
G01*
X354487500Y-212718000D01*
G75*
G02*
X354405500Y-212800000I-82000J0D01*
G01*
G37*
G36*
G01*
X359605500Y-211300000D02*
X358169500Y-211300000D01*
G75*
G02*
X358087500Y-211218000I0J82000D01*
G01*
X358087500Y-210562000D01*
G75*
G02*
X358169500Y-210480000I82000J0D01*
G01*
X359605500Y-210480000D01*
G75*
G02*
X359687500Y-210562000I0J-82000D01*
G01*
X359687500Y-211218000D01*
G75*
G02*
X359605500Y-211300000I-82000J0D01*
G01*
G37*
G36*
G01*
X359605500Y-212800000D02*
X358169500Y-212800000D01*
G75*
G02*
X358087500Y-212718000I0J82000D01*
G01*
X358087500Y-212062000D01*
G75*
G02*
X358169500Y-211980000I82000J0D01*
G01*
X359605500Y-211980000D01*
G75*
G02*
X359687500Y-212062000I0J-82000D01*
G01*
X359687500Y-212718000D01*
G75*
G02*
X359605500Y-212800000I-82000J0D01*
G01*
G37*
G36*
G01*
X335355500Y-211300000D02*
X333919500Y-211300000D01*
G75*
G02*
X333837500Y-211218000I0J82000D01*
G01*
X333837500Y-210562000D01*
G75*
G02*
X333919500Y-210480000I82000J0D01*
G01*
X335355500Y-210480000D01*
G75*
G02*
X335437500Y-210562000I0J-82000D01*
G01*
X335437500Y-211218000D01*
G75*
G02*
X335355500Y-211300000I-82000J0D01*
G01*
G37*
G36*
G01*
X335355500Y-212800000D02*
X333919500Y-212800000D01*
G75*
G02*
X333837500Y-212718000I0J82000D01*
G01*
X333837500Y-212062000D01*
G75*
G02*
X333919500Y-211980000I82000J0D01*
G01*
X335355500Y-211980000D01*
G75*
G02*
X335437500Y-212062000I0J-82000D01*
G01*
X335437500Y-212718000D01*
G75*
G02*
X335355500Y-212800000I-82000J0D01*
G01*
G37*
G36*
G01*
X340555500Y-211300000D02*
X339119500Y-211300000D01*
G75*
G02*
X339037500Y-211218000I0J82000D01*
G01*
X339037500Y-210562000D01*
G75*
G02*
X339119500Y-210480000I82000J0D01*
G01*
X340555500Y-210480000D01*
G75*
G02*
X340637500Y-210562000I0J-82000D01*
G01*
X340637500Y-211218000D01*
G75*
G02*
X340555500Y-211300000I-82000J0D01*
G01*
G37*
G36*
G01*
X340555500Y-212800000D02*
X339119500Y-212800000D01*
G75*
G02*
X339037500Y-212718000I0J82000D01*
G01*
X339037500Y-212062000D01*
G75*
G02*
X339119500Y-211980000I82000J0D01*
G01*
X340555500Y-211980000D01*
G75*
G02*
X340637500Y-212062000I0J-82000D01*
G01*
X340637500Y-212718000D01*
G75*
G02*
X340555500Y-212800000I-82000J0D01*
G01*
G37*
G36*
G01*
X309161750Y-211300000D02*
X307725750Y-211300000D01*
G75*
G02*
X307643750Y-211218000I0J82000D01*
G01*
X307643750Y-210562000D01*
G75*
G02*
X307725750Y-210480000I82000J0D01*
G01*
X309161750Y-210480000D01*
G75*
G02*
X309243750Y-210562000I0J-82000D01*
G01*
X309243750Y-211218000D01*
G75*
G02*
X309161750Y-211300000I-82000J0D01*
G01*
G37*
G36*
G01*
X309161750Y-212800000D02*
X307725750Y-212800000D01*
G75*
G02*
X307643750Y-212718000I0J82000D01*
G01*
X307643750Y-212062000D01*
G75*
G02*
X307725750Y-211980000I82000J0D01*
G01*
X309161750Y-211980000D01*
G75*
G02*
X309243750Y-212062000I0J-82000D01*
G01*
X309243750Y-212718000D01*
G75*
G02*
X309161750Y-212800000I-82000J0D01*
G01*
G37*
G36*
G01*
X314361750Y-211300000D02*
X312925750Y-211300000D01*
G75*
G02*
X312843750Y-211218000I0J82000D01*
G01*
X312843750Y-210562000D01*
G75*
G02*
X312925750Y-210480000I82000J0D01*
G01*
X314361750Y-210480000D01*
G75*
G02*
X314443750Y-210562000I0J-82000D01*
G01*
X314443750Y-211218000D01*
G75*
G02*
X314361750Y-211300000I-82000J0D01*
G01*
G37*
G36*
G01*
X314361750Y-212800000D02*
X312925750Y-212800000D01*
G75*
G02*
X312843750Y-212718000I0J82000D01*
G01*
X312843750Y-212062000D01*
G75*
G02*
X312925750Y-211980000I82000J0D01*
G01*
X314361750Y-211980000D01*
G75*
G02*
X314443750Y-212062000I0J-82000D01*
G01*
X314443750Y-212718000D01*
G75*
G02*
X314361750Y-212800000I-82000J0D01*
G01*
G37*
G36*
G01*
X285349250Y-211300000D02*
X283913250Y-211300000D01*
G75*
G02*
X283831250Y-211218000I0J82000D01*
G01*
X283831250Y-210562000D01*
G75*
G02*
X283913250Y-210480000I82000J0D01*
G01*
X285349250Y-210480000D01*
G75*
G02*
X285431250Y-210562000I0J-82000D01*
G01*
X285431250Y-211218000D01*
G75*
G02*
X285349250Y-211300000I-82000J0D01*
G01*
G37*
G36*
G01*
X285349250Y-212800000D02*
X283913250Y-212800000D01*
G75*
G02*
X283831250Y-212718000I0J82000D01*
G01*
X283831250Y-212062000D01*
G75*
G02*
X283913250Y-211980000I82000J0D01*
G01*
X285349250Y-211980000D01*
G75*
G02*
X285431250Y-212062000I0J-82000D01*
G01*
X285431250Y-212718000D01*
G75*
G02*
X285349250Y-212800000I-82000J0D01*
G01*
G37*
G36*
G01*
X290549250Y-211300000D02*
X289113250Y-211300000D01*
G75*
G02*
X289031250Y-211218000I0J82000D01*
G01*
X289031250Y-210562000D01*
G75*
G02*
X289113250Y-210480000I82000J0D01*
G01*
X290549250Y-210480000D01*
G75*
G02*
X290631250Y-210562000I0J-82000D01*
G01*
X290631250Y-211218000D01*
G75*
G02*
X290549250Y-211300000I-82000J0D01*
G01*
G37*
G36*
G01*
X290549250Y-212800000D02*
X289113250Y-212800000D01*
G75*
G02*
X289031250Y-212718000I0J82000D01*
G01*
X289031250Y-212062000D01*
G75*
G02*
X289113250Y-211980000I82000J0D01*
G01*
X290549250Y-211980000D01*
G75*
G02*
X290631250Y-212062000I0J-82000D01*
G01*
X290631250Y-212718000D01*
G75*
G02*
X290549250Y-212800000I-82000J0D01*
G01*
G37*
G36*
G01*
X261536750Y-211300000D02*
X260100750Y-211300000D01*
G75*
G02*
X260018750Y-211218000I0J82000D01*
G01*
X260018750Y-210562000D01*
G75*
G02*
X260100750Y-210480000I82000J0D01*
G01*
X261536750Y-210480000D01*
G75*
G02*
X261618750Y-210562000I0J-82000D01*
G01*
X261618750Y-211218000D01*
G75*
G02*
X261536750Y-211300000I-82000J0D01*
G01*
G37*
G36*
G01*
X261536750Y-212800000D02*
X260100750Y-212800000D01*
G75*
G02*
X260018750Y-212718000I0J82000D01*
G01*
X260018750Y-212062000D01*
G75*
G02*
X260100750Y-211980000I82000J0D01*
G01*
X261536750Y-211980000D01*
G75*
G02*
X261618750Y-212062000I0J-82000D01*
G01*
X261618750Y-212718000D01*
G75*
G02*
X261536750Y-212800000I-82000J0D01*
G01*
G37*
G36*
G01*
X266736750Y-211300000D02*
X265300750Y-211300000D01*
G75*
G02*
X265218750Y-211218000I0J82000D01*
G01*
X265218750Y-210562000D01*
G75*
G02*
X265300750Y-210480000I82000J0D01*
G01*
X266736750Y-210480000D01*
G75*
G02*
X266818750Y-210562000I0J-82000D01*
G01*
X266818750Y-211218000D01*
G75*
G02*
X266736750Y-211300000I-82000J0D01*
G01*
G37*
G36*
G01*
X266736750Y-212800000D02*
X265300750Y-212800000D01*
G75*
G02*
X265218750Y-212718000I0J82000D01*
G01*
X265218750Y-212062000D01*
G75*
G02*
X265300750Y-211980000I82000J0D01*
G01*
X266736750Y-211980000D01*
G75*
G02*
X266818750Y-212062000I0J-82000D01*
G01*
X266818750Y-212718000D01*
G75*
G02*
X266736750Y-212800000I-82000J0D01*
G01*
G37*
G36*
G01*
X237724250Y-211300000D02*
X236288250Y-211300000D01*
G75*
G02*
X236206250Y-211218000I0J82000D01*
G01*
X236206250Y-210562000D01*
G75*
G02*
X236288250Y-210480000I82000J0D01*
G01*
X237724250Y-210480000D01*
G75*
G02*
X237806250Y-210562000I0J-82000D01*
G01*
X237806250Y-211218000D01*
G75*
G02*
X237724250Y-211300000I-82000J0D01*
G01*
G37*
G36*
G01*
X237724250Y-212800000D02*
X236288250Y-212800000D01*
G75*
G02*
X236206250Y-212718000I0J82000D01*
G01*
X236206250Y-212062000D01*
G75*
G02*
X236288250Y-211980000I82000J0D01*
G01*
X237724250Y-211980000D01*
G75*
G02*
X237806250Y-212062000I0J-82000D01*
G01*
X237806250Y-212718000D01*
G75*
G02*
X237724250Y-212800000I-82000J0D01*
G01*
G37*
G36*
G01*
X242924250Y-211300000D02*
X241488250Y-211300000D01*
G75*
G02*
X241406250Y-211218000I0J82000D01*
G01*
X241406250Y-210562000D01*
G75*
G02*
X241488250Y-210480000I82000J0D01*
G01*
X242924250Y-210480000D01*
G75*
G02*
X243006250Y-210562000I0J-82000D01*
G01*
X243006250Y-211218000D01*
G75*
G02*
X242924250Y-211300000I-82000J0D01*
G01*
G37*
G36*
G01*
X242924250Y-212800000D02*
X241488250Y-212800000D01*
G75*
G02*
X241406250Y-212718000I0J82000D01*
G01*
X241406250Y-212062000D01*
G75*
G02*
X241488250Y-211980000I82000J0D01*
G01*
X242924250Y-211980000D01*
G75*
G02*
X243006250Y-212062000I0J-82000D01*
G01*
X243006250Y-212718000D01*
G75*
G02*
X242924250Y-212800000I-82000J0D01*
G01*
G37*
G36*
G01*
X166286750Y-211300000D02*
X164850750Y-211300000D01*
G75*
G02*
X164768750Y-211218000I0J82000D01*
G01*
X164768750Y-210562000D01*
G75*
G02*
X164850750Y-210480000I82000J0D01*
G01*
X166286750Y-210480000D01*
G75*
G02*
X166368750Y-210562000I0J-82000D01*
G01*
X166368750Y-211218000D01*
G75*
G02*
X166286750Y-211300000I-82000J0D01*
G01*
G37*
G36*
G01*
X166286750Y-212800000D02*
X164850750Y-212800000D01*
G75*
G02*
X164768750Y-212718000I0J82000D01*
G01*
X164768750Y-212062000D01*
G75*
G02*
X164850750Y-211980000I82000J0D01*
G01*
X166286750Y-211980000D01*
G75*
G02*
X166368750Y-212062000I0J-82000D01*
G01*
X166368750Y-212718000D01*
G75*
G02*
X166286750Y-212800000I-82000J0D01*
G01*
G37*
G36*
G01*
X171486750Y-211300000D02*
X170050750Y-211300000D01*
G75*
G02*
X169968750Y-211218000I0J82000D01*
G01*
X169968750Y-210562000D01*
G75*
G02*
X170050750Y-210480000I82000J0D01*
G01*
X171486750Y-210480000D01*
G75*
G02*
X171568750Y-210562000I0J-82000D01*
G01*
X171568750Y-211218000D01*
G75*
G02*
X171486750Y-211300000I-82000J0D01*
G01*
G37*
G36*
G01*
X171486750Y-212800000D02*
X170050750Y-212800000D01*
G75*
G02*
X169968750Y-212718000I0J82000D01*
G01*
X169968750Y-212062000D01*
G75*
G02*
X170050750Y-211980000I82000J0D01*
G01*
X171486750Y-211980000D01*
G75*
G02*
X171568750Y-212062000I0J-82000D01*
G01*
X171568750Y-212718000D01*
G75*
G02*
X171486750Y-212800000I-82000J0D01*
G01*
G37*
G36*
G01*
X94849250Y-211300000D02*
X93413250Y-211300000D01*
G75*
G02*
X93331250Y-211218000I0J82000D01*
G01*
X93331250Y-210562000D01*
G75*
G02*
X93413250Y-210480000I82000J0D01*
G01*
X94849250Y-210480000D01*
G75*
G02*
X94931250Y-210562000I0J-82000D01*
G01*
X94931250Y-211218000D01*
G75*
G02*
X94849250Y-211300000I-82000J0D01*
G01*
G37*
G36*
G01*
X94849250Y-212800000D02*
X93413250Y-212800000D01*
G75*
G02*
X93331250Y-212718000I0J82000D01*
G01*
X93331250Y-212062000D01*
G75*
G02*
X93413250Y-211980000I82000J0D01*
G01*
X94849250Y-211980000D01*
G75*
G02*
X94931250Y-212062000I0J-82000D01*
G01*
X94931250Y-212718000D01*
G75*
G02*
X94849250Y-212800000I-82000J0D01*
G01*
G37*
G36*
G01*
X100049250Y-211300000D02*
X98613250Y-211300000D01*
G75*
G02*
X98531250Y-211218000I0J82000D01*
G01*
X98531250Y-210562000D01*
G75*
G02*
X98613250Y-210480000I82000J0D01*
G01*
X100049250Y-210480000D01*
G75*
G02*
X100131250Y-210562000I0J-82000D01*
G01*
X100131250Y-211218000D01*
G75*
G02*
X100049250Y-211300000I-82000J0D01*
G01*
G37*
G36*
G01*
X100049250Y-212800000D02*
X98613250Y-212800000D01*
G75*
G02*
X98531250Y-212718000I0J82000D01*
G01*
X98531250Y-212062000D01*
G75*
G02*
X98613250Y-211980000I82000J0D01*
G01*
X100049250Y-211980000D01*
G75*
G02*
X100131250Y-212062000I0J-82000D01*
G01*
X100131250Y-212718000D01*
G75*
G02*
X100049250Y-212800000I-82000J0D01*
G01*
G37*
G36*
G01*
X71036750Y-211300000D02*
X69600750Y-211300000D01*
G75*
G02*
X69518750Y-211218000I0J82000D01*
G01*
X69518750Y-210562000D01*
G75*
G02*
X69600750Y-210480000I82000J0D01*
G01*
X71036750Y-210480000D01*
G75*
G02*
X71118750Y-210562000I0J-82000D01*
G01*
X71118750Y-211218000D01*
G75*
G02*
X71036750Y-211300000I-82000J0D01*
G01*
G37*
G36*
G01*
X71036750Y-212800000D02*
X69600750Y-212800000D01*
G75*
G02*
X69518750Y-212718000I0J82000D01*
G01*
X69518750Y-212062000D01*
G75*
G02*
X69600750Y-211980000I82000J0D01*
G01*
X71036750Y-211980000D01*
G75*
G02*
X71118750Y-212062000I0J-82000D01*
G01*
X71118750Y-212718000D01*
G75*
G02*
X71036750Y-212800000I-82000J0D01*
G01*
G37*
G36*
G01*
X76236750Y-211300000D02*
X74800750Y-211300000D01*
G75*
G02*
X74718750Y-211218000I0J82000D01*
G01*
X74718750Y-210562000D01*
G75*
G02*
X74800750Y-210480000I82000J0D01*
G01*
X76236750Y-210480000D01*
G75*
G02*
X76318750Y-210562000I0J-82000D01*
G01*
X76318750Y-211218000D01*
G75*
G02*
X76236750Y-211300000I-82000J0D01*
G01*
G37*
G36*
G01*
X76236750Y-212800000D02*
X74800750Y-212800000D01*
G75*
G02*
X74718750Y-212718000I0J82000D01*
G01*
X74718750Y-212062000D01*
G75*
G02*
X74800750Y-211980000I82000J0D01*
G01*
X76236750Y-211980000D01*
G75*
G02*
X76318750Y-212062000I0J-82000D01*
G01*
X76318750Y-212718000D01*
G75*
G02*
X76236750Y-212800000I-82000J0D01*
G01*
G37*
G36*
G01*
X47224250Y-211300000D02*
X45788250Y-211300000D01*
G75*
G02*
X45706250Y-211218000I0J82000D01*
G01*
X45706250Y-210562000D01*
G75*
G02*
X45788250Y-210480000I82000J0D01*
G01*
X47224250Y-210480000D01*
G75*
G02*
X47306250Y-210562000I0J-82000D01*
G01*
X47306250Y-211218000D01*
G75*
G02*
X47224250Y-211300000I-82000J0D01*
G01*
G37*
G36*
G01*
X47224250Y-212800000D02*
X45788250Y-212800000D01*
G75*
G02*
X45706250Y-212718000I0J82000D01*
G01*
X45706250Y-212062000D01*
G75*
G02*
X45788250Y-211980000I82000J0D01*
G01*
X47224250Y-211980000D01*
G75*
G02*
X47306250Y-212062000I0J-82000D01*
G01*
X47306250Y-212718000D01*
G75*
G02*
X47224250Y-212800000I-82000J0D01*
G01*
G37*
G36*
G01*
X52424250Y-211300000D02*
X50988250Y-211300000D01*
G75*
G02*
X50906250Y-211218000I0J82000D01*
G01*
X50906250Y-210562000D01*
G75*
G02*
X50988250Y-210480000I82000J0D01*
G01*
X52424250Y-210480000D01*
G75*
G02*
X52506250Y-210562000I0J-82000D01*
G01*
X52506250Y-211218000D01*
G75*
G02*
X52424250Y-211300000I-82000J0D01*
G01*
G37*
G36*
G01*
X52424250Y-212800000D02*
X50988250Y-212800000D01*
G75*
G02*
X50906250Y-212718000I0J82000D01*
G01*
X50906250Y-212062000D01*
G75*
G02*
X50988250Y-211980000I82000J0D01*
G01*
X52424250Y-211980000D01*
G75*
G02*
X52506250Y-212062000I0J-82000D01*
G01*
X52506250Y-212718000D01*
G75*
G02*
X52424250Y-212800000I-82000J0D01*
G01*
G37*
G36*
G01*
X354405500Y-192250000D02*
X352969500Y-192250000D01*
G75*
G02*
X352887500Y-192168000I0J82000D01*
G01*
X352887500Y-191512000D01*
G75*
G02*
X352969500Y-191430000I82000J0D01*
G01*
X354405500Y-191430000D01*
G75*
G02*
X354487500Y-191512000I0J-82000D01*
G01*
X354487500Y-192168000D01*
G75*
G02*
X354405500Y-192250000I-82000J0D01*
G01*
G37*
G36*
G01*
X354405500Y-193750000D02*
X352969500Y-193750000D01*
G75*
G02*
X352887500Y-193668000I0J82000D01*
G01*
X352887500Y-193012000D01*
G75*
G02*
X352969500Y-192930000I82000J0D01*
G01*
X354405500Y-192930000D01*
G75*
G02*
X354487500Y-193012000I0J-82000D01*
G01*
X354487500Y-193668000D01*
G75*
G02*
X354405500Y-193750000I-82000J0D01*
G01*
G37*
G36*
G01*
X359605500Y-192250000D02*
X358169500Y-192250000D01*
G75*
G02*
X358087500Y-192168000I0J82000D01*
G01*
X358087500Y-191512000D01*
G75*
G02*
X358169500Y-191430000I82000J0D01*
G01*
X359605500Y-191430000D01*
G75*
G02*
X359687500Y-191512000I0J-82000D01*
G01*
X359687500Y-192168000D01*
G75*
G02*
X359605500Y-192250000I-82000J0D01*
G01*
G37*
G36*
G01*
X359605500Y-193750000D02*
X358169500Y-193750000D01*
G75*
G02*
X358087500Y-193668000I0J82000D01*
G01*
X358087500Y-193012000D01*
G75*
G02*
X358169500Y-192930000I82000J0D01*
G01*
X359605500Y-192930000D01*
G75*
G02*
X359687500Y-193012000I0J-82000D01*
G01*
X359687500Y-193668000D01*
G75*
G02*
X359605500Y-193750000I-82000J0D01*
G01*
G37*
G36*
G01*
X294874250Y-192250000D02*
X293438250Y-192250000D01*
G75*
G02*
X293356250Y-192168000I0J82000D01*
G01*
X293356250Y-191512000D01*
G75*
G02*
X293438250Y-191430000I82000J0D01*
G01*
X294874250Y-191430000D01*
G75*
G02*
X294956250Y-191512000I0J-82000D01*
G01*
X294956250Y-192168000D01*
G75*
G02*
X294874250Y-192250000I-82000J0D01*
G01*
G37*
G36*
G01*
X294874250Y-193750000D02*
X293438250Y-193750000D01*
G75*
G02*
X293356250Y-193668000I0J82000D01*
G01*
X293356250Y-193012000D01*
G75*
G02*
X293438250Y-192930000I82000J0D01*
G01*
X294874250Y-192930000D01*
G75*
G02*
X294956250Y-193012000I0J-82000D01*
G01*
X294956250Y-193668000D01*
G75*
G02*
X294874250Y-193750000I-82000J0D01*
G01*
G37*
G36*
G01*
X300074250Y-192250000D02*
X298638250Y-192250000D01*
G75*
G02*
X298556250Y-192168000I0J82000D01*
G01*
X298556250Y-191512000D01*
G75*
G02*
X298638250Y-191430000I82000J0D01*
G01*
X300074250Y-191430000D01*
G75*
G02*
X300156250Y-191512000I0J-82000D01*
G01*
X300156250Y-192168000D01*
G75*
G02*
X300074250Y-192250000I-82000J0D01*
G01*
G37*
G36*
G01*
X300074250Y-193750000D02*
X298638250Y-193750000D01*
G75*
G02*
X298556250Y-193668000I0J82000D01*
G01*
X298556250Y-193012000D01*
G75*
G02*
X298638250Y-192930000I82000J0D01*
G01*
X300074250Y-192930000D01*
G75*
G02*
X300156250Y-193012000I0J-82000D01*
G01*
X300156250Y-193668000D01*
G75*
G02*
X300074250Y-193750000I-82000J0D01*
G01*
G37*
G36*
G01*
X259155500Y-192250000D02*
X257719500Y-192250000D01*
G75*
G02*
X257637500Y-192168000I0J82000D01*
G01*
X257637500Y-191512000D01*
G75*
G02*
X257719500Y-191430000I82000J0D01*
G01*
X259155500Y-191430000D01*
G75*
G02*
X259237500Y-191512000I0J-82000D01*
G01*
X259237500Y-192168000D01*
G75*
G02*
X259155500Y-192250000I-82000J0D01*
G01*
G37*
G36*
G01*
X259155500Y-193750000D02*
X257719500Y-193750000D01*
G75*
G02*
X257637500Y-193668000I0J82000D01*
G01*
X257637500Y-193012000D01*
G75*
G02*
X257719500Y-192930000I82000J0D01*
G01*
X259155500Y-192930000D01*
G75*
G02*
X259237500Y-193012000I0J-82000D01*
G01*
X259237500Y-193668000D01*
G75*
G02*
X259155500Y-193750000I-82000J0D01*
G01*
G37*
G36*
G01*
X264355500Y-192250000D02*
X262919500Y-192250000D01*
G75*
G02*
X262837500Y-192168000I0J82000D01*
G01*
X262837500Y-191512000D01*
G75*
G02*
X262919500Y-191430000I82000J0D01*
G01*
X264355500Y-191430000D01*
G75*
G02*
X264437500Y-191512000I0J-82000D01*
G01*
X264437500Y-192168000D01*
G75*
G02*
X264355500Y-192250000I-82000J0D01*
G01*
G37*
G36*
G01*
X264355500Y-193750000D02*
X262919500Y-193750000D01*
G75*
G02*
X262837500Y-193668000I0J82000D01*
G01*
X262837500Y-193012000D01*
G75*
G02*
X262919500Y-192930000I82000J0D01*
G01*
X264355500Y-192930000D01*
G75*
G02*
X264437500Y-193012000I0J-82000D01*
G01*
X264437500Y-193668000D01*
G75*
G02*
X264355500Y-193750000I-82000J0D01*
G01*
G37*
G36*
G01*
X240105500Y-192250000D02*
X238669500Y-192250000D01*
G75*
G02*
X238587500Y-192168000I0J82000D01*
G01*
X238587500Y-191512000D01*
G75*
G02*
X238669500Y-191430000I82000J0D01*
G01*
X240105500Y-191430000D01*
G75*
G02*
X240187500Y-191512000I0J-82000D01*
G01*
X240187500Y-192168000D01*
G75*
G02*
X240105500Y-192250000I-82000J0D01*
G01*
G37*
G36*
G01*
X240105500Y-193750000D02*
X238669500Y-193750000D01*
G75*
G02*
X238587500Y-193668000I0J82000D01*
G01*
X238587500Y-193012000D01*
G75*
G02*
X238669500Y-192930000I82000J0D01*
G01*
X240105500Y-192930000D01*
G75*
G02*
X240187500Y-193012000I0J-82000D01*
G01*
X240187500Y-193668000D01*
G75*
G02*
X240105500Y-193750000I-82000J0D01*
G01*
G37*
G36*
G01*
X245305500Y-192250000D02*
X243869500Y-192250000D01*
G75*
G02*
X243787500Y-192168000I0J82000D01*
G01*
X243787500Y-191512000D01*
G75*
G02*
X243869500Y-191430000I82000J0D01*
G01*
X245305500Y-191430000D01*
G75*
G02*
X245387500Y-191512000I0J-82000D01*
G01*
X245387500Y-192168000D01*
G75*
G02*
X245305500Y-192250000I-82000J0D01*
G01*
G37*
G36*
G01*
X245305500Y-193750000D02*
X243869500Y-193750000D01*
G75*
G02*
X243787500Y-193668000I0J82000D01*
G01*
X243787500Y-193012000D01*
G75*
G02*
X243869500Y-192930000I82000J0D01*
G01*
X245305500Y-192930000D01*
G75*
G02*
X245387500Y-193012000I0J-82000D01*
G01*
X245387500Y-193668000D01*
G75*
G02*
X245305500Y-193750000I-82000J0D01*
G01*
G37*
G36*
G01*
X221055500Y-192250000D02*
X219619500Y-192250000D01*
G75*
G02*
X219537500Y-192168000I0J82000D01*
G01*
X219537500Y-191512000D01*
G75*
G02*
X219619500Y-191430000I82000J0D01*
G01*
X221055500Y-191430000D01*
G75*
G02*
X221137500Y-191512000I0J-82000D01*
G01*
X221137500Y-192168000D01*
G75*
G02*
X221055500Y-192250000I-82000J0D01*
G01*
G37*
G36*
G01*
X221055500Y-193750000D02*
X219619500Y-193750000D01*
G75*
G02*
X219537500Y-193668000I0J82000D01*
G01*
X219537500Y-193012000D01*
G75*
G02*
X219619500Y-192930000I82000J0D01*
G01*
X221055500Y-192930000D01*
G75*
G02*
X221137500Y-193012000I0J-82000D01*
G01*
X221137500Y-193668000D01*
G75*
G02*
X221055500Y-193750000I-82000J0D01*
G01*
G37*
G36*
G01*
X226255500Y-192250000D02*
X224819500Y-192250000D01*
G75*
G02*
X224737500Y-192168000I0J82000D01*
G01*
X224737500Y-191512000D01*
G75*
G02*
X224819500Y-191430000I82000J0D01*
G01*
X226255500Y-191430000D01*
G75*
G02*
X226337500Y-191512000I0J-82000D01*
G01*
X226337500Y-192168000D01*
G75*
G02*
X226255500Y-192250000I-82000J0D01*
G01*
G37*
G36*
G01*
X226255500Y-193750000D02*
X224819500Y-193750000D01*
G75*
G02*
X224737500Y-193668000I0J82000D01*
G01*
X224737500Y-193012000D01*
G75*
G02*
X224819500Y-192930000I82000J0D01*
G01*
X226255500Y-192930000D01*
G75*
G02*
X226337500Y-193012000I0J-82000D01*
G01*
X226337500Y-193668000D01*
G75*
G02*
X226255500Y-193750000I-82000J0D01*
G01*
G37*
G36*
G01*
X202005500Y-192250000D02*
X200569500Y-192250000D01*
G75*
G02*
X200487500Y-192168000I0J82000D01*
G01*
X200487500Y-191512000D01*
G75*
G02*
X200569500Y-191430000I82000J0D01*
G01*
X202005500Y-191430000D01*
G75*
G02*
X202087500Y-191512000I0J-82000D01*
G01*
X202087500Y-192168000D01*
G75*
G02*
X202005500Y-192250000I-82000J0D01*
G01*
G37*
G36*
G01*
X202005500Y-193750000D02*
X200569500Y-193750000D01*
G75*
G02*
X200487500Y-193668000I0J82000D01*
G01*
X200487500Y-193012000D01*
G75*
G02*
X200569500Y-192930000I82000J0D01*
G01*
X202005500Y-192930000D01*
G75*
G02*
X202087500Y-193012000I0J-82000D01*
G01*
X202087500Y-193668000D01*
G75*
G02*
X202005500Y-193750000I-82000J0D01*
G01*
G37*
G36*
G01*
X207205500Y-192250000D02*
X205769500Y-192250000D01*
G75*
G02*
X205687500Y-192168000I0J82000D01*
G01*
X205687500Y-191512000D01*
G75*
G02*
X205769500Y-191430000I82000J0D01*
G01*
X207205500Y-191430000D01*
G75*
G02*
X207287500Y-191512000I0J-82000D01*
G01*
X207287500Y-192168000D01*
G75*
G02*
X207205500Y-192250000I-82000J0D01*
G01*
G37*
G36*
G01*
X207205500Y-193750000D02*
X205769500Y-193750000D01*
G75*
G02*
X205687500Y-193668000I0J82000D01*
G01*
X205687500Y-193012000D01*
G75*
G02*
X205769500Y-192930000I82000J0D01*
G01*
X207205500Y-192930000D01*
G75*
G02*
X207287500Y-193012000I0J-82000D01*
G01*
X207287500Y-193668000D01*
G75*
G02*
X207205500Y-193750000I-82000J0D01*
G01*
G37*
G36*
G01*
X182955500Y-192250000D02*
X181519500Y-192250000D01*
G75*
G02*
X181437500Y-192168000I0J82000D01*
G01*
X181437500Y-191512000D01*
G75*
G02*
X181519500Y-191430000I82000J0D01*
G01*
X182955500Y-191430000D01*
G75*
G02*
X183037500Y-191512000I0J-82000D01*
G01*
X183037500Y-192168000D01*
G75*
G02*
X182955500Y-192250000I-82000J0D01*
G01*
G37*
G36*
G01*
X182955500Y-193750000D02*
X181519500Y-193750000D01*
G75*
G02*
X181437500Y-193668000I0J82000D01*
G01*
X181437500Y-193012000D01*
G75*
G02*
X181519500Y-192930000I82000J0D01*
G01*
X182955500Y-192930000D01*
G75*
G02*
X183037500Y-193012000I0J-82000D01*
G01*
X183037500Y-193668000D01*
G75*
G02*
X182955500Y-193750000I-82000J0D01*
G01*
G37*
G36*
G01*
X188155500Y-192250000D02*
X186719500Y-192250000D01*
G75*
G02*
X186637500Y-192168000I0J82000D01*
G01*
X186637500Y-191512000D01*
G75*
G02*
X186719500Y-191430000I82000J0D01*
G01*
X188155500Y-191430000D01*
G75*
G02*
X188237500Y-191512000I0J-82000D01*
G01*
X188237500Y-192168000D01*
G75*
G02*
X188155500Y-192250000I-82000J0D01*
G01*
G37*
G36*
G01*
X188155500Y-193750000D02*
X186719500Y-193750000D01*
G75*
G02*
X186637500Y-193668000I0J82000D01*
G01*
X186637500Y-193012000D01*
G75*
G02*
X186719500Y-192930000I82000J0D01*
G01*
X188155500Y-192930000D01*
G75*
G02*
X188237500Y-193012000I0J-82000D01*
G01*
X188237500Y-193668000D01*
G75*
G02*
X188155500Y-193750000I-82000J0D01*
G01*
G37*
G36*
G01*
X163905500Y-192250000D02*
X162469500Y-192250000D01*
G75*
G02*
X162387500Y-192168000I0J82000D01*
G01*
X162387500Y-191512000D01*
G75*
G02*
X162469500Y-191430000I82000J0D01*
G01*
X163905500Y-191430000D01*
G75*
G02*
X163987500Y-191512000I0J-82000D01*
G01*
X163987500Y-192168000D01*
G75*
G02*
X163905500Y-192250000I-82000J0D01*
G01*
G37*
G36*
G01*
X163905500Y-193750000D02*
X162469500Y-193750000D01*
G75*
G02*
X162387500Y-193668000I0J82000D01*
G01*
X162387500Y-193012000D01*
G75*
G02*
X162469500Y-192930000I82000J0D01*
G01*
X163905500Y-192930000D01*
G75*
G02*
X163987500Y-193012000I0J-82000D01*
G01*
X163987500Y-193668000D01*
G75*
G02*
X163905500Y-193750000I-82000J0D01*
G01*
G37*
G36*
G01*
X169105500Y-192250000D02*
X167669500Y-192250000D01*
G75*
G02*
X167587500Y-192168000I0J82000D01*
G01*
X167587500Y-191512000D01*
G75*
G02*
X167669500Y-191430000I82000J0D01*
G01*
X169105500Y-191430000D01*
G75*
G02*
X169187500Y-191512000I0J-82000D01*
G01*
X169187500Y-192168000D01*
G75*
G02*
X169105500Y-192250000I-82000J0D01*
G01*
G37*
G36*
G01*
X169105500Y-193750000D02*
X167669500Y-193750000D01*
G75*
G02*
X167587500Y-193668000I0J82000D01*
G01*
X167587500Y-193012000D01*
G75*
G02*
X167669500Y-192930000I82000J0D01*
G01*
X169105500Y-192930000D01*
G75*
G02*
X169187500Y-193012000I0J-82000D01*
G01*
X169187500Y-193668000D01*
G75*
G02*
X169105500Y-193750000I-82000J0D01*
G01*
G37*
G36*
G01*
X144855500Y-192250000D02*
X143419500Y-192250000D01*
G75*
G02*
X143337500Y-192168000I0J82000D01*
G01*
X143337500Y-191512000D01*
G75*
G02*
X143419500Y-191430000I82000J0D01*
G01*
X144855500Y-191430000D01*
G75*
G02*
X144937500Y-191512000I0J-82000D01*
G01*
X144937500Y-192168000D01*
G75*
G02*
X144855500Y-192250000I-82000J0D01*
G01*
G37*
G36*
G01*
X144855500Y-193750000D02*
X143419500Y-193750000D01*
G75*
G02*
X143337500Y-193668000I0J82000D01*
G01*
X143337500Y-193012000D01*
G75*
G02*
X143419500Y-192930000I82000J0D01*
G01*
X144855500Y-192930000D01*
G75*
G02*
X144937500Y-193012000I0J-82000D01*
G01*
X144937500Y-193668000D01*
G75*
G02*
X144855500Y-193750000I-82000J0D01*
G01*
G37*
G36*
G01*
X150055500Y-192250000D02*
X148619500Y-192250000D01*
G75*
G02*
X148537500Y-192168000I0J82000D01*
G01*
X148537500Y-191512000D01*
G75*
G02*
X148619500Y-191430000I82000J0D01*
G01*
X150055500Y-191430000D01*
G75*
G02*
X150137500Y-191512000I0J-82000D01*
G01*
X150137500Y-192168000D01*
G75*
G02*
X150055500Y-192250000I-82000J0D01*
G01*
G37*
G36*
G01*
X150055500Y-193750000D02*
X148619500Y-193750000D01*
G75*
G02*
X148537500Y-193668000I0J82000D01*
G01*
X148537500Y-193012000D01*
G75*
G02*
X148619500Y-192930000I82000J0D01*
G01*
X150055500Y-192930000D01*
G75*
G02*
X150137500Y-193012000I0J-82000D01*
G01*
X150137500Y-193668000D01*
G75*
G02*
X150055500Y-193750000I-82000J0D01*
G01*
G37*
G36*
G01*
X125805500Y-192250000D02*
X124369500Y-192250000D01*
G75*
G02*
X124287500Y-192168000I0J82000D01*
G01*
X124287500Y-191512000D01*
G75*
G02*
X124369500Y-191430000I82000J0D01*
G01*
X125805500Y-191430000D01*
G75*
G02*
X125887500Y-191512000I0J-82000D01*
G01*
X125887500Y-192168000D01*
G75*
G02*
X125805500Y-192250000I-82000J0D01*
G01*
G37*
G36*
G01*
X125805500Y-193750000D02*
X124369500Y-193750000D01*
G75*
G02*
X124287500Y-193668000I0J82000D01*
G01*
X124287500Y-193012000D01*
G75*
G02*
X124369500Y-192930000I82000J0D01*
G01*
X125805500Y-192930000D01*
G75*
G02*
X125887500Y-193012000I0J-82000D01*
G01*
X125887500Y-193668000D01*
G75*
G02*
X125805500Y-193750000I-82000J0D01*
G01*
G37*
G36*
G01*
X131005500Y-192250000D02*
X129569500Y-192250000D01*
G75*
G02*
X129487500Y-192168000I0J82000D01*
G01*
X129487500Y-191512000D01*
G75*
G02*
X129569500Y-191430000I82000J0D01*
G01*
X131005500Y-191430000D01*
G75*
G02*
X131087500Y-191512000I0J-82000D01*
G01*
X131087500Y-192168000D01*
G75*
G02*
X131005500Y-192250000I-82000J0D01*
G01*
G37*
G36*
G01*
X131005500Y-193750000D02*
X129569500Y-193750000D01*
G75*
G02*
X129487500Y-193668000I0J82000D01*
G01*
X129487500Y-193012000D01*
G75*
G02*
X129569500Y-192930000I82000J0D01*
G01*
X131005500Y-192930000D01*
G75*
G02*
X131087500Y-193012000I0J-82000D01*
G01*
X131087500Y-193668000D01*
G75*
G02*
X131005500Y-193750000I-82000J0D01*
G01*
G37*
G36*
G01*
X106755500Y-192250000D02*
X105319500Y-192250000D01*
G75*
G02*
X105237500Y-192168000I0J82000D01*
G01*
X105237500Y-191512000D01*
G75*
G02*
X105319500Y-191430000I82000J0D01*
G01*
X106755500Y-191430000D01*
G75*
G02*
X106837500Y-191512000I0J-82000D01*
G01*
X106837500Y-192168000D01*
G75*
G02*
X106755500Y-192250000I-82000J0D01*
G01*
G37*
G36*
G01*
X106755500Y-193750000D02*
X105319500Y-193750000D01*
G75*
G02*
X105237500Y-193668000I0J82000D01*
G01*
X105237500Y-193012000D01*
G75*
G02*
X105319500Y-192930000I82000J0D01*
G01*
X106755500Y-192930000D01*
G75*
G02*
X106837500Y-193012000I0J-82000D01*
G01*
X106837500Y-193668000D01*
G75*
G02*
X106755500Y-193750000I-82000J0D01*
G01*
G37*
G36*
G01*
X111955500Y-192250000D02*
X110519500Y-192250000D01*
G75*
G02*
X110437500Y-192168000I0J82000D01*
G01*
X110437500Y-191512000D01*
G75*
G02*
X110519500Y-191430000I82000J0D01*
G01*
X111955500Y-191430000D01*
G75*
G02*
X112037500Y-191512000I0J-82000D01*
G01*
X112037500Y-192168000D01*
G75*
G02*
X111955500Y-192250000I-82000J0D01*
G01*
G37*
G36*
G01*
X111955500Y-193750000D02*
X110519500Y-193750000D01*
G75*
G02*
X110437500Y-193668000I0J82000D01*
G01*
X110437500Y-193012000D01*
G75*
G02*
X110519500Y-192930000I82000J0D01*
G01*
X111955500Y-192930000D01*
G75*
G02*
X112037500Y-193012000I0J-82000D01*
G01*
X112037500Y-193668000D01*
G75*
G02*
X111955500Y-193750000I-82000J0D01*
G01*
G37*
G36*
G01*
X87705500Y-192250000D02*
X86269500Y-192250000D01*
G75*
G02*
X86187500Y-192168000I0J82000D01*
G01*
X86187500Y-191512000D01*
G75*
G02*
X86269500Y-191430000I82000J0D01*
G01*
X87705500Y-191430000D01*
G75*
G02*
X87787500Y-191512000I0J-82000D01*
G01*
X87787500Y-192168000D01*
G75*
G02*
X87705500Y-192250000I-82000J0D01*
G01*
G37*
G36*
G01*
X87705500Y-193750000D02*
X86269500Y-193750000D01*
G75*
G02*
X86187500Y-193668000I0J82000D01*
G01*
X86187500Y-193012000D01*
G75*
G02*
X86269500Y-192930000I82000J0D01*
G01*
X87705500Y-192930000D01*
G75*
G02*
X87787500Y-193012000I0J-82000D01*
G01*
X87787500Y-193668000D01*
G75*
G02*
X87705500Y-193750000I-82000J0D01*
G01*
G37*
G36*
G01*
X92905500Y-192250000D02*
X91469500Y-192250000D01*
G75*
G02*
X91387500Y-192168000I0J82000D01*
G01*
X91387500Y-191512000D01*
G75*
G02*
X91469500Y-191430000I82000J0D01*
G01*
X92905500Y-191430000D01*
G75*
G02*
X92987500Y-191512000I0J-82000D01*
G01*
X92987500Y-192168000D01*
G75*
G02*
X92905500Y-192250000I-82000J0D01*
G01*
G37*
G36*
G01*
X92905500Y-193750000D02*
X91469500Y-193750000D01*
G75*
G02*
X91387500Y-193668000I0J82000D01*
G01*
X91387500Y-193012000D01*
G75*
G02*
X91469500Y-192930000I82000J0D01*
G01*
X92905500Y-192930000D01*
G75*
G02*
X92987500Y-193012000I0J-82000D01*
G01*
X92987500Y-193668000D01*
G75*
G02*
X92905500Y-193750000I-82000J0D01*
G01*
G37*
G36*
G01*
X68655500Y-192250000D02*
X67219500Y-192250000D01*
G75*
G02*
X67137500Y-192168000I0J82000D01*
G01*
X67137500Y-191512000D01*
G75*
G02*
X67219500Y-191430000I82000J0D01*
G01*
X68655500Y-191430000D01*
G75*
G02*
X68737500Y-191512000I0J-82000D01*
G01*
X68737500Y-192168000D01*
G75*
G02*
X68655500Y-192250000I-82000J0D01*
G01*
G37*
G36*
G01*
X68655500Y-193750000D02*
X67219500Y-193750000D01*
G75*
G02*
X67137500Y-193668000I0J82000D01*
G01*
X67137500Y-193012000D01*
G75*
G02*
X67219500Y-192930000I82000J0D01*
G01*
X68655500Y-192930000D01*
G75*
G02*
X68737500Y-193012000I0J-82000D01*
G01*
X68737500Y-193668000D01*
G75*
G02*
X68655500Y-193750000I-82000J0D01*
G01*
G37*
G36*
G01*
X73855500Y-192250000D02*
X72419500Y-192250000D01*
G75*
G02*
X72337500Y-192168000I0J82000D01*
G01*
X72337500Y-191512000D01*
G75*
G02*
X72419500Y-191430000I82000J0D01*
G01*
X73855500Y-191430000D01*
G75*
G02*
X73937500Y-191512000I0J-82000D01*
G01*
X73937500Y-192168000D01*
G75*
G02*
X73855500Y-192250000I-82000J0D01*
G01*
G37*
G36*
G01*
X73855500Y-193750000D02*
X72419500Y-193750000D01*
G75*
G02*
X72337500Y-193668000I0J82000D01*
G01*
X72337500Y-193012000D01*
G75*
G02*
X72419500Y-192930000I82000J0D01*
G01*
X73855500Y-192930000D01*
G75*
G02*
X73937500Y-193012000I0J-82000D01*
G01*
X73937500Y-193668000D01*
G75*
G02*
X73855500Y-193750000I-82000J0D01*
G01*
G37*
G36*
G01*
X47224250Y-192250000D02*
X45788250Y-192250000D01*
G75*
G02*
X45706250Y-192168000I0J82000D01*
G01*
X45706250Y-191512000D01*
G75*
G02*
X45788250Y-191430000I82000J0D01*
G01*
X47224250Y-191430000D01*
G75*
G02*
X47306250Y-191512000I0J-82000D01*
G01*
X47306250Y-192168000D01*
G75*
G02*
X47224250Y-192250000I-82000J0D01*
G01*
G37*
G36*
G01*
X47224250Y-193750000D02*
X45788250Y-193750000D01*
G75*
G02*
X45706250Y-193668000I0J82000D01*
G01*
X45706250Y-193012000D01*
G75*
G02*
X45788250Y-192930000I82000J0D01*
G01*
X47224250Y-192930000D01*
G75*
G02*
X47306250Y-193012000I0J-82000D01*
G01*
X47306250Y-193668000D01*
G75*
G02*
X47224250Y-193750000I-82000J0D01*
G01*
G37*
G36*
G01*
X52424250Y-192250000D02*
X50988250Y-192250000D01*
G75*
G02*
X50906250Y-192168000I0J82000D01*
G01*
X50906250Y-191512000D01*
G75*
G02*
X50988250Y-191430000I82000J0D01*
G01*
X52424250Y-191430000D01*
G75*
G02*
X52506250Y-191512000I0J-82000D01*
G01*
X52506250Y-192168000D01*
G75*
G02*
X52424250Y-192250000I-82000J0D01*
G01*
G37*
G36*
G01*
X52424250Y-193750000D02*
X50988250Y-193750000D01*
G75*
G02*
X50906250Y-193668000I0J82000D01*
G01*
X50906250Y-193012000D01*
G75*
G02*
X50988250Y-192930000I82000J0D01*
G01*
X52424250Y-192930000D01*
G75*
G02*
X52506250Y-193012000I0J-82000D01*
G01*
X52506250Y-193668000D01*
G75*
G02*
X52424250Y-193750000I-82000J0D01*
G01*
G37*
G36*
G01*
X287730500Y-173200000D02*
X286294500Y-173200000D01*
G75*
G02*
X286212500Y-173118000I0J82000D01*
G01*
X286212500Y-172462000D01*
G75*
G02*
X286294500Y-172380000I82000J0D01*
G01*
X287730500Y-172380000D01*
G75*
G02*
X287812500Y-172462000I0J-82000D01*
G01*
X287812500Y-173118000D01*
G75*
G02*
X287730500Y-173200000I-82000J0D01*
G01*
G37*
G36*
G01*
X287730500Y-174700000D02*
X286294500Y-174700000D01*
G75*
G02*
X286212500Y-174618000I0J82000D01*
G01*
X286212500Y-173962000D01*
G75*
G02*
X286294500Y-173880000I82000J0D01*
G01*
X287730500Y-173880000D01*
G75*
G02*
X287812500Y-173962000I0J-82000D01*
G01*
X287812500Y-174618000D01*
G75*
G02*
X287730500Y-174700000I-82000J0D01*
G01*
G37*
G36*
G01*
X292930500Y-173200000D02*
X291494500Y-173200000D01*
G75*
G02*
X291412500Y-173118000I0J82000D01*
G01*
X291412500Y-172462000D01*
G75*
G02*
X291494500Y-172380000I82000J0D01*
G01*
X292930500Y-172380000D01*
G75*
G02*
X293012500Y-172462000I0J-82000D01*
G01*
X293012500Y-173118000D01*
G75*
G02*
X292930500Y-173200000I-82000J0D01*
G01*
G37*
G36*
G01*
X292930500Y-174700000D02*
X291494500Y-174700000D01*
G75*
G02*
X291412500Y-174618000I0J82000D01*
G01*
X291412500Y-173962000D01*
G75*
G02*
X291494500Y-173880000I82000J0D01*
G01*
X292930500Y-173880000D01*
G75*
G02*
X293012500Y-173962000I0J-82000D01*
G01*
X293012500Y-174618000D01*
G75*
G02*
X292930500Y-174700000I-82000J0D01*
G01*
G37*
G36*
G01*
X268680500Y-173200000D02*
X267244500Y-173200000D01*
G75*
G02*
X267162500Y-173118000I0J82000D01*
G01*
X267162500Y-172462000D01*
G75*
G02*
X267244500Y-172380000I82000J0D01*
G01*
X268680500Y-172380000D01*
G75*
G02*
X268762500Y-172462000I0J-82000D01*
G01*
X268762500Y-173118000D01*
G75*
G02*
X268680500Y-173200000I-82000J0D01*
G01*
G37*
G36*
G01*
X268680500Y-174700000D02*
X267244500Y-174700000D01*
G75*
G02*
X267162500Y-174618000I0J82000D01*
G01*
X267162500Y-173962000D01*
G75*
G02*
X267244500Y-173880000I82000J0D01*
G01*
X268680500Y-173880000D01*
G75*
G02*
X268762500Y-173962000I0J-82000D01*
G01*
X268762500Y-174618000D01*
G75*
G02*
X268680500Y-174700000I-82000J0D01*
G01*
G37*
G36*
G01*
X273880500Y-173200000D02*
X272444500Y-173200000D01*
G75*
G02*
X272362500Y-173118000I0J82000D01*
G01*
X272362500Y-172462000D01*
G75*
G02*
X272444500Y-172380000I82000J0D01*
G01*
X273880500Y-172380000D01*
G75*
G02*
X273962500Y-172462000I0J-82000D01*
G01*
X273962500Y-173118000D01*
G75*
G02*
X273880500Y-173200000I-82000J0D01*
G01*
G37*
G36*
G01*
X273880500Y-174700000D02*
X272444500Y-174700000D01*
G75*
G02*
X272362500Y-174618000I0J82000D01*
G01*
X272362500Y-173962000D01*
G75*
G02*
X272444500Y-173880000I82000J0D01*
G01*
X273880500Y-173880000D01*
G75*
G02*
X273962500Y-173962000I0J-82000D01*
G01*
X273962500Y-174618000D01*
G75*
G02*
X273880500Y-174700000I-82000J0D01*
G01*
G37*
G36*
G01*
X249630500Y-173200000D02*
X248194500Y-173200000D01*
G75*
G02*
X248112500Y-173118000I0J82000D01*
G01*
X248112500Y-172462000D01*
G75*
G02*
X248194500Y-172380000I82000J0D01*
G01*
X249630500Y-172380000D01*
G75*
G02*
X249712500Y-172462000I0J-82000D01*
G01*
X249712500Y-173118000D01*
G75*
G02*
X249630500Y-173200000I-82000J0D01*
G01*
G37*
G36*
G01*
X249630500Y-174700000D02*
X248194500Y-174700000D01*
G75*
G02*
X248112500Y-174618000I0J82000D01*
G01*
X248112500Y-173962000D01*
G75*
G02*
X248194500Y-173880000I82000J0D01*
G01*
X249630500Y-173880000D01*
G75*
G02*
X249712500Y-173962000I0J-82000D01*
G01*
X249712500Y-174618000D01*
G75*
G02*
X249630500Y-174700000I-82000J0D01*
G01*
G37*
G36*
G01*
X254830500Y-173200000D02*
X253394500Y-173200000D01*
G75*
G02*
X253312500Y-173118000I0J82000D01*
G01*
X253312500Y-172462000D01*
G75*
G02*
X253394500Y-172380000I82000J0D01*
G01*
X254830500Y-172380000D01*
G75*
G02*
X254912500Y-172462000I0J-82000D01*
G01*
X254912500Y-173118000D01*
G75*
G02*
X254830500Y-173200000I-82000J0D01*
G01*
G37*
G36*
G01*
X254830500Y-174700000D02*
X253394500Y-174700000D01*
G75*
G02*
X253312500Y-174618000I0J82000D01*
G01*
X253312500Y-173962000D01*
G75*
G02*
X253394500Y-173880000I82000J0D01*
G01*
X254830500Y-173880000D01*
G75*
G02*
X254912500Y-173962000I0J-82000D01*
G01*
X254912500Y-174618000D01*
G75*
G02*
X254830500Y-174700000I-82000J0D01*
G01*
G37*
G36*
G01*
X230580500Y-173200000D02*
X229144500Y-173200000D01*
G75*
G02*
X229062500Y-173118000I0J82000D01*
G01*
X229062500Y-172462000D01*
G75*
G02*
X229144500Y-172380000I82000J0D01*
G01*
X230580500Y-172380000D01*
G75*
G02*
X230662500Y-172462000I0J-82000D01*
G01*
X230662500Y-173118000D01*
G75*
G02*
X230580500Y-173200000I-82000J0D01*
G01*
G37*
G36*
G01*
X230580500Y-174700000D02*
X229144500Y-174700000D01*
G75*
G02*
X229062500Y-174618000I0J82000D01*
G01*
X229062500Y-173962000D01*
G75*
G02*
X229144500Y-173880000I82000J0D01*
G01*
X230580500Y-173880000D01*
G75*
G02*
X230662500Y-173962000I0J-82000D01*
G01*
X230662500Y-174618000D01*
G75*
G02*
X230580500Y-174700000I-82000J0D01*
G01*
G37*
G36*
G01*
X235780500Y-173200000D02*
X234344500Y-173200000D01*
G75*
G02*
X234262500Y-173118000I0J82000D01*
G01*
X234262500Y-172462000D01*
G75*
G02*
X234344500Y-172380000I82000J0D01*
G01*
X235780500Y-172380000D01*
G75*
G02*
X235862500Y-172462000I0J-82000D01*
G01*
X235862500Y-173118000D01*
G75*
G02*
X235780500Y-173200000I-82000J0D01*
G01*
G37*
G36*
G01*
X235780500Y-174700000D02*
X234344500Y-174700000D01*
G75*
G02*
X234262500Y-174618000I0J82000D01*
G01*
X234262500Y-173962000D01*
G75*
G02*
X234344500Y-173880000I82000J0D01*
G01*
X235780500Y-173880000D01*
G75*
G02*
X235862500Y-173962000I0J-82000D01*
G01*
X235862500Y-174618000D01*
G75*
G02*
X235780500Y-174700000I-82000J0D01*
G01*
G37*
G36*
G01*
X211530500Y-173200000D02*
X210094500Y-173200000D01*
G75*
G02*
X210012500Y-173118000I0J82000D01*
G01*
X210012500Y-172462000D01*
G75*
G02*
X210094500Y-172380000I82000J0D01*
G01*
X211530500Y-172380000D01*
G75*
G02*
X211612500Y-172462000I0J-82000D01*
G01*
X211612500Y-173118000D01*
G75*
G02*
X211530500Y-173200000I-82000J0D01*
G01*
G37*
G36*
G01*
X211530500Y-174700000D02*
X210094500Y-174700000D01*
G75*
G02*
X210012500Y-174618000I0J82000D01*
G01*
X210012500Y-173962000D01*
G75*
G02*
X210094500Y-173880000I82000J0D01*
G01*
X211530500Y-173880000D01*
G75*
G02*
X211612500Y-173962000I0J-82000D01*
G01*
X211612500Y-174618000D01*
G75*
G02*
X211530500Y-174700000I-82000J0D01*
G01*
G37*
G36*
G01*
X216730500Y-173200000D02*
X215294500Y-173200000D01*
G75*
G02*
X215212500Y-173118000I0J82000D01*
G01*
X215212500Y-172462000D01*
G75*
G02*
X215294500Y-172380000I82000J0D01*
G01*
X216730500Y-172380000D01*
G75*
G02*
X216812500Y-172462000I0J-82000D01*
G01*
X216812500Y-173118000D01*
G75*
G02*
X216730500Y-173200000I-82000J0D01*
G01*
G37*
G36*
G01*
X216730500Y-174700000D02*
X215294500Y-174700000D01*
G75*
G02*
X215212500Y-174618000I0J82000D01*
G01*
X215212500Y-173962000D01*
G75*
G02*
X215294500Y-173880000I82000J0D01*
G01*
X216730500Y-173880000D01*
G75*
G02*
X216812500Y-173962000I0J-82000D01*
G01*
X216812500Y-174618000D01*
G75*
G02*
X216730500Y-174700000I-82000J0D01*
G01*
G37*
G36*
G01*
X192480500Y-173200000D02*
X191044500Y-173200000D01*
G75*
G02*
X190962500Y-173118000I0J82000D01*
G01*
X190962500Y-172462000D01*
G75*
G02*
X191044500Y-172380000I82000J0D01*
G01*
X192480500Y-172380000D01*
G75*
G02*
X192562500Y-172462000I0J-82000D01*
G01*
X192562500Y-173118000D01*
G75*
G02*
X192480500Y-173200000I-82000J0D01*
G01*
G37*
G36*
G01*
X192480500Y-174700000D02*
X191044500Y-174700000D01*
G75*
G02*
X190962500Y-174618000I0J82000D01*
G01*
X190962500Y-173962000D01*
G75*
G02*
X191044500Y-173880000I82000J0D01*
G01*
X192480500Y-173880000D01*
G75*
G02*
X192562500Y-173962000I0J-82000D01*
G01*
X192562500Y-174618000D01*
G75*
G02*
X192480500Y-174700000I-82000J0D01*
G01*
G37*
G36*
G01*
X197680500Y-173200000D02*
X196244500Y-173200000D01*
G75*
G02*
X196162500Y-173118000I0J82000D01*
G01*
X196162500Y-172462000D01*
G75*
G02*
X196244500Y-172380000I82000J0D01*
G01*
X197680500Y-172380000D01*
G75*
G02*
X197762500Y-172462000I0J-82000D01*
G01*
X197762500Y-173118000D01*
G75*
G02*
X197680500Y-173200000I-82000J0D01*
G01*
G37*
G36*
G01*
X197680500Y-174700000D02*
X196244500Y-174700000D01*
G75*
G02*
X196162500Y-174618000I0J82000D01*
G01*
X196162500Y-173962000D01*
G75*
G02*
X196244500Y-173880000I82000J0D01*
G01*
X197680500Y-173880000D01*
G75*
G02*
X197762500Y-173962000I0J-82000D01*
G01*
X197762500Y-174618000D01*
G75*
G02*
X197680500Y-174700000I-82000J0D01*
G01*
G37*
G36*
G01*
X173430500Y-173200000D02*
X171994500Y-173200000D01*
G75*
G02*
X171912500Y-173118000I0J82000D01*
G01*
X171912500Y-172462000D01*
G75*
G02*
X171994500Y-172380000I82000J0D01*
G01*
X173430500Y-172380000D01*
G75*
G02*
X173512500Y-172462000I0J-82000D01*
G01*
X173512500Y-173118000D01*
G75*
G02*
X173430500Y-173200000I-82000J0D01*
G01*
G37*
G36*
G01*
X173430500Y-174700000D02*
X171994500Y-174700000D01*
G75*
G02*
X171912500Y-174618000I0J82000D01*
G01*
X171912500Y-173962000D01*
G75*
G02*
X171994500Y-173880000I82000J0D01*
G01*
X173430500Y-173880000D01*
G75*
G02*
X173512500Y-173962000I0J-82000D01*
G01*
X173512500Y-174618000D01*
G75*
G02*
X173430500Y-174700000I-82000J0D01*
G01*
G37*
G36*
G01*
X178630500Y-173200000D02*
X177194500Y-173200000D01*
G75*
G02*
X177112500Y-173118000I0J82000D01*
G01*
X177112500Y-172462000D01*
G75*
G02*
X177194500Y-172380000I82000J0D01*
G01*
X178630500Y-172380000D01*
G75*
G02*
X178712500Y-172462000I0J-82000D01*
G01*
X178712500Y-173118000D01*
G75*
G02*
X178630500Y-173200000I-82000J0D01*
G01*
G37*
G36*
G01*
X178630500Y-174700000D02*
X177194500Y-174700000D01*
G75*
G02*
X177112500Y-174618000I0J82000D01*
G01*
X177112500Y-173962000D01*
G75*
G02*
X177194500Y-173880000I82000J0D01*
G01*
X178630500Y-173880000D01*
G75*
G02*
X178712500Y-173962000I0J-82000D01*
G01*
X178712500Y-174618000D01*
G75*
G02*
X178630500Y-174700000I-82000J0D01*
G01*
G37*
G36*
G01*
X154380500Y-173200000D02*
X152944500Y-173200000D01*
G75*
G02*
X152862500Y-173118000I0J82000D01*
G01*
X152862500Y-172462000D01*
G75*
G02*
X152944500Y-172380000I82000J0D01*
G01*
X154380500Y-172380000D01*
G75*
G02*
X154462500Y-172462000I0J-82000D01*
G01*
X154462500Y-173118000D01*
G75*
G02*
X154380500Y-173200000I-82000J0D01*
G01*
G37*
G36*
G01*
X154380500Y-174700000D02*
X152944500Y-174700000D01*
G75*
G02*
X152862500Y-174618000I0J82000D01*
G01*
X152862500Y-173962000D01*
G75*
G02*
X152944500Y-173880000I82000J0D01*
G01*
X154380500Y-173880000D01*
G75*
G02*
X154462500Y-173962000I0J-82000D01*
G01*
X154462500Y-174618000D01*
G75*
G02*
X154380500Y-174700000I-82000J0D01*
G01*
G37*
G36*
G01*
X159580500Y-173200000D02*
X158144500Y-173200000D01*
G75*
G02*
X158062500Y-173118000I0J82000D01*
G01*
X158062500Y-172462000D01*
G75*
G02*
X158144500Y-172380000I82000J0D01*
G01*
X159580500Y-172380000D01*
G75*
G02*
X159662500Y-172462000I0J-82000D01*
G01*
X159662500Y-173118000D01*
G75*
G02*
X159580500Y-173200000I-82000J0D01*
G01*
G37*
G36*
G01*
X159580500Y-174700000D02*
X158144500Y-174700000D01*
G75*
G02*
X158062500Y-174618000I0J82000D01*
G01*
X158062500Y-173962000D01*
G75*
G02*
X158144500Y-173880000I82000J0D01*
G01*
X159580500Y-173880000D01*
G75*
G02*
X159662500Y-173962000I0J-82000D01*
G01*
X159662500Y-174618000D01*
G75*
G02*
X159580500Y-174700000I-82000J0D01*
G01*
G37*
G36*
G01*
X135330500Y-173200000D02*
X133894500Y-173200000D01*
G75*
G02*
X133812500Y-173118000I0J82000D01*
G01*
X133812500Y-172462000D01*
G75*
G02*
X133894500Y-172380000I82000J0D01*
G01*
X135330500Y-172380000D01*
G75*
G02*
X135412500Y-172462000I0J-82000D01*
G01*
X135412500Y-173118000D01*
G75*
G02*
X135330500Y-173200000I-82000J0D01*
G01*
G37*
G36*
G01*
X135330500Y-174700000D02*
X133894500Y-174700000D01*
G75*
G02*
X133812500Y-174618000I0J82000D01*
G01*
X133812500Y-173962000D01*
G75*
G02*
X133894500Y-173880000I82000J0D01*
G01*
X135330500Y-173880000D01*
G75*
G02*
X135412500Y-173962000I0J-82000D01*
G01*
X135412500Y-174618000D01*
G75*
G02*
X135330500Y-174700000I-82000J0D01*
G01*
G37*
G36*
G01*
X140530500Y-173200000D02*
X139094500Y-173200000D01*
G75*
G02*
X139012500Y-173118000I0J82000D01*
G01*
X139012500Y-172462000D01*
G75*
G02*
X139094500Y-172380000I82000J0D01*
G01*
X140530500Y-172380000D01*
G75*
G02*
X140612500Y-172462000I0J-82000D01*
G01*
X140612500Y-173118000D01*
G75*
G02*
X140530500Y-173200000I-82000J0D01*
G01*
G37*
G36*
G01*
X140530500Y-174700000D02*
X139094500Y-174700000D01*
G75*
G02*
X139012500Y-174618000I0J82000D01*
G01*
X139012500Y-173962000D01*
G75*
G02*
X139094500Y-173880000I82000J0D01*
G01*
X140530500Y-173880000D01*
G75*
G02*
X140612500Y-173962000I0J-82000D01*
G01*
X140612500Y-174618000D01*
G75*
G02*
X140530500Y-174700000I-82000J0D01*
G01*
G37*
G36*
G01*
X116280500Y-173200000D02*
X114844500Y-173200000D01*
G75*
G02*
X114762500Y-173118000I0J82000D01*
G01*
X114762500Y-172462000D01*
G75*
G02*
X114844500Y-172380000I82000J0D01*
G01*
X116280500Y-172380000D01*
G75*
G02*
X116362500Y-172462000I0J-82000D01*
G01*
X116362500Y-173118000D01*
G75*
G02*
X116280500Y-173200000I-82000J0D01*
G01*
G37*
G36*
G01*
X116280500Y-174700000D02*
X114844500Y-174700000D01*
G75*
G02*
X114762500Y-174618000I0J82000D01*
G01*
X114762500Y-173962000D01*
G75*
G02*
X114844500Y-173880000I82000J0D01*
G01*
X116280500Y-173880000D01*
G75*
G02*
X116362500Y-173962000I0J-82000D01*
G01*
X116362500Y-174618000D01*
G75*
G02*
X116280500Y-174700000I-82000J0D01*
G01*
G37*
G36*
G01*
X121480500Y-173200000D02*
X120044500Y-173200000D01*
G75*
G02*
X119962500Y-173118000I0J82000D01*
G01*
X119962500Y-172462000D01*
G75*
G02*
X120044500Y-172380000I82000J0D01*
G01*
X121480500Y-172380000D01*
G75*
G02*
X121562500Y-172462000I0J-82000D01*
G01*
X121562500Y-173118000D01*
G75*
G02*
X121480500Y-173200000I-82000J0D01*
G01*
G37*
G36*
G01*
X121480500Y-174700000D02*
X120044500Y-174700000D01*
G75*
G02*
X119962500Y-174618000I0J82000D01*
G01*
X119962500Y-173962000D01*
G75*
G02*
X120044500Y-173880000I82000J0D01*
G01*
X121480500Y-173880000D01*
G75*
G02*
X121562500Y-173962000I0J-82000D01*
G01*
X121562500Y-174618000D01*
G75*
G02*
X121480500Y-174700000I-82000J0D01*
G01*
G37*
G36*
G01*
X97230500Y-173200000D02*
X95794500Y-173200000D01*
G75*
G02*
X95712500Y-173118000I0J82000D01*
G01*
X95712500Y-172462000D01*
G75*
G02*
X95794500Y-172380000I82000J0D01*
G01*
X97230500Y-172380000D01*
G75*
G02*
X97312500Y-172462000I0J-82000D01*
G01*
X97312500Y-173118000D01*
G75*
G02*
X97230500Y-173200000I-82000J0D01*
G01*
G37*
G36*
G01*
X97230500Y-174700000D02*
X95794500Y-174700000D01*
G75*
G02*
X95712500Y-174618000I0J82000D01*
G01*
X95712500Y-173962000D01*
G75*
G02*
X95794500Y-173880000I82000J0D01*
G01*
X97230500Y-173880000D01*
G75*
G02*
X97312500Y-173962000I0J-82000D01*
G01*
X97312500Y-174618000D01*
G75*
G02*
X97230500Y-174700000I-82000J0D01*
G01*
G37*
G36*
G01*
X102430500Y-173200000D02*
X100994500Y-173200000D01*
G75*
G02*
X100912500Y-173118000I0J82000D01*
G01*
X100912500Y-172462000D01*
G75*
G02*
X100994500Y-172380000I82000J0D01*
G01*
X102430500Y-172380000D01*
G75*
G02*
X102512500Y-172462000I0J-82000D01*
G01*
X102512500Y-173118000D01*
G75*
G02*
X102430500Y-173200000I-82000J0D01*
G01*
G37*
G36*
G01*
X102430500Y-174700000D02*
X100994500Y-174700000D01*
G75*
G02*
X100912500Y-174618000I0J82000D01*
G01*
X100912500Y-173962000D01*
G75*
G02*
X100994500Y-173880000I82000J0D01*
G01*
X102430500Y-173880000D01*
G75*
G02*
X102512500Y-173962000I0J-82000D01*
G01*
X102512500Y-174618000D01*
G75*
G02*
X102430500Y-174700000I-82000J0D01*
G01*
G37*
G36*
G01*
X78180500Y-173200000D02*
X76744500Y-173200000D01*
G75*
G02*
X76662500Y-173118000I0J82000D01*
G01*
X76662500Y-172462000D01*
G75*
G02*
X76744500Y-172380000I82000J0D01*
G01*
X78180500Y-172380000D01*
G75*
G02*
X78262500Y-172462000I0J-82000D01*
G01*
X78262500Y-173118000D01*
G75*
G02*
X78180500Y-173200000I-82000J0D01*
G01*
G37*
G36*
G01*
X78180500Y-174700000D02*
X76744500Y-174700000D01*
G75*
G02*
X76662500Y-174618000I0J82000D01*
G01*
X76662500Y-173962000D01*
G75*
G02*
X76744500Y-173880000I82000J0D01*
G01*
X78180500Y-173880000D01*
G75*
G02*
X78262500Y-173962000I0J-82000D01*
G01*
X78262500Y-174618000D01*
G75*
G02*
X78180500Y-174700000I-82000J0D01*
G01*
G37*
G36*
G01*
X83380500Y-173200000D02*
X81944500Y-173200000D01*
G75*
G02*
X81862500Y-173118000I0J82000D01*
G01*
X81862500Y-172462000D01*
G75*
G02*
X81944500Y-172380000I82000J0D01*
G01*
X83380500Y-172380000D01*
G75*
G02*
X83462500Y-172462000I0J-82000D01*
G01*
X83462500Y-173118000D01*
G75*
G02*
X83380500Y-173200000I-82000J0D01*
G01*
G37*
G36*
G01*
X83380500Y-174700000D02*
X81944500Y-174700000D01*
G75*
G02*
X81862500Y-174618000I0J82000D01*
G01*
X81862500Y-173962000D01*
G75*
G02*
X81944500Y-173880000I82000J0D01*
G01*
X83380500Y-173880000D01*
G75*
G02*
X83462500Y-173962000I0J-82000D01*
G01*
X83462500Y-174618000D01*
G75*
G02*
X83380500Y-174700000I-82000J0D01*
G01*
G37*
G36*
G01*
X51986750Y-173200000D02*
X50550750Y-173200000D01*
G75*
G02*
X50468750Y-173118000I0J82000D01*
G01*
X50468750Y-172462000D01*
G75*
G02*
X50550750Y-172380000I82000J0D01*
G01*
X51986750Y-172380000D01*
G75*
G02*
X52068750Y-172462000I0J-82000D01*
G01*
X52068750Y-173118000D01*
G75*
G02*
X51986750Y-173200000I-82000J0D01*
G01*
G37*
G36*
G01*
X51986750Y-174700000D02*
X50550750Y-174700000D01*
G75*
G02*
X50468750Y-174618000I0J82000D01*
G01*
X50468750Y-173962000D01*
G75*
G02*
X50550750Y-173880000I82000J0D01*
G01*
X51986750Y-173880000D01*
G75*
G02*
X52068750Y-173962000I0J-82000D01*
G01*
X52068750Y-174618000D01*
G75*
G02*
X51986750Y-174700000I-82000J0D01*
G01*
G37*
G36*
G01*
X57186750Y-173200000D02*
X55750750Y-173200000D01*
G75*
G02*
X55668750Y-173118000I0J82000D01*
G01*
X55668750Y-172462000D01*
G75*
G02*
X55750750Y-172380000I82000J0D01*
G01*
X57186750Y-172380000D01*
G75*
G02*
X57268750Y-172462000I0J-82000D01*
G01*
X57268750Y-173118000D01*
G75*
G02*
X57186750Y-173200000I-82000J0D01*
G01*
G37*
G36*
G01*
X57186750Y-174700000D02*
X55750750Y-174700000D01*
G75*
G02*
X55668750Y-174618000I0J82000D01*
G01*
X55668750Y-173962000D01*
G75*
G02*
X55750750Y-173880000I82000J0D01*
G01*
X57186750Y-173880000D01*
G75*
G02*
X57268750Y-173962000I0J-82000D01*
G01*
X57268750Y-174618000D01*
G75*
G02*
X57186750Y-174700000I-82000J0D01*
G01*
G37*
G36*
G01*
X373455500Y-154150000D02*
X372019500Y-154150000D01*
G75*
G02*
X371937500Y-154068000I0J82000D01*
G01*
X371937500Y-153412000D01*
G75*
G02*
X372019500Y-153330000I82000J0D01*
G01*
X373455500Y-153330000D01*
G75*
G02*
X373537500Y-153412000I0J-82000D01*
G01*
X373537500Y-154068000D01*
G75*
G02*
X373455500Y-154150000I-82000J0D01*
G01*
G37*
G36*
G01*
X373455500Y-155650000D02*
X372019500Y-155650000D01*
G75*
G02*
X371937500Y-155568000I0J82000D01*
G01*
X371937500Y-154912000D01*
G75*
G02*
X372019500Y-154830000I82000J0D01*
G01*
X373455500Y-154830000D01*
G75*
G02*
X373537500Y-154912000I0J-82000D01*
G01*
X373537500Y-155568000D01*
G75*
G02*
X373455500Y-155650000I-82000J0D01*
G01*
G37*
G36*
G01*
X378655500Y-154150000D02*
X377219500Y-154150000D01*
G75*
G02*
X377137500Y-154068000I0J82000D01*
G01*
X377137500Y-153412000D01*
G75*
G02*
X377219500Y-153330000I82000J0D01*
G01*
X378655500Y-153330000D01*
G75*
G02*
X378737500Y-153412000I0J-82000D01*
G01*
X378737500Y-154068000D01*
G75*
G02*
X378655500Y-154150000I-82000J0D01*
G01*
G37*
G36*
G01*
X378655500Y-155650000D02*
X377219500Y-155650000D01*
G75*
G02*
X377137500Y-155568000I0J82000D01*
G01*
X377137500Y-154912000D01*
G75*
G02*
X377219500Y-154830000I82000J0D01*
G01*
X378655500Y-154830000D01*
G75*
G02*
X378737500Y-154912000I0J-82000D01*
G01*
X378737500Y-155568000D01*
G75*
G02*
X378655500Y-155650000I-82000J0D01*
G01*
G37*
G36*
G01*
X354405500Y-154150000D02*
X352969500Y-154150000D01*
G75*
G02*
X352887500Y-154068000I0J82000D01*
G01*
X352887500Y-153412000D01*
G75*
G02*
X352969500Y-153330000I82000J0D01*
G01*
X354405500Y-153330000D01*
G75*
G02*
X354487500Y-153412000I0J-82000D01*
G01*
X354487500Y-154068000D01*
G75*
G02*
X354405500Y-154150000I-82000J0D01*
G01*
G37*
G36*
G01*
X354405500Y-155650000D02*
X352969500Y-155650000D01*
G75*
G02*
X352887500Y-155568000I0J82000D01*
G01*
X352887500Y-154912000D01*
G75*
G02*
X352969500Y-154830000I82000J0D01*
G01*
X354405500Y-154830000D01*
G75*
G02*
X354487500Y-154912000I0J-82000D01*
G01*
X354487500Y-155568000D01*
G75*
G02*
X354405500Y-155650000I-82000J0D01*
G01*
G37*
G36*
G01*
X359605500Y-154150000D02*
X358169500Y-154150000D01*
G75*
G02*
X358087500Y-154068000I0J82000D01*
G01*
X358087500Y-153412000D01*
G75*
G02*
X358169500Y-153330000I82000J0D01*
G01*
X359605500Y-153330000D01*
G75*
G02*
X359687500Y-153412000I0J-82000D01*
G01*
X359687500Y-154068000D01*
G75*
G02*
X359605500Y-154150000I-82000J0D01*
G01*
G37*
G36*
G01*
X359605500Y-155650000D02*
X358169500Y-155650000D01*
G75*
G02*
X358087500Y-155568000I0J82000D01*
G01*
X358087500Y-154912000D01*
G75*
G02*
X358169500Y-154830000I82000J0D01*
G01*
X359605500Y-154830000D01*
G75*
G02*
X359687500Y-154912000I0J-82000D01*
G01*
X359687500Y-155568000D01*
G75*
G02*
X359605500Y-155650000I-82000J0D01*
G01*
G37*
G36*
G01*
X335355500Y-154150000D02*
X333919500Y-154150000D01*
G75*
G02*
X333837500Y-154068000I0J82000D01*
G01*
X333837500Y-153412000D01*
G75*
G02*
X333919500Y-153330000I82000J0D01*
G01*
X335355500Y-153330000D01*
G75*
G02*
X335437500Y-153412000I0J-82000D01*
G01*
X335437500Y-154068000D01*
G75*
G02*
X335355500Y-154150000I-82000J0D01*
G01*
G37*
G36*
G01*
X335355500Y-155650000D02*
X333919500Y-155650000D01*
G75*
G02*
X333837500Y-155568000I0J82000D01*
G01*
X333837500Y-154912000D01*
G75*
G02*
X333919500Y-154830000I82000J0D01*
G01*
X335355500Y-154830000D01*
G75*
G02*
X335437500Y-154912000I0J-82000D01*
G01*
X335437500Y-155568000D01*
G75*
G02*
X335355500Y-155650000I-82000J0D01*
G01*
G37*
G36*
G01*
X340555500Y-154150000D02*
X339119500Y-154150000D01*
G75*
G02*
X339037500Y-154068000I0J82000D01*
G01*
X339037500Y-153412000D01*
G75*
G02*
X339119500Y-153330000I82000J0D01*
G01*
X340555500Y-153330000D01*
G75*
G02*
X340637500Y-153412000I0J-82000D01*
G01*
X340637500Y-154068000D01*
G75*
G02*
X340555500Y-154150000I-82000J0D01*
G01*
G37*
G36*
G01*
X340555500Y-155650000D02*
X339119500Y-155650000D01*
G75*
G02*
X339037500Y-155568000I0J82000D01*
G01*
X339037500Y-154912000D01*
G75*
G02*
X339119500Y-154830000I82000J0D01*
G01*
X340555500Y-154830000D01*
G75*
G02*
X340637500Y-154912000I0J-82000D01*
G01*
X340637500Y-155568000D01*
G75*
G02*
X340555500Y-155650000I-82000J0D01*
G01*
G37*
G36*
G01*
X282968000Y-154150000D02*
X281532000Y-154150000D01*
G75*
G02*
X281450000Y-154068000I0J82000D01*
G01*
X281450000Y-153412000D01*
G75*
G02*
X281532000Y-153330000I82000J0D01*
G01*
X282968000Y-153330000D01*
G75*
G02*
X283050000Y-153412000I0J-82000D01*
G01*
X283050000Y-154068000D01*
G75*
G02*
X282968000Y-154150000I-82000J0D01*
G01*
G37*
G36*
G01*
X282968000Y-155650000D02*
X281532000Y-155650000D01*
G75*
G02*
X281450000Y-155568000I0J82000D01*
G01*
X281450000Y-154912000D01*
G75*
G02*
X281532000Y-154830000I82000J0D01*
G01*
X282968000Y-154830000D01*
G75*
G02*
X283050000Y-154912000I0J-82000D01*
G01*
X283050000Y-155568000D01*
G75*
G02*
X282968000Y-155650000I-82000J0D01*
G01*
G37*
G36*
G01*
X288168000Y-154150000D02*
X286732000Y-154150000D01*
G75*
G02*
X286650000Y-154068000I0J82000D01*
G01*
X286650000Y-153412000D01*
G75*
G02*
X286732000Y-153330000I82000J0D01*
G01*
X288168000Y-153330000D01*
G75*
G02*
X288250000Y-153412000I0J-82000D01*
G01*
X288250000Y-154068000D01*
G75*
G02*
X288168000Y-154150000I-82000J0D01*
G01*
G37*
G36*
G01*
X288168000Y-155650000D02*
X286732000Y-155650000D01*
G75*
G02*
X286650000Y-155568000I0J82000D01*
G01*
X286650000Y-154912000D01*
G75*
G02*
X286732000Y-154830000I82000J0D01*
G01*
X288168000Y-154830000D01*
G75*
G02*
X288250000Y-154912000I0J-82000D01*
G01*
X288250000Y-155568000D01*
G75*
G02*
X288168000Y-155650000I-82000J0D01*
G01*
G37*
G36*
G01*
X263918000Y-154150000D02*
X262482000Y-154150000D01*
G75*
G02*
X262400000Y-154068000I0J82000D01*
G01*
X262400000Y-153412000D01*
G75*
G02*
X262482000Y-153330000I82000J0D01*
G01*
X263918000Y-153330000D01*
G75*
G02*
X264000000Y-153412000I0J-82000D01*
G01*
X264000000Y-154068000D01*
G75*
G02*
X263918000Y-154150000I-82000J0D01*
G01*
G37*
G36*
G01*
X263918000Y-155650000D02*
X262482000Y-155650000D01*
G75*
G02*
X262400000Y-155568000I0J82000D01*
G01*
X262400000Y-154912000D01*
G75*
G02*
X262482000Y-154830000I82000J0D01*
G01*
X263918000Y-154830000D01*
G75*
G02*
X264000000Y-154912000I0J-82000D01*
G01*
X264000000Y-155568000D01*
G75*
G02*
X263918000Y-155650000I-82000J0D01*
G01*
G37*
G36*
G01*
X269118000Y-154150000D02*
X267682000Y-154150000D01*
G75*
G02*
X267600000Y-154068000I0J82000D01*
G01*
X267600000Y-153412000D01*
G75*
G02*
X267682000Y-153330000I82000J0D01*
G01*
X269118000Y-153330000D01*
G75*
G02*
X269200000Y-153412000I0J-82000D01*
G01*
X269200000Y-154068000D01*
G75*
G02*
X269118000Y-154150000I-82000J0D01*
G01*
G37*
G36*
G01*
X269118000Y-155650000D02*
X267682000Y-155650000D01*
G75*
G02*
X267600000Y-155568000I0J82000D01*
G01*
X267600000Y-154912000D01*
G75*
G02*
X267682000Y-154830000I82000J0D01*
G01*
X269118000Y-154830000D01*
G75*
G02*
X269200000Y-154912000I0J-82000D01*
G01*
X269200000Y-155568000D01*
G75*
G02*
X269118000Y-155650000I-82000J0D01*
G01*
G37*
G36*
G01*
X244868000Y-154150000D02*
X243432000Y-154150000D01*
G75*
G02*
X243350000Y-154068000I0J82000D01*
G01*
X243350000Y-153412000D01*
G75*
G02*
X243432000Y-153330000I82000J0D01*
G01*
X244868000Y-153330000D01*
G75*
G02*
X244950000Y-153412000I0J-82000D01*
G01*
X244950000Y-154068000D01*
G75*
G02*
X244868000Y-154150000I-82000J0D01*
G01*
G37*
G36*
G01*
X244868000Y-155650000D02*
X243432000Y-155650000D01*
G75*
G02*
X243350000Y-155568000I0J82000D01*
G01*
X243350000Y-154912000D01*
G75*
G02*
X243432000Y-154830000I82000J0D01*
G01*
X244868000Y-154830000D01*
G75*
G02*
X244950000Y-154912000I0J-82000D01*
G01*
X244950000Y-155568000D01*
G75*
G02*
X244868000Y-155650000I-82000J0D01*
G01*
G37*
G36*
G01*
X250068000Y-154150000D02*
X248632000Y-154150000D01*
G75*
G02*
X248550000Y-154068000I0J82000D01*
G01*
X248550000Y-153412000D01*
G75*
G02*
X248632000Y-153330000I82000J0D01*
G01*
X250068000Y-153330000D01*
G75*
G02*
X250150000Y-153412000I0J-82000D01*
G01*
X250150000Y-154068000D01*
G75*
G02*
X250068000Y-154150000I-82000J0D01*
G01*
G37*
G36*
G01*
X250068000Y-155650000D02*
X248632000Y-155650000D01*
G75*
G02*
X248550000Y-155568000I0J82000D01*
G01*
X248550000Y-154912000D01*
G75*
G02*
X248632000Y-154830000I82000J0D01*
G01*
X250068000Y-154830000D01*
G75*
G02*
X250150000Y-154912000I0J-82000D01*
G01*
X250150000Y-155568000D01*
G75*
G02*
X250068000Y-155650000I-82000J0D01*
G01*
G37*
G36*
G01*
X225818000Y-154150000D02*
X224382000Y-154150000D01*
G75*
G02*
X224300000Y-154068000I0J82000D01*
G01*
X224300000Y-153412000D01*
G75*
G02*
X224382000Y-153330000I82000J0D01*
G01*
X225818000Y-153330000D01*
G75*
G02*
X225900000Y-153412000I0J-82000D01*
G01*
X225900000Y-154068000D01*
G75*
G02*
X225818000Y-154150000I-82000J0D01*
G01*
G37*
G36*
G01*
X225818000Y-155650000D02*
X224382000Y-155650000D01*
G75*
G02*
X224300000Y-155568000I0J82000D01*
G01*
X224300000Y-154912000D01*
G75*
G02*
X224382000Y-154830000I82000J0D01*
G01*
X225818000Y-154830000D01*
G75*
G02*
X225900000Y-154912000I0J-82000D01*
G01*
X225900000Y-155568000D01*
G75*
G02*
X225818000Y-155650000I-82000J0D01*
G01*
G37*
G36*
G01*
X231018000Y-154150000D02*
X229582000Y-154150000D01*
G75*
G02*
X229500000Y-154068000I0J82000D01*
G01*
X229500000Y-153412000D01*
G75*
G02*
X229582000Y-153330000I82000J0D01*
G01*
X231018000Y-153330000D01*
G75*
G02*
X231100000Y-153412000I0J-82000D01*
G01*
X231100000Y-154068000D01*
G75*
G02*
X231018000Y-154150000I-82000J0D01*
G01*
G37*
G36*
G01*
X231018000Y-155650000D02*
X229582000Y-155650000D01*
G75*
G02*
X229500000Y-155568000I0J82000D01*
G01*
X229500000Y-154912000D01*
G75*
G02*
X229582000Y-154830000I82000J0D01*
G01*
X231018000Y-154830000D01*
G75*
G02*
X231100000Y-154912000I0J-82000D01*
G01*
X231100000Y-155568000D01*
G75*
G02*
X231018000Y-155650000I-82000J0D01*
G01*
G37*
G36*
G01*
X206768000Y-154150000D02*
X205332000Y-154150000D01*
G75*
G02*
X205250000Y-154068000I0J82000D01*
G01*
X205250000Y-153412000D01*
G75*
G02*
X205332000Y-153330000I82000J0D01*
G01*
X206768000Y-153330000D01*
G75*
G02*
X206850000Y-153412000I0J-82000D01*
G01*
X206850000Y-154068000D01*
G75*
G02*
X206768000Y-154150000I-82000J0D01*
G01*
G37*
G36*
G01*
X206768000Y-155650000D02*
X205332000Y-155650000D01*
G75*
G02*
X205250000Y-155568000I0J82000D01*
G01*
X205250000Y-154912000D01*
G75*
G02*
X205332000Y-154830000I82000J0D01*
G01*
X206768000Y-154830000D01*
G75*
G02*
X206850000Y-154912000I0J-82000D01*
G01*
X206850000Y-155568000D01*
G75*
G02*
X206768000Y-155650000I-82000J0D01*
G01*
G37*
G36*
G01*
X211968000Y-154150000D02*
X210532000Y-154150000D01*
G75*
G02*
X210450000Y-154068000I0J82000D01*
G01*
X210450000Y-153412000D01*
G75*
G02*
X210532000Y-153330000I82000J0D01*
G01*
X211968000Y-153330000D01*
G75*
G02*
X212050000Y-153412000I0J-82000D01*
G01*
X212050000Y-154068000D01*
G75*
G02*
X211968000Y-154150000I-82000J0D01*
G01*
G37*
G36*
G01*
X211968000Y-155650000D02*
X210532000Y-155650000D01*
G75*
G02*
X210450000Y-155568000I0J82000D01*
G01*
X210450000Y-154912000D01*
G75*
G02*
X210532000Y-154830000I82000J0D01*
G01*
X211968000Y-154830000D01*
G75*
G02*
X212050000Y-154912000I0J-82000D01*
G01*
X212050000Y-155568000D01*
G75*
G02*
X211968000Y-155650000I-82000J0D01*
G01*
G37*
G36*
G01*
X187718000Y-154150000D02*
X186282000Y-154150000D01*
G75*
G02*
X186200000Y-154068000I0J82000D01*
G01*
X186200000Y-153412000D01*
G75*
G02*
X186282000Y-153330000I82000J0D01*
G01*
X187718000Y-153330000D01*
G75*
G02*
X187800000Y-153412000I0J-82000D01*
G01*
X187800000Y-154068000D01*
G75*
G02*
X187718000Y-154150000I-82000J0D01*
G01*
G37*
G36*
G01*
X187718000Y-155650000D02*
X186282000Y-155650000D01*
G75*
G02*
X186200000Y-155568000I0J82000D01*
G01*
X186200000Y-154912000D01*
G75*
G02*
X186282000Y-154830000I82000J0D01*
G01*
X187718000Y-154830000D01*
G75*
G02*
X187800000Y-154912000I0J-82000D01*
G01*
X187800000Y-155568000D01*
G75*
G02*
X187718000Y-155650000I-82000J0D01*
G01*
G37*
G36*
G01*
X192918000Y-154150000D02*
X191482000Y-154150000D01*
G75*
G02*
X191400000Y-154068000I0J82000D01*
G01*
X191400000Y-153412000D01*
G75*
G02*
X191482000Y-153330000I82000J0D01*
G01*
X192918000Y-153330000D01*
G75*
G02*
X193000000Y-153412000I0J-82000D01*
G01*
X193000000Y-154068000D01*
G75*
G02*
X192918000Y-154150000I-82000J0D01*
G01*
G37*
G36*
G01*
X192918000Y-155650000D02*
X191482000Y-155650000D01*
G75*
G02*
X191400000Y-155568000I0J82000D01*
G01*
X191400000Y-154912000D01*
G75*
G02*
X191482000Y-154830000I82000J0D01*
G01*
X192918000Y-154830000D01*
G75*
G02*
X193000000Y-154912000I0J-82000D01*
G01*
X193000000Y-155568000D01*
G75*
G02*
X192918000Y-155650000I-82000J0D01*
G01*
G37*
G36*
G01*
X168668000Y-154150000D02*
X167232000Y-154150000D01*
G75*
G02*
X167150000Y-154068000I0J82000D01*
G01*
X167150000Y-153412000D01*
G75*
G02*
X167232000Y-153330000I82000J0D01*
G01*
X168668000Y-153330000D01*
G75*
G02*
X168750000Y-153412000I0J-82000D01*
G01*
X168750000Y-154068000D01*
G75*
G02*
X168668000Y-154150000I-82000J0D01*
G01*
G37*
G36*
G01*
X168668000Y-155650000D02*
X167232000Y-155650000D01*
G75*
G02*
X167150000Y-155568000I0J82000D01*
G01*
X167150000Y-154912000D01*
G75*
G02*
X167232000Y-154830000I82000J0D01*
G01*
X168668000Y-154830000D01*
G75*
G02*
X168750000Y-154912000I0J-82000D01*
G01*
X168750000Y-155568000D01*
G75*
G02*
X168668000Y-155650000I-82000J0D01*
G01*
G37*
G36*
G01*
X173868000Y-154150000D02*
X172432000Y-154150000D01*
G75*
G02*
X172350000Y-154068000I0J82000D01*
G01*
X172350000Y-153412000D01*
G75*
G02*
X172432000Y-153330000I82000J0D01*
G01*
X173868000Y-153330000D01*
G75*
G02*
X173950000Y-153412000I0J-82000D01*
G01*
X173950000Y-154068000D01*
G75*
G02*
X173868000Y-154150000I-82000J0D01*
G01*
G37*
G36*
G01*
X173868000Y-155650000D02*
X172432000Y-155650000D01*
G75*
G02*
X172350000Y-155568000I0J82000D01*
G01*
X172350000Y-154912000D01*
G75*
G02*
X172432000Y-154830000I82000J0D01*
G01*
X173868000Y-154830000D01*
G75*
G02*
X173950000Y-154912000I0J-82000D01*
G01*
X173950000Y-155568000D01*
G75*
G02*
X173868000Y-155650000I-82000J0D01*
G01*
G37*
G36*
G01*
X149618000Y-154150000D02*
X148182000Y-154150000D01*
G75*
G02*
X148100000Y-154068000I0J82000D01*
G01*
X148100000Y-153412000D01*
G75*
G02*
X148182000Y-153330000I82000J0D01*
G01*
X149618000Y-153330000D01*
G75*
G02*
X149700000Y-153412000I0J-82000D01*
G01*
X149700000Y-154068000D01*
G75*
G02*
X149618000Y-154150000I-82000J0D01*
G01*
G37*
G36*
G01*
X149618000Y-155650000D02*
X148182000Y-155650000D01*
G75*
G02*
X148100000Y-155568000I0J82000D01*
G01*
X148100000Y-154912000D01*
G75*
G02*
X148182000Y-154830000I82000J0D01*
G01*
X149618000Y-154830000D01*
G75*
G02*
X149700000Y-154912000I0J-82000D01*
G01*
X149700000Y-155568000D01*
G75*
G02*
X149618000Y-155650000I-82000J0D01*
G01*
G37*
G36*
G01*
X154818000Y-154150000D02*
X153382000Y-154150000D01*
G75*
G02*
X153300000Y-154068000I0J82000D01*
G01*
X153300000Y-153412000D01*
G75*
G02*
X153382000Y-153330000I82000J0D01*
G01*
X154818000Y-153330000D01*
G75*
G02*
X154900000Y-153412000I0J-82000D01*
G01*
X154900000Y-154068000D01*
G75*
G02*
X154818000Y-154150000I-82000J0D01*
G01*
G37*
G36*
G01*
X154818000Y-155650000D02*
X153382000Y-155650000D01*
G75*
G02*
X153300000Y-155568000I0J82000D01*
G01*
X153300000Y-154912000D01*
G75*
G02*
X153382000Y-154830000I82000J0D01*
G01*
X154818000Y-154830000D01*
G75*
G02*
X154900000Y-154912000I0J-82000D01*
G01*
X154900000Y-155568000D01*
G75*
G02*
X154818000Y-155650000I-82000J0D01*
G01*
G37*
G36*
G01*
X130568000Y-154150000D02*
X129132000Y-154150000D01*
G75*
G02*
X129050000Y-154068000I0J82000D01*
G01*
X129050000Y-153412000D01*
G75*
G02*
X129132000Y-153330000I82000J0D01*
G01*
X130568000Y-153330000D01*
G75*
G02*
X130650000Y-153412000I0J-82000D01*
G01*
X130650000Y-154068000D01*
G75*
G02*
X130568000Y-154150000I-82000J0D01*
G01*
G37*
G36*
G01*
X130568000Y-155650000D02*
X129132000Y-155650000D01*
G75*
G02*
X129050000Y-155568000I0J82000D01*
G01*
X129050000Y-154912000D01*
G75*
G02*
X129132000Y-154830000I82000J0D01*
G01*
X130568000Y-154830000D01*
G75*
G02*
X130650000Y-154912000I0J-82000D01*
G01*
X130650000Y-155568000D01*
G75*
G02*
X130568000Y-155650000I-82000J0D01*
G01*
G37*
G36*
G01*
X135768000Y-154150000D02*
X134332000Y-154150000D01*
G75*
G02*
X134250000Y-154068000I0J82000D01*
G01*
X134250000Y-153412000D01*
G75*
G02*
X134332000Y-153330000I82000J0D01*
G01*
X135768000Y-153330000D01*
G75*
G02*
X135850000Y-153412000I0J-82000D01*
G01*
X135850000Y-154068000D01*
G75*
G02*
X135768000Y-154150000I-82000J0D01*
G01*
G37*
G36*
G01*
X135768000Y-155650000D02*
X134332000Y-155650000D01*
G75*
G02*
X134250000Y-155568000I0J82000D01*
G01*
X134250000Y-154912000D01*
G75*
G02*
X134332000Y-154830000I82000J0D01*
G01*
X135768000Y-154830000D01*
G75*
G02*
X135850000Y-154912000I0J-82000D01*
G01*
X135850000Y-155568000D01*
G75*
G02*
X135768000Y-155650000I-82000J0D01*
G01*
G37*
G36*
G01*
X111518000Y-154150000D02*
X110082000Y-154150000D01*
G75*
G02*
X110000000Y-154068000I0J82000D01*
G01*
X110000000Y-153412000D01*
G75*
G02*
X110082000Y-153330000I82000J0D01*
G01*
X111518000Y-153330000D01*
G75*
G02*
X111600000Y-153412000I0J-82000D01*
G01*
X111600000Y-154068000D01*
G75*
G02*
X111518000Y-154150000I-82000J0D01*
G01*
G37*
G36*
G01*
X111518000Y-155650000D02*
X110082000Y-155650000D01*
G75*
G02*
X110000000Y-155568000I0J82000D01*
G01*
X110000000Y-154912000D01*
G75*
G02*
X110082000Y-154830000I82000J0D01*
G01*
X111518000Y-154830000D01*
G75*
G02*
X111600000Y-154912000I0J-82000D01*
G01*
X111600000Y-155568000D01*
G75*
G02*
X111518000Y-155650000I-82000J0D01*
G01*
G37*
G36*
G01*
X116718000Y-154150000D02*
X115282000Y-154150000D01*
G75*
G02*
X115200000Y-154068000I0J82000D01*
G01*
X115200000Y-153412000D01*
G75*
G02*
X115282000Y-153330000I82000J0D01*
G01*
X116718000Y-153330000D01*
G75*
G02*
X116800000Y-153412000I0J-82000D01*
G01*
X116800000Y-154068000D01*
G75*
G02*
X116718000Y-154150000I-82000J0D01*
G01*
G37*
G36*
G01*
X116718000Y-155650000D02*
X115282000Y-155650000D01*
G75*
G02*
X115200000Y-155568000I0J82000D01*
G01*
X115200000Y-154912000D01*
G75*
G02*
X115282000Y-154830000I82000J0D01*
G01*
X116718000Y-154830000D01*
G75*
G02*
X116800000Y-154912000I0J-82000D01*
G01*
X116800000Y-155568000D01*
G75*
G02*
X116718000Y-155650000I-82000J0D01*
G01*
G37*
G36*
G01*
X92468000Y-154150000D02*
X91032000Y-154150000D01*
G75*
G02*
X90950000Y-154068000I0J82000D01*
G01*
X90950000Y-153412000D01*
G75*
G02*
X91032000Y-153330000I82000J0D01*
G01*
X92468000Y-153330000D01*
G75*
G02*
X92550000Y-153412000I0J-82000D01*
G01*
X92550000Y-154068000D01*
G75*
G02*
X92468000Y-154150000I-82000J0D01*
G01*
G37*
G36*
G01*
X92468000Y-155650000D02*
X91032000Y-155650000D01*
G75*
G02*
X90950000Y-155568000I0J82000D01*
G01*
X90950000Y-154912000D01*
G75*
G02*
X91032000Y-154830000I82000J0D01*
G01*
X92468000Y-154830000D01*
G75*
G02*
X92550000Y-154912000I0J-82000D01*
G01*
X92550000Y-155568000D01*
G75*
G02*
X92468000Y-155650000I-82000J0D01*
G01*
G37*
G36*
G01*
X97668000Y-154150000D02*
X96232000Y-154150000D01*
G75*
G02*
X96150000Y-154068000I0J82000D01*
G01*
X96150000Y-153412000D01*
G75*
G02*
X96232000Y-153330000I82000J0D01*
G01*
X97668000Y-153330000D01*
G75*
G02*
X97750000Y-153412000I0J-82000D01*
G01*
X97750000Y-154068000D01*
G75*
G02*
X97668000Y-154150000I-82000J0D01*
G01*
G37*
G36*
G01*
X97668000Y-155650000D02*
X96232000Y-155650000D01*
G75*
G02*
X96150000Y-155568000I0J82000D01*
G01*
X96150000Y-154912000D01*
G75*
G02*
X96232000Y-154830000I82000J0D01*
G01*
X97668000Y-154830000D01*
G75*
G02*
X97750000Y-154912000I0J-82000D01*
G01*
X97750000Y-155568000D01*
G75*
G02*
X97668000Y-155650000I-82000J0D01*
G01*
G37*
G36*
G01*
X73418000Y-154150000D02*
X71982000Y-154150000D01*
G75*
G02*
X71900000Y-154068000I0J82000D01*
G01*
X71900000Y-153412000D01*
G75*
G02*
X71982000Y-153330000I82000J0D01*
G01*
X73418000Y-153330000D01*
G75*
G02*
X73500000Y-153412000I0J-82000D01*
G01*
X73500000Y-154068000D01*
G75*
G02*
X73418000Y-154150000I-82000J0D01*
G01*
G37*
G36*
G01*
X73418000Y-155650000D02*
X71982000Y-155650000D01*
G75*
G02*
X71900000Y-155568000I0J82000D01*
G01*
X71900000Y-154912000D01*
G75*
G02*
X71982000Y-154830000I82000J0D01*
G01*
X73418000Y-154830000D01*
G75*
G02*
X73500000Y-154912000I0J-82000D01*
G01*
X73500000Y-155568000D01*
G75*
G02*
X73418000Y-155650000I-82000J0D01*
G01*
G37*
G36*
G01*
X78618000Y-154150000D02*
X77182000Y-154150000D01*
G75*
G02*
X77100000Y-154068000I0J82000D01*
G01*
X77100000Y-153412000D01*
G75*
G02*
X77182000Y-153330000I82000J0D01*
G01*
X78618000Y-153330000D01*
G75*
G02*
X78700000Y-153412000I0J-82000D01*
G01*
X78700000Y-154068000D01*
G75*
G02*
X78618000Y-154150000I-82000J0D01*
G01*
G37*
G36*
G01*
X78618000Y-155650000D02*
X77182000Y-155650000D01*
G75*
G02*
X77100000Y-155568000I0J82000D01*
G01*
X77100000Y-154912000D01*
G75*
G02*
X77182000Y-154830000I82000J0D01*
G01*
X78618000Y-154830000D01*
G75*
G02*
X78700000Y-154912000I0J-82000D01*
G01*
X78700000Y-155568000D01*
G75*
G02*
X78618000Y-155650000I-82000J0D01*
G01*
G37*
G36*
G01*
X49605500Y-154150000D02*
X48169500Y-154150000D01*
G75*
G02*
X48087500Y-154068000I0J82000D01*
G01*
X48087500Y-153412000D01*
G75*
G02*
X48169500Y-153330000I82000J0D01*
G01*
X49605500Y-153330000D01*
G75*
G02*
X49687500Y-153412000I0J-82000D01*
G01*
X49687500Y-154068000D01*
G75*
G02*
X49605500Y-154150000I-82000J0D01*
G01*
G37*
G36*
G01*
X49605500Y-155650000D02*
X48169500Y-155650000D01*
G75*
G02*
X48087500Y-155568000I0J82000D01*
G01*
X48087500Y-154912000D01*
G75*
G02*
X48169500Y-154830000I82000J0D01*
G01*
X49605500Y-154830000D01*
G75*
G02*
X49687500Y-154912000I0J-82000D01*
G01*
X49687500Y-155568000D01*
G75*
G02*
X49605500Y-155650000I-82000J0D01*
G01*
G37*
G36*
G01*
X54805500Y-154150000D02*
X53369500Y-154150000D01*
G75*
G02*
X53287500Y-154068000I0J82000D01*
G01*
X53287500Y-153412000D01*
G75*
G02*
X53369500Y-153330000I82000J0D01*
G01*
X54805500Y-153330000D01*
G75*
G02*
X54887500Y-153412000I0J-82000D01*
G01*
X54887500Y-154068000D01*
G75*
G02*
X54805500Y-154150000I-82000J0D01*
G01*
G37*
G36*
G01*
X54805500Y-155650000D02*
X53369500Y-155650000D01*
G75*
G02*
X53287500Y-155568000I0J82000D01*
G01*
X53287500Y-154912000D01*
G75*
G02*
X53369500Y-154830000I82000J0D01*
G01*
X54805500Y-154830000D01*
G75*
G02*
X54887500Y-154912000I0J-82000D01*
G01*
X54887500Y-155568000D01*
G75*
G02*
X54805500Y-155650000I-82000J0D01*
G01*
G37*
G36*
G01*
X373455500Y-135100000D02*
X372019500Y-135100000D01*
G75*
G02*
X371937500Y-135018000I0J82000D01*
G01*
X371937500Y-134362000D01*
G75*
G02*
X372019500Y-134280000I82000J0D01*
G01*
X373455500Y-134280000D01*
G75*
G02*
X373537500Y-134362000I0J-82000D01*
G01*
X373537500Y-135018000D01*
G75*
G02*
X373455500Y-135100000I-82000J0D01*
G01*
G37*
G36*
G01*
X373455500Y-136600000D02*
X372019500Y-136600000D01*
G75*
G02*
X371937500Y-136518000I0J82000D01*
G01*
X371937500Y-135862000D01*
G75*
G02*
X372019500Y-135780000I82000J0D01*
G01*
X373455500Y-135780000D01*
G75*
G02*
X373537500Y-135862000I0J-82000D01*
G01*
X373537500Y-136518000D01*
G75*
G02*
X373455500Y-136600000I-82000J0D01*
G01*
G37*
G36*
G01*
X378655500Y-135100000D02*
X377219500Y-135100000D01*
G75*
G02*
X377137500Y-135018000I0J82000D01*
G01*
X377137500Y-134362000D01*
G75*
G02*
X377219500Y-134280000I82000J0D01*
G01*
X378655500Y-134280000D01*
G75*
G02*
X378737500Y-134362000I0J-82000D01*
G01*
X378737500Y-135018000D01*
G75*
G02*
X378655500Y-135100000I-82000J0D01*
G01*
G37*
G36*
G01*
X378655500Y-136600000D02*
X377219500Y-136600000D01*
G75*
G02*
X377137500Y-136518000I0J82000D01*
G01*
X377137500Y-135862000D01*
G75*
G02*
X377219500Y-135780000I82000J0D01*
G01*
X378655500Y-135780000D01*
G75*
G02*
X378737500Y-135862000I0J-82000D01*
G01*
X378737500Y-136518000D01*
G75*
G02*
X378655500Y-136600000I-82000J0D01*
G01*
G37*
G36*
G01*
X354405500Y-135100000D02*
X352969500Y-135100000D01*
G75*
G02*
X352887500Y-135018000I0J82000D01*
G01*
X352887500Y-134362000D01*
G75*
G02*
X352969500Y-134280000I82000J0D01*
G01*
X354405500Y-134280000D01*
G75*
G02*
X354487500Y-134362000I0J-82000D01*
G01*
X354487500Y-135018000D01*
G75*
G02*
X354405500Y-135100000I-82000J0D01*
G01*
G37*
G36*
G01*
X354405500Y-136600000D02*
X352969500Y-136600000D01*
G75*
G02*
X352887500Y-136518000I0J82000D01*
G01*
X352887500Y-135862000D01*
G75*
G02*
X352969500Y-135780000I82000J0D01*
G01*
X354405500Y-135780000D01*
G75*
G02*
X354487500Y-135862000I0J-82000D01*
G01*
X354487500Y-136518000D01*
G75*
G02*
X354405500Y-136600000I-82000J0D01*
G01*
G37*
G36*
G01*
X359605500Y-135100000D02*
X358169500Y-135100000D01*
G75*
G02*
X358087500Y-135018000I0J82000D01*
G01*
X358087500Y-134362000D01*
G75*
G02*
X358169500Y-134280000I82000J0D01*
G01*
X359605500Y-134280000D01*
G75*
G02*
X359687500Y-134362000I0J-82000D01*
G01*
X359687500Y-135018000D01*
G75*
G02*
X359605500Y-135100000I-82000J0D01*
G01*
G37*
G36*
G01*
X359605500Y-136600000D02*
X358169500Y-136600000D01*
G75*
G02*
X358087500Y-136518000I0J82000D01*
G01*
X358087500Y-135862000D01*
G75*
G02*
X358169500Y-135780000I82000J0D01*
G01*
X359605500Y-135780000D01*
G75*
G02*
X359687500Y-135862000I0J-82000D01*
G01*
X359687500Y-136518000D01*
G75*
G02*
X359605500Y-136600000I-82000J0D01*
G01*
G37*
G36*
G01*
X335355500Y-135100000D02*
X333919500Y-135100000D01*
G75*
G02*
X333837500Y-135018000I0J82000D01*
G01*
X333837500Y-134362000D01*
G75*
G02*
X333919500Y-134280000I82000J0D01*
G01*
X335355500Y-134280000D01*
G75*
G02*
X335437500Y-134362000I0J-82000D01*
G01*
X335437500Y-135018000D01*
G75*
G02*
X335355500Y-135100000I-82000J0D01*
G01*
G37*
G36*
G01*
X335355500Y-136600000D02*
X333919500Y-136600000D01*
G75*
G02*
X333837500Y-136518000I0J82000D01*
G01*
X333837500Y-135862000D01*
G75*
G02*
X333919500Y-135780000I82000J0D01*
G01*
X335355500Y-135780000D01*
G75*
G02*
X335437500Y-135862000I0J-82000D01*
G01*
X335437500Y-136518000D01*
G75*
G02*
X335355500Y-136600000I-82000J0D01*
G01*
G37*
G36*
G01*
X340555500Y-135100000D02*
X339119500Y-135100000D01*
G75*
G02*
X339037500Y-135018000I0J82000D01*
G01*
X339037500Y-134362000D01*
G75*
G02*
X339119500Y-134280000I82000J0D01*
G01*
X340555500Y-134280000D01*
G75*
G02*
X340637500Y-134362000I0J-82000D01*
G01*
X340637500Y-135018000D01*
G75*
G02*
X340555500Y-135100000I-82000J0D01*
G01*
G37*
G36*
G01*
X340555500Y-136600000D02*
X339119500Y-136600000D01*
G75*
G02*
X339037500Y-136518000I0J82000D01*
G01*
X339037500Y-135862000D01*
G75*
G02*
X339119500Y-135780000I82000J0D01*
G01*
X340555500Y-135780000D01*
G75*
G02*
X340637500Y-135862000I0J-82000D01*
G01*
X340637500Y-136518000D01*
G75*
G02*
X340555500Y-136600000I-82000J0D01*
G01*
G37*
G36*
G01*
X302018000Y-135100000D02*
X300582000Y-135100000D01*
G75*
G02*
X300500000Y-135018000I0J82000D01*
G01*
X300500000Y-134362000D01*
G75*
G02*
X300582000Y-134280000I82000J0D01*
G01*
X302018000Y-134280000D01*
G75*
G02*
X302100000Y-134362000I0J-82000D01*
G01*
X302100000Y-135018000D01*
G75*
G02*
X302018000Y-135100000I-82000J0D01*
G01*
G37*
G36*
G01*
X302018000Y-136600000D02*
X300582000Y-136600000D01*
G75*
G02*
X300500000Y-136518000I0J82000D01*
G01*
X300500000Y-135862000D01*
G75*
G02*
X300582000Y-135780000I82000J0D01*
G01*
X302018000Y-135780000D01*
G75*
G02*
X302100000Y-135862000I0J-82000D01*
G01*
X302100000Y-136518000D01*
G75*
G02*
X302018000Y-136600000I-82000J0D01*
G01*
G37*
G36*
G01*
X307218000Y-135100000D02*
X305782000Y-135100000D01*
G75*
G02*
X305700000Y-135018000I0J82000D01*
G01*
X305700000Y-134362000D01*
G75*
G02*
X305782000Y-134280000I82000J0D01*
G01*
X307218000Y-134280000D01*
G75*
G02*
X307300000Y-134362000I0J-82000D01*
G01*
X307300000Y-135018000D01*
G75*
G02*
X307218000Y-135100000I-82000J0D01*
G01*
G37*
G36*
G01*
X307218000Y-136600000D02*
X305782000Y-136600000D01*
G75*
G02*
X305700000Y-136518000I0J82000D01*
G01*
X305700000Y-135862000D01*
G75*
G02*
X305782000Y-135780000I82000J0D01*
G01*
X307218000Y-135780000D01*
G75*
G02*
X307300000Y-135862000I0J-82000D01*
G01*
X307300000Y-136518000D01*
G75*
G02*
X307218000Y-136600000I-82000J0D01*
G01*
G37*
G36*
G01*
X273443000Y-135100000D02*
X272007000Y-135100000D01*
G75*
G02*
X271925000Y-135018000I0J82000D01*
G01*
X271925000Y-134362000D01*
G75*
G02*
X272007000Y-134280000I82000J0D01*
G01*
X273443000Y-134280000D01*
G75*
G02*
X273525000Y-134362000I0J-82000D01*
G01*
X273525000Y-135018000D01*
G75*
G02*
X273443000Y-135100000I-82000J0D01*
G01*
G37*
G36*
G01*
X273443000Y-136600000D02*
X272007000Y-136600000D01*
G75*
G02*
X271925000Y-136518000I0J82000D01*
G01*
X271925000Y-135862000D01*
G75*
G02*
X272007000Y-135780000I82000J0D01*
G01*
X273443000Y-135780000D01*
G75*
G02*
X273525000Y-135862000I0J-82000D01*
G01*
X273525000Y-136518000D01*
G75*
G02*
X273443000Y-136600000I-82000J0D01*
G01*
G37*
G36*
G01*
X278643000Y-135100000D02*
X277207000Y-135100000D01*
G75*
G02*
X277125000Y-135018000I0J82000D01*
G01*
X277125000Y-134362000D01*
G75*
G02*
X277207000Y-134280000I82000J0D01*
G01*
X278643000Y-134280000D01*
G75*
G02*
X278725000Y-134362000I0J-82000D01*
G01*
X278725000Y-135018000D01*
G75*
G02*
X278643000Y-135100000I-82000J0D01*
G01*
G37*
G36*
G01*
X278643000Y-136600000D02*
X277207000Y-136600000D01*
G75*
G02*
X277125000Y-136518000I0J82000D01*
G01*
X277125000Y-135862000D01*
G75*
G02*
X277207000Y-135780000I82000J0D01*
G01*
X278643000Y-135780000D01*
G75*
G02*
X278725000Y-135862000I0J-82000D01*
G01*
X278725000Y-136518000D01*
G75*
G02*
X278643000Y-136600000I-82000J0D01*
G01*
G37*
G36*
G01*
X254393000Y-135100000D02*
X252957000Y-135100000D01*
G75*
G02*
X252875000Y-135018000I0J82000D01*
G01*
X252875000Y-134362000D01*
G75*
G02*
X252957000Y-134280000I82000J0D01*
G01*
X254393000Y-134280000D01*
G75*
G02*
X254475000Y-134362000I0J-82000D01*
G01*
X254475000Y-135018000D01*
G75*
G02*
X254393000Y-135100000I-82000J0D01*
G01*
G37*
G36*
G01*
X254393000Y-136600000D02*
X252957000Y-136600000D01*
G75*
G02*
X252875000Y-136518000I0J82000D01*
G01*
X252875000Y-135862000D01*
G75*
G02*
X252957000Y-135780000I82000J0D01*
G01*
X254393000Y-135780000D01*
G75*
G02*
X254475000Y-135862000I0J-82000D01*
G01*
X254475000Y-136518000D01*
G75*
G02*
X254393000Y-136600000I-82000J0D01*
G01*
G37*
G36*
G01*
X259593000Y-135100000D02*
X258157000Y-135100000D01*
G75*
G02*
X258075000Y-135018000I0J82000D01*
G01*
X258075000Y-134362000D01*
G75*
G02*
X258157000Y-134280000I82000J0D01*
G01*
X259593000Y-134280000D01*
G75*
G02*
X259675000Y-134362000I0J-82000D01*
G01*
X259675000Y-135018000D01*
G75*
G02*
X259593000Y-135100000I-82000J0D01*
G01*
G37*
G36*
G01*
X259593000Y-136600000D02*
X258157000Y-136600000D01*
G75*
G02*
X258075000Y-136518000I0J82000D01*
G01*
X258075000Y-135862000D01*
G75*
G02*
X258157000Y-135780000I82000J0D01*
G01*
X259593000Y-135780000D01*
G75*
G02*
X259675000Y-135862000I0J-82000D01*
G01*
X259675000Y-136518000D01*
G75*
G02*
X259593000Y-136600000I-82000J0D01*
G01*
G37*
G36*
G01*
X235343000Y-135100000D02*
X233907000Y-135100000D01*
G75*
G02*
X233825000Y-135018000I0J82000D01*
G01*
X233825000Y-134362000D01*
G75*
G02*
X233907000Y-134280000I82000J0D01*
G01*
X235343000Y-134280000D01*
G75*
G02*
X235425000Y-134362000I0J-82000D01*
G01*
X235425000Y-135018000D01*
G75*
G02*
X235343000Y-135100000I-82000J0D01*
G01*
G37*
G36*
G01*
X235343000Y-136600000D02*
X233907000Y-136600000D01*
G75*
G02*
X233825000Y-136518000I0J82000D01*
G01*
X233825000Y-135862000D01*
G75*
G02*
X233907000Y-135780000I82000J0D01*
G01*
X235343000Y-135780000D01*
G75*
G02*
X235425000Y-135862000I0J-82000D01*
G01*
X235425000Y-136518000D01*
G75*
G02*
X235343000Y-136600000I-82000J0D01*
G01*
G37*
G36*
G01*
X240543000Y-135100000D02*
X239107000Y-135100000D01*
G75*
G02*
X239025000Y-135018000I0J82000D01*
G01*
X239025000Y-134362000D01*
G75*
G02*
X239107000Y-134280000I82000J0D01*
G01*
X240543000Y-134280000D01*
G75*
G02*
X240625000Y-134362000I0J-82000D01*
G01*
X240625000Y-135018000D01*
G75*
G02*
X240543000Y-135100000I-82000J0D01*
G01*
G37*
G36*
G01*
X240543000Y-136600000D02*
X239107000Y-136600000D01*
G75*
G02*
X239025000Y-136518000I0J82000D01*
G01*
X239025000Y-135862000D01*
G75*
G02*
X239107000Y-135780000I82000J0D01*
G01*
X240543000Y-135780000D01*
G75*
G02*
X240625000Y-135862000I0J-82000D01*
G01*
X240625000Y-136518000D01*
G75*
G02*
X240543000Y-136600000I-82000J0D01*
G01*
G37*
G36*
G01*
X216293000Y-135100000D02*
X214857000Y-135100000D01*
G75*
G02*
X214775000Y-135018000I0J82000D01*
G01*
X214775000Y-134362000D01*
G75*
G02*
X214857000Y-134280000I82000J0D01*
G01*
X216293000Y-134280000D01*
G75*
G02*
X216375000Y-134362000I0J-82000D01*
G01*
X216375000Y-135018000D01*
G75*
G02*
X216293000Y-135100000I-82000J0D01*
G01*
G37*
G36*
G01*
X216293000Y-136600000D02*
X214857000Y-136600000D01*
G75*
G02*
X214775000Y-136518000I0J82000D01*
G01*
X214775000Y-135862000D01*
G75*
G02*
X214857000Y-135780000I82000J0D01*
G01*
X216293000Y-135780000D01*
G75*
G02*
X216375000Y-135862000I0J-82000D01*
G01*
X216375000Y-136518000D01*
G75*
G02*
X216293000Y-136600000I-82000J0D01*
G01*
G37*
G36*
G01*
X221493000Y-135100000D02*
X220057000Y-135100000D01*
G75*
G02*
X219975000Y-135018000I0J82000D01*
G01*
X219975000Y-134362000D01*
G75*
G02*
X220057000Y-134280000I82000J0D01*
G01*
X221493000Y-134280000D01*
G75*
G02*
X221575000Y-134362000I0J-82000D01*
G01*
X221575000Y-135018000D01*
G75*
G02*
X221493000Y-135100000I-82000J0D01*
G01*
G37*
G36*
G01*
X221493000Y-136600000D02*
X220057000Y-136600000D01*
G75*
G02*
X219975000Y-136518000I0J82000D01*
G01*
X219975000Y-135862000D01*
G75*
G02*
X220057000Y-135780000I82000J0D01*
G01*
X221493000Y-135780000D01*
G75*
G02*
X221575000Y-135862000I0J-82000D01*
G01*
X221575000Y-136518000D01*
G75*
G02*
X221493000Y-136600000I-82000J0D01*
G01*
G37*
G36*
G01*
X197243000Y-135100000D02*
X195807000Y-135100000D01*
G75*
G02*
X195725000Y-135018000I0J82000D01*
G01*
X195725000Y-134362000D01*
G75*
G02*
X195807000Y-134280000I82000J0D01*
G01*
X197243000Y-134280000D01*
G75*
G02*
X197325000Y-134362000I0J-82000D01*
G01*
X197325000Y-135018000D01*
G75*
G02*
X197243000Y-135100000I-82000J0D01*
G01*
G37*
G36*
G01*
X197243000Y-136600000D02*
X195807000Y-136600000D01*
G75*
G02*
X195725000Y-136518000I0J82000D01*
G01*
X195725000Y-135862000D01*
G75*
G02*
X195807000Y-135780000I82000J0D01*
G01*
X197243000Y-135780000D01*
G75*
G02*
X197325000Y-135862000I0J-82000D01*
G01*
X197325000Y-136518000D01*
G75*
G02*
X197243000Y-136600000I-82000J0D01*
G01*
G37*
G36*
G01*
X202443000Y-135100000D02*
X201007000Y-135100000D01*
G75*
G02*
X200925000Y-135018000I0J82000D01*
G01*
X200925000Y-134362000D01*
G75*
G02*
X201007000Y-134280000I82000J0D01*
G01*
X202443000Y-134280000D01*
G75*
G02*
X202525000Y-134362000I0J-82000D01*
G01*
X202525000Y-135018000D01*
G75*
G02*
X202443000Y-135100000I-82000J0D01*
G01*
G37*
G36*
G01*
X202443000Y-136600000D02*
X201007000Y-136600000D01*
G75*
G02*
X200925000Y-136518000I0J82000D01*
G01*
X200925000Y-135862000D01*
G75*
G02*
X201007000Y-135780000I82000J0D01*
G01*
X202443000Y-135780000D01*
G75*
G02*
X202525000Y-135862000I0J-82000D01*
G01*
X202525000Y-136518000D01*
G75*
G02*
X202443000Y-136600000I-82000J0D01*
G01*
G37*
G36*
G01*
X178193000Y-135100000D02*
X176757000Y-135100000D01*
G75*
G02*
X176675000Y-135018000I0J82000D01*
G01*
X176675000Y-134362000D01*
G75*
G02*
X176757000Y-134280000I82000J0D01*
G01*
X178193000Y-134280000D01*
G75*
G02*
X178275000Y-134362000I0J-82000D01*
G01*
X178275000Y-135018000D01*
G75*
G02*
X178193000Y-135100000I-82000J0D01*
G01*
G37*
G36*
G01*
X178193000Y-136600000D02*
X176757000Y-136600000D01*
G75*
G02*
X176675000Y-136518000I0J82000D01*
G01*
X176675000Y-135862000D01*
G75*
G02*
X176757000Y-135780000I82000J0D01*
G01*
X178193000Y-135780000D01*
G75*
G02*
X178275000Y-135862000I0J-82000D01*
G01*
X178275000Y-136518000D01*
G75*
G02*
X178193000Y-136600000I-82000J0D01*
G01*
G37*
G36*
G01*
X183393000Y-135100000D02*
X181957000Y-135100000D01*
G75*
G02*
X181875000Y-135018000I0J82000D01*
G01*
X181875000Y-134362000D01*
G75*
G02*
X181957000Y-134280000I82000J0D01*
G01*
X183393000Y-134280000D01*
G75*
G02*
X183475000Y-134362000I0J-82000D01*
G01*
X183475000Y-135018000D01*
G75*
G02*
X183393000Y-135100000I-82000J0D01*
G01*
G37*
G36*
G01*
X183393000Y-136600000D02*
X181957000Y-136600000D01*
G75*
G02*
X181875000Y-136518000I0J82000D01*
G01*
X181875000Y-135862000D01*
G75*
G02*
X181957000Y-135780000I82000J0D01*
G01*
X183393000Y-135780000D01*
G75*
G02*
X183475000Y-135862000I0J-82000D01*
G01*
X183475000Y-136518000D01*
G75*
G02*
X183393000Y-136600000I-82000J0D01*
G01*
G37*
G36*
G01*
X159143000Y-135100000D02*
X157707000Y-135100000D01*
G75*
G02*
X157625000Y-135018000I0J82000D01*
G01*
X157625000Y-134362000D01*
G75*
G02*
X157707000Y-134280000I82000J0D01*
G01*
X159143000Y-134280000D01*
G75*
G02*
X159225000Y-134362000I0J-82000D01*
G01*
X159225000Y-135018000D01*
G75*
G02*
X159143000Y-135100000I-82000J0D01*
G01*
G37*
G36*
G01*
X159143000Y-136600000D02*
X157707000Y-136600000D01*
G75*
G02*
X157625000Y-136518000I0J82000D01*
G01*
X157625000Y-135862000D01*
G75*
G02*
X157707000Y-135780000I82000J0D01*
G01*
X159143000Y-135780000D01*
G75*
G02*
X159225000Y-135862000I0J-82000D01*
G01*
X159225000Y-136518000D01*
G75*
G02*
X159143000Y-136600000I-82000J0D01*
G01*
G37*
G36*
G01*
X164343000Y-135100000D02*
X162907000Y-135100000D01*
G75*
G02*
X162825000Y-135018000I0J82000D01*
G01*
X162825000Y-134362000D01*
G75*
G02*
X162907000Y-134280000I82000J0D01*
G01*
X164343000Y-134280000D01*
G75*
G02*
X164425000Y-134362000I0J-82000D01*
G01*
X164425000Y-135018000D01*
G75*
G02*
X164343000Y-135100000I-82000J0D01*
G01*
G37*
G36*
G01*
X164343000Y-136600000D02*
X162907000Y-136600000D01*
G75*
G02*
X162825000Y-136518000I0J82000D01*
G01*
X162825000Y-135862000D01*
G75*
G02*
X162907000Y-135780000I82000J0D01*
G01*
X164343000Y-135780000D01*
G75*
G02*
X164425000Y-135862000I0J-82000D01*
G01*
X164425000Y-136518000D01*
G75*
G02*
X164343000Y-136600000I-82000J0D01*
G01*
G37*
G36*
G01*
X140093000Y-135100000D02*
X138657000Y-135100000D01*
G75*
G02*
X138575000Y-135018000I0J82000D01*
G01*
X138575000Y-134362000D01*
G75*
G02*
X138657000Y-134280000I82000J0D01*
G01*
X140093000Y-134280000D01*
G75*
G02*
X140175000Y-134362000I0J-82000D01*
G01*
X140175000Y-135018000D01*
G75*
G02*
X140093000Y-135100000I-82000J0D01*
G01*
G37*
G36*
G01*
X140093000Y-136600000D02*
X138657000Y-136600000D01*
G75*
G02*
X138575000Y-136518000I0J82000D01*
G01*
X138575000Y-135862000D01*
G75*
G02*
X138657000Y-135780000I82000J0D01*
G01*
X140093000Y-135780000D01*
G75*
G02*
X140175000Y-135862000I0J-82000D01*
G01*
X140175000Y-136518000D01*
G75*
G02*
X140093000Y-136600000I-82000J0D01*
G01*
G37*
G36*
G01*
X145293000Y-135100000D02*
X143857000Y-135100000D01*
G75*
G02*
X143775000Y-135018000I0J82000D01*
G01*
X143775000Y-134362000D01*
G75*
G02*
X143857000Y-134280000I82000J0D01*
G01*
X145293000Y-134280000D01*
G75*
G02*
X145375000Y-134362000I0J-82000D01*
G01*
X145375000Y-135018000D01*
G75*
G02*
X145293000Y-135100000I-82000J0D01*
G01*
G37*
G36*
G01*
X145293000Y-136600000D02*
X143857000Y-136600000D01*
G75*
G02*
X143775000Y-136518000I0J82000D01*
G01*
X143775000Y-135862000D01*
G75*
G02*
X143857000Y-135780000I82000J0D01*
G01*
X145293000Y-135780000D01*
G75*
G02*
X145375000Y-135862000I0J-82000D01*
G01*
X145375000Y-136518000D01*
G75*
G02*
X145293000Y-136600000I-82000J0D01*
G01*
G37*
G36*
G01*
X121043000Y-135100000D02*
X119607000Y-135100000D01*
G75*
G02*
X119525000Y-135018000I0J82000D01*
G01*
X119525000Y-134362000D01*
G75*
G02*
X119607000Y-134280000I82000J0D01*
G01*
X121043000Y-134280000D01*
G75*
G02*
X121125000Y-134362000I0J-82000D01*
G01*
X121125000Y-135018000D01*
G75*
G02*
X121043000Y-135100000I-82000J0D01*
G01*
G37*
G36*
G01*
X121043000Y-136600000D02*
X119607000Y-136600000D01*
G75*
G02*
X119525000Y-136518000I0J82000D01*
G01*
X119525000Y-135862000D01*
G75*
G02*
X119607000Y-135780000I82000J0D01*
G01*
X121043000Y-135780000D01*
G75*
G02*
X121125000Y-135862000I0J-82000D01*
G01*
X121125000Y-136518000D01*
G75*
G02*
X121043000Y-136600000I-82000J0D01*
G01*
G37*
G36*
G01*
X126243000Y-135100000D02*
X124807000Y-135100000D01*
G75*
G02*
X124725000Y-135018000I0J82000D01*
G01*
X124725000Y-134362000D01*
G75*
G02*
X124807000Y-134280000I82000J0D01*
G01*
X126243000Y-134280000D01*
G75*
G02*
X126325000Y-134362000I0J-82000D01*
G01*
X126325000Y-135018000D01*
G75*
G02*
X126243000Y-135100000I-82000J0D01*
G01*
G37*
G36*
G01*
X126243000Y-136600000D02*
X124807000Y-136600000D01*
G75*
G02*
X124725000Y-136518000I0J82000D01*
G01*
X124725000Y-135862000D01*
G75*
G02*
X124807000Y-135780000I82000J0D01*
G01*
X126243000Y-135780000D01*
G75*
G02*
X126325000Y-135862000I0J-82000D01*
G01*
X126325000Y-136518000D01*
G75*
G02*
X126243000Y-136600000I-82000J0D01*
G01*
G37*
G36*
G01*
X101993000Y-135100000D02*
X100557000Y-135100000D01*
G75*
G02*
X100475000Y-135018000I0J82000D01*
G01*
X100475000Y-134362000D01*
G75*
G02*
X100557000Y-134280000I82000J0D01*
G01*
X101993000Y-134280000D01*
G75*
G02*
X102075000Y-134362000I0J-82000D01*
G01*
X102075000Y-135018000D01*
G75*
G02*
X101993000Y-135100000I-82000J0D01*
G01*
G37*
G36*
G01*
X101993000Y-136600000D02*
X100557000Y-136600000D01*
G75*
G02*
X100475000Y-136518000I0J82000D01*
G01*
X100475000Y-135862000D01*
G75*
G02*
X100557000Y-135780000I82000J0D01*
G01*
X101993000Y-135780000D01*
G75*
G02*
X102075000Y-135862000I0J-82000D01*
G01*
X102075000Y-136518000D01*
G75*
G02*
X101993000Y-136600000I-82000J0D01*
G01*
G37*
G36*
G01*
X107193000Y-135100000D02*
X105757000Y-135100000D01*
G75*
G02*
X105675000Y-135018000I0J82000D01*
G01*
X105675000Y-134362000D01*
G75*
G02*
X105757000Y-134280000I82000J0D01*
G01*
X107193000Y-134280000D01*
G75*
G02*
X107275000Y-134362000I0J-82000D01*
G01*
X107275000Y-135018000D01*
G75*
G02*
X107193000Y-135100000I-82000J0D01*
G01*
G37*
G36*
G01*
X107193000Y-136600000D02*
X105757000Y-136600000D01*
G75*
G02*
X105675000Y-136518000I0J82000D01*
G01*
X105675000Y-135862000D01*
G75*
G02*
X105757000Y-135780000I82000J0D01*
G01*
X107193000Y-135780000D01*
G75*
G02*
X107275000Y-135862000I0J-82000D01*
G01*
X107275000Y-136518000D01*
G75*
G02*
X107193000Y-136600000I-82000J0D01*
G01*
G37*
G36*
G01*
X82943000Y-135100000D02*
X81507000Y-135100000D01*
G75*
G02*
X81425000Y-135018000I0J82000D01*
G01*
X81425000Y-134362000D01*
G75*
G02*
X81507000Y-134280000I82000J0D01*
G01*
X82943000Y-134280000D01*
G75*
G02*
X83025000Y-134362000I0J-82000D01*
G01*
X83025000Y-135018000D01*
G75*
G02*
X82943000Y-135100000I-82000J0D01*
G01*
G37*
G36*
G01*
X82943000Y-136600000D02*
X81507000Y-136600000D01*
G75*
G02*
X81425000Y-136518000I0J82000D01*
G01*
X81425000Y-135862000D01*
G75*
G02*
X81507000Y-135780000I82000J0D01*
G01*
X82943000Y-135780000D01*
G75*
G02*
X83025000Y-135862000I0J-82000D01*
G01*
X83025000Y-136518000D01*
G75*
G02*
X82943000Y-136600000I-82000J0D01*
G01*
G37*
G36*
G01*
X88143000Y-135100000D02*
X86707000Y-135100000D01*
G75*
G02*
X86625000Y-135018000I0J82000D01*
G01*
X86625000Y-134362000D01*
G75*
G02*
X86707000Y-134280000I82000J0D01*
G01*
X88143000Y-134280000D01*
G75*
G02*
X88225000Y-134362000I0J-82000D01*
G01*
X88225000Y-135018000D01*
G75*
G02*
X88143000Y-135100000I-82000J0D01*
G01*
G37*
G36*
G01*
X88143000Y-136600000D02*
X86707000Y-136600000D01*
G75*
G02*
X86625000Y-136518000I0J82000D01*
G01*
X86625000Y-135862000D01*
G75*
G02*
X86707000Y-135780000I82000J0D01*
G01*
X88143000Y-135780000D01*
G75*
G02*
X88225000Y-135862000I0J-82000D01*
G01*
X88225000Y-136518000D01*
G75*
G02*
X88143000Y-136600000I-82000J0D01*
G01*
G37*
G36*
G01*
X63893000Y-135100000D02*
X62457000Y-135100000D01*
G75*
G02*
X62375000Y-135018000I0J82000D01*
G01*
X62375000Y-134362000D01*
G75*
G02*
X62457000Y-134280000I82000J0D01*
G01*
X63893000Y-134280000D01*
G75*
G02*
X63975000Y-134362000I0J-82000D01*
G01*
X63975000Y-135018000D01*
G75*
G02*
X63893000Y-135100000I-82000J0D01*
G01*
G37*
G36*
G01*
X63893000Y-136600000D02*
X62457000Y-136600000D01*
G75*
G02*
X62375000Y-136518000I0J82000D01*
G01*
X62375000Y-135862000D01*
G75*
G02*
X62457000Y-135780000I82000J0D01*
G01*
X63893000Y-135780000D01*
G75*
G02*
X63975000Y-135862000I0J-82000D01*
G01*
X63975000Y-136518000D01*
G75*
G02*
X63893000Y-136600000I-82000J0D01*
G01*
G37*
G36*
G01*
X69093000Y-135100000D02*
X67657000Y-135100000D01*
G75*
G02*
X67575000Y-135018000I0J82000D01*
G01*
X67575000Y-134362000D01*
G75*
G02*
X67657000Y-134280000I82000J0D01*
G01*
X69093000Y-134280000D01*
G75*
G02*
X69175000Y-134362000I0J-82000D01*
G01*
X69175000Y-135018000D01*
G75*
G02*
X69093000Y-135100000I-82000J0D01*
G01*
G37*
G36*
G01*
X69093000Y-136600000D02*
X67657000Y-136600000D01*
G75*
G02*
X67575000Y-136518000I0J82000D01*
G01*
X67575000Y-135862000D01*
G75*
G02*
X67657000Y-135780000I82000J0D01*
G01*
X69093000Y-135780000D01*
G75*
G02*
X69175000Y-135862000I0J-82000D01*
G01*
X69175000Y-136518000D01*
G75*
G02*
X69093000Y-136600000I-82000J0D01*
G01*
G37*
G36*
G01*
X44843000Y-135100000D02*
X43407000Y-135100000D01*
G75*
G02*
X43325000Y-135018000I0J82000D01*
G01*
X43325000Y-134362000D01*
G75*
G02*
X43407000Y-134280000I82000J0D01*
G01*
X44843000Y-134280000D01*
G75*
G02*
X44925000Y-134362000I0J-82000D01*
G01*
X44925000Y-135018000D01*
G75*
G02*
X44843000Y-135100000I-82000J0D01*
G01*
G37*
G36*
G01*
X44843000Y-136600000D02*
X43407000Y-136600000D01*
G75*
G02*
X43325000Y-136518000I0J82000D01*
G01*
X43325000Y-135862000D01*
G75*
G02*
X43407000Y-135780000I82000J0D01*
G01*
X44843000Y-135780000D01*
G75*
G02*
X44925000Y-135862000I0J-82000D01*
G01*
X44925000Y-136518000D01*
G75*
G02*
X44843000Y-136600000I-82000J0D01*
G01*
G37*
G36*
G01*
X50043000Y-135100000D02*
X48607000Y-135100000D01*
G75*
G02*
X48525000Y-135018000I0J82000D01*
G01*
X48525000Y-134362000D01*
G75*
G02*
X48607000Y-134280000I82000J0D01*
G01*
X50043000Y-134280000D01*
G75*
G02*
X50125000Y-134362000I0J-82000D01*
G01*
X50125000Y-135018000D01*
G75*
G02*
X50043000Y-135100000I-82000J0D01*
G01*
G37*
G36*
G01*
X50043000Y-136600000D02*
X48607000Y-136600000D01*
G75*
G02*
X48525000Y-136518000I0J82000D01*
G01*
X48525000Y-135862000D01*
G75*
G02*
X48607000Y-135780000I82000J0D01*
G01*
X50043000Y-135780000D01*
G75*
G02*
X50125000Y-135862000I0J-82000D01*
G01*
X50125000Y-136518000D01*
G75*
G02*
X50043000Y-136600000I-82000J0D01*
G01*
G37*
G36*
G01*
X373455500Y-106525000D02*
X372019500Y-106525000D01*
G75*
G02*
X371937500Y-106443000I0J82000D01*
G01*
X371937500Y-105787000D01*
G75*
G02*
X372019500Y-105705000I82000J0D01*
G01*
X373455500Y-105705000D01*
G75*
G02*
X373537500Y-105787000I0J-82000D01*
G01*
X373537500Y-106443000D01*
G75*
G02*
X373455500Y-106525000I-82000J0D01*
G01*
G37*
G36*
G01*
X373455500Y-108025000D02*
X372019500Y-108025000D01*
G75*
G02*
X371937500Y-107943000I0J82000D01*
G01*
X371937500Y-107287000D01*
G75*
G02*
X372019500Y-107205000I82000J0D01*
G01*
X373455500Y-107205000D01*
G75*
G02*
X373537500Y-107287000I0J-82000D01*
G01*
X373537500Y-107943000D01*
G75*
G02*
X373455500Y-108025000I-82000J0D01*
G01*
G37*
G36*
G01*
X378655500Y-106525000D02*
X377219500Y-106525000D01*
G75*
G02*
X377137500Y-106443000I0J82000D01*
G01*
X377137500Y-105787000D01*
G75*
G02*
X377219500Y-105705000I82000J0D01*
G01*
X378655500Y-105705000D01*
G75*
G02*
X378737500Y-105787000I0J-82000D01*
G01*
X378737500Y-106443000D01*
G75*
G02*
X378655500Y-106525000I-82000J0D01*
G01*
G37*
G36*
G01*
X378655500Y-108025000D02*
X377219500Y-108025000D01*
G75*
G02*
X377137500Y-107943000I0J82000D01*
G01*
X377137500Y-107287000D01*
G75*
G02*
X377219500Y-107205000I82000J0D01*
G01*
X378655500Y-107205000D01*
G75*
G02*
X378737500Y-107287000I0J-82000D01*
G01*
X378737500Y-107943000D01*
G75*
G02*
X378655500Y-108025000I-82000J0D01*
G01*
G37*
G36*
G01*
X354405500Y-106525000D02*
X352969500Y-106525000D01*
G75*
G02*
X352887500Y-106443000I0J82000D01*
G01*
X352887500Y-105787000D01*
G75*
G02*
X352969500Y-105705000I82000J0D01*
G01*
X354405500Y-105705000D01*
G75*
G02*
X354487500Y-105787000I0J-82000D01*
G01*
X354487500Y-106443000D01*
G75*
G02*
X354405500Y-106525000I-82000J0D01*
G01*
G37*
G36*
G01*
X354405500Y-108025000D02*
X352969500Y-108025000D01*
G75*
G02*
X352887500Y-107943000I0J82000D01*
G01*
X352887500Y-107287000D01*
G75*
G02*
X352969500Y-107205000I82000J0D01*
G01*
X354405500Y-107205000D01*
G75*
G02*
X354487500Y-107287000I0J-82000D01*
G01*
X354487500Y-107943000D01*
G75*
G02*
X354405500Y-108025000I-82000J0D01*
G01*
G37*
G36*
G01*
X359605500Y-106525000D02*
X358169500Y-106525000D01*
G75*
G02*
X358087500Y-106443000I0J82000D01*
G01*
X358087500Y-105787000D01*
G75*
G02*
X358169500Y-105705000I82000J0D01*
G01*
X359605500Y-105705000D01*
G75*
G02*
X359687500Y-105787000I0J-82000D01*
G01*
X359687500Y-106443000D01*
G75*
G02*
X359605500Y-106525000I-82000J0D01*
G01*
G37*
G36*
G01*
X359605500Y-108025000D02*
X358169500Y-108025000D01*
G75*
G02*
X358087500Y-107943000I0J82000D01*
G01*
X358087500Y-107287000D01*
G75*
G02*
X358169500Y-107205000I82000J0D01*
G01*
X359605500Y-107205000D01*
G75*
G02*
X359687500Y-107287000I0J-82000D01*
G01*
X359687500Y-107943000D01*
G75*
G02*
X359605500Y-108025000I-82000J0D01*
G01*
G37*
G36*
G01*
X335355500Y-106525000D02*
X333919500Y-106525000D01*
G75*
G02*
X333837500Y-106443000I0J82000D01*
G01*
X333837500Y-105787000D01*
G75*
G02*
X333919500Y-105705000I82000J0D01*
G01*
X335355500Y-105705000D01*
G75*
G02*
X335437500Y-105787000I0J-82000D01*
G01*
X335437500Y-106443000D01*
G75*
G02*
X335355500Y-106525000I-82000J0D01*
G01*
G37*
G36*
G01*
X335355500Y-108025000D02*
X333919500Y-108025000D01*
G75*
G02*
X333837500Y-107943000I0J82000D01*
G01*
X333837500Y-107287000D01*
G75*
G02*
X333919500Y-107205000I82000J0D01*
G01*
X335355500Y-107205000D01*
G75*
G02*
X335437500Y-107287000I0J-82000D01*
G01*
X335437500Y-107943000D01*
G75*
G02*
X335355500Y-108025000I-82000J0D01*
G01*
G37*
G36*
G01*
X340555500Y-106525000D02*
X339119500Y-106525000D01*
G75*
G02*
X339037500Y-106443000I0J82000D01*
G01*
X339037500Y-105787000D01*
G75*
G02*
X339119500Y-105705000I82000J0D01*
G01*
X340555500Y-105705000D01*
G75*
G02*
X340637500Y-105787000I0J-82000D01*
G01*
X340637500Y-106443000D01*
G75*
G02*
X340555500Y-106525000I-82000J0D01*
G01*
G37*
G36*
G01*
X340555500Y-108025000D02*
X339119500Y-108025000D01*
G75*
G02*
X339037500Y-107943000I0J82000D01*
G01*
X339037500Y-107287000D01*
G75*
G02*
X339119500Y-107205000I82000J0D01*
G01*
X340555500Y-107205000D01*
G75*
G02*
X340637500Y-107287000I0J-82000D01*
G01*
X340637500Y-107943000D01*
G75*
G02*
X340555500Y-108025000I-82000J0D01*
G01*
G37*
G36*
G01*
X311543000Y-106525000D02*
X310107000Y-106525000D01*
G75*
G02*
X310025000Y-106443000I0J82000D01*
G01*
X310025000Y-105787000D01*
G75*
G02*
X310107000Y-105705000I82000J0D01*
G01*
X311543000Y-105705000D01*
G75*
G02*
X311625000Y-105787000I0J-82000D01*
G01*
X311625000Y-106443000D01*
G75*
G02*
X311543000Y-106525000I-82000J0D01*
G01*
G37*
G36*
G01*
X311543000Y-108025000D02*
X310107000Y-108025000D01*
G75*
G02*
X310025000Y-107943000I0J82000D01*
G01*
X310025000Y-107287000D01*
G75*
G02*
X310107000Y-107205000I82000J0D01*
G01*
X311543000Y-107205000D01*
G75*
G02*
X311625000Y-107287000I0J-82000D01*
G01*
X311625000Y-107943000D01*
G75*
G02*
X311543000Y-108025000I-82000J0D01*
G01*
G37*
G36*
G01*
X316743000Y-106525000D02*
X315307000Y-106525000D01*
G75*
G02*
X315225000Y-106443000I0J82000D01*
G01*
X315225000Y-105787000D01*
G75*
G02*
X315307000Y-105705000I82000J0D01*
G01*
X316743000Y-105705000D01*
G75*
G02*
X316825000Y-105787000I0J-82000D01*
G01*
X316825000Y-106443000D01*
G75*
G02*
X316743000Y-106525000I-82000J0D01*
G01*
G37*
G36*
G01*
X316743000Y-108025000D02*
X315307000Y-108025000D01*
G75*
G02*
X315225000Y-107943000I0J82000D01*
G01*
X315225000Y-107287000D01*
G75*
G02*
X315307000Y-107205000I82000J0D01*
G01*
X316743000Y-107205000D01*
G75*
G02*
X316825000Y-107287000I0J-82000D01*
G01*
X316825000Y-107943000D01*
G75*
G02*
X316743000Y-108025000I-82000J0D01*
G01*
G37*
G36*
G01*
X292493000Y-106525000D02*
X291057000Y-106525000D01*
G75*
G02*
X290975000Y-106443000I0J82000D01*
G01*
X290975000Y-105787000D01*
G75*
G02*
X291057000Y-105705000I82000J0D01*
G01*
X292493000Y-105705000D01*
G75*
G02*
X292575000Y-105787000I0J-82000D01*
G01*
X292575000Y-106443000D01*
G75*
G02*
X292493000Y-106525000I-82000J0D01*
G01*
G37*
G36*
G01*
X292493000Y-108025000D02*
X291057000Y-108025000D01*
G75*
G02*
X290975000Y-107943000I0J82000D01*
G01*
X290975000Y-107287000D01*
G75*
G02*
X291057000Y-107205000I82000J0D01*
G01*
X292493000Y-107205000D01*
G75*
G02*
X292575000Y-107287000I0J-82000D01*
G01*
X292575000Y-107943000D01*
G75*
G02*
X292493000Y-108025000I-82000J0D01*
G01*
G37*
G36*
G01*
X297693000Y-106525000D02*
X296257000Y-106525000D01*
G75*
G02*
X296175000Y-106443000I0J82000D01*
G01*
X296175000Y-105787000D01*
G75*
G02*
X296257000Y-105705000I82000J0D01*
G01*
X297693000Y-105705000D01*
G75*
G02*
X297775000Y-105787000I0J-82000D01*
G01*
X297775000Y-106443000D01*
G75*
G02*
X297693000Y-106525000I-82000J0D01*
G01*
G37*
G36*
G01*
X297693000Y-108025000D02*
X296257000Y-108025000D01*
G75*
G02*
X296175000Y-107943000I0J82000D01*
G01*
X296175000Y-107287000D01*
G75*
G02*
X296257000Y-107205000I82000J0D01*
G01*
X297693000Y-107205000D01*
G75*
G02*
X297775000Y-107287000I0J-82000D01*
G01*
X297775000Y-107943000D01*
G75*
G02*
X297693000Y-108025000I-82000J0D01*
G01*
G37*
G36*
G01*
X273443000Y-106525000D02*
X272007000Y-106525000D01*
G75*
G02*
X271925000Y-106443000I0J82000D01*
G01*
X271925000Y-105787000D01*
G75*
G02*
X272007000Y-105705000I82000J0D01*
G01*
X273443000Y-105705000D01*
G75*
G02*
X273525000Y-105787000I0J-82000D01*
G01*
X273525000Y-106443000D01*
G75*
G02*
X273443000Y-106525000I-82000J0D01*
G01*
G37*
G36*
G01*
X273443000Y-108025000D02*
X272007000Y-108025000D01*
G75*
G02*
X271925000Y-107943000I0J82000D01*
G01*
X271925000Y-107287000D01*
G75*
G02*
X272007000Y-107205000I82000J0D01*
G01*
X273443000Y-107205000D01*
G75*
G02*
X273525000Y-107287000I0J-82000D01*
G01*
X273525000Y-107943000D01*
G75*
G02*
X273443000Y-108025000I-82000J0D01*
G01*
G37*
G36*
G01*
X278643000Y-106525000D02*
X277207000Y-106525000D01*
G75*
G02*
X277125000Y-106443000I0J82000D01*
G01*
X277125000Y-105787000D01*
G75*
G02*
X277207000Y-105705000I82000J0D01*
G01*
X278643000Y-105705000D01*
G75*
G02*
X278725000Y-105787000I0J-82000D01*
G01*
X278725000Y-106443000D01*
G75*
G02*
X278643000Y-106525000I-82000J0D01*
G01*
G37*
G36*
G01*
X278643000Y-108025000D02*
X277207000Y-108025000D01*
G75*
G02*
X277125000Y-107943000I0J82000D01*
G01*
X277125000Y-107287000D01*
G75*
G02*
X277207000Y-107205000I82000J0D01*
G01*
X278643000Y-107205000D01*
G75*
G02*
X278725000Y-107287000I0J-82000D01*
G01*
X278725000Y-107943000D01*
G75*
G02*
X278643000Y-108025000I-82000J0D01*
G01*
G37*
G36*
G01*
X254393000Y-106525000D02*
X252957000Y-106525000D01*
G75*
G02*
X252875000Y-106443000I0J82000D01*
G01*
X252875000Y-105787000D01*
G75*
G02*
X252957000Y-105705000I82000J0D01*
G01*
X254393000Y-105705000D01*
G75*
G02*
X254475000Y-105787000I0J-82000D01*
G01*
X254475000Y-106443000D01*
G75*
G02*
X254393000Y-106525000I-82000J0D01*
G01*
G37*
G36*
G01*
X254393000Y-108025000D02*
X252957000Y-108025000D01*
G75*
G02*
X252875000Y-107943000I0J82000D01*
G01*
X252875000Y-107287000D01*
G75*
G02*
X252957000Y-107205000I82000J0D01*
G01*
X254393000Y-107205000D01*
G75*
G02*
X254475000Y-107287000I0J-82000D01*
G01*
X254475000Y-107943000D01*
G75*
G02*
X254393000Y-108025000I-82000J0D01*
G01*
G37*
G36*
G01*
X259593000Y-106525000D02*
X258157000Y-106525000D01*
G75*
G02*
X258075000Y-106443000I0J82000D01*
G01*
X258075000Y-105787000D01*
G75*
G02*
X258157000Y-105705000I82000J0D01*
G01*
X259593000Y-105705000D01*
G75*
G02*
X259675000Y-105787000I0J-82000D01*
G01*
X259675000Y-106443000D01*
G75*
G02*
X259593000Y-106525000I-82000J0D01*
G01*
G37*
G36*
G01*
X259593000Y-108025000D02*
X258157000Y-108025000D01*
G75*
G02*
X258075000Y-107943000I0J82000D01*
G01*
X258075000Y-107287000D01*
G75*
G02*
X258157000Y-107205000I82000J0D01*
G01*
X259593000Y-107205000D01*
G75*
G02*
X259675000Y-107287000I0J-82000D01*
G01*
X259675000Y-107943000D01*
G75*
G02*
X259593000Y-108025000I-82000J0D01*
G01*
G37*
G36*
G01*
X225818000Y-106525000D02*
X224382000Y-106525000D01*
G75*
G02*
X224300000Y-106443000I0J82000D01*
G01*
X224300000Y-105787000D01*
G75*
G02*
X224382000Y-105705000I82000J0D01*
G01*
X225818000Y-105705000D01*
G75*
G02*
X225900000Y-105787000I0J-82000D01*
G01*
X225900000Y-106443000D01*
G75*
G02*
X225818000Y-106525000I-82000J0D01*
G01*
G37*
G36*
G01*
X225818000Y-108025000D02*
X224382000Y-108025000D01*
G75*
G02*
X224300000Y-107943000I0J82000D01*
G01*
X224300000Y-107287000D01*
G75*
G02*
X224382000Y-107205000I82000J0D01*
G01*
X225818000Y-107205000D01*
G75*
G02*
X225900000Y-107287000I0J-82000D01*
G01*
X225900000Y-107943000D01*
G75*
G02*
X225818000Y-108025000I-82000J0D01*
G01*
G37*
G36*
G01*
X231018000Y-106525000D02*
X229582000Y-106525000D01*
G75*
G02*
X229500000Y-106443000I0J82000D01*
G01*
X229500000Y-105787000D01*
G75*
G02*
X229582000Y-105705000I82000J0D01*
G01*
X231018000Y-105705000D01*
G75*
G02*
X231100000Y-105787000I0J-82000D01*
G01*
X231100000Y-106443000D01*
G75*
G02*
X231018000Y-106525000I-82000J0D01*
G01*
G37*
G36*
G01*
X231018000Y-108025000D02*
X229582000Y-108025000D01*
G75*
G02*
X229500000Y-107943000I0J82000D01*
G01*
X229500000Y-107287000D01*
G75*
G02*
X229582000Y-107205000I82000J0D01*
G01*
X231018000Y-107205000D01*
G75*
G02*
X231100000Y-107287000I0J-82000D01*
G01*
X231100000Y-107943000D01*
G75*
G02*
X231018000Y-108025000I-82000J0D01*
G01*
G37*
G36*
G01*
X206768000Y-106525000D02*
X205332000Y-106525000D01*
G75*
G02*
X205250000Y-106443000I0J82000D01*
G01*
X205250000Y-105787000D01*
G75*
G02*
X205332000Y-105705000I82000J0D01*
G01*
X206768000Y-105705000D01*
G75*
G02*
X206850000Y-105787000I0J-82000D01*
G01*
X206850000Y-106443000D01*
G75*
G02*
X206768000Y-106525000I-82000J0D01*
G01*
G37*
G36*
G01*
X206768000Y-108025000D02*
X205332000Y-108025000D01*
G75*
G02*
X205250000Y-107943000I0J82000D01*
G01*
X205250000Y-107287000D01*
G75*
G02*
X205332000Y-107205000I82000J0D01*
G01*
X206768000Y-107205000D01*
G75*
G02*
X206850000Y-107287000I0J-82000D01*
G01*
X206850000Y-107943000D01*
G75*
G02*
X206768000Y-108025000I-82000J0D01*
G01*
G37*
G36*
G01*
X211968000Y-106525000D02*
X210532000Y-106525000D01*
G75*
G02*
X210450000Y-106443000I0J82000D01*
G01*
X210450000Y-105787000D01*
G75*
G02*
X210532000Y-105705000I82000J0D01*
G01*
X211968000Y-105705000D01*
G75*
G02*
X212050000Y-105787000I0J-82000D01*
G01*
X212050000Y-106443000D01*
G75*
G02*
X211968000Y-106525000I-82000J0D01*
G01*
G37*
G36*
G01*
X211968000Y-108025000D02*
X210532000Y-108025000D01*
G75*
G02*
X210450000Y-107943000I0J82000D01*
G01*
X210450000Y-107287000D01*
G75*
G02*
X210532000Y-107205000I82000J0D01*
G01*
X211968000Y-107205000D01*
G75*
G02*
X212050000Y-107287000I0J-82000D01*
G01*
X212050000Y-107943000D01*
G75*
G02*
X211968000Y-108025000I-82000J0D01*
G01*
G37*
G36*
G01*
X187718000Y-106525000D02*
X186282000Y-106525000D01*
G75*
G02*
X186200000Y-106443000I0J82000D01*
G01*
X186200000Y-105787000D01*
G75*
G02*
X186282000Y-105705000I82000J0D01*
G01*
X187718000Y-105705000D01*
G75*
G02*
X187800000Y-105787000I0J-82000D01*
G01*
X187800000Y-106443000D01*
G75*
G02*
X187718000Y-106525000I-82000J0D01*
G01*
G37*
G36*
G01*
X187718000Y-108025000D02*
X186282000Y-108025000D01*
G75*
G02*
X186200000Y-107943000I0J82000D01*
G01*
X186200000Y-107287000D01*
G75*
G02*
X186282000Y-107205000I82000J0D01*
G01*
X187718000Y-107205000D01*
G75*
G02*
X187800000Y-107287000I0J-82000D01*
G01*
X187800000Y-107943000D01*
G75*
G02*
X187718000Y-108025000I-82000J0D01*
G01*
G37*
G36*
G01*
X192918000Y-106525000D02*
X191482000Y-106525000D01*
G75*
G02*
X191400000Y-106443000I0J82000D01*
G01*
X191400000Y-105787000D01*
G75*
G02*
X191482000Y-105705000I82000J0D01*
G01*
X192918000Y-105705000D01*
G75*
G02*
X193000000Y-105787000I0J-82000D01*
G01*
X193000000Y-106443000D01*
G75*
G02*
X192918000Y-106525000I-82000J0D01*
G01*
G37*
G36*
G01*
X192918000Y-108025000D02*
X191482000Y-108025000D01*
G75*
G02*
X191400000Y-107943000I0J82000D01*
G01*
X191400000Y-107287000D01*
G75*
G02*
X191482000Y-107205000I82000J0D01*
G01*
X192918000Y-107205000D01*
G75*
G02*
X193000000Y-107287000I0J-82000D01*
G01*
X193000000Y-107943000D01*
G75*
G02*
X192918000Y-108025000I-82000J0D01*
G01*
G37*
G36*
G01*
X168668000Y-106525000D02*
X167232000Y-106525000D01*
G75*
G02*
X167150000Y-106443000I0J82000D01*
G01*
X167150000Y-105787000D01*
G75*
G02*
X167232000Y-105705000I82000J0D01*
G01*
X168668000Y-105705000D01*
G75*
G02*
X168750000Y-105787000I0J-82000D01*
G01*
X168750000Y-106443000D01*
G75*
G02*
X168668000Y-106525000I-82000J0D01*
G01*
G37*
G36*
G01*
X168668000Y-108025000D02*
X167232000Y-108025000D01*
G75*
G02*
X167150000Y-107943000I0J82000D01*
G01*
X167150000Y-107287000D01*
G75*
G02*
X167232000Y-107205000I82000J0D01*
G01*
X168668000Y-107205000D01*
G75*
G02*
X168750000Y-107287000I0J-82000D01*
G01*
X168750000Y-107943000D01*
G75*
G02*
X168668000Y-108025000I-82000J0D01*
G01*
G37*
G36*
G01*
X173868000Y-106525000D02*
X172432000Y-106525000D01*
G75*
G02*
X172350000Y-106443000I0J82000D01*
G01*
X172350000Y-105787000D01*
G75*
G02*
X172432000Y-105705000I82000J0D01*
G01*
X173868000Y-105705000D01*
G75*
G02*
X173950000Y-105787000I0J-82000D01*
G01*
X173950000Y-106443000D01*
G75*
G02*
X173868000Y-106525000I-82000J0D01*
G01*
G37*
G36*
G01*
X173868000Y-108025000D02*
X172432000Y-108025000D01*
G75*
G02*
X172350000Y-107943000I0J82000D01*
G01*
X172350000Y-107287000D01*
G75*
G02*
X172432000Y-107205000I82000J0D01*
G01*
X173868000Y-107205000D01*
G75*
G02*
X173950000Y-107287000I0J-82000D01*
G01*
X173950000Y-107943000D01*
G75*
G02*
X173868000Y-108025000I-82000J0D01*
G01*
G37*
G36*
G01*
X140093000Y-106525000D02*
X138657000Y-106525000D01*
G75*
G02*
X138575000Y-106443000I0J82000D01*
G01*
X138575000Y-105787000D01*
G75*
G02*
X138657000Y-105705000I82000J0D01*
G01*
X140093000Y-105705000D01*
G75*
G02*
X140175000Y-105787000I0J-82000D01*
G01*
X140175000Y-106443000D01*
G75*
G02*
X140093000Y-106525000I-82000J0D01*
G01*
G37*
G36*
G01*
X140093000Y-108025000D02*
X138657000Y-108025000D01*
G75*
G02*
X138575000Y-107943000I0J82000D01*
G01*
X138575000Y-107287000D01*
G75*
G02*
X138657000Y-107205000I82000J0D01*
G01*
X140093000Y-107205000D01*
G75*
G02*
X140175000Y-107287000I0J-82000D01*
G01*
X140175000Y-107943000D01*
G75*
G02*
X140093000Y-108025000I-82000J0D01*
G01*
G37*
G36*
G01*
X145293000Y-106525000D02*
X143857000Y-106525000D01*
G75*
G02*
X143775000Y-106443000I0J82000D01*
G01*
X143775000Y-105787000D01*
G75*
G02*
X143857000Y-105705000I82000J0D01*
G01*
X145293000Y-105705000D01*
G75*
G02*
X145375000Y-105787000I0J-82000D01*
G01*
X145375000Y-106443000D01*
G75*
G02*
X145293000Y-106525000I-82000J0D01*
G01*
G37*
G36*
G01*
X145293000Y-108025000D02*
X143857000Y-108025000D01*
G75*
G02*
X143775000Y-107943000I0J82000D01*
G01*
X143775000Y-107287000D01*
G75*
G02*
X143857000Y-107205000I82000J0D01*
G01*
X145293000Y-107205000D01*
G75*
G02*
X145375000Y-107287000I0J-82000D01*
G01*
X145375000Y-107943000D01*
G75*
G02*
X145293000Y-108025000I-82000J0D01*
G01*
G37*
G36*
G01*
X121043000Y-106525000D02*
X119607000Y-106525000D01*
G75*
G02*
X119525000Y-106443000I0J82000D01*
G01*
X119525000Y-105787000D01*
G75*
G02*
X119607000Y-105705000I82000J0D01*
G01*
X121043000Y-105705000D01*
G75*
G02*
X121125000Y-105787000I0J-82000D01*
G01*
X121125000Y-106443000D01*
G75*
G02*
X121043000Y-106525000I-82000J0D01*
G01*
G37*
G36*
G01*
X121043000Y-108025000D02*
X119607000Y-108025000D01*
G75*
G02*
X119525000Y-107943000I0J82000D01*
G01*
X119525000Y-107287000D01*
G75*
G02*
X119607000Y-107205000I82000J0D01*
G01*
X121043000Y-107205000D01*
G75*
G02*
X121125000Y-107287000I0J-82000D01*
G01*
X121125000Y-107943000D01*
G75*
G02*
X121043000Y-108025000I-82000J0D01*
G01*
G37*
G36*
G01*
X126243000Y-106525000D02*
X124807000Y-106525000D01*
G75*
G02*
X124725000Y-106443000I0J82000D01*
G01*
X124725000Y-105787000D01*
G75*
G02*
X124807000Y-105705000I82000J0D01*
G01*
X126243000Y-105705000D01*
G75*
G02*
X126325000Y-105787000I0J-82000D01*
G01*
X126325000Y-106443000D01*
G75*
G02*
X126243000Y-106525000I-82000J0D01*
G01*
G37*
G36*
G01*
X126243000Y-108025000D02*
X124807000Y-108025000D01*
G75*
G02*
X124725000Y-107943000I0J82000D01*
G01*
X124725000Y-107287000D01*
G75*
G02*
X124807000Y-107205000I82000J0D01*
G01*
X126243000Y-107205000D01*
G75*
G02*
X126325000Y-107287000I0J-82000D01*
G01*
X126325000Y-107943000D01*
G75*
G02*
X126243000Y-108025000I-82000J0D01*
G01*
G37*
G36*
G01*
X101993000Y-106525000D02*
X100557000Y-106525000D01*
G75*
G02*
X100475000Y-106443000I0J82000D01*
G01*
X100475000Y-105787000D01*
G75*
G02*
X100557000Y-105705000I82000J0D01*
G01*
X101993000Y-105705000D01*
G75*
G02*
X102075000Y-105787000I0J-82000D01*
G01*
X102075000Y-106443000D01*
G75*
G02*
X101993000Y-106525000I-82000J0D01*
G01*
G37*
G36*
G01*
X101993000Y-108025000D02*
X100557000Y-108025000D01*
G75*
G02*
X100475000Y-107943000I0J82000D01*
G01*
X100475000Y-107287000D01*
G75*
G02*
X100557000Y-107205000I82000J0D01*
G01*
X101993000Y-107205000D01*
G75*
G02*
X102075000Y-107287000I0J-82000D01*
G01*
X102075000Y-107943000D01*
G75*
G02*
X101993000Y-108025000I-82000J0D01*
G01*
G37*
G36*
G01*
X107193000Y-106525000D02*
X105757000Y-106525000D01*
G75*
G02*
X105675000Y-106443000I0J82000D01*
G01*
X105675000Y-105787000D01*
G75*
G02*
X105757000Y-105705000I82000J0D01*
G01*
X107193000Y-105705000D01*
G75*
G02*
X107275000Y-105787000I0J-82000D01*
G01*
X107275000Y-106443000D01*
G75*
G02*
X107193000Y-106525000I-82000J0D01*
G01*
G37*
G36*
G01*
X107193000Y-108025000D02*
X105757000Y-108025000D01*
G75*
G02*
X105675000Y-107943000I0J82000D01*
G01*
X105675000Y-107287000D01*
G75*
G02*
X105757000Y-107205000I82000J0D01*
G01*
X107193000Y-107205000D01*
G75*
G02*
X107275000Y-107287000I0J-82000D01*
G01*
X107275000Y-107943000D01*
G75*
G02*
X107193000Y-108025000I-82000J0D01*
G01*
G37*
G36*
G01*
X82943000Y-106525000D02*
X81507000Y-106525000D01*
G75*
G02*
X81425000Y-106443000I0J82000D01*
G01*
X81425000Y-105787000D01*
G75*
G02*
X81507000Y-105705000I82000J0D01*
G01*
X82943000Y-105705000D01*
G75*
G02*
X83025000Y-105787000I0J-82000D01*
G01*
X83025000Y-106443000D01*
G75*
G02*
X82943000Y-106525000I-82000J0D01*
G01*
G37*
G36*
G01*
X82943000Y-108025000D02*
X81507000Y-108025000D01*
G75*
G02*
X81425000Y-107943000I0J82000D01*
G01*
X81425000Y-107287000D01*
G75*
G02*
X81507000Y-107205000I82000J0D01*
G01*
X82943000Y-107205000D01*
G75*
G02*
X83025000Y-107287000I0J-82000D01*
G01*
X83025000Y-107943000D01*
G75*
G02*
X82943000Y-108025000I-82000J0D01*
G01*
G37*
G36*
G01*
X88143000Y-106525000D02*
X86707000Y-106525000D01*
G75*
G02*
X86625000Y-106443000I0J82000D01*
G01*
X86625000Y-105787000D01*
G75*
G02*
X86707000Y-105705000I82000J0D01*
G01*
X88143000Y-105705000D01*
G75*
G02*
X88225000Y-105787000I0J-82000D01*
G01*
X88225000Y-106443000D01*
G75*
G02*
X88143000Y-106525000I-82000J0D01*
G01*
G37*
G36*
G01*
X88143000Y-108025000D02*
X86707000Y-108025000D01*
G75*
G02*
X86625000Y-107943000I0J82000D01*
G01*
X86625000Y-107287000D01*
G75*
G02*
X86707000Y-107205000I82000J0D01*
G01*
X88143000Y-107205000D01*
G75*
G02*
X88225000Y-107287000I0J-82000D01*
G01*
X88225000Y-107943000D01*
G75*
G02*
X88143000Y-108025000I-82000J0D01*
G01*
G37*
G36*
G01*
X44843000Y-106525000D02*
X43407000Y-106525000D01*
G75*
G02*
X43325000Y-106443000I0J82000D01*
G01*
X43325000Y-105787000D01*
G75*
G02*
X43407000Y-105705000I82000J0D01*
G01*
X44843000Y-105705000D01*
G75*
G02*
X44925000Y-105787000I0J-82000D01*
G01*
X44925000Y-106443000D01*
G75*
G02*
X44843000Y-106525000I-82000J0D01*
G01*
G37*
G36*
G01*
X44843000Y-108025000D02*
X43407000Y-108025000D01*
G75*
G02*
X43325000Y-107943000I0J82000D01*
G01*
X43325000Y-107287000D01*
G75*
G02*
X43407000Y-107205000I82000J0D01*
G01*
X44843000Y-107205000D01*
G75*
G02*
X44925000Y-107287000I0J-82000D01*
G01*
X44925000Y-107943000D01*
G75*
G02*
X44843000Y-108025000I-82000J0D01*
G01*
G37*
G36*
G01*
X50043000Y-106525000D02*
X48607000Y-106525000D01*
G75*
G02*
X48525000Y-106443000I0J82000D01*
G01*
X48525000Y-105787000D01*
G75*
G02*
X48607000Y-105705000I82000J0D01*
G01*
X50043000Y-105705000D01*
G75*
G02*
X50125000Y-105787000I0J-82000D01*
G01*
X50125000Y-106443000D01*
G75*
G02*
X50043000Y-106525000I-82000J0D01*
G01*
G37*
G36*
G01*
X50043000Y-108025000D02*
X48607000Y-108025000D01*
G75*
G02*
X48525000Y-107943000I0J82000D01*
G01*
X48525000Y-107287000D01*
G75*
G02*
X48607000Y-107205000I82000J0D01*
G01*
X50043000Y-107205000D01*
G75*
G02*
X50125000Y-107287000I0J-82000D01*
G01*
X50125000Y-107943000D01*
G75*
G02*
X50043000Y-108025000I-82000J0D01*
G01*
G37*
G36*
G01*
X304785000Y-162253000D02*
X304785000Y-160817000D01*
G75*
G02*
X304867000Y-160735000I82000J0D01*
G01*
X305523000Y-160735000D01*
G75*
G02*
X305605000Y-160817000I0J-82000D01*
G01*
X305605000Y-162253000D01*
G75*
G02*
X305523000Y-162335000I-82000J0D01*
G01*
X304867000Y-162335000D01*
G75*
G02*
X304785000Y-162253000I0J82000D01*
G01*
G37*
G36*
G01*
X306285000Y-162253000D02*
X306285000Y-160817000D01*
G75*
G02*
X306367000Y-160735000I82000J0D01*
G01*
X307023000Y-160735000D01*
G75*
G02*
X307105000Y-160817000I0J-82000D01*
G01*
X307105000Y-162253000D01*
G75*
G02*
X307023000Y-162335000I-82000J0D01*
G01*
X306367000Y-162335000D01*
G75*
G02*
X306285000Y-162253000I0J82000D01*
G01*
G37*
G36*
G01*
X304785000Y-157053000D02*
X304785000Y-155617000D01*
G75*
G02*
X304867000Y-155535000I82000J0D01*
G01*
X305523000Y-155535000D01*
G75*
G02*
X305605000Y-155617000I0J-82000D01*
G01*
X305605000Y-157053000D01*
G75*
G02*
X305523000Y-157135000I-82000J0D01*
G01*
X304867000Y-157135000D01*
G75*
G02*
X304785000Y-157053000I0J82000D01*
G01*
G37*
G36*
G01*
X306285000Y-157053000D02*
X306285000Y-155617000D01*
G75*
G02*
X306367000Y-155535000I82000J0D01*
G01*
X307023000Y-155535000D01*
G75*
G02*
X307105000Y-155617000I0J-82000D01*
G01*
X307105000Y-157053000D01*
G75*
G02*
X307023000Y-157135000I-82000J0D01*
G01*
X306367000Y-157135000D01*
G75*
G02*
X306285000Y-157053000I0J82000D01*
G01*
G37*
M02*
