G04 #@! TF.GenerationSoftware,KiCad,Pcbnew,(5.1.9)-1*
G04 #@! TF.CreationDate,2021-06-14T20:25:05+01:00*
G04 #@! TF.ProjectId,ENV_KB_RGB,454e565f-4b42-45f5-9247-422e6b696361,Rev.1*
G04 #@! TF.SameCoordinates,Original*
G04 #@! TF.FileFunction,Paste,Top*
G04 #@! TF.FilePolarity,Positive*
%FSLAX46Y46*%
G04 Gerber Fmt 4.6, Leading zero omitted, Abs format (unit mm)*
G04 Created by KiCad (PCBNEW (5.1.9)-1) date 2021-06-14 20:25:05*
%MOMM*%
%LPD*%
G01*
G04 APERTURE LIST*
%ADD10R,0.600000X1.450000*%
%ADD11R,0.300000X1.450000*%
%ADD12R,0.900000X1.700000*%
G04 APERTURE END LIST*
D10*
X209000000Y-67330000D03*
X215450000Y-67330000D03*
X209775000Y-67330000D03*
X214675000Y-67330000D03*
D11*
X213975000Y-67330000D03*
X210475000Y-67330000D03*
X213475000Y-67330000D03*
X210975000Y-67330000D03*
X212975000Y-67330000D03*
X211475000Y-67330000D03*
X211975000Y-67330000D03*
X212475000Y-67330000D03*
G36*
G01*
X199652500Y-67805000D02*
X199997500Y-67805000D01*
G75*
G02*
X200145000Y-67952500I0J-147500D01*
G01*
X200145000Y-68247500D01*
G75*
G02*
X199997500Y-68395000I-147500J0D01*
G01*
X199652500Y-68395000D01*
G75*
G02*
X199505000Y-68247500I0J147500D01*
G01*
X199505000Y-67952500D01*
G75*
G02*
X199652500Y-67805000I147500J0D01*
G01*
G37*
G36*
G01*
X199652500Y-68775000D02*
X199997500Y-68775000D01*
G75*
G02*
X200145000Y-68922500I0J-147500D01*
G01*
X200145000Y-69217500D01*
G75*
G02*
X199997500Y-69365000I-147500J0D01*
G01*
X199652500Y-69365000D01*
G75*
G02*
X199505000Y-69217500I0J147500D01*
G01*
X199505000Y-68922500D01*
G75*
G02*
X199652500Y-68775000I147500J0D01*
G01*
G37*
G36*
G01*
X200990000Y-67805000D02*
X201360000Y-67805000D01*
G75*
G02*
X201495000Y-67940000I0J-135000D01*
G01*
X201495000Y-68210000D01*
G75*
G02*
X201360000Y-68345000I-135000J0D01*
G01*
X200990000Y-68345000D01*
G75*
G02*
X200855000Y-68210000I0J135000D01*
G01*
X200855000Y-67940000D01*
G75*
G02*
X200990000Y-67805000I135000J0D01*
G01*
G37*
G36*
G01*
X200990000Y-68825000D02*
X201360000Y-68825000D01*
G75*
G02*
X201495000Y-68960000I0J-135000D01*
G01*
X201495000Y-69230000D01*
G75*
G02*
X201360000Y-69365000I-135000J0D01*
G01*
X200990000Y-69365000D01*
G75*
G02*
X200855000Y-69230000I0J135000D01*
G01*
X200855000Y-68960000D01*
G75*
G02*
X200990000Y-68825000I135000J0D01*
G01*
G37*
D12*
X202625000Y-61385000D03*
X199225000Y-61385000D03*
G36*
G01*
X203690000Y-67805000D02*
X204060000Y-67805000D01*
G75*
G02*
X204195000Y-67940000I0J-135000D01*
G01*
X204195000Y-68210000D01*
G75*
G02*
X204060000Y-68345000I-135000J0D01*
G01*
X203690000Y-68345000D01*
G75*
G02*
X203555000Y-68210000I0J135000D01*
G01*
X203555000Y-67940000D01*
G75*
G02*
X203690000Y-67805000I135000J0D01*
G01*
G37*
G36*
G01*
X203690000Y-68825000D02*
X204060000Y-68825000D01*
G75*
G02*
X204195000Y-68960000I0J-135000D01*
G01*
X204195000Y-69230000D01*
G75*
G02*
X204060000Y-69365000I-135000J0D01*
G01*
X203690000Y-69365000D01*
G75*
G02*
X203555000Y-69230000I0J135000D01*
G01*
X203555000Y-68960000D01*
G75*
G02*
X203690000Y-68825000I135000J0D01*
G01*
G37*
G36*
G01*
X202340000Y-68825000D02*
X202710000Y-68825000D01*
G75*
G02*
X202845000Y-68960000I0J-135000D01*
G01*
X202845000Y-69230000D01*
G75*
G02*
X202710000Y-69365000I-135000J0D01*
G01*
X202340000Y-69365000D01*
G75*
G02*
X202205000Y-69230000I0J135000D01*
G01*
X202205000Y-68960000D01*
G75*
G02*
X202340000Y-68825000I135000J0D01*
G01*
G37*
G36*
G01*
X202340000Y-67805000D02*
X202710000Y-67805000D01*
G75*
G02*
X202845000Y-67940000I0J-135000D01*
G01*
X202845000Y-68210000D01*
G75*
G02*
X202710000Y-68345000I-135000J0D01*
G01*
X202340000Y-68345000D01*
G75*
G02*
X202205000Y-68210000I0J135000D01*
G01*
X202205000Y-67940000D01*
G75*
G02*
X202340000Y-67805000I135000J0D01*
G01*
G37*
M02*
