M48
; DRILL file {KiCad (5.1.9)-1} date 06/14/21 20:25:01
; FORMAT={-:-/ absolute / metric / decimal}
; #@! TF.CreationDate,2021-06-14T20:25:01+01:00
; #@! TF.GenerationSoftware,Kicad,Pcbnew,(5.1.9)-1
; #@! TF.FileFunction,NonPlated,1,4,NPTH
FMAT,2
METRIC
T1C0.650
T2C1.750
T3C3.000
T4C3.048
T5C3.200
T6C3.988
%
G90
G05
T1
X209.335Y-65.885
X215.115Y-65.885
T2
X41.645Y-101.785
X41.645Y-130.36
X44.026Y-187.51
X44.026Y-206.56
X46.407Y-149.41
X48.789Y-168.46
X51.805Y-101.785
X51.805Y-130.36
X54.186Y-187.51
X54.186Y-206.56
X56.567Y-149.41
X58.949Y-168.46
X60.695Y-130.36
X65.457Y-187.51
X67.839Y-206.56
X70.22Y-149.41
X70.855Y-130.36
X74.983Y-168.46
X75.617Y-187.51
X77.999Y-206.56
X79.745Y-101.785
X79.745Y-130.36
X80.38Y-149.41
X84.507Y-187.51
X85.142Y-168.46
X89.27Y-149.41
X89.905Y-101.785
X89.905Y-130.36
X91.651Y-206.56
X94.032Y-168.46
X94.667Y-187.51
X98.795Y-101.785
X98.795Y-130.36
X99.43Y-149.41
X101.811Y-206.56
X103.557Y-187.51
X104.192Y-168.46
X108.32Y-149.41
X108.955Y-101.785
X108.955Y-130.36
X113.082Y-168.46
X113.718Y-187.51
X117.845Y-101.785
X117.845Y-130.36
X118.48Y-149.41
X122.607Y-187.51
X123.242Y-168.46
X127.37Y-149.41
X128.005Y-101.785
X128.005Y-130.36
X132.132Y-168.46
X132.767Y-187.51
X136.895Y-101.785
X136.895Y-130.36
X137.53Y-149.41
X141.657Y-187.51
X142.292Y-168.46
X146.42Y-149.41
X147.055Y-101.785
X147.055Y-130.36
X151.183Y-168.46
X151.817Y-187.51
X155.945Y-130.36
X156.58Y-149.41
X160.707Y-187.51
X161.343Y-168.46
X163.089Y-206.56
X165.47Y-101.785
X165.47Y-149.41
X166.105Y-130.36
X170.232Y-168.46
X170.867Y-187.51
X173.249Y-206.56
X174.995Y-130.36
X175.63Y-101.785
X175.63Y-149.41
X179.757Y-187.51
X180.392Y-168.46
X184.52Y-101.785
X184.52Y-149.41
X185.155Y-130.36
X189.282Y-168.46
X189.917Y-187.51
X194.045Y-130.36
X194.68Y-101.785
X194.68Y-149.41
X198.808Y-187.51
X199.442Y-168.46
X203.57Y-101.785
X203.57Y-149.41
X204.205Y-130.36
X208.332Y-168.46
X208.968Y-187.51
X213.095Y-130.36
X213.73Y-101.785
X213.73Y-149.41
X217.857Y-187.51
X218.492Y-168.46
X222.62Y-101.785
X222.62Y-149.41
X223.255Y-130.36
X227.382Y-168.46
X228.017Y-187.51
X232.145Y-130.36
X232.78Y-101.785
X232.78Y-149.41
X234.526Y-206.56
X236.907Y-187.51
X237.542Y-168.46
X241.67Y-149.41
X242.305Y-130.36
X244.686Y-206.56
X246.432Y-168.46
X247.067Y-187.51
X251.195Y-101.785
X251.195Y-130.36
X251.83Y-149.41
X255.957Y-187.51
X256.592Y-168.46
X258.339Y-206.56
X260.72Y-149.41
X261.355Y-101.785
X261.355Y-130.36
X265.483Y-168.46
X266.118Y-187.51
X268.499Y-206.56
X270.245Y-101.785
X270.245Y-130.36
X270.88Y-149.41
X275.642Y-168.46
X279.77Y-149.41
X280.405Y-101.785
X280.405Y-130.36
X282.151Y-206.56
X284.532Y-168.46
X289.295Y-101.785
X289.93Y-149.41
X291.676Y-187.51
X292.311Y-206.56
X294.692Y-168.46
X298.82Y-130.36
X299.455Y-101.785
X301.836Y-187.51
X305.964Y-206.56
X308.345Y-101.785
X308.98Y-130.36
X311.025Y-153.855
X311.025Y-164.015
X316.124Y-206.56
X318.505Y-101.785
X332.157Y-101.785
X332.157Y-130.36
X332.157Y-149.41
X332.157Y-206.56
X342.317Y-101.785
X342.317Y-130.36
X342.317Y-149.41
X342.317Y-206.56
X351.207Y-101.785
X351.207Y-130.36
X351.207Y-149.41
X351.207Y-187.51
X351.207Y-206.56
X361.368Y-101.785
X361.368Y-130.36
X361.368Y-149.41
X361.368Y-187.51
X361.368Y-206.56
X370.257Y-101.785
X370.257Y-130.36
X370.257Y-149.41
X370.257Y-206.56
X380.417Y-101.785
X380.417Y-130.36
X380.417Y-149.41
X380.417Y-206.56
T3
X42.915Y-99.245
X42.915Y-127.82
X45.296Y-184.97
X45.296Y-204.02
X47.677Y-146.87
X49.265Y-96.705
X49.265Y-125.28
X50.059Y-165.92
X51.646Y-182.43
X51.646Y-201.48
X54.027Y-144.33
X56.409Y-163.38
X61.965Y-127.82
X66.727Y-184.97
X68.315Y-125.28
X69.109Y-204.02
X71.49Y-146.87
X73.078Y-182.43
X75.459Y-201.48
X76.252Y-165.92
X77.84Y-144.33
X81.015Y-99.245
X81.015Y-127.82
X82.602Y-163.38
X85.777Y-184.97
X87.365Y-96.705
X87.365Y-125.28
X90.54Y-146.87
X92.127Y-182.43
X92.921Y-204.02
X95.302Y-165.92
X96.89Y-144.33
X99.271Y-201.48
X100.065Y-99.245
X100.065Y-127.82
X101.652Y-163.38
X104.828Y-184.97
X106.415Y-96.705
X106.415Y-125.28
X109.59Y-146.87
X111.177Y-182.43
X114.352Y-165.92
X115.94Y-144.33
X119.115Y-99.245
X119.115Y-127.82
X120.703Y-163.38
X123.877Y-184.97
X125.465Y-96.705
X125.465Y-125.28
X128.64Y-146.87
X130.227Y-182.43
X133.403Y-165.92
X134.99Y-144.33
X138.165Y-99.245
X138.165Y-127.82
X139.752Y-163.38
X142.927Y-184.97
X144.515Y-96.705
X144.515Y-125.28
X147.69Y-146.87
X149.278Y-182.43
X152.452Y-165.92
X154.04Y-144.33
X157.215Y-127.82
X158.802Y-163.38
X161.977Y-184.97
X163.565Y-125.28
X164.359Y-204.02
X166.74Y-99.245
X166.74Y-146.87
X168.327Y-182.43
X170.709Y-201.48
X171.502Y-165.92
X173.09Y-96.705
X173.09Y-144.33
X176.265Y-127.82
X177.852Y-163.38
X181.028Y-184.97
X182.615Y-125.28
X185.79Y-99.245
X185.79Y-146.87
X187.377Y-182.43
X190.552Y-165.92
X192.14Y-96.705
X192.14Y-144.33
X195.315Y-127.82
X196.903Y-163.38
X200.077Y-184.97
X201.665Y-125.28
X204.84Y-99.245
X204.84Y-146.87
X206.427Y-182.43
X209.602Y-165.92
X211.19Y-96.705
X211.19Y-144.33
X214.365Y-127.82
X215.952Y-163.38
X219.127Y-184.97
X220.715Y-125.28
X223.89Y-99.245
X223.89Y-146.87
X225.477Y-182.43
X228.653Y-165.92
X230.24Y-96.705
X230.24Y-144.33
X233.415Y-127.82
X235.002Y-163.38
X235.796Y-204.02
X238.177Y-184.97
X239.765Y-125.28
X242.146Y-201.48
X242.94Y-146.87
X244.527Y-182.43
X247.702Y-165.92
X249.29Y-144.33
X252.465Y-99.245
X252.465Y-127.82
X254.052Y-163.38
X257.227Y-184.97
X258.815Y-96.705
X258.815Y-125.28
X259.609Y-204.02
X261.99Y-146.87
X263.577Y-182.43
X265.959Y-201.48
X266.752Y-165.92
X268.34Y-144.33
X271.515Y-99.245
X271.515Y-127.82
X273.102Y-163.38
X277.865Y-96.705
X277.865Y-125.28
X281.04Y-146.87
X283.421Y-204.02
X285.803Y-165.92
X287.39Y-144.33
X289.771Y-201.48
X290.565Y-99.245
X292.152Y-163.38
X292.946Y-184.97
X296.915Y-96.705
X299.296Y-182.43
X300.09Y-127.82
X306.44Y-125.28
X307.234Y-204.02
X309.615Y-99.245
X313.565Y-155.125
X313.584Y-201.48
X315.965Y-96.705
X316.105Y-161.475
X333.428Y-99.245
X333.428Y-127.82
X333.428Y-146.87
X333.428Y-204.02
X339.777Y-96.705
X339.777Y-125.28
X339.777Y-144.33
X339.777Y-201.48
X352.477Y-99.245
X352.477Y-127.82
X352.477Y-146.87
X352.477Y-184.97
X352.477Y-204.02
X358.827Y-96.705
X358.827Y-125.28
X358.827Y-144.33
X358.827Y-182.43
X358.827Y-201.48
X371.527Y-99.245
X371.527Y-127.82
X371.527Y-146.87
X371.527Y-204.02
X377.877Y-96.705
X377.877Y-125.28
X377.877Y-144.33
X377.877Y-201.48
T4
X118.169Y-213.545
X218.169Y-213.545
X284.818Y-180.525
X291.962Y-123.375
X308.694Y-180.525
X315.838Y-123.375
X318.01Y-146.997
X318.01Y-170.873
T5
X38.525Y-212.185
X38.625Y-63.385
X48.375Y-116.085
X209.225Y-210.185
X212.225Y-116.085
X376.075Y-116.06
X385.825Y-63.385
X385.925Y-212.085
T6
X46.725Y-101.785
X46.725Y-130.36
X49.106Y-187.51
X49.106Y-206.56
X51.487Y-149.41
X53.869Y-168.46
X65.775Y-130.36
X70.537Y-187.51
X72.919Y-206.56
X75.3Y-149.41
X80.062Y-168.46
X84.825Y-101.785
X84.825Y-130.36
X89.587Y-187.51
X94.35Y-149.41
X96.731Y-206.56
X99.112Y-168.46
X103.875Y-101.785
X103.875Y-130.36
X108.637Y-187.51
X113.4Y-149.41
X118.162Y-168.46
X118.169Y-198.305
X122.925Y-101.785
X122.925Y-130.36
X127.688Y-187.51
X132.45Y-149.41
X137.213Y-168.46
X141.975Y-101.785
X141.975Y-130.36
X146.737Y-187.51
X151.5Y-149.41
X156.262Y-168.46
X161.025Y-130.36
X165.787Y-187.51
X168.169Y-206.56
X170.55Y-101.785
X170.55Y-149.41
X175.312Y-168.46
X180.075Y-130.36
X184.838Y-187.51
X189.6Y-101.785
X189.6Y-149.41
X194.362Y-168.46
X199.125Y-130.36
X203.887Y-187.51
X208.65Y-101.785
X208.65Y-149.41
X213.412Y-168.46
X218.169Y-198.305
X218.175Y-130.36
X222.938Y-187.51
X227.7Y-101.785
X227.7Y-149.41
X232.462Y-168.46
X237.225Y-130.36
X239.606Y-206.56
X241.987Y-187.51
X246.75Y-149.41
X251.512Y-168.46
X256.275Y-101.785
X256.275Y-130.36
X261.037Y-187.51
X263.419Y-206.56
X265.8Y-149.41
X270.562Y-168.46
X275.325Y-101.785
X275.325Y-130.36
X284.818Y-195.765
X284.85Y-149.41
X287.231Y-206.56
X289.613Y-168.46
X291.962Y-138.615
X294.375Y-101.785
X296.756Y-187.51
X302.77Y-146.997
X302.77Y-170.873
X303.9Y-130.36
X308.694Y-195.765
X311.025Y-158.935
X311.044Y-206.56
X313.425Y-101.785
X315.838Y-138.615
X337.238Y-101.785
X337.238Y-130.36
X337.238Y-149.41
X337.238Y-206.56
X356.287Y-101.785
X356.287Y-130.36
X356.287Y-149.41
X356.287Y-187.51
X356.287Y-206.56
X375.337Y-101.785
X375.337Y-130.36
X375.337Y-149.41
X375.337Y-206.56
T0
M30
