M48
; DRILL file {KiCad (5.1.9)-1} date 06/14/21 20:25:01
; FORMAT={-:-/ absolute / metric / decimal}
; #@! TF.CreationDate,2021-06-14T20:25:01+01:00
; #@! TF.GenerationSoftware,Kicad,Pcbnew,(5.1.9)-1
; #@! TF.FileFunction,Plated,1,4,PTH
FMAT,2
METRIC
T1C0.400
T2C0.600
T3C0.800
T4C1.000
T5C1.020
%
G90
G05
T1
X39.625Y-99.185
X39.625Y-127.885
X40.325Y-139.085
X42.025Y-184.985
X42.025Y-204.085
X44.425Y-146.885
X46.725Y-165.885
X52.565Y-96.705
X52.567Y-125.305
X54.967Y-182.505
X54.967Y-201.505
X57.367Y-144.305
X58.725Y-127.685
X59.717Y-163.355
X63.525Y-184.985
X65.825Y-203.985
X68.225Y-146.885
X71.667Y-125.305
X73.025Y-165.885
X76.367Y-182.505
X77.725Y-99.285
X77.725Y-127.885
X78.867Y-201.405
X81.167Y-144.405
X82.525Y-184.985
X85.867Y-163.405
X87.265Y-146.845
X89.625Y-203.985
X90.667Y-96.705
X90.667Y-125.305
X91.925Y-165.817
X95.467Y-182.505
X96.79Y-99.32
X96.79Y-127.72
X100.167Y-144.305
X101.553Y-184.857
X102.567Y-201.505
X104.967Y-163.205
X106.325Y-146.885
X109.767Y-96.705
X109.767Y-125.305
X111.125Y-165.885
X114.467Y-182.505
X115.825Y-99.285
X115.825Y-127.785
X119.267Y-144.305
X120.625Y-184.985
X123.967Y-163.405
X125.325Y-146.785
X128.767Y-96.705
X128.767Y-125.305
X130.125Y-165.985
X133.567Y-182.405
X134.925Y-99.285
X134.925Y-127.985
X138.267Y-144.305
X139.625Y-184.985
X143.067Y-163.405
X144.425Y-146.985
X147.767Y-125.305
X147.825Y-96.685
X149.225Y-165.985
X152.567Y-182.405
X153.925Y-127.885
X157.325Y-144.385
X158.725Y-184.985
X161.125Y-204.085
X162.125Y-163.385
X163.425Y-146.885
X163.525Y-99.385
X167.525Y-125.285
X168.225Y-165.985
X171.625Y-182.485
X173.025Y-127.985
X174.025Y-201.485
X176.425Y-96.785
X176.525Y-144.285
X177.725Y-185.085
X181.125Y-163.385
X182.525Y-99.285
X182.525Y-146.985
X185.925Y-125.285
X187.225Y-165.885
X190.525Y-213.085
X190.725Y-182.485
X192.125Y-127.885
X195.425Y-96.685
X195.425Y-144.385
X196.825Y-184.985
X200.225Y-163.485
X201.565Y-99.385
X201.565Y-146.855
X202.625Y-61.385
X205.025Y-125.285
X206.345Y-165.985
X209.725Y-182.485
X211.095Y-127.835
X211.975Y-68.659
X212.475Y-66.001
X213.725Y-195.885
X214.525Y-96.685
X214.525Y-144.285
X215.865Y-184.965
X217.181Y-70.059
X217.749Y-71.43
X219.225Y-163.385
X220.615Y-99.305
X220.635Y-146.835
X222.325Y-158.285
X222.325Y-177.085
X224.025Y-125.285
X225.52Y-165.85
X227.425Y-139.985
X228.725Y-182.485
X230.105Y-127.785
X232.535Y-204.025
X233.067Y-141.005
X233.525Y-144.385
X233.625Y-96.685
X234.915Y-184.975
X236.525Y-110.285
X238.325Y-163.385
X239.725Y-146.985
X243.125Y-125.385
X243.267Y-151.905
X244.25Y-68.76
X244.425Y-165.985
X245.525Y-201.485
X245.7Y-74.691
X247.925Y-182.385
X249.225Y-99.285
X249.225Y-127.885
X252.625Y-144.285
X253.925Y-184.985
X256.325Y-204.085
X257.325Y-163.385
X258.625Y-146.985
X262.125Y-96.685
X262.125Y-125.385
X263.425Y-165.885
X266.825Y-182.385
X268.225Y-99.285
X268.225Y-127.785
X269.225Y-201.585
X271.625Y-144.185
X276.425Y-163.385
X277.725Y-146.885
X280.125Y-204.085
X281.125Y-96.685
X281.225Y-125.285
X282.525Y-165.685
X287.475Y-99.135
X289.625Y-184.985
X290.725Y-144.385
X293.025Y-201.485
X295.525Y-163.485
X296.825Y-127.585
X300.225Y-96.685
X302.625Y-182.485
X303.825Y-68.735
X303.825Y-72.61
X303.925Y-203.985
X306.325Y-98.985
X309.625Y-125.285
X313.587Y-151.822
X316.025Y-164.885
X316.825Y-201.485
X319.23Y-96.705
X330.125Y-99.185
X330.125Y-127.885
X330.125Y-146.785
X330.125Y-203.885
X342.925Y-201.385
X343.125Y-96.685
X343.125Y-125.385
X343.125Y-144.385
X343.925Y-89.485
X349.225Y-99.285
X349.225Y-127.785
X349.225Y-146.785
X349.225Y-185.085
X349.225Y-204.085
X352.615Y-81.445
X359.725Y-195.885
X362.056Y-201.416
X362.125Y-96.685
X362.125Y-144.385
X362.125Y-182.485
X362.225Y-125.185
X368.325Y-99.285
X368.325Y-127.885
X368.325Y-146.785
X368.325Y-204.085
X381.106Y-201.366
X381.125Y-96.685
X381.225Y-125.085
X381.225Y-144.385
T3
X41.605Y-69.185
X41.705Y-73.185
X41.705Y-77.185
X41.705Y-81.185
X41.705Y-85.185
X41.705Y-89.185
X49.225Y-69.185
X49.325Y-73.185
X49.325Y-77.185
X49.325Y-81.185
X49.325Y-85.185
X49.325Y-89.185
X59.805Y-69.185
X59.805Y-73.185
X59.805Y-85.185
X67.425Y-69.185
X67.425Y-73.185
X67.425Y-85.185
X77.905Y-73.185
X77.905Y-77.185
X77.905Y-81.185
X77.905Y-85.185
X77.905Y-89.185
X85.525Y-73.185
X85.525Y-77.185
X85.525Y-81.185
X85.525Y-85.185
X85.525Y-89.185
X96.005Y-69.185
X96.005Y-73.185
X96.005Y-77.185
X96.005Y-81.185
X96.005Y-85.185
X96.005Y-89.185
X103.625Y-69.185
X103.625Y-73.185
X103.625Y-77.185
X103.625Y-81.185
X103.625Y-85.185
X103.625Y-89.185
X114.105Y-73.185
X114.105Y-77.185
X114.105Y-81.185
X114.105Y-85.185
X114.105Y-89.185
X121.725Y-73.185
X121.725Y-77.185
X121.725Y-81.185
X121.725Y-85.185
X121.725Y-89.185
X132.155Y-85.185
X132.155Y-89.185
X132.205Y-73.185
X132.205Y-77.185
X132.205Y-81.185
X139.775Y-85.185
X139.775Y-89.185
X139.825Y-73.185
X139.825Y-77.185
X139.825Y-81.185
X150.205Y-69.185
X150.205Y-73.185
X150.205Y-77.185
X150.205Y-81.185
X150.245Y-85.185
X157.825Y-69.185
X157.825Y-73.185
X157.825Y-77.185
X157.825Y-81.185
X157.865Y-85.185
X168.305Y-73.185
X168.305Y-77.185
X168.305Y-81.185
X168.335Y-85.185
X168.345Y-89.185
X175.925Y-73.185
X175.925Y-77.185
X175.925Y-81.185
X175.955Y-85.185
X175.965Y-89.185
X186.405Y-73.185
X186.405Y-77.185
X186.405Y-81.185
X186.405Y-85.185
X186.405Y-89.185
X194.025Y-73.185
X194.025Y-77.185
X194.025Y-81.185
X194.025Y-85.185
X194.025Y-89.185
X204.505Y-73.185
X204.505Y-77.185
X204.505Y-81.185
X204.505Y-85.185
X204.505Y-89.185
X212.125Y-73.185
X212.125Y-77.185
X212.125Y-81.185
X212.125Y-85.185
X212.125Y-89.185
X222.605Y-69.185
X222.605Y-73.185
X222.605Y-77.185
X222.605Y-81.185
X222.605Y-85.185
X222.605Y-89.185
X230.225Y-69.185
X230.225Y-73.185
X230.225Y-77.185
X230.225Y-81.185
X230.225Y-85.185
X230.225Y-89.185
X298.855Y-66.685
X298.855Y-70.635
X298.855Y-74.585
X298.855Y-78.535
X298.855Y-82.485
X298.855Y-86.435
X306.475Y-66.685
X306.475Y-70.635
X306.475Y-74.585
X306.475Y-78.535
X306.475Y-82.485
X306.475Y-86.435
X311.405Y-74.585
X311.405Y-78.535
X311.405Y-82.485
X311.405Y-86.435
X319.025Y-74.585
X319.025Y-78.535
X319.025Y-82.485
X319.025Y-86.435
X323.955Y-66.685
X323.955Y-70.635
X323.955Y-74.585
X323.955Y-78.535
X323.955Y-86.435
X331.575Y-66.685
X331.575Y-70.635
X331.575Y-74.585
X331.575Y-78.535
X331.575Y-86.435
X336.505Y-66.685
X336.505Y-74.585
X336.505Y-78.535
X336.505Y-82.485
X336.505Y-86.435
X344.125Y-66.685
X344.125Y-74.585
X344.125Y-78.535
X344.125Y-82.485
X344.125Y-86.435
X349.055Y-66.685
X349.055Y-78.535
X349.055Y-82.485
X349.055Y-86.435
X356.675Y-66.685
X356.675Y-78.535
X356.675Y-82.485
X356.675Y-86.435
X361.605Y-66.685
X361.605Y-70.635
X361.605Y-78.535
X361.605Y-82.485
X361.605Y-86.435
X369.225Y-66.685
X369.225Y-70.635
X369.225Y-78.535
X369.225Y-82.485
X369.225Y-86.435
X374.155Y-66.685
X374.155Y-78.535
X374.155Y-82.485
X374.155Y-86.435
X381.775Y-66.685
X381.775Y-78.535
X381.775Y-82.485
X381.775Y-86.435
T4
X242.925Y-73.694
X242.925Y-75.726
T5
X242.92Y-65.82
X242.92Y-83.6
X245.46Y-65.82
X245.46Y-83.6
X248.0Y-65.82
X248.0Y-83.6
X250.54Y-65.82
X250.54Y-83.6
X253.08Y-65.82
X253.08Y-83.6
X255.62Y-65.82
X255.62Y-83.6
X258.16Y-65.82
X258.16Y-83.6
X260.7Y-65.82
X260.7Y-83.6
X263.24Y-65.82
X263.24Y-83.6
X265.78Y-65.82
X265.78Y-83.6
X268.32Y-65.82
X268.32Y-83.6
X270.86Y-65.82
X270.86Y-83.6
X273.4Y-65.82
X273.4Y-83.6
X275.94Y-65.82
X275.94Y-83.6
X278.48Y-65.82
X278.48Y-83.6
X281.02Y-65.82
X281.02Y-83.6
X283.56Y-65.82
X283.56Y-83.6
X286.1Y-65.82
X286.1Y-83.6
X288.64Y-65.82
X288.64Y-83.6
X290.95Y-72.17
X290.95Y-74.71
X290.95Y-77.25
X291.18Y-65.82
X291.18Y-83.6
T2
X207.905Y-62.535G85X207.905Y-61.935
G05
X207.905Y-66.965G85X207.905Y-65.865
G05
X216.545Y-62.535G85X216.545Y-61.935
G05
X216.545Y-66.965G85X216.545Y-65.865
G05
T0
M30
