G04 #@! TF.GenerationSoftware,KiCad,Pcbnew,(5.1.9)-1*
G04 #@! TF.CreationDate,2021-06-14T20:25:05+01:00*
G04 #@! TF.ProjectId,ENV_KB_RGB,454e565f-4b42-45f5-9247-422e6b696361,Rev.1*
G04 #@! TF.SameCoordinates,Original*
G04 #@! TF.FileFunction,Soldermask,Top*
G04 #@! TF.FilePolarity,Negative*
%FSLAX46Y46*%
G04 Gerber Fmt 4.6, Leading zero omitted, Abs format (unit mm)*
G04 Created by KiCad (PCBNEW (5.1.9)-1) date 2021-06-14 20:25:05*
%MOMM*%
%LPD*%
G01*
G04 APERTURE LIST*
%ADD10C,4.089800*%
%ADD11C,3.150000*%
%ADD12C,1.852000*%
%ADD13C,3.102000*%
%ADD14C,0.752000*%
%ADD15O,1.702000X1.702000*%
%ADD16O,1.802000X1.802000*%
%ADD17C,3.302000*%
%ADD18C,0.150000*%
G04 APERTURE END LIST*
D10*
X302770000Y-146997000D03*
X302770000Y-170873000D03*
D11*
X318010000Y-146997000D03*
X318010000Y-170873000D03*
D12*
X311025000Y-164015000D03*
X311025000Y-153855000D03*
D13*
X313565000Y-155125000D03*
D10*
X311025000Y-158935000D03*
D13*
X316105000Y-161475000D03*
D12*
X380417500Y-206560000D03*
X370257500Y-206560000D03*
D13*
X371527500Y-204020000D03*
D10*
X375337500Y-206560000D03*
D13*
X377877500Y-201480000D03*
D12*
X361367500Y-206560000D03*
X351207500Y-206560000D03*
D13*
X352477500Y-204020000D03*
D10*
X356287500Y-206560000D03*
D13*
X358827500Y-201480000D03*
D12*
X342317500Y-206560000D03*
X332157500Y-206560000D03*
D13*
X333427500Y-204020000D03*
D10*
X337237500Y-206560000D03*
D13*
X339777500Y-201480000D03*
D12*
X316123750Y-206560000D03*
X305963750Y-206560000D03*
D13*
X307233750Y-204020000D03*
D10*
X311043750Y-206560000D03*
D13*
X313583750Y-201480000D03*
D12*
X292311250Y-206560000D03*
X282151250Y-206560000D03*
D13*
X283421250Y-204020000D03*
D10*
X287231250Y-206560000D03*
D13*
X289771250Y-201480000D03*
D12*
X268498750Y-206560000D03*
X258338750Y-206560000D03*
D13*
X259608750Y-204020000D03*
D10*
X263418750Y-206560000D03*
D13*
X265958750Y-201480000D03*
D12*
X244686250Y-206560000D03*
X234526250Y-206560000D03*
D13*
X235796250Y-204020000D03*
D10*
X239606250Y-206560000D03*
D13*
X242146250Y-201480000D03*
D10*
X118168850Y-198305000D03*
X218168650Y-198305000D03*
D11*
X118168850Y-213545000D03*
X218168650Y-213545000D03*
D12*
X173248750Y-206560000D03*
X163088750Y-206560000D03*
D13*
X164358750Y-204020000D03*
D10*
X168168750Y-206560000D03*
D13*
X170708750Y-201480000D03*
D12*
X101811250Y-206560000D03*
X91651250Y-206560000D03*
D13*
X92921250Y-204020000D03*
D10*
X96731250Y-206560000D03*
D13*
X99271250Y-201480000D03*
D12*
X77998750Y-206560000D03*
X67838750Y-206560000D03*
D13*
X69108750Y-204020000D03*
D10*
X72918750Y-206560000D03*
D13*
X75458750Y-201480000D03*
D12*
X54186250Y-206560000D03*
X44026250Y-206560000D03*
D13*
X45296250Y-204020000D03*
D10*
X49106250Y-206560000D03*
D13*
X51646250Y-201480000D03*
D12*
X361367500Y-187510000D03*
X351207500Y-187510000D03*
D13*
X352477500Y-184970000D03*
D10*
X356287500Y-187510000D03*
D13*
X358827500Y-182430000D03*
D10*
X284818250Y-195765000D03*
X308694250Y-195765000D03*
D11*
X284818250Y-180525000D03*
X308694250Y-180525000D03*
D12*
X301836250Y-187510000D03*
X291676250Y-187510000D03*
D13*
X292946250Y-184970000D03*
D10*
X296756250Y-187510000D03*
D13*
X299296250Y-182430000D03*
D12*
X266117500Y-187510000D03*
X255957500Y-187510000D03*
D13*
X257227500Y-184970000D03*
D10*
X261037500Y-187510000D03*
D13*
X263577500Y-182430000D03*
D12*
X247067500Y-187510000D03*
X236907500Y-187510000D03*
D13*
X238177500Y-184970000D03*
D10*
X241987500Y-187510000D03*
D13*
X244527500Y-182430000D03*
D12*
X228017500Y-187510000D03*
X217857500Y-187510000D03*
D13*
X219127500Y-184970000D03*
D10*
X222937500Y-187510000D03*
D13*
X225477500Y-182430000D03*
D12*
X208967500Y-187510000D03*
X198807500Y-187510000D03*
D13*
X200077500Y-184970000D03*
D10*
X203887500Y-187510000D03*
D13*
X206427500Y-182430000D03*
D12*
X189917500Y-187510000D03*
X179757500Y-187510000D03*
D13*
X181027500Y-184970000D03*
D10*
X184837500Y-187510000D03*
D13*
X187377500Y-182430000D03*
D12*
X170867500Y-187510000D03*
X160707500Y-187510000D03*
D13*
X161977500Y-184970000D03*
D10*
X165787500Y-187510000D03*
D13*
X168327500Y-182430000D03*
D12*
X151817500Y-187510000D03*
X141657500Y-187510000D03*
D13*
X142927500Y-184970000D03*
D10*
X146737500Y-187510000D03*
D13*
X149277500Y-182430000D03*
D12*
X132767500Y-187510000D03*
X122607500Y-187510000D03*
D13*
X123877500Y-184970000D03*
D10*
X127687500Y-187510000D03*
D13*
X130227500Y-182430000D03*
D12*
X113717500Y-187510000D03*
X103557500Y-187510000D03*
D13*
X104827500Y-184970000D03*
D10*
X108637500Y-187510000D03*
D13*
X111177500Y-182430000D03*
D12*
X94667500Y-187510000D03*
X84507500Y-187510000D03*
D13*
X85777500Y-184970000D03*
D10*
X89587500Y-187510000D03*
D13*
X92127500Y-182430000D03*
D12*
X75617500Y-187510000D03*
X65457500Y-187510000D03*
D13*
X66727500Y-184970000D03*
D10*
X70537500Y-187510000D03*
D13*
X73077500Y-182430000D03*
D12*
X54186250Y-187510000D03*
X44026250Y-187510000D03*
D13*
X45296250Y-184970000D03*
D10*
X49106250Y-187510000D03*
D13*
X51646250Y-182430000D03*
D12*
X294692500Y-168460000D03*
X284532500Y-168460000D03*
D13*
X285802500Y-165920000D03*
D10*
X289612500Y-168460000D03*
D13*
X292152500Y-163380000D03*
D12*
X275642500Y-168460000D03*
X265482500Y-168460000D03*
D13*
X266752500Y-165920000D03*
D10*
X270562500Y-168460000D03*
D13*
X273102500Y-163380000D03*
D12*
X256592500Y-168460000D03*
X246432500Y-168460000D03*
D13*
X247702500Y-165920000D03*
D10*
X251512500Y-168460000D03*
D13*
X254052500Y-163380000D03*
D12*
X237542500Y-168460000D03*
X227382500Y-168460000D03*
D13*
X228652500Y-165920000D03*
D10*
X232462500Y-168460000D03*
D13*
X235002500Y-163380000D03*
D12*
X218492500Y-168460000D03*
X208332500Y-168460000D03*
D13*
X209602500Y-165920000D03*
D10*
X213412500Y-168460000D03*
D13*
X215952500Y-163380000D03*
D12*
X199442500Y-168460000D03*
X189282500Y-168460000D03*
D13*
X190552500Y-165920000D03*
D10*
X194362500Y-168460000D03*
D13*
X196902500Y-163380000D03*
D12*
X180392500Y-168460000D03*
X170232500Y-168460000D03*
D13*
X171502500Y-165920000D03*
D10*
X175312500Y-168460000D03*
D13*
X177852500Y-163380000D03*
D12*
X161342500Y-168460000D03*
X151182500Y-168460000D03*
D13*
X152452500Y-165920000D03*
D10*
X156262500Y-168460000D03*
D13*
X158802500Y-163380000D03*
D12*
X142292500Y-168460000D03*
X132132500Y-168460000D03*
D13*
X133402500Y-165920000D03*
D10*
X137212500Y-168460000D03*
D13*
X139752500Y-163380000D03*
D12*
X123242500Y-168460000D03*
X113082500Y-168460000D03*
D13*
X114352500Y-165920000D03*
D10*
X118162500Y-168460000D03*
D13*
X120702500Y-163380000D03*
D12*
X104192500Y-168460000D03*
X94032500Y-168460000D03*
D13*
X95302500Y-165920000D03*
D10*
X99112500Y-168460000D03*
D13*
X101652500Y-163380000D03*
D12*
X85142500Y-168460000D03*
X74982500Y-168460000D03*
D13*
X76252500Y-165920000D03*
D10*
X80062500Y-168460000D03*
D13*
X82602500Y-163380000D03*
D12*
X58948750Y-168460000D03*
X48788750Y-168460000D03*
D13*
X50058750Y-165920000D03*
D10*
X53868750Y-168460000D03*
D13*
X56408750Y-163380000D03*
D12*
X380417500Y-149410000D03*
X370257500Y-149410000D03*
D13*
X371527500Y-146870000D03*
D10*
X375337500Y-149410000D03*
D13*
X377877500Y-144330000D03*
D12*
X361367500Y-149410000D03*
X351207500Y-149410000D03*
D13*
X352477500Y-146870000D03*
D10*
X356287500Y-149410000D03*
D13*
X358827500Y-144330000D03*
D12*
X342317500Y-149410000D03*
X332157500Y-149410000D03*
D13*
X333427500Y-146870000D03*
D10*
X337237500Y-149410000D03*
D13*
X339777500Y-144330000D03*
D12*
X289930000Y-149410000D03*
X279770000Y-149410000D03*
D13*
X281040000Y-146870000D03*
D10*
X284850000Y-149410000D03*
D13*
X287390000Y-144330000D03*
D12*
X270880000Y-149410000D03*
X260720000Y-149410000D03*
D13*
X261990000Y-146870000D03*
D10*
X265800000Y-149410000D03*
D13*
X268340000Y-144330000D03*
D12*
X251830000Y-149410000D03*
X241670000Y-149410000D03*
D13*
X242940000Y-146870000D03*
D10*
X246750000Y-149410000D03*
D13*
X249290000Y-144330000D03*
D12*
X232780000Y-149410000D03*
X222620000Y-149410000D03*
D13*
X223890000Y-146870000D03*
D10*
X227700000Y-149410000D03*
D13*
X230240000Y-144330000D03*
D12*
X213730000Y-149410000D03*
X203570000Y-149410000D03*
D13*
X204840000Y-146870000D03*
D10*
X208650000Y-149410000D03*
D13*
X211190000Y-144330000D03*
D12*
X194680000Y-149410000D03*
X184520000Y-149410000D03*
D13*
X185790000Y-146870000D03*
D10*
X189600000Y-149410000D03*
D13*
X192140000Y-144330000D03*
D12*
X175630000Y-149410000D03*
X165470000Y-149410000D03*
D13*
X166740000Y-146870000D03*
D10*
X170550000Y-149410000D03*
D13*
X173090000Y-144330000D03*
D12*
X156580000Y-149410000D03*
X146420000Y-149410000D03*
D13*
X147690000Y-146870000D03*
D10*
X151500000Y-149410000D03*
D13*
X154040000Y-144330000D03*
D12*
X137530000Y-149410000D03*
X127370000Y-149410000D03*
D13*
X128640000Y-146870000D03*
D10*
X132450000Y-149410000D03*
D13*
X134990000Y-144330000D03*
D12*
X118480000Y-149410000D03*
X108320000Y-149410000D03*
D13*
X109590000Y-146870000D03*
D10*
X113400000Y-149410000D03*
D13*
X115940000Y-144330000D03*
D12*
X99430000Y-149410000D03*
X89270000Y-149410000D03*
D13*
X90540000Y-146870000D03*
D10*
X94350000Y-149410000D03*
D13*
X96890000Y-144330000D03*
D12*
X80380000Y-149410000D03*
X70220000Y-149410000D03*
D13*
X71490000Y-146870000D03*
D10*
X75300000Y-149410000D03*
D13*
X77840000Y-144330000D03*
D12*
X56567500Y-149410000D03*
X46407500Y-149410000D03*
D13*
X47677500Y-146870000D03*
D10*
X51487500Y-149410000D03*
D13*
X54027500Y-144330000D03*
D12*
X380417500Y-130360000D03*
X370257500Y-130360000D03*
D13*
X371527500Y-127820000D03*
D10*
X375337500Y-130360000D03*
D13*
X377877500Y-125280000D03*
D12*
X361367500Y-130360000D03*
X351207500Y-130360000D03*
D13*
X352477500Y-127820000D03*
D10*
X356287500Y-130360000D03*
D13*
X358827500Y-125280000D03*
D12*
X342317500Y-130360000D03*
X332157500Y-130360000D03*
D13*
X333427500Y-127820000D03*
D10*
X337237500Y-130360000D03*
D13*
X339777500Y-125280000D03*
D10*
X291962000Y-138615000D03*
X315838000Y-138615000D03*
D11*
X291962000Y-123375000D03*
X315838000Y-123375000D03*
D12*
X308980000Y-130360000D03*
X298820000Y-130360000D03*
D13*
X300090000Y-127820000D03*
D10*
X303900000Y-130360000D03*
D13*
X306440000Y-125280000D03*
D12*
X280405000Y-130360000D03*
X270245000Y-130360000D03*
D13*
X271515000Y-127820000D03*
D10*
X275325000Y-130360000D03*
D13*
X277865000Y-125280000D03*
D12*
X261355000Y-130360000D03*
X251195000Y-130360000D03*
D13*
X252465000Y-127820000D03*
D10*
X256275000Y-130360000D03*
D13*
X258815000Y-125280000D03*
D12*
X242305000Y-130360000D03*
X232145000Y-130360000D03*
D13*
X233415000Y-127820000D03*
D10*
X237225000Y-130360000D03*
D13*
X239765000Y-125280000D03*
D12*
X223255000Y-130360000D03*
X213095000Y-130360000D03*
D13*
X214365000Y-127820000D03*
D10*
X218175000Y-130360000D03*
D13*
X220715000Y-125280000D03*
D12*
X204205000Y-130360000D03*
X194045000Y-130360000D03*
D13*
X195315000Y-127820000D03*
D10*
X199125000Y-130360000D03*
D13*
X201665000Y-125280000D03*
D12*
X185155000Y-130360000D03*
X174995000Y-130360000D03*
D13*
X176265000Y-127820000D03*
D10*
X180075000Y-130360000D03*
D13*
X182615000Y-125280000D03*
D12*
X166105000Y-130360000D03*
X155945000Y-130360000D03*
D13*
X157215000Y-127820000D03*
D10*
X161025000Y-130360000D03*
D13*
X163565000Y-125280000D03*
D12*
X147055000Y-130360000D03*
X136895000Y-130360000D03*
D13*
X138165000Y-127820000D03*
D10*
X141975000Y-130360000D03*
D13*
X144515000Y-125280000D03*
D12*
X128005000Y-130360000D03*
X117845000Y-130360000D03*
D13*
X119115000Y-127820000D03*
D10*
X122925000Y-130360000D03*
D13*
X125465000Y-125280000D03*
D12*
X108955000Y-130360000D03*
X98795000Y-130360000D03*
D13*
X100065000Y-127820000D03*
D10*
X103875000Y-130360000D03*
D13*
X106415000Y-125280000D03*
D12*
X89905000Y-130360000D03*
X79745000Y-130360000D03*
D13*
X81015000Y-127820000D03*
D10*
X84825000Y-130360000D03*
D13*
X87365000Y-125280000D03*
D12*
X70855000Y-130360000D03*
X60695000Y-130360000D03*
D13*
X61965000Y-127820000D03*
D10*
X65775000Y-130360000D03*
D13*
X68315000Y-125280000D03*
D12*
X51805000Y-130360000D03*
X41645000Y-130360000D03*
D13*
X42915000Y-127820000D03*
D10*
X46725000Y-130360000D03*
D13*
X49265000Y-125280000D03*
D12*
X380417500Y-101785000D03*
X370257500Y-101785000D03*
D13*
X371527500Y-99245000D03*
D10*
X375337500Y-101785000D03*
D13*
X377877500Y-96705000D03*
D12*
X361367500Y-101785000D03*
X351207500Y-101785000D03*
D13*
X352477500Y-99245000D03*
D10*
X356287500Y-101785000D03*
D13*
X358827500Y-96705000D03*
D12*
X342317500Y-101785000D03*
X332157500Y-101785000D03*
D13*
X333427500Y-99245000D03*
D10*
X337237500Y-101785000D03*
D13*
X339777500Y-96705000D03*
D12*
X318505000Y-101785000D03*
X308345000Y-101785000D03*
D13*
X309615000Y-99245000D03*
D10*
X313425000Y-101785000D03*
D13*
X315965000Y-96705000D03*
D12*
X299455000Y-101785000D03*
X289295000Y-101785000D03*
D13*
X290565000Y-99245000D03*
D10*
X294375000Y-101785000D03*
D13*
X296915000Y-96705000D03*
D12*
X280405000Y-101785000D03*
X270245000Y-101785000D03*
D13*
X271515000Y-99245000D03*
D10*
X275325000Y-101785000D03*
D13*
X277865000Y-96705000D03*
D12*
X261355000Y-101785000D03*
X251195000Y-101785000D03*
D13*
X252465000Y-99245000D03*
D10*
X256275000Y-101785000D03*
D13*
X258815000Y-96705000D03*
D12*
X232780000Y-101785000D03*
X222620000Y-101785000D03*
D13*
X223890000Y-99245000D03*
D10*
X227700000Y-101785000D03*
D13*
X230240000Y-96705000D03*
D12*
X213730000Y-101785000D03*
X203570000Y-101785000D03*
D13*
X204840000Y-99245000D03*
D10*
X208650000Y-101785000D03*
D13*
X211190000Y-96705000D03*
D12*
X194680000Y-101785000D03*
X184520000Y-101785000D03*
D13*
X185790000Y-99245000D03*
D10*
X189600000Y-101785000D03*
D13*
X192140000Y-96705000D03*
D12*
X175630000Y-101785000D03*
X165470000Y-101785000D03*
D13*
X166740000Y-99245000D03*
D10*
X170550000Y-101785000D03*
D13*
X173090000Y-96705000D03*
D12*
X147055000Y-101785000D03*
X136895000Y-101785000D03*
D13*
X138165000Y-99245000D03*
D10*
X141975000Y-101785000D03*
D13*
X144515000Y-96705000D03*
D12*
X128005000Y-101785000D03*
X117845000Y-101785000D03*
D13*
X119115000Y-99245000D03*
D10*
X122925000Y-101785000D03*
D13*
X125465000Y-96705000D03*
D12*
X108955000Y-101785000D03*
X98795000Y-101785000D03*
D13*
X100065000Y-99245000D03*
D10*
X103875000Y-101785000D03*
D13*
X106415000Y-96705000D03*
D12*
X89905000Y-101785000D03*
X79745000Y-101785000D03*
D13*
X81015000Y-99245000D03*
D10*
X84825000Y-101785000D03*
D13*
X87365000Y-96705000D03*
D12*
X51805000Y-101785000D03*
X41645000Y-101785000D03*
D13*
X42915000Y-99245000D03*
D10*
X46725000Y-101785000D03*
D13*
X49265000Y-96705000D03*
G36*
G01*
X209351000Y-66605000D02*
X209351000Y-68055000D01*
G75*
G02*
X209300000Y-68106000I-51000J0D01*
G01*
X208700000Y-68106000D01*
G75*
G02*
X208649000Y-68055000I0J51000D01*
G01*
X208649000Y-66605000D01*
G75*
G02*
X208700000Y-66554000I51000J0D01*
G01*
X209300000Y-66554000D01*
G75*
G02*
X209351000Y-66605000I0J-51000D01*
G01*
G37*
G36*
G01*
X215801000Y-66605000D02*
X215801000Y-68055000D01*
G75*
G02*
X215750000Y-68106000I-51000J0D01*
G01*
X215150000Y-68106000D01*
G75*
G02*
X215099000Y-68055000I0J51000D01*
G01*
X215099000Y-66605000D01*
G75*
G02*
X215150000Y-66554000I51000J0D01*
G01*
X215750000Y-66554000D01*
G75*
G02*
X215801000Y-66605000I0J-51000D01*
G01*
G37*
G36*
G01*
X210126000Y-66605000D02*
X210126000Y-68055000D01*
G75*
G02*
X210075000Y-68106000I-51000J0D01*
G01*
X209475000Y-68106000D01*
G75*
G02*
X209424000Y-68055000I0J51000D01*
G01*
X209424000Y-66605000D01*
G75*
G02*
X209475000Y-66554000I51000J0D01*
G01*
X210075000Y-66554000D01*
G75*
G02*
X210126000Y-66605000I0J-51000D01*
G01*
G37*
G36*
G01*
X215026000Y-66605000D02*
X215026000Y-68055000D01*
G75*
G02*
X214975000Y-68106000I-51000J0D01*
G01*
X214375000Y-68106000D01*
G75*
G02*
X214324000Y-68055000I0J51000D01*
G01*
X214324000Y-66605000D01*
G75*
G02*
X214375000Y-66554000I51000J0D01*
G01*
X214975000Y-66554000D01*
G75*
G02*
X215026000Y-66605000I0J-51000D01*
G01*
G37*
G36*
G01*
X214176000Y-66605000D02*
X214176000Y-68055000D01*
G75*
G02*
X214125000Y-68106000I-51000J0D01*
G01*
X213825000Y-68106000D01*
G75*
G02*
X213774000Y-68055000I0J51000D01*
G01*
X213774000Y-66605000D01*
G75*
G02*
X213825000Y-66554000I51000J0D01*
G01*
X214125000Y-66554000D01*
G75*
G02*
X214176000Y-66605000I0J-51000D01*
G01*
G37*
G36*
G01*
X210676000Y-66605000D02*
X210676000Y-68055000D01*
G75*
G02*
X210625000Y-68106000I-51000J0D01*
G01*
X210325000Y-68106000D01*
G75*
G02*
X210274000Y-68055000I0J51000D01*
G01*
X210274000Y-66605000D01*
G75*
G02*
X210325000Y-66554000I51000J0D01*
G01*
X210625000Y-66554000D01*
G75*
G02*
X210676000Y-66605000I0J-51000D01*
G01*
G37*
G36*
G01*
X213676000Y-66605000D02*
X213676000Y-68055000D01*
G75*
G02*
X213625000Y-68106000I-51000J0D01*
G01*
X213325000Y-68106000D01*
G75*
G02*
X213274000Y-68055000I0J51000D01*
G01*
X213274000Y-66605000D01*
G75*
G02*
X213325000Y-66554000I51000J0D01*
G01*
X213625000Y-66554000D01*
G75*
G02*
X213676000Y-66605000I0J-51000D01*
G01*
G37*
G36*
G01*
X211176000Y-66605000D02*
X211176000Y-68055000D01*
G75*
G02*
X211125000Y-68106000I-51000J0D01*
G01*
X210825000Y-68106000D01*
G75*
G02*
X210774000Y-68055000I0J51000D01*
G01*
X210774000Y-66605000D01*
G75*
G02*
X210825000Y-66554000I51000J0D01*
G01*
X211125000Y-66554000D01*
G75*
G02*
X211176000Y-66605000I0J-51000D01*
G01*
G37*
G36*
G01*
X213176000Y-66605000D02*
X213176000Y-68055000D01*
G75*
G02*
X213125000Y-68106000I-51000J0D01*
G01*
X212825000Y-68106000D01*
G75*
G02*
X212774000Y-68055000I0J51000D01*
G01*
X212774000Y-66605000D01*
G75*
G02*
X212825000Y-66554000I51000J0D01*
G01*
X213125000Y-66554000D01*
G75*
G02*
X213176000Y-66605000I0J-51000D01*
G01*
G37*
G36*
G01*
X211676000Y-66605000D02*
X211676000Y-68055000D01*
G75*
G02*
X211625000Y-68106000I-51000J0D01*
G01*
X211325000Y-68106000D01*
G75*
G02*
X211274000Y-68055000I0J51000D01*
G01*
X211274000Y-66605000D01*
G75*
G02*
X211325000Y-66554000I51000J0D01*
G01*
X211625000Y-66554000D01*
G75*
G02*
X211676000Y-66605000I0J-51000D01*
G01*
G37*
G36*
G01*
X212176000Y-66605000D02*
X212176000Y-68055000D01*
G75*
G02*
X212125000Y-68106000I-51000J0D01*
G01*
X211825000Y-68106000D01*
G75*
G02*
X211774000Y-68055000I0J51000D01*
G01*
X211774000Y-66605000D01*
G75*
G02*
X211825000Y-66554000I51000J0D01*
G01*
X212125000Y-66554000D01*
G75*
G02*
X212176000Y-66605000I0J-51000D01*
G01*
G37*
G36*
G01*
X212676000Y-66605000D02*
X212676000Y-68055000D01*
G75*
G02*
X212625000Y-68106000I-51000J0D01*
G01*
X212325000Y-68106000D01*
G75*
G02*
X212274000Y-68055000I0J51000D01*
G01*
X212274000Y-66605000D01*
G75*
G02*
X212325000Y-66554000I51000J0D01*
G01*
X212625000Y-66554000D01*
G75*
G02*
X212676000Y-66605000I0J-51000D01*
G01*
G37*
D14*
X209335000Y-65885000D03*
X215115000Y-65885000D03*
G36*
G01*
X382626000Y-65885000D02*
X382626000Y-67485000D01*
G75*
G02*
X382575000Y-67536000I-51000J0D01*
G01*
X380975000Y-67536000D01*
G75*
G02*
X380924000Y-67485000I0J51000D01*
G01*
X380924000Y-65885000D01*
G75*
G02*
X380975000Y-65834000I51000J0D01*
G01*
X382575000Y-65834000D01*
G75*
G02*
X382626000Y-65885000I0J-51000D01*
G01*
G37*
D15*
X374155000Y-66685000D03*
G36*
G01*
X370076000Y-65885000D02*
X370076000Y-67485000D01*
G75*
G02*
X370025000Y-67536000I-51000J0D01*
G01*
X368425000Y-67536000D01*
G75*
G02*
X368374000Y-67485000I0J51000D01*
G01*
X368374000Y-65885000D01*
G75*
G02*
X368425000Y-65834000I51000J0D01*
G01*
X370025000Y-65834000D01*
G75*
G02*
X370076000Y-65885000I0J-51000D01*
G01*
G37*
X361605000Y-66685000D03*
G36*
G01*
X357526000Y-65885000D02*
X357526000Y-67485000D01*
G75*
G02*
X357475000Y-67536000I-51000J0D01*
G01*
X355875000Y-67536000D01*
G75*
G02*
X355824000Y-67485000I0J51000D01*
G01*
X355824000Y-65885000D01*
G75*
G02*
X355875000Y-65834000I51000J0D01*
G01*
X357475000Y-65834000D01*
G75*
G02*
X357526000Y-65885000I0J-51000D01*
G01*
G37*
X349055000Y-66685000D03*
G36*
G01*
X344976000Y-65885000D02*
X344976000Y-67485000D01*
G75*
G02*
X344925000Y-67536000I-51000J0D01*
G01*
X343325000Y-67536000D01*
G75*
G02*
X343274000Y-67485000I0J51000D01*
G01*
X343274000Y-65885000D01*
G75*
G02*
X343325000Y-65834000I51000J0D01*
G01*
X344925000Y-65834000D01*
G75*
G02*
X344976000Y-65885000I0J-51000D01*
G01*
G37*
X336505000Y-66685000D03*
G36*
G01*
X332426000Y-65885000D02*
X332426000Y-67485000D01*
G75*
G02*
X332375000Y-67536000I-51000J0D01*
G01*
X330775000Y-67536000D01*
G75*
G02*
X330724000Y-67485000I0J51000D01*
G01*
X330724000Y-65885000D01*
G75*
G02*
X330775000Y-65834000I51000J0D01*
G01*
X332375000Y-65834000D01*
G75*
G02*
X332426000Y-65885000I0J-51000D01*
G01*
G37*
X323955000Y-66685000D03*
G36*
G01*
X307326000Y-65885000D02*
X307326000Y-67485000D01*
G75*
G02*
X307275000Y-67536000I-51000J0D01*
G01*
X305675000Y-67536000D01*
G75*
G02*
X305624000Y-67485000I0J51000D01*
G01*
X305624000Y-65885000D01*
G75*
G02*
X305675000Y-65834000I51000J0D01*
G01*
X307275000Y-65834000D01*
G75*
G02*
X307326000Y-65885000I0J-51000D01*
G01*
G37*
X298855000Y-66685000D03*
G36*
G01*
X231076000Y-68385000D02*
X231076000Y-69985000D01*
G75*
G02*
X231025000Y-70036000I-51000J0D01*
G01*
X229425000Y-70036000D01*
G75*
G02*
X229374000Y-69985000I0J51000D01*
G01*
X229374000Y-68385000D01*
G75*
G02*
X229425000Y-68334000I51000J0D01*
G01*
X231025000Y-68334000D01*
G75*
G02*
X231076000Y-68385000I0J-51000D01*
G01*
G37*
X222605000Y-69185000D03*
G36*
G01*
X158676000Y-68385000D02*
X158676000Y-69985000D01*
G75*
G02*
X158625000Y-70036000I-51000J0D01*
G01*
X157025000Y-70036000D01*
G75*
G02*
X156974000Y-69985000I0J51000D01*
G01*
X156974000Y-68385000D01*
G75*
G02*
X157025000Y-68334000I51000J0D01*
G01*
X158625000Y-68334000D01*
G75*
G02*
X158676000Y-68385000I0J-51000D01*
G01*
G37*
X150205000Y-69185000D03*
G36*
G01*
X104476000Y-68385000D02*
X104476000Y-69985000D01*
G75*
G02*
X104425000Y-70036000I-51000J0D01*
G01*
X102825000Y-70036000D01*
G75*
G02*
X102774000Y-69985000I0J51000D01*
G01*
X102774000Y-68385000D01*
G75*
G02*
X102825000Y-68334000I51000J0D01*
G01*
X104425000Y-68334000D01*
G75*
G02*
X104476000Y-68385000I0J-51000D01*
G01*
G37*
X96005000Y-69185000D03*
G36*
G01*
X68276000Y-68385000D02*
X68276000Y-69985000D01*
G75*
G02*
X68225000Y-70036000I-51000J0D01*
G01*
X66625000Y-70036000D01*
G75*
G02*
X66574000Y-69985000I0J51000D01*
G01*
X66574000Y-68385000D01*
G75*
G02*
X66625000Y-68334000I51000J0D01*
G01*
X68225000Y-68334000D01*
G75*
G02*
X68276000Y-68385000I0J-51000D01*
G01*
G37*
X59805000Y-69185000D03*
G36*
G01*
X50076000Y-68385000D02*
X50076000Y-69985000D01*
G75*
G02*
X50025000Y-70036000I-51000J0D01*
G01*
X48425000Y-70036000D01*
G75*
G02*
X48374000Y-69985000I0J51000D01*
G01*
X48374000Y-68385000D01*
G75*
G02*
X48425000Y-68334000I51000J0D01*
G01*
X50025000Y-68334000D01*
G75*
G02*
X50076000Y-68385000I0J-51000D01*
G01*
G37*
X41605000Y-69185000D03*
G36*
G01*
X370076000Y-69835000D02*
X370076000Y-71435000D01*
G75*
G02*
X370025000Y-71486000I-51000J0D01*
G01*
X368425000Y-71486000D01*
G75*
G02*
X368374000Y-71435000I0J51000D01*
G01*
X368374000Y-69835000D01*
G75*
G02*
X368425000Y-69784000I51000J0D01*
G01*
X370025000Y-69784000D01*
G75*
G02*
X370076000Y-69835000I0J-51000D01*
G01*
G37*
X361605000Y-70635000D03*
G36*
G01*
X332426000Y-69835000D02*
X332426000Y-71435000D01*
G75*
G02*
X332375000Y-71486000I-51000J0D01*
G01*
X330775000Y-71486000D01*
G75*
G02*
X330724000Y-71435000I0J51000D01*
G01*
X330724000Y-69835000D01*
G75*
G02*
X330775000Y-69784000I51000J0D01*
G01*
X332375000Y-69784000D01*
G75*
G02*
X332426000Y-69835000I0J-51000D01*
G01*
G37*
X323955000Y-70635000D03*
G36*
G01*
X307326000Y-69835000D02*
X307326000Y-71435000D01*
G75*
G02*
X307275000Y-71486000I-51000J0D01*
G01*
X305675000Y-71486000D01*
G75*
G02*
X305624000Y-71435000I0J51000D01*
G01*
X305624000Y-69835000D01*
G75*
G02*
X305675000Y-69784000I51000J0D01*
G01*
X307275000Y-69784000D01*
G75*
G02*
X307326000Y-69835000I0J-51000D01*
G01*
G37*
X298855000Y-70635000D03*
G36*
G01*
X231076000Y-72385000D02*
X231076000Y-73985000D01*
G75*
G02*
X231025000Y-74036000I-51000J0D01*
G01*
X229425000Y-74036000D01*
G75*
G02*
X229374000Y-73985000I0J51000D01*
G01*
X229374000Y-72385000D01*
G75*
G02*
X229425000Y-72334000I51000J0D01*
G01*
X231025000Y-72334000D01*
G75*
G02*
X231076000Y-72385000I0J-51000D01*
G01*
G37*
X222605000Y-73185000D03*
G36*
G01*
X212976000Y-72385000D02*
X212976000Y-73985000D01*
G75*
G02*
X212925000Y-74036000I-51000J0D01*
G01*
X211325000Y-74036000D01*
G75*
G02*
X211274000Y-73985000I0J51000D01*
G01*
X211274000Y-72385000D01*
G75*
G02*
X211325000Y-72334000I51000J0D01*
G01*
X212925000Y-72334000D01*
G75*
G02*
X212976000Y-72385000I0J-51000D01*
G01*
G37*
X204505000Y-73185000D03*
G36*
G01*
X194876000Y-72385000D02*
X194876000Y-73985000D01*
G75*
G02*
X194825000Y-74036000I-51000J0D01*
G01*
X193225000Y-74036000D01*
G75*
G02*
X193174000Y-73985000I0J51000D01*
G01*
X193174000Y-72385000D01*
G75*
G02*
X193225000Y-72334000I51000J0D01*
G01*
X194825000Y-72334000D01*
G75*
G02*
X194876000Y-72385000I0J-51000D01*
G01*
G37*
X186405000Y-73185000D03*
G36*
G01*
X176776000Y-72385000D02*
X176776000Y-73985000D01*
G75*
G02*
X176725000Y-74036000I-51000J0D01*
G01*
X175125000Y-74036000D01*
G75*
G02*
X175074000Y-73985000I0J51000D01*
G01*
X175074000Y-72385000D01*
G75*
G02*
X175125000Y-72334000I51000J0D01*
G01*
X176725000Y-72334000D01*
G75*
G02*
X176776000Y-72385000I0J-51000D01*
G01*
G37*
X168305000Y-73185000D03*
G36*
G01*
X158676000Y-72385000D02*
X158676000Y-73985000D01*
G75*
G02*
X158625000Y-74036000I-51000J0D01*
G01*
X157025000Y-74036000D01*
G75*
G02*
X156974000Y-73985000I0J51000D01*
G01*
X156974000Y-72385000D01*
G75*
G02*
X157025000Y-72334000I51000J0D01*
G01*
X158625000Y-72334000D01*
G75*
G02*
X158676000Y-72385000I0J-51000D01*
G01*
G37*
X150205000Y-73185000D03*
G36*
G01*
X140676000Y-72385000D02*
X140676000Y-73985000D01*
G75*
G02*
X140625000Y-74036000I-51000J0D01*
G01*
X139025000Y-74036000D01*
G75*
G02*
X138974000Y-73985000I0J51000D01*
G01*
X138974000Y-72385000D01*
G75*
G02*
X139025000Y-72334000I51000J0D01*
G01*
X140625000Y-72334000D01*
G75*
G02*
X140676000Y-72385000I0J-51000D01*
G01*
G37*
X132205000Y-73185000D03*
G36*
G01*
X122576000Y-72385000D02*
X122576000Y-73985000D01*
G75*
G02*
X122525000Y-74036000I-51000J0D01*
G01*
X120925000Y-74036000D01*
G75*
G02*
X120874000Y-73985000I0J51000D01*
G01*
X120874000Y-72385000D01*
G75*
G02*
X120925000Y-72334000I51000J0D01*
G01*
X122525000Y-72334000D01*
G75*
G02*
X122576000Y-72385000I0J-51000D01*
G01*
G37*
X114105000Y-73185000D03*
G36*
G01*
X104476000Y-72385000D02*
X104476000Y-73985000D01*
G75*
G02*
X104425000Y-74036000I-51000J0D01*
G01*
X102825000Y-74036000D01*
G75*
G02*
X102774000Y-73985000I0J51000D01*
G01*
X102774000Y-72385000D01*
G75*
G02*
X102825000Y-72334000I51000J0D01*
G01*
X104425000Y-72334000D01*
G75*
G02*
X104476000Y-72385000I0J-51000D01*
G01*
G37*
X96005000Y-73185000D03*
G36*
G01*
X86376000Y-72385000D02*
X86376000Y-73985000D01*
G75*
G02*
X86325000Y-74036000I-51000J0D01*
G01*
X84725000Y-74036000D01*
G75*
G02*
X84674000Y-73985000I0J51000D01*
G01*
X84674000Y-72385000D01*
G75*
G02*
X84725000Y-72334000I51000J0D01*
G01*
X86325000Y-72334000D01*
G75*
G02*
X86376000Y-72385000I0J-51000D01*
G01*
G37*
X77905000Y-73185000D03*
G36*
G01*
X68276000Y-72385000D02*
X68276000Y-73985000D01*
G75*
G02*
X68225000Y-74036000I-51000J0D01*
G01*
X66625000Y-74036000D01*
G75*
G02*
X66574000Y-73985000I0J51000D01*
G01*
X66574000Y-72385000D01*
G75*
G02*
X66625000Y-72334000I51000J0D01*
G01*
X68225000Y-72334000D01*
G75*
G02*
X68276000Y-72385000I0J-51000D01*
G01*
G37*
X59805000Y-73185000D03*
G36*
G01*
X50176000Y-72385000D02*
X50176000Y-73985000D01*
G75*
G02*
X50125000Y-74036000I-51000J0D01*
G01*
X48525000Y-74036000D01*
G75*
G02*
X48474000Y-73985000I0J51000D01*
G01*
X48474000Y-72385000D01*
G75*
G02*
X48525000Y-72334000I51000J0D01*
G01*
X50125000Y-72334000D01*
G75*
G02*
X50176000Y-72385000I0J-51000D01*
G01*
G37*
X41705000Y-73185000D03*
G36*
G01*
X344976000Y-73785000D02*
X344976000Y-75385000D01*
G75*
G02*
X344925000Y-75436000I-51000J0D01*
G01*
X343325000Y-75436000D01*
G75*
G02*
X343274000Y-75385000I0J51000D01*
G01*
X343274000Y-73785000D01*
G75*
G02*
X343325000Y-73734000I51000J0D01*
G01*
X344925000Y-73734000D01*
G75*
G02*
X344976000Y-73785000I0J-51000D01*
G01*
G37*
X336505000Y-74585000D03*
G36*
G01*
X332426000Y-73785000D02*
X332426000Y-75385000D01*
G75*
G02*
X332375000Y-75436000I-51000J0D01*
G01*
X330775000Y-75436000D01*
G75*
G02*
X330724000Y-75385000I0J51000D01*
G01*
X330724000Y-73785000D01*
G75*
G02*
X330775000Y-73734000I51000J0D01*
G01*
X332375000Y-73734000D01*
G75*
G02*
X332426000Y-73785000I0J-51000D01*
G01*
G37*
X323955000Y-74585000D03*
G36*
G01*
X319876000Y-73785000D02*
X319876000Y-75385000D01*
G75*
G02*
X319825000Y-75436000I-51000J0D01*
G01*
X318225000Y-75436000D01*
G75*
G02*
X318174000Y-75385000I0J51000D01*
G01*
X318174000Y-73785000D01*
G75*
G02*
X318225000Y-73734000I51000J0D01*
G01*
X319825000Y-73734000D01*
G75*
G02*
X319876000Y-73785000I0J-51000D01*
G01*
G37*
X311405000Y-74585000D03*
G36*
G01*
X307326000Y-73785000D02*
X307326000Y-75385000D01*
G75*
G02*
X307275000Y-75436000I-51000J0D01*
G01*
X305675000Y-75436000D01*
G75*
G02*
X305624000Y-75385000I0J51000D01*
G01*
X305624000Y-73785000D01*
G75*
G02*
X305675000Y-73734000I51000J0D01*
G01*
X307275000Y-73734000D01*
G75*
G02*
X307326000Y-73785000I0J-51000D01*
G01*
G37*
X298855000Y-74585000D03*
G36*
G01*
X231076000Y-76385000D02*
X231076000Y-77985000D01*
G75*
G02*
X231025000Y-78036000I-51000J0D01*
G01*
X229425000Y-78036000D01*
G75*
G02*
X229374000Y-77985000I0J51000D01*
G01*
X229374000Y-76385000D01*
G75*
G02*
X229425000Y-76334000I51000J0D01*
G01*
X231025000Y-76334000D01*
G75*
G02*
X231076000Y-76385000I0J-51000D01*
G01*
G37*
X222605000Y-77185000D03*
G36*
G01*
X212976000Y-76385000D02*
X212976000Y-77985000D01*
G75*
G02*
X212925000Y-78036000I-51000J0D01*
G01*
X211325000Y-78036000D01*
G75*
G02*
X211274000Y-77985000I0J51000D01*
G01*
X211274000Y-76385000D01*
G75*
G02*
X211325000Y-76334000I51000J0D01*
G01*
X212925000Y-76334000D01*
G75*
G02*
X212976000Y-76385000I0J-51000D01*
G01*
G37*
X204505000Y-77185000D03*
G36*
G01*
X194876000Y-76385000D02*
X194876000Y-77985000D01*
G75*
G02*
X194825000Y-78036000I-51000J0D01*
G01*
X193225000Y-78036000D01*
G75*
G02*
X193174000Y-77985000I0J51000D01*
G01*
X193174000Y-76385000D01*
G75*
G02*
X193225000Y-76334000I51000J0D01*
G01*
X194825000Y-76334000D01*
G75*
G02*
X194876000Y-76385000I0J-51000D01*
G01*
G37*
X186405000Y-77185000D03*
G36*
G01*
X176776000Y-76385000D02*
X176776000Y-77985000D01*
G75*
G02*
X176725000Y-78036000I-51000J0D01*
G01*
X175125000Y-78036000D01*
G75*
G02*
X175074000Y-77985000I0J51000D01*
G01*
X175074000Y-76385000D01*
G75*
G02*
X175125000Y-76334000I51000J0D01*
G01*
X176725000Y-76334000D01*
G75*
G02*
X176776000Y-76385000I0J-51000D01*
G01*
G37*
X168305000Y-77185000D03*
G36*
G01*
X158676000Y-76385000D02*
X158676000Y-77985000D01*
G75*
G02*
X158625000Y-78036000I-51000J0D01*
G01*
X157025000Y-78036000D01*
G75*
G02*
X156974000Y-77985000I0J51000D01*
G01*
X156974000Y-76385000D01*
G75*
G02*
X157025000Y-76334000I51000J0D01*
G01*
X158625000Y-76334000D01*
G75*
G02*
X158676000Y-76385000I0J-51000D01*
G01*
G37*
X150205000Y-77185000D03*
G36*
G01*
X140676000Y-76385000D02*
X140676000Y-77985000D01*
G75*
G02*
X140625000Y-78036000I-51000J0D01*
G01*
X139025000Y-78036000D01*
G75*
G02*
X138974000Y-77985000I0J51000D01*
G01*
X138974000Y-76385000D01*
G75*
G02*
X139025000Y-76334000I51000J0D01*
G01*
X140625000Y-76334000D01*
G75*
G02*
X140676000Y-76385000I0J-51000D01*
G01*
G37*
X132205000Y-77185000D03*
G36*
G01*
X122576000Y-76385000D02*
X122576000Y-77985000D01*
G75*
G02*
X122525000Y-78036000I-51000J0D01*
G01*
X120925000Y-78036000D01*
G75*
G02*
X120874000Y-77985000I0J51000D01*
G01*
X120874000Y-76385000D01*
G75*
G02*
X120925000Y-76334000I51000J0D01*
G01*
X122525000Y-76334000D01*
G75*
G02*
X122576000Y-76385000I0J-51000D01*
G01*
G37*
X114105000Y-77185000D03*
G36*
G01*
X104476000Y-76385000D02*
X104476000Y-77985000D01*
G75*
G02*
X104425000Y-78036000I-51000J0D01*
G01*
X102825000Y-78036000D01*
G75*
G02*
X102774000Y-77985000I0J51000D01*
G01*
X102774000Y-76385000D01*
G75*
G02*
X102825000Y-76334000I51000J0D01*
G01*
X104425000Y-76334000D01*
G75*
G02*
X104476000Y-76385000I0J-51000D01*
G01*
G37*
X96005000Y-77185000D03*
G36*
G01*
X86376000Y-76385000D02*
X86376000Y-77985000D01*
G75*
G02*
X86325000Y-78036000I-51000J0D01*
G01*
X84725000Y-78036000D01*
G75*
G02*
X84674000Y-77985000I0J51000D01*
G01*
X84674000Y-76385000D01*
G75*
G02*
X84725000Y-76334000I51000J0D01*
G01*
X86325000Y-76334000D01*
G75*
G02*
X86376000Y-76385000I0J-51000D01*
G01*
G37*
X77905000Y-77185000D03*
G36*
G01*
X50176000Y-76385000D02*
X50176000Y-77985000D01*
G75*
G02*
X50125000Y-78036000I-51000J0D01*
G01*
X48525000Y-78036000D01*
G75*
G02*
X48474000Y-77985000I0J51000D01*
G01*
X48474000Y-76385000D01*
G75*
G02*
X48525000Y-76334000I51000J0D01*
G01*
X50125000Y-76334000D01*
G75*
G02*
X50176000Y-76385000I0J-51000D01*
G01*
G37*
X41705000Y-77185000D03*
G36*
G01*
X382626000Y-77735000D02*
X382626000Y-79335000D01*
G75*
G02*
X382575000Y-79386000I-51000J0D01*
G01*
X380975000Y-79386000D01*
G75*
G02*
X380924000Y-79335000I0J51000D01*
G01*
X380924000Y-77735000D01*
G75*
G02*
X380975000Y-77684000I51000J0D01*
G01*
X382575000Y-77684000D01*
G75*
G02*
X382626000Y-77735000I0J-51000D01*
G01*
G37*
X374155000Y-78535000D03*
G36*
G01*
X370076000Y-77735000D02*
X370076000Y-79335000D01*
G75*
G02*
X370025000Y-79386000I-51000J0D01*
G01*
X368425000Y-79386000D01*
G75*
G02*
X368374000Y-79335000I0J51000D01*
G01*
X368374000Y-77735000D01*
G75*
G02*
X368425000Y-77684000I51000J0D01*
G01*
X370025000Y-77684000D01*
G75*
G02*
X370076000Y-77735000I0J-51000D01*
G01*
G37*
X361605000Y-78535000D03*
G36*
G01*
X357526000Y-77735000D02*
X357526000Y-79335000D01*
G75*
G02*
X357475000Y-79386000I-51000J0D01*
G01*
X355875000Y-79386000D01*
G75*
G02*
X355824000Y-79335000I0J51000D01*
G01*
X355824000Y-77735000D01*
G75*
G02*
X355875000Y-77684000I51000J0D01*
G01*
X357475000Y-77684000D01*
G75*
G02*
X357526000Y-77735000I0J-51000D01*
G01*
G37*
X349055000Y-78535000D03*
G36*
G01*
X344976000Y-77735000D02*
X344976000Y-79335000D01*
G75*
G02*
X344925000Y-79386000I-51000J0D01*
G01*
X343325000Y-79386000D01*
G75*
G02*
X343274000Y-79335000I0J51000D01*
G01*
X343274000Y-77735000D01*
G75*
G02*
X343325000Y-77684000I51000J0D01*
G01*
X344925000Y-77684000D01*
G75*
G02*
X344976000Y-77735000I0J-51000D01*
G01*
G37*
X336505000Y-78535000D03*
G36*
G01*
X332426000Y-77735000D02*
X332426000Y-79335000D01*
G75*
G02*
X332375000Y-79386000I-51000J0D01*
G01*
X330775000Y-79386000D01*
G75*
G02*
X330724000Y-79335000I0J51000D01*
G01*
X330724000Y-77735000D01*
G75*
G02*
X330775000Y-77684000I51000J0D01*
G01*
X332375000Y-77684000D01*
G75*
G02*
X332426000Y-77735000I0J-51000D01*
G01*
G37*
X323955000Y-78535000D03*
G36*
G01*
X319876000Y-77735000D02*
X319876000Y-79335000D01*
G75*
G02*
X319825000Y-79386000I-51000J0D01*
G01*
X318225000Y-79386000D01*
G75*
G02*
X318174000Y-79335000I0J51000D01*
G01*
X318174000Y-77735000D01*
G75*
G02*
X318225000Y-77684000I51000J0D01*
G01*
X319825000Y-77684000D01*
G75*
G02*
X319876000Y-77735000I0J-51000D01*
G01*
G37*
X311405000Y-78535000D03*
G36*
G01*
X307326000Y-77735000D02*
X307326000Y-79335000D01*
G75*
G02*
X307275000Y-79386000I-51000J0D01*
G01*
X305675000Y-79386000D01*
G75*
G02*
X305624000Y-79335000I0J51000D01*
G01*
X305624000Y-77735000D01*
G75*
G02*
X305675000Y-77684000I51000J0D01*
G01*
X307275000Y-77684000D01*
G75*
G02*
X307326000Y-77735000I0J-51000D01*
G01*
G37*
X298855000Y-78535000D03*
G36*
G01*
X231076000Y-80385000D02*
X231076000Y-81985000D01*
G75*
G02*
X231025000Y-82036000I-51000J0D01*
G01*
X229425000Y-82036000D01*
G75*
G02*
X229374000Y-81985000I0J51000D01*
G01*
X229374000Y-80385000D01*
G75*
G02*
X229425000Y-80334000I51000J0D01*
G01*
X231025000Y-80334000D01*
G75*
G02*
X231076000Y-80385000I0J-51000D01*
G01*
G37*
X222605000Y-81185000D03*
G36*
G01*
X212976000Y-80385000D02*
X212976000Y-81985000D01*
G75*
G02*
X212925000Y-82036000I-51000J0D01*
G01*
X211325000Y-82036000D01*
G75*
G02*
X211274000Y-81985000I0J51000D01*
G01*
X211274000Y-80385000D01*
G75*
G02*
X211325000Y-80334000I51000J0D01*
G01*
X212925000Y-80334000D01*
G75*
G02*
X212976000Y-80385000I0J-51000D01*
G01*
G37*
X204505000Y-81185000D03*
G36*
G01*
X194876000Y-80385000D02*
X194876000Y-81985000D01*
G75*
G02*
X194825000Y-82036000I-51000J0D01*
G01*
X193225000Y-82036000D01*
G75*
G02*
X193174000Y-81985000I0J51000D01*
G01*
X193174000Y-80385000D01*
G75*
G02*
X193225000Y-80334000I51000J0D01*
G01*
X194825000Y-80334000D01*
G75*
G02*
X194876000Y-80385000I0J-51000D01*
G01*
G37*
X186405000Y-81185000D03*
G36*
G01*
X176776000Y-80385000D02*
X176776000Y-81985000D01*
G75*
G02*
X176725000Y-82036000I-51000J0D01*
G01*
X175125000Y-82036000D01*
G75*
G02*
X175074000Y-81985000I0J51000D01*
G01*
X175074000Y-80385000D01*
G75*
G02*
X175125000Y-80334000I51000J0D01*
G01*
X176725000Y-80334000D01*
G75*
G02*
X176776000Y-80385000I0J-51000D01*
G01*
G37*
X168305000Y-81185000D03*
G36*
G01*
X158676000Y-80385000D02*
X158676000Y-81985000D01*
G75*
G02*
X158625000Y-82036000I-51000J0D01*
G01*
X157025000Y-82036000D01*
G75*
G02*
X156974000Y-81985000I0J51000D01*
G01*
X156974000Y-80385000D01*
G75*
G02*
X157025000Y-80334000I51000J0D01*
G01*
X158625000Y-80334000D01*
G75*
G02*
X158676000Y-80385000I0J-51000D01*
G01*
G37*
X150205000Y-81185000D03*
G36*
G01*
X140676000Y-80385000D02*
X140676000Y-81985000D01*
G75*
G02*
X140625000Y-82036000I-51000J0D01*
G01*
X139025000Y-82036000D01*
G75*
G02*
X138974000Y-81985000I0J51000D01*
G01*
X138974000Y-80385000D01*
G75*
G02*
X139025000Y-80334000I51000J0D01*
G01*
X140625000Y-80334000D01*
G75*
G02*
X140676000Y-80385000I0J-51000D01*
G01*
G37*
X132205000Y-81185000D03*
G36*
G01*
X122576000Y-80385000D02*
X122576000Y-81985000D01*
G75*
G02*
X122525000Y-82036000I-51000J0D01*
G01*
X120925000Y-82036000D01*
G75*
G02*
X120874000Y-81985000I0J51000D01*
G01*
X120874000Y-80385000D01*
G75*
G02*
X120925000Y-80334000I51000J0D01*
G01*
X122525000Y-80334000D01*
G75*
G02*
X122576000Y-80385000I0J-51000D01*
G01*
G37*
X114105000Y-81185000D03*
G36*
G01*
X104476000Y-80385000D02*
X104476000Y-81985000D01*
G75*
G02*
X104425000Y-82036000I-51000J0D01*
G01*
X102825000Y-82036000D01*
G75*
G02*
X102774000Y-81985000I0J51000D01*
G01*
X102774000Y-80385000D01*
G75*
G02*
X102825000Y-80334000I51000J0D01*
G01*
X104425000Y-80334000D01*
G75*
G02*
X104476000Y-80385000I0J-51000D01*
G01*
G37*
X96005000Y-81185000D03*
G36*
G01*
X86376000Y-80385000D02*
X86376000Y-81985000D01*
G75*
G02*
X86325000Y-82036000I-51000J0D01*
G01*
X84725000Y-82036000D01*
G75*
G02*
X84674000Y-81985000I0J51000D01*
G01*
X84674000Y-80385000D01*
G75*
G02*
X84725000Y-80334000I51000J0D01*
G01*
X86325000Y-80334000D01*
G75*
G02*
X86376000Y-80385000I0J-51000D01*
G01*
G37*
X77905000Y-81185000D03*
G36*
G01*
X50176000Y-80385000D02*
X50176000Y-81985000D01*
G75*
G02*
X50125000Y-82036000I-51000J0D01*
G01*
X48525000Y-82036000D01*
G75*
G02*
X48474000Y-81985000I0J51000D01*
G01*
X48474000Y-80385000D01*
G75*
G02*
X48525000Y-80334000I51000J0D01*
G01*
X50125000Y-80334000D01*
G75*
G02*
X50176000Y-80385000I0J-51000D01*
G01*
G37*
X41705000Y-81185000D03*
G36*
G01*
X382626000Y-81685000D02*
X382626000Y-83285000D01*
G75*
G02*
X382575000Y-83336000I-51000J0D01*
G01*
X380975000Y-83336000D01*
G75*
G02*
X380924000Y-83285000I0J51000D01*
G01*
X380924000Y-81685000D01*
G75*
G02*
X380975000Y-81634000I51000J0D01*
G01*
X382575000Y-81634000D01*
G75*
G02*
X382626000Y-81685000I0J-51000D01*
G01*
G37*
X374155000Y-82485000D03*
G36*
G01*
X370076000Y-81685000D02*
X370076000Y-83285000D01*
G75*
G02*
X370025000Y-83336000I-51000J0D01*
G01*
X368425000Y-83336000D01*
G75*
G02*
X368374000Y-83285000I0J51000D01*
G01*
X368374000Y-81685000D01*
G75*
G02*
X368425000Y-81634000I51000J0D01*
G01*
X370025000Y-81634000D01*
G75*
G02*
X370076000Y-81685000I0J-51000D01*
G01*
G37*
X361605000Y-82485000D03*
G36*
G01*
X357526000Y-81685000D02*
X357526000Y-83285000D01*
G75*
G02*
X357475000Y-83336000I-51000J0D01*
G01*
X355875000Y-83336000D01*
G75*
G02*
X355824000Y-83285000I0J51000D01*
G01*
X355824000Y-81685000D01*
G75*
G02*
X355875000Y-81634000I51000J0D01*
G01*
X357475000Y-81634000D01*
G75*
G02*
X357526000Y-81685000I0J-51000D01*
G01*
G37*
X349055000Y-82485000D03*
G36*
G01*
X344976000Y-81685000D02*
X344976000Y-83285000D01*
G75*
G02*
X344925000Y-83336000I-51000J0D01*
G01*
X343325000Y-83336000D01*
G75*
G02*
X343274000Y-83285000I0J51000D01*
G01*
X343274000Y-81685000D01*
G75*
G02*
X343325000Y-81634000I51000J0D01*
G01*
X344925000Y-81634000D01*
G75*
G02*
X344976000Y-81685000I0J-51000D01*
G01*
G37*
X336505000Y-82485000D03*
G36*
G01*
X319876000Y-81685000D02*
X319876000Y-83285000D01*
G75*
G02*
X319825000Y-83336000I-51000J0D01*
G01*
X318225000Y-83336000D01*
G75*
G02*
X318174000Y-83285000I0J51000D01*
G01*
X318174000Y-81685000D01*
G75*
G02*
X318225000Y-81634000I51000J0D01*
G01*
X319825000Y-81634000D01*
G75*
G02*
X319876000Y-81685000I0J-51000D01*
G01*
G37*
X311405000Y-82485000D03*
G36*
G01*
X307326000Y-81685000D02*
X307326000Y-83285000D01*
G75*
G02*
X307275000Y-83336000I-51000J0D01*
G01*
X305675000Y-83336000D01*
G75*
G02*
X305624000Y-83285000I0J51000D01*
G01*
X305624000Y-81685000D01*
G75*
G02*
X305675000Y-81634000I51000J0D01*
G01*
X307275000Y-81634000D01*
G75*
G02*
X307326000Y-81685000I0J-51000D01*
G01*
G37*
X298855000Y-82485000D03*
G36*
G01*
X231076000Y-84385000D02*
X231076000Y-85985000D01*
G75*
G02*
X231025000Y-86036000I-51000J0D01*
G01*
X229425000Y-86036000D01*
G75*
G02*
X229374000Y-85985000I0J51000D01*
G01*
X229374000Y-84385000D01*
G75*
G02*
X229425000Y-84334000I51000J0D01*
G01*
X231025000Y-84334000D01*
G75*
G02*
X231076000Y-84385000I0J-51000D01*
G01*
G37*
X222605000Y-85185000D03*
G36*
G01*
X212976000Y-84385000D02*
X212976000Y-85985000D01*
G75*
G02*
X212925000Y-86036000I-51000J0D01*
G01*
X211325000Y-86036000D01*
G75*
G02*
X211274000Y-85985000I0J51000D01*
G01*
X211274000Y-84385000D01*
G75*
G02*
X211325000Y-84334000I51000J0D01*
G01*
X212925000Y-84334000D01*
G75*
G02*
X212976000Y-84385000I0J-51000D01*
G01*
G37*
X204505000Y-85185000D03*
G36*
G01*
X194876000Y-84385000D02*
X194876000Y-85985000D01*
G75*
G02*
X194825000Y-86036000I-51000J0D01*
G01*
X193225000Y-86036000D01*
G75*
G02*
X193174000Y-85985000I0J51000D01*
G01*
X193174000Y-84385000D01*
G75*
G02*
X193225000Y-84334000I51000J0D01*
G01*
X194825000Y-84334000D01*
G75*
G02*
X194876000Y-84385000I0J-51000D01*
G01*
G37*
X186405000Y-85185000D03*
G36*
G01*
X176806000Y-84385000D02*
X176806000Y-85985000D01*
G75*
G02*
X176755000Y-86036000I-51000J0D01*
G01*
X175155000Y-86036000D01*
G75*
G02*
X175104000Y-85985000I0J51000D01*
G01*
X175104000Y-84385000D01*
G75*
G02*
X175155000Y-84334000I51000J0D01*
G01*
X176755000Y-84334000D01*
G75*
G02*
X176806000Y-84385000I0J-51000D01*
G01*
G37*
X168335000Y-85185000D03*
G36*
G01*
X158716000Y-84385000D02*
X158716000Y-85985000D01*
G75*
G02*
X158665000Y-86036000I-51000J0D01*
G01*
X157065000Y-86036000D01*
G75*
G02*
X157014000Y-85985000I0J51000D01*
G01*
X157014000Y-84385000D01*
G75*
G02*
X157065000Y-84334000I51000J0D01*
G01*
X158665000Y-84334000D01*
G75*
G02*
X158716000Y-84385000I0J-51000D01*
G01*
G37*
X150245000Y-85185000D03*
G36*
G01*
X140626000Y-84385000D02*
X140626000Y-85985000D01*
G75*
G02*
X140575000Y-86036000I-51000J0D01*
G01*
X138975000Y-86036000D01*
G75*
G02*
X138924000Y-85985000I0J51000D01*
G01*
X138924000Y-84385000D01*
G75*
G02*
X138975000Y-84334000I51000J0D01*
G01*
X140575000Y-84334000D01*
G75*
G02*
X140626000Y-84385000I0J-51000D01*
G01*
G37*
X132155000Y-85185000D03*
G36*
G01*
X122576000Y-84385000D02*
X122576000Y-85985000D01*
G75*
G02*
X122525000Y-86036000I-51000J0D01*
G01*
X120925000Y-86036000D01*
G75*
G02*
X120874000Y-85985000I0J51000D01*
G01*
X120874000Y-84385000D01*
G75*
G02*
X120925000Y-84334000I51000J0D01*
G01*
X122525000Y-84334000D01*
G75*
G02*
X122576000Y-84385000I0J-51000D01*
G01*
G37*
X114105000Y-85185000D03*
G36*
G01*
X104476000Y-84385000D02*
X104476000Y-85985000D01*
G75*
G02*
X104425000Y-86036000I-51000J0D01*
G01*
X102825000Y-86036000D01*
G75*
G02*
X102774000Y-85985000I0J51000D01*
G01*
X102774000Y-84385000D01*
G75*
G02*
X102825000Y-84334000I51000J0D01*
G01*
X104425000Y-84334000D01*
G75*
G02*
X104476000Y-84385000I0J-51000D01*
G01*
G37*
X96005000Y-85185000D03*
G36*
G01*
X86376000Y-84385000D02*
X86376000Y-85985000D01*
G75*
G02*
X86325000Y-86036000I-51000J0D01*
G01*
X84725000Y-86036000D01*
G75*
G02*
X84674000Y-85985000I0J51000D01*
G01*
X84674000Y-84385000D01*
G75*
G02*
X84725000Y-84334000I51000J0D01*
G01*
X86325000Y-84334000D01*
G75*
G02*
X86376000Y-84385000I0J-51000D01*
G01*
G37*
X77905000Y-85185000D03*
G36*
G01*
X68276000Y-84385000D02*
X68276000Y-85985000D01*
G75*
G02*
X68225000Y-86036000I-51000J0D01*
G01*
X66625000Y-86036000D01*
G75*
G02*
X66574000Y-85985000I0J51000D01*
G01*
X66574000Y-84385000D01*
G75*
G02*
X66625000Y-84334000I51000J0D01*
G01*
X68225000Y-84334000D01*
G75*
G02*
X68276000Y-84385000I0J-51000D01*
G01*
G37*
X59805000Y-85185000D03*
G36*
G01*
X50176000Y-84385000D02*
X50176000Y-85985000D01*
G75*
G02*
X50125000Y-86036000I-51000J0D01*
G01*
X48525000Y-86036000D01*
G75*
G02*
X48474000Y-85985000I0J51000D01*
G01*
X48474000Y-84385000D01*
G75*
G02*
X48525000Y-84334000I51000J0D01*
G01*
X50125000Y-84334000D01*
G75*
G02*
X50176000Y-84385000I0J-51000D01*
G01*
G37*
X41705000Y-85185000D03*
G36*
G01*
X382626000Y-85635000D02*
X382626000Y-87235000D01*
G75*
G02*
X382575000Y-87286000I-51000J0D01*
G01*
X380975000Y-87286000D01*
G75*
G02*
X380924000Y-87235000I0J51000D01*
G01*
X380924000Y-85635000D01*
G75*
G02*
X380975000Y-85584000I51000J0D01*
G01*
X382575000Y-85584000D01*
G75*
G02*
X382626000Y-85635000I0J-51000D01*
G01*
G37*
X374155000Y-86435000D03*
G36*
G01*
X370076000Y-85635000D02*
X370076000Y-87235000D01*
G75*
G02*
X370025000Y-87286000I-51000J0D01*
G01*
X368425000Y-87286000D01*
G75*
G02*
X368374000Y-87235000I0J51000D01*
G01*
X368374000Y-85635000D01*
G75*
G02*
X368425000Y-85584000I51000J0D01*
G01*
X370025000Y-85584000D01*
G75*
G02*
X370076000Y-85635000I0J-51000D01*
G01*
G37*
X361605000Y-86435000D03*
G36*
G01*
X357526000Y-85635000D02*
X357526000Y-87235000D01*
G75*
G02*
X357475000Y-87286000I-51000J0D01*
G01*
X355875000Y-87286000D01*
G75*
G02*
X355824000Y-87235000I0J51000D01*
G01*
X355824000Y-85635000D01*
G75*
G02*
X355875000Y-85584000I51000J0D01*
G01*
X357475000Y-85584000D01*
G75*
G02*
X357526000Y-85635000I0J-51000D01*
G01*
G37*
X349055000Y-86435000D03*
G36*
G01*
X344976000Y-85635000D02*
X344976000Y-87235000D01*
G75*
G02*
X344925000Y-87286000I-51000J0D01*
G01*
X343325000Y-87286000D01*
G75*
G02*
X343274000Y-87235000I0J51000D01*
G01*
X343274000Y-85635000D01*
G75*
G02*
X343325000Y-85584000I51000J0D01*
G01*
X344925000Y-85584000D01*
G75*
G02*
X344976000Y-85635000I0J-51000D01*
G01*
G37*
X336505000Y-86435000D03*
G36*
G01*
X332426000Y-85635000D02*
X332426000Y-87235000D01*
G75*
G02*
X332375000Y-87286000I-51000J0D01*
G01*
X330775000Y-87286000D01*
G75*
G02*
X330724000Y-87235000I0J51000D01*
G01*
X330724000Y-85635000D01*
G75*
G02*
X330775000Y-85584000I51000J0D01*
G01*
X332375000Y-85584000D01*
G75*
G02*
X332426000Y-85635000I0J-51000D01*
G01*
G37*
X323955000Y-86435000D03*
G36*
G01*
X319876000Y-85635000D02*
X319876000Y-87235000D01*
G75*
G02*
X319825000Y-87286000I-51000J0D01*
G01*
X318225000Y-87286000D01*
G75*
G02*
X318174000Y-87235000I0J51000D01*
G01*
X318174000Y-85635000D01*
G75*
G02*
X318225000Y-85584000I51000J0D01*
G01*
X319825000Y-85584000D01*
G75*
G02*
X319876000Y-85635000I0J-51000D01*
G01*
G37*
X311405000Y-86435000D03*
G36*
G01*
X307326000Y-85635000D02*
X307326000Y-87235000D01*
G75*
G02*
X307275000Y-87286000I-51000J0D01*
G01*
X305675000Y-87286000D01*
G75*
G02*
X305624000Y-87235000I0J51000D01*
G01*
X305624000Y-85635000D01*
G75*
G02*
X305675000Y-85584000I51000J0D01*
G01*
X307275000Y-85584000D01*
G75*
G02*
X307326000Y-85635000I0J-51000D01*
G01*
G37*
X298855000Y-86435000D03*
G36*
G01*
X231076000Y-88385000D02*
X231076000Y-89985000D01*
G75*
G02*
X231025000Y-90036000I-51000J0D01*
G01*
X229425000Y-90036000D01*
G75*
G02*
X229374000Y-89985000I0J51000D01*
G01*
X229374000Y-88385000D01*
G75*
G02*
X229425000Y-88334000I51000J0D01*
G01*
X231025000Y-88334000D01*
G75*
G02*
X231076000Y-88385000I0J-51000D01*
G01*
G37*
X222605000Y-89185000D03*
G36*
G01*
X212976000Y-88385000D02*
X212976000Y-89985000D01*
G75*
G02*
X212925000Y-90036000I-51000J0D01*
G01*
X211325000Y-90036000D01*
G75*
G02*
X211274000Y-89985000I0J51000D01*
G01*
X211274000Y-88385000D01*
G75*
G02*
X211325000Y-88334000I51000J0D01*
G01*
X212925000Y-88334000D01*
G75*
G02*
X212976000Y-88385000I0J-51000D01*
G01*
G37*
X204505000Y-89185000D03*
G36*
G01*
X194876000Y-88385000D02*
X194876000Y-89985000D01*
G75*
G02*
X194825000Y-90036000I-51000J0D01*
G01*
X193225000Y-90036000D01*
G75*
G02*
X193174000Y-89985000I0J51000D01*
G01*
X193174000Y-88385000D01*
G75*
G02*
X193225000Y-88334000I51000J0D01*
G01*
X194825000Y-88334000D01*
G75*
G02*
X194876000Y-88385000I0J-51000D01*
G01*
G37*
X186405000Y-89185000D03*
G36*
G01*
X176816000Y-88385000D02*
X176816000Y-89985000D01*
G75*
G02*
X176765000Y-90036000I-51000J0D01*
G01*
X175165000Y-90036000D01*
G75*
G02*
X175114000Y-89985000I0J51000D01*
G01*
X175114000Y-88385000D01*
G75*
G02*
X175165000Y-88334000I51000J0D01*
G01*
X176765000Y-88334000D01*
G75*
G02*
X176816000Y-88385000I0J-51000D01*
G01*
G37*
X168345000Y-89185000D03*
G36*
G01*
X140626000Y-88385000D02*
X140626000Y-89985000D01*
G75*
G02*
X140575000Y-90036000I-51000J0D01*
G01*
X138975000Y-90036000D01*
G75*
G02*
X138924000Y-89985000I0J51000D01*
G01*
X138924000Y-88385000D01*
G75*
G02*
X138975000Y-88334000I51000J0D01*
G01*
X140575000Y-88334000D01*
G75*
G02*
X140626000Y-88385000I0J-51000D01*
G01*
G37*
X132155000Y-89185000D03*
G36*
G01*
X122576000Y-88385000D02*
X122576000Y-89985000D01*
G75*
G02*
X122525000Y-90036000I-51000J0D01*
G01*
X120925000Y-90036000D01*
G75*
G02*
X120874000Y-89985000I0J51000D01*
G01*
X120874000Y-88385000D01*
G75*
G02*
X120925000Y-88334000I51000J0D01*
G01*
X122525000Y-88334000D01*
G75*
G02*
X122576000Y-88385000I0J-51000D01*
G01*
G37*
X114105000Y-89185000D03*
G36*
G01*
X104476000Y-88385000D02*
X104476000Y-89985000D01*
G75*
G02*
X104425000Y-90036000I-51000J0D01*
G01*
X102825000Y-90036000D01*
G75*
G02*
X102774000Y-89985000I0J51000D01*
G01*
X102774000Y-88385000D01*
G75*
G02*
X102825000Y-88334000I51000J0D01*
G01*
X104425000Y-88334000D01*
G75*
G02*
X104476000Y-88385000I0J-51000D01*
G01*
G37*
X96005000Y-89185000D03*
G36*
G01*
X86376000Y-88385000D02*
X86376000Y-89985000D01*
G75*
G02*
X86325000Y-90036000I-51000J0D01*
G01*
X84725000Y-90036000D01*
G75*
G02*
X84674000Y-89985000I0J51000D01*
G01*
X84674000Y-88385000D01*
G75*
G02*
X84725000Y-88334000I51000J0D01*
G01*
X86325000Y-88334000D01*
G75*
G02*
X86376000Y-88385000I0J-51000D01*
G01*
G37*
X77905000Y-89185000D03*
G36*
G01*
X50176000Y-88385000D02*
X50176000Y-89985000D01*
G75*
G02*
X50125000Y-90036000I-51000J0D01*
G01*
X48525000Y-90036000D01*
G75*
G02*
X48474000Y-89985000I0J51000D01*
G01*
X48474000Y-88385000D01*
G75*
G02*
X48525000Y-88334000I51000J0D01*
G01*
X50125000Y-88334000D01*
G75*
G02*
X50176000Y-88385000I0J-51000D01*
G01*
G37*
X41705000Y-89185000D03*
G36*
G01*
X199627000Y-67754000D02*
X200023000Y-67754000D01*
G75*
G02*
X200196000Y-67927000I0J-173000D01*
G01*
X200196000Y-68273000D01*
G75*
G02*
X200023000Y-68446000I-173000J0D01*
G01*
X199627000Y-68446000D01*
G75*
G02*
X199454000Y-68273000I0J173000D01*
G01*
X199454000Y-67927000D01*
G75*
G02*
X199627000Y-67754000I173000J0D01*
G01*
G37*
G36*
G01*
X199627000Y-68724000D02*
X200023000Y-68724000D01*
G75*
G02*
X200196000Y-68897000I0J-173000D01*
G01*
X200196000Y-69243000D01*
G75*
G02*
X200023000Y-69416000I-173000J0D01*
G01*
X199627000Y-69416000D01*
G75*
G02*
X199454000Y-69243000I0J173000D01*
G01*
X199454000Y-68897000D01*
G75*
G02*
X199627000Y-68724000I173000J0D01*
G01*
G37*
G36*
G01*
X200964500Y-67754000D02*
X201385500Y-67754000D01*
G75*
G02*
X201546000Y-67914500I0J-160500D01*
G01*
X201546000Y-68235500D01*
G75*
G02*
X201385500Y-68396000I-160500J0D01*
G01*
X200964500Y-68396000D01*
G75*
G02*
X200804000Y-68235500I0J160500D01*
G01*
X200804000Y-67914500D01*
G75*
G02*
X200964500Y-67754000I160500J0D01*
G01*
G37*
G36*
G01*
X200964500Y-68774000D02*
X201385500Y-68774000D01*
G75*
G02*
X201546000Y-68934500I0J-160500D01*
G01*
X201546000Y-69255500D01*
G75*
G02*
X201385500Y-69416000I-160500J0D01*
G01*
X200964500Y-69416000D01*
G75*
G02*
X200804000Y-69255500I0J160500D01*
G01*
X200804000Y-68934500D01*
G75*
G02*
X200964500Y-68774000I160500J0D01*
G01*
G37*
G36*
G01*
X203126000Y-60535000D02*
X203126000Y-62235000D01*
G75*
G02*
X203075000Y-62286000I-51000J0D01*
G01*
X202175000Y-62286000D01*
G75*
G02*
X202124000Y-62235000I0J51000D01*
G01*
X202124000Y-60535000D01*
G75*
G02*
X202175000Y-60484000I51000J0D01*
G01*
X203075000Y-60484000D01*
G75*
G02*
X203126000Y-60535000I0J-51000D01*
G01*
G37*
G36*
G01*
X199726000Y-60535000D02*
X199726000Y-62235000D01*
G75*
G02*
X199675000Y-62286000I-51000J0D01*
G01*
X198775000Y-62286000D01*
G75*
G02*
X198724000Y-62235000I0J51000D01*
G01*
X198724000Y-60535000D01*
G75*
G02*
X198775000Y-60484000I51000J0D01*
G01*
X199675000Y-60484000D01*
G75*
G02*
X199726000Y-60535000I0J-51000D01*
G01*
G37*
D16*
X290950000Y-72170000D03*
G36*
G01*
X293651000Y-71320000D02*
X293651000Y-73020000D01*
G75*
G02*
X293600000Y-73071000I-51000J0D01*
G01*
X290100000Y-73071000D01*
G75*
G02*
X290049000Y-73020000I0J51000D01*
G01*
X290049000Y-71320000D01*
G75*
G02*
X290100000Y-71269000I51000J0D01*
G01*
X293600000Y-71269000D01*
G75*
G02*
X293651000Y-71320000I0J-51000D01*
G01*
G37*
G36*
G01*
X291800000Y-75611000D02*
X290100000Y-75611000D01*
G75*
G02*
X290049000Y-75560000I0J51000D01*
G01*
X290049000Y-73860000D01*
G75*
G02*
X290100000Y-73809000I51000J0D01*
G01*
X291800000Y-73809000D01*
G75*
G02*
X291851000Y-73860000I0J-51000D01*
G01*
X291851000Y-75560000D01*
G75*
G02*
X291800000Y-75611000I-51000J0D01*
G01*
G37*
G36*
G01*
X293651000Y-73860000D02*
X293651000Y-75560000D01*
G75*
G02*
X293600000Y-75611000I-51000J0D01*
G01*
X290100000Y-75611000D01*
G75*
G02*
X290049000Y-75560000I0J51000D01*
G01*
X290049000Y-73860000D01*
G75*
G02*
X290100000Y-73809000I51000J0D01*
G01*
X293600000Y-73809000D01*
G75*
G02*
X293651000Y-73860000I0J-51000D01*
G01*
G37*
X290950000Y-77250000D03*
G36*
G01*
X293651000Y-76400000D02*
X293651000Y-78100000D01*
G75*
G02*
X293600000Y-78151000I-51000J0D01*
G01*
X290100000Y-78151000D01*
G75*
G02*
X290049000Y-78100000I0J51000D01*
G01*
X290049000Y-76400000D01*
G75*
G02*
X290100000Y-76349000I51000J0D01*
G01*
X293600000Y-76349000D01*
G75*
G02*
X293651000Y-76400000I0J-51000D01*
G01*
G37*
G36*
G01*
X292030000Y-66721000D02*
X290330000Y-66721000D01*
G75*
G02*
X290279000Y-66670000I0J51000D01*
G01*
X290279000Y-63170000D01*
G75*
G02*
X290330000Y-63119000I51000J0D01*
G01*
X292030000Y-63119000D01*
G75*
G02*
X292081000Y-63170000I0J-51000D01*
G01*
X292081000Y-66670000D01*
G75*
G02*
X292030000Y-66721000I-51000J0D01*
G01*
G37*
G36*
G01*
X289490000Y-66721000D02*
X287790000Y-66721000D01*
G75*
G02*
X287739000Y-66670000I0J51000D01*
G01*
X287739000Y-63170000D01*
G75*
G02*
X287790000Y-63119000I51000J0D01*
G01*
X289490000Y-63119000D01*
G75*
G02*
X289541000Y-63170000I0J-51000D01*
G01*
X289541000Y-66670000D01*
G75*
G02*
X289490000Y-66721000I-51000J0D01*
G01*
G37*
G36*
G01*
X286950000Y-66721000D02*
X285250000Y-66721000D01*
G75*
G02*
X285199000Y-66670000I0J51000D01*
G01*
X285199000Y-63170000D01*
G75*
G02*
X285250000Y-63119000I51000J0D01*
G01*
X286950000Y-63119000D01*
G75*
G02*
X287001000Y-63170000I0J-51000D01*
G01*
X287001000Y-66670000D01*
G75*
G02*
X286950000Y-66721000I-51000J0D01*
G01*
G37*
G36*
G01*
X284410000Y-66721000D02*
X282710000Y-66721000D01*
G75*
G02*
X282659000Y-66670000I0J51000D01*
G01*
X282659000Y-63170000D01*
G75*
G02*
X282710000Y-63119000I51000J0D01*
G01*
X284410000Y-63119000D01*
G75*
G02*
X284461000Y-63170000I0J-51000D01*
G01*
X284461000Y-66670000D01*
G75*
G02*
X284410000Y-66721000I-51000J0D01*
G01*
G37*
G36*
G01*
X281870000Y-66721000D02*
X280170000Y-66721000D01*
G75*
G02*
X280119000Y-66670000I0J51000D01*
G01*
X280119000Y-63170000D01*
G75*
G02*
X280170000Y-63119000I51000J0D01*
G01*
X281870000Y-63119000D01*
G75*
G02*
X281921000Y-63170000I0J-51000D01*
G01*
X281921000Y-66670000D01*
G75*
G02*
X281870000Y-66721000I-51000J0D01*
G01*
G37*
G36*
G01*
X279330000Y-66721000D02*
X277630000Y-66721000D01*
G75*
G02*
X277579000Y-66670000I0J51000D01*
G01*
X277579000Y-63170000D01*
G75*
G02*
X277630000Y-63119000I51000J0D01*
G01*
X279330000Y-63119000D01*
G75*
G02*
X279381000Y-63170000I0J-51000D01*
G01*
X279381000Y-66670000D01*
G75*
G02*
X279330000Y-66721000I-51000J0D01*
G01*
G37*
G36*
G01*
X276790000Y-66721000D02*
X275090000Y-66721000D01*
G75*
G02*
X275039000Y-66670000I0J51000D01*
G01*
X275039000Y-63170000D01*
G75*
G02*
X275090000Y-63119000I51000J0D01*
G01*
X276790000Y-63119000D01*
G75*
G02*
X276841000Y-63170000I0J-51000D01*
G01*
X276841000Y-66670000D01*
G75*
G02*
X276790000Y-66721000I-51000J0D01*
G01*
G37*
G36*
G01*
X274250000Y-66721000D02*
X272550000Y-66721000D01*
G75*
G02*
X272499000Y-66670000I0J51000D01*
G01*
X272499000Y-63170000D01*
G75*
G02*
X272550000Y-63119000I51000J0D01*
G01*
X274250000Y-63119000D01*
G75*
G02*
X274301000Y-63170000I0J-51000D01*
G01*
X274301000Y-66670000D01*
G75*
G02*
X274250000Y-66721000I-51000J0D01*
G01*
G37*
G36*
G01*
X271710000Y-66721000D02*
X270010000Y-66721000D01*
G75*
G02*
X269959000Y-66670000I0J51000D01*
G01*
X269959000Y-63170000D01*
G75*
G02*
X270010000Y-63119000I51000J0D01*
G01*
X271710000Y-63119000D01*
G75*
G02*
X271761000Y-63170000I0J-51000D01*
G01*
X271761000Y-66670000D01*
G75*
G02*
X271710000Y-66721000I-51000J0D01*
G01*
G37*
G36*
G01*
X269170000Y-66721000D02*
X267470000Y-66721000D01*
G75*
G02*
X267419000Y-66670000I0J51000D01*
G01*
X267419000Y-63170000D01*
G75*
G02*
X267470000Y-63119000I51000J0D01*
G01*
X269170000Y-63119000D01*
G75*
G02*
X269221000Y-63170000I0J-51000D01*
G01*
X269221000Y-66670000D01*
G75*
G02*
X269170000Y-66721000I-51000J0D01*
G01*
G37*
G36*
G01*
X266630000Y-66721000D02*
X264930000Y-66721000D01*
G75*
G02*
X264879000Y-66670000I0J51000D01*
G01*
X264879000Y-63170000D01*
G75*
G02*
X264930000Y-63119000I51000J0D01*
G01*
X266630000Y-63119000D01*
G75*
G02*
X266681000Y-63170000I0J-51000D01*
G01*
X266681000Y-66670000D01*
G75*
G02*
X266630000Y-66721000I-51000J0D01*
G01*
G37*
G36*
G01*
X264090000Y-66721000D02*
X262390000Y-66721000D01*
G75*
G02*
X262339000Y-66670000I0J51000D01*
G01*
X262339000Y-63170000D01*
G75*
G02*
X262390000Y-63119000I51000J0D01*
G01*
X264090000Y-63119000D01*
G75*
G02*
X264141000Y-63170000I0J-51000D01*
G01*
X264141000Y-66670000D01*
G75*
G02*
X264090000Y-66721000I-51000J0D01*
G01*
G37*
G36*
G01*
X261550000Y-66721000D02*
X259850000Y-66721000D01*
G75*
G02*
X259799000Y-66670000I0J51000D01*
G01*
X259799000Y-63170000D01*
G75*
G02*
X259850000Y-63119000I51000J0D01*
G01*
X261550000Y-63119000D01*
G75*
G02*
X261601000Y-63170000I0J-51000D01*
G01*
X261601000Y-66670000D01*
G75*
G02*
X261550000Y-66721000I-51000J0D01*
G01*
G37*
G36*
G01*
X259010000Y-66721000D02*
X257310000Y-66721000D01*
G75*
G02*
X257259000Y-66670000I0J51000D01*
G01*
X257259000Y-63170000D01*
G75*
G02*
X257310000Y-63119000I51000J0D01*
G01*
X259010000Y-63119000D01*
G75*
G02*
X259061000Y-63170000I0J-51000D01*
G01*
X259061000Y-66670000D01*
G75*
G02*
X259010000Y-66721000I-51000J0D01*
G01*
G37*
G36*
G01*
X256470000Y-66721000D02*
X254770000Y-66721000D01*
G75*
G02*
X254719000Y-66670000I0J51000D01*
G01*
X254719000Y-63170000D01*
G75*
G02*
X254770000Y-63119000I51000J0D01*
G01*
X256470000Y-63119000D01*
G75*
G02*
X256521000Y-63170000I0J-51000D01*
G01*
X256521000Y-66670000D01*
G75*
G02*
X256470000Y-66721000I-51000J0D01*
G01*
G37*
G36*
G01*
X253930000Y-66721000D02*
X252230000Y-66721000D01*
G75*
G02*
X252179000Y-66670000I0J51000D01*
G01*
X252179000Y-63170000D01*
G75*
G02*
X252230000Y-63119000I51000J0D01*
G01*
X253930000Y-63119000D01*
G75*
G02*
X253981000Y-63170000I0J-51000D01*
G01*
X253981000Y-66670000D01*
G75*
G02*
X253930000Y-66721000I-51000J0D01*
G01*
G37*
G36*
G01*
X251390000Y-66721000D02*
X249690000Y-66721000D01*
G75*
G02*
X249639000Y-66670000I0J51000D01*
G01*
X249639000Y-63170000D01*
G75*
G02*
X249690000Y-63119000I51000J0D01*
G01*
X251390000Y-63119000D01*
G75*
G02*
X251441000Y-63170000I0J-51000D01*
G01*
X251441000Y-66670000D01*
G75*
G02*
X251390000Y-66721000I-51000J0D01*
G01*
G37*
G36*
G01*
X248850000Y-66721000D02*
X247150000Y-66721000D01*
G75*
G02*
X247099000Y-66670000I0J51000D01*
G01*
X247099000Y-63170000D01*
G75*
G02*
X247150000Y-63119000I51000J0D01*
G01*
X248850000Y-63119000D01*
G75*
G02*
X248901000Y-63170000I0J-51000D01*
G01*
X248901000Y-66670000D01*
G75*
G02*
X248850000Y-66721000I-51000J0D01*
G01*
G37*
G36*
G01*
X246310000Y-66721000D02*
X244610000Y-66721000D01*
G75*
G02*
X244559000Y-66670000I0J51000D01*
G01*
X244559000Y-63170000D01*
G75*
G02*
X244610000Y-63119000I51000J0D01*
G01*
X246310000Y-63119000D01*
G75*
G02*
X246361000Y-63170000I0J-51000D01*
G01*
X246361000Y-66670000D01*
G75*
G02*
X246310000Y-66721000I-51000J0D01*
G01*
G37*
G36*
G01*
X243770000Y-66721000D02*
X242070000Y-66721000D01*
G75*
G02*
X242019000Y-66670000I0J51000D01*
G01*
X242019000Y-63170000D01*
G75*
G02*
X242070000Y-63119000I51000J0D01*
G01*
X243770000Y-63119000D01*
G75*
G02*
X243821000Y-63170000I0J-51000D01*
G01*
X243821000Y-66670000D01*
G75*
G02*
X243770000Y-66721000I-51000J0D01*
G01*
G37*
G36*
G01*
X292030000Y-86301000D02*
X290330000Y-86301000D01*
G75*
G02*
X290279000Y-86250000I0J51000D01*
G01*
X290279000Y-82750000D01*
G75*
G02*
X290330000Y-82699000I51000J0D01*
G01*
X292030000Y-82699000D01*
G75*
G02*
X292081000Y-82750000I0J-51000D01*
G01*
X292081000Y-86250000D01*
G75*
G02*
X292030000Y-86301000I-51000J0D01*
G01*
G37*
G36*
G01*
X289490000Y-86301000D02*
X287790000Y-86301000D01*
G75*
G02*
X287739000Y-86250000I0J51000D01*
G01*
X287739000Y-82750000D01*
G75*
G02*
X287790000Y-82699000I51000J0D01*
G01*
X289490000Y-82699000D01*
G75*
G02*
X289541000Y-82750000I0J-51000D01*
G01*
X289541000Y-86250000D01*
G75*
G02*
X289490000Y-86301000I-51000J0D01*
G01*
G37*
G36*
G01*
X286950000Y-86301000D02*
X285250000Y-86301000D01*
G75*
G02*
X285199000Y-86250000I0J51000D01*
G01*
X285199000Y-82750000D01*
G75*
G02*
X285250000Y-82699000I51000J0D01*
G01*
X286950000Y-82699000D01*
G75*
G02*
X287001000Y-82750000I0J-51000D01*
G01*
X287001000Y-86250000D01*
G75*
G02*
X286950000Y-86301000I-51000J0D01*
G01*
G37*
G36*
G01*
X284410000Y-86301000D02*
X282710000Y-86301000D01*
G75*
G02*
X282659000Y-86250000I0J51000D01*
G01*
X282659000Y-82750000D01*
G75*
G02*
X282710000Y-82699000I51000J0D01*
G01*
X284410000Y-82699000D01*
G75*
G02*
X284461000Y-82750000I0J-51000D01*
G01*
X284461000Y-86250000D01*
G75*
G02*
X284410000Y-86301000I-51000J0D01*
G01*
G37*
G36*
G01*
X281870000Y-86301000D02*
X280170000Y-86301000D01*
G75*
G02*
X280119000Y-86250000I0J51000D01*
G01*
X280119000Y-82750000D01*
G75*
G02*
X280170000Y-82699000I51000J0D01*
G01*
X281870000Y-82699000D01*
G75*
G02*
X281921000Y-82750000I0J-51000D01*
G01*
X281921000Y-86250000D01*
G75*
G02*
X281870000Y-86301000I-51000J0D01*
G01*
G37*
G36*
G01*
X279330000Y-86301000D02*
X277630000Y-86301000D01*
G75*
G02*
X277579000Y-86250000I0J51000D01*
G01*
X277579000Y-82750000D01*
G75*
G02*
X277630000Y-82699000I51000J0D01*
G01*
X279330000Y-82699000D01*
G75*
G02*
X279381000Y-82750000I0J-51000D01*
G01*
X279381000Y-86250000D01*
G75*
G02*
X279330000Y-86301000I-51000J0D01*
G01*
G37*
G36*
G01*
X276790000Y-86301000D02*
X275090000Y-86301000D01*
G75*
G02*
X275039000Y-86250000I0J51000D01*
G01*
X275039000Y-82750000D01*
G75*
G02*
X275090000Y-82699000I51000J0D01*
G01*
X276790000Y-82699000D01*
G75*
G02*
X276841000Y-82750000I0J-51000D01*
G01*
X276841000Y-86250000D01*
G75*
G02*
X276790000Y-86301000I-51000J0D01*
G01*
G37*
G36*
G01*
X274250000Y-86301000D02*
X272550000Y-86301000D01*
G75*
G02*
X272499000Y-86250000I0J51000D01*
G01*
X272499000Y-82750000D01*
G75*
G02*
X272550000Y-82699000I51000J0D01*
G01*
X274250000Y-82699000D01*
G75*
G02*
X274301000Y-82750000I0J-51000D01*
G01*
X274301000Y-86250000D01*
G75*
G02*
X274250000Y-86301000I-51000J0D01*
G01*
G37*
G36*
G01*
X271710000Y-86301000D02*
X270010000Y-86301000D01*
G75*
G02*
X269959000Y-86250000I0J51000D01*
G01*
X269959000Y-82750000D01*
G75*
G02*
X270010000Y-82699000I51000J0D01*
G01*
X271710000Y-82699000D01*
G75*
G02*
X271761000Y-82750000I0J-51000D01*
G01*
X271761000Y-86250000D01*
G75*
G02*
X271710000Y-86301000I-51000J0D01*
G01*
G37*
G36*
G01*
X269170000Y-86301000D02*
X267470000Y-86301000D01*
G75*
G02*
X267419000Y-86250000I0J51000D01*
G01*
X267419000Y-82750000D01*
G75*
G02*
X267470000Y-82699000I51000J0D01*
G01*
X269170000Y-82699000D01*
G75*
G02*
X269221000Y-82750000I0J-51000D01*
G01*
X269221000Y-86250000D01*
G75*
G02*
X269170000Y-86301000I-51000J0D01*
G01*
G37*
G36*
G01*
X266630000Y-86301000D02*
X264930000Y-86301000D01*
G75*
G02*
X264879000Y-86250000I0J51000D01*
G01*
X264879000Y-82750000D01*
G75*
G02*
X264930000Y-82699000I51000J0D01*
G01*
X266630000Y-82699000D01*
G75*
G02*
X266681000Y-82750000I0J-51000D01*
G01*
X266681000Y-86250000D01*
G75*
G02*
X266630000Y-86301000I-51000J0D01*
G01*
G37*
G36*
G01*
X264090000Y-86301000D02*
X262390000Y-86301000D01*
G75*
G02*
X262339000Y-86250000I0J51000D01*
G01*
X262339000Y-82750000D01*
G75*
G02*
X262390000Y-82699000I51000J0D01*
G01*
X264090000Y-82699000D01*
G75*
G02*
X264141000Y-82750000I0J-51000D01*
G01*
X264141000Y-86250000D01*
G75*
G02*
X264090000Y-86301000I-51000J0D01*
G01*
G37*
G36*
G01*
X261550000Y-86301000D02*
X259850000Y-86301000D01*
G75*
G02*
X259799000Y-86250000I0J51000D01*
G01*
X259799000Y-82750000D01*
G75*
G02*
X259850000Y-82699000I51000J0D01*
G01*
X261550000Y-82699000D01*
G75*
G02*
X261601000Y-82750000I0J-51000D01*
G01*
X261601000Y-86250000D01*
G75*
G02*
X261550000Y-86301000I-51000J0D01*
G01*
G37*
G36*
G01*
X259010000Y-86301000D02*
X257310000Y-86301000D01*
G75*
G02*
X257259000Y-86250000I0J51000D01*
G01*
X257259000Y-82750000D01*
G75*
G02*
X257310000Y-82699000I51000J0D01*
G01*
X259010000Y-82699000D01*
G75*
G02*
X259061000Y-82750000I0J-51000D01*
G01*
X259061000Y-86250000D01*
G75*
G02*
X259010000Y-86301000I-51000J0D01*
G01*
G37*
G36*
G01*
X256470000Y-86301000D02*
X254770000Y-86301000D01*
G75*
G02*
X254719000Y-86250000I0J51000D01*
G01*
X254719000Y-82750000D01*
G75*
G02*
X254770000Y-82699000I51000J0D01*
G01*
X256470000Y-82699000D01*
G75*
G02*
X256521000Y-82750000I0J-51000D01*
G01*
X256521000Y-86250000D01*
G75*
G02*
X256470000Y-86301000I-51000J0D01*
G01*
G37*
G36*
G01*
X253930000Y-86301000D02*
X252230000Y-86301000D01*
G75*
G02*
X252179000Y-86250000I0J51000D01*
G01*
X252179000Y-82750000D01*
G75*
G02*
X252230000Y-82699000I51000J0D01*
G01*
X253930000Y-82699000D01*
G75*
G02*
X253981000Y-82750000I0J-51000D01*
G01*
X253981000Y-86250000D01*
G75*
G02*
X253930000Y-86301000I-51000J0D01*
G01*
G37*
G36*
G01*
X251390000Y-86301000D02*
X249690000Y-86301000D01*
G75*
G02*
X249639000Y-86250000I0J51000D01*
G01*
X249639000Y-82750000D01*
G75*
G02*
X249690000Y-82699000I51000J0D01*
G01*
X251390000Y-82699000D01*
G75*
G02*
X251441000Y-82750000I0J-51000D01*
G01*
X251441000Y-86250000D01*
G75*
G02*
X251390000Y-86301000I-51000J0D01*
G01*
G37*
G36*
G01*
X248850000Y-86301000D02*
X247150000Y-86301000D01*
G75*
G02*
X247099000Y-86250000I0J51000D01*
G01*
X247099000Y-82750000D01*
G75*
G02*
X247150000Y-82699000I51000J0D01*
G01*
X248850000Y-82699000D01*
G75*
G02*
X248901000Y-82750000I0J-51000D01*
G01*
X248901000Y-86250000D01*
G75*
G02*
X248850000Y-86301000I-51000J0D01*
G01*
G37*
G36*
G01*
X246310000Y-86301000D02*
X244610000Y-86301000D01*
G75*
G02*
X244559000Y-86250000I0J51000D01*
G01*
X244559000Y-82750000D01*
G75*
G02*
X244610000Y-82699000I51000J0D01*
G01*
X246310000Y-82699000D01*
G75*
G02*
X246361000Y-82750000I0J-51000D01*
G01*
X246361000Y-86250000D01*
G75*
G02*
X246310000Y-86301000I-51000J0D01*
G01*
G37*
G36*
G01*
X243770000Y-86301000D02*
X242070000Y-86301000D01*
G75*
G02*
X242019000Y-86250000I0J51000D01*
G01*
X242019000Y-82750000D01*
G75*
G02*
X242070000Y-82699000I51000J0D01*
G01*
X243770000Y-82699000D01*
G75*
G02*
X243821000Y-82750000I0J-51000D01*
G01*
X243821000Y-86250000D01*
G75*
G02*
X243770000Y-86301000I-51000J0D01*
G01*
G37*
X242920000Y-65820000D03*
X245460000Y-65820000D03*
G36*
G01*
X248850000Y-66721000D02*
X247150000Y-66721000D01*
G75*
G02*
X247099000Y-66670000I0J51000D01*
G01*
X247099000Y-64970000D01*
G75*
G02*
X247150000Y-64919000I51000J0D01*
G01*
X248850000Y-64919000D01*
G75*
G02*
X248901000Y-64970000I0J-51000D01*
G01*
X248901000Y-66670000D01*
G75*
G02*
X248850000Y-66721000I-51000J0D01*
G01*
G37*
X250540000Y-65820000D03*
X253080000Y-65820000D03*
X255620000Y-65820000D03*
X258160000Y-65820000D03*
G36*
G01*
X261550000Y-66721000D02*
X259850000Y-66721000D01*
G75*
G02*
X259799000Y-66670000I0J51000D01*
G01*
X259799000Y-64970000D01*
G75*
G02*
X259850000Y-64919000I51000J0D01*
G01*
X261550000Y-64919000D01*
G75*
G02*
X261601000Y-64970000I0J-51000D01*
G01*
X261601000Y-66670000D01*
G75*
G02*
X261550000Y-66721000I-51000J0D01*
G01*
G37*
X263240000Y-65820000D03*
X265780000Y-65820000D03*
X268320000Y-65820000D03*
X270860000Y-65820000D03*
G36*
G01*
X274250000Y-66721000D02*
X272550000Y-66721000D01*
G75*
G02*
X272499000Y-66670000I0J51000D01*
G01*
X272499000Y-64970000D01*
G75*
G02*
X272550000Y-64919000I51000J0D01*
G01*
X274250000Y-64919000D01*
G75*
G02*
X274301000Y-64970000I0J-51000D01*
G01*
X274301000Y-66670000D01*
G75*
G02*
X274250000Y-66721000I-51000J0D01*
G01*
G37*
X275940000Y-65820000D03*
X278480000Y-65820000D03*
X281020000Y-65820000D03*
X283560000Y-65820000D03*
G36*
G01*
X286950000Y-66721000D02*
X285250000Y-66721000D01*
G75*
G02*
X285199000Y-66670000I0J51000D01*
G01*
X285199000Y-64970000D01*
G75*
G02*
X285250000Y-64919000I51000J0D01*
G01*
X286950000Y-64919000D01*
G75*
G02*
X287001000Y-64970000I0J-51000D01*
G01*
X287001000Y-66670000D01*
G75*
G02*
X286950000Y-66721000I-51000J0D01*
G01*
G37*
X288640000Y-65820000D03*
X291180000Y-65820000D03*
X291180000Y-83600000D03*
X288640000Y-83600000D03*
G36*
G01*
X286950000Y-84501000D02*
X285250000Y-84501000D01*
G75*
G02*
X285199000Y-84450000I0J51000D01*
G01*
X285199000Y-82750000D01*
G75*
G02*
X285250000Y-82699000I51000J0D01*
G01*
X286950000Y-82699000D01*
G75*
G02*
X287001000Y-82750000I0J-51000D01*
G01*
X287001000Y-84450000D01*
G75*
G02*
X286950000Y-84501000I-51000J0D01*
G01*
G37*
X283560000Y-83600000D03*
X281020000Y-83600000D03*
X278480000Y-83600000D03*
X275940000Y-83600000D03*
G36*
G01*
X274250000Y-84501000D02*
X272550000Y-84501000D01*
G75*
G02*
X272499000Y-84450000I0J51000D01*
G01*
X272499000Y-82750000D01*
G75*
G02*
X272550000Y-82699000I51000J0D01*
G01*
X274250000Y-82699000D01*
G75*
G02*
X274301000Y-82750000I0J-51000D01*
G01*
X274301000Y-84450000D01*
G75*
G02*
X274250000Y-84501000I-51000J0D01*
G01*
G37*
X270860000Y-83600000D03*
X268320000Y-83600000D03*
X265780000Y-83600000D03*
X263240000Y-83600000D03*
G36*
G01*
X261550000Y-84501000D02*
X259850000Y-84501000D01*
G75*
G02*
X259799000Y-84450000I0J51000D01*
G01*
X259799000Y-82750000D01*
G75*
G02*
X259850000Y-82699000I51000J0D01*
G01*
X261550000Y-82699000D01*
G75*
G02*
X261601000Y-82750000I0J-51000D01*
G01*
X261601000Y-84450000D01*
G75*
G02*
X261550000Y-84501000I-51000J0D01*
G01*
G37*
X258160000Y-83600000D03*
X255620000Y-83600000D03*
X253080000Y-83600000D03*
X250540000Y-83600000D03*
G36*
G01*
X248850000Y-84501000D02*
X247150000Y-84501000D01*
G75*
G02*
X247099000Y-84450000I0J51000D01*
G01*
X247099000Y-82750000D01*
G75*
G02*
X247150000Y-82699000I51000J0D01*
G01*
X248850000Y-82699000D01*
G75*
G02*
X248901000Y-82750000I0J-51000D01*
G01*
X248901000Y-84450000D01*
G75*
G02*
X248850000Y-84501000I-51000J0D01*
G01*
G37*
X245460000Y-83600000D03*
X242920000Y-83600000D03*
G36*
G01*
X246163000Y-75636000D02*
X245237000Y-75636000D01*
G75*
G02*
X244774000Y-75173000I0J463000D01*
G01*
X244774000Y-74247000D01*
G75*
G02*
X245237000Y-73784000I463000J0D01*
G01*
X246163000Y-73784000D01*
G75*
G02*
X246626000Y-74247000I0J-463000D01*
G01*
X246626000Y-75173000D01*
G75*
G02*
X246163000Y-75636000I-463000J0D01*
G01*
G37*
G36*
G01*
X243388000Y-76652000D02*
X242462000Y-76652000D01*
G75*
G02*
X241999000Y-76189000I0J463000D01*
G01*
X241999000Y-75263000D01*
G75*
G02*
X242462000Y-74800000I463000J0D01*
G01*
X243388000Y-74800000D01*
G75*
G02*
X243851000Y-75263000I0J-463000D01*
G01*
X243851000Y-76189000D01*
G75*
G02*
X243388000Y-76652000I-463000J0D01*
G01*
G37*
G36*
G01*
X243388000Y-74620000D02*
X242462000Y-74620000D01*
G75*
G02*
X241999000Y-74157000I0J463000D01*
G01*
X241999000Y-73231000D01*
G75*
G02*
X242462000Y-72768000I463000J0D01*
G01*
X243388000Y-72768000D01*
G75*
G02*
X243851000Y-73231000I0J-463000D01*
G01*
X243851000Y-74157000D01*
G75*
G02*
X243388000Y-74620000I-463000J0D01*
G01*
G37*
D17*
X376075000Y-116060000D03*
X48375000Y-116085000D03*
X209225000Y-210185000D03*
X212225000Y-116085000D03*
X385925000Y-212085000D03*
X38525000Y-212185000D03*
X385825000Y-63385000D03*
X38625000Y-63385000D03*
G36*
G01*
X203664500Y-67754000D02*
X204085500Y-67754000D01*
G75*
G02*
X204246000Y-67914500I0J-160500D01*
G01*
X204246000Y-68235500D01*
G75*
G02*
X204085500Y-68396000I-160500J0D01*
G01*
X203664500Y-68396000D01*
G75*
G02*
X203504000Y-68235500I0J160500D01*
G01*
X203504000Y-67914500D01*
G75*
G02*
X203664500Y-67754000I160500J0D01*
G01*
G37*
G36*
G01*
X203664500Y-68774000D02*
X204085500Y-68774000D01*
G75*
G02*
X204246000Y-68934500I0J-160500D01*
G01*
X204246000Y-69255500D01*
G75*
G02*
X204085500Y-69416000I-160500J0D01*
G01*
X203664500Y-69416000D01*
G75*
G02*
X203504000Y-69255500I0J160500D01*
G01*
X203504000Y-68934500D01*
G75*
G02*
X203664500Y-68774000I160500J0D01*
G01*
G37*
G36*
G01*
X202314500Y-68774000D02*
X202735500Y-68774000D01*
G75*
G02*
X202896000Y-68934500I0J-160500D01*
G01*
X202896000Y-69255500D01*
G75*
G02*
X202735500Y-69416000I-160500J0D01*
G01*
X202314500Y-69416000D01*
G75*
G02*
X202154000Y-69255500I0J160500D01*
G01*
X202154000Y-68934500D01*
G75*
G02*
X202314500Y-68774000I160500J0D01*
G01*
G37*
G36*
G01*
X202314500Y-67754000D02*
X202735500Y-67754000D01*
G75*
G02*
X202896000Y-67914500I0J-160500D01*
G01*
X202896000Y-68235500D01*
G75*
G02*
X202735500Y-68396000I-160500J0D01*
G01*
X202314500Y-68396000D01*
G75*
G02*
X202154000Y-68235500I0J160500D01*
G01*
X202154000Y-67914500D01*
G75*
G02*
X202314500Y-67754000I160500J0D01*
G01*
G37*
D18*
G36*
X243852165Y-76187374D02*
G01*
X243853000Y-76189000D01*
X243853000Y-76245360D01*
X243852990Y-76245556D01*
X243844702Y-76329710D01*
X243844626Y-76330095D01*
X243821869Y-76405115D01*
X243821719Y-76405477D01*
X243784764Y-76474614D01*
X243784546Y-76474940D01*
X243734815Y-76535538D01*
X243734538Y-76535815D01*
X243673940Y-76585546D01*
X243673614Y-76585764D01*
X243604477Y-76622719D01*
X243604115Y-76622869D01*
X243529095Y-76645626D01*
X243528710Y-76645702D01*
X243444556Y-76653990D01*
X243444360Y-76654000D01*
X243388000Y-76654000D01*
X243386268Y-76653000D01*
X243386268Y-76651000D01*
X243387804Y-76650010D01*
X243477932Y-76641134D01*
X243564413Y-76614899D01*
X243644113Y-76572299D01*
X243713969Y-76514969D01*
X243771299Y-76445113D01*
X243813899Y-76365413D01*
X243840134Y-76278932D01*
X243849010Y-76188804D01*
X243850175Y-76187178D01*
X243852165Y-76187374D01*
G37*
G36*
X242000990Y-76188804D02*
G01*
X242009866Y-76278932D01*
X242036101Y-76365413D01*
X242078701Y-76445113D01*
X242136031Y-76514969D01*
X242205887Y-76572299D01*
X242285587Y-76614899D01*
X242372068Y-76641134D01*
X242462196Y-76650010D01*
X242463822Y-76651175D01*
X242463626Y-76653165D01*
X242462000Y-76654000D01*
X242405640Y-76654000D01*
X242405444Y-76653990D01*
X242321290Y-76645702D01*
X242320905Y-76645626D01*
X242245885Y-76622869D01*
X242245523Y-76622719D01*
X242176386Y-76585764D01*
X242176060Y-76585546D01*
X242115462Y-76535815D01*
X242115185Y-76535538D01*
X242065454Y-76474940D01*
X242065236Y-76474614D01*
X242028281Y-76405477D01*
X242028131Y-76405115D01*
X242005374Y-76330095D01*
X242005298Y-76329710D01*
X241997010Y-76245556D01*
X241997000Y-76245360D01*
X241997000Y-76189000D01*
X241998000Y-76187268D01*
X242000000Y-76187268D01*
X242000990Y-76188804D01*
G37*
G36*
X244775990Y-75172804D02*
G01*
X244784866Y-75262932D01*
X244811101Y-75349413D01*
X244853701Y-75429113D01*
X244911031Y-75498969D01*
X244980887Y-75556299D01*
X245060587Y-75598899D01*
X245147068Y-75625134D01*
X245237196Y-75634010D01*
X245238822Y-75635175D01*
X245238626Y-75637165D01*
X245237000Y-75638000D01*
X245180640Y-75638000D01*
X245180444Y-75637990D01*
X245096290Y-75629702D01*
X245095905Y-75629626D01*
X245020885Y-75606869D01*
X245020523Y-75606719D01*
X244951386Y-75569764D01*
X244951060Y-75569546D01*
X244890462Y-75519815D01*
X244890185Y-75519538D01*
X244840454Y-75458940D01*
X244840236Y-75458614D01*
X244803281Y-75389477D01*
X244803131Y-75389115D01*
X244780374Y-75314095D01*
X244780298Y-75313710D01*
X244772010Y-75229556D01*
X244772000Y-75229360D01*
X244772000Y-75173000D01*
X244773000Y-75171268D01*
X244775000Y-75171268D01*
X244775990Y-75172804D01*
G37*
G36*
X246627165Y-75171374D02*
G01*
X246628000Y-75173000D01*
X246628000Y-75229360D01*
X246627990Y-75229556D01*
X246619702Y-75313710D01*
X246619626Y-75314095D01*
X246596869Y-75389115D01*
X246596719Y-75389477D01*
X246559764Y-75458614D01*
X246559546Y-75458940D01*
X246509815Y-75519538D01*
X246509538Y-75519815D01*
X246448940Y-75569546D01*
X246448614Y-75569764D01*
X246379477Y-75606719D01*
X246379115Y-75606869D01*
X246304095Y-75629626D01*
X246303710Y-75629702D01*
X246219556Y-75637990D01*
X246219360Y-75638000D01*
X246163000Y-75638000D01*
X246161268Y-75637000D01*
X246161268Y-75635000D01*
X246162804Y-75634010D01*
X246252932Y-75625134D01*
X246339413Y-75598899D01*
X246419113Y-75556299D01*
X246488969Y-75498969D01*
X246546299Y-75429113D01*
X246588899Y-75349413D01*
X246615134Y-75262932D01*
X246624010Y-75172804D01*
X246625175Y-75171178D01*
X246627165Y-75171374D01*
G37*
G36*
X243852165Y-74155374D02*
G01*
X243853000Y-74157000D01*
X243853000Y-74213360D01*
X243852990Y-74213556D01*
X243844702Y-74297710D01*
X243844626Y-74298095D01*
X243821869Y-74373115D01*
X243821719Y-74373477D01*
X243784764Y-74442614D01*
X243784546Y-74442940D01*
X243734815Y-74503538D01*
X243734538Y-74503815D01*
X243673940Y-74553546D01*
X243673614Y-74553764D01*
X243604473Y-74590721D01*
X243604110Y-74590871D01*
X243599501Y-74592269D01*
X243577133Y-74601534D01*
X243557086Y-74614929D01*
X243540039Y-74631976D01*
X243526644Y-74652024D01*
X243517418Y-74674297D01*
X243512714Y-74697948D01*
X243512714Y-74722054D01*
X243517419Y-74745704D01*
X243526645Y-74767978D01*
X243540040Y-74788025D01*
X243557087Y-74805072D01*
X243577135Y-74818467D01*
X243599501Y-74827731D01*
X243604110Y-74829129D01*
X243604473Y-74829279D01*
X243673614Y-74866236D01*
X243673940Y-74866454D01*
X243734538Y-74916185D01*
X243734815Y-74916462D01*
X243784546Y-74977060D01*
X243784764Y-74977386D01*
X243821719Y-75046523D01*
X243821869Y-75046885D01*
X243844626Y-75121905D01*
X243844702Y-75122290D01*
X243852990Y-75206444D01*
X243853000Y-75206640D01*
X243853000Y-75263000D01*
X243852000Y-75264732D01*
X243850000Y-75264732D01*
X243849010Y-75263196D01*
X243840134Y-75173068D01*
X243813899Y-75086587D01*
X243771299Y-75006887D01*
X243713969Y-74937031D01*
X243644113Y-74879701D01*
X243564413Y-74837101D01*
X243477932Y-74810866D01*
X243387906Y-74802000D01*
X242462094Y-74802000D01*
X242372068Y-74810866D01*
X242285587Y-74837101D01*
X242205887Y-74879701D01*
X242136031Y-74937031D01*
X242078701Y-75006887D01*
X242036101Y-75086587D01*
X242009866Y-75173068D01*
X242000990Y-75263196D01*
X241999825Y-75264822D01*
X241997835Y-75264626D01*
X241997000Y-75263000D01*
X241997000Y-75206640D01*
X241997010Y-75206444D01*
X242005298Y-75122290D01*
X242005374Y-75121905D01*
X242028131Y-75046885D01*
X242028281Y-75046523D01*
X242065236Y-74977386D01*
X242065454Y-74977060D01*
X242115185Y-74916462D01*
X242115462Y-74916185D01*
X242176060Y-74866454D01*
X242176386Y-74866236D01*
X242245527Y-74829279D01*
X242245890Y-74829129D01*
X242250499Y-74827731D01*
X242272867Y-74818466D01*
X242292914Y-74805071D01*
X242309961Y-74788024D01*
X242323356Y-74767976D01*
X242332582Y-74745703D01*
X242337286Y-74722052D01*
X242337286Y-74697946D01*
X242332581Y-74674296D01*
X242323355Y-74652022D01*
X242309960Y-74631975D01*
X242292913Y-74614928D01*
X242272865Y-74601533D01*
X242250499Y-74592269D01*
X242245890Y-74590871D01*
X242245527Y-74590721D01*
X242176386Y-74553764D01*
X242176060Y-74553546D01*
X242115462Y-74503815D01*
X242115185Y-74503538D01*
X242065454Y-74442940D01*
X242065236Y-74442614D01*
X242028281Y-74373477D01*
X242028131Y-74373115D01*
X242005374Y-74298095D01*
X242005298Y-74297710D01*
X241997010Y-74213556D01*
X241997000Y-74213360D01*
X241997000Y-74157000D01*
X241998000Y-74155268D01*
X242000000Y-74155268D01*
X242000990Y-74156804D01*
X242009866Y-74246932D01*
X242036101Y-74333413D01*
X242078701Y-74413113D01*
X242136031Y-74482969D01*
X242205887Y-74540299D01*
X242285587Y-74582899D01*
X242372068Y-74609134D01*
X242462094Y-74618000D01*
X243387906Y-74618000D01*
X243477932Y-74609134D01*
X243564413Y-74582899D01*
X243644113Y-74540299D01*
X243713969Y-74482969D01*
X243771299Y-74413113D01*
X243813899Y-74333413D01*
X243840134Y-74246932D01*
X243849010Y-74156804D01*
X243850175Y-74155178D01*
X243852165Y-74155374D01*
G37*
G36*
X245238732Y-73783000D02*
G01*
X245238732Y-73785000D01*
X245237196Y-73785990D01*
X245147068Y-73794866D01*
X245060587Y-73821101D01*
X244980887Y-73863701D01*
X244911031Y-73921031D01*
X244853701Y-73990887D01*
X244811101Y-74070587D01*
X244784866Y-74157068D01*
X244775990Y-74247196D01*
X244774825Y-74248822D01*
X244772835Y-74248626D01*
X244772000Y-74247000D01*
X244772000Y-74190640D01*
X244772010Y-74190444D01*
X244780298Y-74106290D01*
X244780374Y-74105905D01*
X244803131Y-74030885D01*
X244803281Y-74030523D01*
X244840236Y-73961386D01*
X244840454Y-73961060D01*
X244890185Y-73900462D01*
X244890462Y-73900185D01*
X244951060Y-73850454D01*
X244951386Y-73850236D01*
X245020523Y-73813281D01*
X245020885Y-73813131D01*
X245095905Y-73790374D01*
X245096290Y-73790298D01*
X245180444Y-73782010D01*
X245180640Y-73782000D01*
X245237000Y-73782000D01*
X245238732Y-73783000D01*
G37*
G36*
X246219556Y-73782010D02*
G01*
X246303710Y-73790298D01*
X246304095Y-73790374D01*
X246379115Y-73813131D01*
X246379477Y-73813281D01*
X246448614Y-73850236D01*
X246448940Y-73850454D01*
X246509538Y-73900185D01*
X246509815Y-73900462D01*
X246559546Y-73961060D01*
X246559764Y-73961386D01*
X246596719Y-74030523D01*
X246596869Y-74030885D01*
X246619626Y-74105905D01*
X246619702Y-74106290D01*
X246627990Y-74190444D01*
X246628000Y-74190640D01*
X246628000Y-74247000D01*
X246627000Y-74248732D01*
X246625000Y-74248732D01*
X246624010Y-74247196D01*
X246615134Y-74157068D01*
X246588899Y-74070587D01*
X246546299Y-73990887D01*
X246488969Y-73921031D01*
X246419113Y-73863701D01*
X246339413Y-73821101D01*
X246252932Y-73794866D01*
X246162804Y-73785990D01*
X246161178Y-73784825D01*
X246161374Y-73782835D01*
X246163000Y-73782000D01*
X246219360Y-73782000D01*
X246219556Y-73782010D01*
G37*
G36*
X242463732Y-72767000D02*
G01*
X242463732Y-72769000D01*
X242462196Y-72769990D01*
X242372068Y-72778866D01*
X242285587Y-72805101D01*
X242205887Y-72847701D01*
X242136031Y-72905031D01*
X242078701Y-72974887D01*
X242036101Y-73054587D01*
X242009866Y-73141068D01*
X242000990Y-73231196D01*
X241999825Y-73232822D01*
X241997835Y-73232626D01*
X241997000Y-73231000D01*
X241997000Y-73174640D01*
X241997010Y-73174444D01*
X242005298Y-73090290D01*
X242005374Y-73089905D01*
X242028131Y-73014885D01*
X242028281Y-73014523D01*
X242065236Y-72945386D01*
X242065454Y-72945060D01*
X242115185Y-72884462D01*
X242115462Y-72884185D01*
X242176060Y-72834454D01*
X242176386Y-72834236D01*
X242245523Y-72797281D01*
X242245885Y-72797131D01*
X242320905Y-72774374D01*
X242321290Y-72774298D01*
X242405444Y-72766010D01*
X242405640Y-72766000D01*
X242462000Y-72766000D01*
X242463732Y-72767000D01*
G37*
G36*
X243444556Y-72766010D02*
G01*
X243528710Y-72774298D01*
X243529095Y-72774374D01*
X243604115Y-72797131D01*
X243604477Y-72797281D01*
X243673614Y-72834236D01*
X243673940Y-72834454D01*
X243734538Y-72884185D01*
X243734815Y-72884462D01*
X243784546Y-72945060D01*
X243784764Y-72945386D01*
X243821719Y-73014523D01*
X243821869Y-73014885D01*
X243844626Y-73089905D01*
X243844702Y-73090290D01*
X243852990Y-73174444D01*
X243853000Y-73174640D01*
X243853000Y-73231000D01*
X243852000Y-73232732D01*
X243850000Y-73232732D01*
X243849010Y-73231196D01*
X243840134Y-73141068D01*
X243813899Y-73054587D01*
X243771299Y-72974887D01*
X243713969Y-72905031D01*
X243644113Y-72847701D01*
X243564413Y-72805101D01*
X243477932Y-72778866D01*
X243387804Y-72769990D01*
X243386178Y-72768825D01*
X243386374Y-72766835D01*
X243388000Y-72766000D01*
X243444360Y-72766000D01*
X243444556Y-72766010D01*
G37*
G36*
X212775732Y-66553000D02*
G01*
X212776000Y-66554000D01*
X212776000Y-68106000D01*
X212775000Y-68107732D01*
X212774000Y-68108000D01*
X212676000Y-68108000D01*
X212674268Y-68107000D01*
X212674000Y-68106000D01*
X212674000Y-66554000D01*
X212675000Y-66552268D01*
X212676000Y-66552000D01*
X212774000Y-66552000D01*
X212775732Y-66553000D01*
G37*
G36*
X215100732Y-66553000D02*
G01*
X215101000Y-66554000D01*
X215101000Y-68106000D01*
X215100000Y-68107732D01*
X215099000Y-68108000D01*
X215026000Y-68108000D01*
X215024268Y-68107000D01*
X215024000Y-68106000D01*
X215024000Y-66554000D01*
X215025000Y-66552268D01*
X215026000Y-66552000D01*
X215099000Y-66552000D01*
X215100732Y-66553000D01*
G37*
G36*
X214325732Y-66553000D02*
G01*
X214326000Y-66554000D01*
X214326000Y-68106000D01*
X214325000Y-68107732D01*
X214324000Y-68108000D01*
X214176000Y-68108000D01*
X214174268Y-68107000D01*
X214174000Y-68106000D01*
X214174000Y-66554000D01*
X214175000Y-66552268D01*
X214176000Y-66552000D01*
X214324000Y-66552000D01*
X214325732Y-66553000D01*
G37*
G36*
X213775732Y-66553000D02*
G01*
X213776000Y-66554000D01*
X213776000Y-68106000D01*
X213775000Y-68107732D01*
X213774000Y-68108000D01*
X213676000Y-68108000D01*
X213674268Y-68107000D01*
X213674000Y-68106000D01*
X213674000Y-66554000D01*
X213675000Y-66552268D01*
X213676000Y-66552000D01*
X213774000Y-66552000D01*
X213775732Y-66553000D01*
G37*
G36*
X213275732Y-66553000D02*
G01*
X213276000Y-66554000D01*
X213276000Y-68106000D01*
X213275000Y-68107732D01*
X213274000Y-68108000D01*
X213176000Y-68108000D01*
X213174268Y-68107000D01*
X213174000Y-68106000D01*
X213174000Y-66554000D01*
X213175000Y-66552268D01*
X213176000Y-66552000D01*
X213274000Y-66552000D01*
X213275732Y-66553000D01*
G37*
G36*
X212275732Y-66553000D02*
G01*
X212276000Y-66554000D01*
X212276000Y-68106000D01*
X212275000Y-68107732D01*
X212274000Y-68108000D01*
X212176000Y-68108000D01*
X212174268Y-68107000D01*
X212174000Y-68106000D01*
X212174000Y-66554000D01*
X212175000Y-66552268D01*
X212176000Y-66552000D01*
X212274000Y-66552000D01*
X212275732Y-66553000D01*
G37*
G36*
X211775732Y-66553000D02*
G01*
X211776000Y-66554000D01*
X211776000Y-68106000D01*
X211775000Y-68107732D01*
X211774000Y-68108000D01*
X211676000Y-68108000D01*
X211674268Y-68107000D01*
X211674000Y-68106000D01*
X211674000Y-66554000D01*
X211675000Y-66552268D01*
X211676000Y-66552000D01*
X211774000Y-66552000D01*
X211775732Y-66553000D01*
G37*
G36*
X211275732Y-66553000D02*
G01*
X211276000Y-66554000D01*
X211276000Y-68106000D01*
X211275000Y-68107732D01*
X211274000Y-68108000D01*
X211176000Y-68108000D01*
X211174268Y-68107000D01*
X211174000Y-68106000D01*
X211174000Y-66554000D01*
X211175000Y-66552268D01*
X211176000Y-66552000D01*
X211274000Y-66552000D01*
X211275732Y-66553000D01*
G37*
G36*
X210775732Y-66553000D02*
G01*
X210776000Y-66554000D01*
X210776000Y-68106000D01*
X210775000Y-68107732D01*
X210774000Y-68108000D01*
X210676000Y-68108000D01*
X210674268Y-68107000D01*
X210674000Y-68106000D01*
X210674000Y-66554000D01*
X210675000Y-66552268D01*
X210676000Y-66552000D01*
X210774000Y-66552000D01*
X210775732Y-66553000D01*
G37*
G36*
X210275732Y-66553000D02*
G01*
X210276000Y-66554000D01*
X210276000Y-68106000D01*
X210275000Y-68107732D01*
X210274000Y-68108000D01*
X210126000Y-68108000D01*
X210124268Y-68107000D01*
X210124000Y-68106000D01*
X210124000Y-66554000D01*
X210125000Y-66552268D01*
X210126000Y-66552000D01*
X210274000Y-66552000D01*
X210275732Y-66553000D01*
G37*
G36*
X209425732Y-66553000D02*
G01*
X209426000Y-66554000D01*
X209426000Y-68106000D01*
X209425000Y-68107732D01*
X209424000Y-68108000D01*
X209351000Y-68108000D01*
X209349268Y-68107000D01*
X209349000Y-68106000D01*
X209349000Y-66554000D01*
X209350000Y-66552268D01*
X209351000Y-66552000D01*
X209424000Y-66552000D01*
X209425732Y-66553000D01*
G37*
M02*
