%FSLAX45Y45*%
G04 Gerber Fmt 4.5, Leading zero omitted, Abs format (unit mm)*
G04 Created by KiCad (PCBNEW (5.1.9)-1) date 2021-06-14 20:25:01*
%MOMM*%
%LPD*%
G01*
G04 APERTURE LIST*
%TA.AperFunction,Profile*%
%ADD10C,0.100000*%
%TD*%
%ADD11C,0.200000*%
%ADD12C,0.300000*%
G04 APERTURE END LIST*
D10*
X38952500Y-6268500D02*
X38952500Y-21278500D01*
X38652500Y-5968500D02*
G75*
G02*
X38952500Y-6268500I0J-300000D01*
G01*
X3492500Y-6268500D02*
G75*
G02*
X3792500Y-5968500I300000J0D01*
G01*
X3792500Y-21578500D02*
G75*
G02*
X3492500Y-21278500I0J300000D01*
G01*
X38952500Y-21278500D02*
G75*
G02*
X38652500Y-21578500I-300000J0D01*
G01*
X3792500Y-5968500D02*
X38652500Y-5968500D01*
X3492500Y-21278500D02*
X3492500Y-6268500D01*
X38652500Y-21578500D02*
X3792500Y-21578500D01*
D11*
X3942500Y-9898500D02*
X3982500Y-9938500D01*
X3982500Y-9898500D02*
X3942500Y-9938500D01*
X3942500Y-12768500D02*
X3982500Y-12808500D01*
X3982500Y-12768500D02*
X3942500Y-12808500D01*
X4012500Y-13888500D02*
X4052500Y-13928500D01*
X4052500Y-13888500D02*
X4012500Y-13928500D01*
X4182500Y-18478500D02*
X4222500Y-18518500D01*
X4222500Y-18478500D02*
X4182500Y-18518500D01*
X4182500Y-20388500D02*
X4222500Y-20428500D01*
X4222500Y-20388500D02*
X4182500Y-20428500D01*
X4422500Y-14668500D02*
X4462500Y-14708500D01*
X4462500Y-14668500D02*
X4422500Y-14708500D01*
X4652500Y-16568500D02*
X4692500Y-16608500D01*
X4692500Y-16568500D02*
X4652500Y-16608500D01*
X5236500Y-9650500D02*
X5276500Y-9690500D01*
X5276500Y-9650500D02*
X5236500Y-9690500D01*
X5236700Y-12510500D02*
X5276700Y-12550500D01*
X5276700Y-12510500D02*
X5236700Y-12550500D01*
X5476700Y-18230500D02*
X5516700Y-18270500D01*
X5516700Y-18230500D02*
X5476700Y-18270500D01*
X5476700Y-20130500D02*
X5516700Y-20170500D01*
X5516700Y-20130500D02*
X5476700Y-20170500D01*
X5716700Y-14410500D02*
X5756700Y-14450500D01*
X5756700Y-14410500D02*
X5716700Y-14450500D01*
X5852500Y-12748500D02*
X5892500Y-12788500D01*
X5892500Y-12748500D02*
X5852500Y-12788500D01*
X5951700Y-16315500D02*
X5991700Y-16355500D01*
X5991700Y-16315500D02*
X5951700Y-16355500D01*
X6332500Y-18478500D02*
X6372500Y-18518500D01*
X6372500Y-18478500D02*
X6332500Y-18518500D01*
X6562500Y-20378500D02*
X6602500Y-20418500D01*
X6602500Y-20378500D02*
X6562500Y-20418500D01*
X6802500Y-14668500D02*
X6842500Y-14708500D01*
X6842500Y-14668500D02*
X6802500Y-14708500D01*
X7146700Y-12510500D02*
X7186700Y-12550500D01*
X7186700Y-12510500D02*
X7146700Y-12550500D01*
X7282500Y-16568500D02*
X7322500Y-16608500D01*
X7322500Y-16568500D02*
X7282500Y-16608500D01*
X7616700Y-18230500D02*
X7656700Y-18270500D01*
X7656700Y-18230500D02*
X7616700Y-18270500D01*
X7752500Y-9908500D02*
X7792500Y-9948500D01*
X7792500Y-9908500D02*
X7752500Y-9948500D01*
X7752500Y-12768500D02*
X7792500Y-12808500D01*
X7792500Y-12768500D02*
X7752500Y-12808500D01*
X7866700Y-20120500D02*
X7906700Y-20160500D01*
X7906700Y-20120500D02*
X7866700Y-20160500D01*
X8096700Y-14420500D02*
X8136700Y-14460500D01*
X8136700Y-14420500D02*
X8096700Y-14460500D01*
X8232500Y-18478500D02*
X8272500Y-18518500D01*
X8272500Y-18478500D02*
X8232500Y-18518500D01*
X8566700Y-16320500D02*
X8606700Y-16360500D01*
X8606700Y-16320500D02*
X8566700Y-16360500D01*
X8706500Y-14664500D02*
X8746500Y-14704500D01*
X8746500Y-14664500D02*
X8706500Y-14704500D01*
X8942500Y-20378500D02*
X8982500Y-20418500D01*
X8982500Y-20378500D02*
X8942500Y-20418500D01*
X9046700Y-9650500D02*
X9086700Y-9690500D01*
X9086700Y-9650500D02*
X9046700Y-9690500D01*
X9046700Y-12510500D02*
X9086700Y-12550500D01*
X9086700Y-12510500D02*
X9046700Y-12550500D01*
X9172500Y-16561700D02*
X9212500Y-16601700D01*
X9212500Y-16561700D02*
X9172500Y-16601700D01*
X9526700Y-18230500D02*
X9566700Y-18270500D01*
X9566700Y-18230500D02*
X9526700Y-18270500D01*
X9659000Y-9912000D02*
X9699000Y-9952000D01*
X9699000Y-9912000D02*
X9659000Y-9952000D01*
X9659000Y-12752000D02*
X9699000Y-12792000D01*
X9699000Y-12752000D02*
X9659000Y-12792000D01*
X9996700Y-14410500D02*
X10036700Y-14450500D01*
X10036700Y-14410500D02*
X9996700Y-14450500D01*
X10135300Y-18465700D02*
X10175300Y-18505700D01*
X10175300Y-18465700D02*
X10135300Y-18505700D01*
X10236700Y-20130500D02*
X10276700Y-20170500D01*
X10276700Y-20130500D02*
X10236700Y-20170500D01*
X10476700Y-16300500D02*
X10516700Y-16340500D01*
X10516700Y-16300500D02*
X10476700Y-16340500D01*
X10612500Y-14668500D02*
X10652500Y-14708500D01*
X10652500Y-14668500D02*
X10612500Y-14708500D01*
X10956700Y-9650500D02*
X10996700Y-9690500D01*
X10996700Y-9650500D02*
X10956700Y-9690500D01*
X10956700Y-12510500D02*
X10996700Y-12550500D01*
X10996700Y-12510500D02*
X10956700Y-12550500D01*
X11092500Y-16568500D02*
X11132500Y-16608500D01*
X11132500Y-16568500D02*
X11092500Y-16608500D01*
X11426700Y-18230500D02*
X11466700Y-18270500D01*
X11466700Y-18230500D02*
X11426700Y-18270500D01*
X11562500Y-9908500D02*
X11602500Y-9948500D01*
X11602500Y-9908500D02*
X11562500Y-9948500D01*
X11562500Y-12758500D02*
X11602500Y-12798500D01*
X11602500Y-12758500D02*
X11562500Y-12798500D01*
X11906700Y-14410500D02*
X11946700Y-14450500D01*
X11946700Y-14410500D02*
X11906700Y-14450500D01*
X12042500Y-18478500D02*
X12082500Y-18518500D01*
X12082500Y-18478500D02*
X12042500Y-18518500D01*
X12376700Y-16320500D02*
X12416700Y-16360500D01*
X12416700Y-16320500D02*
X12376700Y-16360500D01*
X12512500Y-14658500D02*
X12552500Y-14698500D01*
X12552500Y-14658500D02*
X12512500Y-14698500D01*
X12856700Y-9650500D02*
X12896700Y-9690500D01*
X12896700Y-9650500D02*
X12856700Y-9690500D01*
X12856700Y-12510500D02*
X12896700Y-12550500D01*
X12896700Y-12510500D02*
X12856700Y-12550500D01*
X12992500Y-16578500D02*
X13032500Y-16618500D01*
X13032500Y-16578500D02*
X12992500Y-16618500D01*
X13336700Y-18220500D02*
X13376700Y-18260500D01*
X13376700Y-18220500D02*
X13336700Y-18260500D01*
X13472500Y-9908500D02*
X13512500Y-9948500D01*
X13512500Y-9908500D02*
X13472500Y-9948500D01*
X13472500Y-12778500D02*
X13512500Y-12818500D01*
X13512500Y-12778500D02*
X13472500Y-12818500D01*
X13806700Y-14410500D02*
X13846700Y-14450500D01*
X13846700Y-14410500D02*
X13806700Y-14450500D01*
X13942500Y-18478500D02*
X13982500Y-18518500D01*
X13982500Y-18478500D02*
X13942500Y-18518500D01*
X14286700Y-16320500D02*
X14326700Y-16360500D01*
X14326700Y-16320500D02*
X14286700Y-16360500D01*
X14422500Y-14678500D02*
X14462500Y-14718500D01*
X14462500Y-14678500D02*
X14422500Y-14718500D01*
X14756700Y-12510500D02*
X14796700Y-12550500D01*
X14796700Y-12510500D02*
X14756700Y-12550500D01*
X14762500Y-9648500D02*
X14802500Y-9688500D01*
X14802500Y-9648500D02*
X14762500Y-9688500D01*
X14902500Y-16578500D02*
X14942500Y-16618500D01*
X14942500Y-16578500D02*
X14902500Y-16618500D01*
X15236700Y-18220500D02*
X15276700Y-18260500D01*
X15276700Y-18220500D02*
X15236700Y-18260500D01*
X15372500Y-12768500D02*
X15412500Y-12808500D01*
X15412500Y-12768500D02*
X15372500Y-12808500D01*
X15712500Y-14418500D02*
X15752500Y-14458500D01*
X15752500Y-14418500D02*
X15712500Y-14458500D01*
X15852500Y-18478500D02*
X15892500Y-18518500D01*
X15892500Y-18478500D02*
X15852500Y-18518500D01*
X16092500Y-20388500D02*
X16132500Y-20428500D01*
X16132500Y-20388500D02*
X16092500Y-20428500D01*
X16192500Y-16318500D02*
X16232500Y-16358500D01*
X16232500Y-16318500D02*
X16192500Y-16358500D01*
X16322500Y-14668500D02*
X16362500Y-14708500D01*
X16362500Y-14668500D02*
X16322500Y-14708500D01*
X16332500Y-9918500D02*
X16372500Y-9958500D01*
X16372500Y-9918500D02*
X16332500Y-9958500D01*
X16732500Y-12508500D02*
X16772500Y-12548500D01*
X16772500Y-12508500D02*
X16732500Y-12548500D01*
X16802500Y-16578500D02*
X16842500Y-16618500D01*
X16842500Y-16578500D02*
X16802500Y-16618500D01*
X17142500Y-18228500D02*
X17182500Y-18268500D01*
X17182500Y-18228500D02*
X17142500Y-18268500D01*
X17282500Y-12778500D02*
X17322500Y-12818500D01*
X17322500Y-12778500D02*
X17282500Y-12818500D01*
X17382500Y-20128500D02*
X17422500Y-20168500D01*
X17422500Y-20128500D02*
X17382500Y-20168500D01*
X17622500Y-9658500D02*
X17662500Y-9698500D01*
X17662500Y-9658500D02*
X17622500Y-9698500D01*
X17632500Y-14408500D02*
X17672500Y-14448500D01*
X17672500Y-14408500D02*
X17632500Y-14448500D01*
X17752500Y-18488500D02*
X17792500Y-18528500D01*
X17792500Y-18488500D02*
X17752500Y-18528500D01*
X18092500Y-16318500D02*
X18132500Y-16358500D01*
X18132500Y-16318500D02*
X18092500Y-16358500D01*
X18232500Y-9908500D02*
X18272500Y-9948500D01*
X18272500Y-9908500D02*
X18232500Y-9948500D01*
X18232500Y-14678500D02*
X18272500Y-14718500D01*
X18272500Y-14678500D02*
X18232500Y-14718500D01*
X18572500Y-12508500D02*
X18612500Y-12548500D01*
X18612500Y-12508500D02*
X18572500Y-12548500D01*
X18702500Y-16568500D02*
X18742500Y-16608500D01*
X18742500Y-16568500D02*
X18702500Y-16608500D01*
X19032500Y-21288500D02*
X19072500Y-21328500D01*
X19072500Y-21288500D02*
X19032500Y-21328500D01*
X19052500Y-18228500D02*
X19092500Y-18268500D01*
X19092500Y-18228500D02*
X19052500Y-18268500D01*
X19192500Y-12768500D02*
X19232500Y-12808500D01*
X19232500Y-12768500D02*
X19192500Y-12808500D01*
X19522500Y-9648500D02*
X19562500Y-9688500D01*
X19562500Y-9648500D02*
X19522500Y-9688500D01*
X19522500Y-14418500D02*
X19562500Y-14458500D01*
X19562500Y-14418500D02*
X19522500Y-14458500D01*
X19662500Y-18478500D02*
X19702500Y-18518500D01*
X19702500Y-18478500D02*
X19662500Y-18518500D01*
X20002500Y-16328500D02*
X20042500Y-16368500D01*
X20042500Y-16328500D02*
X20002500Y-16368500D01*
X20136500Y-9918500D02*
X20176500Y-9958500D01*
X20176500Y-9918500D02*
X20136500Y-9958500D01*
X20136500Y-14665500D02*
X20176500Y-14705500D01*
X20176500Y-14665500D02*
X20136500Y-14705500D01*
X20242500Y-6118499D02*
X20282500Y-6158499D01*
X20282500Y-6118499D02*
X20242500Y-6158499D01*
X20482500Y-12508500D02*
X20522500Y-12548500D01*
X20522500Y-12508500D02*
X20482500Y-12548500D01*
X20614500Y-16578500D02*
X20654500Y-16618500D01*
X20654500Y-16578500D02*
X20614500Y-16618500D01*
X20952500Y-18228500D02*
X20992500Y-18268500D01*
X20992500Y-18228500D02*
X20952500Y-18268500D01*
X21089500Y-12763500D02*
X21129500Y-12803500D01*
X21129500Y-12763500D02*
X21089500Y-12803500D01*
X21177500Y-6845860D02*
X21217500Y-6885860D01*
X21217500Y-6845860D02*
X21177500Y-6885860D01*
X21227500Y-6580140D02*
X21267500Y-6620140D01*
X21267500Y-6580140D02*
X21227500Y-6620140D01*
X21352500Y-19568500D02*
X21392500Y-19608500D01*
X21392500Y-19568500D02*
X21352500Y-19608500D01*
X21432500Y-9648500D02*
X21472500Y-9688500D01*
X21472500Y-9648500D02*
X21432500Y-9688500D01*
X21432500Y-14408500D02*
X21472500Y-14448500D01*
X21472500Y-14408500D02*
X21432500Y-14448500D01*
X21566500Y-18476500D02*
X21606500Y-18516500D01*
X21606500Y-18476500D02*
X21566500Y-18516500D01*
X21698126Y-6985887D02*
X21738126Y-7025887D01*
X21738126Y-6985887D02*
X21698126Y-7025887D01*
X21754939Y-7123047D02*
X21794939Y-7163047D01*
X21794939Y-7123047D02*
X21754939Y-7163047D01*
X21902500Y-16318500D02*
X21942500Y-16358500D01*
X21942500Y-16318500D02*
X21902500Y-16358500D01*
X22041500Y-9910500D02*
X22081500Y-9950500D01*
X22081500Y-9910500D02*
X22041500Y-9950500D01*
X22043500Y-14663500D02*
X22083500Y-14703500D01*
X22083500Y-14663500D02*
X22043500Y-14703500D01*
X22212500Y-15808500D02*
X22252500Y-15848500D01*
X22252500Y-15808500D02*
X22212500Y-15848500D01*
X22212500Y-17688500D02*
X22252500Y-17728500D01*
X22252500Y-17688500D02*
X22212500Y-17728500D01*
X22382500Y-12508500D02*
X22422500Y-12548500D01*
X22422500Y-12508500D02*
X22382500Y-12548500D01*
X22532025Y-16564975D02*
X22572025Y-16604975D01*
X22572025Y-16564975D02*
X22532025Y-16604975D01*
X22722500Y-13978500D02*
X22762500Y-14018500D01*
X22762500Y-13978500D02*
X22722500Y-14018500D01*
X22852500Y-18228500D02*
X22892500Y-18268500D01*
X22892500Y-18228500D02*
X22852500Y-18268500D01*
X22990500Y-12758500D02*
X23030500Y-12798500D01*
X23030500Y-12758500D02*
X22990500Y-12798500D01*
X23233500Y-20382500D02*
X23273500Y-20422500D01*
X23273500Y-20382500D02*
X23233500Y-20422500D01*
X23286700Y-14080500D02*
X23326700Y-14120500D01*
X23326700Y-14080500D02*
X23286700Y-14120500D01*
X23332500Y-14418500D02*
X23372500Y-14458500D01*
X23372500Y-14418500D02*
X23332500Y-14458500D01*
X23342500Y-9648500D02*
X23382500Y-9688500D01*
X23382500Y-9648500D02*
X23342500Y-9688500D01*
X23471500Y-18477500D02*
X23511500Y-18517500D01*
X23511500Y-18477500D02*
X23471500Y-18517500D01*
X23632500Y-11008500D02*
X23672500Y-11048500D01*
X23672500Y-11008500D02*
X23632500Y-11048500D01*
X23812500Y-16318500D02*
X23852500Y-16358500D01*
X23852500Y-16318500D02*
X23812500Y-16358500D01*
X23952500Y-14678500D02*
X23992500Y-14718500D01*
X23992500Y-14678500D02*
X23952500Y-14718500D01*
X24292500Y-12518500D02*
X24332500Y-12558500D01*
X24332500Y-12518500D02*
X24292500Y-12558500D01*
X24306700Y-15170500D02*
X24346700Y-15210500D01*
X24346700Y-15170500D02*
X24306700Y-15210500D01*
X24405000Y-6856000D02*
X24445000Y-6896000D01*
X24445000Y-6856000D02*
X24405000Y-6896000D01*
X24422500Y-16578500D02*
X24462500Y-16618500D01*
X24462500Y-16578500D02*
X24422500Y-16618500D01*
X24532500Y-20128500D02*
X24572500Y-20168500D01*
X24572500Y-20128500D02*
X24532500Y-20168500D01*
X24550000Y-7449100D02*
X24590000Y-7489100D01*
X24590000Y-7449100D02*
X24550000Y-7489100D01*
X24772500Y-18218500D02*
X24812500Y-18258500D01*
X24812500Y-18218500D02*
X24772500Y-18258500D01*
X24902500Y-9908500D02*
X24942500Y-9948500D01*
X24942500Y-9908500D02*
X24902500Y-9948500D01*
X24902500Y-12768500D02*
X24942500Y-12808500D01*
X24942500Y-12768500D02*
X24902500Y-12808500D01*
X25242500Y-14408500D02*
X25282500Y-14448500D01*
X25282500Y-14408500D02*
X25242500Y-14448500D01*
X25372500Y-18478500D02*
X25412500Y-18518500D01*
X25412500Y-18478500D02*
X25372500Y-18518500D01*
X25612500Y-20388500D02*
X25652500Y-20428500D01*
X25652500Y-20388500D02*
X25612500Y-20428500D01*
X25712500Y-16318500D02*
X25752500Y-16358500D01*
X25752500Y-16318500D02*
X25712500Y-16358500D01*
X25842500Y-14678500D02*
X25882500Y-14718500D01*
X25882500Y-14678500D02*
X25842500Y-14718500D01*
X26192500Y-9648500D02*
X26232500Y-9688500D01*
X26232500Y-9648500D02*
X26192500Y-9688500D01*
X26192500Y-12518500D02*
X26232500Y-12558500D01*
X26232500Y-12518500D02*
X26192500Y-12558500D01*
X26322500Y-16568500D02*
X26362500Y-16608500D01*
X26362500Y-16568500D02*
X26322500Y-16608500D01*
X26662500Y-18218500D02*
X26702500Y-18258500D01*
X26702500Y-18218500D02*
X26662500Y-18258500D01*
X26802500Y-9908500D02*
X26842500Y-9948500D01*
X26842500Y-9908500D02*
X26802500Y-9948500D01*
X26802500Y-12758500D02*
X26842500Y-12798500D01*
X26842500Y-12758500D02*
X26802500Y-12798500D01*
X26902500Y-20138500D02*
X26942500Y-20178500D01*
X26942500Y-20138500D02*
X26902500Y-20178500D01*
X27142500Y-14398500D02*
X27182500Y-14438500D01*
X27182500Y-14398500D02*
X27142500Y-14438500D01*
X27622500Y-16318500D02*
X27662500Y-16358500D01*
X27662500Y-16318500D02*
X27622500Y-16358500D01*
X27752500Y-14668500D02*
X27792500Y-14708500D01*
X27792500Y-14668500D02*
X27752500Y-14708500D01*
X27992500Y-20388500D02*
X28032500Y-20428500D01*
X28032500Y-20388500D02*
X27992500Y-20428500D01*
X28092500Y-9648500D02*
X28132500Y-9688500D01*
X28132500Y-9648500D02*
X28092500Y-9688500D01*
X28102500Y-12508500D02*
X28142500Y-12548500D01*
X28142500Y-12508500D02*
X28102500Y-12548500D01*
X28232500Y-16548500D02*
X28272500Y-16588500D01*
X28272500Y-16548500D02*
X28232500Y-16588500D01*
X28727500Y-9893500D02*
X28767500Y-9933500D01*
X28767500Y-9893500D02*
X28727500Y-9933500D01*
X28942500Y-18478500D02*
X28982500Y-18518500D01*
X28982500Y-18478500D02*
X28942500Y-18518500D01*
X29052500Y-14418500D02*
X29092500Y-14458500D01*
X29092500Y-14418500D02*
X29052500Y-14458500D01*
X29282500Y-20128500D02*
X29322500Y-20168500D01*
X29322500Y-20128500D02*
X29282500Y-20168500D01*
X29532500Y-16328500D02*
X29572500Y-16368500D01*
X29572500Y-16328500D02*
X29532500Y-16368500D01*
X29662500Y-12738500D02*
X29702500Y-12778500D01*
X29702500Y-12738500D02*
X29662500Y-12778500D01*
X30002500Y-9648500D02*
X30042500Y-9688500D01*
X30042500Y-9648500D02*
X30002500Y-9688500D01*
X30242500Y-18228500D02*
X30282500Y-18268500D01*
X30282500Y-18228500D02*
X30242500Y-18268500D01*
X30362500Y-6853500D02*
X30402500Y-6893500D01*
X30402500Y-6853500D02*
X30362500Y-6893500D01*
X30362500Y-7241000D02*
X30402500Y-7281000D01*
X30402500Y-7241000D02*
X30362500Y-7281000D01*
X30372500Y-20378500D02*
X30412500Y-20418500D01*
X30412500Y-20378500D02*
X30372500Y-20418500D01*
X30612500Y-9878500D02*
X30652500Y-9918500D01*
X30652500Y-9878500D02*
X30612500Y-9918500D01*
X30942500Y-12508500D02*
X30982500Y-12548500D01*
X30982500Y-12508500D02*
X30942500Y-12548500D01*
X31338750Y-15162250D02*
X31378750Y-15202250D01*
X31378750Y-15162250D02*
X31338750Y-15202250D01*
X31582500Y-16468500D02*
X31622500Y-16508500D01*
X31622500Y-16468500D02*
X31582500Y-16508500D01*
X31662500Y-20128500D02*
X31702500Y-20168500D01*
X31702500Y-20128500D02*
X31662500Y-20168500D01*
X31903000Y-9650500D02*
X31943000Y-9690500D01*
X31943000Y-9650500D02*
X31903000Y-9690500D01*
X32992500Y-9898500D02*
X33032500Y-9938500D01*
X33032500Y-9898500D02*
X32992500Y-9938500D01*
X32992500Y-12768500D02*
X33032500Y-12808500D01*
X33032500Y-12768500D02*
X32992500Y-12808500D01*
X32992500Y-14658500D02*
X33032500Y-14698500D01*
X33032500Y-14658500D02*
X32992500Y-14698500D01*
X32992500Y-20368500D02*
X33032500Y-20408500D01*
X33032500Y-20368500D02*
X32992500Y-20408500D01*
X34272500Y-20118500D02*
X34312500Y-20158500D01*
X34312500Y-20118500D02*
X34272500Y-20158500D01*
X34292500Y-9648500D02*
X34332500Y-9688500D01*
X34332500Y-9648500D02*
X34292500Y-9688500D01*
X34292500Y-12518500D02*
X34332500Y-12558500D01*
X34332500Y-12518500D02*
X34292500Y-12558500D01*
X34292500Y-14418500D02*
X34332500Y-14458500D01*
X34332500Y-14418500D02*
X34292500Y-14458500D01*
X34372500Y-8928500D02*
X34412500Y-8968500D01*
X34412500Y-8928500D02*
X34372500Y-8968500D01*
X34902500Y-9908500D02*
X34942500Y-9948500D01*
X34942500Y-9908500D02*
X34902500Y-9948500D01*
X34902500Y-12758500D02*
X34942500Y-12798500D01*
X34942500Y-12758500D02*
X34902500Y-12798500D01*
X34902500Y-14658500D02*
X34942500Y-14698500D01*
X34942500Y-14658500D02*
X34902500Y-14698500D01*
X34902500Y-18488500D02*
X34942500Y-18528500D01*
X34942500Y-18488500D02*
X34902500Y-18528500D01*
X34902500Y-20388500D02*
X34942500Y-20428500D01*
X34942500Y-20388500D02*
X34902500Y-20428500D01*
X35241500Y-8124500D02*
X35281500Y-8164500D01*
X35281500Y-8124500D02*
X35241500Y-8164500D01*
X35952500Y-19568500D02*
X35992500Y-19608500D01*
X35992500Y-19568500D02*
X35952500Y-19608500D01*
X36185600Y-20121600D02*
X36225600Y-20161600D01*
X36225600Y-20121600D02*
X36185600Y-20161600D01*
X36192500Y-9648500D02*
X36232500Y-9688500D01*
X36232500Y-9648500D02*
X36192500Y-9688500D01*
X36192500Y-14418500D02*
X36232500Y-14458500D01*
X36232500Y-14418500D02*
X36192500Y-14458500D01*
X36192500Y-18228500D02*
X36232500Y-18268500D01*
X36232500Y-18228500D02*
X36192500Y-18268500D01*
X36202500Y-12498500D02*
X36242500Y-12538500D01*
X36242500Y-12498500D02*
X36202500Y-12538500D01*
X36812500Y-9908500D02*
X36852500Y-9948500D01*
X36852500Y-9908500D02*
X36812500Y-9948500D01*
X36812500Y-12768500D02*
X36852500Y-12808500D01*
X36852500Y-12768500D02*
X36812500Y-12808500D01*
X36812500Y-14658500D02*
X36852500Y-14698500D01*
X36852500Y-14658500D02*
X36812500Y-14698500D01*
X36812500Y-20388500D02*
X36852500Y-20428500D01*
X36852500Y-20388500D02*
X36812500Y-20428500D01*
X38090600Y-20116600D02*
X38130600Y-20156600D01*
X38130600Y-20116600D02*
X38090600Y-20156600D01*
X38092500Y-9648500D02*
X38132500Y-9688500D01*
X38132500Y-9648500D02*
X38092500Y-9688500D01*
X38102500Y-12488500D02*
X38142500Y-12528500D01*
X38142500Y-12488500D02*
X38102500Y-12528500D01*
X38102500Y-14418500D02*
X38142500Y-14458500D01*
X38142500Y-14418500D02*
X38102500Y-14458500D01*
X20820500Y-6223500D02*
G75*
G03*
X20820500Y-6223500I-30000J0D01*
G01*
X20810500Y-6253500D02*
X20810500Y-6193500D01*
X20770500Y-6253500D02*
X20770500Y-6193500D01*
X20810500Y-6193500D02*
G75*
G03*
X20770500Y-6193500I-20000J0D01*
G01*
X20770500Y-6253500D02*
G75*
G03*
X20810500Y-6253500I20000J0D01*
G01*
X20820500Y-6641500D02*
G75*
G03*
X20820500Y-6641500I-30000J0D01*
G01*
X20810500Y-6696500D02*
X20810500Y-6586500D01*
X20770500Y-6696500D02*
X20770500Y-6586500D01*
X20810500Y-6586500D02*
G75*
G03*
X20770500Y-6586500I-20000J0D01*
G01*
X20770500Y-6696500D02*
G75*
G03*
X20810500Y-6696500I20000J0D01*
G01*
X21684500Y-6223500D02*
G75*
G03*
X21684500Y-6223500I-30000J0D01*
G01*
X21674500Y-6253500D02*
X21674500Y-6193500D01*
X21634500Y-6253500D02*
X21634500Y-6193500D01*
X21674500Y-6193500D02*
G75*
G03*
X21634500Y-6193500I-20000J0D01*
G01*
X21634500Y-6253500D02*
G75*
G03*
X21674500Y-6253500I20000J0D01*
G01*
X21684500Y-6641500D02*
G75*
G03*
X21684500Y-6641500I-30000J0D01*
G01*
X21674500Y-6696500D02*
X21674500Y-6586500D01*
X21634500Y-6696500D02*
X21634500Y-6586500D01*
X21674500Y-6586500D02*
G75*
G03*
X21634500Y-6586500I-20000J0D01*
G01*
X21634500Y-6696500D02*
G75*
G03*
X21674500Y-6696500I20000J0D01*
G01*
X4160500Y-6878500D02*
X4160500Y-6958500D01*
X4120500Y-6918500D02*
X4200500Y-6918500D01*
X4170500Y-7278500D02*
X4170500Y-7358500D01*
X4130500Y-7318500D02*
X4210500Y-7318500D01*
X4170500Y-7678500D02*
X4170500Y-7758500D01*
X4130500Y-7718500D02*
X4210500Y-7718500D01*
X4170500Y-8078500D02*
X4170500Y-8158500D01*
X4130500Y-8118500D02*
X4210500Y-8118500D01*
X4170500Y-8478500D02*
X4170500Y-8558500D01*
X4130500Y-8518500D02*
X4210500Y-8518500D01*
X4170500Y-8878500D02*
X4170500Y-8958500D01*
X4130500Y-8918500D02*
X4210500Y-8918500D01*
X4922500Y-6878500D02*
X4922500Y-6958500D01*
X4882500Y-6918500D02*
X4962500Y-6918500D01*
X4932500Y-7278500D02*
X4932500Y-7358500D01*
X4892500Y-7318500D02*
X4972500Y-7318500D01*
X4932500Y-7678500D02*
X4932500Y-7758500D01*
X4892500Y-7718500D02*
X4972500Y-7718500D01*
X4932500Y-8078500D02*
X4932500Y-8158500D01*
X4892500Y-8118500D02*
X4972500Y-8118500D01*
X4932500Y-8478500D02*
X4932500Y-8558500D01*
X4892500Y-8518500D02*
X4972500Y-8518500D01*
X4932500Y-8878500D02*
X4932500Y-8958500D01*
X4892500Y-8918500D02*
X4972500Y-8918500D01*
X5980500Y-6878500D02*
X5980500Y-6958500D01*
X5940500Y-6918500D02*
X6020500Y-6918500D01*
X5980500Y-7278500D02*
X5980500Y-7358500D01*
X5940500Y-7318500D02*
X6020500Y-7318500D01*
X5980500Y-8478500D02*
X5980500Y-8558500D01*
X5940500Y-8518500D02*
X6020500Y-8518500D01*
X6742500Y-6878500D02*
X6742500Y-6958500D01*
X6702500Y-6918500D02*
X6782500Y-6918500D01*
X6742500Y-7278500D02*
X6742500Y-7358500D01*
X6702500Y-7318500D02*
X6782500Y-7318500D01*
X6742500Y-8478500D02*
X6742500Y-8558500D01*
X6702500Y-8518500D02*
X6782500Y-8518500D01*
X7790500Y-7278500D02*
X7790500Y-7358500D01*
X7750500Y-7318500D02*
X7830500Y-7318500D01*
X7790500Y-7678500D02*
X7790500Y-7758500D01*
X7750500Y-7718500D02*
X7830500Y-7718500D01*
X7790500Y-8078500D02*
X7790500Y-8158500D01*
X7750500Y-8118500D02*
X7830500Y-8118500D01*
X7790500Y-8478500D02*
X7790500Y-8558500D01*
X7750500Y-8518500D02*
X7830500Y-8518500D01*
X7790500Y-8878500D02*
X7790500Y-8958500D01*
X7750500Y-8918500D02*
X7830500Y-8918500D01*
X8552500Y-7278500D02*
X8552500Y-7358500D01*
X8512500Y-7318500D02*
X8592500Y-7318500D01*
X8552500Y-7678500D02*
X8552500Y-7758500D01*
X8512500Y-7718500D02*
X8592500Y-7718500D01*
X8552500Y-8078500D02*
X8552500Y-8158500D01*
X8512500Y-8118500D02*
X8592500Y-8118500D01*
X8552500Y-8478500D02*
X8552500Y-8558500D01*
X8512500Y-8518500D02*
X8592500Y-8518500D01*
X8552500Y-8878500D02*
X8552500Y-8958500D01*
X8512500Y-8918500D02*
X8592500Y-8918500D01*
X9600500Y-6878500D02*
X9600500Y-6958500D01*
X9560500Y-6918500D02*
X9640500Y-6918500D01*
X9600500Y-7278500D02*
X9600500Y-7358500D01*
X9560500Y-7318500D02*
X9640500Y-7318500D01*
X9600500Y-7678500D02*
X9600500Y-7758500D01*
X9560500Y-7718500D02*
X9640500Y-7718500D01*
X9600500Y-8078500D02*
X9600500Y-8158500D01*
X9560500Y-8118500D02*
X9640500Y-8118500D01*
X9600500Y-8478500D02*
X9600500Y-8558500D01*
X9560500Y-8518500D02*
X9640500Y-8518500D01*
X9600500Y-8878500D02*
X9600500Y-8958500D01*
X9560500Y-8918500D02*
X9640500Y-8918500D01*
X10362500Y-6878500D02*
X10362500Y-6958500D01*
X10322500Y-6918500D02*
X10402500Y-6918500D01*
X10362500Y-7278500D02*
X10362500Y-7358500D01*
X10322500Y-7318500D02*
X10402500Y-7318500D01*
X10362500Y-7678500D02*
X10362500Y-7758500D01*
X10322500Y-7718500D02*
X10402500Y-7718500D01*
X10362500Y-8078500D02*
X10362500Y-8158500D01*
X10322500Y-8118500D02*
X10402500Y-8118500D01*
X10362500Y-8478500D02*
X10362500Y-8558500D01*
X10322500Y-8518500D02*
X10402500Y-8518500D01*
X10362500Y-8878500D02*
X10362500Y-8958500D01*
X10322500Y-8918500D02*
X10402500Y-8918500D01*
X11410500Y-7278500D02*
X11410500Y-7358500D01*
X11370500Y-7318500D02*
X11450500Y-7318500D01*
X11410500Y-7678500D02*
X11410500Y-7758500D01*
X11370500Y-7718500D02*
X11450500Y-7718500D01*
X11410500Y-8078500D02*
X11410500Y-8158500D01*
X11370500Y-8118500D02*
X11450500Y-8118500D01*
X11410500Y-8478500D02*
X11410500Y-8558500D01*
X11370500Y-8518500D02*
X11450500Y-8518500D01*
X11410500Y-8878500D02*
X11410500Y-8958500D01*
X11370500Y-8918500D02*
X11450500Y-8918500D01*
X12172500Y-7278500D02*
X12172500Y-7358500D01*
X12132500Y-7318500D02*
X12212500Y-7318500D01*
X12172500Y-7678500D02*
X12172500Y-7758500D01*
X12132500Y-7718500D02*
X12212500Y-7718500D01*
X12172500Y-8078500D02*
X12172500Y-8158500D01*
X12132500Y-8118500D02*
X12212500Y-8118500D01*
X12172500Y-8478500D02*
X12172500Y-8558500D01*
X12132500Y-8518500D02*
X12212500Y-8518500D01*
X12172500Y-8878500D02*
X12172500Y-8958500D01*
X12132500Y-8918500D02*
X12212500Y-8918500D01*
X13215500Y-8478500D02*
X13215500Y-8558500D01*
X13175500Y-8518500D02*
X13255500Y-8518500D01*
X13215500Y-8878500D02*
X13215500Y-8958500D01*
X13175500Y-8918500D02*
X13255500Y-8918500D01*
X13220500Y-7278500D02*
X13220500Y-7358500D01*
X13180500Y-7318500D02*
X13260500Y-7318500D01*
X13220500Y-7678500D02*
X13220500Y-7758500D01*
X13180500Y-7718500D02*
X13260500Y-7718500D01*
X13220500Y-8078500D02*
X13220500Y-8158500D01*
X13180500Y-8118500D02*
X13260500Y-8118500D01*
X13977500Y-8478500D02*
X13977500Y-8558500D01*
X13937500Y-8518500D02*
X14017500Y-8518500D01*
X13977500Y-8878500D02*
X13977500Y-8958500D01*
X13937500Y-8918500D02*
X14017500Y-8918500D01*
X13982500Y-7278500D02*
X13982500Y-7358500D01*
X13942500Y-7318500D02*
X14022500Y-7318500D01*
X13982500Y-7678500D02*
X13982500Y-7758500D01*
X13942500Y-7718500D02*
X14022500Y-7718500D01*
X13982500Y-8078500D02*
X13982500Y-8158500D01*
X13942500Y-8118500D02*
X14022500Y-8118500D01*
X15020500Y-6878500D02*
X15020500Y-6958500D01*
X14980500Y-6918500D02*
X15060500Y-6918500D01*
X15020500Y-7278500D02*
X15020500Y-7358500D01*
X14980500Y-7318500D02*
X15060500Y-7318500D01*
X15020500Y-7678500D02*
X15020500Y-7758500D01*
X14980500Y-7718500D02*
X15060500Y-7718500D01*
X15020500Y-8078500D02*
X15020500Y-8158500D01*
X14980500Y-8118500D02*
X15060500Y-8118500D01*
X15024500Y-8478500D02*
X15024500Y-8558500D01*
X14984500Y-8518500D02*
X15064500Y-8518500D01*
X15782500Y-6878500D02*
X15782500Y-6958500D01*
X15742500Y-6918500D02*
X15822500Y-6918500D01*
X15782500Y-7278500D02*
X15782500Y-7358500D01*
X15742500Y-7318500D02*
X15822500Y-7318500D01*
X15782500Y-7678500D02*
X15782500Y-7758500D01*
X15742500Y-7718500D02*
X15822500Y-7718500D01*
X15782500Y-8078500D02*
X15782500Y-8158500D01*
X15742500Y-8118500D02*
X15822500Y-8118500D01*
X15786500Y-8478500D02*
X15786500Y-8558500D01*
X15746500Y-8518500D02*
X15826500Y-8518500D01*
X16830500Y-7278500D02*
X16830500Y-7358500D01*
X16790500Y-7318500D02*
X16870500Y-7318500D01*
X16830500Y-7678500D02*
X16830500Y-7758500D01*
X16790500Y-7718500D02*
X16870500Y-7718500D01*
X16830500Y-8078500D02*
X16830500Y-8158500D01*
X16790500Y-8118500D02*
X16870500Y-8118500D01*
X16833500Y-8478500D02*
X16833500Y-8558500D01*
X16793500Y-8518500D02*
X16873500Y-8518500D01*
X16834500Y-8878500D02*
X16834500Y-8958500D01*
X16794500Y-8918500D02*
X16874500Y-8918500D01*
X17592500Y-7278500D02*
X17592500Y-7358500D01*
X17552500Y-7318500D02*
X17632500Y-7318500D01*
X17592500Y-7678500D02*
X17592500Y-7758500D01*
X17552500Y-7718500D02*
X17632500Y-7718500D01*
X17592500Y-8078500D02*
X17592500Y-8158500D01*
X17552500Y-8118500D02*
X17632500Y-8118500D01*
X17595500Y-8478500D02*
X17595500Y-8558500D01*
X17555500Y-8518500D02*
X17635500Y-8518500D01*
X17596500Y-8878500D02*
X17596500Y-8958500D01*
X17556500Y-8918500D02*
X17636500Y-8918500D01*
X18640500Y-7278500D02*
X18640500Y-7358500D01*
X18600500Y-7318500D02*
X18680500Y-7318500D01*
X18640500Y-7678500D02*
X18640500Y-7758500D01*
X18600500Y-7718500D02*
X18680500Y-7718500D01*
X18640500Y-8078500D02*
X18640500Y-8158500D01*
X18600500Y-8118500D02*
X18680500Y-8118500D01*
X18640500Y-8478500D02*
X18640500Y-8558500D01*
X18600500Y-8518500D02*
X18680500Y-8518500D01*
X18640500Y-8878500D02*
X18640500Y-8958500D01*
X18600500Y-8918500D02*
X18680500Y-8918500D01*
X19402500Y-7278500D02*
X19402500Y-7358500D01*
X19362500Y-7318500D02*
X19442500Y-7318500D01*
X19402500Y-7678500D02*
X19402500Y-7758500D01*
X19362500Y-7718500D02*
X19442500Y-7718500D01*
X19402500Y-8078500D02*
X19402500Y-8158500D01*
X19362500Y-8118500D02*
X19442500Y-8118500D01*
X19402500Y-8478500D02*
X19402500Y-8558500D01*
X19362500Y-8518500D02*
X19442500Y-8518500D01*
X19402500Y-8878500D02*
X19402500Y-8958500D01*
X19362500Y-8918500D02*
X19442500Y-8918500D01*
X20450500Y-7278500D02*
X20450500Y-7358500D01*
X20410500Y-7318500D02*
X20490500Y-7318500D01*
X20450500Y-7678500D02*
X20450500Y-7758500D01*
X20410500Y-7718500D02*
X20490500Y-7718500D01*
X20450500Y-8078500D02*
X20450500Y-8158500D01*
X20410500Y-8118500D02*
X20490500Y-8118500D01*
X20450500Y-8478500D02*
X20450500Y-8558500D01*
X20410500Y-8518500D02*
X20490500Y-8518500D01*
X20450500Y-8878500D02*
X20450500Y-8958500D01*
X20410500Y-8918500D02*
X20490500Y-8918500D01*
X21212500Y-7278500D02*
X21212500Y-7358500D01*
X21172500Y-7318500D02*
X21252500Y-7318500D01*
X21212500Y-7678500D02*
X21212500Y-7758500D01*
X21172500Y-7718500D02*
X21252500Y-7718500D01*
X21212500Y-8078500D02*
X21212500Y-8158500D01*
X21172500Y-8118500D02*
X21252500Y-8118500D01*
X21212500Y-8478500D02*
X21212500Y-8558500D01*
X21172500Y-8518500D02*
X21252500Y-8518500D01*
X21212500Y-8878500D02*
X21212500Y-8958500D01*
X21172500Y-8918500D02*
X21252500Y-8918500D01*
X22260500Y-6878500D02*
X22260500Y-6958500D01*
X22220500Y-6918500D02*
X22300500Y-6918500D01*
X22260500Y-7278500D02*
X22260500Y-7358500D01*
X22220500Y-7318500D02*
X22300500Y-7318500D01*
X22260500Y-7678500D02*
X22260500Y-7758500D01*
X22220500Y-7718500D02*
X22300500Y-7718500D01*
X22260500Y-8078500D02*
X22260500Y-8158500D01*
X22220500Y-8118500D02*
X22300500Y-8118500D01*
X22260500Y-8478500D02*
X22260500Y-8558500D01*
X22220500Y-8518500D02*
X22300500Y-8518500D01*
X22260500Y-8878500D02*
X22260500Y-8958500D01*
X22220500Y-8918500D02*
X22300500Y-8918500D01*
X23022500Y-6878500D02*
X23022500Y-6958500D01*
X22982500Y-6918500D02*
X23062500Y-6918500D01*
X23022500Y-7278500D02*
X23022500Y-7358500D01*
X22982500Y-7318500D02*
X23062500Y-7318500D01*
X23022500Y-7678500D02*
X23022500Y-7758500D01*
X22982500Y-7718500D02*
X23062500Y-7718500D01*
X23022500Y-8078500D02*
X23022500Y-8158500D01*
X22982500Y-8118500D02*
X23062500Y-8118500D01*
X23022500Y-8478500D02*
X23022500Y-8558500D01*
X22982500Y-8518500D02*
X23062500Y-8518500D01*
X23022500Y-8878500D02*
X23022500Y-8958500D01*
X22982500Y-8918500D02*
X23062500Y-8918500D01*
X29885500Y-6628500D02*
X29885500Y-6708500D01*
X29845500Y-6668500D02*
X29925500Y-6668500D01*
X29885500Y-7023500D02*
X29885500Y-7103500D01*
X29845500Y-7063500D02*
X29925500Y-7063500D01*
X29885500Y-7418500D02*
X29885500Y-7498500D01*
X29845500Y-7458500D02*
X29925500Y-7458500D01*
X29885500Y-7813500D02*
X29885500Y-7893500D01*
X29845500Y-7853500D02*
X29925500Y-7853500D01*
X29885500Y-8208500D02*
X29885500Y-8288500D01*
X29845500Y-8248500D02*
X29925500Y-8248500D01*
X29885500Y-8603500D02*
X29885500Y-8683500D01*
X29845500Y-8643500D02*
X29925500Y-8643500D01*
X30647500Y-6628500D02*
X30647500Y-6708500D01*
X30607500Y-6668500D02*
X30687500Y-6668500D01*
X30647500Y-7023500D02*
X30647500Y-7103500D01*
X30607500Y-7063500D02*
X30687500Y-7063500D01*
X30647500Y-7418500D02*
X30647500Y-7498500D01*
X30607500Y-7458500D02*
X30687500Y-7458500D01*
X30647500Y-7813500D02*
X30647500Y-7893500D01*
X30607500Y-7853500D02*
X30687500Y-7853500D01*
X30647500Y-8208500D02*
X30647500Y-8288500D01*
X30607500Y-8248500D02*
X30687500Y-8248500D01*
X30647500Y-8603500D02*
X30647500Y-8683500D01*
X30607500Y-8643500D02*
X30687500Y-8643500D01*
X31140500Y-7418500D02*
X31140500Y-7498500D01*
X31100500Y-7458500D02*
X31180500Y-7458500D01*
X31140500Y-7813500D02*
X31140500Y-7893500D01*
X31100500Y-7853500D02*
X31180500Y-7853500D01*
X31140500Y-8208500D02*
X31140500Y-8288500D01*
X31100500Y-8248500D02*
X31180500Y-8248500D01*
X31140500Y-8603500D02*
X31140500Y-8683500D01*
X31100500Y-8643500D02*
X31180500Y-8643500D01*
X31902500Y-7418500D02*
X31902500Y-7498500D01*
X31862500Y-7458500D02*
X31942500Y-7458500D01*
X31902500Y-7813500D02*
X31902500Y-7893500D01*
X31862500Y-7853500D02*
X31942500Y-7853500D01*
X31902500Y-8208500D02*
X31902500Y-8288500D01*
X31862500Y-8248500D02*
X31942500Y-8248500D01*
X31902500Y-8603500D02*
X31902500Y-8683500D01*
X31862500Y-8643500D02*
X31942500Y-8643500D01*
X32395500Y-6628500D02*
X32395500Y-6708500D01*
X32355500Y-6668500D02*
X32435500Y-6668500D01*
X32395500Y-7023500D02*
X32395500Y-7103500D01*
X32355500Y-7063500D02*
X32435500Y-7063500D01*
X32395500Y-7418500D02*
X32395500Y-7498500D01*
X32355500Y-7458500D02*
X32435500Y-7458500D01*
X32395500Y-7813500D02*
X32395500Y-7893500D01*
X32355500Y-7853500D02*
X32435500Y-7853500D01*
X32395500Y-8603500D02*
X32395500Y-8683500D01*
X32355500Y-8643500D02*
X32435500Y-8643500D01*
X33157500Y-6628500D02*
X33157500Y-6708500D01*
X33117500Y-6668500D02*
X33197500Y-6668500D01*
X33157500Y-7023500D02*
X33157500Y-7103500D01*
X33117500Y-7063500D02*
X33197500Y-7063500D01*
X33157500Y-7418500D02*
X33157500Y-7498500D01*
X33117500Y-7458500D02*
X33197500Y-7458500D01*
X33157500Y-7813500D02*
X33157500Y-7893500D01*
X33117500Y-7853500D02*
X33197500Y-7853500D01*
X33157500Y-8603500D02*
X33157500Y-8683500D01*
X33117500Y-8643500D02*
X33197500Y-8643500D01*
X33650500Y-6628500D02*
X33650500Y-6708500D01*
X33610500Y-6668500D02*
X33690500Y-6668500D01*
X33650500Y-7418500D02*
X33650500Y-7498500D01*
X33610500Y-7458500D02*
X33690500Y-7458500D01*
X33650500Y-7813500D02*
X33650500Y-7893500D01*
X33610500Y-7853500D02*
X33690500Y-7853500D01*
X33650500Y-8208500D02*
X33650500Y-8288500D01*
X33610500Y-8248500D02*
X33690500Y-8248500D01*
X33650500Y-8603500D02*
X33650500Y-8683500D01*
X33610500Y-8643500D02*
X33690500Y-8643500D01*
X34412500Y-6628500D02*
X34412500Y-6708500D01*
X34372500Y-6668500D02*
X34452500Y-6668500D01*
X34412500Y-7418500D02*
X34412500Y-7498500D01*
X34372500Y-7458500D02*
X34452500Y-7458500D01*
X34412500Y-7813500D02*
X34412500Y-7893500D01*
X34372500Y-7853500D02*
X34452500Y-7853500D01*
X34412500Y-8208500D02*
X34412500Y-8288500D01*
X34372500Y-8248500D02*
X34452500Y-8248500D01*
X34412500Y-8603500D02*
X34412500Y-8683500D01*
X34372500Y-8643500D02*
X34452500Y-8643500D01*
X34905500Y-6628500D02*
X34905500Y-6708500D01*
X34865500Y-6668500D02*
X34945500Y-6668500D01*
X34905500Y-7813500D02*
X34905500Y-7893500D01*
X34865500Y-7853500D02*
X34945500Y-7853500D01*
X34905500Y-8208500D02*
X34905500Y-8288500D01*
X34865500Y-8248500D02*
X34945500Y-8248500D01*
X34905500Y-8603500D02*
X34905500Y-8683500D01*
X34865500Y-8643500D02*
X34945500Y-8643500D01*
X35667500Y-6628500D02*
X35667500Y-6708500D01*
X35627500Y-6668500D02*
X35707500Y-6668500D01*
X35667500Y-7813500D02*
X35667500Y-7893500D01*
X35627500Y-7853500D02*
X35707500Y-7853500D01*
X35667500Y-8208500D02*
X35667500Y-8288500D01*
X35627500Y-8248500D02*
X35707500Y-8248500D01*
X35667500Y-8603500D02*
X35667500Y-8683500D01*
X35627500Y-8643500D02*
X35707500Y-8643500D01*
X36160500Y-6628500D02*
X36160500Y-6708500D01*
X36120500Y-6668500D02*
X36200500Y-6668500D01*
X36160500Y-7023500D02*
X36160500Y-7103500D01*
X36120500Y-7063500D02*
X36200500Y-7063500D01*
X36160500Y-7813500D02*
X36160500Y-7893500D01*
X36120500Y-7853500D02*
X36200500Y-7853500D01*
X36160500Y-8208500D02*
X36160500Y-8288500D01*
X36120500Y-8248500D02*
X36200500Y-8248500D01*
X36160500Y-8603500D02*
X36160500Y-8683500D01*
X36120500Y-8643500D02*
X36200500Y-8643500D01*
X36922500Y-6628500D02*
X36922500Y-6708500D01*
X36882500Y-6668500D02*
X36962500Y-6668500D01*
X36922500Y-7023500D02*
X36922500Y-7103500D01*
X36882500Y-7063500D02*
X36962500Y-7063500D01*
X36922500Y-7813500D02*
X36922500Y-7893500D01*
X36882500Y-7853500D02*
X36962500Y-7853500D01*
X36922500Y-8208500D02*
X36922500Y-8288500D01*
X36882500Y-8248500D02*
X36962500Y-8248500D01*
X36922500Y-8603500D02*
X36922500Y-8683500D01*
X36882500Y-8643500D02*
X36962500Y-8643500D01*
X37415500Y-6628500D02*
X37415500Y-6708500D01*
X37375500Y-6668500D02*
X37455500Y-6668500D01*
X37415500Y-7813500D02*
X37415500Y-7893500D01*
X37375500Y-7853500D02*
X37455500Y-7853500D01*
X37415500Y-8208500D02*
X37415500Y-8288500D01*
X37375500Y-8248500D02*
X37455500Y-8248500D01*
X37415500Y-8603500D02*
X37415500Y-8683500D01*
X37375500Y-8643500D02*
X37455500Y-8643500D01*
X38177500Y-6628500D02*
X38177500Y-6708500D01*
X38137500Y-6668500D02*
X38217500Y-6668500D01*
X38177500Y-7813500D02*
X38177500Y-7893500D01*
X38137500Y-7853500D02*
X38217500Y-7853500D01*
X38177500Y-8208500D02*
X38177500Y-8288500D01*
X38137500Y-8248500D02*
X38217500Y-8248500D01*
X38177500Y-8603500D02*
X38177500Y-8683500D01*
X38137500Y-8643500D02*
X38217500Y-8643500D01*
X24327856Y-7404756D02*
X24327856Y-7334044D01*
X24257144Y-7334044D01*
X24257144Y-7404756D01*
X24327856Y-7404756D01*
X24327856Y-7607956D02*
X24327856Y-7537244D01*
X24257144Y-7537244D01*
X24257144Y-7607956D01*
X24327856Y-7607956D01*
X24292000Y-6633000D02*
X24343000Y-6582000D01*
X24292000Y-6531000D01*
X24241000Y-6582000D01*
X24292000Y-6633000D01*
X24292000Y-8411000D02*
X24343000Y-8360000D01*
X24292000Y-8309000D01*
X24241000Y-8360000D01*
X24292000Y-8411000D01*
X24546000Y-6633000D02*
X24597000Y-6582000D01*
X24546000Y-6531000D01*
X24495000Y-6582000D01*
X24546000Y-6633000D01*
X24546000Y-8411000D02*
X24597000Y-8360000D01*
X24546000Y-8309000D01*
X24495000Y-8360000D01*
X24546000Y-8411000D01*
X24800000Y-6633000D02*
X24851000Y-6582000D01*
X24800000Y-6531000D01*
X24749000Y-6582000D01*
X24800000Y-6633000D01*
X24800000Y-8411000D02*
X24851000Y-8360000D01*
X24800000Y-8309000D01*
X24749000Y-8360000D01*
X24800000Y-8411000D01*
X25054000Y-6633000D02*
X25105000Y-6582000D01*
X25054000Y-6531000D01*
X25003000Y-6582000D01*
X25054000Y-6633000D01*
X25054000Y-8411000D02*
X25105000Y-8360000D01*
X25054000Y-8309000D01*
X25003000Y-8360000D01*
X25054000Y-8411000D01*
X25308000Y-6633000D02*
X25359000Y-6582000D01*
X25308000Y-6531000D01*
X25257000Y-6582000D01*
X25308000Y-6633000D01*
X25308000Y-8411000D02*
X25359000Y-8360000D01*
X25308000Y-8309000D01*
X25257000Y-8360000D01*
X25308000Y-8411000D01*
X25562000Y-6633000D02*
X25613000Y-6582000D01*
X25562000Y-6531000D01*
X25511000Y-6582000D01*
X25562000Y-6633000D01*
X25562000Y-8411000D02*
X25613000Y-8360000D01*
X25562000Y-8309000D01*
X25511000Y-8360000D01*
X25562000Y-8411000D01*
X25816000Y-6633000D02*
X25867000Y-6582000D01*
X25816000Y-6531000D01*
X25765000Y-6582000D01*
X25816000Y-6633000D01*
X25816000Y-8411000D02*
X25867000Y-8360000D01*
X25816000Y-8309000D01*
X25765000Y-8360000D01*
X25816000Y-8411000D01*
X26070000Y-6633000D02*
X26121000Y-6582000D01*
X26070000Y-6531000D01*
X26019000Y-6582000D01*
X26070000Y-6633000D01*
X26070000Y-8411000D02*
X26121000Y-8360000D01*
X26070000Y-8309000D01*
X26019000Y-8360000D01*
X26070000Y-8411000D01*
X26324000Y-6633000D02*
X26375000Y-6582000D01*
X26324000Y-6531000D01*
X26273000Y-6582000D01*
X26324000Y-6633000D01*
X26324000Y-8411000D02*
X26375000Y-8360000D01*
X26324000Y-8309000D01*
X26273000Y-8360000D01*
X26324000Y-8411000D01*
X26578000Y-6633000D02*
X26629000Y-6582000D01*
X26578000Y-6531000D01*
X26527000Y-6582000D01*
X26578000Y-6633000D01*
X26578000Y-8411000D02*
X26629000Y-8360000D01*
X26578000Y-8309000D01*
X26527000Y-8360000D01*
X26578000Y-8411000D01*
X26832000Y-6633000D02*
X26883000Y-6582000D01*
X26832000Y-6531000D01*
X26781000Y-6582000D01*
X26832000Y-6633000D01*
X26832000Y-8411000D02*
X26883000Y-8360000D01*
X26832000Y-8309000D01*
X26781000Y-8360000D01*
X26832000Y-8411000D01*
X27086000Y-6633000D02*
X27137000Y-6582000D01*
X27086000Y-6531000D01*
X27035000Y-6582000D01*
X27086000Y-6633000D01*
X27086000Y-8411000D02*
X27137000Y-8360000D01*
X27086000Y-8309000D01*
X27035000Y-8360000D01*
X27086000Y-8411000D01*
X27340000Y-6633000D02*
X27391000Y-6582000D01*
X27340000Y-6531000D01*
X27289000Y-6582000D01*
X27340000Y-6633000D01*
X27340000Y-8411000D02*
X27391000Y-8360000D01*
X27340000Y-8309000D01*
X27289000Y-8360000D01*
X27340000Y-8411000D01*
X27594000Y-6633000D02*
X27645000Y-6582000D01*
X27594000Y-6531000D01*
X27543000Y-6582000D01*
X27594000Y-6633000D01*
X27594000Y-8411000D02*
X27645000Y-8360000D01*
X27594000Y-8309000D01*
X27543000Y-8360000D01*
X27594000Y-8411000D01*
X27848000Y-6633000D02*
X27899000Y-6582000D01*
X27848000Y-6531000D01*
X27797000Y-6582000D01*
X27848000Y-6633000D01*
X27848000Y-8411000D02*
X27899000Y-8360000D01*
X27848000Y-8309000D01*
X27797000Y-8360000D01*
X27848000Y-8411000D01*
X28102000Y-6633000D02*
X28153000Y-6582000D01*
X28102000Y-6531000D01*
X28051000Y-6582000D01*
X28102000Y-6633000D01*
X28102000Y-8411000D02*
X28153000Y-8360000D01*
X28102000Y-8309000D01*
X28051000Y-8360000D01*
X28102000Y-8411000D01*
X28356000Y-6633000D02*
X28407000Y-6582000D01*
X28356000Y-6531000D01*
X28305000Y-6582000D01*
X28356000Y-6633000D01*
X28356000Y-8411000D02*
X28407000Y-8360000D01*
X28356000Y-8309000D01*
X28305000Y-8360000D01*
X28356000Y-8411000D01*
X28610000Y-6633000D02*
X28661000Y-6582000D01*
X28610000Y-6531000D01*
X28559000Y-6582000D01*
X28610000Y-6633000D01*
X28610000Y-8411000D02*
X28661000Y-8360000D01*
X28610000Y-8309000D01*
X28559000Y-8360000D01*
X28610000Y-8411000D01*
X28864000Y-6633000D02*
X28915000Y-6582000D01*
X28864000Y-6531000D01*
X28813000Y-6582000D01*
X28864000Y-6633000D01*
X28864000Y-8411000D02*
X28915000Y-8360000D01*
X28864000Y-8309000D01*
X28813000Y-8360000D01*
X28864000Y-8411000D01*
X29095000Y-7268000D02*
X29146000Y-7217000D01*
X29095000Y-7166000D01*
X29044000Y-7217000D01*
X29095000Y-7268000D01*
X29095000Y-7522000D02*
X29146000Y-7471000D01*
X29095000Y-7420000D01*
X29044000Y-7471000D01*
X29095000Y-7522000D01*
X29095000Y-7776000D02*
X29146000Y-7725000D01*
X29095000Y-7674000D01*
X29044000Y-7725000D01*
X29095000Y-7776000D01*
X29118000Y-6633000D02*
X29169000Y-6582000D01*
X29118000Y-6531000D01*
X29067000Y-6582000D01*
X29118000Y-6633000D01*
X29118000Y-8411000D02*
X29169000Y-8360000D01*
X29118000Y-8309000D01*
X29067000Y-8360000D01*
X29118000Y-8411000D01*
D12*
X3773928Y-22049214D02*
X3773928Y-21749214D01*
X3845357Y-21749214D01*
X3888214Y-21763500D01*
X3916786Y-21792072D01*
X3931071Y-21820643D01*
X3945357Y-21877786D01*
X3945357Y-21920643D01*
X3931071Y-21977786D01*
X3916786Y-22006357D01*
X3888214Y-22034929D01*
X3845357Y-22049214D01*
X3773928Y-22049214D01*
X4073928Y-22049214D02*
X4073928Y-21849214D01*
X4073928Y-21906357D02*
X4088214Y-21877786D01*
X4102500Y-21863500D01*
X4131071Y-21849214D01*
X4159643Y-21849214D01*
X4259643Y-22049214D02*
X4259643Y-21849214D01*
X4259643Y-21749214D02*
X4245357Y-21763500D01*
X4259643Y-21777786D01*
X4273928Y-21763500D01*
X4259643Y-21749214D01*
X4259643Y-21777786D01*
X4445357Y-22049214D02*
X4416786Y-22034929D01*
X4402500Y-22006357D01*
X4402500Y-21749214D01*
X4602500Y-22049214D02*
X4573928Y-22034929D01*
X4559643Y-22006357D01*
X4559643Y-21749214D01*
X4945357Y-22049214D02*
X4945357Y-21749214D01*
X5045357Y-21963500D01*
X5145357Y-21749214D01*
X5145357Y-22049214D01*
X5416786Y-22049214D02*
X5416786Y-21892072D01*
X5402500Y-21863500D01*
X5373928Y-21849214D01*
X5316786Y-21849214D01*
X5288214Y-21863500D01*
X5416786Y-22034929D02*
X5388214Y-22049214D01*
X5316786Y-22049214D01*
X5288214Y-22034929D01*
X5273928Y-22006357D01*
X5273928Y-21977786D01*
X5288214Y-21949214D01*
X5316786Y-21934929D01*
X5388214Y-21934929D01*
X5416786Y-21920643D01*
X5559643Y-21849214D02*
X5559643Y-22149214D01*
X5559643Y-21863500D02*
X5588214Y-21849214D01*
X5645357Y-21849214D01*
X5673928Y-21863500D01*
X5688214Y-21877786D01*
X5702500Y-21906357D01*
X5702500Y-21992072D01*
X5688214Y-22020643D01*
X5673928Y-22034929D01*
X5645357Y-22049214D01*
X5588214Y-22049214D01*
X5559643Y-22034929D01*
X5831071Y-22020643D02*
X5845357Y-22034929D01*
X5831071Y-22049214D01*
X5816786Y-22034929D01*
X5831071Y-22020643D01*
X5831071Y-22049214D01*
X5831071Y-21863500D02*
X5845357Y-21877786D01*
X5831071Y-21892072D01*
X5816786Y-21877786D01*
X5831071Y-21863500D01*
X5831071Y-21892072D01*
X3447500Y-22523500D02*
X3487500Y-22563500D01*
X3487500Y-22523500D02*
X3447500Y-22563500D01*
X3831071Y-22379214D02*
X3859643Y-22379214D01*
X3888214Y-22393500D01*
X3902500Y-22407786D01*
X3916786Y-22436357D01*
X3931071Y-22493500D01*
X3931071Y-22564929D01*
X3916786Y-22622071D01*
X3902500Y-22650643D01*
X3888214Y-22664929D01*
X3859643Y-22679214D01*
X3831071Y-22679214D01*
X3802500Y-22664929D01*
X3788214Y-22650643D01*
X3773928Y-22622071D01*
X3759643Y-22564929D01*
X3759643Y-22493500D01*
X3773928Y-22436357D01*
X3788214Y-22407786D01*
X3802500Y-22393500D01*
X3831071Y-22379214D01*
X4059643Y-22650643D02*
X4073928Y-22664929D01*
X4059643Y-22679214D01*
X4045357Y-22664929D01*
X4059643Y-22650643D01*
X4059643Y-22679214D01*
X4331071Y-22479214D02*
X4331071Y-22679214D01*
X4259643Y-22364929D02*
X4188214Y-22579214D01*
X4373928Y-22579214D01*
X4545357Y-22379214D02*
X4573928Y-22379214D01*
X4602500Y-22393500D01*
X4616786Y-22407786D01*
X4631071Y-22436357D01*
X4645357Y-22493500D01*
X4645357Y-22564929D01*
X4631071Y-22622071D01*
X4616786Y-22650643D01*
X4602500Y-22664929D01*
X4573928Y-22679214D01*
X4545357Y-22679214D01*
X4516786Y-22664929D01*
X4502500Y-22650643D01*
X4488214Y-22622071D01*
X4473928Y-22564929D01*
X4473928Y-22493500D01*
X4488214Y-22436357D01*
X4502500Y-22407786D01*
X4516786Y-22393500D01*
X4545357Y-22379214D01*
X4773928Y-22679214D02*
X4773928Y-22479214D01*
X4773928Y-22507786D02*
X4788214Y-22493500D01*
X4816786Y-22479214D01*
X4859643Y-22479214D01*
X4888214Y-22493500D01*
X4902500Y-22522071D01*
X4902500Y-22679214D01*
X4902500Y-22522071D02*
X4916786Y-22493500D01*
X4945357Y-22479214D01*
X4988214Y-22479214D01*
X5016786Y-22493500D01*
X5031071Y-22522071D01*
X5031071Y-22679214D01*
X5173928Y-22679214D02*
X5173928Y-22479214D01*
X5173928Y-22507786D02*
X5188214Y-22493500D01*
X5216786Y-22479214D01*
X5259643Y-22479214D01*
X5288214Y-22493500D01*
X5302500Y-22522071D01*
X5302500Y-22679214D01*
X5302500Y-22522071D02*
X5316786Y-22493500D01*
X5345357Y-22479214D01*
X5388214Y-22479214D01*
X5416786Y-22493500D01*
X5431071Y-22522071D01*
X5431071Y-22679214D01*
X6016786Y-22364929D02*
X5759643Y-22750643D01*
X6402500Y-22379214D02*
X6431071Y-22379214D01*
X6459643Y-22393500D01*
X6473928Y-22407786D01*
X6488214Y-22436357D01*
X6502500Y-22493500D01*
X6502500Y-22564929D01*
X6488214Y-22622071D01*
X6473928Y-22650643D01*
X6459643Y-22664929D01*
X6431071Y-22679214D01*
X6402500Y-22679214D01*
X6373928Y-22664929D01*
X6359643Y-22650643D01*
X6345357Y-22622071D01*
X6331071Y-22564929D01*
X6331071Y-22493500D01*
X6345357Y-22436357D01*
X6359643Y-22407786D01*
X6373928Y-22393500D01*
X6402500Y-22379214D01*
X6631071Y-22650643D02*
X6645357Y-22664929D01*
X6631071Y-22679214D01*
X6616786Y-22664929D01*
X6631071Y-22650643D01*
X6631071Y-22679214D01*
X6831071Y-22379214D02*
X6859643Y-22379214D01*
X6888214Y-22393500D01*
X6902500Y-22407786D01*
X6916786Y-22436357D01*
X6931071Y-22493500D01*
X6931071Y-22564929D01*
X6916786Y-22622071D01*
X6902500Y-22650643D01*
X6888214Y-22664929D01*
X6859643Y-22679214D01*
X6831071Y-22679214D01*
X6802500Y-22664929D01*
X6788214Y-22650643D01*
X6773928Y-22622071D01*
X6759643Y-22564929D01*
X6759643Y-22493500D01*
X6773928Y-22436357D01*
X6788214Y-22407786D01*
X6802500Y-22393500D01*
X6831071Y-22379214D01*
X7216786Y-22679214D02*
X7045357Y-22679214D01*
X7131071Y-22679214D02*
X7131071Y-22379214D01*
X7102500Y-22422071D01*
X7073928Y-22450643D01*
X7045357Y-22464929D01*
X7473928Y-22379214D02*
X7416786Y-22379214D01*
X7388214Y-22393500D01*
X7373928Y-22407786D01*
X7345357Y-22450643D01*
X7331071Y-22507786D01*
X7331071Y-22622071D01*
X7345357Y-22650643D01*
X7359643Y-22664929D01*
X7388214Y-22679214D01*
X7445357Y-22679214D01*
X7473928Y-22664929D01*
X7488214Y-22650643D01*
X7502500Y-22622071D01*
X7502500Y-22550643D01*
X7488214Y-22522071D01*
X7473928Y-22507786D01*
X7445357Y-22493500D01*
X7388214Y-22493500D01*
X7359643Y-22507786D01*
X7345357Y-22522071D01*
X7331071Y-22550643D01*
X7616786Y-22379214D02*
X7616786Y-22436357D01*
X7731071Y-22379214D02*
X7731071Y-22436357D01*
X8173928Y-22793500D02*
X8159643Y-22779214D01*
X8131071Y-22736357D01*
X8116786Y-22707786D01*
X8102500Y-22664929D01*
X8088214Y-22593500D01*
X8088214Y-22536357D01*
X8102500Y-22464929D01*
X8116786Y-22422071D01*
X8131071Y-22393500D01*
X8159643Y-22350643D01*
X8173928Y-22336357D01*
X8445357Y-22679214D02*
X8273928Y-22679214D01*
X8359643Y-22679214D02*
X8359643Y-22379214D01*
X8331071Y-22422071D01*
X8302500Y-22450643D01*
X8273928Y-22464929D01*
X8588214Y-22679214D02*
X8645357Y-22679214D01*
X8673928Y-22664929D01*
X8688214Y-22650643D01*
X8716786Y-22607786D01*
X8731071Y-22550643D01*
X8731071Y-22436357D01*
X8716786Y-22407786D01*
X8702500Y-22393500D01*
X8673928Y-22379214D01*
X8616786Y-22379214D01*
X8588214Y-22393500D01*
X8573928Y-22407786D01*
X8559643Y-22436357D01*
X8559643Y-22507786D01*
X8573928Y-22536357D01*
X8588214Y-22550643D01*
X8616786Y-22564929D01*
X8673928Y-22564929D01*
X8702500Y-22550643D01*
X8716786Y-22536357D01*
X8731071Y-22507786D01*
X8831071Y-22379214D02*
X9031071Y-22379214D01*
X8902500Y-22679214D01*
X9373928Y-22679214D02*
X9373928Y-22379214D01*
X9502500Y-22679214D02*
X9502500Y-22522071D01*
X9488214Y-22493500D01*
X9459643Y-22479214D01*
X9416786Y-22479214D01*
X9388214Y-22493500D01*
X9373928Y-22507786D01*
X9688214Y-22679214D02*
X9659643Y-22664929D01*
X9645357Y-22650643D01*
X9631071Y-22622071D01*
X9631071Y-22536357D01*
X9645357Y-22507786D01*
X9659643Y-22493500D01*
X9688214Y-22479214D01*
X9731071Y-22479214D01*
X9759643Y-22493500D01*
X9773928Y-22507786D01*
X9788214Y-22536357D01*
X9788214Y-22622071D01*
X9773928Y-22650643D01*
X9759643Y-22664929D01*
X9731071Y-22679214D01*
X9688214Y-22679214D01*
X9959643Y-22679214D02*
X9931071Y-22664929D01*
X9916786Y-22636357D01*
X9916786Y-22379214D01*
X10188214Y-22664929D02*
X10159643Y-22679214D01*
X10102500Y-22679214D01*
X10073928Y-22664929D01*
X10059643Y-22636357D01*
X10059643Y-22522071D01*
X10073928Y-22493500D01*
X10102500Y-22479214D01*
X10159643Y-22479214D01*
X10188214Y-22493500D01*
X10202500Y-22522071D01*
X10202500Y-22550643D01*
X10059643Y-22579214D01*
X10316786Y-22664929D02*
X10345357Y-22679214D01*
X10402500Y-22679214D01*
X10431071Y-22664929D01*
X10445357Y-22636357D01*
X10445357Y-22622071D01*
X10431071Y-22593500D01*
X10402500Y-22579214D01*
X10359643Y-22579214D01*
X10331071Y-22564929D01*
X10316786Y-22536357D01*
X10316786Y-22522071D01*
X10331071Y-22493500D01*
X10359643Y-22479214D01*
X10402500Y-22479214D01*
X10431071Y-22493500D01*
X10545357Y-22793500D02*
X10559643Y-22779214D01*
X10588214Y-22736357D01*
X10602500Y-22707786D01*
X10616786Y-22664929D01*
X10631071Y-22593500D01*
X10631071Y-22536357D01*
X10616786Y-22464929D01*
X10602500Y-22422071D01*
X10588214Y-22393500D01*
X10559643Y-22350643D01*
X10545357Y-22336357D01*
X3487500Y-22939500D02*
G75*
G03*
X3487500Y-22939500I-30000J0D01*
G01*
X3831071Y-22775214D02*
X3859643Y-22775214D01*
X3888214Y-22789500D01*
X3902500Y-22803786D01*
X3916786Y-22832357D01*
X3931071Y-22889500D01*
X3931071Y-22960929D01*
X3916786Y-23018071D01*
X3902500Y-23046643D01*
X3888214Y-23060929D01*
X3859643Y-23075214D01*
X3831071Y-23075214D01*
X3802500Y-23060929D01*
X3788214Y-23046643D01*
X3773928Y-23018071D01*
X3759643Y-22960929D01*
X3759643Y-22889500D01*
X3773928Y-22832357D01*
X3788214Y-22803786D01*
X3802500Y-22789500D01*
X3831071Y-22775214D01*
X4059643Y-23046643D02*
X4073928Y-23060929D01*
X4059643Y-23075214D01*
X4045357Y-23060929D01*
X4059643Y-23046643D01*
X4059643Y-23075214D01*
X4331071Y-22775214D02*
X4273928Y-22775214D01*
X4245357Y-22789500D01*
X4231071Y-22803786D01*
X4202500Y-22846643D01*
X4188214Y-22903786D01*
X4188214Y-23018071D01*
X4202500Y-23046643D01*
X4216786Y-23060929D01*
X4245357Y-23075214D01*
X4302500Y-23075214D01*
X4331071Y-23060929D01*
X4345357Y-23046643D01*
X4359643Y-23018071D01*
X4359643Y-22946643D01*
X4345357Y-22918071D01*
X4331071Y-22903786D01*
X4302500Y-22889500D01*
X4245357Y-22889500D01*
X4216786Y-22903786D01*
X4202500Y-22918071D01*
X4188214Y-22946643D01*
X4545357Y-22775214D02*
X4573928Y-22775214D01*
X4602500Y-22789500D01*
X4616786Y-22803786D01*
X4631071Y-22832357D01*
X4645357Y-22889500D01*
X4645357Y-22960929D01*
X4631071Y-23018071D01*
X4616786Y-23046643D01*
X4602500Y-23060929D01*
X4573928Y-23075214D01*
X4545357Y-23075214D01*
X4516786Y-23060929D01*
X4502500Y-23046643D01*
X4488214Y-23018071D01*
X4473928Y-22960929D01*
X4473928Y-22889500D01*
X4488214Y-22832357D01*
X4502500Y-22803786D01*
X4516786Y-22789500D01*
X4545357Y-22775214D01*
X4773928Y-23075214D02*
X4773928Y-22875214D01*
X4773928Y-22903786D02*
X4788214Y-22889500D01*
X4816786Y-22875214D01*
X4859643Y-22875214D01*
X4888214Y-22889500D01*
X4902500Y-22918071D01*
X4902500Y-23075214D01*
X4902500Y-22918071D02*
X4916786Y-22889500D01*
X4945357Y-22875214D01*
X4988214Y-22875214D01*
X5016786Y-22889500D01*
X5031071Y-22918071D01*
X5031071Y-23075214D01*
X5173928Y-23075214D02*
X5173928Y-22875214D01*
X5173928Y-22903786D02*
X5188214Y-22889500D01*
X5216786Y-22875214D01*
X5259643Y-22875214D01*
X5288214Y-22889500D01*
X5302500Y-22918071D01*
X5302500Y-23075214D01*
X5302500Y-22918071D02*
X5316786Y-22889500D01*
X5345357Y-22875214D01*
X5388214Y-22875214D01*
X5416786Y-22889500D01*
X5431071Y-22918071D01*
X5431071Y-23075214D01*
X6016786Y-22760929D02*
X5759643Y-23146643D01*
X6402500Y-22775214D02*
X6431071Y-22775214D01*
X6459643Y-22789500D01*
X6473928Y-22803786D01*
X6488214Y-22832357D01*
X6502500Y-22889500D01*
X6502500Y-22960929D01*
X6488214Y-23018071D01*
X6473928Y-23046643D01*
X6459643Y-23060929D01*
X6431071Y-23075214D01*
X6402500Y-23075214D01*
X6373928Y-23060929D01*
X6359643Y-23046643D01*
X6345357Y-23018071D01*
X6331071Y-22960929D01*
X6331071Y-22889500D01*
X6345357Y-22832357D01*
X6359643Y-22803786D01*
X6373928Y-22789500D01*
X6402500Y-22775214D01*
X6631071Y-23046643D02*
X6645357Y-23060929D01*
X6631071Y-23075214D01*
X6616786Y-23060929D01*
X6631071Y-23046643D01*
X6631071Y-23075214D01*
X6831071Y-22775214D02*
X6859643Y-22775214D01*
X6888214Y-22789500D01*
X6902500Y-22803786D01*
X6916786Y-22832357D01*
X6931071Y-22889500D01*
X6931071Y-22960929D01*
X6916786Y-23018071D01*
X6902500Y-23046643D01*
X6888214Y-23060929D01*
X6859643Y-23075214D01*
X6831071Y-23075214D01*
X6802500Y-23060929D01*
X6788214Y-23046643D01*
X6773928Y-23018071D01*
X6759643Y-22960929D01*
X6759643Y-22889500D01*
X6773928Y-22832357D01*
X6788214Y-22803786D01*
X6802500Y-22789500D01*
X6831071Y-22775214D01*
X7045357Y-22803786D02*
X7059643Y-22789500D01*
X7088214Y-22775214D01*
X7159643Y-22775214D01*
X7188214Y-22789500D01*
X7202500Y-22803786D01*
X7216786Y-22832357D01*
X7216786Y-22860929D01*
X7202500Y-22903786D01*
X7031071Y-23075214D01*
X7216786Y-23075214D01*
X7473928Y-22875214D02*
X7473928Y-23075214D01*
X7402500Y-22760929D02*
X7331071Y-22975214D01*
X7516786Y-22975214D01*
X7616786Y-22775214D02*
X7616786Y-22832357D01*
X7731071Y-22775214D02*
X7731071Y-22832357D01*
X8173928Y-23189500D02*
X8159643Y-23175214D01*
X8131071Y-23132357D01*
X8116786Y-23103786D01*
X8102500Y-23060929D01*
X8088214Y-22989500D01*
X8088214Y-22932357D01*
X8102500Y-22860929D01*
X8116786Y-22818071D01*
X8131071Y-22789500D01*
X8159643Y-22746643D01*
X8173928Y-22732357D01*
X8345357Y-22775214D02*
X8373928Y-22775214D01*
X8402500Y-22789500D01*
X8416786Y-22803786D01*
X8431071Y-22832357D01*
X8445357Y-22889500D01*
X8445357Y-22960929D01*
X8431071Y-23018071D01*
X8416786Y-23046643D01*
X8402500Y-23060929D01*
X8373928Y-23075214D01*
X8345357Y-23075214D01*
X8316786Y-23060929D01*
X8302500Y-23046643D01*
X8288214Y-23018071D01*
X8273928Y-22960929D01*
X8273928Y-22889500D01*
X8288214Y-22832357D01*
X8302500Y-22803786D01*
X8316786Y-22789500D01*
X8345357Y-22775214D01*
X8802500Y-23075214D02*
X8802500Y-22775214D01*
X8931071Y-23075214D02*
X8931071Y-22918071D01*
X8916786Y-22889500D01*
X8888214Y-22875214D01*
X8845357Y-22875214D01*
X8816786Y-22889500D01*
X8802500Y-22903786D01*
X9116786Y-23075214D02*
X9088214Y-23060929D01*
X9073928Y-23046643D01*
X9059643Y-23018071D01*
X9059643Y-22932357D01*
X9073928Y-22903786D01*
X9088214Y-22889500D01*
X9116786Y-22875214D01*
X9159643Y-22875214D01*
X9188214Y-22889500D01*
X9202500Y-22903786D01*
X9216786Y-22932357D01*
X9216786Y-23018071D01*
X9202500Y-23046643D01*
X9188214Y-23060929D01*
X9159643Y-23075214D01*
X9116786Y-23075214D01*
X9388214Y-23075214D02*
X9359643Y-23060929D01*
X9345357Y-23032357D01*
X9345357Y-22775214D01*
X9616786Y-23060929D02*
X9588214Y-23075214D01*
X9531071Y-23075214D01*
X9502500Y-23060929D01*
X9488214Y-23032357D01*
X9488214Y-22918071D01*
X9502500Y-22889500D01*
X9531071Y-22875214D01*
X9588214Y-22875214D01*
X9616786Y-22889500D01*
X9631071Y-22918071D01*
X9631071Y-22946643D01*
X9488214Y-22975214D01*
X9745357Y-23060929D02*
X9773928Y-23075214D01*
X9831071Y-23075214D01*
X9859643Y-23060929D01*
X9873928Y-23032357D01*
X9873928Y-23018071D01*
X9859643Y-22989500D01*
X9831071Y-22975214D01*
X9788214Y-22975214D01*
X9759643Y-22960929D01*
X9745357Y-22932357D01*
X9745357Y-22918071D01*
X9759643Y-22889500D01*
X9788214Y-22875214D01*
X9831071Y-22875214D01*
X9859643Y-22889500D01*
X10231071Y-22960929D02*
X10459643Y-22960929D01*
X10345357Y-23075214D02*
X10345357Y-22846643D01*
X10959643Y-22875214D02*
X10959643Y-23075214D01*
X10888214Y-22760929D02*
X10816786Y-22975214D01*
X11002500Y-22975214D01*
X11331071Y-23060929D02*
X11359643Y-23075214D01*
X11416786Y-23075214D01*
X11445357Y-23060929D01*
X11459643Y-23032357D01*
X11459643Y-23018071D01*
X11445357Y-22989500D01*
X11416786Y-22975214D01*
X11373928Y-22975214D01*
X11345357Y-22960929D01*
X11331071Y-22932357D01*
X11331071Y-22918071D01*
X11345357Y-22889500D01*
X11373928Y-22875214D01*
X11416786Y-22875214D01*
X11445357Y-22889500D01*
X11631071Y-23075214D02*
X11602500Y-23060929D01*
X11588214Y-23032357D01*
X11588214Y-22775214D01*
X11788214Y-23075214D02*
X11759643Y-23060929D01*
X11745357Y-23046643D01*
X11731071Y-23018071D01*
X11731071Y-22932357D01*
X11745357Y-22903786D01*
X11759643Y-22889500D01*
X11788214Y-22875214D01*
X11831071Y-22875214D01*
X11859643Y-22889500D01*
X11873928Y-22903786D01*
X11888214Y-22932357D01*
X11888214Y-23018071D01*
X11873928Y-23046643D01*
X11859643Y-23060929D01*
X11831071Y-23075214D01*
X11788214Y-23075214D01*
X11973928Y-22875214D02*
X12088214Y-22875214D01*
X12016786Y-22775214D02*
X12016786Y-23032357D01*
X12031071Y-23060929D01*
X12059643Y-23075214D01*
X12088214Y-23075214D01*
X12173928Y-23060929D02*
X12202500Y-23075214D01*
X12259643Y-23075214D01*
X12288214Y-23060929D01*
X12302500Y-23032357D01*
X12302500Y-23018071D01*
X12288214Y-22989500D01*
X12259643Y-22975214D01*
X12216786Y-22975214D01*
X12188214Y-22960929D01*
X12173928Y-22932357D01*
X12173928Y-22918071D01*
X12188214Y-22889500D01*
X12216786Y-22875214D01*
X12259643Y-22875214D01*
X12288214Y-22889500D01*
X12402500Y-23189500D02*
X12416786Y-23175214D01*
X12445357Y-23132357D01*
X12459643Y-23103786D01*
X12473928Y-23060929D01*
X12488214Y-22989500D01*
X12488214Y-22932357D01*
X12473928Y-22860929D01*
X12459643Y-22818071D01*
X12445357Y-22789500D01*
X12416786Y-22746643D01*
X12402500Y-22732357D01*
X3447500Y-23295500D02*
X3447500Y-23375500D01*
X3407500Y-23335500D02*
X3487500Y-23335500D01*
X3831071Y-23171214D02*
X3859643Y-23171214D01*
X3888214Y-23185500D01*
X3902500Y-23199786D01*
X3916786Y-23228357D01*
X3931071Y-23285500D01*
X3931071Y-23356929D01*
X3916786Y-23414071D01*
X3902500Y-23442643D01*
X3888214Y-23456929D01*
X3859643Y-23471214D01*
X3831071Y-23471214D01*
X3802500Y-23456929D01*
X3788214Y-23442643D01*
X3773928Y-23414071D01*
X3759643Y-23356929D01*
X3759643Y-23285500D01*
X3773928Y-23228357D01*
X3788214Y-23199786D01*
X3802500Y-23185500D01*
X3831071Y-23171214D01*
X4059643Y-23442643D02*
X4073928Y-23456929D01*
X4059643Y-23471214D01*
X4045357Y-23456929D01*
X4059643Y-23442643D01*
X4059643Y-23471214D01*
X4245357Y-23299786D02*
X4216786Y-23285500D01*
X4202500Y-23271214D01*
X4188214Y-23242643D01*
X4188214Y-23228357D01*
X4202500Y-23199786D01*
X4216786Y-23185500D01*
X4245357Y-23171214D01*
X4302500Y-23171214D01*
X4331071Y-23185500D01*
X4345357Y-23199786D01*
X4359643Y-23228357D01*
X4359643Y-23242643D01*
X4345357Y-23271214D01*
X4331071Y-23285500D01*
X4302500Y-23299786D01*
X4245357Y-23299786D01*
X4216786Y-23314071D01*
X4202500Y-23328357D01*
X4188214Y-23356929D01*
X4188214Y-23414071D01*
X4202500Y-23442643D01*
X4216786Y-23456929D01*
X4245357Y-23471214D01*
X4302500Y-23471214D01*
X4331071Y-23456929D01*
X4345357Y-23442643D01*
X4359643Y-23414071D01*
X4359643Y-23356929D01*
X4345357Y-23328357D01*
X4331071Y-23314071D01*
X4302500Y-23299786D01*
X4545357Y-23171214D02*
X4573928Y-23171214D01*
X4602500Y-23185500D01*
X4616786Y-23199786D01*
X4631071Y-23228357D01*
X4645357Y-23285500D01*
X4645357Y-23356929D01*
X4631071Y-23414071D01*
X4616786Y-23442643D01*
X4602500Y-23456929D01*
X4573928Y-23471214D01*
X4545357Y-23471214D01*
X4516786Y-23456929D01*
X4502500Y-23442643D01*
X4488214Y-23414071D01*
X4473928Y-23356929D01*
X4473928Y-23285500D01*
X4488214Y-23228357D01*
X4502500Y-23199786D01*
X4516786Y-23185500D01*
X4545357Y-23171214D01*
X4773928Y-23471214D02*
X4773928Y-23271214D01*
X4773928Y-23299786D02*
X4788214Y-23285500D01*
X4816786Y-23271214D01*
X4859643Y-23271214D01*
X4888214Y-23285500D01*
X4902500Y-23314071D01*
X4902500Y-23471214D01*
X4902500Y-23314071D02*
X4916786Y-23285500D01*
X4945357Y-23271214D01*
X4988214Y-23271214D01*
X5016786Y-23285500D01*
X5031071Y-23314071D01*
X5031071Y-23471214D01*
X5173928Y-23471214D02*
X5173928Y-23271214D01*
X5173928Y-23299786D02*
X5188214Y-23285500D01*
X5216786Y-23271214D01*
X5259643Y-23271214D01*
X5288214Y-23285500D01*
X5302500Y-23314071D01*
X5302500Y-23471214D01*
X5302500Y-23314071D02*
X5316786Y-23285500D01*
X5345357Y-23271214D01*
X5388214Y-23271214D01*
X5416786Y-23285500D01*
X5431071Y-23314071D01*
X5431071Y-23471214D01*
X6016786Y-23156929D02*
X5759643Y-23542643D01*
X6402500Y-23171214D02*
X6431071Y-23171214D01*
X6459643Y-23185500D01*
X6473928Y-23199786D01*
X6488214Y-23228357D01*
X6502500Y-23285500D01*
X6502500Y-23356929D01*
X6488214Y-23414071D01*
X6473928Y-23442643D01*
X6459643Y-23456929D01*
X6431071Y-23471214D01*
X6402500Y-23471214D01*
X6373928Y-23456929D01*
X6359643Y-23442643D01*
X6345357Y-23414071D01*
X6331071Y-23356929D01*
X6331071Y-23285500D01*
X6345357Y-23228357D01*
X6359643Y-23199786D01*
X6373928Y-23185500D01*
X6402500Y-23171214D01*
X6631071Y-23442643D02*
X6645357Y-23456929D01*
X6631071Y-23471214D01*
X6616786Y-23456929D01*
X6631071Y-23442643D01*
X6631071Y-23471214D01*
X6831071Y-23171214D02*
X6859643Y-23171214D01*
X6888214Y-23185500D01*
X6902500Y-23199786D01*
X6916786Y-23228357D01*
X6931071Y-23285500D01*
X6931071Y-23356929D01*
X6916786Y-23414071D01*
X6902500Y-23442643D01*
X6888214Y-23456929D01*
X6859643Y-23471214D01*
X6831071Y-23471214D01*
X6802500Y-23456929D01*
X6788214Y-23442643D01*
X6773928Y-23414071D01*
X6759643Y-23356929D01*
X6759643Y-23285500D01*
X6773928Y-23228357D01*
X6788214Y-23199786D01*
X6802500Y-23185500D01*
X6831071Y-23171214D01*
X7031071Y-23171214D02*
X7216786Y-23171214D01*
X7116786Y-23285500D01*
X7159643Y-23285500D01*
X7188214Y-23299786D01*
X7202500Y-23314071D01*
X7216786Y-23342643D01*
X7216786Y-23414071D01*
X7202500Y-23442643D01*
X7188214Y-23456929D01*
X7159643Y-23471214D01*
X7073928Y-23471214D01*
X7045357Y-23456929D01*
X7031071Y-23442643D01*
X7502500Y-23471214D02*
X7331071Y-23471214D01*
X7416786Y-23471214D02*
X7416786Y-23171214D01*
X7388214Y-23214071D01*
X7359643Y-23242643D01*
X7331071Y-23256929D01*
X7616786Y-23171214D02*
X7616786Y-23228357D01*
X7731071Y-23171214D02*
X7731071Y-23228357D01*
X8173928Y-23585500D02*
X8159643Y-23571214D01*
X8131071Y-23528357D01*
X8116786Y-23499786D01*
X8102500Y-23456929D01*
X8088214Y-23385500D01*
X8088214Y-23328357D01*
X8102500Y-23256929D01*
X8116786Y-23214071D01*
X8131071Y-23185500D01*
X8159643Y-23142643D01*
X8173928Y-23128357D01*
X8445357Y-23471214D02*
X8273928Y-23471214D01*
X8359643Y-23471214D02*
X8359643Y-23171214D01*
X8331071Y-23214071D01*
X8302500Y-23242643D01*
X8273928Y-23256929D01*
X8545357Y-23171214D02*
X8745357Y-23171214D01*
X8616786Y-23471214D01*
X8902500Y-23299786D02*
X8873928Y-23285500D01*
X8859643Y-23271214D01*
X8845357Y-23242643D01*
X8845357Y-23228357D01*
X8859643Y-23199786D01*
X8873928Y-23185500D01*
X8902500Y-23171214D01*
X8959643Y-23171214D01*
X8988214Y-23185500D01*
X9002500Y-23199786D01*
X9016786Y-23228357D01*
X9016786Y-23242643D01*
X9002500Y-23271214D01*
X8988214Y-23285500D01*
X8959643Y-23299786D01*
X8902500Y-23299786D01*
X8873928Y-23314071D01*
X8859643Y-23328357D01*
X8845357Y-23356929D01*
X8845357Y-23414071D01*
X8859643Y-23442643D01*
X8873928Y-23456929D01*
X8902500Y-23471214D01*
X8959643Y-23471214D01*
X8988214Y-23456929D01*
X9002500Y-23442643D01*
X9016786Y-23414071D01*
X9016786Y-23356929D01*
X9002500Y-23328357D01*
X8988214Y-23314071D01*
X8959643Y-23299786D01*
X9373928Y-23471214D02*
X9373928Y-23171214D01*
X9502500Y-23471214D02*
X9502500Y-23314071D01*
X9488214Y-23285500D01*
X9459643Y-23271214D01*
X9416786Y-23271214D01*
X9388214Y-23285500D01*
X9373928Y-23299786D01*
X9688214Y-23471214D02*
X9659643Y-23456929D01*
X9645357Y-23442643D01*
X9631071Y-23414071D01*
X9631071Y-23328357D01*
X9645357Y-23299786D01*
X9659643Y-23285500D01*
X9688214Y-23271214D01*
X9731071Y-23271214D01*
X9759643Y-23285500D01*
X9773928Y-23299786D01*
X9788214Y-23328357D01*
X9788214Y-23414071D01*
X9773928Y-23442643D01*
X9759643Y-23456929D01*
X9731071Y-23471214D01*
X9688214Y-23471214D01*
X9959643Y-23471214D02*
X9931071Y-23456929D01*
X9916786Y-23428357D01*
X9916786Y-23171214D01*
X10188214Y-23456929D02*
X10159643Y-23471214D01*
X10102500Y-23471214D01*
X10073928Y-23456929D01*
X10059643Y-23428357D01*
X10059643Y-23314071D01*
X10073928Y-23285500D01*
X10102500Y-23271214D01*
X10159643Y-23271214D01*
X10188214Y-23285500D01*
X10202500Y-23314071D01*
X10202500Y-23342643D01*
X10059643Y-23371214D01*
X10316786Y-23456929D02*
X10345357Y-23471214D01*
X10402500Y-23471214D01*
X10431071Y-23456929D01*
X10445357Y-23428357D01*
X10445357Y-23414071D01*
X10431071Y-23385500D01*
X10402500Y-23371214D01*
X10359643Y-23371214D01*
X10331071Y-23356929D01*
X10316786Y-23328357D01*
X10316786Y-23314071D01*
X10331071Y-23285500D01*
X10359643Y-23271214D01*
X10402500Y-23271214D01*
X10431071Y-23285500D01*
X10545357Y-23585500D02*
X10559643Y-23571214D01*
X10588214Y-23528357D01*
X10602500Y-23499786D01*
X10616786Y-23456929D01*
X10631071Y-23385500D01*
X10631071Y-23328357D01*
X10616786Y-23256929D01*
X10602500Y-23214071D01*
X10588214Y-23185500D01*
X10559643Y-23142643D01*
X10545357Y-23128357D01*
X3472856Y-23766856D02*
X3472856Y-23696144D01*
X3402144Y-23696144D01*
X3402144Y-23766856D01*
X3472856Y-23766856D01*
X3931071Y-23867214D02*
X3759643Y-23867214D01*
X3845357Y-23867214D02*
X3845357Y-23567214D01*
X3816786Y-23610071D01*
X3788214Y-23638643D01*
X3759643Y-23652929D01*
X4059643Y-23838643D02*
X4073928Y-23852929D01*
X4059643Y-23867214D01*
X4045357Y-23852929D01*
X4059643Y-23838643D01*
X4059643Y-23867214D01*
X4259643Y-23567214D02*
X4288214Y-23567214D01*
X4316786Y-23581500D01*
X4331071Y-23595786D01*
X4345357Y-23624357D01*
X4359643Y-23681500D01*
X4359643Y-23752929D01*
X4345357Y-23810071D01*
X4331071Y-23838643D01*
X4316786Y-23852929D01*
X4288214Y-23867214D01*
X4259643Y-23867214D01*
X4231071Y-23852929D01*
X4216786Y-23838643D01*
X4202500Y-23810071D01*
X4188214Y-23752929D01*
X4188214Y-23681500D01*
X4202500Y-23624357D01*
X4216786Y-23595786D01*
X4231071Y-23581500D01*
X4259643Y-23567214D01*
X4545357Y-23567214D02*
X4573928Y-23567214D01*
X4602500Y-23581500D01*
X4616786Y-23595786D01*
X4631071Y-23624357D01*
X4645357Y-23681500D01*
X4645357Y-23752929D01*
X4631071Y-23810071D01*
X4616786Y-23838643D01*
X4602500Y-23852929D01*
X4573928Y-23867214D01*
X4545357Y-23867214D01*
X4516786Y-23852929D01*
X4502500Y-23838643D01*
X4488214Y-23810071D01*
X4473928Y-23752929D01*
X4473928Y-23681500D01*
X4488214Y-23624357D01*
X4502500Y-23595786D01*
X4516786Y-23581500D01*
X4545357Y-23567214D01*
X4773928Y-23867214D02*
X4773928Y-23667214D01*
X4773928Y-23695786D02*
X4788214Y-23681500D01*
X4816786Y-23667214D01*
X4859643Y-23667214D01*
X4888214Y-23681500D01*
X4902500Y-23710071D01*
X4902500Y-23867214D01*
X4902500Y-23710071D02*
X4916786Y-23681500D01*
X4945357Y-23667214D01*
X4988214Y-23667214D01*
X5016786Y-23681500D01*
X5031071Y-23710071D01*
X5031071Y-23867214D01*
X5173928Y-23867214D02*
X5173928Y-23667214D01*
X5173928Y-23695786D02*
X5188214Y-23681500D01*
X5216786Y-23667214D01*
X5259643Y-23667214D01*
X5288214Y-23681500D01*
X5302500Y-23710071D01*
X5302500Y-23867214D01*
X5302500Y-23710071D02*
X5316786Y-23681500D01*
X5345357Y-23667214D01*
X5388214Y-23667214D01*
X5416786Y-23681500D01*
X5431071Y-23710071D01*
X5431071Y-23867214D01*
X6016786Y-23552929D02*
X5759643Y-23938643D01*
X6402500Y-23567214D02*
X6431071Y-23567214D01*
X6459643Y-23581500D01*
X6473928Y-23595786D01*
X6488214Y-23624357D01*
X6502500Y-23681500D01*
X6502500Y-23752929D01*
X6488214Y-23810071D01*
X6473928Y-23838643D01*
X6459643Y-23852929D01*
X6431071Y-23867214D01*
X6402500Y-23867214D01*
X6373928Y-23852929D01*
X6359643Y-23838643D01*
X6345357Y-23810071D01*
X6331071Y-23752929D01*
X6331071Y-23681500D01*
X6345357Y-23624357D01*
X6359643Y-23595786D01*
X6373928Y-23581500D01*
X6402500Y-23567214D01*
X6631071Y-23838643D02*
X6645357Y-23852929D01*
X6631071Y-23867214D01*
X6616786Y-23852929D01*
X6631071Y-23838643D01*
X6631071Y-23867214D01*
X6831071Y-23567214D02*
X6859643Y-23567214D01*
X6888214Y-23581500D01*
X6902500Y-23595786D01*
X6916786Y-23624357D01*
X6931071Y-23681500D01*
X6931071Y-23752929D01*
X6916786Y-23810071D01*
X6902500Y-23838643D01*
X6888214Y-23852929D01*
X6859643Y-23867214D01*
X6831071Y-23867214D01*
X6802500Y-23852929D01*
X6788214Y-23838643D01*
X6773928Y-23810071D01*
X6759643Y-23752929D01*
X6759643Y-23681500D01*
X6773928Y-23624357D01*
X6788214Y-23595786D01*
X6802500Y-23581500D01*
X6831071Y-23567214D01*
X7031071Y-23567214D02*
X7216786Y-23567214D01*
X7116786Y-23681500D01*
X7159643Y-23681500D01*
X7188214Y-23695786D01*
X7202500Y-23710071D01*
X7216786Y-23738643D01*
X7216786Y-23810071D01*
X7202500Y-23838643D01*
X7188214Y-23852929D01*
X7159643Y-23867214D01*
X7073928Y-23867214D01*
X7045357Y-23852929D01*
X7031071Y-23838643D01*
X7359643Y-23867214D02*
X7416786Y-23867214D01*
X7445357Y-23852929D01*
X7459643Y-23838643D01*
X7488214Y-23795786D01*
X7502500Y-23738643D01*
X7502500Y-23624357D01*
X7488214Y-23595786D01*
X7473928Y-23581500D01*
X7445357Y-23567214D01*
X7388214Y-23567214D01*
X7359643Y-23581500D01*
X7345357Y-23595786D01*
X7331071Y-23624357D01*
X7331071Y-23695786D01*
X7345357Y-23724357D01*
X7359643Y-23738643D01*
X7388214Y-23752929D01*
X7445357Y-23752929D01*
X7473928Y-23738643D01*
X7488214Y-23724357D01*
X7502500Y-23695786D01*
X7616786Y-23567214D02*
X7616786Y-23624357D01*
X7731071Y-23567214D02*
X7731071Y-23624357D01*
X8173928Y-23981500D02*
X8159643Y-23967214D01*
X8131071Y-23924357D01*
X8116786Y-23895786D01*
X8102500Y-23852929D01*
X8088214Y-23781500D01*
X8088214Y-23724357D01*
X8102500Y-23652929D01*
X8116786Y-23610071D01*
X8131071Y-23581500D01*
X8159643Y-23538643D01*
X8173928Y-23524357D01*
X8273928Y-23595786D02*
X8288214Y-23581500D01*
X8316786Y-23567214D01*
X8388214Y-23567214D01*
X8416786Y-23581500D01*
X8431071Y-23595786D01*
X8445357Y-23624357D01*
X8445357Y-23652929D01*
X8431071Y-23695786D01*
X8259643Y-23867214D01*
X8445357Y-23867214D01*
X8802500Y-23867214D02*
X8802500Y-23567214D01*
X8931071Y-23867214D02*
X8931071Y-23710071D01*
X8916786Y-23681500D01*
X8888214Y-23667214D01*
X8845357Y-23667214D01*
X8816786Y-23681500D01*
X8802500Y-23695786D01*
X9116786Y-23867214D02*
X9088214Y-23852929D01*
X9073928Y-23838643D01*
X9059643Y-23810071D01*
X9059643Y-23724357D01*
X9073928Y-23695786D01*
X9088214Y-23681500D01*
X9116786Y-23667214D01*
X9159643Y-23667214D01*
X9188214Y-23681500D01*
X9202500Y-23695786D01*
X9216786Y-23724357D01*
X9216786Y-23810071D01*
X9202500Y-23838643D01*
X9188214Y-23852929D01*
X9159643Y-23867214D01*
X9116786Y-23867214D01*
X9388214Y-23867214D02*
X9359643Y-23852929D01*
X9345357Y-23824357D01*
X9345357Y-23567214D01*
X9616786Y-23852929D02*
X9588214Y-23867214D01*
X9531071Y-23867214D01*
X9502500Y-23852929D01*
X9488214Y-23824357D01*
X9488214Y-23710071D01*
X9502500Y-23681500D01*
X9531071Y-23667214D01*
X9588214Y-23667214D01*
X9616786Y-23681500D01*
X9631071Y-23710071D01*
X9631071Y-23738643D01*
X9488214Y-23767214D01*
X9745357Y-23852929D02*
X9773928Y-23867214D01*
X9831071Y-23867214D01*
X9859643Y-23852929D01*
X9873928Y-23824357D01*
X9873928Y-23810071D01*
X9859643Y-23781500D01*
X9831071Y-23767214D01*
X9788214Y-23767214D01*
X9759643Y-23752929D01*
X9745357Y-23724357D01*
X9745357Y-23710071D01*
X9759643Y-23681500D01*
X9788214Y-23667214D01*
X9831071Y-23667214D01*
X9859643Y-23681500D01*
X9973928Y-23981500D02*
X9988214Y-23967214D01*
X10016786Y-23924357D01*
X10031071Y-23895786D01*
X10045357Y-23852929D01*
X10059643Y-23781500D01*
X10059643Y-23724357D01*
X10045357Y-23652929D01*
X10031071Y-23610071D01*
X10016786Y-23581500D01*
X9988214Y-23538643D01*
X9973928Y-23524357D01*
X3436500Y-24178500D02*
X3487500Y-24127500D01*
X3436500Y-24076500D01*
X3385500Y-24127500D01*
X3436500Y-24178500D01*
X3931071Y-24263214D02*
X3759643Y-24263214D01*
X3845357Y-24263214D02*
X3845357Y-23963214D01*
X3816786Y-24006071D01*
X3788214Y-24034643D01*
X3759643Y-24048929D01*
X4059643Y-24234643D02*
X4073928Y-24248929D01*
X4059643Y-24263214D01*
X4045357Y-24248929D01*
X4059643Y-24234643D01*
X4059643Y-24263214D01*
X4259643Y-23963214D02*
X4288214Y-23963214D01*
X4316786Y-23977500D01*
X4331071Y-23991786D01*
X4345357Y-24020357D01*
X4359643Y-24077500D01*
X4359643Y-24148929D01*
X4345357Y-24206071D01*
X4331071Y-24234643D01*
X4316786Y-24248929D01*
X4288214Y-24263214D01*
X4259643Y-24263214D01*
X4231071Y-24248929D01*
X4216786Y-24234643D01*
X4202500Y-24206071D01*
X4188214Y-24148929D01*
X4188214Y-24077500D01*
X4202500Y-24020357D01*
X4216786Y-23991786D01*
X4231071Y-23977500D01*
X4259643Y-23963214D01*
X4473928Y-23991786D02*
X4488214Y-23977500D01*
X4516786Y-23963214D01*
X4588214Y-23963214D01*
X4616786Y-23977500D01*
X4631071Y-23991786D01*
X4645357Y-24020357D01*
X4645357Y-24048929D01*
X4631071Y-24091786D01*
X4459643Y-24263214D01*
X4645357Y-24263214D01*
X4773928Y-24263214D02*
X4773928Y-24063214D01*
X4773928Y-24091786D02*
X4788214Y-24077500D01*
X4816786Y-24063214D01*
X4859643Y-24063214D01*
X4888214Y-24077500D01*
X4902500Y-24106071D01*
X4902500Y-24263214D01*
X4902500Y-24106071D02*
X4916786Y-24077500D01*
X4945357Y-24063214D01*
X4988214Y-24063214D01*
X5016786Y-24077500D01*
X5031071Y-24106071D01*
X5031071Y-24263214D01*
X5173928Y-24263214D02*
X5173928Y-24063214D01*
X5173928Y-24091786D02*
X5188214Y-24077500D01*
X5216786Y-24063214D01*
X5259643Y-24063214D01*
X5288214Y-24077500D01*
X5302500Y-24106071D01*
X5302500Y-24263214D01*
X5302500Y-24106071D02*
X5316786Y-24077500D01*
X5345357Y-24063214D01*
X5388214Y-24063214D01*
X5416786Y-24077500D01*
X5431071Y-24106071D01*
X5431071Y-24263214D01*
X6016786Y-23948929D02*
X5759643Y-24334643D01*
X6402500Y-23963214D02*
X6431071Y-23963214D01*
X6459643Y-23977500D01*
X6473928Y-23991786D01*
X6488214Y-24020357D01*
X6502500Y-24077500D01*
X6502500Y-24148929D01*
X6488214Y-24206071D01*
X6473928Y-24234643D01*
X6459643Y-24248929D01*
X6431071Y-24263214D01*
X6402500Y-24263214D01*
X6373928Y-24248929D01*
X6359643Y-24234643D01*
X6345357Y-24206071D01*
X6331071Y-24148929D01*
X6331071Y-24077500D01*
X6345357Y-24020357D01*
X6359643Y-23991786D01*
X6373928Y-23977500D01*
X6402500Y-23963214D01*
X6631071Y-24234643D02*
X6645357Y-24248929D01*
X6631071Y-24263214D01*
X6616786Y-24248929D01*
X6631071Y-24234643D01*
X6631071Y-24263214D01*
X6831071Y-23963214D02*
X6859643Y-23963214D01*
X6888214Y-23977500D01*
X6902500Y-23991786D01*
X6916786Y-24020357D01*
X6931071Y-24077500D01*
X6931071Y-24148929D01*
X6916786Y-24206071D01*
X6902500Y-24234643D01*
X6888214Y-24248929D01*
X6859643Y-24263214D01*
X6831071Y-24263214D01*
X6802500Y-24248929D01*
X6788214Y-24234643D01*
X6773928Y-24206071D01*
X6759643Y-24148929D01*
X6759643Y-24077500D01*
X6773928Y-24020357D01*
X6788214Y-23991786D01*
X6802500Y-23977500D01*
X6831071Y-23963214D01*
X7188214Y-24063214D02*
X7188214Y-24263214D01*
X7116786Y-23948929D02*
X7045357Y-24163214D01*
X7231071Y-24163214D01*
X7402500Y-23963214D02*
X7431071Y-23963214D01*
X7459643Y-23977500D01*
X7473928Y-23991786D01*
X7488214Y-24020357D01*
X7502500Y-24077500D01*
X7502500Y-24148929D01*
X7488214Y-24206071D01*
X7473928Y-24234643D01*
X7459643Y-24248929D01*
X7431071Y-24263214D01*
X7402500Y-24263214D01*
X7373928Y-24248929D01*
X7359643Y-24234643D01*
X7345357Y-24206071D01*
X7331071Y-24148929D01*
X7331071Y-24077500D01*
X7345357Y-24020357D01*
X7359643Y-23991786D01*
X7373928Y-23977500D01*
X7402500Y-23963214D01*
X7616786Y-23963214D02*
X7616786Y-24020357D01*
X7731071Y-23963214D02*
X7731071Y-24020357D01*
X8173928Y-24377500D02*
X8159643Y-24363214D01*
X8131071Y-24320357D01*
X8116786Y-24291786D01*
X8102500Y-24248929D01*
X8088214Y-24177500D01*
X8088214Y-24120357D01*
X8102500Y-24048929D01*
X8116786Y-24006071D01*
X8131071Y-23977500D01*
X8159643Y-23934643D01*
X8173928Y-23920357D01*
X8416786Y-24063214D02*
X8416786Y-24263214D01*
X8345357Y-23948929D02*
X8273928Y-24163214D01*
X8459643Y-24163214D01*
X8545357Y-23963214D02*
X8731071Y-23963214D01*
X8631071Y-24077500D01*
X8673928Y-24077500D01*
X8702500Y-24091786D01*
X8716786Y-24106071D01*
X8731071Y-24134643D01*
X8731071Y-24206071D01*
X8716786Y-24234643D01*
X8702500Y-24248929D01*
X8673928Y-24263214D01*
X8588214Y-24263214D01*
X8559643Y-24248929D01*
X8545357Y-24234643D01*
X9088214Y-24263214D02*
X9088214Y-23963214D01*
X9216786Y-24263214D02*
X9216786Y-24106071D01*
X9202500Y-24077500D01*
X9173928Y-24063214D01*
X9131071Y-24063214D01*
X9102500Y-24077500D01*
X9088214Y-24091786D01*
X9402500Y-24263214D02*
X9373928Y-24248929D01*
X9359643Y-24234643D01*
X9345357Y-24206071D01*
X9345357Y-24120357D01*
X9359643Y-24091786D01*
X9373928Y-24077500D01*
X9402500Y-24063214D01*
X9445357Y-24063214D01*
X9473928Y-24077500D01*
X9488214Y-24091786D01*
X9502500Y-24120357D01*
X9502500Y-24206071D01*
X9488214Y-24234643D01*
X9473928Y-24248929D01*
X9445357Y-24263214D01*
X9402500Y-24263214D01*
X9673928Y-24263214D02*
X9645357Y-24248929D01*
X9631071Y-24220357D01*
X9631071Y-23963214D01*
X9902500Y-24248929D02*
X9873928Y-24263214D01*
X9816786Y-24263214D01*
X9788214Y-24248929D01*
X9773928Y-24220357D01*
X9773928Y-24106071D01*
X9788214Y-24077500D01*
X9816786Y-24063214D01*
X9873928Y-24063214D01*
X9902500Y-24077500D01*
X9916786Y-24106071D01*
X9916786Y-24134643D01*
X9773928Y-24163214D01*
X10031071Y-24248929D02*
X10059643Y-24263214D01*
X10116786Y-24263214D01*
X10145357Y-24248929D01*
X10159643Y-24220357D01*
X10159643Y-24206071D01*
X10145357Y-24177500D01*
X10116786Y-24163214D01*
X10073928Y-24163214D01*
X10045357Y-24148929D01*
X10031071Y-24120357D01*
X10031071Y-24106071D01*
X10045357Y-24077500D01*
X10073928Y-24063214D01*
X10116786Y-24063214D01*
X10145357Y-24077500D01*
X10259643Y-24377500D02*
X10273928Y-24363214D01*
X10302500Y-24320357D01*
X10316786Y-24291786D01*
X10331071Y-24248929D01*
X10345357Y-24177500D01*
X10345357Y-24120357D01*
X10331071Y-24048929D01*
X10316786Y-24006071D01*
X10302500Y-23977500D01*
X10273928Y-23934643D01*
X10259643Y-23920357D01*
M02*
