0
SECTION
2
HEADER
9
$INSUNITS
70
4
9
$ACADVER
1
AC1014
9
$HANDSEED
5
FFFF
0
ENDSEC
0
SECTION
2
TABLES
0
TABLE
2
VPORT
5
8
100
AcDbSymbolTable
0
ENDTAB
0
TABLE
2
LTYPE
5
5
100
AcDbSymbolTable
0
LTYPE
5
14
100
AcDbSymbolTableRecord
100
AcDbLinetypeTableRecord
2
BYBLOCK
70
0
0
LTYPE
5
15
100
AcDbSymbolTableRecord
100
AcDbLinetypeTableRecord
2
BYLAYER
70
0
0
ENDTAB
0
TABLE
2
LAYER
5
2
100
AcDbSymbolTable
70
2
0
LAYER
5
50
100
AcDbSymbolTableRecord
100
AcDbLayerTableRecord
2
0
70
0
6
CONTINUOUS
0
ENDTAB
0
TABLE
2
STYLE
5
3
100
AcDbSymbolTable
70
1
0
STYLE
5
11
100
AcDbSymbolTableRecord
100
AcDbTextStyleTableRecord
2
STANDARD
70
0
0
ENDTAB
0
TABLE
2
VIEW
5
6
100
AcDbSymbolTable
70
0
0
ENDTAB
0
TABLE
2
UCS
5
7
100
AcDbSymbolTable
70
0
0
ENDTAB
0
TABLE
2
APPID
5
9
100
AcDbSymbolTable
70
2
0
APPID
5
12
100
AcDbSymbolTableRecord
100
AcDbRegAppTableRecord
2
ACAD
70
0
0
ENDTAB
0
TABLE
2
DIMSTYLE
5
A
100
AcDbSymbolTable
70
1
0
ENDTAB
0
TABLE
2
BLOCK_RECORD
5
1
100
AcDbSymbolTable
70
1
0
BLOCK_RECORD
5
1F
100
AcDbSymbolTableRecord
100
AcDbBlockTableRecord
2
*MODEL_SPACE
0
BLOCK_RECORD
5
1B
100
AcDbSymbolTableRecord
100
AcDbBlockTableRecord
2
*PAPER_SPACE
0
ENDTAB
0
ENDSEC
0
SECTION
2
BLOCKS
0
BLOCK
5
20
100
AcDbEntity
100
AcDbBlockBegin
2
*MODEL_SPACE
0
ENDBLK
5
21
100
AcDbEntity
100
AcDbBlockEnd
0
BLOCK
5
1C
100
AcDbEntity
100
AcDbBlockBegin
2
*PAPER_SPACE
0
ENDBLK
5
1D
100
AcDbEntity
100
AcDbBlockEnd
0
ENDSEC
0
SECTION
2
ENTITIES
0
LWPOLYLINE
5
100
100
AcDbEntity
8
0
100
AcDbPolyline
90
4
70
1
43
0.0
10
304.03700000000003
20
-213.566
10
318.03800000000001
20
-213.566
10
318.03800000000001
20
-199.56700000000001
10
304.03700000000003
20
-199.56700000000001
0
LWPOLYLINE
5
101
100
AcDbEntity
8
0
100
AcDbPolyline
90
36
70
1
43
0.0
10
121.54700000000003
20
-204.24300000000002
10
161.17099999999999
20
-204.24300000000002
10
161.17099999999999
20
-199.54400000000004
10
175.172
20
-199.54400000000004
10
175.172
20
-204.24300000000002
10
214.79600000000002
20
-204.24300000000002
10
214.79600000000002
20
-199.77400000000003
10
216.52100000000002
20
-199.77400000000003
10
216.52100000000002
20
-198.57299999999998
10
219.82200000000003
20
-198.57299999999998
10
219.82200000000003
20
-199.77400000000003
10
221.54700000000003
20
-199.77400000000003
10
221.54700000000003
20
-206.04400000000001
10
222.37099999999998
20
-206.04400000000001
10
222.37099999999998
20
-208.84299999999999
10
221.54700000000003
20
-208.84299999999999
10
221.54700000000003
20
-212.07300000000001
10
214.79600000000002
20
-212.07300000000001
10
214.79600000000002
20
-208.84299999999999
10
175.172
20
-208.84299999999999
10
175.172
20
-213.54300000000001
10
161.17099999999999
20
-213.54300000000001
10
161.17099999999999
20
-208.84299999999999
10
121.54700000000003
20
-208.84299999999999
10
121.54700000000003
20
-212.07300000000001
10
114.79600000000002
20
-212.07300000000001
10
114.79600000000002
20
-208.84299999999999
10
113.97200000000001
20
-208.84299999999999
10
113.97200000000001
20
-206.04400000000001
10
114.79600000000002
20
-206.04400000000001
10
114.79600000000002
20
-199.77400000000003
10
116.52100000000002
20
-199.77400000000003
10
116.52100000000002
20
-198.57299999999998
10
119.822
20
-198.57299999999998
10
119.822
20
-199.77400000000003
10
121.54700000000003
20
-199.77400000000003
0
LWPOLYLINE
5
102
100
AcDbEntity
8
0
100
AcDbPolyline
90
4
70
1
43
0.0
10
96.869700000000009
20
-108.79100000000001
10
110.869
20
-108.79100000000001
10
110.869
20
-94.792000000000002
10
96.869700000000009
20
-94.792000000000002
0
LWPOLYLINE
5
103
100
AcDbEntity
8
0
100
AcDbPolyline
90
4
70
1
43
0.0
10
39.719700000000003
20
-94.792000000000002
10
39.719700000000003
20
-108.79100000000001
10
53.719200000000001
20
-108.79100000000001
10
53.719200000000001
20
-94.792000000000002
0
CIRCLE
5
104
100
AcDbEntity
8
0
100
AcDbCircle
10
377.86699999999996
20
-62.704999999999998
30
0
40
1.1510899999999999
210
0
220
0
230
1
0
CIRCLE
5
105
100
AcDbEntity
8
0
100
AcDbCircle
10
212.22700000000003
20
-116.08499999999999
30
0
40
1.1499999999999999
210
0
220
0
230
1
0
LWPOLYLINE
5
106
100
AcDbEntity
8
0
100
AcDbPolyline
90
4
70
1
43
0.0
10
292.827
20
-85.349400000000003
10
239.94400000000002
20
-85.349400000000003
10
239.94400000000002
20
-64.013400000000019
10
292.827
20
-64.013400000000019
0
LWPOLYLINE
5
107
100
AcDbEntity
8
0
100
AcDbPolyline
90
4
70
1
43
0.0
10
77.819699999999997
20
-108.79100000000001
10
91.819000000000003
20
-108.79100000000001
10
91.819000000000003
20
-94.792000000000002
10
77.819699999999997
20
-94.792000000000002
0
LWPOLYLINE
5
108
100
AcDbEntity
8
0
100
AcDbPolyline
90
8
70
1
43
0.0
10
383.767
20
-212.78500000000003
10
383.767
20
-62.704999999999998
42
0.41421356237309503
10
380.76700000000005
20
-59.705000000000005
10
39.766999999999996
20
-59.685000000000002
42
0.41421356237309503
10
36.766999999999996
20
-62.684999999999995
10
36.766999999999996
20
-212.78500000000003
42
0.41421356237309503
10
39.76700000000001
20
-215.78500000000003
10
380.76700000000005
20
-215.78500000000003
42
0.41421356237309503
0
CIRCLE
5
109
100
AcDbEntity
8
0
100
AcDbCircle
10
325.267
20
-209.91500000000002
30
0
40
1.1510899999999999
210
0
220
0
230
1
0
LWPOLYLINE
5
110
100
AcDbEntity
8
0
100
AcDbPolyline
90
4
70
1
43
0.0
10
115.92
20
-108.79100000000001
10
129.91899999999998
20
-108.79100000000001
10
129.91899999999998
20
-94.792000000000002
10
115.92
20
-94.792000000000002
0
CIRCLE
5
111
100
AcDbEntity
8
0
100
AcDbCircle
10
379.66699999999997
20
-193.39500000000001
30
0
40
1.1510899999999999
210
0
220
0
230
1
0
CIRCLE
5
112
100
AcDbEntity
8
0
100
AcDbCircle
10
376.077
20
-116.065
30
0
40
1.1499999999999999
210
0
220
0
230
1
0
CIRCLE
5
113
100
AcDbEntity
8
0
100
AcDbCircle
10
41.266999999999996
20
-63.405000000000001
30
0
40
1.1510899999999999
210
0
220
0
230
1
0
LWPOLYLINE
5
114
100
AcDbEntity
8
0
100
AcDbPolyline
90
4
70
1
43
0.0
10
182.595
20
-108.79100000000001
10
196.59400000000005
20
-108.79100000000001
10
196.59400000000005
20
-94.792000000000002
10
182.595
20
-94.792000000000002
0
LWPOLYLINE
5
115
100
AcDbEntity
8
0
100
AcDbPolyline
90
4
70
1
43
0.0
10
249.27000000000004
20
-94.792000000000002
10
249.27000000000004
20
-108.79100000000001
10
263.26900000000001
20
-108.79100000000001
10
263.26900000000001
20
-94.792000000000002
0
CIRCLE
5
116
100
AcDbEntity
8
0
100
AcDbCircle
10
40.167000000000002
20
-196.30500000000001
30
0
40
1.1499999999999999
210
0
220
0
230
1
0
CIRCLE
5
117
100
AcDbEntity
8
0
100
AcDbCircle
10
48.376999999999995
20
-116.095
30
0
40
1.1499999999999999
210
0
220
0
230
1
0
CIRCLE
5
118
100
AcDbEntity
8
0
100
AcDbCircle
10
209.22700000000003
20
-210.18000000000001
30
0
40
1.1510899999999999
210
0
220
0
230
1
0
LWPOLYLINE
5
119
100
AcDbEntity
8
0
100
AcDbPolyline
90
4
70
1
43
0.0
10
201.64500000000004
20
-108.79100000000001
10
215.64400000000003
20
-108.79100000000001
10
215.64400000000003
20
-94.792000000000002
10
201.64500000000004
20
-94.792000000000002
0
LWPOLYLINE
5
120
100
AcDbEntity
8
0
100
AcDbPolyline
90
4
70
1
43
0.0
10
177.54400000000001
20
-108.79100000000001
10
177.54400000000001
20
-94.792000000000002
10
163.54499999999999
20
-94.792000000000002
10
163.54499999999999
20
-108.79100000000001
0
LWPOLYLINE
5
121
100
AcDbEntity
8
0
100
AcDbPolyline
90
4
70
1
43
0.0
10
134.96800000000002
20
-108.79100000000001
10
148.96899999999999
20
-108.79100000000001
10
148.96899999999999
20
-94.792000000000002
10
134.96800000000002
20
-94.792000000000002
0
LWPOLYLINE
5
122
100
AcDbEntity
8
0
100
AcDbPolyline
90
4
70
1
43
0.0
10
220.69500000000002
20
-108.79100000000001
10
234.69400000000005
20
-108.79100000000001
10
234.69400000000005
20
-94.792000000000002
10
220.69500000000002
20
-94.792000000000002
0
LWPOLYLINE
5
123
100
AcDbEntity
8
0
100
AcDbPolyline
90
4
70
1
43
0.0
10
363.28200000000004
20
-94.792000000000002
10
349.28199999999998
20
-94.792000000000002
10
349.28199999999998
20
-108.79100000000001
10
363.28200000000004
20
-108.79100000000001
0
LWPOLYLINE
5
124
100
AcDbEntity
8
0
100
AcDbPolyline
90
4
70
1
43
0.0
10
72.768999999999991
20
-123.367
10
58.7697
20
-123.367
10
58.7697
20
-137.36600000000004
10
72.768999999999991
20
-137.36600000000004
0
LWPOLYLINE
5
125
100
AcDbEntity
8
0
100
AcDbPolyline
90
4
70
1
43
0.0
10
77.819699999999997
20
-123.367
10
77.819699999999997
20
-137.36600000000004
10
91.819000000000003
20
-137.36600000000004
10
91.819000000000003
20
-123.367
0
LWPOLYLINE
5
126
100
AcDbEntity
8
0
100
AcDbPolyline
90
4
70
1
43
0.0
10
330.23199999999997
20
-94.792000000000002
10
330.23199999999997
20
-108.79100000000001
10
344.23200000000003
20
-108.79100000000001
10
344.23200000000003
20
-94.792000000000002
0
LWPOLYLINE
5
127
100
AcDbEntity
8
0
100
AcDbPolyline
90
4
70
1
43
0.0
10
282.31900000000002
20
-108.79100000000001
10
282.31900000000002
20
-94.792000000000002
10
268.31999999999999
20
-94.792000000000002
10
268.31999999999999
20
-108.79100000000001
0
LWPOLYLINE
5
128
100
AcDbEntity
8
0
100
AcDbPolyline
90
4
70
1
43
0.0
10
301.36900000000003
20
-94.792000000000002
10
287.37
20
-94.792000000000002
10
287.37
20
-108.79100000000001
10
301.36900000000003
20
-108.79100000000001
0
LWPOLYLINE
5
129
100
AcDbEntity
8
0
100
AcDbPolyline
90
4
70
1
43
0.0
10
382.33200000000005
20
-94.792000000000002
10
368.33199999999999
20
-94.792000000000002
10
368.33199999999999
20
-108.79100000000001
10
382.33200000000005
20
-108.79100000000001
0
LWPOLYLINE
5
130
100
AcDbEntity
8
0
100
AcDbPolyline
90
4
70
1
43
0.0
10
96.869700000000009
20
-137.36600000000004
10
110.869
20
-137.36600000000004
10
110.869
20
-123.367
10
96.869700000000009
20
-123.367
0
LWPOLYLINE
5
131
100
AcDbEntity
8
0
100
AcDbPolyline
90
4
70
1
43
0.0
10
320.41900000000004
20
-108.79100000000001
10
320.41900000000004
20
-94.792000000000002
10
306.42000000000002
20
-94.792000000000002
10
306.42000000000002
20
-108.79100000000001
0
LWPOLYLINE
5
132
100
AcDbEntity
8
0
100
AcDbPolyline
90
4
70
1
43
0.0
10
39.719700000000003
20
-123.367
10
39.719700000000003
20
-137.36600000000004
10
53.719200000000001
20
-137.36600000000004
10
53.719200000000001
20
-123.367
0
LWPOLYLINE
5
133
100
AcDbEntity
8
0
100
AcDbPolyline
90
4
70
1
43
0.0
10
249.27000000000004
20
-137.36600000000004
10
263.26900000000001
20
-137.36600000000004
10
263.26900000000001
20
-123.367
10
249.27000000000004
20
-123.367
0
LWPOLYLINE
5
134
100
AcDbEntity
8
0
100
AcDbPolyline
90
4
70
1
43
0.0
10
225.16900000000004
20
-137.36600000000004
10
225.16900000000004
20
-123.367
10
211.17000000000002
20
-123.367
10
211.17000000000002
20
-137.36600000000004
0
LWPOLYLINE
5
135
100
AcDbEntity
8
0
100
AcDbPolyline
90
4
70
1
43
0.0
10
148.96899999999999
20
-123.367
10
134.96800000000002
20
-123.367
10
134.96800000000002
20
-137.36600000000004
10
148.96899999999999
20
-137.36600000000004
0
LWPOLYLINE
5
136
100
AcDbEntity
8
0
100
AcDbPolyline
90
4
70
1
43
0.0
10
192.12000000000003
20
-123.367
10
192.12000000000003
20
-137.36600000000004
10
206.11900000000006
20
-137.36600000000004
10
206.11900000000006
20
-123.367
0
LWPOLYLINE
5
137
100
AcDbEntity
8
0
100
AcDbPolyline
90
4
70
1
43
0.0
10
230.22000000000003
20
-137.36600000000004
10
244.21900000000005
20
-137.36600000000004
10
244.21900000000005
20
-123.367
10
230.22000000000003
20
-123.367
0
LWPOLYLINE
5
138
100
AcDbEntity
8
0
100
AcDbPolyline
90
4
70
1
43
0.0
10
168.01900000000001
20
-137.36600000000004
10
168.01900000000001
20
-123.367
10
154.01800000000003
20
-123.367
10
154.01800000000003
20
-137.36600000000004
0
LWPOLYLINE
5
139
100
AcDbEntity
8
0
100
AcDbPolyline
90
4
70
1
43
0.0
10
187.06900000000002
20
-137.36600000000004
10
187.06900000000002
20
-123.367
10
173.06999999999999
20
-123.367
10
173.06999999999999
20
-137.36600000000004
0
LWPOLYLINE
5
140
100
AcDbEntity
8
0
100
AcDbPolyline
90
4
70
1
43
0.0
10
115.92
20
-137.36600000000004
10
129.91899999999998
20
-137.36600000000004
10
129.91899999999998
20
-123.367
10
115.92
20
-123.367
0
LWPOLYLINE
5
141
100
AcDbEntity
8
0
100
AcDbPolyline
90
4
70
1
43
0.0
10
349.28199999999998
20
-137.36600000000004
10
363.28200000000004
20
-137.36600000000004
10
363.28200000000004
20
-123.367
10
349.28199999999998
20
-123.367
0
LWPOLYLINE
5
142
100
AcDbEntity
8
0
100
AcDbPolyline
90
36
70
1
43
0.0
10
317.44400000000002
20
-137.136
10
317.44400000000002
20
-138.33600000000001
10
314.14499999999998
20
-138.33600000000001
10
314.14499999999998
20
-137.136
10
312.42000000000007
20
-137.136
10
312.42000000000007
20
-132.667
10
310.89400000000001
20
-132.667
10
310.89400000000001
20
-137.36600000000004
10
296.89499999999998
20
-137.36600000000004
10
296.89499999999998
20
-132.667
10
295.36900000000003
20
-132.667
10
295.36900000000003
20
-137.136
10
293.64400000000001
20
-137.136
10
293.64400000000001
20
-138.33600000000001
10
290.34300000000002
20
-138.33600000000001
10
290.34300000000002
20
-137.136
10
288.62
20
-137.136
10
288.62
20
-130.86600000000001
10
287.79400000000004
20
-130.86600000000001
10
287.79400000000004
20
-128.06700000000001
10
288.62
20
-128.06700000000001
10
288.62
20
-124.837
10
295.36900000000003
20
-124.837
10
295.36900000000003
20
-128.06700000000001
10
296.89499999999998
20
-128.06700000000001
10
296.89499999999998
20
-123.367
10
310.89400000000001
20
-123.367
10
310.89400000000001
20
-128.06700000000001
10
312.42000000000007
20
-128.06700000000001
10
312.42000000000007
20
-124.837
10
319.16900000000004
20
-124.837
10
319.16900000000004
20
-128.06700000000001
10
319.995
20
-128.06700000000001
10
319.995
20
-130.86600000000001
10
319.16900000000004
20
-130.86600000000001
10
319.16900000000004
20
-137.136
0
LWPOLYLINE
5
143
100
AcDbEntity
8
0
100
AcDbPolyline
90
4
70
1
43
0.0
10
330.23199999999997
20
-123.367
10
330.23199999999997
20
-137.36600000000004
10
344.23200000000003
20
-137.36600000000004
10
344.23200000000003
20
-123.367
0
LWPOLYLINE
5
144
100
AcDbEntity
8
0
100
AcDbPolyline
90
4
70
1
43
0.0
10
268.31999999999999
20
-123.367
10
268.31999999999999
20
-137.36600000000004
10
282.31900000000002
20
-137.36600000000004
10
282.31900000000002
20
-123.367
0
LWPOLYLINE
5
145
100
AcDbEntity
8
0
100
AcDbPolyline
90
4
70
1
43
0.0
10
368.33199999999999
20
-137.36600000000004
10
382.33200000000005
20
-137.36600000000004
10
382.33200000000005
20
-123.367
10
368.33199999999999
20
-123.367
0
LWPOLYLINE
5
146
100
AcDbEntity
8
0
100
AcDbPolyline
90
4
70
1
43
0.0
10
58.481699999999996
20
-142.41700000000003
10
44.482199999999999
20
-142.41700000000003
10
44.482199999999999
20
-156.416
10
58.481699999999996
20
-156.416
0
LWPOLYLINE
5
147
100
AcDbEntity
8
0
100
AcDbPolyline
90
4
70
1
43
0.0
10
87.344700000000003
20
-156.416
10
101.34399999999999
20
-156.416
10
101.34399999999999
20
-142.41700000000003
10
87.344700000000003
20
-142.41700000000003
0
LWPOLYLINE
5
148
100
AcDbEntity
8
0
100
AcDbPolyline
90
4
70
1
43
0.0
10
120.39400000000001
20
-142.41700000000003
10
106.395
20
-142.41700000000003
10
106.395
20
-156.416
10
120.39400000000001
20
-156.416
0
LWPOLYLINE
5
149
100
AcDbEntity
8
0
100
AcDbPolyline
90
4
70
1
43
0.0
10
68.294700000000006
20
-156.416
10
82.293999999999997
20
-156.416
10
82.293999999999997
20
-142.41700000000003
10
68.294700000000006
20
-142.41700000000003
0
LWPOLYLINE
5
150
100
AcDbEntity
8
0
100
AcDbPolyline
90
4
70
1
43
0.0
10
330.23199999999997
20
-142.41700000000003
10
330.23199999999997
20
-156.416
10
344.23200000000003
20
-156.416
10
344.23200000000003
20
-142.41700000000003
0
LWPOLYLINE
5
151
100
AcDbEntity
8
0
100
AcDbPolyline
90
4
70
1
43
0.0
10
196.59400000000005
20
-156.416
10
196.59400000000005
20
-142.41700000000003
10
182.595
20
-142.41700000000003
10
182.595
20
-156.416
0
LWPOLYLINE
5
152
100
AcDbEntity
8
0
100
AcDbPolyline
90
4
70
1
43
0.0
10
368.33199999999999
20
-156.416
10
382.33200000000005
20
-156.416
10
382.33200000000005
20
-142.41700000000003
10
368.33199999999999
20
-142.41700000000003
0
LWPOLYLINE
5
153
100
AcDbEntity
8
0
100
AcDbPolyline
90
4
70
1
43
0.0
10
144.495
20
-156.416
10
158.494
20
-156.416
10
158.494
20
-142.41700000000003
10
144.495
20
-142.41700000000003
0
LWPOLYLINE
5
154
100
AcDbEntity
8
0
100
AcDbPolyline
90
4
70
1
43
0.0
10
163.54499999999999
20
-156.416
10
177.54400000000001
20
-156.416
10
177.54400000000001
20
-142.41700000000003
10
163.54499999999999
20
-142.41700000000003
0
LWPOLYLINE
5
155
100
AcDbEntity
8
0
100
AcDbPolyline
90
4
70
1
43
0.0
10
363.28200000000004
20
-156.416
10
363.28200000000004
20
-142.41700000000003
10
349.28199999999998
20
-142.41700000000003
10
349.28199999999998
20
-156.416
0
LWPOLYLINE
5
156
100
AcDbEntity
8
0
100
AcDbPolyline
90
4
70
1
43
0.0
10
234.69400000000005
20
-142.41700000000003
10
220.69500000000002
20
-142.41700000000003
10
220.69500000000002
20
-156.416
10
234.69400000000005
20
-156.416
0
LWPOLYLINE
5
157
100
AcDbEntity
8
0
100
AcDbPolyline
90
4
70
1
43
0.0
10
253.74400000000006
20
-156.416
10
253.74400000000006
20
-142.41700000000003
10
239.74500000000003
20
-142.41700000000003
10
239.74500000000003
20
-156.416
0
LWPOLYLINE
5
158
100
AcDbEntity
8
0
100
AcDbPolyline
90
4
70
1
43
0.0
10
258.79500000000002
20
-142.41700000000003
10
258.79500000000002
20
-156.416
10
272.79400000000004
20
-156.416
10
272.79400000000004
20
-142.41700000000003
0
LWPOLYLINE
5
159
100
AcDbEntity
8
0
100
AcDbPolyline
90
4
70
1
43
0.0
10
215.64400000000003
20
-156.416
10
215.64400000000003
20
-142.41700000000003
10
201.64500000000004
20
-142.41700000000003
10
201.64500000000004
20
-156.416
0
LWPOLYLINE
5
160
100
AcDbEntity
8
0
100
AcDbPolyline
90
4
70
1
43
0.0
10
73.057199999999995
20
-175.46599999999998
10
87.0565
20
-175.46599999999998
10
87.0565
20
-161.46700000000004
10
73.057199999999995
20
-161.46700000000004
0
LWPOLYLINE
5
161
100
AcDbEntity
8
0
100
AcDbPolyline
90
4
70
1
43
0.0
10
139.44399999999999
20
-156.416
10
139.44399999999999
20
-142.41700000000003
10
125.44499999999999
20
-142.41700000000003
10
125.44499999999999
20
-156.416
0
LWPOLYLINE
5
162
100
AcDbEntity
8
0
100
AcDbPolyline
90
4
70
1
43
0.0
10
277.84500000000003
20
-142.41700000000003
10
277.84500000000003
20
-156.416
10
291.84399999999999
20
-156.416
10
291.84399999999999
20
-142.41700000000003
0
LWPOLYLINE
5
163
100
AcDbEntity
8
0
100
AcDbPolyline
90
4
70
1
43
0.0
10
187.35700000000003
20
-175.46599999999998
10
201.357
20
-175.46599999999998
10
201.357
20
-161.46700000000004
10
187.35700000000003
20
-161.46700000000004
0
LWPOLYLINE
5
164
100
AcDbEntity
8
0
100
AcDbPolyline
90
4
70
1
43
0.0
10
182.30700000000002
20
-175.46599999999998
10
182.30700000000002
20
-161.46700000000004
10
168.30700000000004
20
-161.46700000000004
10
168.30700000000004
20
-175.46599999999998
0
LWPOLYLINE
5
165
100
AcDbEntity
8
0
100
AcDbPolyline
90
4
70
1
43
0.0
10
92.107200000000006
20
-161.46700000000004
10
92.107200000000006
20
-175.46599999999998
10
106.10600000000002
20
-175.46599999999998
10
106.10600000000002
20
-161.46700000000004
0
LWPOLYLINE
5
166
100
AcDbEntity
8
0
100
AcDbPolyline
90
4
70
1
43
0.0
10
111.15700000000002
20
-175.46599999999998
10
125.15600000000001
20
-175.46599999999998
10
125.15600000000001
20
-161.46700000000004
10
111.15700000000002
20
-161.46700000000004
0
LWPOLYLINE
5
167
100
AcDbEntity
8
0
100
AcDbPolyline
90
4
70
1
43
0.0
10
46.861999999999995
20
-161.46700000000004
10
46.861999999999995
20
-175.46599999999998
10
60.86290000000001
20
-175.46599999999998
10
60.86290000000001
20
-161.46700000000004
0
LWPOLYLINE
5
168
100
AcDbEntity
8
0
100
AcDbPolyline
90
4
70
1
43
0.0
10
239.45700000000002
20
-161.46700000000004
10
225.45699999999999
20
-161.46700000000004
10
225.45699999999999
20
-175.46599999999998
10
239.45700000000002
20
-175.46599999999998
0
LWPOLYLINE
5
169
100
AcDbEntity
8
0
100
AcDbPolyline
90
4
70
1
43
0.0
10
130.20699999999999
20
-175.46599999999998
10
144.20699999999999
20
-175.46599999999998
10
144.20699999999999
20
-161.46700000000004
10
130.20699999999999
20
-161.46700000000004
0
LWPOLYLINE
5
170
100
AcDbEntity
8
0
100
AcDbPolyline
90
4
70
1
43
0.0
10
220.40700000000001
20
-161.46700000000004
10
206.40700000000004
20
-161.46700000000004
10
206.40700000000004
20
-175.46599999999998
10
220.40700000000001
20
-175.46599999999998
0
LWPOLYLINE
5
171
100
AcDbEntity
8
0
100
AcDbPolyline
90
32
70
1
43
0.0
10
301.65700000000004
20
-142.41700000000003
10
315.65699999999998
20
-142.41700000000003
10
315.65699999999998
20
-143.66700000000003
10
316.56700000000001
20
-143.66700000000003
10
316.56700000000001
20
-150.417
10
315.65699999999998
20
-150.417
10
315.65699999999998
20
-151.94200000000001
10
318.03800000000001
20
-151.94200000000001
10
318.03800000000001
20
-165.94099999999997
10
316.78800000000001
20
-165.94099999999997
10
316.78800000000001
20
-166.16700000000003
10
317.61200000000002
20
-166.16700000000003
10
317.61200000000002
20
-168.96600000000001
10
316.78800000000001
20
-168.96600000000001
10
316.78800000000001
20
-175.23599999999999
10
315.06299999999999
20
-175.23599999999999
10
315.06299999999999
20
-176.43599999999998
10
311.762
20
-176.43599999999998
10
311.762
20
-175.23599999999999
10
310.03700000000003
20
-175.23599999999999
10
310.03700000000003
20
-174.21599999999998
10
308.51299999999998
20
-174.21599999999998
10
308.51299999999998
20
-175.46599999999998
10
291.26099999999997
20
-175.46599999999998
10
291.26099999999997
20
-176.43599999999998
10
287.96199999999999
20
-176.43599999999998
10
287.96199999999999
20
-175.46599999999998
10
282.60700000000003
20
-175.46599999999998
10
282.60700000000003
20
-161.46700000000004
10
304.03700000000003
20
-161.46700000000004
10
304.03700000000003
20
-156.416
10
301.65700000000004
20
-156.416
0
LWPOLYLINE
5
172
100
AcDbEntity
8
0
100
AcDbPolyline
90
4
70
1
43
0.0
10
244.50700000000001
20
-175.46599999999998
10
258.50700000000006
20
-175.46599999999998
10
258.50700000000006
20
-161.46700000000004
10
244.50700000000001
20
-161.46700000000004
0
LWPOLYLINE
5
173
100
AcDbEntity
8
0
100
AcDbPolyline
90
4
70
1
43
0.0
10
149.25700000000001
20
-175.46599999999998
10
163.25700000000001
20
-175.46599999999998
10
163.25700000000001
20
-161.46700000000004
10
149.25700000000001
20
-161.46700000000004
0
LWPOLYLINE
5
174
100
AcDbEntity
8
0
100
AcDbPolyline
90
4
70
1
43
0.0
10
263.55700000000002
20
-161.46700000000004
10
263.55700000000002
20
-175.46599999999998
10
277.55700000000002
20
-175.46599999999998
10
277.55700000000002
20
-161.46700000000004
0
LWPOLYLINE
5
175
100
AcDbEntity
8
0
100
AcDbPolyline
90
4
70
1
43
0.0
10
191.83199999999999
20
-194.51599999999999
10
191.83199999999999
20
-180.517
10
177.83199999999999
20
-180.517
10
177.83199999999999
20
-194.51599999999999
0
LWPOLYLINE
5
176
100
AcDbEntity
8
0
100
AcDbPolyline
90
4
70
1
43
0.0
10
134.68100000000001
20
-194.51599999999999
10
134.68100000000001
20
-180.517
10
120.68200000000002
20
-180.517
10
120.68200000000002
20
-194.51599999999999
0
LWPOLYLINE
5
177
100
AcDbEntity
8
0
100
AcDbPolyline
90
4
70
1
43
0.0
10
172.78200000000001
20
-180.517
10
158.78200000000001
20
-180.517
10
158.78200000000001
20
-194.51599999999999
10
172.78200000000001
20
-194.51599999999999
0
LWPOLYLINE
5
178
100
AcDbEntity
8
0
100
AcDbPolyline
90
4
70
1
43
0.0
10
82.5822
20
-194.51599999999999
10
96.581500000000005
20
-194.51599999999999
10
96.581500000000005
20
-180.517
10
82.5822
20
-180.517
0
LWPOLYLINE
5
179
100
AcDbEntity
8
0
100
AcDbPolyline
90
4
70
1
43
0.0
10
101.63200000000002
20
-194.51599999999999
10
115.631
20
-194.51599999999999
10
115.631
20
-180.517
10
101.63200000000002
20
-180.517
0
LWPOLYLINE
5
180
100
AcDbEntity
8
0
100
AcDbPolyline
90
4
70
1
43
0.0
10
196.88200000000001
20
-180.517
10
196.88200000000001
20
-194.51599999999999
10
210.88200000000001
20
-194.51599999999999
10
210.88200000000001
20
-180.517
0
LWPOLYLINE
5
181
100
AcDbEntity
8
0
100
AcDbPolyline
90
4
70
1
43
0.0
10
139.732
20
-180.517
10
139.732
20
-194.51599999999999
10
153.732
20
-194.51599999999999
10
153.732
20
-180.517
0
LWPOLYLINE
5
182
100
AcDbEntity
8
0
100
AcDbPolyline
90
4
70
1
43
0.0
10
254.03200000000001
20
-194.51599999999999
10
268.03199999999998
20
-194.51599999999999
10
268.03199999999998
20
-180.517
10
254.03200000000001
20
-180.517
0
LWPOLYLINE
5
183
100
AcDbEntity
8
0
100
AcDbPolyline
90
4
70
1
43
0.0
10
349.28199999999998
20
-180.517
10
349.28199999999998
20
-194.51599999999999
10
363.28200000000004
20
-194.51599999999999
10
363.28200000000004
20
-180.517
0
LWPOLYLINE
5
184
100
AcDbEntity
8
0
100
AcDbPolyline
90
12
70
1
43
0.0
10
77.531499999999994
20
-180.517
10
77.531499999999994
20
-194.51599999999999
10
72.175200000000004
20
-194.51599999999999
10
72.175200000000004
20
-195.48599999999999
10
68.874799999999993
20
-195.48599999999999
10
68.874799999999993
20
-194.51599999999999
10
48.37510000000001
20
-194.51599999999999
10
48.37510000000001
20
-195.48599999999999
10
45.076099999999997
20
-195.48599999999999
10
45.076099999999997
20
-194.51599999999999
10
42.100900000000003
20
-194.51599999999999
10
42.100900000000003
20
-180.517
0
LWPOLYLINE
5
185
100
AcDbEntity
8
0
100
AcDbPolyline
90
4
70
1
43
0.0
10
234.982
20
-194.51599999999999
10
248.98200000000003
20
-194.51599999999999
10
248.98200000000003
20
-180.517
10
234.982
20
-180.517
0
LWPOLYLINE
5
186
100
AcDbEntity
8
0
100
AcDbPolyline
90
4
70
1
43
0.0
10
215.93200000000002
20
-194.51599999999999
10
229.93200000000002
20
-194.51599999999999
10
229.93200000000002
20
-180.517
10
215.93200000000002
20
-180.517
0
LWPOLYLINE
5
187
100
AcDbEntity
8
0
100
AcDbPolyline
90
36
70
1
43
0.0
10
303.75
20
-185.21700000000004
10
305.27600000000001
20
-185.21700000000004
10
305.27600000000001
20
-181.98699999999999
10
312.02499999999998
20
-181.98699999999999
10
312.02499999999998
20
-185.21700000000004
10
312.851
20
-185.21700000000004
10
312.851
20
-188.01600000000002
10
312.02499999999998
20
-188.01600000000002
10
312.02499999999998
20
-194.286
10
310.30000000000001
20
-194.286
10
310.30000000000001
20
-195.48599999999999
10
307.00099999999998
20
-195.48599999999999
10
307.00099999999998
20
-194.286
10
305.27600000000001
20
-194.286
10
305.27600000000001
20
-189.81700000000001
10
303.75
20
-189.81700000000001
10
303.75
20
-194.51599999999999
10
289.75
20
-194.51599999999999
10
289.75
20
-189.81700000000001
10
288.226
20
-189.81700000000001
10
288.226
20
-194.286
10
286.5
20
-194.286
10
286.5
20
-195.48599999999999
10
283.20099999999996
20
-195.48599999999999
10
283.20099999999996
20
-194.286
10
281.476
20
-194.286
10
281.476
20
-188.01600000000002
10
280.64999999999998
20
-188.01600000000002
10
280.64999999999998
20
-185.21700000000004
10
281.476
20
-185.21700000000004
10
281.476
20
-181.98699999999999
10
288.226
20
-181.98699999999999
10
288.226
20
-185.21700000000004
10
289.75
20
-185.21700000000004
10
289.75
20
-180.517
10
303.75
20
-180.517
0
LWPOLYLINE
5
188
100
AcDbEntity
8
0
100
AcDbPolyline
90
4
70
1
43
0.0
10
363.28200000000004
20
-213.566
10
363.28200000000004
20
-199.56700000000001
10
349.28199999999998
20
-199.56700000000001
10
349.28199999999998
20
-213.566
0
LWPOLYLINE
5
189
100
AcDbEntity
8
0
100
AcDbPolyline
90
4
70
1
43
0.0
10
42.100900000000003
20
-213.566
10
56.100400000000008
20
-213.566
10
56.100400000000008
20
-199.56700000000001
10
42.100900000000003
20
-199.56700000000001
0
LWPOLYLINE
5
190
100
AcDbEntity
8
0
100
AcDbPolyline
90
4
70
1
43
0.0
10
65.911999999999992
20
-213.566
10
79.912800000000004
20
-213.566
10
79.912800000000004
20
-199.56700000000001
10
65.911999999999992
20
-199.56700000000001
0
LWPOLYLINE
5
191
100
AcDbEntity
8
0
100
AcDbPolyline
90
4
70
1
43
0.0
10
89.725999999999999
20
-199.56700000000001
10
89.725999999999999
20
-213.566
10
103.72500000000001
20
-213.566
10
103.72500000000001
20
-199.56700000000001
0
LWPOLYLINE
5
192
100
AcDbEntity
8
0
100
AcDbPolyline
90
4
70
1
43
0.0
10
368.33199999999999
20
-199.56700000000001
10
368.33199999999999
20
-213.566
10
382.33200000000005
20
-213.566
10
382.33200000000005
20
-199.56700000000001
0
LWPOLYLINE
5
193
100
AcDbEntity
8
0
100
AcDbPolyline
90
4
70
1
43
0.0
10
256.41200000000003
20
-199.56700000000001
10
256.41200000000003
20
-213.566
10
270.41300000000001
20
-213.566
10
270.41300000000001
20
-199.56700000000001
0
LWPOLYLINE
5
194
100
AcDbEntity
8
0
100
AcDbPolyline
90
4
70
1
43
0.0
10
280.226
20
-199.56700000000001
10
280.226
20
-213.566
10
294.22500000000002
20
-213.566
10
294.22500000000002
20
-199.56700000000001
0
LWPOLYLINE
5
195
100
AcDbEntity
8
0
100
AcDbPolyline
90
4
70
1
43
0.0
10
232.601
20
-213.566
10
246.59999999999999
20
-213.566
10
246.59999999999999
20
-199.56700000000001
10
232.601
20
-199.56700000000001
0
LWPOLYLINE
5
196
100
AcDbEntity
8
0
100
AcDbPolyline
90
4
70
1
43
0.0
10
330.23199999999997
20
-213.566
10
344.23200000000003
20
-213.566
10
344.23200000000003
20
-199.56700000000001
10
330.23199999999997
20
-199.56700000000001
0
CIRCLE
5
197
100
AcDbEntity
8
0
100
AcDbCircle
10
191.49999571964145
20
-64.249998562783006
30
0
40
1.9723082482470764
210
0
220
0
230
1
0
ENDSEC
0
SECTION
2
OBJECTS
0
DICTIONARY
5
C
100
AcDbDictionary
3
ACAD_GROUP
350
D
3
ACAD_MLINESTYLE
350
17
0
DICTIONARY
5
D
100
AcDbDictionary
0
DICTIONARY
5
1A
330
C
100
AcDbDictionary
0
DICTIONARY
5
17
100
AcDbDictionary
0
ENDSEC
0
EOF
