G04 #@! TF.GenerationSoftware,KiCad,Pcbnew,(5.1.10)-1*
G04 #@! TF.CreationDate,2021-10-25T12:05:38+01:00*
G04 #@! TF.ProjectId,ENV_KB_RGB,454e565f-4b42-45f5-9247-422e6b696361,Rev.1*
G04 #@! TF.SameCoordinates,Original*
G04 #@! TF.FileFunction,Paste,Bot*
G04 #@! TF.FilePolarity,Positive*
%FSLAX46Y46*%
G04 Gerber Fmt 4.6, Leading zero omitted, Abs format (unit mm)*
G04 Created by KiCad (PCBNEW (5.1.10)-1) date 2021-10-25 12:05:38*
%MOMM*%
%LPD*%
G01*
G04 APERTURE LIST*
%ADD10R,2.550000X2.500000*%
%ADD11R,2.500000X2.550000*%
G04 APERTURE END LIST*
D10*
X381152500Y-201480000D03*
X368252500Y-204020000D03*
X362102500Y-201480000D03*
X349202500Y-204020000D03*
X343052500Y-201480000D03*
X330152500Y-204020000D03*
X316858750Y-201480000D03*
X303958750Y-204020000D03*
X293046250Y-201480000D03*
X280146250Y-204020000D03*
X269233750Y-201480000D03*
X256333750Y-204020000D03*
X245421250Y-201480000D03*
X232521250Y-204020000D03*
X173983750Y-201480000D03*
X161083750Y-204020000D03*
X102546250Y-201480000D03*
X89646250Y-204020000D03*
X78733750Y-201480000D03*
X65833750Y-204020000D03*
X54921250Y-201480000D03*
X42021250Y-204020000D03*
X362102500Y-182430000D03*
X349202500Y-184970000D03*
X302571250Y-182430000D03*
X289671250Y-184970000D03*
X266852500Y-182430000D03*
X253952500Y-184970000D03*
X247802500Y-182430000D03*
X234902500Y-184970000D03*
X228752500Y-182430000D03*
X215852500Y-184970000D03*
X209702500Y-182430000D03*
X196802500Y-184970000D03*
X190652500Y-182430000D03*
X177752500Y-184970000D03*
X171602500Y-182430000D03*
X158702500Y-184970000D03*
X152552500Y-182430000D03*
X139652500Y-184970000D03*
X133502500Y-182430000D03*
X120602500Y-184970000D03*
X114452500Y-182430000D03*
X101552500Y-184970000D03*
X95402500Y-182430000D03*
X82502500Y-184970000D03*
X76352500Y-182430000D03*
X63452500Y-184970000D03*
X54921250Y-182430000D03*
X42021250Y-184970000D03*
D11*
X316105000Y-164750000D03*
X313565000Y-151850000D03*
D10*
X295427500Y-163380000D03*
X282527500Y-165920000D03*
X276377500Y-163380000D03*
X263477500Y-165920000D03*
X257327500Y-163380000D03*
X244427500Y-165920000D03*
X238277500Y-163380000D03*
X225377500Y-165920000D03*
X219227500Y-163380000D03*
X206327500Y-165920000D03*
X200177500Y-163380000D03*
X187277500Y-165920000D03*
X181127500Y-163380000D03*
X168227500Y-165920000D03*
X162077500Y-163380000D03*
X149177500Y-165920000D03*
X143027500Y-163380000D03*
X130127500Y-165920000D03*
X123977500Y-163380000D03*
X111077500Y-165920000D03*
X104927500Y-163380000D03*
X92027500Y-165920000D03*
X85877500Y-163380000D03*
X72977500Y-165920000D03*
X59683750Y-163380000D03*
X46783750Y-165920000D03*
X381152500Y-144330000D03*
X368252500Y-146870000D03*
X362102500Y-144330000D03*
X349202500Y-146870000D03*
X343052500Y-144330000D03*
X330152500Y-146870000D03*
X290665000Y-144330000D03*
X277765000Y-146870000D03*
X271615000Y-144330000D03*
X258715000Y-146870000D03*
X252565000Y-144330000D03*
X239665000Y-146870000D03*
X233515000Y-144330000D03*
X220615000Y-146870000D03*
X214465000Y-144330000D03*
X201565000Y-146870000D03*
X195415000Y-144330000D03*
X182515000Y-146870000D03*
X176365000Y-144330000D03*
X163465000Y-146870000D03*
X157315000Y-144330000D03*
X144415000Y-146870000D03*
X138265000Y-144330000D03*
X125365000Y-146870000D03*
X119215000Y-144330000D03*
X106315000Y-146870000D03*
X100165000Y-144330000D03*
X87265000Y-146870000D03*
X81115000Y-144330000D03*
X68215000Y-146870000D03*
X57302500Y-144330000D03*
X44402500Y-146870000D03*
X381152500Y-125280000D03*
X368252500Y-127820000D03*
X362102500Y-125280000D03*
X349202500Y-127820000D03*
X343052500Y-125280000D03*
X330152500Y-127820000D03*
X309715000Y-125280000D03*
X296815000Y-127820000D03*
X281140000Y-125280000D03*
X268240000Y-127820000D03*
X262090000Y-125280000D03*
X249190000Y-127820000D03*
X243040000Y-125280000D03*
X230140000Y-127820000D03*
X223990000Y-125280000D03*
X211090000Y-127820000D03*
X204940000Y-125280000D03*
X192040000Y-127820000D03*
X185890000Y-125280000D03*
X172990000Y-127820000D03*
X166840000Y-125280000D03*
X153940000Y-127820000D03*
X147790000Y-125280000D03*
X134890000Y-127820000D03*
X128740000Y-125280000D03*
X115840000Y-127820000D03*
X109690000Y-125280000D03*
X96790000Y-127820000D03*
X90640000Y-125280000D03*
X77740000Y-127820000D03*
X71590000Y-125280000D03*
X58690000Y-127820000D03*
X52540000Y-125280000D03*
X39640000Y-127820000D03*
X381152500Y-96705000D03*
X368252500Y-99245000D03*
X362102500Y-96705000D03*
X349202500Y-99245000D03*
X343052500Y-96705000D03*
X330152500Y-99245000D03*
X319240000Y-96705000D03*
X306340000Y-99245000D03*
X300190000Y-96705000D03*
X287290000Y-99245000D03*
X281140000Y-96705000D03*
X268240000Y-99245000D03*
X262090000Y-96705000D03*
X249190000Y-99245000D03*
X233515000Y-96705000D03*
X220615000Y-99245000D03*
X214465000Y-96705000D03*
X201565000Y-99245000D03*
X195415000Y-96705000D03*
X182515000Y-99245000D03*
X176365000Y-96705000D03*
X163465000Y-99245000D03*
X147790000Y-96705000D03*
X134890000Y-99245000D03*
X128740000Y-96705000D03*
X115840000Y-99245000D03*
X109690000Y-96705000D03*
X96790000Y-99245000D03*
X90640000Y-96705000D03*
X77740000Y-99245000D03*
X52540000Y-96705000D03*
X39640000Y-99245000D03*
M02*
