M48
; DRILL file {KiCad (5.1.10)-1} date 10/25/21 12:05:34
; FORMAT={-:-/ absolute / metric / decimal}
; #@! TF.CreationDate,2021-10-25T12:05:34+01:00
; #@! TF.GenerationSoftware,Kicad,Pcbnew,(5.1.10)-1
; #@! TF.FileFunction,Plated,1,2,PTH
FMAT,2
METRIC
T1C0.400
T2C0.600
T3C0.700
T4C0.800
T5C0.900
T6C1.000
T7C1.020
T8C2.200
T9C3.000
%
G90
G05
T1
X209.775Y-69.8
X214.289Y-64.345
X355.58Y-73.74
X377.35Y-80.49
X377.49Y-84.27
T3
X195.817Y-61.905
X195.817Y-64.23
X195.817Y-66.555
X203.437Y-61.905
X203.437Y-64.23
X203.437Y-66.555
T4
X41.58Y-69.1
X41.68Y-73.1
X41.68Y-77.1
X41.68Y-81.1
X41.68Y-85.1
X41.705Y-89.185
X49.2Y-69.1
X49.3Y-73.1
X49.3Y-77.1
X49.3Y-81.1
X49.3Y-85.1
X49.325Y-89.185
X59.78Y-69.1
X59.78Y-73.1
X59.78Y-85.1
X67.4Y-69.1
X67.4Y-73.1
X67.4Y-85.1
X77.88Y-73.1
X77.88Y-77.1
X77.88Y-81.1
X77.88Y-85.1
X77.905Y-89.185
X85.5Y-73.1
X85.5Y-77.1
X85.5Y-81.1
X85.5Y-85.1
X85.525Y-89.185
X95.98Y-69.1
X95.98Y-73.1
X95.98Y-77.1
X95.98Y-81.1
X95.98Y-85.1
X96.005Y-89.185
X103.6Y-69.1
X103.6Y-73.1
X103.6Y-77.1
X103.6Y-81.1
X103.6Y-85.1
X103.625Y-89.185
X114.08Y-73.1
X114.08Y-77.1
X114.08Y-81.1
X114.08Y-85.1
X114.105Y-89.185
X121.7Y-73.1
X121.7Y-77.1
X121.7Y-81.1
X121.7Y-85.1
X121.725Y-89.185
X132.08Y-85.1
X132.155Y-89.185
X132.18Y-73.1
X132.18Y-77.1
X132.18Y-81.1
X139.7Y-85.1
X139.775Y-89.185
X139.8Y-73.1
X139.8Y-77.1
X139.8Y-81.1
X150.18Y-69.1
X150.18Y-73.1
X150.18Y-77.1
X150.18Y-81.1
X150.18Y-85.1
X157.8Y-69.1
X157.8Y-73.1
X157.8Y-77.1
X157.8Y-81.1
X157.8Y-85.1
X168.28Y-73.1
X168.28Y-77.1
X168.28Y-81.1
X168.28Y-85.1
X168.345Y-89.185
X175.9Y-73.1
X175.9Y-77.1
X175.9Y-81.1
X175.9Y-85.1
X175.965Y-89.185
X186.38Y-73.1
X186.38Y-77.1
X186.38Y-81.1
X186.38Y-85.1
X186.405Y-89.185
X194.0Y-73.1
X194.0Y-77.1
X194.0Y-81.1
X194.0Y-85.1
X194.025Y-89.185
X204.48Y-73.1
X204.48Y-77.1
X204.48Y-81.1
X204.48Y-85.1
X204.505Y-89.185
X212.1Y-73.1
X212.1Y-77.1
X212.1Y-81.1
X212.1Y-85.1
X212.125Y-89.185
X222.58Y-69.1
X222.58Y-73.1
X222.58Y-77.1
X222.58Y-81.1
X222.58Y-85.1
X222.605Y-89.185
X230.2Y-69.1
X230.2Y-73.1
X230.2Y-77.1
X230.2Y-81.1
X230.2Y-85.1
X230.225Y-89.185
X298.78Y-70.6
X298.78Y-74.5
X298.78Y-78.5
X298.78Y-82.4
X298.78Y-86.4
X298.855Y-66.685
X306.4Y-70.6
X306.4Y-74.5
X306.4Y-78.5
X306.4Y-82.4
X306.4Y-86.4
X306.475Y-66.685
X311.38Y-74.5
X311.38Y-78.5
X311.38Y-82.4
X311.38Y-86.4
X319.0Y-74.5
X319.0Y-78.5
X319.0Y-82.4
X319.0Y-86.4
X323.88Y-70.6
X323.88Y-74.5
X323.88Y-78.5
X323.88Y-86.4
X323.955Y-66.685
X331.5Y-70.6
X331.5Y-74.5
X331.5Y-78.5
X331.5Y-86.4
X331.575Y-66.685
X336.48Y-74.5
X336.48Y-82.4
X336.48Y-86.4
X336.505Y-66.685
X344.1Y-74.5
X344.1Y-82.4
X344.1Y-86.4
X344.125Y-66.685
X348.98Y-78.5
X348.98Y-82.4
X348.98Y-86.4
X349.055Y-66.685
X356.6Y-78.5
X356.6Y-82.4
X356.6Y-86.4
X356.675Y-66.685
X361.58Y-70.6
X361.58Y-78.5
X361.58Y-82.4
X361.58Y-86.4
X361.605Y-66.685
X369.2Y-70.6
X369.2Y-78.5
X369.2Y-82.4
X369.2Y-86.4
X369.225Y-66.685
X374.08Y-78.5
X374.08Y-82.4
X374.08Y-86.4
X374.155Y-66.685
X381.7Y-78.5
X381.7Y-82.4
X381.7Y-86.4
X381.775Y-66.685
T5
X190.239Y-64.232
X192.779Y-64.232
T6
X242.925Y-73.694
X242.925Y-73.694
X242.925Y-75.726
X242.925Y-75.726
T7
X242.92Y-65.82
X242.92Y-65.82
X242.92Y-83.6
X242.92Y-83.6
X245.46Y-65.82
X245.46Y-65.82
X245.46Y-83.6
X245.46Y-83.6
X248.0Y-65.82
X248.0Y-65.82
X248.0Y-83.6
X248.0Y-83.6
X250.54Y-65.82
X250.54Y-65.82
X250.54Y-83.6
X250.54Y-83.6
X253.08Y-65.82
X253.08Y-65.82
X253.08Y-83.6
X253.08Y-83.6
X255.62Y-65.82
X255.62Y-65.82
X255.62Y-83.6
X255.62Y-83.6
X258.16Y-65.82
X258.16Y-65.82
X258.16Y-83.6
X258.16Y-83.6
X260.7Y-65.82
X260.7Y-65.82
X260.7Y-83.6
X260.7Y-83.6
X263.24Y-65.82
X263.24Y-65.82
X263.24Y-83.6
X263.24Y-83.6
X265.78Y-65.82
X265.78Y-65.82
X265.78Y-83.6
X265.78Y-83.6
X268.32Y-65.82
X268.32Y-65.82
X268.32Y-83.6
X268.32Y-83.6
X270.86Y-65.82
X270.86Y-65.82
X270.86Y-83.6
X270.86Y-83.6
X273.4Y-65.82
X273.4Y-65.82
X273.4Y-83.6
X273.4Y-83.6
X275.94Y-65.82
X275.94Y-65.82
X275.94Y-83.6
X275.94Y-83.6
X278.48Y-65.82
X278.48Y-65.82
X278.48Y-83.6
X278.48Y-83.6
X281.02Y-65.82
X281.02Y-65.82
X281.02Y-83.6
X281.02Y-83.6
X283.56Y-65.82
X283.56Y-65.82
X283.56Y-83.6
X283.56Y-83.6
X286.1Y-65.82
X286.1Y-65.82
X286.1Y-83.6
X286.1Y-83.6
X288.64Y-65.82
X288.64Y-65.82
X288.64Y-83.6
X288.64Y-83.6
X290.95Y-72.17
X290.95Y-72.17
X290.95Y-74.71
X290.95Y-74.71
X290.95Y-77.25
X290.95Y-77.25
X291.18Y-65.82
X291.18Y-65.82
X291.18Y-83.6
X291.18Y-83.6
T8
X40.167Y-196.305
X41.267Y-63.405
X48.375Y-116.085
X209.225Y-210.185
X212.225Y-116.085
X325.267Y-209.905
X376.075Y-116.06
X377.867Y-62.705
X379.667Y-193.405
T9
X42.915Y-99.245
X42.915Y-127.82
X45.296Y-184.97
X45.296Y-204.02
X47.677Y-146.87
X49.265Y-96.705
X49.265Y-125.28
X50.059Y-165.92
X51.646Y-182.43
X51.646Y-201.48
X54.027Y-144.33
X56.409Y-163.38
X61.965Y-127.82
X66.727Y-184.97
X68.315Y-125.28
X69.109Y-204.02
X71.49Y-146.87
X73.078Y-182.43
X75.459Y-201.48
X76.252Y-165.92
X77.84Y-144.33
X81.015Y-99.245
X81.015Y-127.82
X82.602Y-163.38
X85.777Y-184.97
X87.365Y-96.705
X87.365Y-125.28
X90.54Y-146.87
X92.127Y-182.43
X92.921Y-204.02
X95.302Y-165.92
X96.89Y-144.33
X99.271Y-201.48
X100.065Y-99.245
X100.065Y-127.82
X101.652Y-163.38
X104.828Y-184.97
X106.415Y-96.705
X106.415Y-125.28
X109.59Y-146.87
X111.177Y-182.43
X114.352Y-165.92
X115.94Y-144.33
X119.115Y-99.245
X119.115Y-127.82
X120.703Y-163.38
X123.877Y-184.97
X125.465Y-96.705
X125.465Y-125.28
X128.64Y-146.87
X130.227Y-182.43
X133.403Y-165.92
X134.99Y-144.33
X138.165Y-99.245
X138.165Y-127.82
X139.752Y-163.38
X142.927Y-184.97
X144.515Y-96.705
X144.515Y-125.28
X147.69Y-146.87
X149.278Y-182.43
X152.452Y-165.92
X154.04Y-144.33
X157.215Y-127.82
X158.802Y-163.38
X161.977Y-184.97
X163.565Y-125.28
X164.359Y-204.02
X166.74Y-99.245
X166.74Y-146.87
X168.327Y-182.43
X170.709Y-201.48
X171.502Y-165.92
X173.09Y-96.705
X173.09Y-144.33
X176.265Y-127.82
X177.852Y-163.38
X181.028Y-184.97
X182.615Y-125.28
X185.79Y-99.245
X185.79Y-146.87
X187.377Y-182.43
X190.552Y-165.92
X192.14Y-96.705
X192.14Y-144.33
X195.315Y-127.82
X196.903Y-163.38
X200.077Y-184.97
X201.665Y-125.28
X204.84Y-99.245
X204.84Y-146.87
X206.427Y-182.43
X209.602Y-165.92
X211.19Y-96.705
X211.19Y-144.33
X214.365Y-127.82
X215.952Y-163.38
X219.127Y-184.97
X220.715Y-125.28
X223.89Y-99.245
X223.89Y-146.87
X225.477Y-182.43
X228.653Y-165.92
X230.24Y-96.705
X230.24Y-144.33
X233.415Y-127.82
X235.002Y-163.38
X235.796Y-204.02
X238.177Y-184.97
X239.765Y-125.28
X242.146Y-201.48
X242.94Y-146.87
X244.527Y-182.43
X247.702Y-165.92
X249.29Y-144.33
X252.465Y-99.245
X252.465Y-127.82
X254.052Y-163.38
X257.227Y-184.97
X258.815Y-96.705
X258.815Y-125.28
X259.609Y-204.02
X261.99Y-146.87
X263.577Y-182.43
X265.959Y-201.48
X266.752Y-165.92
X268.34Y-144.33
X271.515Y-99.245
X271.515Y-127.82
X273.102Y-163.38
X277.865Y-96.705
X277.865Y-125.28
X281.04Y-146.87
X283.421Y-204.02
X285.803Y-165.92
X287.39Y-144.33
X289.771Y-201.48
X290.565Y-99.245
X292.152Y-163.38
X292.946Y-184.97
X296.915Y-96.705
X299.296Y-182.43
X300.09Y-127.82
X306.44Y-125.28
X307.234Y-204.02
X309.615Y-99.245
X313.565Y-155.125
X313.584Y-201.48
X315.965Y-96.705
X316.105Y-161.475
X333.428Y-99.245
X333.428Y-127.82
X333.428Y-146.87
X333.428Y-204.02
X339.777Y-96.705
X339.777Y-125.28
X339.777Y-144.33
X339.777Y-201.48
X352.477Y-99.245
X352.477Y-127.82
X352.477Y-146.87
X352.477Y-184.97
X352.477Y-204.02
X358.827Y-96.705
X358.827Y-125.28
X358.827Y-144.33
X358.827Y-182.43
X358.827Y-201.48
X371.527Y-99.245
X371.527Y-127.82
X371.527Y-146.87
X371.527Y-204.02
X377.877Y-96.705
X377.877Y-125.28
X377.877Y-144.33
X377.877Y-201.48
T2
X207.905Y-62.535G85X207.905Y-61.935
G05
X207.905Y-66.965G85X207.905Y-65.865
G05
X216.545Y-62.535G85X216.545Y-61.935
G05
X216.545Y-66.965G85X216.545Y-65.865
G05
T0
M30
