<?xml version="1.0" encoding="UTF-8" standalone="no"?>
<svg
   xmlns:dc="http://purl.org/dc/elements/1.1/"
   xmlns:cc="http://creativecommons.org/ns#"
   xmlns:rdf="http://www.w3.org/1999/02/22-rdf-syntax-ns#"
   xmlns:svg="http://www.w3.org/2000/svg"
   xmlns="http://www.w3.org/2000/svg"
   xmlns:sodipodi="http://sodipodi.sourceforge.net/DTD/sodipodi-0.dtd"
   xmlns:inkscape="http://www.inkscape.org/namespaces/inkscape"
   version="1.1"
   id="Layer_1"
   x="0px"
   y="0px"
   viewBox="0 0 3860.2926 2180.6054"
   xml:space="preserve"
   sodipodi:docname="5.svg"
   inkscape:version="1.0.2 (e86c870879, 2021-01-15)"
   width="340.45636mm"
   height="192.31728mm"><metadata
   id="metadata487"><rdf:RDF><cc:Work
       rdf:about=""><dc:format>image/svg+xml</dc:format><dc:type
         rdf:resource="http://purl.org/dc/dcmitype/StillImage" /><dc:title></dc:title></cc:Work></rdf:RDF></metadata><defs
   id="defs485" /><sodipodi:namedview
   pagecolor="#000000"
   bordercolor="#666666"
   borderopacity="1"
   objecttolerance="10"
   gridtolerance="10"
   guidetolerance="10"
   inkscape:pageopacity="0"
   inkscape:pageshadow="2"
   inkscape:window-width="1920"
   inkscape:window-height="1056"
   id="namedview483"
   showgrid="false"
   inkscape:zoom="0.58112078"
   inkscape:cx="-358.69769"
   inkscape:cy="508.90925"
   inkscape:window-x="0"
   inkscape:window-y="24"
   inkscape:window-maximized="1"
   inkscape:current-layer="layer5"
   inkscape:document-rotation="0"
   fit-margin-top="0"
   fit-margin-left="0"
   fit-margin-right="0"
   fit-margin-bottom="0"
   units="mm" />
<style
   type="text/css"
   id="style452">
	.st0{fill:#FFFFFF;}
</style>














<g
   inkscape:groupmode="layer"
   id="layer5"
   inkscape:label="F.SilkS"
   transform="translate(41.828441,13.844166)"><path
     style="fill:none;fill-opacity:1;stroke:#ffffff;stroke-width:20;stroke-linecap:square;stroke-linejoin:bevel;stroke-miterlimit:4;stroke-dasharray:none;stroke-dashoffset:0;stroke-opacity:1"
     d="m 1541.863,1873.9491 c -26.9,0.3 -53.8984,0.098 -80.8984,0.098 -1.8,0 -3.6938,0.518 -6.0938,0.918 v 11.4844 c 0,25 0.3047,50.0023 -0.1953,74.9023 -0.2,7 1.9969,11.8016 6.7969,16.6016 56.9,56.6 113.6906,113.3 170.3906,170 2.5,2.5 4.2086,5.6961 6.3086,8.4961 46.7,0 93.3,0 140,-0.1953 0,-16.3 -0.01,-32.6063 0.293,-48.9063 0.1,-5.5 -1.8836,-9.3859 -5.6836,-13.0859 -13.3,-13 -26.4094,-26.2141 -39.6094,-39.4141 -31.6,-31.5 -63.207,-62.9898 -94.707,-94.5898 -26.4,-26.4 -52.7844,-52.6969 -78.9844,-79.2969 -5,-5.1 -10.4172,-7.1117 -17.6172,-7.0117 z"
     id="path3667" /><path
     style="fill:none;fill-opacity:1;stroke:#ffffff;stroke-width:20;stroke-linecap:square;stroke-linejoin:bevel;stroke-miterlimit:4;stroke-dasharray:none;stroke-dashoffset:0;stroke-opacity:1"
     d="m 401.17937,1873.9491 c -9.2,-0.3 -15.39922,2.9164 -21.69922,9.3164 -28.2,28.8 -56.91015,57.0859 -85.41015,85.5859 -42.1,42.2 -84.20625,84.4039 -126.40625,126.5039 -3.9,3.9 -4.88281,8.0008 -4.88281,13.3008 0.1,15.9 -0.40547,31.893 -0.60547,47.793 46.7,0 93.3,0 140,0.098 0.7,-1.1 1.2875,-2.3812 2.1875,-3.2812 16.2,-16.3 32.41093,-32.6086 48.71093,-48.8086 42.9,-42.9 85.78907,-85.7961 128.78907,-128.4961 3.3,-3.4 4.60937,-6.7063 4.60937,-11.4063 -0.2,-27.7 -0.0977,-55.3078 -0.0977,-83.0078 0,-2.2 -0.50078,-4.3828 -0.80078,-7.3828 h -12.40234 c -24,0 -47.99219,0.3852 -71.99219,-0.2148 z"
     id="path3665" /><path
     style="fill:none;fill-opacity:1;stroke:#ffffff;stroke-width:20;stroke-linecap:square;stroke-linejoin:bevel;stroke-miterlimit:4;stroke-dasharray:none;stroke-dashoffset:0;stroke-opacity:1"
     d="m 2512.2732,1873.8511 c -25.3,0.4 -50.6961,0.098 -75.9961,0.098 -3.9,0 -7.711,0.4078 -11.211,0.5078 -0.6,1.9 -0.8984,2.5055 -0.8984,3.1054 -0.1,29.7 -0.2977,59.2844 -0.098,88.9844 0,2.9 2.0039,6.3157 4.0039,8.5156 6.3,6.9 13.1071,13.3024 19.7071,19.9024 42.6,42.6 85.2906,85.093 127.8906,127.793 11,11.1 21.7,22.4914 32.5,33.6914 46.7,0 93.2977,0 140.0977,-0.1953 -0.2,-15 -0.9907,-30.0024 -0.3907,-44.9024 0.3,-7.7 -1.807,-13.1961 -7.207,-18.4961 -38.3,-37.9 -76.5094,-76.0992 -114.6094,-114.1992 -32.5,-32.5 -64.9851,-64.9953 -97.2851,-97.6953 -4.8,-4.8 -9.5039,-7.2094 -16.5039,-7.1094 z"
     id="path3663" /><path
     style="fill:none;fill-opacity:1;stroke:#ffffff;stroke-width:20;stroke-linecap:square;stroke-linejoin:bevel;stroke-miterlimit:4;stroke-dasharray:none;stroke-dashoffset:0;stroke-opacity:1"
     d="m 3808.0739,1550.5503 c -30.4,0.2 -60.7937,0.5032 -91.0937,0.7032 -0.4,2.1 -0.8008,3.0039 -0.8008,4.0039 -0.1,29.5 -0.3172,59.0914 -0.1172,88.6914 0.1,2.8 2.0016,6.2984 4.1016,8.3984 29.2,29.5 58.6078,58.8055 88.0078,88.1055 0,-63.3 0,-126.7024 -0.098,-189.9024 z"
     id="path3661" /><path
     style="fill:none;fill-opacity:1;stroke:#ffffff;stroke-width:20;stroke-linecap:square;stroke-linejoin:bevel;stroke-miterlimit:4;stroke-dasharray:none;stroke-dashoffset:0;stroke-opacity:1"
     d="m 1369.4802,1550.5503 c -8,-0.1 -13.6992,2.3078 -19.1992,8.0078 -25.8,26.4 -52.0055,52.5915 -78.1055,78.6915 -39.8,39.7999 -79.6117,79.4992 -119.5117,119.1992 -6.7,6.7 -13.4914,13.3008 -21.1914,20.8008 -32.8,-33 -64.6039,-65.1852 -96.5039,-97.2852 -40.60004,-40.8 -81.49225,-81.4024 -121.99225,-122.4024 -5.2,-5.2999 -10.59532,-7.014 -17.69531,-6.914 -22.9,0.5 -45.90626,0.5055 -68.90626,0.6055 h -16.89453 c -0.4,3 -0.80078,4.9945 -0.80078,6.8945 0,28.3 0.0828,56.6023 -0.11719,84.9023 0,4.6 2.31485,7.3149 5.21485,10.2149 24.3,24.2 48.49297,48.3953 72.79297,72.6953 47.6,47.6 95.19766,95.093 142.5977,142.793 4.1,4.1 8.3039,5.9007 14.0039,5.8007 24.7,-0.2 49.3039,-0.098 74.0039,-0.098 h 14.8047 v 15.0976 c 0,23.9 0.3828,47.8946 -0.1172,71.8946 -0.1,7.4 2.3024,12.4023 7.4024,17.4023 48.6999,48.3 97.3007,96.8125 145.8007,145.3125 10.6,10.5 20.7133,21.4852 31.1133,32.2852 46.7,0 93.3,0 140,-0.098 -0.2,-15.6 -0.6101,-31.2945 -0.4101,-46.8945 0.1,-6.5 -2.0016,-11.2008 -6.6016,-15.8008 -32.4,-32.1 -64.4969,-64.4992 -96.7969,-96.6992 -38.1,-38.1 -76.2922,-76.0992 -114.4922,-114.1992 -2.6,-2.6 -5.0093,-5.2977 -7.1093,-7.5977 75.2,-75 150.0054,-149.6977 225.6054,-225.0977 1.4,1.3 4.1016,3.5938 6.6016,6.0938 55.6,55.5 111.1969,111.1016 166.7969,166.6016 15,15.1 30.2023,30.0078 44.9023,45.5078 4.7,4.9 9.4008,6.289 15.8008,6.289 29.2023,-0.1 58.3953,0 87.5976,0.098 -0.098,29.8031 0,59.7093 -0.1953,89.5117 -0.1,5.1 1.4,8.6875 5,12.1875 16.4,16 32.6868,32.1985 48.8868,48.3985 32.9999,32.8999 65.9109,65.7109 98.7109,98.7109 10.7,10.9 21.0992,21.9883 31.6992,32.9883 h 140 c -0.1,-10 -1.2953,-20.0024 -0.1953,-29.9024 1.9,-17.9 -3.4047,-30.8961 -17.3047,-43.4961 -28.3,-25.7 -54.4062,-53.8961 -81.4062,-80.9961 -29.9,-30 -59.8071,-59.9047 -89.7071,-89.8046 -11,-11.1 -22.0836,-22.2032 -33.1836,-33.2032 -2.8,-2.8 -5.6125,-5 -10.3125,-5 -30.6022,0.2991 -61.0976,0.3125 -91.6992,0.3125 0,-29.3015 -0.301,-58.4927 0.098,-87.6953 0.1,-7.1 -1.9946,-11.9016 -6.8946,-16.6016 -10.6,-10.1999 -20.7914,-20.6156 -31.1914,-31.0156 -60.5,-60.5 -121.0062,-120.982 -181.4062,-181.582 -4.9,-4.9 -9.7992,-7.3992 -16.6992,-6.6992 -5.3,0.5 -10.6961,0.3906 -15.9961,0.3906 -52.2,-0.1 -104.4969,-0.1055 -156.7969,-0.6055 z"
     id="path3659" /><path
     style="fill:none;fill-opacity:1;stroke:#ffffff;stroke-width:20;stroke-linecap:square;stroke-linejoin:bevel;stroke-miterlimit:4;stroke-dasharray:none;stroke-dashoffset:0;stroke-opacity:1"
     d="m 2101.1794,1327.1519 c 74.5,74.6 149.2914,149.5062 223.6914,223.9062 -74.4,74.4 -149.2086,149.0915 -223.8086,223.6915 -74,-74.1 -148.889,-149.1016 -223.789,-224.1016 74.3,-74.1 149.1062,-148.8961 223.9062,-223.4961 z"
     id="path3657" /><path
     style="fill:none;fill-opacity:1;stroke:#ffffff;stroke-width:20;stroke-linecap:square;stroke-linejoin:bevel;stroke-miterlimit:4;stroke-dasharray:none;stroke-dashoffset:0;stroke-opacity:1"
     d="m 1777.9763,1004.8472 c 74.5,74.4 149.2937,149.218 223.5937,223.418 -74.3,74.5 -148.9937,149.2844 -223.5937,223.9844 -74.5,-74.6 -149.2133,-149.3868 -223.6133,-223.8868 74.6,-74.5 149.3133,-149.3156 223.6133,-223.5156 z"
     id="path3655" /><path
     style="fill:none;fill-opacity:1;stroke:#ffffff;stroke-width:20;stroke-linecap:square;stroke-linejoin:bevel;stroke-miterlimit:4;stroke-dasharray:none;stroke-dashoffset:0;stroke-opacity:1"
     d="m 2423.0739,1003.6558 c 75.5,75.4 150.0954,149.9 225.1954,225 -74.6,74.6 -149.404,149.1938 -224.0039,223.5938 -74.6,-74.5 -149.4001,-149.1852 -225,-224.7852 z"
     id="path3653" /><path
     style="fill:none;fill-opacity:1;stroke:#ffffff;stroke-width:20;stroke-linecap:square;stroke-linejoin:bevel;stroke-miterlimit:4;stroke-dasharray:none;stroke-dashoffset:0;stroke-opacity:1"
     d="m 1131.6677,1003.0503 c 75.4,75.7 149.9125,150.411 225.3125,226.211 -74.4,74.4 -149.1047,149.2023 -224.8047,224.9023 -75.3,-75.3 -150.10084,-150.0031 -225.80082,-225.7031 75.19998,-75.3 149.99302,-150.1102 225.29302,-225.4102 z"
     id="path3651" /><path
     style="fill:none;fill-opacity:1;stroke:#ffffff;stroke-width:20;stroke-linecap:square;stroke-linejoin:bevel;stroke-miterlimit:4;stroke-dasharray:none;stroke-dashoffset:0;stroke-opacity:1"
     d="m 74.870783,904.74958 c -6.3,0 -10.604689,2.00859 -14.804689,6.30859 -28.1,28.4 -56.3875003,56.70235 -84.6875,84.90235 -1.9,1.90001 -4.807031,2.99221 -7.207031,4.49218 0,64.7 -0.0023,129.3015 0.09766,194.1015 2.7,-1.6 5.810156,-2.8023 7.910156,-4.9023 30.0999997,-29.8 59.982813,-59.6899 89.882813,-89.5899 30.099995,-30.0999 60.212498,-60.3078 90.312488,-90.5078 2.1,-2.1 4.29141,-4.0031 6.19141,-5.7031 l 224.51172,224.5117 c -74.2,74.2 -148.89688,148.9946 -224.29687,224.3946 -1.9,-1.6 -4.41876,-3.6008 -6.71876,-5.8008 -34.39999,-34.3 -68.783583,-68.7055 -103.183582,-103.1055 -24.8,-24.7 -49.3992193,-49.4016 -74.199219,-74.1015 -3.2,-3.3 -7.007812,-6.1016 -10.507812,-9.1016 v 196.0156 c 2.9,2 6.291406,3.4985 8.691406,5.8984 23.39999966,23.2 46.6,46.5852 70,69.7852 6.1,6 12.8,11.6078 20,18.0078 -7.3,7.6 -13.199219,13.7071 -19.199218,19.707 -24.3,24.2 -48.49062634,48.4001 -72.890626,72.5 -1.7,1.8 -4.303906,2.8016 -6.503906,4.1016 v 195.9961 c 3.9,-3.6 8.096875,-7.0031 11.796875,-10.7031 33.5,-33.4 67.010157,-66.793 100.410159,-100.293 25.899993,-25.9 51.697643,-51.9125 77.597643,-77.8125 3.7,-3.8 5.58828,-7.4859 5.48828,-13.0859 -0.29999,-25.7 0.0172,-51.3117 0.11719,-77.0117 0,-3.9 0.28828,-7.7993 0.48828,-11.6993 3.2,-0.1 5.20704,-0.2929 7.20703,-0.2929 26.6,0 53.30235,-0.2 79.90235,0 6.1,0.1 10.50234,-1.7133 14.90234,-6.1133 33.5,-33.8 67.19844,-67.3938 100.89844,-101.0938 37.7,-37.6 75.40078,-75.3929 113.30078,-112.7929 4.4,-4.4 6.19141,-8.8024 6.19141,-14.9024 -0.2,-26 -0.0977,-52.0078 -0.0977,-78.0078 0,-3.1 0.30781,-6.2898 0.50781,-9.5898 3.1,-0.2 4.99219,-0.5078 6.99219,-0.5078 25.7,0 51.39219,-0.4047 76.99219,0.1953 8.8,0.2 14.79844,-2.3938 20.89844,-8.5938 42.6,-43.1 85.40078,-85.9086 128.30078,-128.8086 27.6,-27.5 55.21015,-54.9828 82.91015,-82.3828 4.5,-4.4 7.09922,-8.9055 6.69922,-15.60543 -0.7,-10.3 -0.0976,-20.69609 -0.0976,-30.99609 v -56.79687 c -4.1,-0.2 -7.71094,-0.60547 -11.21094,-0.60547 -25.6,0 -51.29453,0.30234 -76.89453,-0.0977 -6.7,-0.1 -11.30078,1.88438 -15.80078,6.48437 -14.6,15 -29.49688,29.90704 -44.29688,44.70704 -53.2,53.20005 -106.50703,106.41175 -159.70703,159.51175 -5.1,5 -10.28828,9.9976 -15.48828,15.0976 -2,-1.8 -3.21406,-2.8039 -4.41406,-4.0039 -35.3,-35.4 -70.59844,-70.7937 -105.89844,-106.0937 -36.5,-36.50003 -73.09453,-72.81175 -109.39453,-109.51175 -4.7,-4.8 -9.49844,-6.28907 -15.89844,-6.28907 -58.6,0.2 -117.20078,0.0852 -175.800773,-0.21484 z"
     id="path3649" /><path
     style="fill:none;fill-opacity:1;stroke:#ffffff;stroke-width:20;stroke-linecap:square;stroke-linejoin:bevel;stroke-miterlimit:4;stroke-dasharray:none;stroke-dashoffset:0;stroke-opacity:1"
     d="m 3808.1716,716.54645 c -25.8,25.8 -51.193,52.10704 -77.793,77.20704 -10.8,10.2 -14.907,20.51015 -14.707,35.41015 0.9,54.9 0.293,109.7875 0.293,164.6875 0,4.89999 0.3117,9.19846 4.5117,13.39846 29.4,28.7999 58.4953,58.107 87.6953,87.207 z"
     id="path3647" /><path
     style="fill:none;fill-opacity:1;stroke:#ffffff;stroke-width:20;stroke-linecap:square;stroke-linejoin:bevel;stroke-miterlimit:4;stroke-dasharray:none;stroke-dashoffset:0;stroke-opacity:1"
     d="m 1132.4685,582.34724 c -0.3,4 -0.4883,6.59922 -0.4883,9.19921 -0.1,25.7 0.1851,51.31172 -0.2148,77.01172 -0.1,7.9 2.4054,13.69922 8.1054,19.19922 20.8,20.1 41.2969,40.59375 61.7969,61.09375 50.7,50.7 101.2969,101.40938 151.7969,152.10938 3.2,3.3 6.5086,4.90234 11.3086,4.90234 22,-0.1 43.9961,0.0953 65.9961,0.19531 h 22.9101 c 1,-1.9 1.4844,-2.50547 1.4844,-3.10546 0.2,-30.3 0.4125,-60.59844 0.3125,-90.89844 -0.1,-2.3 -1.8985,-4.79688 -3.3985,-6.79688 -1.7999,-2.3 -4.3062,-4.20859 -6.4062,-6.30859 l -127.207,-127.1875 c -28,-28.1 -55.9868,-56.09688 -83.8868,-84.29688 -3.4999,-3.6 -7.007,-5.21718 -12.207,-5.11718 -22,0.2 -43.9961,0 -65.9961,0 z"
     id="path3645" /><path
     style="fill:none;fill-opacity:1;stroke:#ffffff;stroke-width:20;stroke-linecap:square;stroke-linejoin:bevel;stroke-miterlimit:4;stroke-dasharray:none;stroke-dashoffset:0;stroke-opacity:1"
     d="m 1131.9802,356.95661 c 6.8,6.5 13.1922,12.60625 19.4922,18.90625 60.3,60.4 120.5008,120.69375 180.8008,181.09375 7.1,7 14.289,13.89375 21.289,21.09375 3.2,3.3 6.7063,4.60938 11.4063,4.60938 25.7,-0.2 51.3117,0 77.0117,0 h 12.9883 v 30.99609 c -0.1,18.7 0.1093,37.39609 -0.3907,55.99609 -0.1999,6.5 1.8868,11.30079 6.3868,15.80079 27.4,27.29999 54.7117,54.71171 82.0117,82.01171 43.1,43.1 86.2945,86.09922 129.3945,129.19922 2.6,2.6 4.9985,5.28672 8.3985,8.88672 l -226.5039,226.50384 c -9.6,-10.2 -18.1852,-19.9015 -27.2852,-29.1015 -48.1,-48.1 -96.2164,-96.1016 -144.3164,-144.10156 -16,-16 -31.993,-32.00078 -47.793,-48.30078 -3.8,-3.9 -7.7055,-5.48828 -13.1054,-5.48828 -25.9,0.1 -51.8907,-0.11484 -77.8907,-0.21484 h -10.9961 c -0.1,-4.5 -0.4101,-8.38516 -0.4101,-12.28516 -0.1,-25 -0.2024,-50 0.098,-75 0.1,-6.6 -2.1015,-11.39844 -6.6015,-15.89844 -35.5,-35.2 -70.8914,-70.50078 -106.1914,-105.80078 L 909.67547,585.45271 c -0.7,-0.7 -1.19766,-1.5961 -2.59766,-3.4961 74.59995,-74.7 149.40239,-149.4 224.90239,-225 z"
     id="path3643" /><path
     style="fill:none;fill-opacity:1;stroke:#ffffff;stroke-width:20;stroke-linecap:square;stroke-linejoin:bevel;stroke-miterlimit:4;stroke-dasharray:none;stroke-dashoffset:0;stroke-opacity:1"
     d="m 3480.5739,258.9488 c -21.9,0.3 -43.8984,0.0976 -65.8984,0.0976 h -20.9961 c -0.4,3.8 -0.8008,6.40391 -0.8008,9.00391 0,24.9 0.5852,49.90235 -0.2148,74.90235 -0.4,10.09999 3.1023,16.69843 9.9023,23.39843 26.5,25.8 52.7063,51.90782 78.9063,78.00781 42.9,42.8 85.6961,85.79141 128.4961,128.69141 3,3 5.7961,6.10156 8.4961,9.10156 -1.4,1.7 -1.8977,2.60079 -2.5977,3.30079 -39.7,39.89999 -79.3992,79.71171 -119.1992,119.51171 -33,32.9 -66.0016,65.89141 -99.1016,98.69141 -3.6,3.6 -5.3,7.5 -5,12.5 0.3,6.7 0.2149,13.3 0.2149,20 0,52.9 -0.015,105.90859 -0.2149,158.80859 0,5.20003 1.6149,8.78513 5.2149,12.28513 10.7,10.5 21.1969,21.1969 31.7968,31.7969 30.4,30.3 60.9868,60.518 91.3868,90.918 28.8,28.7 57.5109,57.4891 86.2109,86.2891 3.9,3.9 7.5961,8.0039 10.9961,11.5039 -75.7,75.5 -150.5023,150.307 -224.9023,224.707 -10.7,-10.2 -21.7047,-20.418 -32.3047,-30.918 -32.7,-32.4 -65.1953,-64.8828 -97.6953,-97.3828 -30.2,-30.1 -60.3907,-60.2078 -90.3907,-90.5078 -3.8,-3.8 -7.6054,-5.6078 -13.1054,-5.5078 -23,0.3 -46.0039,0 -69.0039,-0.098 h -20 c -0.3,2.8 -0.6055,4.3961 -0.6055,5.9961 0,28.3 0.2023,56.6024 -0.098,84.9024 0,5.3 2.4008,8.6117 5.8008,12.0117 l 190.8008,190.8008 c 9.6,9.6 19.6,18.8867 30,28.8867 -76.1,76 -151.0945,151.0164 -226.8945,226.8164 -13.9,-14.3 -26.8,-27.718 -40,-40.918 -60.1,-60.1 -120.1954,-120.0929 -180.1954,-180.2929 -3.8999,-3.9 -7.8031,-5.4883 -13.2031,-5.4883 -25.4,0.2 -50.6961,0 -75.9961,0 -4.3,0 -8.5109,0.3859 -13.7109,0.5859 v 11.4063 c 0,21 0.707,41.9906 -0.293,62.8906 -0.8,15.3 1.9953,28.1047 15.1953,37.3047 1.6,1.1 2.7993,2.7992 4.1993,4.1992 l 142.207,141.8945 c 20,20 40.1,40.0172 60,60.1172 3.8,3.8 7.8031,5.1953 13.2031,5.1953 59.3,-0.2 118.5906,-0.2 177.8906,0 5.7,0 9.8063,-1.6008 13.9063,-5.8008 30.5,-30.8 61.1969,-61.4117 91.7969,-92.0117 40.2,-40.3 80.5007,-80.5984 120.8007,-120.8984 2.3,-2.3 4.8,-4.4922 7.5,-6.9922 25.4,25.3 50.3907,50.1977 75.3907,75.0977 25.3,25.2 50.7031,50.2054 75.7031,75.6054 24.6,25 50.2023,49.0008 74.9023,75.8008 -3.5,3.1 -6.1937,5.1024 -8.5937,7.4023 -20,20 -40.0977,40.0001 -60.0977,60 -26.4,26.4 -52.6039,52.8969 -79.0039,79.2969 -24.5,24.5 -49.0109,49.0008 -73.7109,73.3008 -3.9,3.8 -5.2953,7.9008 -5.1953,13.3008 0.2,16 -0.193,31.9883 -0.293,47.9883 46.7,0 93.293,0 140.293,0.098 3.8,-4.1 7.4062,-8.3828 11.4062,-12.3828 54.3,-54.4 108.7055,-108.9008 163.1055,-163.3008 2.8,-2.8 5.7992,-5.5133 9.1992,-8.6132 1.3,0.9999 2.6891,1.8101 3.7891,2.9101 26.9,26.8 53.9031,53.5906 80.7031,80.3906 2.8,2.8 5.193,6.0039 7.793,9.0039 v -190 h -91.1914 c -0.3,-4.3 -0.7032,-7.1976 -0.7032,-10.0976 0,-26 -0.207,-52.0078 0.293,-78.0078 0.1,-6.6 -1.8844,-11.1836 -6.4844,-15.6836 -51.2,-51 -102.4156,-102.0055 -153.5156,-153.1055 -20.5,-20.5 -40.9867,-41.1016 -61.3867,-61.6016 -1.4,-1.3 -2.6133,-2.9015 -3.6133,-4.1015 75.2,-75 150.0102,-149.7977 225.4102,-225.0977 8.2,8 16.7953,16.2875 25.1953,24.6875 21,20.9 41.9125,42.0078 62.8125,63.0078 0.9,0.8 2.0836,1.2946 3.1836,1.8946 v -187.9883 c -10.3,-0.1 -20.6961,-0.3125 -30.9961,-0.3125 -10,0 -20,0.2 -30,0 -10.1,-0.2 -20.3985,0.9117 -30.8985,-0.4883 v -10.1953 c 0,-25 -0.307,-50 0.293,-75 0.2,-8.2 -2.4859,-13.6016 -8.0859,-19.1016 -22.2,-21.6 -43.9985,-43.6078 -65.8985,-65.5078 -40,-40 -80,-79.99766 -120,-120.09766 -10.6,-10.6 -21.1164,-21.19219 -31.8164,-31.99218 1.6,-1.9 2.611,-3.21407 3.711,-4.41407 15.5,-15.6 31.0039,-31.19922 46.5039,-46.69922 57,-56.9 114.0914,-113.90078 171.1914,-170.80078 3.1,-3.1 4.2969,-6.28594 4.2969,-10.58593 -0.1,-60.7 -0.1,-121.31172 0,-182.01172 0,-4.4 -1.5876,-7.39063 -4.6876,-10.39063 -12.6999,-12.3 -25.0976,-24.80469 -37.5976,-37.30469 -59.1,-59.2 -118.207,-118.29765 -177.207,-177.59765 -4.9,-4.9 -9.7993,-7.11172 -16.6993,-7.01172 z"
     id="path3641" /><path
     style="fill:none;fill-opacity:1;stroke:#ffffff;stroke-width:20;stroke-linecap:square;stroke-linejoin:bevel;stroke-miterlimit:4;stroke-dasharray:none;stroke-dashoffset:0;stroke-opacity:1"
     d="M 487.37078,35.062084 710.96453,258.65583 c -75.5,75.6 -150.1,150.50781 -225,225.50781 -74.8,-74.8 -149.48438,-149.60156 -223.98438,-224.10156 74.8,-74.7 149.59063,-149.4 225.39063,-224.999996 z"
     id="path3639" /><path
     style="fill:none;fill-opacity:1;stroke:#ffffff;stroke-width:20;stroke-linecap:square;stroke-linejoin:bevel;stroke-miterlimit:4;stroke-dasharray:none;stroke-dashoffset:0;stroke-opacity:1"
     d="m 2266.1794,-3.5511969 c -2.2,2.4 -4.3016,5.1023438 -6.6016,7.4023438 -23.9999,23.9999991 -48.1093,47.9117181 -72.1093,72.0117181 -27,27.099995 -53.7938,54.486715 -81.0938,81.386715 -4.3,4.2 -5.9008,8.20625 -5.8008,13.90625 0.3,20.2 0.1954,40.50078 0.1954,60.80078 0,8.9 -0.193,17.69922 -0.293,26.69922 -2.4,0.4 -3.7,0.70312 -5,0.70312 -26.9,-0.1 -53.8985,-0.0125 -80.8985,-0.3125 -7.0999,0 -12.3976,2.00704 -17.5976,7.20704 -42.5,42.8 -85.3102,85.31015 -127.9102,127.91015 -28.2,28.2 -56.407,56.48516 -84.707,84.78516 -3.6,3.6 -6.4844,6.91484 -6.4844,12.71484 0.3,60.6 0.1977,121.29453 0.098,181.89453 0,4.5 1.4922,7.58829 4.4922,10.48828 10.5,10.3 20.8109,20.71563 31.2109,31.01563 33.9,33.8 67.9945,67.70156 101.8945,101.60156 28,28 56.0063,55.99922 83.9063,84.19922 3.6,3.7 7.2852,5.00234 12.2852,4.90235 12.3999,-0.2 24.7117,-0.11719 37.0117,-0.11719 47,0 93.8984,-0.0828 140.8984,0.11719 6.2,0 10.4047,-1.9086 14.8047,-6.3086 31.9,-32.2 63.9961,-64.19141 95.9961,-96.1914 36.3,-36.3 72.4891,-72.60626 108.7891,-108.90626 4.7999,-4.79999 9.8046,-9.49453 14.8046,-14.39453 3,2.8 5.2047,4.79454 7.3047,6.89453 70.6,70.7 141.3946,141.28985 211.8946,212.08985 4.8,4.9 9.6039,7.31172 16.5039,7.01172 14.3,-0.6 28.7078,-0.41016 43.0078,-0.41016 45.3,0 90.5984,0.10234 135.8984,-0.0976 3,-10e-6 6.5914,-1.39844 8.6914,-3.39844 21.4,-21 42.4914,-42.2961 63.6914,-63.4961 29.9,-29.9 59.9047,-59.80703 89.8047,-89.70703 20.8,-20.7 41.5047,-41.38984 62.3047,-62.08984 4.6,-4.6 7.4047,-9.20625 7.3047,-16.40625 -0.5,-35.4 -0.1953,-70.6961 -0.1953,-105.9961 0,-23.69999 0,-47.29609 0.098,-70.99609 0,-4.9 -0.8117,-8.89766 -4.5117,-12.59765 -19.7,-19.4 -39.0937,-39.11329 -58.5937,-58.61329 -28.7,-28.7 -57.6086,-57.29609 -86.3086,-85.99609 -23.1,-23 -46.1016,-46.09688 -69.1016,-69.29688 -5.4,-5.49999 -11.1969,-8.50546 -19.2969,-8.10546 -16,0.7 -31.9883,0.50547 -47.9883,0.60546 -12.1999,0.1 -24.5046,0 -37.3046,0 -0.2,3.6 -0.5078,6.49454 -0.5078,9.39454 -0.1,26.3 0.01,52.60625 -0.293,78.90625 -0.1,6.1 2.0062,10.60234 6.4062,14.90234 25.9,25.4 51.4875,51.09688 77.1875,76.79687 42.7,42.7 85.3102,85.28829 127.9102,127.98829 4.9,4.9 9.4898,10.00781 14.5898,15.50781 -75.4,75.5 -150.1976,150.19766 -225.0976,225.09766 -2.6,-2.3 -4.3961,-3.79063 -5.9961,-5.39063 -31.1,-31.1 -62.1031,-62.20078 -93.2031,-93.30078 -40,-40 -80.2,-79.89766 -120,-120.09766 -5.2,-5.3 -10.3,-7.10937 -17.5,-7.10937 -57,0.3 -113.8985,0.49765 -170.8985,0.0977 -9.2,0 -15.3992,2.50391 -21.6992,9.00391 -23.4,24.1 -47.2938,47.80156 -71.0938,71.60156 -42.3999,42.4 -84.9046,84.68985 -127.3046,127.08985 -6,6 -12.1055,11.81718 -18.1055,17.61718 -15.5,-12.4 -220.8883,-219.00234 -225.4883,-227.40234 6.2,-5.7 13.0922,-11.5125 19.4922,-17.8125 67,-66.8 133.7984,-133.68828 200.8984,-200.48828 3.6,-3.6 5.393,-7.10703 5.293,-12.20703 -0.3,-17.7 -0.1953,-35.30782 -0.1953,-53.00782 0,-11.89999 0.095,-23.69609 0.1953,-35.99609 3.9,-0.2 6.5016,-0.39062 9.1016,-0.39062 25.9,-0.1 51.9101,-0.0977 77.9101,-0.0977 5.4,0 9.7992,-0.71484 14.1992,-5.21484 19,-19.6 38.6883,-38.59063 57.9883,-57.89063 52.8,-52.7 105.518,-105.50312 158.418,-158.20312 3.6,-3.6 5.2,-7.204687 5,-12.304687 -0.4,-10 -0.2125,-19.9999996 -0.3125,-29.9999999 z"
     id="path3637" /><path
     style="fill:none;fill-opacity:1;stroke:#ffffff;stroke-width:20;stroke-linecap:square;stroke-linejoin:bevel;stroke-miterlimit:4;stroke-dasharray:none;stroke-dashoffset:0;stroke-opacity:1"
     d="m 328.17156,-3.5511969 c -12.5,12.9000003 -24.89531,25.9132809 -37.69531,38.6132809 -37.6,37.7 -74.90078,75.695306 -113.30078,112.695306 -11,10.6 -15.80469,21.10625 -14.80469,36.40625 1.5,21.5 0.39297,43.28282 0.29297,64.88281 0,3 -0.38594,5.90938 -0.58594,9.60938 -7.3,0.3 -14.21328,0.80078 -21.11328,0.80078 -20.3,0 -40.59844,-0.008 -60.898437,-0.50781 -9.2,-0.3 -15.992968,2.10156 -22.792968,9.10156 -27.299999,28.3 -55.4007813,55.69844 -83.300781,83.39844 -1.4,1.5 -3.800781,2.00781 -5.800781,3.00781 v 195.9961 c 9.6,-9.1 19.50625,-18.09766 28.9062497,-27.59766 48.6000003,-48.5 97.0859403,-97.00547 145.5859373,-145.60547 6.5,-6.6 12.5164,-13.78906 19.3164,-21.28906 8.4,8.1 15.3875,14.58672 22.1875,21.38672 44.6,44.5 89.11329,89.11328 133.61329,133.61328 21.69999,21.7 43.38515,43.29297 64.78515,65.29297 4.6,4.8 9.30313,6.40625 15.70313,6.40625 58.6,-0.1 117.29843,-0.20469 175.89843,0.19531 8.2,0 12.91016,-3.90625 17.91016,-8.90625 29.7,-29.7 59.28438,-59.40156 88.98437,-89.10156 40.7,-40.7 81.50235,-81.48985 122.40235,-122.08985 4.7,-4.6 6.40859,-9.30078 6.30859,-15.80078 -0.3,-26.7 -0.1,-53.3 0,-80 0,-1.9 0.30782,-3.90391 0.50782,-6.5039 6.29999,-0.3 12.18593,-0.89844 18.08593,-0.89844 22.9,0 45.90625,0.10781 68.90625,0.50781 6.1,0.1 10.6,-1.71328 15,-6.11328 30.2,-30.5 60.59614,-60.88906 90.99618,-91.28906 40.3,-40.3 80.5007,-80.598438 120.8007,-120.898437 2.3,-2.4 4.893,-4.507032 7.793,-7.207031 2.2,1.799999 4.3133,3.2 6.1133,5 63.4,63.299998 126.6976,126.697648 190.0976,190.097648 8.5,8.5 17.0883,16.91016 25.4883,25.41016 2.9,3 5.8125,5 10.3125,5 29,-0.2 57.9922,-0.0977 86.9922,-0.0977 1.2,0 2.5047,-0.51797 4.8047,-0.91797 V 224.2613 c 0,-18.4 -0.1023,-36.7 0.098,-55 0.1,-4.7 -1.6024,-8.10625 -4.9024,-11.40625 -33.1,-32.9 -66.1016,-65.808591 -99.1015,-98.808591 -19.8,-19.7 -39.5969,-39.594531 -59.2969,-59.39453084 -0.9,-0.89999996 -1.5047,-2.10312506 -2.3047,-3.20312506 H 974.16766 C 959.06765,11.948803 944.07703,27.552709 928.77703,42.952709 c -36.6,36.7 -73.51485,73.297651 -110.21485,110.097651 -2.79999,2.8 -4.88828,6.3125 -7.98828,10.3125 -4.7,-4.5 -7.70312,-7.3125 -10.70312,-10.3125 L 652.87859,6.0581782 c -3,-3 -5.81094,-6.40937514 -8.71094,-9.6093751 z"
     id="path3635" /><path
     style="fill:none;fill-opacity:1;stroke:#ffffff;stroke-width:20;stroke-linecap:square;stroke-linejoin:bevel;stroke-miterlimit:4;stroke-dasharray:none;stroke-dashoffset:0;stroke-opacity:1"
     d="m 4.1676567,-3.5511969 c -1.2,1.9 -2.191407,4.00546876 -3.69140604,5.6054688 C -7.8237493,10.554271 -16.219062,18.949584 -24.719062,27.249584 c -2.1,2 -4.709375,3.514844 -7.109375,5.214844 V 226.4488 c 4,-3.2 8.392187,-6.0875 11.992188,-9.6875 58.999999,-58.9 118.009372,-117.901556 177.109369,-176.60156 4.7,-4.7 6.70391,-9.400781 6.50391,-15.800781 -0.2,-9.3 0.19062,-18.6101559 0.39062,-27.9101559 z"
     id="path3633" /><path
     style="fill:none;fill-opacity:1;stroke:#ffffff;stroke-width:20;stroke-linecap:square;stroke-linejoin:bevel;stroke-miterlimit:4;stroke-dasharray:none;stroke-dashoffset:0;stroke-opacity:1"
     d="m 1942.3708,-3.8441656 c -2.1,2.89999996 -3.9062,6.09375 -6.4062,8.59375 -27.7,27.7999996 -55.5985,55.3078126 -83.3985,83.0078116 -22.4,22.299994 -44.5945,44.689844 -66.8945,67.089844 -2.1,2.1 -4.3094,4.1164 -7.1094,6.8164 -5.4,-4.9 -10.4906,-9.4164 -15.3906,-14.3164 -47.5,-47.499996 -95.0023,-94.997656 -142.4023,-142.5976556 -2.4,-2.5 -4.3063,-5.69609384 -6.4063,-8.4960938 h -160 c 0.2,9.6 0.7078,19.3062494 0.5078,28.9062494 -0.1,5.8 1.6008,10.001563 5.8008,14.101563 41.6,41.299999 82.9922,82.799217 124.4922,124.199217 29.3,29.2 58.6125,58.3 87.8125,87.5 2.6,2.6 4.7875,5.50312 7.1875,8.20312 -74.9,75 -149.6953,149.69532 -225.1953,225.19531 -2.8,-2.69999 -5.9063,-5.49609 -8.9063,-8.49609 -45.4,-45.5 -90.789,-91.00391 -136.289,-136.50391 -25.2,-25.19999 -50.6032,-50.20781 -75.7032,-75.50781 -3.3,-3.3 -6.9039,-4.6875 -11.5039,-4.6875 -16,0.1 -31.8906,-0.11719 -47.8906,-0.11719 -25.9,1e-5 -51.9125,0.0172 -77.8125,0.11719 -18,0 -35.8867,0.39531 -53.8867,0.19531 -5.5,0 -9.4031,1.59063 -13.2031,5.39063 -55.20004,55.4 -110.50086,110.81094 -165.80086,166.21094 -15.6,15.6 -31.09453,31.08672 -46.89453,46.38672 -5.9,5.6 -8.59844,11.61718 -8.39844,20.11718 0.6,26.3 0.19766,52.58672 0.0977,78.88672 0,1.6 -0.40313,3.1961 -0.70313,5.9961 H 794.07 c -24.4,-0.1 -48.70782,0.10703 -73.00782,-0.29297 -6.19999,0 -10.7,1.69375 -15,6.09375 -29.69999,30.2 -59.49453,60.21719 -89.39453,90.11719 -22.8,22.79999 -45.7914,45.38359 -68.6914,68.18359 -18.7,18.5 -37.29844,37.10312 -55.89844,55.70312 -1.6,1.7 -3.40078,3.20782 -5.80078,5.50782 -3.9,-3.5 -7.80391,-6.90547 -11.50391,-10.60547 -43,-42.8 -85.90859,-85.49844 -128.80859,-128.39844 -26.8,-26.9 -53.49531,-53.89844 -80.19531,-80.89844 -3.5,-3.5 -7.00704,-5.50781 -12.20704,-5.50781 -59.59999,0.2 -119.18906,0.2 -178.789057,0 -6.1,0 -10.504685,1.71328 -14.804685,6.11328 -27.9,28.2 -56.0015633,56.08438 -84.101563,83.98438 -2.3,2.3 -5.095312,4.11328 -7.695312,6.11328 v 194.0039 c 2.4,-1.6 5.207031,-2.80468 7.207031,-4.80468 44.7,-44.8 89.401563,-89.59688 134.101556,-134.29688 17.6,-17.7 35.39375,-35.19844 53.59375,-53.39844 11,10.9 21.70704,21.29688 32.20704,31.79688 38.49999,38.3 76.89296,76.69766 115.29296,115.09765 22.3,22.3 44.59454,44.78751 66.89454,67.1875 2.29999,2.4 4.90937,4.51172 7.10937,7.01172 3.3,3.9 7.40234,5 12.40234,5 43,-0.2 85.88672,-0.19531 128.88672,-0.19531 16.4,0 32.70391,-0.002 49.00391,0.0977 5.2,0 9.30078,-1.19532 13.30078,-5.19531 72.4,-72.7 144.9,-145.21485 217.5,-217.71485 0.9,-0.9 2.00859,-1.68594 3.80859,-3.08594 74.9,74.9 149.69063,149.69766 225.39065,225.09766 -2.5,2.8 -4.4969,5.2 -6.7969,7.5 -26.6,26.6 -53.20464,53.0875 -79.80468,79.6875 -44.5,44.49988 -88.8961,89.21558 -133.4961,133.51558 -4.5,4.5 -6.09609,8.7828 -5.99609,14.8828 0.3,25.7 0.19531,51.3117 0.19531,77.0117 v 10.1953 c -4.5,0.2 -8.40703,0.5078 -12.20703,0.5078 -25.7,0 -51.29219,0.1024 -76.99219,-0.098 -5,0 -8.40703,1.2 -12.20703,5 -34.4,34.7 -69.28672,69.0937 -103.88672,103.5937 -36.7,36.6 -73.4125,73.5 -110.3125,110 -5.2,5 -7.40468,10.2024 -7.30469,17.4024 0.3,24.7 0.11719,49.3039 0.11719,74.0039 v 11.9922 c -5.1,0.3 -9.60156,0.8007 -14.10156,0.8007 -24.9,0 -49.90234,0 -74.90234,-0.1953 -5.3,-0.1 -9.30313,1.393 -13.20313,5.293 -31.8,32.2 -63.89844,64.0914 -95.89844,96.1914 -29.7,29.7 -59.30625,59.4016 -88.90625,89.1016 -9.9,9.9 -19.70234,19.9117 -29.90234,29.5117 -4.7,4.4 -6.70156,9.0031 -6.60156,15.7031 0.4,26.9 0.11719,53.8985 0.11719,80.8984 -10e-6,1.6 -0.20782,3.1938 -0.50782,6.0938 -3.6,0.2 -7.10547,0.6055 -10.60547,0.6055 -26,0 -51.988277,0.085 -77.988277,-0.2149 -5.899997,-0.1 -9.808591,2.0133 -13.808591,6.1133 -28.3,28.7 -56.8906253,57.1055 -85.390626,85.6055 -1.8,1.8 -4.208593,3.0875 -6.308593,4.6875 v 185.9961 h 10 c 42.1,-42.2 84.203907,-84.3868 126.503907,-126.3868 17.4,-17.3999 34.8,-34.9093 52.5,-52.1093 5,-4.9 6.70156,-9.9969 6.60156,-16.7969 -0.4,-25 -0.3125,-50 -0.3125,-75 0,-3.3 0.40312,-6.6914 0.70312,-11.1914 3.7,-0.1 7.20313,-0.4102 10.70313,-0.4102 25.3,0 50.69609,-0.1023 75.99609,0.098 6.4,0.1 11.10078,-1.4891 15.80078,-6.2891 44.5,-45 89.40157,-89.614 134.10157,-134.414 28,-28.1 55.79609,-56.2993 83.49609,-84.1992 7.1,3.4999 219.29688,214.5125 226.79687,225.3124 -6.99999,7.3 -14.08906,14.6946 -21.28906,21.8946 -65.8,65.7 -131.50234,131.3945 -197.40234,196.8945 -4.4,4.3 -6.60625,8.6047 -6.40625,14.8047 0.5,16 0.3125,32.0078 0.3125,48.0078 h 137.98828 c 61.4,-61.3 122.8,-122.6047 185,-184.8047 9.3,9.2 18.30938,17.8992 27.10937,26.6992 50,50.2 100.09766,100.2883 150.09768,150.4883 2.2,2.3 3.8031,5.1149 5.7031,7.7149 h 140.00004 c 0.1,-16.4 -0.01,-32.7039 0.3906,-49.0039 0.1,-5.5 -2.0008,-9.1102 -5.8007,-12.9102 -49.6,-49.2 -99.0961,-98.6859 -148.49614,-148.0859 -22.20004,-22.1 -44.19379,-44.3993 -66.09379,-66.6993 -3.8,-3.7999 -7.50547,-5.7054 -13.10547,-5.6054 -26,0.3 -52.00782,0.1 -78.00782,0 h -10.99609 c -0.3,-5.4 -0.70312,-10.2977 -0.70312,-15.0977 0,-24 -0.0852,-48.0117 0.21484,-72.0117 0.1,-6.8 -1.89688,-11.8992 -6.79687,-16.6992 -32,-31.6 -63.80547,-63.2977 -95.60547,-95.0977 -32.7,-32.7 -65.40547,-65.5031 -98.10547,-98.2031 -6.1,-6.1 -12.29844,-12.2008 -18.39844,-18.3008 -2.3,-2.3 -4.40859,-4.7969 -6.30859,-6.7968 75.4,-75.3 150.20547,-150.1883 225.60547,-225.4883 8.49999,8.4 17.19843,17.0031 25.89843,25.7031 57.3,57.2 114.49688,114.382 171.79693,171.582 7,7 14.3156,13.9086 21.0156,21.3086 4.7,5.2 10.0969,6.7016 16.7969,6.6016 23,-0.3 45.8867,-0.098 68.8867,-0.098 34.6,0 69.3063,-0.3023 103.9063,0.098 7.6,0.1 12.9984,-1.9024 18.3984,-7.4024 39.3,-39.8 78.8984,-79.4039 118.3984,-119.0039 30.8,-30.9 61.8149,-61.6023 92.7149,-92.4023 2.4,-2.3 4.7953,-4.4899 7.6953,-7.0899 11.1,10.9 21.8023,21.2946 32.4023,31.8946 22.9,22.9 45.5985,45.8109 68.3985,68.7109 39.3,39.4 78.7906,78.586 117.8906,118.086 5.4,5.3999 10.7984,7.307 18.3984,7.207 26.6,-0.5 53.3024,-0.1977 79.9024,-0.098 1.6,0 3.1008,0.4961 5.8008,0.9961 v 16.9922 c 0,23.7 0,47.3156 -0.1954,71.0156 0,5 1.1047,8.7024 4.8047,12.4024 52.6,52.4 105.0977,105 157.5977,157.5 18.6,18.6 37.5031,36.8984 55.7031,55.8984 5.9,6.2 11.9953,8.0883 20.1953,7.9883 26,-0.3 51.9883,-0.098 77.9883,-0.098 1.6,0 3.2156,0.193 6.0156,0.293 0.2,3.7 0.586,7.2031 0.586,10.7031 0,26.3 0.1047,52.6063 -0.1953,78.9063 0,5.3 2.1078,8.6898 5.5078,12.0898 24.8,24.7 49.5968,49.4016 74.2968,74.1016 30.2,30.1 60.293,60.3055 90.293,90.6055 4.7,4.8 8.9961,10.1929 13.4961,15.2929 h 140 c 0,-16.7 -0.085,-33.3 0.2148,-50 0,-4.7 -1.5046,-8.0867 -4.8046,-11.3867 -44,-43.6 -87.8969,-87.3133 -131.7969,-131.1133 -28.3,-28.3 -56.4094,-56.7 -84.6094,-85 -1.3,-1.4 -2.4984,-2.9992 -3.3984,-4.1992 75,-75 149.7023,-149.4875 224.9023,-224.6875 0.8,0.6 2.7969,1.8008 4.2969,3.3008 30.1,29.8 60.1,59.5922 90,89.4922 38.2,38.1 76.3117,76.2945 114.5117,114.3945 5.6,5.6 10.5828,13.2156 17.3828,16.0156 6.9,2.8 15.711,0.9961 23.711,0.9961 20.3,0.1 40.6961,0 60.9961,0 3.2,0 6.5054,0.2883 10.6054,0.4883 0.4,7.4 0.8985,14.3109 0.8985,21.2109 0,22.3 -0.2102,44.5946 -0.4102,66.8946 0,5.2 1.4125,9.4984 5.3125,13.3984 43.9,43.6 87.7016,87.411 131.6016,131.2109 13.4,13.4 26.8953,26.793 40.1953,40.293 2.5,2.5 4.3062,5.5961 6.4062,8.4961 h 277.9883 c 35,-35.1 70.0953,-70.193 105.1953,-105.293 25,-25 49.9024,-50.0023 74.9024,-74.9023 2.9,-2.9 5.4101,-5.2977 5.4101,-10.0977 -0.3,-28 -0.1953,-56.0039 -0.1953,-84.0039 v -8.1054 h -26.5039 c -21.7,0 -43.3,0.1 -65,0 -4.3,0 -7.4078,1.314 -10.5078,4.414 -46.5,46.8 -93.2047,93.3024 -139.8047,139.9024 -25.9,25.9 -51.7953,51.7976 -77.6953,77.5976 -1.2,1.1 -2.4992,1.9985 -4.1992,3.3985 -6,-5.8 -11.7047,-11.3141 -17.3047,-16.9141 -54.9,-54.9 -109.6899,-109.7875 -164.5899,-164.6875 -12.3,-12.3 -24.6015,-24.3945 -36.6015,-36.8945 -4.8,-5 -9.7992,-6.9164 -16.6992,-6.8164 -25,0.4 -50,0.2148 -75,0.2148 h -12.2071 v -13.6133 c 0,-25.3 -0.2023,-50.5984 0.098,-75.8984 0,-5.1 -1.4977,-8.5875 -5.0977,-12.1875 -44.7,-44.4 -89.1914,-89.0156 -133.6914,-133.5156 l -81.3086,-81.2891 c -1.9,-1.9 -3.4976,-3.9984 -5.0976,-5.8984 l 225.1953,-225.2149 c 3.7,3.6 7.8164,7.3086 11.8164,11.3086 l 168.8867,168.9063 c 13.7,13.7 27.1961,27.4961 40.9961,40.9961 1.9,1.8 5,3.4961 7.5,3.4961 29.3,0.4 58.6102,0.4101 87.9102,0.4101 1.6,0 3.1906,-0.6133 5.3906,-1.1133 v -20.9961 c 0,-22.6 -0.085,-45.2906 0.2148,-67.8906 0.1,-5.5 -1.8031,-9.2078 -5.7031,-13.0078 -40.4,-40.1 -80.5984,-80.4031 -120.8984,-120.7031 -29.7,-29.7 -59.4016,-59.3039 -89.1016,-89.0039 -3.3,-3.2 -6.4117,-6.6024 -9.5117,-9.9024 75.3,-75.1 150.1101,-149.4922 225.4101,-224.4922 0.7,0.4 2.6993,1.6055 4.1993,3.1055 34.4,34.3 68.9007,68.5883 103.3007,102.9883 38,37.9 75.8915,75.8086 113.6915,113.8086 2.7999,2.9 5.7093,4.2969 9.6093,4.2969 29.3,-0.2 58.5907,-0.193 87.8907,-0.293 0.9999,-0.1 1.9156,-0.4985 3.5156,-0.8985 0.2,-2.4999 0.5859,-4.9976 0.5859,-7.5976 0.1,-25.7 0.012,-51.3117 0.3125,-77.0117 0.1,-7.7 -2.1125,-13.5992 -7.8125,-19.1992 -30.6,-30.2 -60.8891,-60.5961 -91.2891,-90.9961 -36.4999,-36.49993 -73.0093,-73.09216 -109.6093,-109.49215 -5.7,-5.6 -11.7985,-10.71876 -18.3985,-16.71876 5.9,-6.19999 10.6102,-11.19375 15.4102,-16.09374 29.7,-29.7 59.382,-59.40391 89.082,-89.00391 37.2,-37.2 74.5164,-74.28438 111.8164,-111.48438 1.6,-1.7 3.2,-3.40234 5,-4.90234 4.2,-3.4 5.586,-7.60547 5.586,-13.10547 -0.2,-34.7 -0.098,-69.30391 -0.098,-104.0039 -0.1,-25 -0.4,-50.00001 0,-75 0.1,-5.6 -1.7883,-9.40547 -5.4883,-13.10547 -28.3,-28.2 -56.5047,-56.4875 -84.8047,-84.6875 -41,-41 -82.0054,-81.9125 -123.1054,-122.8125 -4,-3.9 -8.3938,-7.39454 -13.5938,-11.89453 76,-76.1 150.8039,-150.90157 226.5039,-226.601564 4,3.9 7.6868,7.510938 11.3868,11.210938 56.5999,56.499996 113.207,113.089836 169.707,169.589836 12.7,12.7 25.5078,25.40079 38.0078,38.30079 4.7,4.79999 9.6992,7.20937 16.6992,7.10937 23.7,-0.4 47.2961,-0.0977 70.9961,-0.0977 h 16.2891 v 29.58985 c 0,20 0.1047,40 -0.1953,60 -0.1,5.2 1.5953,8.80469 5.1953,12.30468 26.1,25.8 52.0101,51.69766 77.9101,77.59766 l 9.2969,9.00391 V 70.452709 c -30.5,30.499991 -60.9945,60.996871 -91.8945,91.796871 -10.5,-10.3 -20.3024,-19.69688 -29.9024,-29.29687 -43.1,-43.000001 -86.1992,-86.096876 -129.1992,-129.2968756 -2,-2 -3.3,-4.709375 -5,-7.109375 h -318.0078 c -1.7,2.3 -3.1953,5.0117188 -5.1953,7.0117188 -51.7,51.7999988 -103.3977,103.5929618 -155.0977,155.2929618 -1,0.9 -2.1039,1.60782 -4.0039,3.00781 -7,-6.89999 -14.1937,-13.70546 -21.0937,-20.60546 -27.1,-27 -54.1133,-54.091406 -81.1133,-81.191406 -19,-19 -38.0922,-38.104688 -56.9922,-57.3046871 -1.7,-1.90000004 -2.9922,-4.2085938 -4.4922,-6.3085938 h -318.0078 c -2,2.59999996 -3.7055,5.4148438 -5.6055,7.7148438 -51,51.2999991 -102.0031,102.4960931 -153.2031,153.4960931 -3.7,3.7 -5,7.1875 -5,12.1875 0.2,26 0,52.00781 0,78.00781 v 10.89844 c -6.3,0.2 -11.8828,0.50781 -17.3828,0.50781 -22.7,0 -45.3078,0.18515 -68.0078,-0.21485 -7.9,-0.19999 -13.6969,2.40782 -19.2969,8.00782 -30.9,31.2 -62.1031,62.20078 -93.2031,93.30078 -38.6,38.6 -77.0961,77.40312 -115.9961,115.70312 -7,6.8 -9.9094,13.59844 -9.6094,23.39844 0.7,22.9 0.1953,45.90625 0.1953,68.90625 v 13.49609 c 4.4,0.3 7.6008,0.60547 10.8008,0.60547 25.7,0 51.3117,-0.40234 77.0117,0.0977 7.4,0.1 12.4024,-2.20469 17.4024,-7.30469 38.2,-38.6 76.5023,-77.01015 114.9023,-115.41015 32.7,-32.8 65.3836,-65.60079 98.1836,-98.30079 1.4,-1.39999 3,-2.49921 5,-4.19921 2.1,1.8 4.2156,3.31718 6.0156,5.11718 48.5,48.5 96.9883,97.08594 145.4883,145.58594 23.1,23.1 46.2969,46.09922 69.2969,69.19922 3.2,3.2 6.3109,5.3125 11.2109,5.3125 28.7,-0.2 57.2961,-0.2125 85.9961,-0.3125 1.3,0 2.6071,-0.28594 4.707,-0.58594 0.3,-2.9 0.8985,-5.81094 0.8985,-8.71093 0,-27 -0.2024,-53.9961 0.098,-80.9961 0,-5.7 -2.5109,-9.31016 -6.2109,-12.91016 -31.4,-31.29999 -62.6844,-62.68437 -93.9844,-93.98437 -33.2,-33.2 -66.407,-66.50938 -99.707,-99.60937 -8.5,-8.4 -17.2922,-16.50547 -26.9922,-25.60547 75.9,-75.9 150.6938,-150.69141 226.0938,-226.191406 6.7,6.4 13.0945,12.508594 19.3945,18.808594 62.2,62.099992 124.4016,124.284372 186.6016,186.484372 5.2,5.2 10.4929,10.30078 15.2929,15.80078 3.4,3.9 7.2047,5 12.3047,5 26.4,-0.2 52.7039,-0.0977 79.0039,-0.0977 h 10.0977 c 0.2,4.5 0.4101,8.30704 0.4101,12.20703 0,25 0.085,50.00001 -0.2148,75 -0.1,6.8 2.1117,11.60391 7.0117,16.50391 33.2,32.7 66.0039,65.78906 99.0039,98.78906 38.1,38.2 76.2922,76.29454 114.4922,114.39453 1.4,1.4 2.7,2.91016 5,5.41016 -3.3,3.5 -6.5023,7.20547 -9.9023,10.60547 -15.5,15.5 -31.1016,30.98438 -46.6016,46.48437 l -119.3945,119.41407 c -14.8,14.8 -29.5094,29.79453 -44.6094,44.39453 -3.8,3.6 -5.0977,7.30469 -5.0977,12.30469 0.1,26 0,51.98828 0,77.98828 v 10.70312 c -3.5,0.3 -6.3992,0.80078 -9.1992,0.80078 -26.7,0.1 -53.3,0.29766 -80,0.0977 -5.5,-0.1 -9.2859,1.70781 -13.0859,5.50781 -48.4,48.6 -96.9102,97.20307 -145.4102,145.70307 -23.8,23.8 -47.6062,47.4891 -71.4062,71.2891 -0.9,0.8999 -2.0868,1.6101 -3.8868,2.9101 -8.2999,-8.1 -16.6046,-16.0969 -24.8046,-24.2969 -46.7,-46.6 -93.3,-93.2047 -140,-139.80459 -18.6,-18.6 -37.2055,-37.19609 -55.6055,-55.99609 -3.7,-3.8 -7.5883,-5.60547 -12.9883,-5.60547 -58.2,0.1 -116.5047,0.2 -174.8047,0 -7.9,-0.1 -13.4992,1.99297 -19.1992,7.79297 -45.9,46.4 -92.1984,92.41318 -138.3984,138.61318 l -74.7071,75 c -1.4,1.4 -3.0929,2.5922 -5.2929,4.4922 -5.2,-5 -10.5055,-9.9 -15.6055,-15 -42.2,-42.1 -84.4016,-84.2062 -126.6016,-126.40616 -25.9,-25.9 -51.8023,-51.88594 -77.4023,-78.08594 -4.7,-4.8 -9.8938,-6.21094 -16.0938,-6.21094 -25,0.1 -49.9023,0.0977 -74.9023,0.0977 -3.6,0 -7.207,-0.28828 -12.207,-0.48828 V 880.9606 c 0,-21.3 0.013,-42.70391 0.3125,-64.00391 0.1,-5.7 -1.4055,-9.90156 -5.6055,-14.10156 -42.5,-42.2 -84.907,-84.68985 -127.207,-127.08984 -29.9,-29.9 -59.6922,-59.90235 -89.4922,-89.90235 -1.2,-1.1 -2.0914,-2.41641 -3.6914,-4.31641 10.2,-10.09999 20.2,-19.78984 30,-29.58984 48.6,-48.5 97.1836,-97.00781 145.6836,-145.50781 15.1,-15.1 30.0125,-30.19766 45.3125,-45.09766 3.7,-3.6 4.7851,-7.50234 4.7851,-12.40234 -0.1,-25.7 0,-51.29219 0,-76.99219 v -11.69922 c 4.5,-0.3 8.1016,-0.60547 11.6016,-0.60547 25.4,0 50.7156,-0.20234 76.0156,0.0977 6.5,0 10.9836,-1.90156 15.6836,-6.60156 67,-67.3 134.3063,-134.28672 201.4063,-201.386717 6.1,-6.1 14.007,-11.601563 17.207,-19.101563 3.1,-7.1 1.0867,-16.309375 1.3867,-24.6093746 0.1,-3.8999997 0.3078,-7.89453104 0.5078,-11.894531 z"
     id="path454" /></g></svg>
