G04 #@! TF.GenerationSoftware,KiCad,Pcbnew,(5.1.9)-1*
G04 #@! TF.CreationDate,2021-05-22T18:04:56+01:00*
G04 #@! TF.ProjectId,ENV_KB-Top,454e565f-4b42-42d5-946f-702e6b696361,Rev.1*
G04 #@! TF.SameCoordinates,Original*
G04 #@! TF.FileFunction,Copper,L1,Top*
G04 #@! TF.FilePolarity,Positive*
%FSLAX46Y46*%
G04 Gerber Fmt 4.6, Leading zero omitted, Abs format (unit mm)*
G04 Created by KiCad (PCBNEW (5.1.9)-1) date 2021-05-22 18:04:56*
%MOMM*%
%LPD*%
G01*
G04 APERTURE LIST*
G04 #@! TA.AperFunction,NonConductor*
%ADD10C,0.155000*%
G04 #@! TD*
G04 #@! TA.AperFunction,NonConductor*
%ADD11C,0.300000*%
G04 #@! TD*
G04 APERTURE END LIST*
D10*
X164284047Y-214806857D02*
X164550714Y-214806857D01*
X164665000Y-215225904D02*
X164284047Y-215225904D01*
X164284047Y-214425904D01*
X164665000Y-214425904D01*
X165007857Y-214692571D02*
X165007857Y-215225904D01*
X165007857Y-214768761D02*
X165045952Y-214730666D01*
X165122142Y-214692571D01*
X165236428Y-214692571D01*
X165312619Y-214730666D01*
X165350714Y-214806857D01*
X165350714Y-215225904D01*
X165655476Y-214692571D02*
X165845952Y-215225904D01*
X166036428Y-214692571D01*
X166341190Y-215225904D02*
X166341190Y-214692571D01*
X166341190Y-214425904D02*
X166303095Y-214464000D01*
X166341190Y-214502095D01*
X166379285Y-214464000D01*
X166341190Y-214425904D01*
X166341190Y-214502095D01*
X166836428Y-215225904D02*
X166760238Y-215187809D01*
X166722142Y-215149714D01*
X166684047Y-215073523D01*
X166684047Y-214844952D01*
X166722142Y-214768761D01*
X166760238Y-214730666D01*
X166836428Y-214692571D01*
X166950714Y-214692571D01*
X167026904Y-214730666D01*
X167065000Y-214768761D01*
X167103095Y-214844952D01*
X167103095Y-215073523D01*
X167065000Y-215149714D01*
X167026904Y-215187809D01*
X166950714Y-215225904D01*
X166836428Y-215225904D01*
X167788809Y-214692571D02*
X167788809Y-215225904D01*
X167445952Y-214692571D02*
X167445952Y-215111619D01*
X167484047Y-215187809D01*
X167560238Y-215225904D01*
X167674523Y-215225904D01*
X167750714Y-215187809D01*
X167788809Y-215149714D01*
X168131666Y-215187809D02*
X168207857Y-215225904D01*
X168360238Y-215225904D01*
X168436428Y-215187809D01*
X168474523Y-215111619D01*
X168474523Y-215073523D01*
X168436428Y-214997333D01*
X168360238Y-214959238D01*
X168245952Y-214959238D01*
X168169761Y-214921142D01*
X168131666Y-214844952D01*
X168131666Y-214806857D01*
X168169761Y-214730666D01*
X168245952Y-214692571D01*
X168360238Y-214692571D01*
X168436428Y-214730666D01*
X168817380Y-215149714D02*
X168855476Y-215187809D01*
X168817380Y-215225904D01*
X168779285Y-215187809D01*
X168817380Y-215149714D01*
X168817380Y-215225904D01*
X169198333Y-215225904D02*
X169198333Y-214425904D01*
X169465000Y-214997333D01*
X169731666Y-214425904D01*
X169731666Y-215225904D01*
X170417380Y-215187809D02*
X170341190Y-215225904D01*
X170188809Y-215225904D01*
X170112619Y-215187809D01*
X170074523Y-215111619D01*
X170074523Y-214806857D01*
X170112619Y-214730666D01*
X170188809Y-214692571D01*
X170341190Y-214692571D01*
X170417380Y-214730666D01*
X170455476Y-214806857D01*
X170455476Y-214883047D01*
X170074523Y-214959238D01*
X171141190Y-215225904D02*
X171141190Y-214425904D01*
X171141190Y-215187809D02*
X171065000Y-215225904D01*
X170912619Y-215225904D01*
X170836428Y-215187809D01*
X170798333Y-215149714D01*
X170760238Y-215073523D01*
X170760238Y-214844952D01*
X170798333Y-214768761D01*
X170836428Y-214730666D01*
X170912619Y-214692571D01*
X171065000Y-214692571D01*
X171141190Y-214730666D01*
X171522142Y-215225904D02*
X171522142Y-214692571D01*
X171522142Y-214425904D02*
X171484047Y-214464000D01*
X171522142Y-214502095D01*
X171560238Y-214464000D01*
X171522142Y-214425904D01*
X171522142Y-214502095D01*
X172245952Y-215225904D02*
X172245952Y-214806857D01*
X172207857Y-214730666D01*
X172131666Y-214692571D01*
X171979285Y-214692571D01*
X171903095Y-214730666D01*
X172245952Y-215187809D02*
X172169761Y-215225904D01*
X171979285Y-215225904D01*
X171903095Y-215187809D01*
X171865000Y-215111619D01*
X171865000Y-215035428D01*
X171903095Y-214959238D01*
X171979285Y-214921142D01*
X172169761Y-214921142D01*
X172245952Y-214883047D01*
D11*
X306260952Y-116964761D02*
X306260952Y-114964761D01*
X307118095Y-116964761D02*
X307118095Y-115917142D01*
X307022857Y-115726666D01*
X306832380Y-115631428D01*
X306546666Y-115631428D01*
X306356190Y-115726666D01*
X306260952Y-115821904D01*
X307784761Y-115631428D02*
X308546666Y-115631428D01*
X308070476Y-114964761D02*
X308070476Y-116679047D01*
X308165714Y-116869523D01*
X308356190Y-116964761D01*
X308546666Y-116964761D01*
X308927619Y-115631428D02*
X309689523Y-115631428D01*
X309213333Y-114964761D02*
X309213333Y-116679047D01*
X309308571Y-116869523D01*
X309499047Y-116964761D01*
X309689523Y-116964761D01*
X310356190Y-115631428D02*
X310356190Y-117631428D01*
X310356190Y-115726666D02*
X310546666Y-115631428D01*
X310927619Y-115631428D01*
X311118095Y-115726666D01*
X311213333Y-115821904D01*
X311308571Y-116012380D01*
X311308571Y-116583809D01*
X311213333Y-116774285D01*
X311118095Y-116869523D01*
X310927619Y-116964761D01*
X310546666Y-116964761D01*
X310356190Y-116869523D01*
X312070476Y-116869523D02*
X312260952Y-116964761D01*
X312641904Y-116964761D01*
X312832380Y-116869523D01*
X312927619Y-116679047D01*
X312927619Y-116583809D01*
X312832380Y-116393333D01*
X312641904Y-116298095D01*
X312356190Y-116298095D01*
X312165714Y-116202857D01*
X312070476Y-116012380D01*
X312070476Y-115917142D01*
X312165714Y-115726666D01*
X312356190Y-115631428D01*
X312641904Y-115631428D01*
X312832380Y-115726666D01*
X313784761Y-116774285D02*
X313880000Y-116869523D01*
X313784761Y-116964761D01*
X313689523Y-116869523D01*
X313784761Y-116774285D01*
X313784761Y-116964761D01*
X313784761Y-115726666D02*
X313880000Y-115821904D01*
X313784761Y-115917142D01*
X313689523Y-115821904D01*
X313784761Y-115726666D01*
X313784761Y-115917142D01*
X316165714Y-114869523D02*
X314451428Y-117440952D01*
X318260952Y-114869523D02*
X316546666Y-117440952D01*
X319784761Y-115631428D02*
X319784761Y-117250476D01*
X319689523Y-117440952D01*
X319594285Y-117536190D01*
X319403809Y-117631428D01*
X319118095Y-117631428D01*
X318927619Y-117536190D01*
X319784761Y-116869523D02*
X319594285Y-116964761D01*
X319213333Y-116964761D01*
X319022857Y-116869523D01*
X318927619Y-116774285D01*
X318832380Y-116583809D01*
X318832380Y-116012380D01*
X318927619Y-115821904D01*
X319022857Y-115726666D01*
X319213333Y-115631428D01*
X319594285Y-115631428D01*
X319784761Y-115726666D01*
X320737142Y-116964761D02*
X320737142Y-115631428D01*
X320737142Y-114964761D02*
X320641904Y-115060000D01*
X320737142Y-115155238D01*
X320832380Y-115060000D01*
X320737142Y-114964761D01*
X320737142Y-115155238D01*
X321403809Y-115631428D02*
X322165714Y-115631428D01*
X321689523Y-114964761D02*
X321689523Y-116679047D01*
X321784761Y-116869523D01*
X321975238Y-116964761D01*
X322165714Y-116964761D01*
X322832380Y-116964761D02*
X322832380Y-114964761D01*
X323689523Y-116964761D02*
X323689523Y-115917142D01*
X323594285Y-115726666D01*
X323403809Y-115631428D01*
X323118095Y-115631428D01*
X322927619Y-115726666D01*
X322832380Y-115821904D01*
X325499047Y-115631428D02*
X325499047Y-116964761D01*
X324641904Y-115631428D02*
X324641904Y-116679047D01*
X324737142Y-116869523D01*
X324927619Y-116964761D01*
X325213333Y-116964761D01*
X325403809Y-116869523D01*
X325499047Y-116774285D01*
X326451428Y-116964761D02*
X326451428Y-114964761D01*
X326451428Y-115726666D02*
X326641904Y-115631428D01*
X327022857Y-115631428D01*
X327213333Y-115726666D01*
X327308571Y-115821904D01*
X327403809Y-116012380D01*
X327403809Y-116583809D01*
X327308571Y-116774285D01*
X327213333Y-116869523D01*
X327022857Y-116964761D01*
X326641904Y-116964761D01*
X326451428Y-116869523D01*
X328260952Y-116774285D02*
X328356190Y-116869523D01*
X328260952Y-116964761D01*
X328165714Y-116869523D01*
X328260952Y-116774285D01*
X328260952Y-116964761D01*
X330070476Y-116869523D02*
X329880000Y-116964761D01*
X329499047Y-116964761D01*
X329308571Y-116869523D01*
X329213333Y-116774285D01*
X329118095Y-116583809D01*
X329118095Y-116012380D01*
X329213333Y-115821904D01*
X329308571Y-115726666D01*
X329499047Y-115631428D01*
X329880000Y-115631428D01*
X330070476Y-115726666D01*
X331213333Y-116964761D02*
X331022857Y-116869523D01*
X330927619Y-116774285D01*
X330832380Y-116583809D01*
X330832380Y-116012380D01*
X330927619Y-115821904D01*
X331022857Y-115726666D01*
X331213333Y-115631428D01*
X331499047Y-115631428D01*
X331689523Y-115726666D01*
X331784761Y-115821904D01*
X331880000Y-116012380D01*
X331880000Y-116583809D01*
X331784761Y-116774285D01*
X331689523Y-116869523D01*
X331499047Y-116964761D01*
X331213333Y-116964761D01*
X332737142Y-116964761D02*
X332737142Y-115631428D01*
X332737142Y-115821904D02*
X332832380Y-115726666D01*
X333022857Y-115631428D01*
X333308571Y-115631428D01*
X333499047Y-115726666D01*
X333594285Y-115917142D01*
X333594285Y-116964761D01*
X333594285Y-115917142D02*
X333689523Y-115726666D01*
X333880000Y-115631428D01*
X334165714Y-115631428D01*
X334356190Y-115726666D01*
X334451428Y-115917142D01*
X334451428Y-116964761D01*
X336832380Y-114869523D02*
X335118095Y-117440952D01*
X337499047Y-115917142D02*
X338165714Y-115917142D01*
X338451428Y-116964761D02*
X337499047Y-116964761D01*
X337499047Y-114964761D01*
X338451428Y-114964761D01*
X339308571Y-115631428D02*
X339308571Y-116964761D01*
X339308571Y-115821904D02*
X339403809Y-115726666D01*
X339594285Y-115631428D01*
X339880000Y-115631428D01*
X340070476Y-115726666D01*
X340165714Y-115917142D01*
X340165714Y-116964761D01*
X340927619Y-115631428D02*
X341403809Y-116964761D01*
X341880000Y-115631428D01*
X342641904Y-116964761D02*
X342641904Y-115631428D01*
X342641904Y-114964761D02*
X342546666Y-115060000D01*
X342641904Y-115155238D01*
X342737142Y-115060000D01*
X342641904Y-114964761D01*
X342641904Y-115155238D01*
X343880000Y-116964761D02*
X343689523Y-116869523D01*
X343594285Y-116774285D01*
X343499047Y-116583809D01*
X343499047Y-116012380D01*
X343594285Y-115821904D01*
X343689523Y-115726666D01*
X343880000Y-115631428D01*
X344165714Y-115631428D01*
X344356190Y-115726666D01*
X344451428Y-115821904D01*
X344546666Y-116012380D01*
X344546666Y-116583809D01*
X344451428Y-116774285D01*
X344356190Y-116869523D01*
X344165714Y-116964761D01*
X343880000Y-116964761D01*
X346260952Y-115631428D02*
X346260952Y-116964761D01*
X345403809Y-115631428D02*
X345403809Y-116679047D01*
X345499047Y-116869523D01*
X345689523Y-116964761D01*
X345975238Y-116964761D01*
X346165714Y-116869523D01*
X346260952Y-116774285D01*
X347118095Y-116869523D02*
X347308571Y-116964761D01*
X347689523Y-116964761D01*
X347880000Y-116869523D01*
X347975238Y-116679047D01*
X347975238Y-116583809D01*
X347880000Y-116393333D01*
X347689523Y-116298095D01*
X347403809Y-116298095D01*
X347213333Y-116202857D01*
X347118095Y-116012380D01*
X347118095Y-115917142D01*
X347213333Y-115726666D01*
X347403809Y-115631428D01*
X347689523Y-115631428D01*
X347880000Y-115726666D01*
X348832380Y-116202857D02*
X350356190Y-116202857D01*
X351308571Y-116964761D02*
X351308571Y-114964761D01*
X351784761Y-114964761D01*
X352070476Y-115060000D01*
X352260952Y-115250476D01*
X352356190Y-115440952D01*
X352451428Y-115821904D01*
X352451428Y-116107619D01*
X352356190Y-116488571D01*
X352260952Y-116679047D01*
X352070476Y-116869523D01*
X351784761Y-116964761D01*
X351308571Y-116964761D01*
X354165714Y-116964761D02*
X354165714Y-115917142D01*
X354070476Y-115726666D01*
X353880000Y-115631428D01*
X353499047Y-115631428D01*
X353308571Y-115726666D01*
X354165714Y-116869523D02*
X353975238Y-116964761D01*
X353499047Y-116964761D01*
X353308571Y-116869523D01*
X353213333Y-116679047D01*
X353213333Y-116488571D01*
X353308571Y-116298095D01*
X353499047Y-116202857D01*
X353975238Y-116202857D01*
X354165714Y-116107619D01*
X354832380Y-115631428D02*
X355594285Y-115631428D01*
X355118095Y-114964761D02*
X355118095Y-116679047D01*
X355213333Y-116869523D01*
X355403809Y-116964761D01*
X355594285Y-116964761D01*
X357118095Y-116964761D02*
X357118095Y-115917142D01*
X357022857Y-115726666D01*
X356832380Y-115631428D01*
X356451428Y-115631428D01*
X356260952Y-115726666D01*
X357118095Y-116869523D02*
X356927619Y-116964761D01*
X356451428Y-116964761D01*
X356260952Y-116869523D01*
X356165714Y-116679047D01*
X356165714Y-116488571D01*
X356260952Y-116298095D01*
X356451428Y-116202857D01*
X356927619Y-116202857D01*
X357118095Y-116107619D01*
X359499047Y-114869523D02*
X357784761Y-117440952D01*
X360165714Y-115917142D02*
X360832380Y-115917142D01*
X361118095Y-116964761D02*
X360165714Y-116964761D01*
X360165714Y-114964761D01*
X361118095Y-114964761D01*
X361975238Y-115631428D02*
X361975238Y-116964761D01*
X361975238Y-115821904D02*
X362070476Y-115726666D01*
X362260952Y-115631428D01*
X362546666Y-115631428D01*
X362737142Y-115726666D01*
X362832380Y-115917142D01*
X362832380Y-116964761D01*
X363594285Y-115631428D02*
X364070476Y-116964761D01*
X364546666Y-115631428D01*
X365308571Y-116202857D02*
X366832380Y-116202857D01*
X367784761Y-116964761D02*
X367784761Y-114964761D01*
X368927619Y-116964761D02*
X368070476Y-115821904D01*
X368927619Y-114964761D02*
X367784761Y-116107619D01*
X370451428Y-115917142D02*
X370737142Y-116012380D01*
X370832380Y-116107619D01*
X370927619Y-116298095D01*
X370927619Y-116583809D01*
X370832380Y-116774285D01*
X370737142Y-116869523D01*
X370546666Y-116964761D01*
X369784761Y-116964761D01*
X369784761Y-114964761D01*
X370451428Y-114964761D01*
X370641904Y-115060000D01*
X370737142Y-115155238D01*
X370832380Y-115345714D01*
X370832380Y-115536190D01*
X370737142Y-115726666D01*
X370641904Y-115821904D01*
X370451428Y-115917142D01*
X369784761Y-115917142D01*
M02*
