%FSLAX45Y45*%
G04 Gerber Fmt 4.5, Leading zero omitted, Abs format (unit mm)*
G04 Created by KiCad (PCBNEW (5.1.9)-1) date 2021-05-22 18:04:57*
%MOMM*%
%LPD*%
G01*
G04 APERTURE LIST*
%TA.AperFunction,Profile*%
%ADD10C,0.100000*%
%TD*%
%ADD11C,0.200000*%
%ADD12C,0.300000*%
G04 APERTURE END LIST*
D10*
X38202500Y-8878500D02*
G75*
G02*
X37902500Y-9178500I-300000J0D01*
G01*
X38202500Y-6268500D02*
X38202500Y-8878500D01*
X4542500Y-9178500D02*
X37902500Y-9178500D01*
X4542500Y-9178500D02*
G75*
G02*
X4242500Y-8878500I0J300000D01*
G01*
X4242500Y-6268500D02*
X4242500Y-8878500D01*
X3942500Y-5968500D02*
G75*
G02*
X4242500Y-6268500I0J-300000D01*
G01*
X38202500Y-6268500D02*
G75*
G02*
X38502500Y-5968500I300000J0D01*
G01*
X38652500Y-5968500D02*
X38502500Y-5968500D01*
X3792500Y-5968500D02*
X3942500Y-5968500D01*
X38952500Y-6268500D02*
X38952500Y-21278500D01*
X5021075Y-19501000D02*
G75*
G02*
X5071075Y-19451000I50000J0D01*
G01*
X4260875Y-18051000D02*
X7704000Y-18051000D01*
X30997450Y-17596100D02*
X30997450Y-17696000D01*
X31704625Y-16643094D02*
G75*
G02*
X31754625Y-16593094I50000J0D01*
G01*
X29309832Y-17596102D02*
G75*
G02*
X29359832Y-17546102I50000J0D01*
G01*
X29309825Y-17696000D02*
X29309832Y-17596102D01*
X28559732Y-17546102D02*
G75*
G02*
X28609732Y-17596102I0J-50000D01*
G01*
X28609825Y-17696000D02*
X28609732Y-17596102D01*
X30404750Y-16095978D02*
X30404750Y-15687000D01*
X30404750Y-16095978D02*
G75*
G02*
X30354750Y-16145978I-50000J0D01*
G01*
X30354750Y-15637000D02*
X30214750Y-15637000D01*
X30214750Y-15637000D02*
G75*
G02*
X30164750Y-15587000I0J50000D01*
G01*
X30354750Y-15637000D02*
G75*
G02*
X30404750Y-15687000I0J-50000D01*
G01*
X31615000Y-15193500D02*
G75*
G02*
X31565000Y-15143500I0J50000D01*
G01*
X31654625Y-15049700D02*
X31615000Y-15049700D01*
X31565000Y-15099700D02*
G75*
G02*
X31615000Y-15049700I50000J0D01*
G01*
X31615000Y-14350000D02*
G75*
G02*
X31565000Y-14300000I0J50000D01*
G01*
X31565000Y-15143500D02*
X31565000Y-15099700D01*
X31515000Y-14238000D02*
G75*
G02*
X31565000Y-14288000I0J-50000D01*
G01*
X30164750Y-15587000D02*
X30165000Y-14288000D01*
X31565000Y-14288000D02*
X31565000Y-14300000D01*
X30215000Y-14238000D02*
X31515000Y-14238000D01*
X7408675Y-19501000D02*
G75*
G02*
X7458675Y-19451000I50000J0D01*
G01*
X7704000Y-19451000D02*
X7458675Y-19451000D01*
X7408675Y-19601000D02*
X7408675Y-19501000D01*
X6708675Y-19501000D02*
X6708675Y-19601000D01*
X6658675Y-19451000D02*
G75*
G02*
X6708675Y-19501000I0J-50000D01*
G01*
X6658675Y-19451000D02*
X5071075Y-19451000D01*
X5021075Y-19601000D02*
X5021075Y-19501000D01*
X4321075Y-19501000D02*
X4321075Y-19601000D01*
X4260875Y-19451000D02*
X4271075Y-19451000D01*
X4271075Y-19451000D02*
G75*
G02*
X4321075Y-19501000I0J-50000D01*
G01*
X4371075Y-19651000D02*
X4971075Y-19651000D01*
X29309825Y-17696000D02*
G75*
G02*
X29259825Y-17746000I-50000J0D01*
G01*
X31704625Y-17695924D02*
G75*
G02*
X31654625Y-17745924I-50000J0D01*
G01*
X6758675Y-19651000D02*
G75*
G02*
X6708675Y-19601000I0J50000D01*
G01*
X7408675Y-19601000D02*
G75*
G02*
X7358675Y-19651000I-50000J0D01*
G01*
X28659825Y-17746000D02*
X29259825Y-17746000D01*
X6758675Y-19651000D02*
X7358675Y-19651000D01*
X31047425Y-17746000D02*
G75*
G02*
X30997425Y-17696000I0J50000D01*
G01*
X5021075Y-19601000D02*
G75*
G02*
X4971075Y-19651000I-50000J0D01*
G01*
X4371075Y-19651000D02*
G75*
G02*
X4321075Y-19601000I0J50000D01*
G01*
X28659825Y-17746000D02*
G75*
G02*
X28609825Y-17696000I0J50000D01*
G01*
X30947450Y-17546100D02*
G75*
G02*
X30997450Y-17596100I0J-50000D01*
G01*
X31047610Y-17745962D02*
X31654625Y-17745924D01*
X29359832Y-17546102D02*
X30947450Y-17546100D01*
X31654625Y-14349700D02*
X31615000Y-14350000D01*
X27785250Y-14291000D02*
G75*
G02*
X27835250Y-14241000I50000J0D01*
G01*
X29185250Y-15591000D02*
G75*
G02*
X29135250Y-15641000I-50000J0D01*
G01*
X34929000Y-14291000D02*
X34929000Y-15591000D01*
X34424000Y-15591000D02*
G75*
G02*
X34374000Y-15641000I-50000J0D01*
G01*
X31704625Y-16643094D02*
X31704625Y-17695924D01*
X36329000Y-15591000D02*
G75*
G02*
X36279000Y-15641000I-50000J0D01*
G01*
X30165000Y-14288000D02*
G75*
G02*
X30215000Y-14238000I50000J0D01*
G01*
X31754625Y-15193500D02*
X31615000Y-15193500D01*
X36279000Y-14241000D02*
G75*
G02*
X36329000Y-14291000I0J-50000D01*
G01*
X36329000Y-14291000D02*
X36329000Y-15591000D01*
X31654625Y-14349700D02*
G75*
G02*
X31704625Y-14399700I0J-50000D01*
G01*
X31704625Y-14399700D02*
X31704625Y-14999700D01*
X31804625Y-16543094D02*
G75*
G02*
X31754625Y-16593094I-50000J0D01*
G01*
X34424000Y-14291000D02*
X34424000Y-15591000D01*
X33074000Y-15641000D02*
X34374000Y-15641000D01*
X31704625Y-14999700D02*
G75*
G02*
X31654625Y-15049700I-50000J0D01*
G01*
X31804625Y-15243500D02*
X31804625Y-16543094D01*
X29135250Y-14241000D02*
G75*
G02*
X29185250Y-14291000I0J-50000D01*
G01*
X34929000Y-14291000D02*
G75*
G02*
X34979000Y-14241000I50000J0D01*
G01*
X27835250Y-15641000D02*
G75*
G02*
X27785250Y-15591000I0J50000D01*
G01*
X33074000Y-15641000D02*
G75*
G02*
X33024000Y-15591000I0J50000D01*
G01*
X31754625Y-15193500D02*
G75*
G02*
X31804625Y-15243500I0J-50000D01*
G01*
X34979000Y-15641000D02*
X36279000Y-15641000D01*
X33024000Y-14291000D02*
X33024000Y-15591000D01*
X36884000Y-14241000D02*
X38184000Y-14241000D01*
X36884000Y-15641000D02*
G75*
G02*
X36834000Y-15591000I0J50000D01*
G01*
X38184000Y-14241000D02*
G75*
G02*
X38234000Y-14291000I0J-50000D01*
G01*
X34374000Y-14241000D02*
G75*
G02*
X34424000Y-14291000I0J-50000D01*
G01*
X36834000Y-14291000D02*
G75*
G02*
X36884000Y-14241000I50000J0D01*
G01*
X34979000Y-15641000D02*
G75*
G02*
X34929000Y-15591000I0J50000D01*
G01*
X38234000Y-14291000D02*
X38234000Y-15591000D01*
X33074000Y-14241000D02*
X34374000Y-14241000D01*
X36834000Y-14291000D02*
X36834000Y-15591000D01*
X36884000Y-15641000D02*
X38184000Y-15641000D01*
X34979000Y-14241000D02*
X36279000Y-14241000D01*
X33024000Y-14291000D02*
G75*
G02*
X33074000Y-14241000I50000J0D01*
G01*
X27230250Y-14241000D02*
G75*
G02*
X27280250Y-14291000I0J-50000D01*
G01*
X20215250Y-15641000D02*
X21515250Y-15641000D01*
X18260250Y-14291000D02*
G75*
G02*
X18310250Y-14241000I50000J0D01*
G01*
X25880250Y-14291000D02*
X25880250Y-15591000D01*
X19610250Y-14241000D02*
G75*
G02*
X19660250Y-14291000I0J-50000D01*
G01*
X19660250Y-14291000D02*
X19660250Y-15591000D01*
X16355250Y-14291000D02*
G75*
G02*
X16405250Y-14241000I50000J0D01*
G01*
X16405250Y-14241000D02*
X17705250Y-14241000D01*
X20165250Y-14291000D02*
X20165250Y-15591000D01*
X20215250Y-15641000D02*
G75*
G02*
X20165250Y-15591000I0J50000D01*
G01*
X17705250Y-14241000D02*
G75*
G02*
X17755250Y-14291000I0J-50000D01*
G01*
X24025250Y-14241000D02*
X25325250Y-14241000D01*
X25930250Y-15641000D02*
G75*
G02*
X25880250Y-15591000I0J50000D01*
G01*
X27835250Y-14241000D02*
X29135250Y-14241000D01*
X20165250Y-14291000D02*
G75*
G02*
X20215250Y-14241000I50000J0D01*
G01*
X16405250Y-15641000D02*
G75*
G02*
X16355250Y-15591000I0J50000D01*
G01*
X25930250Y-14241000D02*
X27230250Y-14241000D01*
X23420250Y-14241000D02*
G75*
G02*
X23470250Y-14291000I0J-50000D01*
G01*
X14450250Y-14291000D02*
G75*
G02*
X14500250Y-14241000I50000J0D01*
G01*
X16355250Y-14291000D02*
X16355250Y-15591000D01*
X12545250Y-14291000D02*
G75*
G02*
X12595250Y-14241000I50000J0D01*
G01*
X15850250Y-15591000D02*
G75*
G02*
X15800250Y-15641000I-50000J0D01*
G01*
X16405250Y-15641000D02*
X17705250Y-15641000D01*
X27280250Y-14291000D02*
X27280250Y-15591000D01*
X21565250Y-15591000D02*
G75*
G02*
X21515250Y-15641000I-50000J0D01*
G01*
X14500250Y-14241000D02*
X15800250Y-14241000D01*
X21565250Y-14291000D02*
X21565250Y-15591000D01*
X18310250Y-15641000D02*
G75*
G02*
X18260250Y-15591000I0J50000D01*
G01*
X20215250Y-14241000D02*
X21515250Y-14241000D01*
X12595250Y-15641000D02*
G75*
G02*
X12545250Y-15591000I0J50000D01*
G01*
X27785250Y-14291000D02*
X27785250Y-15591000D01*
X14500250Y-15641000D02*
X15800250Y-15641000D01*
X23470250Y-14291000D02*
X23470250Y-15591000D01*
X25880250Y-14291000D02*
G75*
G02*
X25930250Y-14241000I50000J0D01*
G01*
X25930250Y-15641000D02*
X27230250Y-15641000D01*
X25375250Y-15591000D02*
G75*
G02*
X25325250Y-15641000I-50000J0D01*
G01*
X24025250Y-15641000D02*
G75*
G02*
X23975250Y-15591000I0J50000D01*
G01*
X13895250Y-14241000D02*
G75*
G02*
X13945250Y-14291000I0J-50000D01*
G01*
X25325250Y-14241000D02*
G75*
G02*
X25375250Y-14291000I0J-50000D01*
G01*
X14500250Y-15641000D02*
G75*
G02*
X14450250Y-15591000I0J50000D01*
G01*
X22120250Y-15641000D02*
X23420250Y-15641000D01*
X21515250Y-14241000D02*
G75*
G02*
X21565250Y-14291000I0J-50000D01*
G01*
X23975250Y-14291000D02*
G75*
G02*
X24025250Y-14241000I50000J0D01*
G01*
X25375250Y-14291000D02*
X25375250Y-15591000D01*
X19660250Y-15591000D02*
G75*
G02*
X19610250Y-15641000I-50000J0D01*
G01*
X23975250Y-14291000D02*
X23975250Y-15591000D01*
X24025250Y-15641000D02*
X25325250Y-15641000D01*
X23470250Y-15591000D02*
G75*
G02*
X23420250Y-15641000I-50000J0D01*
G01*
X18260250Y-14291000D02*
X18260250Y-15591000D01*
X17755250Y-15591000D02*
G75*
G02*
X17705250Y-15641000I-50000J0D01*
G01*
X17755250Y-14291000D02*
X17755250Y-15591000D01*
X22120250Y-15641000D02*
G75*
G02*
X22070250Y-15591000I0J50000D01*
G01*
X22070250Y-14291000D02*
X22070250Y-15591000D01*
X22120250Y-14241000D02*
X23420250Y-14241000D01*
X15800250Y-14241000D02*
G75*
G02*
X15850250Y-14291000I0J-50000D01*
G01*
X15850250Y-14291000D02*
X15850250Y-15591000D01*
X13945250Y-15591000D02*
G75*
G02*
X13895250Y-15641000I-50000J0D01*
G01*
X18310250Y-14241000D02*
X19610250Y-14241000D01*
X29185250Y-14291000D02*
X29185250Y-15591000D01*
X14450250Y-14291000D02*
X14450250Y-15591000D01*
X27835250Y-15641000D02*
X29135250Y-15641000D01*
X18310250Y-15641000D02*
X19610250Y-15641000D01*
X22070250Y-14291000D02*
G75*
G02*
X22120250Y-14241000I50000J0D01*
G01*
X27280250Y-15591000D02*
G75*
G02*
X27230250Y-15641000I-50000J0D01*
G01*
X12040250Y-15591000D02*
G75*
G02*
X11990250Y-15641000I-50000J0D01*
G01*
X34979000Y-13736000D02*
G75*
G02*
X34929000Y-13686000I0J50000D01*
G01*
X10690250Y-15641000D02*
G75*
G02*
X10640250Y-15591000I0J50000D01*
G01*
X11990250Y-14241000D02*
G75*
G02*
X12040250Y-14291000I0J-50000D01*
G01*
X10640250Y-14291000D02*
G75*
G02*
X10690250Y-14241000I50000J0D01*
G01*
X6880250Y-15641000D02*
X8180250Y-15641000D01*
X34979000Y-13736000D02*
X36279000Y-13736000D01*
X5799000Y-14241000D02*
G75*
G02*
X5849000Y-14291000I0J-50000D01*
G01*
X12040250Y-14291000D02*
X12040250Y-15591000D01*
X8180250Y-14241000D02*
G75*
G02*
X8230250Y-14291000I0J-50000D01*
G01*
X6830250Y-14291000D02*
X6830250Y-15591000D01*
X10640250Y-14291000D02*
X10640250Y-15591000D01*
X36329000Y-13686000D02*
G75*
G02*
X36279000Y-13736000I-50000J0D01*
G01*
X10690250Y-15641000D02*
X11990250Y-15641000D01*
X8785250Y-15641000D02*
G75*
G02*
X8735250Y-15591000I0J50000D01*
G01*
X10135250Y-14291000D02*
X10135250Y-15591000D01*
X5849000Y-15591000D02*
G75*
G02*
X5799000Y-15641000I-50000J0D01*
G01*
X4499000Y-15641000D02*
X5799000Y-15641000D01*
X34979000Y-12336000D02*
X36279000Y-12336000D01*
X4499000Y-15641000D02*
G75*
G02*
X4449000Y-15591000I0J50000D01*
G01*
X36884000Y-13736000D02*
X38184000Y-13736000D01*
X4449000Y-14291000D02*
G75*
G02*
X4499000Y-14241000I50000J0D01*
G01*
X34424000Y-12386000D02*
X34424000Y-13686000D01*
X33074000Y-12336000D02*
X34374000Y-12336000D01*
X10690250Y-14241000D02*
X11990250Y-14241000D01*
X38184000Y-12336000D02*
G75*
G02*
X38234000Y-12386000I0J-50000D01*
G01*
X10135250Y-15591000D02*
G75*
G02*
X10085250Y-15641000I-50000J0D01*
G01*
X34424000Y-13686000D02*
G75*
G02*
X34374000Y-13736000I-50000J0D01*
G01*
X6880250Y-15641000D02*
G75*
G02*
X6830250Y-15591000I0J50000D01*
G01*
X38234000Y-12386000D02*
X38234000Y-13686000D01*
X10085250Y-14241000D02*
G75*
G02*
X10135250Y-14291000I0J-50000D01*
G01*
X36884000Y-13736000D02*
G75*
G02*
X36834000Y-13686000I0J50000D01*
G01*
X36884000Y-12336000D02*
X38184000Y-12336000D01*
X8785250Y-15641000D02*
X10085250Y-15641000D01*
X8230250Y-14291000D02*
X8230250Y-15591000D01*
X8230250Y-15591000D02*
G75*
G02*
X8180250Y-15641000I-50000J0D01*
G01*
X36834000Y-12386000D02*
X36834000Y-13686000D01*
X28846450Y-12486000D02*
G75*
G02*
X28896450Y-12436000I50000J0D01*
G01*
X8785250Y-14241000D02*
X10085250Y-14241000D01*
X5849000Y-14291000D02*
X5849000Y-15591000D01*
X36279000Y-12336000D02*
G75*
G02*
X36329000Y-12386000I0J-50000D01*
G01*
X33024000Y-12386000D02*
G75*
G02*
X33074000Y-12336000I50000J0D01*
G01*
X28896450Y-13936000D02*
G75*
G02*
X28846450Y-13886000I0J50000D01*
G01*
X29496450Y-12436000D02*
G75*
G02*
X29546450Y-12486000I0J-50000D01*
G01*
X33074000Y-13736000D02*
G75*
G02*
X33024000Y-13686000I0J50000D01*
G01*
X33024000Y-12386000D02*
X33024000Y-13686000D01*
X34929000Y-12386000D02*
G75*
G02*
X34979000Y-12336000I50000J0D01*
G01*
X8735250Y-14291000D02*
G75*
G02*
X8785250Y-14241000I50000J0D01*
G01*
X6830250Y-14291000D02*
G75*
G02*
X6880250Y-14241000I50000J0D01*
G01*
X6880250Y-14241000D02*
X8180250Y-14241000D01*
X33074000Y-13736000D02*
X34374000Y-13736000D01*
X36329000Y-12386000D02*
X36329000Y-13686000D01*
X8735250Y-14291000D02*
X8735250Y-15591000D01*
X4449000Y-14291000D02*
X4449000Y-15591000D01*
X4499000Y-14241000D02*
X5799000Y-14241000D01*
X36834000Y-12386000D02*
G75*
G02*
X36884000Y-12336000I50000J0D01*
G01*
X34374000Y-12336000D02*
G75*
G02*
X34424000Y-12386000I0J-50000D01*
G01*
X38234000Y-13686000D02*
G75*
G02*
X38184000Y-13736000I-50000J0D01*
G01*
X29546450Y-13886000D02*
G75*
G02*
X29496450Y-13936000I-50000J0D01*
G01*
X34929000Y-12386000D02*
X34929000Y-13686000D01*
X13945250Y-14291000D02*
X13945250Y-15591000D01*
X12545250Y-14291000D02*
X12545250Y-15591000D01*
X12595250Y-15641000D02*
X13895250Y-15641000D01*
X12595250Y-14241000D02*
X13895250Y-14241000D01*
X21117750Y-12386000D02*
G75*
G02*
X21167750Y-12336000I50000J0D01*
G01*
X23022750Y-12386000D02*
G75*
G02*
X23072750Y-12336000I50000J0D01*
G01*
X21117750Y-12386000D02*
X21117750Y-13686000D01*
X23072750Y-13736000D02*
X24372750Y-13736000D01*
X29740250Y-12336000D02*
X31040250Y-12336000D01*
X20612750Y-13686000D02*
G75*
G02*
X20562750Y-13736000I-50000J0D01*
G01*
X26327750Y-13686000D02*
G75*
G02*
X26277750Y-13736000I-50000J0D01*
G01*
X26327750Y-12386000D02*
X26327750Y-13686000D01*
X26882750Y-12336000D02*
X28182750Y-12336000D01*
X26277750Y-12336000D02*
G75*
G02*
X26327750Y-12386000I0J-50000D01*
G01*
X21167750Y-13736000D02*
G75*
G02*
X21117750Y-13686000I0J50000D01*
G01*
X18657750Y-12336000D02*
G75*
G02*
X18707750Y-12386000I0J-50000D01*
G01*
X22517750Y-12386000D02*
X22517750Y-13686000D01*
X28896450Y-12436000D02*
X29496450Y-12436000D01*
X31234050Y-12486000D02*
G75*
G02*
X31284050Y-12436000I50000J0D01*
G01*
X31284050Y-12436000D02*
X31884050Y-12436000D01*
X31090250Y-12386000D02*
X31090250Y-13686000D01*
X24422750Y-13686000D02*
G75*
G02*
X24372750Y-13736000I-50000J0D01*
G01*
X20562750Y-12336000D02*
G75*
G02*
X20612750Y-12386000I0J-50000D01*
G01*
X29740250Y-13736000D02*
G75*
G02*
X29690250Y-13686000I0J50000D01*
G01*
X29740250Y-13736000D02*
X31040250Y-13736000D01*
X28232750Y-12386000D02*
X28232750Y-13686000D01*
X26882750Y-13736000D02*
X28182750Y-13736000D01*
X24977750Y-13736000D02*
G75*
G02*
X24927750Y-13686000I0J50000D01*
G01*
X22467750Y-12336000D02*
G75*
G02*
X22517750Y-12386000I0J-50000D01*
G01*
X21167750Y-12336000D02*
X22467750Y-12336000D01*
X24927750Y-12386000D02*
X24927750Y-13686000D01*
X24977750Y-12336000D02*
X26277750Y-12336000D01*
X28182750Y-12336000D02*
G75*
G02*
X28232750Y-12386000I0J-50000D01*
G01*
X23072750Y-13736000D02*
G75*
G02*
X23022750Y-13686000I0J50000D01*
G01*
X26832750Y-12386000D02*
G75*
G02*
X26882750Y-12336000I50000J0D01*
G01*
X29690250Y-12386000D02*
X29690250Y-13686000D01*
X26882750Y-13736000D02*
G75*
G02*
X26832750Y-13686000I0J50000D01*
G01*
X22517750Y-13686000D02*
G75*
G02*
X22467750Y-13736000I-50000J0D01*
G01*
X19262750Y-13736000D02*
G75*
G02*
X19212750Y-13686000I0J50000D01*
G01*
X26832750Y-12386000D02*
X26832750Y-13686000D01*
X24372750Y-12336000D02*
G75*
G02*
X24422750Y-12386000I0J-50000D01*
G01*
X23022750Y-12386000D02*
X23022750Y-13686000D01*
X19212750Y-12386000D02*
X19212750Y-13686000D01*
X31934050Y-12486000D02*
X31934050Y-13886000D01*
X31090250Y-13686000D02*
G75*
G02*
X31040250Y-13736000I-50000J0D01*
G01*
X24422750Y-12386000D02*
X24422750Y-13686000D01*
X24977750Y-13736000D02*
X26277750Y-13736000D01*
X21167750Y-13736000D02*
X22467750Y-13736000D01*
X19212750Y-12386000D02*
G75*
G02*
X19262750Y-12336000I50000J0D01*
G01*
X20612750Y-12386000D02*
X20612750Y-13686000D01*
X17357750Y-13736000D02*
G75*
G02*
X17307750Y-13686000I0J50000D01*
G01*
X17307750Y-12386000D02*
G75*
G02*
X17357750Y-12336000I50000J0D01*
G01*
X31284050Y-13936000D02*
G75*
G02*
X31234050Y-13886000I0J50000D01*
G01*
X24927750Y-12386000D02*
G75*
G02*
X24977750Y-12336000I50000J0D01*
G01*
X23072750Y-12336000D02*
X24372750Y-12336000D01*
X31234050Y-12486000D02*
X31234050Y-13886000D01*
X19262750Y-13736000D02*
X20562750Y-13736000D01*
X18707750Y-13686000D02*
G75*
G02*
X18657750Y-13736000I-50000J0D01*
G01*
X29546450Y-12486000D02*
X29546450Y-13886000D01*
X28846450Y-12486000D02*
X28846450Y-13886000D01*
X19262750Y-12336000D02*
X20562750Y-12336000D01*
X31040250Y-12336000D02*
G75*
G02*
X31090250Y-12386000I0J-50000D01*
G01*
X28896450Y-13936000D02*
X29496450Y-13936000D01*
X31934050Y-13886000D02*
G75*
G02*
X31884050Y-13936000I-50000J0D01*
G01*
X31884050Y-12436000D02*
G75*
G02*
X31934050Y-12486000I0J-50000D01*
G01*
X31284050Y-13936000D02*
X31884050Y-13936000D01*
X29690250Y-12386000D02*
G75*
G02*
X29740250Y-12336000I50000J0D01*
G01*
X28232750Y-13686000D02*
G75*
G02*
X28182750Y-13736000I-50000J0D01*
G01*
X9182750Y-13686000D02*
G75*
G02*
X9132750Y-13736000I-50000J0D01*
G01*
X38234000Y-10828500D02*
G75*
G02*
X38184000Y-10878500I-50000J0D01*
G01*
X5927750Y-13736000D02*
X7227750Y-13736000D01*
X5322750Y-12336000D02*
G75*
G02*
X5372750Y-12386000I0J-50000D01*
G01*
X3972750Y-12386000D02*
G75*
G02*
X4022750Y-12336000I50000J0D01*
G01*
X17307750Y-12386000D02*
X17307750Y-13686000D01*
X13497750Y-12386000D02*
X13497750Y-13686000D01*
X13547750Y-12336000D02*
X14847750Y-12336000D01*
X14897750Y-13686000D02*
G75*
G02*
X14847750Y-13736000I-50000J0D01*
G01*
X7227750Y-12336000D02*
G75*
G02*
X7277750Y-12386000I0J-50000D01*
G01*
X16802750Y-12386000D02*
X16802750Y-13686000D01*
X38184000Y-9478500D02*
G75*
G02*
X38234000Y-9528500I0J-50000D01*
G01*
X17357750Y-12336000D02*
X18657750Y-12336000D01*
X15452750Y-13736000D02*
X16752750Y-13736000D01*
X5877750Y-12386000D02*
G75*
G02*
X5927750Y-12336000I50000J0D01*
G01*
X12992750Y-12386000D02*
X12992750Y-13686000D01*
X15402750Y-12386000D02*
G75*
G02*
X15452750Y-12336000I50000J0D01*
G01*
X15452750Y-12336000D02*
X16752750Y-12336000D01*
X11642750Y-12336000D02*
X12942750Y-12336000D01*
X7832750Y-13736000D02*
X9132750Y-13736000D01*
X9737750Y-13736000D02*
X11037750Y-13736000D01*
X14847750Y-12336000D02*
G75*
G02*
X14897750Y-12386000I0J-50000D01*
G01*
X14897750Y-12386000D02*
X14897750Y-13686000D01*
X9182750Y-12386000D02*
X9182750Y-13686000D01*
X7782750Y-12386000D02*
G75*
G02*
X7832750Y-12336000I50000J0D01*
G01*
X11592750Y-12386000D02*
X11592750Y-13686000D01*
X11642750Y-13736000D02*
X12942750Y-13736000D01*
X11037750Y-12336000D02*
G75*
G02*
X11087750Y-12386000I0J-50000D01*
G01*
X11087750Y-13686000D02*
G75*
G02*
X11037750Y-13736000I-50000J0D01*
G01*
X9687750Y-12386000D02*
G75*
G02*
X9737750Y-12336000I50000J0D01*
G01*
X5927750Y-13736000D02*
G75*
G02*
X5877750Y-13686000I0J50000D01*
G01*
X5877750Y-12386000D02*
X5877750Y-13686000D01*
X36884000Y-10878500D02*
G75*
G02*
X36834000Y-10828500I0J50000D01*
G01*
X9737750Y-12336000D02*
X11037750Y-12336000D01*
X4022750Y-13736000D02*
X5322750Y-13736000D01*
X7277750Y-13686000D02*
G75*
G02*
X7227750Y-13736000I-50000J0D01*
G01*
X15452750Y-13736000D02*
G75*
G02*
X15402750Y-13686000I0J50000D01*
G01*
X15402750Y-12386000D02*
X15402750Y-13686000D01*
X13497750Y-12386000D02*
G75*
G02*
X13547750Y-12336000I50000J0D01*
G01*
X11087750Y-12386000D02*
X11087750Y-13686000D01*
X36834000Y-9528500D02*
G75*
G02*
X36884000Y-9478500I50000J0D01*
G01*
X4022750Y-12336000D02*
X5322750Y-12336000D01*
X5372750Y-13686000D02*
G75*
G02*
X5322750Y-13736000I-50000J0D01*
G01*
X9687750Y-12386000D02*
X9687750Y-13686000D01*
X9132750Y-12336000D02*
G75*
G02*
X9182750Y-12386000I0J-50000D01*
G01*
X12992750Y-13686000D02*
G75*
G02*
X12942750Y-13736000I-50000J0D01*
G01*
X7832750Y-13736000D02*
G75*
G02*
X7782750Y-13686000I0J50000D01*
G01*
X5927750Y-12336000D02*
X7227750Y-12336000D01*
X4022750Y-13736000D02*
G75*
G02*
X3972750Y-13686000I0J50000D01*
G01*
X7832750Y-12336000D02*
X9132750Y-12336000D01*
X11592750Y-12386000D02*
G75*
G02*
X11642750Y-12336000I50000J0D01*
G01*
X18707750Y-12386000D02*
X18707750Y-13686000D01*
X7782750Y-12386000D02*
X7782750Y-13686000D01*
X16752750Y-12336000D02*
G75*
G02*
X16802750Y-12386000I0J-50000D01*
G01*
X9737750Y-13736000D02*
G75*
G02*
X9687750Y-13686000I0J50000D01*
G01*
X17357750Y-13736000D02*
X18657750Y-13736000D01*
X16802750Y-13686000D02*
G75*
G02*
X16752750Y-13736000I-50000J0D01*
G01*
X12942750Y-12336000D02*
G75*
G02*
X12992750Y-12386000I0J-50000D01*
G01*
X13547750Y-13736000D02*
G75*
G02*
X13497750Y-13686000I0J50000D01*
G01*
X11642750Y-13736000D02*
G75*
G02*
X11592750Y-13686000I0J50000D01*
G01*
X7277750Y-12386000D02*
X7277750Y-13686000D01*
X3972750Y-12386000D02*
X3972750Y-13686000D01*
X5372750Y-12386000D02*
X5372750Y-13686000D01*
X13547750Y-13736000D02*
X14847750Y-13736000D01*
X34979000Y-9478500D02*
X36279000Y-9478500D01*
X33024000Y-9528500D02*
G75*
G02*
X33074000Y-9478500I50000J0D01*
G01*
X34979000Y-10878500D02*
X36279000Y-10878500D01*
X32042750Y-10828500D02*
G75*
G02*
X31992750Y-10878500I-50000J0D01*
G01*
X38234000Y-9528500D02*
X38234000Y-10828500D01*
X36884000Y-9478500D02*
X38184000Y-9478500D01*
X34979000Y-10878500D02*
G75*
G02*
X34929000Y-10828500I0J50000D01*
G01*
X36329000Y-9528500D02*
X36329000Y-10828500D01*
X34424000Y-10828500D02*
G75*
G02*
X34374000Y-10878500I-50000J0D01*
G01*
X26882750Y-10878500D02*
X28182750Y-10878500D01*
X24927750Y-9528500D02*
X24927750Y-10828500D01*
X33074000Y-10878500D02*
X34374000Y-10878500D01*
X26832750Y-9528500D02*
X26832750Y-10828500D01*
X32042750Y-9528500D02*
X32042750Y-10828500D01*
X24977750Y-10878500D02*
G75*
G02*
X24927750Y-10828500I0J50000D01*
G01*
X30137750Y-9528500D02*
X30137750Y-10828500D01*
X34374000Y-9478500D02*
G75*
G02*
X34424000Y-9528500I0J-50000D01*
G01*
X24927750Y-9528500D02*
G75*
G02*
X24977750Y-9478500I50000J0D01*
G01*
X33024000Y-9528500D02*
X33024000Y-10828500D01*
X30692750Y-10878500D02*
G75*
G02*
X30642750Y-10828500I0J50000D01*
G01*
X33074000Y-10878500D02*
G75*
G02*
X33024000Y-10828500I0J50000D01*
G01*
X21565250Y-10828500D02*
G75*
G02*
X21515250Y-10878500I-50000J0D01*
G01*
X34929000Y-9528500D02*
G75*
G02*
X34979000Y-9478500I50000J0D01*
G01*
X30692750Y-9478500D02*
X31992750Y-9478500D01*
X34929000Y-9528500D02*
X34929000Y-10828500D01*
X30642750Y-9528500D02*
G75*
G02*
X30692750Y-9478500I50000J0D01*
G01*
X28182750Y-9478500D02*
G75*
G02*
X28232750Y-9528500I0J-50000D01*
G01*
X28737750Y-9528500D02*
G75*
G02*
X28787750Y-9478500I50000J0D01*
G01*
X26327750Y-10828500D02*
G75*
G02*
X26277750Y-10878500I-50000J0D01*
G01*
X22120250Y-10878500D02*
X23420250Y-10878500D01*
X36834000Y-9528500D02*
X36834000Y-10828500D01*
X30642750Y-9528500D02*
X30642750Y-10828500D01*
X36884000Y-10878500D02*
X38184000Y-10878500D01*
X33074000Y-9478500D02*
X34374000Y-9478500D01*
X23470250Y-9528500D02*
X23470250Y-10828500D01*
X34424000Y-9528500D02*
X34424000Y-10828500D01*
X30137750Y-10828500D02*
G75*
G02*
X30087750Y-10878500I-50000J0D01*
G01*
X26832750Y-9528500D02*
G75*
G02*
X26882750Y-9478500I50000J0D01*
G01*
X28787750Y-10878500D02*
X30087750Y-10878500D01*
X28232750Y-10828500D02*
G75*
G02*
X28182750Y-10878500I-50000J0D01*
G01*
X22120250Y-10878500D02*
G75*
G02*
X22070250Y-10828500I0J50000D01*
G01*
X20215250Y-10878500D02*
G75*
G02*
X20165250Y-10828500I0J50000D01*
G01*
X22120250Y-9478500D02*
X23420250Y-9478500D01*
X23420250Y-9478500D02*
G75*
G02*
X23470250Y-9528500I0J-50000D01*
G01*
X31992750Y-9478500D02*
G75*
G02*
X32042750Y-9528500I0J-50000D01*
G01*
X30087750Y-9478500D02*
G75*
G02*
X30137750Y-9528500I0J-50000D01*
G01*
X24977750Y-9478500D02*
X26277750Y-9478500D01*
X28737750Y-9528500D02*
X28737750Y-10828500D01*
X26327750Y-9528500D02*
X26327750Y-10828500D01*
X30692750Y-10878500D02*
X31992750Y-10878500D01*
X28787750Y-10878500D02*
G75*
G02*
X28737750Y-10828500I0J50000D01*
G01*
X26882750Y-10878500D02*
G75*
G02*
X26832750Y-10828500I0J50000D01*
G01*
X28232750Y-9528500D02*
X28232750Y-10828500D01*
X23470250Y-10828500D02*
G75*
G02*
X23420250Y-10878500I-50000J0D01*
G01*
X26277750Y-9478500D02*
G75*
G02*
X26327750Y-9528500I0J-50000D01*
G01*
X22070250Y-9528500D02*
X22070250Y-10828500D01*
X22070250Y-9528500D02*
G75*
G02*
X22120250Y-9478500I50000J0D01*
G01*
X20165250Y-9528500D02*
G75*
G02*
X20215250Y-9478500I50000J0D01*
G01*
X24977750Y-10878500D02*
X26277750Y-10878500D01*
X21515250Y-9478500D02*
G75*
G02*
X21565250Y-9528500I0J-50000D01*
G01*
X36329000Y-10828500D02*
G75*
G02*
X36279000Y-10878500I-50000J0D01*
G01*
X28787750Y-9478500D02*
X30087750Y-9478500D01*
X26882750Y-9478500D02*
X28182750Y-9478500D01*
X36279000Y-9478500D02*
G75*
G02*
X36329000Y-9528500I0J-50000D01*
G01*
X14847750Y-9478500D02*
G75*
G02*
X14897750Y-9528500I0J-50000D01*
G01*
X9182750Y-9528500D02*
X9182750Y-10828500D01*
X4022750Y-10878500D02*
G75*
G02*
X3972750Y-10828500I0J50000D01*
G01*
X19660250Y-9528500D02*
X19660250Y-10828500D01*
X18310250Y-9478500D02*
X19610250Y-9478500D01*
X5372750Y-10828500D02*
G75*
G02*
X5322750Y-10878500I-50000J0D01*
G01*
X5322750Y-9478500D02*
G75*
G02*
X5372750Y-9528500I0J-50000D01*
G01*
X7782750Y-9528500D02*
G75*
G02*
X7832750Y-9478500I50000J0D01*
G01*
X9737750Y-9478500D02*
X11037750Y-9478500D01*
X11592750Y-9528500D02*
X11592750Y-10828500D01*
X14897750Y-10828500D02*
G75*
G02*
X14847750Y-10878500I-50000J0D01*
G01*
X21565250Y-9528500D02*
X21565250Y-10828500D01*
X7832750Y-10878500D02*
G75*
G02*
X7782750Y-10828500I0J50000D01*
G01*
X4022750Y-9478500D02*
X5322750Y-9478500D01*
X20165250Y-9528500D02*
X20165250Y-10828500D01*
X17755250Y-9528500D02*
X17755250Y-10828500D01*
X13497750Y-9528500D02*
X13497750Y-10828500D01*
X11087750Y-10828500D02*
G75*
G02*
X11037750Y-10878500I-50000J0D01*
G01*
X20215250Y-10878500D02*
X21515250Y-10878500D01*
X20215250Y-9478500D02*
X21515250Y-9478500D01*
X19660250Y-10828500D02*
G75*
G02*
X19610250Y-10878500I-50000J0D01*
G01*
X16405250Y-9478500D02*
X17705250Y-9478500D01*
X9737750Y-10878500D02*
X11037750Y-10878500D01*
X9132750Y-9478500D02*
G75*
G02*
X9182750Y-9528500I0J-50000D01*
G01*
X7832750Y-9478500D02*
X9132750Y-9478500D01*
X7782750Y-9528500D02*
X7782750Y-10828500D01*
X16355250Y-9528500D02*
G75*
G02*
X16405250Y-9478500I50000J0D01*
G01*
X16405250Y-10878500D02*
X17705250Y-10878500D01*
X13547750Y-10878500D02*
G75*
G02*
X13497750Y-10828500I0J50000D01*
G01*
X11037750Y-9478500D02*
G75*
G02*
X11087750Y-9528500I0J-50000D01*
G01*
X19610250Y-9478500D02*
G75*
G02*
X19660250Y-9528500I0J-50000D01*
G01*
X13497750Y-9528500D02*
G75*
G02*
X13547750Y-9478500I50000J0D01*
G01*
X18260250Y-9528500D02*
X18260250Y-10828500D01*
X14897750Y-9528500D02*
X14897750Y-10828500D01*
X18310250Y-10878500D02*
X19610250Y-10878500D01*
X12992750Y-10828500D02*
G75*
G02*
X12942750Y-10878500I-50000J0D01*
G01*
X16405250Y-10878500D02*
G75*
G02*
X16355250Y-10828500I0J50000D01*
G01*
X11087750Y-9528500D02*
X11087750Y-10828500D01*
X9182750Y-10828500D02*
G75*
G02*
X9132750Y-10878500I-50000J0D01*
G01*
X17705250Y-9478500D02*
G75*
G02*
X17755250Y-9528500I0J-50000D01*
G01*
X13547750Y-10878500D02*
X14847750Y-10878500D01*
X7832750Y-10878500D02*
X9132750Y-10878500D01*
X13547750Y-9478500D02*
X14847750Y-9478500D01*
X12992750Y-9528500D02*
X12992750Y-10828500D01*
X11642750Y-10878500D02*
X12942750Y-10878500D01*
X3972750Y-9528500D02*
G75*
G02*
X4022750Y-9478500I50000J0D01*
G01*
X4022750Y-10878500D02*
X5322750Y-10878500D01*
X11642750Y-10878500D02*
G75*
G02*
X11592750Y-10828500I0J50000D01*
G01*
X11592750Y-9528500D02*
G75*
G02*
X11642750Y-9478500I50000J0D01*
G01*
X11642750Y-9478500D02*
X12942750Y-9478500D01*
X9687750Y-9528500D02*
X9687750Y-10828500D01*
X12942750Y-9478500D02*
G75*
G02*
X12992750Y-9528500I0J-50000D01*
G01*
X9687750Y-9528500D02*
G75*
G02*
X9737750Y-9478500I50000J0D01*
G01*
X3972750Y-9528500D02*
X3972750Y-10828500D01*
X18310250Y-10878500D02*
G75*
G02*
X18260250Y-10828500I0J50000D01*
G01*
X18260250Y-9528500D02*
G75*
G02*
X18310250Y-9478500I50000J0D01*
G01*
X17755250Y-10828500D02*
G75*
G02*
X17705250Y-10878500I-50000J0D01*
G01*
X5372750Y-9528500D02*
X5372750Y-10828500D01*
X9737750Y-10878500D02*
G75*
G02*
X9687750Y-10828500I0J50000D01*
G01*
X16355250Y-9528500D02*
X16355250Y-10828500D01*
X14371500Y-16146000D02*
G75*
G02*
X14421500Y-16196000I0J-50000D01*
G01*
X6037125Y-16146000D02*
G75*
G02*
X6087125Y-16196000I0J-50000D01*
G01*
X13071500Y-16146000D02*
X14371500Y-16146000D01*
X13071500Y-17546000D02*
X14371500Y-17546000D01*
X12516500Y-17496000D02*
G75*
G02*
X12466500Y-17546000I-50000J0D01*
G01*
X11166500Y-16146000D02*
X12466500Y-16146000D01*
X4737125Y-16146000D02*
X6037125Y-16146000D01*
X9211500Y-16196000D02*
G75*
G02*
X9261500Y-16146000I50000J0D01*
G01*
X13071500Y-17546000D02*
G75*
G02*
X13021500Y-17496000I0J50000D01*
G01*
X14926500Y-16196000D02*
X14926500Y-17496000D01*
X11166500Y-17546000D02*
X12466500Y-17546000D01*
X16831500Y-16196000D02*
G75*
G02*
X16881500Y-16146000I50000J0D01*
G01*
X4737125Y-17546000D02*
G75*
G02*
X4687125Y-17496000I0J50000D01*
G01*
X18736500Y-16196000D02*
G75*
G02*
X18786500Y-16146000I50000J0D01*
G01*
X14976500Y-16146000D02*
X16276500Y-16146000D01*
X11116500Y-16196000D02*
X11116500Y-17496000D01*
X16881500Y-17546000D02*
X18181500Y-17546000D01*
X9261500Y-16146000D02*
X10561500Y-16146000D01*
X38234000Y-15591000D02*
G75*
G02*
X38184000Y-15641000I-50000J0D01*
G01*
X9261500Y-17546000D02*
G75*
G02*
X9211500Y-17496000I0J50000D01*
G01*
X7356500Y-16146000D02*
X8656500Y-16146000D01*
X10611500Y-16196000D02*
X10611500Y-17496000D01*
X10561500Y-16146000D02*
G75*
G02*
X10611500Y-16196000I0J-50000D01*
G01*
X20136500Y-16196000D02*
X20136500Y-17496000D01*
X16326500Y-16196000D02*
X16326500Y-17496000D01*
X7306500Y-16196000D02*
G75*
G02*
X7356500Y-16146000I50000J0D01*
G01*
X14421500Y-17496000D02*
G75*
G02*
X14371500Y-17546000I-50000J0D01*
G01*
X13021500Y-16196000D02*
X13021500Y-17496000D01*
X13021500Y-16196000D02*
G75*
G02*
X13071500Y-16146000I50000J0D01*
G01*
X7306500Y-16196000D02*
X7306500Y-17496000D01*
X16326500Y-17496000D02*
G75*
G02*
X16276500Y-17546000I-50000J0D01*
G01*
X8656500Y-16146000D02*
G75*
G02*
X8706500Y-16196000I0J-50000D01*
G01*
X6087125Y-17496000D02*
G75*
G02*
X6037125Y-17546000I-50000J0D01*
G01*
X18736500Y-16196000D02*
X18736500Y-17496000D01*
X18786500Y-17546000D02*
X20086500Y-17546000D01*
X18786500Y-16146000D02*
X20086500Y-16146000D01*
X18231500Y-17496000D02*
G75*
G02*
X18181500Y-17546000I-50000J0D01*
G01*
X7356500Y-17546000D02*
X8656500Y-17546000D01*
X16276500Y-16146000D02*
G75*
G02*
X16326500Y-16196000I0J-50000D01*
G01*
X9211500Y-16196000D02*
X9211500Y-17496000D01*
X4687125Y-16196000D02*
G75*
G02*
X4737125Y-16146000I50000J0D01*
G01*
X14976500Y-17546000D02*
X16276500Y-17546000D01*
X16881500Y-17546000D02*
G75*
G02*
X16831500Y-17496000I0J50000D01*
G01*
X18181500Y-16146000D02*
G75*
G02*
X18231500Y-16196000I0J-50000D01*
G01*
X14421500Y-16196000D02*
X14421500Y-17496000D01*
X18231500Y-16196000D02*
X18231500Y-17496000D01*
X6087125Y-16196000D02*
X6087125Y-17496000D01*
X16831500Y-16196000D02*
X16831500Y-17496000D01*
X11166500Y-17546000D02*
G75*
G02*
X11116500Y-17496000I0J50000D01*
G01*
X12516500Y-16196000D02*
X12516500Y-17496000D01*
X10611500Y-17496000D02*
G75*
G02*
X10561500Y-17546000I-50000J0D01*
G01*
X4687125Y-16196000D02*
X4687125Y-17496000D01*
X14976500Y-17546000D02*
G75*
G02*
X14926500Y-17496000I0J50000D01*
G01*
X14926500Y-16196000D02*
G75*
G02*
X14976500Y-16146000I50000J0D01*
G01*
X9261500Y-17546000D02*
X10561500Y-17546000D01*
X8706500Y-17496000D02*
G75*
G02*
X8656500Y-17546000I-50000J0D01*
G01*
X8706500Y-16196000D02*
X8706500Y-17496000D01*
X11116500Y-16196000D02*
G75*
G02*
X11166500Y-16146000I50000J0D01*
G01*
X7356500Y-17546000D02*
G75*
G02*
X7306500Y-17496000I0J50000D01*
G01*
X4737125Y-17546000D02*
X6037125Y-17546000D01*
X18786500Y-17546000D02*
G75*
G02*
X18736500Y-17496000I0J50000D01*
G01*
X12466500Y-16146000D02*
G75*
G02*
X12516500Y-16196000I0J-50000D01*
G01*
X16881500Y-16146000D02*
X18181500Y-16146000D01*
X20086500Y-16146000D02*
G75*
G02*
X20136500Y-16196000I0J-50000D01*
G01*
X36329000Y-20006000D02*
X36329000Y-21306000D01*
X36834000Y-20006000D02*
G75*
G02*
X36884000Y-19956000I50000J0D01*
G01*
X36279000Y-19956000D02*
G75*
G02*
X36329000Y-20006000I0J-50000D01*
G01*
X34424000Y-21306000D02*
G75*
G02*
X34374000Y-21356000I-50000J0D01*
G01*
X34979000Y-19956000D02*
X36279000Y-19956000D01*
X36884000Y-21356000D02*
G75*
G02*
X36834000Y-21306000I0J50000D01*
G01*
X36884000Y-21356000D02*
X38184000Y-21356000D01*
X36884000Y-19956000D02*
X38184000Y-19956000D01*
X38184000Y-19956000D02*
G75*
G02*
X38234000Y-20006000I0J-50000D01*
G01*
X38234000Y-20006000D02*
X38234000Y-21306000D01*
X34929000Y-20006000D02*
G75*
G02*
X34979000Y-19956000I50000J0D01*
G01*
X38234000Y-21306000D02*
G75*
G02*
X38184000Y-21356000I-50000J0D01*
G01*
X36329000Y-21306000D02*
G75*
G02*
X36279000Y-21356000I-50000J0D01*
G01*
X34979000Y-21356000D02*
G75*
G02*
X34929000Y-21306000I0J50000D01*
G01*
X34979000Y-21356000D02*
X36279000Y-21356000D01*
X34929000Y-20006000D02*
X34929000Y-21306000D01*
X36834000Y-20006000D02*
X36834000Y-21306000D01*
X23260875Y-20006000D02*
G75*
G02*
X23310875Y-19956000I50000J0D01*
G01*
X23310875Y-19956000D02*
X24610875Y-19956000D01*
X24610875Y-19956000D02*
G75*
G02*
X24660875Y-20006000I0J-50000D01*
G01*
X12172125Y-19850000D02*
X12172125Y-21250000D01*
X30454625Y-19956000D02*
X31754625Y-19956000D01*
X34374000Y-19956000D02*
G75*
G02*
X34424000Y-20006000I0J-50000D01*
G01*
X34424000Y-20006000D02*
X34424000Y-21306000D01*
X33024000Y-20006000D02*
X33024000Y-21306000D01*
X33074000Y-21356000D02*
X34374000Y-21356000D01*
X33074000Y-19956000D02*
X34374000Y-19956000D01*
X28073375Y-21356000D02*
X29373375Y-21356000D01*
X25642125Y-20006000D02*
G75*
G02*
X25692125Y-19956000I50000J0D01*
G01*
X25642125Y-20006000D02*
X25642125Y-21306000D01*
X12122125Y-19800000D02*
G75*
G02*
X12172125Y-19850000I0J-50000D01*
G01*
X22165125Y-21250000D02*
G75*
G02*
X22115125Y-21300000I-50000J0D01*
G01*
X17517125Y-21306000D02*
G75*
G02*
X17467125Y-21356000I-50000J0D01*
G01*
X23310875Y-21356000D02*
X24610875Y-21356000D01*
X24660875Y-21306000D02*
G75*
G02*
X24610875Y-21356000I-50000J0D01*
G01*
X11522125Y-21300000D02*
G75*
G02*
X11472125Y-21250000I0J50000D01*
G01*
X11472125Y-19850000D02*
X11472125Y-21250000D01*
X23260875Y-20006000D02*
X23260875Y-21306000D01*
X24660875Y-20006000D02*
X24660875Y-21306000D01*
X25692125Y-19956000D02*
X26992125Y-19956000D01*
X21465125Y-19850000D02*
G75*
G02*
X21515125Y-19800000I50000J0D01*
G01*
X23310875Y-21356000D02*
G75*
G02*
X23260875Y-21306000I0J50000D01*
G01*
X11522125Y-19800000D02*
X12122125Y-19800000D01*
X16167125Y-21356000D02*
X17467125Y-21356000D01*
X21515125Y-19800000D02*
X22115125Y-19800000D01*
X30454625Y-21356000D02*
G75*
G02*
X30404625Y-21306000I0J50000D01*
G01*
X31804625Y-20006000D02*
X31804625Y-21306000D01*
X28023375Y-20006000D02*
X28023375Y-21306000D01*
X21515125Y-21300000D02*
G75*
G02*
X21465125Y-21250000I0J50000D01*
G01*
X26992125Y-19956000D02*
G75*
G02*
X27042125Y-20006000I0J-50000D01*
G01*
X11472125Y-19850000D02*
G75*
G02*
X11522125Y-19800000I50000J0D01*
G01*
X29373375Y-19956000D02*
G75*
G02*
X29423375Y-20006000I0J-50000D01*
G01*
X28073375Y-19956000D02*
X29373375Y-19956000D01*
X27042125Y-21306000D02*
G75*
G02*
X26992125Y-21356000I-50000J0D01*
G01*
X16167125Y-19956000D02*
X17467125Y-19956000D01*
X12172125Y-21250000D02*
G75*
G02*
X12122125Y-21300000I-50000J0D01*
G01*
X17467125Y-19956000D02*
G75*
G02*
X17517125Y-20006000I0J-50000D01*
G01*
X22165125Y-19850000D02*
X22165125Y-21250000D01*
X28023375Y-20006000D02*
G75*
G02*
X28073375Y-19956000I50000J0D01*
G01*
X17517125Y-20006000D02*
X17517125Y-21306000D01*
X33074000Y-21356000D02*
G75*
G02*
X33024000Y-21306000I0J50000D01*
G01*
X33024000Y-20006000D02*
G75*
G02*
X33074000Y-19956000I50000J0D01*
G01*
X30404625Y-20006000D02*
G75*
G02*
X30454625Y-19956000I50000J0D01*
G01*
X21515125Y-21300000D02*
X22115125Y-21300000D01*
X16167125Y-21356000D02*
G75*
G02*
X16117125Y-21306000I0J50000D01*
G01*
X30404625Y-20006000D02*
X30404625Y-21306000D01*
X31804625Y-21306000D02*
G75*
G02*
X31754625Y-21356000I-50000J0D01*
G01*
X31754625Y-19956000D02*
G75*
G02*
X31804625Y-20006000I0J-50000D01*
G01*
X11522125Y-21300000D02*
X12122125Y-21300000D01*
X16117125Y-20006000D02*
X16117125Y-21306000D01*
X22115125Y-19800000D02*
G75*
G02*
X22165125Y-19850000I0J-50000D01*
G01*
X30454625Y-21356000D02*
X31754625Y-21356000D01*
X10373375Y-21306000D02*
G75*
G02*
X10323375Y-21356000I-50000J0D01*
G01*
X21465125Y-19850000D02*
X21465125Y-21250000D01*
X25692125Y-21356000D02*
G75*
G02*
X25642125Y-21306000I0J50000D01*
G01*
X29423375Y-21306000D02*
G75*
G02*
X29373375Y-21356000I-50000J0D01*
G01*
X28073375Y-21356000D02*
G75*
G02*
X28023375Y-21306000I0J50000D01*
G01*
X29423375Y-20006000D02*
X29423375Y-21306000D01*
X16117125Y-20006000D02*
G75*
G02*
X16167125Y-19956000I50000J0D01*
G01*
X27042125Y-20006000D02*
X27042125Y-21306000D01*
X25692125Y-21356000D02*
X26992125Y-21356000D01*
X29025875Y-19451000D02*
G75*
G02*
X28975875Y-19401000I0J50000D01*
G01*
X28132075Y-18201000D02*
X28132075Y-19601000D01*
X29025875Y-19451000D02*
X30325875Y-19451000D01*
X10373375Y-20006000D02*
X10373375Y-21306000D01*
X8973375Y-20006000D02*
X8973375Y-21306000D01*
X31219675Y-19601000D02*
G75*
G02*
X31169675Y-19651000I-50000J0D01*
G01*
X9023375Y-21356000D02*
X10323375Y-21356000D01*
X9023375Y-19956000D02*
X10323375Y-19956000D01*
X6642125Y-21356000D02*
G75*
G02*
X6592125Y-21306000I0J50000D01*
G01*
X4260875Y-21356000D02*
G75*
G02*
X4210875Y-21306000I0J50000D01*
G01*
X28182075Y-18151000D02*
X28782075Y-18151000D01*
X30519675Y-18201000D02*
G75*
G02*
X30569675Y-18151000I50000J0D01*
G01*
X30375875Y-18101000D02*
X30375875Y-19401000D01*
X7992125Y-21306000D02*
G75*
G02*
X7942125Y-21356000I-50000J0D01*
G01*
X6592125Y-20006000D02*
X6592125Y-21306000D01*
X6642125Y-19956000D02*
X7942125Y-19956000D01*
X36329000Y-19401000D02*
G75*
G02*
X36279000Y-19451000I-50000J0D01*
G01*
X30375875Y-19401000D02*
G75*
G02*
X30325875Y-19451000I-50000J0D01*
G01*
X25404000Y-18101000D02*
G75*
G02*
X25454000Y-18051000I50000J0D01*
G01*
X36279000Y-18051000D02*
G75*
G02*
X36329000Y-18101000I0J-50000D01*
G01*
X36329000Y-18101000D02*
X36329000Y-19401000D01*
X28832075Y-19601000D02*
G75*
G02*
X28782075Y-19651000I-50000J0D01*
G01*
X28782075Y-18151000D02*
G75*
G02*
X28832075Y-18201000I0J-50000D01*
G01*
X28132075Y-18201000D02*
G75*
G02*
X28182075Y-18151000I50000J0D01*
G01*
X28975875Y-18101000D02*
G75*
G02*
X29025875Y-18051000I50000J0D01*
G01*
X25454000Y-19451000D02*
G75*
G02*
X25404000Y-19401000I0J50000D01*
G01*
X28832075Y-18201000D02*
X28832075Y-19601000D01*
X25454000Y-19451000D02*
X26754000Y-19451000D01*
X30569675Y-18151000D02*
X31169675Y-18151000D01*
X25454000Y-18051000D02*
X26754000Y-18051000D01*
X30325875Y-18051000D02*
G75*
G02*
X30375875Y-18101000I0J-50000D01*
G01*
X28975875Y-18101000D02*
X28975875Y-19401000D01*
X26754000Y-18051000D02*
G75*
G02*
X26804000Y-18101000I0J-50000D01*
G01*
X26804000Y-18101000D02*
X26804000Y-19401000D01*
X29025875Y-18051000D02*
X30325875Y-18051000D01*
X30569675Y-19651000D02*
G75*
G02*
X30519675Y-19601000I0J50000D01*
G01*
X26804000Y-19401000D02*
G75*
G02*
X26754000Y-19451000I-50000J0D01*
G01*
X6592125Y-20006000D02*
G75*
G02*
X6642125Y-19956000I50000J0D01*
G01*
X5610875Y-21306000D02*
G75*
G02*
X5560875Y-21356000I-50000J0D01*
G01*
X31169675Y-18151000D02*
G75*
G02*
X31219675Y-18201000I0J-50000D01*
G01*
X4210875Y-20006000D02*
X4210875Y-21306000D01*
X34929000Y-18101000D02*
X34929000Y-19401000D01*
X34929000Y-18101000D02*
G75*
G02*
X34979000Y-18051000I50000J0D01*
G01*
X4260875Y-21356000D02*
X5560875Y-21356000D01*
X24899000Y-19401000D02*
G75*
G02*
X24849000Y-19451000I-50000J0D01*
G01*
X4210875Y-20006000D02*
G75*
G02*
X4260875Y-19956000I50000J0D01*
G01*
X28182075Y-19651000D02*
G75*
G02*
X28132075Y-19601000I0J50000D01*
G01*
X28182075Y-19651000D02*
X28782075Y-19651000D01*
X30519675Y-18201000D02*
X30519675Y-19601000D01*
X30569675Y-19651000D02*
X31169675Y-19651000D01*
X34979000Y-18051000D02*
X36279000Y-18051000D01*
X7992125Y-20006000D02*
X7992125Y-21306000D01*
X6642125Y-21356000D02*
X7942125Y-21356000D01*
X5610875Y-20006000D02*
X5610875Y-21306000D01*
X25404000Y-18101000D02*
X25404000Y-19401000D01*
X34979000Y-19451000D02*
G75*
G02*
X34929000Y-19401000I0J50000D01*
G01*
X4260875Y-19956000D02*
X5560875Y-19956000D01*
X7942125Y-19956000D02*
G75*
G02*
X7992125Y-20006000I0J-50000D01*
G01*
X5560875Y-19956000D02*
G75*
G02*
X5610875Y-20006000I0J-50000D01*
G01*
X9023375Y-21356000D02*
G75*
G02*
X8973375Y-21306000I0J50000D01*
G01*
X31219675Y-18201000D02*
X31219675Y-19601000D01*
X10323375Y-19956000D02*
G75*
G02*
X10373375Y-20006000I0J-50000D01*
G01*
X8973375Y-20006000D02*
G75*
G02*
X9023375Y-19956000I50000J0D01*
G01*
X34979000Y-19451000D02*
X36279000Y-19451000D01*
X13974000Y-18101000D02*
G75*
G02*
X14024000Y-18051000I50000J0D01*
G01*
X14024000Y-18051000D02*
X15324000Y-18051000D01*
X15324000Y-18051000D02*
G75*
G02*
X15374000Y-18101000I0J-50000D01*
G01*
X13469000Y-18101000D02*
X13469000Y-19401000D01*
X19739000Y-18051000D02*
X21039000Y-18051000D01*
X23499000Y-18101000D02*
G75*
G02*
X23549000Y-18051000I50000J0D01*
G01*
X23549000Y-18051000D02*
X24849000Y-18051000D01*
X22994000Y-19401000D02*
G75*
G02*
X22944000Y-19451000I-50000J0D01*
G01*
X22944000Y-18051000D02*
G75*
G02*
X22994000Y-18101000I0J-50000D01*
G01*
X21644000Y-19451000D02*
X22944000Y-19451000D01*
X21644000Y-18051000D02*
X22944000Y-18051000D01*
X17834000Y-19451000D02*
X19134000Y-19451000D01*
X15879000Y-18101000D02*
G75*
G02*
X15929000Y-18051000I50000J0D01*
G01*
X13419000Y-18051000D02*
G75*
G02*
X13469000Y-18101000I0J-50000D01*
G01*
X11564000Y-19401000D02*
G75*
G02*
X11514000Y-19451000I-50000J0D01*
G01*
X9659000Y-19401000D02*
G75*
G02*
X9609000Y-19451000I-50000J0D01*
G01*
X14024000Y-19451000D02*
X15324000Y-19451000D01*
X15374000Y-19401000D02*
G75*
G02*
X15324000Y-19451000I-50000J0D01*
G01*
X12119000Y-19451000D02*
G75*
G02*
X12069000Y-19401000I0J50000D01*
G01*
X12069000Y-18101000D02*
X12069000Y-19401000D01*
X13974000Y-18101000D02*
X13974000Y-19401000D01*
X15374000Y-18101000D02*
X15374000Y-19401000D01*
X15879000Y-18101000D02*
X15879000Y-19401000D01*
X10164000Y-18101000D02*
G75*
G02*
X10214000Y-18051000I50000J0D01*
G01*
X14024000Y-19451000D02*
G75*
G02*
X13974000Y-19401000I0J50000D01*
G01*
X15929000Y-18051000D02*
X17229000Y-18051000D01*
X12119000Y-18051000D02*
X13419000Y-18051000D01*
X10214000Y-18051000D02*
X11514000Y-18051000D01*
X21594000Y-18101000D02*
X21594000Y-19401000D01*
X19739000Y-19451000D02*
G75*
G02*
X19689000Y-19401000I0J50000D01*
G01*
X17784000Y-18101000D02*
X17784000Y-19401000D01*
X10214000Y-19451000D02*
G75*
G02*
X10164000Y-19401000I0J50000D01*
G01*
X17229000Y-18051000D02*
G75*
G02*
X17279000Y-18101000I0J-50000D01*
G01*
X12069000Y-18101000D02*
G75*
G02*
X12119000Y-18051000I50000J0D01*
G01*
X19134000Y-18051000D02*
G75*
G02*
X19184000Y-18101000I0J-50000D01*
G01*
X22994000Y-18101000D02*
X22994000Y-19401000D01*
X23549000Y-19451000D02*
G75*
G02*
X23499000Y-19401000I0J50000D01*
G01*
X17834000Y-18051000D02*
X19134000Y-18051000D01*
X17279000Y-19401000D02*
G75*
G02*
X17229000Y-19451000I-50000J0D01*
G01*
X13469000Y-19401000D02*
G75*
G02*
X13419000Y-19451000I-50000J0D01*
G01*
X11564000Y-18101000D02*
X11564000Y-19401000D01*
X17784000Y-18101000D02*
G75*
G02*
X17834000Y-18051000I50000J0D01*
G01*
X21089000Y-18101000D02*
X21089000Y-19401000D01*
X24849000Y-18051000D02*
G75*
G02*
X24899000Y-18101000I0J-50000D01*
G01*
X23549000Y-19451000D02*
X24849000Y-19451000D01*
X23499000Y-18101000D02*
X23499000Y-19401000D01*
X19689000Y-18101000D02*
G75*
G02*
X19739000Y-18051000I50000J0D01*
G01*
X10214000Y-19451000D02*
X11514000Y-19451000D01*
X19689000Y-18101000D02*
X19689000Y-19401000D01*
X21594000Y-18101000D02*
G75*
G02*
X21644000Y-18051000I50000J0D01*
G01*
X24899000Y-18101000D02*
X24899000Y-19401000D01*
X21644000Y-19451000D02*
G75*
G02*
X21594000Y-19401000I0J50000D01*
G01*
X12119000Y-19451000D02*
X13419000Y-19451000D01*
X11514000Y-18051000D02*
G75*
G02*
X11564000Y-18101000I0J-50000D01*
G01*
X21089000Y-19401000D02*
G75*
G02*
X21039000Y-19451000I-50000J0D01*
G01*
X21039000Y-18051000D02*
G75*
G02*
X21089000Y-18101000I0J-50000D01*
G01*
X10164000Y-18101000D02*
X10164000Y-19401000D01*
X15929000Y-19451000D02*
G75*
G02*
X15879000Y-19401000I0J50000D01*
G01*
X19739000Y-19451000D02*
X21039000Y-19451000D01*
X19184000Y-19401000D02*
G75*
G02*
X19134000Y-19451000I-50000J0D01*
G01*
X17834000Y-19451000D02*
G75*
G02*
X17784000Y-19401000I0J50000D01*
G01*
X19184000Y-18101000D02*
X19184000Y-19401000D01*
X17279000Y-18101000D02*
X17279000Y-19401000D01*
X15929000Y-19451000D02*
X17229000Y-19451000D01*
X20641500Y-16196000D02*
X20641500Y-17496000D01*
X9659000Y-18101000D02*
X9659000Y-19401000D01*
X4210875Y-18101000D02*
G75*
G02*
X4260875Y-18051000I50000J0D01*
G01*
X8259000Y-18101000D02*
X8259000Y-19401000D01*
X8309000Y-19451000D02*
X9609000Y-19451000D01*
X8309000Y-18051000D02*
X9609000Y-18051000D01*
X7704000Y-18051000D02*
G75*
G02*
X7754000Y-18101000I0J-50000D01*
G01*
X24501500Y-17546000D02*
G75*
G02*
X24451500Y-17496000I0J50000D01*
G01*
X23946500Y-17496000D02*
G75*
G02*
X23896500Y-17546000I-50000J0D01*
G01*
X4260875Y-19451000D02*
G75*
G02*
X4210875Y-19401000I0J50000D01*
G01*
X25851500Y-17496000D02*
G75*
G02*
X25801500Y-17546000I-50000J0D01*
G01*
X25851500Y-16196000D02*
X25851500Y-17496000D01*
X28311500Y-16146000D02*
X30354750Y-16145978D01*
X24501500Y-17546000D02*
X25801500Y-17546000D01*
X7754000Y-19401000D02*
G75*
G02*
X7704000Y-19451000I-50000J0D01*
G01*
X20641500Y-16196000D02*
G75*
G02*
X20691500Y-16146000I50000J0D01*
G01*
X7754000Y-18101000D02*
X7754000Y-19401000D01*
X20691500Y-16146000D02*
X21991500Y-16146000D01*
X26356500Y-16196000D02*
X26356500Y-17496000D01*
X28311500Y-17546000D02*
X28559732Y-17546102D01*
X24451500Y-16196000D02*
G75*
G02*
X24501500Y-16146000I50000J0D01*
G01*
X20691500Y-17546000D02*
G75*
G02*
X20641500Y-17496000I0J50000D01*
G01*
X4210875Y-18101000D02*
X4210875Y-19401000D01*
X22596500Y-16146000D02*
X23896500Y-16146000D01*
X28311500Y-17546000D02*
G75*
G02*
X28261500Y-17496000I0J50000D01*
G01*
X28261500Y-16196000D02*
G75*
G02*
X28311500Y-16146000I50000J0D01*
G01*
X26406500Y-17546000D02*
X27706500Y-17546000D01*
X26406500Y-17546000D02*
G75*
G02*
X26356500Y-17496000I0J50000D01*
G01*
X26356500Y-16196000D02*
G75*
G02*
X26406500Y-16146000I50000J0D01*
G01*
X23946500Y-16196000D02*
X23946500Y-17496000D01*
X22041500Y-16196000D02*
X22041500Y-17496000D01*
X21991500Y-16146000D02*
G75*
G02*
X22041500Y-16196000I0J-50000D01*
G01*
X22546500Y-16196000D02*
X22546500Y-17496000D01*
X28261500Y-16196000D02*
X28261500Y-17496000D01*
X27756500Y-17496000D02*
G75*
G02*
X27706500Y-17546000I-50000J0D01*
G01*
X23896500Y-16146000D02*
G75*
G02*
X23946500Y-16196000I0J-50000D01*
G01*
X24501500Y-16146000D02*
X25801500Y-16146000D01*
X20136500Y-17496000D02*
G75*
G02*
X20086500Y-17546000I-50000J0D01*
G01*
X20691500Y-17546000D02*
X21991500Y-17546000D01*
X27756500Y-16196000D02*
X27756500Y-17496000D01*
X26406500Y-16146000D02*
X27706500Y-16146000D01*
X22546500Y-16196000D02*
G75*
G02*
X22596500Y-16146000I50000J0D01*
G01*
X24451500Y-16196000D02*
X24451500Y-17496000D01*
X22041500Y-17496000D02*
G75*
G02*
X21991500Y-17546000I-50000J0D01*
G01*
X22596500Y-17546000D02*
X23896500Y-17546000D01*
X8309000Y-19451000D02*
G75*
G02*
X8259000Y-19401000I0J50000D01*
G01*
X22596500Y-17546000D02*
G75*
G02*
X22546500Y-17496000I0J50000D01*
G01*
X8259000Y-18101000D02*
G75*
G02*
X8309000Y-18051000I50000J0D01*
G01*
X27706500Y-16146000D02*
G75*
G02*
X27756500Y-16196000I0J-50000D01*
G01*
X25801500Y-16146000D02*
G75*
G02*
X25851500Y-16196000I0J-50000D01*
G01*
X9609000Y-18051000D02*
G75*
G02*
X9659000Y-18101000I0J-50000D01*
G01*
X38652500Y-5968500D02*
G75*
G02*
X38952500Y-6268500I0J-300000D01*
G01*
X3492500Y-6268500D02*
G75*
G02*
X3792500Y-5968500I300000J0D01*
G01*
X3792500Y-21578500D02*
G75*
G02*
X3492500Y-21278500I0J300000D01*
G01*
X38952500Y-21278500D02*
G75*
G02*
X38652500Y-21578500I-300000J0D01*
G01*
X3492500Y-21278500D02*
X3492500Y-6268500D01*
X38652500Y-21578500D02*
X3792500Y-21578500D01*
D11*
X3692500Y-21058500D02*
X4012500Y-21378500D01*
X4012500Y-21058500D02*
X3692500Y-21378500D01*
X3702500Y-6178500D02*
X4022500Y-6498500D01*
X4022500Y-6178500D02*
X3702500Y-6498500D01*
X4677500Y-11446000D02*
X4997500Y-11766000D01*
X4997500Y-11446000D02*
X4677500Y-11766000D01*
X20762500Y-20858500D02*
X21082500Y-21178500D01*
X21082500Y-20858500D02*
X20762500Y-21178500D01*
X21062500Y-11463500D02*
X21382500Y-11783500D01*
X21382500Y-11463500D02*
X21062500Y-11783500D01*
X37447500Y-11446000D02*
X37767500Y-11766000D01*
X37767500Y-11446000D02*
X37447500Y-11766000D01*
X38422500Y-6178500D02*
X38742500Y-6498500D01*
X38742500Y-6178500D02*
X38422500Y-6498500D01*
X38432500Y-21048500D02*
X38752500Y-21368500D01*
X38752500Y-21048500D02*
X38432500Y-21368500D01*
D12*
X3773928Y-22049214D02*
X3773928Y-21749214D01*
X3845357Y-21749214D01*
X3888214Y-21763500D01*
X3916786Y-21792072D01*
X3931071Y-21820643D01*
X3945357Y-21877786D01*
X3945357Y-21920643D01*
X3931071Y-21977786D01*
X3916786Y-22006357D01*
X3888214Y-22034929D01*
X3845357Y-22049214D01*
X3773928Y-22049214D01*
X4073928Y-22049214D02*
X4073928Y-21849214D01*
X4073928Y-21906357D02*
X4088214Y-21877786D01*
X4102500Y-21863500D01*
X4131071Y-21849214D01*
X4159643Y-21849214D01*
X4259643Y-22049214D02*
X4259643Y-21849214D01*
X4259643Y-21749214D02*
X4245357Y-21763500D01*
X4259643Y-21777786D01*
X4273928Y-21763500D01*
X4259643Y-21749214D01*
X4259643Y-21777786D01*
X4445357Y-22049214D02*
X4416786Y-22034929D01*
X4402500Y-22006357D01*
X4402500Y-21749214D01*
X4602500Y-22049214D02*
X4573928Y-22034929D01*
X4559643Y-22006357D01*
X4559643Y-21749214D01*
X4945357Y-22049214D02*
X4945357Y-21749214D01*
X5045357Y-21963500D01*
X5145357Y-21749214D01*
X5145357Y-22049214D01*
X5416786Y-22049214D02*
X5416786Y-21892072D01*
X5402500Y-21863500D01*
X5373928Y-21849214D01*
X5316786Y-21849214D01*
X5288214Y-21863500D01*
X5416786Y-22034929D02*
X5388214Y-22049214D01*
X5316786Y-22049214D01*
X5288214Y-22034929D01*
X5273928Y-22006357D01*
X5273928Y-21977786D01*
X5288214Y-21949214D01*
X5316786Y-21934929D01*
X5388214Y-21934929D01*
X5416786Y-21920643D01*
X5559643Y-21849214D02*
X5559643Y-22149214D01*
X5559643Y-21863500D02*
X5588214Y-21849214D01*
X5645357Y-21849214D01*
X5673928Y-21863500D01*
X5688214Y-21877786D01*
X5702500Y-21906357D01*
X5702500Y-21992072D01*
X5688214Y-22020643D01*
X5673928Y-22034929D01*
X5645357Y-22049214D01*
X5588214Y-22049214D01*
X5559643Y-22034929D01*
X5831071Y-22020643D02*
X5845357Y-22034929D01*
X5831071Y-22049214D01*
X5816786Y-22034929D01*
X5831071Y-22020643D01*
X5831071Y-22049214D01*
X5831071Y-21863500D02*
X5845357Y-21877786D01*
X5831071Y-21892072D01*
X5816786Y-21877786D01*
X5831071Y-21863500D01*
X5831071Y-21892072D01*
X3167500Y-22383500D02*
X3487500Y-22703500D01*
X3487500Y-22383500D02*
X3167500Y-22703500D01*
X3745357Y-22379214D02*
X3931071Y-22379214D01*
X3831071Y-22493500D01*
X3873928Y-22493500D01*
X3902500Y-22507786D01*
X3916786Y-22522071D01*
X3931071Y-22550643D01*
X3931071Y-22622071D01*
X3916786Y-22650643D01*
X3902500Y-22664929D01*
X3873928Y-22679214D01*
X3788214Y-22679214D01*
X3759643Y-22664929D01*
X3745357Y-22650643D01*
X4059643Y-22650643D02*
X4073928Y-22664929D01*
X4059643Y-22679214D01*
X4045357Y-22664929D01*
X4059643Y-22650643D01*
X4059643Y-22679214D01*
X4188214Y-22407786D02*
X4202500Y-22393500D01*
X4231071Y-22379214D01*
X4302500Y-22379214D01*
X4331071Y-22393500D01*
X4345357Y-22407786D01*
X4359643Y-22436357D01*
X4359643Y-22464929D01*
X4345357Y-22507786D01*
X4173928Y-22679214D01*
X4359643Y-22679214D01*
X4545357Y-22379214D02*
X4573928Y-22379214D01*
X4602500Y-22393500D01*
X4616786Y-22407786D01*
X4631071Y-22436357D01*
X4645357Y-22493500D01*
X4645357Y-22564929D01*
X4631071Y-22622071D01*
X4616786Y-22650643D01*
X4602500Y-22664929D01*
X4573928Y-22679214D01*
X4545357Y-22679214D01*
X4516786Y-22664929D01*
X4502500Y-22650643D01*
X4488214Y-22622071D01*
X4473928Y-22564929D01*
X4473928Y-22493500D01*
X4488214Y-22436357D01*
X4502500Y-22407786D01*
X4516786Y-22393500D01*
X4545357Y-22379214D01*
X4773928Y-22679214D02*
X4773928Y-22479214D01*
X4773928Y-22507786D02*
X4788214Y-22493500D01*
X4816786Y-22479214D01*
X4859643Y-22479214D01*
X4888214Y-22493500D01*
X4902500Y-22522071D01*
X4902500Y-22679214D01*
X4902500Y-22522071D02*
X4916786Y-22493500D01*
X4945357Y-22479214D01*
X4988214Y-22479214D01*
X5016786Y-22493500D01*
X5031071Y-22522071D01*
X5031071Y-22679214D01*
X5173928Y-22679214D02*
X5173928Y-22479214D01*
X5173928Y-22507786D02*
X5188214Y-22493500D01*
X5216786Y-22479214D01*
X5259643Y-22479214D01*
X5288214Y-22493500D01*
X5302500Y-22522071D01*
X5302500Y-22679214D01*
X5302500Y-22522071D02*
X5316786Y-22493500D01*
X5345357Y-22479214D01*
X5388214Y-22479214D01*
X5416786Y-22493500D01*
X5431071Y-22522071D01*
X5431071Y-22679214D01*
X6016786Y-22364929D02*
X5759643Y-22750643D01*
X6402500Y-22379214D02*
X6431071Y-22379214D01*
X6459643Y-22393500D01*
X6473928Y-22407786D01*
X6488214Y-22436357D01*
X6502500Y-22493500D01*
X6502500Y-22564929D01*
X6488214Y-22622071D01*
X6473928Y-22650643D01*
X6459643Y-22664929D01*
X6431071Y-22679214D01*
X6402500Y-22679214D01*
X6373928Y-22664929D01*
X6359643Y-22650643D01*
X6345357Y-22622071D01*
X6331071Y-22564929D01*
X6331071Y-22493500D01*
X6345357Y-22436357D01*
X6359643Y-22407786D01*
X6373928Y-22393500D01*
X6402500Y-22379214D01*
X6631071Y-22650643D02*
X6645357Y-22664929D01*
X6631071Y-22679214D01*
X6616786Y-22664929D01*
X6631071Y-22650643D01*
X6631071Y-22679214D01*
X6931071Y-22679214D02*
X6759643Y-22679214D01*
X6845357Y-22679214D02*
X6845357Y-22379214D01*
X6816786Y-22422071D01*
X6788214Y-22450643D01*
X6759643Y-22464929D01*
X7045357Y-22407786D02*
X7059643Y-22393500D01*
X7088214Y-22379214D01*
X7159643Y-22379214D01*
X7188214Y-22393500D01*
X7202500Y-22407786D01*
X7216786Y-22436357D01*
X7216786Y-22464929D01*
X7202500Y-22507786D01*
X7031071Y-22679214D01*
X7216786Y-22679214D01*
X7473928Y-22379214D02*
X7416786Y-22379214D01*
X7388214Y-22393500D01*
X7373928Y-22407786D01*
X7345357Y-22450643D01*
X7331071Y-22507786D01*
X7331071Y-22622071D01*
X7345357Y-22650643D01*
X7359643Y-22664929D01*
X7388214Y-22679214D01*
X7445357Y-22679214D01*
X7473928Y-22664929D01*
X7488214Y-22650643D01*
X7502500Y-22622071D01*
X7502500Y-22550643D01*
X7488214Y-22522071D01*
X7473928Y-22507786D01*
X7445357Y-22493500D01*
X7388214Y-22493500D01*
X7359643Y-22507786D01*
X7345357Y-22522071D01*
X7331071Y-22550643D01*
X7616786Y-22379214D02*
X7616786Y-22436357D01*
X7731071Y-22379214D02*
X7731071Y-22436357D01*
X8173928Y-22793500D02*
X8159643Y-22779214D01*
X8131071Y-22736357D01*
X8116786Y-22707786D01*
X8102500Y-22664929D01*
X8088214Y-22593500D01*
X8088214Y-22536357D01*
X8102500Y-22464929D01*
X8116786Y-22422071D01*
X8131071Y-22393500D01*
X8159643Y-22350643D01*
X8173928Y-22336357D01*
X8331071Y-22507786D02*
X8302500Y-22493500D01*
X8288214Y-22479214D01*
X8273928Y-22450643D01*
X8273928Y-22436357D01*
X8288214Y-22407786D01*
X8302500Y-22393500D01*
X8331071Y-22379214D01*
X8388214Y-22379214D01*
X8416786Y-22393500D01*
X8431071Y-22407786D01*
X8445357Y-22436357D01*
X8445357Y-22450643D01*
X8431071Y-22479214D01*
X8416786Y-22493500D01*
X8388214Y-22507786D01*
X8331071Y-22507786D01*
X8302500Y-22522071D01*
X8288214Y-22536357D01*
X8273928Y-22564929D01*
X8273928Y-22622071D01*
X8288214Y-22650643D01*
X8302500Y-22664929D01*
X8331071Y-22679214D01*
X8388214Y-22679214D01*
X8416786Y-22664929D01*
X8431071Y-22650643D01*
X8445357Y-22622071D01*
X8445357Y-22564929D01*
X8431071Y-22536357D01*
X8416786Y-22522071D01*
X8388214Y-22507786D01*
X8802500Y-22679214D02*
X8802500Y-22379214D01*
X8931071Y-22679214D02*
X8931071Y-22522071D01*
X8916786Y-22493500D01*
X8888214Y-22479214D01*
X8845357Y-22479214D01*
X8816786Y-22493500D01*
X8802500Y-22507786D01*
X9116786Y-22679214D02*
X9088214Y-22664929D01*
X9073928Y-22650643D01*
X9059643Y-22622071D01*
X9059643Y-22536357D01*
X9073928Y-22507786D01*
X9088214Y-22493500D01*
X9116786Y-22479214D01*
X9159643Y-22479214D01*
X9188214Y-22493500D01*
X9202500Y-22507786D01*
X9216786Y-22536357D01*
X9216786Y-22622071D01*
X9202500Y-22650643D01*
X9188214Y-22664929D01*
X9159643Y-22679214D01*
X9116786Y-22679214D01*
X9388214Y-22679214D02*
X9359643Y-22664929D01*
X9345357Y-22636357D01*
X9345357Y-22379214D01*
X9616786Y-22664929D02*
X9588214Y-22679214D01*
X9531071Y-22679214D01*
X9502500Y-22664929D01*
X9488214Y-22636357D01*
X9488214Y-22522071D01*
X9502500Y-22493500D01*
X9531071Y-22479214D01*
X9588214Y-22479214D01*
X9616786Y-22493500D01*
X9631071Y-22522071D01*
X9631071Y-22550643D01*
X9488214Y-22579214D01*
X9745357Y-22664929D02*
X9773928Y-22679214D01*
X9831071Y-22679214D01*
X9859643Y-22664929D01*
X9873928Y-22636357D01*
X9873928Y-22622071D01*
X9859643Y-22593500D01*
X9831071Y-22579214D01*
X9788214Y-22579214D01*
X9759643Y-22564929D01*
X9745357Y-22536357D01*
X9745357Y-22522071D01*
X9759643Y-22493500D01*
X9788214Y-22479214D01*
X9831071Y-22479214D01*
X9859643Y-22493500D01*
X9973928Y-22793500D02*
X9988214Y-22779214D01*
X10016786Y-22736357D01*
X10031071Y-22707786D01*
X10045357Y-22664929D01*
X10059643Y-22593500D01*
X10059643Y-22536357D01*
X10045357Y-22464929D01*
X10031071Y-22422071D01*
X10016786Y-22393500D01*
X9988214Y-22350643D01*
X9973928Y-22336357D01*
X10516786Y-22793500D02*
X10502500Y-22779214D01*
X10473928Y-22736357D01*
X10459643Y-22707786D01*
X10445357Y-22664929D01*
X10431071Y-22593500D01*
X10431071Y-22536357D01*
X10445357Y-22464929D01*
X10459643Y-22422071D01*
X10473928Y-22393500D01*
X10502500Y-22350643D01*
X10516786Y-22336357D01*
X10631071Y-22479214D02*
X10631071Y-22679214D01*
X10631071Y-22507786D02*
X10645357Y-22493500D01*
X10673928Y-22479214D01*
X10716786Y-22479214D01*
X10745357Y-22493500D01*
X10759643Y-22522071D01*
X10759643Y-22679214D01*
X10945357Y-22679214D02*
X10916786Y-22664929D01*
X10902500Y-22650643D01*
X10888214Y-22622071D01*
X10888214Y-22536357D01*
X10902500Y-22507786D01*
X10916786Y-22493500D01*
X10945357Y-22479214D01*
X10988214Y-22479214D01*
X11016786Y-22493500D01*
X11031071Y-22507786D01*
X11045357Y-22536357D01*
X11045357Y-22622071D01*
X11031071Y-22650643D01*
X11016786Y-22664929D01*
X10988214Y-22679214D01*
X10945357Y-22679214D01*
X11131071Y-22479214D02*
X11245357Y-22479214D01*
X11173928Y-22379214D02*
X11173928Y-22636357D01*
X11188214Y-22664929D01*
X11216786Y-22679214D01*
X11245357Y-22679214D01*
X11573928Y-22479214D02*
X11573928Y-22779214D01*
X11573928Y-22493500D02*
X11602500Y-22479214D01*
X11659643Y-22479214D01*
X11688214Y-22493500D01*
X11702500Y-22507786D01*
X11716786Y-22536357D01*
X11716786Y-22622071D01*
X11702500Y-22650643D01*
X11688214Y-22664929D01*
X11659643Y-22679214D01*
X11602500Y-22679214D01*
X11573928Y-22664929D01*
X11888214Y-22679214D02*
X11859643Y-22664929D01*
X11845357Y-22636357D01*
X11845357Y-22379214D01*
X12131071Y-22679214D02*
X12131071Y-22522071D01*
X12116786Y-22493500D01*
X12088214Y-22479214D01*
X12031071Y-22479214D01*
X12002500Y-22493500D01*
X12131071Y-22664929D02*
X12102500Y-22679214D01*
X12031071Y-22679214D01*
X12002500Y-22664929D01*
X11988214Y-22636357D01*
X11988214Y-22607786D01*
X12002500Y-22579214D01*
X12031071Y-22564929D01*
X12102500Y-22564929D01*
X12131071Y-22550643D01*
X12231071Y-22479214D02*
X12345357Y-22479214D01*
X12273928Y-22379214D02*
X12273928Y-22636357D01*
X12288214Y-22664929D01*
X12316786Y-22679214D01*
X12345357Y-22679214D01*
X12559643Y-22664929D02*
X12531071Y-22679214D01*
X12473928Y-22679214D01*
X12445357Y-22664929D01*
X12431071Y-22636357D01*
X12431071Y-22522071D01*
X12445357Y-22493500D01*
X12473928Y-22479214D01*
X12531071Y-22479214D01*
X12559643Y-22493500D01*
X12573928Y-22522071D01*
X12573928Y-22550643D01*
X12431071Y-22579214D01*
X12831071Y-22679214D02*
X12831071Y-22379214D01*
X12831071Y-22664929D02*
X12802500Y-22679214D01*
X12745357Y-22679214D01*
X12716786Y-22664929D01*
X12702500Y-22650643D01*
X12688214Y-22622071D01*
X12688214Y-22536357D01*
X12702500Y-22507786D01*
X12716786Y-22493500D01*
X12745357Y-22479214D01*
X12802500Y-22479214D01*
X12831071Y-22493500D01*
X12945357Y-22793500D02*
X12959643Y-22779214D01*
X12988214Y-22736357D01*
X13002500Y-22707786D01*
X13016786Y-22664929D01*
X13031071Y-22593500D01*
X13031071Y-22536357D01*
X13016786Y-22464929D01*
X13002500Y-22422071D01*
X12988214Y-22393500D01*
X12959643Y-22350643D01*
X12945357Y-22336357D01*
M02*
