  0
SECTION
  2
HEADER
  9
$ANGBASE
  50
0.0
  9
$ANGDIR
  70
1
  9
$MEASUREMENT
  70
1
  0
ENDSEC
  0
SECTION
  2
TABLES
  0
TABLE
  2
LTYPE
  70
4
  0
LTYPE
  5
40F
  2
CONTINUOUS
  70
0
  3
Solid line
  72
65
  73
0
  40
0.0
  0
LTYPE
  5
410
  2
DASHDOT
 70
0
  3
Dash Dot ____ _ ____ _
 72
65
 73
4
 40
2.0
 49
1.25
 49
-0.25
 49
0.25
 49
-0.25
  0
LTYPE
  5
411
  2
DASHED
 70
0
  3
Dashed __ __ __ __ __
 72
65
 73
2
 40
0.75
 49
0.5
 49
-0.25
  0
LTYPE
  5
43B
  2
DOTTED
 70
0
  3
Dotted .  .  .  .
 72
65
 73
2
 40
0.2
 49
0.0
 49
-0.2
  0
ENDTAB
  0
TABLE
  2
STYLE
  70
4
  0
STYLE
  2
KICAD
  70
0
  40
0
  41
1
  42
1
  50
0
  71
0
  3
isocp.shx
  0
STYLE
  2
KICADB
  70
0
  40
0
  41
1
  42
1
  50
0
  71
0
  3
isocp.shx
  0
STYLE
  2
KICADI
  70
0
  40
0
  41
1
  42
1
  50
15
  71
0
  3
isocp.shx
  0
STYLE
  2
KICADBI
  70
0
  40
0
  41
1
  42
1
  50
15
  71
0
  3
isocp.shx
  0
ENDTAB
  0
TABLE
  2
LAYER
  70
1
  0
LAYER
  2
BLACK
  70
0
  62
7
  6
CONTINUOUS
  0
ENDTAB
  0
ENDSEC
  0
SECTION
  2
ENTITIES
0
ARC
8
BLACK
10
379.025
20
-88.785
40
3
50
-90
51
-0
0
LINE
8
BLACK
6
CONTINUOUS
10
382.025
20
-62.685
11
382.025
21
-88.785
0
LINE
8
BLACK
6
CONTINUOUS
10
45.425
20
-91.785
11
379.025
21
-91.785
0
ARC
8
BLACK
10
45.425
20
-88.785
40
3
50
180
51
270
0
LINE
8
BLACK
6
CONTINUOUS
10
42.425
20
-62.685
11
42.425
21
-88.785
0
ARC
8
BLACK
10
39.425
20
-62.685
40
3
50
-0
51
90
0
ARC
8
BLACK
10
385.025
20
-62.685
40
3
50
90
51
180
0
LINE
8
BLACK
6
CONTINUOUS
10
386.525
20
-59.685
11
385.025
21
-59.685
0
LINE
8
BLACK
6
CONTINUOUS
10
37.925
20
-59.685
11
39.425
21
-59.685
0
LINE
8
BLACK
6
CONTINUOUS
10
389.525
20
-62.685
11
389.525
21
-212.785
0
ARC
8
BLACK
10
50.7107
20
-195.01
40
0.5
50
90
51
180
0
LINE
8
BLACK
6
CONTINUOUS
10
42.6088
20
-180.51
11
77.04
21
-180.51
0
LINE
8
BLACK
6
CONTINUOUS
10
309.974
20
-175.961
11
309.974
21
-176.96
0
ARC
8
BLACK
10
317.546
20
-166.431
40
0.5
50
90
51
180
0
ARC
8
BLACK
10
293.598
20
-175.961
40
0.5
50
90
51
180
0
LINE
8
BLACK
6
CONTINUOUS
10
293.098
20
-176.96
11
293.098
21
-175.961
0
ARC
8
BLACK
10
285.597
20
-175.961
40
0.5
50
-0
51
90
0
LINE
8
BLACK
6
CONTINUOUS
10
286.098
20
-176.96
11
286.097
21
-175.961
0
LINE
8
BLACK
6
CONTINUOUS
10
304.048
20
-160.96
11
304.048
21
-156.87
0
ARC
8
BLACK
10
303.548
20
-160.96
40
0.5
50
-90
51
-0
0
LINE
8
BLACK
6
CONTINUOUS
10
303.548
20
-156.37
11
302.147
21
-156.37
0
ARC
8
BLACK
10
302.147
20
-155.87
40
0.5
50
180
51
270
0
ARC
8
BLACK
10
303.548
20
-156.87
40
0.5
50
-0
51
90
0
ARC
8
BLACK
10
316.15
20
-151.435
40
0.5
50
180
51
270
0
LINE
8
BLACK
6
CONTINUOUS
10
316.546
20
-150.497
11
316.15
21
-150.497
0
ARC
8
BLACK
10
316.15
20
-150.997
40
0.5
50
90
51
180
0
ARC
8
BLACK
10
316.15
20
-143
40
0.5
50
180
51
270
0
LINE
8
BLACK
6
CONTINUOUS
10
315.65
20
-151.435
11
315.65
21
-150.997
0
ARC
8
BLACK
10
315.15
20
-142.88
40
0.5
50
-0
51
90
0
LINE
8
BLACK
6
CONTINUOUS
10
301.647
20
-155.87
11
301.65
21
-142.88
0
LINE
8
BLACK
6
CONTINUOUS
10
315.65
20
-142.88
11
315.65
21
-143
0
LINE
8
BLACK
6
CONTINUOUS
10
302.15
20
-142.38
11
315.15
21
-142.38
0
ARC
8
BLACK
10
74.5867
20
-195.01
40
0.5
50
90
51
180
0
LINE
8
BLACK
6
CONTINUOUS
10
77.04
20
-194.51
11
74.5867
21
-194.51
0
LINE
8
BLACK
6
CONTINUOUS
10
74.0867
20
-196.01
11
74.0867
21
-195.01
0
LINE
8
BLACK
6
CONTINUOUS
10
67.0867
20
-195.01
11
67.0867
21
-196.01
0
ARC
8
BLACK
10
66.5867
20
-195.01
40
0.5
50
-0
51
90
0
LINE
8
BLACK
6
CONTINUOUS
10
66.5867
20
-194.51
11
50.7107
21
-194.51
0
LINE
8
BLACK
6
CONTINUOUS
10
50.2107
20
-196.01
11
50.2107
21
-195.01
0
LINE
8
BLACK
6
CONTINUOUS
10
43.2107
20
-195.01
11
43.2107
21
-196.01
0
LINE
8
BLACK
6
CONTINUOUS
10
42.6088
20
-194.51
11
42.7107
21
-194.51
0
ARC
8
BLACK
10
42.7107
20
-195.01
40
0.5
50
-0
51
90
0
LINE
8
BLACK
6
CONTINUOUS
10
43.7107
20
-196.51
11
49.7107
21
-196.51
0
ARC
8
BLACK
10
292.598
20
-176.96
40
0.5
50
-90
51
-0
0
ARC
8
BLACK
10
316.546
20
-176.959
40
0.5
50
-90
51
-0
0
ARC
8
BLACK
10
67.5867
20
-196.01
40
0.5
50
180
51
270
0
ARC
8
BLACK
10
73.5867
20
-196.01
40
0.5
50
-90
51
-0
0
LINE
8
BLACK
6
CONTINUOUS
10
286.598
20
-177.46
11
292.598
21
-177.46
0
LINE
8
BLACK
6
CONTINUOUS
10
67.5867
20
-196.51
11
73.5867
21
-196.51
0
ARC
8
BLACK
10
310.474
20
-176.96
40
0.5
50
180
51
270
0
ARC
8
BLACK
10
49.7107
20
-196.01
40
0.5
50
-90
51
-0
0
ARC
8
BLACK
10
43.7107
20
-196.01
40
0.5
50
180
51
270
0
ARC
8
BLACK
10
286.598
20
-176.96
40
0.5
50
180
51
270
0
ARC
8
BLACK
10
309.474
20
-175.961
40
0.5
50
-0
51
90
0
LINE
8
BLACK
6
CONTINUOUS
10
310.476
20
-177.46
11
316.546
21
-177.459
0
LINE
8
BLACK
6
CONTINUOUS
10
293.598
20
-175.461
11
309.474
21
-175.461
0
LINE
8
BLACK
6
CONTINUOUS
10
316.546
20
-143.497
11
316.15
21
-143.5
0
ARC
8
BLACK
10
278.352
20
-142.91
40
0.5
50
90
51
180
0
ARC
8
BLACK
10
291.352
20
-155.91
40
0.5
50
-90
51
-0
0
LINE
8
BLACK
6
CONTINUOUS
10
349.29
20
-142.91
11
349.29
21
-155.91
0
ARC
8
BLACK
10
343.74
20
-155.91
40
0.5
50
-90
51
-0
0
LINE
8
BLACK
6
CONTINUOUS
10
317.046
20
-166.431
11
317.046
21
-176.959
0
ARC
8
BLACK
10
362.79
20
-155.91
40
0.5
50
-90
51
-0
0
ARC
8
BLACK
10
302.15
20
-142.88
40
0.5
50
90
51
180
0
LINE
8
BLACK
6
CONTINUOUS
10
317.546
20
-151.935
11
316.15
21
-151.935
0
ARC
8
BLACK
10
362.79
20
-142.91
40
0.5
50
-0
51
90
0
LINE
8
BLACK
6
CONTINUOUS
10
363.29
20
-142.91
11
363.29
21
-155.91
0
ARC
8
BLACK
10
316.546
20
-143.997
40
0.5
50
-0
51
90
0
LINE
8
BLACK
6
CONTINUOUS
10
317.046
20
-143.997
11
317.046
21
-149.997
0
ARC
8
BLACK
10
317.546
20
-165.431
40
0.5
50
-90
51
-0
0
LINE
8
BLACK
6
CONTINUOUS
10
344.24
20
-142.91
11
344.24
21
-155.91
0
LINE
8
BLACK
6
CONTINUOUS
10
330.74
20
-156.41
11
343.74
21
-156.41
0
ARC
8
BLACK
10
316.546
20
-149.997
40
0.5
50
-90
51
-0
0
LINE
8
BLACK
6
CONTINUOUS
10
318.046
20
-152.435
11
318.046
21
-165.431
0
ARC
8
BLACK
10
291.352
20
-142.91
40
0.5
50
-0
51
90
0
ARC
8
BLACK
10
349.79
20
-142.91
40
0.5
50
90
51
180
0
ARC
8
BLACK
10
278.352
20
-155.91
40
0.5
50
180
51
270
0
ARC
8
BLACK
10
330.74
20
-155.91
40
0.5
50
180
51
270
0
ARC
8
BLACK
10
317.546
20
-152.435
40
0.5
50
-0
51
90
0
LINE
8
BLACK
6
CONTINUOUS
10
349.79
20
-156.41
11
362.79
21
-156.41
0
LINE
8
BLACK
6
CONTINUOUS
10
330.24
20
-142.91
11
330.24
21
-155.91
0
LINE
8
BLACK
6
CONTINUOUS
10
368.84
20
-142.41
11
381.84
21
-142.41
0
ARC
8
BLACK
10
368.84
20
-155.91
40
0.5
50
180
51
270
0
ARC
8
BLACK
10
381.84
20
-142.91
40
0.5
50
-0
51
90
0
ARC
8
BLACK
10
343.74
20
-142.91
40
0.5
50
-0
51
90
0
ARC
8
BLACK
10
368.84
20
-142.91
40
0.5
50
90
51
180
0
ARC
8
BLACK
10
349.79
20
-155.91
40
0.5
50
180
51
270
0
LINE
8
BLACK
6
CONTINUOUS
10
382.34
20
-142.91
11
382.34
21
-155.91
0
LINE
8
BLACK
6
CONTINUOUS
10
330.74
20
-142.41
11
343.74
21
-142.41
0
LINE
8
BLACK
6
CONTINUOUS
10
368.34
20
-142.91
11
368.34
21
-155.91
0
LINE
8
BLACK
6
CONTINUOUS
10
368.84
20
-156.41
11
381.84
21
-156.41
0
LINE
8
BLACK
6
CONTINUOUS
10
349.79
20
-142.41
11
362.79
21
-142.41
0
ARC
8
BLACK
10
330.74
20
-142.91
40
0.5
50
90
51
180
0
ARC
8
BLACK
10
272.303
20
-142.91
40
0.5
50
-0
51
90
0
LINE
8
BLACK
6
CONTINUOUS
10
202.153
20
-156.41
11
215.153
21
-156.41
0
ARC
8
BLACK
10
183.102
20
-142.91
40
0.5
50
90
51
180
0
LINE
8
BLACK
6
CONTINUOUS
10
258.803
20
-142.91
11
258.803
21
-155.91
0
ARC
8
BLACK
10
196.102
20
-142.91
40
0.5
50
-0
51
90
0
LINE
8
BLACK
6
CONTINUOUS
10
196.602
20
-142.91
11
196.602
21
-155.91
0
ARC
8
BLACK
10
164.052
20
-142.91
40
0.5
50
90
51
180
0
LINE
8
BLACK
6
CONTINUOUS
10
164.052
20
-142.41
11
177.052
21
-142.41
0
LINE
8
BLACK
6
CONTINUOUS
10
201.653
20
-142.91
11
201.653
21
-155.91
0
ARC
8
BLACK
10
202.153
20
-155.91
40
0.5
50
180
51
270
0
ARC
8
BLACK
10
177.052
20
-142.91
40
0.5
50
-0
51
90
0
LINE
8
BLACK
6
CONTINUOUS
10
240.252
20
-142.41
11
253.252
21
-142.41
0
ARC
8
BLACK
10
259.303
20
-155.91
40
0.5
50
180
51
270
0
LINE
8
BLACK
6
CONTINUOUS
10
278.352
20
-142.41
11
291.352
21
-142.41
0
ARC
8
BLACK
10
202.153
20
-142.91
40
0.5
50
90
51
180
0
ARC
8
BLACK
10
164.052
20
-155.91
40
0.5
50
180
51
270
0
LINE
8
BLACK
6
CONTINUOUS
10
259.303
20
-142.41
11
272.303
21
-142.41
0
ARC
8
BLACK
10
234.202
20
-142.91
40
0.5
50
-0
51
90
0
ARC
8
BLACK
10
145.002
20
-142.91
40
0.5
50
90
51
180
0
LINE
8
BLACK
6
CONTINUOUS
10
163.552
20
-142.91
11
163.552
21
-155.91
0
ARC
8
BLACK
10
125.953
20
-142.91
40
0.5
50
90
51
180
0
ARC
8
BLACK
10
158.002
20
-155.91
40
0.5
50
-90
51
-0
0
LINE
8
BLACK
6
CONTINUOUS
10
164.052
20
-156.41
11
177.052
21
-156.41
0
LINE
8
BLACK
6
CONTINUOUS
10
272.803
20
-142.91
11
272.803
21
-155.91
0
ARC
8
BLACK
10
215.153
20
-155.91
40
0.5
50
-90
51
-0
0
LINE
8
BLACK
6
CONTINUOUS
10
145.002
20
-142.41
11
158.002
21
-142.41
0
LINE
8
BLACK
6
CONTINUOUS
10
215.653
20
-142.91
11
215.653
21
-155.91
0
ARC
8
BLACK
10
183.102
20
-155.91
40
0.5
50
180
51
270
0
LINE
8
BLACK
6
CONTINUOUS
10
202.153
20
-142.41
11
215.153
21
-142.41
0
ARC
8
BLACK
10
125.953
20
-155.91
40
0.5
50
180
51
270
0
LINE
8
BLACK
6
CONTINUOUS
10
277.852
20
-142.91
11
277.852
21
-155.91
0
LINE
8
BLACK
6
CONTINUOUS
10
145.002
20
-156.41
11
158.002
21
-156.41
0
LINE
8
BLACK
6
CONTINUOUS
10
234.702
20
-142.91
11
234.702
21
-155.91
0
ARC
8
BLACK
10
259.303
20
-142.91
40
0.5
50
90
51
180
0
LINE
8
BLACK
6
CONTINUOUS
10
259.303
20
-156.41
11
272.303
21
-156.41
0
ARC
8
BLACK
10
253.252
20
-155.91
40
0.5
50
-90
51
-0
0
ARC
8
BLACK
10
240.252
20
-155.91
40
0.5
50
180
51
270
0
ARC
8
BLACK
10
138.952
20
-142.91
40
0.5
50
-0
51
90
0
ARC
8
BLACK
10
253.252
20
-142.91
40
0.5
50
-0
51
90
0
ARC
8
BLACK
10
145.002
20
-155.91
40
0.5
50
180
51
270
0
LINE
8
BLACK
6
CONTINUOUS
10
221.202
20
-156.41
11
234.202
21
-156.41
0
ARC
8
BLACK
10
215.153
20
-142.91
40
0.5
50
-0
51
90
0
ARC
8
BLACK
10
240.252
20
-142.91
40
0.5
50
90
51
180
0
LINE
8
BLACK
6
CONTINUOUS
10
253.752
20
-142.91
11
253.752
21
-155.91
0
ARC
8
BLACK
10
196.102
20
-155.91
40
0.5
50
-90
51
-0
0
LINE
8
BLACK
6
CONTINUOUS
10
239.752
20
-142.91
11
239.752
21
-155.91
0
LINE
8
BLACK
6
CONTINUOUS
10
240.252
20
-156.41
11
253.252
21
-156.41
0
ARC
8
BLACK
10
234.202
20
-155.91
40
0.5
50
-90
51
-0
0
LINE
8
BLACK
6
CONTINUOUS
10
182.602
20
-142.91
11
182.602
21
-155.91
0
ARC
8
BLACK
10
177.052
20
-155.91
40
0.5
50
-90
51
-0
0
LINE
8
BLACK
6
CONTINUOUS
10
177.552
20
-142.91
11
177.552
21
-155.91
0
ARC
8
BLACK
10
221.202
20
-155.91
40
0.5
50
180
51
270
0
LINE
8
BLACK
6
CONTINUOUS
10
220.702
20
-142.91
11
220.702
21
-155.91
0
LINE
8
BLACK
6
CONTINUOUS
10
221.202
20
-142.41
11
234.202
21
-142.41
0
ARC
8
BLACK
10
158.002
20
-142.91
40
0.5
50
-0
51
90
0
LINE
8
BLACK
6
CONTINUOUS
10
158.502
20
-142.91
11
158.502
21
-155.91
0
ARC
8
BLACK
10
138.952
20
-155.91
40
0.5
50
-90
51
-0
0
LINE
8
BLACK
6
CONTINUOUS
10
183.102
20
-142.41
11
196.102
21
-142.41
0
LINE
8
BLACK
6
CONTINUOUS
10
291.852
20
-142.91
11
291.852
21
-155.91
0
LINE
8
BLACK
6
CONTINUOUS
10
144.502
20
-142.91
11
144.502
21
-155.91
0
LINE
8
BLACK
6
CONTINUOUS
10
278.352
20
-156.41
11
291.352
21
-156.41
0
LINE
8
BLACK
6
CONTINUOUS
10
183.102
20
-156.41
11
196.102
21
-156.41
0
ARC
8
BLACK
10
221.202
20
-142.91
40
0.5
50
90
51
180
0
ARC
8
BLACK
10
272.303
20
-155.91
40
0.5
50
-90
51
-0
0
ARC
8
BLACK
10
119.902
20
-155.91
40
0.5
50
-90
51
-0
0
ARC
8
BLACK
10
349.79
20
-136.86
40
0.5
50
180
51
270
0
ARC
8
BLACK
10
106.902
20
-155.91
40
0.5
50
180
51
270
0
ARC
8
BLACK
10
119.902
20
-142.91
40
0.5
50
-0
51
90
0
ARC
8
BLACK
10
106.902
20
-142.91
40
0.5
50
90
51
180
0
LINE
8
BLACK
6
CONTINUOUS
10
68.8025
20
-156.41
11
81.8025
21
-156.41
0
LINE
8
BLACK
6
CONTINUOUS
10
349.79
20
-137.36
11
362.79
21
-137.36
0
ARC
8
BLACK
10
57.99
20
-142.91
40
0.5
50
-0
51
90
0
LINE
8
BLACK
6
CONTINUOUS
10
120.402
20
-142.91
11
120.402
21
-155.91
0
ARC
8
BLACK
10
81.8025
20
-142.91
40
0.5
50
-0
51
90
0
LINE
8
BLACK
6
CONTINUOUS
10
68.3025
20
-142.91
11
68.3025
21
-155.91
0
LINE
8
BLACK
6
CONTINUOUS
10
106.402
20
-142.91
11
106.402
21
-155.91
0
ARC
8
BLACK
10
362.79
20
-136.86
40
0.5
50
-90
51
-0
0
LINE
8
BLACK
6
CONTINUOUS
10
106.902
20
-156.41
11
119.902
21
-156.41
0
ARC
8
BLACK
10
87.8525
20
-155.91
40
0.5
50
180
51
270
0
LINE
8
BLACK
6
CONTINUOUS
10
101.352
20
-142.91
11
101.352
21
-155.91
0
ARC
8
BLACK
10
57.99
20
-155.91
40
0.5
50
-90
51
-0
0
LINE
8
BLACK
6
CONTINUOUS
10
44.99
20
-156.41
11
57.99
21
-156.41
0
LINE
8
BLACK
6
CONTINUOUS
10
349.79
20
-123.36
11
362.79
21
-123.36
0
ARC
8
BLACK
10
44.99
20
-155.91
40
0.5
50
180
51
270
0
LINE
8
BLACK
6
CONTINUOUS
10
368.84
20
-137.36
11
381.84
21
-137.36
0
ARC
8
BLACK
10
44.99
20
-142.91
40
0.5
50
90
51
180
0
LINE
8
BLACK
6
CONTINUOUS
10
344.24
20
-123.86
11
344.24
21
-136.86
0
LINE
8
BLACK
6
CONTINUOUS
10
330.74
20
-123.36
11
343.74
21
-123.36
0
LINE
8
BLACK
6
CONTINUOUS
10
106.902
20
-142.41
11
119.902
21
-142.41
0
ARC
8
BLACK
10
381.84
20
-123.86
40
0.5
50
-0
51
90
0
ARC
8
BLACK
10
100.852
20
-155.91
40
0.5
50
-90
51
-0
0
ARC
8
BLACK
10
343.74
20
-136.86
40
0.5
50
-90
51
-0
0
ARC
8
BLACK
10
68.8025
20
-155.91
40
0.5
50
180
51
270
0
LINE
8
BLACK
6
CONTINUOUS
10
382.34
20
-123.86
11
382.34
21
-136.86
0
ARC
8
BLACK
10
100.852
20
-142.91
40
0.5
50
-0
51
90
0
ARC
8
BLACK
10
368.84
20
-136.86
40
0.5
50
180
51
270
0
LINE
8
BLACK
6
CONTINUOUS
10
368.84
20
-123.36
11
381.84
21
-123.36
0
LINE
8
BLACK
6
CONTINUOUS
10
87.8525
20
-156.41
11
100.852
21
-156.41
0
LINE
8
BLACK
6
CONTINUOUS
10
82.3025
20
-142.91
11
82.3025
21
-155.91
0
ARC
8
BLACK
10
81.8025
20
-155.91
40
0.5
50
-90
51
-0
0
LINE
8
BLACK
6
CONTINUOUS
10
368.34
20
-123.86
11
368.34
21
-136.86
0
ARC
8
BLACK
10
288.964
20
-124.86
40
0.5
50
90
51
180
0
LINE
8
BLACK
6
CONTINUOUS
10
87.8525
20
-142.41
11
100.852
21
-142.41
0
LINE
8
BLACK
6
CONTINUOUS
10
58.49
20
-142.91
11
58.49
21
-155.91
0
ARC
8
BLACK
10
362.79
20
-123.86
40
0.5
50
-0
51
90
0
ARC
8
BLACK
10
330.74
20
-123.86
40
0.5
50
90
51
180
0
ARC
8
BLACK
10
288.964
20
-138.86
40
0.5
50
180
51
270
0
ARC
8
BLACK
10
294.964
20
-124.86
40
0.5
50
-0
51
90
0
ARC
8
BLACK
10
330.74
20
-136.86
40
0.5
50
180
51
270
0
LINE
8
BLACK
6
CONTINUOUS
10
330.24
20
-123.86
11
330.24
21
-136.86
0
ARC
8
BLACK
10
349.79
20
-123.86
40
0.5
50
90
51
180
0
ARC
8
BLACK
10
87.8525
20
-142.91
40
0.5
50
90
51
180
0
ARC
8
BLACK
10
68.8025
20
-142.91
40
0.5
50
90
51
180
0
LINE
8
BLACK
6
CONTINUOUS
10
68.8025
20
-142.41
11
81.8025
21
-142.41
0
LINE
8
BLACK
6
CONTINUOUS
10
330.74
20
-137.36
11
343.74
21
-137.36
0
LINE
8
BLACK
6
CONTINUOUS
10
363.29
20
-123.86
11
363.29
21
-136.86
0
LINE
8
BLACK
6
CONTINUOUS
10
87.3525
20
-142.91
11
87.3525
21
-155.91
0
LINE
8
BLACK
6
CONTINUOUS
10
44.49
20
-142.91
11
44.49
21
-155.91
0
LINE
8
BLACK
6
CONTINUOUS
10
44.99
20
-142.41
11
57.99
21
-142.41
0
ARC
8
BLACK
10
368.84
20
-123.86
40
0.5
50
90
51
180
0
ARC
8
BLACK
10
343.74
20
-123.86
40
0.5
50
-0
51
90
0
ARC
8
BLACK
10
381.84
20
-136.86
40
0.5
50
-90
51
-0
0
ARC
8
BLACK
10
294.964
20
-138.86
40
0.5
50
-90
51
-0
0
LINE
8
BLACK
6
CONTINUOUS
10
349.29
20
-123.86
11
349.29
21
-136.86
0
LINE
8
BLACK
6
CONTINUOUS
10
139.452
20
-142.91
11
139.452
21
-155.91
0
LINE
8
BLACK
6
CONTINUOUS
10
125.453
20
-142.91
11
125.453
21
-155.91
0
LINE
8
BLACK
6
CONTINUOUS
10
125.953
20
-156.41
11
138.952
21
-156.41
0
LINE
8
BLACK
6
CONTINUOUS
10
125.953
20
-142.41
11
138.952
21
-142.41
0
ARC
8
BLACK
10
211.677
20
-123.86
40
0.5
50
90
51
180
0
ARC
8
BLACK
10
230.727
20
-123.86
40
0.5
50
90
51
180
0
LINE
8
BLACK
6
CONTINUOUS
10
211.177
20
-123.86
11
211.177
21
-136.86
0
LINE
8
BLACK
6
CONTINUOUS
10
230.727
20
-137.36
11
243.727
21
-137.36
0
LINE
8
BLACK
6
CONTINUOUS
10
297.402
20
-123.36
11
310.402
21
-123.36
0
ARC
8
BLACK
10
205.627
20
-136.86
40
0.5
50
-90
51
-0
0
ARC
8
BLACK
10
262.777
20
-136.86
40
0.5
50
-90
51
-0
0
LINE
8
BLACK
6
CONTINUOUS
10
263.277
20
-123.86
11
263.277
21
-136.86
0
LINE
8
BLACK
6
CONTINUOUS
10
268.827
20
-123.36
11
281.827
21
-123.36
0
ARC
8
BLACK
10
262.777
20
-123.86
40
0.5
50
-0
51
90
0
ARC
8
BLACK
10
211.677
20
-136.86
40
0.5
50
180
51
270
0
ARC
8
BLACK
10
186.577
20
-123.86
40
0.5
50
-0
51
90
0
LINE
8
BLACK
6
CONTINUOUS
10
225.177
20
-123.86
11
225.177
21
-136.86
0
LINE
8
BLACK
6
CONTINUOUS
10
288.964
20
-124.36
11
294.964
21
-124.36
0
ARC
8
BLACK
10
312.84
20
-124.86
40
0.5
50
90
51
180
0
LINE
8
BLACK
6
CONTINUOUS
10
312.84
20
-124.36
11
318.84
21
-124.36
0
LINE
8
BLACK
6
CONTINUOUS
10
310.902
20
-123.86
11
310.902
21
-136.86
0
ARC
8
BLACK
10
243.727
20
-136.86
40
0.5
50
-90
51
-0
0
ARC
8
BLACK
10
205.627
20
-123.86
40
0.5
50
-0
51
90
0
ARC
8
BLACK
10
297.402
20
-136.86
40
0.5
50
180
51
270
0
LINE
8
BLACK
6
CONTINUOUS
10
297.402
20
-137.36
11
310.402
21
-137.36
0
LINE
8
BLACK
6
CONTINUOUS
10
282.327
20
-123.86
11
282.327
21
-136.86
0
LINE
8
BLACK
6
CONTINUOUS
10
268.827
20
-137.36
11
281.827
21
-137.36
0
ARC
8
BLACK
10
249.777
20
-136.86
40
0.5
50
180
51
270
0
ARC
8
BLACK
10
224.677
20
-123.86
40
0.5
50
-0
51
90
0
LINE
8
BLACK
6
CONTINUOUS
10
211.677
20
-123.36
11
224.677
21
-123.36
0
LINE
8
BLACK
6
CONTINUOUS
10
249.277
20
-123.86
11
249.277
21
-136.86
0
LINE
8
BLACK
6
CONTINUOUS
10
249.777
20
-123.36
11
262.777
21
-123.36
0
ARC
8
BLACK
10
281.827
20
-123.86
40
0.5
50
-0
51
90
0
ARC
8
BLACK
10
230.727
20
-136.86
40
0.5
50
180
51
270
0
ARC
8
BLACK
10
268.827
20
-123.86
40
0.5
50
90
51
180
0
LINE
8
BLACK
6
CONTINUOUS
10
296.902
20
-123.86
11
296.902
21
-136.86
0
ARC
8
BLACK
10
268.827
20
-136.86
40
0.5
50
180
51
270
0
ARC
8
BLACK
10
224.677
20
-136.86
40
0.5
50
-90
51
-0
0
ARC
8
BLACK
10
192.627
20
-136.86
40
0.5
50
180
51
270
0
LINE
8
BLACK
6
CONTINUOUS
10
268.327
20
-123.86
11
268.327
21
-136.86
0
ARC
8
BLACK
10
243.727
20
-123.86
40
0.5
50
-0
51
90
0
LINE
8
BLACK
6
CONTINUOUS
10
230.227
20
-123.86
11
230.227
21
-136.86
0
LINE
8
BLACK
6
CONTINUOUS
10
192.127
20
-123.86
11
192.127
21
-136.86
0
LINE
8
BLACK
6
CONTINUOUS
10
319.34
20
-124.86
11
319.34
21
-138.86
0
ARC
8
BLACK
10
310.402
20
-136.86
40
0.5
50
-90
51
-0
0
LINE
8
BLACK
6
CONTINUOUS
10
244.227
20
-123.86
11
244.227
21
-136.86
0
LINE
8
BLACK
6
CONTINUOUS
10
249.777
20
-137.36
11
262.777
21
-137.36
0
LINE
8
BLACK
6
CONTINUOUS
10
211.677
20
-137.36
11
224.677
21
-137.36
0
ARC
8
BLACK
10
192.627
20
-123.86
40
0.5
50
90
51
180
0
LINE
8
BLACK
6
CONTINUOUS
10
206.127
20
-123.86
11
206.127
21
-136.86
0
ARC
8
BLACK
10
173.577
20
-136.86
40
0.5
50
180
51
270
0
ARC
8
BLACK
10
173.577
20
-123.86
40
0.5
50
90
51
180
0
ARC
8
BLACK
10
312.84
20
-138.86
40
0.5
50
180
51
270
0
ARC
8
BLACK
10
249.777
20
-123.86
40
0.5
50
90
51
180
0
LINE
8
BLACK
6
CONTINUOUS
10
230.727
20
-123.36
11
243.727
21
-123.36
0
LINE
8
BLACK
6
CONTINUOUS
10
312.34
20
-124.86
11
312.34
21
-138.86
0
LINE
8
BLACK
6
CONTINUOUS
10
192.627
20
-137.36
11
205.627
21
-137.36
0
ARC
8
BLACK
10
186.577
20
-136.86
40
0.5
50
-90
51
-0
0
LINE
8
BLACK
6
CONTINUOUS
10
295.464
20
-124.86
11
295.464
21
-138.86
0
LINE
8
BLACK
6
CONTINUOUS
10
288.464
20
-124.86
11
288.464
21
-138.86
0
LINE
8
BLACK
6
CONTINUOUS
10
192.627
20
-123.36
11
205.627
21
-123.36
0
ARC
8
BLACK
10
310.402
20
-123.86
40
0.5
50
-0
51
90
0
LINE
8
BLACK
6
CONTINUOUS
10
288.964
20
-139.36
11
294.964
21
-139.36
0
ARC
8
BLACK
10
318.84
20
-138.86
40
0.5
50
-90
51
-0
0
ARC
8
BLACK
10
318.84
20
-124.86
40
0.5
50
-0
51
90
0
LINE
8
BLACK
6
CONTINUOUS
10
312.84
20
-139.36
11
318.84
21
-139.36
0
ARC
8
BLACK
10
297.402
20
-123.86
40
0.5
50
90
51
180
0
ARC
8
BLACK
10
281.827
20
-136.86
40
0.5
50
-90
51
-0
0
ARC
8
BLACK
10
91.3275
20
-136.86
40
0.5
50
-90
51
-0
0
ARC
8
BLACK
10
381.84
20
-108.285
40
0.5
50
-90
51
-0
0
LINE
8
BLACK
6
CONTINUOUS
10
59.2775
20
-137.36
11
72.2775
21
-137.36
0
ARC
8
BLACK
10
53.2275
20
-123.86
40
0.5
50
-0
51
90
0
ARC
8
BLACK
10
40.2275
20
-123.86
40
0.5
50
90
51
180
0
LINE
8
BLACK
6
CONTINUOUS
10
173.077
20
-123.86
11
173.077
21
-136.86
0
LINE
8
BLACK
6
CONTINUOUS
10
134.977
20
-123.86
11
134.977
21
-136.86
0
LINE
8
BLACK
6
CONTINUOUS
10
135.477
20
-123.36
11
148.477
21
-123.36
0
ARC
8
BLACK
10
148.477
20
-136.86
40
0.5
50
-90
51
-0
0
ARC
8
BLACK
10
72.2775
20
-123.86
40
0.5
50
-0
51
90
0
LINE
8
BLACK
6
CONTINUOUS
10
168.027
20
-123.86
11
168.027
21
-136.86
0
ARC
8
BLACK
10
381.84
20
-95.285
40
0.5
50
-0
51
90
0
LINE
8
BLACK
6
CONTINUOUS
10
173.577
20
-123.36
11
186.577
21
-123.36
0
LINE
8
BLACK
6
CONTINUOUS
10
154.528
20
-137.36
11
167.527
21
-137.36
0
ARC
8
BLACK
10
59.2775
20
-123.86
40
0.5
50
90
51
180
0
LINE
8
BLACK
6
CONTINUOUS
10
129.927
20
-123.86
11
129.927
21
-136.86
0
ARC
8
BLACK
10
154.528
20
-123.86
40
0.5
50
90
51
180
0
LINE
8
BLACK
6
CONTINUOUS
10
154.528
20
-123.36
11
167.527
21
-123.36
0
LINE
8
BLACK
6
CONTINUOUS
10
116.427
20
-123.36
11
129.427
21
-123.36
0
LINE
8
BLACK
6
CONTINUOUS
10
78.3275
20
-137.36
11
91.3275
21
-137.36
0
LINE
8
BLACK
6
CONTINUOUS
10
97.3775
20
-137.36
11
110.377
21
-137.36
0
ARC
8
BLACK
10
148.477
20
-123.86
40
0.5
50
-0
51
90
0
LINE
8
BLACK
6
CONTINUOUS
10
148.977
20
-123.86
11
148.977
21
-136.86
0
LINE
8
BLACK
6
CONTINUOUS
10
91.8275
20
-123.86
11
91.8275
21
-136.86
0
ARC
8
BLACK
10
78.3275
20
-123.86
40
0.5
50
90
51
180
0
LINE
8
BLACK
6
CONTINUOUS
10
115.927
20
-123.86
11
115.927
21
-136.86
0
LINE
8
BLACK
6
CONTINUOUS
10
116.427
20
-137.36
11
129.427
21
-137.36
0
ARC
8
BLACK
10
110.377
20
-123.86
40
0.5
50
-0
51
90
0
ARC
8
BLACK
10
110.377
20
-136.86
40
0.5
50
-90
51
-0
0
ARC
8
BLACK
10
97.3775
20
-123.86
40
0.5
50
90
51
180
0
ARC
8
BLACK
10
59.2775
20
-136.86
40
0.5
50
180
51
270
0
LINE
8
BLACK
6
CONTINUOUS
10
58.7775
20
-123.86
11
58.7775
21
-136.86
0
ARC
8
BLACK
10
368.84
20
-108.285
40
0.5
50
180
51
270
0
LINE
8
BLACK
6
CONTINUOUS
10
97.3775
20
-123.36
11
110.377
21
-123.36
0
LINE
8
BLACK
6
CONTINUOUS
10
40.2275
20
-137.36
11
53.2275
21
-137.36
0
ARC
8
BLACK
10
72.2775
20
-136.86
40
0.5
50
-90
51
-0
0
ARC
8
BLACK
10
154.528
20
-136.86
40
0.5
50
180
51
270
0
LINE
8
BLACK
6
CONTINUOUS
10
154.028
20
-123.86
11
154.028
21
-136.86
0
ARC
8
BLACK
10
135.477
20
-123.86
40
0.5
50
90
51
180
0
LINE
8
BLACK
6
CONTINUOUS
10
110.877
20
-123.86
11
110.877
21
-136.86
0
ARC
8
BLACK
10
368.84
20
-95.285
40
0.5
50
90
51
180
0
LINE
8
BLACK
6
CONTINUOUS
10
40.2275
20
-123.36
11
53.2275
21
-123.36
0
ARC
8
BLACK
10
53.2275
20
-136.86
40
0.5
50
-90
51
-0
0
LINE
8
BLACK
6
CONTINUOUS
10
96.8775
20
-123.86
11
96.8775
21
-136.86
0
ARC
8
BLACK
10
91.3275
20
-123.86
40
0.5
50
-0
51
90
0
ARC
8
BLACK
10
129.427
20
-136.86
40
0.5
50
-90
51
-0
0
ARC
8
BLACK
10
78.3275
20
-136.86
40
0.5
50
180
51
270
0
LINE
8
BLACK
6
CONTINUOUS
10
59.2775
20
-123.36
11
72.2775
21
-123.36
0
ARC
8
BLACK
10
40.2275
20
-136.86
40
0.5
50
180
51
270
0
LINE
8
BLACK
6
CONTINUOUS
10
78.3275
20
-123.36
11
91.3275
21
-123.36
0
ARC
8
BLACK
10
116.427
20
-123.86
40
0.5
50
90
51
180
0
LINE
8
BLACK
6
CONTINUOUS
10
187.077
20
-123.86
11
187.077
21
-136.86
0
LINE
8
BLACK
6
CONTINUOUS
10
77.8275
20
-123.86
11
77.8275
21
-136.86
0
ARC
8
BLACK
10
167.527
20
-123.86
40
0.5
50
-0
51
90
0
ARC
8
BLACK
10
97.3775
20
-136.86
40
0.5
50
180
51
270
0
LINE
8
BLACK
6
CONTINUOUS
10
173.577
20
-137.36
11
186.577
21
-137.36
0
ARC
8
BLACK
10
167.527
20
-136.86
40
0.5
50
-90
51
-0
0
ARC
8
BLACK
10
129.427
20
-123.86
40
0.5
50
-0
51
90
0
ARC
8
BLACK
10
135.477
20
-136.86
40
0.5
50
180
51
270
0
ARC
8
BLACK
10
116.427
20
-136.86
40
0.5
50
180
51
270
0
LINE
8
BLACK
6
CONTINUOUS
10
72.7775
20
-123.86
11
72.7775
21
-136.86
0
LINE
8
BLACK
6
CONTINUOUS
10
39.7275
20
-123.86
11
39.7275
21
-136.86
0
LINE
8
BLACK
6
CONTINUOUS
10
53.7275
20
-123.86
11
53.7275
21
-136.86
0
LINE
8
BLACK
6
CONTINUOUS
10
135.477
20
-137.36
11
148.477
21
-137.36
0
LINE
8
BLACK
6
CONTINUOUS
10
349.79
20
-94.785
11
362.79
21
-94.785
0
ARC
8
BLACK
10
330.74
20
-95.285
40
0.5
50
90
51
180
0
LINE
8
BLACK
6
CONTINUOUS
10
349.79
20
-108.785
11
362.79
21
-108.785
0
ARC
8
BLACK
10
319.928
20
-108.285
40
0.5
50
-90
51
-0
0
LINE
8
BLACK
6
CONTINUOUS
10
382.34
20
-95.285
11
382.34
21
-108.285
0
LINE
8
BLACK
6
CONTINUOUS
10
368.84
20
-94.785
11
381.84
21
-94.785
0
ARC
8
BLACK
10
349.79
20
-108.285
40
0.5
50
180
51
270
0
LINE
8
BLACK
6
CONTINUOUS
10
363.29
20
-95.285
11
363.29
21
-108.285
0
ARC
8
BLACK
10
343.74
20
-108.285
40
0.5
50
-90
51
-0
0
LINE
8
BLACK
6
CONTINUOUS
10
268.827
20
-108.785
11
281.827
21
-108.785
0
LINE
8
BLACK
6
CONTINUOUS
10
249.277
20
-95.285
11
249.277
21
-108.285
0
LINE
8
BLACK
6
CONTINUOUS
10
330.74
20
-108.785
11
343.74
21
-108.785
0
LINE
8
BLACK
6
CONTINUOUS
10
268.327
20
-95.285
11
268.327
21
-108.285
0
LINE
8
BLACK
6
CONTINUOUS
10
320.428
20
-95.285
11
320.428
21
-108.285
0
ARC
8
BLACK
10
249.777
20
-108.285
40
0.5
50
180
51
270
0
LINE
8
BLACK
6
CONTINUOUS
10
301.377
20
-95.285
11
301.377
21
-108.285
0
ARC
8
BLACK
10
343.74
20
-95.285
40
0.5
50
-0
51
90
0
ARC
8
BLACK
10
249.777
20
-95.285
40
0.5
50
90
51
180
0
LINE
8
BLACK
6
CONTINUOUS
10
330.24
20
-95.285
11
330.24
21
-108.285
0
ARC
8
BLACK
10
306.928
20
-108.285
40
0.5
50
180
51
270
0
ARC
8
BLACK
10
330.74
20
-108.285
40
0.5
50
180
51
270
0
ARC
8
BLACK
10
215.153
20
-108.285
40
0.5
50
-90
51
-0
0
ARC
8
BLACK
10
349.79
20
-95.285
40
0.5
50
90
51
180
0
LINE
8
BLACK
6
CONTINUOUS
10
306.928
20
-94.785
11
319.928
21
-94.785
0
LINE
8
BLACK
6
CONTINUOUS
10
349.29
20
-95.285
11
349.29
21
-108.285
0
ARC
8
BLACK
10
306.928
20
-95.285
40
0.5
50
90
51
180
0
ARC
8
BLACK
10
281.827
20
-95.285
40
0.5
50
-0
51
90
0
ARC
8
BLACK
10
287.877
20
-95.285
40
0.5
50
90
51
180
0
ARC
8
BLACK
10
262.777
20
-108.285
40
0.5
50
-90
51
-0
0
LINE
8
BLACK
6
CONTINUOUS
10
221.202
20
-108.785
11
234.202
21
-108.785
0
LINE
8
BLACK
6
CONTINUOUS
10
368.34
20
-95.285
11
368.34
21
-108.285
0
LINE
8
BLACK
6
CONTINUOUS
10
306.428
20
-95.285
11
306.428
21
-108.285
0
LINE
8
BLACK
6
CONTINUOUS
10
368.84
20
-108.785
11
381.84
21
-108.785
0
LINE
8
BLACK
6
CONTINUOUS
10
330.74
20
-94.785
11
343.74
21
-94.785
0
LINE
8
BLACK
6
CONTINUOUS
10
234.702
20
-95.285
11
234.702
21
-108.285
0
LINE
8
BLACK
6
CONTINUOUS
10
344.24
20
-95.285
11
344.24
21
-108.285
0
ARC
8
BLACK
10
300.877
20
-108.285
40
0.5
50
-90
51
-0
0
ARC
8
BLACK
10
268.827
20
-95.285
40
0.5
50
90
51
180
0
LINE
8
BLACK
6
CONTINUOUS
10
287.877
20
-108.785
11
300.877
21
-108.785
0
ARC
8
BLACK
10
281.827
20
-108.285
40
0.5
50
-90
51
-0
0
ARC
8
BLACK
10
221.202
20
-108.285
40
0.5
50
180
51
270
0
ARC
8
BLACK
10
202.153
20
-108.285
40
0.5
50
180
51
270
0
LINE
8
BLACK
6
CONTINUOUS
10
221.202
20
-94.785
11
234.202
21
-94.785
0
ARC
8
BLACK
10
234.202
20
-95.285
40
0.5
50
-0
51
90
0
ARC
8
BLACK
10
319.928
20
-95.285
40
0.5
50
-0
51
90
0
ARC
8
BLACK
10
300.877
20
-95.285
40
0.5
50
-0
51
90
0
LINE
8
BLACK
6
CONTINUOUS
10
249.777
20
-94.785
11
262.777
21
-94.785
0
LINE
8
BLACK
6
CONTINUOUS
10
287.377
20
-95.285
11
287.377
21
-108.285
0
LINE
8
BLACK
6
CONTINUOUS
10
263.277
20
-95.285
11
263.277
21
-108.285
0
LINE
8
BLACK
6
CONTINUOUS
10
306.928
20
-108.785
11
319.928
21
-108.785
0
ARC
8
BLACK
10
287.877
20
-108.285
40
0.5
50
180
51
270
0
ARC
8
BLACK
10
268.827
20
-108.285
40
0.5
50
180
51
270
0
LINE
8
BLACK
6
CONTINUOUS
10
282.327
20
-95.285
11
282.327
21
-108.285
0
ARC
8
BLACK
10
234.202
20
-108.285
40
0.5
50
-90
51
-0
0
ARC
8
BLACK
10
262.777
20
-95.285
40
0.5
50
-0
51
90
0
LINE
8
BLACK
6
CONTINUOUS
10
220.702
20
-95.285
11
220.702
21
-108.285
0
ARC
8
BLACK
10
221.202
20
-95.285
40
0.5
50
90
51
180
0
ARC
8
BLACK
10
202.153
20
-95.285
40
0.5
50
90
51
180
0
LINE
8
BLACK
6
CONTINUOUS
10
249.777
20
-108.785
11
262.777
21
-108.785
0
ARC
8
BLACK
10
215.153
20
-95.285
40
0.5
50
-0
51
90
0
ARC
8
BLACK
10
362.79
20
-108.285
40
0.5
50
-90
51
-0
0
LINE
8
BLACK
6
CONTINUOUS
10
287.877
20
-94.785
11
300.877
21
-94.785
0
LINE
8
BLACK
6
CONTINUOUS
10
268.827
20
-94.785
11
281.827
21
-94.785
0
ARC
8
BLACK
10
362.79
20
-95.285
40
0.5
50
-0
51
90
0
ARC
8
BLACK
10
148.477
20
-95.285
40
0.5
50
-0
51
90
0
LINE
8
BLACK
6
CONTINUOUS
10
91.8275
20
-95.285
11
91.8275
21
-108.285
0
ARC
8
BLACK
10
40.2275
20
-108.285
40
0.5
50
180
51
270
0
LINE
8
BLACK
6
CONTINUOUS
10
196.602
20
-95.285
11
196.602
21
-108.285
0
LINE
8
BLACK
6
CONTINUOUS
10
183.102
20
-94.785
11
196.102
21
-94.785
0
ARC
8
BLACK
10
53.2275
20
-108.285
40
0.5
50
-90
51
-0
0
ARC
8
BLACK
10
53.2275
20
-95.285
40
0.5
50
-0
51
90
0
ARC
8
BLACK
10
78.3275
20
-95.285
40
0.5
50
90
51
180
0
LINE
8
BLACK
6
CONTINUOUS
10
97.3775
20
-94.785
11
110.377
21
-94.785
0
LINE
8
BLACK
6
CONTINUOUS
10
115.927
20
-95.285
11
115.927
21
-108.285
0
ARC
8
BLACK
10
148.477
20
-108.285
40
0.5
50
-90
51
-0
0
LINE
8
BLACK
6
CONTINUOUS
10
215.653
20
-95.285
11
215.653
21
-108.285
0
ARC
8
BLACK
10
78.3275
20
-108.285
40
0.5
50
180
51
270
0
LINE
8
BLACK
6
CONTINUOUS
10
40.2275
20
-94.785
11
53.2275
21
-94.785
0
LINE
8
BLACK
6
CONTINUOUS
10
201.653
20
-95.285
11
201.653
21
-108.285
0
LINE
8
BLACK
6
CONTINUOUS
10
177.552
20
-95.285
11
177.552
21
-108.285
0
LINE
8
BLACK
6
CONTINUOUS
10
134.977
20
-95.285
11
134.977
21
-108.285
0
ARC
8
BLACK
10
110.377
20
-108.285
40
0.5
50
-90
51
-0
0
LINE
8
BLACK
6
CONTINUOUS
10
202.153
20
-108.785
11
215.153
21
-108.785
0
LINE
8
BLACK
6
CONTINUOUS
10
202.153
20
-94.785
11
215.153
21
-94.785
0
ARC
8
BLACK
10
196.102
20
-108.285
40
0.5
50
-90
51
-0
0
LINE
8
BLACK
6
CONTINUOUS
10
164.052
20
-94.785
11
177.052
21
-94.785
0
LINE
8
BLACK
6
CONTINUOUS
10
97.3775
20
-108.785
11
110.377
21
-108.785
0
ARC
8
BLACK
10
91.3275
20
-95.285
40
0.5
50
-0
51
90
0
LINE
8
BLACK
6
CONTINUOUS
10
78.3275
20
-94.785
11
91.3275
21
-94.785
0
LINE
8
BLACK
6
CONTINUOUS
10
77.8275
20
-95.285
11
77.8275
21
-108.285
0
ARC
8
BLACK
10
164.052
20
-95.285
40
0.5
50
90
51
180
0
LINE
8
BLACK
6
CONTINUOUS
10
164.052
20
-108.785
11
177.052
21
-108.785
0
ARC
8
BLACK
10
135.477
20
-108.285
40
0.5
50
180
51
270
0
ARC
8
BLACK
10
110.377
20
-95.285
40
0.5
50
-0
51
90
0
ARC
8
BLACK
10
196.102
20
-95.285
40
0.5
50
-0
51
90
0
ARC
8
BLACK
10
135.477
20
-95.285
40
0.5
50
90
51
180
0
LINE
8
BLACK
6
CONTINUOUS
10
182.602
20
-95.285
11
182.602
21
-108.285
0
LINE
8
BLACK
6
CONTINUOUS
10
148.977
20
-95.285
11
148.977
21
-108.285
0
LINE
8
BLACK
6
CONTINUOUS
10
183.102
20
-108.785
11
196.102
21
-108.785
0
ARC
8
BLACK
10
129.427
20
-108.285
40
0.5
50
-90
51
-0
0
ARC
8
BLACK
10
164.052
20
-108.285
40
0.5
50
180
51
270
0
LINE
8
BLACK
6
CONTINUOUS
10
110.877
20
-95.285
11
110.877
21
-108.285
0
ARC
8
BLACK
10
91.3275
20
-108.285
40
0.5
50
-90
51
-0
0
ARC
8
BLACK
10
177.052
20
-95.285
40
0.5
50
-0
51
90
0
LINE
8
BLACK
6
CONTINUOUS
10
135.477
20
-108.785
11
148.477
21
-108.785
0
LINE
8
BLACK
6
CONTINUOUS
10
78.3275
20
-108.785
11
91.3275
21
-108.785
0
LINE
8
BLACK
6
CONTINUOUS
10
135.477
20
-94.785
11
148.477
21
-94.785
0
LINE
8
BLACK
6
CONTINUOUS
10
129.927
20
-95.285
11
129.927
21
-108.285
0
LINE
8
BLACK
6
CONTINUOUS
10
116.427
20
-108.785
11
129.427
21
-108.785
0
ARC
8
BLACK
10
40.2275
20
-95.285
40
0.5
50
90
51
180
0
LINE
8
BLACK
6
CONTINUOUS
10
40.2275
20
-108.785
11
53.2275
21
-108.785
0
ARC
8
BLACK
10
116.427
20
-108.285
40
0.5
50
180
51
270
0
ARC
8
BLACK
10
116.427
20
-95.285
40
0.5
50
90
51
180
0
LINE
8
BLACK
6
CONTINUOUS
10
116.427
20
-94.785
11
129.427
21
-94.785
0
LINE
8
BLACK
6
CONTINUOUS
10
96.8775
20
-95.285
11
96.8775
21
-108.285
0
ARC
8
BLACK
10
129.427
20
-95.285
40
0.5
50
-0
51
90
0
ARC
8
BLACK
10
97.3775
20
-95.285
40
0.5
50
90
51
180
0
LINE
8
BLACK
6
CONTINUOUS
10
39.7275
20
-95.285
11
39.7275
21
-108.285
0
ARC
8
BLACK
10
183.102
20
-108.285
40
0.5
50
180
51
270
0
ARC
8
BLACK
10
183.102
20
-95.285
40
0.5
50
90
51
180
0
ARC
8
BLACK
10
177.052
20
-108.285
40
0.5
50
-90
51
-0
0
LINE
8
BLACK
6
CONTINUOUS
10
53.7275
20
-95.285
11
53.7275
21
-108.285
0
ARC
8
BLACK
10
97.3775
20
-108.285
40
0.5
50
180
51
270
0
LINE
8
BLACK
6
CONTINUOUS
10
163.552
20
-95.285
11
163.552
21
-108.285
0
ARC
8
BLACK
10
143.715
20
-161.96
40
0.5
50
-0
51
90
0
ARC
8
BLACK
10
60.3712
20
-161.96
40
0.5
50
-0
51
90
0
LINE
8
BLACK
6
CONTINUOUS
10
130.715
20
-161.46
11
143.715
21
-161.46
0
LINE
8
BLACK
6
CONTINUOUS
10
130.715
20
-175.46
11
143.715
21
-175.46
0
ARC
8
BLACK
10
124.665
20
-174.96
40
0.5
50
-90
51
-0
0
LINE
8
BLACK
6
CONTINUOUS
10
111.665
20
-161.46
11
124.665
21
-161.46
0
LINE
8
BLACK
6
CONTINUOUS
10
47.3712
20
-161.46
11
60.3712
21
-161.46
0
ARC
8
BLACK
10
92.615
20
-161.96
40
0.5
50
90
51
180
0
ARC
8
BLACK
10
130.715
20
-174.96
40
0.5
50
180
51
270
0
LINE
8
BLACK
6
CONTINUOUS
10
149.265
20
-161.96
11
149.265
21
-174.96
0
LINE
8
BLACK
6
CONTINUOUS
10
111.665
20
-175.46
11
124.665
21
-175.46
0
ARC
8
BLACK
10
168.815
20
-161.96
40
0.5
50
90
51
180
0
ARC
8
BLACK
10
47.3712
20
-174.96
40
0.5
50
180
51
270
0
ARC
8
BLACK
10
187.865
20
-161.96
40
0.5
50
90
51
180
0
LINE
8
BLACK
6
CONTINUOUS
10
149.765
20
-161.46
11
162.765
21
-161.46
0
LINE
8
BLACK
6
CONTINUOUS
10
111.165
20
-161.96
11
111.165
21
-174.96
0
LINE
8
BLACK
6
CONTINUOUS
10
168.815
20
-175.46
11
181.815
21
-175.46
0
LINE
8
BLACK
6
CONTINUOUS
10
92.615
20
-161.46
11
105.615
21
-161.46
0
ARC
8
BLACK
10
381.84
20
-155.91
40
0.5
50
-90
51
-0
0
ARC
8
BLACK
10
92.615
20
-174.96
40
0.5
50
180
51
270
0
LINE
8
BLACK
6
CONTINUOUS
10
73.565
20
-161.46
11
86.565
21
-161.46
0
LINE
8
BLACK
6
CONTINUOUS
10
106.115
20
-161.96
11
106.115
21
-174.96
0
ARC
8
BLACK
10
105.615
20
-161.96
40
0.5
50
-0
51
90
0
LINE
8
BLACK
6
CONTINUOUS
10
201.365
20
-161.96
11
201.365
21
-174.96
0
LINE
8
BLACK
6
CONTINUOUS
10
163.265
20
-161.96
11
163.265
21
-174.96
0
ARC
8
BLACK
10
73.565
20
-161.96
40
0.5
50
90
51
180
0
ARC
8
BLACK
10
143.715
20
-174.96
40
0.5
50
-90
51
-0
0
LINE
8
BLACK
6
CONTINUOUS
10
130.215
20
-161.96
11
130.215
21
-174.96
0
ARC
8
BLACK
10
130.715
20
-161.96
40
0.5
50
90
51
180
0
LINE
8
BLACK
6
CONTINUOUS
10
73.065
20
-161.96
11
73.065
21
-174.96
0
ARC
8
BLACK
10
162.765
20
-174.96
40
0.5
50
-90
51
-0
0
ARC
8
BLACK
10
86.565
20
-161.96
40
0.5
50
-0
51
90
0
ARC
8
BLACK
10
60.3712
20
-174.96
40
0.5
50
-90
51
-0
0
LINE
8
BLACK
6
CONTINUOUS
10
187.365
20
-161.96
11
187.365
21
-174.96
0
LINE
8
BLACK
6
CONTINUOUS
10
187.865
20
-175.46
11
200.865
21
-175.46
0
LINE
8
BLACK
6
CONTINUOUS
10
187.865
20
-161.46
11
200.865
21
-161.46
0
ARC
8
BLACK
10
181.815
20
-174.96
40
0.5
50
-90
51
-0
0
LINE
8
BLACK
6
CONTINUOUS
10
73.565
20
-175.46
11
86.565
21
-175.46
0
ARC
8
BLACK
10
162.765
20
-161.96
40
0.5
50
-0
51
90
0
LINE
8
BLACK
6
CONTINUOUS
10
92.115
20
-161.96
11
92.115
21
-174.96
0
ARC
8
BLACK
10
47.3712
20
-161.96
40
0.5
50
90
51
180
0
LINE
8
BLACK
6
CONTINUOUS
10
149.765
20
-175.46
11
162.765
21
-175.46
0
ARC
8
BLACK
10
168.815
20
-174.96
40
0.5
50
180
51
270
0
ARC
8
BLACK
10
181.815
20
-161.96
40
0.5
50
-0
51
90
0
LINE
8
BLACK
6
CONTINUOUS
10
144.215
20
-161.96
11
144.215
21
-174.96
0
LINE
8
BLACK
6
CONTINUOUS
10
182.315
20
-161.96
11
182.315
21
-174.96
0
LINE
8
BLACK
6
CONTINUOUS
10
60.8712
20
-161.96
11
60.8712
21
-174.96
0
LINE
8
BLACK
6
CONTINUOUS
10
168.315
20
-161.96
11
168.315
21
-174.96
0
ARC
8
BLACK
10
111.665
20
-174.96
40
0.5
50
180
51
270
0
LINE
8
BLACK
6
CONTINUOUS
10
125.165
20
-161.96
11
125.165
21
-174.96
0
ARC
8
BLACK
10
105.615
20
-174.96
40
0.5
50
-90
51
-0
0
LINE
8
BLACK
6
CONTINUOUS
10
46.8712
20
-161.96
11
46.8712
21
-174.96
0
ARC
8
BLACK
10
149.765
20
-174.96
40
0.5
50
180
51
270
0
ARC
8
BLACK
10
149.765
20
-161.96
40
0.5
50
90
51
180
0
LINE
8
BLACK
6
CONTINUOUS
10
92.615
20
-175.46
11
105.615
21
-175.46
0
ARC
8
BLACK
10
86.565
20
-174.96
40
0.5
50
-90
51
-0
0
LINE
8
BLACK
6
CONTINUOUS
10
87.065
20
-161.96
11
87.065
21
-174.96
0
ARC
8
BLACK
10
111.665
20
-161.96
40
0.5
50
90
51
180
0
ARC
8
BLACK
10
73.565
20
-174.96
40
0.5
50
180
51
270
0
LINE
8
BLACK
6
CONTINUOUS
10
47.3712
20
-175.46
11
60.3712
21
-175.46
0
ARC
8
BLACK
10
187.865
20
-174.96
40
0.5
50
180
51
270
0
ARC
8
BLACK
10
124.665
20
-161.96
40
0.5
50
-0
51
90
0
LINE
8
BLACK
6
CONTINUOUS
10
168.815
20
-161.46
11
181.815
21
-161.46
0
ARC
8
BLACK
10
200.865
20
-161.96
40
0.5
50
-0
51
90
0
LINE
8
BLACK
6
CONTINUOUS
10
363.29
20
-200.06
11
363.29
21
-213.06
0
ARC
8
BLACK
10
368.84
20
-200.06
40
0.5
50
90
51
180
0
ARC
8
BLACK
10
362.79
20
-200.06
40
0.5
50
-0
51
90
0
ARC
8
BLACK
10
343.74
20
-213.06
40
0.5
50
-90
51
-0
0
LINE
8
BLACK
6
CONTINUOUS
10
349.79
20
-199.56
11
362.79
21
-199.56
0
ARC
8
BLACK
10
368.84
20
-213.06
40
0.5
50
180
51
270
0
LINE
8
BLACK
6
CONTINUOUS
10
368.84
20
-213.56
11
381.84
21
-213.56
0
LINE
8
BLACK
6
CONTINUOUS
10
368.84
20
-199.56
11
381.84
21
-199.56
0
ARC
8
BLACK
10
381.84
20
-200.06
40
0.5
50
-0
51
90
0
LINE
8
BLACK
6
CONTINUOUS
10
382.34
20
-200.06
11
382.34
21
-213.06
0
ARC
8
BLACK
10
349.79
20
-200.06
40
0.5
50
90
51
180
0
ARC
8
BLACK
10
381.84
20
-213.06
40
0.5
50
-90
51
-0
0
ARC
8
BLACK
10
362.79
20
-213.06
40
0.5
50
-90
51
-0
0
ARC
8
BLACK
10
349.79
20
-213.06
40
0.5
50
180
51
270
0
LINE
8
BLACK
6
CONTINUOUS
10
349.79
20
-213.56
11
362.79
21
-213.56
0
LINE
8
BLACK
6
CONTINUOUS
10
349.29
20
-200.06
11
349.29
21
-213.06
0
LINE
8
BLACK
6
CONTINUOUS
10
368.34
20
-200.06
11
368.34
21
-213.06
0
ARC
8
BLACK
10
233.109
20
-200.06
40
0.5
50
90
51
180
0
LINE
8
BLACK
6
CONTINUOUS
10
233.109
20
-199.56
11
246.109
21
-199.56
0
ARC
8
BLACK
10
246.109
20
-200.06
40
0.5
50
-0
51
90
0
LINE
8
BLACK
6
CONTINUOUS
10
121.721
20
-198.5
11
121.721
21
-212.5
0
LINE
8
BLACK
6
CONTINUOUS
10
304.546
20
-199.56
11
317.546
21
-199.56
0
ARC
8
BLACK
10
343.74
20
-200.06
40
0.5
50
-0
51
90
0
LINE
8
BLACK
6
CONTINUOUS
10
344.24
20
-200.06
11
344.24
21
-213.06
0
LINE
8
BLACK
6
CONTINUOUS
10
330.24
20
-200.06
11
330.24
21
-213.06
0
LINE
8
BLACK
6
CONTINUOUS
10
330.74
20
-213.56
11
343.74
21
-213.56
0
LINE
8
BLACK
6
CONTINUOUS
10
330.74
20
-199.56
11
343.74
21
-199.56
0
LINE
8
BLACK
6
CONTINUOUS
10
280.734
20
-213.56
11
293.734
21
-213.56
0
ARC
8
BLACK
10
256.921
20
-200.06
40
0.5
50
90
51
180
0
LINE
8
BLACK
6
CONTINUOUS
10
256.421
20
-200.06
11
256.421
21
-213.06
0
ARC
8
BLACK
10
121.221
20
-198.5
40
0.5
50
-0
51
90
0
ARC
8
BLACK
10
221.151
20
-212.5
40
0.5
50
-90
51
-0
0
ARC
8
BLACK
10
174.671
20
-213.06
40
0.5
50
-90
51
-0
0
LINE
8
BLACK
6
CONTINUOUS
10
233.109
20
-213.56
11
246.109
21
-213.56
0
ARC
8
BLACK
10
246.109
20
-213.06
40
0.5
50
-90
51
-0
0
ARC
8
BLACK
10
115.221
20
-212.5
40
0.5
50
180
51
270
0
LINE
8
BLACK
6
CONTINUOUS
10
114.721
20
-198.5
11
114.721
21
-212.5
0
LINE
8
BLACK
6
CONTINUOUS
10
232.609
20
-200.06
11
232.609
21
-213.06
0
LINE
8
BLACK
6
CONTINUOUS
10
246.609
20
-200.06
11
246.609
21
-213.06
0
LINE
8
BLACK
6
CONTINUOUS
10
256.921
20
-199.56
11
269.921
21
-199.56
0
ARC
8
BLACK
10
215.151
20
-198.5
40
0.5
50
90
51
180
0
ARC
8
BLACK
10
233.109
20
-213.06
40
0.5
50
180
51
270
0
LINE
8
BLACK
6
CONTINUOUS
10
115.221
20
-198
11
121.221
21
-198
0
LINE
8
BLACK
6
CONTINUOUS
10
161.671
20
-213.56
11
174.671
21
-213.56
0
LINE
8
BLACK
6
CONTINUOUS
10
215.151
20
-198
11
221.151
21
-198
0
ARC
8
BLACK
10
304.546
20
-213.06
40
0.5
50
180
51
270
0
LINE
8
BLACK
6
CONTINUOUS
10
318.046
20
-200.06
11
318.046
21
-213.06
0
LINE
8
BLACK
6
CONTINUOUS
10
280.234
20
-200.06
11
280.234
21
-213.06
0
ARC
8
BLACK
10
215.151
20
-212.5
40
0.5
50
180
51
270
0
ARC
8
BLACK
10
269.921
20
-200.06
40
0.5
50
-0
51
90
0
ARC
8
BLACK
10
115.221
20
-198.5
40
0.5
50
90
51
180
0
ARC
8
BLACK
10
293.734
20
-200.06
40
0.5
50
-0
51
90
0
LINE
8
BLACK
6
CONTINUOUS
10
280.734
20
-199.56
11
293.734
21
-199.56
0
ARC
8
BLACK
10
269.921
20
-213.06
40
0.5
50
-90
51
-0
0
LINE
8
BLACK
6
CONTINUOUS
10
161.671
20
-199.56
11
174.671
21
-199.56
0
ARC
8
BLACK
10
121.221
20
-212.5
40
0.5
50
-90
51
-0
0
ARC
8
BLACK
10
174.671
20
-200.06
40
0.5
50
-0
51
90
0
LINE
8
BLACK
6
CONTINUOUS
10
221.651
20
-198.5
11
221.651
21
-212.5
0
ARC
8
BLACK
10
280.734
20
-200.06
40
0.5
50
90
51
180
0
LINE
8
BLACK
6
CONTINUOUS
10
175.171
20
-200.06
11
175.171
21
-213.06
0
ARC
8
BLACK
10
330.74
20
-213.06
40
0.5
50
180
51
270
0
ARC
8
BLACK
10
330.74
20
-200.06
40
0.5
50
90
51
180
0
ARC
8
BLACK
10
304.546
20
-200.06
40
0.5
50
90
51
180
0
LINE
8
BLACK
6
CONTINUOUS
10
215.151
20
-213
11
221.151
21
-213
0
ARC
8
BLACK
10
161.671
20
-213.06
40
0.5
50
180
51
270
0
LINE
8
BLACK
6
CONTINUOUS
10
304.046
20
-200.06
11
304.046
21
-213.06
0
ARC
8
BLACK
10
317.546
20
-213.06
40
0.5
50
-90
51
-0
0
ARC
8
BLACK
10
317.546
20
-200.06
40
0.5
50
-0
51
90
0
LINE
8
BLACK
6
CONTINUOUS
10
115.221
20
-213
11
121.221
21
-213
0
LINE
8
BLACK
6
CONTINUOUS
10
161.171
20
-200.06
11
161.171
21
-213.06
0
ARC
8
BLACK
10
221.151
20
-198.5
40
0.5
50
-0
51
90
0
LINE
8
BLACK
6
CONTINUOUS
10
304.546
20
-213.56
11
317.546
21
-213.56
0
ARC
8
BLACK
10
103.234
20
-213.06
40
0.5
50
-90
51
-0
0
LINE
8
BLACK
6
CONTINUOUS
10
214.651
20
-198.5
11
214.651
21
-212.5
0
ARC
8
BLACK
10
256.921
20
-213.06
40
0.5
50
180
51
270
0
ARC
8
BLACK
10
293.734
20
-213.06
40
0.5
50
-90
51
-0
0
ARC
8
BLACK
10
280.734
20
-213.06
40
0.5
50
180
51
270
0
LINE
8
BLACK
6
CONTINUOUS
10
294.234
20
-200.06
11
294.234
21
-213.06
0
ARC
8
BLACK
10
161.671
20
-200.06
40
0.5
50
90
51
180
0
LINE
8
BLACK
6
CONTINUOUS
10
270.421
20
-200.06
11
270.421
21
-213.06
0
LINE
8
BLACK
6
CONTINUOUS
10
256.921
20
-213.56
11
269.921
21
-213.56
0
ARC
8
BLACK
10
290.259
20
-194.01
40
0.5
50
180
51
270
0
LINE
8
BLACK
6
CONTINUOUS
10
281.321
20
-182.01
11
281.321
21
-196.01
0
LINE
8
BLACK
6
CONTINUOUS
10
290.259
20
-194.51
11
303.259
21
-194.51
0
LINE
8
BLACK
6
CONTINUOUS
10
103.734
20
-200.06
11
103.734
21
-213.06
0
LINE
8
BLACK
6
CONTINUOUS
10
89.7338
20
-200.06
11
89.7338
21
-213.06
0
ARC
8
BLACK
10
311.697
20
-196.01
40
0.5
50
-90
51
-0
0
LINE
8
BLACK
6
CONTINUOUS
10
90.2338
20
-213.56
11
103.234
21
-213.56
0
LINE
8
BLACK
6
CONTINUOUS
10
90.2338
20
-199.56
11
103.234
21
-199.56
0
ARC
8
BLACK
10
66.4213
20
-213.06
40
0.5
50
180
51
270
0
ARC
8
BLACK
10
42.6088
20
-213.06
40
0.5
50
180
51
270
0
LINE
8
BLACK
6
CONTINUOUS
10
281.821
20
-181.51
11
287.821
21
-181.51
0
ARC
8
BLACK
10
305.697
20
-182.01
40
0.5
50
90
51
180
0
LINE
8
BLACK
6
CONTINUOUS
10
303.759
20
-181.01
11
303.759
21
-194.01
0
ARC
8
BLACK
10
79.4213
20
-213.06
40
0.5
50
-90
51
-0
0
LINE
8
BLACK
6
CONTINUOUS
10
65.9213
20
-200.06
11
65.9213
21
-213.06
0
LINE
8
BLACK
6
CONTINUOUS
10
66.4213
20
-199.56
11
79.4213
21
-199.56
0
ARC
8
BLACK
10
362.79
20
-194.01
40
0.5
50
-90
51
-0
0
ARC
8
BLACK
10
303.259
20
-194.01
40
0.5
50
-90
51
-0
0
ARC
8
BLACK
10
254.54
20
-181.01
40
0.5
50
90
51
180
0
ARC
8
BLACK
10
362.79
20
-181.01
40
0.5
50
-0
51
90
0
LINE
8
BLACK
6
CONTINUOUS
10
363.29
20
-181.01
11
363.29
21
-194.01
0
ARC
8
BLACK
10
287.821
20
-196.01
40
0.5
50
-90
51
-0
0
ARC
8
BLACK
10
287.821
20
-182.01
40
0.5
50
-0
51
90
0
ARC
8
BLACK
10
281.821
20
-182.01
40
0.5
50
90
51
180
0
ARC
8
BLACK
10
290.259
20
-181.01
40
0.5
50
90
51
180
0
ARC
8
BLACK
10
254.54
20
-194.01
40
0.5
50
180
51
270
0
LINE
8
BLACK
6
CONTINUOUS
10
288.321
20
-182.01
11
288.321
21
-196.01
0
LINE
8
BLACK
6
CONTINUOUS
10
254.54
20
-194.51
11
267.54
21
-194.51
0
LINE
8
BLACK
6
CONTINUOUS
10
305.697
20
-181.51
11
311.697
21
-181.51
0
LINE
8
BLACK
6
CONTINUOUS
10
254.54
20
-180.51
11
267.54
21
-180.51
0
ARC
8
BLACK
10
303.259
20
-181.01
40
0.5
50
-0
51
90
0
LINE
8
BLACK
6
CONTINUOUS
10
289.759
20
-181.01
11
289.759
21
-194.01
0
ARC
8
BLACK
10
267.54
20
-181.01
40
0.5
50
-0
51
90
0
LINE
8
BLACK
6
CONTINUOUS
10
268.04
20
-181.01
11
268.04
21
-194.01
0
LINE
8
BLACK
6
CONTINUOUS
10
290.259
20
-180.51
11
303.259
21
-180.51
0
ARC
8
BLACK
10
305.697
20
-196.01
40
0.5
50
180
51
270
0
ARC
8
BLACK
10
267.54
20
-194.01
40
0.5
50
-90
51
-0
0
ARC
8
BLACK
10
66.4213
20
-200.06
40
0.5
50
90
51
180
0
ARC
8
BLACK
10
55.6088
20
-213.06
40
0.5
50
-90
51
-0
0
ARC
8
BLACK
10
311.697
20
-182.01
40
0.5
50
-0
51
90
0
LINE
8
BLACK
6
CONTINUOUS
10
42.1088
20
-200.06
11
42.1088
21
-213.06
0
LINE
8
BLACK
6
CONTINUOUS
10
349.29
20
-181.01
11
349.29
21
-194.01
0
ARC
8
BLACK
10
349.79
20
-181.01
40
0.5
50
90
51
180
0
LINE
8
BLACK
6
CONTINUOUS
10
42.6088
20
-213.56
11
55.6088
21
-213.56
0
ARC
8
BLACK
10
248.49
20
-194.01
40
0.5
50
-90
51
-0
0
ARC
8
BLACK
10
42.6088
20
-200.06
40
0.5
50
90
51
180
0
ARC
8
BLACK
10
281.821
20
-196.01
40
0.5
50
180
51
270
0
LINE
8
BLACK
6
CONTINUOUS
10
281.821
20
-196.51
11
287.821
21
-196.51
0
LINE
8
BLACK
6
CONTINUOUS
10
305.197
20
-182.01
11
305.197
21
-196.01
0
LINE
8
BLACK
6
CONTINUOUS
10
305.697
20
-196.51
11
311.697
21
-196.51
0
LINE
8
BLACK
6
CONTINUOUS
10
349.79
20
-180.51
11
362.79
21
-180.51
0
LINE
8
BLACK
6
CONTINUOUS
10
79.9213
20
-200.06
11
79.9213
21
-213.06
0
LINE
8
BLACK
6
CONTINUOUS
10
66.4213
20
-213.56
11
79.4213
21
-213.56
0
LINE
8
BLACK
6
CONTINUOUS
10
56.1088
20
-200.06
11
56.1088
21
-213.06
0
LINE
8
BLACK
6
CONTINUOUS
10
254.04
20
-181.01
11
254.04
21
-194.01
0
ARC
8
BLACK
10
349.79
20
-194.01
40
0.5
50
180
51
270
0
LINE
8
BLACK
6
CONTINUOUS
10
42.6088
20
-199.56
11
55.6088
21
-199.56
0
ARC
8
BLACK
10
79.4213
20
-200.06
40
0.5
50
-0
51
90
0
ARC
8
BLACK
10
55.6088
20
-200.06
40
0.5
50
-0
51
90
0
ARC
8
BLACK
10
90.2338
20
-213.06
40
0.5
50
180
51
270
0
LINE
8
BLACK
6
CONTINUOUS
10
312.197
20
-182.01
11
312.197
21
-196.01
0
ARC
8
BLACK
10
103.234
20
-200.06
40
0.5
50
-0
51
90
0
ARC
8
BLACK
10
90.2338
20
-200.06
40
0.5
50
90
51
180
0
LINE
8
BLACK
6
CONTINUOUS
10
349.79
20
-194.51
11
362.79
21
-194.51
0
ARC
8
BLACK
10
140.24
20
-181.01
40
0.5
50
90
51
180
0
LINE
8
BLACK
6
CONTINUOUS
10
140.24
20
-180.51
11
153.24
21
-180.51
0
ARC
8
BLACK
10
153.24
20
-181.01
40
0.5
50
-0
51
90
0
LINE
8
BLACK
6
CONTINUOUS
10
134.69
20
-181.01
11
134.69
21
-194.01
0
LINE
8
BLACK
6
CONTINUOUS
10
197.39
20
-180.51
11
210.39
21
-180.51
0
ARC
8
BLACK
10
235.49
20
-181.01
40
0.5
50
90
51
180
0
LINE
8
BLACK
6
CONTINUOUS
10
235.49
20
-180.51
11
248.49
21
-180.51
0
ARC
8
BLACK
10
229.44
20
-194.01
40
0.5
50
-90
51
-0
0
ARC
8
BLACK
10
229.44
20
-181.01
40
0.5
50
-0
51
90
0
LINE
8
BLACK
6
CONTINUOUS
10
216.44
20
-194.51
11
229.44
21
-194.51
0
LINE
8
BLACK
6
CONTINUOUS
10
216.44
20
-180.51
11
229.44
21
-180.51
0
LINE
8
BLACK
6
CONTINUOUS
10
178.34
20
-194.51
11
191.34
21
-194.51
0
ARC
8
BLACK
10
159.29
20
-181.01
40
0.5
50
90
51
180
0
ARC
8
BLACK
10
134.19
20
-181.01
40
0.5
50
-0
51
90
0
ARC
8
BLACK
10
115.14
20
-194.01
40
0.5
50
-90
51
-0
0
ARC
8
BLACK
10
96.09
20
-194.01
40
0.5
50
-90
51
-0
0
LINE
8
BLACK
6
CONTINUOUS
10
140.24
20
-194.51
11
153.24
21
-194.51
0
ARC
8
BLACK
10
153.24
20
-194.01
40
0.5
50
-90
51
-0
0
ARC
8
BLACK
10
121.19
20
-194.01
40
0.5
50
180
51
270
0
LINE
8
BLACK
6
CONTINUOUS
10
120.69
20
-181.01
11
120.69
21
-194.01
0
LINE
8
BLACK
6
CONTINUOUS
10
139.74
20
-181.01
11
139.74
21
-194.01
0
LINE
8
BLACK
6
CONTINUOUS
10
153.74
20
-181.01
11
153.74
21
-194.01
0
LINE
8
BLACK
6
CONTINUOUS
10
158.79
20
-181.01
11
158.79
21
-194.01
0
ARC
8
BLACK
10
102.14
20
-181.01
40
0.5
50
90
51
180
0
ARC
8
BLACK
10
140.24
20
-194.01
40
0.5
50
180
51
270
0
LINE
8
BLACK
6
CONTINUOUS
10
159.29
20
-180.51
11
172.29
21
-180.51
0
LINE
8
BLACK
6
CONTINUOUS
10
121.19
20
-180.51
11
134.19
21
-180.51
0
LINE
8
BLACK
6
CONTINUOUS
10
102.14
20
-180.51
11
115.14
21
-180.51
0
LINE
8
BLACK
6
CONTINUOUS
10
215.94
20
-181.01
11
215.94
21
-194.01
0
ARC
8
BLACK
10
197.39
20
-194.01
40
0.5
50
180
51
270
0
LINE
8
BLACK
6
CONTINUOUS
10
177.84
20
-181.01
11
177.84
21
-194.01
0
ARC
8
BLACK
10
102.14
20
-194.01
40
0.5
50
180
51
270
0
ARC
8
BLACK
10
172.29
20
-181.01
40
0.5
50
-0
51
90
0
ARC
8
BLACK
10
121.19
20
-181.01
40
0.5
50
90
51
180
0
ARC
8
BLACK
10
191.34
20
-181.01
40
0.5
50
-0
51
90
0
LINE
8
BLACK
6
CONTINUOUS
10
229.94
20
-181.01
11
229.94
21
-194.01
0
ARC
8
BLACK
10
235.49
20
-194.01
40
0.5
50
180
51
270
0
LINE
8
BLACK
6
CONTINUOUS
10
178.34
20
-180.51
11
191.34
21
-180.51
0
ARC
8
BLACK
10
172.29
20
-194.01
40
0.5
50
-90
51
-0
0
ARC
8
BLACK
10
134.19
20
-194.01
40
0.5
50
-90
51
-0
0
LINE
8
BLACK
6
CONTINUOUS
10
115.64
20
-181.01
11
115.64
21
-194.01
0
ARC
8
BLACK
10
178.34
20
-181.01
40
0.5
50
90
51
180
0
LINE
8
BLACK
6
CONTINUOUS
10
210.89
20
-181.01
11
210.89
21
-194.01
0
ARC
8
BLACK
10
248.49
20
-181.01
40
0.5
50
-0
51
90
0
LINE
8
BLACK
6
CONTINUOUS
10
235.49
20
-194.51
11
248.49
21
-194.51
0
LINE
8
BLACK
6
CONTINUOUS
10
234.99
20
-181.01
11
234.99
21
-194.01
0
ARC
8
BLACK
10
197.39
20
-181.01
40
0.5
50
90
51
180
0
LINE
8
BLACK
6
CONTINUOUS
10
102.14
20
-194.51
11
115.14
21
-194.51
0
LINE
8
BLACK
6
CONTINUOUS
10
196.89
20
-181.01
11
196.89
21
-194.01
0
ARC
8
BLACK
10
216.44
20
-181.01
40
0.5
50
90
51
180
0
LINE
8
BLACK
6
CONTINUOUS
10
248.99
20
-181.01
11
248.99
21
-194.01
0
ARC
8
BLACK
10
216.44
20
-194.01
40
0.5
50
180
51
270
0
LINE
8
BLACK
6
CONTINUOUS
10
121.19
20
-194.51
11
134.19
21
-194.51
0
ARC
8
BLACK
10
115.14
20
-181.01
40
0.5
50
-0
51
90
0
ARC
8
BLACK
10
210.39
20
-194.01
40
0.5
50
-90
51
-0
0
ARC
8
BLACK
10
210.39
20
-181.01
40
0.5
50
-0
51
90
0
LINE
8
BLACK
6
CONTINUOUS
10
101.64
20
-181.01
11
101.64
21
-194.01
0
ARC
8
BLACK
10
159.29
20
-194.01
40
0.5
50
180
51
270
0
LINE
8
BLACK
6
CONTINUOUS
10
197.39
20
-194.51
11
210.39
21
-194.51
0
ARC
8
BLACK
10
191.34
20
-194.01
40
0.5
50
-90
51
-0
0
ARC
8
BLACK
10
178.34
20
-194.01
40
0.5
50
180
51
270
0
LINE
8
BLACK
6
CONTINUOUS
10
191.84
20
-181.01
11
191.84
21
-194.01
0
LINE
8
BLACK
6
CONTINUOUS
10
172.79
20
-181.01
11
172.79
21
-194.01
0
LINE
8
BLACK
6
CONTINUOUS
10
159.29
20
-194.51
11
172.29
21
-194.51
0
LINE
8
BLACK
6
CONTINUOUS
10
206.415
20
-161.96
11
206.415
21
-174.96
0
LINE
8
BLACK
6
CONTINUOUS
10
96.59
20
-181.01
11
96.59
21
-194.01
0
ARC
8
BLACK
10
42.6088
20
-181.01
40
0.5
50
90
51
180
0
LINE
8
BLACK
6
CONTINUOUS
10
82.59
20
-181.01
11
82.59
21
-194.01
0
LINE
8
BLACK
6
CONTINUOUS
10
83.09
20
-194.51
11
96.09
21
-194.51
0
LINE
8
BLACK
6
CONTINUOUS
10
83.09
20
-180.51
11
96.09
21
-180.51
0
ARC
8
BLACK
10
77.04
20
-181.01
40
0.5
50
-0
51
90
0
ARC
8
BLACK
10
245.015
20
-174.96
40
0.5
50
180
51
270
0
ARC
8
BLACK
10
238.965
20
-174.96
40
0.5
50
-90
51
-0
0
ARC
8
BLACK
10
42.6088
20
-194.01
40
0.5
50
180
51
270
0
ARC
8
BLACK
10
258.015
20
-174.96
40
0.5
50
-90
51
-0
0
LINE
8
BLACK
6
CONTINUOUS
10
258.515
20
-161.96
11
258.515
21
-174.96
0
LINE
8
BLACK
6
CONTINUOUS
10
283.115
20
-161.46
11
303.548
21
-161.46
0
LINE
8
BLACK
6
CONTINUOUS
10
245.015
20
-175.46
11
258.015
21
-175.46
0
ARC
8
BLACK
10
77.04
20
-194.01
40
0.5
50
-90
51
-0
0
ARC
8
BLACK
10
206.915
20
-161.96
40
0.5
50
90
51
180
0
LINE
8
BLACK
6
CONTINUOUS
10
77.54
20
-181.01
11
77.54
21
-194.01
0
LINE
8
BLACK
6
CONTINUOUS
10
206.915
20
-161.46
11
219.915
21
-161.46
0
LINE
8
BLACK
6
CONTINUOUS
10
263.565
20
-161.96
11
263.565
21
-174.96
0
LINE
8
BLACK
6
CONTINUOUS
10
283.115
20
-175.46
11
285.597
21
-175.461
0
ARC
8
BLACK
10
245.015
20
-161.96
40
0.5
50
90
51
180
0
ARC
8
BLACK
10
206.915
20
-174.96
40
0.5
50
180
51
270
0
LINE
8
BLACK
6
CONTINUOUS
10
42.1088
20
-181.01
11
42.1088
21
-194.01
0
LINE
8
BLACK
6
CONTINUOUS
10
225.965
20
-161.46
11
238.965
21
-161.46
0
ARC
8
BLACK
10
283.115
20
-174.96
40
0.5
50
180
51
270
0
ARC
8
BLACK
10
283.115
20
-161.96
40
0.5
50
90
51
180
0
LINE
8
BLACK
6
CONTINUOUS
10
264.065
20
-175.46
11
277.065
21
-175.46
0
ARC
8
BLACK
10
264.065
20
-174.96
40
0.5
50
180
51
270
0
ARC
8
BLACK
10
264.065
20
-161.96
40
0.5
50
90
51
180
0
LINE
8
BLACK
6
CONTINUOUS
10
239.465
20
-161.96
11
239.465
21
-174.96
0
LINE
8
BLACK
6
CONTINUOUS
10
220.415
20
-161.96
11
220.415
21
-174.96
0
ARC
8
BLACK
10
219.915
20
-161.96
40
0.5
50
-0
51
90
0
LINE
8
BLACK
6
CONTINUOUS
10
225.465
20
-161.96
11
225.465
21
-174.96
0
LINE
8
BLACK
6
CONTINUOUS
10
282.615
20
-161.96
11
282.615
21
-174.96
0
ARC
8
BLACK
10
277.065
20
-174.96
40
0.5
50
-90
51
-0
0
ARC
8
BLACK
10
238.965
20
-161.96
40
0.5
50
-0
51
90
0
LINE
8
BLACK
6
CONTINUOUS
10
245.015
20
-161.46
11
258.015
21
-161.46
0
ARC
8
BLACK
10
200.865
20
-174.96
40
0.5
50
-90
51
-0
0
LINE
8
BLACK
6
CONTINUOUS
10
206.915
20
-175.46
11
219.915
21
-175.46
0
LINE
8
BLACK
6
CONTINUOUS
10
277.565
20
-161.96
11
277.565
21
-174.96
0
LINE
8
BLACK
6
CONTINUOUS
10
264.065
20
-161.46
11
277.065
21
-161.46
0
ARC
8
BLACK
10
225.965
20
-161.96
40
0.5
50
90
51
180
0
LINE
8
BLACK
6
CONTINUOUS
10
244.515
20
-161.96
11
244.515
21
-174.96
0
ARC
8
BLACK
10
219.915
20
-174.96
40
0.5
50
-90
51
-0
0
LINE
8
BLACK
6
CONTINUOUS
10
225.965
20
-175.46
11
238.965
21
-175.46
0
ARC
8
BLACK
10
83.09
20
-194.01
40
0.5
50
180
51
270
0
ARC
8
BLACK
10
225.965
20
-174.96
40
0.5
50
180
51
270
0
ARC
8
BLACK
10
83.09
20
-181.01
40
0.5
50
90
51
180
0
ARC
8
BLACK
10
277.065
20
-161.96
40
0.5
50
-0
51
90
0
ARC
8
BLACK
10
258.015
20
-161.96
40
0.5
50
-0
51
90
0
ARC
8
BLACK
10
96.09
20
-181.01
40
0.5
50
-0
51
90
0
ARC
8
BLACK
10
386.525
20
-62.685
40
3
50
-0
51
90
0
ARC
8
BLACK
10
37.925
20
-62.685
40
3
50
90
51
180
0
ARC
8
BLACK
10
37.925
20
-212.785
40
3
50
180
51
270
0
ARC
8
BLACK
10
386.525
20
-212.785
40
3
50
-90
51
-0
0
LINE
8
BLACK
6
CONTINUOUS
10
34.925
20
-212.785
11
34.925
21
-62.685
0
LINE
8
BLACK
6
CONTINUOUS
10
386.525
20
-215.785
11
37.925
21
-215.785
  0
ENDSEC
  0
EOF
