G04 #@! TF.GenerationSoftware,KiCad,Pcbnew,(5.1.9)-1*
G04 #@! TF.CreationDate,2021-05-22T18:04:56+01:00*
G04 #@! TF.ProjectId,ENV_KB-Top,454e565f-4b42-42d5-946f-702e6b696361,Rev.1*
G04 #@! TF.SameCoordinates,Original*
G04 #@! TF.FileFunction,Profile,NP*
%FSLAX46Y46*%
G04 Gerber Fmt 4.6, Leading zero omitted, Abs format (unit mm)*
G04 Created by KiCad (PCBNEW (5.1.9)-1) date 2021-05-22 18:04:56*
%MOMM*%
%LPD*%
G01*
G04 APERTURE LIST*
G04 #@! TA.AperFunction,Profile*
%ADD10C,0.100000*%
G04 #@! TD*
G04 APERTURE END LIST*
D10*
X382025000Y-88785000D02*
G75*
G02*
X379025000Y-91785000I-3000000J0D01*
G01*
X382025000Y-62685000D02*
X382025000Y-88785000D01*
X45425000Y-91785000D02*
X379025000Y-91785000D01*
X45425000Y-91785000D02*
G75*
G02*
X42425000Y-88785000I0J3000000D01*
G01*
X42425000Y-62685000D02*
X42425000Y-88785000D01*
X39425000Y-59685000D02*
G75*
G02*
X42425000Y-62685000I0J-3000000D01*
G01*
X382025000Y-62685000D02*
G75*
G02*
X385025000Y-59685000I3000000J0D01*
G01*
X386525000Y-59685000D02*
X385025000Y-59685000D01*
X37925000Y-59685000D02*
X39425000Y-59685000D01*
X389525000Y-62685000D02*
X389525000Y-212785000D01*
X50210750Y-195010000D02*
G75*
G02*
X50710750Y-194510000I500000J0D01*
G01*
X42608750Y-180510000D02*
X77040000Y-180510000D01*
X309974500Y-175961000D02*
X309974500Y-176960000D01*
X317046250Y-166430940D02*
G75*
G02*
X317546250Y-165930940I500000J0D01*
G01*
X293098320Y-175961020D02*
G75*
G02*
X293598320Y-175461020I500000J0D01*
G01*
X293098250Y-176960000D02*
X293098320Y-175961020D01*
X285597320Y-175461020D02*
G75*
G02*
X286097320Y-175961020I0J-500000D01*
G01*
X286098250Y-176960000D02*
X286097320Y-175961020D01*
X304047500Y-160959780D02*
X304047500Y-156870000D01*
X304047500Y-160959780D02*
G75*
G02*
X303547500Y-161459780I-500000J0D01*
G01*
X303547500Y-156370000D02*
X302147500Y-156370000D01*
X302147500Y-156370000D02*
G75*
G02*
X301647500Y-155870000I0J500000D01*
G01*
X303547500Y-156370000D02*
G75*
G02*
X304047500Y-156870000I0J-500000D01*
G01*
X316150000Y-151935000D02*
G75*
G02*
X315650000Y-151435000I0J500000D01*
G01*
X316546250Y-150497000D02*
X316150000Y-150497000D01*
X315650000Y-150997000D02*
G75*
G02*
X316150000Y-150497000I500000J0D01*
G01*
X316150000Y-143500000D02*
G75*
G02*
X315650000Y-143000000I0J500000D01*
G01*
X315650000Y-151435000D02*
X315650000Y-150997000D01*
X315150000Y-142380000D02*
G75*
G02*
X315650000Y-142880000I0J-500000D01*
G01*
X301647500Y-155870000D02*
X301650000Y-142880000D01*
X315650000Y-142880000D02*
X315650000Y-143000000D01*
X302150000Y-142380000D02*
X315150000Y-142380000D01*
X74086750Y-195010000D02*
G75*
G02*
X74586750Y-194510000I500000J0D01*
G01*
X77040000Y-194510000D02*
X74586750Y-194510000D01*
X74086750Y-196010000D02*
X74086750Y-195010000D01*
X67086750Y-195010000D02*
X67086750Y-196010000D01*
X66586750Y-194510000D02*
G75*
G02*
X67086750Y-195010000I0J-500000D01*
G01*
X66586750Y-194510000D02*
X50710750Y-194510000D01*
X50210750Y-196010000D02*
X50210750Y-195010000D01*
X43210750Y-195010000D02*
X43210750Y-196010000D01*
X42608750Y-194510000D02*
X42710750Y-194510000D01*
X42710750Y-194510000D02*
G75*
G02*
X43210750Y-195010000I0J-500000D01*
G01*
X43710750Y-196510000D02*
X49710750Y-196510000D01*
X293098250Y-176960000D02*
G75*
G02*
X292598250Y-177460000I-500000J0D01*
G01*
X317046250Y-176959240D02*
G75*
G02*
X316546250Y-177459240I-500000J0D01*
G01*
X67586750Y-196510000D02*
G75*
G02*
X67086750Y-196010000I0J500000D01*
G01*
X74086750Y-196010000D02*
G75*
G02*
X73586750Y-196510000I-500000J0D01*
G01*
X286598250Y-177460000D02*
X292598250Y-177460000D01*
X67586750Y-196510000D02*
X73586750Y-196510000D01*
X310474250Y-177460000D02*
G75*
G02*
X309974250Y-176960000I0J500000D01*
G01*
X50210750Y-196010000D02*
G75*
G02*
X49710750Y-196510000I-500000J0D01*
G01*
X43710750Y-196510000D02*
G75*
G02*
X43210750Y-196010000I0J500000D01*
G01*
X286598250Y-177460000D02*
G75*
G02*
X286098250Y-176960000I0J500000D01*
G01*
X309474500Y-175461000D02*
G75*
G02*
X309974500Y-175961000I0J-500000D01*
G01*
X310476100Y-177459620D02*
X316546250Y-177459240D01*
X293598320Y-175461020D02*
X309474500Y-175461000D01*
X316546250Y-143497000D02*
X316150000Y-143500000D01*
X277852500Y-142910000D02*
G75*
G02*
X278352500Y-142410000I500000J0D01*
G01*
X291852500Y-155910000D02*
G75*
G02*
X291352500Y-156410000I-500000J0D01*
G01*
X349290000Y-142910000D02*
X349290000Y-155910000D01*
X344240000Y-155910000D02*
G75*
G02*
X343740000Y-156410000I-500000J0D01*
G01*
X317046250Y-166430940D02*
X317046250Y-176959240D01*
X363290000Y-155910000D02*
G75*
G02*
X362790000Y-156410000I-500000J0D01*
G01*
X301650000Y-142880000D02*
G75*
G02*
X302150000Y-142380000I500000J0D01*
G01*
X317546250Y-151935000D02*
X316150000Y-151935000D01*
X362790000Y-142410000D02*
G75*
G02*
X363290000Y-142910000I0J-500000D01*
G01*
X363290000Y-142910000D02*
X363290000Y-155910000D01*
X316546250Y-143497000D02*
G75*
G02*
X317046250Y-143997000I0J-500000D01*
G01*
X317046250Y-143997000D02*
X317046250Y-149997000D01*
X318046250Y-165430940D02*
G75*
G02*
X317546250Y-165930940I-500000J0D01*
G01*
X344240000Y-142910000D02*
X344240000Y-155910000D01*
X330740000Y-156410000D02*
X343740000Y-156410000D01*
X317046250Y-149997000D02*
G75*
G02*
X316546250Y-150497000I-500000J0D01*
G01*
X318046250Y-152435000D02*
X318046250Y-165430940D01*
X291352500Y-142410000D02*
G75*
G02*
X291852500Y-142910000I0J-500000D01*
G01*
X349290000Y-142910000D02*
G75*
G02*
X349790000Y-142410000I500000J0D01*
G01*
X278352500Y-156410000D02*
G75*
G02*
X277852500Y-155910000I0J500000D01*
G01*
X330740000Y-156410000D02*
G75*
G02*
X330240000Y-155910000I0J500000D01*
G01*
X317546250Y-151935000D02*
G75*
G02*
X318046250Y-152435000I0J-500000D01*
G01*
X349790000Y-156410000D02*
X362790000Y-156410000D01*
X330240000Y-142910000D02*
X330240000Y-155910000D01*
X368840000Y-142410000D02*
X381840000Y-142410000D01*
X368840000Y-156410000D02*
G75*
G02*
X368340000Y-155910000I0J500000D01*
G01*
X381840000Y-142410000D02*
G75*
G02*
X382340000Y-142910000I0J-500000D01*
G01*
X343740000Y-142410000D02*
G75*
G02*
X344240000Y-142910000I0J-500000D01*
G01*
X368340000Y-142910000D02*
G75*
G02*
X368840000Y-142410000I500000J0D01*
G01*
X349790000Y-156410000D02*
G75*
G02*
X349290000Y-155910000I0J500000D01*
G01*
X382340000Y-142910000D02*
X382340000Y-155910000D01*
X330740000Y-142410000D02*
X343740000Y-142410000D01*
X368340000Y-142910000D02*
X368340000Y-155910000D01*
X368840000Y-156410000D02*
X381840000Y-156410000D01*
X349790000Y-142410000D02*
X362790000Y-142410000D01*
X330240000Y-142910000D02*
G75*
G02*
X330740000Y-142410000I500000J0D01*
G01*
X272302500Y-142410000D02*
G75*
G02*
X272802500Y-142910000I0J-500000D01*
G01*
X202152500Y-156410000D02*
X215152500Y-156410000D01*
X182602500Y-142910000D02*
G75*
G02*
X183102500Y-142410000I500000J0D01*
G01*
X258802500Y-142910000D02*
X258802500Y-155910000D01*
X196102500Y-142410000D02*
G75*
G02*
X196602500Y-142910000I0J-500000D01*
G01*
X196602500Y-142910000D02*
X196602500Y-155910000D01*
X163552500Y-142910000D02*
G75*
G02*
X164052500Y-142410000I500000J0D01*
G01*
X164052500Y-142410000D02*
X177052500Y-142410000D01*
X201652500Y-142910000D02*
X201652500Y-155910000D01*
X202152500Y-156410000D02*
G75*
G02*
X201652500Y-155910000I0J500000D01*
G01*
X177052500Y-142410000D02*
G75*
G02*
X177552500Y-142910000I0J-500000D01*
G01*
X240252500Y-142410000D02*
X253252500Y-142410000D01*
X259302500Y-156410000D02*
G75*
G02*
X258802500Y-155910000I0J500000D01*
G01*
X278352500Y-142410000D02*
X291352500Y-142410000D01*
X201652500Y-142910000D02*
G75*
G02*
X202152500Y-142410000I500000J0D01*
G01*
X164052500Y-156410000D02*
G75*
G02*
X163552500Y-155910000I0J500000D01*
G01*
X259302500Y-142410000D02*
X272302500Y-142410000D01*
X234202500Y-142410000D02*
G75*
G02*
X234702500Y-142910000I0J-500000D01*
G01*
X144502500Y-142910000D02*
G75*
G02*
X145002500Y-142410000I500000J0D01*
G01*
X163552500Y-142910000D02*
X163552500Y-155910000D01*
X125452500Y-142910000D02*
G75*
G02*
X125952500Y-142410000I500000J0D01*
G01*
X158502500Y-155910000D02*
G75*
G02*
X158002500Y-156410000I-500000J0D01*
G01*
X164052500Y-156410000D02*
X177052500Y-156410000D01*
X272802500Y-142910000D02*
X272802500Y-155910000D01*
X215652500Y-155910000D02*
G75*
G02*
X215152500Y-156410000I-500000J0D01*
G01*
X145002500Y-142410000D02*
X158002500Y-142410000D01*
X215652500Y-142910000D02*
X215652500Y-155910000D01*
X183102500Y-156410000D02*
G75*
G02*
X182602500Y-155910000I0J500000D01*
G01*
X202152500Y-142410000D02*
X215152500Y-142410000D01*
X125952500Y-156410000D02*
G75*
G02*
X125452500Y-155910000I0J500000D01*
G01*
X277852500Y-142910000D02*
X277852500Y-155910000D01*
X145002500Y-156410000D02*
X158002500Y-156410000D01*
X234702500Y-142910000D02*
X234702500Y-155910000D01*
X258802500Y-142910000D02*
G75*
G02*
X259302500Y-142410000I500000J0D01*
G01*
X259302500Y-156410000D02*
X272302500Y-156410000D01*
X253752500Y-155910000D02*
G75*
G02*
X253252500Y-156410000I-500000J0D01*
G01*
X240252500Y-156410000D02*
G75*
G02*
X239752500Y-155910000I0J500000D01*
G01*
X138952500Y-142410000D02*
G75*
G02*
X139452500Y-142910000I0J-500000D01*
G01*
X253252500Y-142410000D02*
G75*
G02*
X253752500Y-142910000I0J-500000D01*
G01*
X145002500Y-156410000D02*
G75*
G02*
X144502500Y-155910000I0J500000D01*
G01*
X221202500Y-156410000D02*
X234202500Y-156410000D01*
X215152500Y-142410000D02*
G75*
G02*
X215652500Y-142910000I0J-500000D01*
G01*
X239752500Y-142910000D02*
G75*
G02*
X240252500Y-142410000I500000J0D01*
G01*
X253752500Y-142910000D02*
X253752500Y-155910000D01*
X196602500Y-155910000D02*
G75*
G02*
X196102500Y-156410000I-500000J0D01*
G01*
X239752500Y-142910000D02*
X239752500Y-155910000D01*
X240252500Y-156410000D02*
X253252500Y-156410000D01*
X234702500Y-155910000D02*
G75*
G02*
X234202500Y-156410000I-500000J0D01*
G01*
X182602500Y-142910000D02*
X182602500Y-155910000D01*
X177552500Y-155910000D02*
G75*
G02*
X177052500Y-156410000I-500000J0D01*
G01*
X177552500Y-142910000D02*
X177552500Y-155910000D01*
X221202500Y-156410000D02*
G75*
G02*
X220702500Y-155910000I0J500000D01*
G01*
X220702500Y-142910000D02*
X220702500Y-155910000D01*
X221202500Y-142410000D02*
X234202500Y-142410000D01*
X158002500Y-142410000D02*
G75*
G02*
X158502500Y-142910000I0J-500000D01*
G01*
X158502500Y-142910000D02*
X158502500Y-155910000D01*
X139452500Y-155910000D02*
G75*
G02*
X138952500Y-156410000I-500000J0D01*
G01*
X183102500Y-142410000D02*
X196102500Y-142410000D01*
X291852500Y-142910000D02*
X291852500Y-155910000D01*
X144502500Y-142910000D02*
X144502500Y-155910000D01*
X278352500Y-156410000D02*
X291352500Y-156410000D01*
X183102500Y-156410000D02*
X196102500Y-156410000D01*
X220702500Y-142910000D02*
G75*
G02*
X221202500Y-142410000I500000J0D01*
G01*
X272802500Y-155910000D02*
G75*
G02*
X272302500Y-156410000I-500000J0D01*
G01*
X120402500Y-155910000D02*
G75*
G02*
X119902500Y-156410000I-500000J0D01*
G01*
X349790000Y-137360000D02*
G75*
G02*
X349290000Y-136860000I0J500000D01*
G01*
X106902500Y-156410000D02*
G75*
G02*
X106402500Y-155910000I0J500000D01*
G01*
X119902500Y-142410000D02*
G75*
G02*
X120402500Y-142910000I0J-500000D01*
G01*
X106402500Y-142910000D02*
G75*
G02*
X106902500Y-142410000I500000J0D01*
G01*
X68802500Y-156410000D02*
X81802500Y-156410000D01*
X349790000Y-137360000D02*
X362790000Y-137360000D01*
X57990000Y-142410000D02*
G75*
G02*
X58490000Y-142910000I0J-500000D01*
G01*
X120402500Y-142910000D02*
X120402500Y-155910000D01*
X81802500Y-142410000D02*
G75*
G02*
X82302500Y-142910000I0J-500000D01*
G01*
X68302500Y-142910000D02*
X68302500Y-155910000D01*
X106402500Y-142910000D02*
X106402500Y-155910000D01*
X363290000Y-136860000D02*
G75*
G02*
X362790000Y-137360000I-500000J0D01*
G01*
X106902500Y-156410000D02*
X119902500Y-156410000D01*
X87852500Y-156410000D02*
G75*
G02*
X87352500Y-155910000I0J500000D01*
G01*
X101352500Y-142910000D02*
X101352500Y-155910000D01*
X58490000Y-155910000D02*
G75*
G02*
X57990000Y-156410000I-500000J0D01*
G01*
X44990000Y-156410000D02*
X57990000Y-156410000D01*
X349790000Y-123360000D02*
X362790000Y-123360000D01*
X44990000Y-156410000D02*
G75*
G02*
X44490000Y-155910000I0J500000D01*
G01*
X368840000Y-137360000D02*
X381840000Y-137360000D01*
X44490000Y-142910000D02*
G75*
G02*
X44990000Y-142410000I500000J0D01*
G01*
X344240000Y-123860000D02*
X344240000Y-136860000D01*
X330740000Y-123360000D02*
X343740000Y-123360000D01*
X106902500Y-142410000D02*
X119902500Y-142410000D01*
X381840000Y-123360000D02*
G75*
G02*
X382340000Y-123860000I0J-500000D01*
G01*
X101352500Y-155910000D02*
G75*
G02*
X100852500Y-156410000I-500000J0D01*
G01*
X344240000Y-136860000D02*
G75*
G02*
X343740000Y-137360000I-500000J0D01*
G01*
X68802500Y-156410000D02*
G75*
G02*
X68302500Y-155910000I0J500000D01*
G01*
X382340000Y-123860000D02*
X382340000Y-136860000D01*
X100852500Y-142410000D02*
G75*
G02*
X101352500Y-142910000I0J-500000D01*
G01*
X368840000Y-137360000D02*
G75*
G02*
X368340000Y-136860000I0J500000D01*
G01*
X368840000Y-123360000D02*
X381840000Y-123360000D01*
X87852500Y-156410000D02*
X100852500Y-156410000D01*
X82302500Y-142910000D02*
X82302500Y-155910000D01*
X82302500Y-155910000D02*
G75*
G02*
X81802500Y-156410000I-500000J0D01*
G01*
X368340000Y-123860000D02*
X368340000Y-136860000D01*
X288464500Y-124860000D02*
G75*
G02*
X288964500Y-124360000I500000J0D01*
G01*
X87852500Y-142410000D02*
X100852500Y-142410000D01*
X58490000Y-142910000D02*
X58490000Y-155910000D01*
X362790000Y-123360000D02*
G75*
G02*
X363290000Y-123860000I0J-500000D01*
G01*
X330240000Y-123860000D02*
G75*
G02*
X330740000Y-123360000I500000J0D01*
G01*
X288964500Y-139360000D02*
G75*
G02*
X288464500Y-138860000I0J500000D01*
G01*
X294964500Y-124360000D02*
G75*
G02*
X295464500Y-124860000I0J-500000D01*
G01*
X330740000Y-137360000D02*
G75*
G02*
X330240000Y-136860000I0J500000D01*
G01*
X330240000Y-123860000D02*
X330240000Y-136860000D01*
X349290000Y-123860000D02*
G75*
G02*
X349790000Y-123360000I500000J0D01*
G01*
X87352500Y-142910000D02*
G75*
G02*
X87852500Y-142410000I500000J0D01*
G01*
X68302500Y-142910000D02*
G75*
G02*
X68802500Y-142410000I500000J0D01*
G01*
X68802500Y-142410000D02*
X81802500Y-142410000D01*
X330740000Y-137360000D02*
X343740000Y-137360000D01*
X363290000Y-123860000D02*
X363290000Y-136860000D01*
X87352500Y-142910000D02*
X87352500Y-155910000D01*
X44490000Y-142910000D02*
X44490000Y-155910000D01*
X44990000Y-142410000D02*
X57990000Y-142410000D01*
X368340000Y-123860000D02*
G75*
G02*
X368840000Y-123360000I500000J0D01*
G01*
X343740000Y-123360000D02*
G75*
G02*
X344240000Y-123860000I0J-500000D01*
G01*
X382340000Y-136860000D02*
G75*
G02*
X381840000Y-137360000I-500000J0D01*
G01*
X295464500Y-138860000D02*
G75*
G02*
X294964500Y-139360000I-500000J0D01*
G01*
X349290000Y-123860000D02*
X349290000Y-136860000D01*
X139452500Y-142910000D02*
X139452500Y-155910000D01*
X125452500Y-142910000D02*
X125452500Y-155910000D01*
X125952500Y-156410000D02*
X138952500Y-156410000D01*
X125952500Y-142410000D02*
X138952500Y-142410000D01*
X211177500Y-123860000D02*
G75*
G02*
X211677500Y-123360000I500000J0D01*
G01*
X230227500Y-123860000D02*
G75*
G02*
X230727500Y-123360000I500000J0D01*
G01*
X211177500Y-123860000D02*
X211177500Y-136860000D01*
X230727500Y-137360000D02*
X243727500Y-137360000D01*
X297402500Y-123360000D02*
X310402500Y-123360000D01*
X206127500Y-136860000D02*
G75*
G02*
X205627500Y-137360000I-500000J0D01*
G01*
X263277500Y-136860000D02*
G75*
G02*
X262777500Y-137360000I-500000J0D01*
G01*
X263277500Y-123860000D02*
X263277500Y-136860000D01*
X268827500Y-123360000D02*
X281827500Y-123360000D01*
X262777500Y-123360000D02*
G75*
G02*
X263277500Y-123860000I0J-500000D01*
G01*
X211677500Y-137360000D02*
G75*
G02*
X211177500Y-136860000I0J500000D01*
G01*
X186577500Y-123360000D02*
G75*
G02*
X187077500Y-123860000I0J-500000D01*
G01*
X225177500Y-123860000D02*
X225177500Y-136860000D01*
X288964500Y-124360000D02*
X294964500Y-124360000D01*
X312340500Y-124860000D02*
G75*
G02*
X312840500Y-124360000I500000J0D01*
G01*
X312840500Y-124360000D02*
X318840500Y-124360000D01*
X310902500Y-123860000D02*
X310902500Y-136860000D01*
X244227500Y-136860000D02*
G75*
G02*
X243727500Y-137360000I-500000J0D01*
G01*
X205627500Y-123360000D02*
G75*
G02*
X206127500Y-123860000I0J-500000D01*
G01*
X297402500Y-137360000D02*
G75*
G02*
X296902500Y-136860000I0J500000D01*
G01*
X297402500Y-137360000D02*
X310402500Y-137360000D01*
X282327500Y-123860000D02*
X282327500Y-136860000D01*
X268827500Y-137360000D02*
X281827500Y-137360000D01*
X249777500Y-137360000D02*
G75*
G02*
X249277500Y-136860000I0J500000D01*
G01*
X224677500Y-123360000D02*
G75*
G02*
X225177500Y-123860000I0J-500000D01*
G01*
X211677500Y-123360000D02*
X224677500Y-123360000D01*
X249277500Y-123860000D02*
X249277500Y-136860000D01*
X249777500Y-123360000D02*
X262777500Y-123360000D01*
X281827500Y-123360000D02*
G75*
G02*
X282327500Y-123860000I0J-500000D01*
G01*
X230727500Y-137360000D02*
G75*
G02*
X230227500Y-136860000I0J500000D01*
G01*
X268327500Y-123860000D02*
G75*
G02*
X268827500Y-123360000I500000J0D01*
G01*
X296902500Y-123860000D02*
X296902500Y-136860000D01*
X268827500Y-137360000D02*
G75*
G02*
X268327500Y-136860000I0J500000D01*
G01*
X225177500Y-136860000D02*
G75*
G02*
X224677500Y-137360000I-500000J0D01*
G01*
X192627500Y-137360000D02*
G75*
G02*
X192127500Y-136860000I0J500000D01*
G01*
X268327500Y-123860000D02*
X268327500Y-136860000D01*
X243727500Y-123360000D02*
G75*
G02*
X244227500Y-123860000I0J-500000D01*
G01*
X230227500Y-123860000D02*
X230227500Y-136860000D01*
X192127500Y-123860000D02*
X192127500Y-136860000D01*
X319340500Y-124860000D02*
X319340500Y-138860000D01*
X310902500Y-136860000D02*
G75*
G02*
X310402500Y-137360000I-500000J0D01*
G01*
X244227500Y-123860000D02*
X244227500Y-136860000D01*
X249777500Y-137360000D02*
X262777500Y-137360000D01*
X211677500Y-137360000D02*
X224677500Y-137360000D01*
X192127500Y-123860000D02*
G75*
G02*
X192627500Y-123360000I500000J0D01*
G01*
X206127500Y-123860000D02*
X206127500Y-136860000D01*
X173577500Y-137360000D02*
G75*
G02*
X173077500Y-136860000I0J500000D01*
G01*
X173077500Y-123860000D02*
G75*
G02*
X173577500Y-123360000I500000J0D01*
G01*
X312840500Y-139360000D02*
G75*
G02*
X312340500Y-138860000I0J500000D01*
G01*
X249277500Y-123860000D02*
G75*
G02*
X249777500Y-123360000I500000J0D01*
G01*
X230727500Y-123360000D02*
X243727500Y-123360000D01*
X312340500Y-124860000D02*
X312340500Y-138860000D01*
X192627500Y-137360000D02*
X205627500Y-137360000D01*
X187077500Y-136860000D02*
G75*
G02*
X186577500Y-137360000I-500000J0D01*
G01*
X295464500Y-124860000D02*
X295464500Y-138860000D01*
X288464500Y-124860000D02*
X288464500Y-138860000D01*
X192627500Y-123360000D02*
X205627500Y-123360000D01*
X310402500Y-123360000D02*
G75*
G02*
X310902500Y-123860000I0J-500000D01*
G01*
X288964500Y-139360000D02*
X294964500Y-139360000D01*
X319340500Y-138860000D02*
G75*
G02*
X318840500Y-139360000I-500000J0D01*
G01*
X318840500Y-124360000D02*
G75*
G02*
X319340500Y-124860000I0J-500000D01*
G01*
X312840500Y-139360000D02*
X318840500Y-139360000D01*
X296902500Y-123860000D02*
G75*
G02*
X297402500Y-123360000I500000J0D01*
G01*
X282327500Y-136860000D02*
G75*
G02*
X281827500Y-137360000I-500000J0D01*
G01*
X91827500Y-136860000D02*
G75*
G02*
X91327500Y-137360000I-500000J0D01*
G01*
X382340000Y-108284999D02*
G75*
G02*
X381840000Y-108784999I-500000J0D01*
G01*
X59277500Y-137360000D02*
X72277500Y-137360000D01*
X53227499Y-123360000D02*
G75*
G02*
X53727499Y-123860000I0J-500000D01*
G01*
X39727500Y-123860000D02*
G75*
G02*
X40227500Y-123360000I500000J0D01*
G01*
X173077500Y-123860000D02*
X173077500Y-136860000D01*
X134977500Y-123860000D02*
X134977500Y-136860000D01*
X135477500Y-123360000D02*
X148477500Y-123360000D01*
X148977500Y-136860000D02*
G75*
G02*
X148477500Y-137360000I-500000J0D01*
G01*
X72277500Y-123360000D02*
G75*
G02*
X72777500Y-123860000I0J-500000D01*
G01*
X168027499Y-123860000D02*
X168027499Y-136860000D01*
X381840000Y-94785000D02*
G75*
G02*
X382340000Y-95285000I0J-500000D01*
G01*
X173577500Y-123360000D02*
X186577500Y-123360000D01*
X154527500Y-137360000D02*
X167527499Y-137360000D01*
X58777500Y-123860000D02*
G75*
G02*
X59277500Y-123360000I500000J0D01*
G01*
X129927500Y-123860000D02*
X129927500Y-136860000D01*
X154027500Y-123860000D02*
G75*
G02*
X154527500Y-123360000I500000J0D01*
G01*
X154527500Y-123360000D02*
X167527499Y-123360000D01*
X116427500Y-123360000D02*
X129427500Y-123360000D01*
X78327500Y-137360000D02*
X91327500Y-137360000D01*
X97377500Y-137360000D02*
X110377500Y-137360000D01*
X148477500Y-123360000D02*
G75*
G02*
X148977500Y-123860000I0J-500000D01*
G01*
X148977500Y-123860000D02*
X148977500Y-136860000D01*
X91827500Y-123860000D02*
X91827500Y-136860000D01*
X77827500Y-123860000D02*
G75*
G02*
X78327500Y-123360000I500000J0D01*
G01*
X115927500Y-123860000D02*
X115927500Y-136860000D01*
X116427500Y-137360000D02*
X129427500Y-137360000D01*
X110377500Y-123360000D02*
G75*
G02*
X110877500Y-123860000I0J-500000D01*
G01*
X110877500Y-136860000D02*
G75*
G02*
X110377500Y-137360000I-500000J0D01*
G01*
X96877500Y-123860000D02*
G75*
G02*
X97377500Y-123360000I500000J0D01*
G01*
X59277500Y-137360000D02*
G75*
G02*
X58777500Y-136860000I0J500000D01*
G01*
X58777500Y-123860000D02*
X58777500Y-136860000D01*
X368840000Y-108784999D02*
G75*
G02*
X368340000Y-108284999I0J500000D01*
G01*
X97377500Y-123360000D02*
X110377500Y-123360000D01*
X40227500Y-137360000D02*
X53227499Y-137360000D01*
X72777500Y-136860000D02*
G75*
G02*
X72277500Y-137360000I-500000J0D01*
G01*
X154527500Y-137360000D02*
G75*
G02*
X154027500Y-136860000I0J500000D01*
G01*
X154027500Y-123860000D02*
X154027500Y-136860000D01*
X134977500Y-123860000D02*
G75*
G02*
X135477500Y-123360000I500000J0D01*
G01*
X110877500Y-123860000D02*
X110877500Y-136860000D01*
X368340000Y-95285000D02*
G75*
G02*
X368840000Y-94785000I500000J0D01*
G01*
X40227500Y-123360000D02*
X53227499Y-123360000D01*
X53727499Y-136860000D02*
G75*
G02*
X53227499Y-137360000I-500000J0D01*
G01*
X96877500Y-123860000D02*
X96877500Y-136860000D01*
X91327500Y-123360000D02*
G75*
G02*
X91827500Y-123860000I0J-500000D01*
G01*
X129927500Y-136860000D02*
G75*
G02*
X129427500Y-137360000I-500000J0D01*
G01*
X78327500Y-137360000D02*
G75*
G02*
X77827500Y-136860000I0J500000D01*
G01*
X59277500Y-123360000D02*
X72277500Y-123360000D01*
X40227500Y-137360000D02*
G75*
G02*
X39727500Y-136860000I0J500000D01*
G01*
X78327500Y-123360000D02*
X91327500Y-123360000D01*
X115927500Y-123860000D02*
G75*
G02*
X116427500Y-123360000I500000J0D01*
G01*
X187077500Y-123860000D02*
X187077500Y-136860000D01*
X77827500Y-123860000D02*
X77827500Y-136860000D01*
X167527499Y-123360000D02*
G75*
G02*
X168027499Y-123860000I0J-500000D01*
G01*
X97377500Y-137360000D02*
G75*
G02*
X96877500Y-136860000I0J500000D01*
G01*
X173577500Y-137360000D02*
X186577500Y-137360000D01*
X168027499Y-136860000D02*
G75*
G02*
X167527499Y-137360000I-500000J0D01*
G01*
X129427500Y-123360000D02*
G75*
G02*
X129927500Y-123860000I0J-500000D01*
G01*
X135477500Y-137360000D02*
G75*
G02*
X134977500Y-136860000I0J500000D01*
G01*
X116427500Y-137360000D02*
G75*
G02*
X115927500Y-136860000I0J500000D01*
G01*
X72777500Y-123860000D02*
X72777500Y-136860000D01*
X39727500Y-123860000D02*
X39727500Y-136860000D01*
X53727499Y-123860000D02*
X53727499Y-136860000D01*
X135477500Y-137360000D02*
X148477500Y-137360000D01*
X349790000Y-94785000D02*
X362790000Y-94785000D01*
X330240000Y-95285000D02*
G75*
G02*
X330740000Y-94785000I500000J0D01*
G01*
X349790000Y-108784999D02*
X362790000Y-108784999D01*
X320427500Y-108284999D02*
G75*
G02*
X319927500Y-108784999I-500000J0D01*
G01*
X382340000Y-95285000D02*
X382340000Y-108284999D01*
X368840000Y-94785000D02*
X381840000Y-94785000D01*
X349790000Y-108784999D02*
G75*
G02*
X349290000Y-108284999I0J500000D01*
G01*
X363290000Y-95285000D02*
X363290000Y-108284999D01*
X344240000Y-108284999D02*
G75*
G02*
X343740000Y-108784999I-500000J0D01*
G01*
X268827500Y-108784999D02*
X281827500Y-108784999D01*
X249277500Y-95285000D02*
X249277500Y-108284999D01*
X330740000Y-108784999D02*
X343740000Y-108784999D01*
X268327500Y-95285000D02*
X268327500Y-108284999D01*
X320427500Y-95285000D02*
X320427500Y-108284999D01*
X249777500Y-108784999D02*
G75*
G02*
X249277500Y-108284999I0J500000D01*
G01*
X301377500Y-95285000D02*
X301377500Y-108284999D01*
X343740000Y-94785000D02*
G75*
G02*
X344240000Y-95285000I0J-500000D01*
G01*
X249277500Y-95285000D02*
G75*
G02*
X249777500Y-94785000I500000J0D01*
G01*
X330240000Y-95285000D02*
X330240000Y-108284999D01*
X306927500Y-108784999D02*
G75*
G02*
X306427500Y-108284999I0J500000D01*
G01*
X330740000Y-108784999D02*
G75*
G02*
X330240000Y-108284999I0J500000D01*
G01*
X215652500Y-108284999D02*
G75*
G02*
X215152500Y-108784999I-500000J0D01*
G01*
X349290000Y-95285000D02*
G75*
G02*
X349790000Y-94785000I500000J0D01*
G01*
X306927500Y-94785000D02*
X319927500Y-94785000D01*
X349290000Y-95285000D02*
X349290000Y-108284999D01*
X306427500Y-95285000D02*
G75*
G02*
X306927500Y-94785000I500000J0D01*
G01*
X281827500Y-94785000D02*
G75*
G02*
X282327500Y-95285000I0J-500000D01*
G01*
X287377500Y-95285000D02*
G75*
G02*
X287877500Y-94785000I500000J0D01*
G01*
X263277500Y-108284999D02*
G75*
G02*
X262777500Y-108784999I-500000J0D01*
G01*
X221202500Y-108784999D02*
X234202500Y-108784999D01*
X368340000Y-95285000D02*
X368340000Y-108284999D01*
X306427500Y-95285000D02*
X306427500Y-108284999D01*
X368840000Y-108784999D02*
X381840000Y-108784999D01*
X330740000Y-94785000D02*
X343740000Y-94785000D01*
X234702500Y-95285000D02*
X234702500Y-108284999D01*
X344240000Y-95285000D02*
X344240000Y-108284999D01*
X301377500Y-108284999D02*
G75*
G02*
X300877500Y-108784999I-500000J0D01*
G01*
X268327500Y-95285000D02*
G75*
G02*
X268827500Y-94785000I500000J0D01*
G01*
X287877500Y-108784999D02*
X300877500Y-108784999D01*
X282327500Y-108284999D02*
G75*
G02*
X281827500Y-108784999I-500000J0D01*
G01*
X221202500Y-108784999D02*
G75*
G02*
X220702500Y-108284999I0J500000D01*
G01*
X202152500Y-108784999D02*
G75*
G02*
X201652500Y-108284999I0J500000D01*
G01*
X221202500Y-94785000D02*
X234202500Y-94785000D01*
X234202500Y-94785000D02*
G75*
G02*
X234702500Y-95285000I0J-500000D01*
G01*
X319927500Y-94785000D02*
G75*
G02*
X320427500Y-95285000I0J-500000D01*
G01*
X300877500Y-94785000D02*
G75*
G02*
X301377500Y-95285000I0J-500000D01*
G01*
X249777500Y-94785000D02*
X262777500Y-94785000D01*
X287377500Y-95285000D02*
X287377500Y-108284999D01*
X263277500Y-95285000D02*
X263277500Y-108284999D01*
X306927500Y-108784999D02*
X319927500Y-108784999D01*
X287877500Y-108784999D02*
G75*
G02*
X287377500Y-108284999I0J500000D01*
G01*
X268827500Y-108784999D02*
G75*
G02*
X268327500Y-108284999I0J500000D01*
G01*
X282327500Y-95285000D02*
X282327500Y-108284999D01*
X234702500Y-108284999D02*
G75*
G02*
X234202500Y-108784999I-500000J0D01*
G01*
X262777500Y-94785000D02*
G75*
G02*
X263277500Y-95285000I0J-500000D01*
G01*
X220702500Y-95285000D02*
X220702500Y-108284999D01*
X220702500Y-95285000D02*
G75*
G02*
X221202500Y-94785000I500000J0D01*
G01*
X201652500Y-95285000D02*
G75*
G02*
X202152500Y-94785000I500000J0D01*
G01*
X249777500Y-108784999D02*
X262777500Y-108784999D01*
X215152500Y-94785000D02*
G75*
G02*
X215652500Y-95285000I0J-500000D01*
G01*
X363290000Y-108284999D02*
G75*
G02*
X362790000Y-108784999I-500000J0D01*
G01*
X287877500Y-94785000D02*
X300877500Y-94785000D01*
X268827500Y-94785000D02*
X281827500Y-94785000D01*
X362790000Y-94785000D02*
G75*
G02*
X363290000Y-95285000I0J-500000D01*
G01*
X148477500Y-94785000D02*
G75*
G02*
X148977500Y-95285000I0J-500000D01*
G01*
X91827500Y-95285000D02*
X91827500Y-108284999D01*
X40227500Y-108784999D02*
G75*
G02*
X39727500Y-108284999I0J500000D01*
G01*
X196602500Y-95285000D02*
X196602500Y-108284999D01*
X183102500Y-94785000D02*
X196102500Y-94785000D01*
X53727499Y-108284999D02*
G75*
G02*
X53227499Y-108784999I-500000J0D01*
G01*
X53227499Y-94785000D02*
G75*
G02*
X53727499Y-95285000I0J-500000D01*
G01*
X77827500Y-95285000D02*
G75*
G02*
X78327500Y-94785000I500000J0D01*
G01*
X97377500Y-94785000D02*
X110377500Y-94785000D01*
X115927500Y-95285000D02*
X115927500Y-108284999D01*
X148977500Y-108284999D02*
G75*
G02*
X148477500Y-108784999I-500000J0D01*
G01*
X215652500Y-95285000D02*
X215652500Y-108284999D01*
X78327500Y-108784999D02*
G75*
G02*
X77827500Y-108284999I0J500000D01*
G01*
X40227500Y-94785000D02*
X53227499Y-94785000D01*
X201652500Y-95285000D02*
X201652500Y-108284999D01*
X177552500Y-95285000D02*
X177552500Y-108284999D01*
X134977500Y-95285000D02*
X134977500Y-108284999D01*
X110877500Y-108284999D02*
G75*
G02*
X110377500Y-108784999I-500000J0D01*
G01*
X202152500Y-108784999D02*
X215152500Y-108784999D01*
X202152500Y-94785000D02*
X215152500Y-94785000D01*
X196602500Y-108284999D02*
G75*
G02*
X196102500Y-108784999I-500000J0D01*
G01*
X164052500Y-94785000D02*
X177052500Y-94785000D01*
X97377500Y-108784999D02*
X110377500Y-108784999D01*
X91327500Y-94785000D02*
G75*
G02*
X91827500Y-95285000I0J-500000D01*
G01*
X78327500Y-94785000D02*
X91327500Y-94785000D01*
X77827500Y-95285000D02*
X77827500Y-108284999D01*
X163552500Y-95285000D02*
G75*
G02*
X164052500Y-94785000I500000J0D01*
G01*
X164052500Y-108784999D02*
X177052500Y-108784999D01*
X135477500Y-108784999D02*
G75*
G02*
X134977500Y-108284999I0J500000D01*
G01*
X110377500Y-94785000D02*
G75*
G02*
X110877500Y-95285000I0J-500000D01*
G01*
X196102500Y-94785000D02*
G75*
G02*
X196602500Y-95285000I0J-500000D01*
G01*
X134977500Y-95285000D02*
G75*
G02*
X135477500Y-94785000I500000J0D01*
G01*
X182602500Y-95285000D02*
X182602500Y-108284999D01*
X148977500Y-95285000D02*
X148977500Y-108284999D01*
X183102500Y-108784999D02*
X196102500Y-108784999D01*
X129927500Y-108284999D02*
G75*
G02*
X129427500Y-108784999I-500000J0D01*
G01*
X164052500Y-108784999D02*
G75*
G02*
X163552500Y-108284999I0J500000D01*
G01*
X110877500Y-95285000D02*
X110877500Y-108284999D01*
X91827500Y-108284999D02*
G75*
G02*
X91327500Y-108784999I-500000J0D01*
G01*
X177052500Y-94785000D02*
G75*
G02*
X177552500Y-95285000I0J-500000D01*
G01*
X135477500Y-108784999D02*
X148477500Y-108784999D01*
X78327500Y-108784999D02*
X91327500Y-108784999D01*
X135477500Y-94785000D02*
X148477500Y-94785000D01*
X129927500Y-95285000D02*
X129927500Y-108284999D01*
X116427500Y-108784999D02*
X129427500Y-108784999D01*
X39727500Y-95285000D02*
G75*
G02*
X40227500Y-94785000I500000J0D01*
G01*
X40227500Y-108784999D02*
X53227499Y-108784999D01*
X116427500Y-108784999D02*
G75*
G02*
X115927500Y-108284999I0J500000D01*
G01*
X115927500Y-95285000D02*
G75*
G02*
X116427500Y-94785000I500000J0D01*
G01*
X116427500Y-94785000D02*
X129427500Y-94785000D01*
X96877500Y-95285000D02*
X96877500Y-108284999D01*
X129427500Y-94785000D02*
G75*
G02*
X129927500Y-95285000I0J-500000D01*
G01*
X96877500Y-95285000D02*
G75*
G02*
X97377500Y-94785000I500000J0D01*
G01*
X39727500Y-95285000D02*
X39727500Y-108284999D01*
X183102500Y-108784999D02*
G75*
G02*
X182602500Y-108284999I0J500000D01*
G01*
X182602500Y-95285000D02*
G75*
G02*
X183102500Y-94785000I500000J0D01*
G01*
X177552500Y-108284999D02*
G75*
G02*
X177052500Y-108784999I-500000J0D01*
G01*
X53727499Y-95285000D02*
X53727499Y-108284999D01*
X97377500Y-108784999D02*
G75*
G02*
X96877500Y-108284999I0J500000D01*
G01*
X163552500Y-95285000D02*
X163552500Y-108284999D01*
X143715000Y-161460000D02*
G75*
G02*
X144215000Y-161960000I0J-500000D01*
G01*
X60371250Y-161460000D02*
G75*
G02*
X60871250Y-161960000I0J-500000D01*
G01*
X130715000Y-161460000D02*
X143715000Y-161460000D01*
X130715000Y-175460000D02*
X143715000Y-175460000D01*
X125165000Y-174960000D02*
G75*
G02*
X124665000Y-175460000I-500000J0D01*
G01*
X111665000Y-161460000D02*
X124665000Y-161460000D01*
X47371250Y-161460000D02*
X60371250Y-161460000D01*
X92115000Y-161960000D02*
G75*
G02*
X92615000Y-161460000I500000J0D01*
G01*
X130715000Y-175460000D02*
G75*
G02*
X130215000Y-174960000I0J500000D01*
G01*
X149265000Y-161960000D02*
X149265000Y-174960000D01*
X111665000Y-175460000D02*
X124665000Y-175460000D01*
X168315000Y-161960000D02*
G75*
G02*
X168815000Y-161460000I500000J0D01*
G01*
X47371250Y-175460000D02*
G75*
G02*
X46871250Y-174960000I0J500000D01*
G01*
X187365000Y-161960000D02*
G75*
G02*
X187865000Y-161460000I500000J0D01*
G01*
X149765000Y-161460000D02*
X162765000Y-161460000D01*
X111165000Y-161960000D02*
X111165000Y-174960000D01*
X168815000Y-175460000D02*
X181815000Y-175460000D01*
X92615000Y-161460000D02*
X105615000Y-161460000D01*
X382340000Y-155910000D02*
G75*
G02*
X381840000Y-156410000I-500000J0D01*
G01*
X92615000Y-175460000D02*
G75*
G02*
X92115000Y-174960000I0J500000D01*
G01*
X73565000Y-161460000D02*
X86565000Y-161460000D01*
X106115000Y-161960000D02*
X106115000Y-174960000D01*
X105615000Y-161460000D02*
G75*
G02*
X106115000Y-161960000I0J-500000D01*
G01*
X201365000Y-161960000D02*
X201365000Y-174960000D01*
X163265000Y-161960000D02*
X163265000Y-174960000D01*
X73065000Y-161960000D02*
G75*
G02*
X73565000Y-161460000I500000J0D01*
G01*
X144215000Y-174960000D02*
G75*
G02*
X143715000Y-175460000I-500000J0D01*
G01*
X130215000Y-161960000D02*
X130215000Y-174960000D01*
X130215000Y-161960000D02*
G75*
G02*
X130715000Y-161460000I500000J0D01*
G01*
X73065000Y-161960000D02*
X73065000Y-174960000D01*
X163265000Y-174960000D02*
G75*
G02*
X162765000Y-175460000I-500000J0D01*
G01*
X86565000Y-161460000D02*
G75*
G02*
X87065000Y-161960000I0J-500000D01*
G01*
X60871250Y-174960000D02*
G75*
G02*
X60371250Y-175460000I-500000J0D01*
G01*
X187365000Y-161960000D02*
X187365000Y-174960000D01*
X187865000Y-175460000D02*
X200865000Y-175460000D01*
X187865000Y-161460000D02*
X200865000Y-161460000D01*
X182315000Y-174960000D02*
G75*
G02*
X181815000Y-175460000I-500000J0D01*
G01*
X73565000Y-175460000D02*
X86565000Y-175460000D01*
X162765000Y-161460000D02*
G75*
G02*
X163265000Y-161960000I0J-500000D01*
G01*
X92115000Y-161960000D02*
X92115000Y-174960000D01*
X46871250Y-161960000D02*
G75*
G02*
X47371250Y-161460000I500000J0D01*
G01*
X149765000Y-175460000D02*
X162765000Y-175460000D01*
X168815000Y-175460000D02*
G75*
G02*
X168315000Y-174960000I0J500000D01*
G01*
X181815000Y-161460000D02*
G75*
G02*
X182315000Y-161960000I0J-500000D01*
G01*
X144215000Y-161960000D02*
X144215000Y-174960000D01*
X182315000Y-161960000D02*
X182315000Y-174960000D01*
X60871250Y-161960000D02*
X60871250Y-174960000D01*
X168315000Y-161960000D02*
X168315000Y-174960000D01*
X111665000Y-175460000D02*
G75*
G02*
X111165000Y-174960000I0J500000D01*
G01*
X125165000Y-161960000D02*
X125165000Y-174960000D01*
X106115000Y-174960000D02*
G75*
G02*
X105615000Y-175460000I-500000J0D01*
G01*
X46871250Y-161960000D02*
X46871250Y-174960000D01*
X149765000Y-175460000D02*
G75*
G02*
X149265000Y-174960000I0J500000D01*
G01*
X149265000Y-161960000D02*
G75*
G02*
X149765000Y-161460000I500000J0D01*
G01*
X92615000Y-175460000D02*
X105615000Y-175460000D01*
X87065000Y-174960000D02*
G75*
G02*
X86565000Y-175460000I-500000J0D01*
G01*
X87065000Y-161960000D02*
X87065000Y-174960000D01*
X111165000Y-161960000D02*
G75*
G02*
X111665000Y-161460000I500000J0D01*
G01*
X73565000Y-175460000D02*
G75*
G02*
X73065000Y-174960000I0J500000D01*
G01*
X47371250Y-175460000D02*
X60371250Y-175460000D01*
X187865000Y-175460000D02*
G75*
G02*
X187365000Y-174960000I0J500000D01*
G01*
X124665000Y-161460000D02*
G75*
G02*
X125165000Y-161960000I0J-500000D01*
G01*
X168815000Y-161460000D02*
X181815000Y-161460000D01*
X200865000Y-161460000D02*
G75*
G02*
X201365000Y-161960000I0J-500000D01*
G01*
X363290000Y-200060000D02*
X363290000Y-213060000D01*
X368340000Y-200060000D02*
G75*
G02*
X368840000Y-199560000I500000J0D01*
G01*
X362790000Y-199560000D02*
G75*
G02*
X363290000Y-200060000I0J-500000D01*
G01*
X344240000Y-213060000D02*
G75*
G02*
X343740000Y-213560000I-500000J0D01*
G01*
X349790000Y-199560000D02*
X362790000Y-199560000D01*
X368840000Y-213560000D02*
G75*
G02*
X368340000Y-213060000I0J500000D01*
G01*
X368840000Y-213560000D02*
X381840000Y-213560000D01*
X368840000Y-199560000D02*
X381840000Y-199560000D01*
X381840000Y-199560000D02*
G75*
G02*
X382340000Y-200060000I0J-500000D01*
G01*
X382340000Y-200060000D02*
X382340000Y-213060000D01*
X349290000Y-200060000D02*
G75*
G02*
X349790000Y-199560000I500000J0D01*
G01*
X382340000Y-213060000D02*
G75*
G02*
X381840000Y-213560000I-500000J0D01*
G01*
X363290000Y-213060000D02*
G75*
G02*
X362790000Y-213560000I-500000J0D01*
G01*
X349790000Y-213560000D02*
G75*
G02*
X349290000Y-213060000I0J500000D01*
G01*
X349790000Y-213560000D02*
X362790000Y-213560000D01*
X349290000Y-200060000D02*
X349290000Y-213060000D01*
X368340000Y-200060000D02*
X368340000Y-213060000D01*
X232608750Y-200060000D02*
G75*
G02*
X233108750Y-199560000I500000J0D01*
G01*
X233108750Y-199560000D02*
X246108750Y-199560000D01*
X246108750Y-199560000D02*
G75*
G02*
X246608750Y-200060000I0J-500000D01*
G01*
X121721250Y-198500000D02*
X121721250Y-212500000D01*
X304546250Y-199560000D02*
X317546250Y-199560000D01*
X343740000Y-199560000D02*
G75*
G02*
X344240000Y-200060000I0J-500000D01*
G01*
X344240000Y-200060000D02*
X344240000Y-213060000D01*
X330240000Y-200060000D02*
X330240000Y-213060000D01*
X330740000Y-213560000D02*
X343740000Y-213560000D01*
X330740000Y-199560000D02*
X343740000Y-199560000D01*
X280733750Y-213560000D02*
X293733750Y-213560000D01*
X256421250Y-200060000D02*
G75*
G02*
X256921250Y-199560000I500000J0D01*
G01*
X256421250Y-200060000D02*
X256421250Y-213060000D01*
X121221250Y-198000000D02*
G75*
G02*
X121721250Y-198500000I0J-500000D01*
G01*
X221651250Y-212500000D02*
G75*
G02*
X221151250Y-213000000I-500000J0D01*
G01*
X175171250Y-213060000D02*
G75*
G02*
X174671250Y-213560000I-500000J0D01*
G01*
X233108750Y-213560000D02*
X246108750Y-213560000D01*
X246608750Y-213060000D02*
G75*
G02*
X246108750Y-213560000I-500000J0D01*
G01*
X115221250Y-213000000D02*
G75*
G02*
X114721250Y-212500000I0J500000D01*
G01*
X114721250Y-198500000D02*
X114721250Y-212500000D01*
X232608750Y-200060000D02*
X232608750Y-213060000D01*
X246608750Y-200060000D02*
X246608750Y-213060000D01*
X256921250Y-199560000D02*
X269921250Y-199560000D01*
X214651250Y-198500000D02*
G75*
G02*
X215151250Y-198000000I500000J0D01*
G01*
X233108750Y-213560000D02*
G75*
G02*
X232608750Y-213060000I0J500000D01*
G01*
X115221250Y-198000000D02*
X121221250Y-198000000D01*
X161671250Y-213560000D02*
X174671250Y-213560000D01*
X215151250Y-198000000D02*
X221151250Y-198000000D01*
X304546250Y-213560000D02*
G75*
G02*
X304046250Y-213060000I0J500000D01*
G01*
X318046250Y-200060000D02*
X318046250Y-213060000D01*
X280233750Y-200060000D02*
X280233750Y-213060000D01*
X215151250Y-213000000D02*
G75*
G02*
X214651250Y-212500000I0J500000D01*
G01*
X269921250Y-199560000D02*
G75*
G02*
X270421250Y-200060000I0J-500000D01*
G01*
X114721250Y-198500000D02*
G75*
G02*
X115221250Y-198000000I500000J0D01*
G01*
X293733750Y-199560000D02*
G75*
G02*
X294233750Y-200060000I0J-500000D01*
G01*
X280733750Y-199560000D02*
X293733750Y-199560000D01*
X270421250Y-213060000D02*
G75*
G02*
X269921250Y-213560000I-500000J0D01*
G01*
X161671250Y-199560000D02*
X174671250Y-199560000D01*
X121721250Y-212500000D02*
G75*
G02*
X121221250Y-213000000I-500000J0D01*
G01*
X174671250Y-199560000D02*
G75*
G02*
X175171250Y-200060000I0J-500000D01*
G01*
X221651250Y-198500000D02*
X221651250Y-212500000D01*
X280233750Y-200060000D02*
G75*
G02*
X280733750Y-199560000I500000J0D01*
G01*
X175171250Y-200060000D02*
X175171250Y-213060000D01*
X330740000Y-213560000D02*
G75*
G02*
X330240000Y-213060000I0J500000D01*
G01*
X330240000Y-200060000D02*
G75*
G02*
X330740000Y-199560000I500000J0D01*
G01*
X304046250Y-200060000D02*
G75*
G02*
X304546250Y-199560000I500000J0D01*
G01*
X215151250Y-213000000D02*
X221151250Y-213000000D01*
X161671250Y-213560000D02*
G75*
G02*
X161171250Y-213060000I0J500000D01*
G01*
X304046250Y-200060000D02*
X304046250Y-213060000D01*
X318046250Y-213060000D02*
G75*
G02*
X317546250Y-213560000I-500000J0D01*
G01*
X317546250Y-199560000D02*
G75*
G02*
X318046250Y-200060000I0J-500000D01*
G01*
X115221250Y-213000000D02*
X121221250Y-213000000D01*
X161171250Y-200060000D02*
X161171250Y-213060000D01*
X221151250Y-198000000D02*
G75*
G02*
X221651250Y-198500000I0J-500000D01*
G01*
X304546250Y-213560000D02*
X317546250Y-213560000D01*
X103733750Y-213060000D02*
G75*
G02*
X103233750Y-213560000I-500000J0D01*
G01*
X214651250Y-198500000D02*
X214651250Y-212500000D01*
X256921250Y-213560000D02*
G75*
G02*
X256421250Y-213060000I0J500000D01*
G01*
X294233750Y-213060000D02*
G75*
G02*
X293733750Y-213560000I-500000J0D01*
G01*
X280733750Y-213560000D02*
G75*
G02*
X280233750Y-213060000I0J500000D01*
G01*
X294233750Y-200060000D02*
X294233750Y-213060000D01*
X161171250Y-200060000D02*
G75*
G02*
X161671250Y-199560000I500000J0D01*
G01*
X270421250Y-200060000D02*
X270421250Y-213060000D01*
X256921250Y-213560000D02*
X269921250Y-213560000D01*
X290258750Y-194510000D02*
G75*
G02*
X289758750Y-194010000I0J500000D01*
G01*
X281320750Y-182010000D02*
X281320750Y-196010000D01*
X290258750Y-194510000D02*
X303258749Y-194510000D01*
X103733750Y-200060000D02*
X103733750Y-213060000D01*
X89733750Y-200060000D02*
X89733750Y-213060000D01*
X312196750Y-196010000D02*
G75*
G02*
X311696750Y-196510000I-500000J0D01*
G01*
X90233750Y-213560000D02*
X103233750Y-213560000D01*
X90233750Y-199560000D02*
X103233750Y-199560000D01*
X66421250Y-213560000D02*
G75*
G02*
X65921250Y-213060000I0J500000D01*
G01*
X42608750Y-213560000D02*
G75*
G02*
X42108750Y-213060000I0J500000D01*
G01*
X281820750Y-181510000D02*
X287820750Y-181510000D01*
X305196750Y-182010000D02*
G75*
G02*
X305696750Y-181510000I500000J0D01*
G01*
X303758749Y-181010000D02*
X303758749Y-194010000D01*
X79921250Y-213060000D02*
G75*
G02*
X79421250Y-213560000I-500000J0D01*
G01*
X65921250Y-200060000D02*
X65921250Y-213060000D01*
X66421250Y-199560000D02*
X79421250Y-199560000D01*
X363290000Y-194010000D02*
G75*
G02*
X362790000Y-194510000I-500000J0D01*
G01*
X303758749Y-194010000D02*
G75*
G02*
X303258749Y-194510000I-500000J0D01*
G01*
X254040000Y-181010000D02*
G75*
G02*
X254540000Y-180510000I500000J0D01*
G01*
X362790000Y-180510000D02*
G75*
G02*
X363290000Y-181010000I0J-500000D01*
G01*
X363290000Y-181010000D02*
X363290000Y-194010000D01*
X288320750Y-196010000D02*
G75*
G02*
X287820750Y-196510000I-500000J0D01*
G01*
X287820750Y-181510000D02*
G75*
G02*
X288320750Y-182010000I0J-500000D01*
G01*
X281320750Y-182010000D02*
G75*
G02*
X281820750Y-181510000I500000J0D01*
G01*
X289758750Y-181010000D02*
G75*
G02*
X290258750Y-180510000I500000J0D01*
G01*
X254540000Y-194510000D02*
G75*
G02*
X254040000Y-194010000I0J500000D01*
G01*
X288320750Y-182010000D02*
X288320750Y-196010000D01*
X254540000Y-194510000D02*
X267540000Y-194510000D01*
X305696750Y-181510000D02*
X311696750Y-181510000D01*
X254540000Y-180510000D02*
X267540000Y-180510000D01*
X303258749Y-180510000D02*
G75*
G02*
X303758749Y-181010000I0J-500000D01*
G01*
X289758750Y-181010000D02*
X289758750Y-194010000D01*
X267540000Y-180510000D02*
G75*
G02*
X268040000Y-181010000I0J-500000D01*
G01*
X268040000Y-181010000D02*
X268040000Y-194010000D01*
X290258750Y-180510000D02*
X303258749Y-180510000D01*
X305696750Y-196510000D02*
G75*
G02*
X305196750Y-196010000I0J500000D01*
G01*
X268040000Y-194010000D02*
G75*
G02*
X267540000Y-194510000I-500000J0D01*
G01*
X65921250Y-200060000D02*
G75*
G02*
X66421250Y-199560000I500000J0D01*
G01*
X56108750Y-213060000D02*
G75*
G02*
X55608750Y-213560000I-500000J0D01*
G01*
X311696750Y-181510000D02*
G75*
G02*
X312196750Y-182010000I0J-500000D01*
G01*
X42108750Y-200060000D02*
X42108750Y-213060000D01*
X349290000Y-181010000D02*
X349290000Y-194010000D01*
X349290000Y-181010000D02*
G75*
G02*
X349790000Y-180510000I500000J0D01*
G01*
X42608750Y-213560000D02*
X55608750Y-213560000D01*
X248990000Y-194010000D02*
G75*
G02*
X248490000Y-194510000I-500000J0D01*
G01*
X42108750Y-200060000D02*
G75*
G02*
X42608750Y-199560000I500000J0D01*
G01*
X281820750Y-196510000D02*
G75*
G02*
X281320750Y-196010000I0J500000D01*
G01*
X281820750Y-196510000D02*
X287820750Y-196510000D01*
X305196750Y-182010000D02*
X305196750Y-196010000D01*
X305696750Y-196510000D02*
X311696750Y-196510000D01*
X349790000Y-180510000D02*
X362790000Y-180510000D01*
X79921250Y-200060000D02*
X79921250Y-213060000D01*
X66421250Y-213560000D02*
X79421250Y-213560000D01*
X56108750Y-200060000D02*
X56108750Y-213060000D01*
X254040000Y-181010000D02*
X254040000Y-194010000D01*
X349790000Y-194510000D02*
G75*
G02*
X349290000Y-194010000I0J500000D01*
G01*
X42608750Y-199560000D02*
X55608750Y-199560000D01*
X79421250Y-199560000D02*
G75*
G02*
X79921250Y-200060000I0J-500000D01*
G01*
X55608750Y-199560000D02*
G75*
G02*
X56108750Y-200060000I0J-500000D01*
G01*
X90233750Y-213560000D02*
G75*
G02*
X89733750Y-213060000I0J500000D01*
G01*
X312196750Y-182010000D02*
X312196750Y-196010000D01*
X103233750Y-199560000D02*
G75*
G02*
X103733750Y-200060000I0J-500000D01*
G01*
X89733750Y-200060000D02*
G75*
G02*
X90233750Y-199560000I500000J0D01*
G01*
X349790000Y-194510000D02*
X362790000Y-194510000D01*
X139740000Y-181010000D02*
G75*
G02*
X140240000Y-180510000I500000J0D01*
G01*
X140240000Y-180510000D02*
X153240000Y-180510000D01*
X153240000Y-180510000D02*
G75*
G02*
X153740000Y-181010000I0J-500000D01*
G01*
X134690000Y-181010000D02*
X134690000Y-194010000D01*
X197390000Y-180510000D02*
X210390000Y-180510000D01*
X234990000Y-181010000D02*
G75*
G02*
X235490000Y-180510000I500000J0D01*
G01*
X235490000Y-180510000D02*
X248490000Y-180510000D01*
X229940000Y-194010000D02*
G75*
G02*
X229440000Y-194510000I-500000J0D01*
G01*
X229440000Y-180510000D02*
G75*
G02*
X229940000Y-181010000I0J-500000D01*
G01*
X216440000Y-194510000D02*
X229440000Y-194510000D01*
X216440000Y-180510000D02*
X229440000Y-180510000D01*
X178340000Y-194510000D02*
X191340000Y-194510000D01*
X158790000Y-181010000D02*
G75*
G02*
X159290000Y-180510000I500000J0D01*
G01*
X134190000Y-180510000D02*
G75*
G02*
X134690000Y-181010000I0J-500000D01*
G01*
X115640000Y-194010000D02*
G75*
G02*
X115140000Y-194510000I-500000J0D01*
G01*
X96590000Y-194010000D02*
G75*
G02*
X96090000Y-194510000I-500000J0D01*
G01*
X140240000Y-194510000D02*
X153240000Y-194510000D01*
X153740000Y-194010000D02*
G75*
G02*
X153240000Y-194510000I-500000J0D01*
G01*
X121190000Y-194510000D02*
G75*
G02*
X120690000Y-194010000I0J500000D01*
G01*
X120690000Y-181010000D02*
X120690000Y-194010000D01*
X139740000Y-181010000D02*
X139740000Y-194010000D01*
X153740000Y-181010000D02*
X153740000Y-194010000D01*
X158790000Y-181010000D02*
X158790000Y-194010000D01*
X101640000Y-181010000D02*
G75*
G02*
X102140000Y-180510000I500000J0D01*
G01*
X140240000Y-194510000D02*
G75*
G02*
X139740000Y-194010000I0J500000D01*
G01*
X159290000Y-180510000D02*
X172290000Y-180510000D01*
X121190000Y-180510000D02*
X134190000Y-180510000D01*
X102140000Y-180510000D02*
X115140000Y-180510000D01*
X215940000Y-181010000D02*
X215940000Y-194010000D01*
X197390000Y-194510000D02*
G75*
G02*
X196890000Y-194010000I0J500000D01*
G01*
X177840000Y-181010000D02*
X177840000Y-194010000D01*
X102140000Y-194510000D02*
G75*
G02*
X101640000Y-194010000I0J500000D01*
G01*
X172290000Y-180510000D02*
G75*
G02*
X172790000Y-181010000I0J-500000D01*
G01*
X120690000Y-181010000D02*
G75*
G02*
X121190000Y-180510000I500000J0D01*
G01*
X191340000Y-180510000D02*
G75*
G02*
X191840000Y-181010000I0J-500000D01*
G01*
X229940000Y-181010000D02*
X229940000Y-194010000D01*
X235490000Y-194510000D02*
G75*
G02*
X234990000Y-194010000I0J500000D01*
G01*
X178340000Y-180510000D02*
X191340000Y-180510000D01*
X172790000Y-194010000D02*
G75*
G02*
X172290000Y-194510000I-500000J0D01*
G01*
X134690000Y-194010000D02*
G75*
G02*
X134190000Y-194510000I-500000J0D01*
G01*
X115640000Y-181010000D02*
X115640000Y-194010000D01*
X177840000Y-181010000D02*
G75*
G02*
X178340000Y-180510000I500000J0D01*
G01*
X210890000Y-181010000D02*
X210890000Y-194010000D01*
X248490000Y-180510000D02*
G75*
G02*
X248990000Y-181010000I0J-500000D01*
G01*
X235490000Y-194510000D02*
X248490000Y-194510000D01*
X234990000Y-181010000D02*
X234990000Y-194010000D01*
X196890000Y-181010000D02*
G75*
G02*
X197390000Y-180510000I500000J0D01*
G01*
X102140000Y-194510000D02*
X115140000Y-194510000D01*
X196890000Y-181010000D02*
X196890000Y-194010000D01*
X215940000Y-181010000D02*
G75*
G02*
X216440000Y-180510000I500000J0D01*
G01*
X248990000Y-181010000D02*
X248990000Y-194010000D01*
X216440000Y-194510000D02*
G75*
G02*
X215940000Y-194010000I0J500000D01*
G01*
X121190000Y-194510000D02*
X134190000Y-194510000D01*
X115140000Y-180510000D02*
G75*
G02*
X115640000Y-181010000I0J-500000D01*
G01*
X210890000Y-194010000D02*
G75*
G02*
X210390000Y-194510000I-500000J0D01*
G01*
X210390000Y-180510000D02*
G75*
G02*
X210890000Y-181010000I0J-500000D01*
G01*
X101640000Y-181010000D02*
X101640000Y-194010000D01*
X159290000Y-194510000D02*
G75*
G02*
X158790000Y-194010000I0J500000D01*
G01*
X197390000Y-194510000D02*
X210390000Y-194510000D01*
X191840000Y-194010000D02*
G75*
G02*
X191340000Y-194510000I-500000J0D01*
G01*
X178340000Y-194510000D02*
G75*
G02*
X177840000Y-194010000I0J500000D01*
G01*
X191840000Y-181010000D02*
X191840000Y-194010000D01*
X172790000Y-181010000D02*
X172790000Y-194010000D01*
X159290000Y-194510000D02*
X172290000Y-194510000D01*
X206415000Y-161960000D02*
X206415000Y-174960000D01*
X96590000Y-181010000D02*
X96590000Y-194010000D01*
X42108750Y-181010000D02*
G75*
G02*
X42608750Y-180510000I500000J0D01*
G01*
X82590000Y-181010000D02*
X82590000Y-194010000D01*
X83090000Y-194510000D02*
X96090000Y-194510000D01*
X83090000Y-180510000D02*
X96090000Y-180510000D01*
X77040000Y-180510000D02*
G75*
G02*
X77540000Y-181010000I0J-500000D01*
G01*
X245015000Y-175460000D02*
G75*
G02*
X244515000Y-174960000I0J500000D01*
G01*
X239465000Y-174960000D02*
G75*
G02*
X238965000Y-175460000I-500000J0D01*
G01*
X42608750Y-194510000D02*
G75*
G02*
X42108750Y-194010000I0J500000D01*
G01*
X258515000Y-174960000D02*
G75*
G02*
X258015000Y-175460000I-500000J0D01*
G01*
X258515000Y-161960000D02*
X258515000Y-174960000D01*
X283115000Y-161460000D02*
X303547500Y-161459780D01*
X245015000Y-175460000D02*
X258015000Y-175460000D01*
X77540000Y-194010000D02*
G75*
G02*
X77040000Y-194510000I-500000J0D01*
G01*
X206415000Y-161960000D02*
G75*
G02*
X206915000Y-161460000I500000J0D01*
G01*
X77540000Y-181010000D02*
X77540000Y-194010000D01*
X206915000Y-161460000D02*
X219915000Y-161460000D01*
X263565000Y-161960000D02*
X263565000Y-174960000D01*
X283115000Y-175460000D02*
X285597320Y-175461020D01*
X244515000Y-161960000D02*
G75*
G02*
X245015000Y-161460000I500000J0D01*
G01*
X206915000Y-175460000D02*
G75*
G02*
X206415000Y-174960000I0J500000D01*
G01*
X42108750Y-181010000D02*
X42108750Y-194010000D01*
X225965000Y-161460000D02*
X238965000Y-161460000D01*
X283115000Y-175460000D02*
G75*
G02*
X282615000Y-174960000I0J500000D01*
G01*
X282615000Y-161960000D02*
G75*
G02*
X283115000Y-161460000I500000J0D01*
G01*
X264065000Y-175460000D02*
X277065000Y-175460000D01*
X264065000Y-175460000D02*
G75*
G02*
X263565000Y-174960000I0J500000D01*
G01*
X263565000Y-161960000D02*
G75*
G02*
X264065000Y-161460000I500000J0D01*
G01*
X239465000Y-161960000D02*
X239465000Y-174960000D01*
X220415000Y-161960000D02*
X220415000Y-174960000D01*
X219915000Y-161460000D02*
G75*
G02*
X220415000Y-161960000I0J-500000D01*
G01*
X225465000Y-161960000D02*
X225465000Y-174960000D01*
X282615000Y-161960000D02*
X282615000Y-174960000D01*
X277565000Y-174960000D02*
G75*
G02*
X277065000Y-175460000I-500000J0D01*
G01*
X238965000Y-161460000D02*
G75*
G02*
X239465000Y-161960000I0J-500000D01*
G01*
X245015000Y-161460000D02*
X258015000Y-161460000D01*
X201365000Y-174960000D02*
G75*
G02*
X200865000Y-175460000I-500000J0D01*
G01*
X206915000Y-175460000D02*
X219915000Y-175460000D01*
X277565000Y-161960000D02*
X277565000Y-174960000D01*
X264065000Y-161460000D02*
X277065000Y-161460000D01*
X225465000Y-161960000D02*
G75*
G02*
X225965000Y-161460000I500000J0D01*
G01*
X244515000Y-161960000D02*
X244515000Y-174960000D01*
X220415000Y-174960000D02*
G75*
G02*
X219915000Y-175460000I-500000J0D01*
G01*
X225965000Y-175460000D02*
X238965000Y-175460000D01*
X83090000Y-194510000D02*
G75*
G02*
X82590000Y-194010000I0J500000D01*
G01*
X225965000Y-175460000D02*
G75*
G02*
X225465000Y-174960000I0J500000D01*
G01*
X82590000Y-181010000D02*
G75*
G02*
X83090000Y-180510000I500000J0D01*
G01*
X277065000Y-161460000D02*
G75*
G02*
X277565000Y-161960000I0J-500000D01*
G01*
X258015000Y-161460000D02*
G75*
G02*
X258515000Y-161960000I0J-500000D01*
G01*
X96090000Y-180510000D02*
G75*
G02*
X96590000Y-181010000I0J-500000D01*
G01*
X386525000Y-59685000D02*
G75*
G02*
X389525000Y-62685000I0J-3000000D01*
G01*
X34925000Y-62685000D02*
G75*
G02*
X37925000Y-59685000I3000000J0D01*
G01*
X37925000Y-215785000D02*
G75*
G02*
X34925000Y-212785000I0J3000000D01*
G01*
X389525000Y-212785000D02*
G75*
G02*
X386525000Y-215785000I-3000000J0D01*
G01*
X34925000Y-212785000D02*
X34925000Y-62685000D01*
X386525000Y-215785000D02*
X37925000Y-215785000D01*
M02*
