G04 #@! TF.GenerationSoftware,KiCad,Pcbnew,(5.1.9)-1*
G04 #@! TF.CreationDate,2021-05-20T18:43:03+01:00*
G04 #@! TF.ProjectId,ENV_KB-Back,454e565f-4b42-42d4-9261-636b2e6b6963,Rev.1*
G04 #@! TF.SameCoordinates,Original*
G04 #@! TF.FileFunction,Copper,L2,Bot*
G04 #@! TF.FilePolarity,Positive*
%FSLAX46Y46*%
G04 Gerber Fmt 4.6, Leading zero omitted, Abs format (unit mm)*
G04 Created by KiCad (PCBNEW (5.1.9)-1) date 2021-05-20 18:43:03*
%MOMM*%
%LPD*%
G01*
G04 APERTURE LIST*
G04 #@! TA.AperFunction,EtchedComponent*
%ADD10C,0.010000*%
G04 #@! TD*
G04 APERTURE END LIST*
D10*
G36*
X169028013Y-150426422D02*
G01*
X168832905Y-150482573D01*
X168618581Y-150572963D01*
X168498329Y-150631311D01*
X168167578Y-150826817D01*
X167884574Y-151055610D01*
X167659240Y-151307165D01*
X167501498Y-151570955D01*
X167436500Y-151757703D01*
X167424103Y-151875096D01*
X167440459Y-152018871D01*
X167488519Y-152197776D01*
X167571235Y-152420558D01*
X167691557Y-152695963D01*
X167852437Y-153032741D01*
X167897143Y-153123132D01*
X168294615Y-153922500D01*
X169297481Y-154980833D01*
X169560969Y-155259664D01*
X169829496Y-155545225D01*
X170091392Y-155825005D01*
X170334985Y-156086494D01*
X170548603Y-156317179D01*
X170720575Y-156504551D01*
X170779638Y-156569602D01*
X170962844Y-156767379D01*
X171150592Y-156961435D01*
X171325766Y-157134652D01*
X171471252Y-157269909D01*
X171528809Y-157319005D01*
X171632568Y-157409875D01*
X171787635Y-157554774D01*
X171986882Y-157746461D01*
X172223183Y-157977696D01*
X172489410Y-158241239D01*
X172778436Y-158529850D01*
X173083134Y-158836288D01*
X173396378Y-159153314D01*
X173711039Y-159473688D01*
X174019991Y-159790169D01*
X174316106Y-160095517D01*
X174592259Y-160382493D01*
X174841321Y-160643855D01*
X175056165Y-160872364D01*
X175229664Y-161060780D01*
X175354692Y-161201862D01*
X175376892Y-161228111D01*
X175547001Y-161435142D01*
X175722661Y-161654251D01*
X175884588Y-161861068D01*
X176013499Y-162031225D01*
X176027643Y-162050500D01*
X176173837Y-162237679D01*
X176352008Y-162446777D01*
X176531685Y-162642542D01*
X176596772Y-162708843D01*
X176808957Y-162934599D01*
X176953650Y-163122886D01*
X177029552Y-163271553D01*
X177035363Y-163378448D01*
X177018966Y-163407618D01*
X176936408Y-163460504D01*
X176891276Y-163468667D01*
X176782930Y-163453010D01*
X176613005Y-163409767D01*
X176397816Y-163344528D01*
X176153679Y-163262883D01*
X175896911Y-163170423D01*
X175643827Y-163072738D01*
X175410744Y-162975418D01*
X175283914Y-162917942D01*
X175094843Y-162835135D01*
X174832891Y-162730031D01*
X174505994Y-162605565D01*
X174122089Y-162464673D01*
X173689113Y-162310292D01*
X173215003Y-162145358D01*
X172955580Y-162056646D01*
X172569665Y-161924419D01*
X172197387Y-161794950D01*
X171848819Y-161671878D01*
X171534035Y-161558841D01*
X171263107Y-161459478D01*
X171046108Y-161377427D01*
X170893111Y-161316328D01*
X170834950Y-161290629D01*
X170661618Y-161213554D01*
X170422557Y-161115962D01*
X170132583Y-161003430D01*
X169806513Y-160881535D01*
X169459163Y-160755852D01*
X169105351Y-160631959D01*
X168893000Y-160559752D01*
X168726526Y-160501805D01*
X168509601Y-160423409D01*
X168270624Y-160334952D01*
X168043441Y-160248918D01*
X167776385Y-160151434D01*
X167470043Y-160047413D01*
X167166928Y-159950946D01*
X166963941Y-159891093D01*
X166606809Y-159790073D01*
X166316694Y-159705510D01*
X166078786Y-159632132D01*
X165878272Y-159564668D01*
X165700339Y-159497846D01*
X165530175Y-159426393D01*
X165352968Y-159345038D01*
X165153905Y-159248509D01*
X165142016Y-159242648D01*
X164900311Y-159124001D01*
X164715440Y-159036757D01*
X164568303Y-158974876D01*
X164439795Y-158932317D01*
X164310816Y-158903042D01*
X164162263Y-158881009D01*
X163975033Y-158860178D01*
X163911585Y-158853584D01*
X163549433Y-158803558D01*
X163194804Y-158726756D01*
X162823642Y-158616769D01*
X162411888Y-158467189D01*
X162310167Y-158427013D01*
X161797718Y-158236144D01*
X161327821Y-158089779D01*
X160910344Y-157990831D01*
X160731344Y-157961016D01*
X160548229Y-157925773D01*
X160325043Y-157868733D01*
X160100116Y-157800065D01*
X160020161Y-157772315D01*
X159837437Y-157709957D01*
X159673899Y-157660936D01*
X159552594Y-157631832D01*
X159509881Y-157626667D01*
X159342522Y-157660991D01*
X159154932Y-157755776D01*
X158970205Y-157898739D01*
X158935488Y-157932179D01*
X158814437Y-158088893D01*
X158775693Y-158230337D01*
X158817555Y-158351782D01*
X158938321Y-158448495D01*
X159136289Y-158515746D01*
X159146099Y-158517821D01*
X159442959Y-158588009D01*
X159799139Y-158686400D01*
X160196501Y-158807005D01*
X160616908Y-158943838D01*
X161042223Y-159090909D01*
X161454310Y-159242233D01*
X161835032Y-159391821D01*
X161992667Y-159457560D01*
X162688999Y-159727457D01*
X163403670Y-159953895D01*
X164110406Y-160129248D01*
X164638500Y-160225542D01*
X164932580Y-160277208D01*
X165272596Y-160349282D01*
X165643598Y-160437520D01*
X166030633Y-160537679D01*
X166418748Y-160645514D01*
X166792992Y-160756782D01*
X167138411Y-160867239D01*
X167440054Y-160972641D01*
X167682968Y-161068745D01*
X167799101Y-161122596D01*
X167895160Y-161164620D01*
X168057609Y-161228267D01*
X168272515Y-161308399D01*
X168525942Y-161399879D01*
X168803954Y-161497570D01*
X168987279Y-161560614D01*
X169301539Y-161669696D01*
X169625705Y-161785666D01*
X169939235Y-161900931D01*
X170221588Y-162007898D01*
X170452222Y-162098973D01*
X170524877Y-162129034D01*
X170687256Y-162200595D01*
X170906239Y-162301700D01*
X171171601Y-162427267D01*
X171473114Y-162572213D01*
X171800553Y-162731454D01*
X172143691Y-162899906D01*
X172492303Y-163072487D01*
X172836160Y-163244114D01*
X173165038Y-163409702D01*
X173468710Y-163564169D01*
X173736948Y-163702431D01*
X173959528Y-163819405D01*
X174126222Y-163910008D01*
X174226805Y-163969155D01*
X174227000Y-163969283D01*
X174381482Y-164068712D01*
X174544597Y-164171948D01*
X174598951Y-164205853D01*
X174790249Y-164363803D01*
X174907701Y-164551618D01*
X174946509Y-164755455D01*
X174933028Y-164867464D01*
X174896708Y-165031997D01*
X174843956Y-165222121D01*
X174810557Y-165326955D01*
X174674446Y-165733500D01*
X174672973Y-166813000D01*
X174675331Y-167193595D01*
X174682765Y-167626044D01*
X174694411Y-168077743D01*
X174709404Y-168516088D01*
X174726879Y-168908476D01*
X174730237Y-168972000D01*
X174765147Y-170023310D01*
X174751987Y-171009016D01*
X174690822Y-171927924D01*
X174581718Y-172778841D01*
X174499438Y-173226500D01*
X174446896Y-173486352D01*
X174389821Y-173775737D01*
X174336579Y-174051944D01*
X174308732Y-174200167D01*
X174125997Y-175041570D01*
X173888904Y-175873876D01*
X173746694Y-176298784D01*
X173547932Y-176856147D01*
X173335395Y-177434188D01*
X173114531Y-178019064D01*
X172890788Y-178596934D01*
X172669615Y-179153957D01*
X172456458Y-179676289D01*
X172256767Y-180150091D01*
X172075988Y-180561520D01*
X172024074Y-180675463D01*
X171861665Y-181039848D01*
X171738711Y-181344478D01*
X171651204Y-181602256D01*
X171595137Y-181826087D01*
X171566503Y-182028876D01*
X171560626Y-182167927D01*
X171567311Y-182308807D01*
X171593265Y-182389731D01*
X171641884Y-182432510D01*
X171778660Y-182478474D01*
X171909718Y-182458692D01*
X172049394Y-182368519D01*
X172155065Y-182266276D01*
X172240548Y-182165640D01*
X172362142Y-182009428D01*
X172508857Y-181812418D01*
X172669708Y-181589393D01*
X172833706Y-181355132D01*
X172850345Y-181330945D01*
X173299182Y-180632180D01*
X173735181Y-179865072D01*
X174150660Y-179045791D01*
X174537941Y-178190504D01*
X174889342Y-177315378D01*
X175197184Y-176436581D01*
X175242213Y-176295667D01*
X175330568Y-176019790D01*
X175436315Y-175696573D01*
X175548691Y-175358520D01*
X175656932Y-175038139D01*
X175704781Y-174898667D01*
X175848894Y-174454905D01*
X175969685Y-174020254D01*
X176077206Y-173556970D01*
X176127482Y-173311167D01*
X176186911Y-173013088D01*
X176249440Y-172705226D01*
X176310146Y-172411418D01*
X176364110Y-172155501D01*
X176402758Y-171977667D01*
X176442530Y-171794845D01*
X176476739Y-171624856D01*
X176505880Y-171459567D01*
X176530445Y-171290843D01*
X176550929Y-171110553D01*
X176567826Y-170910562D01*
X176581629Y-170682738D01*
X176592832Y-170418948D01*
X176601930Y-170111057D01*
X176609415Y-169750934D01*
X176615782Y-169330445D01*
X176621524Y-168841457D01*
X176627065Y-168283258D01*
X176650906Y-165753016D01*
X176781444Y-165643176D01*
X176880140Y-165573609D01*
X176976982Y-165549030D01*
X177104074Y-165556498D01*
X177199665Y-165572125D01*
X177300342Y-165598644D01*
X177413525Y-165640068D01*
X177546634Y-165700407D01*
X177707090Y-165783675D01*
X177902312Y-165893883D01*
X178139721Y-166035043D01*
X178426737Y-166211167D01*
X178770779Y-166426267D01*
X179116500Y-166644584D01*
X179464733Y-166865125D01*
X179828248Y-167095314D01*
X180191715Y-167325445D01*
X180539807Y-167545814D01*
X180857192Y-167746715D01*
X181128542Y-167918443D01*
X181275500Y-168011426D01*
X181740011Y-168310168D01*
X182153626Y-168588200D01*
X182528818Y-168856004D01*
X182878064Y-169124060D01*
X183213836Y-169402849D01*
X183548608Y-169702852D01*
X183894856Y-170034549D01*
X184265053Y-170408421D01*
X184671673Y-170834949D01*
X184803337Y-170975503D01*
X184954195Y-171123848D01*
X185125825Y-171273130D01*
X185269003Y-171382307D01*
X185416559Y-171497564D01*
X185607007Y-171667609D01*
X185829666Y-171881672D01*
X186073853Y-172128985D01*
X186328883Y-172398775D01*
X186584075Y-172680273D01*
X186781846Y-172907463D01*
X186905251Y-173047469D01*
X187077652Y-173236432D01*
X187288495Y-173463125D01*
X187527224Y-173716321D01*
X187783284Y-173984794D01*
X188046121Y-174257316D01*
X188186719Y-174401764D01*
X188445168Y-174668375D01*
X188699143Y-174934092D01*
X188938766Y-175188308D01*
X189154159Y-175420415D01*
X189335443Y-175619807D01*
X189472739Y-175775874D01*
X189528545Y-175842634D01*
X189776332Y-176134672D01*
X189987638Y-176352125D01*
X190164026Y-176496045D01*
X190307061Y-176567486D01*
X190418305Y-176567499D01*
X190499324Y-176497137D01*
X190499844Y-176496310D01*
X190517919Y-176437075D01*
X190501108Y-176353768D01*
X190444290Y-176225969D01*
X190420190Y-176178810D01*
X190306788Y-175977520D01*
X190151933Y-175726696D01*
X189966999Y-175442968D01*
X189763362Y-175142964D01*
X189552397Y-174843314D01*
X189345480Y-174560646D01*
X189153986Y-174311589D01*
X189081160Y-174221333D01*
X188929712Y-174035894D01*
X188788557Y-173861079D01*
X188670799Y-173713255D01*
X188589544Y-173608791D01*
X188572762Y-173586333D01*
X188444035Y-173411848D01*
X188293030Y-173209372D01*
X188129900Y-172992285D01*
X187964803Y-172773969D01*
X187807893Y-172567803D01*
X187669327Y-172387167D01*
X187559259Y-172245441D01*
X187487845Y-172156006D01*
X187480309Y-172147000D01*
X187413000Y-172058207D01*
X187313053Y-171914459D01*
X187192078Y-171732984D01*
X187061687Y-171531012D01*
X187009593Y-171448500D01*
X186664509Y-170898167D01*
X186698087Y-170623000D01*
X186728700Y-170307637D01*
X186729332Y-170056017D01*
X186692472Y-169850250D01*
X186610606Y-169672448D01*
X186476223Y-169504722D01*
X186281811Y-169329183D01*
X186093130Y-169182423D01*
X185893448Y-169031268D01*
X185655004Y-168848507D01*
X185388220Y-168642329D01*
X185103514Y-168420924D01*
X184811306Y-168192481D01*
X184522015Y-167965191D01*
X184246060Y-167747242D01*
X183993862Y-167546825D01*
X183775839Y-167372128D01*
X183602411Y-167231343D01*
X183483997Y-167132658D01*
X183470739Y-167121224D01*
X183311450Y-166972491D01*
X183136679Y-166793475D01*
X182982399Y-166621132D01*
X182972644Y-166609491D01*
X182880858Y-166507426D01*
X182737127Y-166357853D01*
X182551582Y-166170840D01*
X182334356Y-165956452D01*
X182095579Y-165724758D01*
X181845383Y-165485825D01*
X181772239Y-165416713D01*
X181422556Y-165086630D01*
X181128228Y-164807326D01*
X180882583Y-164571953D01*
X180678947Y-164373664D01*
X180510648Y-164205610D01*
X180371013Y-164060944D01*
X180253369Y-163932817D01*
X180151042Y-163814381D01*
X180057360Y-163698788D01*
X179965650Y-163579191D01*
X179913983Y-163509699D01*
X179773069Y-163327990D01*
X179625104Y-163152590D01*
X179490097Y-163006482D01*
X179408761Y-162929419D01*
X179111804Y-162674730D01*
X178867959Y-162460896D01*
X178664377Y-162275688D01*
X178488211Y-162106877D01*
X178326613Y-161942236D01*
X178166735Y-161769536D01*
X178037685Y-161624474D01*
X177747682Y-161303497D01*
X177417951Y-160953889D01*
X177072894Y-160600719D01*
X176736913Y-160269053D01*
X176494967Y-160039667D01*
X176387781Y-159932321D01*
X176236248Y-159769255D01*
X176049103Y-159560710D01*
X175835081Y-159316927D01*
X175602915Y-159048147D01*
X175361340Y-158764611D01*
X175119090Y-158476561D01*
X174884900Y-158194236D01*
X174667503Y-157927879D01*
X174475634Y-157687731D01*
X174339616Y-157512484D01*
X174147823Y-157268423D01*
X173927631Y-157000523D01*
X173702472Y-156736599D01*
X173495777Y-156504463D01*
X173436328Y-156440335D01*
X173028468Y-155995996D01*
X172673943Y-155586375D01*
X172359265Y-155194194D01*
X172070947Y-154802178D01*
X171795502Y-154393052D01*
X171617673Y-154110894D01*
X171420486Y-153786273D01*
X171267793Y-153522586D01*
X171156307Y-153310875D01*
X171082738Y-153142180D01*
X171043798Y-153007543D01*
X171036197Y-152898003D01*
X171056648Y-152804603D01*
X171101861Y-152718383D01*
X171104845Y-152713902D01*
X171171153Y-152627667D01*
X171241228Y-152581719D01*
X171346545Y-152560812D01*
X171434428Y-152554255D01*
X171617392Y-152555347D01*
X171818869Y-152573538D01*
X171907115Y-152587715D01*
X172050659Y-152623676D01*
X172262913Y-152687828D01*
X172534130Y-152776532D01*
X172854562Y-152886151D01*
X173214464Y-153013046D01*
X173604089Y-153153581D01*
X174013690Y-153304117D01*
X174433519Y-153461016D01*
X174853831Y-153620640D01*
X175264878Y-153779353D01*
X175656914Y-153933515D01*
X176020191Y-154079488D01*
X176344964Y-154213636D01*
X176621486Y-154332321D01*
X176809334Y-154417399D01*
X177007272Y-154515899D01*
X177246021Y-154643254D01*
X177495026Y-154782759D01*
X177716456Y-154913281D01*
X177934151Y-155042407D01*
X178200065Y-155195038D01*
X178487139Y-155355924D01*
X178768317Y-155509817D01*
X178901790Y-155581261D01*
X179164834Y-155723185D01*
X179443343Y-155877617D01*
X179711749Y-156030111D01*
X179944483Y-156166220D01*
X180047834Y-156228749D01*
X180252959Y-156354252D01*
X180504495Y-156506929D01*
X180776010Y-156670801D01*
X181041070Y-156829893D01*
X181148500Y-156894059D01*
X181531837Y-157126216D01*
X181968177Y-157397307D01*
X182461777Y-157710024D01*
X183016895Y-158067059D01*
X183481880Y-158369265D01*
X183650893Y-158484772D01*
X183859181Y-158634937D01*
X184080671Y-158800588D01*
X184289285Y-158962554D01*
X184295305Y-158967341D01*
X184505505Y-159130093D01*
X184731981Y-159297975D01*
X184947711Y-159451361D01*
X185125672Y-159570625D01*
X185127846Y-159572010D01*
X185270747Y-159668249D01*
X185463736Y-159805905D01*
X185690979Y-159973268D01*
X185936641Y-160158628D01*
X186184887Y-160350275D01*
X186261754Y-160410597D01*
X186495144Y-160592167D01*
X186719419Y-160762265D01*
X186921789Y-160911525D01*
X187089468Y-161030584D01*
X187209666Y-161110077D01*
X187244500Y-161130257D01*
X187507063Y-161222936D01*
X187789201Y-161239844D01*
X188077854Y-161183332D01*
X188359962Y-161055754D01*
X188591156Y-160887688D01*
X188768872Y-160710050D01*
X188883013Y-160537666D01*
X188949181Y-160345801D01*
X188957197Y-160307304D01*
X188971503Y-160219693D01*
X188976245Y-160138316D01*
X188967007Y-160059522D01*
X188939376Y-159979662D01*
X188888936Y-159895086D01*
X188811273Y-159802145D01*
X188701971Y-159697189D01*
X188556617Y-159576569D01*
X188370795Y-159436634D01*
X188140091Y-159273736D01*
X187860090Y-159084224D01*
X187526377Y-158864449D01*
X187134537Y-158610762D01*
X186680156Y-158319512D01*
X186158820Y-157987051D01*
X186122667Y-157964027D01*
X185752872Y-157727868D01*
X185397365Y-157499550D01*
X185063985Y-157284198D01*
X184760574Y-157086933D01*
X184494973Y-156912879D01*
X184275022Y-156767159D01*
X184108562Y-156654895D01*
X184003434Y-156581211D01*
X183984834Y-156567245D01*
X183730339Y-156376857D01*
X183469411Y-156197565D01*
X183180847Y-156015628D01*
X182843442Y-155817305D01*
X182714834Y-155744266D01*
X182473702Y-155607024D01*
X182207275Y-155453359D01*
X181950222Y-155303370D01*
X181762334Y-155192187D01*
X181541872Y-155067084D01*
X181277695Y-154927238D01*
X181004261Y-154790421D01*
X180774244Y-154682548D01*
X180517177Y-154561374D01*
X180225033Y-154414543D01*
X179934679Y-154261039D01*
X179694744Y-154126705D01*
X179438115Y-153981080D01*
X179143654Y-153819772D01*
X178849019Y-153663130D01*
X178608500Y-153539793D01*
X178316237Y-153399733D01*
X177956552Y-153237225D01*
X177542090Y-153057352D01*
X177085495Y-152865199D01*
X176599411Y-152665848D01*
X176096483Y-152464383D01*
X175589355Y-152265885D01*
X175090672Y-152075440D01*
X174613077Y-151898129D01*
X174169215Y-151739035D01*
X173888334Y-151642238D01*
X173741589Y-151592398D01*
X173535478Y-151522022D01*
X173290671Y-151438187D01*
X173027838Y-151347971D01*
X172830000Y-151279923D01*
X172239516Y-151089181D01*
X171577180Y-150898210D01*
X170855726Y-150710480D01*
X170087888Y-150529459D01*
X170014834Y-150513146D01*
X169697316Y-150447871D01*
X169440291Y-150410624D01*
X169223833Y-150402956D01*
X169028013Y-150426422D01*
G37*
X169028013Y-150426422D02*
X168832905Y-150482573D01*
X168618581Y-150572963D01*
X168498329Y-150631311D01*
X168167578Y-150826817D01*
X167884574Y-151055610D01*
X167659240Y-151307165D01*
X167501498Y-151570955D01*
X167436500Y-151757703D01*
X167424103Y-151875096D01*
X167440459Y-152018871D01*
X167488519Y-152197776D01*
X167571235Y-152420558D01*
X167691557Y-152695963D01*
X167852437Y-153032741D01*
X167897143Y-153123132D01*
X168294615Y-153922500D01*
X169297481Y-154980833D01*
X169560969Y-155259664D01*
X169829496Y-155545225D01*
X170091392Y-155825005D01*
X170334985Y-156086494D01*
X170548603Y-156317179D01*
X170720575Y-156504551D01*
X170779638Y-156569602D01*
X170962844Y-156767379D01*
X171150592Y-156961435D01*
X171325766Y-157134652D01*
X171471252Y-157269909D01*
X171528809Y-157319005D01*
X171632568Y-157409875D01*
X171787635Y-157554774D01*
X171986882Y-157746461D01*
X172223183Y-157977696D01*
X172489410Y-158241239D01*
X172778436Y-158529850D01*
X173083134Y-158836288D01*
X173396378Y-159153314D01*
X173711039Y-159473688D01*
X174019991Y-159790169D01*
X174316106Y-160095517D01*
X174592259Y-160382493D01*
X174841321Y-160643855D01*
X175056165Y-160872364D01*
X175229664Y-161060780D01*
X175354692Y-161201862D01*
X175376892Y-161228111D01*
X175547001Y-161435142D01*
X175722661Y-161654251D01*
X175884588Y-161861068D01*
X176013499Y-162031225D01*
X176027643Y-162050500D01*
X176173837Y-162237679D01*
X176352008Y-162446777D01*
X176531685Y-162642542D01*
X176596772Y-162708843D01*
X176808957Y-162934599D01*
X176953650Y-163122886D01*
X177029552Y-163271553D01*
X177035363Y-163378448D01*
X177018966Y-163407618D01*
X176936408Y-163460504D01*
X176891276Y-163468667D01*
X176782930Y-163453010D01*
X176613005Y-163409767D01*
X176397816Y-163344528D01*
X176153679Y-163262883D01*
X175896911Y-163170423D01*
X175643827Y-163072738D01*
X175410744Y-162975418D01*
X175283914Y-162917942D01*
X175094843Y-162835135D01*
X174832891Y-162730031D01*
X174505994Y-162605565D01*
X174122089Y-162464673D01*
X173689113Y-162310292D01*
X173215003Y-162145358D01*
X172955580Y-162056646D01*
X172569665Y-161924419D01*
X172197387Y-161794950D01*
X171848819Y-161671878D01*
X171534035Y-161558841D01*
X171263107Y-161459478D01*
X171046108Y-161377427D01*
X170893111Y-161316328D01*
X170834950Y-161290629D01*
X170661618Y-161213554D01*
X170422557Y-161115962D01*
X170132583Y-161003430D01*
X169806513Y-160881535D01*
X169459163Y-160755852D01*
X169105351Y-160631959D01*
X168893000Y-160559752D01*
X168726526Y-160501805D01*
X168509601Y-160423409D01*
X168270624Y-160334952D01*
X168043441Y-160248918D01*
X167776385Y-160151434D01*
X167470043Y-160047413D01*
X167166928Y-159950946D01*
X166963941Y-159891093D01*
X166606809Y-159790073D01*
X166316694Y-159705510D01*
X166078786Y-159632132D01*
X165878272Y-159564668D01*
X165700339Y-159497846D01*
X165530175Y-159426393D01*
X165352968Y-159345038D01*
X165153905Y-159248509D01*
X165142016Y-159242648D01*
X164900311Y-159124001D01*
X164715440Y-159036757D01*
X164568303Y-158974876D01*
X164439795Y-158932317D01*
X164310816Y-158903042D01*
X164162263Y-158881009D01*
X163975033Y-158860178D01*
X163911585Y-158853584D01*
X163549433Y-158803558D01*
X163194804Y-158726756D01*
X162823642Y-158616769D01*
X162411888Y-158467189D01*
X162310167Y-158427013D01*
X161797718Y-158236144D01*
X161327821Y-158089779D01*
X160910344Y-157990831D01*
X160731344Y-157961016D01*
X160548229Y-157925773D01*
X160325043Y-157868733D01*
X160100116Y-157800065D01*
X160020161Y-157772315D01*
X159837437Y-157709957D01*
X159673899Y-157660936D01*
X159552594Y-157631832D01*
X159509881Y-157626667D01*
X159342522Y-157660991D01*
X159154932Y-157755776D01*
X158970205Y-157898739D01*
X158935488Y-157932179D01*
X158814437Y-158088893D01*
X158775693Y-158230337D01*
X158817555Y-158351782D01*
X158938321Y-158448495D01*
X159136289Y-158515746D01*
X159146099Y-158517821D01*
X159442959Y-158588009D01*
X159799139Y-158686400D01*
X160196501Y-158807005D01*
X160616908Y-158943838D01*
X161042223Y-159090909D01*
X161454310Y-159242233D01*
X161835032Y-159391821D01*
X161992667Y-159457560D01*
X162688999Y-159727457D01*
X163403670Y-159953895D01*
X164110406Y-160129248D01*
X164638500Y-160225542D01*
X164932580Y-160277208D01*
X165272596Y-160349282D01*
X165643598Y-160437520D01*
X166030633Y-160537679D01*
X166418748Y-160645514D01*
X166792992Y-160756782D01*
X167138411Y-160867239D01*
X167440054Y-160972641D01*
X167682968Y-161068745D01*
X167799101Y-161122596D01*
X167895160Y-161164620D01*
X168057609Y-161228267D01*
X168272515Y-161308399D01*
X168525942Y-161399879D01*
X168803954Y-161497570D01*
X168987279Y-161560614D01*
X169301539Y-161669696D01*
X169625705Y-161785666D01*
X169939235Y-161900931D01*
X170221588Y-162007898D01*
X170452222Y-162098973D01*
X170524877Y-162129034D01*
X170687256Y-162200595D01*
X170906239Y-162301700D01*
X171171601Y-162427267D01*
X171473114Y-162572213D01*
X171800553Y-162731454D01*
X172143691Y-162899906D01*
X172492303Y-163072487D01*
X172836160Y-163244114D01*
X173165038Y-163409702D01*
X173468710Y-163564169D01*
X173736948Y-163702431D01*
X173959528Y-163819405D01*
X174126222Y-163910008D01*
X174226805Y-163969155D01*
X174227000Y-163969283D01*
X174381482Y-164068712D01*
X174544597Y-164171948D01*
X174598951Y-164205853D01*
X174790249Y-164363803D01*
X174907701Y-164551618D01*
X174946509Y-164755455D01*
X174933028Y-164867464D01*
X174896708Y-165031997D01*
X174843956Y-165222121D01*
X174810557Y-165326955D01*
X174674446Y-165733500D01*
X174672973Y-166813000D01*
X174675331Y-167193595D01*
X174682765Y-167626044D01*
X174694411Y-168077743D01*
X174709404Y-168516088D01*
X174726879Y-168908476D01*
X174730237Y-168972000D01*
X174765147Y-170023310D01*
X174751987Y-171009016D01*
X174690822Y-171927924D01*
X174581718Y-172778841D01*
X174499438Y-173226500D01*
X174446896Y-173486352D01*
X174389821Y-173775737D01*
X174336579Y-174051944D01*
X174308732Y-174200167D01*
X174125997Y-175041570D01*
X173888904Y-175873876D01*
X173746694Y-176298784D01*
X173547932Y-176856147D01*
X173335395Y-177434188D01*
X173114531Y-178019064D01*
X172890788Y-178596934D01*
X172669615Y-179153957D01*
X172456458Y-179676289D01*
X172256767Y-180150091D01*
X172075988Y-180561520D01*
X172024074Y-180675463D01*
X171861665Y-181039848D01*
X171738711Y-181344478D01*
X171651204Y-181602256D01*
X171595137Y-181826087D01*
X171566503Y-182028876D01*
X171560626Y-182167927D01*
X171567311Y-182308807D01*
X171593265Y-182389731D01*
X171641884Y-182432510D01*
X171778660Y-182478474D01*
X171909718Y-182458692D01*
X172049394Y-182368519D01*
X172155065Y-182266276D01*
X172240548Y-182165640D01*
X172362142Y-182009428D01*
X172508857Y-181812418D01*
X172669708Y-181589393D01*
X172833706Y-181355132D01*
X172850345Y-181330945D01*
X173299182Y-180632180D01*
X173735181Y-179865072D01*
X174150660Y-179045791D01*
X174537941Y-178190504D01*
X174889342Y-177315378D01*
X175197184Y-176436581D01*
X175242213Y-176295667D01*
X175330568Y-176019790D01*
X175436315Y-175696573D01*
X175548691Y-175358520D01*
X175656932Y-175038139D01*
X175704781Y-174898667D01*
X175848894Y-174454905D01*
X175969685Y-174020254D01*
X176077206Y-173556970D01*
X176127482Y-173311167D01*
X176186911Y-173013088D01*
X176249440Y-172705226D01*
X176310146Y-172411418D01*
X176364110Y-172155501D01*
X176402758Y-171977667D01*
X176442530Y-171794845D01*
X176476739Y-171624856D01*
X176505880Y-171459567D01*
X176530445Y-171290843D01*
X176550929Y-171110553D01*
X176567826Y-170910562D01*
X176581629Y-170682738D01*
X176592832Y-170418948D01*
X176601930Y-170111057D01*
X176609415Y-169750934D01*
X176615782Y-169330445D01*
X176621524Y-168841457D01*
X176627065Y-168283258D01*
X176650906Y-165753016D01*
X176781444Y-165643176D01*
X176880140Y-165573609D01*
X176976982Y-165549030D01*
X177104074Y-165556498D01*
X177199665Y-165572125D01*
X177300342Y-165598644D01*
X177413525Y-165640068D01*
X177546634Y-165700407D01*
X177707090Y-165783675D01*
X177902312Y-165893883D01*
X178139721Y-166035043D01*
X178426737Y-166211167D01*
X178770779Y-166426267D01*
X179116500Y-166644584D01*
X179464733Y-166865125D01*
X179828248Y-167095314D01*
X180191715Y-167325445D01*
X180539807Y-167545814D01*
X180857192Y-167746715D01*
X181128542Y-167918443D01*
X181275500Y-168011426D01*
X181740011Y-168310168D01*
X182153626Y-168588200D01*
X182528818Y-168856004D01*
X182878064Y-169124060D01*
X183213836Y-169402849D01*
X183548608Y-169702852D01*
X183894856Y-170034549D01*
X184265053Y-170408421D01*
X184671673Y-170834949D01*
X184803337Y-170975503D01*
X184954195Y-171123848D01*
X185125825Y-171273130D01*
X185269003Y-171382307D01*
X185416559Y-171497564D01*
X185607007Y-171667609D01*
X185829666Y-171881672D01*
X186073853Y-172128985D01*
X186328883Y-172398775D01*
X186584075Y-172680273D01*
X186781846Y-172907463D01*
X186905251Y-173047469D01*
X187077652Y-173236432D01*
X187288495Y-173463125D01*
X187527224Y-173716321D01*
X187783284Y-173984794D01*
X188046121Y-174257316D01*
X188186719Y-174401764D01*
X188445168Y-174668375D01*
X188699143Y-174934092D01*
X188938766Y-175188308D01*
X189154159Y-175420415D01*
X189335443Y-175619807D01*
X189472739Y-175775874D01*
X189528545Y-175842634D01*
X189776332Y-176134672D01*
X189987638Y-176352125D01*
X190164026Y-176496045D01*
X190307061Y-176567486D01*
X190418305Y-176567499D01*
X190499324Y-176497137D01*
X190499844Y-176496310D01*
X190517919Y-176437075D01*
X190501108Y-176353768D01*
X190444290Y-176225969D01*
X190420190Y-176178810D01*
X190306788Y-175977520D01*
X190151933Y-175726696D01*
X189966999Y-175442968D01*
X189763362Y-175142964D01*
X189552397Y-174843314D01*
X189345480Y-174560646D01*
X189153986Y-174311589D01*
X189081160Y-174221333D01*
X188929712Y-174035894D01*
X188788557Y-173861079D01*
X188670799Y-173713255D01*
X188589544Y-173608791D01*
X188572762Y-173586333D01*
X188444035Y-173411848D01*
X188293030Y-173209372D01*
X188129900Y-172992285D01*
X187964803Y-172773969D01*
X187807893Y-172567803D01*
X187669327Y-172387167D01*
X187559259Y-172245441D01*
X187487845Y-172156006D01*
X187480309Y-172147000D01*
X187413000Y-172058207D01*
X187313053Y-171914459D01*
X187192078Y-171732984D01*
X187061687Y-171531012D01*
X187009593Y-171448500D01*
X186664509Y-170898167D01*
X186698087Y-170623000D01*
X186728700Y-170307637D01*
X186729332Y-170056017D01*
X186692472Y-169850250D01*
X186610606Y-169672448D01*
X186476223Y-169504722D01*
X186281811Y-169329183D01*
X186093130Y-169182423D01*
X185893448Y-169031268D01*
X185655004Y-168848507D01*
X185388220Y-168642329D01*
X185103514Y-168420924D01*
X184811306Y-168192481D01*
X184522015Y-167965191D01*
X184246060Y-167747242D01*
X183993862Y-167546825D01*
X183775839Y-167372128D01*
X183602411Y-167231343D01*
X183483997Y-167132658D01*
X183470739Y-167121224D01*
X183311450Y-166972491D01*
X183136679Y-166793475D01*
X182982399Y-166621132D01*
X182972644Y-166609491D01*
X182880858Y-166507426D01*
X182737127Y-166357853D01*
X182551582Y-166170840D01*
X182334356Y-165956452D01*
X182095579Y-165724758D01*
X181845383Y-165485825D01*
X181772239Y-165416713D01*
X181422556Y-165086630D01*
X181128228Y-164807326D01*
X180882583Y-164571953D01*
X180678947Y-164373664D01*
X180510648Y-164205610D01*
X180371013Y-164060944D01*
X180253369Y-163932817D01*
X180151042Y-163814381D01*
X180057360Y-163698788D01*
X179965650Y-163579191D01*
X179913983Y-163509699D01*
X179773069Y-163327990D01*
X179625104Y-163152590D01*
X179490097Y-163006482D01*
X179408761Y-162929419D01*
X179111804Y-162674730D01*
X178867959Y-162460896D01*
X178664377Y-162275688D01*
X178488211Y-162106877D01*
X178326613Y-161942236D01*
X178166735Y-161769536D01*
X178037685Y-161624474D01*
X177747682Y-161303497D01*
X177417951Y-160953889D01*
X177072894Y-160600719D01*
X176736913Y-160269053D01*
X176494967Y-160039667D01*
X176387781Y-159932321D01*
X176236248Y-159769255D01*
X176049103Y-159560710D01*
X175835081Y-159316927D01*
X175602915Y-159048147D01*
X175361340Y-158764611D01*
X175119090Y-158476561D01*
X174884900Y-158194236D01*
X174667503Y-157927879D01*
X174475634Y-157687731D01*
X174339616Y-157512484D01*
X174147823Y-157268423D01*
X173927631Y-157000523D01*
X173702472Y-156736599D01*
X173495777Y-156504463D01*
X173436328Y-156440335D01*
X173028468Y-155995996D01*
X172673943Y-155586375D01*
X172359265Y-155194194D01*
X172070947Y-154802178D01*
X171795502Y-154393052D01*
X171617673Y-154110894D01*
X171420486Y-153786273D01*
X171267793Y-153522586D01*
X171156307Y-153310875D01*
X171082738Y-153142180D01*
X171043798Y-153007543D01*
X171036197Y-152898003D01*
X171056648Y-152804603D01*
X171101861Y-152718383D01*
X171104845Y-152713902D01*
X171171153Y-152627667D01*
X171241228Y-152581719D01*
X171346545Y-152560812D01*
X171434428Y-152554255D01*
X171617392Y-152555347D01*
X171818869Y-152573538D01*
X171907115Y-152587715D01*
X172050659Y-152623676D01*
X172262913Y-152687828D01*
X172534130Y-152776532D01*
X172854562Y-152886151D01*
X173214464Y-153013046D01*
X173604089Y-153153581D01*
X174013690Y-153304117D01*
X174433519Y-153461016D01*
X174853831Y-153620640D01*
X175264878Y-153779353D01*
X175656914Y-153933515D01*
X176020191Y-154079488D01*
X176344964Y-154213636D01*
X176621486Y-154332321D01*
X176809334Y-154417399D01*
X177007272Y-154515899D01*
X177246021Y-154643254D01*
X177495026Y-154782759D01*
X177716456Y-154913281D01*
X177934151Y-155042407D01*
X178200065Y-155195038D01*
X178487139Y-155355924D01*
X178768317Y-155509817D01*
X178901790Y-155581261D01*
X179164834Y-155723185D01*
X179443343Y-155877617D01*
X179711749Y-156030111D01*
X179944483Y-156166220D01*
X180047834Y-156228749D01*
X180252959Y-156354252D01*
X180504495Y-156506929D01*
X180776010Y-156670801D01*
X181041070Y-156829893D01*
X181148500Y-156894059D01*
X181531837Y-157126216D01*
X181968177Y-157397307D01*
X182461777Y-157710024D01*
X183016895Y-158067059D01*
X183481880Y-158369265D01*
X183650893Y-158484772D01*
X183859181Y-158634937D01*
X184080671Y-158800588D01*
X184289285Y-158962554D01*
X184295305Y-158967341D01*
X184505505Y-159130093D01*
X184731981Y-159297975D01*
X184947711Y-159451361D01*
X185125672Y-159570625D01*
X185127846Y-159572010D01*
X185270747Y-159668249D01*
X185463736Y-159805905D01*
X185690979Y-159973268D01*
X185936641Y-160158628D01*
X186184887Y-160350275D01*
X186261754Y-160410597D01*
X186495144Y-160592167D01*
X186719419Y-160762265D01*
X186921789Y-160911525D01*
X187089468Y-161030584D01*
X187209666Y-161110077D01*
X187244500Y-161130257D01*
X187507063Y-161222936D01*
X187789201Y-161239844D01*
X188077854Y-161183332D01*
X188359962Y-161055754D01*
X188591156Y-160887688D01*
X188768872Y-160710050D01*
X188883013Y-160537666D01*
X188949181Y-160345801D01*
X188957197Y-160307304D01*
X188971503Y-160219693D01*
X188976245Y-160138316D01*
X188967007Y-160059522D01*
X188939376Y-159979662D01*
X188888936Y-159895086D01*
X188811273Y-159802145D01*
X188701971Y-159697189D01*
X188556617Y-159576569D01*
X188370795Y-159436634D01*
X188140091Y-159273736D01*
X187860090Y-159084224D01*
X187526377Y-158864449D01*
X187134537Y-158610762D01*
X186680156Y-158319512D01*
X186158820Y-157987051D01*
X186122667Y-157964027D01*
X185752872Y-157727868D01*
X185397365Y-157499550D01*
X185063985Y-157284198D01*
X184760574Y-157086933D01*
X184494973Y-156912879D01*
X184275022Y-156767159D01*
X184108562Y-156654895D01*
X184003434Y-156581211D01*
X183984834Y-156567245D01*
X183730339Y-156376857D01*
X183469411Y-156197565D01*
X183180847Y-156015628D01*
X182843442Y-155817305D01*
X182714834Y-155744266D01*
X182473702Y-155607024D01*
X182207275Y-155453359D01*
X181950222Y-155303370D01*
X181762334Y-155192187D01*
X181541872Y-155067084D01*
X181277695Y-154927238D01*
X181004261Y-154790421D01*
X180774244Y-154682548D01*
X180517177Y-154561374D01*
X180225033Y-154414543D01*
X179934679Y-154261039D01*
X179694744Y-154126705D01*
X179438115Y-153981080D01*
X179143654Y-153819772D01*
X178849019Y-153663130D01*
X178608500Y-153539793D01*
X178316237Y-153399733D01*
X177956552Y-153237225D01*
X177542090Y-153057352D01*
X177085495Y-152865199D01*
X176599411Y-152665848D01*
X176096483Y-152464383D01*
X175589355Y-152265885D01*
X175090672Y-152075440D01*
X174613077Y-151898129D01*
X174169215Y-151739035D01*
X173888334Y-151642238D01*
X173741589Y-151592398D01*
X173535478Y-151522022D01*
X173290671Y-151438187D01*
X173027838Y-151347971D01*
X172830000Y-151279923D01*
X172239516Y-151089181D01*
X171577180Y-150898210D01*
X170855726Y-150710480D01*
X170087888Y-150529459D01*
X170014834Y-150513146D01*
X169697316Y-150447871D01*
X169440291Y-150410624D01*
X169223833Y-150402956D01*
X169028013Y-150426422D01*
G36*
X258487730Y-111150123D02*
G01*
X258453259Y-111155775D01*
X258407284Y-111165334D01*
X258348071Y-111179348D01*
X258273882Y-111198362D01*
X258182984Y-111222924D01*
X258073639Y-111253581D01*
X257944114Y-111290879D01*
X257792671Y-111335365D01*
X257617577Y-111387586D01*
X257417095Y-111448088D01*
X257189489Y-111517420D01*
X256933025Y-111596127D01*
X256645966Y-111684756D01*
X256326578Y-111783854D01*
X255973124Y-111893968D01*
X255583870Y-112015645D01*
X255157079Y-112149431D01*
X254691016Y-112295874D01*
X254183946Y-112455519D01*
X253634134Y-112628915D01*
X253039843Y-112816608D01*
X252399338Y-113019144D01*
X251710884Y-113237071D01*
X250972745Y-113470935D01*
X250183185Y-113721283D01*
X249340470Y-113988662D01*
X248442864Y-114273619D01*
X247488630Y-114576700D01*
X246476034Y-114898453D01*
X245403341Y-115239424D01*
X244268814Y-115600160D01*
X243070718Y-115981207D01*
X241807317Y-116383114D01*
X240476877Y-116806426D01*
X239077661Y-117251690D01*
X237607934Y-117719453D01*
X236065961Y-118210262D01*
X234450006Y-118724664D01*
X232758334Y-119263206D01*
X230989208Y-119826434D01*
X229414527Y-120327776D01*
X227887007Y-120814135D01*
X226379170Y-121294281D01*
X224893039Y-121767566D01*
X223430639Y-122233345D01*
X221993993Y-122690973D01*
X220585124Y-123139804D01*
X219206057Y-123579193D01*
X217858814Y-124008494D01*
X216545419Y-124427061D01*
X215267896Y-124834248D01*
X214028269Y-125229411D01*
X212828560Y-125611903D01*
X211670794Y-125981079D01*
X210556994Y-126336293D01*
X209489183Y-126676900D01*
X208469386Y-127002254D01*
X207499625Y-127311710D01*
X206581925Y-127604621D01*
X205718309Y-127880342D01*
X204910800Y-128138228D01*
X204161422Y-128377634D01*
X203472199Y-128597912D01*
X202845154Y-128798419D01*
X202282311Y-128978507D01*
X201785693Y-129137532D01*
X201357324Y-129274849D01*
X200999228Y-129389810D01*
X200713427Y-129481772D01*
X200501946Y-129550087D01*
X200366808Y-129594112D01*
X200310037Y-129613199D01*
X200308441Y-129613853D01*
X200218091Y-129690433D01*
X200154547Y-129789529D01*
X200127242Y-129869142D01*
X200121214Y-129942880D01*
X200142988Y-130018217D01*
X200199085Y-130102627D01*
X200296031Y-130203584D01*
X200440347Y-130328563D01*
X200638559Y-130485038D01*
X200897189Y-130680482D01*
X200997325Y-130755115D01*
X201809487Y-131359199D01*
X198887327Y-132288466D01*
X198407186Y-132441412D01*
X197949473Y-132587714D01*
X197520771Y-132725236D01*
X197127660Y-132851843D01*
X196776722Y-132965402D01*
X196474538Y-133063777D01*
X196227691Y-133144834D01*
X196042760Y-133206438D01*
X195926329Y-133246454D01*
X195886043Y-133261950D01*
X195812726Y-133331766D01*
X195753316Y-133430196D01*
X195725968Y-133505769D01*
X195717834Y-133575785D01*
X195735196Y-133647178D01*
X195784338Y-133726877D01*
X195871540Y-133821815D01*
X196003087Y-133938923D01*
X196185261Y-134085133D01*
X196424344Y-134267376D01*
X196695000Y-134469142D01*
X196953622Y-134663227D01*
X197173820Y-134833060D01*
X197349256Y-134973462D01*
X197473591Y-135079257D01*
X197540487Y-135145266D01*
X197548173Y-135166029D01*
X197499078Y-135181912D01*
X197375795Y-135221389D01*
X197184821Y-135282388D01*
X196932650Y-135362839D01*
X196625779Y-135460671D01*
X196270704Y-135573815D01*
X195873920Y-135700200D01*
X195441923Y-135837755D01*
X194981209Y-135984411D01*
X194548066Y-136122252D01*
X194067223Y-136275602D01*
X193609468Y-136422265D01*
X193181278Y-136560122D01*
X192789130Y-136687057D01*
X192439501Y-136800953D01*
X192138867Y-136899693D01*
X191893706Y-136981160D01*
X191710494Y-137043237D01*
X191595709Y-137083806D01*
X191556268Y-137100173D01*
X191478173Y-137214214D01*
X191450872Y-137363936D01*
X191477801Y-137503953D01*
X191538188Y-137587356D01*
X191647672Y-137691365D01*
X191784010Y-137799490D01*
X191924961Y-137895239D01*
X192048281Y-137962119D01*
X192125236Y-137984000D01*
X192205924Y-137972857D01*
X192336837Y-137937514D01*
X192527470Y-137875100D01*
X192769000Y-137789403D01*
X192855464Y-137759894D01*
X193015331Y-137707280D01*
X193241259Y-137633913D01*
X193525903Y-137542148D01*
X193861920Y-137434337D01*
X194241965Y-137312836D01*
X194658695Y-137179996D01*
X195104766Y-137038172D01*
X195572834Y-136889717D01*
X195859334Y-136799024D01*
X196351468Y-136643266D01*
X196837021Y-136489434D01*
X197307198Y-136340325D01*
X197753203Y-136198735D01*
X198166243Y-136067458D01*
X198537522Y-135949292D01*
X198858247Y-135847032D01*
X199119622Y-135763475D01*
X199312852Y-135701415D01*
X199373000Y-135681970D01*
X199538146Y-135628788D01*
X199774809Y-135553122D01*
X200073748Y-135457903D01*
X200425719Y-135346065D01*
X200821477Y-135220537D01*
X201251780Y-135084252D01*
X201707385Y-134940142D01*
X202179047Y-134791137D01*
X202657523Y-134640170D01*
X202717334Y-134621313D01*
X203180066Y-134475366D01*
X203624823Y-134334960D01*
X204044043Y-134202489D01*
X204430168Y-134080349D01*
X204775637Y-133970934D01*
X205072890Y-133876639D01*
X205314366Y-133799859D01*
X205492506Y-133742989D01*
X205599750Y-133708424D01*
X205617167Y-133702695D01*
X205672734Y-133684772D01*
X205806598Y-133641903D01*
X206016387Y-133574844D01*
X206299728Y-133484354D01*
X206654246Y-133371187D01*
X207077570Y-133236101D01*
X207567325Y-133079853D01*
X207571005Y-133078679D01*
X204039678Y-133078679D01*
X203990788Y-133100173D01*
X203869984Y-133143594D01*
X203685520Y-133206348D01*
X203445654Y-133285842D01*
X203158640Y-133379484D01*
X202832734Y-133484678D01*
X202476192Y-133598832D01*
X202097271Y-133719352D01*
X201704225Y-133843645D01*
X201305312Y-133969117D01*
X200908785Y-134093175D01*
X200522902Y-134213225D01*
X200155918Y-134326673D01*
X199816089Y-134430927D01*
X199511671Y-134523393D01*
X199250920Y-134601476D01*
X199042091Y-134662585D01*
X198893440Y-134704124D01*
X198813223Y-134723502D01*
X198801500Y-134724208D01*
X198754956Y-134689992D01*
X198652124Y-134614372D01*
X198504923Y-134506111D01*
X198325268Y-134373974D01*
X198157845Y-134250829D01*
X197556523Y-133808526D01*
X200197481Y-132968670D01*
X202838438Y-132128814D01*
X203454647Y-132588946D01*
X203648819Y-132736690D01*
X203814441Y-132868013D01*
X203941430Y-132974474D01*
X204019703Y-133047634D01*
X204039678Y-133078679D01*
X207571005Y-133078679D01*
X208121138Y-132903199D01*
X208736635Y-132706895D01*
X209411445Y-132491699D01*
X210143193Y-132258367D01*
X210929506Y-132007655D01*
X211768011Y-131740320D01*
X212656334Y-131457119D01*
X213592103Y-131158809D01*
X214572943Y-130846145D01*
X215596482Y-130519885D01*
X216660347Y-130180785D01*
X217762163Y-129829602D01*
X218899559Y-129467093D01*
X220070160Y-129094013D01*
X221271593Y-128711120D01*
X222501485Y-128319171D01*
X223757463Y-127918921D01*
X225037154Y-127511128D01*
X226338183Y-127096548D01*
X227418834Y-126752203D01*
X248966500Y-119886210D01*
X248978020Y-120309688D01*
X248977573Y-120368476D01*
X248975350Y-120509099D01*
X248971411Y-120728747D01*
X248965815Y-121024607D01*
X248958625Y-121393870D01*
X248949898Y-121833724D01*
X248939695Y-122341357D01*
X248928077Y-122913958D01*
X248915103Y-123548717D01*
X248900833Y-124242822D01*
X248885328Y-124993462D01*
X248868647Y-125797825D01*
X248850850Y-126653101D01*
X248831998Y-127556478D01*
X248812150Y-128505146D01*
X248791367Y-129496292D01*
X248769708Y-130527106D01*
X248747234Y-131594776D01*
X248724004Y-132696492D01*
X248700079Y-133829442D01*
X248675519Y-134990814D01*
X248650383Y-136177799D01*
X248624732Y-137387584D01*
X248598625Y-138617359D01*
X248572124Y-139864311D01*
X248545287Y-141125631D01*
X248518175Y-142398507D01*
X248490847Y-143680127D01*
X248463365Y-144967680D01*
X248435787Y-146258356D01*
X248408174Y-147549343D01*
X248380587Y-148837830D01*
X248353084Y-150121005D01*
X248325726Y-151396058D01*
X248298573Y-152660177D01*
X248271686Y-153910552D01*
X248245123Y-155144370D01*
X248218945Y-156358821D01*
X248193213Y-157551093D01*
X248167986Y-158718376D01*
X248143324Y-159857858D01*
X248119287Y-160966727D01*
X248095936Y-162042174D01*
X248073329Y-163081386D01*
X248051528Y-164081553D01*
X248030593Y-165039862D01*
X248010583Y-165953504D01*
X247991558Y-166819667D01*
X247973578Y-167635539D01*
X247956704Y-168398309D01*
X247940996Y-169105167D01*
X247926513Y-169753301D01*
X247913316Y-170339900D01*
X247901464Y-170862152D01*
X247891018Y-171317247D01*
X247882037Y-171702373D01*
X247874582Y-172014720D01*
X247869752Y-172210500D01*
X247853244Y-172876785D01*
X247837326Y-173541279D01*
X247822100Y-174198470D01*
X247807668Y-174842848D01*
X247794131Y-175468903D01*
X247781592Y-176071125D01*
X247770152Y-176644003D01*
X247759913Y-177182026D01*
X247750978Y-177679684D01*
X247743448Y-178131467D01*
X247737425Y-178531865D01*
X247733012Y-178875366D01*
X247730309Y-179156461D01*
X247729418Y-179369638D01*
X247730443Y-179509389D01*
X247733484Y-179570201D01*
X247733628Y-179570829D01*
X247787891Y-179666851D01*
X247896073Y-179782306D01*
X248036537Y-179898422D01*
X248187647Y-179996426D01*
X248271559Y-180037538D01*
X248387840Y-180074439D01*
X248484942Y-180066132D01*
X248549450Y-180042411D01*
X248672453Y-179951696D01*
X248726206Y-179845059D01*
X248735776Y-179774577D01*
X248746182Y-179625595D01*
X248757210Y-179404272D01*
X248768645Y-179116767D01*
X248780274Y-178769241D01*
X248791883Y-178367853D01*
X248803260Y-177918762D01*
X248814190Y-177428128D01*
X248819942Y-177142333D01*
X248829463Y-176666414D01*
X248839311Y-176201705D01*
X248849252Y-175757583D01*
X248859051Y-175343423D01*
X248868474Y-174968601D01*
X248877287Y-174642491D01*
X248885256Y-174374470D01*
X248892144Y-174173912D01*
X248896892Y-174065067D01*
X248924167Y-173548967D01*
X250694535Y-174876871D01*
X251037827Y-175133488D01*
X251363592Y-175375317D01*
X251665027Y-175597425D01*
X251935329Y-175794876D01*
X252167696Y-175962738D01*
X252355323Y-176096075D01*
X252491409Y-176189953D01*
X252569148Y-176239437D01*
X252581339Y-176245365D01*
X252738635Y-176260287D01*
X252879839Y-176203419D01*
X252980833Y-176086819D01*
X253001931Y-176035059D01*
X253011515Y-175964529D01*
X253021923Y-175815380D01*
X253032947Y-175593654D01*
X253044377Y-175305392D01*
X253056005Y-174956636D01*
X253067623Y-174553427D01*
X253079022Y-174101807D01*
X253089993Y-173607816D01*
X253095946Y-173311167D01*
X253105435Y-172835625D01*
X253115237Y-172373110D01*
X253125123Y-171932694D01*
X253134864Y-171523449D01*
X253144230Y-171154448D01*
X253152992Y-170834764D01*
X253160919Y-170573471D01*
X253167784Y-170379640D01*
X253172837Y-170270816D01*
X253199834Y-169812799D01*
X255015347Y-171174968D01*
X255363608Y-171435461D01*
X255694829Y-171681660D01*
X256002229Y-171908632D01*
X256279030Y-172111444D01*
X256518452Y-172285160D01*
X256713715Y-172424848D01*
X256858040Y-172525574D01*
X256944647Y-172582403D01*
X256962975Y-172592337D01*
X257127579Y-172622823D01*
X257269443Y-172576530D01*
X257373263Y-172461017D01*
X257408152Y-172372405D01*
X257411820Y-172319973D01*
X257417227Y-172184132D01*
X257424345Y-171966124D01*
X257433145Y-171667187D01*
X257443599Y-171288562D01*
X257455678Y-170831490D01*
X257469354Y-170297209D01*
X257484598Y-169686961D01*
X257501382Y-169001985D01*
X257519677Y-168243522D01*
X257539456Y-167412811D01*
X257560688Y-166511093D01*
X257583346Y-165539607D01*
X257607402Y-164499594D01*
X257632826Y-163392293D01*
X257659591Y-162218946D01*
X257687668Y-160980791D01*
X257717028Y-159679069D01*
X257747643Y-158315021D01*
X257779485Y-156889885D01*
X257812524Y-155404903D01*
X257846733Y-153861313D01*
X257882083Y-152260357D01*
X257918545Y-150603275D01*
X257956092Y-148891306D01*
X257994693Y-147125690D01*
X258034322Y-145307668D01*
X258074950Y-143438479D01*
X258109987Y-141822370D01*
X258152655Y-139850986D01*
X258193479Y-137962596D01*
X258232492Y-136155549D01*
X258269727Y-134428194D01*
X258305215Y-132778878D01*
X258338991Y-131205951D01*
X258371085Y-129707761D01*
X258401532Y-128282656D01*
X258430364Y-126928986D01*
X258457614Y-125645098D01*
X258483314Y-124429341D01*
X258507497Y-123280064D01*
X258530196Y-122195615D01*
X258551443Y-121174343D01*
X258571271Y-120214596D01*
X258589713Y-119314723D01*
X258606802Y-118473072D01*
X258622570Y-117687992D01*
X258637051Y-116957831D01*
X258650275Y-116280938D01*
X258662278Y-115655661D01*
X258673090Y-115080350D01*
X258682745Y-114553351D01*
X258691276Y-114073015D01*
X258698715Y-113637689D01*
X258705095Y-113245722D01*
X258710449Y-112895463D01*
X258713045Y-112710736D01*
X257658329Y-112710736D01*
X257658189Y-112768531D01*
X257656250Y-112908307D01*
X257652567Y-113127397D01*
X257647199Y-113423135D01*
X257640203Y-113792857D01*
X257631637Y-114233895D01*
X257621557Y-114743584D01*
X257610021Y-115319258D01*
X257597087Y-115958252D01*
X257582812Y-116657898D01*
X257567253Y-117415532D01*
X257550467Y-118228488D01*
X257532513Y-119094099D01*
X257513447Y-120009699D01*
X257493328Y-120972624D01*
X257472211Y-121980206D01*
X257450155Y-123029780D01*
X257427217Y-124118681D01*
X257403455Y-125244242D01*
X257378925Y-126403797D01*
X257353685Y-127594680D01*
X257327794Y-128814226D01*
X257301307Y-130059769D01*
X257274282Y-131328642D01*
X257246777Y-132618180D01*
X257218850Y-133925718D01*
X257190557Y-135248588D01*
X257161956Y-136584126D01*
X257133104Y-137929664D01*
X257104059Y-139282539D01*
X257074878Y-140640082D01*
X257045619Y-141999630D01*
X257016338Y-143358515D01*
X256987094Y-144714072D01*
X256957943Y-146063635D01*
X256928944Y-147404538D01*
X256900153Y-148734115D01*
X256871628Y-150049700D01*
X256843426Y-151348628D01*
X256815604Y-152628232D01*
X256788221Y-153885847D01*
X256761333Y-155118806D01*
X256734998Y-156324444D01*
X256709273Y-157500095D01*
X256684216Y-158643094D01*
X256659883Y-159750773D01*
X256636333Y-160820467D01*
X256613623Y-161849511D01*
X256591810Y-162835239D01*
X256570952Y-163774984D01*
X256551105Y-164666080D01*
X256532328Y-165505862D01*
X256514677Y-166291665D01*
X256498211Y-167020821D01*
X256482986Y-167690665D01*
X256469059Y-168298532D01*
X256456490Y-168841754D01*
X256445333Y-169317667D01*
X256435648Y-169723605D01*
X256427492Y-170056901D01*
X256420921Y-170314891D01*
X256415993Y-170494906D01*
X256412766Y-170594283D01*
X256411833Y-170612622D01*
X256394585Y-170760650D01*
X256372489Y-170835543D01*
X256341728Y-170848829D01*
X256334786Y-170845455D01*
X256290533Y-170814161D01*
X256185604Y-170737350D01*
X256027077Y-170620278D01*
X255822030Y-170468200D01*
X255577540Y-170286373D01*
X255300686Y-170080051D01*
X254998546Y-169854491D01*
X254752442Y-169670500D01*
X253865606Y-169007076D01*
X252128812Y-169007076D01*
X252080654Y-171497788D01*
X252069231Y-172080157D01*
X252058898Y-172583431D01*
X252049380Y-173013168D01*
X252040401Y-173374927D01*
X252031683Y-173674270D01*
X252022952Y-173916754D01*
X252013930Y-174107940D01*
X252004341Y-174253387D01*
X251993911Y-174358654D01*
X251982361Y-174429302D01*
X251969416Y-174470890D01*
X251954800Y-174488976D01*
X251938237Y-174489122D01*
X251932197Y-174486122D01*
X251887788Y-174454660D01*
X251782927Y-174377705D01*
X251624841Y-174260638D01*
X251420756Y-174108839D01*
X251177900Y-173927689D01*
X250903500Y-173722569D01*
X250604781Y-173498859D01*
X250411589Y-173353976D01*
X248945334Y-172253785D01*
X248944464Y-171872309D01*
X248945137Y-171746685D01*
X248947440Y-171554945D01*
X248951185Y-171305963D01*
X248956184Y-171008612D01*
X248962251Y-170671767D01*
X248969198Y-170304300D01*
X248976837Y-169915086D01*
X248984981Y-169512997D01*
X248993443Y-169106908D01*
X249002035Y-168705691D01*
X249010570Y-168318221D01*
X249018860Y-167953371D01*
X249026718Y-167620015D01*
X249033957Y-167327026D01*
X249040388Y-167083277D01*
X249045826Y-166897643D01*
X249050081Y-166778997D01*
X249052947Y-166736233D01*
X249087940Y-166757910D01*
X249183584Y-166825299D01*
X249332846Y-166933241D01*
X249528697Y-167076578D01*
X249764104Y-167250152D01*
X250032038Y-167448805D01*
X250325465Y-167667380D01*
X250496712Y-167795371D01*
X250805550Y-168026364D01*
X251096237Y-168243567D01*
X251361137Y-168441292D01*
X251592616Y-168613848D01*
X251783038Y-168755547D01*
X251924768Y-168860699D01*
X252010172Y-168923615D01*
X252029323Y-168937426D01*
X252128812Y-169007076D01*
X253865606Y-169007076D01*
X253224529Y-168527500D01*
X253222765Y-168041977D01*
X253223583Y-167972295D01*
X253226207Y-167820299D01*
X253230585Y-167588320D01*
X253236670Y-167278692D01*
X253244410Y-166893745D01*
X253253757Y-166435813D01*
X253264659Y-165907227D01*
X253277068Y-165310319D01*
X253290934Y-164647421D01*
X253306207Y-163920866D01*
X253322837Y-163132986D01*
X253340774Y-162286112D01*
X253359969Y-161382577D01*
X253380371Y-160424713D01*
X253401932Y-159414852D01*
X253424600Y-158355326D01*
X253448327Y-157248466D01*
X253473063Y-156096607D01*
X253498758Y-154902078D01*
X253525361Y-153667213D01*
X253552824Y-152394343D01*
X253581097Y-151085801D01*
X253610129Y-149743918D01*
X253639871Y-148371028D01*
X253670274Y-146969461D01*
X253701286Y-145541550D01*
X253732860Y-144089627D01*
X253764944Y-142616024D01*
X253793284Y-141315875D01*
X253833138Y-139487278D01*
X253871131Y-137741544D01*
X253907297Y-136076894D01*
X253941673Y-134491546D01*
X253974291Y-132983718D01*
X254005189Y-131551629D01*
X254034400Y-130193498D01*
X254061960Y-128907545D01*
X254087904Y-127691987D01*
X254112267Y-126545043D01*
X254135083Y-125464932D01*
X254156389Y-124449874D01*
X254176218Y-123498086D01*
X254194606Y-122607788D01*
X254211588Y-121777198D01*
X254227199Y-121004535D01*
X254241474Y-120288018D01*
X254254448Y-119625865D01*
X254266156Y-119016296D01*
X254276633Y-118457529D01*
X254285915Y-117947783D01*
X254294035Y-117485277D01*
X254301029Y-117068229D01*
X254306933Y-116694858D01*
X254309446Y-116522983D01*
X253263334Y-116522983D01*
X253262416Y-116591327D01*
X253259695Y-116741941D01*
X253255222Y-116972448D01*
X253249049Y-117280471D01*
X253241225Y-117663635D01*
X253231803Y-118119563D01*
X253220833Y-118645879D01*
X253208365Y-119240204D01*
X253194452Y-119900165D01*
X253179143Y-120623382D01*
X253162489Y-121407482D01*
X253144543Y-122250085D01*
X253125353Y-123148817D01*
X253104972Y-124101301D01*
X253083451Y-125105159D01*
X253060839Y-126158017D01*
X253037189Y-127257496D01*
X253012551Y-128401221D01*
X252986975Y-129586815D01*
X252960514Y-130811902D01*
X252933217Y-132074104D01*
X252905137Y-133371046D01*
X252876322Y-134700351D01*
X252846826Y-136059643D01*
X252816697Y-137446544D01*
X252785989Y-138858679D01*
X252754750Y-140293671D01*
X252723033Y-141749143D01*
X252713000Y-142209198D01*
X252681189Y-143667992D01*
X252649838Y-145106055D01*
X252619000Y-146521048D01*
X252588725Y-147910637D01*
X252559063Y-149272483D01*
X252530065Y-150604251D01*
X252501782Y-151903605D01*
X252474265Y-153168207D01*
X252447565Y-154395720D01*
X252421731Y-155583809D01*
X252396815Y-156730137D01*
X252372867Y-157832367D01*
X252349939Y-158888163D01*
X252328080Y-159895187D01*
X252307342Y-160851104D01*
X252287775Y-161753577D01*
X252269430Y-162600270D01*
X252252358Y-163388845D01*
X252236609Y-164116966D01*
X252222234Y-164782296D01*
X252209283Y-165382500D01*
X252197808Y-165915240D01*
X252187860Y-166378180D01*
X252179488Y-166768983D01*
X252172743Y-167085313D01*
X252167677Y-167324833D01*
X252164340Y-167485206D01*
X252162783Y-167564097D01*
X252162667Y-167572056D01*
X252156482Y-167662559D01*
X252141536Y-167701944D01*
X252140897Y-167702000D01*
X252103615Y-167677382D01*
X252005563Y-167606917D01*
X251853607Y-167495686D01*
X251654615Y-167348771D01*
X251415451Y-167171252D01*
X251142982Y-166968211D01*
X250844076Y-166744730D01*
X250592045Y-166555780D01*
X249064963Y-165409561D01*
X249092218Y-164534364D01*
X249094813Y-164438196D01*
X249099178Y-164259975D01*
X249105257Y-164002295D01*
X249112992Y-163667749D01*
X249122326Y-163258932D01*
X249133203Y-162778436D01*
X249145564Y-162228856D01*
X249159353Y-161612786D01*
X249174513Y-160932819D01*
X249190986Y-160191549D01*
X249208715Y-159391570D01*
X249227644Y-158535475D01*
X249247715Y-157625859D01*
X249268871Y-156665315D01*
X249291054Y-155656438D01*
X249314208Y-154601820D01*
X249338275Y-153504055D01*
X249363199Y-152365738D01*
X249388922Y-151189462D01*
X249415387Y-149977821D01*
X249442537Y-148733409D01*
X249470314Y-147458819D01*
X249498662Y-146156645D01*
X249527524Y-144829481D01*
X249556841Y-143479921D01*
X249586558Y-142110559D01*
X249604734Y-141272329D01*
X249641247Y-139586448D01*
X249675903Y-137983281D01*
X249708740Y-136460897D01*
X249739793Y-135017366D01*
X249769101Y-133650756D01*
X249796701Y-132359135D01*
X249822628Y-131140574D01*
X249846921Y-129993140D01*
X249869616Y-128914904D01*
X249890750Y-127903933D01*
X249910360Y-126958296D01*
X249928484Y-126076064D01*
X249945158Y-125255303D01*
X249960419Y-124494084D01*
X249974304Y-123790475D01*
X249986851Y-123142545D01*
X249998096Y-122548364D01*
X250008076Y-122005999D01*
X250016828Y-121513520D01*
X250024390Y-121068996D01*
X250030798Y-120670496D01*
X250036089Y-120316088D01*
X250040300Y-120003842D01*
X250043469Y-119731827D01*
X250045632Y-119498110D01*
X250046826Y-119300762D01*
X250047089Y-119137851D01*
X250046456Y-119007447D01*
X250044966Y-118907617D01*
X250042656Y-118836431D01*
X250039561Y-118791958D01*
X250035862Y-118772548D01*
X249957222Y-118670974D01*
X249861301Y-118601884D01*
X249849798Y-118598615D01*
X249831779Y-118597762D01*
X249805259Y-118599948D01*
X249768251Y-118605797D01*
X249718769Y-118615934D01*
X249654828Y-118630981D01*
X249574441Y-118651563D01*
X249475624Y-118678304D01*
X249356389Y-118711828D01*
X249214751Y-118752757D01*
X249048725Y-118801717D01*
X248856324Y-118859331D01*
X248635562Y-118926223D01*
X248384454Y-119003017D01*
X248101014Y-119090336D01*
X247783256Y-119188805D01*
X247429193Y-119299047D01*
X247036841Y-119421686D01*
X246604213Y-119557347D01*
X246129323Y-119706652D01*
X245610186Y-119870225D01*
X245044816Y-120048692D01*
X244431226Y-120242674D01*
X243767432Y-120452797D01*
X243051446Y-120679684D01*
X242281283Y-120923959D01*
X241454958Y-121186245D01*
X240570485Y-121467168D01*
X239625876Y-121767349D01*
X238619148Y-122087414D01*
X237548313Y-122427987D01*
X236411387Y-122789690D01*
X235206382Y-123173148D01*
X233931314Y-123578985D01*
X232584196Y-124007824D01*
X231163042Y-124460290D01*
X229665868Y-124937006D01*
X228090686Y-125438596D01*
X227536715Y-125615004D01*
X205332558Y-132685844D01*
X204701812Y-132212994D01*
X204071067Y-131740144D01*
X204242091Y-131683136D01*
X204291937Y-131667117D01*
X204420244Y-131626113D01*
X204624795Y-131560832D01*
X204903375Y-131471979D01*
X205253771Y-131360258D01*
X205673765Y-131226377D01*
X206161144Y-131071040D01*
X206713692Y-130894954D01*
X207329193Y-130698823D01*
X208005433Y-130483354D01*
X208740197Y-130249253D01*
X209531269Y-129997224D01*
X210376433Y-129727974D01*
X211273476Y-129442208D01*
X212220181Y-129140633D01*
X213214334Y-128823952D01*
X214253718Y-128492873D01*
X215336120Y-128148101D01*
X216459324Y-127790342D01*
X217621115Y-127420300D01*
X218819277Y-127038683D01*
X220051595Y-126646195D01*
X221315854Y-126243542D01*
X222609840Y-125831430D01*
X223931336Y-125410565D01*
X225278127Y-124981652D01*
X226647999Y-124545397D01*
X228038736Y-124102505D01*
X228838225Y-123847905D01*
X253263334Y-116069681D01*
X253263334Y-116522983D01*
X254309446Y-116522983D01*
X254311781Y-116363384D01*
X254315608Y-116072024D01*
X254318449Y-115818998D01*
X254320340Y-115602524D01*
X254321314Y-115420822D01*
X254321408Y-115272109D01*
X254320657Y-115154605D01*
X254319095Y-115066529D01*
X254316757Y-115006099D01*
X254313678Y-114971534D01*
X254311482Y-114962450D01*
X254232882Y-114860954D01*
X254136973Y-114791887D01*
X254126060Y-114788880D01*
X254108718Y-114788217D01*
X254083093Y-114790483D01*
X254047333Y-114796260D01*
X253999585Y-114806131D01*
X253937996Y-114820679D01*
X253860713Y-114840487D01*
X253765884Y-114866139D01*
X253651655Y-114898218D01*
X253516174Y-114937306D01*
X253357588Y-114983986D01*
X253174045Y-115038843D01*
X252963690Y-115102458D01*
X252724672Y-115175415D01*
X252455138Y-115258297D01*
X252153235Y-115351687D01*
X251817110Y-115456168D01*
X251444911Y-115572324D01*
X251034783Y-115700737D01*
X250584876Y-115841990D01*
X250093335Y-115996667D01*
X249558309Y-116165350D01*
X248977943Y-116348623D01*
X248350386Y-116547068D01*
X247673785Y-116761270D01*
X246946286Y-116991810D01*
X246166038Y-117239272D01*
X245331186Y-117504239D01*
X244439879Y-117787295D01*
X243490264Y-118089021D01*
X242480487Y-118410002D01*
X241408696Y-118750820D01*
X240273038Y-119112058D01*
X239071660Y-119494300D01*
X237802710Y-119898129D01*
X236464334Y-120324127D01*
X235054681Y-120772878D01*
X233571896Y-121244965D01*
X232014127Y-121740971D01*
X230379522Y-122261479D01*
X228666228Y-122807071D01*
X228545812Y-122845418D01*
X227115540Y-123300882D01*
X225705280Y-123749952D01*
X224317183Y-124191942D01*
X222953401Y-124626168D01*
X221616085Y-125051946D01*
X220307387Y-125468590D01*
X219029459Y-125875417D01*
X217784452Y-126271742D01*
X216574517Y-126656881D01*
X215401807Y-127030147D01*
X214268472Y-127390858D01*
X213176665Y-127738329D01*
X212128537Y-128071874D01*
X211126239Y-128390810D01*
X210171923Y-128694452D01*
X209267741Y-128982115D01*
X208415845Y-129253114D01*
X207618385Y-129506766D01*
X206877513Y-129742385D01*
X206195381Y-129959287D01*
X205574141Y-130156788D01*
X205015944Y-130334202D01*
X204522941Y-130490845D01*
X204097285Y-130626033D01*
X203741126Y-130739081D01*
X203456617Y-130829305D01*
X203245908Y-130896020D01*
X203111152Y-130938540D01*
X203054500Y-130956183D01*
X203052737Y-130956666D01*
X203012732Y-130932864D01*
X202916848Y-130867154D01*
X202777197Y-130768086D01*
X202605891Y-130644208D01*
X202494739Y-130562844D01*
X201959078Y-130169021D01*
X257644834Y-112435305D01*
X257658329Y-112710736D01*
X258713045Y-112710736D01*
X258714809Y-112585260D01*
X258718208Y-112313461D01*
X258720679Y-112078416D01*
X258722254Y-111878472D01*
X258722967Y-111711978D01*
X258722849Y-111577283D01*
X258721934Y-111472735D01*
X258720254Y-111396683D01*
X258717843Y-111347475D01*
X258714732Y-111323460D01*
X258714055Y-111321589D01*
X258635566Y-111220300D01*
X258539475Y-111151142D01*
X258529102Y-111148353D01*
X258512432Y-111147831D01*
X258487730Y-111150123D01*
G37*
X258487730Y-111150123D02*
X258453259Y-111155775D01*
X258407284Y-111165334D01*
X258348071Y-111179348D01*
X258273882Y-111198362D01*
X258182984Y-111222924D01*
X258073639Y-111253581D01*
X257944114Y-111290879D01*
X257792671Y-111335365D01*
X257617577Y-111387586D01*
X257417095Y-111448088D01*
X257189489Y-111517420D01*
X256933025Y-111596127D01*
X256645966Y-111684756D01*
X256326578Y-111783854D01*
X255973124Y-111893968D01*
X255583870Y-112015645D01*
X255157079Y-112149431D01*
X254691016Y-112295874D01*
X254183946Y-112455519D01*
X253634134Y-112628915D01*
X253039843Y-112816608D01*
X252399338Y-113019144D01*
X251710884Y-113237071D01*
X250972745Y-113470935D01*
X250183185Y-113721283D01*
X249340470Y-113988662D01*
X248442864Y-114273619D01*
X247488630Y-114576700D01*
X246476034Y-114898453D01*
X245403341Y-115239424D01*
X244268814Y-115600160D01*
X243070718Y-115981207D01*
X241807317Y-116383114D01*
X240476877Y-116806426D01*
X239077661Y-117251690D01*
X237607934Y-117719453D01*
X236065961Y-118210262D01*
X234450006Y-118724664D01*
X232758334Y-119263206D01*
X230989208Y-119826434D01*
X229414527Y-120327776D01*
X227887007Y-120814135D01*
X226379170Y-121294281D01*
X224893039Y-121767566D01*
X223430639Y-122233345D01*
X221993993Y-122690973D01*
X220585124Y-123139804D01*
X219206057Y-123579193D01*
X217858814Y-124008494D01*
X216545419Y-124427061D01*
X215267896Y-124834248D01*
X214028269Y-125229411D01*
X212828560Y-125611903D01*
X211670794Y-125981079D01*
X210556994Y-126336293D01*
X209489183Y-126676900D01*
X208469386Y-127002254D01*
X207499625Y-127311710D01*
X206581925Y-127604621D01*
X205718309Y-127880342D01*
X204910800Y-128138228D01*
X204161422Y-128377634D01*
X203472199Y-128597912D01*
X202845154Y-128798419D01*
X202282311Y-128978507D01*
X201785693Y-129137532D01*
X201357324Y-129274849D01*
X200999228Y-129389810D01*
X200713427Y-129481772D01*
X200501946Y-129550087D01*
X200366808Y-129594112D01*
X200310037Y-129613199D01*
X200308441Y-129613853D01*
X200218091Y-129690433D01*
X200154547Y-129789529D01*
X200127242Y-129869142D01*
X200121214Y-129942880D01*
X200142988Y-130018217D01*
X200199085Y-130102627D01*
X200296031Y-130203584D01*
X200440347Y-130328563D01*
X200638559Y-130485038D01*
X200897189Y-130680482D01*
X200997325Y-130755115D01*
X201809487Y-131359199D01*
X198887327Y-132288466D01*
X198407186Y-132441412D01*
X197949473Y-132587714D01*
X197520771Y-132725236D01*
X197127660Y-132851843D01*
X196776722Y-132965402D01*
X196474538Y-133063777D01*
X196227691Y-133144834D01*
X196042760Y-133206438D01*
X195926329Y-133246454D01*
X195886043Y-133261950D01*
X195812726Y-133331766D01*
X195753316Y-133430196D01*
X195725968Y-133505769D01*
X195717834Y-133575785D01*
X195735196Y-133647178D01*
X195784338Y-133726877D01*
X195871540Y-133821815D01*
X196003087Y-133938923D01*
X196185261Y-134085133D01*
X196424344Y-134267376D01*
X196695000Y-134469142D01*
X196953622Y-134663227D01*
X197173820Y-134833060D01*
X197349256Y-134973462D01*
X197473591Y-135079257D01*
X197540487Y-135145266D01*
X197548173Y-135166029D01*
X197499078Y-135181912D01*
X197375795Y-135221389D01*
X197184821Y-135282388D01*
X196932650Y-135362839D01*
X196625779Y-135460671D01*
X196270704Y-135573815D01*
X195873920Y-135700200D01*
X195441923Y-135837755D01*
X194981209Y-135984411D01*
X194548066Y-136122252D01*
X194067223Y-136275602D01*
X193609468Y-136422265D01*
X193181278Y-136560122D01*
X192789130Y-136687057D01*
X192439501Y-136800953D01*
X192138867Y-136899693D01*
X191893706Y-136981160D01*
X191710494Y-137043237D01*
X191595709Y-137083806D01*
X191556268Y-137100173D01*
X191478173Y-137214214D01*
X191450872Y-137363936D01*
X191477801Y-137503953D01*
X191538188Y-137587356D01*
X191647672Y-137691365D01*
X191784010Y-137799490D01*
X191924961Y-137895239D01*
X192048281Y-137962119D01*
X192125236Y-137984000D01*
X192205924Y-137972857D01*
X192336837Y-137937514D01*
X192527470Y-137875100D01*
X192769000Y-137789403D01*
X192855464Y-137759894D01*
X193015331Y-137707280D01*
X193241259Y-137633913D01*
X193525903Y-137542148D01*
X193861920Y-137434337D01*
X194241965Y-137312836D01*
X194658695Y-137179996D01*
X195104766Y-137038172D01*
X195572834Y-136889717D01*
X195859334Y-136799024D01*
X196351468Y-136643266D01*
X196837021Y-136489434D01*
X197307198Y-136340325D01*
X197753203Y-136198735D01*
X198166243Y-136067458D01*
X198537522Y-135949292D01*
X198858247Y-135847032D01*
X199119622Y-135763475D01*
X199312852Y-135701415D01*
X199373000Y-135681970D01*
X199538146Y-135628788D01*
X199774809Y-135553122D01*
X200073748Y-135457903D01*
X200425719Y-135346065D01*
X200821477Y-135220537D01*
X201251780Y-135084252D01*
X201707385Y-134940142D01*
X202179047Y-134791137D01*
X202657523Y-134640170D01*
X202717334Y-134621313D01*
X203180066Y-134475366D01*
X203624823Y-134334960D01*
X204044043Y-134202489D01*
X204430168Y-134080349D01*
X204775637Y-133970934D01*
X205072890Y-133876639D01*
X205314366Y-133799859D01*
X205492506Y-133742989D01*
X205599750Y-133708424D01*
X205617167Y-133702695D01*
X205672734Y-133684772D01*
X205806598Y-133641903D01*
X206016387Y-133574844D01*
X206299728Y-133484354D01*
X206654246Y-133371187D01*
X207077570Y-133236101D01*
X207567325Y-133079853D01*
X207571005Y-133078679D01*
X204039678Y-133078679D01*
X203990788Y-133100173D01*
X203869984Y-133143594D01*
X203685520Y-133206348D01*
X203445654Y-133285842D01*
X203158640Y-133379484D01*
X202832734Y-133484678D01*
X202476192Y-133598832D01*
X202097271Y-133719352D01*
X201704225Y-133843645D01*
X201305312Y-133969117D01*
X200908785Y-134093175D01*
X200522902Y-134213225D01*
X200155918Y-134326673D01*
X199816089Y-134430927D01*
X199511671Y-134523393D01*
X199250920Y-134601476D01*
X199042091Y-134662585D01*
X198893440Y-134704124D01*
X198813223Y-134723502D01*
X198801500Y-134724208D01*
X198754956Y-134689992D01*
X198652124Y-134614372D01*
X198504923Y-134506111D01*
X198325268Y-134373974D01*
X198157845Y-134250829D01*
X197556523Y-133808526D01*
X200197481Y-132968670D01*
X202838438Y-132128814D01*
X203454647Y-132588946D01*
X203648819Y-132736690D01*
X203814441Y-132868013D01*
X203941430Y-132974474D01*
X204019703Y-133047634D01*
X204039678Y-133078679D01*
X207571005Y-133078679D01*
X208121138Y-132903199D01*
X208736635Y-132706895D01*
X209411445Y-132491699D01*
X210143193Y-132258367D01*
X210929506Y-132007655D01*
X211768011Y-131740320D01*
X212656334Y-131457119D01*
X213592103Y-131158809D01*
X214572943Y-130846145D01*
X215596482Y-130519885D01*
X216660347Y-130180785D01*
X217762163Y-129829602D01*
X218899559Y-129467093D01*
X220070160Y-129094013D01*
X221271593Y-128711120D01*
X222501485Y-128319171D01*
X223757463Y-127918921D01*
X225037154Y-127511128D01*
X226338183Y-127096548D01*
X227418834Y-126752203D01*
X248966500Y-119886210D01*
X248978020Y-120309688D01*
X248977573Y-120368476D01*
X248975350Y-120509099D01*
X248971411Y-120728747D01*
X248965815Y-121024607D01*
X248958625Y-121393870D01*
X248949898Y-121833724D01*
X248939695Y-122341357D01*
X248928077Y-122913958D01*
X248915103Y-123548717D01*
X248900833Y-124242822D01*
X248885328Y-124993462D01*
X248868647Y-125797825D01*
X248850850Y-126653101D01*
X248831998Y-127556478D01*
X248812150Y-128505146D01*
X248791367Y-129496292D01*
X248769708Y-130527106D01*
X248747234Y-131594776D01*
X248724004Y-132696492D01*
X248700079Y-133829442D01*
X248675519Y-134990814D01*
X248650383Y-136177799D01*
X248624732Y-137387584D01*
X248598625Y-138617359D01*
X248572124Y-139864311D01*
X248545287Y-141125631D01*
X248518175Y-142398507D01*
X248490847Y-143680127D01*
X248463365Y-144967680D01*
X248435787Y-146258356D01*
X248408174Y-147549343D01*
X248380587Y-148837830D01*
X248353084Y-150121005D01*
X248325726Y-151396058D01*
X248298573Y-152660177D01*
X248271686Y-153910552D01*
X248245123Y-155144370D01*
X248218945Y-156358821D01*
X248193213Y-157551093D01*
X248167986Y-158718376D01*
X248143324Y-159857858D01*
X248119287Y-160966727D01*
X248095936Y-162042174D01*
X248073329Y-163081386D01*
X248051528Y-164081553D01*
X248030593Y-165039862D01*
X248010583Y-165953504D01*
X247991558Y-166819667D01*
X247973578Y-167635539D01*
X247956704Y-168398309D01*
X247940996Y-169105167D01*
X247926513Y-169753301D01*
X247913316Y-170339900D01*
X247901464Y-170862152D01*
X247891018Y-171317247D01*
X247882037Y-171702373D01*
X247874582Y-172014720D01*
X247869752Y-172210500D01*
X247853244Y-172876785D01*
X247837326Y-173541279D01*
X247822100Y-174198470D01*
X247807668Y-174842848D01*
X247794131Y-175468903D01*
X247781592Y-176071125D01*
X247770152Y-176644003D01*
X247759913Y-177182026D01*
X247750978Y-177679684D01*
X247743448Y-178131467D01*
X247737425Y-178531865D01*
X247733012Y-178875366D01*
X247730309Y-179156461D01*
X247729418Y-179369638D01*
X247730443Y-179509389D01*
X247733484Y-179570201D01*
X247733628Y-179570829D01*
X247787891Y-179666851D01*
X247896073Y-179782306D01*
X248036537Y-179898422D01*
X248187647Y-179996426D01*
X248271559Y-180037538D01*
X248387840Y-180074439D01*
X248484942Y-180066132D01*
X248549450Y-180042411D01*
X248672453Y-179951696D01*
X248726206Y-179845059D01*
X248735776Y-179774577D01*
X248746182Y-179625595D01*
X248757210Y-179404272D01*
X248768645Y-179116767D01*
X248780274Y-178769241D01*
X248791883Y-178367853D01*
X248803260Y-177918762D01*
X248814190Y-177428128D01*
X248819942Y-177142333D01*
X248829463Y-176666414D01*
X248839311Y-176201705D01*
X248849252Y-175757583D01*
X248859051Y-175343423D01*
X248868474Y-174968601D01*
X248877287Y-174642491D01*
X248885256Y-174374470D01*
X248892144Y-174173912D01*
X248896892Y-174065067D01*
X248924167Y-173548967D01*
X250694535Y-174876871D01*
X251037827Y-175133488D01*
X251363592Y-175375317D01*
X251665027Y-175597425D01*
X251935329Y-175794876D01*
X252167696Y-175962738D01*
X252355323Y-176096075D01*
X252491409Y-176189953D01*
X252569148Y-176239437D01*
X252581339Y-176245365D01*
X252738635Y-176260287D01*
X252879839Y-176203419D01*
X252980833Y-176086819D01*
X253001931Y-176035059D01*
X253011515Y-175964529D01*
X253021923Y-175815380D01*
X253032947Y-175593654D01*
X253044377Y-175305392D01*
X253056005Y-174956636D01*
X253067623Y-174553427D01*
X253079022Y-174101807D01*
X253089993Y-173607816D01*
X253095946Y-173311167D01*
X253105435Y-172835625D01*
X253115237Y-172373110D01*
X253125123Y-171932694D01*
X253134864Y-171523449D01*
X253144230Y-171154448D01*
X253152992Y-170834764D01*
X253160919Y-170573471D01*
X253167784Y-170379640D01*
X253172837Y-170270816D01*
X253199834Y-169812799D01*
X255015347Y-171174968D01*
X255363608Y-171435461D01*
X255694829Y-171681660D01*
X256002229Y-171908632D01*
X256279030Y-172111444D01*
X256518452Y-172285160D01*
X256713715Y-172424848D01*
X256858040Y-172525574D01*
X256944647Y-172582403D01*
X256962975Y-172592337D01*
X257127579Y-172622823D01*
X257269443Y-172576530D01*
X257373263Y-172461017D01*
X257408152Y-172372405D01*
X257411820Y-172319973D01*
X257417227Y-172184132D01*
X257424345Y-171966124D01*
X257433145Y-171667187D01*
X257443599Y-171288562D01*
X257455678Y-170831490D01*
X257469354Y-170297209D01*
X257484598Y-169686961D01*
X257501382Y-169001985D01*
X257519677Y-168243522D01*
X257539456Y-167412811D01*
X257560688Y-166511093D01*
X257583346Y-165539607D01*
X257607402Y-164499594D01*
X257632826Y-163392293D01*
X257659591Y-162218946D01*
X257687668Y-160980791D01*
X257717028Y-159679069D01*
X257747643Y-158315021D01*
X257779485Y-156889885D01*
X257812524Y-155404903D01*
X257846733Y-153861313D01*
X257882083Y-152260357D01*
X257918545Y-150603275D01*
X257956092Y-148891306D01*
X257994693Y-147125690D01*
X258034322Y-145307668D01*
X258074950Y-143438479D01*
X258109987Y-141822370D01*
X258152655Y-139850986D01*
X258193479Y-137962596D01*
X258232492Y-136155549D01*
X258269727Y-134428194D01*
X258305215Y-132778878D01*
X258338991Y-131205951D01*
X258371085Y-129707761D01*
X258401532Y-128282656D01*
X258430364Y-126928986D01*
X258457614Y-125645098D01*
X258483314Y-124429341D01*
X258507497Y-123280064D01*
X258530196Y-122195615D01*
X258551443Y-121174343D01*
X258571271Y-120214596D01*
X258589713Y-119314723D01*
X258606802Y-118473072D01*
X258622570Y-117687992D01*
X258637051Y-116957831D01*
X258650275Y-116280938D01*
X258662278Y-115655661D01*
X258673090Y-115080350D01*
X258682745Y-114553351D01*
X258691276Y-114073015D01*
X258698715Y-113637689D01*
X258705095Y-113245722D01*
X258710449Y-112895463D01*
X258713045Y-112710736D01*
X257658329Y-112710736D01*
X257658189Y-112768531D01*
X257656250Y-112908307D01*
X257652567Y-113127397D01*
X257647199Y-113423135D01*
X257640203Y-113792857D01*
X257631637Y-114233895D01*
X257621557Y-114743584D01*
X257610021Y-115319258D01*
X257597087Y-115958252D01*
X257582812Y-116657898D01*
X257567253Y-117415532D01*
X257550467Y-118228488D01*
X257532513Y-119094099D01*
X257513447Y-120009699D01*
X257493328Y-120972624D01*
X257472211Y-121980206D01*
X257450155Y-123029780D01*
X257427217Y-124118681D01*
X257403455Y-125244242D01*
X257378925Y-126403797D01*
X257353685Y-127594680D01*
X257327794Y-128814226D01*
X257301307Y-130059769D01*
X257274282Y-131328642D01*
X257246777Y-132618180D01*
X257218850Y-133925718D01*
X257190557Y-135248588D01*
X257161956Y-136584126D01*
X257133104Y-137929664D01*
X257104059Y-139282539D01*
X257074878Y-140640082D01*
X257045619Y-141999630D01*
X257016338Y-143358515D01*
X256987094Y-144714072D01*
X256957943Y-146063635D01*
X256928944Y-147404538D01*
X256900153Y-148734115D01*
X256871628Y-150049700D01*
X256843426Y-151348628D01*
X256815604Y-152628232D01*
X256788221Y-153885847D01*
X256761333Y-155118806D01*
X256734998Y-156324444D01*
X256709273Y-157500095D01*
X256684216Y-158643094D01*
X256659883Y-159750773D01*
X256636333Y-160820467D01*
X256613623Y-161849511D01*
X256591810Y-162835239D01*
X256570952Y-163774984D01*
X256551105Y-164666080D01*
X256532328Y-165505862D01*
X256514677Y-166291665D01*
X256498211Y-167020821D01*
X256482986Y-167690665D01*
X256469059Y-168298532D01*
X256456490Y-168841754D01*
X256445333Y-169317667D01*
X256435648Y-169723605D01*
X256427492Y-170056901D01*
X256420921Y-170314891D01*
X256415993Y-170494906D01*
X256412766Y-170594283D01*
X256411833Y-170612622D01*
X256394585Y-170760650D01*
X256372489Y-170835543D01*
X256341728Y-170848829D01*
X256334786Y-170845455D01*
X256290533Y-170814161D01*
X256185604Y-170737350D01*
X256027077Y-170620278D01*
X255822030Y-170468200D01*
X255577540Y-170286373D01*
X255300686Y-170080051D01*
X254998546Y-169854491D01*
X254752442Y-169670500D01*
X253865606Y-169007076D01*
X252128812Y-169007076D01*
X252080654Y-171497788D01*
X252069231Y-172080157D01*
X252058898Y-172583431D01*
X252049380Y-173013168D01*
X252040401Y-173374927D01*
X252031683Y-173674270D01*
X252022952Y-173916754D01*
X252013930Y-174107940D01*
X252004341Y-174253387D01*
X251993911Y-174358654D01*
X251982361Y-174429302D01*
X251969416Y-174470890D01*
X251954800Y-174488976D01*
X251938237Y-174489122D01*
X251932197Y-174486122D01*
X251887788Y-174454660D01*
X251782927Y-174377705D01*
X251624841Y-174260638D01*
X251420756Y-174108839D01*
X251177900Y-173927689D01*
X250903500Y-173722569D01*
X250604781Y-173498859D01*
X250411589Y-173353976D01*
X248945334Y-172253785D01*
X248944464Y-171872309D01*
X248945137Y-171746685D01*
X248947440Y-171554945D01*
X248951185Y-171305963D01*
X248956184Y-171008612D01*
X248962251Y-170671767D01*
X248969198Y-170304300D01*
X248976837Y-169915086D01*
X248984981Y-169512997D01*
X248993443Y-169106908D01*
X249002035Y-168705691D01*
X249010570Y-168318221D01*
X249018860Y-167953371D01*
X249026718Y-167620015D01*
X249033957Y-167327026D01*
X249040388Y-167083277D01*
X249045826Y-166897643D01*
X249050081Y-166778997D01*
X249052947Y-166736233D01*
X249087940Y-166757910D01*
X249183584Y-166825299D01*
X249332846Y-166933241D01*
X249528697Y-167076578D01*
X249764104Y-167250152D01*
X250032038Y-167448805D01*
X250325465Y-167667380D01*
X250496712Y-167795371D01*
X250805550Y-168026364D01*
X251096237Y-168243567D01*
X251361137Y-168441292D01*
X251592616Y-168613848D01*
X251783038Y-168755547D01*
X251924768Y-168860699D01*
X252010172Y-168923615D01*
X252029323Y-168937426D01*
X252128812Y-169007076D01*
X253865606Y-169007076D01*
X253224529Y-168527500D01*
X253222765Y-168041977D01*
X253223583Y-167972295D01*
X253226207Y-167820299D01*
X253230585Y-167588320D01*
X253236670Y-167278692D01*
X253244410Y-166893745D01*
X253253757Y-166435813D01*
X253264659Y-165907227D01*
X253277068Y-165310319D01*
X253290934Y-164647421D01*
X253306207Y-163920866D01*
X253322837Y-163132986D01*
X253340774Y-162286112D01*
X253359969Y-161382577D01*
X253380371Y-160424713D01*
X253401932Y-159414852D01*
X253424600Y-158355326D01*
X253448327Y-157248466D01*
X253473063Y-156096607D01*
X253498758Y-154902078D01*
X253525361Y-153667213D01*
X253552824Y-152394343D01*
X253581097Y-151085801D01*
X253610129Y-149743918D01*
X253639871Y-148371028D01*
X253670274Y-146969461D01*
X253701286Y-145541550D01*
X253732860Y-144089627D01*
X253764944Y-142616024D01*
X253793284Y-141315875D01*
X253833138Y-139487278D01*
X253871131Y-137741544D01*
X253907297Y-136076894D01*
X253941673Y-134491546D01*
X253974291Y-132983718D01*
X254005189Y-131551629D01*
X254034400Y-130193498D01*
X254061960Y-128907545D01*
X254087904Y-127691987D01*
X254112267Y-126545043D01*
X254135083Y-125464932D01*
X254156389Y-124449874D01*
X254176218Y-123498086D01*
X254194606Y-122607788D01*
X254211588Y-121777198D01*
X254227199Y-121004535D01*
X254241474Y-120288018D01*
X254254448Y-119625865D01*
X254266156Y-119016296D01*
X254276633Y-118457529D01*
X254285915Y-117947783D01*
X254294035Y-117485277D01*
X254301029Y-117068229D01*
X254306933Y-116694858D01*
X254309446Y-116522983D01*
X253263334Y-116522983D01*
X253262416Y-116591327D01*
X253259695Y-116741941D01*
X253255222Y-116972448D01*
X253249049Y-117280471D01*
X253241225Y-117663635D01*
X253231803Y-118119563D01*
X253220833Y-118645879D01*
X253208365Y-119240204D01*
X253194452Y-119900165D01*
X253179143Y-120623382D01*
X253162489Y-121407482D01*
X253144543Y-122250085D01*
X253125353Y-123148817D01*
X253104972Y-124101301D01*
X253083451Y-125105159D01*
X253060839Y-126158017D01*
X253037189Y-127257496D01*
X253012551Y-128401221D01*
X252986975Y-129586815D01*
X252960514Y-130811902D01*
X252933217Y-132074104D01*
X252905137Y-133371046D01*
X252876322Y-134700351D01*
X252846826Y-136059643D01*
X252816697Y-137446544D01*
X252785989Y-138858679D01*
X252754750Y-140293671D01*
X252723033Y-141749143D01*
X252713000Y-142209198D01*
X252681189Y-143667992D01*
X252649838Y-145106055D01*
X252619000Y-146521048D01*
X252588725Y-147910637D01*
X252559063Y-149272483D01*
X252530065Y-150604251D01*
X252501782Y-151903605D01*
X252474265Y-153168207D01*
X252447565Y-154395720D01*
X252421731Y-155583809D01*
X252396815Y-156730137D01*
X252372867Y-157832367D01*
X252349939Y-158888163D01*
X252328080Y-159895187D01*
X252307342Y-160851104D01*
X252287775Y-161753577D01*
X252269430Y-162600270D01*
X252252358Y-163388845D01*
X252236609Y-164116966D01*
X252222234Y-164782296D01*
X252209283Y-165382500D01*
X252197808Y-165915240D01*
X252187860Y-166378180D01*
X252179488Y-166768983D01*
X252172743Y-167085313D01*
X252167677Y-167324833D01*
X252164340Y-167485206D01*
X252162783Y-167564097D01*
X252162667Y-167572056D01*
X252156482Y-167662559D01*
X252141536Y-167701944D01*
X252140897Y-167702000D01*
X252103615Y-167677382D01*
X252005563Y-167606917D01*
X251853607Y-167495686D01*
X251654615Y-167348771D01*
X251415451Y-167171252D01*
X251142982Y-166968211D01*
X250844076Y-166744730D01*
X250592045Y-166555780D01*
X249064963Y-165409561D01*
X249092218Y-164534364D01*
X249094813Y-164438196D01*
X249099178Y-164259975D01*
X249105257Y-164002295D01*
X249112992Y-163667749D01*
X249122326Y-163258932D01*
X249133203Y-162778436D01*
X249145564Y-162228856D01*
X249159353Y-161612786D01*
X249174513Y-160932819D01*
X249190986Y-160191549D01*
X249208715Y-159391570D01*
X249227644Y-158535475D01*
X249247715Y-157625859D01*
X249268871Y-156665315D01*
X249291054Y-155656438D01*
X249314208Y-154601820D01*
X249338275Y-153504055D01*
X249363199Y-152365738D01*
X249388922Y-151189462D01*
X249415387Y-149977821D01*
X249442537Y-148733409D01*
X249470314Y-147458819D01*
X249498662Y-146156645D01*
X249527524Y-144829481D01*
X249556841Y-143479921D01*
X249586558Y-142110559D01*
X249604734Y-141272329D01*
X249641247Y-139586448D01*
X249675903Y-137983281D01*
X249708740Y-136460897D01*
X249739793Y-135017366D01*
X249769101Y-133650756D01*
X249796701Y-132359135D01*
X249822628Y-131140574D01*
X249846921Y-129993140D01*
X249869616Y-128914904D01*
X249890750Y-127903933D01*
X249910360Y-126958296D01*
X249928484Y-126076064D01*
X249945158Y-125255303D01*
X249960419Y-124494084D01*
X249974304Y-123790475D01*
X249986851Y-123142545D01*
X249998096Y-122548364D01*
X250008076Y-122005999D01*
X250016828Y-121513520D01*
X250024390Y-121068996D01*
X250030798Y-120670496D01*
X250036089Y-120316088D01*
X250040300Y-120003842D01*
X250043469Y-119731827D01*
X250045632Y-119498110D01*
X250046826Y-119300762D01*
X250047089Y-119137851D01*
X250046456Y-119007447D01*
X250044966Y-118907617D01*
X250042656Y-118836431D01*
X250039561Y-118791958D01*
X250035862Y-118772548D01*
X249957222Y-118670974D01*
X249861301Y-118601884D01*
X249849798Y-118598615D01*
X249831779Y-118597762D01*
X249805259Y-118599948D01*
X249768251Y-118605797D01*
X249718769Y-118615934D01*
X249654828Y-118630981D01*
X249574441Y-118651563D01*
X249475624Y-118678304D01*
X249356389Y-118711828D01*
X249214751Y-118752757D01*
X249048725Y-118801717D01*
X248856324Y-118859331D01*
X248635562Y-118926223D01*
X248384454Y-119003017D01*
X248101014Y-119090336D01*
X247783256Y-119188805D01*
X247429193Y-119299047D01*
X247036841Y-119421686D01*
X246604213Y-119557347D01*
X246129323Y-119706652D01*
X245610186Y-119870225D01*
X245044816Y-120048692D01*
X244431226Y-120242674D01*
X243767432Y-120452797D01*
X243051446Y-120679684D01*
X242281283Y-120923959D01*
X241454958Y-121186245D01*
X240570485Y-121467168D01*
X239625876Y-121767349D01*
X238619148Y-122087414D01*
X237548313Y-122427987D01*
X236411387Y-122789690D01*
X235206382Y-123173148D01*
X233931314Y-123578985D01*
X232584196Y-124007824D01*
X231163042Y-124460290D01*
X229665868Y-124937006D01*
X228090686Y-125438596D01*
X227536715Y-125615004D01*
X205332558Y-132685844D01*
X204701812Y-132212994D01*
X204071067Y-131740144D01*
X204242091Y-131683136D01*
X204291937Y-131667117D01*
X204420244Y-131626113D01*
X204624795Y-131560832D01*
X204903375Y-131471979D01*
X205253771Y-131360258D01*
X205673765Y-131226377D01*
X206161144Y-131071040D01*
X206713692Y-130894954D01*
X207329193Y-130698823D01*
X208005433Y-130483354D01*
X208740197Y-130249253D01*
X209531269Y-129997224D01*
X210376433Y-129727974D01*
X211273476Y-129442208D01*
X212220181Y-129140633D01*
X213214334Y-128823952D01*
X214253718Y-128492873D01*
X215336120Y-128148101D01*
X216459324Y-127790342D01*
X217621115Y-127420300D01*
X218819277Y-127038683D01*
X220051595Y-126646195D01*
X221315854Y-126243542D01*
X222609840Y-125831430D01*
X223931336Y-125410565D01*
X225278127Y-124981652D01*
X226647999Y-124545397D01*
X228038736Y-124102505D01*
X228838225Y-123847905D01*
X253263334Y-116069681D01*
X253263334Y-116522983D01*
X254309446Y-116522983D01*
X254311781Y-116363384D01*
X254315608Y-116072024D01*
X254318449Y-115818998D01*
X254320340Y-115602524D01*
X254321314Y-115420822D01*
X254321408Y-115272109D01*
X254320657Y-115154605D01*
X254319095Y-115066529D01*
X254316757Y-115006099D01*
X254313678Y-114971534D01*
X254311482Y-114962450D01*
X254232882Y-114860954D01*
X254136973Y-114791887D01*
X254126060Y-114788880D01*
X254108718Y-114788217D01*
X254083093Y-114790483D01*
X254047333Y-114796260D01*
X253999585Y-114806131D01*
X253937996Y-114820679D01*
X253860713Y-114840487D01*
X253765884Y-114866139D01*
X253651655Y-114898218D01*
X253516174Y-114937306D01*
X253357588Y-114983986D01*
X253174045Y-115038843D01*
X252963690Y-115102458D01*
X252724672Y-115175415D01*
X252455138Y-115258297D01*
X252153235Y-115351687D01*
X251817110Y-115456168D01*
X251444911Y-115572324D01*
X251034783Y-115700737D01*
X250584876Y-115841990D01*
X250093335Y-115996667D01*
X249558309Y-116165350D01*
X248977943Y-116348623D01*
X248350386Y-116547068D01*
X247673785Y-116761270D01*
X246946286Y-116991810D01*
X246166038Y-117239272D01*
X245331186Y-117504239D01*
X244439879Y-117787295D01*
X243490264Y-118089021D01*
X242480487Y-118410002D01*
X241408696Y-118750820D01*
X240273038Y-119112058D01*
X239071660Y-119494300D01*
X237802710Y-119898129D01*
X236464334Y-120324127D01*
X235054681Y-120772878D01*
X233571896Y-121244965D01*
X232014127Y-121740971D01*
X230379522Y-122261479D01*
X228666228Y-122807071D01*
X228545812Y-122845418D01*
X227115540Y-123300882D01*
X225705280Y-123749952D01*
X224317183Y-124191942D01*
X222953401Y-124626168D01*
X221616085Y-125051946D01*
X220307387Y-125468590D01*
X219029459Y-125875417D01*
X217784452Y-126271742D01*
X216574517Y-126656881D01*
X215401807Y-127030147D01*
X214268472Y-127390858D01*
X213176665Y-127738329D01*
X212128537Y-128071874D01*
X211126239Y-128390810D01*
X210171923Y-128694452D01*
X209267741Y-128982115D01*
X208415845Y-129253114D01*
X207618385Y-129506766D01*
X206877513Y-129742385D01*
X206195381Y-129959287D01*
X205574141Y-130156788D01*
X205015944Y-130334202D01*
X204522941Y-130490845D01*
X204097285Y-130626033D01*
X203741126Y-130739081D01*
X203456617Y-130829305D01*
X203245908Y-130896020D01*
X203111152Y-130938540D01*
X203054500Y-130956183D01*
X203052737Y-130956666D01*
X203012732Y-130932864D01*
X202916848Y-130867154D01*
X202777197Y-130768086D01*
X202605891Y-130644208D01*
X202494739Y-130562844D01*
X201959078Y-130169021D01*
X257644834Y-112435305D01*
X257658329Y-112710736D01*
X258713045Y-112710736D01*
X258714809Y-112585260D01*
X258718208Y-112313461D01*
X258720679Y-112078416D01*
X258722254Y-111878472D01*
X258722967Y-111711978D01*
X258722849Y-111577283D01*
X258721934Y-111472735D01*
X258720254Y-111396683D01*
X258717843Y-111347475D01*
X258714732Y-111323460D01*
X258714055Y-111321589D01*
X258635566Y-111220300D01*
X258539475Y-111151142D01*
X258529102Y-111148353D01*
X258512432Y-111147831D01*
X258487730Y-111150123D01*
G36*
X209767818Y-141059459D02*
G01*
X209547680Y-141090890D01*
X209430908Y-141115794D01*
X209096932Y-141209048D01*
X208846368Y-141313883D01*
X208678685Y-141430828D01*
X208593353Y-141560412D01*
X208589841Y-141703162D01*
X208667619Y-141859608D01*
X208674610Y-141869109D01*
X208829098Y-142070322D01*
X209000296Y-142284598D01*
X209176065Y-142497599D01*
X209344270Y-142694987D01*
X209492772Y-142862424D01*
X209609434Y-142985573D01*
X209659552Y-143032628D01*
X209805223Y-143165437D01*
X209995063Y-143350703D01*
X210218089Y-143576642D01*
X210463320Y-143831470D01*
X210719775Y-144103402D01*
X210976471Y-144380655D01*
X211222428Y-144651444D01*
X211446663Y-144903986D01*
X211638195Y-145126495D01*
X211786043Y-145307189D01*
X211819114Y-145350000D01*
X211985375Y-145559564D01*
X212192616Y-145806068D01*
X212421362Y-146067177D01*
X212652138Y-146320554D01*
X212815730Y-146493000D01*
X213033363Y-146719345D01*
X213287686Y-146986977D01*
X213558514Y-147274461D01*
X213825662Y-147560363D01*
X214068948Y-147823249D01*
X214091390Y-147847667D01*
X214289978Y-148063045D01*
X214475808Y-148262980D01*
X214639172Y-148437153D01*
X214770363Y-148575247D01*
X214859674Y-148666943D01*
X214887943Y-148694333D01*
X214985320Y-148799050D01*
X215085959Y-148930671D01*
X215111788Y-148969500D01*
X215202758Y-149105893D01*
X215304273Y-149242758D01*
X215427093Y-149392929D01*
X215581979Y-149569241D01*
X215779691Y-149784528D01*
X215925334Y-149939852D01*
X216081893Y-150108429D01*
X216279615Y-150325181D01*
X216504255Y-150574268D01*
X216741565Y-150839848D01*
X216977301Y-151106078D01*
X217109640Y-151256774D01*
X217363349Y-151542533D01*
X217656093Y-151865418D01*
X217966944Y-152202783D01*
X218274974Y-152531979D01*
X218559257Y-152830359D01*
X218654806Y-152929002D01*
X219105065Y-153392674D01*
X219498344Y-153800976D01*
X219838054Y-154157880D01*
X220127606Y-154467355D01*
X220370411Y-154733375D01*
X220569881Y-154959909D01*
X220729425Y-155150930D01*
X220852455Y-155310409D01*
X220942382Y-155442316D01*
X221002616Y-155550624D01*
X221036569Y-155639304D01*
X221047651Y-155712326D01*
X221047667Y-155715007D01*
X221047667Y-155860426D01*
X220783084Y-155836443D01*
X220662226Y-155819821D01*
X220538661Y-155788392D01*
X220395518Y-155735786D01*
X220215926Y-155655632D01*
X219983013Y-155541560D01*
X219925834Y-155512742D01*
X219654964Y-155378980D01*
X219346326Y-155231682D01*
X219036530Y-155088051D01*
X218762187Y-154965291D01*
X218743275Y-154957064D01*
X218490370Y-154841227D01*
X218250874Y-154720410D01*
X218046554Y-154606155D01*
X217899174Y-154510003D01*
X217896629Y-154508098D01*
X217719364Y-154385667D01*
X217512861Y-154258636D01*
X217343521Y-154165858D01*
X217184072Y-154083098D01*
X216979605Y-153973452D01*
X216758480Y-153852274D01*
X216581500Y-153753308D01*
X216341500Y-153620531D01*
X216065244Y-153472231D01*
X215792727Y-153329691D01*
X215629000Y-153246435D01*
X215409706Y-153134711D01*
X215185674Y-153017171D01*
X214985064Y-152908770D01*
X214851443Y-152833499D01*
X214603962Y-152699246D01*
X214362457Y-152591898D01*
X214108506Y-152506069D01*
X213823689Y-152436374D01*
X213489587Y-152377429D01*
X213122519Y-152328023D01*
X212738147Y-152286960D01*
X212385852Y-152260103D01*
X212075999Y-152247653D01*
X211818955Y-152249813D01*
X211625085Y-152266787D01*
X211509672Y-152296449D01*
X211299710Y-152407620D01*
X211152542Y-152513216D01*
X211087157Y-152556844D01*
X210963378Y-152628278D01*
X210798697Y-152717770D01*
X210610605Y-152815577D01*
X210602395Y-152819751D01*
X210335137Y-152963827D01*
X210141909Y-153092431D01*
X210016459Y-153216973D01*
X209952532Y-153348863D01*
X209943873Y-153499513D01*
X209984228Y-153680333D01*
X210042418Y-153841402D01*
X210135803Y-154056905D01*
X210239518Y-154250379D01*
X210366745Y-154441707D01*
X210530670Y-154650775D01*
X210737351Y-154889486D01*
X210900258Y-155076309D01*
X211084857Y-155294543D01*
X211261165Y-155508528D01*
X211332167Y-155596900D01*
X211470892Y-155771510D01*
X211642469Y-155987560D01*
X211827134Y-156220155D01*
X212005121Y-156444404D01*
X212042334Y-156491300D01*
X212273154Y-156791192D01*
X212445773Y-157036642D01*
X212562728Y-157232195D01*
X212626556Y-157382396D01*
X212639792Y-157491791D01*
X212625921Y-157537167D01*
X212536113Y-157623669D01*
X212377353Y-157673300D01*
X212146894Y-157686543D01*
X211881145Y-157668323D01*
X211628334Y-157639135D01*
X211403509Y-157608468D01*
X211190738Y-157572851D01*
X210974090Y-157528816D01*
X210737632Y-157472892D01*
X210465432Y-157401610D01*
X210141559Y-157311500D01*
X209821903Y-157219872D01*
X209276106Y-157068305D01*
X208801799Y-156950013D01*
X208393138Y-156863810D01*
X208044276Y-156808513D01*
X207749367Y-156782935D01*
X207655634Y-156780775D01*
X207542551Y-156775804D01*
X207460087Y-156752332D01*
X207381864Y-156695965D01*
X207281508Y-156592310D01*
X207253467Y-156561318D01*
X207135080Y-156426044D01*
X206989566Y-156254262D01*
X206842207Y-156075957D01*
X206792089Y-156014100D01*
X206591844Y-155787077D01*
X206398194Y-155608656D01*
X206221260Y-155486671D01*
X206071164Y-155428952D01*
X206031263Y-155425333D01*
X205870680Y-155435431D01*
X205698808Y-155462004D01*
X205539027Y-155499476D01*
X205414716Y-155542269D01*
X205349256Y-155584804D01*
X205346967Y-155588590D01*
X205292460Y-155774311D01*
X205286357Y-156011556D01*
X205329108Y-156282076D01*
X205329868Y-156285239D01*
X205369316Y-156477259D01*
X205371564Y-156602581D01*
X205328729Y-156673935D01*
X205232931Y-156704054D01*
X205076286Y-156705667D01*
X205069745Y-156705370D01*
X204784588Y-156653206D01*
X204609926Y-156578370D01*
X204475307Y-156515097D01*
X204352742Y-156480779D01*
X204206555Y-156468112D01*
X204071783Y-156468203D01*
X203757831Y-156494804D01*
X203465554Y-156559218D01*
X203213797Y-156655521D01*
X203021404Y-156777787D01*
X202987234Y-156809255D01*
X202819387Y-157024281D01*
X202730938Y-157251744D01*
X202717334Y-157384007D01*
X202702924Y-157496594D01*
X202668097Y-157574237D01*
X202666534Y-157575867D01*
X202569044Y-157619133D01*
X202421300Y-157619216D01*
X202253209Y-157578527D01*
X202163791Y-157540405D01*
X202015483Y-157469575D01*
X201823081Y-157373776D01*
X201601383Y-157260749D01*
X201365185Y-157138236D01*
X201129283Y-157013975D01*
X200908475Y-156895709D01*
X200717558Y-156791177D01*
X200571327Y-156708121D01*
X200484580Y-156654280D01*
X200479664Y-156650739D01*
X200407589Y-156614699D01*
X200268781Y-156559793D01*
X200077814Y-156490765D01*
X199849264Y-156412357D01*
X199597705Y-156329312D01*
X199337713Y-156246374D01*
X199083862Y-156168287D01*
X198850726Y-156099792D01*
X198652882Y-156045634D01*
X198526334Y-156015059D01*
X198297070Y-155995814D01*
X198066591Y-156029422D01*
X197850245Y-156107420D01*
X197663383Y-156221344D01*
X197521355Y-156362728D01*
X197439512Y-156523109D01*
X197425667Y-156621994D01*
X197452328Y-156729190D01*
X197526083Y-156885233D01*
X197637595Y-157075851D01*
X197777523Y-157286773D01*
X197936530Y-157503730D01*
X198105276Y-157712451D01*
X198232515Y-157854902D01*
X198398451Y-158034564D01*
X198596324Y-158253556D01*
X198803447Y-158486522D01*
X198997134Y-158708103D01*
X199031985Y-158748500D01*
X199229579Y-158974917D01*
X199459403Y-159233210D01*
X199695148Y-159494082D01*
X199910508Y-159728237D01*
X199944341Y-159764500D01*
X200152081Y-159990779D01*
X200383108Y-160249267D01*
X200611615Y-160510708D01*
X200811797Y-160745844D01*
X200843190Y-160783551D01*
X201014036Y-160987474D01*
X201190105Y-161193887D01*
X201353629Y-161382194D01*
X201486840Y-161531801D01*
X201518847Y-161566717D01*
X201753381Y-161823213D01*
X201980740Y-162077967D01*
X202193150Y-162321742D01*
X202382833Y-162545303D01*
X202542013Y-162739415D01*
X202662915Y-162894840D01*
X202737761Y-163002343D01*
X202755697Y-163035749D01*
X202796236Y-163174408D01*
X202775006Y-163257527D01*
X202687114Y-163291289D01*
X202557690Y-163285969D01*
X202402053Y-163253526D01*
X202185235Y-163189896D01*
X201922278Y-163100749D01*
X201628222Y-162991758D01*
X201318107Y-162868597D01*
X201006976Y-162736936D01*
X200709869Y-162602448D01*
X200579500Y-162539948D01*
X200336785Y-162426100D01*
X200083570Y-162315741D01*
X199845990Y-162219747D01*
X199650185Y-162148990D01*
X199607148Y-162135405D01*
X199386349Y-162060917D01*
X199147887Y-161968049D01*
X198937415Y-161874784D01*
X198905331Y-161858993D01*
X198683258Y-161754410D01*
X198403507Y-161633298D01*
X198089103Y-161504726D01*
X197763073Y-161377758D01*
X197448444Y-161261463D01*
X197168241Y-161164907D01*
X197038470Y-161123900D01*
X196785957Y-161054655D01*
X196599798Y-161021084D01*
X196469897Y-161022484D01*
X196386153Y-161058153D01*
X196367021Y-161077210D01*
X196341796Y-161131264D01*
X196360222Y-161201710D01*
X196418558Y-161299460D01*
X196501407Y-161426931D01*
X196576687Y-161545855D01*
X196591343Y-161569639D01*
X196659027Y-161646171D01*
X196776063Y-161746996D01*
X196919376Y-161852560D01*
X196947372Y-161871341D01*
X197060179Y-161940618D01*
X197220583Y-162032277D01*
X197414731Y-162139103D01*
X197628769Y-162253884D01*
X197848842Y-162369407D01*
X198061099Y-162478459D01*
X198251684Y-162573826D01*
X198406745Y-162648297D01*
X198512428Y-162694658D01*
X198551757Y-162706667D01*
X198599883Y-162725337D01*
X198713708Y-162778145D01*
X198883753Y-162860284D01*
X199100536Y-162966947D01*
X199354580Y-163093327D01*
X199636403Y-163234618D01*
X199936527Y-163386014D01*
X200245471Y-163542708D01*
X200553756Y-163699893D01*
X200851902Y-163852764D01*
X201130429Y-163996512D01*
X201379858Y-164126333D01*
X201590708Y-164237419D01*
X201753501Y-164324964D01*
X201849500Y-164378727D01*
X202133223Y-164541066D01*
X202367395Y-164667099D01*
X202573267Y-164766946D01*
X202772093Y-164850724D01*
X202985125Y-164928552D01*
X203052208Y-164951323D01*
X203275898Y-165020561D01*
X203454459Y-165058128D01*
X203619987Y-165067068D01*
X203804577Y-165050423D01*
X203915695Y-165033180D01*
X204139591Y-164962167D01*
X204324783Y-164826716D01*
X204480604Y-164619044D01*
X204535903Y-164515833D01*
X204658377Y-164191190D01*
X204698120Y-163878123D01*
X204654740Y-163570300D01*
X204527846Y-163261390D01*
X204450361Y-163131051D01*
X204386850Y-163048041D01*
X204270670Y-162911987D01*
X204108544Y-162730186D01*
X203907192Y-162509938D01*
X203673335Y-162258542D01*
X203413694Y-161983296D01*
X203134990Y-161691498D01*
X202912963Y-161461506D01*
X202626915Y-161165224D01*
X202353978Y-160879944D01*
X202100932Y-160612933D01*
X201874555Y-160371458D01*
X201681626Y-160162786D01*
X201528923Y-159994187D01*
X201423225Y-159872926D01*
X201376809Y-159814522D01*
X201272023Y-159672670D01*
X201130311Y-159490559D01*
X200963628Y-159282586D01*
X200783927Y-159063146D01*
X200603162Y-158846635D01*
X200433286Y-158647448D01*
X200286254Y-158479981D01*
X200174018Y-158358630D01*
X200138845Y-158323657D01*
X200005062Y-158175092D01*
X199910136Y-158025991D01*
X199862049Y-157893254D01*
X199868777Y-157793780D01*
X199880193Y-157775806D01*
X199926676Y-157735114D01*
X199988668Y-157714510D01*
X200074143Y-157716603D01*
X200191076Y-157744002D01*
X200347439Y-157799315D01*
X200551208Y-157885151D01*
X200810355Y-158004117D01*
X201132855Y-158158824D01*
X201299167Y-158240010D01*
X201826300Y-158510856D01*
X202404705Y-158831014D01*
X203022615Y-159193278D01*
X203668258Y-159590443D01*
X204329866Y-160015304D01*
X204995670Y-160460656D01*
X205514706Y-160820699D01*
X205807924Y-161011743D01*
X206056311Y-161138392D01*
X206266636Y-161203377D01*
X206445667Y-161209429D01*
X206468878Y-161205680D01*
X206642493Y-161134881D01*
X206809500Y-160998907D01*
X206951042Y-160816362D01*
X207033523Y-160648622D01*
X207073573Y-160512437D01*
X207102604Y-160358698D01*
X207118782Y-160209234D01*
X207120274Y-160085872D01*
X207105247Y-160010439D01*
X207088250Y-159997251D01*
X207049828Y-159964793D01*
X206981365Y-159880318D01*
X206908334Y-159777572D01*
X206794649Y-159618246D01*
X206667007Y-159452490D01*
X206599990Y-159371264D01*
X206493307Y-159231984D01*
X206390422Y-159072554D01*
X206304076Y-158915737D01*
X206247010Y-158784293D01*
X206231000Y-158712103D01*
X206265313Y-158646272D01*
X206297963Y-158626029D01*
X206393257Y-158606314D01*
X206515013Y-158600988D01*
X206630026Y-158609047D01*
X206705088Y-158629489D01*
X206715337Y-158638626D01*
X206762389Y-158678228D01*
X206861210Y-158743025D01*
X206972010Y-158808420D01*
X207086914Y-158887411D01*
X207250066Y-159019944D01*
X207451933Y-159197676D01*
X207682980Y-159412266D01*
X207883787Y-159606210D01*
X208249852Y-159955245D01*
X208566758Y-160235425D01*
X208834492Y-160446743D01*
X209053042Y-160589190D01*
X209222398Y-160662757D01*
X209297892Y-160673862D01*
X209450720Y-160639956D01*
X209617442Y-160553298D01*
X209768728Y-160433936D01*
X209875245Y-160301919D01*
X209892110Y-160267703D01*
X209957263Y-160008122D01*
X209938396Y-159743889D01*
X209835947Y-159476289D01*
X209650354Y-159206605D01*
X209462437Y-159008983D01*
X209210667Y-158770378D01*
X208975614Y-158544673D01*
X208764116Y-158338686D01*
X208583012Y-158159237D01*
X208439142Y-158013143D01*
X208339343Y-157907223D01*
X208290456Y-157848297D01*
X208288315Y-157838333D01*
X208344012Y-157852251D01*
X208467221Y-157891222D01*
X208645992Y-157951071D01*
X208868377Y-158027626D01*
X209122424Y-158116712D01*
X209396185Y-158214155D01*
X209677709Y-158315781D01*
X209955047Y-158417416D01*
X210095011Y-158469396D01*
X210408489Y-158578946D01*
X210748296Y-158684775D01*
X211098227Y-158782929D01*
X211442078Y-158869456D01*
X211763642Y-158940401D01*
X212046717Y-158991813D01*
X212275097Y-159019739D01*
X212367188Y-159023667D01*
X212668579Y-159001166D01*
X212992822Y-158938445D01*
X213320142Y-158842675D01*
X213630764Y-158721029D01*
X213904914Y-158580677D01*
X214122817Y-158428792D01*
X214195297Y-158360667D01*
X214344323Y-158157192D01*
X214423157Y-157928388D01*
X214437406Y-157657126D01*
X214435510Y-157627204D01*
X214414514Y-157471024D01*
X214368423Y-157332954D01*
X214284210Y-157178213D01*
X214242947Y-157113107D01*
X214120767Y-156899744D01*
X214060966Y-156737039D01*
X214061271Y-156628206D01*
X214119403Y-156576457D01*
X214233087Y-156585004D01*
X214400046Y-156657062D01*
X214516649Y-156726795D01*
X214667797Y-156810363D01*
X214876037Y-156906029D01*
X215116905Y-157003149D01*
X215315427Y-157074326D01*
X215536878Y-157151374D01*
X215747395Y-157228724D01*
X215924583Y-157297886D01*
X216046044Y-157350368D01*
X216054907Y-157354691D01*
X216256509Y-157439614D01*
X216510956Y-157524842D01*
X216786909Y-157601658D01*
X217053029Y-157661349D01*
X217277977Y-157695197D01*
X217280000Y-157695384D01*
X217591704Y-157697520D01*
X217934694Y-157647349D01*
X218324051Y-157542586D01*
X218355226Y-157532566D01*
X218600086Y-157426838D01*
X218816466Y-157283753D01*
X218986717Y-157117858D01*
X219093194Y-156943696D01*
X219103078Y-156916202D01*
X219146959Y-156782651D01*
X219185763Y-156699867D01*
X219234278Y-156666810D01*
X219307292Y-156682444D01*
X219419592Y-156745730D01*
X219585966Y-156855629D01*
X219622034Y-156879771D01*
X219911434Y-157057192D01*
X220169839Y-157179299D01*
X220331048Y-157234032D01*
X220732119Y-157334928D01*
X221094362Y-157396934D01*
X221408585Y-157419286D01*
X221665593Y-157401219D01*
X221821487Y-157358134D01*
X222044221Y-157230056D01*
X222270397Y-157036406D01*
X222482051Y-156793525D01*
X222556396Y-156689558D01*
X222670932Y-156525984D01*
X222791382Y-156363887D01*
X222892248Y-156237550D01*
X222894873Y-156234475D01*
X222964968Y-156157617D01*
X223032190Y-156104381D01*
X223110384Y-156073891D01*
X223213398Y-156065269D01*
X223355076Y-156077641D01*
X223549264Y-156110129D01*
X223809809Y-156161858D01*
X223864626Y-156173104D01*
X224296804Y-156250938D01*
X224670300Y-156295196D01*
X224979465Y-156305494D01*
X225218649Y-156281445D01*
X225270910Y-156268899D01*
X225466037Y-156178668D01*
X225666130Y-156023834D01*
X225760013Y-155922332D01*
X217021641Y-155922332D01*
X217005671Y-155975530D01*
X216941592Y-156009589D01*
X216933685Y-156012544D01*
X216862022Y-156023418D01*
X216758406Y-156011166D01*
X216615011Y-155973171D01*
X216424013Y-155906818D01*
X216177586Y-155809489D01*
X215867905Y-155678568D01*
X215648599Y-155582856D01*
X215252933Y-155406798D01*
X214820619Y-155211131D01*
X214368743Y-155003822D01*
X213914393Y-154792837D01*
X213474656Y-154586145D01*
X213066618Y-154391713D01*
X212707369Y-154217508D01*
X212496739Y-154113203D01*
X212196846Y-153955746D01*
X211970393Y-153818902D01*
X211810467Y-153696617D01*
X211710152Y-153582835D01*
X211662534Y-153471498D01*
X211657880Y-153378576D01*
X211673658Y-153294985D01*
X211716003Y-153250194D01*
X211809318Y-153224747D01*
X211861334Y-153216387D01*
X212158712Y-153197007D01*
X212496888Y-153217004D01*
X212843627Y-153272922D01*
X213145667Y-153354177D01*
X213376335Y-153441307D01*
X213657616Y-153563502D01*
X213968683Y-153710387D01*
X214288707Y-153871586D01*
X214596863Y-154036725D01*
X214872322Y-154195429D01*
X215021566Y-154288653D01*
X215213073Y-154417455D01*
X215432133Y-154571583D01*
X215668774Y-154743323D01*
X215913029Y-154924961D01*
X216154929Y-155108785D01*
X216384502Y-155287079D01*
X216591782Y-155452131D01*
X216766798Y-155596226D01*
X216899580Y-155711652D01*
X216980161Y-155790693D01*
X216999985Y-155819466D01*
X217021641Y-155922332D01*
X225760013Y-155922332D01*
X225853417Y-155821350D01*
X226010126Y-155588168D01*
X226036705Y-155538419D01*
X226111172Y-155384454D01*
X226150040Y-155272203D01*
X226160368Y-155170243D01*
X226149216Y-155047154D01*
X226148408Y-155041237D01*
X226119721Y-154901148D01*
X224482417Y-154901148D01*
X224471767Y-154986523D01*
X224412374Y-155032757D01*
X224298188Y-155040678D01*
X224123156Y-155011112D01*
X223881228Y-154944887D01*
X223680624Y-154881054D01*
X223258808Y-154729211D01*
X222893941Y-154568287D01*
X222558386Y-154385588D01*
X222433464Y-154308229D01*
X222298692Y-154225590D01*
X222118042Y-154119482D01*
X221920173Y-154006593D01*
X221809667Y-153945055D01*
X221564698Y-153803398D01*
X221376973Y-153674832D01*
X221225463Y-153540164D01*
X221089144Y-153380200D01*
X220946988Y-153175745D01*
X220918267Y-153131351D01*
X220821288Y-152984487D01*
X220737771Y-152865658D01*
X220680431Y-152792626D01*
X220666228Y-152779228D01*
X220611708Y-152713197D01*
X220543290Y-152583567D01*
X220467541Y-152408897D01*
X220391027Y-152207745D01*
X220320318Y-151998669D01*
X220261980Y-151800227D01*
X220222581Y-151630977D01*
X220208689Y-151509476D01*
X220209858Y-151489668D01*
X220260400Y-151373037D01*
X220368940Y-151304974D01*
X220519848Y-151292249D01*
X220619145Y-151312444D01*
X220778756Y-151380402D01*
X220989680Y-151501242D01*
X221243157Y-151668182D01*
X221530423Y-151874443D01*
X221842718Y-152113247D01*
X222171280Y-152377813D01*
X222507345Y-152661361D01*
X222842154Y-152957113D01*
X223166943Y-153258288D01*
X223301536Y-153387964D01*
X223666359Y-153754069D01*
X223962252Y-154073516D01*
X224190165Y-154347454D01*
X224351048Y-154577030D01*
X224445850Y-154763391D01*
X224450374Y-154775804D01*
X224482417Y-154901148D01*
X226119721Y-154901148D01*
X226110625Y-154856735D01*
X226043792Y-154664607D01*
X225941221Y-154450968D01*
X225796227Y-154201934D01*
X225602121Y-153903623D01*
X225596322Y-153895030D01*
X225258468Y-153420670D01*
X224906305Y-152981226D01*
X224516927Y-152549250D01*
X224223814Y-152250333D01*
X223658976Y-151722301D01*
X223110817Y-151274164D01*
X222579996Y-150906293D01*
X222067173Y-150619056D01*
X221573008Y-150412825D01*
X221098163Y-150287969D01*
X220645500Y-150244869D01*
X220456617Y-150246689D01*
X220313580Y-150259319D01*
X220183723Y-150289728D01*
X220034380Y-150344884D01*
X219892759Y-150405447D01*
X219644148Y-150526837D01*
X219390801Y-150672297D01*
X219155034Y-150827388D01*
X218959165Y-150977671D01*
X218851076Y-151079402D01*
X218797427Y-151130472D01*
X218745187Y-151154787D01*
X218683915Y-151146636D01*
X218603170Y-151100306D01*
X218492513Y-151010085D01*
X218341501Y-150870261D01*
X218175044Y-150709534D01*
X218047292Y-150583007D01*
X217906365Y-150438819D01*
X217748635Y-150272904D01*
X217570474Y-150081195D01*
X217368253Y-149859626D01*
X217138344Y-149604128D01*
X216877118Y-149310637D01*
X216580947Y-148975085D01*
X216246202Y-148593405D01*
X215869254Y-148161531D01*
X215446475Y-147675396D01*
X214974237Y-147130933D01*
X214716600Y-146833437D01*
X214385041Y-146451497D01*
X214051579Y-146069400D01*
X213723414Y-145695266D01*
X213407746Y-145337218D01*
X213111773Y-145003377D01*
X212842695Y-144701866D01*
X212607709Y-144440806D01*
X212414017Y-144228320D01*
X212277584Y-144081770D01*
X212057196Y-143846370D01*
X211830234Y-143599180D01*
X211612405Y-143357643D01*
X211419416Y-143139202D01*
X211266974Y-142961301D01*
X211246763Y-142937000D01*
X211055913Y-142697884D01*
X210863911Y-142442314D01*
X210677932Y-142181345D01*
X210505151Y-141926035D01*
X210352742Y-141687439D01*
X210227882Y-141476614D01*
X210137743Y-141304615D01*
X210089503Y-141182500D01*
X210083334Y-141144231D01*
X210045119Y-141086542D01*
X209936789Y-141058147D01*
X209767818Y-141059459D01*
G37*
X209767818Y-141059459D02*
X209547680Y-141090890D01*
X209430908Y-141115794D01*
X209096932Y-141209048D01*
X208846368Y-141313883D01*
X208678685Y-141430828D01*
X208593353Y-141560412D01*
X208589841Y-141703162D01*
X208667619Y-141859608D01*
X208674610Y-141869109D01*
X208829098Y-142070322D01*
X209000296Y-142284598D01*
X209176065Y-142497599D01*
X209344270Y-142694987D01*
X209492772Y-142862424D01*
X209609434Y-142985573D01*
X209659552Y-143032628D01*
X209805223Y-143165437D01*
X209995063Y-143350703D01*
X210218089Y-143576642D01*
X210463320Y-143831470D01*
X210719775Y-144103402D01*
X210976471Y-144380655D01*
X211222428Y-144651444D01*
X211446663Y-144903986D01*
X211638195Y-145126495D01*
X211786043Y-145307189D01*
X211819114Y-145350000D01*
X211985375Y-145559564D01*
X212192616Y-145806068D01*
X212421362Y-146067177D01*
X212652138Y-146320554D01*
X212815730Y-146493000D01*
X213033363Y-146719345D01*
X213287686Y-146986977D01*
X213558514Y-147274461D01*
X213825662Y-147560363D01*
X214068948Y-147823249D01*
X214091390Y-147847667D01*
X214289978Y-148063045D01*
X214475808Y-148262980D01*
X214639172Y-148437153D01*
X214770363Y-148575247D01*
X214859674Y-148666943D01*
X214887943Y-148694333D01*
X214985320Y-148799050D01*
X215085959Y-148930671D01*
X215111788Y-148969500D01*
X215202758Y-149105893D01*
X215304273Y-149242758D01*
X215427093Y-149392929D01*
X215581979Y-149569241D01*
X215779691Y-149784528D01*
X215925334Y-149939852D01*
X216081893Y-150108429D01*
X216279615Y-150325181D01*
X216504255Y-150574268D01*
X216741565Y-150839848D01*
X216977301Y-151106078D01*
X217109640Y-151256774D01*
X217363349Y-151542533D01*
X217656093Y-151865418D01*
X217966944Y-152202783D01*
X218274974Y-152531979D01*
X218559257Y-152830359D01*
X218654806Y-152929002D01*
X219105065Y-153392674D01*
X219498344Y-153800976D01*
X219838054Y-154157880D01*
X220127606Y-154467355D01*
X220370411Y-154733375D01*
X220569881Y-154959909D01*
X220729425Y-155150930D01*
X220852455Y-155310409D01*
X220942382Y-155442316D01*
X221002616Y-155550624D01*
X221036569Y-155639304D01*
X221047651Y-155712326D01*
X221047667Y-155715007D01*
X221047667Y-155860426D01*
X220783084Y-155836443D01*
X220662226Y-155819821D01*
X220538661Y-155788392D01*
X220395518Y-155735786D01*
X220215926Y-155655632D01*
X219983013Y-155541560D01*
X219925834Y-155512742D01*
X219654964Y-155378980D01*
X219346326Y-155231682D01*
X219036530Y-155088051D01*
X218762187Y-154965291D01*
X218743275Y-154957064D01*
X218490370Y-154841227D01*
X218250874Y-154720410D01*
X218046554Y-154606155D01*
X217899174Y-154510003D01*
X217896629Y-154508098D01*
X217719364Y-154385667D01*
X217512861Y-154258636D01*
X217343521Y-154165858D01*
X217184072Y-154083098D01*
X216979605Y-153973452D01*
X216758480Y-153852274D01*
X216581500Y-153753308D01*
X216341500Y-153620531D01*
X216065244Y-153472231D01*
X215792727Y-153329691D01*
X215629000Y-153246435D01*
X215409706Y-153134711D01*
X215185674Y-153017171D01*
X214985064Y-152908770D01*
X214851443Y-152833499D01*
X214603962Y-152699246D01*
X214362457Y-152591898D01*
X214108506Y-152506069D01*
X213823689Y-152436374D01*
X213489587Y-152377429D01*
X213122519Y-152328023D01*
X212738147Y-152286960D01*
X212385852Y-152260103D01*
X212075999Y-152247653D01*
X211818955Y-152249813D01*
X211625085Y-152266787D01*
X211509672Y-152296449D01*
X211299710Y-152407620D01*
X211152542Y-152513216D01*
X211087157Y-152556844D01*
X210963378Y-152628278D01*
X210798697Y-152717770D01*
X210610605Y-152815577D01*
X210602395Y-152819751D01*
X210335137Y-152963827D01*
X210141909Y-153092431D01*
X210016459Y-153216973D01*
X209952532Y-153348863D01*
X209943873Y-153499513D01*
X209984228Y-153680333D01*
X210042418Y-153841402D01*
X210135803Y-154056905D01*
X210239518Y-154250379D01*
X210366745Y-154441707D01*
X210530670Y-154650775D01*
X210737351Y-154889486D01*
X210900258Y-155076309D01*
X211084857Y-155294543D01*
X211261165Y-155508528D01*
X211332167Y-155596900D01*
X211470892Y-155771510D01*
X211642469Y-155987560D01*
X211827134Y-156220155D01*
X212005121Y-156444404D01*
X212042334Y-156491300D01*
X212273154Y-156791192D01*
X212445773Y-157036642D01*
X212562728Y-157232195D01*
X212626556Y-157382396D01*
X212639792Y-157491791D01*
X212625921Y-157537167D01*
X212536113Y-157623669D01*
X212377353Y-157673300D01*
X212146894Y-157686543D01*
X211881145Y-157668323D01*
X211628334Y-157639135D01*
X211403509Y-157608468D01*
X211190738Y-157572851D01*
X210974090Y-157528816D01*
X210737632Y-157472892D01*
X210465432Y-157401610D01*
X210141559Y-157311500D01*
X209821903Y-157219872D01*
X209276106Y-157068305D01*
X208801799Y-156950013D01*
X208393138Y-156863810D01*
X208044276Y-156808513D01*
X207749367Y-156782935D01*
X207655634Y-156780775D01*
X207542551Y-156775804D01*
X207460087Y-156752332D01*
X207381864Y-156695965D01*
X207281508Y-156592310D01*
X207253467Y-156561318D01*
X207135080Y-156426044D01*
X206989566Y-156254262D01*
X206842207Y-156075957D01*
X206792089Y-156014100D01*
X206591844Y-155787077D01*
X206398194Y-155608656D01*
X206221260Y-155486671D01*
X206071164Y-155428952D01*
X206031263Y-155425333D01*
X205870680Y-155435431D01*
X205698808Y-155462004D01*
X205539027Y-155499476D01*
X205414716Y-155542269D01*
X205349256Y-155584804D01*
X205346967Y-155588590D01*
X205292460Y-155774311D01*
X205286357Y-156011556D01*
X205329108Y-156282076D01*
X205329868Y-156285239D01*
X205369316Y-156477259D01*
X205371564Y-156602581D01*
X205328729Y-156673935D01*
X205232931Y-156704054D01*
X205076286Y-156705667D01*
X205069745Y-156705370D01*
X204784588Y-156653206D01*
X204609926Y-156578370D01*
X204475307Y-156515097D01*
X204352742Y-156480779D01*
X204206555Y-156468112D01*
X204071783Y-156468203D01*
X203757831Y-156494804D01*
X203465554Y-156559218D01*
X203213797Y-156655521D01*
X203021404Y-156777787D01*
X202987234Y-156809255D01*
X202819387Y-157024281D01*
X202730938Y-157251744D01*
X202717334Y-157384007D01*
X202702924Y-157496594D01*
X202668097Y-157574237D01*
X202666534Y-157575867D01*
X202569044Y-157619133D01*
X202421300Y-157619216D01*
X202253209Y-157578527D01*
X202163791Y-157540405D01*
X202015483Y-157469575D01*
X201823081Y-157373776D01*
X201601383Y-157260749D01*
X201365185Y-157138236D01*
X201129283Y-157013975D01*
X200908475Y-156895709D01*
X200717558Y-156791177D01*
X200571327Y-156708121D01*
X200484580Y-156654280D01*
X200479664Y-156650739D01*
X200407589Y-156614699D01*
X200268781Y-156559793D01*
X200077814Y-156490765D01*
X199849264Y-156412357D01*
X199597705Y-156329312D01*
X199337713Y-156246374D01*
X199083862Y-156168287D01*
X198850726Y-156099792D01*
X198652882Y-156045634D01*
X198526334Y-156015059D01*
X198297070Y-155995814D01*
X198066591Y-156029422D01*
X197850245Y-156107420D01*
X197663383Y-156221344D01*
X197521355Y-156362728D01*
X197439512Y-156523109D01*
X197425667Y-156621994D01*
X197452328Y-156729190D01*
X197526083Y-156885233D01*
X197637595Y-157075851D01*
X197777523Y-157286773D01*
X197936530Y-157503730D01*
X198105276Y-157712451D01*
X198232515Y-157854902D01*
X198398451Y-158034564D01*
X198596324Y-158253556D01*
X198803447Y-158486522D01*
X198997134Y-158708103D01*
X199031985Y-158748500D01*
X199229579Y-158974917D01*
X199459403Y-159233210D01*
X199695148Y-159494082D01*
X199910508Y-159728237D01*
X199944341Y-159764500D01*
X200152081Y-159990779D01*
X200383108Y-160249267D01*
X200611615Y-160510708D01*
X200811797Y-160745844D01*
X200843190Y-160783551D01*
X201014036Y-160987474D01*
X201190105Y-161193887D01*
X201353629Y-161382194D01*
X201486840Y-161531801D01*
X201518847Y-161566717D01*
X201753381Y-161823213D01*
X201980740Y-162077967D01*
X202193150Y-162321742D01*
X202382833Y-162545303D01*
X202542013Y-162739415D01*
X202662915Y-162894840D01*
X202737761Y-163002343D01*
X202755697Y-163035749D01*
X202796236Y-163174408D01*
X202775006Y-163257527D01*
X202687114Y-163291289D01*
X202557690Y-163285969D01*
X202402053Y-163253526D01*
X202185235Y-163189896D01*
X201922278Y-163100749D01*
X201628222Y-162991758D01*
X201318107Y-162868597D01*
X201006976Y-162736936D01*
X200709869Y-162602448D01*
X200579500Y-162539948D01*
X200336785Y-162426100D01*
X200083570Y-162315741D01*
X199845990Y-162219747D01*
X199650185Y-162148990D01*
X199607148Y-162135405D01*
X199386349Y-162060917D01*
X199147887Y-161968049D01*
X198937415Y-161874784D01*
X198905331Y-161858993D01*
X198683258Y-161754410D01*
X198403507Y-161633298D01*
X198089103Y-161504726D01*
X197763073Y-161377758D01*
X197448444Y-161261463D01*
X197168241Y-161164907D01*
X197038470Y-161123900D01*
X196785957Y-161054655D01*
X196599798Y-161021084D01*
X196469897Y-161022484D01*
X196386153Y-161058153D01*
X196367021Y-161077210D01*
X196341796Y-161131264D01*
X196360222Y-161201710D01*
X196418558Y-161299460D01*
X196501407Y-161426931D01*
X196576687Y-161545855D01*
X196591343Y-161569639D01*
X196659027Y-161646171D01*
X196776063Y-161746996D01*
X196919376Y-161852560D01*
X196947372Y-161871341D01*
X197060179Y-161940618D01*
X197220583Y-162032277D01*
X197414731Y-162139103D01*
X197628769Y-162253884D01*
X197848842Y-162369407D01*
X198061099Y-162478459D01*
X198251684Y-162573826D01*
X198406745Y-162648297D01*
X198512428Y-162694658D01*
X198551757Y-162706667D01*
X198599883Y-162725337D01*
X198713708Y-162778145D01*
X198883753Y-162860284D01*
X199100536Y-162966947D01*
X199354580Y-163093327D01*
X199636403Y-163234618D01*
X199936527Y-163386014D01*
X200245471Y-163542708D01*
X200553756Y-163699893D01*
X200851902Y-163852764D01*
X201130429Y-163996512D01*
X201379858Y-164126333D01*
X201590708Y-164237419D01*
X201753501Y-164324964D01*
X201849500Y-164378727D01*
X202133223Y-164541066D01*
X202367395Y-164667099D01*
X202573267Y-164766946D01*
X202772093Y-164850724D01*
X202985125Y-164928552D01*
X203052208Y-164951323D01*
X203275898Y-165020561D01*
X203454459Y-165058128D01*
X203619987Y-165067068D01*
X203804577Y-165050423D01*
X203915695Y-165033180D01*
X204139591Y-164962167D01*
X204324783Y-164826716D01*
X204480604Y-164619044D01*
X204535903Y-164515833D01*
X204658377Y-164191190D01*
X204698120Y-163878123D01*
X204654740Y-163570300D01*
X204527846Y-163261390D01*
X204450361Y-163131051D01*
X204386850Y-163048041D01*
X204270670Y-162911987D01*
X204108544Y-162730186D01*
X203907192Y-162509938D01*
X203673335Y-162258542D01*
X203413694Y-161983296D01*
X203134990Y-161691498D01*
X202912963Y-161461506D01*
X202626915Y-161165224D01*
X202353978Y-160879944D01*
X202100932Y-160612933D01*
X201874555Y-160371458D01*
X201681626Y-160162786D01*
X201528923Y-159994187D01*
X201423225Y-159872926D01*
X201376809Y-159814522D01*
X201272023Y-159672670D01*
X201130311Y-159490559D01*
X200963628Y-159282586D01*
X200783927Y-159063146D01*
X200603162Y-158846635D01*
X200433286Y-158647448D01*
X200286254Y-158479981D01*
X200174018Y-158358630D01*
X200138845Y-158323657D01*
X200005062Y-158175092D01*
X199910136Y-158025991D01*
X199862049Y-157893254D01*
X199868777Y-157793780D01*
X199880193Y-157775806D01*
X199926676Y-157735114D01*
X199988668Y-157714510D01*
X200074143Y-157716603D01*
X200191076Y-157744002D01*
X200347439Y-157799315D01*
X200551208Y-157885151D01*
X200810355Y-158004117D01*
X201132855Y-158158824D01*
X201299167Y-158240010D01*
X201826300Y-158510856D01*
X202404705Y-158831014D01*
X203022615Y-159193278D01*
X203668258Y-159590443D01*
X204329866Y-160015304D01*
X204995670Y-160460656D01*
X205514706Y-160820699D01*
X205807924Y-161011743D01*
X206056311Y-161138392D01*
X206266636Y-161203377D01*
X206445667Y-161209429D01*
X206468878Y-161205680D01*
X206642493Y-161134881D01*
X206809500Y-160998907D01*
X206951042Y-160816362D01*
X207033523Y-160648622D01*
X207073573Y-160512437D01*
X207102604Y-160358698D01*
X207118782Y-160209234D01*
X207120274Y-160085872D01*
X207105247Y-160010439D01*
X207088250Y-159997251D01*
X207049828Y-159964793D01*
X206981365Y-159880318D01*
X206908334Y-159777572D01*
X206794649Y-159618246D01*
X206667007Y-159452490D01*
X206599990Y-159371264D01*
X206493307Y-159231984D01*
X206390422Y-159072554D01*
X206304076Y-158915737D01*
X206247010Y-158784293D01*
X206231000Y-158712103D01*
X206265313Y-158646272D01*
X206297963Y-158626029D01*
X206393257Y-158606314D01*
X206515013Y-158600988D01*
X206630026Y-158609047D01*
X206705088Y-158629489D01*
X206715337Y-158638626D01*
X206762389Y-158678228D01*
X206861210Y-158743025D01*
X206972010Y-158808420D01*
X207086914Y-158887411D01*
X207250066Y-159019944D01*
X207451933Y-159197676D01*
X207682980Y-159412266D01*
X207883787Y-159606210D01*
X208249852Y-159955245D01*
X208566758Y-160235425D01*
X208834492Y-160446743D01*
X209053042Y-160589190D01*
X209222398Y-160662757D01*
X209297892Y-160673862D01*
X209450720Y-160639956D01*
X209617442Y-160553298D01*
X209768728Y-160433936D01*
X209875245Y-160301919D01*
X209892110Y-160267703D01*
X209957263Y-160008122D01*
X209938396Y-159743889D01*
X209835947Y-159476289D01*
X209650354Y-159206605D01*
X209462437Y-159008983D01*
X209210667Y-158770378D01*
X208975614Y-158544673D01*
X208764116Y-158338686D01*
X208583012Y-158159237D01*
X208439142Y-158013143D01*
X208339343Y-157907223D01*
X208290456Y-157848297D01*
X208288315Y-157838333D01*
X208344012Y-157852251D01*
X208467221Y-157891222D01*
X208645992Y-157951071D01*
X208868377Y-158027626D01*
X209122424Y-158116712D01*
X209396185Y-158214155D01*
X209677709Y-158315781D01*
X209955047Y-158417416D01*
X210095011Y-158469396D01*
X210408489Y-158578946D01*
X210748296Y-158684775D01*
X211098227Y-158782929D01*
X211442078Y-158869456D01*
X211763642Y-158940401D01*
X212046717Y-158991813D01*
X212275097Y-159019739D01*
X212367188Y-159023667D01*
X212668579Y-159001166D01*
X212992822Y-158938445D01*
X213320142Y-158842675D01*
X213630764Y-158721029D01*
X213904914Y-158580677D01*
X214122817Y-158428792D01*
X214195297Y-158360667D01*
X214344323Y-158157192D01*
X214423157Y-157928388D01*
X214437406Y-157657126D01*
X214435510Y-157627204D01*
X214414514Y-157471024D01*
X214368423Y-157332954D01*
X214284210Y-157178213D01*
X214242947Y-157113107D01*
X214120767Y-156899744D01*
X214060966Y-156737039D01*
X214061271Y-156628206D01*
X214119403Y-156576457D01*
X214233087Y-156585004D01*
X214400046Y-156657062D01*
X214516649Y-156726795D01*
X214667797Y-156810363D01*
X214876037Y-156906029D01*
X215116905Y-157003149D01*
X215315427Y-157074326D01*
X215536878Y-157151374D01*
X215747395Y-157228724D01*
X215924583Y-157297886D01*
X216046044Y-157350368D01*
X216054907Y-157354691D01*
X216256509Y-157439614D01*
X216510956Y-157524842D01*
X216786909Y-157601658D01*
X217053029Y-157661349D01*
X217277977Y-157695197D01*
X217280000Y-157695384D01*
X217591704Y-157697520D01*
X217934694Y-157647349D01*
X218324051Y-157542586D01*
X218355226Y-157532566D01*
X218600086Y-157426838D01*
X218816466Y-157283753D01*
X218986717Y-157117858D01*
X219093194Y-156943696D01*
X219103078Y-156916202D01*
X219146959Y-156782651D01*
X219185763Y-156699867D01*
X219234278Y-156666810D01*
X219307292Y-156682444D01*
X219419592Y-156745730D01*
X219585966Y-156855629D01*
X219622034Y-156879771D01*
X219911434Y-157057192D01*
X220169839Y-157179299D01*
X220331048Y-157234032D01*
X220732119Y-157334928D01*
X221094362Y-157396934D01*
X221408585Y-157419286D01*
X221665593Y-157401219D01*
X221821487Y-157358134D01*
X222044221Y-157230056D01*
X222270397Y-157036406D01*
X222482051Y-156793525D01*
X222556396Y-156689558D01*
X222670932Y-156525984D01*
X222791382Y-156363887D01*
X222892248Y-156237550D01*
X222894873Y-156234475D01*
X222964968Y-156157617D01*
X223032190Y-156104381D01*
X223110384Y-156073891D01*
X223213398Y-156065269D01*
X223355076Y-156077641D01*
X223549264Y-156110129D01*
X223809809Y-156161858D01*
X223864626Y-156173104D01*
X224296804Y-156250938D01*
X224670300Y-156295196D01*
X224979465Y-156305494D01*
X225218649Y-156281445D01*
X225270910Y-156268899D01*
X225466037Y-156178668D01*
X225666130Y-156023834D01*
X225760013Y-155922332D01*
X217021641Y-155922332D01*
X217005671Y-155975530D01*
X216941592Y-156009589D01*
X216933685Y-156012544D01*
X216862022Y-156023418D01*
X216758406Y-156011166D01*
X216615011Y-155973171D01*
X216424013Y-155906818D01*
X216177586Y-155809489D01*
X215867905Y-155678568D01*
X215648599Y-155582856D01*
X215252933Y-155406798D01*
X214820619Y-155211131D01*
X214368743Y-155003822D01*
X213914393Y-154792837D01*
X213474656Y-154586145D01*
X213066618Y-154391713D01*
X212707369Y-154217508D01*
X212496739Y-154113203D01*
X212196846Y-153955746D01*
X211970393Y-153818902D01*
X211810467Y-153696617D01*
X211710152Y-153582835D01*
X211662534Y-153471498D01*
X211657880Y-153378576D01*
X211673658Y-153294985D01*
X211716003Y-153250194D01*
X211809318Y-153224747D01*
X211861334Y-153216387D01*
X212158712Y-153197007D01*
X212496888Y-153217004D01*
X212843627Y-153272922D01*
X213145667Y-153354177D01*
X213376335Y-153441307D01*
X213657616Y-153563502D01*
X213968683Y-153710387D01*
X214288707Y-153871586D01*
X214596863Y-154036725D01*
X214872322Y-154195429D01*
X215021566Y-154288653D01*
X215213073Y-154417455D01*
X215432133Y-154571583D01*
X215668774Y-154743323D01*
X215913029Y-154924961D01*
X216154929Y-155108785D01*
X216384502Y-155287079D01*
X216591782Y-155452131D01*
X216766798Y-155596226D01*
X216899580Y-155711652D01*
X216980161Y-155790693D01*
X216999985Y-155819466D01*
X217021641Y-155922332D01*
X225760013Y-155922332D01*
X225853417Y-155821350D01*
X226010126Y-155588168D01*
X226036705Y-155538419D01*
X226111172Y-155384454D01*
X226150040Y-155272203D01*
X226160368Y-155170243D01*
X226149216Y-155047154D01*
X226148408Y-155041237D01*
X226119721Y-154901148D01*
X224482417Y-154901148D01*
X224471767Y-154986523D01*
X224412374Y-155032757D01*
X224298188Y-155040678D01*
X224123156Y-155011112D01*
X223881228Y-154944887D01*
X223680624Y-154881054D01*
X223258808Y-154729211D01*
X222893941Y-154568287D01*
X222558386Y-154385588D01*
X222433464Y-154308229D01*
X222298692Y-154225590D01*
X222118042Y-154119482D01*
X221920173Y-154006593D01*
X221809667Y-153945055D01*
X221564698Y-153803398D01*
X221376973Y-153674832D01*
X221225463Y-153540164D01*
X221089144Y-153380200D01*
X220946988Y-153175745D01*
X220918267Y-153131351D01*
X220821288Y-152984487D01*
X220737771Y-152865658D01*
X220680431Y-152792626D01*
X220666228Y-152779228D01*
X220611708Y-152713197D01*
X220543290Y-152583567D01*
X220467541Y-152408897D01*
X220391027Y-152207745D01*
X220320318Y-151998669D01*
X220261980Y-151800227D01*
X220222581Y-151630977D01*
X220208689Y-151509476D01*
X220209858Y-151489668D01*
X220260400Y-151373037D01*
X220368940Y-151304974D01*
X220519848Y-151292249D01*
X220619145Y-151312444D01*
X220778756Y-151380402D01*
X220989680Y-151501242D01*
X221243157Y-151668182D01*
X221530423Y-151874443D01*
X221842718Y-152113247D01*
X222171280Y-152377813D01*
X222507345Y-152661361D01*
X222842154Y-152957113D01*
X223166943Y-153258288D01*
X223301536Y-153387964D01*
X223666359Y-153754069D01*
X223962252Y-154073516D01*
X224190165Y-154347454D01*
X224351048Y-154577030D01*
X224445850Y-154763391D01*
X224450374Y-154775804D01*
X224482417Y-154901148D01*
X226119721Y-154901148D01*
X226110625Y-154856735D01*
X226043792Y-154664607D01*
X225941221Y-154450968D01*
X225796227Y-154201934D01*
X225602121Y-153903623D01*
X225596322Y-153895030D01*
X225258468Y-153420670D01*
X224906305Y-152981226D01*
X224516927Y-152549250D01*
X224223814Y-152250333D01*
X223658976Y-151722301D01*
X223110817Y-151274164D01*
X222579996Y-150906293D01*
X222067173Y-150619056D01*
X221573008Y-150412825D01*
X221098163Y-150287969D01*
X220645500Y-150244869D01*
X220456617Y-150246689D01*
X220313580Y-150259319D01*
X220183723Y-150289728D01*
X220034380Y-150344884D01*
X219892759Y-150405447D01*
X219644148Y-150526837D01*
X219390801Y-150672297D01*
X219155034Y-150827388D01*
X218959165Y-150977671D01*
X218851076Y-151079402D01*
X218797427Y-151130472D01*
X218745187Y-151154787D01*
X218683915Y-151146636D01*
X218603170Y-151100306D01*
X218492513Y-151010085D01*
X218341501Y-150870261D01*
X218175044Y-150709534D01*
X218047292Y-150583007D01*
X217906365Y-150438819D01*
X217748635Y-150272904D01*
X217570474Y-150081195D01*
X217368253Y-149859626D01*
X217138344Y-149604128D01*
X216877118Y-149310637D01*
X216580947Y-148975085D01*
X216246202Y-148593405D01*
X215869254Y-148161531D01*
X215446475Y-147675396D01*
X214974237Y-147130933D01*
X214716600Y-146833437D01*
X214385041Y-146451497D01*
X214051579Y-146069400D01*
X213723414Y-145695266D01*
X213407746Y-145337218D01*
X213111773Y-145003377D01*
X212842695Y-144701866D01*
X212607709Y-144440806D01*
X212414017Y-144228320D01*
X212277584Y-144081770D01*
X212057196Y-143846370D01*
X211830234Y-143599180D01*
X211612405Y-143357643D01*
X211419416Y-143139202D01*
X211266974Y-142961301D01*
X211246763Y-142937000D01*
X211055913Y-142697884D01*
X210863911Y-142442314D01*
X210677932Y-142181345D01*
X210505151Y-141926035D01*
X210352742Y-141687439D01*
X210227882Y-141476614D01*
X210137743Y-141304615D01*
X210089503Y-141182500D01*
X210083334Y-141144231D01*
X210045119Y-141086542D01*
X209936789Y-141058147D01*
X209767818Y-141059459D01*
G36*
X220322477Y-136615463D02*
G01*
X220062621Y-136689231D01*
X220038887Y-136698367D01*
X219885520Y-136763938D01*
X219755269Y-136828636D01*
X219676574Y-136878284D01*
X219568371Y-137022803D01*
X219501485Y-137227483D01*
X219481334Y-137447786D01*
X219515092Y-137676565D01*
X219616878Y-137947954D01*
X219787464Y-138263686D01*
X219963573Y-138534333D01*
X220258426Y-138965325D01*
X220567142Y-139424106D01*
X220882316Y-139899187D01*
X221196544Y-140379080D01*
X221502423Y-140852297D01*
X221792549Y-141307349D01*
X222059518Y-141732749D01*
X222295926Y-142117007D01*
X222494369Y-142448635D01*
X222569040Y-142577167D01*
X222671225Y-142748473D01*
X222810618Y-142972528D01*
X222976355Y-143232385D01*
X223157569Y-143511099D01*
X223343396Y-143791723D01*
X223437604Y-143931833D01*
X223630429Y-144219546D01*
X223832614Y-144525768D01*
X224031115Y-144830430D01*
X224212891Y-145113460D01*
X224364901Y-145354787D01*
X224414155Y-145434667D01*
X224550833Y-145657134D01*
X224719705Y-145930336D01*
X224907805Y-146233391D01*
X225102164Y-146545418D01*
X225289814Y-146845536D01*
X225347489Y-146937500D01*
X225562424Y-147281520D01*
X225735635Y-147562962D01*
X225871688Y-147790142D01*
X225975150Y-147971373D01*
X226050587Y-148114971D01*
X226102564Y-148229250D01*
X226135649Y-148322524D01*
X226154407Y-148403109D01*
X226155293Y-148408438D01*
X226162296Y-148544092D01*
X226128789Y-148653236D01*
X226046396Y-148741405D01*
X225906739Y-148814136D01*
X225701440Y-148876965D01*
X225422121Y-148935427D01*
X225334310Y-148950943D01*
X225013168Y-149014166D01*
X224770203Y-149081298D01*
X224598932Y-149155280D01*
X224492869Y-149239054D01*
X224445532Y-149335560D01*
X224442657Y-149355419D01*
X224450742Y-149462693D01*
X224511416Y-149552792D01*
X224558582Y-149595688D01*
X224725046Y-149696901D01*
X224962562Y-149785716D01*
X225258076Y-149859440D01*
X225598532Y-149915378D01*
X225970874Y-149950837D01*
X226339334Y-149963092D01*
X226632395Y-149968429D01*
X226856313Y-149984792D01*
X227026300Y-150015947D01*
X227157568Y-150065654D01*
X227265329Y-150137679D01*
X227342324Y-150211211D01*
X227407126Y-150291141D01*
X227513743Y-150436200D01*
X227658122Y-150640350D01*
X227836210Y-150897553D01*
X228043953Y-151201773D01*
X228277299Y-151546972D01*
X228532195Y-151927113D01*
X228804586Y-152336159D01*
X229090421Y-152768072D01*
X229385646Y-153216815D01*
X229686207Y-153676351D01*
X229988052Y-154140643D01*
X230189177Y-154451667D01*
X230412766Y-154797563D01*
X230639261Y-155146770D01*
X230860661Y-155487036D01*
X231068968Y-155806111D01*
X231256182Y-156091743D01*
X231414303Y-156331681D01*
X231535334Y-156513674D01*
X231543602Y-156526000D01*
X231716524Y-156787984D01*
X231907468Y-157084521D01*
X232096524Y-157384261D01*
X232263778Y-157655854D01*
X232309921Y-157732500D01*
X232445166Y-157954950D01*
X232580998Y-158171644D01*
X232704955Y-158363152D01*
X232804577Y-158510043D01*
X232839341Y-158558000D01*
X232936268Y-158691572D01*
X233061053Y-158870283D01*
X233195699Y-159068096D01*
X233292880Y-159214167D01*
X233393116Y-159364059D01*
X233532461Y-159568777D01*
X233701079Y-159814065D01*
X233889134Y-160085663D01*
X234086789Y-160369314D01*
X234271240Y-160632333D01*
X234469105Y-160916719D01*
X234665734Y-161205153D01*
X234851328Y-161482831D01*
X235016087Y-161734946D01*
X235150210Y-161946693D01*
X235237885Y-162092705D01*
X235444423Y-162444829D01*
X235642514Y-162766219D01*
X235825329Y-163046519D01*
X235986042Y-163275373D01*
X236117824Y-163442425D01*
X236154382Y-163482837D01*
X236315000Y-163627689D01*
X236472332Y-163726907D01*
X236609922Y-163771826D01*
X236689834Y-163764829D01*
X236826933Y-163682498D01*
X236899080Y-163558424D01*
X236911789Y-163381602D01*
X236906821Y-163331800D01*
X236875410Y-163155805D01*
X236827042Y-162961821D01*
X236800565Y-162876000D01*
X236740139Y-162721033D01*
X236646414Y-162509801D01*
X236528113Y-162259541D01*
X236393961Y-161987488D01*
X236252680Y-161710879D01*
X236112993Y-161446952D01*
X235983623Y-161212943D01*
X235873295Y-161026089D01*
X235831056Y-160960292D01*
X235707644Y-160767275D01*
X235573011Y-160543811D01*
X235454230Y-160334965D01*
X235443302Y-160314833D01*
X235176804Y-159836569D01*
X234932631Y-159430711D01*
X234712377Y-159099772D01*
X234517631Y-158846266D01*
X234501914Y-158827917D01*
X234252259Y-158510744D01*
X234062962Y-158200648D01*
X233919932Y-157877568D01*
X233850652Y-157725895D01*
X233749381Y-157544073D01*
X233636551Y-157368443D01*
X233622414Y-157348401D01*
X233549291Y-157243638D01*
X233436413Y-157078822D01*
X233290860Y-156864435D01*
X233119711Y-156610957D01*
X232930048Y-156328870D01*
X232728949Y-156028653D01*
X232566392Y-155785167D01*
X232362871Y-155480600D01*
X232166518Y-155188156D01*
X231984144Y-154917875D01*
X231822558Y-154679799D01*
X231688572Y-154483967D01*
X231588996Y-154340420D01*
X231537821Y-154268800D01*
X231423409Y-154114155D01*
X231284804Y-153927154D01*
X231148367Y-153743356D01*
X231122385Y-153708397D01*
X231035600Y-153580710D01*
X230918776Y-153392851D01*
X230780731Y-153159873D01*
X230630283Y-152896828D01*
X230476250Y-152618769D01*
X230386281Y-152451930D01*
X230226507Y-152154020D01*
X230059113Y-151844795D01*
X229894716Y-151543664D01*
X229743929Y-151270032D01*
X229617369Y-151043307D01*
X229571980Y-150963211D01*
X229461609Y-150763886D01*
X229368422Y-150584432D01*
X229300015Y-150440356D01*
X229263985Y-150347167D01*
X229260334Y-150327047D01*
X229286288Y-150208091D01*
X229367590Y-150106756D01*
X229509401Y-150021075D01*
X229716881Y-149949079D01*
X229995192Y-149888801D01*
X230349494Y-149838273D01*
X230615000Y-149810471D01*
X230838514Y-149794201D01*
X231135379Y-149779786D01*
X231496125Y-149767236D01*
X231911276Y-149756560D01*
X232371361Y-149747766D01*
X232866905Y-149740863D01*
X233388435Y-149735861D01*
X233926477Y-149732769D01*
X234471559Y-149731596D01*
X235014207Y-149732350D01*
X235544948Y-149735041D01*
X236054308Y-149739678D01*
X236532813Y-149746270D01*
X236970992Y-149754826D01*
X237359369Y-149765355D01*
X237688473Y-149777866D01*
X237948829Y-149792369D01*
X238081417Y-149803337D01*
X238349440Y-149831279D01*
X238550718Y-149855868D01*
X238702866Y-149880958D01*
X238823499Y-149910406D01*
X238930230Y-149948066D01*
X239040676Y-149997793D01*
X239097417Y-150025701D01*
X239267591Y-150125622D01*
X239490606Y-150280334D01*
X239760021Y-150484177D01*
X240069394Y-150731495D01*
X240412283Y-151016629D01*
X240782247Y-151333921D01*
X241172845Y-151677713D01*
X241577634Y-152042347D01*
X241990174Y-152422165D01*
X242404022Y-152811508D01*
X242812737Y-153204720D01*
X243209877Y-153596141D01*
X243526667Y-153916190D01*
X243909004Y-154302665D01*
X244256674Y-154644765D01*
X244566001Y-154939120D01*
X244833311Y-155182365D01*
X245054927Y-155371132D01*
X245227174Y-155502054D01*
X245320783Y-155559763D01*
X245570880Y-155645804D01*
X245858909Y-155675179D01*
X246161869Y-155650005D01*
X246456757Y-155572400D01*
X246720573Y-155444480D01*
X246744831Y-155428687D01*
X246991093Y-155248135D01*
X247168083Y-155078883D01*
X247287543Y-154907632D01*
X247357219Y-154735214D01*
X247399319Y-154552256D01*
X247394989Y-154421207D01*
X247337175Y-154319025D01*
X247218827Y-154222668D01*
X247195714Y-154207484D01*
X247104913Y-154139166D01*
X246961166Y-154018652D01*
X246772046Y-153852959D01*
X246545125Y-153649104D01*
X246287976Y-153414102D01*
X246008171Y-153154971D01*
X245713281Y-152878726D01*
X245410880Y-152592385D01*
X245108539Y-152302964D01*
X244813831Y-152017478D01*
X244534328Y-151742946D01*
X244510917Y-151719749D01*
X244255910Y-151465308D01*
X244057443Y-151261883D01*
X243910856Y-151101982D01*
X243811492Y-150978110D01*
X243754691Y-150882777D01*
X243735795Y-150808488D01*
X243750146Y-150747753D01*
X243793083Y-150693077D01*
X243844928Y-150648631D01*
X243940374Y-150593112D01*
X244085192Y-150530296D01*
X244236511Y-150477527D01*
X244454591Y-150390662D01*
X244668840Y-150269710D01*
X244867725Y-150125591D01*
X245039713Y-149969228D01*
X245173269Y-149811541D01*
X245256858Y-149663452D01*
X245278948Y-149535882D01*
X245270242Y-149498702D01*
X245186990Y-149377638D01*
X245033381Y-149250990D01*
X244822907Y-149124905D01*
X244569061Y-149005534D01*
X244285335Y-148899025D01*
X243985222Y-148811529D01*
X243682214Y-148749193D01*
X243599303Y-148737165D01*
X243387982Y-148708566D01*
X243139391Y-148673493D01*
X242899914Y-148638516D01*
X242849334Y-148630924D01*
X242666363Y-148604677D01*
X242424384Y-148571975D01*
X242148493Y-148536106D01*
X241863788Y-148500358D01*
X241706334Y-148481193D01*
X241286925Y-148423570D01*
X240936363Y-148358141D01*
X240638900Y-148280677D01*
X240378792Y-148186950D01*
X240140294Y-148072734D01*
X240097667Y-148049236D01*
X240006520Y-147993766D01*
X239855881Y-147897070D01*
X239812886Y-147868864D01*
X236106193Y-147868864D01*
X236084225Y-147953771D01*
X236060977Y-147992398D01*
X236037798Y-148025169D01*
X236009749Y-148052223D01*
X235968281Y-148074707D01*
X235904844Y-148093766D01*
X235810887Y-148110547D01*
X235677860Y-148126193D01*
X235497213Y-148141853D01*
X235260396Y-148158670D01*
X234958859Y-148177791D01*
X234584051Y-148200362D01*
X234449066Y-148208392D01*
X234109184Y-148229677D01*
X233757682Y-148253610D01*
X233415747Y-148278609D01*
X233104565Y-148303098D01*
X232845322Y-148325496D01*
X232734566Y-148336149D01*
X232534508Y-148353987D01*
X232266447Y-148374255D01*
X231946979Y-148395896D01*
X231592695Y-148417852D01*
X231220189Y-148439065D01*
X230846054Y-148458478D01*
X230721725Y-148464466D01*
X230386681Y-148480774D01*
X230079393Y-148496722D01*
X229809891Y-148511711D01*
X229588205Y-148525144D01*
X229424364Y-148536422D01*
X229328398Y-148544948D01*
X229307086Y-148548804D01*
X229245215Y-148564063D01*
X229112506Y-148565679D01*
X228921602Y-148554119D01*
X228685147Y-148529853D01*
X228637681Y-148524041D01*
X228417250Y-148491737D01*
X228236572Y-148449964D01*
X228082904Y-148389433D01*
X227943506Y-148300854D01*
X227805637Y-148174941D01*
X227656556Y-148002403D01*
X227483523Y-147773954D01*
X227345979Y-147582357D01*
X227127077Y-147268833D01*
X226923770Y-146965736D01*
X226729564Y-146661854D01*
X226537964Y-146345979D01*
X226342476Y-146006898D01*
X226136605Y-145633402D01*
X225913858Y-145214278D01*
X225667741Y-144738317D01*
X225448658Y-144307118D01*
X225292336Y-144000857D01*
X225132191Y-143692949D01*
X224976755Y-143399378D01*
X224834560Y-143136129D01*
X224714137Y-142919187D01*
X224635258Y-142783118D01*
X224527181Y-142600001D01*
X224396838Y-142374287D01*
X224249744Y-142115977D01*
X224091412Y-141835073D01*
X223927358Y-141541575D01*
X223763096Y-141245482D01*
X223604141Y-140956796D01*
X223456006Y-140685517D01*
X223324207Y-140441646D01*
X223214258Y-140235183D01*
X223131673Y-140076128D01*
X223081967Y-139974482D01*
X223070073Y-139944655D01*
X223075833Y-139837445D01*
X223130049Y-139738881D01*
X223211826Y-139681665D01*
X223240818Y-139677430D01*
X223306339Y-139697371D01*
X223425726Y-139751059D01*
X223579803Y-139829425D01*
X223693500Y-139891560D01*
X223902708Y-140004445D01*
X224131679Y-140120695D01*
X224341405Y-140220713D01*
X224406963Y-140249964D01*
X224756951Y-140418267D01*
X225167645Y-140645575D01*
X225639036Y-140931882D01*
X226171116Y-141277184D01*
X226347979Y-141395932D01*
X226742877Y-141659156D01*
X227082263Y-141876559D01*
X227377159Y-142054680D01*
X227638589Y-142200059D01*
X227877575Y-142319235D01*
X227990334Y-142370270D01*
X228154588Y-142447680D01*
X228340559Y-142546767D01*
X228558396Y-142673566D01*
X228818247Y-142834111D01*
X229130259Y-143034436D01*
X229355594Y-143182080D01*
X229573166Y-143319911D01*
X229833437Y-143476305D01*
X230103433Y-143631855D01*
X230345732Y-143764798D01*
X230563111Y-143885956D01*
X230770734Y-144012103D01*
X230947809Y-144129941D01*
X231073545Y-144226170D01*
X231089506Y-144240531D01*
X231209169Y-144337710D01*
X231379797Y-144457327D01*
X231577085Y-144583051D01*
X231746117Y-144681704D01*
X231928426Y-144789185D01*
X232158368Y-144934009D01*
X232415706Y-145102901D01*
X232680201Y-145282590D01*
X232922051Y-145452919D01*
X233172490Y-145632250D01*
X233432163Y-145816897D01*
X233681438Y-145992990D01*
X233900683Y-146146660D01*
X234065167Y-146260544D01*
X234484695Y-146548276D01*
X234839790Y-146792618D01*
X235136053Y-146997758D01*
X235379087Y-147167883D01*
X235574492Y-147307181D01*
X235727870Y-147419841D01*
X235844821Y-147510051D01*
X235930948Y-147581998D01*
X235991850Y-147639870D01*
X236033131Y-147687857D01*
X236060390Y-147730145D01*
X236076619Y-147764493D01*
X236106193Y-147868864D01*
X239812886Y-147868864D01*
X239655993Y-147765940D01*
X239417096Y-147607170D01*
X239149434Y-147427551D01*
X238863248Y-147233875D01*
X238679500Y-147108692D01*
X238104201Y-146718537D01*
X237520895Y-146328285D01*
X236942634Y-145946446D01*
X236382467Y-145581529D01*
X235853447Y-145242045D01*
X235368623Y-144936504D01*
X234996500Y-144707086D01*
X234357894Y-144318470D01*
X233786181Y-143970722D01*
X233275948Y-143660662D01*
X232821782Y-143385111D01*
X232418270Y-143140890D01*
X232059998Y-142924818D01*
X231741553Y-142733717D01*
X231457522Y-142564408D01*
X231202491Y-142413710D01*
X230971047Y-142278444D01*
X230757777Y-142155431D01*
X230557267Y-142041491D01*
X230364104Y-141933444D01*
X230172876Y-141828113D01*
X229978168Y-141722315D01*
X229774567Y-141612874D01*
X229556660Y-141496608D01*
X229319034Y-141370338D01*
X229281500Y-141350416D01*
X228673051Y-141026356D01*
X228130236Y-140734904D01*
X227654732Y-140476981D01*
X227248214Y-140253508D01*
X226912359Y-140065406D01*
X226648843Y-139913596D01*
X226466334Y-139803392D01*
X226268024Y-139687628D01*
X226036485Y-139565094D01*
X225817367Y-139459795D01*
X225789000Y-139447235D01*
X225590274Y-139356499D01*
X225354607Y-139242940D01*
X225119173Y-139124674D01*
X225005834Y-139065556D01*
X224656416Y-138891341D01*
X224255199Y-138709911D01*
X223832589Y-138534318D01*
X223418993Y-138377616D01*
X223330878Y-138346502D01*
X222997920Y-138209317D01*
X222666003Y-138027279D01*
X222323354Y-137792585D01*
X221958201Y-137497435D01*
X221696898Y-137263643D01*
X221505241Y-137089094D01*
X221325629Y-136930384D01*
X221170834Y-136798426D01*
X221053626Y-136704135D01*
X220991891Y-136661083D01*
X220809557Y-136600511D01*
X220578937Y-136585596D01*
X220322477Y-136615463D01*
G37*
X220322477Y-136615463D02*
X220062621Y-136689231D01*
X220038887Y-136698367D01*
X219885520Y-136763938D01*
X219755269Y-136828636D01*
X219676574Y-136878284D01*
X219568371Y-137022803D01*
X219501485Y-137227483D01*
X219481334Y-137447786D01*
X219515092Y-137676565D01*
X219616878Y-137947954D01*
X219787464Y-138263686D01*
X219963573Y-138534333D01*
X220258426Y-138965325D01*
X220567142Y-139424106D01*
X220882316Y-139899187D01*
X221196544Y-140379080D01*
X221502423Y-140852297D01*
X221792549Y-141307349D01*
X222059518Y-141732749D01*
X222295926Y-142117007D01*
X222494369Y-142448635D01*
X222569040Y-142577167D01*
X222671225Y-142748473D01*
X222810618Y-142972528D01*
X222976355Y-143232385D01*
X223157569Y-143511099D01*
X223343396Y-143791723D01*
X223437604Y-143931833D01*
X223630429Y-144219546D01*
X223832614Y-144525768D01*
X224031115Y-144830430D01*
X224212891Y-145113460D01*
X224364901Y-145354787D01*
X224414155Y-145434667D01*
X224550833Y-145657134D01*
X224719705Y-145930336D01*
X224907805Y-146233391D01*
X225102164Y-146545418D01*
X225289814Y-146845536D01*
X225347489Y-146937500D01*
X225562424Y-147281520D01*
X225735635Y-147562962D01*
X225871688Y-147790142D01*
X225975150Y-147971373D01*
X226050587Y-148114971D01*
X226102564Y-148229250D01*
X226135649Y-148322524D01*
X226154407Y-148403109D01*
X226155293Y-148408438D01*
X226162296Y-148544092D01*
X226128789Y-148653236D01*
X226046396Y-148741405D01*
X225906739Y-148814136D01*
X225701440Y-148876965D01*
X225422121Y-148935427D01*
X225334310Y-148950943D01*
X225013168Y-149014166D01*
X224770203Y-149081298D01*
X224598932Y-149155280D01*
X224492869Y-149239054D01*
X224445532Y-149335560D01*
X224442657Y-149355419D01*
X224450742Y-149462693D01*
X224511416Y-149552792D01*
X224558582Y-149595688D01*
X224725046Y-149696901D01*
X224962562Y-149785716D01*
X225258076Y-149859440D01*
X225598532Y-149915378D01*
X225970874Y-149950837D01*
X226339334Y-149963092D01*
X226632395Y-149968429D01*
X226856313Y-149984792D01*
X227026300Y-150015947D01*
X227157568Y-150065654D01*
X227265329Y-150137679D01*
X227342324Y-150211211D01*
X227407126Y-150291141D01*
X227513743Y-150436200D01*
X227658122Y-150640350D01*
X227836210Y-150897553D01*
X228043953Y-151201773D01*
X228277299Y-151546972D01*
X228532195Y-151927113D01*
X228804586Y-152336159D01*
X229090421Y-152768072D01*
X229385646Y-153216815D01*
X229686207Y-153676351D01*
X229988052Y-154140643D01*
X230189177Y-154451667D01*
X230412766Y-154797563D01*
X230639261Y-155146770D01*
X230860661Y-155487036D01*
X231068968Y-155806111D01*
X231256182Y-156091743D01*
X231414303Y-156331681D01*
X231535334Y-156513674D01*
X231543602Y-156526000D01*
X231716524Y-156787984D01*
X231907468Y-157084521D01*
X232096524Y-157384261D01*
X232263778Y-157655854D01*
X232309921Y-157732500D01*
X232445166Y-157954950D01*
X232580998Y-158171644D01*
X232704955Y-158363152D01*
X232804577Y-158510043D01*
X232839341Y-158558000D01*
X232936268Y-158691572D01*
X233061053Y-158870283D01*
X233195699Y-159068096D01*
X233292880Y-159214167D01*
X233393116Y-159364059D01*
X233532461Y-159568777D01*
X233701079Y-159814065D01*
X233889134Y-160085663D01*
X234086789Y-160369314D01*
X234271240Y-160632333D01*
X234469105Y-160916719D01*
X234665734Y-161205153D01*
X234851328Y-161482831D01*
X235016087Y-161734946D01*
X235150210Y-161946693D01*
X235237885Y-162092705D01*
X235444423Y-162444829D01*
X235642514Y-162766219D01*
X235825329Y-163046519D01*
X235986042Y-163275373D01*
X236117824Y-163442425D01*
X236154382Y-163482837D01*
X236315000Y-163627689D01*
X236472332Y-163726907D01*
X236609922Y-163771826D01*
X236689834Y-163764829D01*
X236826933Y-163682498D01*
X236899080Y-163558424D01*
X236911789Y-163381602D01*
X236906821Y-163331800D01*
X236875410Y-163155805D01*
X236827042Y-162961821D01*
X236800565Y-162876000D01*
X236740139Y-162721033D01*
X236646414Y-162509801D01*
X236528113Y-162259541D01*
X236393961Y-161987488D01*
X236252680Y-161710879D01*
X236112993Y-161446952D01*
X235983623Y-161212943D01*
X235873295Y-161026089D01*
X235831056Y-160960292D01*
X235707644Y-160767275D01*
X235573011Y-160543811D01*
X235454230Y-160334965D01*
X235443302Y-160314833D01*
X235176804Y-159836569D01*
X234932631Y-159430711D01*
X234712377Y-159099772D01*
X234517631Y-158846266D01*
X234501914Y-158827917D01*
X234252259Y-158510744D01*
X234062962Y-158200648D01*
X233919932Y-157877568D01*
X233850652Y-157725895D01*
X233749381Y-157544073D01*
X233636551Y-157368443D01*
X233622414Y-157348401D01*
X233549291Y-157243638D01*
X233436413Y-157078822D01*
X233290860Y-156864435D01*
X233119711Y-156610957D01*
X232930048Y-156328870D01*
X232728949Y-156028653D01*
X232566392Y-155785167D01*
X232362871Y-155480600D01*
X232166518Y-155188156D01*
X231984144Y-154917875D01*
X231822558Y-154679799D01*
X231688572Y-154483967D01*
X231588996Y-154340420D01*
X231537821Y-154268800D01*
X231423409Y-154114155D01*
X231284804Y-153927154D01*
X231148367Y-153743356D01*
X231122385Y-153708397D01*
X231035600Y-153580710D01*
X230918776Y-153392851D01*
X230780731Y-153159873D01*
X230630283Y-152896828D01*
X230476250Y-152618769D01*
X230386281Y-152451930D01*
X230226507Y-152154020D01*
X230059113Y-151844795D01*
X229894716Y-151543664D01*
X229743929Y-151270032D01*
X229617369Y-151043307D01*
X229571980Y-150963211D01*
X229461609Y-150763886D01*
X229368422Y-150584432D01*
X229300015Y-150440356D01*
X229263985Y-150347167D01*
X229260334Y-150327047D01*
X229286288Y-150208091D01*
X229367590Y-150106756D01*
X229509401Y-150021075D01*
X229716881Y-149949079D01*
X229995192Y-149888801D01*
X230349494Y-149838273D01*
X230615000Y-149810471D01*
X230838514Y-149794201D01*
X231135379Y-149779786D01*
X231496125Y-149767236D01*
X231911276Y-149756560D01*
X232371361Y-149747766D01*
X232866905Y-149740863D01*
X233388435Y-149735861D01*
X233926477Y-149732769D01*
X234471559Y-149731596D01*
X235014207Y-149732350D01*
X235544948Y-149735041D01*
X236054308Y-149739678D01*
X236532813Y-149746270D01*
X236970992Y-149754826D01*
X237359369Y-149765355D01*
X237688473Y-149777866D01*
X237948829Y-149792369D01*
X238081417Y-149803337D01*
X238349440Y-149831279D01*
X238550718Y-149855868D01*
X238702866Y-149880958D01*
X238823499Y-149910406D01*
X238930230Y-149948066D01*
X239040676Y-149997793D01*
X239097417Y-150025701D01*
X239267591Y-150125622D01*
X239490606Y-150280334D01*
X239760021Y-150484177D01*
X240069394Y-150731495D01*
X240412283Y-151016629D01*
X240782247Y-151333921D01*
X241172845Y-151677713D01*
X241577634Y-152042347D01*
X241990174Y-152422165D01*
X242404022Y-152811508D01*
X242812737Y-153204720D01*
X243209877Y-153596141D01*
X243526667Y-153916190D01*
X243909004Y-154302665D01*
X244256674Y-154644765D01*
X244566001Y-154939120D01*
X244833311Y-155182365D01*
X245054927Y-155371132D01*
X245227174Y-155502054D01*
X245320783Y-155559763D01*
X245570880Y-155645804D01*
X245858909Y-155675179D01*
X246161869Y-155650005D01*
X246456757Y-155572400D01*
X246720573Y-155444480D01*
X246744831Y-155428687D01*
X246991093Y-155248135D01*
X247168083Y-155078883D01*
X247287543Y-154907632D01*
X247357219Y-154735214D01*
X247399319Y-154552256D01*
X247394989Y-154421207D01*
X247337175Y-154319025D01*
X247218827Y-154222668D01*
X247195714Y-154207484D01*
X247104913Y-154139166D01*
X246961166Y-154018652D01*
X246772046Y-153852959D01*
X246545125Y-153649104D01*
X246287976Y-153414102D01*
X246008171Y-153154971D01*
X245713281Y-152878726D01*
X245410880Y-152592385D01*
X245108539Y-152302964D01*
X244813831Y-152017478D01*
X244534328Y-151742946D01*
X244510917Y-151719749D01*
X244255910Y-151465308D01*
X244057443Y-151261883D01*
X243910856Y-151101982D01*
X243811492Y-150978110D01*
X243754691Y-150882777D01*
X243735795Y-150808488D01*
X243750146Y-150747753D01*
X243793083Y-150693077D01*
X243844928Y-150648631D01*
X243940374Y-150593112D01*
X244085192Y-150530296D01*
X244236511Y-150477527D01*
X244454591Y-150390662D01*
X244668840Y-150269710D01*
X244867725Y-150125591D01*
X245039713Y-149969228D01*
X245173269Y-149811541D01*
X245256858Y-149663452D01*
X245278948Y-149535882D01*
X245270242Y-149498702D01*
X245186990Y-149377638D01*
X245033381Y-149250990D01*
X244822907Y-149124905D01*
X244569061Y-149005534D01*
X244285335Y-148899025D01*
X243985222Y-148811529D01*
X243682214Y-148749193D01*
X243599303Y-148737165D01*
X243387982Y-148708566D01*
X243139391Y-148673493D01*
X242899914Y-148638516D01*
X242849334Y-148630924D01*
X242666363Y-148604677D01*
X242424384Y-148571975D01*
X242148493Y-148536106D01*
X241863788Y-148500358D01*
X241706334Y-148481193D01*
X241286925Y-148423570D01*
X240936363Y-148358141D01*
X240638900Y-148280677D01*
X240378792Y-148186950D01*
X240140294Y-148072734D01*
X240097667Y-148049236D01*
X240006520Y-147993766D01*
X239855881Y-147897070D01*
X239812886Y-147868864D01*
X236106193Y-147868864D01*
X236084225Y-147953771D01*
X236060977Y-147992398D01*
X236037798Y-148025169D01*
X236009749Y-148052223D01*
X235968281Y-148074707D01*
X235904844Y-148093766D01*
X235810887Y-148110547D01*
X235677860Y-148126193D01*
X235497213Y-148141853D01*
X235260396Y-148158670D01*
X234958859Y-148177791D01*
X234584051Y-148200362D01*
X234449066Y-148208392D01*
X234109184Y-148229677D01*
X233757682Y-148253610D01*
X233415747Y-148278609D01*
X233104565Y-148303098D01*
X232845322Y-148325496D01*
X232734566Y-148336149D01*
X232534508Y-148353987D01*
X232266447Y-148374255D01*
X231946979Y-148395896D01*
X231592695Y-148417852D01*
X231220189Y-148439065D01*
X230846054Y-148458478D01*
X230721725Y-148464466D01*
X230386681Y-148480774D01*
X230079393Y-148496722D01*
X229809891Y-148511711D01*
X229588205Y-148525144D01*
X229424364Y-148536422D01*
X229328398Y-148544948D01*
X229307086Y-148548804D01*
X229245215Y-148564063D01*
X229112506Y-148565679D01*
X228921602Y-148554119D01*
X228685147Y-148529853D01*
X228637681Y-148524041D01*
X228417250Y-148491737D01*
X228236572Y-148449964D01*
X228082904Y-148389433D01*
X227943506Y-148300854D01*
X227805637Y-148174941D01*
X227656556Y-148002403D01*
X227483523Y-147773954D01*
X227345979Y-147582357D01*
X227127077Y-147268833D01*
X226923770Y-146965736D01*
X226729564Y-146661854D01*
X226537964Y-146345979D01*
X226342476Y-146006898D01*
X226136605Y-145633402D01*
X225913858Y-145214278D01*
X225667741Y-144738317D01*
X225448658Y-144307118D01*
X225292336Y-144000857D01*
X225132191Y-143692949D01*
X224976755Y-143399378D01*
X224834560Y-143136129D01*
X224714137Y-142919187D01*
X224635258Y-142783118D01*
X224527181Y-142600001D01*
X224396838Y-142374287D01*
X224249744Y-142115977D01*
X224091412Y-141835073D01*
X223927358Y-141541575D01*
X223763096Y-141245482D01*
X223604141Y-140956796D01*
X223456006Y-140685517D01*
X223324207Y-140441646D01*
X223214258Y-140235183D01*
X223131673Y-140076128D01*
X223081967Y-139974482D01*
X223070073Y-139944655D01*
X223075833Y-139837445D01*
X223130049Y-139738881D01*
X223211826Y-139681665D01*
X223240818Y-139677430D01*
X223306339Y-139697371D01*
X223425726Y-139751059D01*
X223579803Y-139829425D01*
X223693500Y-139891560D01*
X223902708Y-140004445D01*
X224131679Y-140120695D01*
X224341405Y-140220713D01*
X224406963Y-140249964D01*
X224756951Y-140418267D01*
X225167645Y-140645575D01*
X225639036Y-140931882D01*
X226171116Y-141277184D01*
X226347979Y-141395932D01*
X226742877Y-141659156D01*
X227082263Y-141876559D01*
X227377159Y-142054680D01*
X227638589Y-142200059D01*
X227877575Y-142319235D01*
X227990334Y-142370270D01*
X228154588Y-142447680D01*
X228340559Y-142546767D01*
X228558396Y-142673566D01*
X228818247Y-142834111D01*
X229130259Y-143034436D01*
X229355594Y-143182080D01*
X229573166Y-143319911D01*
X229833437Y-143476305D01*
X230103433Y-143631855D01*
X230345732Y-143764798D01*
X230563111Y-143885956D01*
X230770734Y-144012103D01*
X230947809Y-144129941D01*
X231073545Y-144226170D01*
X231089506Y-144240531D01*
X231209169Y-144337710D01*
X231379797Y-144457327D01*
X231577085Y-144583051D01*
X231746117Y-144681704D01*
X231928426Y-144789185D01*
X232158368Y-144934009D01*
X232415706Y-145102901D01*
X232680201Y-145282590D01*
X232922051Y-145452919D01*
X233172490Y-145632250D01*
X233432163Y-145816897D01*
X233681438Y-145992990D01*
X233900683Y-146146660D01*
X234065167Y-146260544D01*
X234484695Y-146548276D01*
X234839790Y-146792618D01*
X235136053Y-146997758D01*
X235379087Y-147167883D01*
X235574492Y-147307181D01*
X235727870Y-147419841D01*
X235844821Y-147510051D01*
X235930948Y-147581998D01*
X235991850Y-147639870D01*
X236033131Y-147687857D01*
X236060390Y-147730145D01*
X236076619Y-147764493D01*
X236106193Y-147868864D01*
X239812886Y-147868864D01*
X239655993Y-147765940D01*
X239417096Y-147607170D01*
X239149434Y-147427551D01*
X238863248Y-147233875D01*
X238679500Y-147108692D01*
X238104201Y-146718537D01*
X237520895Y-146328285D01*
X236942634Y-145946446D01*
X236382467Y-145581529D01*
X235853447Y-145242045D01*
X235368623Y-144936504D01*
X234996500Y-144707086D01*
X234357894Y-144318470D01*
X233786181Y-143970722D01*
X233275948Y-143660662D01*
X232821782Y-143385111D01*
X232418270Y-143140890D01*
X232059998Y-142924818D01*
X231741553Y-142733717D01*
X231457522Y-142564408D01*
X231202491Y-142413710D01*
X230971047Y-142278444D01*
X230757777Y-142155431D01*
X230557267Y-142041491D01*
X230364104Y-141933444D01*
X230172876Y-141828113D01*
X229978168Y-141722315D01*
X229774567Y-141612874D01*
X229556660Y-141496608D01*
X229319034Y-141370338D01*
X229281500Y-141350416D01*
X228673051Y-141026356D01*
X228130236Y-140734904D01*
X227654732Y-140476981D01*
X227248214Y-140253508D01*
X226912359Y-140065406D01*
X226648843Y-139913596D01*
X226466334Y-139803392D01*
X226268024Y-139687628D01*
X226036485Y-139565094D01*
X225817367Y-139459795D01*
X225789000Y-139447235D01*
X225590274Y-139356499D01*
X225354607Y-139242940D01*
X225119173Y-139124674D01*
X225005834Y-139065556D01*
X224656416Y-138891341D01*
X224255199Y-138709911D01*
X223832589Y-138534318D01*
X223418993Y-138377616D01*
X223330878Y-138346502D01*
X222997920Y-138209317D01*
X222666003Y-138027279D01*
X222323354Y-137792585D01*
X221958201Y-137497435D01*
X221696898Y-137263643D01*
X221505241Y-137089094D01*
X221325629Y-136930384D01*
X221170834Y-136798426D01*
X221053626Y-136704135D01*
X220991891Y-136661083D01*
X220809557Y-136600511D01*
X220578937Y-136585596D01*
X220322477Y-136615463D01*
M02*
