  0
SECTION
  2
HEADER
  9
$ANGBASE
  50
0.0
  9
$ANGDIR
  70
1
  9
$MEASUREMENT
  70
1
  0
ENDSEC
  0
SECTION
  2
TABLES
  0
TABLE
  2
LTYPE
  70
4
  0
LTYPE
  5
40F
  2
CONTINUOUS
  70
0
  3
Solid line
  72
65
  73
0
  40
0.0
  0
LTYPE
  5
410
  2
DASHDOT
 70
0
  3
Dash Dot ____ _ ____ _
 72
65
 73
4
 40
2.0
 49
1.25
 49
-0.25
 49
0.25
 49
-0.25
  0
LTYPE
  5
411
  2
DASHED
 70
0
  3
Dashed __ __ __ __ __
 72
65
 73
2
 40
0.75
 49
0.5
 49
-0.25
  0
LTYPE
  5
43B
  2
DOTTED
 70
0
  3
Dotted .  .  .  .
 72
65
 73
2
 40
0.2
 49
0.0
 49
-0.2
  0
ENDTAB
  0
TABLE
  2
STYLE
  70
4
  0
STYLE
  2
KICAD
  70
0
  40
0
  41
1
  42
1
  50
0
  71
0
  3
isocp.shx
  0
STYLE
  2
KICADB
  70
0
  40
0
  41
1
  42
1
  50
0
  71
0
  3
isocp.shx
  0
STYLE
  2
KICADI
  70
0
  40
0
  41
1
  42
1
  50
15
  71
0
  3
isocp.shx
  0
STYLE
  2
KICADBI
  70
0
  40
0
  41
1
  42
1
  50
15
  71
0
  3
isocp.shx
  0
ENDTAB
  0
TABLE
  2
LAYER
  70
1
  0
LAYER
  2
BLACK
  70
0
  62
7
  6
CONTINUOUS
  0
ENDTAB
  0
ENDSEC
  0
SECTION
  2
ENTITIES
0
CIRCLE
8
BLACK
10
40.167
20
-196.305
40
1.15
0
CIRCLE
8
BLACK
10
376.077
20
-116.065
40
1.15
0
CIRCLE
8
BLACK
10
212.227
20
-116.085
40
1.15
0
CIRCLE
8
BLACK
10
48.377
20
-116.095
40
1.15
0
CIRCLE
8
BLACK
10
41.267
20
-63.405
40
1.15109
0
CIRCLE
8
BLACK
10
377.867
20
-62.705
40
1.15109
0
CIRCLE
8
BLACK
10
379.667
20
-193.395
40
1.15109
0
CIRCLE
8
BLACK
10
325.267
20
-209.915
40
1.15109
0
CIRCLE
8
BLACK
10
209.227
20
-210.18
40
1.15109
0
LINE
8
BLACK
6
CONTINUOUS
10
36.767
20
-212.785
11
36.767
21
-62.685
0
LINE
8
BLACK
6
CONTINUOUS
10
39.767
20
-59.685
11
380.767
21
-59.705
0
LINE
8
BLACK
6
CONTINUOUS
10
380.767
20
-215.785
11
39.767
21
-215.785
0
ARC
8
BLACK
10
380.767
20
-212.785
40
3
50
-90
51
-0
0
ARC
8
BLACK
10
39.767
20
-62.685
40
3
50
90
51
180
0
ARC
8
BLACK
10
380.767
20
-62.705
40
3
50
-0
51
90
0
ARC
8
BLACK
10
39.767
20
-212.785
40
3
50
180
51
270
0
LINE
8
BLACK
6
CONTINUOUS
10
383.767
20
-62.705
11
383.767
21
-212.785
0
LINE
8
BLACK
6
CONTINUOUS
10
39.7197
20
-108.791
11
39.7197
21
-94.792
0
LINE
8
BLACK
6
CONTINUOUS
10
53.7192
20
-108.791
11
39.7197
21
-108.791
0
LINE
8
BLACK
6
CONTINUOUS
10
53.7192
20
-94.792
11
53.7192
21
-108.791
0
LINE
8
BLACK
6
CONTINUOUS
10
39.7197
20
-94.792
11
53.7192
21
-94.792
0
LINE
8
BLACK
6
CONTINUOUS
10
77.8197
20
-108.791
11
77.8197
21
-94.792
0
LINE
8
BLACK
6
CONTINUOUS
10
91.819
20
-108.791
11
77.8197
21
-108.791
0
LINE
8
BLACK
6
CONTINUOUS
10
91.819
20
-94.792
11
91.819
21
-108.791
0
LINE
8
BLACK
6
CONTINUOUS
10
77.8197
20
-94.792
11
91.819
21
-94.792
0
LINE
8
BLACK
6
CONTINUOUS
10
96.8697
20
-108.791
11
96.8697
21
-94.792
0
LINE
8
BLACK
6
CONTINUOUS
10
110.869
20
-108.791
11
96.8697
21
-108.791
0
LINE
8
BLACK
6
CONTINUOUS
10
110.869
20
-94.792
11
110.869
21
-108.791
0
LINE
8
BLACK
6
CONTINUOUS
10
96.8697
20
-94.792
11
110.869
21
-94.792
0
LINE
8
BLACK
6
CONTINUOUS
10
115.92
20
-108.791
11
115.92
21
-94.792
0
LINE
8
BLACK
6
CONTINUOUS
10
129.919
20
-108.791
11
115.92
21
-108.791
0
LINE
8
BLACK
6
CONTINUOUS
10
129.919
20
-94.792
11
129.919
21
-108.791
0
LINE
8
BLACK
6
CONTINUOUS
10
115.92
20
-94.792
11
129.919
21
-94.792
0
LINE
8
BLACK
6
CONTINUOUS
10
134.968
20
-108.791
11
134.968
21
-94.792
0
LINE
8
BLACK
6
CONTINUOUS
10
148.969
20
-108.791
11
134.968
21
-108.791
0
LINE
8
BLACK
6
CONTINUOUS
10
148.969
20
-94.792
11
148.969
21
-108.791
0
LINE
8
BLACK
6
CONTINUOUS
10
134.968
20
-94.792
11
148.969
21
-94.792
0
LINE
8
BLACK
6
CONTINUOUS
10
163.545
20
-108.791
11
163.545
21
-94.792
0
LINE
8
BLACK
6
CONTINUOUS
10
177.544
20
-108.791
11
163.545
21
-108.791
0
LINE
8
BLACK
6
CONTINUOUS
10
177.544
20
-94.792
11
177.544
21
-108.791
0
LINE
8
BLACK
6
CONTINUOUS
10
163.545
20
-94.792
11
177.544
21
-94.792
0
LINE
8
BLACK
6
CONTINUOUS
10
182.595
20
-108.791
11
182.595
21
-94.792
0
LINE
8
BLACK
6
CONTINUOUS
10
196.594
20
-108.791
11
182.595
21
-108.791
0
LINE
8
BLACK
6
CONTINUOUS
10
196.594
20
-94.792
11
196.594
21
-108.791
0
LINE
8
BLACK
6
CONTINUOUS
10
182.595
20
-94.792
11
196.594
21
-94.792
0
LINE
8
BLACK
6
CONTINUOUS
10
201.645
20
-108.791
11
201.645
21
-94.792
0
LINE
8
BLACK
6
CONTINUOUS
10
215.644
20
-108.791
11
201.645
21
-108.791
0
LINE
8
BLACK
6
CONTINUOUS
10
215.644
20
-94.792
11
215.644
21
-108.791
0
LINE
8
BLACK
6
CONTINUOUS
10
201.645
20
-94.792
11
215.644
21
-94.792
0
LINE
8
BLACK
6
CONTINUOUS
10
220.695
20
-108.791
11
220.695
21
-94.792
0
LINE
8
BLACK
6
CONTINUOUS
10
234.694
20
-108.791
11
220.695
21
-108.791
0
LINE
8
BLACK
6
CONTINUOUS
10
234.694
20
-94.792
11
234.694
21
-108.791
0
LINE
8
BLACK
6
CONTINUOUS
10
220.695
20
-94.792
11
234.694
21
-94.792
0
LINE
8
BLACK
6
CONTINUOUS
10
249.27
20
-108.791
11
249.27
21
-94.792
0
LINE
8
BLACK
6
CONTINUOUS
10
263.269
20
-108.791
11
249.27
21
-108.791
0
LINE
8
BLACK
6
CONTINUOUS
10
263.269
20
-94.792
11
263.269
21
-108.791
0
LINE
8
BLACK
6
CONTINUOUS
10
249.27
20
-94.792
11
263.269
21
-94.792
0
LINE
8
BLACK
6
CONTINUOUS
10
268.32
20
-108.791
11
268.32
21
-94.792
0
LINE
8
BLACK
6
CONTINUOUS
10
282.319
20
-108.791
11
268.32
21
-108.791
0
LINE
8
BLACK
6
CONTINUOUS
10
282.319
20
-94.792
11
282.319
21
-108.791
0
LINE
8
BLACK
6
CONTINUOUS
10
268.32
20
-94.792
11
282.319
21
-94.792
0
LINE
8
BLACK
6
CONTINUOUS
10
287.37
20
-108.791
11
287.37
21
-94.792
0
LINE
8
BLACK
6
CONTINUOUS
10
301.369
20
-108.791
11
287.37
21
-108.791
0
LINE
8
BLACK
6
CONTINUOUS
10
301.369
20
-94.792
11
301.369
21
-108.791
0
LINE
8
BLACK
6
CONTINUOUS
10
287.37
20
-94.792
11
301.369
21
-94.792
0
LINE
8
BLACK
6
CONTINUOUS
10
306.42
20
-108.791
11
306.42
21
-94.792
0
LINE
8
BLACK
6
CONTINUOUS
10
320.419
20
-108.791
11
306.42
21
-108.791
0
LINE
8
BLACK
6
CONTINUOUS
10
320.419
20
-94.792
11
320.419
21
-108.791
0
LINE
8
BLACK
6
CONTINUOUS
10
306.42
20
-94.792
11
320.419
21
-94.792
0
LINE
8
BLACK
6
CONTINUOUS
10
330.232
20
-108.791
11
330.232
21
-94.792
0
LINE
8
BLACK
6
CONTINUOUS
10
344.232
20
-108.791
11
330.232
21
-108.791
0
LINE
8
BLACK
6
CONTINUOUS
10
344.232
20
-94.792
11
344.232
21
-108.791
0
LINE
8
BLACK
6
CONTINUOUS
10
330.232
20
-94.792
11
344.232
21
-94.792
0
LINE
8
BLACK
6
CONTINUOUS
10
349.282
20
-108.791
11
349.282
21
-94.792
0
LINE
8
BLACK
6
CONTINUOUS
10
363.282
20
-108.791
11
349.282
21
-108.791
0
LINE
8
BLACK
6
CONTINUOUS
10
363.282
20
-94.792
11
363.282
21
-108.791
0
LINE
8
BLACK
6
CONTINUOUS
10
349.282
20
-94.792
11
363.282
21
-94.792
0
LINE
8
BLACK
6
CONTINUOUS
10
368.332
20
-108.791
11
368.332
21
-94.792
0
LINE
8
BLACK
6
CONTINUOUS
10
382.332
20
-108.791
11
368.332
21
-108.791
0
LINE
8
BLACK
6
CONTINUOUS
10
382.332
20
-94.792
11
382.332
21
-108.791
0
LINE
8
BLACK
6
CONTINUOUS
10
368.332
20
-94.792
11
382.332
21
-94.792
0
LINE
8
BLACK
6
CONTINUOUS
10
39.7197
20
-137.366
11
39.7197
21
-123.367
0
LINE
8
BLACK
6
CONTINUOUS
10
53.7192
20
-137.366
11
39.7197
21
-137.366
0
LINE
8
BLACK
6
CONTINUOUS
10
53.7192
20
-123.367
11
53.7192
21
-137.366
0
LINE
8
BLACK
6
CONTINUOUS
10
39.7197
20
-123.367
11
53.7192
21
-123.367
0
LINE
8
BLACK
6
CONTINUOUS
10
58.7697
20
-137.366
11
58.7697
21
-123.367
0
LINE
8
BLACK
6
CONTINUOUS
10
72.769
20
-137.366
11
58.7697
21
-137.366
0
LINE
8
BLACK
6
CONTINUOUS
10
72.769
20
-123.367
11
72.769
21
-137.366
0
LINE
8
BLACK
6
CONTINUOUS
10
58.7697
20
-123.367
11
72.769
21
-123.367
0
LINE
8
BLACK
6
CONTINUOUS
10
77.8197
20
-137.366
11
77.8197
21
-123.367
0
LINE
8
BLACK
6
CONTINUOUS
10
91.819
20
-137.366
11
77.8197
21
-137.366
0
LINE
8
BLACK
6
CONTINUOUS
10
91.819
20
-123.367
11
91.819
21
-137.366
0
LINE
8
BLACK
6
CONTINUOUS
10
77.8197
20
-123.367
11
91.819
21
-123.367
0
LINE
8
BLACK
6
CONTINUOUS
10
96.8697
20
-137.366
11
96.8697
21
-123.367
0
LINE
8
BLACK
6
CONTINUOUS
10
110.869
20
-137.366
11
96.8697
21
-137.366
0
LINE
8
BLACK
6
CONTINUOUS
10
110.869
20
-123.367
11
110.869
21
-137.366
0
LINE
8
BLACK
6
CONTINUOUS
10
96.8697
20
-123.367
11
110.869
21
-123.367
0
LINE
8
BLACK
6
CONTINUOUS
10
115.92
20
-137.366
11
115.92
21
-123.367
0
LINE
8
BLACK
6
CONTINUOUS
10
129.919
20
-137.366
11
115.92
21
-137.366
0
LINE
8
BLACK
6
CONTINUOUS
10
129.919
20
-123.367
11
129.919
21
-137.366
0
LINE
8
BLACK
6
CONTINUOUS
10
115.92
20
-123.367
11
129.919
21
-123.367
0
LINE
8
BLACK
6
CONTINUOUS
10
134.968
20
-137.366
11
134.968
21
-123.367
0
LINE
8
BLACK
6
CONTINUOUS
10
148.969
20
-137.366
11
134.968
21
-137.366
0
LINE
8
BLACK
6
CONTINUOUS
10
148.969
20
-123.367
11
148.969
21
-137.366
0
LINE
8
BLACK
6
CONTINUOUS
10
134.968
20
-123.367
11
148.969
21
-123.367
0
LINE
8
BLACK
6
CONTINUOUS
10
154.018
20
-137.366
11
154.018
21
-123.367
0
LINE
8
BLACK
6
CONTINUOUS
10
168.019
20
-137.366
11
154.018
21
-137.366
0
LINE
8
BLACK
6
CONTINUOUS
10
168.019
20
-123.367
11
168.019
21
-137.366
0
LINE
8
BLACK
6
CONTINUOUS
10
154.018
20
-123.367
11
168.019
21
-123.367
0
LINE
8
BLACK
6
CONTINUOUS
10
173.07
20
-137.366
11
173.07
21
-123.367
0
LINE
8
BLACK
6
CONTINUOUS
10
187.069
20
-137.366
11
173.07
21
-137.366
0
LINE
8
BLACK
6
CONTINUOUS
10
187.069
20
-123.367
11
187.069
21
-137.366
0
LINE
8
BLACK
6
CONTINUOUS
10
173.07
20
-123.367
11
187.069
21
-123.367
0
LINE
8
BLACK
6
CONTINUOUS
10
192.12
20
-137.366
11
192.12
21
-123.367
0
LINE
8
BLACK
6
CONTINUOUS
10
206.119
20
-137.366
11
192.12
21
-137.366
0
LINE
8
BLACK
6
CONTINUOUS
10
206.119
20
-123.367
11
206.119
21
-137.366
0
LINE
8
BLACK
6
CONTINUOUS
10
192.12
20
-123.367
11
206.119
21
-123.367
0
LINE
8
BLACK
6
CONTINUOUS
10
211.17
20
-137.366
11
211.17
21
-123.367
0
LINE
8
BLACK
6
CONTINUOUS
10
225.169
20
-137.366
11
211.17
21
-137.366
0
LINE
8
BLACK
6
CONTINUOUS
10
225.169
20
-123.367
11
225.169
21
-137.366
0
LINE
8
BLACK
6
CONTINUOUS
10
211.17
20
-123.367
11
225.169
21
-123.367
0
LINE
8
BLACK
6
CONTINUOUS
10
230.22
20
-137.366
11
230.22
21
-123.367
0
LINE
8
BLACK
6
CONTINUOUS
10
244.219
20
-137.366
11
230.22
21
-137.366
0
LINE
8
BLACK
6
CONTINUOUS
10
244.219
20
-123.367
11
244.219
21
-137.366
0
LINE
8
BLACK
6
CONTINUOUS
10
230.22
20
-123.367
11
244.219
21
-123.367
0
LINE
8
BLACK
6
CONTINUOUS
10
249.27
20
-137.366
11
249.27
21
-123.367
0
LINE
8
BLACK
6
CONTINUOUS
10
263.269
20
-137.366
11
249.27
21
-137.366
0
LINE
8
BLACK
6
CONTINUOUS
10
263.269
20
-123.367
11
263.269
21
-137.366
0
LINE
8
BLACK
6
CONTINUOUS
10
249.27
20
-123.367
11
263.269
21
-123.367
0
LINE
8
BLACK
6
CONTINUOUS
10
268.32
20
-137.366
11
268.32
21
-123.367
0
LINE
8
BLACK
6
CONTINUOUS
10
282.319
20
-137.366
11
268.32
21
-137.366
0
LINE
8
BLACK
6
CONTINUOUS
10
282.319
20
-123.367
11
282.319
21
-137.366
0
LINE
8
BLACK
6
CONTINUOUS
10
268.32
20
-123.367
11
282.319
21
-123.367
0
LINE
8
BLACK
6
CONTINUOUS
10
330.232
20
-137.366
11
330.232
21
-123.367
0
LINE
8
BLACK
6
CONTINUOUS
10
344.232
20
-137.366
11
330.232
21
-137.366
0
LINE
8
BLACK
6
CONTINUOUS
10
344.232
20
-123.367
11
344.232
21
-137.366
0
LINE
8
BLACK
6
CONTINUOUS
10
330.232
20
-123.367
11
344.232
21
-123.367
0
LINE
8
BLACK
6
CONTINUOUS
10
349.282
20
-137.366
11
349.282
21
-123.367
0
LINE
8
BLACK
6
CONTINUOUS
10
363.282
20
-137.366
11
349.282
21
-137.366
0
LINE
8
BLACK
6
CONTINUOUS
10
363.282
20
-123.367
11
363.282
21
-137.366
0
LINE
8
BLACK
6
CONTINUOUS
10
349.282
20
-123.367
11
363.282
21
-123.367
0
LINE
8
BLACK
6
CONTINUOUS
10
368.332
20
-137.366
11
368.332
21
-123.367
0
LINE
8
BLACK
6
CONTINUOUS
10
382.332
20
-137.366
11
368.332
21
-137.366
0
LINE
8
BLACK
6
CONTINUOUS
10
382.332
20
-123.367
11
382.332
21
-137.366
0
LINE
8
BLACK
6
CONTINUOUS
10
368.332
20
-123.367
11
382.332
21
-123.367
0
LINE
8
BLACK
6
CONTINUOUS
10
310.894
20
-123.367
11
296.895
21
-123.367
0
LINE
8
BLACK
6
CONTINUOUS
10
310.894
20
-128.067
11
310.894
21
-123.367
0
LINE
8
BLACK
6
CONTINUOUS
10
312.42
20
-128.067
11
310.894
21
-128.067
0
LINE
8
BLACK
6
CONTINUOUS
10
312.42
20
-124.837
11
312.42
21
-128.067
0
LINE
8
BLACK
6
CONTINUOUS
10
319.169
20
-124.837
11
312.42
21
-124.837
0
LINE
8
BLACK
6
CONTINUOUS
10
319.169
20
-128.067
11
319.169
21
-124.837
0
LINE
8
BLACK
6
CONTINUOUS
10
319.995
20
-128.067
11
319.169
21
-128.067
0
LINE
8
BLACK
6
CONTINUOUS
10
319.995
20
-130.866
11
319.995
21
-128.067
0
LINE
8
BLACK
6
CONTINUOUS
10
319.169
20
-130.866
11
319.995
21
-130.866
0
LINE
8
BLACK
6
CONTINUOUS
10
319.169
20
-137.136
11
319.169
21
-130.866
0
LINE
8
BLACK
6
CONTINUOUS
10
317.444
20
-137.136
11
319.169
21
-137.136
0
LINE
8
BLACK
6
CONTINUOUS
10
317.444
20
-138.336
11
317.444
21
-137.136
0
LINE
8
BLACK
6
CONTINUOUS
10
314.145
20
-138.336
11
317.444
21
-138.336
0
LINE
8
BLACK
6
CONTINUOUS
10
314.145
20
-137.136
11
314.145
21
-138.336
0
LINE
8
BLACK
6
CONTINUOUS
10
312.42
20
-137.136
11
314.145
21
-137.136
0
LINE
8
BLACK
6
CONTINUOUS
10
312.42
20
-132.667
11
312.42
21
-137.136
0
LINE
8
BLACK
6
CONTINUOUS
10
310.894
20
-132.667
11
312.42
21
-132.667
0
LINE
8
BLACK
6
CONTINUOUS
10
310.894
20
-137.366
11
310.894
21
-132.667
0
LINE
8
BLACK
6
CONTINUOUS
10
296.895
20
-137.366
11
310.894
21
-137.366
0
LINE
8
BLACK
6
CONTINUOUS
10
296.895
20
-132.667
11
296.895
21
-137.366
0
LINE
8
BLACK
6
CONTINUOUS
10
295.369
20
-132.667
11
296.895
21
-132.667
0
LINE
8
BLACK
6
CONTINUOUS
10
295.369
20
-137.136
11
295.369
21
-132.667
0
LINE
8
BLACK
6
CONTINUOUS
10
293.644
20
-137.136
11
295.369
21
-137.136
0
LINE
8
BLACK
6
CONTINUOUS
10
293.644
20
-138.336
11
293.644
21
-137.136
0
LINE
8
BLACK
6
CONTINUOUS
10
290.343
20
-138.336
11
293.644
21
-138.336
0
LINE
8
BLACK
6
CONTINUOUS
10
290.343
20
-137.136
11
290.343
21
-138.336
0
LINE
8
BLACK
6
CONTINUOUS
10
288.62
20
-137.136
11
290.343
21
-137.136
0
LINE
8
BLACK
6
CONTINUOUS
10
288.62
20
-130.866
11
288.62
21
-137.136
0
LINE
8
BLACK
6
CONTINUOUS
10
287.794
20
-130.866
11
288.62
21
-130.866
0
LINE
8
BLACK
6
CONTINUOUS
10
287.794
20
-128.067
11
287.794
21
-130.866
0
LINE
8
BLACK
6
CONTINUOUS
10
288.62
20
-128.067
11
287.794
21
-128.067
0
LINE
8
BLACK
6
CONTINUOUS
10
288.62
20
-124.837
11
288.62
21
-128.067
0
LINE
8
BLACK
6
CONTINUOUS
10
295.369
20
-124.837
11
288.62
21
-124.837
0
LINE
8
BLACK
6
CONTINUOUS
10
295.369
20
-128.067
11
295.369
21
-124.837
0
LINE
8
BLACK
6
CONTINUOUS
10
296.895
20
-128.067
11
295.369
21
-128.067
0
LINE
8
BLACK
6
CONTINUOUS
10
296.895
20
-123.367
11
296.895
21
-128.067
0
LINE
8
BLACK
6
CONTINUOUS
10
44.4822
20
-156.416
11
44.4822
21
-142.417
0
LINE
8
BLACK
6
CONTINUOUS
10
58.4817
20
-156.416
11
44.4822
21
-156.416
0
LINE
8
BLACK
6
CONTINUOUS
10
58.4817
20
-142.417
11
58.4817
21
-156.416
0
LINE
8
BLACK
6
CONTINUOUS
10
44.4822
20
-142.417
11
58.4817
21
-142.417
0
LINE
8
BLACK
6
CONTINUOUS
10
68.2947
20
-156.416
11
68.2947
21
-142.417
0
LINE
8
BLACK
6
CONTINUOUS
10
82.294
20
-156.416
11
68.2947
21
-156.416
0
LINE
8
BLACK
6
CONTINUOUS
10
82.294
20
-142.417
11
82.294
21
-156.416
0
LINE
8
BLACK
6
CONTINUOUS
10
68.2947
20
-142.417
11
82.294
21
-142.417
0
LINE
8
BLACK
6
CONTINUOUS
10
87.3447
20
-156.416
11
87.3447
21
-142.417
0
LINE
8
BLACK
6
CONTINUOUS
10
101.344
20
-156.416
11
87.3447
21
-156.416
0
LINE
8
BLACK
6
CONTINUOUS
10
101.344
20
-142.417
11
101.344
21
-156.416
0
LINE
8
BLACK
6
CONTINUOUS
10
87.3447
20
-142.417
11
101.344
21
-142.417
0
LINE
8
BLACK
6
CONTINUOUS
10
106.395
20
-156.416
11
106.395
21
-142.417
0
LINE
8
BLACK
6
CONTINUOUS
10
120.394
20
-156.416
11
106.395
21
-156.416
0
LINE
8
BLACK
6
CONTINUOUS
10
120.394
20
-142.417
11
120.394
21
-156.416
0
LINE
8
BLACK
6
CONTINUOUS
10
106.395
20
-142.417
11
120.394
21
-142.417
0
LINE
8
BLACK
6
CONTINUOUS
10
125.445
20
-156.416
11
125.445
21
-142.417
0
LINE
8
BLACK
6
CONTINUOUS
10
139.444
20
-156.416
11
125.445
21
-156.416
0
LINE
8
BLACK
6
CONTINUOUS
10
139.444
20
-142.417
11
139.444
21
-156.416
0
LINE
8
BLACK
6
CONTINUOUS
10
125.445
20
-142.417
11
139.444
21
-142.417
0
LINE
8
BLACK
6
CONTINUOUS
10
144.495
20
-156.416
11
144.495
21
-142.417
0
LINE
8
BLACK
6
CONTINUOUS
10
158.494
20
-156.416
11
144.495
21
-156.416
0
LINE
8
BLACK
6
CONTINUOUS
10
158.494
20
-142.417
11
158.494
21
-156.416
0
LINE
8
BLACK
6
CONTINUOUS
10
144.495
20
-142.417
11
158.494
21
-142.417
0
LINE
8
BLACK
6
CONTINUOUS
10
163.545
20
-156.416
11
163.545
21
-142.417
0
LINE
8
BLACK
6
CONTINUOUS
10
177.544
20
-156.416
11
163.545
21
-156.416
0
LINE
8
BLACK
6
CONTINUOUS
10
177.544
20
-142.417
11
177.544
21
-156.416
0
LINE
8
BLACK
6
CONTINUOUS
10
163.545
20
-142.417
11
177.544
21
-142.417
0
LINE
8
BLACK
6
CONTINUOUS
10
182.595
20
-156.416
11
182.595
21
-142.417
0
LINE
8
BLACK
6
CONTINUOUS
10
196.594
20
-156.416
11
182.595
21
-156.416
0
LINE
8
BLACK
6
CONTINUOUS
10
196.594
20
-142.417
11
196.594
21
-156.416
0
LINE
8
BLACK
6
CONTINUOUS
10
182.595
20
-142.417
11
196.594
21
-142.417
0
LINE
8
BLACK
6
CONTINUOUS
10
201.645
20
-156.416
11
201.645
21
-142.417
0
LINE
8
BLACK
6
CONTINUOUS
10
215.644
20
-156.416
11
201.645
21
-156.416
0
LINE
8
BLACK
6
CONTINUOUS
10
215.644
20
-142.417
11
215.644
21
-156.416
0
LINE
8
BLACK
6
CONTINUOUS
10
201.645
20
-142.417
11
215.644
21
-142.417
0
LINE
8
BLACK
6
CONTINUOUS
10
220.695
20
-156.416
11
220.695
21
-142.417
0
LINE
8
BLACK
6
CONTINUOUS
10
234.694
20
-156.416
11
220.695
21
-156.416
0
LINE
8
BLACK
6
CONTINUOUS
10
234.694
20
-142.417
11
234.694
21
-156.416
0
LINE
8
BLACK
6
CONTINUOUS
10
220.695
20
-142.417
11
234.694
21
-142.417
0
LINE
8
BLACK
6
CONTINUOUS
10
239.745
20
-156.416
11
239.745
21
-142.417
0
LINE
8
BLACK
6
CONTINUOUS
10
253.744
20
-156.416
11
239.745
21
-156.416
0
LINE
8
BLACK
6
CONTINUOUS
10
253.744
20
-142.417
11
253.744
21
-156.416
0
LINE
8
BLACK
6
CONTINUOUS
10
239.745
20
-142.417
11
253.744
21
-142.417
0
LINE
8
BLACK
6
CONTINUOUS
10
258.795
20
-156.416
11
258.795
21
-142.417
0
LINE
8
BLACK
6
CONTINUOUS
10
272.794
20
-156.416
11
258.795
21
-156.416
0
LINE
8
BLACK
6
CONTINUOUS
10
272.794
20
-142.417
11
272.794
21
-156.416
0
LINE
8
BLACK
6
CONTINUOUS
10
258.795
20
-142.417
11
272.794
21
-142.417
0
LINE
8
BLACK
6
CONTINUOUS
10
277.845
20
-156.416
11
277.845
21
-142.417
0
LINE
8
BLACK
6
CONTINUOUS
10
291.844
20
-156.416
11
277.845
21
-156.416
0
LINE
8
BLACK
6
CONTINUOUS
10
291.844
20
-142.417
11
291.844
21
-156.416
0
LINE
8
BLACK
6
CONTINUOUS
10
277.845
20
-142.417
11
291.844
21
-142.417
0
LINE
8
BLACK
6
CONTINUOUS
10
330.232
20
-156.416
11
330.232
21
-142.417
0
LINE
8
BLACK
6
CONTINUOUS
10
344.232
20
-156.416
11
330.232
21
-156.416
0
LINE
8
BLACK
6
CONTINUOUS
10
344.232
20
-142.417
11
344.232
21
-156.416
0
LINE
8
BLACK
6
CONTINUOUS
10
330.232
20
-142.417
11
344.232
21
-142.417
0
LINE
8
BLACK
6
CONTINUOUS
10
349.282
20
-156.416
11
349.282
21
-142.417
0
LINE
8
BLACK
6
CONTINUOUS
10
363.282
20
-156.416
11
349.282
21
-156.416
0
LINE
8
BLACK
6
CONTINUOUS
10
363.282
20
-142.417
11
363.282
21
-156.416
0
LINE
8
BLACK
6
CONTINUOUS
10
349.282
20
-142.417
11
363.282
21
-142.417
0
LINE
8
BLACK
6
CONTINUOUS
10
368.332
20
-156.416
11
368.332
21
-142.417
0
LINE
8
BLACK
6
CONTINUOUS
10
382.332
20
-156.416
11
368.332
21
-156.416
0
LINE
8
BLACK
6
CONTINUOUS
10
382.332
20
-142.417
11
382.332
21
-156.416
0
LINE
8
BLACK
6
CONTINUOUS
10
368.332
20
-142.417
11
382.332
21
-142.417
0
LINE
8
BLACK
6
CONTINUOUS
10
46.862
20
-175.466
11
46.862
21
-161.467
0
LINE
8
BLACK
6
CONTINUOUS
10
60.8629
20
-175.466
11
46.862
21
-175.466
0
LINE
8
BLACK
6
CONTINUOUS
10
60.8629
20
-161.467
11
60.8629
21
-175.466
0
LINE
8
BLACK
6
CONTINUOUS
10
46.862
20
-161.467
11
60.8629
21
-161.467
0
LINE
8
BLACK
6
CONTINUOUS
10
73.0572
20
-175.466
11
73.0572
21
-161.467
0
LINE
8
BLACK
6
CONTINUOUS
10
87.0565
20
-175.466
11
73.0572
21
-175.466
0
LINE
8
BLACK
6
CONTINUOUS
10
87.0565
20
-161.467
11
87.0565
21
-175.466
0
LINE
8
BLACK
6
CONTINUOUS
10
73.0572
20
-161.467
11
87.0565
21
-161.467
0
LINE
8
BLACK
6
CONTINUOUS
10
92.1072
20
-175.466
11
92.1072
21
-161.467
0
LINE
8
BLACK
6
CONTINUOUS
10
106.106
20
-175.466
11
92.1072
21
-175.466
0
LINE
8
BLACK
6
CONTINUOUS
10
106.106
20
-161.467
11
106.106
21
-175.466
0
LINE
8
BLACK
6
CONTINUOUS
10
92.1072
20
-161.467
11
106.106
21
-161.467
0
LINE
8
BLACK
6
CONTINUOUS
10
111.157
20
-175.466
11
111.157
21
-161.467
0
LINE
8
BLACK
6
CONTINUOUS
10
125.156
20
-175.466
11
111.157
21
-175.466
0
LINE
8
BLACK
6
CONTINUOUS
10
125.156
20
-161.467
11
125.156
21
-175.466
0
LINE
8
BLACK
6
CONTINUOUS
10
111.157
20
-161.467
11
125.156
21
-161.467
0
LINE
8
BLACK
6
CONTINUOUS
10
130.207
20
-175.466
11
130.207
21
-161.467
0
LINE
8
BLACK
6
CONTINUOUS
10
144.207
20
-175.466
11
130.207
21
-175.466
0
LINE
8
BLACK
6
CONTINUOUS
10
144.207
20
-161.467
11
144.207
21
-175.466
0
LINE
8
BLACK
6
CONTINUOUS
10
130.207
20
-161.467
11
144.207
21
-161.467
0
LINE
8
BLACK
6
CONTINUOUS
10
149.257
20
-175.466
11
149.257
21
-161.467
0
LINE
8
BLACK
6
CONTINUOUS
10
163.257
20
-175.466
11
149.257
21
-175.466
0
LINE
8
BLACK
6
CONTINUOUS
10
163.257
20
-161.467
11
163.257
21
-175.466
0
LINE
8
BLACK
6
CONTINUOUS
10
149.257
20
-161.467
11
163.257
21
-161.467
0
LINE
8
BLACK
6
CONTINUOUS
10
168.307
20
-175.466
11
168.307
21
-161.467
0
LINE
8
BLACK
6
CONTINUOUS
10
182.307
20
-175.466
11
168.307
21
-175.466
0
LINE
8
BLACK
6
CONTINUOUS
10
182.307
20
-161.467
11
182.307
21
-175.466
0
LINE
8
BLACK
6
CONTINUOUS
10
168.307
20
-161.467
11
182.307
21
-161.467
0
LINE
8
BLACK
6
CONTINUOUS
10
187.357
20
-175.466
11
187.357
21
-161.467
0
LINE
8
BLACK
6
CONTINUOUS
10
201.357
20
-175.466
11
187.357
21
-175.466
0
LINE
8
BLACK
6
CONTINUOUS
10
201.357
20
-161.467
11
201.357
21
-175.466
0
LINE
8
BLACK
6
CONTINUOUS
10
187.357
20
-161.467
11
201.357
21
-161.467
0
LINE
8
BLACK
6
CONTINUOUS
10
206.407
20
-175.466
11
206.407
21
-161.467
0
LINE
8
BLACK
6
CONTINUOUS
10
220.407
20
-175.466
11
206.407
21
-175.466
0
LINE
8
BLACK
6
CONTINUOUS
10
220.407
20
-161.467
11
220.407
21
-175.466
0
LINE
8
BLACK
6
CONTINUOUS
10
206.407
20
-161.467
11
220.407
21
-161.467
0
LINE
8
BLACK
6
CONTINUOUS
10
225.457
20
-175.466
11
225.457
21
-161.467
0
LINE
8
BLACK
6
CONTINUOUS
10
239.457
20
-175.466
11
225.457
21
-175.466
0
LINE
8
BLACK
6
CONTINUOUS
10
239.457
20
-161.467
11
239.457
21
-175.466
0
LINE
8
BLACK
6
CONTINUOUS
10
225.457
20
-161.467
11
239.457
21
-161.467
0
LINE
8
BLACK
6
CONTINUOUS
10
244.507
20
-175.466
11
244.507
21
-161.467
0
LINE
8
BLACK
6
CONTINUOUS
10
258.507
20
-175.466
11
244.507
21
-175.466
0
LINE
8
BLACK
6
CONTINUOUS
10
258.507
20
-161.467
11
258.507
21
-175.466
0
LINE
8
BLACK
6
CONTINUOUS
10
244.507
20
-161.467
11
258.507
21
-161.467
0
LINE
8
BLACK
6
CONTINUOUS
10
263.557
20
-175.466
11
263.557
21
-161.467
0
LINE
8
BLACK
6
CONTINUOUS
10
277.557
20
-175.466
11
263.557
21
-175.466
0
LINE
8
BLACK
6
CONTINUOUS
10
277.557
20
-161.467
11
277.557
21
-175.466
0
LINE
8
BLACK
6
CONTINUOUS
10
263.557
20
-161.467
11
277.557
21
-161.467
0
LINE
8
BLACK
6
CONTINUOUS
10
315.657
20
-142.417
11
301.657
21
-142.417
0
LINE
8
BLACK
6
CONTINUOUS
10
315.657
20
-143.667
11
315.657
21
-142.417
0
LINE
8
BLACK
6
CONTINUOUS
10
316.567
20
-143.667
11
315.657
21
-143.667
0
LINE
8
BLACK
6
CONTINUOUS
10
316.567
20
-150.417
11
316.567
21
-143.667
0
LINE
8
BLACK
6
CONTINUOUS
10
315.657
20
-150.417
11
316.567
21
-150.417
0
LINE
8
BLACK
6
CONTINUOUS
10
315.657
20
-151.942
11
315.657
21
-150.417
0
LINE
8
BLACK
6
CONTINUOUS
10
318.038
20
-151.942
11
315.657
21
-151.942
0
LINE
8
BLACK
6
CONTINUOUS
10
318.038
20
-165.941
11
318.038
21
-151.942
0
LINE
8
BLACK
6
CONTINUOUS
10
316.788
20
-165.941
11
318.038
21
-165.941
0
LINE
8
BLACK
6
CONTINUOUS
10
316.788
20
-166.167
11
316.788
21
-165.941
0
LINE
8
BLACK
6
CONTINUOUS
10
317.612
20
-166.167
11
316.788
21
-166.167
0
LINE
8
BLACK
6
CONTINUOUS
10
317.612
20
-168.966
11
317.612
21
-166.167
0
LINE
8
BLACK
6
CONTINUOUS
10
316.788
20
-168.966
11
317.612
21
-168.966
0
LINE
8
BLACK
6
CONTINUOUS
10
316.788
20
-175.236
11
316.788
21
-168.966
0
LINE
8
BLACK
6
CONTINUOUS
10
315.063
20
-175.236
11
316.788
21
-175.236
0
LINE
8
BLACK
6
CONTINUOUS
10
315.063
20
-176.436
11
315.063
21
-175.236
0
LINE
8
BLACK
6
CONTINUOUS
10
311.762
20
-176.436
11
315.063
21
-176.436
0
LINE
8
BLACK
6
CONTINUOUS
10
311.762
20
-175.236
11
311.762
21
-176.436
0
LINE
8
BLACK
6
CONTINUOUS
10
310.037
20
-175.236
11
311.762
21
-175.236
0
LINE
8
BLACK
6
CONTINUOUS
10
310.037
20
-174.216
11
310.037
21
-175.236
0
LINE
8
BLACK
6
CONTINUOUS
10
308.513
20
-174.216
11
310.037
21
-174.216
0
LINE
8
BLACK
6
CONTINUOUS
10
308.513
20
-175.466
11
308.513
21
-174.216
0
LINE
8
BLACK
6
CONTINUOUS
10
291.261
20
-175.466
11
308.513
21
-175.466
0
LINE
8
BLACK
6
CONTINUOUS
10
291.261
20
-176.436
11
291.261
21
-175.466
0
LINE
8
BLACK
6
CONTINUOUS
10
287.962
20
-176.436
11
291.261
21
-176.436
0
LINE
8
BLACK
6
CONTINUOUS
10
287.962
20
-175.466
11
287.962
21
-176.436
0
LINE
8
BLACK
6
CONTINUOUS
10
282.607
20
-175.466
11
287.962
21
-175.466
0
LINE
8
BLACK
6
CONTINUOUS
10
282.607
20
-161.467
11
282.607
21
-175.466
0
LINE
8
BLACK
6
CONTINUOUS
10
304.037
20
-161.467
11
282.607
21
-161.467
0
LINE
8
BLACK
6
CONTINUOUS
10
304.037
20
-156.416
11
304.037
21
-161.467
0
LINE
8
BLACK
6
CONTINUOUS
10
301.657
20
-156.416
11
304.037
21
-156.416
0
LINE
8
BLACK
6
CONTINUOUS
10
301.657
20
-142.417
11
301.657
21
-156.416
0
LINE
8
BLACK
6
CONTINUOUS
10
82.5822
20
-194.516
11
82.5822
21
-180.517
0
LINE
8
BLACK
6
CONTINUOUS
10
96.5815
20
-194.516
11
82.5822
21
-194.516
0
LINE
8
BLACK
6
CONTINUOUS
10
96.5815
20
-180.517
11
96.5815
21
-194.516
0
LINE
8
BLACK
6
CONTINUOUS
10
82.5822
20
-180.517
11
96.5815
21
-180.517
0
LINE
8
BLACK
6
CONTINUOUS
10
101.632
20
-194.516
11
101.632
21
-180.517
0
LINE
8
BLACK
6
CONTINUOUS
10
115.631
20
-194.516
11
101.632
21
-194.516
0
LINE
8
BLACK
6
CONTINUOUS
10
115.631
20
-180.517
11
115.631
21
-194.516
0
LINE
8
BLACK
6
CONTINUOUS
10
101.632
20
-180.517
11
115.631
21
-180.517
0
LINE
8
BLACK
6
CONTINUOUS
10
120.682
20
-194.516
11
120.682
21
-180.517
0
LINE
8
BLACK
6
CONTINUOUS
10
134.681
20
-194.516
11
120.682
21
-194.516
0
LINE
8
BLACK
6
CONTINUOUS
10
134.681
20
-180.517
11
134.681
21
-194.516
0
LINE
8
BLACK
6
CONTINUOUS
10
120.682
20
-180.517
11
134.681
21
-180.517
0
LINE
8
BLACK
6
CONTINUOUS
10
139.732
20
-194.516
11
139.732
21
-180.517
0
LINE
8
BLACK
6
CONTINUOUS
10
153.732
20
-194.516
11
139.732
21
-194.516
0
LINE
8
BLACK
6
CONTINUOUS
10
153.732
20
-180.517
11
153.732
21
-194.516
0
LINE
8
BLACK
6
CONTINUOUS
10
139.732
20
-180.517
11
153.732
21
-180.517
0
LINE
8
BLACK
6
CONTINUOUS
10
158.782
20
-194.516
11
158.782
21
-180.517
0
LINE
8
BLACK
6
CONTINUOUS
10
172.782
20
-194.516
11
158.782
21
-194.516
0
LINE
8
BLACK
6
CONTINUOUS
10
172.782
20
-180.517
11
172.782
21
-194.516
0
LINE
8
BLACK
6
CONTINUOUS
10
158.782
20
-180.517
11
172.782
21
-180.517
0
LINE
8
BLACK
6
CONTINUOUS
10
177.832
20
-194.516
11
177.832
21
-180.517
0
LINE
8
BLACK
6
CONTINUOUS
10
191.832
20
-194.516
11
177.832
21
-194.516
0
LINE
8
BLACK
6
CONTINUOUS
10
191.832
20
-180.517
11
191.832
21
-194.516
0
LINE
8
BLACK
6
CONTINUOUS
10
177.832
20
-180.517
11
191.832
21
-180.517
0
LINE
8
BLACK
6
CONTINUOUS
10
196.882
20
-194.516
11
196.882
21
-180.517
0
LINE
8
BLACK
6
CONTINUOUS
10
210.882
20
-194.516
11
196.882
21
-194.516
0
LINE
8
BLACK
6
CONTINUOUS
10
210.882
20
-180.517
11
210.882
21
-194.516
0
LINE
8
BLACK
6
CONTINUOUS
10
196.882
20
-180.517
11
210.882
21
-180.517
0
LINE
8
BLACK
6
CONTINUOUS
10
215.932
20
-194.516
11
215.932
21
-180.517
0
LINE
8
BLACK
6
CONTINUOUS
10
229.932
20
-194.516
11
215.932
21
-194.516
0
LINE
8
BLACK
6
CONTINUOUS
10
229.932
20
-180.517
11
229.932
21
-194.516
0
LINE
8
BLACK
6
CONTINUOUS
10
215.932
20
-180.517
11
229.932
21
-180.517
0
LINE
8
BLACK
6
CONTINUOUS
10
234.982
20
-194.516
11
234.982
21
-180.517
0
LINE
8
BLACK
6
CONTINUOUS
10
248.982
20
-194.516
11
234.982
21
-194.516
0
LINE
8
BLACK
6
CONTINUOUS
10
248.982
20
-180.517
11
248.982
21
-194.516
0
LINE
8
BLACK
6
CONTINUOUS
10
234.982
20
-180.517
11
248.982
21
-180.517
0
LINE
8
BLACK
6
CONTINUOUS
10
254.032
20
-194.516
11
254.032
21
-180.517
0
LINE
8
BLACK
6
CONTINUOUS
10
268.032
20
-194.516
11
254.032
21
-194.516
0
LINE
8
BLACK
6
CONTINUOUS
10
268.032
20
-180.517
11
268.032
21
-194.516
0
LINE
8
BLACK
6
CONTINUOUS
10
254.032
20
-180.517
11
268.032
21
-180.517
0
LINE
8
BLACK
6
CONTINUOUS
10
349.282
20
-194.516
11
349.282
21
-180.517
0
LINE
8
BLACK
6
CONTINUOUS
10
363.282
20
-194.516
11
349.282
21
-194.516
0
LINE
8
BLACK
6
CONTINUOUS
10
363.282
20
-180.517
11
363.282
21
-194.516
0
LINE
8
BLACK
6
CONTINUOUS
10
349.282
20
-180.517
11
363.282
21
-180.517
0
LINE
8
BLACK
6
CONTINUOUS
10
77.5315
20
-180.517
11
42.1009
21
-180.517
0
LINE
8
BLACK
6
CONTINUOUS
10
77.5315
20
-194.516
11
77.5315
21
-180.517
0
LINE
8
BLACK
6
CONTINUOUS
10
72.1752
20
-194.516
11
77.5315
21
-194.516
0
LINE
8
BLACK
6
CONTINUOUS
10
72.1752
20
-195.486
11
72.1752
21
-194.516
0
LINE
8
BLACK
6
CONTINUOUS
10
68.8748
20
-195.486
11
72.1752
21
-195.486
0
LINE
8
BLACK
6
CONTINUOUS
10
68.8748
20
-194.516
11
68.8748
21
-195.486
0
LINE
8
BLACK
6
CONTINUOUS
10
48.3751
20
-194.516
11
68.8748
21
-194.516
0
LINE
8
BLACK
6
CONTINUOUS
10
48.3751
20
-195.486
11
48.3751
21
-194.516
0
LINE
8
BLACK
6
CONTINUOUS
10
45.0761
20
-195.486
11
48.3751
21
-195.486
0
LINE
8
BLACK
6
CONTINUOUS
10
45.0761
20
-194.516
11
45.0761
21
-195.486
0
LINE
8
BLACK
6
CONTINUOUS
10
42.1009
20
-194.516
11
45.0761
21
-194.516
0
LINE
8
BLACK
6
CONTINUOUS
10
42.1009
20
-180.517
11
42.1009
21
-194.516
0
LINE
8
BLACK
6
CONTINUOUS
10
303.75
20
-180.517
11
289.75
21
-180.517
0
LINE
8
BLACK
6
CONTINUOUS
10
303.75
20
-185.217
11
303.75
21
-180.517
0
LINE
8
BLACK
6
CONTINUOUS
10
305.276
20
-185.217
11
303.75
21
-185.217
0
LINE
8
BLACK
6
CONTINUOUS
10
305.276
20
-181.987
11
305.276
21
-185.217
0
LINE
8
BLACK
6
CONTINUOUS
10
312.025
20
-181.987
11
305.276
21
-181.987
0
LINE
8
BLACK
6
CONTINUOUS
10
312.025
20
-185.217
11
312.025
21
-181.987
0
LINE
8
BLACK
6
CONTINUOUS
10
312.851
20
-185.217
11
312.025
21
-185.217
0
LINE
8
BLACK
6
CONTINUOUS
10
312.851
20
-188.016
11
312.851
21
-185.217
0
LINE
8
BLACK
6
CONTINUOUS
10
312.025
20
-188.016
11
312.851
21
-188.016
0
LINE
8
BLACK
6
CONTINUOUS
10
312.025
20
-194.286
11
312.025
21
-188.016
0
LINE
8
BLACK
6
CONTINUOUS
10
310.3
20
-194.286
11
312.025
21
-194.286
0
LINE
8
BLACK
6
CONTINUOUS
10
310.3
20
-195.486
11
310.3
21
-194.286
0
LINE
8
BLACK
6
CONTINUOUS
10
307.001
20
-195.486
11
310.3
21
-195.486
0
LINE
8
BLACK
6
CONTINUOUS
10
307.001
20
-194.286
11
307.001
21
-195.486
0
LINE
8
BLACK
6
CONTINUOUS
10
305.276
20
-194.286
11
307.001
21
-194.286
0
LINE
8
BLACK
6
CONTINUOUS
10
305.276
20
-189.817
11
305.276
21
-194.286
0
LINE
8
BLACK
6
CONTINUOUS
10
303.75
20
-189.817
11
305.276
21
-189.817
0
LINE
8
BLACK
6
CONTINUOUS
10
303.75
20
-194.516
11
303.75
21
-189.817
0
LINE
8
BLACK
6
CONTINUOUS
10
289.75
20
-194.516
11
303.75
21
-194.516
0
LINE
8
BLACK
6
CONTINUOUS
10
289.75
20
-189.817
11
289.75
21
-194.516
0
LINE
8
BLACK
6
CONTINUOUS
10
288.226
20
-189.817
11
289.75
21
-189.817
0
LINE
8
BLACK
6
CONTINUOUS
10
288.226
20
-194.286
11
288.226
21
-189.817
0
LINE
8
BLACK
6
CONTINUOUS
10
286.5
20
-194.286
11
288.226
21
-194.286
0
LINE
8
BLACK
6
CONTINUOUS
10
286.5
20
-195.486
11
286.5
21
-194.286
0
LINE
8
BLACK
6
CONTINUOUS
10
283.201
20
-195.486
11
286.5
21
-195.486
0
LINE
8
BLACK
6
CONTINUOUS
10
283.201
20
-194.286
11
283.201
21
-195.486
0
LINE
8
BLACK
6
CONTINUOUS
10
281.476
20
-194.286
11
283.201
21
-194.286
0
LINE
8
BLACK
6
CONTINUOUS
10
281.476
20
-188.016
11
281.476
21
-194.286
0
LINE
8
BLACK
6
CONTINUOUS
10
280.65
20
-188.016
11
281.476
21
-188.016
0
LINE
8
BLACK
6
CONTINUOUS
10
280.65
20
-185.217
11
280.65
21
-188.016
0
LINE
8
BLACK
6
CONTINUOUS
10
281.476
20
-185.217
11
280.65
21
-185.217
0
LINE
8
BLACK
6
CONTINUOUS
10
281.476
20
-181.987
11
281.476
21
-185.217
0
LINE
8
BLACK
6
CONTINUOUS
10
288.226
20
-181.987
11
281.476
21
-181.987
0
LINE
8
BLACK
6
CONTINUOUS
10
288.226
20
-185.217
11
288.226
21
-181.987
0
LINE
8
BLACK
6
CONTINUOUS
10
289.75
20
-185.217
11
288.226
21
-185.217
0
LINE
8
BLACK
6
CONTINUOUS
10
289.75
20
-180.517
11
289.75
21
-185.217
0
LINE
8
BLACK
6
CONTINUOUS
10
42.1009
20
-213.566
11
42.1009
21
-199.567
0
LINE
8
BLACK
6
CONTINUOUS
10
56.1004
20
-213.566
11
42.1009
21
-213.566
0
LINE
8
BLACK
6
CONTINUOUS
10
56.1004
20
-199.567
11
56.1004
21
-213.566
0
LINE
8
BLACK
6
CONTINUOUS
10
42.1009
20
-199.567
11
56.1004
21
-199.567
0
LINE
8
BLACK
6
CONTINUOUS
10
65.912
20
-213.566
11
65.912
21
-199.567
0
LINE
8
BLACK
6
CONTINUOUS
10
79.9128
20
-213.566
11
65.912
21
-213.566
0
LINE
8
BLACK
6
CONTINUOUS
10
79.9128
20
-199.567
11
79.9128
21
-213.566
0
LINE
8
BLACK
6
CONTINUOUS
10
65.912
20
-199.567
11
79.9128
21
-199.567
0
LINE
8
BLACK
6
CONTINUOUS
10
89.726
20
-213.566
11
89.726
21
-199.567
0
LINE
8
BLACK
6
CONTINUOUS
10
103.725
20
-213.566
11
89.726
21
-213.566
0
LINE
8
BLACK
6
CONTINUOUS
10
103.725
20
-199.567
11
103.725
21
-213.566
0
LINE
8
BLACK
6
CONTINUOUS
10
89.726
20
-199.567
11
103.725
21
-199.567
0
LINE
8
BLACK
6
CONTINUOUS
10
232.601
20
-213.566
11
232.601
21
-199.567
0
LINE
8
BLACK
6
CONTINUOUS
10
246.6
20
-213.566
11
232.601
21
-213.566
0
LINE
8
BLACK
6
CONTINUOUS
10
246.6
20
-199.567
11
246.6
21
-213.566
0
LINE
8
BLACK
6
CONTINUOUS
10
232.601
20
-199.567
11
246.6
21
-199.567
0
LINE
8
BLACK
6
CONTINUOUS
10
256.412
20
-213.566
11
256.412
21
-199.567
0
LINE
8
BLACK
6
CONTINUOUS
10
270.413
20
-213.566
11
256.412
21
-213.566
0
LINE
8
BLACK
6
CONTINUOUS
10
270.413
20
-199.567
11
270.413
21
-213.566
0
LINE
8
BLACK
6
CONTINUOUS
10
256.412
20
-199.567
11
270.413
21
-199.567
0
LINE
8
BLACK
6
CONTINUOUS
10
280.226
20
-213.566
11
280.226
21
-199.567
0
LINE
8
BLACK
6
CONTINUOUS
10
294.225
20
-213.566
11
280.226
21
-213.566
0
LINE
8
BLACK
6
CONTINUOUS
10
294.225
20
-199.567
11
294.225
21
-213.566
0
LINE
8
BLACK
6
CONTINUOUS
10
280.226
20
-199.567
11
294.225
21
-199.567
0
LINE
8
BLACK
6
CONTINUOUS
10
304.037
20
-213.566
11
304.037
21
-199.567
0
LINE
8
BLACK
6
CONTINUOUS
10
318.038
20
-213.566
11
304.037
21
-213.566
0
LINE
8
BLACK
6
CONTINUOUS
10
318.038
20
-199.567
11
318.038
21
-213.566
0
LINE
8
BLACK
6
CONTINUOUS
10
304.037
20
-199.567
11
318.038
21
-199.567
0
LINE
8
BLACK
6
CONTINUOUS
10
330.232
20
-213.566
11
330.232
21
-199.567
0
LINE
8
BLACK
6
CONTINUOUS
10
344.232
20
-213.566
11
330.232
21
-213.566
0
LINE
8
BLACK
6
CONTINUOUS
10
344.232
20
-199.567
11
344.232
21
-213.566
0
LINE
8
BLACK
6
CONTINUOUS
10
330.232
20
-199.567
11
344.232
21
-199.567
0
LINE
8
BLACK
6
CONTINUOUS
10
349.282
20
-213.566
11
349.282
21
-199.567
0
LINE
8
BLACK
6
CONTINUOUS
10
363.282
20
-213.566
11
349.282
21
-213.566
0
LINE
8
BLACK
6
CONTINUOUS
10
363.282
20
-199.567
11
363.282
21
-213.566
0
LINE
8
BLACK
6
CONTINUOUS
10
349.282
20
-199.567
11
363.282
21
-199.567
0
LINE
8
BLACK
6
CONTINUOUS
10
368.332
20
-213.566
11
368.332
21
-199.567
0
LINE
8
BLACK
6
CONTINUOUS
10
382.332
20
-213.566
11
368.332
21
-213.566
0
LINE
8
BLACK
6
CONTINUOUS
10
382.332
20
-199.567
11
382.332
21
-213.566
0
LINE
8
BLACK
6
CONTINUOUS
10
368.332
20
-199.567
11
382.332
21
-199.567
0
LINE
8
BLACK
6
CONTINUOUS
10
161.171
20
-213.543
11
175.172
21
-213.543
0
LINE
8
BLACK
6
CONTINUOUS
10
161.171
20
-208.843
11
161.171
21
-213.543
0
LINE
8
BLACK
6
CONTINUOUS
10
121.547
20
-208.843
11
161.171
21
-208.843
0
LINE
8
BLACK
6
CONTINUOUS
10
121.547
20
-212.073
11
121.547
21
-208.843
0
LINE
8
BLACK
6
CONTINUOUS
10
114.796
20
-212.073
11
121.547
21
-212.073
0
LINE
8
BLACK
6
CONTINUOUS
10
114.796
20
-208.843
11
114.796
21
-212.073
0
LINE
8
BLACK
6
CONTINUOUS
10
113.972
20
-208.843
11
114.796
21
-208.843
0
LINE
8
BLACK
6
CONTINUOUS
10
113.972
20
-206.044
11
113.972
21
-208.843
0
LINE
8
BLACK
6
CONTINUOUS
10
114.796
20
-206.044
11
113.972
21
-206.044
0
LINE
8
BLACK
6
CONTINUOUS
10
114.796
20
-199.774
11
114.796
21
-206.044
0
LINE
8
BLACK
6
CONTINUOUS
10
116.521
20
-199.774
11
114.796
21
-199.774
0
LINE
8
BLACK
6
CONTINUOUS
10
116.521
20
-198.573
11
116.521
21
-199.774
0
LINE
8
BLACK
6
CONTINUOUS
10
119.822
20
-198.573
11
116.521
21
-198.573
0
LINE
8
BLACK
6
CONTINUOUS
10
119.822
20
-199.774
11
119.822
21
-198.573
0
LINE
8
BLACK
6
CONTINUOUS
10
121.547
20
-199.774
11
119.822
21
-199.774
0
LINE
8
BLACK
6
CONTINUOUS
10
121.547
20
-204.243
11
121.547
21
-199.774
0
LINE
8
BLACK
6
CONTINUOUS
10
161.171
20
-204.243
11
121.547
21
-204.243
0
LINE
8
BLACK
6
CONTINUOUS
10
161.171
20
-199.544
11
161.171
21
-204.243
0
LINE
8
BLACK
6
CONTINUOUS
10
175.172
20
-199.544
11
161.171
21
-199.544
0
LINE
8
BLACK
6
CONTINUOUS
10
175.172
20
-204.243
11
175.172
21
-199.544
0
LINE
8
BLACK
6
CONTINUOUS
10
214.796
20
-204.243
11
175.172
21
-204.243
0
LINE
8
BLACK
6
CONTINUOUS
10
214.796
20
-199.774
11
214.796
21
-204.243
0
LINE
8
BLACK
6
CONTINUOUS
10
216.521
20
-199.774
11
214.796
21
-199.774
0
LINE
8
BLACK
6
CONTINUOUS
10
216.521
20
-198.573
11
216.521
21
-199.774
0
LINE
8
BLACK
6
CONTINUOUS
10
219.822
20
-198.573
11
216.521
21
-198.573
0
LINE
8
BLACK
6
CONTINUOUS
10
219.822
20
-199.774
11
219.822
21
-198.573
0
LINE
8
BLACK
6
CONTINUOUS
10
221.547
20
-199.774
11
219.822
21
-199.774
0
LINE
8
BLACK
6
CONTINUOUS
10
221.547
20
-206.044
11
221.547
21
-199.774
0
LINE
8
BLACK
6
CONTINUOUS
10
222.371
20
-206.044
11
221.547
21
-206.044
0
LINE
8
BLACK
6
CONTINUOUS
10
222.371
20
-208.843
11
222.371
21
-206.044
0
LINE
8
BLACK
6
CONTINUOUS
10
221.547
20
-208.843
11
222.371
21
-208.843
0
LINE
8
BLACK
6
CONTINUOUS
10
221.547
20
-212.073
11
221.547
21
-208.843
0
LINE
8
BLACK
6
CONTINUOUS
10
214.796
20
-212.073
11
221.547
21
-212.073
0
LINE
8
BLACK
6
CONTINUOUS
10
214.796
20
-208.843
11
214.796
21
-212.073
0
LINE
8
BLACK
6
CONTINUOUS
10
175.172
20
-208.843
11
214.796
21
-208.843
0
LINE
8
BLACK
6
CONTINUOUS
10
175.172
20
-213.543
11
175.172
21
-208.843
0
LINE
8
BLACK
6
CONTINUOUS
10
292.827
20
-64.0134
11
292.827
21
-85.3494
0
LINE
8
BLACK
6
CONTINUOUS
10
239.944
20
-85.3494
11
239.944
21
-64.0134
0
LINE
8
BLACK
6
CONTINUOUS
10
239.944
20
-85.3494
11
292.827
21
-85.3494
0
LINE
8
BLACK
6
CONTINUOUS
10
239.944
20
-64.0134
11
292.827
21
-64.0134
  0
ENDSEC
  0
EOF
