  0
SECTION
  2
HEADER
  9
$ANGBASE
  50
0.0
  9
$ANGDIR
  70
1
  9
$MEASUREMENT
  70
1
  0
ENDSEC
  0
SECTION
  2
TABLES
  0
TABLE
  2
LTYPE
  70
4
  0
LTYPE
  5
40F
  2
CONTINUOUS
  70
0
  3
Solid line
  72
65
  73
0
  40
0.0
  0
LTYPE
  5
410
  2
DASHDOT
 70
0
  3
Dash Dot ____ _ ____ _
 72
65
 73
4
 40
2.0
 49
1.25
 49
-0.25
 49
0.25
 49
-0.25
  0
LTYPE
  5
411
  2
DASHED
 70
0
  3
Dashed __ __ __ __ __
 72
65
 73
2
 40
0.75
 49
0.5
 49
-0.25
  0
LTYPE
  5
43B
  2
DOTTED
 70
0
  3
Dotted .  .  .  .
 72
65
 73
2
 40
0.2
 49
0.0
 49
-0.2
  0
ENDTAB
  0
TABLE
  2
STYLE
  70
4
  0
STYLE
  2
KICAD
  70
0
  40
0
  41
1
  42
1
  50
0
  71
0
  3
isocp.shx
  0
STYLE
  2
KICADB
  70
0
  40
0
  41
1
  42
1
  50
0
  71
0
  3
isocp.shx
  0
STYLE
  2
KICADI
  70
0
  40
0
  41
1
  42
1
  50
15
  71
0
  3
isocp.shx
  0
STYLE
  2
KICADBI
  70
0
  40
0
  41
1
  42
1
  50
15
  71
0
  3
isocp.shx
  0
ENDTAB
  0
TABLE
  2
LAYER
  70
1
  0
LAYER
  2
BLACK
  70
0
  62
7
  6
CONTINUOUS
  0
ENDTAB
  0
ENDSEC
  0
SECTION
  2
ENTITIES
0
ARC
8
BLACK
10
380.767
20
-212.785
40
3
50
-90
51
-0
0
LINE
8
BLACK
6
CONTINUOUS
10
39.7246
20
-108.784
11
39.7246
21
-94.785
0
LINE
8
BLACK
6
CONTINUOUS
10
53.7242
20
-108.784
11
39.7246
21
-108.784
0
LINE
8
BLACK
6
CONTINUOUS
10
53.7242
20
-94.785
11
53.7242
21
-108.784
0
LINE
8
BLACK
6
CONTINUOUS
10
39.7246
20
-94.785
11
53.7242
21
-94.785
0
LINE
8
BLACK
6
CONTINUOUS
10
77.8247
20
-108.784
11
77.8247
21
-94.785
0
LINE
8
BLACK
6
CONTINUOUS
10
91.824
20
-108.784
11
77.8247
21
-108.784
0
LINE
8
BLACK
6
CONTINUOUS
10
91.824
20
-94.785
11
91.824
21
-108.784
0
LINE
8
BLACK
6
CONTINUOUS
10
77.8247
20
-94.785
11
91.824
21
-94.785
0
LINE
8
BLACK
6
CONTINUOUS
10
96.8747
20
-108.784
11
96.8747
21
-94.785
0
LINE
8
BLACK
6
CONTINUOUS
10
110.874
20
-108.784
11
96.8747
21
-108.784
0
LINE
8
BLACK
6
CONTINUOUS
10
110.874
20
-94.785
11
110.874
21
-108.784
0
LINE
8
BLACK
6
CONTINUOUS
10
96.8747
20
-94.785
11
110.874
21
-94.785
0
LINE
8
BLACK
6
CONTINUOUS
10
115.925
20
-108.784
11
115.925
21
-94.785
0
LINE
8
BLACK
6
CONTINUOUS
10
129.924
20
-108.784
11
115.925
21
-108.784
0
LINE
8
BLACK
6
CONTINUOUS
10
129.924
20
-94.785
11
129.924
21
-108.784
0
LINE
8
BLACK
6
CONTINUOUS
10
115.925
20
-94.785
11
129.924
21
-94.785
0
LINE
8
BLACK
6
CONTINUOUS
10
134.973
20
-108.784
11
134.973
21
-94.785
0
LINE
8
BLACK
6
CONTINUOUS
10
148.974
20
-108.784
11
134.973
21
-108.784
0
LINE
8
BLACK
6
CONTINUOUS
10
148.974
20
-94.785
11
148.974
21
-108.784
0
LINE
8
BLACK
6
CONTINUOUS
10
134.973
20
-94.785
11
148.974
21
-94.785
0
LINE
8
BLACK
6
CONTINUOUS
10
163.55
20
-108.784
11
163.55
21
-94.785
0
LINE
8
BLACK
6
CONTINUOUS
10
177.549
20
-108.784
11
163.55
21
-108.784
0
LINE
8
BLACK
6
CONTINUOUS
10
177.549
20
-94.785
11
177.549
21
-108.784
0
LINE
8
BLACK
6
CONTINUOUS
10
163.55
20
-94.785
11
177.549
21
-94.785
0
LINE
8
BLACK
6
CONTINUOUS
10
182.6
20
-108.784
11
182.6
21
-94.785
0
LINE
8
BLACK
6
CONTINUOUS
10
196.599
20
-108.784
11
182.6
21
-108.784
0
LINE
8
BLACK
6
CONTINUOUS
10
196.599
20
-94.785
11
196.599
21
-108.784
0
LINE
8
BLACK
6
CONTINUOUS
10
182.6
20
-94.785
11
196.599
21
-94.785
0
LINE
8
BLACK
6
CONTINUOUS
10
201.65
20
-108.784
11
201.65
21
-94.785
0
LINE
8
BLACK
6
CONTINUOUS
10
215.649
20
-108.784
11
201.65
21
-108.784
0
LINE
8
BLACK
6
CONTINUOUS
10
215.649
20
-94.785
11
215.649
21
-108.784
0
LINE
8
BLACK
6
CONTINUOUS
10
201.65
20
-94.785
11
215.649
21
-94.785
0
LINE
8
BLACK
6
CONTINUOUS
10
220.7
20
-108.784
11
220.7
21
-94.785
0
LINE
8
BLACK
6
CONTINUOUS
10
234.699
20
-108.784
11
220.7
21
-108.784
0
LINE
8
BLACK
6
CONTINUOUS
10
234.699
20
-94.785
11
234.699
21
-108.784
0
LINE
8
BLACK
6
CONTINUOUS
10
220.7
20
-94.785
11
234.699
21
-94.785
0
LINE
8
BLACK
6
CONTINUOUS
10
249.275
20
-108.784
11
249.275
21
-94.785
0
LINE
8
BLACK
6
CONTINUOUS
10
263.274
20
-108.784
11
249.275
21
-108.784
0
LINE
8
BLACK
6
CONTINUOUS
10
263.274
20
-94.785
11
263.274
21
-108.784
0
LINE
8
BLACK
6
CONTINUOUS
10
249.275
20
-94.785
11
263.274
21
-94.785
0
LINE
8
BLACK
6
CONTINUOUS
10
268.325
20
-108.784
11
268.325
21
-94.785
0
LINE
8
BLACK
6
CONTINUOUS
10
282.324
20
-108.784
11
268.325
21
-108.784
0
LINE
8
BLACK
6
CONTINUOUS
10
282.324
20
-94.785
11
282.324
21
-108.784
0
LINE
8
BLACK
6
CONTINUOUS
10
268.325
20
-94.785
11
282.324
21
-94.785
0
LINE
8
BLACK
6
CONTINUOUS
10
287.375
20
-108.784
11
287.375
21
-94.785
0
LINE
8
BLACK
6
CONTINUOUS
10
301.374
20
-108.784
11
287.375
21
-108.784
0
LINE
8
BLACK
6
CONTINUOUS
10
301.374
20
-94.785
11
301.374
21
-108.784
0
LINE
8
BLACK
6
CONTINUOUS
10
287.375
20
-94.785
11
301.374
21
-94.785
0
LINE
8
BLACK
6
CONTINUOUS
10
306.425
20
-108.784
11
306.425
21
-94.785
0
LINE
8
BLACK
6
CONTINUOUS
10
320.424
20
-108.784
11
306.425
21
-108.784
0
LINE
8
BLACK
6
CONTINUOUS
10
320.424
20
-94.785
11
320.424
21
-108.784
0
LINE
8
BLACK
6
CONTINUOUS
10
306.425
20
-94.785
11
320.424
21
-94.785
0
LINE
8
BLACK
6
CONTINUOUS
10
330.237
20
-108.784
11
330.237
21
-94.785
0
LINE
8
BLACK
6
CONTINUOUS
10
344.237
20
-108.784
11
330.237
21
-108.784
0
LINE
8
BLACK
6
CONTINUOUS
10
344.237
20
-94.785
11
344.237
21
-108.784
0
LINE
8
BLACK
6
CONTINUOUS
10
330.237
20
-94.785
11
344.237
21
-94.785
0
LINE
8
BLACK
6
CONTINUOUS
10
349.287
20
-108.784
11
349.287
21
-94.785
0
LINE
8
BLACK
6
CONTINUOUS
10
363.287
20
-108.784
11
349.287
21
-108.784
0
LINE
8
BLACK
6
CONTINUOUS
10
363.287
20
-94.785
11
363.287
21
-108.784
0
LINE
8
BLACK
6
CONTINUOUS
10
349.287
20
-94.785
11
363.287
21
-94.785
0
LINE
8
BLACK
6
CONTINUOUS
10
368.337
20
-108.784
11
368.337
21
-94.785
0
LINE
8
BLACK
6
CONTINUOUS
10
382.337
20
-108.784
11
368.337
21
-108.784
0
LINE
8
BLACK
6
CONTINUOUS
10
382.337
20
-94.785
11
382.337
21
-108.784
0
LINE
8
BLACK
6
CONTINUOUS
10
368.337
20
-94.785
11
382.337
21
-94.785
0
LINE
8
BLACK
6
CONTINUOUS
10
39.7246
20
-137.359
11
39.7246
21
-123.36
0
LINE
8
BLACK
6
CONTINUOUS
10
53.7242
20
-137.359
11
39.7246
21
-137.359
0
LINE
8
BLACK
6
CONTINUOUS
10
53.7242
20
-123.36
11
53.7242
21
-137.359
0
LINE
8
BLACK
6
CONTINUOUS
10
39.7246
20
-123.36
11
53.7242
21
-123.36
0
LINE
8
BLACK
6
CONTINUOUS
10
58.7747
20
-137.359
11
58.7747
21
-123.36
0
LINE
8
BLACK
6
CONTINUOUS
10
72.774
20
-137.359
11
58.7747
21
-137.359
0
LINE
8
BLACK
6
CONTINUOUS
10
72.774
20
-123.36
11
72.774
21
-137.359
0
LINE
8
BLACK
6
CONTINUOUS
10
58.7747
20
-123.36
11
72.774
21
-123.36
0
LINE
8
BLACK
6
CONTINUOUS
10
77.8247
20
-137.359
11
77.8247
21
-123.36
0
LINE
8
BLACK
6
CONTINUOUS
10
91.824
20
-137.359
11
77.8247
21
-137.359
0
LINE
8
BLACK
6
CONTINUOUS
10
91.824
20
-123.36
11
91.824
21
-137.359
0
LINE
8
BLACK
6
CONTINUOUS
10
77.8247
20
-123.36
11
91.824
21
-123.36
0
LINE
8
BLACK
6
CONTINUOUS
10
96.8747
20
-137.359
11
96.8747
21
-123.36
0
LINE
8
BLACK
6
CONTINUOUS
10
110.874
20
-137.359
11
96.8747
21
-137.359
0
LINE
8
BLACK
6
CONTINUOUS
10
110.874
20
-123.36
11
110.874
21
-137.359
0
LINE
8
BLACK
6
CONTINUOUS
10
96.8747
20
-123.36
11
110.874
21
-123.36
0
LINE
8
BLACK
6
CONTINUOUS
10
115.925
20
-137.359
11
115.925
21
-123.36
0
LINE
8
BLACK
6
CONTINUOUS
10
129.924
20
-137.359
11
115.925
21
-137.359
0
LINE
8
BLACK
6
CONTINUOUS
10
129.924
20
-123.36
11
129.924
21
-137.359
0
LINE
8
BLACK
6
CONTINUOUS
10
115.925
20
-123.36
11
129.924
21
-123.36
0
LINE
8
BLACK
6
CONTINUOUS
10
134.973
20
-137.359
11
134.973
21
-123.36
0
LINE
8
BLACK
6
CONTINUOUS
10
148.974
20
-137.359
11
134.973
21
-137.359
0
LINE
8
BLACK
6
CONTINUOUS
10
148.974
20
-123.36
11
148.974
21
-137.359
0
LINE
8
BLACK
6
CONTINUOUS
10
134.973
20
-123.36
11
148.974
21
-123.36
0
LINE
8
BLACK
6
CONTINUOUS
10
154.023
20
-137.359
11
154.023
21
-123.36
0
LINE
8
BLACK
6
CONTINUOUS
10
168.024
20
-137.359
11
154.023
21
-137.359
0
LINE
8
BLACK
6
CONTINUOUS
10
168.024
20
-123.36
11
168.024
21
-137.359
0
LINE
8
BLACK
6
CONTINUOUS
10
154.023
20
-123.36
11
168.024
21
-123.36
0
LINE
8
BLACK
6
CONTINUOUS
10
173.075
20
-137.359
11
173.075
21
-123.36
0
LINE
8
BLACK
6
CONTINUOUS
10
187.074
20
-137.359
11
173.075
21
-137.359
0
LINE
8
BLACK
6
CONTINUOUS
10
187.074
20
-123.36
11
187.074
21
-137.359
0
LINE
8
BLACK
6
CONTINUOUS
10
173.075
20
-123.36
11
187.074
21
-123.36
0
LINE
8
BLACK
6
CONTINUOUS
10
192.125
20
-137.359
11
192.125
21
-123.36
0
LINE
8
BLACK
6
CONTINUOUS
10
206.124
20
-137.359
11
192.125
21
-137.359
0
LINE
8
BLACK
6
CONTINUOUS
10
206.124
20
-123.36
11
206.124
21
-137.359
0
LINE
8
BLACK
6
CONTINUOUS
10
192.125
20
-123.36
11
206.124
21
-123.36
0
LINE
8
BLACK
6
CONTINUOUS
10
211.175
20
-137.359
11
211.175
21
-123.36
0
LINE
8
BLACK
6
CONTINUOUS
10
225.174
20
-137.359
11
211.175
21
-137.359
0
LINE
8
BLACK
6
CONTINUOUS
10
225.174
20
-123.36
11
225.174
21
-137.359
0
LINE
8
BLACK
6
CONTINUOUS
10
211.175
20
-123.36
11
225.174
21
-123.36
0
LINE
8
BLACK
6
CONTINUOUS
10
230.225
20
-137.359
11
230.225
21
-123.36
0
LINE
8
BLACK
6
CONTINUOUS
10
244.224
20
-137.359
11
230.225
21
-137.359
0
LINE
8
BLACK
6
CONTINUOUS
10
244.224
20
-123.36
11
244.224
21
-137.359
0
LINE
8
BLACK
6
CONTINUOUS
10
230.225
20
-123.36
11
244.224
21
-123.36
0
LINE
8
BLACK
6
CONTINUOUS
10
249.275
20
-137.359
11
249.275
21
-123.36
0
LINE
8
BLACK
6
CONTINUOUS
10
263.274
20
-137.359
11
249.275
21
-137.359
0
LINE
8
BLACK
6
CONTINUOUS
10
263.274
20
-123.36
11
263.274
21
-137.359
0
LINE
8
BLACK
6
CONTINUOUS
10
249.275
20
-123.36
11
263.274
21
-123.36
0
LINE
8
BLACK
6
CONTINUOUS
10
268.325
20
-137.359
11
268.325
21
-123.36
0
LINE
8
BLACK
6
CONTINUOUS
10
282.324
20
-137.359
11
268.325
21
-137.359
0
LINE
8
BLACK
6
CONTINUOUS
10
282.324
20
-123.36
11
282.324
21
-137.359
0
LINE
8
BLACK
6
CONTINUOUS
10
268.325
20
-123.36
11
282.324
21
-123.36
0
LINE
8
BLACK
6
CONTINUOUS
10
330.237
20
-137.359
11
330.237
21
-123.36
0
LINE
8
BLACK
6
CONTINUOUS
10
344.237
20
-137.359
11
330.237
21
-137.359
0
LINE
8
BLACK
6
CONTINUOUS
10
344.237
20
-123.36
11
344.237
21
-137.359
0
LINE
8
BLACK
6
CONTINUOUS
10
330.237
20
-123.36
11
344.237
21
-123.36
0
LINE
8
BLACK
6
CONTINUOUS
10
349.287
20
-137.359
11
349.287
21
-123.36
0
LINE
8
BLACK
6
CONTINUOUS
10
363.287
20
-137.359
11
349.287
21
-137.359
0
LINE
8
BLACK
6
CONTINUOUS
10
363.287
20
-123.36
11
363.287
21
-137.359
0
LINE
8
BLACK
6
CONTINUOUS
10
349.287
20
-123.36
11
363.287
21
-123.36
0
LINE
8
BLACK
6
CONTINUOUS
10
368.337
20
-137.359
11
368.337
21
-123.36
0
LINE
8
BLACK
6
CONTINUOUS
10
382.337
20
-137.359
11
368.337
21
-137.359
0
LINE
8
BLACK
6
CONTINUOUS
10
382.337
20
-123.36
11
382.337
21
-137.359
0
LINE
8
BLACK
6
CONTINUOUS
10
368.337
20
-123.36
11
382.337
21
-123.36
0
LINE
8
BLACK
6
CONTINUOUS
10
310.899
20
-123.36
11
296.9
21
-123.36
0
LINE
8
BLACK
6
CONTINUOUS
10
310.899
20
-128.06
11
310.899
21
-123.36
0
LINE
8
BLACK
6
CONTINUOUS
10
312.425
20
-128.06
11
310.899
21
-128.06
0
LINE
8
BLACK
6
CONTINUOUS
10
312.425
20
-124.83
11
312.425
21
-128.06
0
LINE
8
BLACK
6
CONTINUOUS
10
319.174
20
-124.83
11
312.425
21
-124.83
0
LINE
8
BLACK
6
CONTINUOUS
10
319.174
20
-128.06
11
319.174
21
-124.83
0
LINE
8
BLACK
6
CONTINUOUS
10
320
20
-128.06
11
319.174
21
-128.06
0
LINE
8
BLACK
6
CONTINUOUS
10
320
20
-130.859
11
320
21
-128.06
0
LINE
8
BLACK
6
CONTINUOUS
10
319.174
20
-130.859
11
320
21
-130.859
0
LINE
8
BLACK
6
CONTINUOUS
10
319.174
20
-137.129
11
319.174
21
-130.859
0
LINE
8
BLACK
6
CONTINUOUS
10
317.449
20
-137.129
11
319.174
21
-137.129
0
LINE
8
BLACK
6
CONTINUOUS
10
317.449
20
-138.329
11
317.449
21
-137.129
0
LINE
8
BLACK
6
CONTINUOUS
10
314.15
20
-138.329
11
317.449
21
-138.329
0
LINE
8
BLACK
6
CONTINUOUS
10
314.15
20
-137.129
11
314.15
21
-138.329
0
LINE
8
BLACK
6
CONTINUOUS
10
312.425
20
-137.129
11
314.15
21
-137.129
0
LINE
8
BLACK
6
CONTINUOUS
10
312.425
20
-132.66
11
312.425
21
-137.129
0
LINE
8
BLACK
6
CONTINUOUS
10
310.899
20
-132.66
11
312.425
21
-132.66
0
LINE
8
BLACK
6
CONTINUOUS
10
310.899
20
-137.359
11
310.899
21
-132.66
0
LINE
8
BLACK
6
CONTINUOUS
10
296.9
20
-137.359
11
310.899
21
-137.359
0
LINE
8
BLACK
6
CONTINUOUS
10
296.9
20
-132.66
11
296.9
21
-137.359
0
LINE
8
BLACK
6
CONTINUOUS
10
295.374
20
-132.66
11
296.9
21
-132.66
0
LINE
8
BLACK
6
CONTINUOUS
10
295.374
20
-137.129
11
295.374
21
-132.66
0
LINE
8
BLACK
6
CONTINUOUS
10
293.649
20
-137.129
11
295.374
21
-137.129
0
LINE
8
BLACK
6
CONTINUOUS
10
293.649
20
-138.329
11
293.649
21
-137.129
0
LINE
8
BLACK
6
CONTINUOUS
10
290.348
20
-138.329
11
293.649
21
-138.329
0
LINE
8
BLACK
6
CONTINUOUS
10
290.348
20
-137.129
11
290.348
21
-138.329
0
LINE
8
BLACK
6
CONTINUOUS
10
288.625
20
-137.129
11
290.348
21
-137.129
0
LINE
8
BLACK
6
CONTINUOUS
10
288.625
20
-130.859
11
288.625
21
-137.129
0
LINE
8
BLACK
6
CONTINUOUS
10
287.799
20
-130.859
11
288.625
21
-130.859
0
LINE
8
BLACK
6
CONTINUOUS
10
287.799
20
-128.06
11
287.799
21
-130.859
0
LINE
8
BLACK
6
CONTINUOUS
10
288.625
20
-128.06
11
287.799
21
-128.06
0
LINE
8
BLACK
6
CONTINUOUS
10
288.625
20
-124.83
11
288.625
21
-128.06
0
LINE
8
BLACK
6
CONTINUOUS
10
295.374
20
-124.83
11
288.625
21
-124.83
0
LINE
8
BLACK
6
CONTINUOUS
10
295.374
20
-128.06
11
295.374
21
-124.83
0
LINE
8
BLACK
6
CONTINUOUS
10
296.9
20
-128.06
11
295.374
21
-128.06
0
LINE
8
BLACK
6
CONTINUOUS
10
296.9
20
-123.36
11
296.9
21
-128.06
0
LINE
8
BLACK
6
CONTINUOUS
10
44.4872
20
-156.409
11
44.4872
21
-142.41
0
LINE
8
BLACK
6
CONTINUOUS
10
58.4867
20
-156.409
11
44.4872
21
-156.409
0
LINE
8
BLACK
6
CONTINUOUS
10
58.4867
20
-142.41
11
58.4867
21
-156.409
0
LINE
8
BLACK
6
CONTINUOUS
10
44.4872
20
-142.41
11
58.4867
21
-142.41
0
LINE
8
BLACK
6
CONTINUOUS
10
68.2997
20
-156.409
11
68.2997
21
-142.41
0
LINE
8
BLACK
6
CONTINUOUS
10
82.299
20
-156.409
11
68.2997
21
-156.409
0
LINE
8
BLACK
6
CONTINUOUS
10
82.299
20
-142.41
11
82.299
21
-156.409
0
LINE
8
BLACK
6
CONTINUOUS
10
68.2997
20
-142.41
11
82.299
21
-142.41
0
LINE
8
BLACK
6
CONTINUOUS
10
87.3497
20
-156.409
11
87.3497
21
-142.41
0
LINE
8
BLACK
6
CONTINUOUS
10
101.349
20
-156.409
11
87.3497
21
-156.409
0
LINE
8
BLACK
6
CONTINUOUS
10
101.349
20
-142.41
11
101.349
21
-156.409
0
LINE
8
BLACK
6
CONTINUOUS
10
87.3497
20
-142.41
11
101.349
21
-142.41
0
LINE
8
BLACK
6
CONTINUOUS
10
106.4
20
-156.409
11
106.4
21
-142.41
0
LINE
8
BLACK
6
CONTINUOUS
10
120.399
20
-156.409
11
106.4
21
-156.409
0
LINE
8
BLACK
6
CONTINUOUS
10
120.399
20
-142.41
11
120.399
21
-156.409
0
LINE
8
BLACK
6
CONTINUOUS
10
106.4
20
-142.41
11
120.399
21
-142.41
0
LINE
8
BLACK
6
CONTINUOUS
10
125.45
20
-156.409
11
125.45
21
-142.41
0
LINE
8
BLACK
6
CONTINUOUS
10
139.449
20
-156.409
11
125.45
21
-156.409
0
LINE
8
BLACK
6
CONTINUOUS
10
139.449
20
-142.41
11
139.449
21
-156.409
0
LINE
8
BLACK
6
CONTINUOUS
10
125.45
20
-142.41
11
139.449
21
-142.41
0
LINE
8
BLACK
6
CONTINUOUS
10
144.5
20
-156.409
11
144.5
21
-142.41
0
LINE
8
BLACK
6
CONTINUOUS
10
158.499
20
-156.409
11
144.5
21
-156.409
0
LINE
8
BLACK
6
CONTINUOUS
10
158.499
20
-142.41
11
158.499
21
-156.409
0
LINE
8
BLACK
6
CONTINUOUS
10
144.5
20
-142.41
11
158.499
21
-142.41
0
LINE
8
BLACK
6
CONTINUOUS
10
163.55
20
-156.409
11
163.55
21
-142.41
0
LINE
8
BLACK
6
CONTINUOUS
10
177.549
20
-156.409
11
163.55
21
-156.409
0
LINE
8
BLACK
6
CONTINUOUS
10
177.549
20
-142.41
11
177.549
21
-156.409
0
LINE
8
BLACK
6
CONTINUOUS
10
163.55
20
-142.41
11
177.549
21
-142.41
0
LINE
8
BLACK
6
CONTINUOUS
10
182.6
20
-156.409
11
182.6
21
-142.41
0
LINE
8
BLACK
6
CONTINUOUS
10
196.599
20
-156.409
11
182.6
21
-156.409
0
LINE
8
BLACK
6
CONTINUOUS
10
196.599
20
-142.41
11
196.599
21
-156.409
0
LINE
8
BLACK
6
CONTINUOUS
10
182.6
20
-142.41
11
196.599
21
-142.41
0
LINE
8
BLACK
6
CONTINUOUS
10
201.65
20
-156.409
11
201.65
21
-142.41
0
LINE
8
BLACK
6
CONTINUOUS
10
215.649
20
-156.409
11
201.65
21
-156.409
0
LINE
8
BLACK
6
CONTINUOUS
10
215.649
20
-142.41
11
215.649
21
-156.409
0
LINE
8
BLACK
6
CONTINUOUS
10
201.65
20
-142.41
11
215.649
21
-142.41
0
LINE
8
BLACK
6
CONTINUOUS
10
220.7
20
-156.409
11
220.7
21
-142.41
0
LINE
8
BLACK
6
CONTINUOUS
10
234.699
20
-156.409
11
220.7
21
-156.409
0
LINE
8
BLACK
6
CONTINUOUS
10
234.699
20
-142.41
11
234.699
21
-156.409
0
LINE
8
BLACK
6
CONTINUOUS
10
220.7
20
-142.41
11
234.699
21
-142.41
0
LINE
8
BLACK
6
CONTINUOUS
10
239.75
20
-156.409
11
239.75
21
-142.41
0
LINE
8
BLACK
6
CONTINUOUS
10
253.749
20
-156.409
11
239.75
21
-156.409
0
LINE
8
BLACK
6
CONTINUOUS
10
253.749
20
-142.41
11
253.749
21
-156.409
0
LINE
8
BLACK
6
CONTINUOUS
10
239.75
20
-142.41
11
253.749
21
-142.41
0
LINE
8
BLACK
6
CONTINUOUS
10
258.8
20
-156.409
11
258.8
21
-142.41
0
LINE
8
BLACK
6
CONTINUOUS
10
272.799
20
-156.409
11
258.8
21
-156.409
0
LINE
8
BLACK
6
CONTINUOUS
10
272.799
20
-142.41
11
272.799
21
-156.409
0
LINE
8
BLACK
6
CONTINUOUS
10
258.8
20
-142.41
11
272.799
21
-142.41
0
LINE
8
BLACK
6
CONTINUOUS
10
277.85
20
-156.409
11
277.85
21
-142.41
0
LINE
8
BLACK
6
CONTINUOUS
10
291.849
20
-156.409
11
277.85
21
-156.409
0
LINE
8
BLACK
6
CONTINUOUS
10
291.849
20
-142.41
11
291.849
21
-156.409
0
LINE
8
BLACK
6
CONTINUOUS
10
277.85
20
-142.41
11
291.849
21
-142.41
0
LINE
8
BLACK
6
CONTINUOUS
10
330.237
20
-156.409
11
330.237
21
-142.41
0
LINE
8
BLACK
6
CONTINUOUS
10
344.237
20
-156.409
11
330.237
21
-156.409
0
LINE
8
BLACK
6
CONTINUOUS
10
344.237
20
-142.41
11
344.237
21
-156.409
0
LINE
8
BLACK
6
CONTINUOUS
10
330.237
20
-142.41
11
344.237
21
-142.41
0
LINE
8
BLACK
6
CONTINUOUS
10
349.287
20
-156.409
11
349.287
21
-142.41
0
LINE
8
BLACK
6
CONTINUOUS
10
363.287
20
-156.409
11
349.287
21
-156.409
0
LINE
8
BLACK
6
CONTINUOUS
10
363.287
20
-142.41
11
363.287
21
-156.409
0
LINE
8
BLACK
6
CONTINUOUS
10
349.287
20
-142.41
11
363.287
21
-142.41
0
LINE
8
BLACK
6
CONTINUOUS
10
368.337
20
-156.409
11
368.337
21
-142.41
0
LINE
8
BLACK
6
CONTINUOUS
10
382.337
20
-156.409
11
368.337
21
-156.409
0
LINE
8
BLACK
6
CONTINUOUS
10
382.337
20
-142.41
11
382.337
21
-156.409
0
LINE
8
BLACK
6
CONTINUOUS
10
368.337
20
-142.41
11
382.337
21
-142.41
0
LINE
8
BLACK
6
CONTINUOUS
10
313.342
20
-142.834
11
310.542
21
-142.834
0
LINE
8
BLACK
6
CONTINUOUS
10
313.342
20
-143.66
11
313.342
21
-142.834
0
LINE
8
BLACK
6
CONTINUOUS
10
316.572
20
-143.66
11
313.342
21
-143.66
0
LINE
8
BLACK
6
CONTINUOUS
10
316.572
20
-150.41
11
316.572
21
-143.66
0
LINE
8
BLACK
6
CONTINUOUS
10
313.342
20
-150.41
11
316.572
21
-150.41
0
LINE
8
BLACK
6
CONTINUOUS
10
313.342
20
-151.935
11
313.342
21
-150.41
0
LINE
8
BLACK
6
CONTINUOUS
10
318.043
20
-151.935
11
313.342
21
-151.935
0
LINE
8
BLACK
6
CONTINUOUS
10
318.043
20
-165.934
11
318.043
21
-151.935
0
LINE
8
BLACK
6
CONTINUOUS
10
313.342
20
-165.934
11
318.043
21
-165.934
0
LINE
8
BLACK
6
CONTINUOUS
10
313.342
20
-167.46
11
313.342
21
-165.934
0
LINE
8
BLACK
6
CONTINUOUS
10
316.572
20
-167.46
11
313.342
21
-167.46
0
LINE
8
BLACK
6
CONTINUOUS
10
316.572
20
-174.209
11
316.572
21
-167.46
0
LINE
8
BLACK
6
CONTINUOUS
10
313.342
20
-174.209
11
316.572
21
-174.209
0
LINE
8
BLACK
6
CONTINUOUS
10
313.342
20
-175.035
11
313.342
21
-174.209
0
LINE
8
BLACK
6
CONTINUOUS
10
310.542
20
-175.035
11
313.342
21
-175.035
0
LINE
8
BLACK
6
CONTINUOUS
10
310.542
20
-174.209
11
310.542
21
-175.035
0
LINE
8
BLACK
6
CONTINUOUS
10
304.272
20
-174.209
11
310.542
21
-174.209
0
LINE
8
BLACK
6
CONTINUOUS
10
304.272
20
-172.484
11
304.272
21
-174.209
0
LINE
8
BLACK
6
CONTINUOUS
10
303.072
20
-172.484
11
304.272
21
-172.484
0
LINE
8
BLACK
6
CONTINUOUS
10
303.072
20
-169.185
11
303.072
21
-172.484
0
LINE
8
BLACK
6
CONTINUOUS
10
304.272
20
-169.185
11
303.072
21
-169.185
0
LINE
8
BLACK
6
CONTINUOUS
10
304.272
20
-167.46
11
304.272
21
-169.185
0
LINE
8
BLACK
6
CONTINUOUS
10
308.742
20
-167.46
11
304.272
21
-167.46
0
LINE
8
BLACK
6
CONTINUOUS
10
308.742
20
-165.934
11
308.742
21
-167.46
0
LINE
8
BLACK
6
CONTINUOUS
10
304.042
20
-165.934
11
308.742
21
-165.934
0
LINE
8
BLACK
6
CONTINUOUS
10
304.042
20
-151.935
11
304.042
21
-165.934
0
LINE
8
BLACK
6
CONTINUOUS
10
308.742
20
-151.935
11
304.042
21
-151.935
0
LINE
8
BLACK
6
CONTINUOUS
10
308.742
20
-150.41
11
308.742
21
-151.935
0
LINE
8
BLACK
6
CONTINUOUS
10
304.272
20
-150.41
11
308.742
21
-150.41
0
LINE
8
BLACK
6
CONTINUOUS
10
304.272
20
-148.684
11
304.272
21
-150.41
0
LINE
8
BLACK
6
CONTINUOUS
10
303.072
20
-148.684
11
304.272
21
-148.684
0
LINE
8
BLACK
6
CONTINUOUS
10
303.072
20
-145.385
11
303.072
21
-148.684
0
LINE
8
BLACK
6
CONTINUOUS
10
304.272
20
-145.385
11
303.072
21
-145.385
0
LINE
8
BLACK
6
CONTINUOUS
10
304.272
20
-143.66
11
304.272
21
-145.385
0
LINE
8
BLACK
6
CONTINUOUS
10
310.542
20
-143.66
11
304.272
21
-143.66
0
LINE
8
BLACK
6
CONTINUOUS
10
310.542
20
-142.834
11
310.542
21
-143.66
0
LINE
8
BLACK
6
CONTINUOUS
10
46.867
20
-175.459
11
46.867
21
-161.46
0
LINE
8
BLACK
6
CONTINUOUS
10
60.8679
20
-175.459
11
46.867
21
-175.459
0
LINE
8
BLACK
6
CONTINUOUS
10
60.8679
20
-161.46
11
60.8679
21
-175.459
0
LINE
8
BLACK
6
CONTINUOUS
10
46.867
20
-161.46
11
60.8679
21
-161.46
0
LINE
8
BLACK
6
CONTINUOUS
10
73.0622
20
-175.459
11
73.0622
21
-161.46
0
LINE
8
BLACK
6
CONTINUOUS
10
87.0615
20
-175.459
11
73.0622
21
-175.459
0
LINE
8
BLACK
6
CONTINUOUS
10
87.0615
20
-161.46
11
87.0615
21
-175.459
0
LINE
8
BLACK
6
CONTINUOUS
10
73.0622
20
-161.46
11
87.0615
21
-161.46
0
LINE
8
BLACK
6
CONTINUOUS
10
92.1122
20
-175.459
11
92.1122
21
-161.46
0
LINE
8
BLACK
6
CONTINUOUS
10
106.111
20
-175.459
11
92.1122
21
-175.459
0
LINE
8
BLACK
6
CONTINUOUS
10
106.111
20
-161.46
11
106.111
21
-175.459
0
LINE
8
BLACK
6
CONTINUOUS
10
92.1122
20
-161.46
11
106.111
21
-161.46
0
LINE
8
BLACK
6
CONTINUOUS
10
111.162
20
-175.459
11
111.162
21
-161.46
0
LINE
8
BLACK
6
CONTINUOUS
10
125.161
20
-175.459
11
111.162
21
-175.459
0
LINE
8
BLACK
6
CONTINUOUS
10
125.161
20
-161.46
11
125.161
21
-175.459
0
LINE
8
BLACK
6
CONTINUOUS
10
111.162
20
-161.46
11
125.161
21
-161.46
0
LINE
8
BLACK
6
CONTINUOUS
10
130.212
20
-175.459
11
130.212
21
-161.46
0
LINE
8
BLACK
6
CONTINUOUS
10
144.212
20
-175.459
11
130.212
21
-175.459
0
LINE
8
BLACK
6
CONTINUOUS
10
144.212
20
-161.46
11
144.212
21
-175.459
0
LINE
8
BLACK
6
CONTINUOUS
10
130.212
20
-161.46
11
144.212
21
-161.46
0
LINE
8
BLACK
6
CONTINUOUS
10
149.262
20
-175.459
11
149.262
21
-161.46
0
LINE
8
BLACK
6
CONTINUOUS
10
163.262
20
-175.459
11
149.262
21
-175.459
0
LINE
8
BLACK
6
CONTINUOUS
10
163.262
20
-161.46
11
163.262
21
-175.459
0
LINE
8
BLACK
6
CONTINUOUS
10
149.262
20
-161.46
11
163.262
21
-161.46
0
LINE
8
BLACK
6
CONTINUOUS
10
168.312
20
-175.459
11
168.312
21
-161.46
0
LINE
8
BLACK
6
CONTINUOUS
10
182.312
20
-175.459
11
168.312
21
-175.459
0
LINE
8
BLACK
6
CONTINUOUS
10
182.312
20
-161.46
11
182.312
21
-175.459
0
LINE
8
BLACK
6
CONTINUOUS
10
168.312
20
-161.46
11
182.312
21
-161.46
0
LINE
8
BLACK
6
CONTINUOUS
10
187.362
20
-175.459
11
187.362
21
-161.46
0
LINE
8
BLACK
6
CONTINUOUS
10
201.362
20
-175.459
11
187.362
21
-175.459
0
LINE
8
BLACK
6
CONTINUOUS
10
201.362
20
-161.46
11
201.362
21
-175.459
0
LINE
8
BLACK
6
CONTINUOUS
10
187.362
20
-161.46
11
201.362
21
-161.46
0
LINE
8
BLACK
6
CONTINUOUS
10
206.412
20
-175.459
11
206.412
21
-161.46
0
LINE
8
BLACK
6
CONTINUOUS
10
220.412
20
-175.459
11
206.412
21
-175.459
0
LINE
8
BLACK
6
CONTINUOUS
10
220.412
20
-161.46
11
220.412
21
-175.459
0
LINE
8
BLACK
6
CONTINUOUS
10
206.412
20
-161.46
11
220.412
21
-161.46
0
LINE
8
BLACK
6
CONTINUOUS
10
225.462
20
-175.459
11
225.462
21
-161.46
0
LINE
8
BLACK
6
CONTINUOUS
10
239.462
20
-175.459
11
225.462
21
-175.459
0
LINE
8
BLACK
6
CONTINUOUS
10
239.462
20
-161.46
11
239.462
21
-175.459
0
LINE
8
BLACK
6
CONTINUOUS
10
225.462
20
-161.46
11
239.462
21
-161.46
0
LINE
8
BLACK
6
CONTINUOUS
10
244.512
20
-175.459
11
244.512
21
-161.46
0
LINE
8
BLACK
6
CONTINUOUS
10
258.512
20
-175.459
11
244.512
21
-175.459
0
LINE
8
BLACK
6
CONTINUOUS
10
258.512
20
-161.46
11
258.512
21
-175.459
0
LINE
8
BLACK
6
CONTINUOUS
10
244.512
20
-161.46
11
258.512
21
-161.46
0
LINE
8
BLACK
6
CONTINUOUS
10
263.562
20
-175.459
11
263.562
21
-161.46
0
LINE
8
BLACK
6
CONTINUOUS
10
277.562
20
-175.459
11
263.562
21
-175.459
0
LINE
8
BLACK
6
CONTINUOUS
10
277.562
20
-161.46
11
277.562
21
-175.459
0
LINE
8
BLACK
6
CONTINUOUS
10
263.562
20
-161.46
11
277.562
21
-161.46
0
LINE
8
BLACK
6
CONTINUOUS
10
282.612
20
-175.459
11
282.612
21
-161.46
0
LINE
8
BLACK
6
CONTINUOUS
10
296.612
20
-175.459
11
282.612
21
-175.459
0
LINE
8
BLACK
6
CONTINUOUS
10
296.612
20
-161.46
11
296.612
21
-175.459
0
LINE
8
BLACK
6
CONTINUOUS
10
282.612
20
-161.46
11
296.612
21
-161.46
0
LINE
8
BLACK
6
CONTINUOUS
10
42.1059
20
-194.509
11
42.1059
21
-180.51
0
LINE
8
BLACK
6
CONTINUOUS
10
56.1054
20
-194.509
11
42.1059
21
-194.509
0
LINE
8
BLACK
6
CONTINUOUS
10
56.1054
20
-180.51
11
56.1054
21
-194.509
0
LINE
8
BLACK
6
CONTINUOUS
10
42.1059
20
-180.51
11
56.1054
21
-180.51
0
LINE
8
BLACK
6
CONTINUOUS
10
63.5372
20
-194.509
11
63.5372
21
-180.51
0
LINE
8
BLACK
6
CONTINUOUS
10
77.5365
20
-194.509
11
63.5372
21
-194.509
0
LINE
8
BLACK
6
CONTINUOUS
10
77.5365
20
-180.51
11
77.5365
21
-194.509
0
LINE
8
BLACK
6
CONTINUOUS
10
63.5372
20
-180.51
11
77.5365
21
-180.51
0
LINE
8
BLACK
6
CONTINUOUS
10
82.5872
20
-194.509
11
82.5872
21
-180.51
0
LINE
8
BLACK
6
CONTINUOUS
10
96.5865
20
-194.509
11
82.5872
21
-194.509
0
LINE
8
BLACK
6
CONTINUOUS
10
96.5865
20
-180.51
11
96.5865
21
-194.509
0
LINE
8
BLACK
6
CONTINUOUS
10
82.5872
20
-180.51
11
96.5865
21
-180.51
0
LINE
8
BLACK
6
CONTINUOUS
10
101.637
20
-194.509
11
101.637
21
-180.51
0
LINE
8
BLACK
6
CONTINUOUS
10
115.636
20
-194.509
11
101.637
21
-194.509
0
LINE
8
BLACK
6
CONTINUOUS
10
115.636
20
-180.51
11
115.636
21
-194.509
0
LINE
8
BLACK
6
CONTINUOUS
10
101.637
20
-180.51
11
115.636
21
-180.51
0
LINE
8
BLACK
6
CONTINUOUS
10
120.687
20
-194.509
11
120.687
21
-180.51
0
LINE
8
BLACK
6
CONTINUOUS
10
134.686
20
-194.509
11
120.687
21
-194.509
0
LINE
8
BLACK
6
CONTINUOUS
10
134.686
20
-180.51
11
134.686
21
-194.509
0
LINE
8
BLACK
6
CONTINUOUS
10
120.687
20
-180.51
11
134.686
21
-180.51
0
LINE
8
BLACK
6
CONTINUOUS
10
139.737
20
-194.509
11
139.737
21
-180.51
0
LINE
8
BLACK
6
CONTINUOUS
10
153.737
20
-194.509
11
139.737
21
-194.509
0
LINE
8
BLACK
6
CONTINUOUS
10
153.737
20
-180.51
11
153.737
21
-194.509
0
LINE
8
BLACK
6
CONTINUOUS
10
139.737
20
-180.51
11
153.737
21
-180.51
0
LINE
8
BLACK
6
CONTINUOUS
10
158.787
20
-194.509
11
158.787
21
-180.51
0
LINE
8
BLACK
6
CONTINUOUS
10
172.787
20
-194.509
11
158.787
21
-194.509
0
LINE
8
BLACK
6
CONTINUOUS
10
172.787
20
-180.51
11
172.787
21
-194.509
0
LINE
8
BLACK
6
CONTINUOUS
10
158.787
20
-180.51
11
172.787
21
-180.51
0
LINE
8
BLACK
6
CONTINUOUS
10
177.837
20
-194.509
11
177.837
21
-180.51
0
LINE
8
BLACK
6
CONTINUOUS
10
191.837
20
-194.509
11
177.837
21
-194.509
0
LINE
8
BLACK
6
CONTINUOUS
10
191.837
20
-180.51
11
191.837
21
-194.509
0
LINE
8
BLACK
6
CONTINUOUS
10
177.837
20
-180.51
11
191.837
21
-180.51
0
LINE
8
BLACK
6
CONTINUOUS
10
196.887
20
-194.509
11
196.887
21
-180.51
0
LINE
8
BLACK
6
CONTINUOUS
10
210.887
20
-194.509
11
196.887
21
-194.509
0
LINE
8
BLACK
6
CONTINUOUS
10
210.887
20
-180.51
11
210.887
21
-194.509
0
LINE
8
BLACK
6
CONTINUOUS
10
196.887
20
-180.51
11
210.887
21
-180.51
0
LINE
8
BLACK
6
CONTINUOUS
10
215.937
20
-194.509
11
215.937
21
-180.51
0
LINE
8
BLACK
6
CONTINUOUS
10
229.937
20
-194.509
11
215.937
21
-194.509
0
LINE
8
BLACK
6
CONTINUOUS
10
229.937
20
-180.51
11
229.937
21
-194.509
0
LINE
8
BLACK
6
CONTINUOUS
10
215.937
20
-180.51
11
229.937
21
-180.51
0
LINE
8
BLACK
6
CONTINUOUS
10
234.987
20
-194.509
11
234.987
21
-180.51
0
LINE
8
BLACK
6
CONTINUOUS
10
248.987
20
-194.509
11
234.987
21
-194.509
0
LINE
8
BLACK
6
CONTINUOUS
10
248.987
20
-180.51
11
248.987
21
-194.509
0
LINE
8
BLACK
6
CONTINUOUS
10
234.987
20
-180.51
11
248.987
21
-180.51
0
LINE
8
BLACK
6
CONTINUOUS
10
254.037
20
-194.509
11
254.037
21
-180.51
0
LINE
8
BLACK
6
CONTINUOUS
10
268.037
20
-194.509
11
254.037
21
-194.509
0
LINE
8
BLACK
6
CONTINUOUS
10
268.037
20
-180.51
11
268.037
21
-194.509
0
LINE
8
BLACK
6
CONTINUOUS
10
254.037
20
-180.51
11
268.037
21
-180.51
0
LINE
8
BLACK
6
CONTINUOUS
10
349.287
20
-194.509
11
349.287
21
-180.51
0
LINE
8
BLACK
6
CONTINUOUS
10
363.287
20
-194.509
11
349.287
21
-194.509
0
LINE
8
BLACK
6
CONTINUOUS
10
363.287
20
-180.51
11
363.287
21
-194.509
0
LINE
8
BLACK
6
CONTINUOUS
10
349.287
20
-180.51
11
363.287
21
-180.51
0
LINE
8
BLACK
6
CONTINUOUS
10
303.755
20
-180.51
11
289.755
21
-180.51
0
LINE
8
BLACK
6
CONTINUOUS
10
303.755
20
-185.21
11
303.755
21
-180.51
0
LINE
8
BLACK
6
CONTINUOUS
10
305.281
20
-185.21
11
303.755
21
-185.21
0
LINE
8
BLACK
6
CONTINUOUS
10
305.281
20
-181.98
11
305.281
21
-185.21
0
LINE
8
BLACK
6
CONTINUOUS
10
312.03
20
-181.98
11
305.281
21
-181.98
0
LINE
8
BLACK
6
CONTINUOUS
10
312.03
20
-185.21
11
312.03
21
-181.98
0
LINE
8
BLACK
6
CONTINUOUS
10
312.856
20
-185.21
11
312.03
21
-185.21
0
LINE
8
BLACK
6
CONTINUOUS
10
312.856
20
-188.009
11
312.856
21
-185.21
0
LINE
8
BLACK
6
CONTINUOUS
10
312.03
20
-188.009
11
312.856
21
-188.009
0
LINE
8
BLACK
6
CONTINUOUS
10
312.03
20
-194.279
11
312.03
21
-188.009
0
LINE
8
BLACK
6
CONTINUOUS
10
310.305
20
-194.279
11
312.03
21
-194.279
0
LINE
8
BLACK
6
CONTINUOUS
10
310.305
20
-195.48
11
310.305
21
-194.279
0
LINE
8
BLACK
6
CONTINUOUS
10
307.006
20
-195.48
11
310.305
21
-195.48
0
LINE
8
BLACK
6
CONTINUOUS
10
307.006
20
-194.279
11
307.006
21
-195.48
0
LINE
8
BLACK
6
CONTINUOUS
10
305.281
20
-194.279
11
307.006
21
-194.279
0
LINE
8
BLACK
6
CONTINUOUS
10
305.281
20
-189.81
11
305.281
21
-194.279
0
LINE
8
BLACK
6
CONTINUOUS
10
303.755
20
-189.81
11
305.281
21
-189.81
0
LINE
8
BLACK
6
CONTINUOUS
10
303.755
20
-194.509
11
303.755
21
-189.81
0
LINE
8
BLACK
6
CONTINUOUS
10
289.755
20
-194.509
11
303.755
21
-194.509
0
LINE
8
BLACK
6
CONTINUOUS
10
289.755
20
-189.81
11
289.755
21
-194.509
0
LINE
8
BLACK
6
CONTINUOUS
10
288.231
20
-189.81
11
289.755
21
-189.81
0
LINE
8
BLACK
6
CONTINUOUS
10
288.231
20
-194.279
11
288.231
21
-189.81
0
LINE
8
BLACK
6
CONTINUOUS
10
286.505
20
-194.279
11
288.231
21
-194.279
0
LINE
8
BLACK
6
CONTINUOUS
10
286.505
20
-195.48
11
286.505
21
-194.279
0
LINE
8
BLACK
6
CONTINUOUS
10
283.206
20
-195.48
11
286.505
21
-195.48
0
LINE
8
BLACK
6
CONTINUOUS
10
283.206
20
-194.279
11
283.206
21
-195.48
0
LINE
8
BLACK
6
CONTINUOUS
10
281.481
20
-194.279
11
283.206
21
-194.279
0
LINE
8
BLACK
6
CONTINUOUS
10
281.481
20
-188.009
11
281.481
21
-194.279
0
LINE
8
BLACK
6
CONTINUOUS
10
280.655
20
-188.009
11
281.481
21
-188.009
0
LINE
8
BLACK
6
CONTINUOUS
10
280.655
20
-185.21
11
280.655
21
-188.009
0
LINE
8
BLACK
6
CONTINUOUS
10
281.481
20
-185.21
11
280.655
21
-185.21
0
LINE
8
BLACK
6
CONTINUOUS
10
281.481
20
-181.98
11
281.481
21
-185.21
0
LINE
8
BLACK
6
CONTINUOUS
10
288.231
20
-181.98
11
281.481
21
-181.98
0
LINE
8
BLACK
6
CONTINUOUS
10
288.231
20
-185.21
11
288.231
21
-181.98
0
LINE
8
BLACK
6
CONTINUOUS
10
289.755
20
-185.21
11
288.231
21
-185.21
0
LINE
8
BLACK
6
CONTINUOUS
10
289.755
20
-180.51
11
289.755
21
-185.21
0
LINE
8
BLACK
6
CONTINUOUS
10
42.1059
20
-213.559
11
42.1059
21
-199.56
0
LINE
8
BLACK
6
CONTINUOUS
10
56.1054
20
-213.559
11
42.1059
21
-213.559
0
LINE
8
BLACK
6
CONTINUOUS
10
56.1054
20
-199.56
11
56.1054
21
-213.559
0
LINE
8
BLACK
6
CONTINUOUS
10
42.1059
20
-199.56
11
56.1054
21
-199.56
0
LINE
8
BLACK
6
CONTINUOUS
10
65.917
20
-213.559
11
65.917
21
-199.56
0
LINE
8
BLACK
6
CONTINUOUS
10
79.9178
20
-213.559
11
65.917
21
-213.559
0
LINE
8
BLACK
6
CONTINUOUS
10
79.9178
20
-199.56
11
79.9178
21
-213.559
0
LINE
8
BLACK
6
CONTINUOUS
10
65.917
20
-199.56
11
79.9178
21
-199.56
0
LINE
8
BLACK
6
CONTINUOUS
10
89.731
20
-213.559
11
89.731
21
-199.56
0
LINE
8
BLACK
6
CONTINUOUS
10
103.73
20
-213.559
11
89.731
21
-213.559
0
LINE
8
BLACK
6
CONTINUOUS
10
103.73
20
-199.56
11
103.73
21
-213.559
0
LINE
8
BLACK
6
CONTINUOUS
10
89.731
20
-199.56
11
103.73
21
-199.56
0
LINE
8
BLACK
6
CONTINUOUS
10
232.606
20
-213.559
11
232.606
21
-199.56
0
LINE
8
BLACK
6
CONTINUOUS
10
246.605
20
-213.559
11
232.606
21
-213.559
0
LINE
8
BLACK
6
CONTINUOUS
10
246.605
20
-199.56
11
246.605
21
-213.559
0
LINE
8
BLACK
6
CONTINUOUS
10
232.606
20
-199.56
11
246.605
21
-199.56
0
LINE
8
BLACK
6
CONTINUOUS
10
256.417
20
-213.559
11
256.417
21
-199.56
0
LINE
8
BLACK
6
CONTINUOUS
10
270.418
20
-213.559
11
256.417
21
-213.559
0
LINE
8
BLACK
6
CONTINUOUS
10
270.418
20
-199.56
11
270.418
21
-213.559
0
LINE
8
BLACK
6
CONTINUOUS
10
256.417
20
-199.56
11
270.418
21
-199.56
0
LINE
8
BLACK
6
CONTINUOUS
10
280.231
20
-213.559
11
280.231
21
-199.56
0
LINE
8
BLACK
6
CONTINUOUS
10
294.23
20
-213.559
11
280.231
21
-213.559
0
LINE
8
BLACK
6
CONTINUOUS
10
294.23
20
-199.56
11
294.23
21
-213.559
0
LINE
8
BLACK
6
CONTINUOUS
10
280.231
20
-199.56
11
294.23
21
-199.56
0
LINE
8
BLACK
6
CONTINUOUS
10
304.042
20
-213.559
11
304.042
21
-199.56
0
LINE
8
BLACK
6
CONTINUOUS
10
318.043
20
-213.559
11
304.042
21
-213.559
0
LINE
8
BLACK
6
CONTINUOUS
10
318.043
20
-199.56
11
318.043
21
-213.559
0
LINE
8
BLACK
6
CONTINUOUS
10
304.042
20
-199.56
11
318.043
21
-199.56
0
LINE
8
BLACK
6
CONTINUOUS
10
330.237
20
-213.559
11
330.237
21
-199.56
0
LINE
8
BLACK
6
CONTINUOUS
10
344.237
20
-213.559
11
330.237
21
-213.559
0
LINE
8
BLACK
6
CONTINUOUS
10
344.237
20
-199.56
11
344.237
21
-213.559
0
LINE
8
BLACK
6
CONTINUOUS
10
330.237
20
-199.56
11
344.237
21
-199.56
0
LINE
8
BLACK
6
CONTINUOUS
10
349.287
20
-213.559
11
349.287
21
-199.56
0
LINE
8
BLACK
6
CONTINUOUS
10
363.287
20
-213.559
11
349.287
21
-213.559
0
LINE
8
BLACK
6
CONTINUOUS
10
363.287
20
-199.56
11
363.287
21
-213.559
0
LINE
8
BLACK
6
CONTINUOUS
10
349.287
20
-199.56
11
363.287
21
-199.56
0
LINE
8
BLACK
6
CONTINUOUS
10
368.337
20
-213.559
11
368.337
21
-199.56
0
LINE
8
BLACK
6
CONTINUOUS
10
382.337
20
-213.559
11
368.337
21
-213.559
0
LINE
8
BLACK
6
CONTINUOUS
10
382.337
20
-199.56
11
382.337
21
-213.559
0
LINE
8
BLACK
6
CONTINUOUS
10
368.337
20
-199.56
11
382.337
21
-199.56
0
LINE
8
BLACK
6
CONTINUOUS
10
161.17
20
-213.56
11
175.171
21
-213.56
0
LINE
8
BLACK
6
CONTINUOUS
10
161.17
20
-208.86
11
161.17
21
-213.56
0
LINE
8
BLACK
6
CONTINUOUS
10
121.546
20
-208.86
11
161.17
21
-208.86
0
LINE
8
BLACK
6
CONTINUOUS
10
121.546
20
-212.09
11
121.546
21
-208.86
0
LINE
8
BLACK
6
CONTINUOUS
10
114.795
20
-212.09
11
121.546
21
-212.09
0
LINE
8
BLACK
6
CONTINUOUS
10
114.795
20
-208.86
11
114.795
21
-212.09
0
LINE
8
BLACK
6
CONTINUOUS
10
113.971
20
-208.86
11
114.795
21
-208.86
0
LINE
8
BLACK
6
CONTINUOUS
10
113.971
20
-206.061
11
113.971
21
-208.86
0
LINE
8
BLACK
6
CONTINUOUS
10
114.795
20
-206.061
11
113.971
21
-206.061
0
LINE
8
BLACK
6
CONTINUOUS
10
114.795
20
-199.791
11
114.795
21
-206.061
0
LINE
8
BLACK
6
CONTINUOUS
10
116.52
20
-199.791
11
114.795
21
-199.791
0
LINE
8
BLACK
6
CONTINUOUS
10
116.52
20
-198.59
11
116.52
21
-199.791
0
LINE
8
BLACK
6
CONTINUOUS
10
119.821
20
-198.59
11
116.52
21
-198.59
0
LINE
8
BLACK
6
CONTINUOUS
10
119.821
20
-199.791
11
119.821
21
-198.59
0
LINE
8
BLACK
6
CONTINUOUS
10
121.546
20
-199.791
11
119.821
21
-199.791
0
LINE
8
BLACK
6
CONTINUOUS
10
121.546
20
-204.26
11
121.546
21
-199.791
0
LINE
8
BLACK
6
CONTINUOUS
10
161.17
20
-204.26
11
121.546
21
-204.26
0
LINE
8
BLACK
6
CONTINUOUS
10
161.17
20
-199.561
11
161.17
21
-204.26
0
LINE
8
BLACK
6
CONTINUOUS
10
175.171
20
-199.561
11
161.17
21
-199.561
0
LINE
8
BLACK
6
CONTINUOUS
10
175.171
20
-204.26
11
175.171
21
-199.561
0
LINE
8
BLACK
6
CONTINUOUS
10
214.795
20
-204.26
11
175.171
21
-204.26
0
LINE
8
BLACK
6
CONTINUOUS
10
214.795
20
-199.791
11
214.795
21
-204.26
0
LINE
8
BLACK
6
CONTINUOUS
10
216.52
20
-199.791
11
214.795
21
-199.791
0
LINE
8
BLACK
6
CONTINUOUS
10
216.52
20
-198.59
11
216.52
21
-199.791
0
LINE
8
BLACK
6
CONTINUOUS
10
219.821
20
-198.59
11
216.52
21
-198.59
0
LINE
8
BLACK
6
CONTINUOUS
10
219.821
20
-199.791
11
219.821
21
-198.59
0
LINE
8
BLACK
6
CONTINUOUS
10
221.546
20
-199.791
11
219.821
21
-199.791
0
LINE
8
BLACK
6
CONTINUOUS
10
221.546
20
-206.061
11
221.546
21
-199.791
0
LINE
8
BLACK
6
CONTINUOUS
10
222.37
20
-206.061
11
221.546
21
-206.061
0
LINE
8
BLACK
6
CONTINUOUS
10
222.37
20
-208.86
11
222.37
21
-206.061
0
LINE
8
BLACK
6
CONTINUOUS
10
221.546
20
-208.86
11
222.37
21
-208.86
0
LINE
8
BLACK
6
CONTINUOUS
10
221.546
20
-212.09
11
221.546
21
-208.86
0
LINE
8
BLACK
6
CONTINUOUS
10
214.795
20
-212.09
11
221.546
21
-212.09
0
LINE
8
BLACK
6
CONTINUOUS
10
214.795
20
-208.86
11
214.795
21
-212.09
0
LINE
8
BLACK
6
CONTINUOUS
10
175.171
20
-208.86
11
214.795
21
-208.86
0
LINE
8
BLACK
6
CONTINUOUS
10
175.171
20
-213.56
11
175.171
21
-208.86
0
CIRCLE
8
BLACK
10
197.767
20
-68.98
40
2.10059
0
CIRCLE
8
BLACK
10
40.167
20
-196.305
40
1.15
0
CIRCLE
8
BLACK
10
376.077
20
-116.065
40
1.15
0
CIRCLE
8
BLACK
10
212.227
20
-116.085
40
1.15
0
CIRCLE
8
BLACK
10
48.377
20
-116.095
40
1.15
0
CIRCLE
8
BLACK
10
41.267
20
-63.405
40
1.15109
0
CIRCLE
8
BLACK
10
377.867
20
-62.705
40
1.15109
0
CIRCLE
8
BLACK
10
379.667
20
-193.395
40
1.15109
0
CIRCLE
8
BLACK
10
325.267
20
-209.915
40
1.15109
0
CIRCLE
8
BLACK
10
209.227
20
-210.18
40
1.15109
0
LINE
8
BLACK
6
CONTINUOUS
10
36.767
20
-212.785
11
36.767
21
-62.685
0
LINE
8
BLACK
6
CONTINUOUS
10
39.767
20
-59.685
11
380.767
21
-59.705
0
LINE
8
BLACK
6
CONTINUOUS
10
380.767
20
-215.785
11
39.767
21
-215.785
0
ARC
8
BLACK
10
39.767
20
-62.685
40
3
50
90
51
180
0
ARC
8
BLACK
10
380.767
20
-62.705
40
3
50
-0
51
90
0
ARC
8
BLACK
10
39.767
20
-212.785
40
3
50
180
51
270
0
LINE
8
BLACK
6
CONTINUOUS
10
383.767
20
-62.705
11
383.767
21
-212.785
0
LINE
8
BLACK
6
CONTINUOUS
10
292.827
20
-64.0134
11
292.827
21
-85.3494
0
LINE
8
BLACK
6
CONTINUOUS
10
239.944
20
-85.3494
11
239.944
21
-64.0134
0
LINE
8
BLACK
6
CONTINUOUS
10
239.944
20
-85.3494
11
292.827
21
-85.3494
0
LINE
8
BLACK
6
CONTINUOUS
10
239.944
20
-64.0134
11
292.827
21
-64.0134
  0
ENDSEC
  0
EOF
