G04 #@! TF.GenerationSoftware,KiCad,Pcbnew,(5.1.10)-1*
G04 #@! TF.CreationDate,2021-10-23T19:38:42+01:00*
G04 #@! TF.ProjectId,RGBSUB,52474253-5542-42e6-9b69-6361645f7063,Rev.1*
G04 #@! TF.SameCoordinates,Original*
G04 #@! TF.FileFunction,Soldermask,Top*
G04 #@! TF.FilePolarity,Negative*
%FSLAX46Y46*%
G04 Gerber Fmt 4.6, Leading zero omitted, Abs format (unit mm)*
G04 Created by KiCad (PCBNEW (5.1.10)-1) date 2021-10-23 19:38:42*
%MOMM*%
%LPD*%
G01*
G04 APERTURE LIST*
%ADD10O,1.452000X1.452000*%
%ADD11C,5.102000*%
G04 APERTURE END LIST*
D10*
X58050000Y-108950000D03*
X60050000Y-108950000D03*
G36*
G01*
X61375000Y-108224000D02*
X62725000Y-108224000D01*
G75*
G02*
X62776000Y-108275000I0J-51000D01*
G01*
X62776000Y-109625000D01*
G75*
G02*
X62725000Y-109676000I-51000J0D01*
G01*
X61375000Y-109676000D01*
G75*
G02*
X61324000Y-109625000I0J51000D01*
G01*
X61324000Y-108275000D01*
G75*
G02*
X61375000Y-108224000I51000J0D01*
G01*
G37*
D11*
X376075000Y-116060000D03*
X48375000Y-116085000D03*
X209225000Y-210185000D03*
X212225000Y-116085000D03*
X325267000Y-209905000D03*
X40167000Y-196305000D03*
X379667000Y-193405000D03*
G36*
G01*
X374046500Y-212440001D02*
X374046500Y-211739999D01*
G75*
G02*
X374097499Y-211689000I50999J0D01*
G01*
X374797501Y-211689000D01*
G75*
G02*
X374848500Y-211739999I0J-50999D01*
G01*
X374848500Y-212440001D01*
G75*
G02*
X374797501Y-212491000I-50999J0D01*
G01*
X374097499Y-212491000D01*
G75*
G02*
X374046500Y-212440001I0J50999D01*
G01*
G37*
G36*
G01*
X374046500Y-211340001D02*
X374046500Y-210639999D01*
G75*
G02*
X374097499Y-210589000I50999J0D01*
G01*
X374797501Y-210589000D01*
G75*
G02*
X374848500Y-210639999I0J-50999D01*
G01*
X374848500Y-211340001D01*
G75*
G02*
X374797501Y-211391000I-50999J0D01*
G01*
X374097499Y-211391000D01*
G75*
G02*
X374046500Y-211340001I0J50999D01*
G01*
G37*
G36*
G01*
X375876500Y-211340001D02*
X375876500Y-210639999D01*
G75*
G02*
X375927499Y-210589000I50999J0D01*
G01*
X376627501Y-210589000D01*
G75*
G02*
X376678500Y-210639999I0J-50999D01*
G01*
X376678500Y-211340001D01*
G75*
G02*
X376627501Y-211391000I-50999J0D01*
G01*
X375927499Y-211391000D01*
G75*
G02*
X375876500Y-211340001I0J50999D01*
G01*
G37*
G36*
G01*
X375876500Y-212440001D02*
X375876500Y-211739999D01*
G75*
G02*
X375927499Y-211689000I50999J0D01*
G01*
X376627501Y-211689000D01*
G75*
G02*
X376678500Y-211739999I0J-50999D01*
G01*
X376678500Y-212440001D01*
G75*
G02*
X376627501Y-212491000I-50999J0D01*
G01*
X375927499Y-212491000D01*
G75*
G02*
X375876500Y-212440001I0J50999D01*
G01*
G37*
G36*
G01*
X354996500Y-212440001D02*
X354996500Y-211739999D01*
G75*
G02*
X355047499Y-211689000I50999J0D01*
G01*
X355747501Y-211689000D01*
G75*
G02*
X355798500Y-211739999I0J-50999D01*
G01*
X355798500Y-212440001D01*
G75*
G02*
X355747501Y-212491000I-50999J0D01*
G01*
X355047499Y-212491000D01*
G75*
G02*
X354996500Y-212440001I0J50999D01*
G01*
G37*
G36*
G01*
X354996500Y-211340001D02*
X354996500Y-210639999D01*
G75*
G02*
X355047499Y-210589000I50999J0D01*
G01*
X355747501Y-210589000D01*
G75*
G02*
X355798500Y-210639999I0J-50999D01*
G01*
X355798500Y-211340001D01*
G75*
G02*
X355747501Y-211391000I-50999J0D01*
G01*
X355047499Y-211391000D01*
G75*
G02*
X354996500Y-211340001I0J50999D01*
G01*
G37*
G36*
G01*
X356826500Y-211340001D02*
X356826500Y-210639999D01*
G75*
G02*
X356877499Y-210589000I50999J0D01*
G01*
X357577501Y-210589000D01*
G75*
G02*
X357628500Y-210639999I0J-50999D01*
G01*
X357628500Y-211340001D01*
G75*
G02*
X357577501Y-211391000I-50999J0D01*
G01*
X356877499Y-211391000D01*
G75*
G02*
X356826500Y-211340001I0J50999D01*
G01*
G37*
G36*
G01*
X356826500Y-212440001D02*
X356826500Y-211739999D01*
G75*
G02*
X356877499Y-211689000I50999J0D01*
G01*
X357577501Y-211689000D01*
G75*
G02*
X357628500Y-211739999I0J-50999D01*
G01*
X357628500Y-212440001D01*
G75*
G02*
X357577501Y-212491000I-50999J0D01*
G01*
X356877499Y-212491000D01*
G75*
G02*
X356826500Y-212440001I0J50999D01*
G01*
G37*
G36*
G01*
X335946500Y-212440001D02*
X335946500Y-211739999D01*
G75*
G02*
X335997499Y-211689000I50999J0D01*
G01*
X336697501Y-211689000D01*
G75*
G02*
X336748500Y-211739999I0J-50999D01*
G01*
X336748500Y-212440001D01*
G75*
G02*
X336697501Y-212491000I-50999J0D01*
G01*
X335997499Y-212491000D01*
G75*
G02*
X335946500Y-212440001I0J50999D01*
G01*
G37*
G36*
G01*
X335946500Y-211340001D02*
X335946500Y-210639999D01*
G75*
G02*
X335997499Y-210589000I50999J0D01*
G01*
X336697501Y-210589000D01*
G75*
G02*
X336748500Y-210639999I0J-50999D01*
G01*
X336748500Y-211340001D01*
G75*
G02*
X336697501Y-211391000I-50999J0D01*
G01*
X335997499Y-211391000D01*
G75*
G02*
X335946500Y-211340001I0J50999D01*
G01*
G37*
G36*
G01*
X337776500Y-211340001D02*
X337776500Y-210639999D01*
G75*
G02*
X337827499Y-210589000I50999J0D01*
G01*
X338527501Y-210589000D01*
G75*
G02*
X338578500Y-210639999I0J-50999D01*
G01*
X338578500Y-211340001D01*
G75*
G02*
X338527501Y-211391000I-50999J0D01*
G01*
X337827499Y-211391000D01*
G75*
G02*
X337776500Y-211340001I0J50999D01*
G01*
G37*
G36*
G01*
X337776500Y-212440001D02*
X337776500Y-211739999D01*
G75*
G02*
X337827499Y-211689000I50999J0D01*
G01*
X338527501Y-211689000D01*
G75*
G02*
X338578500Y-211739999I0J-50999D01*
G01*
X338578500Y-212440001D01*
G75*
G02*
X338527501Y-212491000I-50999J0D01*
G01*
X337827499Y-212491000D01*
G75*
G02*
X337776500Y-212440001I0J50999D01*
G01*
G37*
G36*
G01*
X309752750Y-212440001D02*
X309752750Y-211739999D01*
G75*
G02*
X309803749Y-211689000I50999J0D01*
G01*
X310503751Y-211689000D01*
G75*
G02*
X310554750Y-211739999I0J-50999D01*
G01*
X310554750Y-212440001D01*
G75*
G02*
X310503751Y-212491000I-50999J0D01*
G01*
X309803749Y-212491000D01*
G75*
G02*
X309752750Y-212440001I0J50999D01*
G01*
G37*
G36*
G01*
X309752750Y-211340001D02*
X309752750Y-210639999D01*
G75*
G02*
X309803749Y-210589000I50999J0D01*
G01*
X310503751Y-210589000D01*
G75*
G02*
X310554750Y-210639999I0J-50999D01*
G01*
X310554750Y-211340001D01*
G75*
G02*
X310503751Y-211391000I-50999J0D01*
G01*
X309803749Y-211391000D01*
G75*
G02*
X309752750Y-211340001I0J50999D01*
G01*
G37*
G36*
G01*
X311582750Y-211340001D02*
X311582750Y-210639999D01*
G75*
G02*
X311633749Y-210589000I50999J0D01*
G01*
X312333751Y-210589000D01*
G75*
G02*
X312384750Y-210639999I0J-50999D01*
G01*
X312384750Y-211340001D01*
G75*
G02*
X312333751Y-211391000I-50999J0D01*
G01*
X311633749Y-211391000D01*
G75*
G02*
X311582750Y-211340001I0J50999D01*
G01*
G37*
G36*
G01*
X311582750Y-212440001D02*
X311582750Y-211739999D01*
G75*
G02*
X311633749Y-211689000I50999J0D01*
G01*
X312333751Y-211689000D01*
G75*
G02*
X312384750Y-211739999I0J-50999D01*
G01*
X312384750Y-212440001D01*
G75*
G02*
X312333751Y-212491000I-50999J0D01*
G01*
X311633749Y-212491000D01*
G75*
G02*
X311582750Y-212440001I0J50999D01*
G01*
G37*
G36*
G01*
X285940250Y-212440001D02*
X285940250Y-211739999D01*
G75*
G02*
X285991249Y-211689000I50999J0D01*
G01*
X286691251Y-211689000D01*
G75*
G02*
X286742250Y-211739999I0J-50999D01*
G01*
X286742250Y-212440001D01*
G75*
G02*
X286691251Y-212491000I-50999J0D01*
G01*
X285991249Y-212491000D01*
G75*
G02*
X285940250Y-212440001I0J50999D01*
G01*
G37*
G36*
G01*
X285940250Y-211340001D02*
X285940250Y-210639999D01*
G75*
G02*
X285991249Y-210589000I50999J0D01*
G01*
X286691251Y-210589000D01*
G75*
G02*
X286742250Y-210639999I0J-50999D01*
G01*
X286742250Y-211340001D01*
G75*
G02*
X286691251Y-211391000I-50999J0D01*
G01*
X285991249Y-211391000D01*
G75*
G02*
X285940250Y-211340001I0J50999D01*
G01*
G37*
G36*
G01*
X287770250Y-211340001D02*
X287770250Y-210639999D01*
G75*
G02*
X287821249Y-210589000I50999J0D01*
G01*
X288521251Y-210589000D01*
G75*
G02*
X288572250Y-210639999I0J-50999D01*
G01*
X288572250Y-211340001D01*
G75*
G02*
X288521251Y-211391000I-50999J0D01*
G01*
X287821249Y-211391000D01*
G75*
G02*
X287770250Y-211340001I0J50999D01*
G01*
G37*
G36*
G01*
X287770250Y-212440001D02*
X287770250Y-211739999D01*
G75*
G02*
X287821249Y-211689000I50999J0D01*
G01*
X288521251Y-211689000D01*
G75*
G02*
X288572250Y-211739999I0J-50999D01*
G01*
X288572250Y-212440001D01*
G75*
G02*
X288521251Y-212491000I-50999J0D01*
G01*
X287821249Y-212491000D01*
G75*
G02*
X287770250Y-212440001I0J50999D01*
G01*
G37*
G36*
G01*
X262127750Y-212440001D02*
X262127750Y-211739999D01*
G75*
G02*
X262178749Y-211689000I50999J0D01*
G01*
X262878751Y-211689000D01*
G75*
G02*
X262929750Y-211739999I0J-50999D01*
G01*
X262929750Y-212440001D01*
G75*
G02*
X262878751Y-212491000I-50999J0D01*
G01*
X262178749Y-212491000D01*
G75*
G02*
X262127750Y-212440001I0J50999D01*
G01*
G37*
G36*
G01*
X262127750Y-211340001D02*
X262127750Y-210639999D01*
G75*
G02*
X262178749Y-210589000I50999J0D01*
G01*
X262878751Y-210589000D01*
G75*
G02*
X262929750Y-210639999I0J-50999D01*
G01*
X262929750Y-211340001D01*
G75*
G02*
X262878751Y-211391000I-50999J0D01*
G01*
X262178749Y-211391000D01*
G75*
G02*
X262127750Y-211340001I0J50999D01*
G01*
G37*
G36*
G01*
X263957750Y-211340001D02*
X263957750Y-210639999D01*
G75*
G02*
X264008749Y-210589000I50999J0D01*
G01*
X264708751Y-210589000D01*
G75*
G02*
X264759750Y-210639999I0J-50999D01*
G01*
X264759750Y-211340001D01*
G75*
G02*
X264708751Y-211391000I-50999J0D01*
G01*
X264008749Y-211391000D01*
G75*
G02*
X263957750Y-211340001I0J50999D01*
G01*
G37*
G36*
G01*
X263957750Y-212440001D02*
X263957750Y-211739999D01*
G75*
G02*
X264008749Y-211689000I50999J0D01*
G01*
X264708751Y-211689000D01*
G75*
G02*
X264759750Y-211739999I0J-50999D01*
G01*
X264759750Y-212440001D01*
G75*
G02*
X264708751Y-212491000I-50999J0D01*
G01*
X264008749Y-212491000D01*
G75*
G02*
X263957750Y-212440001I0J50999D01*
G01*
G37*
G36*
G01*
X238315250Y-212440001D02*
X238315250Y-211739999D01*
G75*
G02*
X238366249Y-211689000I50999J0D01*
G01*
X239066251Y-211689000D01*
G75*
G02*
X239117250Y-211739999I0J-50999D01*
G01*
X239117250Y-212440001D01*
G75*
G02*
X239066251Y-212491000I-50999J0D01*
G01*
X238366249Y-212491000D01*
G75*
G02*
X238315250Y-212440001I0J50999D01*
G01*
G37*
G36*
G01*
X238315250Y-211340001D02*
X238315250Y-210639999D01*
G75*
G02*
X238366249Y-210589000I50999J0D01*
G01*
X239066251Y-210589000D01*
G75*
G02*
X239117250Y-210639999I0J-50999D01*
G01*
X239117250Y-211340001D01*
G75*
G02*
X239066251Y-211391000I-50999J0D01*
G01*
X238366249Y-211391000D01*
G75*
G02*
X238315250Y-211340001I0J50999D01*
G01*
G37*
G36*
G01*
X240145250Y-211340001D02*
X240145250Y-210639999D01*
G75*
G02*
X240196249Y-210589000I50999J0D01*
G01*
X240896251Y-210589000D01*
G75*
G02*
X240947250Y-210639999I0J-50999D01*
G01*
X240947250Y-211340001D01*
G75*
G02*
X240896251Y-211391000I-50999J0D01*
G01*
X240196249Y-211391000D01*
G75*
G02*
X240145250Y-211340001I0J50999D01*
G01*
G37*
G36*
G01*
X240145250Y-212440001D02*
X240145250Y-211739999D01*
G75*
G02*
X240196249Y-211689000I50999J0D01*
G01*
X240896251Y-211689000D01*
G75*
G02*
X240947250Y-211739999I0J-50999D01*
G01*
X240947250Y-212440001D01*
G75*
G02*
X240896251Y-212491000I-50999J0D01*
G01*
X240196249Y-212491000D01*
G75*
G02*
X240145250Y-212440001I0J50999D01*
G01*
G37*
G36*
G01*
X166877750Y-212440001D02*
X166877750Y-211739999D01*
G75*
G02*
X166928749Y-211689000I50999J0D01*
G01*
X167628751Y-211689000D01*
G75*
G02*
X167679750Y-211739999I0J-50999D01*
G01*
X167679750Y-212440001D01*
G75*
G02*
X167628751Y-212491000I-50999J0D01*
G01*
X166928749Y-212491000D01*
G75*
G02*
X166877750Y-212440001I0J50999D01*
G01*
G37*
G36*
G01*
X166877750Y-211340001D02*
X166877750Y-210639999D01*
G75*
G02*
X166928749Y-210589000I50999J0D01*
G01*
X167628751Y-210589000D01*
G75*
G02*
X167679750Y-210639999I0J-50999D01*
G01*
X167679750Y-211340001D01*
G75*
G02*
X167628751Y-211391000I-50999J0D01*
G01*
X166928749Y-211391000D01*
G75*
G02*
X166877750Y-211340001I0J50999D01*
G01*
G37*
G36*
G01*
X168707750Y-211340001D02*
X168707750Y-210639999D01*
G75*
G02*
X168758749Y-210589000I50999J0D01*
G01*
X169458751Y-210589000D01*
G75*
G02*
X169509750Y-210639999I0J-50999D01*
G01*
X169509750Y-211340001D01*
G75*
G02*
X169458751Y-211391000I-50999J0D01*
G01*
X168758749Y-211391000D01*
G75*
G02*
X168707750Y-211340001I0J50999D01*
G01*
G37*
G36*
G01*
X168707750Y-212440001D02*
X168707750Y-211739999D01*
G75*
G02*
X168758749Y-211689000I50999J0D01*
G01*
X169458751Y-211689000D01*
G75*
G02*
X169509750Y-211739999I0J-50999D01*
G01*
X169509750Y-212440001D01*
G75*
G02*
X169458751Y-212491000I-50999J0D01*
G01*
X168758749Y-212491000D01*
G75*
G02*
X168707750Y-212440001I0J50999D01*
G01*
G37*
G36*
G01*
X95440250Y-212440001D02*
X95440250Y-211739999D01*
G75*
G02*
X95491249Y-211689000I50999J0D01*
G01*
X96191251Y-211689000D01*
G75*
G02*
X96242250Y-211739999I0J-50999D01*
G01*
X96242250Y-212440001D01*
G75*
G02*
X96191251Y-212491000I-50999J0D01*
G01*
X95491249Y-212491000D01*
G75*
G02*
X95440250Y-212440001I0J50999D01*
G01*
G37*
G36*
G01*
X95440250Y-211340001D02*
X95440250Y-210639999D01*
G75*
G02*
X95491249Y-210589000I50999J0D01*
G01*
X96191251Y-210589000D01*
G75*
G02*
X96242250Y-210639999I0J-50999D01*
G01*
X96242250Y-211340001D01*
G75*
G02*
X96191251Y-211391000I-50999J0D01*
G01*
X95491249Y-211391000D01*
G75*
G02*
X95440250Y-211340001I0J50999D01*
G01*
G37*
G36*
G01*
X97270250Y-211340001D02*
X97270250Y-210639999D01*
G75*
G02*
X97321249Y-210589000I50999J0D01*
G01*
X98021251Y-210589000D01*
G75*
G02*
X98072250Y-210639999I0J-50999D01*
G01*
X98072250Y-211340001D01*
G75*
G02*
X98021251Y-211391000I-50999J0D01*
G01*
X97321249Y-211391000D01*
G75*
G02*
X97270250Y-211340001I0J50999D01*
G01*
G37*
G36*
G01*
X97270250Y-212440001D02*
X97270250Y-211739999D01*
G75*
G02*
X97321249Y-211689000I50999J0D01*
G01*
X98021251Y-211689000D01*
G75*
G02*
X98072250Y-211739999I0J-50999D01*
G01*
X98072250Y-212440001D01*
G75*
G02*
X98021251Y-212491000I-50999J0D01*
G01*
X97321249Y-212491000D01*
G75*
G02*
X97270250Y-212440001I0J50999D01*
G01*
G37*
G36*
G01*
X71627750Y-212440001D02*
X71627750Y-211739999D01*
G75*
G02*
X71678749Y-211689000I50999J0D01*
G01*
X72378751Y-211689000D01*
G75*
G02*
X72429750Y-211739999I0J-50999D01*
G01*
X72429750Y-212440001D01*
G75*
G02*
X72378751Y-212491000I-50999J0D01*
G01*
X71678749Y-212491000D01*
G75*
G02*
X71627750Y-212440001I0J50999D01*
G01*
G37*
G36*
G01*
X71627750Y-211340001D02*
X71627750Y-210639999D01*
G75*
G02*
X71678749Y-210589000I50999J0D01*
G01*
X72378751Y-210589000D01*
G75*
G02*
X72429750Y-210639999I0J-50999D01*
G01*
X72429750Y-211340001D01*
G75*
G02*
X72378751Y-211391000I-50999J0D01*
G01*
X71678749Y-211391000D01*
G75*
G02*
X71627750Y-211340001I0J50999D01*
G01*
G37*
G36*
G01*
X73457750Y-211340001D02*
X73457750Y-210639999D01*
G75*
G02*
X73508749Y-210589000I50999J0D01*
G01*
X74208751Y-210589000D01*
G75*
G02*
X74259750Y-210639999I0J-50999D01*
G01*
X74259750Y-211340001D01*
G75*
G02*
X74208751Y-211391000I-50999J0D01*
G01*
X73508749Y-211391000D01*
G75*
G02*
X73457750Y-211340001I0J50999D01*
G01*
G37*
G36*
G01*
X73457750Y-212440001D02*
X73457750Y-211739999D01*
G75*
G02*
X73508749Y-211689000I50999J0D01*
G01*
X74208751Y-211689000D01*
G75*
G02*
X74259750Y-211739999I0J-50999D01*
G01*
X74259750Y-212440001D01*
G75*
G02*
X74208751Y-212491000I-50999J0D01*
G01*
X73508749Y-212491000D01*
G75*
G02*
X73457750Y-212440001I0J50999D01*
G01*
G37*
G36*
G01*
X47815250Y-212440001D02*
X47815250Y-211739999D01*
G75*
G02*
X47866249Y-211689000I50999J0D01*
G01*
X48566251Y-211689000D01*
G75*
G02*
X48617250Y-211739999I0J-50999D01*
G01*
X48617250Y-212440001D01*
G75*
G02*
X48566251Y-212491000I-50999J0D01*
G01*
X47866249Y-212491000D01*
G75*
G02*
X47815250Y-212440001I0J50999D01*
G01*
G37*
G36*
G01*
X47815250Y-211340001D02*
X47815250Y-210639999D01*
G75*
G02*
X47866249Y-210589000I50999J0D01*
G01*
X48566251Y-210589000D01*
G75*
G02*
X48617250Y-210639999I0J-50999D01*
G01*
X48617250Y-211340001D01*
G75*
G02*
X48566251Y-211391000I-50999J0D01*
G01*
X47866249Y-211391000D01*
G75*
G02*
X47815250Y-211340001I0J50999D01*
G01*
G37*
G36*
G01*
X49645250Y-211340001D02*
X49645250Y-210639999D01*
G75*
G02*
X49696249Y-210589000I50999J0D01*
G01*
X50396251Y-210589000D01*
G75*
G02*
X50447250Y-210639999I0J-50999D01*
G01*
X50447250Y-211340001D01*
G75*
G02*
X50396251Y-211391000I-50999J0D01*
G01*
X49696249Y-211391000D01*
G75*
G02*
X49645250Y-211340001I0J50999D01*
G01*
G37*
G36*
G01*
X49645250Y-212440001D02*
X49645250Y-211739999D01*
G75*
G02*
X49696249Y-211689000I50999J0D01*
G01*
X50396251Y-211689000D01*
G75*
G02*
X50447250Y-211739999I0J-50999D01*
G01*
X50447250Y-212440001D01*
G75*
G02*
X50396251Y-212491000I-50999J0D01*
G01*
X49696249Y-212491000D01*
G75*
G02*
X49645250Y-212440001I0J50999D01*
G01*
G37*
G36*
G01*
X354996500Y-193390001D02*
X354996500Y-192689999D01*
G75*
G02*
X355047499Y-192639000I50999J0D01*
G01*
X355747501Y-192639000D01*
G75*
G02*
X355798500Y-192689999I0J-50999D01*
G01*
X355798500Y-193390001D01*
G75*
G02*
X355747501Y-193441000I-50999J0D01*
G01*
X355047499Y-193441000D01*
G75*
G02*
X354996500Y-193390001I0J50999D01*
G01*
G37*
G36*
G01*
X354996500Y-192290001D02*
X354996500Y-191589999D01*
G75*
G02*
X355047499Y-191539000I50999J0D01*
G01*
X355747501Y-191539000D01*
G75*
G02*
X355798500Y-191589999I0J-50999D01*
G01*
X355798500Y-192290001D01*
G75*
G02*
X355747501Y-192341000I-50999J0D01*
G01*
X355047499Y-192341000D01*
G75*
G02*
X354996500Y-192290001I0J50999D01*
G01*
G37*
G36*
G01*
X356826500Y-192290001D02*
X356826500Y-191589999D01*
G75*
G02*
X356877499Y-191539000I50999J0D01*
G01*
X357577501Y-191539000D01*
G75*
G02*
X357628500Y-191589999I0J-50999D01*
G01*
X357628500Y-192290001D01*
G75*
G02*
X357577501Y-192341000I-50999J0D01*
G01*
X356877499Y-192341000D01*
G75*
G02*
X356826500Y-192290001I0J50999D01*
G01*
G37*
G36*
G01*
X356826500Y-193390001D02*
X356826500Y-192689999D01*
G75*
G02*
X356877499Y-192639000I50999J0D01*
G01*
X357577501Y-192639000D01*
G75*
G02*
X357628500Y-192689999I0J-50999D01*
G01*
X357628500Y-193390001D01*
G75*
G02*
X357577501Y-193441000I-50999J0D01*
G01*
X356877499Y-193441000D01*
G75*
G02*
X356826500Y-193390001I0J50999D01*
G01*
G37*
G36*
G01*
X295465250Y-193390001D02*
X295465250Y-192689999D01*
G75*
G02*
X295516249Y-192639000I50999J0D01*
G01*
X296216251Y-192639000D01*
G75*
G02*
X296267250Y-192689999I0J-50999D01*
G01*
X296267250Y-193390001D01*
G75*
G02*
X296216251Y-193441000I-50999J0D01*
G01*
X295516249Y-193441000D01*
G75*
G02*
X295465250Y-193390001I0J50999D01*
G01*
G37*
G36*
G01*
X295465250Y-192290001D02*
X295465250Y-191589999D01*
G75*
G02*
X295516249Y-191539000I50999J0D01*
G01*
X296216251Y-191539000D01*
G75*
G02*
X296267250Y-191589999I0J-50999D01*
G01*
X296267250Y-192290001D01*
G75*
G02*
X296216251Y-192341000I-50999J0D01*
G01*
X295516249Y-192341000D01*
G75*
G02*
X295465250Y-192290001I0J50999D01*
G01*
G37*
G36*
G01*
X297295250Y-192290001D02*
X297295250Y-191589999D01*
G75*
G02*
X297346249Y-191539000I50999J0D01*
G01*
X298046251Y-191539000D01*
G75*
G02*
X298097250Y-191589999I0J-50999D01*
G01*
X298097250Y-192290001D01*
G75*
G02*
X298046251Y-192341000I-50999J0D01*
G01*
X297346249Y-192341000D01*
G75*
G02*
X297295250Y-192290001I0J50999D01*
G01*
G37*
G36*
G01*
X297295250Y-193390001D02*
X297295250Y-192689999D01*
G75*
G02*
X297346249Y-192639000I50999J0D01*
G01*
X298046251Y-192639000D01*
G75*
G02*
X298097250Y-192689999I0J-50999D01*
G01*
X298097250Y-193390001D01*
G75*
G02*
X298046251Y-193441000I-50999J0D01*
G01*
X297346249Y-193441000D01*
G75*
G02*
X297295250Y-193390001I0J50999D01*
G01*
G37*
G36*
G01*
X259746500Y-193390001D02*
X259746500Y-192689999D01*
G75*
G02*
X259797499Y-192639000I50999J0D01*
G01*
X260497501Y-192639000D01*
G75*
G02*
X260548500Y-192689999I0J-50999D01*
G01*
X260548500Y-193390001D01*
G75*
G02*
X260497501Y-193441000I-50999J0D01*
G01*
X259797499Y-193441000D01*
G75*
G02*
X259746500Y-193390001I0J50999D01*
G01*
G37*
G36*
G01*
X259746500Y-192290001D02*
X259746500Y-191589999D01*
G75*
G02*
X259797499Y-191539000I50999J0D01*
G01*
X260497501Y-191539000D01*
G75*
G02*
X260548500Y-191589999I0J-50999D01*
G01*
X260548500Y-192290001D01*
G75*
G02*
X260497501Y-192341000I-50999J0D01*
G01*
X259797499Y-192341000D01*
G75*
G02*
X259746500Y-192290001I0J50999D01*
G01*
G37*
G36*
G01*
X261576500Y-192290001D02*
X261576500Y-191589999D01*
G75*
G02*
X261627499Y-191539000I50999J0D01*
G01*
X262327501Y-191539000D01*
G75*
G02*
X262378500Y-191589999I0J-50999D01*
G01*
X262378500Y-192290001D01*
G75*
G02*
X262327501Y-192341000I-50999J0D01*
G01*
X261627499Y-192341000D01*
G75*
G02*
X261576500Y-192290001I0J50999D01*
G01*
G37*
G36*
G01*
X261576500Y-193390001D02*
X261576500Y-192689999D01*
G75*
G02*
X261627499Y-192639000I50999J0D01*
G01*
X262327501Y-192639000D01*
G75*
G02*
X262378500Y-192689999I0J-50999D01*
G01*
X262378500Y-193390001D01*
G75*
G02*
X262327501Y-193441000I-50999J0D01*
G01*
X261627499Y-193441000D01*
G75*
G02*
X261576500Y-193390001I0J50999D01*
G01*
G37*
G36*
G01*
X240696500Y-193390001D02*
X240696500Y-192689999D01*
G75*
G02*
X240747499Y-192639000I50999J0D01*
G01*
X241447501Y-192639000D01*
G75*
G02*
X241498500Y-192689999I0J-50999D01*
G01*
X241498500Y-193390001D01*
G75*
G02*
X241447501Y-193441000I-50999J0D01*
G01*
X240747499Y-193441000D01*
G75*
G02*
X240696500Y-193390001I0J50999D01*
G01*
G37*
G36*
G01*
X240696500Y-192290001D02*
X240696500Y-191589999D01*
G75*
G02*
X240747499Y-191539000I50999J0D01*
G01*
X241447501Y-191539000D01*
G75*
G02*
X241498500Y-191589999I0J-50999D01*
G01*
X241498500Y-192290001D01*
G75*
G02*
X241447501Y-192341000I-50999J0D01*
G01*
X240747499Y-192341000D01*
G75*
G02*
X240696500Y-192290001I0J50999D01*
G01*
G37*
G36*
G01*
X242526500Y-192290001D02*
X242526500Y-191589999D01*
G75*
G02*
X242577499Y-191539000I50999J0D01*
G01*
X243277501Y-191539000D01*
G75*
G02*
X243328500Y-191589999I0J-50999D01*
G01*
X243328500Y-192290001D01*
G75*
G02*
X243277501Y-192341000I-50999J0D01*
G01*
X242577499Y-192341000D01*
G75*
G02*
X242526500Y-192290001I0J50999D01*
G01*
G37*
G36*
G01*
X242526500Y-193390001D02*
X242526500Y-192689999D01*
G75*
G02*
X242577499Y-192639000I50999J0D01*
G01*
X243277501Y-192639000D01*
G75*
G02*
X243328500Y-192689999I0J-50999D01*
G01*
X243328500Y-193390001D01*
G75*
G02*
X243277501Y-193441000I-50999J0D01*
G01*
X242577499Y-193441000D01*
G75*
G02*
X242526500Y-193390001I0J50999D01*
G01*
G37*
G36*
G01*
X221646500Y-193390001D02*
X221646500Y-192689999D01*
G75*
G02*
X221697499Y-192639000I50999J0D01*
G01*
X222397501Y-192639000D01*
G75*
G02*
X222448500Y-192689999I0J-50999D01*
G01*
X222448500Y-193390001D01*
G75*
G02*
X222397501Y-193441000I-50999J0D01*
G01*
X221697499Y-193441000D01*
G75*
G02*
X221646500Y-193390001I0J50999D01*
G01*
G37*
G36*
G01*
X221646500Y-192290001D02*
X221646500Y-191589999D01*
G75*
G02*
X221697499Y-191539000I50999J0D01*
G01*
X222397501Y-191539000D01*
G75*
G02*
X222448500Y-191589999I0J-50999D01*
G01*
X222448500Y-192290001D01*
G75*
G02*
X222397501Y-192341000I-50999J0D01*
G01*
X221697499Y-192341000D01*
G75*
G02*
X221646500Y-192290001I0J50999D01*
G01*
G37*
G36*
G01*
X223476500Y-192290001D02*
X223476500Y-191589999D01*
G75*
G02*
X223527499Y-191539000I50999J0D01*
G01*
X224227501Y-191539000D01*
G75*
G02*
X224278500Y-191589999I0J-50999D01*
G01*
X224278500Y-192290001D01*
G75*
G02*
X224227501Y-192341000I-50999J0D01*
G01*
X223527499Y-192341000D01*
G75*
G02*
X223476500Y-192290001I0J50999D01*
G01*
G37*
G36*
G01*
X223476500Y-193390001D02*
X223476500Y-192689999D01*
G75*
G02*
X223527499Y-192639000I50999J0D01*
G01*
X224227501Y-192639000D01*
G75*
G02*
X224278500Y-192689999I0J-50999D01*
G01*
X224278500Y-193390001D01*
G75*
G02*
X224227501Y-193441000I-50999J0D01*
G01*
X223527499Y-193441000D01*
G75*
G02*
X223476500Y-193390001I0J50999D01*
G01*
G37*
G36*
G01*
X202596500Y-193390001D02*
X202596500Y-192689999D01*
G75*
G02*
X202647499Y-192639000I50999J0D01*
G01*
X203347501Y-192639000D01*
G75*
G02*
X203398500Y-192689999I0J-50999D01*
G01*
X203398500Y-193390001D01*
G75*
G02*
X203347501Y-193441000I-50999J0D01*
G01*
X202647499Y-193441000D01*
G75*
G02*
X202596500Y-193390001I0J50999D01*
G01*
G37*
G36*
G01*
X202596500Y-192290001D02*
X202596500Y-191589999D01*
G75*
G02*
X202647499Y-191539000I50999J0D01*
G01*
X203347501Y-191539000D01*
G75*
G02*
X203398500Y-191589999I0J-50999D01*
G01*
X203398500Y-192290001D01*
G75*
G02*
X203347501Y-192341000I-50999J0D01*
G01*
X202647499Y-192341000D01*
G75*
G02*
X202596500Y-192290001I0J50999D01*
G01*
G37*
G36*
G01*
X204426500Y-192290001D02*
X204426500Y-191589999D01*
G75*
G02*
X204477499Y-191539000I50999J0D01*
G01*
X205177501Y-191539000D01*
G75*
G02*
X205228500Y-191589999I0J-50999D01*
G01*
X205228500Y-192290001D01*
G75*
G02*
X205177501Y-192341000I-50999J0D01*
G01*
X204477499Y-192341000D01*
G75*
G02*
X204426500Y-192290001I0J50999D01*
G01*
G37*
G36*
G01*
X204426500Y-193390001D02*
X204426500Y-192689999D01*
G75*
G02*
X204477499Y-192639000I50999J0D01*
G01*
X205177501Y-192639000D01*
G75*
G02*
X205228500Y-192689999I0J-50999D01*
G01*
X205228500Y-193390001D01*
G75*
G02*
X205177501Y-193441000I-50999J0D01*
G01*
X204477499Y-193441000D01*
G75*
G02*
X204426500Y-193390001I0J50999D01*
G01*
G37*
G36*
G01*
X183546500Y-193390001D02*
X183546500Y-192689999D01*
G75*
G02*
X183597499Y-192639000I50999J0D01*
G01*
X184297501Y-192639000D01*
G75*
G02*
X184348500Y-192689999I0J-50999D01*
G01*
X184348500Y-193390001D01*
G75*
G02*
X184297501Y-193441000I-50999J0D01*
G01*
X183597499Y-193441000D01*
G75*
G02*
X183546500Y-193390001I0J50999D01*
G01*
G37*
G36*
G01*
X183546500Y-192290001D02*
X183546500Y-191589999D01*
G75*
G02*
X183597499Y-191539000I50999J0D01*
G01*
X184297501Y-191539000D01*
G75*
G02*
X184348500Y-191589999I0J-50999D01*
G01*
X184348500Y-192290001D01*
G75*
G02*
X184297501Y-192341000I-50999J0D01*
G01*
X183597499Y-192341000D01*
G75*
G02*
X183546500Y-192290001I0J50999D01*
G01*
G37*
G36*
G01*
X185376500Y-192290001D02*
X185376500Y-191589999D01*
G75*
G02*
X185427499Y-191539000I50999J0D01*
G01*
X186127501Y-191539000D01*
G75*
G02*
X186178500Y-191589999I0J-50999D01*
G01*
X186178500Y-192290001D01*
G75*
G02*
X186127501Y-192341000I-50999J0D01*
G01*
X185427499Y-192341000D01*
G75*
G02*
X185376500Y-192290001I0J50999D01*
G01*
G37*
G36*
G01*
X185376500Y-193390001D02*
X185376500Y-192689999D01*
G75*
G02*
X185427499Y-192639000I50999J0D01*
G01*
X186127501Y-192639000D01*
G75*
G02*
X186178500Y-192689999I0J-50999D01*
G01*
X186178500Y-193390001D01*
G75*
G02*
X186127501Y-193441000I-50999J0D01*
G01*
X185427499Y-193441000D01*
G75*
G02*
X185376500Y-193390001I0J50999D01*
G01*
G37*
G36*
G01*
X164496500Y-193390001D02*
X164496500Y-192689999D01*
G75*
G02*
X164547499Y-192639000I50999J0D01*
G01*
X165247501Y-192639000D01*
G75*
G02*
X165298500Y-192689999I0J-50999D01*
G01*
X165298500Y-193390001D01*
G75*
G02*
X165247501Y-193441000I-50999J0D01*
G01*
X164547499Y-193441000D01*
G75*
G02*
X164496500Y-193390001I0J50999D01*
G01*
G37*
G36*
G01*
X164496500Y-192290001D02*
X164496500Y-191589999D01*
G75*
G02*
X164547499Y-191539000I50999J0D01*
G01*
X165247501Y-191539000D01*
G75*
G02*
X165298500Y-191589999I0J-50999D01*
G01*
X165298500Y-192290001D01*
G75*
G02*
X165247501Y-192341000I-50999J0D01*
G01*
X164547499Y-192341000D01*
G75*
G02*
X164496500Y-192290001I0J50999D01*
G01*
G37*
G36*
G01*
X166326500Y-192290001D02*
X166326500Y-191589999D01*
G75*
G02*
X166377499Y-191539000I50999J0D01*
G01*
X167077501Y-191539000D01*
G75*
G02*
X167128500Y-191589999I0J-50999D01*
G01*
X167128500Y-192290001D01*
G75*
G02*
X167077501Y-192341000I-50999J0D01*
G01*
X166377499Y-192341000D01*
G75*
G02*
X166326500Y-192290001I0J50999D01*
G01*
G37*
G36*
G01*
X166326500Y-193390001D02*
X166326500Y-192689999D01*
G75*
G02*
X166377499Y-192639000I50999J0D01*
G01*
X167077501Y-192639000D01*
G75*
G02*
X167128500Y-192689999I0J-50999D01*
G01*
X167128500Y-193390001D01*
G75*
G02*
X167077501Y-193441000I-50999J0D01*
G01*
X166377499Y-193441000D01*
G75*
G02*
X166326500Y-193390001I0J50999D01*
G01*
G37*
G36*
G01*
X145446500Y-193390001D02*
X145446500Y-192689999D01*
G75*
G02*
X145497499Y-192639000I50999J0D01*
G01*
X146197501Y-192639000D01*
G75*
G02*
X146248500Y-192689999I0J-50999D01*
G01*
X146248500Y-193390001D01*
G75*
G02*
X146197501Y-193441000I-50999J0D01*
G01*
X145497499Y-193441000D01*
G75*
G02*
X145446500Y-193390001I0J50999D01*
G01*
G37*
G36*
G01*
X145446500Y-192290001D02*
X145446500Y-191589999D01*
G75*
G02*
X145497499Y-191539000I50999J0D01*
G01*
X146197501Y-191539000D01*
G75*
G02*
X146248500Y-191589999I0J-50999D01*
G01*
X146248500Y-192290001D01*
G75*
G02*
X146197501Y-192341000I-50999J0D01*
G01*
X145497499Y-192341000D01*
G75*
G02*
X145446500Y-192290001I0J50999D01*
G01*
G37*
G36*
G01*
X147276500Y-192290001D02*
X147276500Y-191589999D01*
G75*
G02*
X147327499Y-191539000I50999J0D01*
G01*
X148027501Y-191539000D01*
G75*
G02*
X148078500Y-191589999I0J-50999D01*
G01*
X148078500Y-192290001D01*
G75*
G02*
X148027501Y-192341000I-50999J0D01*
G01*
X147327499Y-192341000D01*
G75*
G02*
X147276500Y-192290001I0J50999D01*
G01*
G37*
G36*
G01*
X147276500Y-193390001D02*
X147276500Y-192689999D01*
G75*
G02*
X147327499Y-192639000I50999J0D01*
G01*
X148027501Y-192639000D01*
G75*
G02*
X148078500Y-192689999I0J-50999D01*
G01*
X148078500Y-193390001D01*
G75*
G02*
X148027501Y-193441000I-50999J0D01*
G01*
X147327499Y-193441000D01*
G75*
G02*
X147276500Y-193390001I0J50999D01*
G01*
G37*
G36*
G01*
X126396500Y-193390001D02*
X126396500Y-192689999D01*
G75*
G02*
X126447499Y-192639000I50999J0D01*
G01*
X127147501Y-192639000D01*
G75*
G02*
X127198500Y-192689999I0J-50999D01*
G01*
X127198500Y-193390001D01*
G75*
G02*
X127147501Y-193441000I-50999J0D01*
G01*
X126447499Y-193441000D01*
G75*
G02*
X126396500Y-193390001I0J50999D01*
G01*
G37*
G36*
G01*
X126396500Y-192290001D02*
X126396500Y-191589999D01*
G75*
G02*
X126447499Y-191539000I50999J0D01*
G01*
X127147501Y-191539000D01*
G75*
G02*
X127198500Y-191589999I0J-50999D01*
G01*
X127198500Y-192290001D01*
G75*
G02*
X127147501Y-192341000I-50999J0D01*
G01*
X126447499Y-192341000D01*
G75*
G02*
X126396500Y-192290001I0J50999D01*
G01*
G37*
G36*
G01*
X128226500Y-192290001D02*
X128226500Y-191589999D01*
G75*
G02*
X128277499Y-191539000I50999J0D01*
G01*
X128977501Y-191539000D01*
G75*
G02*
X129028500Y-191589999I0J-50999D01*
G01*
X129028500Y-192290001D01*
G75*
G02*
X128977501Y-192341000I-50999J0D01*
G01*
X128277499Y-192341000D01*
G75*
G02*
X128226500Y-192290001I0J50999D01*
G01*
G37*
G36*
G01*
X128226500Y-193390001D02*
X128226500Y-192689999D01*
G75*
G02*
X128277499Y-192639000I50999J0D01*
G01*
X128977501Y-192639000D01*
G75*
G02*
X129028500Y-192689999I0J-50999D01*
G01*
X129028500Y-193390001D01*
G75*
G02*
X128977501Y-193441000I-50999J0D01*
G01*
X128277499Y-193441000D01*
G75*
G02*
X128226500Y-193390001I0J50999D01*
G01*
G37*
G36*
G01*
X107346500Y-193390001D02*
X107346500Y-192689999D01*
G75*
G02*
X107397499Y-192639000I50999J0D01*
G01*
X108097501Y-192639000D01*
G75*
G02*
X108148500Y-192689999I0J-50999D01*
G01*
X108148500Y-193390001D01*
G75*
G02*
X108097501Y-193441000I-50999J0D01*
G01*
X107397499Y-193441000D01*
G75*
G02*
X107346500Y-193390001I0J50999D01*
G01*
G37*
G36*
G01*
X107346500Y-192290001D02*
X107346500Y-191589999D01*
G75*
G02*
X107397499Y-191539000I50999J0D01*
G01*
X108097501Y-191539000D01*
G75*
G02*
X108148500Y-191589999I0J-50999D01*
G01*
X108148500Y-192290001D01*
G75*
G02*
X108097501Y-192341000I-50999J0D01*
G01*
X107397499Y-192341000D01*
G75*
G02*
X107346500Y-192290001I0J50999D01*
G01*
G37*
G36*
G01*
X109176500Y-192290001D02*
X109176500Y-191589999D01*
G75*
G02*
X109227499Y-191539000I50999J0D01*
G01*
X109927501Y-191539000D01*
G75*
G02*
X109978500Y-191589999I0J-50999D01*
G01*
X109978500Y-192290001D01*
G75*
G02*
X109927501Y-192341000I-50999J0D01*
G01*
X109227499Y-192341000D01*
G75*
G02*
X109176500Y-192290001I0J50999D01*
G01*
G37*
G36*
G01*
X109176500Y-193390001D02*
X109176500Y-192689999D01*
G75*
G02*
X109227499Y-192639000I50999J0D01*
G01*
X109927501Y-192639000D01*
G75*
G02*
X109978500Y-192689999I0J-50999D01*
G01*
X109978500Y-193390001D01*
G75*
G02*
X109927501Y-193441000I-50999J0D01*
G01*
X109227499Y-193441000D01*
G75*
G02*
X109176500Y-193390001I0J50999D01*
G01*
G37*
G36*
G01*
X88296500Y-193390001D02*
X88296500Y-192689999D01*
G75*
G02*
X88347499Y-192639000I50999J0D01*
G01*
X89047501Y-192639000D01*
G75*
G02*
X89098500Y-192689999I0J-50999D01*
G01*
X89098500Y-193390001D01*
G75*
G02*
X89047501Y-193441000I-50999J0D01*
G01*
X88347499Y-193441000D01*
G75*
G02*
X88296500Y-193390001I0J50999D01*
G01*
G37*
G36*
G01*
X88296500Y-192290001D02*
X88296500Y-191589999D01*
G75*
G02*
X88347499Y-191539000I50999J0D01*
G01*
X89047501Y-191539000D01*
G75*
G02*
X89098500Y-191589999I0J-50999D01*
G01*
X89098500Y-192290001D01*
G75*
G02*
X89047501Y-192341000I-50999J0D01*
G01*
X88347499Y-192341000D01*
G75*
G02*
X88296500Y-192290001I0J50999D01*
G01*
G37*
G36*
G01*
X90126500Y-192290001D02*
X90126500Y-191589999D01*
G75*
G02*
X90177499Y-191539000I50999J0D01*
G01*
X90877501Y-191539000D01*
G75*
G02*
X90928500Y-191589999I0J-50999D01*
G01*
X90928500Y-192290001D01*
G75*
G02*
X90877501Y-192341000I-50999J0D01*
G01*
X90177499Y-192341000D01*
G75*
G02*
X90126500Y-192290001I0J50999D01*
G01*
G37*
G36*
G01*
X90126500Y-193390001D02*
X90126500Y-192689999D01*
G75*
G02*
X90177499Y-192639000I50999J0D01*
G01*
X90877501Y-192639000D01*
G75*
G02*
X90928500Y-192689999I0J-50999D01*
G01*
X90928500Y-193390001D01*
G75*
G02*
X90877501Y-193441000I-50999J0D01*
G01*
X90177499Y-193441000D01*
G75*
G02*
X90126500Y-193390001I0J50999D01*
G01*
G37*
G36*
G01*
X69246500Y-193390001D02*
X69246500Y-192689999D01*
G75*
G02*
X69297499Y-192639000I50999J0D01*
G01*
X69997501Y-192639000D01*
G75*
G02*
X70048500Y-192689999I0J-50999D01*
G01*
X70048500Y-193390001D01*
G75*
G02*
X69997501Y-193441000I-50999J0D01*
G01*
X69297499Y-193441000D01*
G75*
G02*
X69246500Y-193390001I0J50999D01*
G01*
G37*
G36*
G01*
X69246500Y-192290001D02*
X69246500Y-191589999D01*
G75*
G02*
X69297499Y-191539000I50999J0D01*
G01*
X69997501Y-191539000D01*
G75*
G02*
X70048500Y-191589999I0J-50999D01*
G01*
X70048500Y-192290001D01*
G75*
G02*
X69997501Y-192341000I-50999J0D01*
G01*
X69297499Y-192341000D01*
G75*
G02*
X69246500Y-192290001I0J50999D01*
G01*
G37*
G36*
G01*
X71076500Y-192290001D02*
X71076500Y-191589999D01*
G75*
G02*
X71127499Y-191539000I50999J0D01*
G01*
X71827501Y-191539000D01*
G75*
G02*
X71878500Y-191589999I0J-50999D01*
G01*
X71878500Y-192290001D01*
G75*
G02*
X71827501Y-192341000I-50999J0D01*
G01*
X71127499Y-192341000D01*
G75*
G02*
X71076500Y-192290001I0J50999D01*
G01*
G37*
G36*
G01*
X71076500Y-193390001D02*
X71076500Y-192689999D01*
G75*
G02*
X71127499Y-192639000I50999J0D01*
G01*
X71827501Y-192639000D01*
G75*
G02*
X71878500Y-192689999I0J-50999D01*
G01*
X71878500Y-193390001D01*
G75*
G02*
X71827501Y-193441000I-50999J0D01*
G01*
X71127499Y-193441000D01*
G75*
G02*
X71076500Y-193390001I0J50999D01*
G01*
G37*
G36*
G01*
X47815250Y-193390001D02*
X47815250Y-192689999D01*
G75*
G02*
X47866249Y-192639000I50999J0D01*
G01*
X48566251Y-192639000D01*
G75*
G02*
X48617250Y-192689999I0J-50999D01*
G01*
X48617250Y-193390001D01*
G75*
G02*
X48566251Y-193441000I-50999J0D01*
G01*
X47866249Y-193441000D01*
G75*
G02*
X47815250Y-193390001I0J50999D01*
G01*
G37*
G36*
G01*
X47815250Y-192290001D02*
X47815250Y-191589999D01*
G75*
G02*
X47866249Y-191539000I50999J0D01*
G01*
X48566251Y-191539000D01*
G75*
G02*
X48617250Y-191589999I0J-50999D01*
G01*
X48617250Y-192290001D01*
G75*
G02*
X48566251Y-192341000I-50999J0D01*
G01*
X47866249Y-192341000D01*
G75*
G02*
X47815250Y-192290001I0J50999D01*
G01*
G37*
G36*
G01*
X49645250Y-192290001D02*
X49645250Y-191589999D01*
G75*
G02*
X49696249Y-191539000I50999J0D01*
G01*
X50396251Y-191539000D01*
G75*
G02*
X50447250Y-191589999I0J-50999D01*
G01*
X50447250Y-192290001D01*
G75*
G02*
X50396251Y-192341000I-50999J0D01*
G01*
X49696249Y-192341000D01*
G75*
G02*
X49645250Y-192290001I0J50999D01*
G01*
G37*
G36*
G01*
X49645250Y-193390001D02*
X49645250Y-192689999D01*
G75*
G02*
X49696249Y-192639000I50999J0D01*
G01*
X50396251Y-192639000D01*
G75*
G02*
X50447250Y-192689999I0J-50999D01*
G01*
X50447250Y-193390001D01*
G75*
G02*
X50396251Y-193441000I-50999J0D01*
G01*
X49696249Y-193441000D01*
G75*
G02*
X49645250Y-193390001I0J50999D01*
G01*
G37*
G36*
G01*
X288321500Y-174340001D02*
X288321500Y-173639999D01*
G75*
G02*
X288372499Y-173589000I50999J0D01*
G01*
X289072501Y-173589000D01*
G75*
G02*
X289123500Y-173639999I0J-50999D01*
G01*
X289123500Y-174340001D01*
G75*
G02*
X289072501Y-174391000I-50999J0D01*
G01*
X288372499Y-174391000D01*
G75*
G02*
X288321500Y-174340001I0J50999D01*
G01*
G37*
G36*
G01*
X288321500Y-173240001D02*
X288321500Y-172539999D01*
G75*
G02*
X288372499Y-172489000I50999J0D01*
G01*
X289072501Y-172489000D01*
G75*
G02*
X289123500Y-172539999I0J-50999D01*
G01*
X289123500Y-173240001D01*
G75*
G02*
X289072501Y-173291000I-50999J0D01*
G01*
X288372499Y-173291000D01*
G75*
G02*
X288321500Y-173240001I0J50999D01*
G01*
G37*
G36*
G01*
X290151500Y-173240001D02*
X290151500Y-172539999D01*
G75*
G02*
X290202499Y-172489000I50999J0D01*
G01*
X290902501Y-172489000D01*
G75*
G02*
X290953500Y-172539999I0J-50999D01*
G01*
X290953500Y-173240001D01*
G75*
G02*
X290902501Y-173291000I-50999J0D01*
G01*
X290202499Y-173291000D01*
G75*
G02*
X290151500Y-173240001I0J50999D01*
G01*
G37*
G36*
G01*
X290151500Y-174340001D02*
X290151500Y-173639999D01*
G75*
G02*
X290202499Y-173589000I50999J0D01*
G01*
X290902501Y-173589000D01*
G75*
G02*
X290953500Y-173639999I0J-50999D01*
G01*
X290953500Y-174340001D01*
G75*
G02*
X290902501Y-174391000I-50999J0D01*
G01*
X290202499Y-174391000D01*
G75*
G02*
X290151500Y-174340001I0J50999D01*
G01*
G37*
G36*
G01*
X269271500Y-174340001D02*
X269271500Y-173639999D01*
G75*
G02*
X269322499Y-173589000I50999J0D01*
G01*
X270022501Y-173589000D01*
G75*
G02*
X270073500Y-173639999I0J-50999D01*
G01*
X270073500Y-174340001D01*
G75*
G02*
X270022501Y-174391000I-50999J0D01*
G01*
X269322499Y-174391000D01*
G75*
G02*
X269271500Y-174340001I0J50999D01*
G01*
G37*
G36*
G01*
X269271500Y-173240001D02*
X269271500Y-172539999D01*
G75*
G02*
X269322499Y-172489000I50999J0D01*
G01*
X270022501Y-172489000D01*
G75*
G02*
X270073500Y-172539999I0J-50999D01*
G01*
X270073500Y-173240001D01*
G75*
G02*
X270022501Y-173291000I-50999J0D01*
G01*
X269322499Y-173291000D01*
G75*
G02*
X269271500Y-173240001I0J50999D01*
G01*
G37*
G36*
G01*
X271101500Y-173240001D02*
X271101500Y-172539999D01*
G75*
G02*
X271152499Y-172489000I50999J0D01*
G01*
X271852501Y-172489000D01*
G75*
G02*
X271903500Y-172539999I0J-50999D01*
G01*
X271903500Y-173240001D01*
G75*
G02*
X271852501Y-173291000I-50999J0D01*
G01*
X271152499Y-173291000D01*
G75*
G02*
X271101500Y-173240001I0J50999D01*
G01*
G37*
G36*
G01*
X271101500Y-174340001D02*
X271101500Y-173639999D01*
G75*
G02*
X271152499Y-173589000I50999J0D01*
G01*
X271852501Y-173589000D01*
G75*
G02*
X271903500Y-173639999I0J-50999D01*
G01*
X271903500Y-174340001D01*
G75*
G02*
X271852501Y-174391000I-50999J0D01*
G01*
X271152499Y-174391000D01*
G75*
G02*
X271101500Y-174340001I0J50999D01*
G01*
G37*
G36*
G01*
X250221500Y-174340001D02*
X250221500Y-173639999D01*
G75*
G02*
X250272499Y-173589000I50999J0D01*
G01*
X250972501Y-173589000D01*
G75*
G02*
X251023500Y-173639999I0J-50999D01*
G01*
X251023500Y-174340001D01*
G75*
G02*
X250972501Y-174391000I-50999J0D01*
G01*
X250272499Y-174391000D01*
G75*
G02*
X250221500Y-174340001I0J50999D01*
G01*
G37*
G36*
G01*
X250221500Y-173240001D02*
X250221500Y-172539999D01*
G75*
G02*
X250272499Y-172489000I50999J0D01*
G01*
X250972501Y-172489000D01*
G75*
G02*
X251023500Y-172539999I0J-50999D01*
G01*
X251023500Y-173240001D01*
G75*
G02*
X250972501Y-173291000I-50999J0D01*
G01*
X250272499Y-173291000D01*
G75*
G02*
X250221500Y-173240001I0J50999D01*
G01*
G37*
G36*
G01*
X252051500Y-173240001D02*
X252051500Y-172539999D01*
G75*
G02*
X252102499Y-172489000I50999J0D01*
G01*
X252802501Y-172489000D01*
G75*
G02*
X252853500Y-172539999I0J-50999D01*
G01*
X252853500Y-173240001D01*
G75*
G02*
X252802501Y-173291000I-50999J0D01*
G01*
X252102499Y-173291000D01*
G75*
G02*
X252051500Y-173240001I0J50999D01*
G01*
G37*
G36*
G01*
X252051500Y-174340001D02*
X252051500Y-173639999D01*
G75*
G02*
X252102499Y-173589000I50999J0D01*
G01*
X252802501Y-173589000D01*
G75*
G02*
X252853500Y-173639999I0J-50999D01*
G01*
X252853500Y-174340001D01*
G75*
G02*
X252802501Y-174391000I-50999J0D01*
G01*
X252102499Y-174391000D01*
G75*
G02*
X252051500Y-174340001I0J50999D01*
G01*
G37*
G36*
G01*
X231171500Y-174340001D02*
X231171500Y-173639999D01*
G75*
G02*
X231222499Y-173589000I50999J0D01*
G01*
X231922501Y-173589000D01*
G75*
G02*
X231973500Y-173639999I0J-50999D01*
G01*
X231973500Y-174340001D01*
G75*
G02*
X231922501Y-174391000I-50999J0D01*
G01*
X231222499Y-174391000D01*
G75*
G02*
X231171500Y-174340001I0J50999D01*
G01*
G37*
G36*
G01*
X231171500Y-173240001D02*
X231171500Y-172539999D01*
G75*
G02*
X231222499Y-172489000I50999J0D01*
G01*
X231922501Y-172489000D01*
G75*
G02*
X231973500Y-172539999I0J-50999D01*
G01*
X231973500Y-173240001D01*
G75*
G02*
X231922501Y-173291000I-50999J0D01*
G01*
X231222499Y-173291000D01*
G75*
G02*
X231171500Y-173240001I0J50999D01*
G01*
G37*
G36*
G01*
X233001500Y-173240001D02*
X233001500Y-172539999D01*
G75*
G02*
X233052499Y-172489000I50999J0D01*
G01*
X233752501Y-172489000D01*
G75*
G02*
X233803500Y-172539999I0J-50999D01*
G01*
X233803500Y-173240001D01*
G75*
G02*
X233752501Y-173291000I-50999J0D01*
G01*
X233052499Y-173291000D01*
G75*
G02*
X233001500Y-173240001I0J50999D01*
G01*
G37*
G36*
G01*
X233001500Y-174340001D02*
X233001500Y-173639999D01*
G75*
G02*
X233052499Y-173589000I50999J0D01*
G01*
X233752501Y-173589000D01*
G75*
G02*
X233803500Y-173639999I0J-50999D01*
G01*
X233803500Y-174340001D01*
G75*
G02*
X233752501Y-174391000I-50999J0D01*
G01*
X233052499Y-174391000D01*
G75*
G02*
X233001500Y-174340001I0J50999D01*
G01*
G37*
G36*
G01*
X212121500Y-174340001D02*
X212121500Y-173639999D01*
G75*
G02*
X212172499Y-173589000I50999J0D01*
G01*
X212872501Y-173589000D01*
G75*
G02*
X212923500Y-173639999I0J-50999D01*
G01*
X212923500Y-174340001D01*
G75*
G02*
X212872501Y-174391000I-50999J0D01*
G01*
X212172499Y-174391000D01*
G75*
G02*
X212121500Y-174340001I0J50999D01*
G01*
G37*
G36*
G01*
X212121500Y-173240001D02*
X212121500Y-172539999D01*
G75*
G02*
X212172499Y-172489000I50999J0D01*
G01*
X212872501Y-172489000D01*
G75*
G02*
X212923500Y-172539999I0J-50999D01*
G01*
X212923500Y-173240001D01*
G75*
G02*
X212872501Y-173291000I-50999J0D01*
G01*
X212172499Y-173291000D01*
G75*
G02*
X212121500Y-173240001I0J50999D01*
G01*
G37*
G36*
G01*
X213951500Y-173240001D02*
X213951500Y-172539999D01*
G75*
G02*
X214002499Y-172489000I50999J0D01*
G01*
X214702501Y-172489000D01*
G75*
G02*
X214753500Y-172539999I0J-50999D01*
G01*
X214753500Y-173240001D01*
G75*
G02*
X214702501Y-173291000I-50999J0D01*
G01*
X214002499Y-173291000D01*
G75*
G02*
X213951500Y-173240001I0J50999D01*
G01*
G37*
G36*
G01*
X213951500Y-174340001D02*
X213951500Y-173639999D01*
G75*
G02*
X214002499Y-173589000I50999J0D01*
G01*
X214702501Y-173589000D01*
G75*
G02*
X214753500Y-173639999I0J-50999D01*
G01*
X214753500Y-174340001D01*
G75*
G02*
X214702501Y-174391000I-50999J0D01*
G01*
X214002499Y-174391000D01*
G75*
G02*
X213951500Y-174340001I0J50999D01*
G01*
G37*
G36*
G01*
X193071500Y-174340001D02*
X193071500Y-173639999D01*
G75*
G02*
X193122499Y-173589000I50999J0D01*
G01*
X193822501Y-173589000D01*
G75*
G02*
X193873500Y-173639999I0J-50999D01*
G01*
X193873500Y-174340001D01*
G75*
G02*
X193822501Y-174391000I-50999J0D01*
G01*
X193122499Y-174391000D01*
G75*
G02*
X193071500Y-174340001I0J50999D01*
G01*
G37*
G36*
G01*
X193071500Y-173240001D02*
X193071500Y-172539999D01*
G75*
G02*
X193122499Y-172489000I50999J0D01*
G01*
X193822501Y-172489000D01*
G75*
G02*
X193873500Y-172539999I0J-50999D01*
G01*
X193873500Y-173240001D01*
G75*
G02*
X193822501Y-173291000I-50999J0D01*
G01*
X193122499Y-173291000D01*
G75*
G02*
X193071500Y-173240001I0J50999D01*
G01*
G37*
G36*
G01*
X194901500Y-173240001D02*
X194901500Y-172539999D01*
G75*
G02*
X194952499Y-172489000I50999J0D01*
G01*
X195652501Y-172489000D01*
G75*
G02*
X195703500Y-172539999I0J-50999D01*
G01*
X195703500Y-173240001D01*
G75*
G02*
X195652501Y-173291000I-50999J0D01*
G01*
X194952499Y-173291000D01*
G75*
G02*
X194901500Y-173240001I0J50999D01*
G01*
G37*
G36*
G01*
X194901500Y-174340001D02*
X194901500Y-173639999D01*
G75*
G02*
X194952499Y-173589000I50999J0D01*
G01*
X195652501Y-173589000D01*
G75*
G02*
X195703500Y-173639999I0J-50999D01*
G01*
X195703500Y-174340001D01*
G75*
G02*
X195652501Y-174391000I-50999J0D01*
G01*
X194952499Y-174391000D01*
G75*
G02*
X194901500Y-174340001I0J50999D01*
G01*
G37*
G36*
G01*
X174021500Y-174340001D02*
X174021500Y-173639999D01*
G75*
G02*
X174072499Y-173589000I50999J0D01*
G01*
X174772501Y-173589000D01*
G75*
G02*
X174823500Y-173639999I0J-50999D01*
G01*
X174823500Y-174340001D01*
G75*
G02*
X174772501Y-174391000I-50999J0D01*
G01*
X174072499Y-174391000D01*
G75*
G02*
X174021500Y-174340001I0J50999D01*
G01*
G37*
G36*
G01*
X174021500Y-173240001D02*
X174021500Y-172539999D01*
G75*
G02*
X174072499Y-172489000I50999J0D01*
G01*
X174772501Y-172489000D01*
G75*
G02*
X174823500Y-172539999I0J-50999D01*
G01*
X174823500Y-173240001D01*
G75*
G02*
X174772501Y-173291000I-50999J0D01*
G01*
X174072499Y-173291000D01*
G75*
G02*
X174021500Y-173240001I0J50999D01*
G01*
G37*
G36*
G01*
X175851500Y-173240001D02*
X175851500Y-172539999D01*
G75*
G02*
X175902499Y-172489000I50999J0D01*
G01*
X176602501Y-172489000D01*
G75*
G02*
X176653500Y-172539999I0J-50999D01*
G01*
X176653500Y-173240001D01*
G75*
G02*
X176602501Y-173291000I-50999J0D01*
G01*
X175902499Y-173291000D01*
G75*
G02*
X175851500Y-173240001I0J50999D01*
G01*
G37*
G36*
G01*
X175851500Y-174340001D02*
X175851500Y-173639999D01*
G75*
G02*
X175902499Y-173589000I50999J0D01*
G01*
X176602501Y-173589000D01*
G75*
G02*
X176653500Y-173639999I0J-50999D01*
G01*
X176653500Y-174340001D01*
G75*
G02*
X176602501Y-174391000I-50999J0D01*
G01*
X175902499Y-174391000D01*
G75*
G02*
X175851500Y-174340001I0J50999D01*
G01*
G37*
G36*
G01*
X154971500Y-174340001D02*
X154971500Y-173639999D01*
G75*
G02*
X155022499Y-173589000I50999J0D01*
G01*
X155722501Y-173589000D01*
G75*
G02*
X155773500Y-173639999I0J-50999D01*
G01*
X155773500Y-174340001D01*
G75*
G02*
X155722501Y-174391000I-50999J0D01*
G01*
X155022499Y-174391000D01*
G75*
G02*
X154971500Y-174340001I0J50999D01*
G01*
G37*
G36*
G01*
X154971500Y-173240001D02*
X154971500Y-172539999D01*
G75*
G02*
X155022499Y-172489000I50999J0D01*
G01*
X155722501Y-172489000D01*
G75*
G02*
X155773500Y-172539999I0J-50999D01*
G01*
X155773500Y-173240001D01*
G75*
G02*
X155722501Y-173291000I-50999J0D01*
G01*
X155022499Y-173291000D01*
G75*
G02*
X154971500Y-173240001I0J50999D01*
G01*
G37*
G36*
G01*
X156801500Y-173240001D02*
X156801500Y-172539999D01*
G75*
G02*
X156852499Y-172489000I50999J0D01*
G01*
X157552501Y-172489000D01*
G75*
G02*
X157603500Y-172539999I0J-50999D01*
G01*
X157603500Y-173240001D01*
G75*
G02*
X157552501Y-173291000I-50999J0D01*
G01*
X156852499Y-173291000D01*
G75*
G02*
X156801500Y-173240001I0J50999D01*
G01*
G37*
G36*
G01*
X156801500Y-174340001D02*
X156801500Y-173639999D01*
G75*
G02*
X156852499Y-173589000I50999J0D01*
G01*
X157552501Y-173589000D01*
G75*
G02*
X157603500Y-173639999I0J-50999D01*
G01*
X157603500Y-174340001D01*
G75*
G02*
X157552501Y-174391000I-50999J0D01*
G01*
X156852499Y-174391000D01*
G75*
G02*
X156801500Y-174340001I0J50999D01*
G01*
G37*
G36*
G01*
X135921500Y-174340001D02*
X135921500Y-173639999D01*
G75*
G02*
X135972499Y-173589000I50999J0D01*
G01*
X136672501Y-173589000D01*
G75*
G02*
X136723500Y-173639999I0J-50999D01*
G01*
X136723500Y-174340001D01*
G75*
G02*
X136672501Y-174391000I-50999J0D01*
G01*
X135972499Y-174391000D01*
G75*
G02*
X135921500Y-174340001I0J50999D01*
G01*
G37*
G36*
G01*
X135921500Y-173240001D02*
X135921500Y-172539999D01*
G75*
G02*
X135972499Y-172489000I50999J0D01*
G01*
X136672501Y-172489000D01*
G75*
G02*
X136723500Y-172539999I0J-50999D01*
G01*
X136723500Y-173240001D01*
G75*
G02*
X136672501Y-173291000I-50999J0D01*
G01*
X135972499Y-173291000D01*
G75*
G02*
X135921500Y-173240001I0J50999D01*
G01*
G37*
G36*
G01*
X137751500Y-173240001D02*
X137751500Y-172539999D01*
G75*
G02*
X137802499Y-172489000I50999J0D01*
G01*
X138502501Y-172489000D01*
G75*
G02*
X138553500Y-172539999I0J-50999D01*
G01*
X138553500Y-173240001D01*
G75*
G02*
X138502501Y-173291000I-50999J0D01*
G01*
X137802499Y-173291000D01*
G75*
G02*
X137751500Y-173240001I0J50999D01*
G01*
G37*
G36*
G01*
X137751500Y-174340001D02*
X137751500Y-173639999D01*
G75*
G02*
X137802499Y-173589000I50999J0D01*
G01*
X138502501Y-173589000D01*
G75*
G02*
X138553500Y-173639999I0J-50999D01*
G01*
X138553500Y-174340001D01*
G75*
G02*
X138502501Y-174391000I-50999J0D01*
G01*
X137802499Y-174391000D01*
G75*
G02*
X137751500Y-174340001I0J50999D01*
G01*
G37*
G36*
G01*
X116871500Y-174340001D02*
X116871500Y-173639999D01*
G75*
G02*
X116922499Y-173589000I50999J0D01*
G01*
X117622501Y-173589000D01*
G75*
G02*
X117673500Y-173639999I0J-50999D01*
G01*
X117673500Y-174340001D01*
G75*
G02*
X117622501Y-174391000I-50999J0D01*
G01*
X116922499Y-174391000D01*
G75*
G02*
X116871500Y-174340001I0J50999D01*
G01*
G37*
G36*
G01*
X116871500Y-173240001D02*
X116871500Y-172539999D01*
G75*
G02*
X116922499Y-172489000I50999J0D01*
G01*
X117622501Y-172489000D01*
G75*
G02*
X117673500Y-172539999I0J-50999D01*
G01*
X117673500Y-173240001D01*
G75*
G02*
X117622501Y-173291000I-50999J0D01*
G01*
X116922499Y-173291000D01*
G75*
G02*
X116871500Y-173240001I0J50999D01*
G01*
G37*
G36*
G01*
X118701500Y-173240001D02*
X118701500Y-172539999D01*
G75*
G02*
X118752499Y-172489000I50999J0D01*
G01*
X119452501Y-172489000D01*
G75*
G02*
X119503500Y-172539999I0J-50999D01*
G01*
X119503500Y-173240001D01*
G75*
G02*
X119452501Y-173291000I-50999J0D01*
G01*
X118752499Y-173291000D01*
G75*
G02*
X118701500Y-173240001I0J50999D01*
G01*
G37*
G36*
G01*
X118701500Y-174340001D02*
X118701500Y-173639999D01*
G75*
G02*
X118752499Y-173589000I50999J0D01*
G01*
X119452501Y-173589000D01*
G75*
G02*
X119503500Y-173639999I0J-50999D01*
G01*
X119503500Y-174340001D01*
G75*
G02*
X119452501Y-174391000I-50999J0D01*
G01*
X118752499Y-174391000D01*
G75*
G02*
X118701500Y-174340001I0J50999D01*
G01*
G37*
G36*
G01*
X97821500Y-174340001D02*
X97821500Y-173639999D01*
G75*
G02*
X97872499Y-173589000I50999J0D01*
G01*
X98572501Y-173589000D01*
G75*
G02*
X98623500Y-173639999I0J-50999D01*
G01*
X98623500Y-174340001D01*
G75*
G02*
X98572501Y-174391000I-50999J0D01*
G01*
X97872499Y-174391000D01*
G75*
G02*
X97821500Y-174340001I0J50999D01*
G01*
G37*
G36*
G01*
X97821500Y-173240001D02*
X97821500Y-172539999D01*
G75*
G02*
X97872499Y-172489000I50999J0D01*
G01*
X98572501Y-172489000D01*
G75*
G02*
X98623500Y-172539999I0J-50999D01*
G01*
X98623500Y-173240001D01*
G75*
G02*
X98572501Y-173291000I-50999J0D01*
G01*
X97872499Y-173291000D01*
G75*
G02*
X97821500Y-173240001I0J50999D01*
G01*
G37*
G36*
G01*
X99651500Y-173240001D02*
X99651500Y-172539999D01*
G75*
G02*
X99702499Y-172489000I50999J0D01*
G01*
X100402501Y-172489000D01*
G75*
G02*
X100453500Y-172539999I0J-50999D01*
G01*
X100453500Y-173240001D01*
G75*
G02*
X100402501Y-173291000I-50999J0D01*
G01*
X99702499Y-173291000D01*
G75*
G02*
X99651500Y-173240001I0J50999D01*
G01*
G37*
G36*
G01*
X99651500Y-174340001D02*
X99651500Y-173639999D01*
G75*
G02*
X99702499Y-173589000I50999J0D01*
G01*
X100402501Y-173589000D01*
G75*
G02*
X100453500Y-173639999I0J-50999D01*
G01*
X100453500Y-174340001D01*
G75*
G02*
X100402501Y-174391000I-50999J0D01*
G01*
X99702499Y-174391000D01*
G75*
G02*
X99651500Y-174340001I0J50999D01*
G01*
G37*
G36*
G01*
X78771500Y-174340001D02*
X78771500Y-173639999D01*
G75*
G02*
X78822499Y-173589000I50999J0D01*
G01*
X79522501Y-173589000D01*
G75*
G02*
X79573500Y-173639999I0J-50999D01*
G01*
X79573500Y-174340001D01*
G75*
G02*
X79522501Y-174391000I-50999J0D01*
G01*
X78822499Y-174391000D01*
G75*
G02*
X78771500Y-174340001I0J50999D01*
G01*
G37*
G36*
G01*
X78771500Y-173240001D02*
X78771500Y-172539999D01*
G75*
G02*
X78822499Y-172489000I50999J0D01*
G01*
X79522501Y-172489000D01*
G75*
G02*
X79573500Y-172539999I0J-50999D01*
G01*
X79573500Y-173240001D01*
G75*
G02*
X79522501Y-173291000I-50999J0D01*
G01*
X78822499Y-173291000D01*
G75*
G02*
X78771500Y-173240001I0J50999D01*
G01*
G37*
G36*
G01*
X80601500Y-173240001D02*
X80601500Y-172539999D01*
G75*
G02*
X80652499Y-172489000I50999J0D01*
G01*
X81352501Y-172489000D01*
G75*
G02*
X81403500Y-172539999I0J-50999D01*
G01*
X81403500Y-173240001D01*
G75*
G02*
X81352501Y-173291000I-50999J0D01*
G01*
X80652499Y-173291000D01*
G75*
G02*
X80601500Y-173240001I0J50999D01*
G01*
G37*
G36*
G01*
X80601500Y-174340001D02*
X80601500Y-173639999D01*
G75*
G02*
X80652499Y-173589000I50999J0D01*
G01*
X81352501Y-173589000D01*
G75*
G02*
X81403500Y-173639999I0J-50999D01*
G01*
X81403500Y-174340001D01*
G75*
G02*
X81352501Y-174391000I-50999J0D01*
G01*
X80652499Y-174391000D01*
G75*
G02*
X80601500Y-174340001I0J50999D01*
G01*
G37*
G36*
G01*
X52577750Y-174340001D02*
X52577750Y-173639999D01*
G75*
G02*
X52628749Y-173589000I50999J0D01*
G01*
X53328751Y-173589000D01*
G75*
G02*
X53379750Y-173639999I0J-50999D01*
G01*
X53379750Y-174340001D01*
G75*
G02*
X53328751Y-174391000I-50999J0D01*
G01*
X52628749Y-174391000D01*
G75*
G02*
X52577750Y-174340001I0J50999D01*
G01*
G37*
G36*
G01*
X52577750Y-173240001D02*
X52577750Y-172539999D01*
G75*
G02*
X52628749Y-172489000I50999J0D01*
G01*
X53328751Y-172489000D01*
G75*
G02*
X53379750Y-172539999I0J-50999D01*
G01*
X53379750Y-173240001D01*
G75*
G02*
X53328751Y-173291000I-50999J0D01*
G01*
X52628749Y-173291000D01*
G75*
G02*
X52577750Y-173240001I0J50999D01*
G01*
G37*
G36*
G01*
X54407750Y-173240001D02*
X54407750Y-172539999D01*
G75*
G02*
X54458749Y-172489000I50999J0D01*
G01*
X55158751Y-172489000D01*
G75*
G02*
X55209750Y-172539999I0J-50999D01*
G01*
X55209750Y-173240001D01*
G75*
G02*
X55158751Y-173291000I-50999J0D01*
G01*
X54458749Y-173291000D01*
G75*
G02*
X54407750Y-173240001I0J50999D01*
G01*
G37*
G36*
G01*
X54407750Y-174340001D02*
X54407750Y-173639999D01*
G75*
G02*
X54458749Y-173589000I50999J0D01*
G01*
X55158751Y-173589000D01*
G75*
G02*
X55209750Y-173639999I0J-50999D01*
G01*
X55209750Y-174340001D01*
G75*
G02*
X55158751Y-174391000I-50999J0D01*
G01*
X54458749Y-174391000D01*
G75*
G02*
X54407750Y-174340001I0J50999D01*
G01*
G37*
G36*
G01*
X374046500Y-155290001D02*
X374046500Y-154589999D01*
G75*
G02*
X374097499Y-154539000I50999J0D01*
G01*
X374797501Y-154539000D01*
G75*
G02*
X374848500Y-154589999I0J-50999D01*
G01*
X374848500Y-155290001D01*
G75*
G02*
X374797501Y-155341000I-50999J0D01*
G01*
X374097499Y-155341000D01*
G75*
G02*
X374046500Y-155290001I0J50999D01*
G01*
G37*
G36*
G01*
X374046500Y-154190001D02*
X374046500Y-153489999D01*
G75*
G02*
X374097499Y-153439000I50999J0D01*
G01*
X374797501Y-153439000D01*
G75*
G02*
X374848500Y-153489999I0J-50999D01*
G01*
X374848500Y-154190001D01*
G75*
G02*
X374797501Y-154241000I-50999J0D01*
G01*
X374097499Y-154241000D01*
G75*
G02*
X374046500Y-154190001I0J50999D01*
G01*
G37*
G36*
G01*
X375876500Y-154190001D02*
X375876500Y-153489999D01*
G75*
G02*
X375927499Y-153439000I50999J0D01*
G01*
X376627501Y-153439000D01*
G75*
G02*
X376678500Y-153489999I0J-50999D01*
G01*
X376678500Y-154190001D01*
G75*
G02*
X376627501Y-154241000I-50999J0D01*
G01*
X375927499Y-154241000D01*
G75*
G02*
X375876500Y-154190001I0J50999D01*
G01*
G37*
G36*
G01*
X375876500Y-155290001D02*
X375876500Y-154589999D01*
G75*
G02*
X375927499Y-154539000I50999J0D01*
G01*
X376627501Y-154539000D01*
G75*
G02*
X376678500Y-154589999I0J-50999D01*
G01*
X376678500Y-155290001D01*
G75*
G02*
X376627501Y-155341000I-50999J0D01*
G01*
X375927499Y-155341000D01*
G75*
G02*
X375876500Y-155290001I0J50999D01*
G01*
G37*
G36*
G01*
X354996500Y-155290001D02*
X354996500Y-154589999D01*
G75*
G02*
X355047499Y-154539000I50999J0D01*
G01*
X355747501Y-154539000D01*
G75*
G02*
X355798500Y-154589999I0J-50999D01*
G01*
X355798500Y-155290001D01*
G75*
G02*
X355747501Y-155341000I-50999J0D01*
G01*
X355047499Y-155341000D01*
G75*
G02*
X354996500Y-155290001I0J50999D01*
G01*
G37*
G36*
G01*
X354996500Y-154190001D02*
X354996500Y-153489999D01*
G75*
G02*
X355047499Y-153439000I50999J0D01*
G01*
X355747501Y-153439000D01*
G75*
G02*
X355798500Y-153489999I0J-50999D01*
G01*
X355798500Y-154190001D01*
G75*
G02*
X355747501Y-154241000I-50999J0D01*
G01*
X355047499Y-154241000D01*
G75*
G02*
X354996500Y-154190001I0J50999D01*
G01*
G37*
G36*
G01*
X356826500Y-154190001D02*
X356826500Y-153489999D01*
G75*
G02*
X356877499Y-153439000I50999J0D01*
G01*
X357577501Y-153439000D01*
G75*
G02*
X357628500Y-153489999I0J-50999D01*
G01*
X357628500Y-154190001D01*
G75*
G02*
X357577501Y-154241000I-50999J0D01*
G01*
X356877499Y-154241000D01*
G75*
G02*
X356826500Y-154190001I0J50999D01*
G01*
G37*
G36*
G01*
X356826500Y-155290001D02*
X356826500Y-154589999D01*
G75*
G02*
X356877499Y-154539000I50999J0D01*
G01*
X357577501Y-154539000D01*
G75*
G02*
X357628500Y-154589999I0J-50999D01*
G01*
X357628500Y-155290001D01*
G75*
G02*
X357577501Y-155341000I-50999J0D01*
G01*
X356877499Y-155341000D01*
G75*
G02*
X356826500Y-155290001I0J50999D01*
G01*
G37*
G36*
G01*
X335946500Y-155290001D02*
X335946500Y-154589999D01*
G75*
G02*
X335997499Y-154539000I50999J0D01*
G01*
X336697501Y-154539000D01*
G75*
G02*
X336748500Y-154589999I0J-50999D01*
G01*
X336748500Y-155290001D01*
G75*
G02*
X336697501Y-155341000I-50999J0D01*
G01*
X335997499Y-155341000D01*
G75*
G02*
X335946500Y-155290001I0J50999D01*
G01*
G37*
G36*
G01*
X335946500Y-154190001D02*
X335946500Y-153489999D01*
G75*
G02*
X335997499Y-153439000I50999J0D01*
G01*
X336697501Y-153439000D01*
G75*
G02*
X336748500Y-153489999I0J-50999D01*
G01*
X336748500Y-154190001D01*
G75*
G02*
X336697501Y-154241000I-50999J0D01*
G01*
X335997499Y-154241000D01*
G75*
G02*
X335946500Y-154190001I0J50999D01*
G01*
G37*
G36*
G01*
X337776500Y-154190001D02*
X337776500Y-153489999D01*
G75*
G02*
X337827499Y-153439000I50999J0D01*
G01*
X338527501Y-153439000D01*
G75*
G02*
X338578500Y-153489999I0J-50999D01*
G01*
X338578500Y-154190001D01*
G75*
G02*
X338527501Y-154241000I-50999J0D01*
G01*
X337827499Y-154241000D01*
G75*
G02*
X337776500Y-154190001I0J50999D01*
G01*
G37*
G36*
G01*
X337776500Y-155290001D02*
X337776500Y-154589999D01*
G75*
G02*
X337827499Y-154539000I50999J0D01*
G01*
X338527501Y-154539000D01*
G75*
G02*
X338578500Y-154589999I0J-50999D01*
G01*
X338578500Y-155290001D01*
G75*
G02*
X338527501Y-155341000I-50999J0D01*
G01*
X337827499Y-155341000D01*
G75*
G02*
X337776500Y-155290001I0J50999D01*
G01*
G37*
G36*
G01*
X305024999Y-157414000D02*
X305725001Y-157414000D01*
G75*
G02*
X305776000Y-157464999I0J-50999D01*
G01*
X305776000Y-158165001D01*
G75*
G02*
X305725001Y-158216000I-50999J0D01*
G01*
X305024999Y-158216000D01*
G75*
G02*
X304974000Y-158165001I0J50999D01*
G01*
X304974000Y-157464999D01*
G75*
G02*
X305024999Y-157414000I50999J0D01*
G01*
G37*
G36*
G01*
X306124999Y-157414000D02*
X306825001Y-157414000D01*
G75*
G02*
X306876000Y-157464999I0J-50999D01*
G01*
X306876000Y-158165001D01*
G75*
G02*
X306825001Y-158216000I-50999J0D01*
G01*
X306124999Y-158216000D01*
G75*
G02*
X306074000Y-158165001I0J50999D01*
G01*
X306074000Y-157464999D01*
G75*
G02*
X306124999Y-157414000I50999J0D01*
G01*
G37*
G36*
G01*
X306124999Y-159244000D02*
X306825001Y-159244000D01*
G75*
G02*
X306876000Y-159294999I0J-50999D01*
G01*
X306876000Y-159995001D01*
G75*
G02*
X306825001Y-160046000I-50999J0D01*
G01*
X306124999Y-160046000D01*
G75*
G02*
X306074000Y-159995001I0J50999D01*
G01*
X306074000Y-159294999D01*
G75*
G02*
X306124999Y-159244000I50999J0D01*
G01*
G37*
G36*
G01*
X305024999Y-159244000D02*
X305725001Y-159244000D01*
G75*
G02*
X305776000Y-159294999I0J-50999D01*
G01*
X305776000Y-159995001D01*
G75*
G02*
X305725001Y-160046000I-50999J0D01*
G01*
X305024999Y-160046000D01*
G75*
G02*
X304974000Y-159995001I0J50999D01*
G01*
X304974000Y-159294999D01*
G75*
G02*
X305024999Y-159244000I50999J0D01*
G01*
G37*
G36*
G01*
X283559000Y-155290001D02*
X283559000Y-154589999D01*
G75*
G02*
X283609999Y-154539000I50999J0D01*
G01*
X284310001Y-154539000D01*
G75*
G02*
X284361000Y-154589999I0J-50999D01*
G01*
X284361000Y-155290001D01*
G75*
G02*
X284310001Y-155341000I-50999J0D01*
G01*
X283609999Y-155341000D01*
G75*
G02*
X283559000Y-155290001I0J50999D01*
G01*
G37*
G36*
G01*
X283559000Y-154190001D02*
X283559000Y-153489999D01*
G75*
G02*
X283609999Y-153439000I50999J0D01*
G01*
X284310001Y-153439000D01*
G75*
G02*
X284361000Y-153489999I0J-50999D01*
G01*
X284361000Y-154190001D01*
G75*
G02*
X284310001Y-154241000I-50999J0D01*
G01*
X283609999Y-154241000D01*
G75*
G02*
X283559000Y-154190001I0J50999D01*
G01*
G37*
G36*
G01*
X285389000Y-154190001D02*
X285389000Y-153489999D01*
G75*
G02*
X285439999Y-153439000I50999J0D01*
G01*
X286140001Y-153439000D01*
G75*
G02*
X286191000Y-153489999I0J-50999D01*
G01*
X286191000Y-154190001D01*
G75*
G02*
X286140001Y-154241000I-50999J0D01*
G01*
X285439999Y-154241000D01*
G75*
G02*
X285389000Y-154190001I0J50999D01*
G01*
G37*
G36*
G01*
X285389000Y-155290001D02*
X285389000Y-154589999D01*
G75*
G02*
X285439999Y-154539000I50999J0D01*
G01*
X286140001Y-154539000D01*
G75*
G02*
X286191000Y-154589999I0J-50999D01*
G01*
X286191000Y-155290001D01*
G75*
G02*
X286140001Y-155341000I-50999J0D01*
G01*
X285439999Y-155341000D01*
G75*
G02*
X285389000Y-155290001I0J50999D01*
G01*
G37*
G36*
G01*
X264509000Y-155290001D02*
X264509000Y-154589999D01*
G75*
G02*
X264559999Y-154539000I50999J0D01*
G01*
X265260001Y-154539000D01*
G75*
G02*
X265311000Y-154589999I0J-50999D01*
G01*
X265311000Y-155290001D01*
G75*
G02*
X265260001Y-155341000I-50999J0D01*
G01*
X264559999Y-155341000D01*
G75*
G02*
X264509000Y-155290001I0J50999D01*
G01*
G37*
G36*
G01*
X264509000Y-154190001D02*
X264509000Y-153489999D01*
G75*
G02*
X264559999Y-153439000I50999J0D01*
G01*
X265260001Y-153439000D01*
G75*
G02*
X265311000Y-153489999I0J-50999D01*
G01*
X265311000Y-154190001D01*
G75*
G02*
X265260001Y-154241000I-50999J0D01*
G01*
X264559999Y-154241000D01*
G75*
G02*
X264509000Y-154190001I0J50999D01*
G01*
G37*
G36*
G01*
X266339000Y-154190001D02*
X266339000Y-153489999D01*
G75*
G02*
X266389999Y-153439000I50999J0D01*
G01*
X267090001Y-153439000D01*
G75*
G02*
X267141000Y-153489999I0J-50999D01*
G01*
X267141000Y-154190001D01*
G75*
G02*
X267090001Y-154241000I-50999J0D01*
G01*
X266389999Y-154241000D01*
G75*
G02*
X266339000Y-154190001I0J50999D01*
G01*
G37*
G36*
G01*
X266339000Y-155290001D02*
X266339000Y-154589999D01*
G75*
G02*
X266389999Y-154539000I50999J0D01*
G01*
X267090001Y-154539000D01*
G75*
G02*
X267141000Y-154589999I0J-50999D01*
G01*
X267141000Y-155290001D01*
G75*
G02*
X267090001Y-155341000I-50999J0D01*
G01*
X266389999Y-155341000D01*
G75*
G02*
X266339000Y-155290001I0J50999D01*
G01*
G37*
G36*
G01*
X245459000Y-155290001D02*
X245459000Y-154589999D01*
G75*
G02*
X245509999Y-154539000I50999J0D01*
G01*
X246210001Y-154539000D01*
G75*
G02*
X246261000Y-154589999I0J-50999D01*
G01*
X246261000Y-155290001D01*
G75*
G02*
X246210001Y-155341000I-50999J0D01*
G01*
X245509999Y-155341000D01*
G75*
G02*
X245459000Y-155290001I0J50999D01*
G01*
G37*
G36*
G01*
X245459000Y-154190001D02*
X245459000Y-153489999D01*
G75*
G02*
X245509999Y-153439000I50999J0D01*
G01*
X246210001Y-153439000D01*
G75*
G02*
X246261000Y-153489999I0J-50999D01*
G01*
X246261000Y-154190001D01*
G75*
G02*
X246210001Y-154241000I-50999J0D01*
G01*
X245509999Y-154241000D01*
G75*
G02*
X245459000Y-154190001I0J50999D01*
G01*
G37*
G36*
G01*
X247289000Y-154190001D02*
X247289000Y-153489999D01*
G75*
G02*
X247339999Y-153439000I50999J0D01*
G01*
X248040001Y-153439000D01*
G75*
G02*
X248091000Y-153489999I0J-50999D01*
G01*
X248091000Y-154190001D01*
G75*
G02*
X248040001Y-154241000I-50999J0D01*
G01*
X247339999Y-154241000D01*
G75*
G02*
X247289000Y-154190001I0J50999D01*
G01*
G37*
G36*
G01*
X247289000Y-155290001D02*
X247289000Y-154589999D01*
G75*
G02*
X247339999Y-154539000I50999J0D01*
G01*
X248040001Y-154539000D01*
G75*
G02*
X248091000Y-154589999I0J-50999D01*
G01*
X248091000Y-155290001D01*
G75*
G02*
X248040001Y-155341000I-50999J0D01*
G01*
X247339999Y-155341000D01*
G75*
G02*
X247289000Y-155290001I0J50999D01*
G01*
G37*
G36*
G01*
X226409000Y-155290001D02*
X226409000Y-154589999D01*
G75*
G02*
X226459999Y-154539000I50999J0D01*
G01*
X227160001Y-154539000D01*
G75*
G02*
X227211000Y-154589999I0J-50999D01*
G01*
X227211000Y-155290001D01*
G75*
G02*
X227160001Y-155341000I-50999J0D01*
G01*
X226459999Y-155341000D01*
G75*
G02*
X226409000Y-155290001I0J50999D01*
G01*
G37*
G36*
G01*
X226409000Y-154190001D02*
X226409000Y-153489999D01*
G75*
G02*
X226459999Y-153439000I50999J0D01*
G01*
X227160001Y-153439000D01*
G75*
G02*
X227211000Y-153489999I0J-50999D01*
G01*
X227211000Y-154190001D01*
G75*
G02*
X227160001Y-154241000I-50999J0D01*
G01*
X226459999Y-154241000D01*
G75*
G02*
X226409000Y-154190001I0J50999D01*
G01*
G37*
G36*
G01*
X228239000Y-154190001D02*
X228239000Y-153489999D01*
G75*
G02*
X228289999Y-153439000I50999J0D01*
G01*
X228990001Y-153439000D01*
G75*
G02*
X229041000Y-153489999I0J-50999D01*
G01*
X229041000Y-154190001D01*
G75*
G02*
X228990001Y-154241000I-50999J0D01*
G01*
X228289999Y-154241000D01*
G75*
G02*
X228239000Y-154190001I0J50999D01*
G01*
G37*
G36*
G01*
X228239000Y-155290001D02*
X228239000Y-154589999D01*
G75*
G02*
X228289999Y-154539000I50999J0D01*
G01*
X228990001Y-154539000D01*
G75*
G02*
X229041000Y-154589999I0J-50999D01*
G01*
X229041000Y-155290001D01*
G75*
G02*
X228990001Y-155341000I-50999J0D01*
G01*
X228289999Y-155341000D01*
G75*
G02*
X228239000Y-155290001I0J50999D01*
G01*
G37*
G36*
G01*
X207359000Y-155290001D02*
X207359000Y-154589999D01*
G75*
G02*
X207409999Y-154539000I50999J0D01*
G01*
X208110001Y-154539000D01*
G75*
G02*
X208161000Y-154589999I0J-50999D01*
G01*
X208161000Y-155290001D01*
G75*
G02*
X208110001Y-155341000I-50999J0D01*
G01*
X207409999Y-155341000D01*
G75*
G02*
X207359000Y-155290001I0J50999D01*
G01*
G37*
G36*
G01*
X207359000Y-154190001D02*
X207359000Y-153489999D01*
G75*
G02*
X207409999Y-153439000I50999J0D01*
G01*
X208110001Y-153439000D01*
G75*
G02*
X208161000Y-153489999I0J-50999D01*
G01*
X208161000Y-154190001D01*
G75*
G02*
X208110001Y-154241000I-50999J0D01*
G01*
X207409999Y-154241000D01*
G75*
G02*
X207359000Y-154190001I0J50999D01*
G01*
G37*
G36*
G01*
X209189000Y-154190001D02*
X209189000Y-153489999D01*
G75*
G02*
X209239999Y-153439000I50999J0D01*
G01*
X209940001Y-153439000D01*
G75*
G02*
X209991000Y-153489999I0J-50999D01*
G01*
X209991000Y-154190001D01*
G75*
G02*
X209940001Y-154241000I-50999J0D01*
G01*
X209239999Y-154241000D01*
G75*
G02*
X209189000Y-154190001I0J50999D01*
G01*
G37*
G36*
G01*
X209189000Y-155290001D02*
X209189000Y-154589999D01*
G75*
G02*
X209239999Y-154539000I50999J0D01*
G01*
X209940001Y-154539000D01*
G75*
G02*
X209991000Y-154589999I0J-50999D01*
G01*
X209991000Y-155290001D01*
G75*
G02*
X209940001Y-155341000I-50999J0D01*
G01*
X209239999Y-155341000D01*
G75*
G02*
X209189000Y-155290001I0J50999D01*
G01*
G37*
G36*
G01*
X188309000Y-155290001D02*
X188309000Y-154589999D01*
G75*
G02*
X188359999Y-154539000I50999J0D01*
G01*
X189060001Y-154539000D01*
G75*
G02*
X189111000Y-154589999I0J-50999D01*
G01*
X189111000Y-155290001D01*
G75*
G02*
X189060001Y-155341000I-50999J0D01*
G01*
X188359999Y-155341000D01*
G75*
G02*
X188309000Y-155290001I0J50999D01*
G01*
G37*
G36*
G01*
X188309000Y-154190001D02*
X188309000Y-153489999D01*
G75*
G02*
X188359999Y-153439000I50999J0D01*
G01*
X189060001Y-153439000D01*
G75*
G02*
X189111000Y-153489999I0J-50999D01*
G01*
X189111000Y-154190001D01*
G75*
G02*
X189060001Y-154241000I-50999J0D01*
G01*
X188359999Y-154241000D01*
G75*
G02*
X188309000Y-154190001I0J50999D01*
G01*
G37*
G36*
G01*
X190139000Y-154190001D02*
X190139000Y-153489999D01*
G75*
G02*
X190189999Y-153439000I50999J0D01*
G01*
X190890001Y-153439000D01*
G75*
G02*
X190941000Y-153489999I0J-50999D01*
G01*
X190941000Y-154190001D01*
G75*
G02*
X190890001Y-154241000I-50999J0D01*
G01*
X190189999Y-154241000D01*
G75*
G02*
X190139000Y-154190001I0J50999D01*
G01*
G37*
G36*
G01*
X190139000Y-155290001D02*
X190139000Y-154589999D01*
G75*
G02*
X190189999Y-154539000I50999J0D01*
G01*
X190890001Y-154539000D01*
G75*
G02*
X190941000Y-154589999I0J-50999D01*
G01*
X190941000Y-155290001D01*
G75*
G02*
X190890001Y-155341000I-50999J0D01*
G01*
X190189999Y-155341000D01*
G75*
G02*
X190139000Y-155290001I0J50999D01*
G01*
G37*
G36*
G01*
X169259000Y-155290001D02*
X169259000Y-154589999D01*
G75*
G02*
X169309999Y-154539000I50999J0D01*
G01*
X170010001Y-154539000D01*
G75*
G02*
X170061000Y-154589999I0J-50999D01*
G01*
X170061000Y-155290001D01*
G75*
G02*
X170010001Y-155341000I-50999J0D01*
G01*
X169309999Y-155341000D01*
G75*
G02*
X169259000Y-155290001I0J50999D01*
G01*
G37*
G36*
G01*
X169259000Y-154190001D02*
X169259000Y-153489999D01*
G75*
G02*
X169309999Y-153439000I50999J0D01*
G01*
X170010001Y-153439000D01*
G75*
G02*
X170061000Y-153489999I0J-50999D01*
G01*
X170061000Y-154190001D01*
G75*
G02*
X170010001Y-154241000I-50999J0D01*
G01*
X169309999Y-154241000D01*
G75*
G02*
X169259000Y-154190001I0J50999D01*
G01*
G37*
G36*
G01*
X171089000Y-154190001D02*
X171089000Y-153489999D01*
G75*
G02*
X171139999Y-153439000I50999J0D01*
G01*
X171840001Y-153439000D01*
G75*
G02*
X171891000Y-153489999I0J-50999D01*
G01*
X171891000Y-154190001D01*
G75*
G02*
X171840001Y-154241000I-50999J0D01*
G01*
X171139999Y-154241000D01*
G75*
G02*
X171089000Y-154190001I0J50999D01*
G01*
G37*
G36*
G01*
X171089000Y-155290001D02*
X171089000Y-154589999D01*
G75*
G02*
X171139999Y-154539000I50999J0D01*
G01*
X171840001Y-154539000D01*
G75*
G02*
X171891000Y-154589999I0J-50999D01*
G01*
X171891000Y-155290001D01*
G75*
G02*
X171840001Y-155341000I-50999J0D01*
G01*
X171139999Y-155341000D01*
G75*
G02*
X171089000Y-155290001I0J50999D01*
G01*
G37*
G36*
G01*
X150209000Y-155290001D02*
X150209000Y-154589999D01*
G75*
G02*
X150259999Y-154539000I50999J0D01*
G01*
X150960001Y-154539000D01*
G75*
G02*
X151011000Y-154589999I0J-50999D01*
G01*
X151011000Y-155290001D01*
G75*
G02*
X150960001Y-155341000I-50999J0D01*
G01*
X150259999Y-155341000D01*
G75*
G02*
X150209000Y-155290001I0J50999D01*
G01*
G37*
G36*
G01*
X150209000Y-154190001D02*
X150209000Y-153489999D01*
G75*
G02*
X150259999Y-153439000I50999J0D01*
G01*
X150960001Y-153439000D01*
G75*
G02*
X151011000Y-153489999I0J-50999D01*
G01*
X151011000Y-154190001D01*
G75*
G02*
X150960001Y-154241000I-50999J0D01*
G01*
X150259999Y-154241000D01*
G75*
G02*
X150209000Y-154190001I0J50999D01*
G01*
G37*
G36*
G01*
X152039000Y-154190001D02*
X152039000Y-153489999D01*
G75*
G02*
X152089999Y-153439000I50999J0D01*
G01*
X152790001Y-153439000D01*
G75*
G02*
X152841000Y-153489999I0J-50999D01*
G01*
X152841000Y-154190001D01*
G75*
G02*
X152790001Y-154241000I-50999J0D01*
G01*
X152089999Y-154241000D01*
G75*
G02*
X152039000Y-154190001I0J50999D01*
G01*
G37*
G36*
G01*
X152039000Y-155290001D02*
X152039000Y-154589999D01*
G75*
G02*
X152089999Y-154539000I50999J0D01*
G01*
X152790001Y-154539000D01*
G75*
G02*
X152841000Y-154589999I0J-50999D01*
G01*
X152841000Y-155290001D01*
G75*
G02*
X152790001Y-155341000I-50999J0D01*
G01*
X152089999Y-155341000D01*
G75*
G02*
X152039000Y-155290001I0J50999D01*
G01*
G37*
G36*
G01*
X131159000Y-155290001D02*
X131159000Y-154589999D01*
G75*
G02*
X131209999Y-154539000I50999J0D01*
G01*
X131910001Y-154539000D01*
G75*
G02*
X131961000Y-154589999I0J-50999D01*
G01*
X131961000Y-155290001D01*
G75*
G02*
X131910001Y-155341000I-50999J0D01*
G01*
X131209999Y-155341000D01*
G75*
G02*
X131159000Y-155290001I0J50999D01*
G01*
G37*
G36*
G01*
X131159000Y-154190001D02*
X131159000Y-153489999D01*
G75*
G02*
X131209999Y-153439000I50999J0D01*
G01*
X131910001Y-153439000D01*
G75*
G02*
X131961000Y-153489999I0J-50999D01*
G01*
X131961000Y-154190001D01*
G75*
G02*
X131910001Y-154241000I-50999J0D01*
G01*
X131209999Y-154241000D01*
G75*
G02*
X131159000Y-154190001I0J50999D01*
G01*
G37*
G36*
G01*
X132989000Y-154190001D02*
X132989000Y-153489999D01*
G75*
G02*
X133039999Y-153439000I50999J0D01*
G01*
X133740001Y-153439000D01*
G75*
G02*
X133791000Y-153489999I0J-50999D01*
G01*
X133791000Y-154190001D01*
G75*
G02*
X133740001Y-154241000I-50999J0D01*
G01*
X133039999Y-154241000D01*
G75*
G02*
X132989000Y-154190001I0J50999D01*
G01*
G37*
G36*
G01*
X132989000Y-155290001D02*
X132989000Y-154589999D01*
G75*
G02*
X133039999Y-154539000I50999J0D01*
G01*
X133740001Y-154539000D01*
G75*
G02*
X133791000Y-154589999I0J-50999D01*
G01*
X133791000Y-155290001D01*
G75*
G02*
X133740001Y-155341000I-50999J0D01*
G01*
X133039999Y-155341000D01*
G75*
G02*
X132989000Y-155290001I0J50999D01*
G01*
G37*
G36*
G01*
X112109000Y-155290001D02*
X112109000Y-154589999D01*
G75*
G02*
X112159999Y-154539000I50999J0D01*
G01*
X112860001Y-154539000D01*
G75*
G02*
X112911000Y-154589999I0J-50999D01*
G01*
X112911000Y-155290001D01*
G75*
G02*
X112860001Y-155341000I-50999J0D01*
G01*
X112159999Y-155341000D01*
G75*
G02*
X112109000Y-155290001I0J50999D01*
G01*
G37*
G36*
G01*
X112109000Y-154190001D02*
X112109000Y-153489999D01*
G75*
G02*
X112159999Y-153439000I50999J0D01*
G01*
X112860001Y-153439000D01*
G75*
G02*
X112911000Y-153489999I0J-50999D01*
G01*
X112911000Y-154190001D01*
G75*
G02*
X112860001Y-154241000I-50999J0D01*
G01*
X112159999Y-154241000D01*
G75*
G02*
X112109000Y-154190001I0J50999D01*
G01*
G37*
G36*
G01*
X113939000Y-154190001D02*
X113939000Y-153489999D01*
G75*
G02*
X113989999Y-153439000I50999J0D01*
G01*
X114690001Y-153439000D01*
G75*
G02*
X114741000Y-153489999I0J-50999D01*
G01*
X114741000Y-154190001D01*
G75*
G02*
X114690001Y-154241000I-50999J0D01*
G01*
X113989999Y-154241000D01*
G75*
G02*
X113939000Y-154190001I0J50999D01*
G01*
G37*
G36*
G01*
X113939000Y-155290001D02*
X113939000Y-154589999D01*
G75*
G02*
X113989999Y-154539000I50999J0D01*
G01*
X114690001Y-154539000D01*
G75*
G02*
X114741000Y-154589999I0J-50999D01*
G01*
X114741000Y-155290001D01*
G75*
G02*
X114690001Y-155341000I-50999J0D01*
G01*
X113989999Y-155341000D01*
G75*
G02*
X113939000Y-155290001I0J50999D01*
G01*
G37*
G36*
G01*
X93059000Y-155290001D02*
X93059000Y-154589999D01*
G75*
G02*
X93109999Y-154539000I50999J0D01*
G01*
X93810001Y-154539000D01*
G75*
G02*
X93861000Y-154589999I0J-50999D01*
G01*
X93861000Y-155290001D01*
G75*
G02*
X93810001Y-155341000I-50999J0D01*
G01*
X93109999Y-155341000D01*
G75*
G02*
X93059000Y-155290001I0J50999D01*
G01*
G37*
G36*
G01*
X93059000Y-154190001D02*
X93059000Y-153489999D01*
G75*
G02*
X93109999Y-153439000I50999J0D01*
G01*
X93810001Y-153439000D01*
G75*
G02*
X93861000Y-153489999I0J-50999D01*
G01*
X93861000Y-154190001D01*
G75*
G02*
X93810001Y-154241000I-50999J0D01*
G01*
X93109999Y-154241000D01*
G75*
G02*
X93059000Y-154190001I0J50999D01*
G01*
G37*
G36*
G01*
X94889000Y-154190001D02*
X94889000Y-153489999D01*
G75*
G02*
X94939999Y-153439000I50999J0D01*
G01*
X95640001Y-153439000D01*
G75*
G02*
X95691000Y-153489999I0J-50999D01*
G01*
X95691000Y-154190001D01*
G75*
G02*
X95640001Y-154241000I-50999J0D01*
G01*
X94939999Y-154241000D01*
G75*
G02*
X94889000Y-154190001I0J50999D01*
G01*
G37*
G36*
G01*
X94889000Y-155290001D02*
X94889000Y-154589999D01*
G75*
G02*
X94939999Y-154539000I50999J0D01*
G01*
X95640001Y-154539000D01*
G75*
G02*
X95691000Y-154589999I0J-50999D01*
G01*
X95691000Y-155290001D01*
G75*
G02*
X95640001Y-155341000I-50999J0D01*
G01*
X94939999Y-155341000D01*
G75*
G02*
X94889000Y-155290001I0J50999D01*
G01*
G37*
G36*
G01*
X74009000Y-155290001D02*
X74009000Y-154589999D01*
G75*
G02*
X74059999Y-154539000I50999J0D01*
G01*
X74760001Y-154539000D01*
G75*
G02*
X74811000Y-154589999I0J-50999D01*
G01*
X74811000Y-155290001D01*
G75*
G02*
X74760001Y-155341000I-50999J0D01*
G01*
X74059999Y-155341000D01*
G75*
G02*
X74009000Y-155290001I0J50999D01*
G01*
G37*
G36*
G01*
X74009000Y-154190001D02*
X74009000Y-153489999D01*
G75*
G02*
X74059999Y-153439000I50999J0D01*
G01*
X74760001Y-153439000D01*
G75*
G02*
X74811000Y-153489999I0J-50999D01*
G01*
X74811000Y-154190001D01*
G75*
G02*
X74760001Y-154241000I-50999J0D01*
G01*
X74059999Y-154241000D01*
G75*
G02*
X74009000Y-154190001I0J50999D01*
G01*
G37*
G36*
G01*
X75839000Y-154190001D02*
X75839000Y-153489999D01*
G75*
G02*
X75889999Y-153439000I50999J0D01*
G01*
X76590001Y-153439000D01*
G75*
G02*
X76641000Y-153489999I0J-50999D01*
G01*
X76641000Y-154190001D01*
G75*
G02*
X76590001Y-154241000I-50999J0D01*
G01*
X75889999Y-154241000D01*
G75*
G02*
X75839000Y-154190001I0J50999D01*
G01*
G37*
G36*
G01*
X75839000Y-155290001D02*
X75839000Y-154589999D01*
G75*
G02*
X75889999Y-154539000I50999J0D01*
G01*
X76590001Y-154539000D01*
G75*
G02*
X76641000Y-154589999I0J-50999D01*
G01*
X76641000Y-155290001D01*
G75*
G02*
X76590001Y-155341000I-50999J0D01*
G01*
X75889999Y-155341000D01*
G75*
G02*
X75839000Y-155290001I0J50999D01*
G01*
G37*
G36*
G01*
X50196500Y-155290001D02*
X50196500Y-154589999D01*
G75*
G02*
X50247499Y-154539000I50999J0D01*
G01*
X50947501Y-154539000D01*
G75*
G02*
X50998500Y-154589999I0J-50999D01*
G01*
X50998500Y-155290001D01*
G75*
G02*
X50947501Y-155341000I-50999J0D01*
G01*
X50247499Y-155341000D01*
G75*
G02*
X50196500Y-155290001I0J50999D01*
G01*
G37*
G36*
G01*
X50196500Y-154190001D02*
X50196500Y-153489999D01*
G75*
G02*
X50247499Y-153439000I50999J0D01*
G01*
X50947501Y-153439000D01*
G75*
G02*
X50998500Y-153489999I0J-50999D01*
G01*
X50998500Y-154190001D01*
G75*
G02*
X50947501Y-154241000I-50999J0D01*
G01*
X50247499Y-154241000D01*
G75*
G02*
X50196500Y-154190001I0J50999D01*
G01*
G37*
G36*
G01*
X52026500Y-154190001D02*
X52026500Y-153489999D01*
G75*
G02*
X52077499Y-153439000I50999J0D01*
G01*
X52777501Y-153439000D01*
G75*
G02*
X52828500Y-153489999I0J-50999D01*
G01*
X52828500Y-154190001D01*
G75*
G02*
X52777501Y-154241000I-50999J0D01*
G01*
X52077499Y-154241000D01*
G75*
G02*
X52026500Y-154190001I0J50999D01*
G01*
G37*
G36*
G01*
X52026500Y-155290001D02*
X52026500Y-154589999D01*
G75*
G02*
X52077499Y-154539000I50999J0D01*
G01*
X52777501Y-154539000D01*
G75*
G02*
X52828500Y-154589999I0J-50999D01*
G01*
X52828500Y-155290001D01*
G75*
G02*
X52777501Y-155341000I-50999J0D01*
G01*
X52077499Y-155341000D01*
G75*
G02*
X52026500Y-155290001I0J50999D01*
G01*
G37*
G36*
G01*
X374046500Y-136240001D02*
X374046500Y-135539999D01*
G75*
G02*
X374097499Y-135489000I50999J0D01*
G01*
X374797501Y-135489000D01*
G75*
G02*
X374848500Y-135539999I0J-50999D01*
G01*
X374848500Y-136240001D01*
G75*
G02*
X374797501Y-136291000I-50999J0D01*
G01*
X374097499Y-136291000D01*
G75*
G02*
X374046500Y-136240001I0J50999D01*
G01*
G37*
G36*
G01*
X374046500Y-135140001D02*
X374046500Y-134439999D01*
G75*
G02*
X374097499Y-134389000I50999J0D01*
G01*
X374797501Y-134389000D01*
G75*
G02*
X374848500Y-134439999I0J-50999D01*
G01*
X374848500Y-135140001D01*
G75*
G02*
X374797501Y-135191000I-50999J0D01*
G01*
X374097499Y-135191000D01*
G75*
G02*
X374046500Y-135140001I0J50999D01*
G01*
G37*
G36*
G01*
X375876500Y-135140001D02*
X375876500Y-134439999D01*
G75*
G02*
X375927499Y-134389000I50999J0D01*
G01*
X376627501Y-134389000D01*
G75*
G02*
X376678500Y-134439999I0J-50999D01*
G01*
X376678500Y-135140001D01*
G75*
G02*
X376627501Y-135191000I-50999J0D01*
G01*
X375927499Y-135191000D01*
G75*
G02*
X375876500Y-135140001I0J50999D01*
G01*
G37*
G36*
G01*
X375876500Y-136240001D02*
X375876500Y-135539999D01*
G75*
G02*
X375927499Y-135489000I50999J0D01*
G01*
X376627501Y-135489000D01*
G75*
G02*
X376678500Y-135539999I0J-50999D01*
G01*
X376678500Y-136240001D01*
G75*
G02*
X376627501Y-136291000I-50999J0D01*
G01*
X375927499Y-136291000D01*
G75*
G02*
X375876500Y-136240001I0J50999D01*
G01*
G37*
G36*
G01*
X354996500Y-136240001D02*
X354996500Y-135539999D01*
G75*
G02*
X355047499Y-135489000I50999J0D01*
G01*
X355747501Y-135489000D01*
G75*
G02*
X355798500Y-135539999I0J-50999D01*
G01*
X355798500Y-136240001D01*
G75*
G02*
X355747501Y-136291000I-50999J0D01*
G01*
X355047499Y-136291000D01*
G75*
G02*
X354996500Y-136240001I0J50999D01*
G01*
G37*
G36*
G01*
X354996500Y-135140001D02*
X354996500Y-134439999D01*
G75*
G02*
X355047499Y-134389000I50999J0D01*
G01*
X355747501Y-134389000D01*
G75*
G02*
X355798500Y-134439999I0J-50999D01*
G01*
X355798500Y-135140001D01*
G75*
G02*
X355747501Y-135191000I-50999J0D01*
G01*
X355047499Y-135191000D01*
G75*
G02*
X354996500Y-135140001I0J50999D01*
G01*
G37*
G36*
G01*
X356826500Y-135140001D02*
X356826500Y-134439999D01*
G75*
G02*
X356877499Y-134389000I50999J0D01*
G01*
X357577501Y-134389000D01*
G75*
G02*
X357628500Y-134439999I0J-50999D01*
G01*
X357628500Y-135140001D01*
G75*
G02*
X357577501Y-135191000I-50999J0D01*
G01*
X356877499Y-135191000D01*
G75*
G02*
X356826500Y-135140001I0J50999D01*
G01*
G37*
G36*
G01*
X356826500Y-136240001D02*
X356826500Y-135539999D01*
G75*
G02*
X356877499Y-135489000I50999J0D01*
G01*
X357577501Y-135489000D01*
G75*
G02*
X357628500Y-135539999I0J-50999D01*
G01*
X357628500Y-136240001D01*
G75*
G02*
X357577501Y-136291000I-50999J0D01*
G01*
X356877499Y-136291000D01*
G75*
G02*
X356826500Y-136240001I0J50999D01*
G01*
G37*
G36*
G01*
X335946500Y-136240001D02*
X335946500Y-135539999D01*
G75*
G02*
X335997499Y-135489000I50999J0D01*
G01*
X336697501Y-135489000D01*
G75*
G02*
X336748500Y-135539999I0J-50999D01*
G01*
X336748500Y-136240001D01*
G75*
G02*
X336697501Y-136291000I-50999J0D01*
G01*
X335997499Y-136291000D01*
G75*
G02*
X335946500Y-136240001I0J50999D01*
G01*
G37*
G36*
G01*
X335946500Y-135140001D02*
X335946500Y-134439999D01*
G75*
G02*
X335997499Y-134389000I50999J0D01*
G01*
X336697501Y-134389000D01*
G75*
G02*
X336748500Y-134439999I0J-50999D01*
G01*
X336748500Y-135140001D01*
G75*
G02*
X336697501Y-135191000I-50999J0D01*
G01*
X335997499Y-135191000D01*
G75*
G02*
X335946500Y-135140001I0J50999D01*
G01*
G37*
G36*
G01*
X337776500Y-135140001D02*
X337776500Y-134439999D01*
G75*
G02*
X337827499Y-134389000I50999J0D01*
G01*
X338527501Y-134389000D01*
G75*
G02*
X338578500Y-134439999I0J-50999D01*
G01*
X338578500Y-135140001D01*
G75*
G02*
X338527501Y-135191000I-50999J0D01*
G01*
X337827499Y-135191000D01*
G75*
G02*
X337776500Y-135140001I0J50999D01*
G01*
G37*
G36*
G01*
X337776500Y-136240001D02*
X337776500Y-135539999D01*
G75*
G02*
X337827499Y-135489000I50999J0D01*
G01*
X338527501Y-135489000D01*
G75*
G02*
X338578500Y-135539999I0J-50999D01*
G01*
X338578500Y-136240001D01*
G75*
G02*
X338527501Y-136291000I-50999J0D01*
G01*
X337827499Y-136291000D01*
G75*
G02*
X337776500Y-136240001I0J50999D01*
G01*
G37*
G36*
G01*
X302609000Y-136240001D02*
X302609000Y-135539999D01*
G75*
G02*
X302659999Y-135489000I50999J0D01*
G01*
X303360001Y-135489000D01*
G75*
G02*
X303411000Y-135539999I0J-50999D01*
G01*
X303411000Y-136240001D01*
G75*
G02*
X303360001Y-136291000I-50999J0D01*
G01*
X302659999Y-136291000D01*
G75*
G02*
X302609000Y-136240001I0J50999D01*
G01*
G37*
G36*
G01*
X302609000Y-135140001D02*
X302609000Y-134439999D01*
G75*
G02*
X302659999Y-134389000I50999J0D01*
G01*
X303360001Y-134389000D01*
G75*
G02*
X303411000Y-134439999I0J-50999D01*
G01*
X303411000Y-135140001D01*
G75*
G02*
X303360001Y-135191000I-50999J0D01*
G01*
X302659999Y-135191000D01*
G75*
G02*
X302609000Y-135140001I0J50999D01*
G01*
G37*
G36*
G01*
X304439000Y-135140001D02*
X304439000Y-134439999D01*
G75*
G02*
X304489999Y-134389000I50999J0D01*
G01*
X305190001Y-134389000D01*
G75*
G02*
X305241000Y-134439999I0J-50999D01*
G01*
X305241000Y-135140001D01*
G75*
G02*
X305190001Y-135191000I-50999J0D01*
G01*
X304489999Y-135191000D01*
G75*
G02*
X304439000Y-135140001I0J50999D01*
G01*
G37*
G36*
G01*
X304439000Y-136240001D02*
X304439000Y-135539999D01*
G75*
G02*
X304489999Y-135489000I50999J0D01*
G01*
X305190001Y-135489000D01*
G75*
G02*
X305241000Y-135539999I0J-50999D01*
G01*
X305241000Y-136240001D01*
G75*
G02*
X305190001Y-136291000I-50999J0D01*
G01*
X304489999Y-136291000D01*
G75*
G02*
X304439000Y-136240001I0J50999D01*
G01*
G37*
G36*
G01*
X274034000Y-136240001D02*
X274034000Y-135539999D01*
G75*
G02*
X274084999Y-135489000I50999J0D01*
G01*
X274785001Y-135489000D01*
G75*
G02*
X274836000Y-135539999I0J-50999D01*
G01*
X274836000Y-136240001D01*
G75*
G02*
X274785001Y-136291000I-50999J0D01*
G01*
X274084999Y-136291000D01*
G75*
G02*
X274034000Y-136240001I0J50999D01*
G01*
G37*
G36*
G01*
X274034000Y-135140001D02*
X274034000Y-134439999D01*
G75*
G02*
X274084999Y-134389000I50999J0D01*
G01*
X274785001Y-134389000D01*
G75*
G02*
X274836000Y-134439999I0J-50999D01*
G01*
X274836000Y-135140001D01*
G75*
G02*
X274785001Y-135191000I-50999J0D01*
G01*
X274084999Y-135191000D01*
G75*
G02*
X274034000Y-135140001I0J50999D01*
G01*
G37*
G36*
G01*
X275864000Y-135140001D02*
X275864000Y-134439999D01*
G75*
G02*
X275914999Y-134389000I50999J0D01*
G01*
X276615001Y-134389000D01*
G75*
G02*
X276666000Y-134439999I0J-50999D01*
G01*
X276666000Y-135140001D01*
G75*
G02*
X276615001Y-135191000I-50999J0D01*
G01*
X275914999Y-135191000D01*
G75*
G02*
X275864000Y-135140001I0J50999D01*
G01*
G37*
G36*
G01*
X275864000Y-136240001D02*
X275864000Y-135539999D01*
G75*
G02*
X275914999Y-135489000I50999J0D01*
G01*
X276615001Y-135489000D01*
G75*
G02*
X276666000Y-135539999I0J-50999D01*
G01*
X276666000Y-136240001D01*
G75*
G02*
X276615001Y-136291000I-50999J0D01*
G01*
X275914999Y-136291000D01*
G75*
G02*
X275864000Y-136240001I0J50999D01*
G01*
G37*
G36*
G01*
X254984000Y-136240001D02*
X254984000Y-135539999D01*
G75*
G02*
X255034999Y-135489000I50999J0D01*
G01*
X255735001Y-135489000D01*
G75*
G02*
X255786000Y-135539999I0J-50999D01*
G01*
X255786000Y-136240001D01*
G75*
G02*
X255735001Y-136291000I-50999J0D01*
G01*
X255034999Y-136291000D01*
G75*
G02*
X254984000Y-136240001I0J50999D01*
G01*
G37*
G36*
G01*
X254984000Y-135140001D02*
X254984000Y-134439999D01*
G75*
G02*
X255034999Y-134389000I50999J0D01*
G01*
X255735001Y-134389000D01*
G75*
G02*
X255786000Y-134439999I0J-50999D01*
G01*
X255786000Y-135140001D01*
G75*
G02*
X255735001Y-135191000I-50999J0D01*
G01*
X255034999Y-135191000D01*
G75*
G02*
X254984000Y-135140001I0J50999D01*
G01*
G37*
G36*
G01*
X256814000Y-135140001D02*
X256814000Y-134439999D01*
G75*
G02*
X256864999Y-134389000I50999J0D01*
G01*
X257565001Y-134389000D01*
G75*
G02*
X257616000Y-134439999I0J-50999D01*
G01*
X257616000Y-135140001D01*
G75*
G02*
X257565001Y-135191000I-50999J0D01*
G01*
X256864999Y-135191000D01*
G75*
G02*
X256814000Y-135140001I0J50999D01*
G01*
G37*
G36*
G01*
X256814000Y-136240001D02*
X256814000Y-135539999D01*
G75*
G02*
X256864999Y-135489000I50999J0D01*
G01*
X257565001Y-135489000D01*
G75*
G02*
X257616000Y-135539999I0J-50999D01*
G01*
X257616000Y-136240001D01*
G75*
G02*
X257565001Y-136291000I-50999J0D01*
G01*
X256864999Y-136291000D01*
G75*
G02*
X256814000Y-136240001I0J50999D01*
G01*
G37*
G36*
G01*
X235934000Y-136240001D02*
X235934000Y-135539999D01*
G75*
G02*
X235984999Y-135489000I50999J0D01*
G01*
X236685001Y-135489000D01*
G75*
G02*
X236736000Y-135539999I0J-50999D01*
G01*
X236736000Y-136240001D01*
G75*
G02*
X236685001Y-136291000I-50999J0D01*
G01*
X235984999Y-136291000D01*
G75*
G02*
X235934000Y-136240001I0J50999D01*
G01*
G37*
G36*
G01*
X235934000Y-135140001D02*
X235934000Y-134439999D01*
G75*
G02*
X235984999Y-134389000I50999J0D01*
G01*
X236685001Y-134389000D01*
G75*
G02*
X236736000Y-134439999I0J-50999D01*
G01*
X236736000Y-135140001D01*
G75*
G02*
X236685001Y-135191000I-50999J0D01*
G01*
X235984999Y-135191000D01*
G75*
G02*
X235934000Y-135140001I0J50999D01*
G01*
G37*
G36*
G01*
X237764000Y-135140001D02*
X237764000Y-134439999D01*
G75*
G02*
X237814999Y-134389000I50999J0D01*
G01*
X238515001Y-134389000D01*
G75*
G02*
X238566000Y-134439999I0J-50999D01*
G01*
X238566000Y-135140001D01*
G75*
G02*
X238515001Y-135191000I-50999J0D01*
G01*
X237814999Y-135191000D01*
G75*
G02*
X237764000Y-135140001I0J50999D01*
G01*
G37*
G36*
G01*
X237764000Y-136240001D02*
X237764000Y-135539999D01*
G75*
G02*
X237814999Y-135489000I50999J0D01*
G01*
X238515001Y-135489000D01*
G75*
G02*
X238566000Y-135539999I0J-50999D01*
G01*
X238566000Y-136240001D01*
G75*
G02*
X238515001Y-136291000I-50999J0D01*
G01*
X237814999Y-136291000D01*
G75*
G02*
X237764000Y-136240001I0J50999D01*
G01*
G37*
G36*
G01*
X216884000Y-136240001D02*
X216884000Y-135539999D01*
G75*
G02*
X216934999Y-135489000I50999J0D01*
G01*
X217635001Y-135489000D01*
G75*
G02*
X217686000Y-135539999I0J-50999D01*
G01*
X217686000Y-136240001D01*
G75*
G02*
X217635001Y-136291000I-50999J0D01*
G01*
X216934999Y-136291000D01*
G75*
G02*
X216884000Y-136240001I0J50999D01*
G01*
G37*
G36*
G01*
X216884000Y-135140001D02*
X216884000Y-134439999D01*
G75*
G02*
X216934999Y-134389000I50999J0D01*
G01*
X217635001Y-134389000D01*
G75*
G02*
X217686000Y-134439999I0J-50999D01*
G01*
X217686000Y-135140001D01*
G75*
G02*
X217635001Y-135191000I-50999J0D01*
G01*
X216934999Y-135191000D01*
G75*
G02*
X216884000Y-135140001I0J50999D01*
G01*
G37*
G36*
G01*
X218714000Y-135140001D02*
X218714000Y-134439999D01*
G75*
G02*
X218764999Y-134389000I50999J0D01*
G01*
X219465001Y-134389000D01*
G75*
G02*
X219516000Y-134439999I0J-50999D01*
G01*
X219516000Y-135140001D01*
G75*
G02*
X219465001Y-135191000I-50999J0D01*
G01*
X218764999Y-135191000D01*
G75*
G02*
X218714000Y-135140001I0J50999D01*
G01*
G37*
G36*
G01*
X218714000Y-136240001D02*
X218714000Y-135539999D01*
G75*
G02*
X218764999Y-135489000I50999J0D01*
G01*
X219465001Y-135489000D01*
G75*
G02*
X219516000Y-135539999I0J-50999D01*
G01*
X219516000Y-136240001D01*
G75*
G02*
X219465001Y-136291000I-50999J0D01*
G01*
X218764999Y-136291000D01*
G75*
G02*
X218714000Y-136240001I0J50999D01*
G01*
G37*
G36*
G01*
X197834000Y-136240001D02*
X197834000Y-135539999D01*
G75*
G02*
X197884999Y-135489000I50999J0D01*
G01*
X198585001Y-135489000D01*
G75*
G02*
X198636000Y-135539999I0J-50999D01*
G01*
X198636000Y-136240001D01*
G75*
G02*
X198585001Y-136291000I-50999J0D01*
G01*
X197884999Y-136291000D01*
G75*
G02*
X197834000Y-136240001I0J50999D01*
G01*
G37*
G36*
G01*
X197834000Y-135140001D02*
X197834000Y-134439999D01*
G75*
G02*
X197884999Y-134389000I50999J0D01*
G01*
X198585001Y-134389000D01*
G75*
G02*
X198636000Y-134439999I0J-50999D01*
G01*
X198636000Y-135140001D01*
G75*
G02*
X198585001Y-135191000I-50999J0D01*
G01*
X197884999Y-135191000D01*
G75*
G02*
X197834000Y-135140001I0J50999D01*
G01*
G37*
G36*
G01*
X199664000Y-135140001D02*
X199664000Y-134439999D01*
G75*
G02*
X199714999Y-134389000I50999J0D01*
G01*
X200415001Y-134389000D01*
G75*
G02*
X200466000Y-134439999I0J-50999D01*
G01*
X200466000Y-135140001D01*
G75*
G02*
X200415001Y-135191000I-50999J0D01*
G01*
X199714999Y-135191000D01*
G75*
G02*
X199664000Y-135140001I0J50999D01*
G01*
G37*
G36*
G01*
X199664000Y-136240001D02*
X199664000Y-135539999D01*
G75*
G02*
X199714999Y-135489000I50999J0D01*
G01*
X200415001Y-135489000D01*
G75*
G02*
X200466000Y-135539999I0J-50999D01*
G01*
X200466000Y-136240001D01*
G75*
G02*
X200415001Y-136291000I-50999J0D01*
G01*
X199714999Y-136291000D01*
G75*
G02*
X199664000Y-136240001I0J50999D01*
G01*
G37*
G36*
G01*
X178784000Y-136240001D02*
X178784000Y-135539999D01*
G75*
G02*
X178834999Y-135489000I50999J0D01*
G01*
X179535001Y-135489000D01*
G75*
G02*
X179586000Y-135539999I0J-50999D01*
G01*
X179586000Y-136240001D01*
G75*
G02*
X179535001Y-136291000I-50999J0D01*
G01*
X178834999Y-136291000D01*
G75*
G02*
X178784000Y-136240001I0J50999D01*
G01*
G37*
G36*
G01*
X178784000Y-135140001D02*
X178784000Y-134439999D01*
G75*
G02*
X178834999Y-134389000I50999J0D01*
G01*
X179535001Y-134389000D01*
G75*
G02*
X179586000Y-134439999I0J-50999D01*
G01*
X179586000Y-135140001D01*
G75*
G02*
X179535001Y-135191000I-50999J0D01*
G01*
X178834999Y-135191000D01*
G75*
G02*
X178784000Y-135140001I0J50999D01*
G01*
G37*
G36*
G01*
X180614000Y-135140001D02*
X180614000Y-134439999D01*
G75*
G02*
X180664999Y-134389000I50999J0D01*
G01*
X181365001Y-134389000D01*
G75*
G02*
X181416000Y-134439999I0J-50999D01*
G01*
X181416000Y-135140001D01*
G75*
G02*
X181365001Y-135191000I-50999J0D01*
G01*
X180664999Y-135191000D01*
G75*
G02*
X180614000Y-135140001I0J50999D01*
G01*
G37*
G36*
G01*
X180614000Y-136240001D02*
X180614000Y-135539999D01*
G75*
G02*
X180664999Y-135489000I50999J0D01*
G01*
X181365001Y-135489000D01*
G75*
G02*
X181416000Y-135539999I0J-50999D01*
G01*
X181416000Y-136240001D01*
G75*
G02*
X181365001Y-136291000I-50999J0D01*
G01*
X180664999Y-136291000D01*
G75*
G02*
X180614000Y-136240001I0J50999D01*
G01*
G37*
G36*
G01*
X159734000Y-136240001D02*
X159734000Y-135539999D01*
G75*
G02*
X159784999Y-135489000I50999J0D01*
G01*
X160485001Y-135489000D01*
G75*
G02*
X160536000Y-135539999I0J-50999D01*
G01*
X160536000Y-136240001D01*
G75*
G02*
X160485001Y-136291000I-50999J0D01*
G01*
X159784999Y-136291000D01*
G75*
G02*
X159734000Y-136240001I0J50999D01*
G01*
G37*
G36*
G01*
X159734000Y-135140001D02*
X159734000Y-134439999D01*
G75*
G02*
X159784999Y-134389000I50999J0D01*
G01*
X160485001Y-134389000D01*
G75*
G02*
X160536000Y-134439999I0J-50999D01*
G01*
X160536000Y-135140001D01*
G75*
G02*
X160485001Y-135191000I-50999J0D01*
G01*
X159784999Y-135191000D01*
G75*
G02*
X159734000Y-135140001I0J50999D01*
G01*
G37*
G36*
G01*
X161564000Y-135140001D02*
X161564000Y-134439999D01*
G75*
G02*
X161614999Y-134389000I50999J0D01*
G01*
X162315001Y-134389000D01*
G75*
G02*
X162366000Y-134439999I0J-50999D01*
G01*
X162366000Y-135140001D01*
G75*
G02*
X162315001Y-135191000I-50999J0D01*
G01*
X161614999Y-135191000D01*
G75*
G02*
X161564000Y-135140001I0J50999D01*
G01*
G37*
G36*
G01*
X161564000Y-136240001D02*
X161564000Y-135539999D01*
G75*
G02*
X161614999Y-135489000I50999J0D01*
G01*
X162315001Y-135489000D01*
G75*
G02*
X162366000Y-135539999I0J-50999D01*
G01*
X162366000Y-136240001D01*
G75*
G02*
X162315001Y-136291000I-50999J0D01*
G01*
X161614999Y-136291000D01*
G75*
G02*
X161564000Y-136240001I0J50999D01*
G01*
G37*
G36*
G01*
X140684000Y-136240001D02*
X140684000Y-135539999D01*
G75*
G02*
X140734999Y-135489000I50999J0D01*
G01*
X141435001Y-135489000D01*
G75*
G02*
X141486000Y-135539999I0J-50999D01*
G01*
X141486000Y-136240001D01*
G75*
G02*
X141435001Y-136291000I-50999J0D01*
G01*
X140734999Y-136291000D01*
G75*
G02*
X140684000Y-136240001I0J50999D01*
G01*
G37*
G36*
G01*
X140684000Y-135140001D02*
X140684000Y-134439999D01*
G75*
G02*
X140734999Y-134389000I50999J0D01*
G01*
X141435001Y-134389000D01*
G75*
G02*
X141486000Y-134439999I0J-50999D01*
G01*
X141486000Y-135140001D01*
G75*
G02*
X141435001Y-135191000I-50999J0D01*
G01*
X140734999Y-135191000D01*
G75*
G02*
X140684000Y-135140001I0J50999D01*
G01*
G37*
G36*
G01*
X142514000Y-135140001D02*
X142514000Y-134439999D01*
G75*
G02*
X142564999Y-134389000I50999J0D01*
G01*
X143265001Y-134389000D01*
G75*
G02*
X143316000Y-134439999I0J-50999D01*
G01*
X143316000Y-135140001D01*
G75*
G02*
X143265001Y-135191000I-50999J0D01*
G01*
X142564999Y-135191000D01*
G75*
G02*
X142514000Y-135140001I0J50999D01*
G01*
G37*
G36*
G01*
X142514000Y-136240001D02*
X142514000Y-135539999D01*
G75*
G02*
X142564999Y-135489000I50999J0D01*
G01*
X143265001Y-135489000D01*
G75*
G02*
X143316000Y-135539999I0J-50999D01*
G01*
X143316000Y-136240001D01*
G75*
G02*
X143265001Y-136291000I-50999J0D01*
G01*
X142564999Y-136291000D01*
G75*
G02*
X142514000Y-136240001I0J50999D01*
G01*
G37*
G36*
G01*
X121634000Y-136240001D02*
X121634000Y-135539999D01*
G75*
G02*
X121684999Y-135489000I50999J0D01*
G01*
X122385001Y-135489000D01*
G75*
G02*
X122436000Y-135539999I0J-50999D01*
G01*
X122436000Y-136240001D01*
G75*
G02*
X122385001Y-136291000I-50999J0D01*
G01*
X121684999Y-136291000D01*
G75*
G02*
X121634000Y-136240001I0J50999D01*
G01*
G37*
G36*
G01*
X121634000Y-135140001D02*
X121634000Y-134439999D01*
G75*
G02*
X121684999Y-134389000I50999J0D01*
G01*
X122385001Y-134389000D01*
G75*
G02*
X122436000Y-134439999I0J-50999D01*
G01*
X122436000Y-135140001D01*
G75*
G02*
X122385001Y-135191000I-50999J0D01*
G01*
X121684999Y-135191000D01*
G75*
G02*
X121634000Y-135140001I0J50999D01*
G01*
G37*
G36*
G01*
X123464000Y-135140001D02*
X123464000Y-134439999D01*
G75*
G02*
X123514999Y-134389000I50999J0D01*
G01*
X124215001Y-134389000D01*
G75*
G02*
X124266000Y-134439999I0J-50999D01*
G01*
X124266000Y-135140001D01*
G75*
G02*
X124215001Y-135191000I-50999J0D01*
G01*
X123514999Y-135191000D01*
G75*
G02*
X123464000Y-135140001I0J50999D01*
G01*
G37*
G36*
G01*
X123464000Y-136240001D02*
X123464000Y-135539999D01*
G75*
G02*
X123514999Y-135489000I50999J0D01*
G01*
X124215001Y-135489000D01*
G75*
G02*
X124266000Y-135539999I0J-50999D01*
G01*
X124266000Y-136240001D01*
G75*
G02*
X124215001Y-136291000I-50999J0D01*
G01*
X123514999Y-136291000D01*
G75*
G02*
X123464000Y-136240001I0J50999D01*
G01*
G37*
G36*
G01*
X102584000Y-136240001D02*
X102584000Y-135539999D01*
G75*
G02*
X102634999Y-135489000I50999J0D01*
G01*
X103335001Y-135489000D01*
G75*
G02*
X103386000Y-135539999I0J-50999D01*
G01*
X103386000Y-136240001D01*
G75*
G02*
X103335001Y-136291000I-50999J0D01*
G01*
X102634999Y-136291000D01*
G75*
G02*
X102584000Y-136240001I0J50999D01*
G01*
G37*
G36*
G01*
X102584000Y-135140001D02*
X102584000Y-134439999D01*
G75*
G02*
X102634999Y-134389000I50999J0D01*
G01*
X103335001Y-134389000D01*
G75*
G02*
X103386000Y-134439999I0J-50999D01*
G01*
X103386000Y-135140001D01*
G75*
G02*
X103335001Y-135191000I-50999J0D01*
G01*
X102634999Y-135191000D01*
G75*
G02*
X102584000Y-135140001I0J50999D01*
G01*
G37*
G36*
G01*
X104414000Y-135140001D02*
X104414000Y-134439999D01*
G75*
G02*
X104464999Y-134389000I50999J0D01*
G01*
X105165001Y-134389000D01*
G75*
G02*
X105216000Y-134439999I0J-50999D01*
G01*
X105216000Y-135140001D01*
G75*
G02*
X105165001Y-135191000I-50999J0D01*
G01*
X104464999Y-135191000D01*
G75*
G02*
X104414000Y-135140001I0J50999D01*
G01*
G37*
G36*
G01*
X104414000Y-136240001D02*
X104414000Y-135539999D01*
G75*
G02*
X104464999Y-135489000I50999J0D01*
G01*
X105165001Y-135489000D01*
G75*
G02*
X105216000Y-135539999I0J-50999D01*
G01*
X105216000Y-136240001D01*
G75*
G02*
X105165001Y-136291000I-50999J0D01*
G01*
X104464999Y-136291000D01*
G75*
G02*
X104414000Y-136240001I0J50999D01*
G01*
G37*
G36*
G01*
X83534000Y-136240001D02*
X83534000Y-135539999D01*
G75*
G02*
X83584999Y-135489000I50999J0D01*
G01*
X84285001Y-135489000D01*
G75*
G02*
X84336000Y-135539999I0J-50999D01*
G01*
X84336000Y-136240001D01*
G75*
G02*
X84285001Y-136291000I-50999J0D01*
G01*
X83584999Y-136291000D01*
G75*
G02*
X83534000Y-136240001I0J50999D01*
G01*
G37*
G36*
G01*
X83534000Y-135140001D02*
X83534000Y-134439999D01*
G75*
G02*
X83584999Y-134389000I50999J0D01*
G01*
X84285001Y-134389000D01*
G75*
G02*
X84336000Y-134439999I0J-50999D01*
G01*
X84336000Y-135140001D01*
G75*
G02*
X84285001Y-135191000I-50999J0D01*
G01*
X83584999Y-135191000D01*
G75*
G02*
X83534000Y-135140001I0J50999D01*
G01*
G37*
G36*
G01*
X85364000Y-135140001D02*
X85364000Y-134439999D01*
G75*
G02*
X85414999Y-134389000I50999J0D01*
G01*
X86115001Y-134389000D01*
G75*
G02*
X86166000Y-134439999I0J-50999D01*
G01*
X86166000Y-135140001D01*
G75*
G02*
X86115001Y-135191000I-50999J0D01*
G01*
X85414999Y-135191000D01*
G75*
G02*
X85364000Y-135140001I0J50999D01*
G01*
G37*
G36*
G01*
X85364000Y-136240001D02*
X85364000Y-135539999D01*
G75*
G02*
X85414999Y-135489000I50999J0D01*
G01*
X86115001Y-135489000D01*
G75*
G02*
X86166000Y-135539999I0J-50999D01*
G01*
X86166000Y-136240001D01*
G75*
G02*
X86115001Y-136291000I-50999J0D01*
G01*
X85414999Y-136291000D01*
G75*
G02*
X85364000Y-136240001I0J50999D01*
G01*
G37*
G36*
G01*
X64484000Y-136240001D02*
X64484000Y-135539999D01*
G75*
G02*
X64534999Y-135489000I50999J0D01*
G01*
X65235001Y-135489000D01*
G75*
G02*
X65286000Y-135539999I0J-50999D01*
G01*
X65286000Y-136240001D01*
G75*
G02*
X65235001Y-136291000I-50999J0D01*
G01*
X64534999Y-136291000D01*
G75*
G02*
X64484000Y-136240001I0J50999D01*
G01*
G37*
G36*
G01*
X64484000Y-135140001D02*
X64484000Y-134439999D01*
G75*
G02*
X64534999Y-134389000I50999J0D01*
G01*
X65235001Y-134389000D01*
G75*
G02*
X65286000Y-134439999I0J-50999D01*
G01*
X65286000Y-135140001D01*
G75*
G02*
X65235001Y-135191000I-50999J0D01*
G01*
X64534999Y-135191000D01*
G75*
G02*
X64484000Y-135140001I0J50999D01*
G01*
G37*
G36*
G01*
X66314000Y-135140001D02*
X66314000Y-134439999D01*
G75*
G02*
X66364999Y-134389000I50999J0D01*
G01*
X67065001Y-134389000D01*
G75*
G02*
X67116000Y-134439999I0J-50999D01*
G01*
X67116000Y-135140001D01*
G75*
G02*
X67065001Y-135191000I-50999J0D01*
G01*
X66364999Y-135191000D01*
G75*
G02*
X66314000Y-135140001I0J50999D01*
G01*
G37*
G36*
G01*
X66314000Y-136240001D02*
X66314000Y-135539999D01*
G75*
G02*
X66364999Y-135489000I50999J0D01*
G01*
X67065001Y-135489000D01*
G75*
G02*
X67116000Y-135539999I0J-50999D01*
G01*
X67116000Y-136240001D01*
G75*
G02*
X67065001Y-136291000I-50999J0D01*
G01*
X66364999Y-136291000D01*
G75*
G02*
X66314000Y-136240001I0J50999D01*
G01*
G37*
G36*
G01*
X45434000Y-136240001D02*
X45434000Y-135539999D01*
G75*
G02*
X45484999Y-135489000I50999J0D01*
G01*
X46185001Y-135489000D01*
G75*
G02*
X46236000Y-135539999I0J-50999D01*
G01*
X46236000Y-136240001D01*
G75*
G02*
X46185001Y-136291000I-50999J0D01*
G01*
X45484999Y-136291000D01*
G75*
G02*
X45434000Y-136240001I0J50999D01*
G01*
G37*
G36*
G01*
X45434000Y-135140001D02*
X45434000Y-134439999D01*
G75*
G02*
X45484999Y-134389000I50999J0D01*
G01*
X46185001Y-134389000D01*
G75*
G02*
X46236000Y-134439999I0J-50999D01*
G01*
X46236000Y-135140001D01*
G75*
G02*
X46185001Y-135191000I-50999J0D01*
G01*
X45484999Y-135191000D01*
G75*
G02*
X45434000Y-135140001I0J50999D01*
G01*
G37*
G36*
G01*
X47264000Y-135140001D02*
X47264000Y-134439999D01*
G75*
G02*
X47314999Y-134389000I50999J0D01*
G01*
X48015001Y-134389000D01*
G75*
G02*
X48066000Y-134439999I0J-50999D01*
G01*
X48066000Y-135140001D01*
G75*
G02*
X48015001Y-135191000I-50999J0D01*
G01*
X47314999Y-135191000D01*
G75*
G02*
X47264000Y-135140001I0J50999D01*
G01*
G37*
G36*
G01*
X47264000Y-136240001D02*
X47264000Y-135539999D01*
G75*
G02*
X47314999Y-135489000I50999J0D01*
G01*
X48015001Y-135489000D01*
G75*
G02*
X48066000Y-135539999I0J-50999D01*
G01*
X48066000Y-136240001D01*
G75*
G02*
X48015001Y-136291000I-50999J0D01*
G01*
X47314999Y-136291000D01*
G75*
G02*
X47264000Y-136240001I0J50999D01*
G01*
G37*
G36*
G01*
X374046500Y-107665001D02*
X374046500Y-106964999D01*
G75*
G02*
X374097499Y-106914000I50999J0D01*
G01*
X374797501Y-106914000D01*
G75*
G02*
X374848500Y-106964999I0J-50999D01*
G01*
X374848500Y-107665001D01*
G75*
G02*
X374797501Y-107716000I-50999J0D01*
G01*
X374097499Y-107716000D01*
G75*
G02*
X374046500Y-107665001I0J50999D01*
G01*
G37*
G36*
G01*
X374046500Y-106565001D02*
X374046500Y-105864999D01*
G75*
G02*
X374097499Y-105814000I50999J0D01*
G01*
X374797501Y-105814000D01*
G75*
G02*
X374848500Y-105864999I0J-50999D01*
G01*
X374848500Y-106565001D01*
G75*
G02*
X374797501Y-106616000I-50999J0D01*
G01*
X374097499Y-106616000D01*
G75*
G02*
X374046500Y-106565001I0J50999D01*
G01*
G37*
G36*
G01*
X375876500Y-106565001D02*
X375876500Y-105864999D01*
G75*
G02*
X375927499Y-105814000I50999J0D01*
G01*
X376627501Y-105814000D01*
G75*
G02*
X376678500Y-105864999I0J-50999D01*
G01*
X376678500Y-106565001D01*
G75*
G02*
X376627501Y-106616000I-50999J0D01*
G01*
X375927499Y-106616000D01*
G75*
G02*
X375876500Y-106565001I0J50999D01*
G01*
G37*
G36*
G01*
X375876500Y-107665001D02*
X375876500Y-106964999D01*
G75*
G02*
X375927499Y-106914000I50999J0D01*
G01*
X376627501Y-106914000D01*
G75*
G02*
X376678500Y-106964999I0J-50999D01*
G01*
X376678500Y-107665001D01*
G75*
G02*
X376627501Y-107716000I-50999J0D01*
G01*
X375927499Y-107716000D01*
G75*
G02*
X375876500Y-107665001I0J50999D01*
G01*
G37*
G36*
G01*
X354996500Y-107665001D02*
X354996500Y-106964999D01*
G75*
G02*
X355047499Y-106914000I50999J0D01*
G01*
X355747501Y-106914000D01*
G75*
G02*
X355798500Y-106964999I0J-50999D01*
G01*
X355798500Y-107665001D01*
G75*
G02*
X355747501Y-107716000I-50999J0D01*
G01*
X355047499Y-107716000D01*
G75*
G02*
X354996500Y-107665001I0J50999D01*
G01*
G37*
G36*
G01*
X354996500Y-106565001D02*
X354996500Y-105864999D01*
G75*
G02*
X355047499Y-105814000I50999J0D01*
G01*
X355747501Y-105814000D01*
G75*
G02*
X355798500Y-105864999I0J-50999D01*
G01*
X355798500Y-106565001D01*
G75*
G02*
X355747501Y-106616000I-50999J0D01*
G01*
X355047499Y-106616000D01*
G75*
G02*
X354996500Y-106565001I0J50999D01*
G01*
G37*
G36*
G01*
X356826500Y-106565001D02*
X356826500Y-105864999D01*
G75*
G02*
X356877499Y-105814000I50999J0D01*
G01*
X357577501Y-105814000D01*
G75*
G02*
X357628500Y-105864999I0J-50999D01*
G01*
X357628500Y-106565001D01*
G75*
G02*
X357577501Y-106616000I-50999J0D01*
G01*
X356877499Y-106616000D01*
G75*
G02*
X356826500Y-106565001I0J50999D01*
G01*
G37*
G36*
G01*
X356826500Y-107665001D02*
X356826500Y-106964999D01*
G75*
G02*
X356877499Y-106914000I50999J0D01*
G01*
X357577501Y-106914000D01*
G75*
G02*
X357628500Y-106964999I0J-50999D01*
G01*
X357628500Y-107665001D01*
G75*
G02*
X357577501Y-107716000I-50999J0D01*
G01*
X356877499Y-107716000D01*
G75*
G02*
X356826500Y-107665001I0J50999D01*
G01*
G37*
G36*
G01*
X335946500Y-107665001D02*
X335946500Y-106964999D01*
G75*
G02*
X335997499Y-106914000I50999J0D01*
G01*
X336697501Y-106914000D01*
G75*
G02*
X336748500Y-106964999I0J-50999D01*
G01*
X336748500Y-107665001D01*
G75*
G02*
X336697501Y-107716000I-50999J0D01*
G01*
X335997499Y-107716000D01*
G75*
G02*
X335946500Y-107665001I0J50999D01*
G01*
G37*
G36*
G01*
X335946500Y-106565001D02*
X335946500Y-105864999D01*
G75*
G02*
X335997499Y-105814000I50999J0D01*
G01*
X336697501Y-105814000D01*
G75*
G02*
X336748500Y-105864999I0J-50999D01*
G01*
X336748500Y-106565001D01*
G75*
G02*
X336697501Y-106616000I-50999J0D01*
G01*
X335997499Y-106616000D01*
G75*
G02*
X335946500Y-106565001I0J50999D01*
G01*
G37*
G36*
G01*
X337776500Y-106565001D02*
X337776500Y-105864999D01*
G75*
G02*
X337827499Y-105814000I50999J0D01*
G01*
X338527501Y-105814000D01*
G75*
G02*
X338578500Y-105864999I0J-50999D01*
G01*
X338578500Y-106565001D01*
G75*
G02*
X338527501Y-106616000I-50999J0D01*
G01*
X337827499Y-106616000D01*
G75*
G02*
X337776500Y-106565001I0J50999D01*
G01*
G37*
G36*
G01*
X337776500Y-107665001D02*
X337776500Y-106964999D01*
G75*
G02*
X337827499Y-106914000I50999J0D01*
G01*
X338527501Y-106914000D01*
G75*
G02*
X338578500Y-106964999I0J-50999D01*
G01*
X338578500Y-107665001D01*
G75*
G02*
X338527501Y-107716000I-50999J0D01*
G01*
X337827499Y-107716000D01*
G75*
G02*
X337776500Y-107665001I0J50999D01*
G01*
G37*
G36*
G01*
X312134000Y-107665001D02*
X312134000Y-106964999D01*
G75*
G02*
X312184999Y-106914000I50999J0D01*
G01*
X312885001Y-106914000D01*
G75*
G02*
X312936000Y-106964999I0J-50999D01*
G01*
X312936000Y-107665001D01*
G75*
G02*
X312885001Y-107716000I-50999J0D01*
G01*
X312184999Y-107716000D01*
G75*
G02*
X312134000Y-107665001I0J50999D01*
G01*
G37*
G36*
G01*
X312134000Y-106565001D02*
X312134000Y-105864999D01*
G75*
G02*
X312184999Y-105814000I50999J0D01*
G01*
X312885001Y-105814000D01*
G75*
G02*
X312936000Y-105864999I0J-50999D01*
G01*
X312936000Y-106565001D01*
G75*
G02*
X312885001Y-106616000I-50999J0D01*
G01*
X312184999Y-106616000D01*
G75*
G02*
X312134000Y-106565001I0J50999D01*
G01*
G37*
G36*
G01*
X313964000Y-106565001D02*
X313964000Y-105864999D01*
G75*
G02*
X314014999Y-105814000I50999J0D01*
G01*
X314715001Y-105814000D01*
G75*
G02*
X314766000Y-105864999I0J-50999D01*
G01*
X314766000Y-106565001D01*
G75*
G02*
X314715001Y-106616000I-50999J0D01*
G01*
X314014999Y-106616000D01*
G75*
G02*
X313964000Y-106565001I0J50999D01*
G01*
G37*
G36*
G01*
X313964000Y-107665001D02*
X313964000Y-106964999D01*
G75*
G02*
X314014999Y-106914000I50999J0D01*
G01*
X314715001Y-106914000D01*
G75*
G02*
X314766000Y-106964999I0J-50999D01*
G01*
X314766000Y-107665001D01*
G75*
G02*
X314715001Y-107716000I-50999J0D01*
G01*
X314014999Y-107716000D01*
G75*
G02*
X313964000Y-107665001I0J50999D01*
G01*
G37*
G36*
G01*
X293084000Y-107665001D02*
X293084000Y-106964999D01*
G75*
G02*
X293134999Y-106914000I50999J0D01*
G01*
X293835001Y-106914000D01*
G75*
G02*
X293886000Y-106964999I0J-50999D01*
G01*
X293886000Y-107665001D01*
G75*
G02*
X293835001Y-107716000I-50999J0D01*
G01*
X293134999Y-107716000D01*
G75*
G02*
X293084000Y-107665001I0J50999D01*
G01*
G37*
G36*
G01*
X293084000Y-106565001D02*
X293084000Y-105864999D01*
G75*
G02*
X293134999Y-105814000I50999J0D01*
G01*
X293835001Y-105814000D01*
G75*
G02*
X293886000Y-105864999I0J-50999D01*
G01*
X293886000Y-106565001D01*
G75*
G02*
X293835001Y-106616000I-50999J0D01*
G01*
X293134999Y-106616000D01*
G75*
G02*
X293084000Y-106565001I0J50999D01*
G01*
G37*
G36*
G01*
X294914000Y-106565001D02*
X294914000Y-105864999D01*
G75*
G02*
X294964999Y-105814000I50999J0D01*
G01*
X295665001Y-105814000D01*
G75*
G02*
X295716000Y-105864999I0J-50999D01*
G01*
X295716000Y-106565001D01*
G75*
G02*
X295665001Y-106616000I-50999J0D01*
G01*
X294964999Y-106616000D01*
G75*
G02*
X294914000Y-106565001I0J50999D01*
G01*
G37*
G36*
G01*
X294914000Y-107665001D02*
X294914000Y-106964999D01*
G75*
G02*
X294964999Y-106914000I50999J0D01*
G01*
X295665001Y-106914000D01*
G75*
G02*
X295716000Y-106964999I0J-50999D01*
G01*
X295716000Y-107665001D01*
G75*
G02*
X295665001Y-107716000I-50999J0D01*
G01*
X294964999Y-107716000D01*
G75*
G02*
X294914000Y-107665001I0J50999D01*
G01*
G37*
G36*
G01*
X274034000Y-107665001D02*
X274034000Y-106964999D01*
G75*
G02*
X274084999Y-106914000I50999J0D01*
G01*
X274785001Y-106914000D01*
G75*
G02*
X274836000Y-106964999I0J-50999D01*
G01*
X274836000Y-107665001D01*
G75*
G02*
X274785001Y-107716000I-50999J0D01*
G01*
X274084999Y-107716000D01*
G75*
G02*
X274034000Y-107665001I0J50999D01*
G01*
G37*
G36*
G01*
X274034000Y-106565001D02*
X274034000Y-105864999D01*
G75*
G02*
X274084999Y-105814000I50999J0D01*
G01*
X274785001Y-105814000D01*
G75*
G02*
X274836000Y-105864999I0J-50999D01*
G01*
X274836000Y-106565001D01*
G75*
G02*
X274785001Y-106616000I-50999J0D01*
G01*
X274084999Y-106616000D01*
G75*
G02*
X274034000Y-106565001I0J50999D01*
G01*
G37*
G36*
G01*
X275864000Y-106565001D02*
X275864000Y-105864999D01*
G75*
G02*
X275914999Y-105814000I50999J0D01*
G01*
X276615001Y-105814000D01*
G75*
G02*
X276666000Y-105864999I0J-50999D01*
G01*
X276666000Y-106565001D01*
G75*
G02*
X276615001Y-106616000I-50999J0D01*
G01*
X275914999Y-106616000D01*
G75*
G02*
X275864000Y-106565001I0J50999D01*
G01*
G37*
G36*
G01*
X275864000Y-107665001D02*
X275864000Y-106964999D01*
G75*
G02*
X275914999Y-106914000I50999J0D01*
G01*
X276615001Y-106914000D01*
G75*
G02*
X276666000Y-106964999I0J-50999D01*
G01*
X276666000Y-107665001D01*
G75*
G02*
X276615001Y-107716000I-50999J0D01*
G01*
X275914999Y-107716000D01*
G75*
G02*
X275864000Y-107665001I0J50999D01*
G01*
G37*
G36*
G01*
X254984000Y-107665001D02*
X254984000Y-106964999D01*
G75*
G02*
X255034999Y-106914000I50999J0D01*
G01*
X255735001Y-106914000D01*
G75*
G02*
X255786000Y-106964999I0J-50999D01*
G01*
X255786000Y-107665001D01*
G75*
G02*
X255735001Y-107716000I-50999J0D01*
G01*
X255034999Y-107716000D01*
G75*
G02*
X254984000Y-107665001I0J50999D01*
G01*
G37*
G36*
G01*
X254984000Y-106565001D02*
X254984000Y-105864999D01*
G75*
G02*
X255034999Y-105814000I50999J0D01*
G01*
X255735001Y-105814000D01*
G75*
G02*
X255786000Y-105864999I0J-50999D01*
G01*
X255786000Y-106565001D01*
G75*
G02*
X255735001Y-106616000I-50999J0D01*
G01*
X255034999Y-106616000D01*
G75*
G02*
X254984000Y-106565001I0J50999D01*
G01*
G37*
G36*
G01*
X256814000Y-106565001D02*
X256814000Y-105864999D01*
G75*
G02*
X256864999Y-105814000I50999J0D01*
G01*
X257565001Y-105814000D01*
G75*
G02*
X257616000Y-105864999I0J-50999D01*
G01*
X257616000Y-106565001D01*
G75*
G02*
X257565001Y-106616000I-50999J0D01*
G01*
X256864999Y-106616000D01*
G75*
G02*
X256814000Y-106565001I0J50999D01*
G01*
G37*
G36*
G01*
X256814000Y-107665001D02*
X256814000Y-106964999D01*
G75*
G02*
X256864999Y-106914000I50999J0D01*
G01*
X257565001Y-106914000D01*
G75*
G02*
X257616000Y-106964999I0J-50999D01*
G01*
X257616000Y-107665001D01*
G75*
G02*
X257565001Y-107716000I-50999J0D01*
G01*
X256864999Y-107716000D01*
G75*
G02*
X256814000Y-107665001I0J50999D01*
G01*
G37*
G36*
G01*
X226409000Y-107665001D02*
X226409000Y-106964999D01*
G75*
G02*
X226459999Y-106914000I50999J0D01*
G01*
X227160001Y-106914000D01*
G75*
G02*
X227211000Y-106964999I0J-50999D01*
G01*
X227211000Y-107665001D01*
G75*
G02*
X227160001Y-107716000I-50999J0D01*
G01*
X226459999Y-107716000D01*
G75*
G02*
X226409000Y-107665001I0J50999D01*
G01*
G37*
G36*
G01*
X226409000Y-106565001D02*
X226409000Y-105864999D01*
G75*
G02*
X226459999Y-105814000I50999J0D01*
G01*
X227160001Y-105814000D01*
G75*
G02*
X227211000Y-105864999I0J-50999D01*
G01*
X227211000Y-106565001D01*
G75*
G02*
X227160001Y-106616000I-50999J0D01*
G01*
X226459999Y-106616000D01*
G75*
G02*
X226409000Y-106565001I0J50999D01*
G01*
G37*
G36*
G01*
X228239000Y-106565001D02*
X228239000Y-105864999D01*
G75*
G02*
X228289999Y-105814000I50999J0D01*
G01*
X228990001Y-105814000D01*
G75*
G02*
X229041000Y-105864999I0J-50999D01*
G01*
X229041000Y-106565001D01*
G75*
G02*
X228990001Y-106616000I-50999J0D01*
G01*
X228289999Y-106616000D01*
G75*
G02*
X228239000Y-106565001I0J50999D01*
G01*
G37*
G36*
G01*
X228239000Y-107665001D02*
X228239000Y-106964999D01*
G75*
G02*
X228289999Y-106914000I50999J0D01*
G01*
X228990001Y-106914000D01*
G75*
G02*
X229041000Y-106964999I0J-50999D01*
G01*
X229041000Y-107665001D01*
G75*
G02*
X228990001Y-107716000I-50999J0D01*
G01*
X228289999Y-107716000D01*
G75*
G02*
X228239000Y-107665001I0J50999D01*
G01*
G37*
G36*
G01*
X207359000Y-107665001D02*
X207359000Y-106964999D01*
G75*
G02*
X207409999Y-106914000I50999J0D01*
G01*
X208110001Y-106914000D01*
G75*
G02*
X208161000Y-106964999I0J-50999D01*
G01*
X208161000Y-107665001D01*
G75*
G02*
X208110001Y-107716000I-50999J0D01*
G01*
X207409999Y-107716000D01*
G75*
G02*
X207359000Y-107665001I0J50999D01*
G01*
G37*
G36*
G01*
X207359000Y-106565001D02*
X207359000Y-105864999D01*
G75*
G02*
X207409999Y-105814000I50999J0D01*
G01*
X208110001Y-105814000D01*
G75*
G02*
X208161000Y-105864999I0J-50999D01*
G01*
X208161000Y-106565001D01*
G75*
G02*
X208110001Y-106616000I-50999J0D01*
G01*
X207409999Y-106616000D01*
G75*
G02*
X207359000Y-106565001I0J50999D01*
G01*
G37*
G36*
G01*
X209189000Y-106565001D02*
X209189000Y-105864999D01*
G75*
G02*
X209239999Y-105814000I50999J0D01*
G01*
X209940001Y-105814000D01*
G75*
G02*
X209991000Y-105864999I0J-50999D01*
G01*
X209991000Y-106565001D01*
G75*
G02*
X209940001Y-106616000I-50999J0D01*
G01*
X209239999Y-106616000D01*
G75*
G02*
X209189000Y-106565001I0J50999D01*
G01*
G37*
G36*
G01*
X209189000Y-107665001D02*
X209189000Y-106964999D01*
G75*
G02*
X209239999Y-106914000I50999J0D01*
G01*
X209940001Y-106914000D01*
G75*
G02*
X209991000Y-106964999I0J-50999D01*
G01*
X209991000Y-107665001D01*
G75*
G02*
X209940001Y-107716000I-50999J0D01*
G01*
X209239999Y-107716000D01*
G75*
G02*
X209189000Y-107665001I0J50999D01*
G01*
G37*
G36*
G01*
X188309000Y-107665001D02*
X188309000Y-106964999D01*
G75*
G02*
X188359999Y-106914000I50999J0D01*
G01*
X189060001Y-106914000D01*
G75*
G02*
X189111000Y-106964999I0J-50999D01*
G01*
X189111000Y-107665001D01*
G75*
G02*
X189060001Y-107716000I-50999J0D01*
G01*
X188359999Y-107716000D01*
G75*
G02*
X188309000Y-107665001I0J50999D01*
G01*
G37*
G36*
G01*
X188309000Y-106565001D02*
X188309000Y-105864999D01*
G75*
G02*
X188359999Y-105814000I50999J0D01*
G01*
X189060001Y-105814000D01*
G75*
G02*
X189111000Y-105864999I0J-50999D01*
G01*
X189111000Y-106565001D01*
G75*
G02*
X189060001Y-106616000I-50999J0D01*
G01*
X188359999Y-106616000D01*
G75*
G02*
X188309000Y-106565001I0J50999D01*
G01*
G37*
G36*
G01*
X190139000Y-106565001D02*
X190139000Y-105864999D01*
G75*
G02*
X190189999Y-105814000I50999J0D01*
G01*
X190890001Y-105814000D01*
G75*
G02*
X190941000Y-105864999I0J-50999D01*
G01*
X190941000Y-106565001D01*
G75*
G02*
X190890001Y-106616000I-50999J0D01*
G01*
X190189999Y-106616000D01*
G75*
G02*
X190139000Y-106565001I0J50999D01*
G01*
G37*
G36*
G01*
X190139000Y-107665001D02*
X190139000Y-106964999D01*
G75*
G02*
X190189999Y-106914000I50999J0D01*
G01*
X190890001Y-106914000D01*
G75*
G02*
X190941000Y-106964999I0J-50999D01*
G01*
X190941000Y-107665001D01*
G75*
G02*
X190890001Y-107716000I-50999J0D01*
G01*
X190189999Y-107716000D01*
G75*
G02*
X190139000Y-107665001I0J50999D01*
G01*
G37*
G36*
G01*
X169259000Y-107665001D02*
X169259000Y-106964999D01*
G75*
G02*
X169309999Y-106914000I50999J0D01*
G01*
X170010001Y-106914000D01*
G75*
G02*
X170061000Y-106964999I0J-50999D01*
G01*
X170061000Y-107665001D01*
G75*
G02*
X170010001Y-107716000I-50999J0D01*
G01*
X169309999Y-107716000D01*
G75*
G02*
X169259000Y-107665001I0J50999D01*
G01*
G37*
G36*
G01*
X169259000Y-106565001D02*
X169259000Y-105864999D01*
G75*
G02*
X169309999Y-105814000I50999J0D01*
G01*
X170010001Y-105814000D01*
G75*
G02*
X170061000Y-105864999I0J-50999D01*
G01*
X170061000Y-106565001D01*
G75*
G02*
X170010001Y-106616000I-50999J0D01*
G01*
X169309999Y-106616000D01*
G75*
G02*
X169259000Y-106565001I0J50999D01*
G01*
G37*
G36*
G01*
X171089000Y-106565001D02*
X171089000Y-105864999D01*
G75*
G02*
X171139999Y-105814000I50999J0D01*
G01*
X171840001Y-105814000D01*
G75*
G02*
X171891000Y-105864999I0J-50999D01*
G01*
X171891000Y-106565001D01*
G75*
G02*
X171840001Y-106616000I-50999J0D01*
G01*
X171139999Y-106616000D01*
G75*
G02*
X171089000Y-106565001I0J50999D01*
G01*
G37*
G36*
G01*
X171089000Y-107665001D02*
X171089000Y-106964999D01*
G75*
G02*
X171139999Y-106914000I50999J0D01*
G01*
X171840001Y-106914000D01*
G75*
G02*
X171891000Y-106964999I0J-50999D01*
G01*
X171891000Y-107665001D01*
G75*
G02*
X171840001Y-107716000I-50999J0D01*
G01*
X171139999Y-107716000D01*
G75*
G02*
X171089000Y-107665001I0J50999D01*
G01*
G37*
G36*
G01*
X140684000Y-107665001D02*
X140684000Y-106964999D01*
G75*
G02*
X140734999Y-106914000I50999J0D01*
G01*
X141435001Y-106914000D01*
G75*
G02*
X141486000Y-106964999I0J-50999D01*
G01*
X141486000Y-107665001D01*
G75*
G02*
X141435001Y-107716000I-50999J0D01*
G01*
X140734999Y-107716000D01*
G75*
G02*
X140684000Y-107665001I0J50999D01*
G01*
G37*
G36*
G01*
X140684000Y-106565001D02*
X140684000Y-105864999D01*
G75*
G02*
X140734999Y-105814000I50999J0D01*
G01*
X141435001Y-105814000D01*
G75*
G02*
X141486000Y-105864999I0J-50999D01*
G01*
X141486000Y-106565001D01*
G75*
G02*
X141435001Y-106616000I-50999J0D01*
G01*
X140734999Y-106616000D01*
G75*
G02*
X140684000Y-106565001I0J50999D01*
G01*
G37*
G36*
G01*
X142514000Y-106565001D02*
X142514000Y-105864999D01*
G75*
G02*
X142564999Y-105814000I50999J0D01*
G01*
X143265001Y-105814000D01*
G75*
G02*
X143316000Y-105864999I0J-50999D01*
G01*
X143316000Y-106565001D01*
G75*
G02*
X143265001Y-106616000I-50999J0D01*
G01*
X142564999Y-106616000D01*
G75*
G02*
X142514000Y-106565001I0J50999D01*
G01*
G37*
G36*
G01*
X142514000Y-107665001D02*
X142514000Y-106964999D01*
G75*
G02*
X142564999Y-106914000I50999J0D01*
G01*
X143265001Y-106914000D01*
G75*
G02*
X143316000Y-106964999I0J-50999D01*
G01*
X143316000Y-107665001D01*
G75*
G02*
X143265001Y-107716000I-50999J0D01*
G01*
X142564999Y-107716000D01*
G75*
G02*
X142514000Y-107665001I0J50999D01*
G01*
G37*
G36*
G01*
X121634000Y-107665001D02*
X121634000Y-106964999D01*
G75*
G02*
X121684999Y-106914000I50999J0D01*
G01*
X122385001Y-106914000D01*
G75*
G02*
X122436000Y-106964999I0J-50999D01*
G01*
X122436000Y-107665001D01*
G75*
G02*
X122385001Y-107716000I-50999J0D01*
G01*
X121684999Y-107716000D01*
G75*
G02*
X121634000Y-107665001I0J50999D01*
G01*
G37*
G36*
G01*
X121634000Y-106565001D02*
X121634000Y-105864999D01*
G75*
G02*
X121684999Y-105814000I50999J0D01*
G01*
X122385001Y-105814000D01*
G75*
G02*
X122436000Y-105864999I0J-50999D01*
G01*
X122436000Y-106565001D01*
G75*
G02*
X122385001Y-106616000I-50999J0D01*
G01*
X121684999Y-106616000D01*
G75*
G02*
X121634000Y-106565001I0J50999D01*
G01*
G37*
G36*
G01*
X123464000Y-106565001D02*
X123464000Y-105864999D01*
G75*
G02*
X123514999Y-105814000I50999J0D01*
G01*
X124215001Y-105814000D01*
G75*
G02*
X124266000Y-105864999I0J-50999D01*
G01*
X124266000Y-106565001D01*
G75*
G02*
X124215001Y-106616000I-50999J0D01*
G01*
X123514999Y-106616000D01*
G75*
G02*
X123464000Y-106565001I0J50999D01*
G01*
G37*
G36*
G01*
X123464000Y-107665001D02*
X123464000Y-106964999D01*
G75*
G02*
X123514999Y-106914000I50999J0D01*
G01*
X124215001Y-106914000D01*
G75*
G02*
X124266000Y-106964999I0J-50999D01*
G01*
X124266000Y-107665001D01*
G75*
G02*
X124215001Y-107716000I-50999J0D01*
G01*
X123514999Y-107716000D01*
G75*
G02*
X123464000Y-107665001I0J50999D01*
G01*
G37*
G36*
G01*
X102584000Y-107665001D02*
X102584000Y-106964999D01*
G75*
G02*
X102634999Y-106914000I50999J0D01*
G01*
X103335001Y-106914000D01*
G75*
G02*
X103386000Y-106964999I0J-50999D01*
G01*
X103386000Y-107665001D01*
G75*
G02*
X103335001Y-107716000I-50999J0D01*
G01*
X102634999Y-107716000D01*
G75*
G02*
X102584000Y-107665001I0J50999D01*
G01*
G37*
G36*
G01*
X102584000Y-106565001D02*
X102584000Y-105864999D01*
G75*
G02*
X102634999Y-105814000I50999J0D01*
G01*
X103335001Y-105814000D01*
G75*
G02*
X103386000Y-105864999I0J-50999D01*
G01*
X103386000Y-106565001D01*
G75*
G02*
X103335001Y-106616000I-50999J0D01*
G01*
X102634999Y-106616000D01*
G75*
G02*
X102584000Y-106565001I0J50999D01*
G01*
G37*
G36*
G01*
X104414000Y-106565001D02*
X104414000Y-105864999D01*
G75*
G02*
X104464999Y-105814000I50999J0D01*
G01*
X105165001Y-105814000D01*
G75*
G02*
X105216000Y-105864999I0J-50999D01*
G01*
X105216000Y-106565001D01*
G75*
G02*
X105165001Y-106616000I-50999J0D01*
G01*
X104464999Y-106616000D01*
G75*
G02*
X104414000Y-106565001I0J50999D01*
G01*
G37*
G36*
G01*
X104414000Y-107665001D02*
X104414000Y-106964999D01*
G75*
G02*
X104464999Y-106914000I50999J0D01*
G01*
X105165001Y-106914000D01*
G75*
G02*
X105216000Y-106964999I0J-50999D01*
G01*
X105216000Y-107665001D01*
G75*
G02*
X105165001Y-107716000I-50999J0D01*
G01*
X104464999Y-107716000D01*
G75*
G02*
X104414000Y-107665001I0J50999D01*
G01*
G37*
G36*
G01*
X83534000Y-107665001D02*
X83534000Y-106964999D01*
G75*
G02*
X83584999Y-106914000I50999J0D01*
G01*
X84285001Y-106914000D01*
G75*
G02*
X84336000Y-106964999I0J-50999D01*
G01*
X84336000Y-107665001D01*
G75*
G02*
X84285001Y-107716000I-50999J0D01*
G01*
X83584999Y-107716000D01*
G75*
G02*
X83534000Y-107665001I0J50999D01*
G01*
G37*
G36*
G01*
X83534000Y-106565001D02*
X83534000Y-105864999D01*
G75*
G02*
X83584999Y-105814000I50999J0D01*
G01*
X84285001Y-105814000D01*
G75*
G02*
X84336000Y-105864999I0J-50999D01*
G01*
X84336000Y-106565001D01*
G75*
G02*
X84285001Y-106616000I-50999J0D01*
G01*
X83584999Y-106616000D01*
G75*
G02*
X83534000Y-106565001I0J50999D01*
G01*
G37*
G36*
G01*
X85364000Y-106565001D02*
X85364000Y-105864999D01*
G75*
G02*
X85414999Y-105814000I50999J0D01*
G01*
X86115001Y-105814000D01*
G75*
G02*
X86166000Y-105864999I0J-50999D01*
G01*
X86166000Y-106565001D01*
G75*
G02*
X86115001Y-106616000I-50999J0D01*
G01*
X85414999Y-106616000D01*
G75*
G02*
X85364000Y-106565001I0J50999D01*
G01*
G37*
G36*
G01*
X85364000Y-107665001D02*
X85364000Y-106964999D01*
G75*
G02*
X85414999Y-106914000I50999J0D01*
G01*
X86115001Y-106914000D01*
G75*
G02*
X86166000Y-106964999I0J-50999D01*
G01*
X86166000Y-107665001D01*
G75*
G02*
X86115001Y-107716000I-50999J0D01*
G01*
X85414999Y-107716000D01*
G75*
G02*
X85364000Y-107665001I0J50999D01*
G01*
G37*
G36*
G01*
X45434000Y-107665001D02*
X45434000Y-106964999D01*
G75*
G02*
X45484999Y-106914000I50999J0D01*
G01*
X46185001Y-106914000D01*
G75*
G02*
X46236000Y-106964999I0J-50999D01*
G01*
X46236000Y-107665001D01*
G75*
G02*
X46185001Y-107716000I-50999J0D01*
G01*
X45484999Y-107716000D01*
G75*
G02*
X45434000Y-107665001I0J50999D01*
G01*
G37*
G36*
G01*
X45434000Y-106565001D02*
X45434000Y-105864999D01*
G75*
G02*
X45484999Y-105814000I50999J0D01*
G01*
X46185001Y-105814000D01*
G75*
G02*
X46236000Y-105864999I0J-50999D01*
G01*
X46236000Y-106565001D01*
G75*
G02*
X46185001Y-106616000I-50999J0D01*
G01*
X45484999Y-106616000D01*
G75*
G02*
X45434000Y-106565001I0J50999D01*
G01*
G37*
G36*
G01*
X47264000Y-106565001D02*
X47264000Y-105864999D01*
G75*
G02*
X47314999Y-105814000I50999J0D01*
G01*
X48015001Y-105814000D01*
G75*
G02*
X48066000Y-105864999I0J-50999D01*
G01*
X48066000Y-106565001D01*
G75*
G02*
X48015001Y-106616000I-50999J0D01*
G01*
X47314999Y-106616000D01*
G75*
G02*
X47264000Y-106565001I0J50999D01*
G01*
G37*
G36*
G01*
X47264000Y-107665001D02*
X47264000Y-106964999D01*
G75*
G02*
X47314999Y-106914000I50999J0D01*
G01*
X48015001Y-106914000D01*
G75*
G02*
X48066000Y-106964999I0J-50999D01*
G01*
X48066000Y-107665001D01*
G75*
G02*
X48015001Y-107716000I-50999J0D01*
G01*
X47314999Y-107716000D01*
G75*
G02*
X47264000Y-107665001I0J50999D01*
G01*
G37*
M02*
