G04 #@! TF.GenerationSoftware,KiCad,Pcbnew,(5.1.10)-1*
G04 #@! TF.CreationDate,2021-10-25T17:22:15+01:00*
G04 #@! TF.ProjectId,RGBSUB,52474253-5542-42e6-9b69-6361645f7063,Rev.1*
G04 #@! TF.SameCoordinates,Original*
G04 #@! TF.FileFunction,Copper,L2,Bot*
G04 #@! TF.FilePolarity,Positive*
%FSLAX46Y46*%
G04 Gerber Fmt 4.6, Leading zero omitted, Abs format (unit mm)*
G04 Created by KiCad (PCBNEW (5.1.10)-1) date 2021-10-25 17:22:15*
%MOMM*%
%LPD*%
G01*
G04 APERTURE LIST*
G04 #@! TA.AperFunction,ComponentPad*
%ADD10O,1.350000X1.350000*%
G04 #@! TD*
G04 #@! TA.AperFunction,ComponentPad*
%ADD11R,1.350000X1.350000*%
G04 #@! TD*
G04 #@! TA.AperFunction,ViaPad*
%ADD12C,0.800000*%
G04 #@! TD*
G04 #@! TA.AperFunction,Conductor*
%ADD13C,0.250000*%
G04 #@! TD*
G04 #@! TA.AperFunction,Conductor*
%ADD14C,0.150000*%
G04 #@! TD*
G04 APERTURE END LIST*
D10*
X58050000Y-108950000D03*
X60050000Y-108950000D03*
D11*
X62050000Y-108950000D03*
D12*
X376187500Y-213217500D03*
X352405000Y-154940000D03*
X353050000Y-137280000D03*
X354040000Y-194140000D03*
X350445000Y-213210000D03*
X284350000Y-213480000D03*
X163475000Y-213055000D03*
X72710010Y-156160000D03*
X62925000Y-136805000D03*
X371575000Y-108680000D03*
X68960000Y-194570000D03*
X71415000Y-213690000D03*
X292200000Y-108380000D03*
X272901000Y-137380000D03*
X287635000Y-175270000D03*
X76340000Y-174840000D03*
D13*
X383342001Y-212764200D02*
X383290959Y-213284759D01*
X383145821Y-213765480D01*
X382910075Y-214208856D01*
X382592697Y-214597998D01*
X382205784Y-214918081D01*
X381764061Y-215156919D01*
X381284368Y-215305410D01*
X380764975Y-215360000D01*
X219829272Y-215360000D01*
X220088505Y-215100767D01*
X220358103Y-214697287D01*
X220543804Y-214248963D01*
X220638474Y-213773025D01*
X220638474Y-213287763D01*
X220543804Y-212811825D01*
X220358103Y-212363501D01*
X220088505Y-211960021D01*
X219745373Y-211616889D01*
X219341893Y-211347291D01*
X218893569Y-211161590D01*
X218417631Y-211066920D01*
X217932369Y-211066920D01*
X217456431Y-211161590D01*
X217008107Y-211347291D01*
X216604627Y-211616889D01*
X216261495Y-211960021D01*
X215991897Y-212363501D01*
X215806196Y-212811825D01*
X215711526Y-213287763D01*
X215711526Y-213773025D01*
X215806196Y-214248963D01*
X215991897Y-214697287D01*
X216261495Y-215100767D01*
X216520728Y-215360000D01*
X119877025Y-215360000D01*
X120103589Y-215133436D01*
X120375429Y-214726599D01*
X120562676Y-214274546D01*
X120658133Y-213794649D01*
X120658133Y-213305351D01*
X120562676Y-212825454D01*
X120375429Y-212373401D01*
X120103589Y-211966564D01*
X119757603Y-211620578D01*
X119350766Y-211348738D01*
X118898713Y-211161491D01*
X118418816Y-211066034D01*
X117929518Y-211066034D01*
X117449621Y-211161491D01*
X116997568Y-211348738D01*
X116590731Y-211620578D01*
X116244745Y-211966564D01*
X115972905Y-212373401D01*
X115785658Y-212825454D01*
X115690201Y-213305351D01*
X115690201Y-213794649D01*
X115785658Y-214274546D01*
X115972905Y-214726599D01*
X116244745Y-215133436D01*
X116471309Y-215360000D01*
X39787790Y-215360000D01*
X39267241Y-215308959D01*
X38786520Y-215163821D01*
X38343144Y-214928075D01*
X37954002Y-214610697D01*
X37633919Y-214223784D01*
X37395081Y-213782061D01*
X37246590Y-213302368D01*
X37192000Y-212782975D01*
X37192000Y-209901837D01*
X206350000Y-209901837D01*
X206350000Y-210468163D01*
X206460485Y-211023607D01*
X206677208Y-211546823D01*
X206991842Y-212017706D01*
X207392294Y-212418158D01*
X207863177Y-212732792D01*
X208386393Y-212949515D01*
X208941837Y-213060000D01*
X209508163Y-213060000D01*
X210063607Y-212949515D01*
X210586823Y-212732792D01*
X211057706Y-212418158D01*
X211458158Y-212017706D01*
X211772792Y-211546823D01*
X211989515Y-211023607D01*
X212100000Y-210468163D01*
X212100000Y-209901837D01*
X212044305Y-209621837D01*
X322392000Y-209621837D01*
X322392000Y-210188163D01*
X322502485Y-210743607D01*
X322719208Y-211266823D01*
X323033842Y-211737706D01*
X323434294Y-212138158D01*
X323905177Y-212452792D01*
X324428393Y-212669515D01*
X324983837Y-212780000D01*
X325550163Y-212780000D01*
X326105607Y-212669515D01*
X326628823Y-212452792D01*
X327099706Y-212138158D01*
X327500158Y-211737706D01*
X327814792Y-211266823D01*
X328031515Y-210743607D01*
X328142000Y-210188163D01*
X328142000Y-209621837D01*
X328031515Y-209066393D01*
X327814792Y-208543177D01*
X327500158Y-208072294D01*
X327099706Y-207671842D01*
X326628823Y-207357208D01*
X326105607Y-207140485D01*
X325550163Y-207030000D01*
X324983837Y-207030000D01*
X324428393Y-207140485D01*
X323905177Y-207357208D01*
X323434294Y-207671842D01*
X323033842Y-208072294D01*
X322719208Y-208543177D01*
X322502485Y-209066393D01*
X322392000Y-209621837D01*
X212044305Y-209621837D01*
X211989515Y-209346393D01*
X211772792Y-208823177D01*
X211458158Y-208352294D01*
X211057706Y-207951842D01*
X210586823Y-207637208D01*
X210063607Y-207420485D01*
X209508163Y-207310000D01*
X208941837Y-207310000D01*
X208386393Y-207420485D01*
X207863177Y-207637208D01*
X207392294Y-207951842D01*
X206991842Y-208352294D01*
X206677208Y-208823177D01*
X206460485Y-209346393D01*
X206350000Y-209901837D01*
X37192000Y-209901837D01*
X37192000Y-196021837D01*
X37292000Y-196021837D01*
X37292000Y-196588163D01*
X37402485Y-197143607D01*
X37619208Y-197666823D01*
X37933842Y-198137706D01*
X38334294Y-198538158D01*
X38805177Y-198852792D01*
X39328393Y-199069515D01*
X39883837Y-199180000D01*
X40239655Y-199180000D01*
X40225452Y-199206573D01*
X40201150Y-199286686D01*
X40192944Y-199370000D01*
X40195001Y-199390884D01*
X40195000Y-208759126D01*
X40192944Y-208780000D01*
X40201150Y-208863314D01*
X40225452Y-208943427D01*
X40264916Y-209017260D01*
X40305239Y-209066393D01*
X40318026Y-209081974D01*
X40382740Y-209135084D01*
X40456573Y-209174548D01*
X40536686Y-209198850D01*
X40620000Y-209207056D01*
X40640874Y-209205000D01*
X104039126Y-209205000D01*
X104060000Y-209207056D01*
X104080874Y-209205000D01*
X104143314Y-209198850D01*
X104223427Y-209174548D01*
X104297260Y-209135084D01*
X104361974Y-209081974D01*
X104415084Y-209017260D01*
X104454548Y-208943427D01*
X104478850Y-208863314D01*
X104487056Y-208780000D01*
X104485000Y-208759126D01*
X104485000Y-199390874D01*
X104487056Y-199370000D01*
X104478850Y-199286686D01*
X104454548Y-199206573D01*
X104415084Y-199132740D01*
X104361974Y-199068026D01*
X104297260Y-199014916D01*
X104223427Y-198975452D01*
X104143314Y-198951150D01*
X104080874Y-198945000D01*
X104060000Y-198942944D01*
X104039126Y-198945000D01*
X41306213Y-198945000D01*
X41528823Y-198852792D01*
X41999706Y-198538158D01*
X42400158Y-198137706D01*
X42487980Y-198006271D01*
X115192110Y-198006271D01*
X115192110Y-198593729D01*
X115306717Y-199169899D01*
X115531528Y-199712640D01*
X115857902Y-200201093D01*
X116273298Y-200616489D01*
X116761751Y-200942863D01*
X117304492Y-201167674D01*
X117880662Y-201282281D01*
X118468120Y-201282281D01*
X119044290Y-201167674D01*
X119587031Y-200942863D01*
X120075484Y-200616489D01*
X120490880Y-200201093D01*
X120817254Y-199712640D01*
X121021312Y-199220000D01*
X159172944Y-199220000D01*
X159175001Y-199240884D01*
X159175000Y-208839126D01*
X159172944Y-208860000D01*
X159181150Y-208943314D01*
X159205452Y-209023427D01*
X159244916Y-209097260D01*
X159267751Y-209125084D01*
X159298026Y-209161974D01*
X159362740Y-209215084D01*
X159436573Y-209254548D01*
X159516686Y-209278850D01*
X159600000Y-209287056D01*
X159620874Y-209285000D01*
X175509126Y-209285000D01*
X175530000Y-209287056D01*
X175550874Y-209285000D01*
X175613314Y-209278850D01*
X175693427Y-209254548D01*
X175767260Y-209215084D01*
X175831974Y-209161974D01*
X175885084Y-209097260D01*
X175924548Y-209023427D01*
X175948850Y-208943314D01*
X175957056Y-208860000D01*
X175955000Y-208839126D01*
X175955000Y-199240874D01*
X175957056Y-199220000D01*
X175948850Y-199136686D01*
X175924548Y-199056573D01*
X175885084Y-198982740D01*
X175831974Y-198918026D01*
X175767260Y-198864916D01*
X175693427Y-198825452D01*
X175613314Y-198801150D01*
X175550874Y-198795000D01*
X175530000Y-198792944D01*
X175509126Y-198795000D01*
X159620874Y-198795000D01*
X159600000Y-198792944D01*
X159579126Y-198795000D01*
X159516686Y-198801150D01*
X159436573Y-198825452D01*
X159362740Y-198864916D01*
X159298026Y-198918026D01*
X159244916Y-198982740D01*
X159205452Y-199056573D01*
X159181150Y-199136686D01*
X159172944Y-199220000D01*
X121021312Y-199220000D01*
X121042065Y-199169899D01*
X121156672Y-198593729D01*
X121156672Y-198006380D01*
X215168221Y-198006380D01*
X215168221Y-198593620D01*
X215282786Y-199169577D01*
X215507513Y-199712117D01*
X215833766Y-200200390D01*
X216249008Y-200615632D01*
X216737281Y-200941885D01*
X217279821Y-201166612D01*
X217855778Y-201281177D01*
X218443018Y-201281177D01*
X219018975Y-201166612D01*
X219561515Y-200941885D01*
X220049788Y-200615632D01*
X220465030Y-200200390D01*
X220791283Y-199712117D01*
X220895713Y-199460000D01*
X230612944Y-199460000D01*
X230615001Y-199480884D01*
X230615000Y-208749126D01*
X230612944Y-208770000D01*
X230621150Y-208853314D01*
X230645452Y-208933427D01*
X230684916Y-209007260D01*
X230721612Y-209051974D01*
X230738026Y-209071974D01*
X230802740Y-209125084D01*
X230876573Y-209164548D01*
X230956686Y-209188850D01*
X231040000Y-209197056D01*
X231060874Y-209195000D01*
X318299126Y-209195000D01*
X318320000Y-209197056D01*
X318340874Y-209195000D01*
X318403314Y-209188850D01*
X318483427Y-209164548D01*
X318557260Y-209125084D01*
X318621974Y-209071974D01*
X318675084Y-209007260D01*
X318714548Y-208933427D01*
X318738850Y-208853314D01*
X318747056Y-208770000D01*
X318745000Y-208749126D01*
X318745000Y-199480874D01*
X318747056Y-199460000D01*
X318738850Y-199376686D01*
X318733789Y-199360000D01*
X328352944Y-199360000D01*
X328355001Y-199380884D01*
X328355000Y-208729126D01*
X328352944Y-208750000D01*
X328361150Y-208833314D01*
X328385452Y-208913427D01*
X328424916Y-208987260D01*
X328441330Y-209007260D01*
X328478026Y-209051974D01*
X328542740Y-209105084D01*
X328616573Y-209144548D01*
X328696686Y-209168850D01*
X328780000Y-209177056D01*
X328800874Y-209175000D01*
X382519126Y-209175000D01*
X382540000Y-209177056D01*
X382560874Y-209175000D01*
X382623314Y-209168850D01*
X382703427Y-209144548D01*
X382777260Y-209105084D01*
X382841974Y-209051974D01*
X382895084Y-208987260D01*
X382934548Y-208913427D01*
X382958850Y-208833314D01*
X382967056Y-208750000D01*
X382965000Y-208729126D01*
X382965000Y-199380874D01*
X382967056Y-199360000D01*
X382958850Y-199276686D01*
X382934548Y-199196573D01*
X382895084Y-199122740D01*
X382841974Y-199058026D01*
X382777260Y-199004916D01*
X382703427Y-198965452D01*
X382623314Y-198941150D01*
X382560874Y-198935000D01*
X382540000Y-198932944D01*
X382519126Y-198935000D01*
X328800874Y-198935000D01*
X328780000Y-198932944D01*
X328759126Y-198935000D01*
X328696686Y-198941150D01*
X328616573Y-198965452D01*
X328542740Y-199004916D01*
X328478026Y-199058026D01*
X328424916Y-199122740D01*
X328385452Y-199196573D01*
X328361150Y-199276686D01*
X328352944Y-199360000D01*
X318733789Y-199360000D01*
X318714548Y-199296573D01*
X318675084Y-199222740D01*
X318621974Y-199158026D01*
X318557260Y-199104916D01*
X318483427Y-199065452D01*
X318403314Y-199041150D01*
X318340874Y-199035000D01*
X318320000Y-199032944D01*
X318299126Y-199035000D01*
X231060874Y-199035000D01*
X231040000Y-199032944D01*
X231019126Y-199035000D01*
X230956686Y-199041150D01*
X230876573Y-199065452D01*
X230802740Y-199104916D01*
X230738026Y-199158026D01*
X230684916Y-199222740D01*
X230645452Y-199296573D01*
X230621150Y-199376686D01*
X230612944Y-199460000D01*
X220895713Y-199460000D01*
X221016010Y-199169577D01*
X221130575Y-198593620D01*
X221130575Y-198006380D01*
X221016010Y-197430423D01*
X220791283Y-196887883D01*
X220465030Y-196399610D01*
X220049788Y-195984368D01*
X219561515Y-195658115D01*
X219056174Y-195448796D01*
X281788848Y-195448796D01*
X281788848Y-196051204D01*
X281906372Y-196642038D01*
X282136904Y-197198590D01*
X282471584Y-197699475D01*
X282897551Y-198125442D01*
X283398436Y-198460122D01*
X283954988Y-198690654D01*
X284545822Y-198808178D01*
X285148230Y-198808178D01*
X285739064Y-198690654D01*
X286295616Y-198460122D01*
X286796501Y-198125442D01*
X287222468Y-197699475D01*
X287557148Y-197198590D01*
X287787680Y-196642038D01*
X287905204Y-196051204D01*
X287905204Y-195454548D01*
X305705936Y-195454548D01*
X305705936Y-196045452D01*
X305821215Y-196625002D01*
X306047345Y-197170926D01*
X306375633Y-197662245D01*
X306793466Y-198080078D01*
X307284785Y-198408366D01*
X307830709Y-198634496D01*
X308410259Y-198749775D01*
X309001163Y-198749775D01*
X309580713Y-198634496D01*
X310126637Y-198408366D01*
X310617956Y-198080078D01*
X311035789Y-197662245D01*
X311364077Y-197170926D01*
X311590207Y-196625002D01*
X311705486Y-196045452D01*
X311705486Y-195454548D01*
X311590207Y-194874998D01*
X311364077Y-194329074D01*
X311035789Y-193837755D01*
X310617956Y-193419922D01*
X310171840Y-193121837D01*
X376792000Y-193121837D01*
X376792000Y-193688163D01*
X376902485Y-194243607D01*
X377119208Y-194766823D01*
X377433842Y-195237706D01*
X377834294Y-195638158D01*
X378305177Y-195952792D01*
X378828393Y-196169515D01*
X379383837Y-196280000D01*
X379950163Y-196280000D01*
X380505607Y-196169515D01*
X381028823Y-195952792D01*
X381499706Y-195638158D01*
X381900158Y-195237706D01*
X382214792Y-194766823D01*
X382431515Y-194243607D01*
X382542000Y-193688163D01*
X382542000Y-193121837D01*
X382431515Y-192566393D01*
X382214792Y-192043177D01*
X381900158Y-191572294D01*
X381499706Y-191171842D01*
X381028823Y-190857208D01*
X380505607Y-190640485D01*
X379950163Y-190530000D01*
X379383837Y-190530000D01*
X378828393Y-190640485D01*
X378305177Y-190857208D01*
X377834294Y-191171842D01*
X377433842Y-191572294D01*
X377119208Y-192043177D01*
X376902485Y-192566393D01*
X376792000Y-193121837D01*
X310171840Y-193121837D01*
X310126637Y-193091634D01*
X309580713Y-192865504D01*
X309001163Y-192750225D01*
X308410259Y-192750225D01*
X307830709Y-192865504D01*
X307284785Y-193091634D01*
X306793466Y-193419922D01*
X306375633Y-193837755D01*
X306047345Y-194329074D01*
X305821215Y-194874998D01*
X305705936Y-195454548D01*
X287905204Y-195454548D01*
X287905204Y-195448796D01*
X287787680Y-194857962D01*
X287557148Y-194301410D01*
X287222468Y-193800525D01*
X286796501Y-193374558D01*
X286295616Y-193039878D01*
X285739064Y-192809346D01*
X285148230Y-192691822D01*
X284545822Y-192691822D01*
X283954988Y-192809346D01*
X283398436Y-193039878D01*
X282897551Y-193374558D01*
X282471584Y-193800525D01*
X282136904Y-194301410D01*
X281906372Y-194857962D01*
X281788848Y-195448796D01*
X219056174Y-195448796D01*
X219018975Y-195433388D01*
X218443018Y-195318823D01*
X217855778Y-195318823D01*
X217279821Y-195433388D01*
X216737281Y-195658115D01*
X216249008Y-195984368D01*
X215833766Y-196399610D01*
X215507513Y-196887883D01*
X215282786Y-197430423D01*
X215168221Y-198006380D01*
X121156672Y-198006380D01*
X121156672Y-198006271D01*
X121042065Y-197430101D01*
X120817254Y-196887360D01*
X120490880Y-196398907D01*
X120075484Y-195983511D01*
X119587031Y-195657137D01*
X119044290Y-195432326D01*
X118468120Y-195317719D01*
X117880662Y-195317719D01*
X117304492Y-195432326D01*
X116761751Y-195657137D01*
X116273298Y-195983511D01*
X115857902Y-196398907D01*
X115531528Y-196887360D01*
X115306717Y-197430101D01*
X115192110Y-198006271D01*
X42487980Y-198006271D01*
X42714792Y-197666823D01*
X42931515Y-197143607D01*
X43042000Y-196588163D01*
X43042000Y-196021837D01*
X42931515Y-195466393D01*
X42714792Y-194943177D01*
X42400158Y-194472294D01*
X41999706Y-194071842D01*
X41528823Y-193757208D01*
X41005607Y-193540485D01*
X40450163Y-193430000D01*
X39883837Y-193430000D01*
X39328393Y-193540485D01*
X38805177Y-193757208D01*
X38334294Y-194071842D01*
X37933842Y-194472294D01*
X37619208Y-194943177D01*
X37402485Y-195466393D01*
X37292000Y-196021837D01*
X37192000Y-196021837D01*
X37192000Y-179870000D01*
X40222944Y-179870000D01*
X40225001Y-179890884D01*
X40225000Y-189999126D01*
X40222944Y-190020000D01*
X40231150Y-190103314D01*
X40255452Y-190183427D01*
X40294916Y-190257260D01*
X40348026Y-190321974D01*
X40412740Y-190375084D01*
X40486573Y-190414548D01*
X40566686Y-190438850D01*
X40650000Y-190447056D01*
X40670874Y-190445000D01*
X268119126Y-190445000D01*
X268140000Y-190447056D01*
X268160874Y-190445000D01*
X268223314Y-190438850D01*
X268303427Y-190414548D01*
X268377260Y-190375084D01*
X268441974Y-190321974D01*
X268495084Y-190257260D01*
X268534548Y-190183427D01*
X268558850Y-190103314D01*
X268567056Y-190020000D01*
X268565000Y-189999126D01*
X268565000Y-180302510D01*
X282307231Y-180302510D01*
X282307231Y-180797490D01*
X282403797Y-181282958D01*
X282593218Y-181740260D01*
X282868213Y-182151820D01*
X283218217Y-182501824D01*
X283629777Y-182776819D01*
X284087079Y-182966240D01*
X284572547Y-183062806D01*
X285067527Y-183062806D01*
X285552995Y-182966240D01*
X286010297Y-182776819D01*
X286421857Y-182501824D01*
X286771861Y-182151820D01*
X287046856Y-181740260D01*
X287236277Y-181282958D01*
X287332843Y-180797490D01*
X287332843Y-180302510D01*
X287262725Y-179950000D01*
X287482944Y-179950000D01*
X287485001Y-179970884D01*
X287485000Y-190079126D01*
X287482944Y-190100000D01*
X287491150Y-190183314D01*
X287515452Y-190263427D01*
X287554916Y-190337260D01*
X287585518Y-190374548D01*
X287608026Y-190401974D01*
X287672740Y-190455084D01*
X287746573Y-190494548D01*
X287826686Y-190518850D01*
X287910000Y-190527056D01*
X287930874Y-190525000D01*
X304389126Y-190525000D01*
X304410000Y-190527056D01*
X304430874Y-190525000D01*
X304493314Y-190518850D01*
X304573427Y-190494548D01*
X304647260Y-190455084D01*
X304711974Y-190401974D01*
X304765084Y-190337260D01*
X304804548Y-190263427D01*
X304828850Y-190183314D01*
X304837056Y-190100000D01*
X304835000Y-190079126D01*
X304835000Y-180233706D01*
X306270944Y-180233706D01*
X306270944Y-180716294D01*
X306365092Y-181189608D01*
X306549770Y-181635461D01*
X306817882Y-182036718D01*
X307159122Y-182377958D01*
X307560379Y-182646070D01*
X308006232Y-182830748D01*
X308479546Y-182924896D01*
X308962134Y-182924896D01*
X309435448Y-182830748D01*
X309881301Y-182646070D01*
X310282558Y-182377958D01*
X310623798Y-182036718D01*
X310891910Y-181635461D01*
X311076588Y-181189608D01*
X311170736Y-180716294D01*
X311170736Y-180360000D01*
X347442944Y-180360000D01*
X347445001Y-180380884D01*
X347445000Y-189959126D01*
X347442944Y-189980000D01*
X347451150Y-190063314D01*
X347475452Y-190143427D01*
X347514916Y-190217260D01*
X347547743Y-190257259D01*
X347568026Y-190281974D01*
X347632740Y-190335084D01*
X347706573Y-190374548D01*
X347786686Y-190398850D01*
X347870000Y-190407056D01*
X347890874Y-190405000D01*
X363419126Y-190405000D01*
X363440000Y-190407056D01*
X363460874Y-190405000D01*
X363523314Y-190398850D01*
X363603427Y-190374548D01*
X363677260Y-190335084D01*
X363741974Y-190281974D01*
X363795084Y-190217260D01*
X363834548Y-190143427D01*
X363858850Y-190063314D01*
X363867056Y-189980000D01*
X363865000Y-189959126D01*
X363865000Y-180380874D01*
X363867056Y-180360000D01*
X363858850Y-180276686D01*
X363834548Y-180196573D01*
X363795084Y-180122740D01*
X363741974Y-180058026D01*
X363677260Y-180004916D01*
X363603427Y-179965452D01*
X363523314Y-179941150D01*
X363460874Y-179935000D01*
X363440000Y-179932944D01*
X363419126Y-179935000D01*
X347890874Y-179935000D01*
X347870000Y-179932944D01*
X347849126Y-179935000D01*
X347786686Y-179941150D01*
X347706573Y-179965452D01*
X347632740Y-180004916D01*
X347568026Y-180058026D01*
X347514916Y-180122740D01*
X347475452Y-180196573D01*
X347451150Y-180276686D01*
X347442944Y-180360000D01*
X311170736Y-180360000D01*
X311170736Y-180233706D01*
X311076588Y-179760392D01*
X310891910Y-179314539D01*
X310623798Y-178913282D01*
X310282558Y-178572042D01*
X309881301Y-178303930D01*
X309435448Y-178119252D01*
X308962134Y-178025104D01*
X308479546Y-178025104D01*
X308006232Y-178119252D01*
X307560379Y-178303930D01*
X307159122Y-178572042D01*
X306817882Y-178913282D01*
X306549770Y-179314539D01*
X306365092Y-179760392D01*
X306270944Y-180233706D01*
X304835000Y-180233706D01*
X304835000Y-179970874D01*
X304837056Y-179950000D01*
X304828850Y-179866686D01*
X304804548Y-179786573D01*
X304765084Y-179712740D01*
X304711974Y-179648026D01*
X304647260Y-179594916D01*
X304573427Y-179555452D01*
X304493314Y-179531150D01*
X304430874Y-179525000D01*
X304410000Y-179522944D01*
X304389126Y-179525000D01*
X287930874Y-179525000D01*
X287910000Y-179522944D01*
X287889126Y-179525000D01*
X287826686Y-179531150D01*
X287746573Y-179555452D01*
X287672740Y-179594916D01*
X287608026Y-179648026D01*
X287554916Y-179712740D01*
X287515452Y-179786573D01*
X287491150Y-179866686D01*
X287482944Y-179950000D01*
X287262725Y-179950000D01*
X287236277Y-179817042D01*
X287046856Y-179359740D01*
X286771861Y-178948180D01*
X286421857Y-178598176D01*
X286010297Y-178323181D01*
X285552995Y-178133760D01*
X285067527Y-178037194D01*
X284572547Y-178037194D01*
X284087079Y-178133760D01*
X283629777Y-178323181D01*
X283218217Y-178598176D01*
X282868213Y-178948180D01*
X282593218Y-179359740D01*
X282403797Y-179817042D01*
X282307231Y-180302510D01*
X268565000Y-180302510D01*
X268565000Y-179890874D01*
X268567056Y-179870000D01*
X268558850Y-179786686D01*
X268534548Y-179706573D01*
X268495084Y-179632740D01*
X268441974Y-179568026D01*
X268377260Y-179514916D01*
X268303427Y-179475452D01*
X268223314Y-179451150D01*
X268160874Y-179445000D01*
X268140000Y-179442944D01*
X268119126Y-179445000D01*
X40670874Y-179445000D01*
X40650000Y-179442944D01*
X40629126Y-179445000D01*
X40566686Y-179451150D01*
X40486573Y-179475452D01*
X40412740Y-179514916D01*
X40348026Y-179568026D01*
X40294916Y-179632740D01*
X40255452Y-179706573D01*
X40231150Y-179786686D01*
X40222944Y-179870000D01*
X37192000Y-179870000D01*
X37192000Y-174763669D01*
X75565000Y-174763669D01*
X75565000Y-174916331D01*
X75594783Y-175066059D01*
X75653204Y-175207100D01*
X75738018Y-175334034D01*
X75845966Y-175441982D01*
X75972900Y-175526796D01*
X76113941Y-175585217D01*
X76263669Y-175615000D01*
X76416331Y-175615000D01*
X76566059Y-175585217D01*
X76707100Y-175526796D01*
X76834034Y-175441982D01*
X76941982Y-175334034D01*
X77026796Y-175207100D01*
X77032359Y-175193669D01*
X286860000Y-175193669D01*
X286860000Y-175346331D01*
X286889783Y-175496059D01*
X286948204Y-175637100D01*
X287033018Y-175764034D01*
X287140966Y-175871982D01*
X287267900Y-175956796D01*
X287408941Y-176015217D01*
X287558669Y-176045000D01*
X287711331Y-176045000D01*
X287861059Y-176015217D01*
X288002100Y-175956796D01*
X288129034Y-175871982D01*
X288236982Y-175764034D01*
X288321796Y-175637100D01*
X288380217Y-175496059D01*
X288410000Y-175346331D01*
X288410000Y-175193669D01*
X288380217Y-175043941D01*
X288321796Y-174902900D01*
X288236982Y-174775966D01*
X288129034Y-174668018D01*
X288002100Y-174583204D01*
X287861059Y-174524783D01*
X287711331Y-174495000D01*
X287558669Y-174495000D01*
X287408941Y-174524783D01*
X287267900Y-174583204D01*
X287140966Y-174668018D01*
X287033018Y-174775966D01*
X286948204Y-174902900D01*
X286889783Y-175043941D01*
X286860000Y-175193669D01*
X77032359Y-175193669D01*
X77085217Y-175066059D01*
X77115000Y-174916331D01*
X77115000Y-174763669D01*
X77085217Y-174613941D01*
X77026796Y-174472900D01*
X76941982Y-174345966D01*
X76834034Y-174238018D01*
X76707100Y-174153204D01*
X76566059Y-174094783D01*
X76416331Y-174065000D01*
X76263669Y-174065000D01*
X76113941Y-174094783D01*
X75972900Y-174153204D01*
X75845966Y-174238018D01*
X75738018Y-174345966D01*
X75653204Y-174472900D01*
X75594783Y-174613941D01*
X75565000Y-174763669D01*
X37192000Y-174763669D01*
X37192000Y-161280000D01*
X45062944Y-161280000D01*
X45065001Y-161300884D01*
X45065000Y-170919126D01*
X45062944Y-170940000D01*
X45071150Y-171023314D01*
X45095452Y-171103427D01*
X45134916Y-171177260D01*
X45188026Y-171241974D01*
X45252740Y-171295084D01*
X45326573Y-171334548D01*
X45406686Y-171358850D01*
X45490000Y-171367056D01*
X45510874Y-171365000D01*
X296729126Y-171365000D01*
X296750000Y-171367056D01*
X296770874Y-171365000D01*
X296833314Y-171358850D01*
X296913427Y-171334548D01*
X296987260Y-171295084D01*
X297051974Y-171241974D01*
X297105084Y-171177260D01*
X297144548Y-171103427D01*
X297168850Y-171023314D01*
X297177056Y-170940000D01*
X297175000Y-170919126D01*
X297175000Y-170579548D01*
X299769514Y-170579548D01*
X299769514Y-171170452D01*
X299884793Y-171750002D01*
X300110923Y-172295926D01*
X300439211Y-172787245D01*
X300857044Y-173205078D01*
X301348363Y-173533366D01*
X301894287Y-173759496D01*
X302473837Y-173874775D01*
X303064741Y-173874775D01*
X303644291Y-173759496D01*
X304190215Y-173533366D01*
X304681534Y-173205078D01*
X305099367Y-172787245D01*
X305427655Y-172295926D01*
X305653785Y-171750002D01*
X305769064Y-171170452D01*
X305769064Y-170633706D01*
X315575104Y-170633706D01*
X315575104Y-171116294D01*
X315669252Y-171589608D01*
X315853930Y-172035461D01*
X316122042Y-172436718D01*
X316463282Y-172777958D01*
X316864539Y-173046070D01*
X317310392Y-173230748D01*
X317783706Y-173324896D01*
X318266294Y-173324896D01*
X318739608Y-173230748D01*
X319185461Y-173046070D01*
X319586718Y-172777958D01*
X319927958Y-172436718D01*
X320196070Y-172035461D01*
X320380748Y-171589608D01*
X320474896Y-171116294D01*
X320474896Y-170633706D01*
X320380748Y-170160392D01*
X320196070Y-169714539D01*
X319927958Y-169313282D01*
X319586718Y-168972042D01*
X319185461Y-168703930D01*
X318739608Y-168519252D01*
X318266294Y-168425104D01*
X317783706Y-168425104D01*
X317310392Y-168519252D01*
X316864539Y-168703930D01*
X316463282Y-168972042D01*
X316122042Y-169313282D01*
X315853930Y-169714539D01*
X315669252Y-170160392D01*
X315575104Y-170633706D01*
X305769064Y-170633706D01*
X305769064Y-170579548D01*
X305653785Y-169999998D01*
X305427655Y-169454074D01*
X305099367Y-168962755D01*
X304681534Y-168544922D01*
X304190215Y-168216634D01*
X303644291Y-167990504D01*
X303064741Y-167875225D01*
X302473837Y-167875225D01*
X301894287Y-167990504D01*
X301348363Y-168216634D01*
X300857044Y-168544922D01*
X300439211Y-168962755D01*
X300110923Y-169454074D01*
X299884793Y-169999998D01*
X299769514Y-170579548D01*
X297175000Y-170579548D01*
X297175000Y-161300874D01*
X297177056Y-161280000D01*
X297168850Y-161196686D01*
X297144548Y-161116573D01*
X297105084Y-161042740D01*
X297051974Y-160978026D01*
X296987260Y-160924916D01*
X296913427Y-160885452D01*
X296833314Y-160861150D01*
X296770874Y-160855000D01*
X296750000Y-160852944D01*
X296729126Y-160855000D01*
X45510874Y-160855000D01*
X45490000Y-160852944D01*
X45469126Y-160855000D01*
X45406686Y-160861150D01*
X45326573Y-160885452D01*
X45252740Y-160924916D01*
X45188026Y-160978026D01*
X45134916Y-161042740D01*
X45095452Y-161116573D01*
X45071150Y-161196686D01*
X45062944Y-161280000D01*
X37192000Y-161280000D01*
X37192000Y-142330000D01*
X42692944Y-142330000D01*
X42695001Y-142350884D01*
X42695000Y-151979126D01*
X42692944Y-152000000D01*
X42701150Y-152083314D01*
X42725452Y-152163427D01*
X42764916Y-152237260D01*
X42818026Y-152301974D01*
X42882740Y-152355084D01*
X42956573Y-152394548D01*
X43036686Y-152418850D01*
X43120000Y-152427056D01*
X43140874Y-152425000D01*
X292529126Y-152425000D01*
X292550000Y-152427056D01*
X292570874Y-152425000D01*
X292633314Y-152418850D01*
X292713427Y-152394548D01*
X292787260Y-152355084D01*
X292851974Y-152301974D01*
X292905084Y-152237260D01*
X292944548Y-152163427D01*
X292968850Y-152083314D01*
X292977056Y-152000000D01*
X292975000Y-151979126D01*
X292975000Y-146729548D01*
X299794514Y-146729548D01*
X299794514Y-147320452D01*
X299909793Y-147900002D01*
X300135923Y-148445926D01*
X300464211Y-148937245D01*
X300882044Y-149355078D01*
X301373363Y-149683366D01*
X301919287Y-149909496D01*
X302498837Y-150024775D01*
X303089741Y-150024775D01*
X303365115Y-149970000D01*
X308082944Y-149970000D01*
X308085001Y-149990884D01*
X308085000Y-166609126D01*
X308082944Y-166630000D01*
X308091150Y-166713314D01*
X308115452Y-166793427D01*
X308154916Y-166867260D01*
X308208026Y-166931974D01*
X308272740Y-166985084D01*
X308346573Y-167024548D01*
X308426686Y-167048850D01*
X308510000Y-167057056D01*
X308530874Y-167055000D01*
X319359126Y-167055000D01*
X319380000Y-167057056D01*
X319400874Y-167055000D01*
X319463314Y-167048850D01*
X319543427Y-167024548D01*
X319617260Y-166985084D01*
X319681974Y-166931974D01*
X319735084Y-166867260D01*
X319774548Y-166793427D01*
X319798850Y-166713314D01*
X319807056Y-166630000D01*
X319805000Y-166609126D01*
X319805000Y-149990874D01*
X319807056Y-149970000D01*
X319798850Y-149886686D01*
X319774548Y-149806573D01*
X319735084Y-149732740D01*
X319681974Y-149668026D01*
X319617260Y-149614916D01*
X319543427Y-149575452D01*
X319463314Y-149551150D01*
X319400874Y-149545000D01*
X319380000Y-149542944D01*
X319359126Y-149545000D01*
X308530874Y-149545000D01*
X308510000Y-149542944D01*
X308489126Y-149545000D01*
X308426686Y-149551150D01*
X308346573Y-149575452D01*
X308272740Y-149614916D01*
X308208026Y-149668026D01*
X308154916Y-149732740D01*
X308115452Y-149806573D01*
X308091150Y-149886686D01*
X308082944Y-149970000D01*
X303365115Y-149970000D01*
X303669291Y-149909496D01*
X304215215Y-149683366D01*
X304706534Y-149355078D01*
X305124367Y-148937245D01*
X305452655Y-148445926D01*
X305678785Y-147900002D01*
X305794064Y-147320452D01*
X305794064Y-146729548D01*
X305793251Y-146725456D01*
X315575104Y-146725456D01*
X315575104Y-147208044D01*
X315669252Y-147681358D01*
X315853930Y-148127211D01*
X316122042Y-148528468D01*
X316463282Y-148869708D01*
X316864539Y-149137820D01*
X317310392Y-149322498D01*
X317783706Y-149416646D01*
X318266294Y-149416646D01*
X318739608Y-149322498D01*
X319185461Y-149137820D01*
X319586718Y-148869708D01*
X319927958Y-148528468D01*
X320196070Y-148127211D01*
X320380748Y-147681358D01*
X320474896Y-147208044D01*
X320474896Y-146725456D01*
X320380748Y-146252142D01*
X320196070Y-145806289D01*
X319927958Y-145405032D01*
X319586718Y-145063792D01*
X319185461Y-144795680D01*
X318739608Y-144611002D01*
X318266294Y-144516854D01*
X317783706Y-144516854D01*
X317310392Y-144611002D01*
X316864539Y-144795680D01*
X316463282Y-145063792D01*
X316122042Y-145405032D01*
X315853930Y-145806289D01*
X315669252Y-146252142D01*
X315575104Y-146725456D01*
X305793251Y-146725456D01*
X305678785Y-146149998D01*
X305452655Y-145604074D01*
X305124367Y-145112755D01*
X304706534Y-144694922D01*
X304215215Y-144366634D01*
X303669291Y-144140504D01*
X303089741Y-144025225D01*
X302498837Y-144025225D01*
X301919287Y-144140504D01*
X301373363Y-144366634D01*
X300882044Y-144694922D01*
X300464211Y-145112755D01*
X300135923Y-145604074D01*
X299909793Y-146149998D01*
X299794514Y-146729548D01*
X292975000Y-146729548D01*
X292975000Y-142350874D01*
X292977056Y-142330000D01*
X292968850Y-142246686D01*
X292945588Y-142170000D01*
X328422944Y-142170000D01*
X328425001Y-142190884D01*
X328425000Y-152199126D01*
X328422944Y-152220000D01*
X328431150Y-152303314D01*
X328455452Y-152383427D01*
X328494916Y-152457260D01*
X328548026Y-152521974D01*
X328612740Y-152575084D01*
X328686573Y-152614548D01*
X328766686Y-152638850D01*
X328850000Y-152647056D01*
X328870874Y-152645000D01*
X382409126Y-152645000D01*
X382430000Y-152647056D01*
X382450874Y-152645000D01*
X382513314Y-152638850D01*
X382593427Y-152614548D01*
X382667260Y-152575084D01*
X382731974Y-152521974D01*
X382785084Y-152457260D01*
X382824548Y-152383427D01*
X382848850Y-152303314D01*
X382857056Y-152220000D01*
X382855000Y-152199126D01*
X382855000Y-142190874D01*
X382857056Y-142170000D01*
X382848850Y-142086686D01*
X382824548Y-142006573D01*
X382785084Y-141932740D01*
X382731974Y-141868026D01*
X382667260Y-141814916D01*
X382593427Y-141775452D01*
X382513314Y-141751150D01*
X382450874Y-141745000D01*
X382430000Y-141742944D01*
X382409126Y-141745000D01*
X328870874Y-141745000D01*
X328850000Y-141742944D01*
X328829126Y-141745000D01*
X328766686Y-141751150D01*
X328686573Y-141775452D01*
X328612740Y-141814916D01*
X328548026Y-141868026D01*
X328494916Y-141932740D01*
X328455452Y-142006573D01*
X328431150Y-142086686D01*
X328422944Y-142170000D01*
X292945588Y-142170000D01*
X292944548Y-142166573D01*
X292905084Y-142092740D01*
X292851974Y-142028026D01*
X292787260Y-141974916D01*
X292713427Y-141935452D01*
X292633314Y-141911150D01*
X292570874Y-141905000D01*
X292550000Y-141902944D01*
X292529126Y-141905000D01*
X43140874Y-141905000D01*
X43120000Y-141902944D01*
X43099126Y-141905000D01*
X43036686Y-141911150D01*
X42956573Y-141935452D01*
X42882740Y-141974916D01*
X42818026Y-142028026D01*
X42764916Y-142092740D01*
X42725452Y-142166573D01*
X42701150Y-142246686D01*
X42692944Y-142330000D01*
X37192000Y-142330000D01*
X37192000Y-138254548D01*
X288944514Y-138254548D01*
X288944514Y-138845452D01*
X289059793Y-139425002D01*
X289285923Y-139970926D01*
X289614211Y-140462245D01*
X290032044Y-140880078D01*
X290523363Y-141208366D01*
X291069287Y-141434496D01*
X291648837Y-141549775D01*
X292239741Y-141549775D01*
X292819291Y-141434496D01*
X293365215Y-141208366D01*
X293856534Y-140880078D01*
X294274367Y-140462245D01*
X294602655Y-139970926D01*
X294828785Y-139425002D01*
X294944064Y-138845452D01*
X294944064Y-138279548D01*
X312875225Y-138279548D01*
X312875225Y-138870452D01*
X312990504Y-139450002D01*
X313216634Y-139995926D01*
X313544922Y-140487245D01*
X313962755Y-140905078D01*
X314454074Y-141233366D01*
X314999998Y-141459496D01*
X315579548Y-141574775D01*
X316170452Y-141574775D01*
X316750002Y-141459496D01*
X317295926Y-141233366D01*
X317787245Y-140905078D01*
X318205078Y-140487245D01*
X318533366Y-139995926D01*
X318759496Y-139450002D01*
X318874775Y-138870452D01*
X318874775Y-138279548D01*
X318759496Y-137699998D01*
X318533366Y-137154074D01*
X318205078Y-136662755D01*
X317787245Y-136244922D01*
X317295926Y-135916634D01*
X316750002Y-135690504D01*
X316170452Y-135575225D01*
X315579548Y-135575225D01*
X314999998Y-135690504D01*
X314454074Y-135916634D01*
X313962755Y-136244922D01*
X313544922Y-136662755D01*
X313216634Y-137154074D01*
X312990504Y-137699998D01*
X312875225Y-138279548D01*
X294944064Y-138279548D01*
X294944064Y-138254548D01*
X294828785Y-137674998D01*
X294602655Y-137129074D01*
X294274367Y-136637755D01*
X293856534Y-136219922D01*
X293365215Y-135891634D01*
X292819291Y-135665504D01*
X292239741Y-135550225D01*
X291648837Y-135550225D01*
X291069287Y-135665504D01*
X290523363Y-135891634D01*
X290032044Y-136219922D01*
X289614211Y-136637755D01*
X289285923Y-137129074D01*
X289059793Y-137674998D01*
X288944514Y-138254548D01*
X37192000Y-138254548D01*
X37192000Y-123250000D01*
X37947944Y-123250000D01*
X37950001Y-123270884D01*
X37950000Y-132979126D01*
X37947944Y-133000000D01*
X37956150Y-133083314D01*
X37980452Y-133163427D01*
X38019916Y-133237260D01*
X38031992Y-133251974D01*
X38073026Y-133301974D01*
X38137740Y-133355084D01*
X38211573Y-133394548D01*
X38291686Y-133418850D01*
X38375000Y-133427056D01*
X38395874Y-133425000D01*
X310979126Y-133425000D01*
X311000000Y-133427056D01*
X311020874Y-133425000D01*
X311083314Y-133418850D01*
X311163427Y-133394548D01*
X311237260Y-133355084D01*
X311301974Y-133301974D01*
X311355084Y-133237260D01*
X311394548Y-133163427D01*
X311418850Y-133083314D01*
X311427056Y-133000000D01*
X311425000Y-132979126D01*
X311425000Y-123270874D01*
X311427056Y-123250000D01*
X311418850Y-123166686D01*
X311400985Y-123107792D01*
X313390819Y-123107792D01*
X313390819Y-123592208D01*
X313485324Y-124067317D01*
X313670702Y-124514859D01*
X313939829Y-124917637D01*
X314282363Y-125260171D01*
X314685141Y-125529298D01*
X315132683Y-125714676D01*
X315607792Y-125809181D01*
X316092208Y-125809181D01*
X316567317Y-125714676D01*
X317014859Y-125529298D01*
X317417637Y-125260171D01*
X317760171Y-124917637D01*
X318029298Y-124514859D01*
X318214676Y-124067317D01*
X318309181Y-123592208D01*
X318309181Y-123250000D01*
X328422944Y-123250000D01*
X328425001Y-123270884D01*
X328425000Y-132929126D01*
X328422944Y-132950000D01*
X328431150Y-133033314D01*
X328455452Y-133113427D01*
X328494916Y-133187260D01*
X328548026Y-133251974D01*
X328612740Y-133305084D01*
X328686573Y-133344548D01*
X328766686Y-133368850D01*
X328850000Y-133377056D01*
X328870874Y-133375000D01*
X382379126Y-133375000D01*
X382400000Y-133377056D01*
X382420874Y-133375000D01*
X382483314Y-133368850D01*
X382563427Y-133344548D01*
X382637260Y-133305084D01*
X382701974Y-133251974D01*
X382755084Y-133187260D01*
X382794548Y-133113427D01*
X382818850Y-133033314D01*
X382827056Y-132950000D01*
X382825000Y-132929126D01*
X382825000Y-123270874D01*
X382827056Y-123250000D01*
X382818850Y-123166686D01*
X382794548Y-123086573D01*
X382755084Y-123012740D01*
X382701974Y-122948026D01*
X382637260Y-122894916D01*
X382563427Y-122855452D01*
X382483314Y-122831150D01*
X382420874Y-122825000D01*
X382400000Y-122822944D01*
X382379126Y-122825000D01*
X328870874Y-122825000D01*
X328850000Y-122822944D01*
X328829126Y-122825000D01*
X328766686Y-122831150D01*
X328686573Y-122855452D01*
X328612740Y-122894916D01*
X328548026Y-122948026D01*
X328494916Y-123012740D01*
X328455452Y-123086573D01*
X328431150Y-123166686D01*
X328422944Y-123250000D01*
X318309181Y-123250000D01*
X318309181Y-123107792D01*
X318214676Y-122632683D01*
X318029298Y-122185141D01*
X317760171Y-121782363D01*
X317417637Y-121439829D01*
X317014859Y-121170702D01*
X316567317Y-120985324D01*
X316092208Y-120890819D01*
X315607792Y-120890819D01*
X315132683Y-120985324D01*
X314685141Y-121170702D01*
X314282363Y-121439829D01*
X313939829Y-121782363D01*
X313670702Y-122185141D01*
X313485324Y-122632683D01*
X313390819Y-123107792D01*
X311400985Y-123107792D01*
X311394548Y-123086573D01*
X311355084Y-123012740D01*
X311301974Y-122948026D01*
X311237260Y-122894916D01*
X311163427Y-122855452D01*
X311083314Y-122831150D01*
X311020874Y-122825000D01*
X311000000Y-122822944D01*
X310979126Y-122825000D01*
X294434246Y-122825000D01*
X294428198Y-122771083D01*
X294420194Y-122733426D01*
X294412708Y-122695620D01*
X294410953Y-122689951D01*
X294288467Y-122303826D01*
X294273301Y-122268441D01*
X294258614Y-122232808D01*
X294255792Y-122227588D01*
X294060639Y-121872608D01*
X294038898Y-121840855D01*
X294017561Y-121808741D01*
X294013782Y-121804174D01*
X294013778Y-121804168D01*
X294013773Y-121804163D01*
X293753394Y-121493854D01*
X293725868Y-121466899D01*
X293698730Y-121439570D01*
X293694137Y-121435825D01*
X293694132Y-121435820D01*
X293694127Y-121435816D01*
X293378431Y-121181991D01*
X293346223Y-121160915D01*
X293314265Y-121139359D01*
X293309026Y-121136573D01*
X292950037Y-120948899D01*
X292914327Y-120934471D01*
X292878811Y-120919541D01*
X292873134Y-120917827D01*
X292873128Y-120917825D01*
X292484525Y-120803454D01*
X292446703Y-120796239D01*
X292408956Y-120788491D01*
X292403050Y-120787912D01*
X291999631Y-120751198D01*
X291961112Y-120751467D01*
X291922593Y-120751198D01*
X291916687Y-120751777D01*
X291513820Y-120794120D01*
X291476118Y-120801859D01*
X291438249Y-120809083D01*
X291432568Y-120810799D01*
X291045598Y-120930586D01*
X291010123Y-120945498D01*
X290974373Y-120959942D01*
X290969134Y-120962728D01*
X290612800Y-121155397D01*
X290580874Y-121176931D01*
X290548633Y-121198029D01*
X290544034Y-121201780D01*
X290231910Y-121459992D01*
X290204772Y-121487320D01*
X290177247Y-121514275D01*
X290173465Y-121518847D01*
X289917438Y-121832766D01*
X289896129Y-121864839D01*
X289874358Y-121896634D01*
X289871539Y-121901849D01*
X289871536Y-121901853D01*
X289871536Y-121901854D01*
X289681359Y-122259525D01*
X289666692Y-122295110D01*
X289651505Y-122330543D01*
X289649751Y-122336212D01*
X289532669Y-122724009D01*
X289525190Y-122761779D01*
X289517178Y-122799472D01*
X289516558Y-122805374D01*
X289514634Y-122825000D01*
X38395874Y-122825000D01*
X38375000Y-122822944D01*
X38354126Y-122825000D01*
X38291686Y-122831150D01*
X38211573Y-122855452D01*
X38137740Y-122894916D01*
X38073026Y-122948026D01*
X38019916Y-123012740D01*
X37980452Y-123086573D01*
X37956150Y-123166686D01*
X37947944Y-123250000D01*
X37192000Y-123250000D01*
X37192000Y-115801837D01*
X45500000Y-115801837D01*
X45500000Y-116368163D01*
X45610485Y-116923607D01*
X45827208Y-117446823D01*
X46141842Y-117917706D01*
X46542294Y-118318158D01*
X47013177Y-118632792D01*
X47536393Y-118849515D01*
X48091837Y-118960000D01*
X48658163Y-118960000D01*
X49213607Y-118849515D01*
X49736823Y-118632792D01*
X50207706Y-118318158D01*
X50608158Y-117917706D01*
X50922792Y-117446823D01*
X51139515Y-116923607D01*
X51250000Y-116368163D01*
X51250000Y-115801837D01*
X209350000Y-115801837D01*
X209350000Y-116368163D01*
X209460485Y-116923607D01*
X209677208Y-117446823D01*
X209991842Y-117917706D01*
X210392294Y-118318158D01*
X210863177Y-118632792D01*
X211386393Y-118849515D01*
X211941837Y-118960000D01*
X212508163Y-118960000D01*
X213063607Y-118849515D01*
X213586823Y-118632792D01*
X214057706Y-118318158D01*
X214458158Y-117917706D01*
X214772792Y-117446823D01*
X214989515Y-116923607D01*
X215100000Y-116368163D01*
X215100000Y-115801837D01*
X215095028Y-115776837D01*
X373200000Y-115776837D01*
X373200000Y-116343163D01*
X373310485Y-116898607D01*
X373527208Y-117421823D01*
X373841842Y-117892706D01*
X374242294Y-118293158D01*
X374713177Y-118607792D01*
X375236393Y-118824515D01*
X375791837Y-118935000D01*
X376358163Y-118935000D01*
X376913607Y-118824515D01*
X377436823Y-118607792D01*
X377907706Y-118293158D01*
X378308158Y-117892706D01*
X378622792Y-117421823D01*
X378839515Y-116898607D01*
X378950000Y-116343163D01*
X378950000Y-115776837D01*
X378839515Y-115221393D01*
X378622792Y-114698177D01*
X378308158Y-114227294D01*
X377907706Y-113826842D01*
X377436823Y-113512208D01*
X376913607Y-113295485D01*
X376358163Y-113185000D01*
X375791837Y-113185000D01*
X375236393Y-113295485D01*
X374713177Y-113512208D01*
X374242294Y-113826842D01*
X373841842Y-114227294D01*
X373527208Y-114698177D01*
X373310485Y-115221393D01*
X373200000Y-115776837D01*
X215095028Y-115776837D01*
X214989515Y-115246393D01*
X214772792Y-114723177D01*
X214458158Y-114252294D01*
X214057706Y-113851842D01*
X213586823Y-113537208D01*
X213063607Y-113320485D01*
X212508163Y-113210000D01*
X211941837Y-113210000D01*
X211386393Y-113320485D01*
X210863177Y-113537208D01*
X210392294Y-113851842D01*
X209991842Y-114252294D01*
X209677208Y-114723177D01*
X209460485Y-115246393D01*
X209350000Y-115801837D01*
X51250000Y-115801837D01*
X51139515Y-115246393D01*
X50922792Y-114723177D01*
X50608158Y-114252294D01*
X50207706Y-113851842D01*
X49736823Y-113537208D01*
X49213607Y-113320485D01*
X48658163Y-113210000D01*
X48091837Y-113210000D01*
X47536393Y-113320485D01*
X47013177Y-113537208D01*
X46542294Y-113851842D01*
X46141842Y-114252294D01*
X45827208Y-114723177D01*
X45610485Y-115246393D01*
X45500000Y-115801837D01*
X37192000Y-115801837D01*
X37192000Y-108846584D01*
X57000000Y-108846584D01*
X57000000Y-109053416D01*
X57040350Y-109256274D01*
X57119502Y-109447362D01*
X57234411Y-109619336D01*
X57380664Y-109765589D01*
X57552638Y-109880498D01*
X57743726Y-109959650D01*
X57946584Y-110000000D01*
X58153416Y-110000000D01*
X58356274Y-109959650D01*
X58547362Y-109880498D01*
X58719336Y-109765589D01*
X58865589Y-109619336D01*
X58980498Y-109447362D01*
X59050000Y-109279571D01*
X59119502Y-109447362D01*
X59234411Y-109619336D01*
X59380664Y-109765589D01*
X59552638Y-109880498D01*
X59743726Y-109959650D01*
X59946584Y-110000000D01*
X60153416Y-110000000D01*
X60356274Y-109959650D01*
X60547362Y-109880498D01*
X60719336Y-109765589D01*
X60865589Y-109619336D01*
X60980498Y-109447362D01*
X61059650Y-109256274D01*
X61100000Y-109053416D01*
X61100000Y-108846584D01*
X61059650Y-108643726D01*
X60980498Y-108452638D01*
X60865589Y-108280664D01*
X60719336Y-108134411D01*
X60547362Y-108019502D01*
X60356274Y-107940350D01*
X60153416Y-107900000D01*
X59946584Y-107900000D01*
X59743726Y-107940350D01*
X59552638Y-108019502D01*
X59380664Y-108134411D01*
X59234411Y-108280664D01*
X59119502Y-108452638D01*
X59050000Y-108620429D01*
X58980498Y-108452638D01*
X58865589Y-108280664D01*
X58719336Y-108134411D01*
X58547362Y-108019502D01*
X58356274Y-107940350D01*
X58153416Y-107900000D01*
X57946584Y-107900000D01*
X57743726Y-107940350D01*
X57552638Y-108019502D01*
X57380664Y-108134411D01*
X57234411Y-108280664D01*
X57119502Y-108452638D01*
X57040350Y-108643726D01*
X57000000Y-108846584D01*
X37192000Y-108846584D01*
X37192000Y-104950000D01*
X383342000Y-104950000D01*
X383342001Y-212764200D01*
G04 #@! TA.AperFunction,Conductor*
D14*
G36*
X383342001Y-212764200D02*
G01*
X383290959Y-213284759D01*
X383145821Y-213765480D01*
X382910075Y-214208856D01*
X382592697Y-214597998D01*
X382205784Y-214918081D01*
X381764061Y-215156919D01*
X381284368Y-215305410D01*
X380764975Y-215360000D01*
X219829272Y-215360000D01*
X220088505Y-215100767D01*
X220358103Y-214697287D01*
X220543804Y-214248963D01*
X220638474Y-213773025D01*
X220638474Y-213287763D01*
X220543804Y-212811825D01*
X220358103Y-212363501D01*
X220088505Y-211960021D01*
X219745373Y-211616889D01*
X219341893Y-211347291D01*
X218893569Y-211161590D01*
X218417631Y-211066920D01*
X217932369Y-211066920D01*
X217456431Y-211161590D01*
X217008107Y-211347291D01*
X216604627Y-211616889D01*
X216261495Y-211960021D01*
X215991897Y-212363501D01*
X215806196Y-212811825D01*
X215711526Y-213287763D01*
X215711526Y-213773025D01*
X215806196Y-214248963D01*
X215991897Y-214697287D01*
X216261495Y-215100767D01*
X216520728Y-215360000D01*
X119877025Y-215360000D01*
X120103589Y-215133436D01*
X120375429Y-214726599D01*
X120562676Y-214274546D01*
X120658133Y-213794649D01*
X120658133Y-213305351D01*
X120562676Y-212825454D01*
X120375429Y-212373401D01*
X120103589Y-211966564D01*
X119757603Y-211620578D01*
X119350766Y-211348738D01*
X118898713Y-211161491D01*
X118418816Y-211066034D01*
X117929518Y-211066034D01*
X117449621Y-211161491D01*
X116997568Y-211348738D01*
X116590731Y-211620578D01*
X116244745Y-211966564D01*
X115972905Y-212373401D01*
X115785658Y-212825454D01*
X115690201Y-213305351D01*
X115690201Y-213794649D01*
X115785658Y-214274546D01*
X115972905Y-214726599D01*
X116244745Y-215133436D01*
X116471309Y-215360000D01*
X39787790Y-215360000D01*
X39267241Y-215308959D01*
X38786520Y-215163821D01*
X38343144Y-214928075D01*
X37954002Y-214610697D01*
X37633919Y-214223784D01*
X37395081Y-213782061D01*
X37246590Y-213302368D01*
X37192000Y-212782975D01*
X37192000Y-209901837D01*
X206350000Y-209901837D01*
X206350000Y-210468163D01*
X206460485Y-211023607D01*
X206677208Y-211546823D01*
X206991842Y-212017706D01*
X207392294Y-212418158D01*
X207863177Y-212732792D01*
X208386393Y-212949515D01*
X208941837Y-213060000D01*
X209508163Y-213060000D01*
X210063607Y-212949515D01*
X210586823Y-212732792D01*
X211057706Y-212418158D01*
X211458158Y-212017706D01*
X211772792Y-211546823D01*
X211989515Y-211023607D01*
X212100000Y-210468163D01*
X212100000Y-209901837D01*
X212044305Y-209621837D01*
X322392000Y-209621837D01*
X322392000Y-210188163D01*
X322502485Y-210743607D01*
X322719208Y-211266823D01*
X323033842Y-211737706D01*
X323434294Y-212138158D01*
X323905177Y-212452792D01*
X324428393Y-212669515D01*
X324983837Y-212780000D01*
X325550163Y-212780000D01*
X326105607Y-212669515D01*
X326628823Y-212452792D01*
X327099706Y-212138158D01*
X327500158Y-211737706D01*
X327814792Y-211266823D01*
X328031515Y-210743607D01*
X328142000Y-210188163D01*
X328142000Y-209621837D01*
X328031515Y-209066393D01*
X327814792Y-208543177D01*
X327500158Y-208072294D01*
X327099706Y-207671842D01*
X326628823Y-207357208D01*
X326105607Y-207140485D01*
X325550163Y-207030000D01*
X324983837Y-207030000D01*
X324428393Y-207140485D01*
X323905177Y-207357208D01*
X323434294Y-207671842D01*
X323033842Y-208072294D01*
X322719208Y-208543177D01*
X322502485Y-209066393D01*
X322392000Y-209621837D01*
X212044305Y-209621837D01*
X211989515Y-209346393D01*
X211772792Y-208823177D01*
X211458158Y-208352294D01*
X211057706Y-207951842D01*
X210586823Y-207637208D01*
X210063607Y-207420485D01*
X209508163Y-207310000D01*
X208941837Y-207310000D01*
X208386393Y-207420485D01*
X207863177Y-207637208D01*
X207392294Y-207951842D01*
X206991842Y-208352294D01*
X206677208Y-208823177D01*
X206460485Y-209346393D01*
X206350000Y-209901837D01*
X37192000Y-209901837D01*
X37192000Y-196021837D01*
X37292000Y-196021837D01*
X37292000Y-196588163D01*
X37402485Y-197143607D01*
X37619208Y-197666823D01*
X37933842Y-198137706D01*
X38334294Y-198538158D01*
X38805177Y-198852792D01*
X39328393Y-199069515D01*
X39883837Y-199180000D01*
X40239655Y-199180000D01*
X40225452Y-199206573D01*
X40201150Y-199286686D01*
X40192944Y-199370000D01*
X40195001Y-199390884D01*
X40195000Y-208759126D01*
X40192944Y-208780000D01*
X40201150Y-208863314D01*
X40225452Y-208943427D01*
X40264916Y-209017260D01*
X40305239Y-209066393D01*
X40318026Y-209081974D01*
X40382740Y-209135084D01*
X40456573Y-209174548D01*
X40536686Y-209198850D01*
X40620000Y-209207056D01*
X40640874Y-209205000D01*
X104039126Y-209205000D01*
X104060000Y-209207056D01*
X104080874Y-209205000D01*
X104143314Y-209198850D01*
X104223427Y-209174548D01*
X104297260Y-209135084D01*
X104361974Y-209081974D01*
X104415084Y-209017260D01*
X104454548Y-208943427D01*
X104478850Y-208863314D01*
X104487056Y-208780000D01*
X104485000Y-208759126D01*
X104485000Y-199390874D01*
X104487056Y-199370000D01*
X104478850Y-199286686D01*
X104454548Y-199206573D01*
X104415084Y-199132740D01*
X104361974Y-199068026D01*
X104297260Y-199014916D01*
X104223427Y-198975452D01*
X104143314Y-198951150D01*
X104080874Y-198945000D01*
X104060000Y-198942944D01*
X104039126Y-198945000D01*
X41306213Y-198945000D01*
X41528823Y-198852792D01*
X41999706Y-198538158D01*
X42400158Y-198137706D01*
X42487980Y-198006271D01*
X115192110Y-198006271D01*
X115192110Y-198593729D01*
X115306717Y-199169899D01*
X115531528Y-199712640D01*
X115857902Y-200201093D01*
X116273298Y-200616489D01*
X116761751Y-200942863D01*
X117304492Y-201167674D01*
X117880662Y-201282281D01*
X118468120Y-201282281D01*
X119044290Y-201167674D01*
X119587031Y-200942863D01*
X120075484Y-200616489D01*
X120490880Y-200201093D01*
X120817254Y-199712640D01*
X121021312Y-199220000D01*
X159172944Y-199220000D01*
X159175001Y-199240884D01*
X159175000Y-208839126D01*
X159172944Y-208860000D01*
X159181150Y-208943314D01*
X159205452Y-209023427D01*
X159244916Y-209097260D01*
X159267751Y-209125084D01*
X159298026Y-209161974D01*
X159362740Y-209215084D01*
X159436573Y-209254548D01*
X159516686Y-209278850D01*
X159600000Y-209287056D01*
X159620874Y-209285000D01*
X175509126Y-209285000D01*
X175530000Y-209287056D01*
X175550874Y-209285000D01*
X175613314Y-209278850D01*
X175693427Y-209254548D01*
X175767260Y-209215084D01*
X175831974Y-209161974D01*
X175885084Y-209097260D01*
X175924548Y-209023427D01*
X175948850Y-208943314D01*
X175957056Y-208860000D01*
X175955000Y-208839126D01*
X175955000Y-199240874D01*
X175957056Y-199220000D01*
X175948850Y-199136686D01*
X175924548Y-199056573D01*
X175885084Y-198982740D01*
X175831974Y-198918026D01*
X175767260Y-198864916D01*
X175693427Y-198825452D01*
X175613314Y-198801150D01*
X175550874Y-198795000D01*
X175530000Y-198792944D01*
X175509126Y-198795000D01*
X159620874Y-198795000D01*
X159600000Y-198792944D01*
X159579126Y-198795000D01*
X159516686Y-198801150D01*
X159436573Y-198825452D01*
X159362740Y-198864916D01*
X159298026Y-198918026D01*
X159244916Y-198982740D01*
X159205452Y-199056573D01*
X159181150Y-199136686D01*
X159172944Y-199220000D01*
X121021312Y-199220000D01*
X121042065Y-199169899D01*
X121156672Y-198593729D01*
X121156672Y-198006380D01*
X215168221Y-198006380D01*
X215168221Y-198593620D01*
X215282786Y-199169577D01*
X215507513Y-199712117D01*
X215833766Y-200200390D01*
X216249008Y-200615632D01*
X216737281Y-200941885D01*
X217279821Y-201166612D01*
X217855778Y-201281177D01*
X218443018Y-201281177D01*
X219018975Y-201166612D01*
X219561515Y-200941885D01*
X220049788Y-200615632D01*
X220465030Y-200200390D01*
X220791283Y-199712117D01*
X220895713Y-199460000D01*
X230612944Y-199460000D01*
X230615001Y-199480884D01*
X230615000Y-208749126D01*
X230612944Y-208770000D01*
X230621150Y-208853314D01*
X230645452Y-208933427D01*
X230684916Y-209007260D01*
X230721612Y-209051974D01*
X230738026Y-209071974D01*
X230802740Y-209125084D01*
X230876573Y-209164548D01*
X230956686Y-209188850D01*
X231040000Y-209197056D01*
X231060874Y-209195000D01*
X318299126Y-209195000D01*
X318320000Y-209197056D01*
X318340874Y-209195000D01*
X318403314Y-209188850D01*
X318483427Y-209164548D01*
X318557260Y-209125084D01*
X318621974Y-209071974D01*
X318675084Y-209007260D01*
X318714548Y-208933427D01*
X318738850Y-208853314D01*
X318747056Y-208770000D01*
X318745000Y-208749126D01*
X318745000Y-199480874D01*
X318747056Y-199460000D01*
X318738850Y-199376686D01*
X318733789Y-199360000D01*
X328352944Y-199360000D01*
X328355001Y-199380884D01*
X328355000Y-208729126D01*
X328352944Y-208750000D01*
X328361150Y-208833314D01*
X328385452Y-208913427D01*
X328424916Y-208987260D01*
X328441330Y-209007260D01*
X328478026Y-209051974D01*
X328542740Y-209105084D01*
X328616573Y-209144548D01*
X328696686Y-209168850D01*
X328780000Y-209177056D01*
X328800874Y-209175000D01*
X382519126Y-209175000D01*
X382540000Y-209177056D01*
X382560874Y-209175000D01*
X382623314Y-209168850D01*
X382703427Y-209144548D01*
X382777260Y-209105084D01*
X382841974Y-209051974D01*
X382895084Y-208987260D01*
X382934548Y-208913427D01*
X382958850Y-208833314D01*
X382967056Y-208750000D01*
X382965000Y-208729126D01*
X382965000Y-199380874D01*
X382967056Y-199360000D01*
X382958850Y-199276686D01*
X382934548Y-199196573D01*
X382895084Y-199122740D01*
X382841974Y-199058026D01*
X382777260Y-199004916D01*
X382703427Y-198965452D01*
X382623314Y-198941150D01*
X382560874Y-198935000D01*
X382540000Y-198932944D01*
X382519126Y-198935000D01*
X328800874Y-198935000D01*
X328780000Y-198932944D01*
X328759126Y-198935000D01*
X328696686Y-198941150D01*
X328616573Y-198965452D01*
X328542740Y-199004916D01*
X328478026Y-199058026D01*
X328424916Y-199122740D01*
X328385452Y-199196573D01*
X328361150Y-199276686D01*
X328352944Y-199360000D01*
X318733789Y-199360000D01*
X318714548Y-199296573D01*
X318675084Y-199222740D01*
X318621974Y-199158026D01*
X318557260Y-199104916D01*
X318483427Y-199065452D01*
X318403314Y-199041150D01*
X318340874Y-199035000D01*
X318320000Y-199032944D01*
X318299126Y-199035000D01*
X231060874Y-199035000D01*
X231040000Y-199032944D01*
X231019126Y-199035000D01*
X230956686Y-199041150D01*
X230876573Y-199065452D01*
X230802740Y-199104916D01*
X230738026Y-199158026D01*
X230684916Y-199222740D01*
X230645452Y-199296573D01*
X230621150Y-199376686D01*
X230612944Y-199460000D01*
X220895713Y-199460000D01*
X221016010Y-199169577D01*
X221130575Y-198593620D01*
X221130575Y-198006380D01*
X221016010Y-197430423D01*
X220791283Y-196887883D01*
X220465030Y-196399610D01*
X220049788Y-195984368D01*
X219561515Y-195658115D01*
X219056174Y-195448796D01*
X281788848Y-195448796D01*
X281788848Y-196051204D01*
X281906372Y-196642038D01*
X282136904Y-197198590D01*
X282471584Y-197699475D01*
X282897551Y-198125442D01*
X283398436Y-198460122D01*
X283954988Y-198690654D01*
X284545822Y-198808178D01*
X285148230Y-198808178D01*
X285739064Y-198690654D01*
X286295616Y-198460122D01*
X286796501Y-198125442D01*
X287222468Y-197699475D01*
X287557148Y-197198590D01*
X287787680Y-196642038D01*
X287905204Y-196051204D01*
X287905204Y-195454548D01*
X305705936Y-195454548D01*
X305705936Y-196045452D01*
X305821215Y-196625002D01*
X306047345Y-197170926D01*
X306375633Y-197662245D01*
X306793466Y-198080078D01*
X307284785Y-198408366D01*
X307830709Y-198634496D01*
X308410259Y-198749775D01*
X309001163Y-198749775D01*
X309580713Y-198634496D01*
X310126637Y-198408366D01*
X310617956Y-198080078D01*
X311035789Y-197662245D01*
X311364077Y-197170926D01*
X311590207Y-196625002D01*
X311705486Y-196045452D01*
X311705486Y-195454548D01*
X311590207Y-194874998D01*
X311364077Y-194329074D01*
X311035789Y-193837755D01*
X310617956Y-193419922D01*
X310171840Y-193121837D01*
X376792000Y-193121837D01*
X376792000Y-193688163D01*
X376902485Y-194243607D01*
X377119208Y-194766823D01*
X377433842Y-195237706D01*
X377834294Y-195638158D01*
X378305177Y-195952792D01*
X378828393Y-196169515D01*
X379383837Y-196280000D01*
X379950163Y-196280000D01*
X380505607Y-196169515D01*
X381028823Y-195952792D01*
X381499706Y-195638158D01*
X381900158Y-195237706D01*
X382214792Y-194766823D01*
X382431515Y-194243607D01*
X382542000Y-193688163D01*
X382542000Y-193121837D01*
X382431515Y-192566393D01*
X382214792Y-192043177D01*
X381900158Y-191572294D01*
X381499706Y-191171842D01*
X381028823Y-190857208D01*
X380505607Y-190640485D01*
X379950163Y-190530000D01*
X379383837Y-190530000D01*
X378828393Y-190640485D01*
X378305177Y-190857208D01*
X377834294Y-191171842D01*
X377433842Y-191572294D01*
X377119208Y-192043177D01*
X376902485Y-192566393D01*
X376792000Y-193121837D01*
X310171840Y-193121837D01*
X310126637Y-193091634D01*
X309580713Y-192865504D01*
X309001163Y-192750225D01*
X308410259Y-192750225D01*
X307830709Y-192865504D01*
X307284785Y-193091634D01*
X306793466Y-193419922D01*
X306375633Y-193837755D01*
X306047345Y-194329074D01*
X305821215Y-194874998D01*
X305705936Y-195454548D01*
X287905204Y-195454548D01*
X287905204Y-195448796D01*
X287787680Y-194857962D01*
X287557148Y-194301410D01*
X287222468Y-193800525D01*
X286796501Y-193374558D01*
X286295616Y-193039878D01*
X285739064Y-192809346D01*
X285148230Y-192691822D01*
X284545822Y-192691822D01*
X283954988Y-192809346D01*
X283398436Y-193039878D01*
X282897551Y-193374558D01*
X282471584Y-193800525D01*
X282136904Y-194301410D01*
X281906372Y-194857962D01*
X281788848Y-195448796D01*
X219056174Y-195448796D01*
X219018975Y-195433388D01*
X218443018Y-195318823D01*
X217855778Y-195318823D01*
X217279821Y-195433388D01*
X216737281Y-195658115D01*
X216249008Y-195984368D01*
X215833766Y-196399610D01*
X215507513Y-196887883D01*
X215282786Y-197430423D01*
X215168221Y-198006380D01*
X121156672Y-198006380D01*
X121156672Y-198006271D01*
X121042065Y-197430101D01*
X120817254Y-196887360D01*
X120490880Y-196398907D01*
X120075484Y-195983511D01*
X119587031Y-195657137D01*
X119044290Y-195432326D01*
X118468120Y-195317719D01*
X117880662Y-195317719D01*
X117304492Y-195432326D01*
X116761751Y-195657137D01*
X116273298Y-195983511D01*
X115857902Y-196398907D01*
X115531528Y-196887360D01*
X115306717Y-197430101D01*
X115192110Y-198006271D01*
X42487980Y-198006271D01*
X42714792Y-197666823D01*
X42931515Y-197143607D01*
X43042000Y-196588163D01*
X43042000Y-196021837D01*
X42931515Y-195466393D01*
X42714792Y-194943177D01*
X42400158Y-194472294D01*
X41999706Y-194071842D01*
X41528823Y-193757208D01*
X41005607Y-193540485D01*
X40450163Y-193430000D01*
X39883837Y-193430000D01*
X39328393Y-193540485D01*
X38805177Y-193757208D01*
X38334294Y-194071842D01*
X37933842Y-194472294D01*
X37619208Y-194943177D01*
X37402485Y-195466393D01*
X37292000Y-196021837D01*
X37192000Y-196021837D01*
X37192000Y-179870000D01*
X40222944Y-179870000D01*
X40225001Y-179890884D01*
X40225000Y-189999126D01*
X40222944Y-190020000D01*
X40231150Y-190103314D01*
X40255452Y-190183427D01*
X40294916Y-190257260D01*
X40348026Y-190321974D01*
X40412740Y-190375084D01*
X40486573Y-190414548D01*
X40566686Y-190438850D01*
X40650000Y-190447056D01*
X40670874Y-190445000D01*
X268119126Y-190445000D01*
X268140000Y-190447056D01*
X268160874Y-190445000D01*
X268223314Y-190438850D01*
X268303427Y-190414548D01*
X268377260Y-190375084D01*
X268441974Y-190321974D01*
X268495084Y-190257260D01*
X268534548Y-190183427D01*
X268558850Y-190103314D01*
X268567056Y-190020000D01*
X268565000Y-189999126D01*
X268565000Y-180302510D01*
X282307231Y-180302510D01*
X282307231Y-180797490D01*
X282403797Y-181282958D01*
X282593218Y-181740260D01*
X282868213Y-182151820D01*
X283218217Y-182501824D01*
X283629777Y-182776819D01*
X284087079Y-182966240D01*
X284572547Y-183062806D01*
X285067527Y-183062806D01*
X285552995Y-182966240D01*
X286010297Y-182776819D01*
X286421857Y-182501824D01*
X286771861Y-182151820D01*
X287046856Y-181740260D01*
X287236277Y-181282958D01*
X287332843Y-180797490D01*
X287332843Y-180302510D01*
X287262725Y-179950000D01*
X287482944Y-179950000D01*
X287485001Y-179970884D01*
X287485000Y-190079126D01*
X287482944Y-190100000D01*
X287491150Y-190183314D01*
X287515452Y-190263427D01*
X287554916Y-190337260D01*
X287585518Y-190374548D01*
X287608026Y-190401974D01*
X287672740Y-190455084D01*
X287746573Y-190494548D01*
X287826686Y-190518850D01*
X287910000Y-190527056D01*
X287930874Y-190525000D01*
X304389126Y-190525000D01*
X304410000Y-190527056D01*
X304430874Y-190525000D01*
X304493314Y-190518850D01*
X304573427Y-190494548D01*
X304647260Y-190455084D01*
X304711974Y-190401974D01*
X304765084Y-190337260D01*
X304804548Y-190263427D01*
X304828850Y-190183314D01*
X304837056Y-190100000D01*
X304835000Y-190079126D01*
X304835000Y-180233706D01*
X306270944Y-180233706D01*
X306270944Y-180716294D01*
X306365092Y-181189608D01*
X306549770Y-181635461D01*
X306817882Y-182036718D01*
X307159122Y-182377958D01*
X307560379Y-182646070D01*
X308006232Y-182830748D01*
X308479546Y-182924896D01*
X308962134Y-182924896D01*
X309435448Y-182830748D01*
X309881301Y-182646070D01*
X310282558Y-182377958D01*
X310623798Y-182036718D01*
X310891910Y-181635461D01*
X311076588Y-181189608D01*
X311170736Y-180716294D01*
X311170736Y-180360000D01*
X347442944Y-180360000D01*
X347445001Y-180380884D01*
X347445000Y-189959126D01*
X347442944Y-189980000D01*
X347451150Y-190063314D01*
X347475452Y-190143427D01*
X347514916Y-190217260D01*
X347547743Y-190257259D01*
X347568026Y-190281974D01*
X347632740Y-190335084D01*
X347706573Y-190374548D01*
X347786686Y-190398850D01*
X347870000Y-190407056D01*
X347890874Y-190405000D01*
X363419126Y-190405000D01*
X363440000Y-190407056D01*
X363460874Y-190405000D01*
X363523314Y-190398850D01*
X363603427Y-190374548D01*
X363677260Y-190335084D01*
X363741974Y-190281974D01*
X363795084Y-190217260D01*
X363834548Y-190143427D01*
X363858850Y-190063314D01*
X363867056Y-189980000D01*
X363865000Y-189959126D01*
X363865000Y-180380874D01*
X363867056Y-180360000D01*
X363858850Y-180276686D01*
X363834548Y-180196573D01*
X363795084Y-180122740D01*
X363741974Y-180058026D01*
X363677260Y-180004916D01*
X363603427Y-179965452D01*
X363523314Y-179941150D01*
X363460874Y-179935000D01*
X363440000Y-179932944D01*
X363419126Y-179935000D01*
X347890874Y-179935000D01*
X347870000Y-179932944D01*
X347849126Y-179935000D01*
X347786686Y-179941150D01*
X347706573Y-179965452D01*
X347632740Y-180004916D01*
X347568026Y-180058026D01*
X347514916Y-180122740D01*
X347475452Y-180196573D01*
X347451150Y-180276686D01*
X347442944Y-180360000D01*
X311170736Y-180360000D01*
X311170736Y-180233706D01*
X311076588Y-179760392D01*
X310891910Y-179314539D01*
X310623798Y-178913282D01*
X310282558Y-178572042D01*
X309881301Y-178303930D01*
X309435448Y-178119252D01*
X308962134Y-178025104D01*
X308479546Y-178025104D01*
X308006232Y-178119252D01*
X307560379Y-178303930D01*
X307159122Y-178572042D01*
X306817882Y-178913282D01*
X306549770Y-179314539D01*
X306365092Y-179760392D01*
X306270944Y-180233706D01*
X304835000Y-180233706D01*
X304835000Y-179970874D01*
X304837056Y-179950000D01*
X304828850Y-179866686D01*
X304804548Y-179786573D01*
X304765084Y-179712740D01*
X304711974Y-179648026D01*
X304647260Y-179594916D01*
X304573427Y-179555452D01*
X304493314Y-179531150D01*
X304430874Y-179525000D01*
X304410000Y-179522944D01*
X304389126Y-179525000D01*
X287930874Y-179525000D01*
X287910000Y-179522944D01*
X287889126Y-179525000D01*
X287826686Y-179531150D01*
X287746573Y-179555452D01*
X287672740Y-179594916D01*
X287608026Y-179648026D01*
X287554916Y-179712740D01*
X287515452Y-179786573D01*
X287491150Y-179866686D01*
X287482944Y-179950000D01*
X287262725Y-179950000D01*
X287236277Y-179817042D01*
X287046856Y-179359740D01*
X286771861Y-178948180D01*
X286421857Y-178598176D01*
X286010297Y-178323181D01*
X285552995Y-178133760D01*
X285067527Y-178037194D01*
X284572547Y-178037194D01*
X284087079Y-178133760D01*
X283629777Y-178323181D01*
X283218217Y-178598176D01*
X282868213Y-178948180D01*
X282593218Y-179359740D01*
X282403797Y-179817042D01*
X282307231Y-180302510D01*
X268565000Y-180302510D01*
X268565000Y-179890874D01*
X268567056Y-179870000D01*
X268558850Y-179786686D01*
X268534548Y-179706573D01*
X268495084Y-179632740D01*
X268441974Y-179568026D01*
X268377260Y-179514916D01*
X268303427Y-179475452D01*
X268223314Y-179451150D01*
X268160874Y-179445000D01*
X268140000Y-179442944D01*
X268119126Y-179445000D01*
X40670874Y-179445000D01*
X40650000Y-179442944D01*
X40629126Y-179445000D01*
X40566686Y-179451150D01*
X40486573Y-179475452D01*
X40412740Y-179514916D01*
X40348026Y-179568026D01*
X40294916Y-179632740D01*
X40255452Y-179706573D01*
X40231150Y-179786686D01*
X40222944Y-179870000D01*
X37192000Y-179870000D01*
X37192000Y-174763669D01*
X75565000Y-174763669D01*
X75565000Y-174916331D01*
X75594783Y-175066059D01*
X75653204Y-175207100D01*
X75738018Y-175334034D01*
X75845966Y-175441982D01*
X75972900Y-175526796D01*
X76113941Y-175585217D01*
X76263669Y-175615000D01*
X76416331Y-175615000D01*
X76566059Y-175585217D01*
X76707100Y-175526796D01*
X76834034Y-175441982D01*
X76941982Y-175334034D01*
X77026796Y-175207100D01*
X77032359Y-175193669D01*
X286860000Y-175193669D01*
X286860000Y-175346331D01*
X286889783Y-175496059D01*
X286948204Y-175637100D01*
X287033018Y-175764034D01*
X287140966Y-175871982D01*
X287267900Y-175956796D01*
X287408941Y-176015217D01*
X287558669Y-176045000D01*
X287711331Y-176045000D01*
X287861059Y-176015217D01*
X288002100Y-175956796D01*
X288129034Y-175871982D01*
X288236982Y-175764034D01*
X288321796Y-175637100D01*
X288380217Y-175496059D01*
X288410000Y-175346331D01*
X288410000Y-175193669D01*
X288380217Y-175043941D01*
X288321796Y-174902900D01*
X288236982Y-174775966D01*
X288129034Y-174668018D01*
X288002100Y-174583204D01*
X287861059Y-174524783D01*
X287711331Y-174495000D01*
X287558669Y-174495000D01*
X287408941Y-174524783D01*
X287267900Y-174583204D01*
X287140966Y-174668018D01*
X287033018Y-174775966D01*
X286948204Y-174902900D01*
X286889783Y-175043941D01*
X286860000Y-175193669D01*
X77032359Y-175193669D01*
X77085217Y-175066059D01*
X77115000Y-174916331D01*
X77115000Y-174763669D01*
X77085217Y-174613941D01*
X77026796Y-174472900D01*
X76941982Y-174345966D01*
X76834034Y-174238018D01*
X76707100Y-174153204D01*
X76566059Y-174094783D01*
X76416331Y-174065000D01*
X76263669Y-174065000D01*
X76113941Y-174094783D01*
X75972900Y-174153204D01*
X75845966Y-174238018D01*
X75738018Y-174345966D01*
X75653204Y-174472900D01*
X75594783Y-174613941D01*
X75565000Y-174763669D01*
X37192000Y-174763669D01*
X37192000Y-161280000D01*
X45062944Y-161280000D01*
X45065001Y-161300884D01*
X45065000Y-170919126D01*
X45062944Y-170940000D01*
X45071150Y-171023314D01*
X45095452Y-171103427D01*
X45134916Y-171177260D01*
X45188026Y-171241974D01*
X45252740Y-171295084D01*
X45326573Y-171334548D01*
X45406686Y-171358850D01*
X45490000Y-171367056D01*
X45510874Y-171365000D01*
X296729126Y-171365000D01*
X296750000Y-171367056D01*
X296770874Y-171365000D01*
X296833314Y-171358850D01*
X296913427Y-171334548D01*
X296987260Y-171295084D01*
X297051974Y-171241974D01*
X297105084Y-171177260D01*
X297144548Y-171103427D01*
X297168850Y-171023314D01*
X297177056Y-170940000D01*
X297175000Y-170919126D01*
X297175000Y-170579548D01*
X299769514Y-170579548D01*
X299769514Y-171170452D01*
X299884793Y-171750002D01*
X300110923Y-172295926D01*
X300439211Y-172787245D01*
X300857044Y-173205078D01*
X301348363Y-173533366D01*
X301894287Y-173759496D01*
X302473837Y-173874775D01*
X303064741Y-173874775D01*
X303644291Y-173759496D01*
X304190215Y-173533366D01*
X304681534Y-173205078D01*
X305099367Y-172787245D01*
X305427655Y-172295926D01*
X305653785Y-171750002D01*
X305769064Y-171170452D01*
X305769064Y-170633706D01*
X315575104Y-170633706D01*
X315575104Y-171116294D01*
X315669252Y-171589608D01*
X315853930Y-172035461D01*
X316122042Y-172436718D01*
X316463282Y-172777958D01*
X316864539Y-173046070D01*
X317310392Y-173230748D01*
X317783706Y-173324896D01*
X318266294Y-173324896D01*
X318739608Y-173230748D01*
X319185461Y-173046070D01*
X319586718Y-172777958D01*
X319927958Y-172436718D01*
X320196070Y-172035461D01*
X320380748Y-171589608D01*
X320474896Y-171116294D01*
X320474896Y-170633706D01*
X320380748Y-170160392D01*
X320196070Y-169714539D01*
X319927958Y-169313282D01*
X319586718Y-168972042D01*
X319185461Y-168703930D01*
X318739608Y-168519252D01*
X318266294Y-168425104D01*
X317783706Y-168425104D01*
X317310392Y-168519252D01*
X316864539Y-168703930D01*
X316463282Y-168972042D01*
X316122042Y-169313282D01*
X315853930Y-169714539D01*
X315669252Y-170160392D01*
X315575104Y-170633706D01*
X305769064Y-170633706D01*
X305769064Y-170579548D01*
X305653785Y-169999998D01*
X305427655Y-169454074D01*
X305099367Y-168962755D01*
X304681534Y-168544922D01*
X304190215Y-168216634D01*
X303644291Y-167990504D01*
X303064741Y-167875225D01*
X302473837Y-167875225D01*
X301894287Y-167990504D01*
X301348363Y-168216634D01*
X300857044Y-168544922D01*
X300439211Y-168962755D01*
X300110923Y-169454074D01*
X299884793Y-169999998D01*
X299769514Y-170579548D01*
X297175000Y-170579548D01*
X297175000Y-161300874D01*
X297177056Y-161280000D01*
X297168850Y-161196686D01*
X297144548Y-161116573D01*
X297105084Y-161042740D01*
X297051974Y-160978026D01*
X296987260Y-160924916D01*
X296913427Y-160885452D01*
X296833314Y-160861150D01*
X296770874Y-160855000D01*
X296750000Y-160852944D01*
X296729126Y-160855000D01*
X45510874Y-160855000D01*
X45490000Y-160852944D01*
X45469126Y-160855000D01*
X45406686Y-160861150D01*
X45326573Y-160885452D01*
X45252740Y-160924916D01*
X45188026Y-160978026D01*
X45134916Y-161042740D01*
X45095452Y-161116573D01*
X45071150Y-161196686D01*
X45062944Y-161280000D01*
X37192000Y-161280000D01*
X37192000Y-142330000D01*
X42692944Y-142330000D01*
X42695001Y-142350884D01*
X42695000Y-151979126D01*
X42692944Y-152000000D01*
X42701150Y-152083314D01*
X42725452Y-152163427D01*
X42764916Y-152237260D01*
X42818026Y-152301974D01*
X42882740Y-152355084D01*
X42956573Y-152394548D01*
X43036686Y-152418850D01*
X43120000Y-152427056D01*
X43140874Y-152425000D01*
X292529126Y-152425000D01*
X292550000Y-152427056D01*
X292570874Y-152425000D01*
X292633314Y-152418850D01*
X292713427Y-152394548D01*
X292787260Y-152355084D01*
X292851974Y-152301974D01*
X292905084Y-152237260D01*
X292944548Y-152163427D01*
X292968850Y-152083314D01*
X292977056Y-152000000D01*
X292975000Y-151979126D01*
X292975000Y-146729548D01*
X299794514Y-146729548D01*
X299794514Y-147320452D01*
X299909793Y-147900002D01*
X300135923Y-148445926D01*
X300464211Y-148937245D01*
X300882044Y-149355078D01*
X301373363Y-149683366D01*
X301919287Y-149909496D01*
X302498837Y-150024775D01*
X303089741Y-150024775D01*
X303365115Y-149970000D01*
X308082944Y-149970000D01*
X308085001Y-149990884D01*
X308085000Y-166609126D01*
X308082944Y-166630000D01*
X308091150Y-166713314D01*
X308115452Y-166793427D01*
X308154916Y-166867260D01*
X308208026Y-166931974D01*
X308272740Y-166985084D01*
X308346573Y-167024548D01*
X308426686Y-167048850D01*
X308510000Y-167057056D01*
X308530874Y-167055000D01*
X319359126Y-167055000D01*
X319380000Y-167057056D01*
X319400874Y-167055000D01*
X319463314Y-167048850D01*
X319543427Y-167024548D01*
X319617260Y-166985084D01*
X319681974Y-166931974D01*
X319735084Y-166867260D01*
X319774548Y-166793427D01*
X319798850Y-166713314D01*
X319807056Y-166630000D01*
X319805000Y-166609126D01*
X319805000Y-149990874D01*
X319807056Y-149970000D01*
X319798850Y-149886686D01*
X319774548Y-149806573D01*
X319735084Y-149732740D01*
X319681974Y-149668026D01*
X319617260Y-149614916D01*
X319543427Y-149575452D01*
X319463314Y-149551150D01*
X319400874Y-149545000D01*
X319380000Y-149542944D01*
X319359126Y-149545000D01*
X308530874Y-149545000D01*
X308510000Y-149542944D01*
X308489126Y-149545000D01*
X308426686Y-149551150D01*
X308346573Y-149575452D01*
X308272740Y-149614916D01*
X308208026Y-149668026D01*
X308154916Y-149732740D01*
X308115452Y-149806573D01*
X308091150Y-149886686D01*
X308082944Y-149970000D01*
X303365115Y-149970000D01*
X303669291Y-149909496D01*
X304215215Y-149683366D01*
X304706534Y-149355078D01*
X305124367Y-148937245D01*
X305452655Y-148445926D01*
X305678785Y-147900002D01*
X305794064Y-147320452D01*
X305794064Y-146729548D01*
X305793251Y-146725456D01*
X315575104Y-146725456D01*
X315575104Y-147208044D01*
X315669252Y-147681358D01*
X315853930Y-148127211D01*
X316122042Y-148528468D01*
X316463282Y-148869708D01*
X316864539Y-149137820D01*
X317310392Y-149322498D01*
X317783706Y-149416646D01*
X318266294Y-149416646D01*
X318739608Y-149322498D01*
X319185461Y-149137820D01*
X319586718Y-148869708D01*
X319927958Y-148528468D01*
X320196070Y-148127211D01*
X320380748Y-147681358D01*
X320474896Y-147208044D01*
X320474896Y-146725456D01*
X320380748Y-146252142D01*
X320196070Y-145806289D01*
X319927958Y-145405032D01*
X319586718Y-145063792D01*
X319185461Y-144795680D01*
X318739608Y-144611002D01*
X318266294Y-144516854D01*
X317783706Y-144516854D01*
X317310392Y-144611002D01*
X316864539Y-144795680D01*
X316463282Y-145063792D01*
X316122042Y-145405032D01*
X315853930Y-145806289D01*
X315669252Y-146252142D01*
X315575104Y-146725456D01*
X305793251Y-146725456D01*
X305678785Y-146149998D01*
X305452655Y-145604074D01*
X305124367Y-145112755D01*
X304706534Y-144694922D01*
X304215215Y-144366634D01*
X303669291Y-144140504D01*
X303089741Y-144025225D01*
X302498837Y-144025225D01*
X301919287Y-144140504D01*
X301373363Y-144366634D01*
X300882044Y-144694922D01*
X300464211Y-145112755D01*
X300135923Y-145604074D01*
X299909793Y-146149998D01*
X299794514Y-146729548D01*
X292975000Y-146729548D01*
X292975000Y-142350874D01*
X292977056Y-142330000D01*
X292968850Y-142246686D01*
X292945588Y-142170000D01*
X328422944Y-142170000D01*
X328425001Y-142190884D01*
X328425000Y-152199126D01*
X328422944Y-152220000D01*
X328431150Y-152303314D01*
X328455452Y-152383427D01*
X328494916Y-152457260D01*
X328548026Y-152521974D01*
X328612740Y-152575084D01*
X328686573Y-152614548D01*
X328766686Y-152638850D01*
X328850000Y-152647056D01*
X328870874Y-152645000D01*
X382409126Y-152645000D01*
X382430000Y-152647056D01*
X382450874Y-152645000D01*
X382513314Y-152638850D01*
X382593427Y-152614548D01*
X382667260Y-152575084D01*
X382731974Y-152521974D01*
X382785084Y-152457260D01*
X382824548Y-152383427D01*
X382848850Y-152303314D01*
X382857056Y-152220000D01*
X382855000Y-152199126D01*
X382855000Y-142190874D01*
X382857056Y-142170000D01*
X382848850Y-142086686D01*
X382824548Y-142006573D01*
X382785084Y-141932740D01*
X382731974Y-141868026D01*
X382667260Y-141814916D01*
X382593427Y-141775452D01*
X382513314Y-141751150D01*
X382450874Y-141745000D01*
X382430000Y-141742944D01*
X382409126Y-141745000D01*
X328870874Y-141745000D01*
X328850000Y-141742944D01*
X328829126Y-141745000D01*
X328766686Y-141751150D01*
X328686573Y-141775452D01*
X328612740Y-141814916D01*
X328548026Y-141868026D01*
X328494916Y-141932740D01*
X328455452Y-142006573D01*
X328431150Y-142086686D01*
X328422944Y-142170000D01*
X292945588Y-142170000D01*
X292944548Y-142166573D01*
X292905084Y-142092740D01*
X292851974Y-142028026D01*
X292787260Y-141974916D01*
X292713427Y-141935452D01*
X292633314Y-141911150D01*
X292570874Y-141905000D01*
X292550000Y-141902944D01*
X292529126Y-141905000D01*
X43140874Y-141905000D01*
X43120000Y-141902944D01*
X43099126Y-141905000D01*
X43036686Y-141911150D01*
X42956573Y-141935452D01*
X42882740Y-141974916D01*
X42818026Y-142028026D01*
X42764916Y-142092740D01*
X42725452Y-142166573D01*
X42701150Y-142246686D01*
X42692944Y-142330000D01*
X37192000Y-142330000D01*
X37192000Y-138254548D01*
X288944514Y-138254548D01*
X288944514Y-138845452D01*
X289059793Y-139425002D01*
X289285923Y-139970926D01*
X289614211Y-140462245D01*
X290032044Y-140880078D01*
X290523363Y-141208366D01*
X291069287Y-141434496D01*
X291648837Y-141549775D01*
X292239741Y-141549775D01*
X292819291Y-141434496D01*
X293365215Y-141208366D01*
X293856534Y-140880078D01*
X294274367Y-140462245D01*
X294602655Y-139970926D01*
X294828785Y-139425002D01*
X294944064Y-138845452D01*
X294944064Y-138279548D01*
X312875225Y-138279548D01*
X312875225Y-138870452D01*
X312990504Y-139450002D01*
X313216634Y-139995926D01*
X313544922Y-140487245D01*
X313962755Y-140905078D01*
X314454074Y-141233366D01*
X314999998Y-141459496D01*
X315579548Y-141574775D01*
X316170452Y-141574775D01*
X316750002Y-141459496D01*
X317295926Y-141233366D01*
X317787245Y-140905078D01*
X318205078Y-140487245D01*
X318533366Y-139995926D01*
X318759496Y-139450002D01*
X318874775Y-138870452D01*
X318874775Y-138279548D01*
X318759496Y-137699998D01*
X318533366Y-137154074D01*
X318205078Y-136662755D01*
X317787245Y-136244922D01*
X317295926Y-135916634D01*
X316750002Y-135690504D01*
X316170452Y-135575225D01*
X315579548Y-135575225D01*
X314999998Y-135690504D01*
X314454074Y-135916634D01*
X313962755Y-136244922D01*
X313544922Y-136662755D01*
X313216634Y-137154074D01*
X312990504Y-137699998D01*
X312875225Y-138279548D01*
X294944064Y-138279548D01*
X294944064Y-138254548D01*
X294828785Y-137674998D01*
X294602655Y-137129074D01*
X294274367Y-136637755D01*
X293856534Y-136219922D01*
X293365215Y-135891634D01*
X292819291Y-135665504D01*
X292239741Y-135550225D01*
X291648837Y-135550225D01*
X291069287Y-135665504D01*
X290523363Y-135891634D01*
X290032044Y-136219922D01*
X289614211Y-136637755D01*
X289285923Y-137129074D01*
X289059793Y-137674998D01*
X288944514Y-138254548D01*
X37192000Y-138254548D01*
X37192000Y-123250000D01*
X37947944Y-123250000D01*
X37950001Y-123270884D01*
X37950000Y-132979126D01*
X37947944Y-133000000D01*
X37956150Y-133083314D01*
X37980452Y-133163427D01*
X38019916Y-133237260D01*
X38031992Y-133251974D01*
X38073026Y-133301974D01*
X38137740Y-133355084D01*
X38211573Y-133394548D01*
X38291686Y-133418850D01*
X38375000Y-133427056D01*
X38395874Y-133425000D01*
X310979126Y-133425000D01*
X311000000Y-133427056D01*
X311020874Y-133425000D01*
X311083314Y-133418850D01*
X311163427Y-133394548D01*
X311237260Y-133355084D01*
X311301974Y-133301974D01*
X311355084Y-133237260D01*
X311394548Y-133163427D01*
X311418850Y-133083314D01*
X311427056Y-133000000D01*
X311425000Y-132979126D01*
X311425000Y-123270874D01*
X311427056Y-123250000D01*
X311418850Y-123166686D01*
X311400985Y-123107792D01*
X313390819Y-123107792D01*
X313390819Y-123592208D01*
X313485324Y-124067317D01*
X313670702Y-124514859D01*
X313939829Y-124917637D01*
X314282363Y-125260171D01*
X314685141Y-125529298D01*
X315132683Y-125714676D01*
X315607792Y-125809181D01*
X316092208Y-125809181D01*
X316567317Y-125714676D01*
X317014859Y-125529298D01*
X317417637Y-125260171D01*
X317760171Y-124917637D01*
X318029298Y-124514859D01*
X318214676Y-124067317D01*
X318309181Y-123592208D01*
X318309181Y-123250000D01*
X328422944Y-123250000D01*
X328425001Y-123270884D01*
X328425000Y-132929126D01*
X328422944Y-132950000D01*
X328431150Y-133033314D01*
X328455452Y-133113427D01*
X328494916Y-133187260D01*
X328548026Y-133251974D01*
X328612740Y-133305084D01*
X328686573Y-133344548D01*
X328766686Y-133368850D01*
X328850000Y-133377056D01*
X328870874Y-133375000D01*
X382379126Y-133375000D01*
X382400000Y-133377056D01*
X382420874Y-133375000D01*
X382483314Y-133368850D01*
X382563427Y-133344548D01*
X382637260Y-133305084D01*
X382701974Y-133251974D01*
X382755084Y-133187260D01*
X382794548Y-133113427D01*
X382818850Y-133033314D01*
X382827056Y-132950000D01*
X382825000Y-132929126D01*
X382825000Y-123270874D01*
X382827056Y-123250000D01*
X382818850Y-123166686D01*
X382794548Y-123086573D01*
X382755084Y-123012740D01*
X382701974Y-122948026D01*
X382637260Y-122894916D01*
X382563427Y-122855452D01*
X382483314Y-122831150D01*
X382420874Y-122825000D01*
X382400000Y-122822944D01*
X382379126Y-122825000D01*
X328870874Y-122825000D01*
X328850000Y-122822944D01*
X328829126Y-122825000D01*
X328766686Y-122831150D01*
X328686573Y-122855452D01*
X328612740Y-122894916D01*
X328548026Y-122948026D01*
X328494916Y-123012740D01*
X328455452Y-123086573D01*
X328431150Y-123166686D01*
X328422944Y-123250000D01*
X318309181Y-123250000D01*
X318309181Y-123107792D01*
X318214676Y-122632683D01*
X318029298Y-122185141D01*
X317760171Y-121782363D01*
X317417637Y-121439829D01*
X317014859Y-121170702D01*
X316567317Y-120985324D01*
X316092208Y-120890819D01*
X315607792Y-120890819D01*
X315132683Y-120985324D01*
X314685141Y-121170702D01*
X314282363Y-121439829D01*
X313939829Y-121782363D01*
X313670702Y-122185141D01*
X313485324Y-122632683D01*
X313390819Y-123107792D01*
X311400985Y-123107792D01*
X311394548Y-123086573D01*
X311355084Y-123012740D01*
X311301974Y-122948026D01*
X311237260Y-122894916D01*
X311163427Y-122855452D01*
X311083314Y-122831150D01*
X311020874Y-122825000D01*
X311000000Y-122822944D01*
X310979126Y-122825000D01*
X294434246Y-122825000D01*
X294428198Y-122771083D01*
X294420194Y-122733426D01*
X294412708Y-122695620D01*
X294410953Y-122689951D01*
X294288467Y-122303826D01*
X294273301Y-122268441D01*
X294258614Y-122232808D01*
X294255792Y-122227588D01*
X294060639Y-121872608D01*
X294038898Y-121840855D01*
X294017561Y-121808741D01*
X294013782Y-121804174D01*
X294013778Y-121804168D01*
X294013773Y-121804163D01*
X293753394Y-121493854D01*
X293725868Y-121466899D01*
X293698730Y-121439570D01*
X293694137Y-121435825D01*
X293694132Y-121435820D01*
X293694127Y-121435816D01*
X293378431Y-121181991D01*
X293346223Y-121160915D01*
X293314265Y-121139359D01*
X293309026Y-121136573D01*
X292950037Y-120948899D01*
X292914327Y-120934471D01*
X292878811Y-120919541D01*
X292873134Y-120917827D01*
X292873128Y-120917825D01*
X292484525Y-120803454D01*
X292446703Y-120796239D01*
X292408956Y-120788491D01*
X292403050Y-120787912D01*
X291999631Y-120751198D01*
X291961112Y-120751467D01*
X291922593Y-120751198D01*
X291916687Y-120751777D01*
X291513820Y-120794120D01*
X291476118Y-120801859D01*
X291438249Y-120809083D01*
X291432568Y-120810799D01*
X291045598Y-120930586D01*
X291010123Y-120945498D01*
X290974373Y-120959942D01*
X290969134Y-120962728D01*
X290612800Y-121155397D01*
X290580874Y-121176931D01*
X290548633Y-121198029D01*
X290544034Y-121201780D01*
X290231910Y-121459992D01*
X290204772Y-121487320D01*
X290177247Y-121514275D01*
X290173465Y-121518847D01*
X289917438Y-121832766D01*
X289896129Y-121864839D01*
X289874358Y-121896634D01*
X289871539Y-121901849D01*
X289871536Y-121901853D01*
X289871536Y-121901854D01*
X289681359Y-122259525D01*
X289666692Y-122295110D01*
X289651505Y-122330543D01*
X289649751Y-122336212D01*
X289532669Y-122724009D01*
X289525190Y-122761779D01*
X289517178Y-122799472D01*
X289516558Y-122805374D01*
X289514634Y-122825000D01*
X38395874Y-122825000D01*
X38375000Y-122822944D01*
X38354126Y-122825000D01*
X38291686Y-122831150D01*
X38211573Y-122855452D01*
X38137740Y-122894916D01*
X38073026Y-122948026D01*
X38019916Y-123012740D01*
X37980452Y-123086573D01*
X37956150Y-123166686D01*
X37947944Y-123250000D01*
X37192000Y-123250000D01*
X37192000Y-115801837D01*
X45500000Y-115801837D01*
X45500000Y-116368163D01*
X45610485Y-116923607D01*
X45827208Y-117446823D01*
X46141842Y-117917706D01*
X46542294Y-118318158D01*
X47013177Y-118632792D01*
X47536393Y-118849515D01*
X48091837Y-118960000D01*
X48658163Y-118960000D01*
X49213607Y-118849515D01*
X49736823Y-118632792D01*
X50207706Y-118318158D01*
X50608158Y-117917706D01*
X50922792Y-117446823D01*
X51139515Y-116923607D01*
X51250000Y-116368163D01*
X51250000Y-115801837D01*
X209350000Y-115801837D01*
X209350000Y-116368163D01*
X209460485Y-116923607D01*
X209677208Y-117446823D01*
X209991842Y-117917706D01*
X210392294Y-118318158D01*
X210863177Y-118632792D01*
X211386393Y-118849515D01*
X211941837Y-118960000D01*
X212508163Y-118960000D01*
X213063607Y-118849515D01*
X213586823Y-118632792D01*
X214057706Y-118318158D01*
X214458158Y-117917706D01*
X214772792Y-117446823D01*
X214989515Y-116923607D01*
X215100000Y-116368163D01*
X215100000Y-115801837D01*
X215095028Y-115776837D01*
X373200000Y-115776837D01*
X373200000Y-116343163D01*
X373310485Y-116898607D01*
X373527208Y-117421823D01*
X373841842Y-117892706D01*
X374242294Y-118293158D01*
X374713177Y-118607792D01*
X375236393Y-118824515D01*
X375791837Y-118935000D01*
X376358163Y-118935000D01*
X376913607Y-118824515D01*
X377436823Y-118607792D01*
X377907706Y-118293158D01*
X378308158Y-117892706D01*
X378622792Y-117421823D01*
X378839515Y-116898607D01*
X378950000Y-116343163D01*
X378950000Y-115776837D01*
X378839515Y-115221393D01*
X378622792Y-114698177D01*
X378308158Y-114227294D01*
X377907706Y-113826842D01*
X377436823Y-113512208D01*
X376913607Y-113295485D01*
X376358163Y-113185000D01*
X375791837Y-113185000D01*
X375236393Y-113295485D01*
X374713177Y-113512208D01*
X374242294Y-113826842D01*
X373841842Y-114227294D01*
X373527208Y-114698177D01*
X373310485Y-115221393D01*
X373200000Y-115776837D01*
X215095028Y-115776837D01*
X214989515Y-115246393D01*
X214772792Y-114723177D01*
X214458158Y-114252294D01*
X214057706Y-113851842D01*
X213586823Y-113537208D01*
X213063607Y-113320485D01*
X212508163Y-113210000D01*
X211941837Y-113210000D01*
X211386393Y-113320485D01*
X210863177Y-113537208D01*
X210392294Y-113851842D01*
X209991842Y-114252294D01*
X209677208Y-114723177D01*
X209460485Y-115246393D01*
X209350000Y-115801837D01*
X51250000Y-115801837D01*
X51139515Y-115246393D01*
X50922792Y-114723177D01*
X50608158Y-114252294D01*
X50207706Y-113851842D01*
X49736823Y-113537208D01*
X49213607Y-113320485D01*
X48658163Y-113210000D01*
X48091837Y-113210000D01*
X47536393Y-113320485D01*
X47013177Y-113537208D01*
X46542294Y-113851842D01*
X46141842Y-114252294D01*
X45827208Y-114723177D01*
X45610485Y-115246393D01*
X45500000Y-115801837D01*
X37192000Y-115801837D01*
X37192000Y-108846584D01*
X57000000Y-108846584D01*
X57000000Y-109053416D01*
X57040350Y-109256274D01*
X57119502Y-109447362D01*
X57234411Y-109619336D01*
X57380664Y-109765589D01*
X57552638Y-109880498D01*
X57743726Y-109959650D01*
X57946584Y-110000000D01*
X58153416Y-110000000D01*
X58356274Y-109959650D01*
X58547362Y-109880498D01*
X58719336Y-109765589D01*
X58865589Y-109619336D01*
X58980498Y-109447362D01*
X59050000Y-109279571D01*
X59119502Y-109447362D01*
X59234411Y-109619336D01*
X59380664Y-109765589D01*
X59552638Y-109880498D01*
X59743726Y-109959650D01*
X59946584Y-110000000D01*
X60153416Y-110000000D01*
X60356274Y-109959650D01*
X60547362Y-109880498D01*
X60719336Y-109765589D01*
X60865589Y-109619336D01*
X60980498Y-109447362D01*
X61059650Y-109256274D01*
X61100000Y-109053416D01*
X61100000Y-108846584D01*
X61059650Y-108643726D01*
X60980498Y-108452638D01*
X60865589Y-108280664D01*
X60719336Y-108134411D01*
X60547362Y-108019502D01*
X60356274Y-107940350D01*
X60153416Y-107900000D01*
X59946584Y-107900000D01*
X59743726Y-107940350D01*
X59552638Y-108019502D01*
X59380664Y-108134411D01*
X59234411Y-108280664D01*
X59119502Y-108452638D01*
X59050000Y-108620429D01*
X58980498Y-108452638D01*
X58865589Y-108280664D01*
X58719336Y-108134411D01*
X58547362Y-108019502D01*
X58356274Y-107940350D01*
X58153416Y-107900000D01*
X57946584Y-107900000D01*
X57743726Y-107940350D01*
X57552638Y-108019502D01*
X57380664Y-108134411D01*
X57234411Y-108280664D01*
X57119502Y-108452638D01*
X57040350Y-108643726D01*
X57000000Y-108846584D01*
X37192000Y-108846584D01*
X37192000Y-104950000D01*
X383342000Y-104950000D01*
X383342001Y-212764200D01*
G37*
G04 #@! TD.AperFunction*
M02*
