%FSLAX45Y45*%
G04 Gerber Fmt 4.5, Leading zero omitted, Abs format (unit mm)*
G04 Created by KiCad (PCBNEW (5.1.10)-1) date 2021-10-25 17:22:13*
%MOMM*%
%LPD*%
G01*
G04 APERTURE LIST*
%TA.AperFunction,Profile*%
%ADD10C,0.100000*%
%TD*%
%ADD11C,0.200000*%
%ADD12C,0.300000*%
G04 APERTURE END LIST*
D10*
X29405120Y-12325000D02*
X31100000Y-12325000D01*
X28990000Y-12325000D02*
G75*
G02*
X29405120Y-12325000I207560J0D01*
G01*
X31787608Y-12335000D02*
G75*
G03*
X31787608Y-12335000I-202608J0D01*
G01*
X31844429Y-13857500D02*
G75*
G03*
X31844429Y-13857500I-256929J0D01*
G01*
X29451358Y-13855000D02*
G75*
G03*
X29451358Y-13855000I-256929J0D01*
G01*
X30536358Y-14702500D02*
G75*
G03*
X30536358Y-14702500I-256929J0D01*
G01*
X30533858Y-17087500D02*
G75*
G03*
X30533858Y-17087500I-256929J0D01*
G01*
X32004175Y-17087500D02*
G75*
G03*
X32004175Y-17087500I-201675J0D01*
G01*
X32004175Y-14696675D02*
G75*
G03*
X32004175Y-14696675I-201675J0D01*
G01*
X28690000Y-18055000D02*
G75*
G03*
X28690000Y-18055000I-207996J0D01*
G01*
X31073759Y-18047500D02*
G75*
G03*
X31073759Y-18047500I-201675J0D01*
G01*
X31127500Y-19575000D02*
G75*
G03*
X31127500Y-19575000I-256929J0D01*
G01*
X28747500Y-19575000D02*
G75*
G03*
X28747500Y-19575000I-262798J0D01*
G01*
X12022515Y-21355000D02*
G75*
G03*
X12022515Y-21355000I-205099J0D01*
G01*
X12072610Y-19830000D02*
G75*
G03*
X12072610Y-19830000I-255171J0D01*
G01*
X22070000Y-19830000D02*
G75*
G03*
X22070000Y-19830000I-255060J0D01*
G01*
X22020539Y-21353039D02*
G75*
G03*
X22020539Y-21353039I-203039J0D01*
G01*
X38254000Y-19936000D02*
X38254000Y-20875000D01*
X32878000Y-19936000D02*
X38254000Y-19936000D01*
X32878000Y-20875000D02*
X32878000Y-19936000D01*
X38254000Y-20875000D02*
X32878000Y-20875000D01*
X31832000Y-19946000D02*
X31832000Y-20877000D01*
X23104000Y-19946000D02*
X31832000Y-19946000D01*
X23104000Y-20877000D02*
X23104000Y-19946000D01*
X31832000Y-20877000D02*
X23104000Y-20877000D01*
X17553000Y-19922000D02*
X17553000Y-20886000D01*
X15960000Y-19922000D02*
X17553000Y-19922000D01*
X15960000Y-20886000D02*
X15960000Y-19922000D01*
X17553000Y-20886000D02*
X15960000Y-20886000D01*
X10406000Y-19937000D02*
X10406000Y-20878000D01*
X4062000Y-19937000D02*
X10406000Y-19937000D01*
X4062000Y-20878000D02*
X4062000Y-19937000D01*
X10406000Y-20878000D02*
X4062000Y-20878000D01*
X36344000Y-18036000D02*
X36344000Y-18998000D01*
X34787000Y-18036000D02*
X36344000Y-18036000D01*
X34787000Y-18998000D02*
X34787000Y-18036000D01*
X36344000Y-18998000D02*
X34787000Y-18998000D01*
X30441000Y-17995000D02*
X30441000Y-19010000D01*
X28791000Y-17995000D02*
X30441000Y-17995000D01*
X28791000Y-19010000D02*
X28791000Y-17995000D01*
X30441000Y-19010000D02*
X28791000Y-19010000D01*
X26814000Y-17987000D02*
X26814000Y-19002000D01*
X4065000Y-17987000D02*
X26814000Y-17987000D01*
X4065000Y-19002000D02*
X4065000Y-17987000D01*
X26814000Y-19002000D02*
X4065000Y-19002000D01*
X29675000Y-16128000D02*
X29675000Y-17094000D01*
X4549000Y-16128000D02*
X29675000Y-16128000D01*
X4549000Y-17094000D02*
X4549000Y-16128000D01*
X29675000Y-17094000D02*
X4549000Y-17094000D01*
X38243000Y-14217000D02*
X38243000Y-15222000D01*
X32885000Y-14217000D02*
X38243000Y-14217000D01*
X32885000Y-15222000D02*
X32885000Y-14217000D01*
X38243000Y-15222000D02*
X32885000Y-15222000D01*
X31938000Y-14997000D02*
X31938000Y-16663000D01*
X30851000Y-14997000D02*
X31938000Y-14997000D01*
X30851000Y-16663000D02*
X30851000Y-14997000D01*
X31938000Y-16663000D02*
X30851000Y-16663000D01*
X29255000Y-14233000D02*
X29255000Y-15200000D01*
X4312000Y-14233000D02*
X29255000Y-14233000D01*
X4312000Y-15200000D02*
X4312000Y-14233000D01*
X29255000Y-15200000D02*
X4312000Y-15200000D01*
X38240000Y-12325000D02*
X38240000Y-13295000D01*
X32885000Y-12325000D02*
X38240000Y-12325000D01*
X32885000Y-13295000D02*
X32885000Y-12325000D01*
X38240000Y-13295000D02*
X32885000Y-13295000D01*
X31100000Y-12325000D02*
X31100000Y-13300000D01*
X3837500Y-12325000D02*
X28990000Y-12325000D01*
X3837500Y-13300000D02*
X3837500Y-12325000D01*
X31100000Y-13300000D02*
X3837500Y-13300000D01*
X38376700Y-10452500D02*
X3676700Y-10452500D01*
X38076700Y-21578500D02*
X3976700Y-21578500D01*
X3676700Y-21278500D02*
X3676700Y-10452500D01*
X38376700Y-21278500D02*
G75*
G02*
X38076700Y-21578500I-300000J0D01*
G01*
X3976700Y-21578500D02*
G75*
G02*
X3676700Y-21278500I0J300000D01*
G01*
X38376700Y-10452500D02*
X38376700Y-21278500D01*
D11*
X6272500Y-13660500D02*
X6312500Y-13700500D01*
X6312500Y-13660500D02*
X6272500Y-13700500D01*
X6876000Y-19437000D02*
X6916000Y-19477000D01*
X6916000Y-19437000D02*
X6876000Y-19477000D01*
X7121500Y-21349000D02*
X7161500Y-21389000D01*
X7161500Y-21349000D02*
X7121500Y-21389000D01*
X7251001Y-15596000D02*
X7291001Y-15636000D01*
X7291001Y-15596000D02*
X7251001Y-15636000D01*
X7614000Y-17464000D02*
X7654000Y-17504000D01*
X7654000Y-17464000D02*
X7614000Y-17504000D01*
X16327500Y-21285500D02*
X16367500Y-21325500D01*
X16367500Y-21285500D02*
X16327500Y-21325500D01*
X27270100Y-13718000D02*
X27310100Y-13758000D01*
X27310100Y-13718000D02*
X27270100Y-13758000D01*
X28415000Y-21328000D02*
X28455000Y-21368000D01*
X28455000Y-21328000D02*
X28415000Y-21368000D01*
X28743500Y-17507000D02*
X28783500Y-17547000D01*
X28783500Y-17507000D02*
X28743500Y-17547000D01*
X29200000Y-10818000D02*
X29240000Y-10858000D01*
X29240000Y-10818000D02*
X29200000Y-10858000D01*
X35024500Y-21301000D02*
X35064500Y-21341000D01*
X35064500Y-21301000D02*
X35024500Y-21341000D01*
X35220500Y-15474000D02*
X35260500Y-15514000D01*
X35260500Y-15474000D02*
X35220500Y-15514000D01*
X35285000Y-13708000D02*
X35325000Y-13748000D01*
X35325000Y-13708000D02*
X35285000Y-13748000D01*
X35384000Y-19394000D02*
X35424000Y-19434000D01*
X35424000Y-19394000D02*
X35384000Y-19434000D01*
X37137500Y-10848000D02*
X37177500Y-10888000D01*
X37177500Y-10848000D02*
X37137500Y-10888000D01*
X37598750Y-21301750D02*
X37638750Y-21341750D01*
X37638750Y-21301750D02*
X37598750Y-21341750D01*
X5845000Y-10895000D02*
G75*
G03*
X5845000Y-10895000I-40000J0D01*
G01*
X6045000Y-10895000D02*
G75*
G03*
X6045000Y-10895000I-40000J0D01*
G01*
X6245000Y-10895000D02*
G75*
G03*
X6245000Y-10895000I-40000J0D01*
G01*
D12*
X3958128Y-22049214D02*
X3958128Y-21749214D01*
X4029557Y-21749214D01*
X4072414Y-21763500D01*
X4100986Y-21792072D01*
X4115271Y-21820643D01*
X4129557Y-21877786D01*
X4129557Y-21920643D01*
X4115271Y-21977786D01*
X4100986Y-22006357D01*
X4072414Y-22034929D01*
X4029557Y-22049214D01*
X3958128Y-22049214D01*
X4258128Y-22049214D02*
X4258128Y-21849214D01*
X4258128Y-21906357D02*
X4272414Y-21877786D01*
X4286700Y-21863500D01*
X4315271Y-21849214D01*
X4343843Y-21849214D01*
X4443843Y-22049214D02*
X4443843Y-21849214D01*
X4443843Y-21749214D02*
X4429557Y-21763500D01*
X4443843Y-21777786D01*
X4458128Y-21763500D01*
X4443843Y-21749214D01*
X4443843Y-21777786D01*
X4629557Y-22049214D02*
X4600986Y-22034929D01*
X4586700Y-22006357D01*
X4586700Y-21749214D01*
X4786700Y-22049214D02*
X4758128Y-22034929D01*
X4743843Y-22006357D01*
X4743843Y-21749214D01*
X5129557Y-22049214D02*
X5129557Y-21749214D01*
X5229557Y-21963500D01*
X5329557Y-21749214D01*
X5329557Y-22049214D01*
X5600986Y-22049214D02*
X5600986Y-21892072D01*
X5586700Y-21863500D01*
X5558128Y-21849214D01*
X5500986Y-21849214D01*
X5472414Y-21863500D01*
X5600986Y-22034929D02*
X5572414Y-22049214D01*
X5500986Y-22049214D01*
X5472414Y-22034929D01*
X5458128Y-22006357D01*
X5458128Y-21977786D01*
X5472414Y-21949214D01*
X5500986Y-21934929D01*
X5572414Y-21934929D01*
X5600986Y-21920643D01*
X5743843Y-21849214D02*
X5743843Y-22149214D01*
X5743843Y-21863500D02*
X5772414Y-21849214D01*
X5829557Y-21849214D01*
X5858128Y-21863500D01*
X5872414Y-21877786D01*
X5886700Y-21906357D01*
X5886700Y-21992072D01*
X5872414Y-22020643D01*
X5858128Y-22034929D01*
X5829557Y-22049214D01*
X5772414Y-22049214D01*
X5743843Y-22034929D01*
X6015271Y-22020643D02*
X6029557Y-22034929D01*
X6015271Y-22049214D01*
X6000986Y-22034929D01*
X6015271Y-22020643D01*
X6015271Y-22049214D01*
X6015271Y-21863500D02*
X6029557Y-21877786D01*
X6015271Y-21892072D01*
X6000986Y-21877786D01*
X6015271Y-21863500D01*
X6015271Y-21892072D01*
X3631700Y-22523500D02*
X3671700Y-22563500D01*
X3671700Y-22523500D02*
X3631700Y-22563500D01*
X4015271Y-22379214D02*
X4043843Y-22379214D01*
X4072414Y-22393500D01*
X4086700Y-22407786D01*
X4100986Y-22436357D01*
X4115271Y-22493500D01*
X4115271Y-22564929D01*
X4100986Y-22622071D01*
X4086700Y-22650643D01*
X4072414Y-22664929D01*
X4043843Y-22679214D01*
X4015271Y-22679214D01*
X3986700Y-22664929D01*
X3972414Y-22650643D01*
X3958128Y-22622071D01*
X3943843Y-22564929D01*
X3943843Y-22493500D01*
X3958128Y-22436357D01*
X3972414Y-22407786D01*
X3986700Y-22393500D01*
X4015271Y-22379214D01*
X4243843Y-22650643D02*
X4258128Y-22664929D01*
X4243843Y-22679214D01*
X4229557Y-22664929D01*
X4243843Y-22650643D01*
X4243843Y-22679214D01*
X4515271Y-22479214D02*
X4515271Y-22679214D01*
X4443843Y-22364929D02*
X4372414Y-22579214D01*
X4558128Y-22579214D01*
X4729557Y-22379214D02*
X4758128Y-22379214D01*
X4786700Y-22393500D01*
X4800986Y-22407786D01*
X4815271Y-22436357D01*
X4829557Y-22493500D01*
X4829557Y-22564929D01*
X4815271Y-22622071D01*
X4800986Y-22650643D01*
X4786700Y-22664929D01*
X4758128Y-22679214D01*
X4729557Y-22679214D01*
X4700986Y-22664929D01*
X4686700Y-22650643D01*
X4672414Y-22622071D01*
X4658128Y-22564929D01*
X4658128Y-22493500D01*
X4672414Y-22436357D01*
X4686700Y-22407786D01*
X4700986Y-22393500D01*
X4729557Y-22379214D01*
X5015271Y-22379214D02*
X5043843Y-22379214D01*
X5072414Y-22393500D01*
X5086700Y-22407786D01*
X5100986Y-22436357D01*
X5115271Y-22493500D01*
X5115271Y-22564929D01*
X5100986Y-22622071D01*
X5086700Y-22650643D01*
X5072414Y-22664929D01*
X5043843Y-22679214D01*
X5015271Y-22679214D01*
X4986700Y-22664929D01*
X4972414Y-22650643D01*
X4958128Y-22622071D01*
X4943843Y-22564929D01*
X4943843Y-22493500D01*
X4958128Y-22436357D01*
X4972414Y-22407786D01*
X4986700Y-22393500D01*
X5015271Y-22379214D01*
X5243843Y-22679214D02*
X5243843Y-22479214D01*
X5243843Y-22507786D02*
X5258128Y-22493500D01*
X5286700Y-22479214D01*
X5329557Y-22479214D01*
X5358128Y-22493500D01*
X5372414Y-22522071D01*
X5372414Y-22679214D01*
X5372414Y-22522071D02*
X5386700Y-22493500D01*
X5415271Y-22479214D01*
X5458128Y-22479214D01*
X5486700Y-22493500D01*
X5500986Y-22522071D01*
X5500986Y-22679214D01*
X5643843Y-22679214D02*
X5643843Y-22479214D01*
X5643843Y-22507786D02*
X5658128Y-22493500D01*
X5686700Y-22479214D01*
X5729557Y-22479214D01*
X5758128Y-22493500D01*
X5772414Y-22522071D01*
X5772414Y-22679214D01*
X5772414Y-22522071D02*
X5786700Y-22493500D01*
X5815271Y-22479214D01*
X5858128Y-22479214D01*
X5886700Y-22493500D01*
X5900986Y-22522071D01*
X5900986Y-22679214D01*
X6486700Y-22364929D02*
X6229557Y-22750643D01*
X6872414Y-22379214D02*
X6900986Y-22379214D01*
X6929557Y-22393500D01*
X6943843Y-22407786D01*
X6958128Y-22436357D01*
X6972414Y-22493500D01*
X6972414Y-22564929D01*
X6958128Y-22622071D01*
X6943843Y-22650643D01*
X6929557Y-22664929D01*
X6900986Y-22679214D01*
X6872414Y-22679214D01*
X6843843Y-22664929D01*
X6829557Y-22650643D01*
X6815271Y-22622071D01*
X6800986Y-22564929D01*
X6800986Y-22493500D01*
X6815271Y-22436357D01*
X6829557Y-22407786D01*
X6843843Y-22393500D01*
X6872414Y-22379214D01*
X7100986Y-22650643D02*
X7115271Y-22664929D01*
X7100986Y-22679214D01*
X7086700Y-22664929D01*
X7100986Y-22650643D01*
X7100986Y-22679214D01*
X7300986Y-22379214D02*
X7329557Y-22379214D01*
X7358128Y-22393500D01*
X7372414Y-22407786D01*
X7386700Y-22436357D01*
X7400986Y-22493500D01*
X7400986Y-22564929D01*
X7386700Y-22622071D01*
X7372414Y-22650643D01*
X7358128Y-22664929D01*
X7329557Y-22679214D01*
X7300986Y-22679214D01*
X7272414Y-22664929D01*
X7258128Y-22650643D01*
X7243843Y-22622071D01*
X7229557Y-22564929D01*
X7229557Y-22493500D01*
X7243843Y-22436357D01*
X7258128Y-22407786D01*
X7272414Y-22393500D01*
X7300986Y-22379214D01*
X7686700Y-22679214D02*
X7515271Y-22679214D01*
X7600986Y-22679214D02*
X7600986Y-22379214D01*
X7572414Y-22422071D01*
X7543843Y-22450643D01*
X7515271Y-22464929D01*
X7958128Y-22379214D02*
X7815271Y-22379214D01*
X7800986Y-22522071D01*
X7815271Y-22507786D01*
X7843843Y-22493500D01*
X7915271Y-22493500D01*
X7943843Y-22507786D01*
X7958128Y-22522071D01*
X7972414Y-22550643D01*
X7972414Y-22622071D01*
X7958128Y-22650643D01*
X7943843Y-22664929D01*
X7915271Y-22679214D01*
X7843843Y-22679214D01*
X7815271Y-22664929D01*
X7800986Y-22650643D01*
X8072414Y-22379214D02*
X8272414Y-22379214D01*
X8143843Y-22679214D01*
X8372414Y-22379214D02*
X8372414Y-22436357D01*
X8486700Y-22379214D02*
X8486700Y-22436357D01*
X8929557Y-22793500D02*
X8915271Y-22779214D01*
X8886700Y-22736357D01*
X8872414Y-22707786D01*
X8858128Y-22664929D01*
X8843843Y-22593500D01*
X8843843Y-22536357D01*
X8858128Y-22464929D01*
X8872414Y-22422071D01*
X8886700Y-22393500D01*
X8915271Y-22350643D01*
X8929557Y-22336357D01*
X9200986Y-22679214D02*
X9029557Y-22679214D01*
X9115271Y-22679214D02*
X9115271Y-22379214D01*
X9086700Y-22422071D01*
X9058128Y-22450643D01*
X9029557Y-22464929D01*
X9458128Y-22379214D02*
X9400986Y-22379214D01*
X9372414Y-22393500D01*
X9358128Y-22407786D01*
X9329557Y-22450643D01*
X9315271Y-22507786D01*
X9315271Y-22622071D01*
X9329557Y-22650643D01*
X9343843Y-22664929D01*
X9372414Y-22679214D01*
X9429557Y-22679214D01*
X9458128Y-22664929D01*
X9472414Y-22650643D01*
X9486700Y-22622071D01*
X9486700Y-22550643D01*
X9472414Y-22522071D01*
X9458128Y-22507786D01*
X9429557Y-22493500D01*
X9372414Y-22493500D01*
X9343843Y-22507786D01*
X9329557Y-22522071D01*
X9315271Y-22550643D01*
X9843843Y-22679214D02*
X9843843Y-22379214D01*
X9972414Y-22679214D02*
X9972414Y-22522071D01*
X9958128Y-22493500D01*
X9929557Y-22479214D01*
X9886700Y-22479214D01*
X9858128Y-22493500D01*
X9843843Y-22507786D01*
X10158128Y-22679214D02*
X10129557Y-22664929D01*
X10115271Y-22650643D01*
X10100986Y-22622071D01*
X10100986Y-22536357D01*
X10115271Y-22507786D01*
X10129557Y-22493500D01*
X10158128Y-22479214D01*
X10200986Y-22479214D01*
X10229557Y-22493500D01*
X10243843Y-22507786D01*
X10258128Y-22536357D01*
X10258128Y-22622071D01*
X10243843Y-22650643D01*
X10229557Y-22664929D01*
X10200986Y-22679214D01*
X10158128Y-22679214D01*
X10429557Y-22679214D02*
X10400986Y-22664929D01*
X10386700Y-22636357D01*
X10386700Y-22379214D01*
X10658128Y-22664929D02*
X10629557Y-22679214D01*
X10572414Y-22679214D01*
X10543843Y-22664929D01*
X10529557Y-22636357D01*
X10529557Y-22522071D01*
X10543843Y-22493500D01*
X10572414Y-22479214D01*
X10629557Y-22479214D01*
X10658128Y-22493500D01*
X10672414Y-22522071D01*
X10672414Y-22550643D01*
X10529557Y-22579214D01*
X10786700Y-22664929D02*
X10815271Y-22679214D01*
X10872414Y-22679214D01*
X10900986Y-22664929D01*
X10915271Y-22636357D01*
X10915271Y-22622071D01*
X10900986Y-22593500D01*
X10872414Y-22579214D01*
X10829557Y-22579214D01*
X10800986Y-22564929D01*
X10786700Y-22536357D01*
X10786700Y-22522071D01*
X10800986Y-22493500D01*
X10829557Y-22479214D01*
X10872414Y-22479214D01*
X10900986Y-22493500D01*
X11015271Y-22793500D02*
X11029557Y-22779214D01*
X11058128Y-22736357D01*
X11072414Y-22707786D01*
X11086700Y-22664929D01*
X11100986Y-22593500D01*
X11100986Y-22536357D01*
X11086700Y-22464929D01*
X11072414Y-22422071D01*
X11058128Y-22393500D01*
X11029557Y-22350643D01*
X11015271Y-22336357D01*
X3671700Y-22939500D02*
G75*
G03*
X3671700Y-22939500I-40000J0D01*
G01*
X4015271Y-22775214D02*
X4043843Y-22775214D01*
X4072414Y-22789500D01*
X4086700Y-22803786D01*
X4100986Y-22832357D01*
X4115271Y-22889500D01*
X4115271Y-22960929D01*
X4100986Y-23018071D01*
X4086700Y-23046643D01*
X4072414Y-23060929D01*
X4043843Y-23075214D01*
X4015271Y-23075214D01*
X3986700Y-23060929D01*
X3972414Y-23046643D01*
X3958128Y-23018071D01*
X3943843Y-22960929D01*
X3943843Y-22889500D01*
X3958128Y-22832357D01*
X3972414Y-22803786D01*
X3986700Y-22789500D01*
X4015271Y-22775214D01*
X4243843Y-23046643D02*
X4258128Y-23060929D01*
X4243843Y-23075214D01*
X4229557Y-23060929D01*
X4243843Y-23046643D01*
X4243843Y-23075214D01*
X4429557Y-22903786D02*
X4400986Y-22889500D01*
X4386700Y-22875214D01*
X4372414Y-22846643D01*
X4372414Y-22832357D01*
X4386700Y-22803786D01*
X4400986Y-22789500D01*
X4429557Y-22775214D01*
X4486700Y-22775214D01*
X4515271Y-22789500D01*
X4529557Y-22803786D01*
X4543843Y-22832357D01*
X4543843Y-22846643D01*
X4529557Y-22875214D01*
X4515271Y-22889500D01*
X4486700Y-22903786D01*
X4429557Y-22903786D01*
X4400986Y-22918071D01*
X4386700Y-22932357D01*
X4372414Y-22960929D01*
X4372414Y-23018071D01*
X4386700Y-23046643D01*
X4400986Y-23060929D01*
X4429557Y-23075214D01*
X4486700Y-23075214D01*
X4515271Y-23060929D01*
X4529557Y-23046643D01*
X4543843Y-23018071D01*
X4543843Y-22960929D01*
X4529557Y-22932357D01*
X4515271Y-22918071D01*
X4486700Y-22903786D01*
X4729557Y-22775214D02*
X4758128Y-22775214D01*
X4786700Y-22789500D01*
X4800986Y-22803786D01*
X4815271Y-22832357D01*
X4829557Y-22889500D01*
X4829557Y-22960929D01*
X4815271Y-23018071D01*
X4800986Y-23046643D01*
X4786700Y-23060929D01*
X4758128Y-23075214D01*
X4729557Y-23075214D01*
X4700986Y-23060929D01*
X4686700Y-23046643D01*
X4672414Y-23018071D01*
X4658128Y-22960929D01*
X4658128Y-22889500D01*
X4672414Y-22832357D01*
X4686700Y-22803786D01*
X4700986Y-22789500D01*
X4729557Y-22775214D01*
X5015271Y-22775214D02*
X5043843Y-22775214D01*
X5072414Y-22789500D01*
X5086700Y-22803786D01*
X5100986Y-22832357D01*
X5115271Y-22889500D01*
X5115271Y-22960929D01*
X5100986Y-23018071D01*
X5086700Y-23046643D01*
X5072414Y-23060929D01*
X5043843Y-23075214D01*
X5015271Y-23075214D01*
X4986700Y-23060929D01*
X4972414Y-23046643D01*
X4958128Y-23018071D01*
X4943843Y-22960929D01*
X4943843Y-22889500D01*
X4958128Y-22832357D01*
X4972414Y-22803786D01*
X4986700Y-22789500D01*
X5015271Y-22775214D01*
X5243843Y-23075214D02*
X5243843Y-22875214D01*
X5243843Y-22903786D02*
X5258128Y-22889500D01*
X5286700Y-22875214D01*
X5329557Y-22875214D01*
X5358128Y-22889500D01*
X5372414Y-22918071D01*
X5372414Y-23075214D01*
X5372414Y-22918071D02*
X5386700Y-22889500D01*
X5415271Y-22875214D01*
X5458128Y-22875214D01*
X5486700Y-22889500D01*
X5500986Y-22918071D01*
X5500986Y-23075214D01*
X5643843Y-23075214D02*
X5643843Y-22875214D01*
X5643843Y-22903786D02*
X5658128Y-22889500D01*
X5686700Y-22875214D01*
X5729557Y-22875214D01*
X5758128Y-22889500D01*
X5772414Y-22918071D01*
X5772414Y-23075214D01*
X5772414Y-22918071D02*
X5786700Y-22889500D01*
X5815271Y-22875214D01*
X5858128Y-22875214D01*
X5886700Y-22889500D01*
X5900986Y-22918071D01*
X5900986Y-23075214D01*
X6486700Y-22760929D02*
X6229557Y-23146643D01*
X6872414Y-22775214D02*
X6900986Y-22775214D01*
X6929557Y-22789500D01*
X6943843Y-22803786D01*
X6958128Y-22832357D01*
X6972414Y-22889500D01*
X6972414Y-22960929D01*
X6958128Y-23018071D01*
X6943843Y-23046643D01*
X6929557Y-23060929D01*
X6900986Y-23075214D01*
X6872414Y-23075214D01*
X6843843Y-23060929D01*
X6829557Y-23046643D01*
X6815271Y-23018071D01*
X6800986Y-22960929D01*
X6800986Y-22889500D01*
X6815271Y-22832357D01*
X6829557Y-22803786D01*
X6843843Y-22789500D01*
X6872414Y-22775214D01*
X7100986Y-23046643D02*
X7115271Y-23060929D01*
X7100986Y-23075214D01*
X7086700Y-23060929D01*
X7100986Y-23046643D01*
X7100986Y-23075214D01*
X7300986Y-22775214D02*
X7329557Y-22775214D01*
X7358128Y-22789500D01*
X7372414Y-22803786D01*
X7386700Y-22832357D01*
X7400986Y-22889500D01*
X7400986Y-22960929D01*
X7386700Y-23018071D01*
X7372414Y-23046643D01*
X7358128Y-23060929D01*
X7329557Y-23075214D01*
X7300986Y-23075214D01*
X7272414Y-23060929D01*
X7258128Y-23046643D01*
X7243843Y-23018071D01*
X7229557Y-22960929D01*
X7229557Y-22889500D01*
X7243843Y-22832357D01*
X7258128Y-22803786D01*
X7272414Y-22789500D01*
X7300986Y-22775214D01*
X7500986Y-22775214D02*
X7686700Y-22775214D01*
X7586700Y-22889500D01*
X7629557Y-22889500D01*
X7658128Y-22903786D01*
X7672414Y-22918071D01*
X7686700Y-22946643D01*
X7686700Y-23018071D01*
X7672414Y-23046643D01*
X7658128Y-23060929D01*
X7629557Y-23075214D01*
X7543843Y-23075214D01*
X7515271Y-23060929D01*
X7500986Y-23046643D01*
X7972414Y-23075214D02*
X7800986Y-23075214D01*
X7886700Y-23075214D02*
X7886700Y-22775214D01*
X7858128Y-22818071D01*
X7829557Y-22846643D01*
X7800986Y-22860929D01*
X8243843Y-22775214D02*
X8100986Y-22775214D01*
X8086700Y-22918071D01*
X8100986Y-22903786D01*
X8129557Y-22889500D01*
X8200986Y-22889500D01*
X8229557Y-22903786D01*
X8243843Y-22918071D01*
X8258128Y-22946643D01*
X8258128Y-23018071D01*
X8243843Y-23046643D01*
X8229557Y-23060929D01*
X8200986Y-23075214D01*
X8129557Y-23075214D01*
X8100986Y-23060929D01*
X8086700Y-23046643D01*
X8372414Y-22775214D02*
X8372414Y-22832357D01*
X8486700Y-22775214D02*
X8486700Y-22832357D01*
X8929557Y-23189500D02*
X8915271Y-23175214D01*
X8886700Y-23132357D01*
X8872414Y-23103786D01*
X8858128Y-23060929D01*
X8843843Y-22989500D01*
X8843843Y-22932357D01*
X8858128Y-22860929D01*
X8872414Y-22818071D01*
X8886700Y-22789500D01*
X8915271Y-22746643D01*
X8929557Y-22732357D01*
X9015271Y-22775214D02*
X9200986Y-22775214D01*
X9100986Y-22889500D01*
X9143843Y-22889500D01*
X9172414Y-22903786D01*
X9186700Y-22918071D01*
X9200986Y-22946643D01*
X9200986Y-23018071D01*
X9186700Y-23046643D01*
X9172414Y-23060929D01*
X9143843Y-23075214D01*
X9058128Y-23075214D01*
X9029557Y-23060929D01*
X9015271Y-23046643D01*
X9558128Y-23075214D02*
X9558128Y-22775214D01*
X9686700Y-23075214D02*
X9686700Y-22918071D01*
X9672414Y-22889500D01*
X9643843Y-22875214D01*
X9600986Y-22875214D01*
X9572414Y-22889500D01*
X9558128Y-22903786D01*
X9872414Y-23075214D02*
X9843843Y-23060929D01*
X9829557Y-23046643D01*
X9815271Y-23018071D01*
X9815271Y-22932357D01*
X9829557Y-22903786D01*
X9843843Y-22889500D01*
X9872414Y-22875214D01*
X9915271Y-22875214D01*
X9943843Y-22889500D01*
X9958128Y-22903786D01*
X9972414Y-22932357D01*
X9972414Y-23018071D01*
X9958128Y-23046643D01*
X9943843Y-23060929D01*
X9915271Y-23075214D01*
X9872414Y-23075214D01*
X10143843Y-23075214D02*
X10115271Y-23060929D01*
X10100986Y-23032357D01*
X10100986Y-22775214D01*
X10372414Y-23060929D02*
X10343843Y-23075214D01*
X10286700Y-23075214D01*
X10258128Y-23060929D01*
X10243843Y-23032357D01*
X10243843Y-22918071D01*
X10258128Y-22889500D01*
X10286700Y-22875214D01*
X10343843Y-22875214D01*
X10372414Y-22889500D01*
X10386700Y-22918071D01*
X10386700Y-22946643D01*
X10243843Y-22975214D01*
X10500986Y-23060929D02*
X10529557Y-23075214D01*
X10586700Y-23075214D01*
X10615271Y-23060929D01*
X10629557Y-23032357D01*
X10629557Y-23018071D01*
X10615271Y-22989500D01*
X10586700Y-22975214D01*
X10543843Y-22975214D01*
X10515271Y-22960929D01*
X10500986Y-22932357D01*
X10500986Y-22918071D01*
X10515271Y-22889500D01*
X10543843Y-22875214D01*
X10586700Y-22875214D01*
X10615271Y-22889500D01*
X10729557Y-23189500D02*
X10743843Y-23175214D01*
X10772414Y-23132357D01*
X10786700Y-23103786D01*
X10800986Y-23060929D01*
X10815271Y-22989500D01*
X10815271Y-22932357D01*
X10800986Y-22860929D01*
X10786700Y-22818071D01*
X10772414Y-22789500D01*
X10743843Y-22746643D01*
X10729557Y-22732357D01*
M02*
