G04 #@! TF.GenerationSoftware,KiCad,Pcbnew,(5.1.10)-1*
G04 #@! TF.CreationDate,2021-10-23T19:38:42+01:00*
G04 #@! TF.ProjectId,RGBSUB,52474253-5542-42e6-9b69-6361645f7063,Rev.1*
G04 #@! TF.SameCoordinates,Original*
G04 #@! TF.FileFunction,Other,Fab,Top*
%FSLAX46Y46*%
G04 Gerber Fmt 4.6, Leading zero omitted, Abs format (unit mm)*
G04 Created by KiCad (PCBNEW (5.1.10)-1) date 2021-10-23 19:38:42*
%MOMM*%
%LPD*%
G01*
G04 APERTURE LIST*
%ADD10C,0.100000*%
%ADD11C,0.150000*%
G04 APERTURE END LIST*
D10*
X63050000Y-107950000D02*
X63050000Y-109450000D01*
X63050000Y-109450000D02*
X62550000Y-109950000D01*
X62550000Y-109950000D02*
X57050000Y-109950000D01*
X57050000Y-109950000D02*
X57050000Y-107950000D01*
X57050000Y-107950000D02*
X63050000Y-107950000D01*
D11*
X59716666Y-108402380D02*
X59716666Y-109116666D01*
X59669047Y-109259523D01*
X59573809Y-109354761D01*
X59430952Y-109402380D01*
X59335714Y-109402380D01*
X60716666Y-109402380D02*
X60145238Y-109402380D01*
X60430952Y-109402380D02*
X60430952Y-108402380D01*
X60335714Y-108545238D01*
X60240476Y-108640476D01*
X60145238Y-108688095D01*
X375136904Y-116512380D02*
X375136904Y-115512380D01*
X375136904Y-115988571D02*
X375708333Y-115988571D01*
X375708333Y-116512380D02*
X375708333Y-115512380D01*
X376708333Y-116512380D02*
X376136904Y-116512380D01*
X376422619Y-116512380D02*
X376422619Y-115512380D01*
X376327380Y-115655238D01*
X376232142Y-115750476D01*
X376136904Y-115798095D01*
X377327380Y-115512380D02*
X377422619Y-115512380D01*
X377517857Y-115560000D01*
X377565476Y-115607619D01*
X377613095Y-115702857D01*
X377660714Y-115893333D01*
X377660714Y-116131428D01*
X377613095Y-116321904D01*
X377565476Y-116417142D01*
X377517857Y-116464761D01*
X377422619Y-116512380D01*
X377327380Y-116512380D01*
X377232142Y-116464761D01*
X377184523Y-116417142D01*
X377136904Y-116321904D01*
X377089285Y-116131428D01*
X377089285Y-115893333D01*
X377136904Y-115702857D01*
X377184523Y-115607619D01*
X377232142Y-115560000D01*
X377327380Y-115512380D01*
X47913095Y-116537380D02*
X47913095Y-115537380D01*
X47913095Y-116013571D02*
X48484523Y-116013571D01*
X48484523Y-116537380D02*
X48484523Y-115537380D01*
X49008333Y-116537380D02*
X49198809Y-116537380D01*
X49294047Y-116489761D01*
X49341666Y-116442142D01*
X49436904Y-116299285D01*
X49484523Y-116108809D01*
X49484523Y-115727857D01*
X49436904Y-115632619D01*
X49389285Y-115585000D01*
X49294047Y-115537380D01*
X49103571Y-115537380D01*
X49008333Y-115585000D01*
X48960714Y-115632619D01*
X48913095Y-115727857D01*
X48913095Y-115965952D01*
X48960714Y-116061190D01*
X49008333Y-116108809D01*
X49103571Y-116156428D01*
X49294047Y-116156428D01*
X49389285Y-116108809D01*
X49436904Y-116061190D01*
X49484523Y-115965952D01*
X208763095Y-210637380D02*
X208763095Y-209637380D01*
X208763095Y-210113571D02*
X209334523Y-210113571D01*
X209334523Y-210637380D02*
X209334523Y-209637380D01*
X209715476Y-209637380D02*
X210382142Y-209637380D01*
X209953571Y-210637380D01*
X211763095Y-116537380D02*
X211763095Y-115537380D01*
X211763095Y-116013571D02*
X212334523Y-116013571D01*
X212334523Y-116537380D02*
X212334523Y-115537380D01*
X213239285Y-115537380D02*
X213048809Y-115537380D01*
X212953571Y-115585000D01*
X212905952Y-115632619D01*
X212810714Y-115775476D01*
X212763095Y-115965952D01*
X212763095Y-116346904D01*
X212810714Y-116442142D01*
X212858333Y-116489761D01*
X212953571Y-116537380D01*
X213144047Y-116537380D01*
X213239285Y-116489761D01*
X213286904Y-116442142D01*
X213334523Y-116346904D01*
X213334523Y-116108809D01*
X213286904Y-116013571D01*
X213239285Y-115965952D01*
X213144047Y-115918333D01*
X212953571Y-115918333D01*
X212858333Y-115965952D01*
X212810714Y-116013571D01*
X212763095Y-116108809D01*
X324805095Y-210357380D02*
X324805095Y-209357380D01*
X324805095Y-209833571D02*
X325376523Y-209833571D01*
X325376523Y-210357380D02*
X325376523Y-209357380D01*
X326281285Y-209690714D02*
X326281285Y-210357380D01*
X326043190Y-209309761D02*
X325805095Y-210024047D01*
X326424142Y-210024047D01*
X39705095Y-196757380D02*
X39705095Y-195757380D01*
X39705095Y-196233571D02*
X40276523Y-196233571D01*
X40276523Y-196757380D02*
X40276523Y-195757380D01*
X40657476Y-195757380D02*
X41276523Y-195757380D01*
X40943190Y-196138333D01*
X41086047Y-196138333D01*
X41181285Y-196185952D01*
X41228904Y-196233571D01*
X41276523Y-196328809D01*
X41276523Y-196566904D01*
X41228904Y-196662142D01*
X41181285Y-196709761D01*
X41086047Y-196757380D01*
X40800333Y-196757380D01*
X40705095Y-196709761D01*
X40657476Y-196662142D01*
X379205095Y-193857380D02*
X379205095Y-192857380D01*
X379205095Y-193333571D02*
X379776523Y-193333571D01*
X379776523Y-193857380D02*
X379776523Y-192857380D01*
X380205095Y-192952619D02*
X380252714Y-192905000D01*
X380347952Y-192857380D01*
X380586047Y-192857380D01*
X380681285Y-192905000D01*
X380728904Y-192952619D01*
X380776523Y-193047857D01*
X380776523Y-193143095D01*
X380728904Y-193285952D01*
X380157476Y-193857380D01*
X380776523Y-193857380D01*
M02*
