%FSLAX45Y45*%
G04 Gerber Fmt 4.5, Leading zero omitted, Abs format (unit mm)*
G04 Created by KiCad (PCBNEW (5.1.9)-1) date 2021-05-27 06:17:22*
%MOMM*%
%LPD*%
G01*
G04 APERTURE LIST*
%TA.AperFunction,Profile*%
%ADD10C,0.100000*%
%TD*%
%ADD11C,0.200000*%
%ADD12C,0.300000*%
G04 APERTURE END LIST*
D10*
X38952500Y-6268500D02*
X38952500Y-21278500D01*
X38652500Y-5968500D02*
G75*
G02*
X38952500Y-6268500I0J-300000D01*
G01*
X3492500Y-6268500D02*
G75*
G02*
X3792500Y-5968500I300000J0D01*
G01*
X3792500Y-21578500D02*
G75*
G02*
X3492500Y-21278500I0J300000D01*
G01*
X38952500Y-21278500D02*
G75*
G02*
X38652500Y-21578500I-300000J0D01*
G01*
X3792500Y-5968500D02*
X38652500Y-5968500D01*
X3492500Y-21278500D02*
X3492500Y-6268500D01*
X38652500Y-21578500D02*
X3792500Y-21578500D01*
D11*
X3692500Y-21058500D02*
X4012500Y-21378500D01*
X4012500Y-21058500D02*
X3692500Y-21378500D01*
X3702500Y-6178500D02*
X4022500Y-6498500D01*
X4022500Y-6178500D02*
X3702500Y-6498500D01*
X4677500Y-11446000D02*
X4997500Y-11766000D01*
X4997500Y-11446000D02*
X4677500Y-11766000D01*
X20762500Y-20858500D02*
X21082500Y-21178500D01*
X21082500Y-20858500D02*
X20762500Y-21178500D01*
X21062500Y-11463500D02*
X21382500Y-11783500D01*
X21382500Y-11463500D02*
X21062500Y-11783500D01*
X37447500Y-11446000D02*
X37767500Y-11766000D01*
X37767500Y-11446000D02*
X37447500Y-11766000D01*
X38422500Y-6178500D02*
X38742500Y-6498500D01*
X38742500Y-6178500D02*
X38422500Y-6498500D01*
X38432500Y-21048500D02*
X38752500Y-21368500D01*
X38752500Y-21048500D02*
X38432500Y-21368500D01*
D12*
X3773928Y-22049214D02*
X3773928Y-21749214D01*
X3845357Y-21749214D01*
X3888214Y-21763500D01*
X3916786Y-21792072D01*
X3931071Y-21820643D01*
X3945357Y-21877786D01*
X3945357Y-21920643D01*
X3931071Y-21977786D01*
X3916786Y-22006357D01*
X3888214Y-22034929D01*
X3845357Y-22049214D01*
X3773928Y-22049214D01*
X4073928Y-22049214D02*
X4073928Y-21849214D01*
X4073928Y-21906357D02*
X4088214Y-21877786D01*
X4102500Y-21863500D01*
X4131071Y-21849214D01*
X4159643Y-21849214D01*
X4259643Y-22049214D02*
X4259643Y-21849214D01*
X4259643Y-21749214D02*
X4245357Y-21763500D01*
X4259643Y-21777786D01*
X4273928Y-21763500D01*
X4259643Y-21749214D01*
X4259643Y-21777786D01*
X4445357Y-22049214D02*
X4416786Y-22034929D01*
X4402500Y-22006357D01*
X4402500Y-21749214D01*
X4602500Y-22049214D02*
X4573928Y-22034929D01*
X4559643Y-22006357D01*
X4559643Y-21749214D01*
X4945357Y-22049214D02*
X4945357Y-21749214D01*
X5045357Y-21963500D01*
X5145357Y-21749214D01*
X5145357Y-22049214D01*
X5416786Y-22049214D02*
X5416786Y-21892072D01*
X5402500Y-21863500D01*
X5373928Y-21849214D01*
X5316786Y-21849214D01*
X5288214Y-21863500D01*
X5416786Y-22034929D02*
X5388214Y-22049214D01*
X5316786Y-22049214D01*
X5288214Y-22034929D01*
X5273928Y-22006357D01*
X5273928Y-21977786D01*
X5288214Y-21949214D01*
X5316786Y-21934929D01*
X5388214Y-21934929D01*
X5416786Y-21920643D01*
X5559643Y-21849214D02*
X5559643Y-22149214D01*
X5559643Y-21863500D02*
X5588214Y-21849214D01*
X5645357Y-21849214D01*
X5673928Y-21863500D01*
X5688214Y-21877786D01*
X5702500Y-21906357D01*
X5702500Y-21992072D01*
X5688214Y-22020643D01*
X5673928Y-22034929D01*
X5645357Y-22049214D01*
X5588214Y-22049214D01*
X5559643Y-22034929D01*
X5831071Y-22020643D02*
X5845357Y-22034929D01*
X5831071Y-22049214D01*
X5816786Y-22034929D01*
X5831071Y-22020643D01*
X5831071Y-22049214D01*
X5831071Y-21863500D02*
X5845357Y-21877786D01*
X5831071Y-21892072D01*
X5816786Y-21877786D01*
X5831071Y-21863500D01*
X5831071Y-21892072D01*
X3167500Y-22383500D02*
X3487500Y-22703500D01*
X3487500Y-22383500D02*
X3167500Y-22703500D01*
X3745357Y-22379214D02*
X3931071Y-22379214D01*
X3831071Y-22493500D01*
X3873928Y-22493500D01*
X3902500Y-22507786D01*
X3916786Y-22522071D01*
X3931071Y-22550643D01*
X3931071Y-22622071D01*
X3916786Y-22650643D01*
X3902500Y-22664929D01*
X3873928Y-22679214D01*
X3788214Y-22679214D01*
X3759643Y-22664929D01*
X3745357Y-22650643D01*
X4059643Y-22650643D02*
X4073928Y-22664929D01*
X4059643Y-22679214D01*
X4045357Y-22664929D01*
X4059643Y-22650643D01*
X4059643Y-22679214D01*
X4188214Y-22407786D02*
X4202500Y-22393500D01*
X4231071Y-22379214D01*
X4302500Y-22379214D01*
X4331071Y-22393500D01*
X4345357Y-22407786D01*
X4359643Y-22436357D01*
X4359643Y-22464929D01*
X4345357Y-22507786D01*
X4173928Y-22679214D01*
X4359643Y-22679214D01*
X4545357Y-22379214D02*
X4573928Y-22379214D01*
X4602500Y-22393500D01*
X4616786Y-22407786D01*
X4631071Y-22436357D01*
X4645357Y-22493500D01*
X4645357Y-22564929D01*
X4631071Y-22622071D01*
X4616786Y-22650643D01*
X4602500Y-22664929D01*
X4573928Y-22679214D01*
X4545357Y-22679214D01*
X4516786Y-22664929D01*
X4502500Y-22650643D01*
X4488214Y-22622071D01*
X4473928Y-22564929D01*
X4473928Y-22493500D01*
X4488214Y-22436357D01*
X4502500Y-22407786D01*
X4516786Y-22393500D01*
X4545357Y-22379214D01*
X4773928Y-22679214D02*
X4773928Y-22479214D01*
X4773928Y-22507786D02*
X4788214Y-22493500D01*
X4816786Y-22479214D01*
X4859643Y-22479214D01*
X4888214Y-22493500D01*
X4902500Y-22522071D01*
X4902500Y-22679214D01*
X4902500Y-22522071D02*
X4916786Y-22493500D01*
X4945357Y-22479214D01*
X4988214Y-22479214D01*
X5016786Y-22493500D01*
X5031071Y-22522071D01*
X5031071Y-22679214D01*
X5173928Y-22679214D02*
X5173928Y-22479214D01*
X5173928Y-22507786D02*
X5188214Y-22493500D01*
X5216786Y-22479214D01*
X5259643Y-22479214D01*
X5288214Y-22493500D01*
X5302500Y-22522071D01*
X5302500Y-22679214D01*
X5302500Y-22522071D02*
X5316786Y-22493500D01*
X5345357Y-22479214D01*
X5388214Y-22479214D01*
X5416786Y-22493500D01*
X5431071Y-22522071D01*
X5431071Y-22679214D01*
X6016786Y-22364929D02*
X5759643Y-22750643D01*
X6402500Y-22379214D02*
X6431071Y-22379214D01*
X6459643Y-22393500D01*
X6473928Y-22407786D01*
X6488214Y-22436357D01*
X6502500Y-22493500D01*
X6502500Y-22564929D01*
X6488214Y-22622071D01*
X6473928Y-22650643D01*
X6459643Y-22664929D01*
X6431071Y-22679214D01*
X6402500Y-22679214D01*
X6373928Y-22664929D01*
X6359643Y-22650643D01*
X6345357Y-22622071D01*
X6331071Y-22564929D01*
X6331071Y-22493500D01*
X6345357Y-22436357D01*
X6359643Y-22407786D01*
X6373928Y-22393500D01*
X6402500Y-22379214D01*
X6631071Y-22650643D02*
X6645357Y-22664929D01*
X6631071Y-22679214D01*
X6616786Y-22664929D01*
X6631071Y-22650643D01*
X6631071Y-22679214D01*
X6931071Y-22679214D02*
X6759643Y-22679214D01*
X6845357Y-22679214D02*
X6845357Y-22379214D01*
X6816786Y-22422071D01*
X6788214Y-22450643D01*
X6759643Y-22464929D01*
X7045357Y-22407786D02*
X7059643Y-22393500D01*
X7088214Y-22379214D01*
X7159643Y-22379214D01*
X7188214Y-22393500D01*
X7202500Y-22407786D01*
X7216786Y-22436357D01*
X7216786Y-22464929D01*
X7202500Y-22507786D01*
X7031071Y-22679214D01*
X7216786Y-22679214D01*
X7473928Y-22379214D02*
X7416786Y-22379214D01*
X7388214Y-22393500D01*
X7373928Y-22407786D01*
X7345357Y-22450643D01*
X7331071Y-22507786D01*
X7331071Y-22622071D01*
X7345357Y-22650643D01*
X7359643Y-22664929D01*
X7388214Y-22679214D01*
X7445357Y-22679214D01*
X7473928Y-22664929D01*
X7488214Y-22650643D01*
X7502500Y-22622071D01*
X7502500Y-22550643D01*
X7488214Y-22522071D01*
X7473928Y-22507786D01*
X7445357Y-22493500D01*
X7388214Y-22493500D01*
X7359643Y-22507786D01*
X7345357Y-22522071D01*
X7331071Y-22550643D01*
X7616786Y-22379214D02*
X7616786Y-22436357D01*
X7731071Y-22379214D02*
X7731071Y-22436357D01*
X8173928Y-22793500D02*
X8159643Y-22779214D01*
X8131071Y-22736357D01*
X8116786Y-22707786D01*
X8102500Y-22664929D01*
X8088214Y-22593500D01*
X8088214Y-22536357D01*
X8102500Y-22464929D01*
X8116786Y-22422071D01*
X8131071Y-22393500D01*
X8159643Y-22350643D01*
X8173928Y-22336357D01*
X8331071Y-22507786D02*
X8302500Y-22493500D01*
X8288214Y-22479214D01*
X8273928Y-22450643D01*
X8273928Y-22436357D01*
X8288214Y-22407786D01*
X8302500Y-22393500D01*
X8331071Y-22379214D01*
X8388214Y-22379214D01*
X8416786Y-22393500D01*
X8431071Y-22407786D01*
X8445357Y-22436357D01*
X8445357Y-22450643D01*
X8431071Y-22479214D01*
X8416786Y-22493500D01*
X8388214Y-22507786D01*
X8331071Y-22507786D01*
X8302500Y-22522071D01*
X8288214Y-22536357D01*
X8273928Y-22564929D01*
X8273928Y-22622071D01*
X8288214Y-22650643D01*
X8302500Y-22664929D01*
X8331071Y-22679214D01*
X8388214Y-22679214D01*
X8416786Y-22664929D01*
X8431071Y-22650643D01*
X8445357Y-22622071D01*
X8445357Y-22564929D01*
X8431071Y-22536357D01*
X8416786Y-22522071D01*
X8388214Y-22507786D01*
X8802500Y-22679214D02*
X8802500Y-22379214D01*
X8931071Y-22679214D02*
X8931071Y-22522071D01*
X8916786Y-22493500D01*
X8888214Y-22479214D01*
X8845357Y-22479214D01*
X8816786Y-22493500D01*
X8802500Y-22507786D01*
X9116786Y-22679214D02*
X9088214Y-22664929D01*
X9073928Y-22650643D01*
X9059643Y-22622071D01*
X9059643Y-22536357D01*
X9073928Y-22507786D01*
X9088214Y-22493500D01*
X9116786Y-22479214D01*
X9159643Y-22479214D01*
X9188214Y-22493500D01*
X9202500Y-22507786D01*
X9216786Y-22536357D01*
X9216786Y-22622071D01*
X9202500Y-22650643D01*
X9188214Y-22664929D01*
X9159643Y-22679214D01*
X9116786Y-22679214D01*
X9388214Y-22679214D02*
X9359643Y-22664929D01*
X9345357Y-22636357D01*
X9345357Y-22379214D01*
X9616786Y-22664929D02*
X9588214Y-22679214D01*
X9531071Y-22679214D01*
X9502500Y-22664929D01*
X9488214Y-22636357D01*
X9488214Y-22522071D01*
X9502500Y-22493500D01*
X9531071Y-22479214D01*
X9588214Y-22479214D01*
X9616786Y-22493500D01*
X9631071Y-22522071D01*
X9631071Y-22550643D01*
X9488214Y-22579214D01*
X9745357Y-22664929D02*
X9773928Y-22679214D01*
X9831071Y-22679214D01*
X9859643Y-22664929D01*
X9873928Y-22636357D01*
X9873928Y-22622071D01*
X9859643Y-22593500D01*
X9831071Y-22579214D01*
X9788214Y-22579214D01*
X9759643Y-22564929D01*
X9745357Y-22536357D01*
X9745357Y-22522071D01*
X9759643Y-22493500D01*
X9788214Y-22479214D01*
X9831071Y-22479214D01*
X9859643Y-22493500D01*
X9973928Y-22793500D02*
X9988214Y-22779214D01*
X10016786Y-22736357D01*
X10031071Y-22707786D01*
X10045357Y-22664929D01*
X10059643Y-22593500D01*
X10059643Y-22536357D01*
X10045357Y-22464929D01*
X10031071Y-22422071D01*
X10016786Y-22393500D01*
X9988214Y-22350643D01*
X9973928Y-22336357D01*
X10516786Y-22793500D02*
X10502500Y-22779214D01*
X10473928Y-22736357D01*
X10459643Y-22707786D01*
X10445357Y-22664929D01*
X10431071Y-22593500D01*
X10431071Y-22536357D01*
X10445357Y-22464929D01*
X10459643Y-22422071D01*
X10473928Y-22393500D01*
X10502500Y-22350643D01*
X10516786Y-22336357D01*
X10631071Y-22479214D02*
X10631071Y-22679214D01*
X10631071Y-22507786D02*
X10645357Y-22493500D01*
X10673928Y-22479214D01*
X10716786Y-22479214D01*
X10745357Y-22493500D01*
X10759643Y-22522071D01*
X10759643Y-22679214D01*
X10945357Y-22679214D02*
X10916786Y-22664929D01*
X10902500Y-22650643D01*
X10888214Y-22622071D01*
X10888214Y-22536357D01*
X10902500Y-22507786D01*
X10916786Y-22493500D01*
X10945357Y-22479214D01*
X10988214Y-22479214D01*
X11016786Y-22493500D01*
X11031071Y-22507786D01*
X11045357Y-22536357D01*
X11045357Y-22622071D01*
X11031071Y-22650643D01*
X11016786Y-22664929D01*
X10988214Y-22679214D01*
X10945357Y-22679214D01*
X11131071Y-22479214D02*
X11245357Y-22479214D01*
X11173928Y-22379214D02*
X11173928Y-22636357D01*
X11188214Y-22664929D01*
X11216786Y-22679214D01*
X11245357Y-22679214D01*
X11573928Y-22479214D02*
X11573928Y-22779214D01*
X11573928Y-22493500D02*
X11602500Y-22479214D01*
X11659643Y-22479214D01*
X11688214Y-22493500D01*
X11702500Y-22507786D01*
X11716786Y-22536357D01*
X11716786Y-22622071D01*
X11702500Y-22650643D01*
X11688214Y-22664929D01*
X11659643Y-22679214D01*
X11602500Y-22679214D01*
X11573928Y-22664929D01*
X11888214Y-22679214D02*
X11859643Y-22664929D01*
X11845357Y-22636357D01*
X11845357Y-22379214D01*
X12131071Y-22679214D02*
X12131071Y-22522071D01*
X12116786Y-22493500D01*
X12088214Y-22479214D01*
X12031071Y-22479214D01*
X12002500Y-22493500D01*
X12131071Y-22664929D02*
X12102500Y-22679214D01*
X12031071Y-22679214D01*
X12002500Y-22664929D01*
X11988214Y-22636357D01*
X11988214Y-22607786D01*
X12002500Y-22579214D01*
X12031071Y-22564929D01*
X12102500Y-22564929D01*
X12131071Y-22550643D01*
X12231071Y-22479214D02*
X12345357Y-22479214D01*
X12273928Y-22379214D02*
X12273928Y-22636357D01*
X12288214Y-22664929D01*
X12316786Y-22679214D01*
X12345357Y-22679214D01*
X12559643Y-22664929D02*
X12531071Y-22679214D01*
X12473928Y-22679214D01*
X12445357Y-22664929D01*
X12431071Y-22636357D01*
X12431071Y-22522071D01*
X12445357Y-22493500D01*
X12473928Y-22479214D01*
X12531071Y-22479214D01*
X12559643Y-22493500D01*
X12573928Y-22522071D01*
X12573928Y-22550643D01*
X12431071Y-22579214D01*
X12831071Y-22679214D02*
X12831071Y-22379214D01*
X12831071Y-22664929D02*
X12802500Y-22679214D01*
X12745357Y-22679214D01*
X12716786Y-22664929D01*
X12702500Y-22650643D01*
X12688214Y-22622071D01*
X12688214Y-22536357D01*
X12702500Y-22507786D01*
X12716786Y-22493500D01*
X12745357Y-22479214D01*
X12802500Y-22479214D01*
X12831071Y-22493500D01*
X12945357Y-22793500D02*
X12959643Y-22779214D01*
X12988214Y-22736357D01*
X13002500Y-22707786D01*
X13016786Y-22664929D01*
X13031071Y-22593500D01*
X13031071Y-22536357D01*
X13016786Y-22464929D01*
X13002500Y-22422071D01*
X12988214Y-22393500D01*
X12959643Y-22350643D01*
X12945357Y-22336357D01*
M02*
