%FSLAX45Y45*%
G04 Gerber Fmt 4.5, Leading zero omitted, Abs format (unit mm)*
G04 Created by KiCad (PCBNEW (5.1.9)-1) date 2021-05-22 18:24:16*
%MOMM*%
%LPD*%
G01*
G04 APERTURE LIST*
%TA.AperFunction,Profile*%
%ADD10C,0.100000*%
%TD*%
%ADD11C,0.200000*%
%ADD12C,0.300000*%
G04 APERTURE END LIST*
D10*
X38952500Y-6268500D02*
X38952500Y-21278500D01*
X38652500Y-5968500D02*
G75*
G02*
X38952500Y-6268500I0J-300000D01*
G01*
X3492500Y-6268500D02*
G75*
G02*
X3792500Y-5968500I300000J0D01*
G01*
X3792500Y-21578500D02*
G75*
G02*
X3492500Y-21278500I0J300000D01*
G01*
X38952500Y-21278500D02*
G75*
G02*
X38652500Y-21578500I-300000J0D01*
G01*
X3792500Y-5968500D02*
X38652500Y-5968500D01*
X3492500Y-21278500D02*
X3492500Y-6268500D01*
X38652500Y-21578500D02*
X3792500Y-21578500D01*
D11*
D12*
X3773928Y-22049214D02*
X3773928Y-21749214D01*
X3845357Y-21749214D01*
X3888214Y-21763500D01*
X3916786Y-21792072D01*
X3931071Y-21820643D01*
X3945357Y-21877786D01*
X3945357Y-21920643D01*
X3931071Y-21977786D01*
X3916786Y-22006357D01*
X3888214Y-22034929D01*
X3845357Y-22049214D01*
X3773928Y-22049214D01*
X4073928Y-22049214D02*
X4073928Y-21849214D01*
X4073928Y-21906357D02*
X4088214Y-21877786D01*
X4102500Y-21863500D01*
X4131071Y-21849214D01*
X4159643Y-21849214D01*
X4259643Y-22049214D02*
X4259643Y-21849214D01*
X4259643Y-21749214D02*
X4245357Y-21763500D01*
X4259643Y-21777786D01*
X4273928Y-21763500D01*
X4259643Y-21749214D01*
X4259643Y-21777786D01*
X4445357Y-22049214D02*
X4416786Y-22034929D01*
X4402500Y-22006357D01*
X4402500Y-21749214D01*
X4602500Y-22049214D02*
X4573928Y-22034929D01*
X4559643Y-22006357D01*
X4559643Y-21749214D01*
X4945357Y-22049214D02*
X4945357Y-21749214D01*
X5045357Y-21963500D01*
X5145357Y-21749214D01*
X5145357Y-22049214D01*
X5416786Y-22049214D02*
X5416786Y-21892072D01*
X5402500Y-21863500D01*
X5373928Y-21849214D01*
X5316786Y-21849214D01*
X5288214Y-21863500D01*
X5416786Y-22034929D02*
X5388214Y-22049214D01*
X5316786Y-22049214D01*
X5288214Y-22034929D01*
X5273928Y-22006357D01*
X5273928Y-21977786D01*
X5288214Y-21949214D01*
X5316786Y-21934929D01*
X5388214Y-21934929D01*
X5416786Y-21920643D01*
X5559643Y-21849214D02*
X5559643Y-22149214D01*
X5559643Y-21863500D02*
X5588214Y-21849214D01*
X5645357Y-21849214D01*
X5673928Y-21863500D01*
X5688214Y-21877786D01*
X5702500Y-21906357D01*
X5702500Y-21992072D01*
X5688214Y-22020643D01*
X5673928Y-22034929D01*
X5645357Y-22049214D01*
X5588214Y-22049214D01*
X5559643Y-22034929D01*
X5831071Y-22020643D02*
X5845357Y-22034929D01*
X5831071Y-22049214D01*
X5816786Y-22034929D01*
X5831071Y-22020643D01*
X5831071Y-22049214D01*
X5831071Y-21863500D02*
X5845357Y-21877786D01*
X5831071Y-21892072D01*
X5816786Y-21877786D01*
X5831071Y-21863500D01*
X5831071Y-21892072D01*
M02*
