G04 #@! TF.GenerationSoftware,KiCad,Pcbnew,(5.1.9)-1*
G04 #@! TF.CreationDate,2021-05-20T18:43:03+01:00*
G04 #@! TF.ProjectId,ENV_KB-Back,454e565f-4b42-42d4-9261-636b2e6b6963,Rev.1*
G04 #@! TF.SameCoordinates,Original*
G04 #@! TF.FileFunction,Copper,L1,Top*
G04 #@! TF.FilePolarity,Positive*
%FSLAX46Y46*%
G04 Gerber Fmt 4.6, Leading zero omitted, Abs format (unit mm)*
G04 Created by KiCad (PCBNEW (5.1.9)-1) date 2021-05-20 18:43:03*
%MOMM*%
%LPD*%
G01*
G04 APERTURE LIST*
G04 #@! TA.AperFunction,EtchedComponent*
%ADD10C,0.010000*%
G04 #@! TD*
G04 APERTURE END LIST*
D10*
G36*
X204077523Y-136615463D02*
G01*
X204337379Y-136689231D01*
X204361113Y-136698367D01*
X204514480Y-136763938D01*
X204644731Y-136828636D01*
X204723426Y-136878284D01*
X204831629Y-137022803D01*
X204898515Y-137227483D01*
X204918666Y-137447786D01*
X204884908Y-137676565D01*
X204783122Y-137947954D01*
X204612536Y-138263686D01*
X204436427Y-138534333D01*
X204141574Y-138965325D01*
X203832858Y-139424106D01*
X203517684Y-139899187D01*
X203203456Y-140379080D01*
X202897577Y-140852297D01*
X202607451Y-141307349D01*
X202340482Y-141732749D01*
X202104074Y-142117007D01*
X201905631Y-142448635D01*
X201830960Y-142577167D01*
X201728775Y-142748473D01*
X201589382Y-142972528D01*
X201423645Y-143232385D01*
X201242431Y-143511099D01*
X201056604Y-143791723D01*
X200962396Y-143931833D01*
X200769571Y-144219546D01*
X200567386Y-144525768D01*
X200368885Y-144830430D01*
X200187109Y-145113460D01*
X200035099Y-145354787D01*
X199985845Y-145434667D01*
X199849167Y-145657134D01*
X199680295Y-145930336D01*
X199492195Y-146233391D01*
X199297836Y-146545418D01*
X199110186Y-146845536D01*
X199052511Y-146937500D01*
X198837576Y-147281520D01*
X198664365Y-147562962D01*
X198528312Y-147790142D01*
X198424850Y-147971373D01*
X198349413Y-148114971D01*
X198297436Y-148229250D01*
X198264351Y-148322524D01*
X198245593Y-148403109D01*
X198244707Y-148408438D01*
X198237704Y-148544092D01*
X198271211Y-148653236D01*
X198353604Y-148741405D01*
X198493261Y-148814136D01*
X198698560Y-148876965D01*
X198977879Y-148935427D01*
X199065690Y-148950943D01*
X199386832Y-149014166D01*
X199629797Y-149081298D01*
X199801068Y-149155280D01*
X199907131Y-149239054D01*
X199954468Y-149335560D01*
X199957343Y-149355419D01*
X199949258Y-149462693D01*
X199888584Y-149552792D01*
X199841418Y-149595688D01*
X199674954Y-149696901D01*
X199437438Y-149785716D01*
X199141924Y-149859440D01*
X198801468Y-149915378D01*
X198429126Y-149950837D01*
X198060666Y-149963092D01*
X197767605Y-149968429D01*
X197543687Y-149984792D01*
X197373700Y-150015947D01*
X197242432Y-150065654D01*
X197134671Y-150137679D01*
X197057676Y-150211211D01*
X196992874Y-150291141D01*
X196886257Y-150436200D01*
X196741878Y-150640350D01*
X196563790Y-150897553D01*
X196356047Y-151201773D01*
X196122701Y-151546972D01*
X195867805Y-151927113D01*
X195595414Y-152336159D01*
X195309579Y-152768072D01*
X195014354Y-153216815D01*
X194713793Y-153676351D01*
X194411948Y-154140643D01*
X194210823Y-154451667D01*
X193987234Y-154797563D01*
X193760739Y-155146770D01*
X193539339Y-155487036D01*
X193331032Y-155806111D01*
X193143818Y-156091743D01*
X192985697Y-156331681D01*
X192864666Y-156513674D01*
X192856398Y-156526000D01*
X192683476Y-156787984D01*
X192492532Y-157084521D01*
X192303476Y-157384261D01*
X192136222Y-157655854D01*
X192090079Y-157732500D01*
X191954834Y-157954950D01*
X191819002Y-158171644D01*
X191695045Y-158363152D01*
X191595423Y-158510043D01*
X191560659Y-158558000D01*
X191463732Y-158691572D01*
X191338947Y-158870283D01*
X191204301Y-159068096D01*
X191107120Y-159214167D01*
X191006884Y-159364059D01*
X190867539Y-159568777D01*
X190698921Y-159814065D01*
X190510866Y-160085663D01*
X190313211Y-160369314D01*
X190128760Y-160632333D01*
X189930895Y-160916719D01*
X189734266Y-161205153D01*
X189548672Y-161482831D01*
X189383913Y-161734946D01*
X189249790Y-161946693D01*
X189162115Y-162092705D01*
X188955577Y-162444829D01*
X188757486Y-162766219D01*
X188574671Y-163046519D01*
X188413958Y-163275373D01*
X188282176Y-163442425D01*
X188245618Y-163482837D01*
X188085000Y-163627689D01*
X187927668Y-163726907D01*
X187790078Y-163771826D01*
X187710166Y-163764829D01*
X187573067Y-163682498D01*
X187500920Y-163558424D01*
X187488211Y-163381602D01*
X187493179Y-163331800D01*
X187524590Y-163155805D01*
X187572958Y-162961821D01*
X187599435Y-162876000D01*
X187659861Y-162721033D01*
X187753586Y-162509801D01*
X187871887Y-162259541D01*
X188006039Y-161987488D01*
X188147320Y-161710879D01*
X188287007Y-161446952D01*
X188416377Y-161212943D01*
X188526705Y-161026089D01*
X188568944Y-160960292D01*
X188692356Y-160767275D01*
X188826989Y-160543811D01*
X188945770Y-160334965D01*
X188956698Y-160314833D01*
X189223196Y-159836569D01*
X189467369Y-159430711D01*
X189687623Y-159099772D01*
X189882369Y-158846266D01*
X189898086Y-158827917D01*
X190147741Y-158510744D01*
X190337038Y-158200648D01*
X190480068Y-157877568D01*
X190549348Y-157725895D01*
X190650619Y-157544073D01*
X190763449Y-157368443D01*
X190777586Y-157348401D01*
X190850709Y-157243638D01*
X190963587Y-157078822D01*
X191109140Y-156864435D01*
X191280289Y-156610957D01*
X191469952Y-156328870D01*
X191671051Y-156028653D01*
X191833608Y-155785167D01*
X192037129Y-155480600D01*
X192233482Y-155188156D01*
X192415856Y-154917875D01*
X192577442Y-154679799D01*
X192711428Y-154483967D01*
X192811004Y-154340420D01*
X192862179Y-154268800D01*
X192976591Y-154114155D01*
X193115196Y-153927154D01*
X193251633Y-153743356D01*
X193277615Y-153708397D01*
X193364400Y-153580710D01*
X193481224Y-153392851D01*
X193619269Y-153159873D01*
X193769717Y-152896828D01*
X193923750Y-152618769D01*
X194013719Y-152451930D01*
X194173493Y-152154020D01*
X194340887Y-151844795D01*
X194505284Y-151543664D01*
X194656071Y-151270032D01*
X194782631Y-151043307D01*
X194828020Y-150963211D01*
X194938391Y-150763886D01*
X195031578Y-150584432D01*
X195099985Y-150440356D01*
X195136015Y-150347167D01*
X195139666Y-150327047D01*
X195113712Y-150208091D01*
X195032410Y-150106756D01*
X194890599Y-150021075D01*
X194683119Y-149949079D01*
X194404808Y-149888801D01*
X194050506Y-149838273D01*
X193785000Y-149810471D01*
X193561486Y-149794201D01*
X193264621Y-149779786D01*
X192903875Y-149767236D01*
X192488724Y-149756560D01*
X192028639Y-149747766D01*
X191533095Y-149740863D01*
X191011565Y-149735861D01*
X190473523Y-149732769D01*
X189928441Y-149731596D01*
X189385793Y-149732350D01*
X188855052Y-149735041D01*
X188345692Y-149739678D01*
X187867187Y-149746270D01*
X187429008Y-149754826D01*
X187040631Y-149765355D01*
X186711527Y-149777866D01*
X186451171Y-149792369D01*
X186318583Y-149803337D01*
X186050560Y-149831279D01*
X185849282Y-149855868D01*
X185697134Y-149880958D01*
X185576501Y-149910406D01*
X185469770Y-149948066D01*
X185359324Y-149997793D01*
X185302583Y-150025701D01*
X185132409Y-150125622D01*
X184909394Y-150280334D01*
X184639979Y-150484177D01*
X184330606Y-150731495D01*
X183987717Y-151016629D01*
X183617753Y-151333921D01*
X183227155Y-151677713D01*
X182822366Y-152042347D01*
X182409826Y-152422165D01*
X181995978Y-152811508D01*
X181587263Y-153204720D01*
X181190123Y-153596141D01*
X180873333Y-153916190D01*
X180490996Y-154302665D01*
X180143326Y-154644765D01*
X179833999Y-154939120D01*
X179566689Y-155182365D01*
X179345073Y-155371132D01*
X179172826Y-155502054D01*
X179079217Y-155559763D01*
X178829120Y-155645804D01*
X178541091Y-155675179D01*
X178238131Y-155650005D01*
X177943243Y-155572400D01*
X177679427Y-155444480D01*
X177655169Y-155428687D01*
X177408907Y-155248135D01*
X177231917Y-155078883D01*
X177112457Y-154907632D01*
X177042781Y-154735214D01*
X177000681Y-154552256D01*
X177005011Y-154421207D01*
X177062825Y-154319025D01*
X177181173Y-154222668D01*
X177204286Y-154207484D01*
X177295087Y-154139166D01*
X177438834Y-154018652D01*
X177627954Y-153852959D01*
X177854875Y-153649104D01*
X178112024Y-153414102D01*
X178391829Y-153154971D01*
X178686719Y-152878726D01*
X178989120Y-152592385D01*
X179291461Y-152302964D01*
X179586169Y-152017478D01*
X179865672Y-151742946D01*
X179889083Y-151719749D01*
X180144090Y-151465308D01*
X180342557Y-151261883D01*
X180489144Y-151101982D01*
X180588508Y-150978110D01*
X180645309Y-150882777D01*
X180664205Y-150808488D01*
X180649854Y-150747753D01*
X180606917Y-150693077D01*
X180555072Y-150648631D01*
X180459626Y-150593112D01*
X180314808Y-150530296D01*
X180163489Y-150477527D01*
X179945409Y-150390662D01*
X179731160Y-150269710D01*
X179532275Y-150125591D01*
X179360287Y-149969228D01*
X179226731Y-149811541D01*
X179143142Y-149663452D01*
X179121052Y-149535882D01*
X179129758Y-149498702D01*
X179213010Y-149377638D01*
X179366619Y-149250990D01*
X179577093Y-149124905D01*
X179830939Y-149005534D01*
X180114665Y-148899025D01*
X180414778Y-148811529D01*
X180717786Y-148749193D01*
X180800697Y-148737165D01*
X181012018Y-148708566D01*
X181260609Y-148673493D01*
X181500086Y-148638516D01*
X181550666Y-148630924D01*
X181733637Y-148604677D01*
X181975616Y-148571975D01*
X182251507Y-148536106D01*
X182536212Y-148500358D01*
X182693666Y-148481193D01*
X183113075Y-148423570D01*
X183463637Y-148358141D01*
X183761100Y-148280677D01*
X184021208Y-148186950D01*
X184259706Y-148072734D01*
X184302333Y-148049236D01*
X184393480Y-147993766D01*
X184544119Y-147897070D01*
X184587114Y-147868864D01*
X188293807Y-147868864D01*
X188315775Y-147953771D01*
X188339023Y-147992398D01*
X188362202Y-148025169D01*
X188390251Y-148052223D01*
X188431719Y-148074707D01*
X188495156Y-148093766D01*
X188589113Y-148110547D01*
X188722140Y-148126193D01*
X188902787Y-148141853D01*
X189139604Y-148158670D01*
X189441141Y-148177791D01*
X189815949Y-148200362D01*
X189950934Y-148208392D01*
X190290816Y-148229677D01*
X190642318Y-148253610D01*
X190984253Y-148278609D01*
X191295435Y-148303098D01*
X191554678Y-148325496D01*
X191665434Y-148336149D01*
X191865492Y-148353987D01*
X192133553Y-148374255D01*
X192453021Y-148395896D01*
X192807305Y-148417852D01*
X193179811Y-148439065D01*
X193553946Y-148458478D01*
X193678275Y-148464466D01*
X194013319Y-148480774D01*
X194320607Y-148496722D01*
X194590109Y-148511711D01*
X194811795Y-148525144D01*
X194975636Y-148536422D01*
X195071602Y-148544948D01*
X195092914Y-148548804D01*
X195154785Y-148564063D01*
X195287494Y-148565679D01*
X195478398Y-148554119D01*
X195714853Y-148529853D01*
X195762319Y-148524041D01*
X195982750Y-148491737D01*
X196163428Y-148449964D01*
X196317096Y-148389433D01*
X196456494Y-148300854D01*
X196594363Y-148174941D01*
X196743444Y-148002403D01*
X196916477Y-147773954D01*
X197054021Y-147582357D01*
X197272923Y-147268833D01*
X197476230Y-146965736D01*
X197670436Y-146661854D01*
X197862036Y-146345979D01*
X198057524Y-146006898D01*
X198263395Y-145633402D01*
X198486142Y-145214278D01*
X198732259Y-144738317D01*
X198951342Y-144307118D01*
X199107664Y-144000857D01*
X199267809Y-143692949D01*
X199423245Y-143399378D01*
X199565440Y-143136129D01*
X199685863Y-142919187D01*
X199764742Y-142783118D01*
X199872819Y-142600001D01*
X200003162Y-142374287D01*
X200150256Y-142115977D01*
X200308588Y-141835073D01*
X200472642Y-141541575D01*
X200636904Y-141245482D01*
X200795859Y-140956796D01*
X200943994Y-140685517D01*
X201075793Y-140441646D01*
X201185742Y-140235183D01*
X201268327Y-140076128D01*
X201318033Y-139974482D01*
X201329927Y-139944655D01*
X201324167Y-139837445D01*
X201269951Y-139738881D01*
X201188174Y-139681665D01*
X201159182Y-139677430D01*
X201093661Y-139697371D01*
X200974274Y-139751059D01*
X200820197Y-139829425D01*
X200706500Y-139891560D01*
X200497292Y-140004445D01*
X200268321Y-140120695D01*
X200058595Y-140220713D01*
X199993037Y-140249964D01*
X199643049Y-140418267D01*
X199232355Y-140645575D01*
X198760964Y-140931882D01*
X198228884Y-141277184D01*
X198052021Y-141395932D01*
X197657123Y-141659156D01*
X197317737Y-141876559D01*
X197022841Y-142054680D01*
X196761411Y-142200059D01*
X196522425Y-142319235D01*
X196409666Y-142370270D01*
X196245412Y-142447680D01*
X196059441Y-142546767D01*
X195841604Y-142673566D01*
X195581753Y-142834111D01*
X195269741Y-143034436D01*
X195044406Y-143182080D01*
X194826834Y-143319911D01*
X194566563Y-143476305D01*
X194296567Y-143631855D01*
X194054268Y-143764798D01*
X193836889Y-143885956D01*
X193629266Y-144012103D01*
X193452191Y-144129941D01*
X193326455Y-144226170D01*
X193310494Y-144240531D01*
X193190831Y-144337710D01*
X193020203Y-144457327D01*
X192822915Y-144583051D01*
X192653883Y-144681704D01*
X192471574Y-144789185D01*
X192241632Y-144934009D01*
X191984294Y-145102901D01*
X191719799Y-145282590D01*
X191477949Y-145452919D01*
X191227510Y-145632250D01*
X190967837Y-145816897D01*
X190718562Y-145992990D01*
X190499317Y-146146660D01*
X190334833Y-146260544D01*
X189915305Y-146548276D01*
X189560210Y-146792618D01*
X189263947Y-146997758D01*
X189020913Y-147167883D01*
X188825508Y-147307181D01*
X188672130Y-147419841D01*
X188555179Y-147510051D01*
X188469052Y-147581998D01*
X188408150Y-147639870D01*
X188366869Y-147687857D01*
X188339610Y-147730145D01*
X188323381Y-147764493D01*
X188293807Y-147868864D01*
X184587114Y-147868864D01*
X184744007Y-147765940D01*
X184982904Y-147607170D01*
X185250566Y-147427551D01*
X185536752Y-147233875D01*
X185720500Y-147108692D01*
X186295799Y-146718537D01*
X186879105Y-146328285D01*
X187457366Y-145946446D01*
X188017533Y-145581529D01*
X188546553Y-145242045D01*
X189031377Y-144936504D01*
X189403500Y-144707086D01*
X190042106Y-144318470D01*
X190613819Y-143970722D01*
X191124052Y-143660662D01*
X191578218Y-143385111D01*
X191981730Y-143140890D01*
X192340002Y-142924818D01*
X192658447Y-142733717D01*
X192942478Y-142564408D01*
X193197509Y-142413710D01*
X193428953Y-142278444D01*
X193642223Y-142155431D01*
X193842733Y-142041491D01*
X194035896Y-141933444D01*
X194227124Y-141828113D01*
X194421832Y-141722315D01*
X194625433Y-141612874D01*
X194843340Y-141496608D01*
X195080966Y-141370338D01*
X195118500Y-141350416D01*
X195726949Y-141026356D01*
X196269764Y-140734904D01*
X196745268Y-140476981D01*
X197151786Y-140253508D01*
X197487641Y-140065406D01*
X197751157Y-139913596D01*
X197933666Y-139803392D01*
X198131976Y-139687628D01*
X198363515Y-139565094D01*
X198582633Y-139459795D01*
X198611000Y-139447235D01*
X198809726Y-139356499D01*
X199045393Y-139242940D01*
X199280827Y-139124674D01*
X199394166Y-139065556D01*
X199743584Y-138891341D01*
X200144801Y-138709911D01*
X200567411Y-138534318D01*
X200981007Y-138377616D01*
X201069122Y-138346502D01*
X201402080Y-138209317D01*
X201733997Y-138027279D01*
X202076646Y-137792585D01*
X202441799Y-137497435D01*
X202703102Y-137263643D01*
X202894759Y-137089094D01*
X203074371Y-136930384D01*
X203229166Y-136798426D01*
X203346374Y-136704135D01*
X203408109Y-136661083D01*
X203590443Y-136600511D01*
X203821063Y-136585596D01*
X204077523Y-136615463D01*
G37*
X204077523Y-136615463D02*
X204337379Y-136689231D01*
X204361113Y-136698367D01*
X204514480Y-136763938D01*
X204644731Y-136828636D01*
X204723426Y-136878284D01*
X204831629Y-137022803D01*
X204898515Y-137227483D01*
X204918666Y-137447786D01*
X204884908Y-137676565D01*
X204783122Y-137947954D01*
X204612536Y-138263686D01*
X204436427Y-138534333D01*
X204141574Y-138965325D01*
X203832858Y-139424106D01*
X203517684Y-139899187D01*
X203203456Y-140379080D01*
X202897577Y-140852297D01*
X202607451Y-141307349D01*
X202340482Y-141732749D01*
X202104074Y-142117007D01*
X201905631Y-142448635D01*
X201830960Y-142577167D01*
X201728775Y-142748473D01*
X201589382Y-142972528D01*
X201423645Y-143232385D01*
X201242431Y-143511099D01*
X201056604Y-143791723D01*
X200962396Y-143931833D01*
X200769571Y-144219546D01*
X200567386Y-144525768D01*
X200368885Y-144830430D01*
X200187109Y-145113460D01*
X200035099Y-145354787D01*
X199985845Y-145434667D01*
X199849167Y-145657134D01*
X199680295Y-145930336D01*
X199492195Y-146233391D01*
X199297836Y-146545418D01*
X199110186Y-146845536D01*
X199052511Y-146937500D01*
X198837576Y-147281520D01*
X198664365Y-147562962D01*
X198528312Y-147790142D01*
X198424850Y-147971373D01*
X198349413Y-148114971D01*
X198297436Y-148229250D01*
X198264351Y-148322524D01*
X198245593Y-148403109D01*
X198244707Y-148408438D01*
X198237704Y-148544092D01*
X198271211Y-148653236D01*
X198353604Y-148741405D01*
X198493261Y-148814136D01*
X198698560Y-148876965D01*
X198977879Y-148935427D01*
X199065690Y-148950943D01*
X199386832Y-149014166D01*
X199629797Y-149081298D01*
X199801068Y-149155280D01*
X199907131Y-149239054D01*
X199954468Y-149335560D01*
X199957343Y-149355419D01*
X199949258Y-149462693D01*
X199888584Y-149552792D01*
X199841418Y-149595688D01*
X199674954Y-149696901D01*
X199437438Y-149785716D01*
X199141924Y-149859440D01*
X198801468Y-149915378D01*
X198429126Y-149950837D01*
X198060666Y-149963092D01*
X197767605Y-149968429D01*
X197543687Y-149984792D01*
X197373700Y-150015947D01*
X197242432Y-150065654D01*
X197134671Y-150137679D01*
X197057676Y-150211211D01*
X196992874Y-150291141D01*
X196886257Y-150436200D01*
X196741878Y-150640350D01*
X196563790Y-150897553D01*
X196356047Y-151201773D01*
X196122701Y-151546972D01*
X195867805Y-151927113D01*
X195595414Y-152336159D01*
X195309579Y-152768072D01*
X195014354Y-153216815D01*
X194713793Y-153676351D01*
X194411948Y-154140643D01*
X194210823Y-154451667D01*
X193987234Y-154797563D01*
X193760739Y-155146770D01*
X193539339Y-155487036D01*
X193331032Y-155806111D01*
X193143818Y-156091743D01*
X192985697Y-156331681D01*
X192864666Y-156513674D01*
X192856398Y-156526000D01*
X192683476Y-156787984D01*
X192492532Y-157084521D01*
X192303476Y-157384261D01*
X192136222Y-157655854D01*
X192090079Y-157732500D01*
X191954834Y-157954950D01*
X191819002Y-158171644D01*
X191695045Y-158363152D01*
X191595423Y-158510043D01*
X191560659Y-158558000D01*
X191463732Y-158691572D01*
X191338947Y-158870283D01*
X191204301Y-159068096D01*
X191107120Y-159214167D01*
X191006884Y-159364059D01*
X190867539Y-159568777D01*
X190698921Y-159814065D01*
X190510866Y-160085663D01*
X190313211Y-160369314D01*
X190128760Y-160632333D01*
X189930895Y-160916719D01*
X189734266Y-161205153D01*
X189548672Y-161482831D01*
X189383913Y-161734946D01*
X189249790Y-161946693D01*
X189162115Y-162092705D01*
X188955577Y-162444829D01*
X188757486Y-162766219D01*
X188574671Y-163046519D01*
X188413958Y-163275373D01*
X188282176Y-163442425D01*
X188245618Y-163482837D01*
X188085000Y-163627689D01*
X187927668Y-163726907D01*
X187790078Y-163771826D01*
X187710166Y-163764829D01*
X187573067Y-163682498D01*
X187500920Y-163558424D01*
X187488211Y-163381602D01*
X187493179Y-163331800D01*
X187524590Y-163155805D01*
X187572958Y-162961821D01*
X187599435Y-162876000D01*
X187659861Y-162721033D01*
X187753586Y-162509801D01*
X187871887Y-162259541D01*
X188006039Y-161987488D01*
X188147320Y-161710879D01*
X188287007Y-161446952D01*
X188416377Y-161212943D01*
X188526705Y-161026089D01*
X188568944Y-160960292D01*
X188692356Y-160767275D01*
X188826989Y-160543811D01*
X188945770Y-160334965D01*
X188956698Y-160314833D01*
X189223196Y-159836569D01*
X189467369Y-159430711D01*
X189687623Y-159099772D01*
X189882369Y-158846266D01*
X189898086Y-158827917D01*
X190147741Y-158510744D01*
X190337038Y-158200648D01*
X190480068Y-157877568D01*
X190549348Y-157725895D01*
X190650619Y-157544073D01*
X190763449Y-157368443D01*
X190777586Y-157348401D01*
X190850709Y-157243638D01*
X190963587Y-157078822D01*
X191109140Y-156864435D01*
X191280289Y-156610957D01*
X191469952Y-156328870D01*
X191671051Y-156028653D01*
X191833608Y-155785167D01*
X192037129Y-155480600D01*
X192233482Y-155188156D01*
X192415856Y-154917875D01*
X192577442Y-154679799D01*
X192711428Y-154483967D01*
X192811004Y-154340420D01*
X192862179Y-154268800D01*
X192976591Y-154114155D01*
X193115196Y-153927154D01*
X193251633Y-153743356D01*
X193277615Y-153708397D01*
X193364400Y-153580710D01*
X193481224Y-153392851D01*
X193619269Y-153159873D01*
X193769717Y-152896828D01*
X193923750Y-152618769D01*
X194013719Y-152451930D01*
X194173493Y-152154020D01*
X194340887Y-151844795D01*
X194505284Y-151543664D01*
X194656071Y-151270032D01*
X194782631Y-151043307D01*
X194828020Y-150963211D01*
X194938391Y-150763886D01*
X195031578Y-150584432D01*
X195099985Y-150440356D01*
X195136015Y-150347167D01*
X195139666Y-150327047D01*
X195113712Y-150208091D01*
X195032410Y-150106756D01*
X194890599Y-150021075D01*
X194683119Y-149949079D01*
X194404808Y-149888801D01*
X194050506Y-149838273D01*
X193785000Y-149810471D01*
X193561486Y-149794201D01*
X193264621Y-149779786D01*
X192903875Y-149767236D01*
X192488724Y-149756560D01*
X192028639Y-149747766D01*
X191533095Y-149740863D01*
X191011565Y-149735861D01*
X190473523Y-149732769D01*
X189928441Y-149731596D01*
X189385793Y-149732350D01*
X188855052Y-149735041D01*
X188345692Y-149739678D01*
X187867187Y-149746270D01*
X187429008Y-149754826D01*
X187040631Y-149765355D01*
X186711527Y-149777866D01*
X186451171Y-149792369D01*
X186318583Y-149803337D01*
X186050560Y-149831279D01*
X185849282Y-149855868D01*
X185697134Y-149880958D01*
X185576501Y-149910406D01*
X185469770Y-149948066D01*
X185359324Y-149997793D01*
X185302583Y-150025701D01*
X185132409Y-150125622D01*
X184909394Y-150280334D01*
X184639979Y-150484177D01*
X184330606Y-150731495D01*
X183987717Y-151016629D01*
X183617753Y-151333921D01*
X183227155Y-151677713D01*
X182822366Y-152042347D01*
X182409826Y-152422165D01*
X181995978Y-152811508D01*
X181587263Y-153204720D01*
X181190123Y-153596141D01*
X180873333Y-153916190D01*
X180490996Y-154302665D01*
X180143326Y-154644765D01*
X179833999Y-154939120D01*
X179566689Y-155182365D01*
X179345073Y-155371132D01*
X179172826Y-155502054D01*
X179079217Y-155559763D01*
X178829120Y-155645804D01*
X178541091Y-155675179D01*
X178238131Y-155650005D01*
X177943243Y-155572400D01*
X177679427Y-155444480D01*
X177655169Y-155428687D01*
X177408907Y-155248135D01*
X177231917Y-155078883D01*
X177112457Y-154907632D01*
X177042781Y-154735214D01*
X177000681Y-154552256D01*
X177005011Y-154421207D01*
X177062825Y-154319025D01*
X177181173Y-154222668D01*
X177204286Y-154207484D01*
X177295087Y-154139166D01*
X177438834Y-154018652D01*
X177627954Y-153852959D01*
X177854875Y-153649104D01*
X178112024Y-153414102D01*
X178391829Y-153154971D01*
X178686719Y-152878726D01*
X178989120Y-152592385D01*
X179291461Y-152302964D01*
X179586169Y-152017478D01*
X179865672Y-151742946D01*
X179889083Y-151719749D01*
X180144090Y-151465308D01*
X180342557Y-151261883D01*
X180489144Y-151101982D01*
X180588508Y-150978110D01*
X180645309Y-150882777D01*
X180664205Y-150808488D01*
X180649854Y-150747753D01*
X180606917Y-150693077D01*
X180555072Y-150648631D01*
X180459626Y-150593112D01*
X180314808Y-150530296D01*
X180163489Y-150477527D01*
X179945409Y-150390662D01*
X179731160Y-150269710D01*
X179532275Y-150125591D01*
X179360287Y-149969228D01*
X179226731Y-149811541D01*
X179143142Y-149663452D01*
X179121052Y-149535882D01*
X179129758Y-149498702D01*
X179213010Y-149377638D01*
X179366619Y-149250990D01*
X179577093Y-149124905D01*
X179830939Y-149005534D01*
X180114665Y-148899025D01*
X180414778Y-148811529D01*
X180717786Y-148749193D01*
X180800697Y-148737165D01*
X181012018Y-148708566D01*
X181260609Y-148673493D01*
X181500086Y-148638516D01*
X181550666Y-148630924D01*
X181733637Y-148604677D01*
X181975616Y-148571975D01*
X182251507Y-148536106D01*
X182536212Y-148500358D01*
X182693666Y-148481193D01*
X183113075Y-148423570D01*
X183463637Y-148358141D01*
X183761100Y-148280677D01*
X184021208Y-148186950D01*
X184259706Y-148072734D01*
X184302333Y-148049236D01*
X184393480Y-147993766D01*
X184544119Y-147897070D01*
X184587114Y-147868864D01*
X188293807Y-147868864D01*
X188315775Y-147953771D01*
X188339023Y-147992398D01*
X188362202Y-148025169D01*
X188390251Y-148052223D01*
X188431719Y-148074707D01*
X188495156Y-148093766D01*
X188589113Y-148110547D01*
X188722140Y-148126193D01*
X188902787Y-148141853D01*
X189139604Y-148158670D01*
X189441141Y-148177791D01*
X189815949Y-148200362D01*
X189950934Y-148208392D01*
X190290816Y-148229677D01*
X190642318Y-148253610D01*
X190984253Y-148278609D01*
X191295435Y-148303098D01*
X191554678Y-148325496D01*
X191665434Y-148336149D01*
X191865492Y-148353987D01*
X192133553Y-148374255D01*
X192453021Y-148395896D01*
X192807305Y-148417852D01*
X193179811Y-148439065D01*
X193553946Y-148458478D01*
X193678275Y-148464466D01*
X194013319Y-148480774D01*
X194320607Y-148496722D01*
X194590109Y-148511711D01*
X194811795Y-148525144D01*
X194975636Y-148536422D01*
X195071602Y-148544948D01*
X195092914Y-148548804D01*
X195154785Y-148564063D01*
X195287494Y-148565679D01*
X195478398Y-148554119D01*
X195714853Y-148529853D01*
X195762319Y-148524041D01*
X195982750Y-148491737D01*
X196163428Y-148449964D01*
X196317096Y-148389433D01*
X196456494Y-148300854D01*
X196594363Y-148174941D01*
X196743444Y-148002403D01*
X196916477Y-147773954D01*
X197054021Y-147582357D01*
X197272923Y-147268833D01*
X197476230Y-146965736D01*
X197670436Y-146661854D01*
X197862036Y-146345979D01*
X198057524Y-146006898D01*
X198263395Y-145633402D01*
X198486142Y-145214278D01*
X198732259Y-144738317D01*
X198951342Y-144307118D01*
X199107664Y-144000857D01*
X199267809Y-143692949D01*
X199423245Y-143399378D01*
X199565440Y-143136129D01*
X199685863Y-142919187D01*
X199764742Y-142783118D01*
X199872819Y-142600001D01*
X200003162Y-142374287D01*
X200150256Y-142115977D01*
X200308588Y-141835073D01*
X200472642Y-141541575D01*
X200636904Y-141245482D01*
X200795859Y-140956796D01*
X200943994Y-140685517D01*
X201075793Y-140441646D01*
X201185742Y-140235183D01*
X201268327Y-140076128D01*
X201318033Y-139974482D01*
X201329927Y-139944655D01*
X201324167Y-139837445D01*
X201269951Y-139738881D01*
X201188174Y-139681665D01*
X201159182Y-139677430D01*
X201093661Y-139697371D01*
X200974274Y-139751059D01*
X200820197Y-139829425D01*
X200706500Y-139891560D01*
X200497292Y-140004445D01*
X200268321Y-140120695D01*
X200058595Y-140220713D01*
X199993037Y-140249964D01*
X199643049Y-140418267D01*
X199232355Y-140645575D01*
X198760964Y-140931882D01*
X198228884Y-141277184D01*
X198052021Y-141395932D01*
X197657123Y-141659156D01*
X197317737Y-141876559D01*
X197022841Y-142054680D01*
X196761411Y-142200059D01*
X196522425Y-142319235D01*
X196409666Y-142370270D01*
X196245412Y-142447680D01*
X196059441Y-142546767D01*
X195841604Y-142673566D01*
X195581753Y-142834111D01*
X195269741Y-143034436D01*
X195044406Y-143182080D01*
X194826834Y-143319911D01*
X194566563Y-143476305D01*
X194296567Y-143631855D01*
X194054268Y-143764798D01*
X193836889Y-143885956D01*
X193629266Y-144012103D01*
X193452191Y-144129941D01*
X193326455Y-144226170D01*
X193310494Y-144240531D01*
X193190831Y-144337710D01*
X193020203Y-144457327D01*
X192822915Y-144583051D01*
X192653883Y-144681704D01*
X192471574Y-144789185D01*
X192241632Y-144934009D01*
X191984294Y-145102901D01*
X191719799Y-145282590D01*
X191477949Y-145452919D01*
X191227510Y-145632250D01*
X190967837Y-145816897D01*
X190718562Y-145992990D01*
X190499317Y-146146660D01*
X190334833Y-146260544D01*
X189915305Y-146548276D01*
X189560210Y-146792618D01*
X189263947Y-146997758D01*
X189020913Y-147167883D01*
X188825508Y-147307181D01*
X188672130Y-147419841D01*
X188555179Y-147510051D01*
X188469052Y-147581998D01*
X188408150Y-147639870D01*
X188366869Y-147687857D01*
X188339610Y-147730145D01*
X188323381Y-147764493D01*
X188293807Y-147868864D01*
X184587114Y-147868864D01*
X184744007Y-147765940D01*
X184982904Y-147607170D01*
X185250566Y-147427551D01*
X185536752Y-147233875D01*
X185720500Y-147108692D01*
X186295799Y-146718537D01*
X186879105Y-146328285D01*
X187457366Y-145946446D01*
X188017533Y-145581529D01*
X188546553Y-145242045D01*
X189031377Y-144936504D01*
X189403500Y-144707086D01*
X190042106Y-144318470D01*
X190613819Y-143970722D01*
X191124052Y-143660662D01*
X191578218Y-143385111D01*
X191981730Y-143140890D01*
X192340002Y-142924818D01*
X192658447Y-142733717D01*
X192942478Y-142564408D01*
X193197509Y-142413710D01*
X193428953Y-142278444D01*
X193642223Y-142155431D01*
X193842733Y-142041491D01*
X194035896Y-141933444D01*
X194227124Y-141828113D01*
X194421832Y-141722315D01*
X194625433Y-141612874D01*
X194843340Y-141496608D01*
X195080966Y-141370338D01*
X195118500Y-141350416D01*
X195726949Y-141026356D01*
X196269764Y-140734904D01*
X196745268Y-140476981D01*
X197151786Y-140253508D01*
X197487641Y-140065406D01*
X197751157Y-139913596D01*
X197933666Y-139803392D01*
X198131976Y-139687628D01*
X198363515Y-139565094D01*
X198582633Y-139459795D01*
X198611000Y-139447235D01*
X198809726Y-139356499D01*
X199045393Y-139242940D01*
X199280827Y-139124674D01*
X199394166Y-139065556D01*
X199743584Y-138891341D01*
X200144801Y-138709911D01*
X200567411Y-138534318D01*
X200981007Y-138377616D01*
X201069122Y-138346502D01*
X201402080Y-138209317D01*
X201733997Y-138027279D01*
X202076646Y-137792585D01*
X202441799Y-137497435D01*
X202703102Y-137263643D01*
X202894759Y-137089094D01*
X203074371Y-136930384D01*
X203229166Y-136798426D01*
X203346374Y-136704135D01*
X203408109Y-136661083D01*
X203590443Y-136600511D01*
X203821063Y-136585596D01*
X204077523Y-136615463D01*
G36*
X214632182Y-141059459D02*
G01*
X214852320Y-141090890D01*
X214969092Y-141115794D01*
X215303068Y-141209048D01*
X215553632Y-141313883D01*
X215721315Y-141430828D01*
X215806647Y-141560412D01*
X215810159Y-141703162D01*
X215732381Y-141859608D01*
X215725390Y-141869109D01*
X215570902Y-142070322D01*
X215399704Y-142284598D01*
X215223935Y-142497599D01*
X215055730Y-142694987D01*
X214907228Y-142862424D01*
X214790566Y-142985573D01*
X214740448Y-143032628D01*
X214594777Y-143165437D01*
X214404937Y-143350703D01*
X214181911Y-143576642D01*
X213936680Y-143831470D01*
X213680225Y-144103402D01*
X213423529Y-144380655D01*
X213177572Y-144651444D01*
X212953337Y-144903986D01*
X212761805Y-145126495D01*
X212613957Y-145307189D01*
X212580886Y-145350000D01*
X212414625Y-145559564D01*
X212207384Y-145806068D01*
X211978638Y-146067177D01*
X211747862Y-146320554D01*
X211584270Y-146493000D01*
X211366637Y-146719345D01*
X211112314Y-146986977D01*
X210841486Y-147274461D01*
X210574338Y-147560363D01*
X210331052Y-147823249D01*
X210308610Y-147847667D01*
X210110022Y-148063045D01*
X209924192Y-148262980D01*
X209760828Y-148437153D01*
X209629637Y-148575247D01*
X209540326Y-148666943D01*
X209512057Y-148694333D01*
X209414680Y-148799050D01*
X209314041Y-148930671D01*
X209288212Y-148969500D01*
X209197242Y-149105893D01*
X209095727Y-149242758D01*
X208972907Y-149392929D01*
X208818021Y-149569241D01*
X208620309Y-149784528D01*
X208474666Y-149939852D01*
X208318107Y-150108429D01*
X208120385Y-150325181D01*
X207895745Y-150574268D01*
X207658435Y-150839848D01*
X207422699Y-151106078D01*
X207290360Y-151256774D01*
X207036651Y-151542533D01*
X206743907Y-151865418D01*
X206433056Y-152202783D01*
X206125026Y-152531979D01*
X205840743Y-152830359D01*
X205745194Y-152929002D01*
X205294935Y-153392674D01*
X204901656Y-153800976D01*
X204561946Y-154157880D01*
X204272394Y-154467355D01*
X204029589Y-154733375D01*
X203830119Y-154959909D01*
X203670575Y-155150930D01*
X203547545Y-155310409D01*
X203457618Y-155442316D01*
X203397384Y-155550624D01*
X203363431Y-155639304D01*
X203352349Y-155712326D01*
X203352333Y-155715007D01*
X203352333Y-155860426D01*
X203616916Y-155836443D01*
X203737774Y-155819821D01*
X203861339Y-155788392D01*
X204004482Y-155735786D01*
X204184074Y-155655632D01*
X204416987Y-155541560D01*
X204474166Y-155512742D01*
X204745036Y-155378980D01*
X205053674Y-155231682D01*
X205363470Y-155088051D01*
X205637813Y-154965291D01*
X205656725Y-154957064D01*
X205909630Y-154841227D01*
X206149126Y-154720410D01*
X206353446Y-154606155D01*
X206500826Y-154510003D01*
X206503371Y-154508098D01*
X206680636Y-154385667D01*
X206887139Y-154258636D01*
X207056479Y-154165858D01*
X207215928Y-154083098D01*
X207420395Y-153973452D01*
X207641520Y-153852274D01*
X207818500Y-153753308D01*
X208058500Y-153620531D01*
X208334756Y-153472231D01*
X208607273Y-153329691D01*
X208771000Y-153246435D01*
X208990294Y-153134711D01*
X209214326Y-153017171D01*
X209414936Y-152908770D01*
X209548557Y-152833499D01*
X209796038Y-152699246D01*
X210037543Y-152591898D01*
X210291494Y-152506069D01*
X210576311Y-152436374D01*
X210910413Y-152377429D01*
X211277481Y-152328023D01*
X211661853Y-152286960D01*
X212014148Y-152260103D01*
X212324001Y-152247653D01*
X212581045Y-152249813D01*
X212774915Y-152266787D01*
X212890328Y-152296449D01*
X213100290Y-152407620D01*
X213247458Y-152513216D01*
X213312843Y-152556844D01*
X213436622Y-152628278D01*
X213601303Y-152717770D01*
X213789395Y-152815577D01*
X213797605Y-152819751D01*
X214064863Y-152963827D01*
X214258091Y-153092431D01*
X214383541Y-153216973D01*
X214447468Y-153348863D01*
X214456127Y-153499513D01*
X214415772Y-153680333D01*
X214357582Y-153841402D01*
X214264197Y-154056905D01*
X214160482Y-154250379D01*
X214033255Y-154441707D01*
X213869330Y-154650775D01*
X213662649Y-154889486D01*
X213499742Y-155076309D01*
X213315143Y-155294543D01*
X213138835Y-155508528D01*
X213067833Y-155596900D01*
X212929108Y-155771510D01*
X212757531Y-155987560D01*
X212572866Y-156220155D01*
X212394879Y-156444404D01*
X212357666Y-156491300D01*
X212126846Y-156791192D01*
X211954227Y-157036642D01*
X211837272Y-157232195D01*
X211773444Y-157382396D01*
X211760208Y-157491791D01*
X211774079Y-157537167D01*
X211863887Y-157623669D01*
X212022647Y-157673300D01*
X212253106Y-157686543D01*
X212518855Y-157668323D01*
X212771666Y-157639135D01*
X212996491Y-157608468D01*
X213209262Y-157572851D01*
X213425910Y-157528816D01*
X213662368Y-157472892D01*
X213934568Y-157401610D01*
X214258441Y-157311500D01*
X214578097Y-157219872D01*
X215123894Y-157068305D01*
X215598201Y-156950013D01*
X216006862Y-156863810D01*
X216355724Y-156808513D01*
X216650633Y-156782935D01*
X216744366Y-156780775D01*
X216857449Y-156775804D01*
X216939913Y-156752332D01*
X217018136Y-156695965D01*
X217118492Y-156592310D01*
X217146533Y-156561318D01*
X217264920Y-156426044D01*
X217410434Y-156254262D01*
X217557793Y-156075957D01*
X217607911Y-156014100D01*
X217808156Y-155787077D01*
X218001806Y-155608656D01*
X218178740Y-155486671D01*
X218328836Y-155428952D01*
X218368737Y-155425333D01*
X218529320Y-155435431D01*
X218701192Y-155462004D01*
X218860973Y-155499476D01*
X218985284Y-155542269D01*
X219050744Y-155584804D01*
X219053033Y-155588590D01*
X219107540Y-155774311D01*
X219113643Y-156011556D01*
X219070892Y-156282076D01*
X219070132Y-156285239D01*
X219030684Y-156477259D01*
X219028436Y-156602581D01*
X219071271Y-156673935D01*
X219167069Y-156704054D01*
X219323714Y-156705667D01*
X219330255Y-156705370D01*
X219615412Y-156653206D01*
X219790074Y-156578370D01*
X219924693Y-156515097D01*
X220047258Y-156480779D01*
X220193445Y-156468112D01*
X220328217Y-156468203D01*
X220642169Y-156494804D01*
X220934446Y-156559218D01*
X221186203Y-156655521D01*
X221378596Y-156777787D01*
X221412766Y-156809255D01*
X221580613Y-157024281D01*
X221669062Y-157251744D01*
X221682666Y-157384007D01*
X221697076Y-157496594D01*
X221731903Y-157574237D01*
X221733466Y-157575867D01*
X221830956Y-157619133D01*
X221978700Y-157619216D01*
X222146791Y-157578527D01*
X222236209Y-157540405D01*
X222384517Y-157469575D01*
X222576919Y-157373776D01*
X222798617Y-157260749D01*
X223034815Y-157138236D01*
X223270717Y-157013975D01*
X223491525Y-156895709D01*
X223682442Y-156791177D01*
X223828673Y-156708121D01*
X223915420Y-156654280D01*
X223920336Y-156650739D01*
X223992411Y-156614699D01*
X224131219Y-156559793D01*
X224322186Y-156490765D01*
X224550736Y-156412357D01*
X224802295Y-156329312D01*
X225062287Y-156246374D01*
X225316138Y-156168287D01*
X225549274Y-156099792D01*
X225747118Y-156045634D01*
X225873666Y-156015059D01*
X226102930Y-155995814D01*
X226333409Y-156029422D01*
X226549755Y-156107420D01*
X226736617Y-156221344D01*
X226878645Y-156362728D01*
X226960488Y-156523109D01*
X226974333Y-156621994D01*
X226947672Y-156729190D01*
X226873917Y-156885233D01*
X226762405Y-157075851D01*
X226622477Y-157286773D01*
X226463470Y-157503730D01*
X226294724Y-157712451D01*
X226167485Y-157854902D01*
X226001549Y-158034564D01*
X225803676Y-158253556D01*
X225596553Y-158486522D01*
X225402866Y-158708103D01*
X225368015Y-158748500D01*
X225170421Y-158974917D01*
X224940597Y-159233210D01*
X224704852Y-159494082D01*
X224489492Y-159728237D01*
X224455659Y-159764500D01*
X224247919Y-159990779D01*
X224016892Y-160249267D01*
X223788385Y-160510708D01*
X223588203Y-160745844D01*
X223556810Y-160783551D01*
X223385964Y-160987474D01*
X223209895Y-161193887D01*
X223046371Y-161382194D01*
X222913160Y-161531801D01*
X222881153Y-161566717D01*
X222646619Y-161823213D01*
X222419260Y-162077967D01*
X222206850Y-162321742D01*
X222017167Y-162545303D01*
X221857987Y-162739415D01*
X221737085Y-162894840D01*
X221662239Y-163002343D01*
X221644303Y-163035749D01*
X221603764Y-163174408D01*
X221624994Y-163257527D01*
X221712886Y-163291289D01*
X221842310Y-163285969D01*
X221997947Y-163253526D01*
X222214765Y-163189896D01*
X222477722Y-163100749D01*
X222771778Y-162991758D01*
X223081893Y-162868597D01*
X223393024Y-162736936D01*
X223690131Y-162602448D01*
X223820500Y-162539948D01*
X224063215Y-162426100D01*
X224316430Y-162315741D01*
X224554010Y-162219747D01*
X224749815Y-162148990D01*
X224792852Y-162135405D01*
X225013651Y-162060917D01*
X225252113Y-161968049D01*
X225462585Y-161874784D01*
X225494669Y-161858993D01*
X225716742Y-161754410D01*
X225996493Y-161633298D01*
X226310897Y-161504726D01*
X226636927Y-161377758D01*
X226951556Y-161261463D01*
X227231759Y-161164907D01*
X227361530Y-161123900D01*
X227614043Y-161054655D01*
X227800202Y-161021084D01*
X227930103Y-161022484D01*
X228013847Y-161058153D01*
X228032979Y-161077210D01*
X228058204Y-161131264D01*
X228039778Y-161201710D01*
X227981442Y-161299460D01*
X227898593Y-161426931D01*
X227823313Y-161545855D01*
X227808657Y-161569639D01*
X227740973Y-161646171D01*
X227623937Y-161746996D01*
X227480624Y-161852560D01*
X227452628Y-161871341D01*
X227339821Y-161940618D01*
X227179417Y-162032277D01*
X226985269Y-162139103D01*
X226771231Y-162253884D01*
X226551158Y-162369407D01*
X226338901Y-162478459D01*
X226148316Y-162573826D01*
X225993255Y-162648297D01*
X225887572Y-162694658D01*
X225848243Y-162706667D01*
X225800117Y-162725337D01*
X225686292Y-162778145D01*
X225516247Y-162860284D01*
X225299464Y-162966947D01*
X225045420Y-163093327D01*
X224763597Y-163234618D01*
X224463473Y-163386014D01*
X224154529Y-163542708D01*
X223846244Y-163699893D01*
X223548098Y-163852764D01*
X223269571Y-163996512D01*
X223020142Y-164126333D01*
X222809292Y-164237419D01*
X222646499Y-164324964D01*
X222550500Y-164378727D01*
X222266777Y-164541066D01*
X222032605Y-164667099D01*
X221826733Y-164766946D01*
X221627907Y-164850724D01*
X221414875Y-164928552D01*
X221347792Y-164951323D01*
X221124102Y-165020561D01*
X220945541Y-165058128D01*
X220780013Y-165067068D01*
X220595423Y-165050423D01*
X220484305Y-165033180D01*
X220260409Y-164962167D01*
X220075217Y-164826716D01*
X219919396Y-164619044D01*
X219864097Y-164515833D01*
X219741623Y-164191190D01*
X219701880Y-163878123D01*
X219745260Y-163570300D01*
X219872154Y-163261390D01*
X219949639Y-163131051D01*
X220013150Y-163048041D01*
X220129330Y-162911987D01*
X220291456Y-162730186D01*
X220492808Y-162509938D01*
X220726665Y-162258542D01*
X220986306Y-161983296D01*
X221265010Y-161691498D01*
X221487037Y-161461506D01*
X221773085Y-161165224D01*
X222046022Y-160879944D01*
X222299068Y-160612933D01*
X222525445Y-160371458D01*
X222718374Y-160162786D01*
X222871077Y-159994187D01*
X222976775Y-159872926D01*
X223023191Y-159814522D01*
X223127977Y-159672670D01*
X223269689Y-159490559D01*
X223436372Y-159282586D01*
X223616073Y-159063146D01*
X223796838Y-158846635D01*
X223966714Y-158647448D01*
X224113746Y-158479981D01*
X224225982Y-158358630D01*
X224261155Y-158323657D01*
X224394938Y-158175092D01*
X224489864Y-158025991D01*
X224537951Y-157893254D01*
X224531223Y-157793780D01*
X224519807Y-157775806D01*
X224473324Y-157735114D01*
X224411332Y-157714510D01*
X224325857Y-157716603D01*
X224208924Y-157744002D01*
X224052561Y-157799315D01*
X223848792Y-157885151D01*
X223589645Y-158004117D01*
X223267145Y-158158824D01*
X223100833Y-158240010D01*
X222573700Y-158510856D01*
X221995295Y-158831014D01*
X221377385Y-159193278D01*
X220731742Y-159590443D01*
X220070134Y-160015304D01*
X219404330Y-160460656D01*
X218885294Y-160820699D01*
X218592076Y-161011743D01*
X218343689Y-161138392D01*
X218133364Y-161203377D01*
X217954333Y-161209429D01*
X217931122Y-161205680D01*
X217757507Y-161134881D01*
X217590500Y-160998907D01*
X217448958Y-160816362D01*
X217366477Y-160648622D01*
X217326427Y-160512437D01*
X217297396Y-160358698D01*
X217281218Y-160209234D01*
X217279726Y-160085872D01*
X217294753Y-160010439D01*
X217311750Y-159997251D01*
X217350172Y-159964793D01*
X217418635Y-159880318D01*
X217491666Y-159777572D01*
X217605351Y-159618246D01*
X217732993Y-159452490D01*
X217800010Y-159371264D01*
X217906693Y-159231984D01*
X218009578Y-159072554D01*
X218095924Y-158915737D01*
X218152990Y-158784293D01*
X218169000Y-158712103D01*
X218134687Y-158646272D01*
X218102037Y-158626029D01*
X218006743Y-158606314D01*
X217884987Y-158600988D01*
X217769974Y-158609047D01*
X217694912Y-158629489D01*
X217684663Y-158638626D01*
X217637611Y-158678228D01*
X217538790Y-158743025D01*
X217427990Y-158808420D01*
X217313086Y-158887411D01*
X217149934Y-159019944D01*
X216948067Y-159197676D01*
X216717020Y-159412266D01*
X216516213Y-159606210D01*
X216150148Y-159955245D01*
X215833242Y-160235425D01*
X215565508Y-160446743D01*
X215346958Y-160589190D01*
X215177602Y-160662757D01*
X215102108Y-160673862D01*
X214949280Y-160639956D01*
X214782558Y-160553298D01*
X214631272Y-160433936D01*
X214524755Y-160301919D01*
X214507890Y-160267703D01*
X214442737Y-160008122D01*
X214461604Y-159743889D01*
X214564053Y-159476289D01*
X214749646Y-159206605D01*
X214937563Y-159008983D01*
X215189333Y-158770378D01*
X215424386Y-158544673D01*
X215635884Y-158338686D01*
X215816988Y-158159237D01*
X215960858Y-158013143D01*
X216060657Y-157907223D01*
X216109544Y-157848297D01*
X216111685Y-157838333D01*
X216055988Y-157852251D01*
X215932779Y-157891222D01*
X215754008Y-157951071D01*
X215531623Y-158027626D01*
X215277576Y-158116712D01*
X215003815Y-158214155D01*
X214722291Y-158315781D01*
X214444953Y-158417416D01*
X214304989Y-158469396D01*
X213991511Y-158578946D01*
X213651704Y-158684775D01*
X213301773Y-158782929D01*
X212957922Y-158869456D01*
X212636358Y-158940401D01*
X212353283Y-158991813D01*
X212124903Y-159019739D01*
X212032812Y-159023667D01*
X211731421Y-159001166D01*
X211407178Y-158938445D01*
X211079858Y-158842675D01*
X210769236Y-158721029D01*
X210495086Y-158580677D01*
X210277183Y-158428792D01*
X210204703Y-158360667D01*
X210055677Y-158157192D01*
X209976843Y-157928388D01*
X209962594Y-157657126D01*
X209964490Y-157627204D01*
X209985486Y-157471024D01*
X210031577Y-157332954D01*
X210115790Y-157178213D01*
X210157053Y-157113107D01*
X210279233Y-156899744D01*
X210339034Y-156737039D01*
X210338729Y-156628206D01*
X210280597Y-156576457D01*
X210166913Y-156585004D01*
X209999954Y-156657062D01*
X209883351Y-156726795D01*
X209732203Y-156810363D01*
X209523963Y-156906029D01*
X209283095Y-157003149D01*
X209084573Y-157074326D01*
X208863122Y-157151374D01*
X208652605Y-157228724D01*
X208475417Y-157297886D01*
X208353956Y-157350368D01*
X208345093Y-157354691D01*
X208143491Y-157439614D01*
X207889044Y-157524842D01*
X207613091Y-157601658D01*
X207346971Y-157661349D01*
X207122023Y-157695197D01*
X207120000Y-157695384D01*
X206808296Y-157697520D01*
X206465306Y-157647349D01*
X206075949Y-157542586D01*
X206044774Y-157532566D01*
X205799914Y-157426838D01*
X205583534Y-157283753D01*
X205413283Y-157117858D01*
X205306806Y-156943696D01*
X205296922Y-156916202D01*
X205253041Y-156782651D01*
X205214237Y-156699867D01*
X205165722Y-156666810D01*
X205092708Y-156682444D01*
X204980408Y-156745730D01*
X204814034Y-156855629D01*
X204777966Y-156879771D01*
X204488566Y-157057192D01*
X204230161Y-157179299D01*
X204068952Y-157234032D01*
X203667881Y-157334928D01*
X203305638Y-157396934D01*
X202991415Y-157419286D01*
X202734407Y-157401219D01*
X202578513Y-157358134D01*
X202355779Y-157230056D01*
X202129603Y-157036406D01*
X201917949Y-156793525D01*
X201843604Y-156689558D01*
X201729068Y-156525984D01*
X201608618Y-156363887D01*
X201507752Y-156237550D01*
X201505127Y-156234475D01*
X201435032Y-156157617D01*
X201367810Y-156104381D01*
X201289616Y-156073891D01*
X201186602Y-156065269D01*
X201044924Y-156077641D01*
X200850736Y-156110129D01*
X200590191Y-156161858D01*
X200535374Y-156173104D01*
X200103196Y-156250938D01*
X199729700Y-156295196D01*
X199420535Y-156305494D01*
X199181351Y-156281445D01*
X199129090Y-156268899D01*
X198933963Y-156178668D01*
X198733870Y-156023834D01*
X198639987Y-155922332D01*
X207378359Y-155922332D01*
X207394329Y-155975530D01*
X207458408Y-156009589D01*
X207466315Y-156012544D01*
X207537978Y-156023418D01*
X207641594Y-156011166D01*
X207784989Y-155973171D01*
X207975987Y-155906818D01*
X208222414Y-155809489D01*
X208532095Y-155678568D01*
X208751401Y-155582856D01*
X209147067Y-155406798D01*
X209579381Y-155211131D01*
X210031257Y-155003822D01*
X210485607Y-154792837D01*
X210925344Y-154586145D01*
X211333382Y-154391713D01*
X211692631Y-154217508D01*
X211903261Y-154113203D01*
X212203154Y-153955746D01*
X212429607Y-153818902D01*
X212589533Y-153696617D01*
X212689848Y-153582835D01*
X212737466Y-153471498D01*
X212742120Y-153378576D01*
X212726342Y-153294985D01*
X212683997Y-153250194D01*
X212590682Y-153224747D01*
X212538666Y-153216387D01*
X212241288Y-153197007D01*
X211903112Y-153217004D01*
X211556373Y-153272922D01*
X211254333Y-153354177D01*
X211023665Y-153441307D01*
X210742384Y-153563502D01*
X210431317Y-153710387D01*
X210111293Y-153871586D01*
X209803137Y-154036725D01*
X209527678Y-154195429D01*
X209378434Y-154288653D01*
X209186927Y-154417455D01*
X208967867Y-154571583D01*
X208731226Y-154743323D01*
X208486971Y-154924961D01*
X208245071Y-155108785D01*
X208015498Y-155287079D01*
X207808218Y-155452131D01*
X207633202Y-155596226D01*
X207500420Y-155711652D01*
X207419839Y-155790693D01*
X207400015Y-155819466D01*
X207378359Y-155922332D01*
X198639987Y-155922332D01*
X198546583Y-155821350D01*
X198389874Y-155588168D01*
X198363295Y-155538419D01*
X198288828Y-155384454D01*
X198249960Y-155272203D01*
X198239632Y-155170243D01*
X198250784Y-155047154D01*
X198251592Y-155041237D01*
X198280279Y-154901148D01*
X199917583Y-154901148D01*
X199928233Y-154986523D01*
X199987626Y-155032757D01*
X200101812Y-155040678D01*
X200276844Y-155011112D01*
X200518772Y-154944887D01*
X200719376Y-154881054D01*
X201141192Y-154729211D01*
X201506059Y-154568287D01*
X201841614Y-154385588D01*
X201966536Y-154308229D01*
X202101308Y-154225590D01*
X202281958Y-154119482D01*
X202479827Y-154006593D01*
X202590333Y-153945055D01*
X202835302Y-153803398D01*
X203023027Y-153674832D01*
X203174537Y-153540164D01*
X203310856Y-153380200D01*
X203453012Y-153175745D01*
X203481733Y-153131351D01*
X203578712Y-152984487D01*
X203662229Y-152865658D01*
X203719569Y-152792626D01*
X203733772Y-152779228D01*
X203788292Y-152713197D01*
X203856710Y-152583567D01*
X203932459Y-152408897D01*
X204008973Y-152207745D01*
X204079682Y-151998669D01*
X204138020Y-151800227D01*
X204177419Y-151630977D01*
X204191311Y-151509476D01*
X204190142Y-151489668D01*
X204139600Y-151373037D01*
X204031060Y-151304974D01*
X203880152Y-151292249D01*
X203780855Y-151312444D01*
X203621244Y-151380402D01*
X203410320Y-151501242D01*
X203156843Y-151668182D01*
X202869577Y-151874443D01*
X202557282Y-152113247D01*
X202228720Y-152377813D01*
X201892655Y-152661361D01*
X201557846Y-152957113D01*
X201233057Y-153258288D01*
X201098464Y-153387964D01*
X200733641Y-153754069D01*
X200437748Y-154073516D01*
X200209835Y-154347454D01*
X200048952Y-154577030D01*
X199954150Y-154763391D01*
X199949626Y-154775804D01*
X199917583Y-154901148D01*
X198280279Y-154901148D01*
X198289375Y-154856735D01*
X198356208Y-154664607D01*
X198458779Y-154450968D01*
X198603773Y-154201934D01*
X198797879Y-153903623D01*
X198803678Y-153895030D01*
X199141532Y-153420670D01*
X199493695Y-152981226D01*
X199883073Y-152549250D01*
X200176186Y-152250333D01*
X200741024Y-151722301D01*
X201289183Y-151274164D01*
X201820004Y-150906293D01*
X202332827Y-150619056D01*
X202826992Y-150412825D01*
X203301837Y-150287969D01*
X203754500Y-150244869D01*
X203943383Y-150246689D01*
X204086420Y-150259319D01*
X204216277Y-150289728D01*
X204365620Y-150344884D01*
X204507241Y-150405447D01*
X204755852Y-150526837D01*
X205009199Y-150672297D01*
X205244966Y-150827388D01*
X205440835Y-150977671D01*
X205548924Y-151079402D01*
X205602573Y-151130472D01*
X205654813Y-151154787D01*
X205716085Y-151146636D01*
X205796830Y-151100306D01*
X205907487Y-151010085D01*
X206058499Y-150870261D01*
X206224956Y-150709534D01*
X206352708Y-150583007D01*
X206493635Y-150438819D01*
X206651365Y-150272904D01*
X206829526Y-150081195D01*
X207031747Y-149859626D01*
X207261656Y-149604128D01*
X207522882Y-149310637D01*
X207819053Y-148975085D01*
X208153798Y-148593405D01*
X208530746Y-148161531D01*
X208953525Y-147675396D01*
X209425763Y-147130933D01*
X209683400Y-146833437D01*
X210014959Y-146451497D01*
X210348421Y-146069400D01*
X210676586Y-145695266D01*
X210992254Y-145337218D01*
X211288227Y-145003377D01*
X211557305Y-144701866D01*
X211792291Y-144440806D01*
X211985983Y-144228320D01*
X212122416Y-144081770D01*
X212342804Y-143846370D01*
X212569766Y-143599180D01*
X212787595Y-143357643D01*
X212980584Y-143139202D01*
X213133026Y-142961301D01*
X213153237Y-142937000D01*
X213344087Y-142697884D01*
X213536089Y-142442314D01*
X213722068Y-142181345D01*
X213894849Y-141926035D01*
X214047258Y-141687439D01*
X214172118Y-141476614D01*
X214262257Y-141304615D01*
X214310497Y-141182500D01*
X214316666Y-141144231D01*
X214354881Y-141086542D01*
X214463211Y-141058147D01*
X214632182Y-141059459D01*
G37*
X214632182Y-141059459D02*
X214852320Y-141090890D01*
X214969092Y-141115794D01*
X215303068Y-141209048D01*
X215553632Y-141313883D01*
X215721315Y-141430828D01*
X215806647Y-141560412D01*
X215810159Y-141703162D01*
X215732381Y-141859608D01*
X215725390Y-141869109D01*
X215570902Y-142070322D01*
X215399704Y-142284598D01*
X215223935Y-142497599D01*
X215055730Y-142694987D01*
X214907228Y-142862424D01*
X214790566Y-142985573D01*
X214740448Y-143032628D01*
X214594777Y-143165437D01*
X214404937Y-143350703D01*
X214181911Y-143576642D01*
X213936680Y-143831470D01*
X213680225Y-144103402D01*
X213423529Y-144380655D01*
X213177572Y-144651444D01*
X212953337Y-144903986D01*
X212761805Y-145126495D01*
X212613957Y-145307189D01*
X212580886Y-145350000D01*
X212414625Y-145559564D01*
X212207384Y-145806068D01*
X211978638Y-146067177D01*
X211747862Y-146320554D01*
X211584270Y-146493000D01*
X211366637Y-146719345D01*
X211112314Y-146986977D01*
X210841486Y-147274461D01*
X210574338Y-147560363D01*
X210331052Y-147823249D01*
X210308610Y-147847667D01*
X210110022Y-148063045D01*
X209924192Y-148262980D01*
X209760828Y-148437153D01*
X209629637Y-148575247D01*
X209540326Y-148666943D01*
X209512057Y-148694333D01*
X209414680Y-148799050D01*
X209314041Y-148930671D01*
X209288212Y-148969500D01*
X209197242Y-149105893D01*
X209095727Y-149242758D01*
X208972907Y-149392929D01*
X208818021Y-149569241D01*
X208620309Y-149784528D01*
X208474666Y-149939852D01*
X208318107Y-150108429D01*
X208120385Y-150325181D01*
X207895745Y-150574268D01*
X207658435Y-150839848D01*
X207422699Y-151106078D01*
X207290360Y-151256774D01*
X207036651Y-151542533D01*
X206743907Y-151865418D01*
X206433056Y-152202783D01*
X206125026Y-152531979D01*
X205840743Y-152830359D01*
X205745194Y-152929002D01*
X205294935Y-153392674D01*
X204901656Y-153800976D01*
X204561946Y-154157880D01*
X204272394Y-154467355D01*
X204029589Y-154733375D01*
X203830119Y-154959909D01*
X203670575Y-155150930D01*
X203547545Y-155310409D01*
X203457618Y-155442316D01*
X203397384Y-155550624D01*
X203363431Y-155639304D01*
X203352349Y-155712326D01*
X203352333Y-155715007D01*
X203352333Y-155860426D01*
X203616916Y-155836443D01*
X203737774Y-155819821D01*
X203861339Y-155788392D01*
X204004482Y-155735786D01*
X204184074Y-155655632D01*
X204416987Y-155541560D01*
X204474166Y-155512742D01*
X204745036Y-155378980D01*
X205053674Y-155231682D01*
X205363470Y-155088051D01*
X205637813Y-154965291D01*
X205656725Y-154957064D01*
X205909630Y-154841227D01*
X206149126Y-154720410D01*
X206353446Y-154606155D01*
X206500826Y-154510003D01*
X206503371Y-154508098D01*
X206680636Y-154385667D01*
X206887139Y-154258636D01*
X207056479Y-154165858D01*
X207215928Y-154083098D01*
X207420395Y-153973452D01*
X207641520Y-153852274D01*
X207818500Y-153753308D01*
X208058500Y-153620531D01*
X208334756Y-153472231D01*
X208607273Y-153329691D01*
X208771000Y-153246435D01*
X208990294Y-153134711D01*
X209214326Y-153017171D01*
X209414936Y-152908770D01*
X209548557Y-152833499D01*
X209796038Y-152699246D01*
X210037543Y-152591898D01*
X210291494Y-152506069D01*
X210576311Y-152436374D01*
X210910413Y-152377429D01*
X211277481Y-152328023D01*
X211661853Y-152286960D01*
X212014148Y-152260103D01*
X212324001Y-152247653D01*
X212581045Y-152249813D01*
X212774915Y-152266787D01*
X212890328Y-152296449D01*
X213100290Y-152407620D01*
X213247458Y-152513216D01*
X213312843Y-152556844D01*
X213436622Y-152628278D01*
X213601303Y-152717770D01*
X213789395Y-152815577D01*
X213797605Y-152819751D01*
X214064863Y-152963827D01*
X214258091Y-153092431D01*
X214383541Y-153216973D01*
X214447468Y-153348863D01*
X214456127Y-153499513D01*
X214415772Y-153680333D01*
X214357582Y-153841402D01*
X214264197Y-154056905D01*
X214160482Y-154250379D01*
X214033255Y-154441707D01*
X213869330Y-154650775D01*
X213662649Y-154889486D01*
X213499742Y-155076309D01*
X213315143Y-155294543D01*
X213138835Y-155508528D01*
X213067833Y-155596900D01*
X212929108Y-155771510D01*
X212757531Y-155987560D01*
X212572866Y-156220155D01*
X212394879Y-156444404D01*
X212357666Y-156491300D01*
X212126846Y-156791192D01*
X211954227Y-157036642D01*
X211837272Y-157232195D01*
X211773444Y-157382396D01*
X211760208Y-157491791D01*
X211774079Y-157537167D01*
X211863887Y-157623669D01*
X212022647Y-157673300D01*
X212253106Y-157686543D01*
X212518855Y-157668323D01*
X212771666Y-157639135D01*
X212996491Y-157608468D01*
X213209262Y-157572851D01*
X213425910Y-157528816D01*
X213662368Y-157472892D01*
X213934568Y-157401610D01*
X214258441Y-157311500D01*
X214578097Y-157219872D01*
X215123894Y-157068305D01*
X215598201Y-156950013D01*
X216006862Y-156863810D01*
X216355724Y-156808513D01*
X216650633Y-156782935D01*
X216744366Y-156780775D01*
X216857449Y-156775804D01*
X216939913Y-156752332D01*
X217018136Y-156695965D01*
X217118492Y-156592310D01*
X217146533Y-156561318D01*
X217264920Y-156426044D01*
X217410434Y-156254262D01*
X217557793Y-156075957D01*
X217607911Y-156014100D01*
X217808156Y-155787077D01*
X218001806Y-155608656D01*
X218178740Y-155486671D01*
X218328836Y-155428952D01*
X218368737Y-155425333D01*
X218529320Y-155435431D01*
X218701192Y-155462004D01*
X218860973Y-155499476D01*
X218985284Y-155542269D01*
X219050744Y-155584804D01*
X219053033Y-155588590D01*
X219107540Y-155774311D01*
X219113643Y-156011556D01*
X219070892Y-156282076D01*
X219070132Y-156285239D01*
X219030684Y-156477259D01*
X219028436Y-156602581D01*
X219071271Y-156673935D01*
X219167069Y-156704054D01*
X219323714Y-156705667D01*
X219330255Y-156705370D01*
X219615412Y-156653206D01*
X219790074Y-156578370D01*
X219924693Y-156515097D01*
X220047258Y-156480779D01*
X220193445Y-156468112D01*
X220328217Y-156468203D01*
X220642169Y-156494804D01*
X220934446Y-156559218D01*
X221186203Y-156655521D01*
X221378596Y-156777787D01*
X221412766Y-156809255D01*
X221580613Y-157024281D01*
X221669062Y-157251744D01*
X221682666Y-157384007D01*
X221697076Y-157496594D01*
X221731903Y-157574237D01*
X221733466Y-157575867D01*
X221830956Y-157619133D01*
X221978700Y-157619216D01*
X222146791Y-157578527D01*
X222236209Y-157540405D01*
X222384517Y-157469575D01*
X222576919Y-157373776D01*
X222798617Y-157260749D01*
X223034815Y-157138236D01*
X223270717Y-157013975D01*
X223491525Y-156895709D01*
X223682442Y-156791177D01*
X223828673Y-156708121D01*
X223915420Y-156654280D01*
X223920336Y-156650739D01*
X223992411Y-156614699D01*
X224131219Y-156559793D01*
X224322186Y-156490765D01*
X224550736Y-156412357D01*
X224802295Y-156329312D01*
X225062287Y-156246374D01*
X225316138Y-156168287D01*
X225549274Y-156099792D01*
X225747118Y-156045634D01*
X225873666Y-156015059D01*
X226102930Y-155995814D01*
X226333409Y-156029422D01*
X226549755Y-156107420D01*
X226736617Y-156221344D01*
X226878645Y-156362728D01*
X226960488Y-156523109D01*
X226974333Y-156621994D01*
X226947672Y-156729190D01*
X226873917Y-156885233D01*
X226762405Y-157075851D01*
X226622477Y-157286773D01*
X226463470Y-157503730D01*
X226294724Y-157712451D01*
X226167485Y-157854902D01*
X226001549Y-158034564D01*
X225803676Y-158253556D01*
X225596553Y-158486522D01*
X225402866Y-158708103D01*
X225368015Y-158748500D01*
X225170421Y-158974917D01*
X224940597Y-159233210D01*
X224704852Y-159494082D01*
X224489492Y-159728237D01*
X224455659Y-159764500D01*
X224247919Y-159990779D01*
X224016892Y-160249267D01*
X223788385Y-160510708D01*
X223588203Y-160745844D01*
X223556810Y-160783551D01*
X223385964Y-160987474D01*
X223209895Y-161193887D01*
X223046371Y-161382194D01*
X222913160Y-161531801D01*
X222881153Y-161566717D01*
X222646619Y-161823213D01*
X222419260Y-162077967D01*
X222206850Y-162321742D01*
X222017167Y-162545303D01*
X221857987Y-162739415D01*
X221737085Y-162894840D01*
X221662239Y-163002343D01*
X221644303Y-163035749D01*
X221603764Y-163174408D01*
X221624994Y-163257527D01*
X221712886Y-163291289D01*
X221842310Y-163285969D01*
X221997947Y-163253526D01*
X222214765Y-163189896D01*
X222477722Y-163100749D01*
X222771778Y-162991758D01*
X223081893Y-162868597D01*
X223393024Y-162736936D01*
X223690131Y-162602448D01*
X223820500Y-162539948D01*
X224063215Y-162426100D01*
X224316430Y-162315741D01*
X224554010Y-162219747D01*
X224749815Y-162148990D01*
X224792852Y-162135405D01*
X225013651Y-162060917D01*
X225252113Y-161968049D01*
X225462585Y-161874784D01*
X225494669Y-161858993D01*
X225716742Y-161754410D01*
X225996493Y-161633298D01*
X226310897Y-161504726D01*
X226636927Y-161377758D01*
X226951556Y-161261463D01*
X227231759Y-161164907D01*
X227361530Y-161123900D01*
X227614043Y-161054655D01*
X227800202Y-161021084D01*
X227930103Y-161022484D01*
X228013847Y-161058153D01*
X228032979Y-161077210D01*
X228058204Y-161131264D01*
X228039778Y-161201710D01*
X227981442Y-161299460D01*
X227898593Y-161426931D01*
X227823313Y-161545855D01*
X227808657Y-161569639D01*
X227740973Y-161646171D01*
X227623937Y-161746996D01*
X227480624Y-161852560D01*
X227452628Y-161871341D01*
X227339821Y-161940618D01*
X227179417Y-162032277D01*
X226985269Y-162139103D01*
X226771231Y-162253884D01*
X226551158Y-162369407D01*
X226338901Y-162478459D01*
X226148316Y-162573826D01*
X225993255Y-162648297D01*
X225887572Y-162694658D01*
X225848243Y-162706667D01*
X225800117Y-162725337D01*
X225686292Y-162778145D01*
X225516247Y-162860284D01*
X225299464Y-162966947D01*
X225045420Y-163093327D01*
X224763597Y-163234618D01*
X224463473Y-163386014D01*
X224154529Y-163542708D01*
X223846244Y-163699893D01*
X223548098Y-163852764D01*
X223269571Y-163996512D01*
X223020142Y-164126333D01*
X222809292Y-164237419D01*
X222646499Y-164324964D01*
X222550500Y-164378727D01*
X222266777Y-164541066D01*
X222032605Y-164667099D01*
X221826733Y-164766946D01*
X221627907Y-164850724D01*
X221414875Y-164928552D01*
X221347792Y-164951323D01*
X221124102Y-165020561D01*
X220945541Y-165058128D01*
X220780013Y-165067068D01*
X220595423Y-165050423D01*
X220484305Y-165033180D01*
X220260409Y-164962167D01*
X220075217Y-164826716D01*
X219919396Y-164619044D01*
X219864097Y-164515833D01*
X219741623Y-164191190D01*
X219701880Y-163878123D01*
X219745260Y-163570300D01*
X219872154Y-163261390D01*
X219949639Y-163131051D01*
X220013150Y-163048041D01*
X220129330Y-162911987D01*
X220291456Y-162730186D01*
X220492808Y-162509938D01*
X220726665Y-162258542D01*
X220986306Y-161983296D01*
X221265010Y-161691498D01*
X221487037Y-161461506D01*
X221773085Y-161165224D01*
X222046022Y-160879944D01*
X222299068Y-160612933D01*
X222525445Y-160371458D01*
X222718374Y-160162786D01*
X222871077Y-159994187D01*
X222976775Y-159872926D01*
X223023191Y-159814522D01*
X223127977Y-159672670D01*
X223269689Y-159490559D01*
X223436372Y-159282586D01*
X223616073Y-159063146D01*
X223796838Y-158846635D01*
X223966714Y-158647448D01*
X224113746Y-158479981D01*
X224225982Y-158358630D01*
X224261155Y-158323657D01*
X224394938Y-158175092D01*
X224489864Y-158025991D01*
X224537951Y-157893254D01*
X224531223Y-157793780D01*
X224519807Y-157775806D01*
X224473324Y-157735114D01*
X224411332Y-157714510D01*
X224325857Y-157716603D01*
X224208924Y-157744002D01*
X224052561Y-157799315D01*
X223848792Y-157885151D01*
X223589645Y-158004117D01*
X223267145Y-158158824D01*
X223100833Y-158240010D01*
X222573700Y-158510856D01*
X221995295Y-158831014D01*
X221377385Y-159193278D01*
X220731742Y-159590443D01*
X220070134Y-160015304D01*
X219404330Y-160460656D01*
X218885294Y-160820699D01*
X218592076Y-161011743D01*
X218343689Y-161138392D01*
X218133364Y-161203377D01*
X217954333Y-161209429D01*
X217931122Y-161205680D01*
X217757507Y-161134881D01*
X217590500Y-160998907D01*
X217448958Y-160816362D01*
X217366477Y-160648622D01*
X217326427Y-160512437D01*
X217297396Y-160358698D01*
X217281218Y-160209234D01*
X217279726Y-160085872D01*
X217294753Y-160010439D01*
X217311750Y-159997251D01*
X217350172Y-159964793D01*
X217418635Y-159880318D01*
X217491666Y-159777572D01*
X217605351Y-159618246D01*
X217732993Y-159452490D01*
X217800010Y-159371264D01*
X217906693Y-159231984D01*
X218009578Y-159072554D01*
X218095924Y-158915737D01*
X218152990Y-158784293D01*
X218169000Y-158712103D01*
X218134687Y-158646272D01*
X218102037Y-158626029D01*
X218006743Y-158606314D01*
X217884987Y-158600988D01*
X217769974Y-158609047D01*
X217694912Y-158629489D01*
X217684663Y-158638626D01*
X217637611Y-158678228D01*
X217538790Y-158743025D01*
X217427990Y-158808420D01*
X217313086Y-158887411D01*
X217149934Y-159019944D01*
X216948067Y-159197676D01*
X216717020Y-159412266D01*
X216516213Y-159606210D01*
X216150148Y-159955245D01*
X215833242Y-160235425D01*
X215565508Y-160446743D01*
X215346958Y-160589190D01*
X215177602Y-160662757D01*
X215102108Y-160673862D01*
X214949280Y-160639956D01*
X214782558Y-160553298D01*
X214631272Y-160433936D01*
X214524755Y-160301919D01*
X214507890Y-160267703D01*
X214442737Y-160008122D01*
X214461604Y-159743889D01*
X214564053Y-159476289D01*
X214749646Y-159206605D01*
X214937563Y-159008983D01*
X215189333Y-158770378D01*
X215424386Y-158544673D01*
X215635884Y-158338686D01*
X215816988Y-158159237D01*
X215960858Y-158013143D01*
X216060657Y-157907223D01*
X216109544Y-157848297D01*
X216111685Y-157838333D01*
X216055988Y-157852251D01*
X215932779Y-157891222D01*
X215754008Y-157951071D01*
X215531623Y-158027626D01*
X215277576Y-158116712D01*
X215003815Y-158214155D01*
X214722291Y-158315781D01*
X214444953Y-158417416D01*
X214304989Y-158469396D01*
X213991511Y-158578946D01*
X213651704Y-158684775D01*
X213301773Y-158782929D01*
X212957922Y-158869456D01*
X212636358Y-158940401D01*
X212353283Y-158991813D01*
X212124903Y-159019739D01*
X212032812Y-159023667D01*
X211731421Y-159001166D01*
X211407178Y-158938445D01*
X211079858Y-158842675D01*
X210769236Y-158721029D01*
X210495086Y-158580677D01*
X210277183Y-158428792D01*
X210204703Y-158360667D01*
X210055677Y-158157192D01*
X209976843Y-157928388D01*
X209962594Y-157657126D01*
X209964490Y-157627204D01*
X209985486Y-157471024D01*
X210031577Y-157332954D01*
X210115790Y-157178213D01*
X210157053Y-157113107D01*
X210279233Y-156899744D01*
X210339034Y-156737039D01*
X210338729Y-156628206D01*
X210280597Y-156576457D01*
X210166913Y-156585004D01*
X209999954Y-156657062D01*
X209883351Y-156726795D01*
X209732203Y-156810363D01*
X209523963Y-156906029D01*
X209283095Y-157003149D01*
X209084573Y-157074326D01*
X208863122Y-157151374D01*
X208652605Y-157228724D01*
X208475417Y-157297886D01*
X208353956Y-157350368D01*
X208345093Y-157354691D01*
X208143491Y-157439614D01*
X207889044Y-157524842D01*
X207613091Y-157601658D01*
X207346971Y-157661349D01*
X207122023Y-157695197D01*
X207120000Y-157695384D01*
X206808296Y-157697520D01*
X206465306Y-157647349D01*
X206075949Y-157542586D01*
X206044774Y-157532566D01*
X205799914Y-157426838D01*
X205583534Y-157283753D01*
X205413283Y-157117858D01*
X205306806Y-156943696D01*
X205296922Y-156916202D01*
X205253041Y-156782651D01*
X205214237Y-156699867D01*
X205165722Y-156666810D01*
X205092708Y-156682444D01*
X204980408Y-156745730D01*
X204814034Y-156855629D01*
X204777966Y-156879771D01*
X204488566Y-157057192D01*
X204230161Y-157179299D01*
X204068952Y-157234032D01*
X203667881Y-157334928D01*
X203305638Y-157396934D01*
X202991415Y-157419286D01*
X202734407Y-157401219D01*
X202578513Y-157358134D01*
X202355779Y-157230056D01*
X202129603Y-157036406D01*
X201917949Y-156793525D01*
X201843604Y-156689558D01*
X201729068Y-156525984D01*
X201608618Y-156363887D01*
X201507752Y-156237550D01*
X201505127Y-156234475D01*
X201435032Y-156157617D01*
X201367810Y-156104381D01*
X201289616Y-156073891D01*
X201186602Y-156065269D01*
X201044924Y-156077641D01*
X200850736Y-156110129D01*
X200590191Y-156161858D01*
X200535374Y-156173104D01*
X200103196Y-156250938D01*
X199729700Y-156295196D01*
X199420535Y-156305494D01*
X199181351Y-156281445D01*
X199129090Y-156268899D01*
X198933963Y-156178668D01*
X198733870Y-156023834D01*
X198639987Y-155922332D01*
X207378359Y-155922332D01*
X207394329Y-155975530D01*
X207458408Y-156009589D01*
X207466315Y-156012544D01*
X207537978Y-156023418D01*
X207641594Y-156011166D01*
X207784989Y-155973171D01*
X207975987Y-155906818D01*
X208222414Y-155809489D01*
X208532095Y-155678568D01*
X208751401Y-155582856D01*
X209147067Y-155406798D01*
X209579381Y-155211131D01*
X210031257Y-155003822D01*
X210485607Y-154792837D01*
X210925344Y-154586145D01*
X211333382Y-154391713D01*
X211692631Y-154217508D01*
X211903261Y-154113203D01*
X212203154Y-153955746D01*
X212429607Y-153818902D01*
X212589533Y-153696617D01*
X212689848Y-153582835D01*
X212737466Y-153471498D01*
X212742120Y-153378576D01*
X212726342Y-153294985D01*
X212683997Y-153250194D01*
X212590682Y-153224747D01*
X212538666Y-153216387D01*
X212241288Y-153197007D01*
X211903112Y-153217004D01*
X211556373Y-153272922D01*
X211254333Y-153354177D01*
X211023665Y-153441307D01*
X210742384Y-153563502D01*
X210431317Y-153710387D01*
X210111293Y-153871586D01*
X209803137Y-154036725D01*
X209527678Y-154195429D01*
X209378434Y-154288653D01*
X209186927Y-154417455D01*
X208967867Y-154571583D01*
X208731226Y-154743323D01*
X208486971Y-154924961D01*
X208245071Y-155108785D01*
X208015498Y-155287079D01*
X207808218Y-155452131D01*
X207633202Y-155596226D01*
X207500420Y-155711652D01*
X207419839Y-155790693D01*
X207400015Y-155819466D01*
X207378359Y-155922332D01*
X198639987Y-155922332D01*
X198546583Y-155821350D01*
X198389874Y-155588168D01*
X198363295Y-155538419D01*
X198288828Y-155384454D01*
X198249960Y-155272203D01*
X198239632Y-155170243D01*
X198250784Y-155047154D01*
X198251592Y-155041237D01*
X198280279Y-154901148D01*
X199917583Y-154901148D01*
X199928233Y-154986523D01*
X199987626Y-155032757D01*
X200101812Y-155040678D01*
X200276844Y-155011112D01*
X200518772Y-154944887D01*
X200719376Y-154881054D01*
X201141192Y-154729211D01*
X201506059Y-154568287D01*
X201841614Y-154385588D01*
X201966536Y-154308229D01*
X202101308Y-154225590D01*
X202281958Y-154119482D01*
X202479827Y-154006593D01*
X202590333Y-153945055D01*
X202835302Y-153803398D01*
X203023027Y-153674832D01*
X203174537Y-153540164D01*
X203310856Y-153380200D01*
X203453012Y-153175745D01*
X203481733Y-153131351D01*
X203578712Y-152984487D01*
X203662229Y-152865658D01*
X203719569Y-152792626D01*
X203733772Y-152779228D01*
X203788292Y-152713197D01*
X203856710Y-152583567D01*
X203932459Y-152408897D01*
X204008973Y-152207745D01*
X204079682Y-151998669D01*
X204138020Y-151800227D01*
X204177419Y-151630977D01*
X204191311Y-151509476D01*
X204190142Y-151489668D01*
X204139600Y-151373037D01*
X204031060Y-151304974D01*
X203880152Y-151292249D01*
X203780855Y-151312444D01*
X203621244Y-151380402D01*
X203410320Y-151501242D01*
X203156843Y-151668182D01*
X202869577Y-151874443D01*
X202557282Y-152113247D01*
X202228720Y-152377813D01*
X201892655Y-152661361D01*
X201557846Y-152957113D01*
X201233057Y-153258288D01*
X201098464Y-153387964D01*
X200733641Y-153754069D01*
X200437748Y-154073516D01*
X200209835Y-154347454D01*
X200048952Y-154577030D01*
X199954150Y-154763391D01*
X199949626Y-154775804D01*
X199917583Y-154901148D01*
X198280279Y-154901148D01*
X198289375Y-154856735D01*
X198356208Y-154664607D01*
X198458779Y-154450968D01*
X198603773Y-154201934D01*
X198797879Y-153903623D01*
X198803678Y-153895030D01*
X199141532Y-153420670D01*
X199493695Y-152981226D01*
X199883073Y-152549250D01*
X200176186Y-152250333D01*
X200741024Y-151722301D01*
X201289183Y-151274164D01*
X201820004Y-150906293D01*
X202332827Y-150619056D01*
X202826992Y-150412825D01*
X203301837Y-150287969D01*
X203754500Y-150244869D01*
X203943383Y-150246689D01*
X204086420Y-150259319D01*
X204216277Y-150289728D01*
X204365620Y-150344884D01*
X204507241Y-150405447D01*
X204755852Y-150526837D01*
X205009199Y-150672297D01*
X205244966Y-150827388D01*
X205440835Y-150977671D01*
X205548924Y-151079402D01*
X205602573Y-151130472D01*
X205654813Y-151154787D01*
X205716085Y-151146636D01*
X205796830Y-151100306D01*
X205907487Y-151010085D01*
X206058499Y-150870261D01*
X206224956Y-150709534D01*
X206352708Y-150583007D01*
X206493635Y-150438819D01*
X206651365Y-150272904D01*
X206829526Y-150081195D01*
X207031747Y-149859626D01*
X207261656Y-149604128D01*
X207522882Y-149310637D01*
X207819053Y-148975085D01*
X208153798Y-148593405D01*
X208530746Y-148161531D01*
X208953525Y-147675396D01*
X209425763Y-147130933D01*
X209683400Y-146833437D01*
X210014959Y-146451497D01*
X210348421Y-146069400D01*
X210676586Y-145695266D01*
X210992254Y-145337218D01*
X211288227Y-145003377D01*
X211557305Y-144701866D01*
X211792291Y-144440806D01*
X211985983Y-144228320D01*
X212122416Y-144081770D01*
X212342804Y-143846370D01*
X212569766Y-143599180D01*
X212787595Y-143357643D01*
X212980584Y-143139202D01*
X213133026Y-142961301D01*
X213153237Y-142937000D01*
X213344087Y-142697884D01*
X213536089Y-142442314D01*
X213722068Y-142181345D01*
X213894849Y-141926035D01*
X214047258Y-141687439D01*
X214172118Y-141476614D01*
X214262257Y-141304615D01*
X214310497Y-141182500D01*
X214316666Y-141144231D01*
X214354881Y-141086542D01*
X214463211Y-141058147D01*
X214632182Y-141059459D01*
G36*
X165912270Y-111150123D02*
G01*
X165946741Y-111155775D01*
X165992716Y-111165334D01*
X166051929Y-111179348D01*
X166126118Y-111198362D01*
X166217016Y-111222924D01*
X166326361Y-111253581D01*
X166455886Y-111290879D01*
X166607329Y-111335365D01*
X166782423Y-111387586D01*
X166982905Y-111448088D01*
X167210511Y-111517420D01*
X167466975Y-111596127D01*
X167754034Y-111684756D01*
X168073422Y-111783854D01*
X168426876Y-111893968D01*
X168816130Y-112015645D01*
X169242921Y-112149431D01*
X169708984Y-112295874D01*
X170216054Y-112455519D01*
X170765866Y-112628915D01*
X171360157Y-112816608D01*
X172000662Y-113019144D01*
X172689116Y-113237071D01*
X173427255Y-113470935D01*
X174216815Y-113721283D01*
X175059530Y-113988662D01*
X175957136Y-114273619D01*
X176911370Y-114576700D01*
X177923966Y-114898453D01*
X178996659Y-115239424D01*
X180131186Y-115600160D01*
X181329282Y-115981207D01*
X182592683Y-116383114D01*
X183923123Y-116806426D01*
X185322339Y-117251690D01*
X186792066Y-117719453D01*
X188334039Y-118210262D01*
X189949994Y-118724664D01*
X191641666Y-119263206D01*
X193410792Y-119826434D01*
X194985473Y-120327776D01*
X196512993Y-120814135D01*
X198020830Y-121294281D01*
X199506961Y-121767566D01*
X200969361Y-122233345D01*
X202406007Y-122690973D01*
X203814876Y-123139804D01*
X205193943Y-123579193D01*
X206541186Y-124008494D01*
X207854581Y-124427061D01*
X209132104Y-124834248D01*
X210371731Y-125229411D01*
X211571440Y-125611903D01*
X212729206Y-125981079D01*
X213843006Y-126336293D01*
X214910817Y-126676900D01*
X215930614Y-127002254D01*
X216900375Y-127311710D01*
X217818075Y-127604621D01*
X218681691Y-127880342D01*
X219489200Y-128138228D01*
X220238578Y-128377634D01*
X220927801Y-128597912D01*
X221554846Y-128798419D01*
X222117689Y-128978507D01*
X222614307Y-129137532D01*
X223042676Y-129274849D01*
X223400772Y-129389810D01*
X223686573Y-129481772D01*
X223898054Y-129550087D01*
X224033192Y-129594112D01*
X224089963Y-129613199D01*
X224091559Y-129613853D01*
X224181909Y-129690433D01*
X224245453Y-129789529D01*
X224272758Y-129869142D01*
X224278786Y-129942880D01*
X224257012Y-130018217D01*
X224200915Y-130102627D01*
X224103969Y-130203584D01*
X223959653Y-130328563D01*
X223761441Y-130485038D01*
X223502811Y-130680482D01*
X223402675Y-130755115D01*
X222590513Y-131359199D01*
X225512673Y-132288466D01*
X225992814Y-132441412D01*
X226450527Y-132587714D01*
X226879229Y-132725236D01*
X227272340Y-132851843D01*
X227623278Y-132965402D01*
X227925462Y-133063777D01*
X228172309Y-133144834D01*
X228357240Y-133206438D01*
X228473671Y-133246454D01*
X228513957Y-133261950D01*
X228587274Y-133331766D01*
X228646684Y-133430196D01*
X228674032Y-133505769D01*
X228682166Y-133575785D01*
X228664804Y-133647178D01*
X228615662Y-133726877D01*
X228528460Y-133821815D01*
X228396913Y-133938923D01*
X228214739Y-134085133D01*
X227975656Y-134267376D01*
X227705000Y-134469142D01*
X227446378Y-134663227D01*
X227226180Y-134833060D01*
X227050744Y-134973462D01*
X226926409Y-135079257D01*
X226859513Y-135145266D01*
X226851827Y-135166029D01*
X226900922Y-135181912D01*
X227024205Y-135221389D01*
X227215179Y-135282388D01*
X227467350Y-135362839D01*
X227774221Y-135460671D01*
X228129296Y-135573815D01*
X228526080Y-135700200D01*
X228958077Y-135837755D01*
X229418791Y-135984411D01*
X229851934Y-136122252D01*
X230332777Y-136275602D01*
X230790532Y-136422265D01*
X231218722Y-136560122D01*
X231610870Y-136687057D01*
X231960499Y-136800953D01*
X232261133Y-136899693D01*
X232506294Y-136981160D01*
X232689506Y-137043237D01*
X232804291Y-137083806D01*
X232843732Y-137100173D01*
X232921827Y-137214214D01*
X232949128Y-137363936D01*
X232922199Y-137503953D01*
X232861812Y-137587356D01*
X232752328Y-137691365D01*
X232615990Y-137799490D01*
X232475039Y-137895239D01*
X232351719Y-137962119D01*
X232274764Y-137984000D01*
X232194076Y-137972857D01*
X232063163Y-137937514D01*
X231872530Y-137875100D01*
X231631000Y-137789403D01*
X231544536Y-137759894D01*
X231384669Y-137707280D01*
X231158741Y-137633913D01*
X230874097Y-137542148D01*
X230538080Y-137434337D01*
X230158035Y-137312836D01*
X229741305Y-137179996D01*
X229295234Y-137038172D01*
X228827166Y-136889717D01*
X228540666Y-136799024D01*
X228048532Y-136643266D01*
X227562979Y-136489434D01*
X227092802Y-136340325D01*
X226646797Y-136198735D01*
X226233757Y-136067458D01*
X225862478Y-135949292D01*
X225541753Y-135847032D01*
X225280378Y-135763475D01*
X225087148Y-135701415D01*
X225027000Y-135681970D01*
X224861854Y-135628788D01*
X224625191Y-135553122D01*
X224326252Y-135457903D01*
X223974281Y-135346065D01*
X223578523Y-135220537D01*
X223148220Y-135084252D01*
X222692615Y-134940142D01*
X222220953Y-134791137D01*
X221742477Y-134640170D01*
X221682666Y-134621313D01*
X221219934Y-134475366D01*
X220775177Y-134334960D01*
X220355957Y-134202489D01*
X219969832Y-134080349D01*
X219624363Y-133970934D01*
X219327110Y-133876639D01*
X219085634Y-133799859D01*
X218907494Y-133742989D01*
X218800250Y-133708424D01*
X218782833Y-133702695D01*
X218727266Y-133684772D01*
X218593402Y-133641903D01*
X218383613Y-133574844D01*
X218100272Y-133484354D01*
X217745754Y-133371187D01*
X217322430Y-133236101D01*
X216832675Y-133079853D01*
X216828995Y-133078679D01*
X220360322Y-133078679D01*
X220409212Y-133100173D01*
X220530016Y-133143594D01*
X220714480Y-133206348D01*
X220954346Y-133285842D01*
X221241360Y-133379484D01*
X221567266Y-133484678D01*
X221923808Y-133598832D01*
X222302729Y-133719352D01*
X222695775Y-133843645D01*
X223094688Y-133969117D01*
X223491215Y-134093175D01*
X223877098Y-134213225D01*
X224244082Y-134326673D01*
X224583911Y-134430927D01*
X224888329Y-134523393D01*
X225149080Y-134601476D01*
X225357909Y-134662585D01*
X225506560Y-134704124D01*
X225586777Y-134723502D01*
X225598500Y-134724208D01*
X225645044Y-134689992D01*
X225747876Y-134614372D01*
X225895077Y-134506111D01*
X226074732Y-134373974D01*
X226242155Y-134250829D01*
X226843477Y-133808526D01*
X224202519Y-132968670D01*
X221561562Y-132128814D01*
X220945353Y-132588946D01*
X220751181Y-132736690D01*
X220585559Y-132868013D01*
X220458570Y-132974474D01*
X220380297Y-133047634D01*
X220360322Y-133078679D01*
X216828995Y-133078679D01*
X216278862Y-132903199D01*
X215663365Y-132706895D01*
X214988555Y-132491699D01*
X214256807Y-132258367D01*
X213470494Y-132007655D01*
X212631989Y-131740320D01*
X211743666Y-131457119D01*
X210807897Y-131158809D01*
X209827057Y-130846145D01*
X208803518Y-130519885D01*
X207739653Y-130180785D01*
X206637837Y-129829602D01*
X205500441Y-129467093D01*
X204329840Y-129094013D01*
X203128407Y-128711120D01*
X201898515Y-128319171D01*
X200642537Y-127918921D01*
X199362846Y-127511128D01*
X198061817Y-127096548D01*
X196981166Y-126752203D01*
X175433500Y-119886210D01*
X175421980Y-120309688D01*
X175422427Y-120368476D01*
X175424650Y-120509099D01*
X175428589Y-120728747D01*
X175434185Y-121024607D01*
X175441375Y-121393870D01*
X175450102Y-121833724D01*
X175460305Y-122341357D01*
X175471923Y-122913958D01*
X175484897Y-123548717D01*
X175499167Y-124242822D01*
X175514672Y-124993462D01*
X175531353Y-125797825D01*
X175549150Y-126653101D01*
X175568002Y-127556478D01*
X175587850Y-128505146D01*
X175608633Y-129496292D01*
X175630292Y-130527106D01*
X175652766Y-131594776D01*
X175675996Y-132696492D01*
X175699921Y-133829442D01*
X175724481Y-134990814D01*
X175749617Y-136177799D01*
X175775268Y-137387584D01*
X175801375Y-138617359D01*
X175827876Y-139864311D01*
X175854713Y-141125631D01*
X175881825Y-142398507D01*
X175909153Y-143680127D01*
X175936635Y-144967680D01*
X175964213Y-146258356D01*
X175991826Y-147549343D01*
X176019413Y-148837830D01*
X176046916Y-150121005D01*
X176074274Y-151396058D01*
X176101427Y-152660177D01*
X176128314Y-153910552D01*
X176154877Y-155144370D01*
X176181055Y-156358821D01*
X176206787Y-157551093D01*
X176232014Y-158718376D01*
X176256676Y-159857858D01*
X176280713Y-160966727D01*
X176304064Y-162042174D01*
X176326671Y-163081386D01*
X176348472Y-164081553D01*
X176369407Y-165039862D01*
X176389417Y-165953504D01*
X176408442Y-166819667D01*
X176426422Y-167635539D01*
X176443296Y-168398309D01*
X176459004Y-169105167D01*
X176473487Y-169753301D01*
X176486684Y-170339900D01*
X176498536Y-170862152D01*
X176508982Y-171317247D01*
X176517963Y-171702373D01*
X176525418Y-172014720D01*
X176530248Y-172210500D01*
X176546756Y-172876785D01*
X176562674Y-173541279D01*
X176577900Y-174198470D01*
X176592332Y-174842848D01*
X176605869Y-175468903D01*
X176618408Y-176071125D01*
X176629848Y-176644003D01*
X176640087Y-177182026D01*
X176649022Y-177679684D01*
X176656552Y-178131467D01*
X176662575Y-178531865D01*
X176666988Y-178875366D01*
X176669691Y-179156461D01*
X176670582Y-179369638D01*
X176669557Y-179509389D01*
X176666516Y-179570201D01*
X176666372Y-179570829D01*
X176612109Y-179666851D01*
X176503927Y-179782306D01*
X176363463Y-179898422D01*
X176212353Y-179996426D01*
X176128441Y-180037538D01*
X176012160Y-180074439D01*
X175915058Y-180066132D01*
X175850550Y-180042411D01*
X175727547Y-179951696D01*
X175673794Y-179845059D01*
X175664224Y-179774577D01*
X175653818Y-179625595D01*
X175642790Y-179404272D01*
X175631355Y-179116767D01*
X175619726Y-178769241D01*
X175608117Y-178367853D01*
X175596740Y-177918762D01*
X175585810Y-177428128D01*
X175580058Y-177142333D01*
X175570537Y-176666414D01*
X175560689Y-176201705D01*
X175550748Y-175757583D01*
X175540949Y-175343423D01*
X175531526Y-174968601D01*
X175522713Y-174642491D01*
X175514744Y-174374470D01*
X175507856Y-174173912D01*
X175503108Y-174065067D01*
X175475833Y-173548967D01*
X173705465Y-174876871D01*
X173362173Y-175133488D01*
X173036408Y-175375317D01*
X172734973Y-175597425D01*
X172464671Y-175794876D01*
X172232304Y-175962738D01*
X172044677Y-176096075D01*
X171908591Y-176189953D01*
X171830852Y-176239437D01*
X171818661Y-176245365D01*
X171661365Y-176260287D01*
X171520161Y-176203419D01*
X171419167Y-176086819D01*
X171398069Y-176035059D01*
X171388485Y-175964529D01*
X171378077Y-175815380D01*
X171367053Y-175593654D01*
X171355623Y-175305392D01*
X171343995Y-174956636D01*
X171332377Y-174553427D01*
X171320978Y-174101807D01*
X171310007Y-173607816D01*
X171304054Y-173311167D01*
X171294565Y-172835625D01*
X171284763Y-172373110D01*
X171274877Y-171932694D01*
X171265136Y-171523449D01*
X171255770Y-171154448D01*
X171247008Y-170834764D01*
X171239081Y-170573471D01*
X171232216Y-170379640D01*
X171227163Y-170270816D01*
X171200166Y-169812799D01*
X169384653Y-171174968D01*
X169036392Y-171435461D01*
X168705171Y-171681660D01*
X168397771Y-171908632D01*
X168120970Y-172111444D01*
X167881548Y-172285160D01*
X167686285Y-172424848D01*
X167541960Y-172525574D01*
X167455353Y-172582403D01*
X167437025Y-172592337D01*
X167272421Y-172622823D01*
X167130557Y-172576530D01*
X167026737Y-172461017D01*
X166991848Y-172372405D01*
X166988180Y-172319973D01*
X166982773Y-172184132D01*
X166975655Y-171966124D01*
X166966855Y-171667187D01*
X166956401Y-171288562D01*
X166944322Y-170831490D01*
X166930646Y-170297209D01*
X166915402Y-169686961D01*
X166898618Y-169001985D01*
X166880323Y-168243522D01*
X166860544Y-167412811D01*
X166839312Y-166511093D01*
X166816654Y-165539607D01*
X166792598Y-164499594D01*
X166767174Y-163392293D01*
X166740409Y-162218946D01*
X166712332Y-160980791D01*
X166682972Y-159679069D01*
X166652357Y-158315021D01*
X166620515Y-156889885D01*
X166587476Y-155404903D01*
X166553267Y-153861313D01*
X166517917Y-152260357D01*
X166481455Y-150603275D01*
X166443908Y-148891306D01*
X166405307Y-147125690D01*
X166365678Y-145307668D01*
X166325050Y-143438479D01*
X166290013Y-141822370D01*
X166247345Y-139850986D01*
X166206521Y-137962596D01*
X166167508Y-136155549D01*
X166130273Y-134428194D01*
X166094785Y-132778878D01*
X166061009Y-131205951D01*
X166028915Y-129707761D01*
X165998468Y-128282656D01*
X165969636Y-126928986D01*
X165942386Y-125645098D01*
X165916686Y-124429341D01*
X165892503Y-123280064D01*
X165869804Y-122195615D01*
X165848557Y-121174343D01*
X165828729Y-120214596D01*
X165810287Y-119314723D01*
X165793198Y-118473072D01*
X165777430Y-117687992D01*
X165762949Y-116957831D01*
X165749725Y-116280938D01*
X165737722Y-115655661D01*
X165726910Y-115080350D01*
X165717255Y-114553351D01*
X165708724Y-114073015D01*
X165701285Y-113637689D01*
X165694905Y-113245722D01*
X165689551Y-112895463D01*
X165686955Y-112710736D01*
X166741671Y-112710736D01*
X166741811Y-112768531D01*
X166743750Y-112908307D01*
X166747433Y-113127397D01*
X166752801Y-113423135D01*
X166759797Y-113792857D01*
X166768363Y-114233895D01*
X166778443Y-114743584D01*
X166789979Y-115319258D01*
X166802913Y-115958252D01*
X166817188Y-116657898D01*
X166832747Y-117415532D01*
X166849533Y-118228488D01*
X166867487Y-119094099D01*
X166886553Y-120009699D01*
X166906672Y-120972624D01*
X166927789Y-121980206D01*
X166949845Y-123029780D01*
X166972783Y-124118681D01*
X166996545Y-125244242D01*
X167021075Y-126403797D01*
X167046315Y-127594680D01*
X167072206Y-128814226D01*
X167098693Y-130059769D01*
X167125718Y-131328642D01*
X167153223Y-132618180D01*
X167181150Y-133925718D01*
X167209443Y-135248588D01*
X167238044Y-136584126D01*
X167266896Y-137929664D01*
X167295941Y-139282539D01*
X167325122Y-140640082D01*
X167354381Y-141999630D01*
X167383662Y-143358515D01*
X167412906Y-144714072D01*
X167442057Y-146063635D01*
X167471056Y-147404538D01*
X167499847Y-148734115D01*
X167528372Y-150049700D01*
X167556574Y-151348628D01*
X167584396Y-152628232D01*
X167611779Y-153885847D01*
X167638667Y-155118806D01*
X167665002Y-156324444D01*
X167690727Y-157500095D01*
X167715784Y-158643094D01*
X167740117Y-159750773D01*
X167763667Y-160820467D01*
X167786377Y-161849511D01*
X167808190Y-162835239D01*
X167829048Y-163774984D01*
X167848895Y-164666080D01*
X167867672Y-165505862D01*
X167885323Y-166291665D01*
X167901789Y-167020821D01*
X167917014Y-167690665D01*
X167930941Y-168298532D01*
X167943510Y-168841754D01*
X167954667Y-169317667D01*
X167964352Y-169723605D01*
X167972508Y-170056901D01*
X167979079Y-170314891D01*
X167984007Y-170494906D01*
X167987234Y-170594283D01*
X167988167Y-170612622D01*
X168005415Y-170760650D01*
X168027511Y-170835543D01*
X168058272Y-170848829D01*
X168065214Y-170845455D01*
X168109467Y-170814161D01*
X168214396Y-170737350D01*
X168372923Y-170620278D01*
X168577970Y-170468200D01*
X168822460Y-170286373D01*
X169099314Y-170080051D01*
X169401454Y-169854491D01*
X169647558Y-169670500D01*
X170534394Y-169007076D01*
X172271188Y-169007076D01*
X172319346Y-171497788D01*
X172330769Y-172080157D01*
X172341102Y-172583431D01*
X172350620Y-173013168D01*
X172359599Y-173374927D01*
X172368317Y-173674270D01*
X172377048Y-173916754D01*
X172386070Y-174107940D01*
X172395659Y-174253387D01*
X172406089Y-174358654D01*
X172417639Y-174429302D01*
X172430584Y-174470890D01*
X172445200Y-174488976D01*
X172461763Y-174489122D01*
X172467803Y-174486122D01*
X172512212Y-174454660D01*
X172617073Y-174377705D01*
X172775159Y-174260638D01*
X172979244Y-174108839D01*
X173222100Y-173927689D01*
X173496500Y-173722569D01*
X173795219Y-173498859D01*
X173988411Y-173353976D01*
X175454666Y-172253785D01*
X175455536Y-171872309D01*
X175454863Y-171746685D01*
X175452560Y-171554945D01*
X175448815Y-171305963D01*
X175443816Y-171008612D01*
X175437749Y-170671767D01*
X175430802Y-170304300D01*
X175423163Y-169915086D01*
X175415019Y-169512997D01*
X175406557Y-169106908D01*
X175397965Y-168705691D01*
X175389430Y-168318221D01*
X175381140Y-167953371D01*
X175373282Y-167620015D01*
X175366043Y-167327026D01*
X175359612Y-167083277D01*
X175354174Y-166897643D01*
X175349919Y-166778997D01*
X175347053Y-166736233D01*
X175312060Y-166757910D01*
X175216416Y-166825299D01*
X175067154Y-166933241D01*
X174871303Y-167076578D01*
X174635896Y-167250152D01*
X174367962Y-167448805D01*
X174074535Y-167667380D01*
X173903288Y-167795371D01*
X173594450Y-168026364D01*
X173303763Y-168243567D01*
X173038863Y-168441292D01*
X172807384Y-168613848D01*
X172616962Y-168755547D01*
X172475232Y-168860699D01*
X172389828Y-168923615D01*
X172370677Y-168937426D01*
X172271188Y-169007076D01*
X170534394Y-169007076D01*
X171175471Y-168527500D01*
X171177235Y-168041977D01*
X171176417Y-167972295D01*
X171173793Y-167820299D01*
X171169415Y-167588320D01*
X171163330Y-167278692D01*
X171155590Y-166893745D01*
X171146243Y-166435813D01*
X171135341Y-165907227D01*
X171122932Y-165310319D01*
X171109066Y-164647421D01*
X171093793Y-163920866D01*
X171077163Y-163132986D01*
X171059226Y-162286112D01*
X171040031Y-161382577D01*
X171019629Y-160424713D01*
X170998068Y-159414852D01*
X170975400Y-158355326D01*
X170951673Y-157248466D01*
X170926937Y-156096607D01*
X170901242Y-154902078D01*
X170874639Y-153667213D01*
X170847176Y-152394343D01*
X170818903Y-151085801D01*
X170789871Y-149743918D01*
X170760129Y-148371028D01*
X170729726Y-146969461D01*
X170698714Y-145541550D01*
X170667140Y-144089627D01*
X170635056Y-142616024D01*
X170606716Y-141315875D01*
X170566862Y-139487278D01*
X170528869Y-137741544D01*
X170492703Y-136076894D01*
X170458327Y-134491546D01*
X170425709Y-132983718D01*
X170394811Y-131551629D01*
X170365600Y-130193498D01*
X170338040Y-128907545D01*
X170312096Y-127691987D01*
X170287733Y-126545043D01*
X170264917Y-125464932D01*
X170243611Y-124449874D01*
X170223782Y-123498086D01*
X170205394Y-122607788D01*
X170188412Y-121777198D01*
X170172801Y-121004535D01*
X170158526Y-120288018D01*
X170145552Y-119625865D01*
X170133844Y-119016296D01*
X170123367Y-118457529D01*
X170114085Y-117947783D01*
X170105965Y-117485277D01*
X170098971Y-117068229D01*
X170093067Y-116694858D01*
X170090554Y-116522983D01*
X171136666Y-116522983D01*
X171137584Y-116591327D01*
X171140305Y-116741941D01*
X171144778Y-116972448D01*
X171150951Y-117280471D01*
X171158775Y-117663635D01*
X171168197Y-118119563D01*
X171179167Y-118645879D01*
X171191635Y-119240204D01*
X171205548Y-119900165D01*
X171220857Y-120623382D01*
X171237511Y-121407482D01*
X171255457Y-122250085D01*
X171274647Y-123148817D01*
X171295028Y-124101301D01*
X171316549Y-125105159D01*
X171339161Y-126158017D01*
X171362811Y-127257496D01*
X171387449Y-128401221D01*
X171413025Y-129586815D01*
X171439486Y-130811902D01*
X171466783Y-132074104D01*
X171494863Y-133371046D01*
X171523678Y-134700351D01*
X171553174Y-136059643D01*
X171583303Y-137446544D01*
X171614011Y-138858679D01*
X171645250Y-140293671D01*
X171676967Y-141749143D01*
X171687000Y-142209198D01*
X171718811Y-143667992D01*
X171750162Y-145106055D01*
X171781000Y-146521048D01*
X171811275Y-147910637D01*
X171840937Y-149272483D01*
X171869935Y-150604251D01*
X171898218Y-151903605D01*
X171925735Y-153168207D01*
X171952435Y-154395720D01*
X171978269Y-155583809D01*
X172003185Y-156730137D01*
X172027133Y-157832367D01*
X172050061Y-158888163D01*
X172071920Y-159895187D01*
X172092658Y-160851104D01*
X172112225Y-161753577D01*
X172130570Y-162600270D01*
X172147642Y-163388845D01*
X172163391Y-164116966D01*
X172177766Y-164782296D01*
X172190717Y-165382500D01*
X172202192Y-165915240D01*
X172212140Y-166378180D01*
X172220512Y-166768983D01*
X172227257Y-167085313D01*
X172232323Y-167324833D01*
X172235660Y-167485206D01*
X172237217Y-167564097D01*
X172237333Y-167572056D01*
X172243518Y-167662559D01*
X172258464Y-167701944D01*
X172259103Y-167702000D01*
X172296385Y-167677382D01*
X172394437Y-167606917D01*
X172546393Y-167495686D01*
X172745385Y-167348771D01*
X172984549Y-167171252D01*
X173257018Y-166968211D01*
X173555924Y-166744730D01*
X173807955Y-166555780D01*
X175335037Y-165409561D01*
X175307782Y-164534364D01*
X175305187Y-164438196D01*
X175300822Y-164259975D01*
X175294743Y-164002295D01*
X175287008Y-163667749D01*
X175277674Y-163258932D01*
X175266797Y-162778436D01*
X175254436Y-162228856D01*
X175240647Y-161612786D01*
X175225487Y-160932819D01*
X175209014Y-160191549D01*
X175191285Y-159391570D01*
X175172356Y-158535475D01*
X175152285Y-157625859D01*
X175131129Y-156665315D01*
X175108946Y-155656438D01*
X175085792Y-154601820D01*
X175061725Y-153504055D01*
X175036801Y-152365738D01*
X175011078Y-151189462D01*
X174984613Y-149977821D01*
X174957463Y-148733409D01*
X174929686Y-147458819D01*
X174901338Y-146156645D01*
X174872476Y-144829481D01*
X174843159Y-143479921D01*
X174813442Y-142110559D01*
X174795266Y-141272329D01*
X174758753Y-139586448D01*
X174724097Y-137983281D01*
X174691260Y-136460897D01*
X174660207Y-135017366D01*
X174630899Y-133650756D01*
X174603299Y-132359135D01*
X174577372Y-131140574D01*
X174553079Y-129993140D01*
X174530384Y-128914904D01*
X174509250Y-127903933D01*
X174489640Y-126958296D01*
X174471516Y-126076064D01*
X174454842Y-125255303D01*
X174439581Y-124494084D01*
X174425696Y-123790475D01*
X174413149Y-123142545D01*
X174401904Y-122548364D01*
X174391924Y-122005999D01*
X174383172Y-121513520D01*
X174375610Y-121068996D01*
X174369202Y-120670496D01*
X174363911Y-120316088D01*
X174359700Y-120003842D01*
X174356531Y-119731827D01*
X174354368Y-119498110D01*
X174353174Y-119300762D01*
X174352911Y-119137851D01*
X174353544Y-119007447D01*
X174355034Y-118907617D01*
X174357344Y-118836431D01*
X174360439Y-118791958D01*
X174364138Y-118772548D01*
X174442778Y-118670974D01*
X174538699Y-118601884D01*
X174550202Y-118598615D01*
X174568221Y-118597762D01*
X174594741Y-118599948D01*
X174631749Y-118605797D01*
X174681231Y-118615934D01*
X174745172Y-118630981D01*
X174825559Y-118651563D01*
X174924376Y-118678304D01*
X175043611Y-118711828D01*
X175185249Y-118752757D01*
X175351275Y-118801717D01*
X175543676Y-118859331D01*
X175764438Y-118926223D01*
X176015546Y-119003017D01*
X176298986Y-119090336D01*
X176616744Y-119188805D01*
X176970807Y-119299047D01*
X177363159Y-119421686D01*
X177795787Y-119557347D01*
X178270677Y-119706652D01*
X178789814Y-119870225D01*
X179355184Y-120048692D01*
X179968774Y-120242674D01*
X180632568Y-120452797D01*
X181348554Y-120679684D01*
X182118717Y-120923959D01*
X182945042Y-121186245D01*
X183829515Y-121467168D01*
X184774124Y-121767349D01*
X185780852Y-122087414D01*
X186851687Y-122427987D01*
X187988613Y-122789690D01*
X189193618Y-123173148D01*
X190468686Y-123578985D01*
X191815804Y-124007824D01*
X193236958Y-124460290D01*
X194734132Y-124937006D01*
X196309314Y-125438596D01*
X196863285Y-125615004D01*
X219067442Y-132685844D01*
X219698188Y-132212994D01*
X220328933Y-131740144D01*
X220157909Y-131683136D01*
X220108063Y-131667117D01*
X219979756Y-131626113D01*
X219775205Y-131560832D01*
X219496625Y-131471979D01*
X219146229Y-131360258D01*
X218726235Y-131226377D01*
X218238856Y-131071040D01*
X217686308Y-130894954D01*
X217070807Y-130698823D01*
X216394567Y-130483354D01*
X215659803Y-130249253D01*
X214868731Y-129997224D01*
X214023567Y-129727974D01*
X213126524Y-129442208D01*
X212179819Y-129140633D01*
X211185666Y-128823952D01*
X210146282Y-128492873D01*
X209063880Y-128148101D01*
X207940676Y-127790342D01*
X206778885Y-127420300D01*
X205580723Y-127038683D01*
X204348405Y-126646195D01*
X203084146Y-126243542D01*
X201790160Y-125831430D01*
X200468664Y-125410565D01*
X199121873Y-124981652D01*
X197752001Y-124545397D01*
X196361264Y-124102505D01*
X195561775Y-123847905D01*
X171136666Y-116069681D01*
X171136666Y-116522983D01*
X170090554Y-116522983D01*
X170088219Y-116363384D01*
X170084392Y-116072024D01*
X170081551Y-115818998D01*
X170079660Y-115602524D01*
X170078686Y-115420822D01*
X170078592Y-115272109D01*
X170079343Y-115154605D01*
X170080905Y-115066529D01*
X170083243Y-115006099D01*
X170086322Y-114971534D01*
X170088518Y-114962450D01*
X170167118Y-114860954D01*
X170263027Y-114791887D01*
X170273940Y-114788880D01*
X170291282Y-114788217D01*
X170316907Y-114790483D01*
X170352667Y-114796260D01*
X170400415Y-114806131D01*
X170462004Y-114820679D01*
X170539287Y-114840487D01*
X170634116Y-114866139D01*
X170748345Y-114898218D01*
X170883826Y-114937306D01*
X171042412Y-114983986D01*
X171225955Y-115038843D01*
X171436310Y-115102458D01*
X171675328Y-115175415D01*
X171944862Y-115258297D01*
X172246765Y-115351687D01*
X172582890Y-115456168D01*
X172955089Y-115572324D01*
X173365217Y-115700737D01*
X173815124Y-115841990D01*
X174306665Y-115996667D01*
X174841691Y-116165350D01*
X175422057Y-116348623D01*
X176049614Y-116547068D01*
X176726215Y-116761270D01*
X177453714Y-116991810D01*
X178233962Y-117239272D01*
X179068814Y-117504239D01*
X179960121Y-117787295D01*
X180909736Y-118089021D01*
X181919513Y-118410002D01*
X182991304Y-118750820D01*
X184126962Y-119112058D01*
X185328340Y-119494300D01*
X186597290Y-119898129D01*
X187935666Y-120324127D01*
X189345319Y-120772878D01*
X190828104Y-121244965D01*
X192385873Y-121740971D01*
X194020478Y-122261479D01*
X195733772Y-122807071D01*
X195854188Y-122845418D01*
X197284460Y-123300882D01*
X198694720Y-123749952D01*
X200082817Y-124191942D01*
X201446599Y-124626168D01*
X202783915Y-125051946D01*
X204092613Y-125468590D01*
X205370541Y-125875417D01*
X206615548Y-126271742D01*
X207825483Y-126656881D01*
X208998193Y-127030147D01*
X210131528Y-127390858D01*
X211223335Y-127738329D01*
X212271463Y-128071874D01*
X213273761Y-128390810D01*
X214228077Y-128694452D01*
X215132259Y-128982115D01*
X215984155Y-129253114D01*
X216781615Y-129506766D01*
X217522487Y-129742385D01*
X218204619Y-129959287D01*
X218825859Y-130156788D01*
X219384056Y-130334202D01*
X219877059Y-130490845D01*
X220302715Y-130626033D01*
X220658874Y-130739081D01*
X220943383Y-130829305D01*
X221154092Y-130896020D01*
X221288848Y-130938540D01*
X221345500Y-130956183D01*
X221347263Y-130956666D01*
X221387268Y-130932864D01*
X221483152Y-130867154D01*
X221622803Y-130768086D01*
X221794109Y-130644208D01*
X221905261Y-130562844D01*
X222440922Y-130169021D01*
X166755166Y-112435305D01*
X166741671Y-112710736D01*
X165686955Y-112710736D01*
X165685191Y-112585260D01*
X165681792Y-112313461D01*
X165679321Y-112078416D01*
X165677746Y-111878472D01*
X165677033Y-111711978D01*
X165677151Y-111577283D01*
X165678066Y-111472735D01*
X165679746Y-111396683D01*
X165682157Y-111347475D01*
X165685268Y-111323460D01*
X165685945Y-111321589D01*
X165764434Y-111220300D01*
X165860525Y-111151142D01*
X165870898Y-111148353D01*
X165887568Y-111147831D01*
X165912270Y-111150123D01*
G37*
X165912270Y-111150123D02*
X165946741Y-111155775D01*
X165992716Y-111165334D01*
X166051929Y-111179348D01*
X166126118Y-111198362D01*
X166217016Y-111222924D01*
X166326361Y-111253581D01*
X166455886Y-111290879D01*
X166607329Y-111335365D01*
X166782423Y-111387586D01*
X166982905Y-111448088D01*
X167210511Y-111517420D01*
X167466975Y-111596127D01*
X167754034Y-111684756D01*
X168073422Y-111783854D01*
X168426876Y-111893968D01*
X168816130Y-112015645D01*
X169242921Y-112149431D01*
X169708984Y-112295874D01*
X170216054Y-112455519D01*
X170765866Y-112628915D01*
X171360157Y-112816608D01*
X172000662Y-113019144D01*
X172689116Y-113237071D01*
X173427255Y-113470935D01*
X174216815Y-113721283D01*
X175059530Y-113988662D01*
X175957136Y-114273619D01*
X176911370Y-114576700D01*
X177923966Y-114898453D01*
X178996659Y-115239424D01*
X180131186Y-115600160D01*
X181329282Y-115981207D01*
X182592683Y-116383114D01*
X183923123Y-116806426D01*
X185322339Y-117251690D01*
X186792066Y-117719453D01*
X188334039Y-118210262D01*
X189949994Y-118724664D01*
X191641666Y-119263206D01*
X193410792Y-119826434D01*
X194985473Y-120327776D01*
X196512993Y-120814135D01*
X198020830Y-121294281D01*
X199506961Y-121767566D01*
X200969361Y-122233345D01*
X202406007Y-122690973D01*
X203814876Y-123139804D01*
X205193943Y-123579193D01*
X206541186Y-124008494D01*
X207854581Y-124427061D01*
X209132104Y-124834248D01*
X210371731Y-125229411D01*
X211571440Y-125611903D01*
X212729206Y-125981079D01*
X213843006Y-126336293D01*
X214910817Y-126676900D01*
X215930614Y-127002254D01*
X216900375Y-127311710D01*
X217818075Y-127604621D01*
X218681691Y-127880342D01*
X219489200Y-128138228D01*
X220238578Y-128377634D01*
X220927801Y-128597912D01*
X221554846Y-128798419D01*
X222117689Y-128978507D01*
X222614307Y-129137532D01*
X223042676Y-129274849D01*
X223400772Y-129389810D01*
X223686573Y-129481772D01*
X223898054Y-129550087D01*
X224033192Y-129594112D01*
X224089963Y-129613199D01*
X224091559Y-129613853D01*
X224181909Y-129690433D01*
X224245453Y-129789529D01*
X224272758Y-129869142D01*
X224278786Y-129942880D01*
X224257012Y-130018217D01*
X224200915Y-130102627D01*
X224103969Y-130203584D01*
X223959653Y-130328563D01*
X223761441Y-130485038D01*
X223502811Y-130680482D01*
X223402675Y-130755115D01*
X222590513Y-131359199D01*
X225512673Y-132288466D01*
X225992814Y-132441412D01*
X226450527Y-132587714D01*
X226879229Y-132725236D01*
X227272340Y-132851843D01*
X227623278Y-132965402D01*
X227925462Y-133063777D01*
X228172309Y-133144834D01*
X228357240Y-133206438D01*
X228473671Y-133246454D01*
X228513957Y-133261950D01*
X228587274Y-133331766D01*
X228646684Y-133430196D01*
X228674032Y-133505769D01*
X228682166Y-133575785D01*
X228664804Y-133647178D01*
X228615662Y-133726877D01*
X228528460Y-133821815D01*
X228396913Y-133938923D01*
X228214739Y-134085133D01*
X227975656Y-134267376D01*
X227705000Y-134469142D01*
X227446378Y-134663227D01*
X227226180Y-134833060D01*
X227050744Y-134973462D01*
X226926409Y-135079257D01*
X226859513Y-135145266D01*
X226851827Y-135166029D01*
X226900922Y-135181912D01*
X227024205Y-135221389D01*
X227215179Y-135282388D01*
X227467350Y-135362839D01*
X227774221Y-135460671D01*
X228129296Y-135573815D01*
X228526080Y-135700200D01*
X228958077Y-135837755D01*
X229418791Y-135984411D01*
X229851934Y-136122252D01*
X230332777Y-136275602D01*
X230790532Y-136422265D01*
X231218722Y-136560122D01*
X231610870Y-136687057D01*
X231960499Y-136800953D01*
X232261133Y-136899693D01*
X232506294Y-136981160D01*
X232689506Y-137043237D01*
X232804291Y-137083806D01*
X232843732Y-137100173D01*
X232921827Y-137214214D01*
X232949128Y-137363936D01*
X232922199Y-137503953D01*
X232861812Y-137587356D01*
X232752328Y-137691365D01*
X232615990Y-137799490D01*
X232475039Y-137895239D01*
X232351719Y-137962119D01*
X232274764Y-137984000D01*
X232194076Y-137972857D01*
X232063163Y-137937514D01*
X231872530Y-137875100D01*
X231631000Y-137789403D01*
X231544536Y-137759894D01*
X231384669Y-137707280D01*
X231158741Y-137633913D01*
X230874097Y-137542148D01*
X230538080Y-137434337D01*
X230158035Y-137312836D01*
X229741305Y-137179996D01*
X229295234Y-137038172D01*
X228827166Y-136889717D01*
X228540666Y-136799024D01*
X228048532Y-136643266D01*
X227562979Y-136489434D01*
X227092802Y-136340325D01*
X226646797Y-136198735D01*
X226233757Y-136067458D01*
X225862478Y-135949292D01*
X225541753Y-135847032D01*
X225280378Y-135763475D01*
X225087148Y-135701415D01*
X225027000Y-135681970D01*
X224861854Y-135628788D01*
X224625191Y-135553122D01*
X224326252Y-135457903D01*
X223974281Y-135346065D01*
X223578523Y-135220537D01*
X223148220Y-135084252D01*
X222692615Y-134940142D01*
X222220953Y-134791137D01*
X221742477Y-134640170D01*
X221682666Y-134621313D01*
X221219934Y-134475366D01*
X220775177Y-134334960D01*
X220355957Y-134202489D01*
X219969832Y-134080349D01*
X219624363Y-133970934D01*
X219327110Y-133876639D01*
X219085634Y-133799859D01*
X218907494Y-133742989D01*
X218800250Y-133708424D01*
X218782833Y-133702695D01*
X218727266Y-133684772D01*
X218593402Y-133641903D01*
X218383613Y-133574844D01*
X218100272Y-133484354D01*
X217745754Y-133371187D01*
X217322430Y-133236101D01*
X216832675Y-133079853D01*
X216828995Y-133078679D01*
X220360322Y-133078679D01*
X220409212Y-133100173D01*
X220530016Y-133143594D01*
X220714480Y-133206348D01*
X220954346Y-133285842D01*
X221241360Y-133379484D01*
X221567266Y-133484678D01*
X221923808Y-133598832D01*
X222302729Y-133719352D01*
X222695775Y-133843645D01*
X223094688Y-133969117D01*
X223491215Y-134093175D01*
X223877098Y-134213225D01*
X224244082Y-134326673D01*
X224583911Y-134430927D01*
X224888329Y-134523393D01*
X225149080Y-134601476D01*
X225357909Y-134662585D01*
X225506560Y-134704124D01*
X225586777Y-134723502D01*
X225598500Y-134724208D01*
X225645044Y-134689992D01*
X225747876Y-134614372D01*
X225895077Y-134506111D01*
X226074732Y-134373974D01*
X226242155Y-134250829D01*
X226843477Y-133808526D01*
X224202519Y-132968670D01*
X221561562Y-132128814D01*
X220945353Y-132588946D01*
X220751181Y-132736690D01*
X220585559Y-132868013D01*
X220458570Y-132974474D01*
X220380297Y-133047634D01*
X220360322Y-133078679D01*
X216828995Y-133078679D01*
X216278862Y-132903199D01*
X215663365Y-132706895D01*
X214988555Y-132491699D01*
X214256807Y-132258367D01*
X213470494Y-132007655D01*
X212631989Y-131740320D01*
X211743666Y-131457119D01*
X210807897Y-131158809D01*
X209827057Y-130846145D01*
X208803518Y-130519885D01*
X207739653Y-130180785D01*
X206637837Y-129829602D01*
X205500441Y-129467093D01*
X204329840Y-129094013D01*
X203128407Y-128711120D01*
X201898515Y-128319171D01*
X200642537Y-127918921D01*
X199362846Y-127511128D01*
X198061817Y-127096548D01*
X196981166Y-126752203D01*
X175433500Y-119886210D01*
X175421980Y-120309688D01*
X175422427Y-120368476D01*
X175424650Y-120509099D01*
X175428589Y-120728747D01*
X175434185Y-121024607D01*
X175441375Y-121393870D01*
X175450102Y-121833724D01*
X175460305Y-122341357D01*
X175471923Y-122913958D01*
X175484897Y-123548717D01*
X175499167Y-124242822D01*
X175514672Y-124993462D01*
X175531353Y-125797825D01*
X175549150Y-126653101D01*
X175568002Y-127556478D01*
X175587850Y-128505146D01*
X175608633Y-129496292D01*
X175630292Y-130527106D01*
X175652766Y-131594776D01*
X175675996Y-132696492D01*
X175699921Y-133829442D01*
X175724481Y-134990814D01*
X175749617Y-136177799D01*
X175775268Y-137387584D01*
X175801375Y-138617359D01*
X175827876Y-139864311D01*
X175854713Y-141125631D01*
X175881825Y-142398507D01*
X175909153Y-143680127D01*
X175936635Y-144967680D01*
X175964213Y-146258356D01*
X175991826Y-147549343D01*
X176019413Y-148837830D01*
X176046916Y-150121005D01*
X176074274Y-151396058D01*
X176101427Y-152660177D01*
X176128314Y-153910552D01*
X176154877Y-155144370D01*
X176181055Y-156358821D01*
X176206787Y-157551093D01*
X176232014Y-158718376D01*
X176256676Y-159857858D01*
X176280713Y-160966727D01*
X176304064Y-162042174D01*
X176326671Y-163081386D01*
X176348472Y-164081553D01*
X176369407Y-165039862D01*
X176389417Y-165953504D01*
X176408442Y-166819667D01*
X176426422Y-167635539D01*
X176443296Y-168398309D01*
X176459004Y-169105167D01*
X176473487Y-169753301D01*
X176486684Y-170339900D01*
X176498536Y-170862152D01*
X176508982Y-171317247D01*
X176517963Y-171702373D01*
X176525418Y-172014720D01*
X176530248Y-172210500D01*
X176546756Y-172876785D01*
X176562674Y-173541279D01*
X176577900Y-174198470D01*
X176592332Y-174842848D01*
X176605869Y-175468903D01*
X176618408Y-176071125D01*
X176629848Y-176644003D01*
X176640087Y-177182026D01*
X176649022Y-177679684D01*
X176656552Y-178131467D01*
X176662575Y-178531865D01*
X176666988Y-178875366D01*
X176669691Y-179156461D01*
X176670582Y-179369638D01*
X176669557Y-179509389D01*
X176666516Y-179570201D01*
X176666372Y-179570829D01*
X176612109Y-179666851D01*
X176503927Y-179782306D01*
X176363463Y-179898422D01*
X176212353Y-179996426D01*
X176128441Y-180037538D01*
X176012160Y-180074439D01*
X175915058Y-180066132D01*
X175850550Y-180042411D01*
X175727547Y-179951696D01*
X175673794Y-179845059D01*
X175664224Y-179774577D01*
X175653818Y-179625595D01*
X175642790Y-179404272D01*
X175631355Y-179116767D01*
X175619726Y-178769241D01*
X175608117Y-178367853D01*
X175596740Y-177918762D01*
X175585810Y-177428128D01*
X175580058Y-177142333D01*
X175570537Y-176666414D01*
X175560689Y-176201705D01*
X175550748Y-175757583D01*
X175540949Y-175343423D01*
X175531526Y-174968601D01*
X175522713Y-174642491D01*
X175514744Y-174374470D01*
X175507856Y-174173912D01*
X175503108Y-174065067D01*
X175475833Y-173548967D01*
X173705465Y-174876871D01*
X173362173Y-175133488D01*
X173036408Y-175375317D01*
X172734973Y-175597425D01*
X172464671Y-175794876D01*
X172232304Y-175962738D01*
X172044677Y-176096075D01*
X171908591Y-176189953D01*
X171830852Y-176239437D01*
X171818661Y-176245365D01*
X171661365Y-176260287D01*
X171520161Y-176203419D01*
X171419167Y-176086819D01*
X171398069Y-176035059D01*
X171388485Y-175964529D01*
X171378077Y-175815380D01*
X171367053Y-175593654D01*
X171355623Y-175305392D01*
X171343995Y-174956636D01*
X171332377Y-174553427D01*
X171320978Y-174101807D01*
X171310007Y-173607816D01*
X171304054Y-173311167D01*
X171294565Y-172835625D01*
X171284763Y-172373110D01*
X171274877Y-171932694D01*
X171265136Y-171523449D01*
X171255770Y-171154448D01*
X171247008Y-170834764D01*
X171239081Y-170573471D01*
X171232216Y-170379640D01*
X171227163Y-170270816D01*
X171200166Y-169812799D01*
X169384653Y-171174968D01*
X169036392Y-171435461D01*
X168705171Y-171681660D01*
X168397771Y-171908632D01*
X168120970Y-172111444D01*
X167881548Y-172285160D01*
X167686285Y-172424848D01*
X167541960Y-172525574D01*
X167455353Y-172582403D01*
X167437025Y-172592337D01*
X167272421Y-172622823D01*
X167130557Y-172576530D01*
X167026737Y-172461017D01*
X166991848Y-172372405D01*
X166988180Y-172319973D01*
X166982773Y-172184132D01*
X166975655Y-171966124D01*
X166966855Y-171667187D01*
X166956401Y-171288562D01*
X166944322Y-170831490D01*
X166930646Y-170297209D01*
X166915402Y-169686961D01*
X166898618Y-169001985D01*
X166880323Y-168243522D01*
X166860544Y-167412811D01*
X166839312Y-166511093D01*
X166816654Y-165539607D01*
X166792598Y-164499594D01*
X166767174Y-163392293D01*
X166740409Y-162218946D01*
X166712332Y-160980791D01*
X166682972Y-159679069D01*
X166652357Y-158315021D01*
X166620515Y-156889885D01*
X166587476Y-155404903D01*
X166553267Y-153861313D01*
X166517917Y-152260357D01*
X166481455Y-150603275D01*
X166443908Y-148891306D01*
X166405307Y-147125690D01*
X166365678Y-145307668D01*
X166325050Y-143438479D01*
X166290013Y-141822370D01*
X166247345Y-139850986D01*
X166206521Y-137962596D01*
X166167508Y-136155549D01*
X166130273Y-134428194D01*
X166094785Y-132778878D01*
X166061009Y-131205951D01*
X166028915Y-129707761D01*
X165998468Y-128282656D01*
X165969636Y-126928986D01*
X165942386Y-125645098D01*
X165916686Y-124429341D01*
X165892503Y-123280064D01*
X165869804Y-122195615D01*
X165848557Y-121174343D01*
X165828729Y-120214596D01*
X165810287Y-119314723D01*
X165793198Y-118473072D01*
X165777430Y-117687992D01*
X165762949Y-116957831D01*
X165749725Y-116280938D01*
X165737722Y-115655661D01*
X165726910Y-115080350D01*
X165717255Y-114553351D01*
X165708724Y-114073015D01*
X165701285Y-113637689D01*
X165694905Y-113245722D01*
X165689551Y-112895463D01*
X165686955Y-112710736D01*
X166741671Y-112710736D01*
X166741811Y-112768531D01*
X166743750Y-112908307D01*
X166747433Y-113127397D01*
X166752801Y-113423135D01*
X166759797Y-113792857D01*
X166768363Y-114233895D01*
X166778443Y-114743584D01*
X166789979Y-115319258D01*
X166802913Y-115958252D01*
X166817188Y-116657898D01*
X166832747Y-117415532D01*
X166849533Y-118228488D01*
X166867487Y-119094099D01*
X166886553Y-120009699D01*
X166906672Y-120972624D01*
X166927789Y-121980206D01*
X166949845Y-123029780D01*
X166972783Y-124118681D01*
X166996545Y-125244242D01*
X167021075Y-126403797D01*
X167046315Y-127594680D01*
X167072206Y-128814226D01*
X167098693Y-130059769D01*
X167125718Y-131328642D01*
X167153223Y-132618180D01*
X167181150Y-133925718D01*
X167209443Y-135248588D01*
X167238044Y-136584126D01*
X167266896Y-137929664D01*
X167295941Y-139282539D01*
X167325122Y-140640082D01*
X167354381Y-141999630D01*
X167383662Y-143358515D01*
X167412906Y-144714072D01*
X167442057Y-146063635D01*
X167471056Y-147404538D01*
X167499847Y-148734115D01*
X167528372Y-150049700D01*
X167556574Y-151348628D01*
X167584396Y-152628232D01*
X167611779Y-153885847D01*
X167638667Y-155118806D01*
X167665002Y-156324444D01*
X167690727Y-157500095D01*
X167715784Y-158643094D01*
X167740117Y-159750773D01*
X167763667Y-160820467D01*
X167786377Y-161849511D01*
X167808190Y-162835239D01*
X167829048Y-163774984D01*
X167848895Y-164666080D01*
X167867672Y-165505862D01*
X167885323Y-166291665D01*
X167901789Y-167020821D01*
X167917014Y-167690665D01*
X167930941Y-168298532D01*
X167943510Y-168841754D01*
X167954667Y-169317667D01*
X167964352Y-169723605D01*
X167972508Y-170056901D01*
X167979079Y-170314891D01*
X167984007Y-170494906D01*
X167987234Y-170594283D01*
X167988167Y-170612622D01*
X168005415Y-170760650D01*
X168027511Y-170835543D01*
X168058272Y-170848829D01*
X168065214Y-170845455D01*
X168109467Y-170814161D01*
X168214396Y-170737350D01*
X168372923Y-170620278D01*
X168577970Y-170468200D01*
X168822460Y-170286373D01*
X169099314Y-170080051D01*
X169401454Y-169854491D01*
X169647558Y-169670500D01*
X170534394Y-169007076D01*
X172271188Y-169007076D01*
X172319346Y-171497788D01*
X172330769Y-172080157D01*
X172341102Y-172583431D01*
X172350620Y-173013168D01*
X172359599Y-173374927D01*
X172368317Y-173674270D01*
X172377048Y-173916754D01*
X172386070Y-174107940D01*
X172395659Y-174253387D01*
X172406089Y-174358654D01*
X172417639Y-174429302D01*
X172430584Y-174470890D01*
X172445200Y-174488976D01*
X172461763Y-174489122D01*
X172467803Y-174486122D01*
X172512212Y-174454660D01*
X172617073Y-174377705D01*
X172775159Y-174260638D01*
X172979244Y-174108839D01*
X173222100Y-173927689D01*
X173496500Y-173722569D01*
X173795219Y-173498859D01*
X173988411Y-173353976D01*
X175454666Y-172253785D01*
X175455536Y-171872309D01*
X175454863Y-171746685D01*
X175452560Y-171554945D01*
X175448815Y-171305963D01*
X175443816Y-171008612D01*
X175437749Y-170671767D01*
X175430802Y-170304300D01*
X175423163Y-169915086D01*
X175415019Y-169512997D01*
X175406557Y-169106908D01*
X175397965Y-168705691D01*
X175389430Y-168318221D01*
X175381140Y-167953371D01*
X175373282Y-167620015D01*
X175366043Y-167327026D01*
X175359612Y-167083277D01*
X175354174Y-166897643D01*
X175349919Y-166778997D01*
X175347053Y-166736233D01*
X175312060Y-166757910D01*
X175216416Y-166825299D01*
X175067154Y-166933241D01*
X174871303Y-167076578D01*
X174635896Y-167250152D01*
X174367962Y-167448805D01*
X174074535Y-167667380D01*
X173903288Y-167795371D01*
X173594450Y-168026364D01*
X173303763Y-168243567D01*
X173038863Y-168441292D01*
X172807384Y-168613848D01*
X172616962Y-168755547D01*
X172475232Y-168860699D01*
X172389828Y-168923615D01*
X172370677Y-168937426D01*
X172271188Y-169007076D01*
X170534394Y-169007076D01*
X171175471Y-168527500D01*
X171177235Y-168041977D01*
X171176417Y-167972295D01*
X171173793Y-167820299D01*
X171169415Y-167588320D01*
X171163330Y-167278692D01*
X171155590Y-166893745D01*
X171146243Y-166435813D01*
X171135341Y-165907227D01*
X171122932Y-165310319D01*
X171109066Y-164647421D01*
X171093793Y-163920866D01*
X171077163Y-163132986D01*
X171059226Y-162286112D01*
X171040031Y-161382577D01*
X171019629Y-160424713D01*
X170998068Y-159414852D01*
X170975400Y-158355326D01*
X170951673Y-157248466D01*
X170926937Y-156096607D01*
X170901242Y-154902078D01*
X170874639Y-153667213D01*
X170847176Y-152394343D01*
X170818903Y-151085801D01*
X170789871Y-149743918D01*
X170760129Y-148371028D01*
X170729726Y-146969461D01*
X170698714Y-145541550D01*
X170667140Y-144089627D01*
X170635056Y-142616024D01*
X170606716Y-141315875D01*
X170566862Y-139487278D01*
X170528869Y-137741544D01*
X170492703Y-136076894D01*
X170458327Y-134491546D01*
X170425709Y-132983718D01*
X170394811Y-131551629D01*
X170365600Y-130193498D01*
X170338040Y-128907545D01*
X170312096Y-127691987D01*
X170287733Y-126545043D01*
X170264917Y-125464932D01*
X170243611Y-124449874D01*
X170223782Y-123498086D01*
X170205394Y-122607788D01*
X170188412Y-121777198D01*
X170172801Y-121004535D01*
X170158526Y-120288018D01*
X170145552Y-119625865D01*
X170133844Y-119016296D01*
X170123367Y-118457529D01*
X170114085Y-117947783D01*
X170105965Y-117485277D01*
X170098971Y-117068229D01*
X170093067Y-116694858D01*
X170090554Y-116522983D01*
X171136666Y-116522983D01*
X171137584Y-116591327D01*
X171140305Y-116741941D01*
X171144778Y-116972448D01*
X171150951Y-117280471D01*
X171158775Y-117663635D01*
X171168197Y-118119563D01*
X171179167Y-118645879D01*
X171191635Y-119240204D01*
X171205548Y-119900165D01*
X171220857Y-120623382D01*
X171237511Y-121407482D01*
X171255457Y-122250085D01*
X171274647Y-123148817D01*
X171295028Y-124101301D01*
X171316549Y-125105159D01*
X171339161Y-126158017D01*
X171362811Y-127257496D01*
X171387449Y-128401221D01*
X171413025Y-129586815D01*
X171439486Y-130811902D01*
X171466783Y-132074104D01*
X171494863Y-133371046D01*
X171523678Y-134700351D01*
X171553174Y-136059643D01*
X171583303Y-137446544D01*
X171614011Y-138858679D01*
X171645250Y-140293671D01*
X171676967Y-141749143D01*
X171687000Y-142209198D01*
X171718811Y-143667992D01*
X171750162Y-145106055D01*
X171781000Y-146521048D01*
X171811275Y-147910637D01*
X171840937Y-149272483D01*
X171869935Y-150604251D01*
X171898218Y-151903605D01*
X171925735Y-153168207D01*
X171952435Y-154395720D01*
X171978269Y-155583809D01*
X172003185Y-156730137D01*
X172027133Y-157832367D01*
X172050061Y-158888163D01*
X172071920Y-159895187D01*
X172092658Y-160851104D01*
X172112225Y-161753577D01*
X172130570Y-162600270D01*
X172147642Y-163388845D01*
X172163391Y-164116966D01*
X172177766Y-164782296D01*
X172190717Y-165382500D01*
X172202192Y-165915240D01*
X172212140Y-166378180D01*
X172220512Y-166768983D01*
X172227257Y-167085313D01*
X172232323Y-167324833D01*
X172235660Y-167485206D01*
X172237217Y-167564097D01*
X172237333Y-167572056D01*
X172243518Y-167662559D01*
X172258464Y-167701944D01*
X172259103Y-167702000D01*
X172296385Y-167677382D01*
X172394437Y-167606917D01*
X172546393Y-167495686D01*
X172745385Y-167348771D01*
X172984549Y-167171252D01*
X173257018Y-166968211D01*
X173555924Y-166744730D01*
X173807955Y-166555780D01*
X175335037Y-165409561D01*
X175307782Y-164534364D01*
X175305187Y-164438196D01*
X175300822Y-164259975D01*
X175294743Y-164002295D01*
X175287008Y-163667749D01*
X175277674Y-163258932D01*
X175266797Y-162778436D01*
X175254436Y-162228856D01*
X175240647Y-161612786D01*
X175225487Y-160932819D01*
X175209014Y-160191549D01*
X175191285Y-159391570D01*
X175172356Y-158535475D01*
X175152285Y-157625859D01*
X175131129Y-156665315D01*
X175108946Y-155656438D01*
X175085792Y-154601820D01*
X175061725Y-153504055D01*
X175036801Y-152365738D01*
X175011078Y-151189462D01*
X174984613Y-149977821D01*
X174957463Y-148733409D01*
X174929686Y-147458819D01*
X174901338Y-146156645D01*
X174872476Y-144829481D01*
X174843159Y-143479921D01*
X174813442Y-142110559D01*
X174795266Y-141272329D01*
X174758753Y-139586448D01*
X174724097Y-137983281D01*
X174691260Y-136460897D01*
X174660207Y-135017366D01*
X174630899Y-133650756D01*
X174603299Y-132359135D01*
X174577372Y-131140574D01*
X174553079Y-129993140D01*
X174530384Y-128914904D01*
X174509250Y-127903933D01*
X174489640Y-126958296D01*
X174471516Y-126076064D01*
X174454842Y-125255303D01*
X174439581Y-124494084D01*
X174425696Y-123790475D01*
X174413149Y-123142545D01*
X174401904Y-122548364D01*
X174391924Y-122005999D01*
X174383172Y-121513520D01*
X174375610Y-121068996D01*
X174369202Y-120670496D01*
X174363911Y-120316088D01*
X174359700Y-120003842D01*
X174356531Y-119731827D01*
X174354368Y-119498110D01*
X174353174Y-119300762D01*
X174352911Y-119137851D01*
X174353544Y-119007447D01*
X174355034Y-118907617D01*
X174357344Y-118836431D01*
X174360439Y-118791958D01*
X174364138Y-118772548D01*
X174442778Y-118670974D01*
X174538699Y-118601884D01*
X174550202Y-118598615D01*
X174568221Y-118597762D01*
X174594741Y-118599948D01*
X174631749Y-118605797D01*
X174681231Y-118615934D01*
X174745172Y-118630981D01*
X174825559Y-118651563D01*
X174924376Y-118678304D01*
X175043611Y-118711828D01*
X175185249Y-118752757D01*
X175351275Y-118801717D01*
X175543676Y-118859331D01*
X175764438Y-118926223D01*
X176015546Y-119003017D01*
X176298986Y-119090336D01*
X176616744Y-119188805D01*
X176970807Y-119299047D01*
X177363159Y-119421686D01*
X177795787Y-119557347D01*
X178270677Y-119706652D01*
X178789814Y-119870225D01*
X179355184Y-120048692D01*
X179968774Y-120242674D01*
X180632568Y-120452797D01*
X181348554Y-120679684D01*
X182118717Y-120923959D01*
X182945042Y-121186245D01*
X183829515Y-121467168D01*
X184774124Y-121767349D01*
X185780852Y-122087414D01*
X186851687Y-122427987D01*
X187988613Y-122789690D01*
X189193618Y-123173148D01*
X190468686Y-123578985D01*
X191815804Y-124007824D01*
X193236958Y-124460290D01*
X194734132Y-124937006D01*
X196309314Y-125438596D01*
X196863285Y-125615004D01*
X219067442Y-132685844D01*
X219698188Y-132212994D01*
X220328933Y-131740144D01*
X220157909Y-131683136D01*
X220108063Y-131667117D01*
X219979756Y-131626113D01*
X219775205Y-131560832D01*
X219496625Y-131471979D01*
X219146229Y-131360258D01*
X218726235Y-131226377D01*
X218238856Y-131071040D01*
X217686308Y-130894954D01*
X217070807Y-130698823D01*
X216394567Y-130483354D01*
X215659803Y-130249253D01*
X214868731Y-129997224D01*
X214023567Y-129727974D01*
X213126524Y-129442208D01*
X212179819Y-129140633D01*
X211185666Y-128823952D01*
X210146282Y-128492873D01*
X209063880Y-128148101D01*
X207940676Y-127790342D01*
X206778885Y-127420300D01*
X205580723Y-127038683D01*
X204348405Y-126646195D01*
X203084146Y-126243542D01*
X201790160Y-125831430D01*
X200468664Y-125410565D01*
X199121873Y-124981652D01*
X197752001Y-124545397D01*
X196361264Y-124102505D01*
X195561775Y-123847905D01*
X171136666Y-116069681D01*
X171136666Y-116522983D01*
X170090554Y-116522983D01*
X170088219Y-116363384D01*
X170084392Y-116072024D01*
X170081551Y-115818998D01*
X170079660Y-115602524D01*
X170078686Y-115420822D01*
X170078592Y-115272109D01*
X170079343Y-115154605D01*
X170080905Y-115066529D01*
X170083243Y-115006099D01*
X170086322Y-114971534D01*
X170088518Y-114962450D01*
X170167118Y-114860954D01*
X170263027Y-114791887D01*
X170273940Y-114788880D01*
X170291282Y-114788217D01*
X170316907Y-114790483D01*
X170352667Y-114796260D01*
X170400415Y-114806131D01*
X170462004Y-114820679D01*
X170539287Y-114840487D01*
X170634116Y-114866139D01*
X170748345Y-114898218D01*
X170883826Y-114937306D01*
X171042412Y-114983986D01*
X171225955Y-115038843D01*
X171436310Y-115102458D01*
X171675328Y-115175415D01*
X171944862Y-115258297D01*
X172246765Y-115351687D01*
X172582890Y-115456168D01*
X172955089Y-115572324D01*
X173365217Y-115700737D01*
X173815124Y-115841990D01*
X174306665Y-115996667D01*
X174841691Y-116165350D01*
X175422057Y-116348623D01*
X176049614Y-116547068D01*
X176726215Y-116761270D01*
X177453714Y-116991810D01*
X178233962Y-117239272D01*
X179068814Y-117504239D01*
X179960121Y-117787295D01*
X180909736Y-118089021D01*
X181919513Y-118410002D01*
X182991304Y-118750820D01*
X184126962Y-119112058D01*
X185328340Y-119494300D01*
X186597290Y-119898129D01*
X187935666Y-120324127D01*
X189345319Y-120772878D01*
X190828104Y-121244965D01*
X192385873Y-121740971D01*
X194020478Y-122261479D01*
X195733772Y-122807071D01*
X195854188Y-122845418D01*
X197284460Y-123300882D01*
X198694720Y-123749952D01*
X200082817Y-124191942D01*
X201446599Y-124626168D01*
X202783915Y-125051946D01*
X204092613Y-125468590D01*
X205370541Y-125875417D01*
X206615548Y-126271742D01*
X207825483Y-126656881D01*
X208998193Y-127030147D01*
X210131528Y-127390858D01*
X211223335Y-127738329D01*
X212271463Y-128071874D01*
X213273761Y-128390810D01*
X214228077Y-128694452D01*
X215132259Y-128982115D01*
X215984155Y-129253114D01*
X216781615Y-129506766D01*
X217522487Y-129742385D01*
X218204619Y-129959287D01*
X218825859Y-130156788D01*
X219384056Y-130334202D01*
X219877059Y-130490845D01*
X220302715Y-130626033D01*
X220658874Y-130739081D01*
X220943383Y-130829305D01*
X221154092Y-130896020D01*
X221288848Y-130938540D01*
X221345500Y-130956183D01*
X221347263Y-130956666D01*
X221387268Y-130932864D01*
X221483152Y-130867154D01*
X221622803Y-130768086D01*
X221794109Y-130644208D01*
X221905261Y-130562844D01*
X222440922Y-130169021D01*
X166755166Y-112435305D01*
X166741671Y-112710736D01*
X165686955Y-112710736D01*
X165685191Y-112585260D01*
X165681792Y-112313461D01*
X165679321Y-112078416D01*
X165677746Y-111878472D01*
X165677033Y-111711978D01*
X165677151Y-111577283D01*
X165678066Y-111472735D01*
X165679746Y-111396683D01*
X165682157Y-111347475D01*
X165685268Y-111323460D01*
X165685945Y-111321589D01*
X165764434Y-111220300D01*
X165860525Y-111151142D01*
X165870898Y-111148353D01*
X165887568Y-111147831D01*
X165912270Y-111150123D01*
G36*
X255371987Y-150426422D02*
G01*
X255567095Y-150482573D01*
X255781419Y-150572963D01*
X255901671Y-150631311D01*
X256232422Y-150826817D01*
X256515426Y-151055610D01*
X256740760Y-151307165D01*
X256898502Y-151570955D01*
X256963500Y-151757703D01*
X256975897Y-151875096D01*
X256959541Y-152018871D01*
X256911481Y-152197776D01*
X256828765Y-152420558D01*
X256708443Y-152695963D01*
X256547563Y-153032741D01*
X256502857Y-153123132D01*
X256105385Y-153922500D01*
X255102519Y-154980833D01*
X254839031Y-155259664D01*
X254570504Y-155545225D01*
X254308608Y-155825005D01*
X254065015Y-156086494D01*
X253851397Y-156317179D01*
X253679425Y-156504551D01*
X253620362Y-156569602D01*
X253437156Y-156767379D01*
X253249408Y-156961435D01*
X253074234Y-157134652D01*
X252928748Y-157269909D01*
X252871191Y-157319005D01*
X252767432Y-157409875D01*
X252612365Y-157554774D01*
X252413118Y-157746461D01*
X252176817Y-157977696D01*
X251910590Y-158241239D01*
X251621564Y-158529850D01*
X251316866Y-158836288D01*
X251003622Y-159153314D01*
X250688961Y-159473688D01*
X250380009Y-159790169D01*
X250083894Y-160095517D01*
X249807741Y-160382493D01*
X249558679Y-160643855D01*
X249343835Y-160872364D01*
X249170336Y-161060780D01*
X249045308Y-161201862D01*
X249023108Y-161228111D01*
X248852999Y-161435142D01*
X248677339Y-161654251D01*
X248515412Y-161861068D01*
X248386501Y-162031225D01*
X248372357Y-162050500D01*
X248226163Y-162237679D01*
X248047992Y-162446777D01*
X247868315Y-162642542D01*
X247803228Y-162708843D01*
X247591043Y-162934599D01*
X247446350Y-163122886D01*
X247370448Y-163271553D01*
X247364637Y-163378448D01*
X247381034Y-163407618D01*
X247463592Y-163460504D01*
X247508724Y-163468667D01*
X247617070Y-163453010D01*
X247786995Y-163409767D01*
X248002184Y-163344528D01*
X248246321Y-163262883D01*
X248503089Y-163170423D01*
X248756173Y-163072738D01*
X248989256Y-162975418D01*
X249116086Y-162917942D01*
X249305157Y-162835135D01*
X249567109Y-162730031D01*
X249894006Y-162605565D01*
X250277911Y-162464673D01*
X250710887Y-162310292D01*
X251184997Y-162145358D01*
X251444420Y-162056646D01*
X251830335Y-161924419D01*
X252202613Y-161794950D01*
X252551181Y-161671878D01*
X252865965Y-161558841D01*
X253136893Y-161459478D01*
X253353892Y-161377427D01*
X253506889Y-161316328D01*
X253565050Y-161290629D01*
X253738382Y-161213554D01*
X253977443Y-161115962D01*
X254267417Y-161003430D01*
X254593487Y-160881535D01*
X254940837Y-160755852D01*
X255294649Y-160631959D01*
X255507000Y-160559752D01*
X255673474Y-160501805D01*
X255890399Y-160423409D01*
X256129376Y-160334952D01*
X256356559Y-160248918D01*
X256623615Y-160151434D01*
X256929957Y-160047413D01*
X257233072Y-159950946D01*
X257436059Y-159891093D01*
X257793191Y-159790073D01*
X258083306Y-159705510D01*
X258321214Y-159632132D01*
X258521728Y-159564668D01*
X258699661Y-159497846D01*
X258869825Y-159426393D01*
X259047032Y-159345038D01*
X259246095Y-159248509D01*
X259257984Y-159242648D01*
X259499689Y-159124001D01*
X259684560Y-159036757D01*
X259831697Y-158974876D01*
X259960205Y-158932317D01*
X260089184Y-158903042D01*
X260237737Y-158881009D01*
X260424967Y-158860178D01*
X260488415Y-158853584D01*
X260850567Y-158803558D01*
X261205196Y-158726756D01*
X261576358Y-158616769D01*
X261988112Y-158467189D01*
X262089833Y-158427013D01*
X262602282Y-158236144D01*
X263072179Y-158089779D01*
X263489656Y-157990831D01*
X263668656Y-157961016D01*
X263851771Y-157925773D01*
X264074957Y-157868733D01*
X264299884Y-157800065D01*
X264379839Y-157772315D01*
X264562563Y-157709957D01*
X264726101Y-157660936D01*
X264847406Y-157631832D01*
X264890119Y-157626667D01*
X265057478Y-157660991D01*
X265245068Y-157755776D01*
X265429795Y-157898739D01*
X265464512Y-157932179D01*
X265585563Y-158088893D01*
X265624307Y-158230337D01*
X265582445Y-158351782D01*
X265461679Y-158448495D01*
X265263711Y-158515746D01*
X265253901Y-158517821D01*
X264957041Y-158588009D01*
X264600861Y-158686400D01*
X264203499Y-158807005D01*
X263783092Y-158943838D01*
X263357777Y-159090909D01*
X262945690Y-159242233D01*
X262564968Y-159391821D01*
X262407333Y-159457560D01*
X261711001Y-159727457D01*
X260996330Y-159953895D01*
X260289594Y-160129248D01*
X259761500Y-160225542D01*
X259467420Y-160277208D01*
X259127404Y-160349282D01*
X258756402Y-160437520D01*
X258369367Y-160537679D01*
X257981252Y-160645514D01*
X257607008Y-160756782D01*
X257261589Y-160867239D01*
X256959946Y-160972641D01*
X256717032Y-161068745D01*
X256600899Y-161122596D01*
X256504840Y-161164620D01*
X256342391Y-161228267D01*
X256127485Y-161308399D01*
X255874058Y-161399879D01*
X255596046Y-161497570D01*
X255412721Y-161560614D01*
X255098461Y-161669696D01*
X254774295Y-161785666D01*
X254460765Y-161900931D01*
X254178412Y-162007898D01*
X253947778Y-162098973D01*
X253875123Y-162129034D01*
X253712744Y-162200595D01*
X253493761Y-162301700D01*
X253228399Y-162427267D01*
X252926886Y-162572213D01*
X252599447Y-162731454D01*
X252256309Y-162899906D01*
X251907697Y-163072487D01*
X251563840Y-163244114D01*
X251234962Y-163409702D01*
X250931290Y-163564169D01*
X250663052Y-163702431D01*
X250440472Y-163819405D01*
X250273778Y-163910008D01*
X250173195Y-163969155D01*
X250173000Y-163969283D01*
X250018518Y-164068712D01*
X249855403Y-164171948D01*
X249801049Y-164205853D01*
X249609751Y-164363803D01*
X249492299Y-164551618D01*
X249453491Y-164755455D01*
X249466972Y-164867464D01*
X249503292Y-165031997D01*
X249556044Y-165222121D01*
X249589443Y-165326955D01*
X249725554Y-165733500D01*
X249727027Y-166813000D01*
X249724669Y-167193595D01*
X249717235Y-167626044D01*
X249705589Y-168077743D01*
X249690596Y-168516088D01*
X249673121Y-168908476D01*
X249669763Y-168972000D01*
X249634853Y-170023310D01*
X249648013Y-171009016D01*
X249709178Y-171927924D01*
X249818282Y-172778841D01*
X249900562Y-173226500D01*
X249953104Y-173486352D01*
X250010179Y-173775737D01*
X250063421Y-174051944D01*
X250091268Y-174200167D01*
X250274003Y-175041570D01*
X250511096Y-175873876D01*
X250653306Y-176298784D01*
X250852068Y-176856147D01*
X251064605Y-177434188D01*
X251285469Y-178019064D01*
X251509212Y-178596934D01*
X251730385Y-179153957D01*
X251943542Y-179676289D01*
X252143233Y-180150091D01*
X252324012Y-180561520D01*
X252375926Y-180675463D01*
X252538335Y-181039848D01*
X252661289Y-181344478D01*
X252748796Y-181602256D01*
X252804863Y-181826087D01*
X252833497Y-182028876D01*
X252839374Y-182167927D01*
X252832689Y-182308807D01*
X252806735Y-182389731D01*
X252758116Y-182432510D01*
X252621340Y-182478474D01*
X252490282Y-182458692D01*
X252350606Y-182368519D01*
X252244935Y-182266276D01*
X252159452Y-182165640D01*
X252037858Y-182009428D01*
X251891143Y-181812418D01*
X251730292Y-181589393D01*
X251566294Y-181355132D01*
X251549655Y-181330945D01*
X251100818Y-180632180D01*
X250664819Y-179865072D01*
X250249340Y-179045791D01*
X249862059Y-178190504D01*
X249510658Y-177315378D01*
X249202816Y-176436581D01*
X249157787Y-176295667D01*
X249069432Y-176019790D01*
X248963685Y-175696573D01*
X248851309Y-175358520D01*
X248743068Y-175038139D01*
X248695219Y-174898667D01*
X248551106Y-174454905D01*
X248430315Y-174020254D01*
X248322794Y-173556970D01*
X248272518Y-173311167D01*
X248213089Y-173013088D01*
X248150560Y-172705226D01*
X248089854Y-172411418D01*
X248035890Y-172155501D01*
X247997242Y-171977667D01*
X247957470Y-171794845D01*
X247923261Y-171624856D01*
X247894120Y-171459567D01*
X247869555Y-171290843D01*
X247849071Y-171110553D01*
X247832174Y-170910562D01*
X247818371Y-170682738D01*
X247807168Y-170418948D01*
X247798070Y-170111057D01*
X247790585Y-169750934D01*
X247784218Y-169330445D01*
X247778476Y-168841457D01*
X247772935Y-168283258D01*
X247749094Y-165753016D01*
X247618556Y-165643176D01*
X247519860Y-165573609D01*
X247423018Y-165549030D01*
X247295926Y-165556498D01*
X247200335Y-165572125D01*
X247099658Y-165598644D01*
X246986475Y-165640068D01*
X246853366Y-165700407D01*
X246692910Y-165783675D01*
X246497688Y-165893883D01*
X246260279Y-166035043D01*
X245973263Y-166211167D01*
X245629221Y-166426267D01*
X245283500Y-166644584D01*
X244935267Y-166865125D01*
X244571752Y-167095314D01*
X244208285Y-167325445D01*
X243860193Y-167545814D01*
X243542808Y-167746715D01*
X243271458Y-167918443D01*
X243124500Y-168011426D01*
X242659989Y-168310168D01*
X242246374Y-168588200D01*
X241871182Y-168856004D01*
X241521936Y-169124060D01*
X241186164Y-169402849D01*
X240851392Y-169702852D01*
X240505144Y-170034549D01*
X240134947Y-170408421D01*
X239728327Y-170834949D01*
X239596663Y-170975503D01*
X239445805Y-171123848D01*
X239274175Y-171273130D01*
X239130997Y-171382307D01*
X238983441Y-171497564D01*
X238792993Y-171667609D01*
X238570334Y-171881672D01*
X238326147Y-172128985D01*
X238071117Y-172398775D01*
X237815925Y-172680273D01*
X237618154Y-172907463D01*
X237494749Y-173047469D01*
X237322348Y-173236432D01*
X237111505Y-173463125D01*
X236872776Y-173716321D01*
X236616716Y-173984794D01*
X236353879Y-174257316D01*
X236213281Y-174401764D01*
X235954832Y-174668375D01*
X235700857Y-174934092D01*
X235461234Y-175188308D01*
X235245841Y-175420415D01*
X235064557Y-175619807D01*
X234927261Y-175775874D01*
X234871455Y-175842634D01*
X234623668Y-176134672D01*
X234412362Y-176352125D01*
X234235974Y-176496045D01*
X234092939Y-176567486D01*
X233981695Y-176567499D01*
X233900676Y-176497137D01*
X233900156Y-176496310D01*
X233882081Y-176437075D01*
X233898892Y-176353768D01*
X233955710Y-176225969D01*
X233979810Y-176178810D01*
X234093212Y-175977520D01*
X234248067Y-175726696D01*
X234433001Y-175442968D01*
X234636638Y-175142964D01*
X234847603Y-174843314D01*
X235054520Y-174560646D01*
X235246014Y-174311589D01*
X235318840Y-174221333D01*
X235470288Y-174035894D01*
X235611443Y-173861079D01*
X235729201Y-173713255D01*
X235810456Y-173608791D01*
X235827238Y-173586333D01*
X235955965Y-173411848D01*
X236106970Y-173209372D01*
X236270100Y-172992285D01*
X236435197Y-172773969D01*
X236592107Y-172567803D01*
X236730673Y-172387167D01*
X236840741Y-172245441D01*
X236912155Y-172156006D01*
X236919691Y-172147000D01*
X236987000Y-172058207D01*
X237086947Y-171914459D01*
X237207922Y-171732984D01*
X237338313Y-171531012D01*
X237390407Y-171448500D01*
X237735491Y-170898167D01*
X237701913Y-170623000D01*
X237671300Y-170307637D01*
X237670668Y-170056017D01*
X237707528Y-169850250D01*
X237789394Y-169672448D01*
X237923777Y-169504722D01*
X238118189Y-169329183D01*
X238306870Y-169182423D01*
X238506552Y-169031268D01*
X238744996Y-168848507D01*
X239011780Y-168642329D01*
X239296486Y-168420924D01*
X239588694Y-168192481D01*
X239877985Y-167965191D01*
X240153940Y-167747242D01*
X240406138Y-167546825D01*
X240624161Y-167372128D01*
X240797589Y-167231343D01*
X240916003Y-167132658D01*
X240929261Y-167121224D01*
X241088550Y-166972491D01*
X241263321Y-166793475D01*
X241417601Y-166621132D01*
X241427356Y-166609491D01*
X241519142Y-166507426D01*
X241662873Y-166357853D01*
X241848418Y-166170840D01*
X242065644Y-165956452D01*
X242304421Y-165724758D01*
X242554617Y-165485825D01*
X242627761Y-165416713D01*
X242977444Y-165086630D01*
X243271772Y-164807326D01*
X243517417Y-164571953D01*
X243721053Y-164373664D01*
X243889352Y-164205610D01*
X244028987Y-164060944D01*
X244146631Y-163932817D01*
X244248958Y-163814381D01*
X244342640Y-163698788D01*
X244434350Y-163579191D01*
X244486017Y-163509699D01*
X244626931Y-163327990D01*
X244774896Y-163152590D01*
X244909903Y-163006482D01*
X244991239Y-162929419D01*
X245288196Y-162674730D01*
X245532041Y-162460896D01*
X245735623Y-162275688D01*
X245911789Y-162106877D01*
X246073387Y-161942236D01*
X246233265Y-161769536D01*
X246362315Y-161624474D01*
X246652318Y-161303497D01*
X246982049Y-160953889D01*
X247327106Y-160600719D01*
X247663087Y-160269053D01*
X247905033Y-160039667D01*
X248012219Y-159932321D01*
X248163752Y-159769255D01*
X248350897Y-159560710D01*
X248564919Y-159316927D01*
X248797085Y-159048147D01*
X249038660Y-158764611D01*
X249280910Y-158476561D01*
X249515100Y-158194236D01*
X249732497Y-157927879D01*
X249924366Y-157687731D01*
X250060384Y-157512484D01*
X250252177Y-157268423D01*
X250472369Y-157000523D01*
X250697528Y-156736599D01*
X250904223Y-156504463D01*
X250963672Y-156440335D01*
X251371532Y-155995996D01*
X251726057Y-155586375D01*
X252040735Y-155194194D01*
X252329053Y-154802178D01*
X252604498Y-154393052D01*
X252782327Y-154110894D01*
X252979514Y-153786273D01*
X253132207Y-153522586D01*
X253243693Y-153310875D01*
X253317262Y-153142180D01*
X253356202Y-153007543D01*
X253363803Y-152898003D01*
X253343352Y-152804603D01*
X253298139Y-152718383D01*
X253295155Y-152713902D01*
X253228847Y-152627667D01*
X253158772Y-152581719D01*
X253053455Y-152560812D01*
X252965572Y-152554255D01*
X252782608Y-152555347D01*
X252581131Y-152573538D01*
X252492885Y-152587715D01*
X252349341Y-152623676D01*
X252137087Y-152687828D01*
X251865870Y-152776532D01*
X251545438Y-152886151D01*
X251185536Y-153013046D01*
X250795911Y-153153581D01*
X250386310Y-153304117D01*
X249966481Y-153461016D01*
X249546169Y-153620640D01*
X249135122Y-153779353D01*
X248743086Y-153933515D01*
X248379809Y-154079488D01*
X248055036Y-154213636D01*
X247778514Y-154332321D01*
X247590666Y-154417399D01*
X247392728Y-154515899D01*
X247153979Y-154643254D01*
X246904974Y-154782759D01*
X246683544Y-154913281D01*
X246465849Y-155042407D01*
X246199935Y-155195038D01*
X245912861Y-155355924D01*
X245631683Y-155509817D01*
X245498210Y-155581261D01*
X245235166Y-155723185D01*
X244956657Y-155877617D01*
X244688251Y-156030111D01*
X244455517Y-156166220D01*
X244352166Y-156228749D01*
X244147041Y-156354252D01*
X243895505Y-156506929D01*
X243623990Y-156670801D01*
X243358930Y-156829893D01*
X243251500Y-156894059D01*
X242868163Y-157126216D01*
X242431823Y-157397307D01*
X241938223Y-157710024D01*
X241383105Y-158067059D01*
X240918120Y-158369265D01*
X240749107Y-158484772D01*
X240540819Y-158634937D01*
X240319329Y-158800588D01*
X240110715Y-158962554D01*
X240104695Y-158967341D01*
X239894495Y-159130093D01*
X239668019Y-159297975D01*
X239452289Y-159451361D01*
X239274328Y-159570625D01*
X239272154Y-159572010D01*
X239129253Y-159668249D01*
X238936264Y-159805905D01*
X238709021Y-159973268D01*
X238463359Y-160158628D01*
X238215113Y-160350275D01*
X238138246Y-160410597D01*
X237904856Y-160592167D01*
X237680581Y-160762265D01*
X237478211Y-160911525D01*
X237310532Y-161030584D01*
X237190334Y-161110077D01*
X237155500Y-161130257D01*
X236892937Y-161222936D01*
X236610799Y-161239844D01*
X236322146Y-161183332D01*
X236040038Y-161055754D01*
X235808844Y-160887688D01*
X235631128Y-160710050D01*
X235516987Y-160537666D01*
X235450819Y-160345801D01*
X235442803Y-160307304D01*
X235428497Y-160219693D01*
X235423755Y-160138316D01*
X235432993Y-160059522D01*
X235460624Y-159979662D01*
X235511064Y-159895086D01*
X235588727Y-159802145D01*
X235698029Y-159697189D01*
X235843383Y-159576569D01*
X236029205Y-159436634D01*
X236259909Y-159273736D01*
X236539910Y-159084224D01*
X236873623Y-158864449D01*
X237265463Y-158610762D01*
X237719844Y-158319512D01*
X238241180Y-157987051D01*
X238277333Y-157964027D01*
X238647128Y-157727868D01*
X239002635Y-157499550D01*
X239336015Y-157284198D01*
X239639426Y-157086933D01*
X239905027Y-156912879D01*
X240124978Y-156767159D01*
X240291438Y-156654895D01*
X240396566Y-156581211D01*
X240415166Y-156567245D01*
X240669661Y-156376857D01*
X240930589Y-156197565D01*
X241219153Y-156015628D01*
X241556558Y-155817305D01*
X241685166Y-155744266D01*
X241926298Y-155607024D01*
X242192725Y-155453359D01*
X242449778Y-155303370D01*
X242637666Y-155192187D01*
X242858128Y-155067084D01*
X243122305Y-154927238D01*
X243395739Y-154790421D01*
X243625756Y-154682548D01*
X243882823Y-154561374D01*
X244174967Y-154414543D01*
X244465321Y-154261039D01*
X244705256Y-154126705D01*
X244961885Y-153981080D01*
X245256346Y-153819772D01*
X245550981Y-153663130D01*
X245791500Y-153539793D01*
X246083763Y-153399733D01*
X246443448Y-153237225D01*
X246857910Y-153057352D01*
X247314505Y-152865199D01*
X247800589Y-152665848D01*
X248303517Y-152464383D01*
X248810645Y-152265885D01*
X249309328Y-152075440D01*
X249786923Y-151898129D01*
X250230785Y-151739035D01*
X250511666Y-151642238D01*
X250658411Y-151592398D01*
X250864522Y-151522022D01*
X251109329Y-151438187D01*
X251372162Y-151347971D01*
X251570000Y-151279923D01*
X252160484Y-151089181D01*
X252822820Y-150898210D01*
X253544274Y-150710480D01*
X254312112Y-150529459D01*
X254385166Y-150513146D01*
X254702684Y-150447871D01*
X254959709Y-150410624D01*
X255176167Y-150402956D01*
X255371987Y-150426422D01*
G37*
X255371987Y-150426422D02*
X255567095Y-150482573D01*
X255781419Y-150572963D01*
X255901671Y-150631311D01*
X256232422Y-150826817D01*
X256515426Y-151055610D01*
X256740760Y-151307165D01*
X256898502Y-151570955D01*
X256963500Y-151757703D01*
X256975897Y-151875096D01*
X256959541Y-152018871D01*
X256911481Y-152197776D01*
X256828765Y-152420558D01*
X256708443Y-152695963D01*
X256547563Y-153032741D01*
X256502857Y-153123132D01*
X256105385Y-153922500D01*
X255102519Y-154980833D01*
X254839031Y-155259664D01*
X254570504Y-155545225D01*
X254308608Y-155825005D01*
X254065015Y-156086494D01*
X253851397Y-156317179D01*
X253679425Y-156504551D01*
X253620362Y-156569602D01*
X253437156Y-156767379D01*
X253249408Y-156961435D01*
X253074234Y-157134652D01*
X252928748Y-157269909D01*
X252871191Y-157319005D01*
X252767432Y-157409875D01*
X252612365Y-157554774D01*
X252413118Y-157746461D01*
X252176817Y-157977696D01*
X251910590Y-158241239D01*
X251621564Y-158529850D01*
X251316866Y-158836288D01*
X251003622Y-159153314D01*
X250688961Y-159473688D01*
X250380009Y-159790169D01*
X250083894Y-160095517D01*
X249807741Y-160382493D01*
X249558679Y-160643855D01*
X249343835Y-160872364D01*
X249170336Y-161060780D01*
X249045308Y-161201862D01*
X249023108Y-161228111D01*
X248852999Y-161435142D01*
X248677339Y-161654251D01*
X248515412Y-161861068D01*
X248386501Y-162031225D01*
X248372357Y-162050500D01*
X248226163Y-162237679D01*
X248047992Y-162446777D01*
X247868315Y-162642542D01*
X247803228Y-162708843D01*
X247591043Y-162934599D01*
X247446350Y-163122886D01*
X247370448Y-163271553D01*
X247364637Y-163378448D01*
X247381034Y-163407618D01*
X247463592Y-163460504D01*
X247508724Y-163468667D01*
X247617070Y-163453010D01*
X247786995Y-163409767D01*
X248002184Y-163344528D01*
X248246321Y-163262883D01*
X248503089Y-163170423D01*
X248756173Y-163072738D01*
X248989256Y-162975418D01*
X249116086Y-162917942D01*
X249305157Y-162835135D01*
X249567109Y-162730031D01*
X249894006Y-162605565D01*
X250277911Y-162464673D01*
X250710887Y-162310292D01*
X251184997Y-162145358D01*
X251444420Y-162056646D01*
X251830335Y-161924419D01*
X252202613Y-161794950D01*
X252551181Y-161671878D01*
X252865965Y-161558841D01*
X253136893Y-161459478D01*
X253353892Y-161377427D01*
X253506889Y-161316328D01*
X253565050Y-161290629D01*
X253738382Y-161213554D01*
X253977443Y-161115962D01*
X254267417Y-161003430D01*
X254593487Y-160881535D01*
X254940837Y-160755852D01*
X255294649Y-160631959D01*
X255507000Y-160559752D01*
X255673474Y-160501805D01*
X255890399Y-160423409D01*
X256129376Y-160334952D01*
X256356559Y-160248918D01*
X256623615Y-160151434D01*
X256929957Y-160047413D01*
X257233072Y-159950946D01*
X257436059Y-159891093D01*
X257793191Y-159790073D01*
X258083306Y-159705510D01*
X258321214Y-159632132D01*
X258521728Y-159564668D01*
X258699661Y-159497846D01*
X258869825Y-159426393D01*
X259047032Y-159345038D01*
X259246095Y-159248509D01*
X259257984Y-159242648D01*
X259499689Y-159124001D01*
X259684560Y-159036757D01*
X259831697Y-158974876D01*
X259960205Y-158932317D01*
X260089184Y-158903042D01*
X260237737Y-158881009D01*
X260424967Y-158860178D01*
X260488415Y-158853584D01*
X260850567Y-158803558D01*
X261205196Y-158726756D01*
X261576358Y-158616769D01*
X261988112Y-158467189D01*
X262089833Y-158427013D01*
X262602282Y-158236144D01*
X263072179Y-158089779D01*
X263489656Y-157990831D01*
X263668656Y-157961016D01*
X263851771Y-157925773D01*
X264074957Y-157868733D01*
X264299884Y-157800065D01*
X264379839Y-157772315D01*
X264562563Y-157709957D01*
X264726101Y-157660936D01*
X264847406Y-157631832D01*
X264890119Y-157626667D01*
X265057478Y-157660991D01*
X265245068Y-157755776D01*
X265429795Y-157898739D01*
X265464512Y-157932179D01*
X265585563Y-158088893D01*
X265624307Y-158230337D01*
X265582445Y-158351782D01*
X265461679Y-158448495D01*
X265263711Y-158515746D01*
X265253901Y-158517821D01*
X264957041Y-158588009D01*
X264600861Y-158686400D01*
X264203499Y-158807005D01*
X263783092Y-158943838D01*
X263357777Y-159090909D01*
X262945690Y-159242233D01*
X262564968Y-159391821D01*
X262407333Y-159457560D01*
X261711001Y-159727457D01*
X260996330Y-159953895D01*
X260289594Y-160129248D01*
X259761500Y-160225542D01*
X259467420Y-160277208D01*
X259127404Y-160349282D01*
X258756402Y-160437520D01*
X258369367Y-160537679D01*
X257981252Y-160645514D01*
X257607008Y-160756782D01*
X257261589Y-160867239D01*
X256959946Y-160972641D01*
X256717032Y-161068745D01*
X256600899Y-161122596D01*
X256504840Y-161164620D01*
X256342391Y-161228267D01*
X256127485Y-161308399D01*
X255874058Y-161399879D01*
X255596046Y-161497570D01*
X255412721Y-161560614D01*
X255098461Y-161669696D01*
X254774295Y-161785666D01*
X254460765Y-161900931D01*
X254178412Y-162007898D01*
X253947778Y-162098973D01*
X253875123Y-162129034D01*
X253712744Y-162200595D01*
X253493761Y-162301700D01*
X253228399Y-162427267D01*
X252926886Y-162572213D01*
X252599447Y-162731454D01*
X252256309Y-162899906D01*
X251907697Y-163072487D01*
X251563840Y-163244114D01*
X251234962Y-163409702D01*
X250931290Y-163564169D01*
X250663052Y-163702431D01*
X250440472Y-163819405D01*
X250273778Y-163910008D01*
X250173195Y-163969155D01*
X250173000Y-163969283D01*
X250018518Y-164068712D01*
X249855403Y-164171948D01*
X249801049Y-164205853D01*
X249609751Y-164363803D01*
X249492299Y-164551618D01*
X249453491Y-164755455D01*
X249466972Y-164867464D01*
X249503292Y-165031997D01*
X249556044Y-165222121D01*
X249589443Y-165326955D01*
X249725554Y-165733500D01*
X249727027Y-166813000D01*
X249724669Y-167193595D01*
X249717235Y-167626044D01*
X249705589Y-168077743D01*
X249690596Y-168516088D01*
X249673121Y-168908476D01*
X249669763Y-168972000D01*
X249634853Y-170023310D01*
X249648013Y-171009016D01*
X249709178Y-171927924D01*
X249818282Y-172778841D01*
X249900562Y-173226500D01*
X249953104Y-173486352D01*
X250010179Y-173775737D01*
X250063421Y-174051944D01*
X250091268Y-174200167D01*
X250274003Y-175041570D01*
X250511096Y-175873876D01*
X250653306Y-176298784D01*
X250852068Y-176856147D01*
X251064605Y-177434188D01*
X251285469Y-178019064D01*
X251509212Y-178596934D01*
X251730385Y-179153957D01*
X251943542Y-179676289D01*
X252143233Y-180150091D01*
X252324012Y-180561520D01*
X252375926Y-180675463D01*
X252538335Y-181039848D01*
X252661289Y-181344478D01*
X252748796Y-181602256D01*
X252804863Y-181826087D01*
X252833497Y-182028876D01*
X252839374Y-182167927D01*
X252832689Y-182308807D01*
X252806735Y-182389731D01*
X252758116Y-182432510D01*
X252621340Y-182478474D01*
X252490282Y-182458692D01*
X252350606Y-182368519D01*
X252244935Y-182266276D01*
X252159452Y-182165640D01*
X252037858Y-182009428D01*
X251891143Y-181812418D01*
X251730292Y-181589393D01*
X251566294Y-181355132D01*
X251549655Y-181330945D01*
X251100818Y-180632180D01*
X250664819Y-179865072D01*
X250249340Y-179045791D01*
X249862059Y-178190504D01*
X249510658Y-177315378D01*
X249202816Y-176436581D01*
X249157787Y-176295667D01*
X249069432Y-176019790D01*
X248963685Y-175696573D01*
X248851309Y-175358520D01*
X248743068Y-175038139D01*
X248695219Y-174898667D01*
X248551106Y-174454905D01*
X248430315Y-174020254D01*
X248322794Y-173556970D01*
X248272518Y-173311167D01*
X248213089Y-173013088D01*
X248150560Y-172705226D01*
X248089854Y-172411418D01*
X248035890Y-172155501D01*
X247997242Y-171977667D01*
X247957470Y-171794845D01*
X247923261Y-171624856D01*
X247894120Y-171459567D01*
X247869555Y-171290843D01*
X247849071Y-171110553D01*
X247832174Y-170910562D01*
X247818371Y-170682738D01*
X247807168Y-170418948D01*
X247798070Y-170111057D01*
X247790585Y-169750934D01*
X247784218Y-169330445D01*
X247778476Y-168841457D01*
X247772935Y-168283258D01*
X247749094Y-165753016D01*
X247618556Y-165643176D01*
X247519860Y-165573609D01*
X247423018Y-165549030D01*
X247295926Y-165556498D01*
X247200335Y-165572125D01*
X247099658Y-165598644D01*
X246986475Y-165640068D01*
X246853366Y-165700407D01*
X246692910Y-165783675D01*
X246497688Y-165893883D01*
X246260279Y-166035043D01*
X245973263Y-166211167D01*
X245629221Y-166426267D01*
X245283500Y-166644584D01*
X244935267Y-166865125D01*
X244571752Y-167095314D01*
X244208285Y-167325445D01*
X243860193Y-167545814D01*
X243542808Y-167746715D01*
X243271458Y-167918443D01*
X243124500Y-168011426D01*
X242659989Y-168310168D01*
X242246374Y-168588200D01*
X241871182Y-168856004D01*
X241521936Y-169124060D01*
X241186164Y-169402849D01*
X240851392Y-169702852D01*
X240505144Y-170034549D01*
X240134947Y-170408421D01*
X239728327Y-170834949D01*
X239596663Y-170975503D01*
X239445805Y-171123848D01*
X239274175Y-171273130D01*
X239130997Y-171382307D01*
X238983441Y-171497564D01*
X238792993Y-171667609D01*
X238570334Y-171881672D01*
X238326147Y-172128985D01*
X238071117Y-172398775D01*
X237815925Y-172680273D01*
X237618154Y-172907463D01*
X237494749Y-173047469D01*
X237322348Y-173236432D01*
X237111505Y-173463125D01*
X236872776Y-173716321D01*
X236616716Y-173984794D01*
X236353879Y-174257316D01*
X236213281Y-174401764D01*
X235954832Y-174668375D01*
X235700857Y-174934092D01*
X235461234Y-175188308D01*
X235245841Y-175420415D01*
X235064557Y-175619807D01*
X234927261Y-175775874D01*
X234871455Y-175842634D01*
X234623668Y-176134672D01*
X234412362Y-176352125D01*
X234235974Y-176496045D01*
X234092939Y-176567486D01*
X233981695Y-176567499D01*
X233900676Y-176497137D01*
X233900156Y-176496310D01*
X233882081Y-176437075D01*
X233898892Y-176353768D01*
X233955710Y-176225969D01*
X233979810Y-176178810D01*
X234093212Y-175977520D01*
X234248067Y-175726696D01*
X234433001Y-175442968D01*
X234636638Y-175142964D01*
X234847603Y-174843314D01*
X235054520Y-174560646D01*
X235246014Y-174311589D01*
X235318840Y-174221333D01*
X235470288Y-174035894D01*
X235611443Y-173861079D01*
X235729201Y-173713255D01*
X235810456Y-173608791D01*
X235827238Y-173586333D01*
X235955965Y-173411848D01*
X236106970Y-173209372D01*
X236270100Y-172992285D01*
X236435197Y-172773969D01*
X236592107Y-172567803D01*
X236730673Y-172387167D01*
X236840741Y-172245441D01*
X236912155Y-172156006D01*
X236919691Y-172147000D01*
X236987000Y-172058207D01*
X237086947Y-171914459D01*
X237207922Y-171732984D01*
X237338313Y-171531012D01*
X237390407Y-171448500D01*
X237735491Y-170898167D01*
X237701913Y-170623000D01*
X237671300Y-170307637D01*
X237670668Y-170056017D01*
X237707528Y-169850250D01*
X237789394Y-169672448D01*
X237923777Y-169504722D01*
X238118189Y-169329183D01*
X238306870Y-169182423D01*
X238506552Y-169031268D01*
X238744996Y-168848507D01*
X239011780Y-168642329D01*
X239296486Y-168420924D01*
X239588694Y-168192481D01*
X239877985Y-167965191D01*
X240153940Y-167747242D01*
X240406138Y-167546825D01*
X240624161Y-167372128D01*
X240797589Y-167231343D01*
X240916003Y-167132658D01*
X240929261Y-167121224D01*
X241088550Y-166972491D01*
X241263321Y-166793475D01*
X241417601Y-166621132D01*
X241427356Y-166609491D01*
X241519142Y-166507426D01*
X241662873Y-166357853D01*
X241848418Y-166170840D01*
X242065644Y-165956452D01*
X242304421Y-165724758D01*
X242554617Y-165485825D01*
X242627761Y-165416713D01*
X242977444Y-165086630D01*
X243271772Y-164807326D01*
X243517417Y-164571953D01*
X243721053Y-164373664D01*
X243889352Y-164205610D01*
X244028987Y-164060944D01*
X244146631Y-163932817D01*
X244248958Y-163814381D01*
X244342640Y-163698788D01*
X244434350Y-163579191D01*
X244486017Y-163509699D01*
X244626931Y-163327990D01*
X244774896Y-163152590D01*
X244909903Y-163006482D01*
X244991239Y-162929419D01*
X245288196Y-162674730D01*
X245532041Y-162460896D01*
X245735623Y-162275688D01*
X245911789Y-162106877D01*
X246073387Y-161942236D01*
X246233265Y-161769536D01*
X246362315Y-161624474D01*
X246652318Y-161303497D01*
X246982049Y-160953889D01*
X247327106Y-160600719D01*
X247663087Y-160269053D01*
X247905033Y-160039667D01*
X248012219Y-159932321D01*
X248163752Y-159769255D01*
X248350897Y-159560710D01*
X248564919Y-159316927D01*
X248797085Y-159048147D01*
X249038660Y-158764611D01*
X249280910Y-158476561D01*
X249515100Y-158194236D01*
X249732497Y-157927879D01*
X249924366Y-157687731D01*
X250060384Y-157512484D01*
X250252177Y-157268423D01*
X250472369Y-157000523D01*
X250697528Y-156736599D01*
X250904223Y-156504463D01*
X250963672Y-156440335D01*
X251371532Y-155995996D01*
X251726057Y-155586375D01*
X252040735Y-155194194D01*
X252329053Y-154802178D01*
X252604498Y-154393052D01*
X252782327Y-154110894D01*
X252979514Y-153786273D01*
X253132207Y-153522586D01*
X253243693Y-153310875D01*
X253317262Y-153142180D01*
X253356202Y-153007543D01*
X253363803Y-152898003D01*
X253343352Y-152804603D01*
X253298139Y-152718383D01*
X253295155Y-152713902D01*
X253228847Y-152627667D01*
X253158772Y-152581719D01*
X253053455Y-152560812D01*
X252965572Y-152554255D01*
X252782608Y-152555347D01*
X252581131Y-152573538D01*
X252492885Y-152587715D01*
X252349341Y-152623676D01*
X252137087Y-152687828D01*
X251865870Y-152776532D01*
X251545438Y-152886151D01*
X251185536Y-153013046D01*
X250795911Y-153153581D01*
X250386310Y-153304117D01*
X249966481Y-153461016D01*
X249546169Y-153620640D01*
X249135122Y-153779353D01*
X248743086Y-153933515D01*
X248379809Y-154079488D01*
X248055036Y-154213636D01*
X247778514Y-154332321D01*
X247590666Y-154417399D01*
X247392728Y-154515899D01*
X247153979Y-154643254D01*
X246904974Y-154782759D01*
X246683544Y-154913281D01*
X246465849Y-155042407D01*
X246199935Y-155195038D01*
X245912861Y-155355924D01*
X245631683Y-155509817D01*
X245498210Y-155581261D01*
X245235166Y-155723185D01*
X244956657Y-155877617D01*
X244688251Y-156030111D01*
X244455517Y-156166220D01*
X244352166Y-156228749D01*
X244147041Y-156354252D01*
X243895505Y-156506929D01*
X243623990Y-156670801D01*
X243358930Y-156829893D01*
X243251500Y-156894059D01*
X242868163Y-157126216D01*
X242431823Y-157397307D01*
X241938223Y-157710024D01*
X241383105Y-158067059D01*
X240918120Y-158369265D01*
X240749107Y-158484772D01*
X240540819Y-158634937D01*
X240319329Y-158800588D01*
X240110715Y-158962554D01*
X240104695Y-158967341D01*
X239894495Y-159130093D01*
X239668019Y-159297975D01*
X239452289Y-159451361D01*
X239274328Y-159570625D01*
X239272154Y-159572010D01*
X239129253Y-159668249D01*
X238936264Y-159805905D01*
X238709021Y-159973268D01*
X238463359Y-160158628D01*
X238215113Y-160350275D01*
X238138246Y-160410597D01*
X237904856Y-160592167D01*
X237680581Y-160762265D01*
X237478211Y-160911525D01*
X237310532Y-161030584D01*
X237190334Y-161110077D01*
X237155500Y-161130257D01*
X236892937Y-161222936D01*
X236610799Y-161239844D01*
X236322146Y-161183332D01*
X236040038Y-161055754D01*
X235808844Y-160887688D01*
X235631128Y-160710050D01*
X235516987Y-160537666D01*
X235450819Y-160345801D01*
X235442803Y-160307304D01*
X235428497Y-160219693D01*
X235423755Y-160138316D01*
X235432993Y-160059522D01*
X235460624Y-159979662D01*
X235511064Y-159895086D01*
X235588727Y-159802145D01*
X235698029Y-159697189D01*
X235843383Y-159576569D01*
X236029205Y-159436634D01*
X236259909Y-159273736D01*
X236539910Y-159084224D01*
X236873623Y-158864449D01*
X237265463Y-158610762D01*
X237719844Y-158319512D01*
X238241180Y-157987051D01*
X238277333Y-157964027D01*
X238647128Y-157727868D01*
X239002635Y-157499550D01*
X239336015Y-157284198D01*
X239639426Y-157086933D01*
X239905027Y-156912879D01*
X240124978Y-156767159D01*
X240291438Y-156654895D01*
X240396566Y-156581211D01*
X240415166Y-156567245D01*
X240669661Y-156376857D01*
X240930589Y-156197565D01*
X241219153Y-156015628D01*
X241556558Y-155817305D01*
X241685166Y-155744266D01*
X241926298Y-155607024D01*
X242192725Y-155453359D01*
X242449778Y-155303370D01*
X242637666Y-155192187D01*
X242858128Y-155067084D01*
X243122305Y-154927238D01*
X243395739Y-154790421D01*
X243625756Y-154682548D01*
X243882823Y-154561374D01*
X244174967Y-154414543D01*
X244465321Y-154261039D01*
X244705256Y-154126705D01*
X244961885Y-153981080D01*
X245256346Y-153819772D01*
X245550981Y-153663130D01*
X245791500Y-153539793D01*
X246083763Y-153399733D01*
X246443448Y-153237225D01*
X246857910Y-153057352D01*
X247314505Y-152865199D01*
X247800589Y-152665848D01*
X248303517Y-152464383D01*
X248810645Y-152265885D01*
X249309328Y-152075440D01*
X249786923Y-151898129D01*
X250230785Y-151739035D01*
X250511666Y-151642238D01*
X250658411Y-151592398D01*
X250864522Y-151522022D01*
X251109329Y-151438187D01*
X251372162Y-151347971D01*
X251570000Y-151279923D01*
X252160484Y-151089181D01*
X252822820Y-150898210D01*
X253544274Y-150710480D01*
X254312112Y-150529459D01*
X254385166Y-150513146D01*
X254702684Y-150447871D01*
X254959709Y-150410624D01*
X255176167Y-150402956D01*
X255371987Y-150426422D01*
M02*
