<?xml version="1.0" standalone="no"?>
 <!DOCTYPE svg PUBLIC "-//W3C//DTD SVG 1.1//EN" 
 "http://www.w3.org/Graphics/SVG/1.1/DTD/svg11.dtd"> 
<svg
  xmlns:svg="http://www.w3.org/2000/svg"
  xmlns="http://www.w3.org/2000/svg"
  xmlns:xlink="http://www.w3.org/1999/xlink"
  version="1.1"
  width="36.713160cm" height="19.131280cm" viewBox="0 0 144540 75320">
<title>SVG Picture created as ENV_KB-Eco1_User.svg date 2021/09/03 15:30:30 </title>
  <desc>Picture generated by PCBNEW </desc>
<g style="fill:#000000; fill-opacity:1;stroke:#000000; stroke-opacity:1;
stroke-linecap:round; stroke-linejoin:round;"
 transform="translate(0 0) scale(1 1)">
</g>
<g style="fill:#000000; fill-opacity:0.0; 
stroke:#000000; stroke-width:-0.000393701; stroke-opacity:1; 
stroke-linecap:round; stroke-linejoin:round;">
</g>
<g style="fill:#007684; fill-opacity:0.0; 
stroke:#007684; stroke-width:-0.000393701; stroke-opacity:1; 
stroke-linecap:round; stroke-linejoin:round;">
</g>
<g style="fill:#007684; fill-opacity:0.0; 
stroke:#007684; stroke-width:39.3701; stroke-opacity:1; 
stroke-linecap:round; stroke-linejoin:round;">
<path d="M2420.79 22443.9 A984.448 984.448 0.0 0 0 3405.24 23428.3" />
<path d="M2420 7325
L2420 22443
" />
<path d="M136613 23428
L3405 23428
" />
<path d="M136614 23428.1 A984.252 984.252 0.0 0 0 137598 22443.9" />
<path d="M137597 5514
L137597 22443
" />
<path d="M137598 5514.76 A196.85 196.85 0.0 0 0 137401 5317.91" />
<path d="M137598 28211.6 A1023.62 1023.62 0.0 0 0 136574 27188" />
<path d="M3405 27187
L136574 27187
" />
<path d="M3405.04 27188 A984.252 984.252 0.0 0 0 2420.79 28172.2" />
<path d="M64979 4451
L64979 3113
" />
<path d="M66908 4451
L64979 4451
" />
<path d="M66908 3113
L66908 4451
" />
<path d="M64979 3113
L66908 3113
" />
<path d="M107952 4530.51 A196.85 196.85 0.0 0 0 107755 4333.66" />
<path d="M114133 5317.91 A196.85 196.85 0.0 0 0 113937 5514.76" />
<path d="M113740 8428.15 A196.85 196.85 0.0 0 0 113937 8231.3" />
<path d="M107952 8231.3 A196.85 196.85 0.0 0 0 108149 8428.15" />
<path d="M137204 63782.5 A393.824 393.824 0.0 0 0 137598 63388.7" />
<path d="M75373.5 63782.5 A393.824 393.824 0.0 0 0 74979.7 64176.3" />
<path d="M74586.1 64619.1 A393.824 393.824 0.0 0 0 74980 64225.3" />
<path d="M74979 64176
L74979 64225
" />
<path d="M31899 64619
L74586 64619
" />
<path d="M31505 64127
L31505 64225
" />
<path d="M31505.6 64225.4 A393.824 393.824 0.0 0 0 31899.4 64619.2" />
<path d="M31505.6 64127.1 A393.824 393.824 0.0 0 0 31111.7 63733.3" />
<path d="M3218.04 63339.6 A393.701 393.701 0.0 0 0 3611.74 63733.3" />
<path d="M3221.96 34416.3 A395.664 395.664 0.0 0 0 2826.3 34020.7" />
<path d="M2420.79 33625 A395.664 395.664 0.0 0 0 2826.29 34020.5" />
<path d="M1416 65441
L139408 65441
" />
<path d="M2420 33625
L2420 28172
" />
<path d="M3218 63339
L3221 34416
" />
<path d="M31111 63733
L3611 63733
" />
<path d="M137204 63782
L75373 63782
" />
<path d="M137597 28211
L137598 63388
" />
<path d="M114133 5317
L137401 5317
" />
<path d="M113936 8231
L113936 5514
" />
<path d="M108149 8428
L113739 8428
" />
<path d="M107952 4530
L107952 8231
" />
<path d="M109763 7758
L109763 3270
" />
<path d="M111259 7758
L109763 7758
" />
<path d="M111259 3270
L111259 7758
" />
<path d="M109763 3270
L111259 3270
" />
<path d="M82046.8 4333.66 A787.402 787.402 0.0 0 0 81259.4 5121.06" />
<path d="M82046 4333
L107755 4333
" />
<path d="M81259 5121
L81259 5632
" />
<path d="M80472 6420.28 A787.402 787.402 0.0 0 0 81259.4 5632.87" />
<path d="M74448 6420
L80471 6420
" />
<path d="M74448.4 6420.28 A393.701 393.701 0.0 0 0 74054.6 6813.98" />
<path d="M74054 7562
L74054 6813
" />
<path d="M73660.9 7955.71 A393.701 393.701 0.0 0 0 74054.6 7562.01" />
<path d="M64487 7955
L73660 7955
" />
<path d="M72794 2719
L139408 2719
" />
<path d="M72794.8 2719.49 A393.701 393.701 0.0 0 0 72401.1 3113.19" />
<path d="M72401 6538
L72401 3113
" />
<path d="M72204.3 6735.24 A196.85 196.85 0.0 0 0 72401.1 6538.39" />
<path d="M68582 6735
L72204 6735
" />
<path d="M68385.3 6538.38 A196.86 196.86 0.0 0 0 68582.2 6735.24" />
<path d="M68385 3115
L68385 6538
" />
<path d="M68385.3 3115.14 A395.664 395.664 0.0 0 0 67989.7 2719.48" />
<path d="M64094 7562
L64094 6538
" />
<path d="M64094 7562.01 A393.701 393.701 0.0 0 0 64487.7 7955.71" />
<path d="M64094 6538.39 A393.701 393.701 0.0 0 0 63700.3 6144.69" />
<path d="M65235 7050
L65235 6184
" />
<path d="M67361 7050
L65235 7050
" />
<path d="M67361 6184
L67361 7050
" />
<path d="M65235 6184
L67361 6184
" />
<path d="M3601 6144
L63700 6144
" />
<path d="M3601.89 6144.69 A1181.1 1181.1 0.0 0 0 2420.79 7325.79" />
<path d="M235.752 64260.8 A1181.1 1181.1 0.0 0 0 1416.85 65441.9" />
<path d="M139409 65441.9 A1181.1 1181.1 0.0 0 0 140590 64260.8" />
<path d="M140590 3900.59 A1181.1 1181.1 0.0 0 0 139409 2719.49" />
<path d="M1416.85 2719.49 A1181.1 1181.1 0.0 0 0 235.752 3900.59" />
<path d="M67989 2719
L1416 2719
" />
<path d="M140590 64260
L140590 3900
" />
<path d="M235 3900
L235 64260
" />
<circle cx="138779" cy="63113.2" r="452.756" /> 
<circle cx="134901" cy="25308.1" r="452.756" /> 
<circle cx="2007.41" cy="63152.6" r="452.756" /> 
<circle cx="138740" cy="4569.88" r="452.756" /> 
<circle cx="5885.36" cy="25317.9" r="452.756" /> 
<circle cx="2046.78" cy="4569.88" r="452.756" /> 
<circle cx="70393.2" cy="25317.9" r="452.756" /> 
<circle cx="69212.1" cy="62365.2" r="452.756" /> 
<g >
</g>
<g >
</g>
<g >
</g>
<g >
</g>
<g >
</g>
<g >
</g>
<g >
</g>
<g >
</g>
<g >
</g>
<g >
</g>
<g >
</g>
<g >
</g>
<g >
</g>
<g >
</g>
<g >
</g>
<g >
</g>
<g >
</g>
<g >
</g>
<g >
</g>
<g >
</g>
<g >
</g>
<g >
</g>
<g >
</g>
<g >
</g>
<g >
</g>
<g >
</g>
<g >
</g>
<g >
</g>
<g >
</g>
<g >
</g>
<g >
</g>
<g >
</g>
<g >
</g>
<g >
</g>
<g >
</g>
<g >
</g>
<g >
</g>
<g >
</g>
<g >
</g>
<g >
</g>
<g >
</g>
<g >
</g>
<g >
</g>
<g >
</g>
<g >
</g>
<g >
</g>
<g >
</g>
<g >
</g>
<g >
</g>
<g >
</g>
<g >
</g>
<g >
</g>
<g >
</g>
<g >
</g>
<g >
</g>
<g >
</g>
<g >
</g>
<g >
</g>
<g >
</g>
<g >
</g>
<g >
</g>
<g >
</g>
<g >
</g>
<g >
</g>
<g >
</g>
<g >
</g>
<g >
</g>
<g >
</g>
<g >
</g>
<g >
</g>
<g >
</g>
<g >
</g>
<g >
</g>
<g >
</g>
<g >
</g>
<g >
</g>
<g >
</g>
<g >
</g>
<g >
</g>
<g >
</g>
<g >
</g>
<g >
</g>
<g >
</g>
<g >
</g>
<g >
</g>
<g >
</g>
<g >
</g>
<g >
</g>
<g >
</g>
<g >
</g>
<g >
</g>
<g >
</g>
<g >
</g>
<g >
</g>
<g >
</g>
<g >
</g>
<g >
</g>
<g >
</g>
<g >
</g>
<g >
</g>
<g >
</g>
<g >
</g>
<g >
</g>
<g >
</g>
<g >
</g>
<g >
</g>
<g >
</g>
<g >
</g>
<g >
</g>
<g >
</g>
<g >
</g>
<g >
</g>
<g >
</g>
<g >
</g>
<g >
</g>
<g >
</g>
<g >
</g>
<g >
</g>
<g >
</g>
<g >
</g>
<g >
</g>
<g >
</g>
<g >
</g>
<g >
</g>
<g >
</g>
<g >
</g>
<g >
</g>
<g >
</g>
<g >
</g>
<g >
</g>
<g >
</g>
<g >
</g>
<g >
</g>
<g >
</g>
<g >
</g>
<g >
</g>
<g >
</g>
<g >
</g>
<g >
</g>
<g >
</g>
<g >
</g>
<g >
</g>
<g >
</g>
<g >
</g>
<g >
</g>
<g >
</g>
<g >
</g>
<g >
</g>
<g >
</g>
<g >
</g>
<g >
</g>
<g >
</g>
<g >
</g>
<g >
</g>
<g >
</g>
<g >
</g>
<g >
</g>
<g >
</g>
<g >
</g>
<g >
</g>
<g >
</g>
<g >
</g>
<g >
</g>
<g >
</g>
<g >
</g>
<g >
</g>
<g >
</g>
<g >
</g>
<g >
</g>
<g >
</g>
<g >
</g>
<g >
</g>
<g >
</g>
<g >
</g>
<g >
</g>
<g >
</g>
<g >
</g>
<g >
</g>
<g >
</g>
<g >
</g>
<g >
</g>
<g >
</g>
<g >
</g>
<g >
</g>
<g >
</g>
<g >
</g>
<g >
</g>
<g >
</g>
<g >
</g>
<g >
</g>
<g >
</g>
<g >
</g>
<g >
</g>
<g >
</g>
<g >
</g>
<g >
</g>
<g >
</g>
<g >
</g>
</g> 
</svg>
