<?xml version="1.0" standalone="no"?>
 <!DOCTYPE svg PUBLIC "-//W3C//DTD SVG 1.1//EN" 
 "http://www.w3.org/Graphics/SVG/1.1/DTD/svg11.dtd"> 
<svg
  xmlns:svg="http://www.w3.org/2000/svg"
  xmlns="http://www.w3.org/2000/svg"
  xmlns:xlink="http://www.w3.org/1999/xlink"
  version="1.1"
  width="36.713160cm" height="19.131280cm" viewBox="0 0 144540 75320">
<title>SVG Picture created as ENV_KB-Eco2_User.svg date 2021/09/03 15:30:30 </title>
  <desc>Picture generated by PCBNEW </desc>
<g style="fill:#000000; fill-opacity:1;stroke:#000000; stroke-opacity:1;
stroke-linecap:round; stroke-linejoin:round;"
 transform="translate(0 0) scale(1 1)">
</g>
<g style="fill:#000000; fill-opacity:0.0; 
stroke:#000000; stroke-width:-0.000393701; stroke-opacity:1; 
stroke-linecap:round; stroke-linejoin:round;">
</g>
<g style="fill:#C29200; fill-opacity:0.0; 
stroke:#C29200; stroke-width:-0.000393701; stroke-opacity:1; 
stroke-linecap:round; stroke-linejoin:round;">
</g>
<g style="fill:#C29200; fill-opacity:0.0; 
stroke:#C29200; stroke-width:39.3701; stroke-opacity:1; 
stroke-linecap:round; stroke-linejoin:round;">
<path d="M70983.8 63782.5 A118.11 118.11 0.0 0 0 71101.9 63664.4" />
<path d="M74369.7 63664.4 A1633.98 1633.98 0.0 0 0 71101.8 63664.4" />
<path d="M74369.6 63664.4 A118.11 118.11 0.0 0 0 74487.7 63782.5" />
<path d="M31613.7 63782.5 A118.11 118.11 0.0 0 0 31731.8 63664.4" />
<path d="M34999.5 63664.4 A118.11 118.11 0.0 0 0 35117.6 63782.5" />
<path d="M34999.6 63664.4 A1633.98 1633.98 0.0 0 0 31731.7 63664.4" />
<path d="M73601.9 64121 A448.924 448.924 0.0 0 0 74050.8 64569.9" />
<path d="M139015 64569
L74050 64569
" />
<path d="M73602 63687
L73601 64120
" />
<path d="M71869 64120
L71869 63687
" />
<path d="M71420.5 64569.9 A448.924 448.924 0.0 0 0 71869.5 64121" />
<path d="M73602 63688 A866.285 866.285 0.0 0 0 71869.5 63688" />
<path d="M34704 64569
L71420 64569
" />
<path d="M34250 64116
L34250 63664
" />
<path d="M34250.5 64116.1 A453.781 453.781 0.0 0 0 34704.3 64569.9" />
<path d="M32480 64116
L32480 63664
" />
<path d="M32027.1 64569.9 A453.781 453.781 0.0 0 0 32480.9 64116.1" />
<path d="M1771 64569
L32027 64569
" />
<path d="M34251.5 63664.4 A885.827 885.827 0.0 0 0 32479.8 63664.4" />
<path d="M137558 5534
L137558 22443
" />
<path d="M136574 23428.3 A984.448 984.448 0.0 0 0 137559 22443.9" />
<path d="M3542 23428
L136574 23428
" />
<path d="M2558.59 22443.9 A984.252 984.252 0.0 0 0 3542.84 23428.1" />
<path d="M2558 6951
L2558 22443
" />
<path d="M137559 28172.2 A984.252 984.252 0.0 0 0 136574 27188" />
<path d="M3542 27187
L136574 27187
" />
<path d="M3542.84 27188 A984.252 984.252 0.0 0 0 2558.59 28172.2" />
<path d="M3030 34490
L2756 34490
" />
<path d="M2558.59 34292.3 A197.832 197.832 0.0 0 0 2756.42 34490.2" />
<path d="M3227.88 34688 A197.832 197.832 0.0 0 0 3030.05 34490.2" />
<path d="M80609 5967
L80944 5967
" />
<path d="M81357 4806
L81357 5554
" />
<path d="M80944.4 5967.52 A413.386 413.386 0.0 0 0 81357.8 5554.13" />
<path d="M81771.2 4392.72 A413.386 413.386 0.0 0 0 81357.8 4806.1" />
<path d="M111416 4727
L111416 3979
" />
<path d="M112578 5140
L111830 5140
" />
<path d="M111417 4727.36 A413.386 413.386 0.0 0 0 111830 5140.75" />
<path d="M111417 3979.33 A413.386 413.386 0.0 0 0 111003 3565.94" />
<path d="M3227 34687
L3227 62601
" />
<path d="M3227.88 62601.4 A1181.1 1181.1 0.0 0 0 4408.98 63782.5" />
<path d="M137559 5534.45 A394.193 394.193 0.0 0 0 137164 5140.26" />
<path d="M112578 5140
L137164 5140
" />
<path d="M110058 3565
L111003 3565
" />
<path d="M110059 3565.94 A413.386 413.386 0.0 0 0 109645 3979.33" />
<path d="M109232 4392.72 A413.386 413.386 0.0 0 0 109645 3979.33" />
<path d="M81771 4392
L109231 4392
" />
<path d="M3542 5967
L80609 5967
" />
<path d="M3542.84 5967.52 A984.252 984.252 0.0 0 0 2558.59 6951.77" />
<path d="M2558 28172
L2558 34292
" />
<path d="M31613 63782
L4408 63782
" />
<path d="M70983 63782
L35117 63782
" />
<path d="M136377 63782
L74487 63782
" />
<path d="M136377 63782.5 A1181.1 1181.1 0.0 0 0 137559 62601.4" />
<path d="M137558 28172
L137558 62601
" />
<path d="M1771 3113
L139015 3113
" />
<path d="M1771.18 3113.19 A1181.1 1181.1 0.0 0 0 590.082 4294.29" />
<path d="M590 63388
L590 4294
" />
<path d="M590.082 63388.8 A1181.1 1181.1 0.0 0 0 1771.18 64569.9" />
<path d="M139015 64569.9 A1181.1 1181.1 0.0 0 0 140196 63388.8" />
<path d="M140196 4294
L140196 63388
" />
<path d="M140196 4294.29 A1181.1 1181.1 0.0 0 0 139015 3113.19" />
<circle cx="2046.78" cy="4569.88" r="452.756" /> 
<circle cx="138740" cy="4569.88" r="452.756" /> 
<circle cx="134901" cy="25308.1" r="452.756" /> 
<circle cx="70393.2" cy="25317.9" r="452.756" /> 
<circle cx="5885.36" cy="25317.9" r="452.756" /> 
<circle cx="2007.41" cy="63152.6" r="452.756" /> 
<circle cx="69212.1" cy="62365.2" r="452.756" /> 
<circle cx="138779" cy="63113.2" r="452.756" /> 
<g >
</g>
<g >
</g>
<g >
</g>
<g >
</g>
<g >
</g>
<g >
</g>
<g >
</g>
<g >
</g>
<g >
</g>
<g >
</g>
<g >
</g>
<g >
</g>
<g >
</g>
<g >
</g>
<g >
</g>
<g >
</g>
<g >
</g>
<g >
</g>
<g >
</g>
<g >
</g>
<g >
</g>
<g >
</g>
<g >
</g>
<g >
</g>
<g >
</g>
<g >
</g>
<g >
</g>
<g >
</g>
<g >
</g>
<g >
</g>
<g >
</g>
<g >
</g>
<g >
</g>
<g >
</g>
<g >
</g>
<g >
</g>
<g >
</g>
<g >
</g>
<g >
</g>
<g >
</g>
<g >
</g>
<g >
</g>
<g >
</g>
<g >
</g>
<g >
</g>
<g >
</g>
<g >
</g>
<g >
</g>
<g >
</g>
<g >
</g>
<g >
</g>
<g >
</g>
<g >
</g>
<g >
</g>
<g >
</g>
<g >
</g>
<g >
</g>
<g >
</g>
<g >
</g>
<g >
</g>
<g >
</g>
<g >
</g>
<g >
</g>
<g >
</g>
<g >
</g>
<g >
</g>
<g >
</g>
<g >
</g>
<g >
</g>
<g >
</g>
<g >
</g>
<g >
</g>
<g >
</g>
<g >
</g>
<g >
</g>
<g >
</g>
<g >
</g>
<g >
</g>
<g >
</g>
<g >
</g>
<g >
</g>
<g >
</g>
<g >
</g>
<g >
</g>
<g >
</g>
<g >
</g>
<g >
</g>
<g >
</g>
<g >
</g>
<g >
</g>
<g >
</g>
<g >
</g>
<g >
</g>
<g >
</g>
<g >
</g>
<g >
</g>
<g >
</g>
<g >
</g>
<g >
</g>
<g >
</g>
<g >
</g>
<g >
</g>
<g >
</g>
<g >
</g>
<g >
</g>
<g >
</g>
<g >
</g>
<g >
</g>
<g >
</g>
<g >
</g>
<g >
</g>
<g >
</g>
<g >
</g>
<g >
</g>
<g >
</g>
<g >
</g>
<g >
</g>
<g >
</g>
<g >
</g>
<g >
</g>
<g >
</g>
<g >
</g>
<g >
</g>
<g >
</g>
<g >
</g>
<g >
</g>
<g >
</g>
<g >
</g>
<g >
</g>
<g >
</g>
<g >
</g>
<g >
</g>
<g >
</g>
<g >
</g>
<g >
</g>
<g >
</g>
<g >
</g>
<g >
</g>
<g >
</g>
<g >
</g>
<g >
</g>
<g >
</g>
<g >
</g>
<g >
</g>
<g >
</g>
<g >
</g>
<g >
</g>
<g >
</g>
<g >
</g>
<g >
</g>
<g >
</g>
<g >
</g>
<g >
</g>
<g >
</g>
<g >
</g>
<g >
</g>
<g >
</g>
<g >
</g>
<g >
</g>
<g >
</g>
<g >
</g>
<g >
</g>
<g >
</g>
<g >
</g>
<g >
</g>
<g >
</g>
<g >
</g>
<g >
</g>
<g >
</g>
<g >
</g>
<g >
</g>
<g >
</g>
<g >
</g>
<g >
</g>
<g >
</g>
<g >
</g>
<g >
</g>
<g >
</g>
<g >
</g>
<g >
</g>
<g >
</g>
<g >
</g>
<g >
</g>
<g >
</g>
<g >
</g>
<g >
</g>
<g >
</g>
<g >
</g>
<g >
</g>
<g >
</g>
<g >
</g>
<g >
</g>
<g >
</g>
<g >
</g>
<g >
</g>
<g >
</g>
<g >
</g>
<g >
</g>
</g> 
</svg>
