  0
SECTION
  2
HEADER
  9
$ANGBASE
  50
0.0
  9
$ANGDIR
  70
1
  9
$MEASUREMENT
  70
1
  0
ENDSEC
  0
SECTION
  2
TABLES
  0
TABLE
  2
LTYPE
  70
4
  0
LTYPE
  5
40F
  2
CONTINUOUS
  70
0
  3
Solid line
  72
65
  73
0
  40
0.0
  0
LTYPE
  5
410
  2
DASHDOT
 70
0
  3
Dash Dot ____ _ ____ _
 72
65
 73
4
 40
2.0
 49
1.25
 49
-0.25
 49
0.25
 49
-0.25
  0
LTYPE
  5
411
  2
DASHED
 70
0
  3
Dashed __ __ __ __ __
 72
65
 73
2
 40
0.75
 49
0.5
 49
-0.25
  0
LTYPE
  5
43B
  2
DOTTED
 70
0
  3
Dotted .  .  .  .
 72
65
 73
2
 40
0.2
 49
0.0
 49
-0.2
  0
ENDTAB
  0
TABLE
  2
STYLE
  70
4
  0
STYLE
  2
KICAD
  70
0
  40
0
  41
1
  42
1
  50
0
  71
0
  3
isocp.shx
  0
STYLE
  2
KICADB
  70
0
  40
0
  41
1
  42
1
  50
0
  71
0
  3
isocp.shx
  0
STYLE
  2
KICADI
  70
0
  40
0
  41
1
  42
1
  50
15
  71
0
  3
isocp.shx
  0
STYLE
  2
KICADBI
  70
0
  40
0
  41
1
  42
1
  50
15
  71
0
  3
isocp.shx
  0
ENDTAB
  0
TABLE
  2
LAYER
  70
1
  0
LAYER
  2
BLACK
  70
0
  62
7
  6
CONTINUOUS
  0
ENDTAB
  0
ENDSEC
  0
SECTION
  2
ENTITIES
0
CIRCLE
8
BLACK
10
136.322
20
-258.25
40
1.61594
0
CIRCLE
8
BLACK
10
305.137
20
-257.15
40
1.61594
0
CIRCLE
8
BLACK
10
483.722
20
-258.3
40
1.61594
0
CIRCLE
8
BLACK
10
474.097
20
-161.8
40
1.61594
0
CIRCLE
8
BLACK
10
310.022
20
-161.825
40
1.61594
0
CIRCLE
8
BLACK
10
145.897
20
-161.8
40
1.61594
0
CIRCLE
8
BLACK
10
137.497
20
-110.4
40
1.61594
0
CIRCLE
8
BLACK
10
482.497
20
-110.4
40
1.64012
0
LINE
8
BLACK
6
CONTINUOUS
10
407.774
20
-221.701
11
407.774
21
-222.7
0
ARC
8
BLACK
10
415.346
20
-212.171
40
0.5
50
90
51
180
0
ARC
8
BLACK
10
391.398
20
-221.701
40
0.5
50
90
51
180
0
LINE
8
BLACK
6
CONTINUOUS
10
390.898
20
-222.7
11
390.898
21
-221.701
0
ARC
8
BLACK
10
383.397
20
-221.701
40
0.5
50
-0
51
90
0
LINE
8
BLACK
6
CONTINUOUS
10
383.898
20
-222.7
11
383.897
21
-221.701
0
LINE
8
BLACK
6
CONTINUOUS
10
401.847
20
-206.7
11
401.847
21
-202.61
0
ARC
8
BLACK
10
401.347
20
-206.7
40
0.5
50
-90
51
-0
0
LINE
8
BLACK
6
CONTINUOUS
10
401.347
20
-202.11
11
399.947
21
-202.11
0
ARC
8
BLACK
10
399.947
20
-201.61
40
0.5
50
180
51
270
0
ARC
8
BLACK
10
401.347
20
-202.61
40
0.5
50
-0
51
90
0
ARC
8
BLACK
10
413.95
20
-197.175
40
0.5
50
180
51
270
0
LINE
8
BLACK
6
CONTINUOUS
10
414.346
20
-196.237
11
413.95
21
-196.237
0
ARC
8
BLACK
10
413.95
20
-196.737
40
0.5
50
90
51
180
0
ARC
8
BLACK
10
413.95
20
-188.74
40
0.5
50
180
51
270
0
LINE
8
BLACK
6
CONTINUOUS
10
413.45
20
-197.175
11
413.45
21
-196.737
0
ARC
8
BLACK
10
412.95
20
-188.62
40
0.5
50
-0
51
90
0
LINE
8
BLACK
6
CONTINUOUS
10
399.447
20
-201.61
11
399.45
21
-188.62
0
LINE
8
BLACK
6
CONTINUOUS
10
413.45
20
-188.62
11
413.45
21
-188.74
0
LINE
8
BLACK
6
CONTINUOUS
10
399.94
20
-188.12
11
412.95
21
-188.12
0
ARC
8
BLACK
10
172.387
20
-240.75
40
0.5
50
90
51
180
0
LINE
8
BLACK
6
CONTINUOUS
10
174.84
20
-240.25
11
172.387
21
-240.25
0
LINE
8
BLACK
6
CONTINUOUS
10
171.887
20
-241.75
11
171.887
21
-240.75
0
LINE
8
BLACK
6
CONTINUOUS
10
164.887
20
-240.75
11
164.887
21
-241.75
0
ARC
8
BLACK
10
164.387
20
-240.75
40
0.5
50
-0
51
90
0
LINE
8
BLACK
6
CONTINUOUS
10
164.387
20
-240.25
11
148.01
21
-240.25
0
LINE
8
BLACK
6
CONTINUOUS
10
148.011
20
-241.75
11
148.01
21
-240.25
0
LINE
8
BLACK
6
CONTINUOUS
10
141.011
20
-240.75
11
141.011
21
-241.75
0
LINE
8
BLACK
6
CONTINUOUS
10
140.409
20
-240.25
11
140.511
21
-240.25
0
ARC
8
BLACK
10
140.511
20
-240.75
40
0.5
50
-0
51
90
0
LINE
8
BLACK
6
CONTINUOUS
10
141.511
20
-242.25
11
147.511
21
-242.25
0
ARC
8
BLACK
10
390.398
20
-222.7
40
0.5
50
-90
51
-0
0
ARC
8
BLACK
10
414.346
20
-222.699
40
0.5
50
-90
51
-0
0
ARC
8
BLACK
10
165.387
20
-241.75
40
0.5
50
180
51
270
0
ARC
8
BLACK
10
171.387
20
-241.75
40
0.5
50
-90
51
-0
0
LINE
8
BLACK
6
CONTINUOUS
10
384.398
20
-223.2
11
390.398
21
-223.2
0
LINE
8
BLACK
6
CONTINUOUS
10
165.387
20
-242.25
11
171.387
21
-242.25
0
ARC
8
BLACK
10
408.274
20
-222.7
40
0.5
50
180
51
270
0
ARC
8
BLACK
10
147.511
20
-241.75
40
0.5
50
-90
51
-0
0
ARC
8
BLACK
10
141.511
20
-241.75
40
0.5
50
180
51
270
0
LINE
8
BLACK
6
CONTINUOUS
10
149.949
20
-226.25
11
162.949
21
-226.25
0
ARC
8
BLACK
10
384.398
20
-222.7
40
0.5
50
180
51
270
0
ARC
8
BLACK
10
407.274
20
-221.701
40
0.5
50
-0
51
90
0
LINE
8
BLACK
6
CONTINUOUS
10
408.276
20
-223.2
11
414.346
21
-223.199
0
LINE
8
BLACK
6
CONTINUOUS
10
392.836
20
-207.2
11
401.347
21
-207.2
0
LINE
8
BLACK
6
CONTINUOUS
10
391.398
20
-221.201
11
407.274
21
-221.201
0
LINE
8
BLACK
6
CONTINUOUS
10
414.346
20
-189.237
11
413.95
21
-189.24
0
ARC
8
BLACK
10
376.152
20
-188.65
40
0.5
50
90
51
180
0
ARC
8
BLACK
10
389.152
20
-201.65
40
0.5
50
-90
51
-0
0
LINE
8
BLACK
6
CONTINUOUS
10
447.09
20
-188.65
11
447.09
21
-201.65
0
ARC
8
BLACK
10
441.54
20
-201.65
40
0.5
50
-90
51
-0
0
LINE
8
BLACK
6
CONTINUOUS
10
414.846
20
-212.171
11
414.846
21
-222.699
0
ARC
8
BLACK
10
460.59
20
-201.65
40
0.5
50
-90
51
-0
0
ARC
8
BLACK
10
399.95
20
-188.62
40
0.5
50
90
51
180
0
LINE
8
BLACK
6
CONTINUOUS
10
415.346
20
-197.675
11
413.95
21
-197.675
0
ARC
8
BLACK
10
460.59
20
-188.65
40
0.5
50
-0
51
90
0
LINE
8
BLACK
6
CONTINUOUS
10
461.09
20
-188.65
11
461.09
21
-201.65
0
ARC
8
BLACK
10
414.346
20
-189.737
40
0.5
50
-0
51
90
0
LINE
8
BLACK
6
CONTINUOUS
10
414.846
20
-189.737
11
414.846
21
-195.737
0
ARC
8
BLACK
10
415.346
20
-211.171
40
0.5
50
-90
51
-0
0
LINE
8
BLACK
6
CONTINUOUS
10
442.04
20
-188.65
11
442.04
21
-201.65
0
LINE
8
BLACK
6
CONTINUOUS
10
428.54
20
-202.15
11
441.54
21
-202.15
0
ARC
8
BLACK
10
414.346
20
-195.737
40
0.5
50
-90
51
-0
0
LINE
8
BLACK
6
CONTINUOUS
10
415.846
20
-198.175
11
415.846
21
-211.171
0
ARC
8
BLACK
10
389.152
20
-188.65
40
0.5
50
-0
51
90
0
ARC
8
BLACK
10
447.59
20
-188.65
40
0.5
50
90
51
180
0
ARC
8
BLACK
10
376.152
20
-201.65
40
0.5
50
180
51
270
0
ARC
8
BLACK
10
428.54
20
-201.65
40
0.5
50
180
51
270
0
ARC
8
BLACK
10
415.346
20
-198.175
40
0.5
50
-0
51
90
0
LINE
8
BLACK
6
CONTINUOUS
10
447.59
20
-202.15
11
460.59
21
-202.15
0
LINE
8
BLACK
6
CONTINUOUS
10
428.04
20
-188.65
11
428.04
21
-201.65
0
LINE
8
BLACK
6
CONTINUOUS
10
466.64
20
-188.15
11
479.64
21
-188.15
0
ARC
8
BLACK
10
466.64
20
-201.65
40
0.5
50
180
51
270
0
ARC
8
BLACK
10
479.64
20
-188.65
40
0.5
50
-0
51
90
0
ARC
8
BLACK
10
441.54
20
-188.65
40
0.5
50
-0
51
90
0
ARC
8
BLACK
10
466.64
20
-188.65
40
0.5
50
90
51
180
0
ARC
8
BLACK
10
447.59
20
-201.65
40
0.5
50
180
51
270
0
LINE
8
BLACK
6
CONTINUOUS
10
480.14
20
-188.65
11
480.14
21
-201.65
0
LINE
8
BLACK
6
CONTINUOUS
10
428.54
20
-188.15
11
441.54
21
-188.15
0
LINE
8
BLACK
6
CONTINUOUS
10
466.14
20
-188.65
11
466.14
21
-201.65
0
LINE
8
BLACK
6
CONTINUOUS
10
466.64
20
-202.15
11
479.64
21
-202.15
0
LINE
8
BLACK
6
CONTINUOUS
10
447.59
20
-188.15
11
460.59
21
-188.15
0
ARC
8
BLACK
10
428.54
20
-188.65
40
0.5
50
90
51
180
0
ARC
8
BLACK
10
370.102
20
-188.65
40
0.5
50
-0
51
90
0
LINE
8
BLACK
6
CONTINUOUS
10
299.952
20
-202.15
11
312.952
21
-202.15
0
ARC
8
BLACK
10
280.902
20
-188.65
40
0.5
50
90
51
180
0
LINE
8
BLACK
6
CONTINUOUS
10
356.602
20
-188.65
11
356.602
21
-201.65
0
ARC
8
BLACK
10
293.902
20
-188.65
40
0.5
50
-0
51
90
0
LINE
8
BLACK
6
CONTINUOUS
10
294.402
20
-188.65
11
294.402
21
-201.65
0
ARC
8
BLACK
10
261.852
20
-188.65
40
0.5
50
90
51
180
0
LINE
8
BLACK
6
CONTINUOUS
10
261.852
20
-188.15
11
274.852
21
-188.15
0
LINE
8
BLACK
6
CONTINUOUS
10
299.452
20
-188.65
11
299.452
21
-201.65
0
ARC
8
BLACK
10
299.952
20
-201.65
40
0.5
50
180
51
270
0
ARC
8
BLACK
10
274.852
20
-188.65
40
0.5
50
-0
51
90
0
LINE
8
BLACK
6
CONTINUOUS
10
338.053
20
-188.15
11
351.053
21
-188.15
0
ARC
8
BLACK
10
357.102
20
-201.65
40
0.5
50
180
51
270
0
LINE
8
BLACK
6
CONTINUOUS
10
376.152
20
-188.15
11
389.152
21
-188.15
0
ARC
8
BLACK
10
299.952
20
-188.65
40
0.5
50
90
51
180
0
ARC
8
BLACK
10
261.852
20
-201.65
40
0.5
50
180
51
270
0
LINE
8
BLACK
6
CONTINUOUS
10
357.102
20
-188.15
11
370.102
21
-188.15
0
ARC
8
BLACK
10
332.002
20
-188.65
40
0.5
50
-0
51
90
0
ARC
8
BLACK
10
242.802
20
-188.65
40
0.5
50
90
51
180
0
LINE
8
BLACK
6
CONTINUOUS
10
261.352
20
-188.65
11
261.352
21
-201.65
0
ARC
8
BLACK
10
223.752
20
-188.65
40
0.5
50
90
51
180
0
ARC
8
BLACK
10
255.802
20
-201.65
40
0.5
50
-90
51
-0
0
LINE
8
BLACK
6
CONTINUOUS
10
261.852
20
-202.15
11
274.852
21
-202.15
0
LINE
8
BLACK
6
CONTINUOUS
10
370.602
20
-188.65
11
370.602
21
-201.65
0
ARC
8
BLACK
10
312.952
20
-201.65
40
0.5
50
-90
51
-0
0
LINE
8
BLACK
6
CONTINUOUS
10
242.802
20
-188.15
11
255.802
21
-188.15
0
LINE
8
BLACK
6
CONTINUOUS
10
313.452
20
-188.65
11
313.452
21
-201.65
0
ARC
8
BLACK
10
280.902
20
-201.65
40
0.5
50
180
51
270
0
LINE
8
BLACK
6
CONTINUOUS
10
299.952
20
-188.15
11
312.952
21
-188.15
0
ARC
8
BLACK
10
223.752
20
-201.65
40
0.5
50
180
51
270
0
LINE
8
BLACK
6
CONTINUOUS
10
375.652
20
-188.65
11
375.652
21
-201.65
0
LINE
8
BLACK
6
CONTINUOUS
10
242.802
20
-202.15
11
255.802
21
-202.15
0
LINE
8
BLACK
6
CONTINUOUS
10
332.502
20
-188.65
11
332.502
21
-201.65
0
ARC
8
BLACK
10
357.102
20
-188.65
40
0.5
50
90
51
180
0
LINE
8
BLACK
6
CONTINUOUS
10
357.102
20
-202.15
11
370.102
21
-202.15
0
ARC
8
BLACK
10
351.053
20
-201.65
40
0.5
50
-90
51
-0
0
ARC
8
BLACK
10
338.053
20
-201.65
40
0.5
50
180
51
270
0
ARC
8
BLACK
10
236.752
20
-188.65
40
0.5
50
-0
51
90
0
ARC
8
BLACK
10
351.053
20
-188.65
40
0.5
50
-0
51
90
0
ARC
8
BLACK
10
242.802
20
-201.65
40
0.5
50
180
51
270
0
LINE
8
BLACK
6
CONTINUOUS
10
319.002
20
-202.15
11
332.002
21
-202.15
0
ARC
8
BLACK
10
312.952
20
-188.65
40
0.5
50
-0
51
90
0
ARC
8
BLACK
10
338.053
20
-188.65
40
0.5
50
90
51
180
0
LINE
8
BLACK
6
CONTINUOUS
10
351.553
20
-188.65
11
351.553
21
-201.65
0
ARC
8
BLACK
10
293.902
20
-201.65
40
0.5
50
-90
51
-0
0
LINE
8
BLACK
6
CONTINUOUS
10
337.553
20
-188.65
11
337.553
21
-201.65
0
LINE
8
BLACK
6
CONTINUOUS
10
338.053
20
-202.15
11
351.053
21
-202.15
0
ARC
8
BLACK
10
332.002
20
-201.65
40
0.5
50
-90
51
-0
0
LINE
8
BLACK
6
CONTINUOUS
10
280.402
20
-188.65
11
280.402
21
-201.65
0
ARC
8
BLACK
10
274.852
20
-201.65
40
0.5
50
-90
51
-0
0
LINE
8
BLACK
6
CONTINUOUS
10
275.352
20
-188.65
11
275.352
21
-201.65
0
ARC
8
BLACK
10
319.002
20
-201.65
40
0.5
50
180
51
270
0
LINE
8
BLACK
6
CONTINUOUS
10
318.502
20
-188.65
11
318.502
21
-201.65
0
LINE
8
BLACK
6
CONTINUOUS
10
319.002
20
-188.15
11
332.002
21
-188.15
0
ARC
8
BLACK
10
255.802
20
-188.65
40
0.5
50
-0
51
90
0
LINE
8
BLACK
6
CONTINUOUS
10
256.303
20
-188.65
11
256.303
21
-201.65
0
ARC
8
BLACK
10
236.752
20
-201.65
40
0.5
50
-90
51
-0
0
LINE
8
BLACK
6
CONTINUOUS
10
280.902
20
-188.15
11
293.902
21
-188.15
0
LINE
8
BLACK
6
CONTINUOUS
10
389.652
20
-188.65
11
389.652
21
-201.65
0
LINE
8
BLACK
6
CONTINUOUS
10
242.302
20
-188.65
11
242.302
21
-201.65
0
LINE
8
BLACK
6
CONTINUOUS
10
376.152
20
-202.15
11
389.152
21
-202.15
0
LINE
8
BLACK
6
CONTINUOUS
10
280.902
20
-202.15
11
293.902
21
-202.15
0
ARC
8
BLACK
10
319.002
20
-188.65
40
0.5
50
90
51
180
0
ARC
8
BLACK
10
370.102
20
-201.65
40
0.5
50
-90
51
-0
0
ARC
8
BLACK
10
217.702
20
-201.65
40
0.5
50
-90
51
-0
0
ARC
8
BLACK
10
447.59
20
-182.6
40
0.5
50
180
51
270
0
ARC
8
BLACK
10
204.702
20
-201.65
40
0.5
50
180
51
270
0
ARC
8
BLACK
10
217.702
20
-188.65
40
0.5
50
-0
51
90
0
ARC
8
BLACK
10
204.702
20
-188.65
40
0.5
50
90
51
180
0
LINE
8
BLACK
6
CONTINUOUS
10
166.602
20
-202.15
11
179.602
21
-202.15
0
LINE
8
BLACK
6
CONTINUOUS
10
447.59
20
-183.1
11
460.59
21
-183.1
0
ARC
8
BLACK
10
155.79
20
-188.65
40
0.5
50
-0
51
90
0
LINE
8
BLACK
6
CONTINUOUS
10
218.202
20
-188.65
11
218.202
21
-201.65
0
ARC
8
BLACK
10
179.602
20
-188.65
40
0.5
50
-0
51
90
0
LINE
8
BLACK
6
CONTINUOUS
10
166.102
20
-188.65
11
166.102
21
-201.65
0
LINE
8
BLACK
6
CONTINUOUS
10
204.202
20
-188.65
11
204.202
21
-201.65
0
ARC
8
BLACK
10
460.59
20
-182.6
40
0.5
50
-90
51
-0
0
LINE
8
BLACK
6
CONTINUOUS
10
204.702
20
-202.15
11
217.702
21
-202.15
0
ARC
8
BLACK
10
185.653
20
-201.65
40
0.5
50
180
51
270
0
LINE
8
BLACK
6
CONTINUOUS
10
199.153
20
-188.65
11
199.153
21
-201.65
0
ARC
8
BLACK
10
155.79
20
-201.65
40
0.5
50
-90
51
-0
0
LINE
8
BLACK
6
CONTINUOUS
10
142.79
20
-202.15
11
155.79
21
-202.15
0
LINE
8
BLACK
6
CONTINUOUS
10
447.59
20
-169.1
11
460.59
21
-169.1
0
ARC
8
BLACK
10
142.79
20
-201.65
40
0.5
50
180
51
270
0
LINE
8
BLACK
6
CONTINUOUS
10
466.64
20
-183.1
11
479.64
21
-183.1
0
ARC
8
BLACK
10
142.79
20
-188.65
40
0.5
50
90
51
180
0
LINE
8
BLACK
6
CONTINUOUS
10
442.04
20
-169.6
11
442.04
21
-182.6
0
LINE
8
BLACK
6
CONTINUOUS
10
428.54
20
-169.1
11
441.54
21
-169.1
0
LINE
8
BLACK
6
CONTINUOUS
10
204.702
20
-188.15
11
217.702
21
-188.15
0
ARC
8
BLACK
10
479.64
20
-169.6
40
0.5
50
-0
51
90
0
ARC
8
BLACK
10
198.653
20
-201.65
40
0.5
50
-90
51
-0
0
ARC
8
BLACK
10
441.54
20
-182.6
40
0.5
50
-90
51
-0
0
ARC
8
BLACK
10
166.602
20
-201.65
40
0.5
50
180
51
270
0
LINE
8
BLACK
6
CONTINUOUS
10
480.14
20
-169.6
11
480.14
21
-182.6
0
ARC
8
BLACK
10
198.653
20
-188.65
40
0.5
50
-0
51
90
0
ARC
8
BLACK
10
466.64
20
-182.6
40
0.5
50
180
51
270
0
LINE
8
BLACK
6
CONTINUOUS
10
466.64
20
-169.1
11
479.64
21
-169.1
0
LINE
8
BLACK
6
CONTINUOUS
10
185.653
20
-202.15
11
198.653
21
-202.15
0
LINE
8
BLACK
6
CONTINUOUS
10
180.102
20
-188.65
11
180.102
21
-201.65
0
ARC
8
BLACK
10
179.602
20
-201.65
40
0.5
50
-90
51
-0
0
LINE
8
BLACK
6
CONTINUOUS
10
466.14
20
-169.6
11
466.14
21
-182.6
0
ARC
8
BLACK
10
386.764
20
-170.6
40
0.5
50
90
51
180
0
LINE
8
BLACK
6
CONTINUOUS
10
185.653
20
-188.15
11
198.653
21
-188.15
0
LINE
8
BLACK
6
CONTINUOUS
10
156.29
20
-188.65
11
156.29
21
-201.65
0
ARC
8
BLACK
10
460.59
20
-169.6
40
0.5
50
-0
51
90
0
ARC
8
BLACK
10
428.54
20
-169.6
40
0.5
50
90
51
180
0
ARC
8
BLACK
10
386.764
20
-184.6
40
0.5
50
180
51
270
0
ARC
8
BLACK
10
392.764
20
-170.6
40
0.5
50
-0
51
90
0
ARC
8
BLACK
10
428.54
20
-182.6
40
0.5
50
180
51
270
0
LINE
8
BLACK
6
CONTINUOUS
10
428.04
20
-169.6
11
428.04
21
-182.6
0
ARC
8
BLACK
10
447.59
20
-169.6
40
0.5
50
90
51
180
0
ARC
8
BLACK
10
185.653
20
-188.65
40
0.5
50
90
51
180
0
ARC
8
BLACK
10
166.602
20
-188.65
40
0.5
50
90
51
180
0
LINE
8
BLACK
6
CONTINUOUS
10
166.602
20
-188.15
11
179.602
21
-188.15
0
LINE
8
BLACK
6
CONTINUOUS
10
428.54
20
-183.1
11
441.54
21
-183.1
0
LINE
8
BLACK
6
CONTINUOUS
10
461.09
20
-169.6
11
461.09
21
-182.6
0
LINE
8
BLACK
6
CONTINUOUS
10
185.153
20
-188.65
11
185.153
21
-201.65
0
LINE
8
BLACK
6
CONTINUOUS
10
142.29
20
-188.65
11
142.29
21
-201.65
0
LINE
8
BLACK
6
CONTINUOUS
10
142.79
20
-188.15
11
155.79
21
-188.15
0
ARC
8
BLACK
10
466.64
20
-169.6
40
0.5
50
90
51
180
0
ARC
8
BLACK
10
441.54
20
-169.6
40
0.5
50
-0
51
90
0
ARC
8
BLACK
10
479.64
20
-182.6
40
0.5
50
-90
51
-0
0
ARC
8
BLACK
10
392.764
20
-184.6
40
0.5
50
-90
51
-0
0
LINE
8
BLACK
6
CONTINUOUS
10
447.09
20
-169.6
11
447.09
21
-182.6
0
LINE
8
BLACK
6
CONTINUOUS
10
237.252
20
-188.65
11
237.252
21
-201.65
0
LINE
8
BLACK
6
CONTINUOUS
10
223.252
20
-188.65
11
223.252
21
-201.65
0
LINE
8
BLACK
6
CONTINUOUS
10
223.752
20
-202.15
11
236.752
21
-202.15
0
LINE
8
BLACK
6
CONTINUOUS
10
223.752
20
-188.15
11
236.752
21
-188.15
0
ARC
8
BLACK
10
309.477
20
-169.6
40
0.5
50
90
51
180
0
ARC
8
BLACK
10
328.527
20
-169.6
40
0.5
50
90
51
180
0
LINE
8
BLACK
6
CONTINUOUS
10
308.977
20
-169.6
11
308.977
21
-182.6
0
LINE
8
BLACK
6
CONTINUOUS
10
328.527
20
-183.1
11
341.527
21
-183.1
0
LINE
8
BLACK
6
CONTINUOUS
10
395.202
20
-169.1
11
408.202
21
-169.1
0
ARC
8
BLACK
10
303.428
20
-182.6
40
0.5
50
-90
51
-0
0
ARC
8
BLACK
10
360.577
20
-182.6
40
0.5
50
-90
51
-0
0
LINE
8
BLACK
6
CONTINUOUS
10
361.077
20
-169.6
11
361.077
21
-182.6
0
LINE
8
BLACK
6
CONTINUOUS
10
366.627
20
-169.1
11
379.627
21
-169.1
0
ARC
8
BLACK
10
360.577
20
-169.6
40
0.5
50
-0
51
90
0
ARC
8
BLACK
10
309.477
20
-182.6
40
0.5
50
180
51
270
0
ARC
8
BLACK
10
284.377
20
-169.6
40
0.5
50
-0
51
90
0
LINE
8
BLACK
6
CONTINUOUS
10
322.977
20
-169.6
11
322.977
21
-182.6
0
LINE
8
BLACK
6
CONTINUOUS
10
386.764
20
-170.1
11
392.764
21
-170.1
0
ARC
8
BLACK
10
410.64
20
-170.6
40
0.5
50
90
51
180
0
LINE
8
BLACK
6
CONTINUOUS
10
410.64
20
-170.1
11
416.64
21
-170.1
0
LINE
8
BLACK
6
CONTINUOUS
10
408.702
20
-169.6
11
408.702
21
-182.6
0
ARC
8
BLACK
10
341.527
20
-182.6
40
0.5
50
-90
51
-0
0
ARC
8
BLACK
10
303.428
20
-169.6
40
0.5
50
-0
51
90
0
ARC
8
BLACK
10
395.202
20
-182.6
40
0.5
50
180
51
270
0
LINE
8
BLACK
6
CONTINUOUS
10
395.202
20
-183.1
11
408.202
21
-183.1
0
LINE
8
BLACK
6
CONTINUOUS
10
380.127
20
-169.6
11
380.127
21
-182.6
0
LINE
8
BLACK
6
CONTINUOUS
10
366.627
20
-183.1
11
379.627
21
-183.1
0
ARC
8
BLACK
10
347.577
20
-182.6
40
0.5
50
180
51
270
0
ARC
8
BLACK
10
322.477
20
-169.6
40
0.5
50
-0
51
90
0
LINE
8
BLACK
6
CONTINUOUS
10
309.477
20
-169.1
11
322.477
21
-169.1
0
LINE
8
BLACK
6
CONTINUOUS
10
347.077
20
-169.6
11
347.077
21
-182.6
0
LINE
8
BLACK
6
CONTINUOUS
10
347.577
20
-169.1
11
360.577
21
-169.1
0
ARC
8
BLACK
10
379.627
20
-169.6
40
0.5
50
-0
51
90
0
ARC
8
BLACK
10
328.527
20
-182.6
40
0.5
50
180
51
270
0
ARC
8
BLACK
10
366.627
20
-169.6
40
0.5
50
90
51
180
0
LINE
8
BLACK
6
CONTINUOUS
10
394.702
20
-169.6
11
394.702
21
-182.6
0
ARC
8
BLACK
10
366.627
20
-182.6
40
0.5
50
180
51
270
0
ARC
8
BLACK
10
322.477
20
-182.6
40
0.5
50
-90
51
-0
0
ARC
8
BLACK
10
290.428
20
-182.6
40
0.5
50
180
51
270
0
LINE
8
BLACK
6
CONTINUOUS
10
366.127
20
-169.6
11
366.127
21
-182.6
0
ARC
8
BLACK
10
341.527
20
-169.6
40
0.5
50
-0
51
90
0
LINE
8
BLACK
6
CONTINUOUS
10
328.027
20
-169.6
11
328.027
21
-182.6
0
LINE
8
BLACK
6
CONTINUOUS
10
289.928
20
-169.6
11
289.928
21
-182.6
0
LINE
8
BLACK
6
CONTINUOUS
10
417.14
20
-170.6
11
417.14
21
-184.6
0
ARC
8
BLACK
10
408.202
20
-182.6
40
0.5
50
-90
51
-0
0
LINE
8
BLACK
6
CONTINUOUS
10
342.027
20
-169.6
11
342.027
21
-182.6
0
LINE
8
BLACK
6
CONTINUOUS
10
347.577
20
-183.1
11
360.577
21
-183.1
0
LINE
8
BLACK
6
CONTINUOUS
10
309.477
20
-183.1
11
322.477
21
-183.1
0
ARC
8
BLACK
10
290.428
20
-169.6
40
0.5
50
90
51
180
0
LINE
8
BLACK
6
CONTINUOUS
10
303.928
20
-169.6
11
303.928
21
-182.6
0
ARC
8
BLACK
10
271.377
20
-182.6
40
0.5
50
180
51
270
0
ARC
8
BLACK
10
271.377
20
-169.6
40
0.5
50
90
51
180
0
ARC
8
BLACK
10
410.64
20
-184.6
40
0.5
50
180
51
270
0
ARC
8
BLACK
10
347.577
20
-169.6
40
0.5
50
90
51
180
0
LINE
8
BLACK
6
CONTINUOUS
10
328.527
20
-169.1
11
341.527
21
-169.1
0
LINE
8
BLACK
6
CONTINUOUS
10
410.14
20
-170.6
11
410.14
21
-184.6
0
LINE
8
BLACK
6
CONTINUOUS
10
290.428
20
-183.1
11
303.428
21
-183.1
0
ARC
8
BLACK
10
284.377
20
-182.6
40
0.5
50
-90
51
-0
0
LINE
8
BLACK
6
CONTINUOUS
10
393.264
20
-170.6
11
393.264
21
-184.6
0
LINE
8
BLACK
6
CONTINUOUS
10
386.264
20
-170.6
11
386.264
21
-184.6
0
LINE
8
BLACK
6
CONTINUOUS
10
290.428
20
-169.1
11
303.428
21
-169.1
0
ARC
8
BLACK
10
408.202
20
-169.6
40
0.5
50
-0
51
90
0
LINE
8
BLACK
6
CONTINUOUS
10
386.764
20
-185.1
11
392.764
21
-185.1
0
ARC
8
BLACK
10
416.64
20
-184.6
40
0.5
50
-90
51
-0
0
ARC
8
BLACK
10
416.64
20
-170.6
40
0.5
50
-0
51
90
0
LINE
8
BLACK
6
CONTINUOUS
10
410.64
20
-185.1
11
416.64
21
-185.1
0
ARC
8
BLACK
10
395.202
20
-169.6
40
0.5
50
90
51
180
0
ARC
8
BLACK
10
379.627
20
-182.6
40
0.5
50
-90
51
-0
0
ARC
8
BLACK
10
189.127
20
-182.6
40
0.5
50
-90
51
-0
0
ARC
8
BLACK
10
479.64
20
-154.025
40
0.5
50
-90
51
-0
0
LINE
8
BLACK
6
CONTINUOUS
10
157.077
20
-183.1
11
170.077
21
-183.1
0
ARC
8
BLACK
10
151.027
20
-169.6
40
0.5
50
-0
51
90
0
ARC
8
BLACK
10
138.028
20
-169.6
40
0.5
50
90
51
180
0
LINE
8
BLACK
6
CONTINUOUS
10
270.877
20
-169.6
11
270.877
21
-182.6
0
LINE
8
BLACK
6
CONTINUOUS
10
232.778
20
-169.6
11
232.778
21
-182.6
0
LINE
8
BLACK
6
CONTINUOUS
10
233.278
20
-169.1
11
246.277
21
-169.1
0
ARC
8
BLACK
10
246.277
20
-182.6
40
0.5
50
-90
51
-0
0
ARC
8
BLACK
10
170.077
20
-169.6
40
0.5
50
-0
51
90
0
LINE
8
BLACK
6
CONTINUOUS
10
265.827
20
-169.6
11
265.827
21
-182.6
0
ARC
8
BLACK
10
479.64
20
-141.025
40
0.5
50
-0
51
90
0
LINE
8
BLACK
6
CONTINUOUS
10
271.377
20
-169.1
11
284.377
21
-169.1
0
LINE
8
BLACK
6
CONTINUOUS
10
252.327
20
-183.1
11
265.327
21
-183.1
0
ARC
8
BLACK
10
157.077
20
-169.6
40
0.5
50
90
51
180
0
LINE
8
BLACK
6
CONTINUOUS
10
227.727
20
-169.6
11
227.727
21
-182.6
0
ARC
8
BLACK
10
252.327
20
-169.6
40
0.5
50
90
51
180
0
LINE
8
BLACK
6
CONTINUOUS
10
252.327
20
-169.1
11
265.327
21
-169.1
0
LINE
8
BLACK
6
CONTINUOUS
10
214.227
20
-169.1
11
227.227
21
-169.1
0
LINE
8
BLACK
6
CONTINUOUS
10
176.127
20
-183.1
11
189.127
21
-183.1
0
LINE
8
BLACK
6
CONTINUOUS
10
195.177
20
-183.1
11
208.177
21
-183.1
0
ARC
8
BLACK
10
246.277
20
-169.6
40
0.5
50
-0
51
90
0
LINE
8
BLACK
6
CONTINUOUS
10
246.777
20
-169.6
11
246.777
21
-182.6
0
LINE
8
BLACK
6
CONTINUOUS
10
189.627
20
-169.6
11
189.627
21
-182.6
0
ARC
8
BLACK
10
176.127
20
-169.6
40
0.5
50
90
51
180
0
LINE
8
BLACK
6
CONTINUOUS
10
213.727
20
-169.6
11
213.727
21
-182.6
0
LINE
8
BLACK
6
CONTINUOUS
10
214.227
20
-183.1
11
227.227
21
-183.1
0
ARC
8
BLACK
10
208.177
20
-169.6
40
0.5
50
-0
51
90
0
ARC
8
BLACK
10
208.177
20
-182.6
40
0.5
50
-90
51
-0
0
ARC
8
BLACK
10
195.177
20
-169.6
40
0.5
50
90
51
180
0
ARC
8
BLACK
10
157.077
20
-182.6
40
0.5
50
180
51
270
0
LINE
8
BLACK
6
CONTINUOUS
10
156.577
20
-169.6
11
156.577
21
-182.6
0
ARC
8
BLACK
10
466.64
20
-154.025
40
0.5
50
180
51
270
0
LINE
8
BLACK
6
CONTINUOUS
10
195.177
20
-169.1
11
208.177
21
-169.1
0
LINE
8
BLACK
6
CONTINUOUS
10
138.028
20
-183.1
11
151.027
21
-183.1
0
ARC
8
BLACK
10
170.077
20
-182.6
40
0.5
50
-90
51
-0
0
ARC
8
BLACK
10
252.327
20
-182.6
40
0.5
50
180
51
270
0
LINE
8
BLACK
6
CONTINUOUS
10
251.827
20
-169.6
11
251.827
21
-182.6
0
ARC
8
BLACK
10
233.278
20
-169.6
40
0.5
50
90
51
180
0
LINE
8
BLACK
6
CONTINUOUS
10
208.677
20
-169.6
11
208.677
21
-182.6
0
ARC
8
BLACK
10
466.64
20
-141.025
40
0.5
50
90
51
180
0
LINE
8
BLACK
6
CONTINUOUS
10
138.028
20
-169.1
11
151.027
21
-169.1
0
ARC
8
BLACK
10
151.027
20
-182.6
40
0.5
50
-90
51
-0
0
LINE
8
BLACK
6
CONTINUOUS
10
194.677
20
-169.6
11
194.677
21
-182.6
0
ARC
8
BLACK
10
189.127
20
-169.6
40
0.5
50
-0
51
90
0
ARC
8
BLACK
10
227.227
20
-182.6
40
0.5
50
-90
51
-0
0
ARC
8
BLACK
10
176.127
20
-182.6
40
0.5
50
180
51
270
0
LINE
8
BLACK
6
CONTINUOUS
10
157.077
20
-169.1
11
170.077
21
-169.1
0
ARC
8
BLACK
10
138.028
20
-182.6
40
0.5
50
180
51
270
0
LINE
8
BLACK
6
CONTINUOUS
10
176.127
20
-169.1
11
189.127
21
-169.1
0
ARC
8
BLACK
10
214.227
20
-169.6
40
0.5
50
90
51
180
0
LINE
8
BLACK
6
CONTINUOUS
10
284.877
20
-169.6
11
284.877
21
-182.6
0
LINE
8
BLACK
6
CONTINUOUS
10
175.627
20
-169.6
11
175.627
21
-182.6
0
ARC
8
BLACK
10
265.327
20
-169.6
40
0.5
50
-0
51
90
0
ARC
8
BLACK
10
195.177
20
-182.6
40
0.5
50
180
51
270
0
LINE
8
BLACK
6
CONTINUOUS
10
271.377
20
-183.1
11
284.377
21
-183.1
0
ARC
8
BLACK
10
265.327
20
-182.6
40
0.5
50
-90
51
-0
0
ARC
8
BLACK
10
227.227
20
-169.6
40
0.5
50
-0
51
90
0
ARC
8
BLACK
10
233.278
20
-182.6
40
0.5
50
180
51
270
0
ARC
8
BLACK
10
214.227
20
-182.6
40
0.5
50
180
51
270
0
LINE
8
BLACK
6
CONTINUOUS
10
170.577
20
-169.6
11
170.577
21
-182.6
0
LINE
8
BLACK
6
CONTINUOUS
10
137.528
20
-169.6
11
137.528
21
-182.6
0
LINE
8
BLACK
6
CONTINUOUS
10
151.527
20
-169.6
11
151.527
21
-182.6
0
LINE
8
BLACK
6
CONTINUOUS
10
233.278
20
-183.1
11
246.277
21
-183.1
0
LINE
8
BLACK
6
CONTINUOUS
10
447.59
20
-140.525
11
460.59
21
-140.525
0
ARC
8
BLACK
10
428.54
20
-141.025
40
0.5
50
90
51
180
0
LINE
8
BLACK
6
CONTINUOUS
10
447.59
20
-154.525
11
460.59
21
-154.525
0
ARC
8
BLACK
10
417.727
20
-154.025
40
0.5
50
-90
51
-0
0
LINE
8
BLACK
6
CONTINUOUS
10
480.14
20
-141.025
11
480.14
21
-154.025
0
LINE
8
BLACK
6
CONTINUOUS
10
466.64
20
-140.525
11
479.64
21
-140.525
0
ARC
8
BLACK
10
447.59
20
-154.025
40
0.5
50
180
51
270
0
LINE
8
BLACK
6
CONTINUOUS
10
461.09
20
-141.025
11
461.09
21
-154.025
0
ARC
8
BLACK
10
441.54
20
-154.025
40
0.5
50
-90
51
-0
0
LINE
8
BLACK
6
CONTINUOUS
10
366.627
20
-154.525
11
379.627
21
-154.525
0
LINE
8
BLACK
6
CONTINUOUS
10
347.077
20
-141.025
11
347.077
21
-154.025
0
LINE
8
BLACK
6
CONTINUOUS
10
428.54
20
-154.525
11
441.54
21
-154.525
0
LINE
8
BLACK
6
CONTINUOUS
10
366.127
20
-141.025
11
366.127
21
-154.025
0
LINE
8
BLACK
6
CONTINUOUS
10
418.227
20
-141.025
11
418.227
21
-154.025
0
ARC
8
BLACK
10
347.577
20
-154.025
40
0.5
50
180
51
270
0
LINE
8
BLACK
6
CONTINUOUS
10
399.178
20
-141.025
11
399.178
21
-154.025
0
ARC
8
BLACK
10
441.54
20
-141.025
40
0.5
50
-0
51
90
0
ARC
8
BLACK
10
347.577
20
-141.025
40
0.5
50
90
51
180
0
LINE
8
BLACK
6
CONTINUOUS
10
428.04
20
-141.025
11
428.04
21
-154.025
0
ARC
8
BLACK
10
404.727
20
-154.025
40
0.5
50
180
51
270
0
ARC
8
BLACK
10
428.54
20
-154.025
40
0.5
50
180
51
270
0
ARC
8
BLACK
10
312.952
20
-154.025
40
0.5
50
-90
51
-0
0
ARC
8
BLACK
10
447.59
20
-141.025
40
0.5
50
90
51
180
0
LINE
8
BLACK
6
CONTINUOUS
10
404.727
20
-140.525
11
417.727
21
-140.525
0
LINE
8
BLACK
6
CONTINUOUS
10
447.09
20
-141.025
11
447.09
21
-154.025
0
ARC
8
BLACK
10
404.727
20
-141.025
40
0.5
50
90
51
180
0
ARC
8
BLACK
10
379.627
20
-141.025
40
0.5
50
-0
51
90
0
ARC
8
BLACK
10
385.678
20
-141.025
40
0.5
50
90
51
180
0
ARC
8
BLACK
10
360.577
20
-154.025
40
0.5
50
-90
51
-0
0
LINE
8
BLACK
6
CONTINUOUS
10
319.002
20
-154.525
11
332.002
21
-154.525
0
LINE
8
BLACK
6
CONTINUOUS
10
466.14
20
-141.025
11
466.14
21
-154.025
0
LINE
8
BLACK
6
CONTINUOUS
10
404.227
20
-141.025
11
404.227
21
-154.025
0
LINE
8
BLACK
6
CONTINUOUS
10
466.64
20
-154.525
11
479.64
21
-154.525
0
LINE
8
BLACK
6
CONTINUOUS
10
428.54
20
-140.525
11
441.54
21
-140.525
0
LINE
8
BLACK
6
CONTINUOUS
10
332.502
20
-141.025
11
332.502
21
-154.025
0
LINE
8
BLACK
6
CONTINUOUS
10
442.04
20
-141.025
11
442.04
21
-154.025
0
ARC
8
BLACK
10
398.678
20
-154.025
40
0.5
50
-90
51
-0
0
ARC
8
BLACK
10
366.627
20
-141.025
40
0.5
50
90
51
180
0
LINE
8
BLACK
6
CONTINUOUS
10
385.678
20
-154.525
11
398.678
21
-154.525
0
ARC
8
BLACK
10
379.627
20
-154.025
40
0.5
50
-90
51
-0
0
ARC
8
BLACK
10
319.002
20
-154.025
40
0.5
50
180
51
270
0
ARC
8
BLACK
10
299.952
20
-154.025
40
0.5
50
180
51
270
0
LINE
8
BLACK
6
CONTINUOUS
10
319.002
20
-140.525
11
332.002
21
-140.525
0
ARC
8
BLACK
10
332.002
20
-141.025
40
0.5
50
-0
51
90
0
ARC
8
BLACK
10
417.727
20
-141.025
40
0.5
50
-0
51
90
0
ARC
8
BLACK
10
398.678
20
-141.025
40
0.5
50
-0
51
90
0
LINE
8
BLACK
6
CONTINUOUS
10
347.577
20
-140.525
11
360.577
21
-140.525
0
LINE
8
BLACK
6
CONTINUOUS
10
385.178
20
-141.025
11
385.178
21
-154.025
0
LINE
8
BLACK
6
CONTINUOUS
10
361.077
20
-141.025
11
361.077
21
-154.025
0
LINE
8
BLACK
6
CONTINUOUS
10
404.727
20
-154.525
11
417.727
21
-154.525
0
ARC
8
BLACK
10
385.678
20
-154.025
40
0.5
50
180
51
270
0
ARC
8
BLACK
10
366.627
20
-154.025
40
0.5
50
180
51
270
0
LINE
8
BLACK
6
CONTINUOUS
10
380.127
20
-141.025
11
380.127
21
-154.025
0
ARC
8
BLACK
10
332.002
20
-154.025
40
0.5
50
-90
51
-0
0
ARC
8
BLACK
10
360.577
20
-141.025
40
0.5
50
-0
51
90
0
LINE
8
BLACK
6
CONTINUOUS
10
318.502
20
-141.025
11
318.502
21
-154.025
0
ARC
8
BLACK
10
319.002
20
-141.025
40
0.5
50
90
51
180
0
ARC
8
BLACK
10
299.952
20
-141.025
40
0.5
50
90
51
180
0
LINE
8
BLACK
6
CONTINUOUS
10
347.577
20
-154.525
11
360.577
21
-154.525
0
ARC
8
BLACK
10
312.952
20
-141.025
40
0.5
50
-0
51
90
0
ARC
8
BLACK
10
460.59
20
-154.025
40
0.5
50
-90
51
-0
0
LINE
8
BLACK
6
CONTINUOUS
10
385.678
20
-140.525
11
398.678
21
-140.525
0
LINE
8
BLACK
6
CONTINUOUS
10
366.627
20
-140.525
11
379.627
21
-140.525
0
ARC
8
BLACK
10
460.59
20
-141.025
40
0.5
50
-0
51
90
0
ARC
8
BLACK
10
246.277
20
-141.025
40
0.5
50
-0
51
90
0
LINE
8
BLACK
6
CONTINUOUS
10
189.627
20
-141.025
11
189.627
21
-154.025
0
ARC
8
BLACK
10
138.028
20
-154.025
40
0.5
50
180
51
270
0
LINE
8
BLACK
6
CONTINUOUS
10
294.402
20
-141.025
11
294.402
21
-154.025
0
LINE
8
BLACK
6
CONTINUOUS
10
280.902
20
-140.525
11
293.902
21
-140.525
0
ARC
8
BLACK
10
151.027
20
-154.025
40
0.5
50
-90
51
-0
0
ARC
8
BLACK
10
151.027
20
-141.025
40
0.5
50
-0
51
90
0
ARC
8
BLACK
10
176.127
20
-141.025
40
0.5
50
90
51
180
0
LINE
8
BLACK
6
CONTINUOUS
10
195.177
20
-140.525
11
208.177
21
-140.525
0
LINE
8
BLACK
6
CONTINUOUS
10
213.727
20
-141.025
11
213.727
21
-154.025
0
ARC
8
BLACK
10
246.277
20
-154.025
40
0.5
50
-90
51
-0
0
LINE
8
BLACK
6
CONTINUOUS
10
313.452
20
-141.025
11
313.452
21
-154.025
0
ARC
8
BLACK
10
176.127
20
-154.025
40
0.5
50
180
51
270
0
LINE
8
BLACK
6
CONTINUOUS
10
138.028
20
-140.525
11
151.027
21
-140.525
0
LINE
8
BLACK
6
CONTINUOUS
10
299.452
20
-141.025
11
299.452
21
-154.025
0
LINE
8
BLACK
6
CONTINUOUS
10
275.352
20
-141.025
11
275.352
21
-154.025
0
LINE
8
BLACK
6
CONTINUOUS
10
232.778
20
-141.025
11
232.778
21
-154.025
0
ARC
8
BLACK
10
208.177
20
-154.025
40
0.5
50
-90
51
-0
0
LINE
8
BLACK
6
CONTINUOUS
10
299.952
20
-154.525
11
312.952
21
-154.525
0
LINE
8
BLACK
6
CONTINUOUS
10
299.952
20
-140.525
11
312.952
21
-140.525
0
ARC
8
BLACK
10
293.902
20
-154.025
40
0.5
50
-90
51
-0
0
LINE
8
BLACK
6
CONTINUOUS
10
261.852
20
-140.525
11
274.852
21
-140.525
0
LINE
8
BLACK
6
CONTINUOUS
10
195.177
20
-154.525
11
208.177
21
-154.525
0
ARC
8
BLACK
10
189.127
20
-141.025
40
0.5
50
-0
51
90
0
LINE
8
BLACK
6
CONTINUOUS
10
176.127
20
-140.525
11
189.127
21
-140.525
0
LINE
8
BLACK
6
CONTINUOUS
10
175.627
20
-141.025
11
175.627
21
-154.025
0
ARC
8
BLACK
10
261.852
20
-141.025
40
0.5
50
90
51
180
0
LINE
8
BLACK
6
CONTINUOUS
10
261.852
20
-154.525
11
274.852
21
-154.525
0
ARC
8
BLACK
10
233.278
20
-154.025
40
0.5
50
180
51
270
0
ARC
8
BLACK
10
208.177
20
-141.025
40
0.5
50
-0
51
90
0
ARC
8
BLACK
10
293.902
20
-141.025
40
0.5
50
-0
51
90
0
ARC
8
BLACK
10
233.278
20
-141.025
40
0.5
50
90
51
180
0
LINE
8
BLACK
6
CONTINUOUS
10
280.402
20
-141.025
11
280.402
21
-154.025
0
LINE
8
BLACK
6
CONTINUOUS
10
246.777
20
-141.025
11
246.777
21
-154.025
0
LINE
8
BLACK
6
CONTINUOUS
10
280.902
20
-154.525
11
293.902
21
-154.525
0
ARC
8
BLACK
10
227.227
20
-154.025
40
0.5
50
-90
51
-0
0
ARC
8
BLACK
10
261.852
20
-154.025
40
0.5
50
180
51
270
0
LINE
8
BLACK
6
CONTINUOUS
10
208.677
20
-141.025
11
208.677
21
-154.025
0
ARC
8
BLACK
10
189.127
20
-154.025
40
0.5
50
-90
51
-0
0
ARC
8
BLACK
10
274.852
20
-141.025
40
0.5
50
-0
51
90
0
LINE
8
BLACK
6
CONTINUOUS
10
233.278
20
-154.525
11
246.277
21
-154.525
0
LINE
8
BLACK
6
CONTINUOUS
10
176.127
20
-154.525
11
189.127
21
-154.525
0
LINE
8
BLACK
6
CONTINUOUS
10
233.278
20
-140.525
11
246.277
21
-140.525
0
LINE
8
BLACK
6
CONTINUOUS
10
227.727
20
-141.025
11
227.727
21
-154.025
0
LINE
8
BLACK
6
CONTINUOUS
10
214.227
20
-154.525
11
227.227
21
-154.525
0
ARC
8
BLACK
10
138.028
20
-141.025
40
0.5
50
90
51
180
0
LINE
8
BLACK
6
CONTINUOUS
10
138.028
20
-154.525
11
151.027
21
-154.525
0
ARC
8
BLACK
10
214.227
20
-154.025
40
0.5
50
180
51
270
0
ARC
8
BLACK
10
214.227
20
-141.025
40
0.5
50
90
51
180
0
LINE
8
BLACK
6
CONTINUOUS
10
214.227
20
-140.525
11
227.227
21
-140.525
0
LINE
8
BLACK
6
CONTINUOUS
10
194.677
20
-141.025
11
194.677
21
-154.025
0
ARC
8
BLACK
10
227.227
20
-141.025
40
0.5
50
-0
51
90
0
ARC
8
BLACK
10
195.177
20
-141.025
40
0.5
50
90
51
180
0
LINE
8
BLACK
6
CONTINUOUS
10
137.528
20
-141.025
11
137.528
21
-154.025
0
ARC
8
BLACK
10
280.902
20
-154.025
40
0.5
50
180
51
270
0
ARC
8
BLACK
10
280.902
20
-141.025
40
0.5
50
90
51
180
0
ARC
8
BLACK
10
274.852
20
-154.025
40
0.5
50
-90
51
-0
0
LINE
8
BLACK
6
CONTINUOUS
10
151.527
20
-141.025
11
151.527
21
-154.025
0
ARC
8
BLACK
10
195.177
20
-154.025
40
0.5
50
180
51
270
0
LINE
8
BLACK
6
CONTINUOUS
10
261.352
20
-141.025
11
261.352
21
-154.025
0
ARC
8
BLACK
10
241.515
20
-207.7
40
0.5
50
-0
51
90
0
ARC
8
BLACK
10
158.171
20
-207.7
40
0.5
50
-0
51
90
0
LINE
8
BLACK
6
CONTINUOUS
10
228.515
20
-207.2
11
241.515
21
-207.2
0
LINE
8
BLACK
6
CONTINUOUS
10
228.515
20
-221.2
11
241.515
21
-221.2
0
ARC
8
BLACK
10
222.465
20
-220.7
40
0.5
50
-90
51
-0
0
LINE
8
BLACK
6
CONTINUOUS
10
209.465
20
-207.2
11
222.465
21
-207.2
0
LINE
8
BLACK
6
CONTINUOUS
10
145.171
20
-207.2
11
158.171
21
-207.2
0
ARC
8
BLACK
10
190.415
20
-207.7
40
0.5
50
90
51
180
0
ARC
8
BLACK
10
228.515
20
-220.7
40
0.5
50
180
51
270
0
LINE
8
BLACK
6
CONTINUOUS
10
247.065
20
-207.7
11
247.065
21
-220.7
0
LINE
8
BLACK
6
CONTINUOUS
10
209.465
20
-221.2
11
222.465
21
-221.2
0
ARC
8
BLACK
10
266.615
20
-207.7
40
0.5
50
90
51
180
0
ARC
8
BLACK
10
145.171
20
-220.7
40
0.5
50
180
51
270
0
ARC
8
BLACK
10
285.665
20
-207.7
40
0.5
50
90
51
180
0
LINE
8
BLACK
6
CONTINUOUS
10
247.565
20
-207.2
11
260.565
21
-207.2
0
LINE
8
BLACK
6
CONTINUOUS
10
208.965
20
-207.7
11
208.965
21
-220.7
0
LINE
8
BLACK
6
CONTINUOUS
10
266.615
20
-221.2
11
279.615
21
-221.2
0
LINE
8
BLACK
6
CONTINUOUS
10
190.415
20
-207.2
11
203.415
21
-207.2
0
ARC
8
BLACK
10
479.64
20
-201.65
40
0.5
50
-90
51
-0
0
ARC
8
BLACK
10
190.415
20
-220.7
40
0.5
50
180
51
270
0
LINE
8
BLACK
6
CONTINUOUS
10
171.365
20
-207.2
11
184.365
21
-207.2
0
LINE
8
BLACK
6
CONTINUOUS
10
203.915
20
-207.7
11
203.915
21
-220.7
0
ARC
8
BLACK
10
203.415
20
-207.7
40
0.5
50
-0
51
90
0
LINE
8
BLACK
6
CONTINUOUS
10
299.165
20
-207.7
11
299.165
21
-220.7
0
LINE
8
BLACK
6
CONTINUOUS
10
261.065
20
-207.7
11
261.065
21
-220.7
0
ARC
8
BLACK
10
171.365
20
-207.7
40
0.5
50
90
51
180
0
ARC
8
BLACK
10
241.515
20
-220.7
40
0.5
50
-90
51
-0
0
LINE
8
BLACK
6
CONTINUOUS
10
228.015
20
-207.7
11
228.015
21
-220.7
0
ARC
8
BLACK
10
228.515
20
-207.7
40
0.5
50
90
51
180
0
LINE
8
BLACK
6
CONTINUOUS
10
170.865
20
-207.7
11
170.865
21
-220.7
0
ARC
8
BLACK
10
260.565
20
-220.7
40
0.5
50
-90
51
-0
0
ARC
8
BLACK
10
184.365
20
-207.7
40
0.5
50
-0
51
90
0
ARC
8
BLACK
10
158.171
20
-220.7
40
0.5
50
-90
51
-0
0
LINE
8
BLACK
6
CONTINUOUS
10
285.165
20
-207.7
11
285.165
21
-220.7
0
LINE
8
BLACK
6
CONTINUOUS
10
285.665
20
-221.2
11
298.665
21
-221.2
0
LINE
8
BLACK
6
CONTINUOUS
10
285.665
20
-207.2
11
298.665
21
-207.2
0
ARC
8
BLACK
10
279.615
20
-220.7
40
0.5
50
-90
51
-0
0
LINE
8
BLACK
6
CONTINUOUS
10
171.365
20
-221.2
11
184.365
21
-221.2
0
ARC
8
BLACK
10
260.565
20
-207.7
40
0.5
50
-0
51
90
0
LINE
8
BLACK
6
CONTINUOUS
10
189.915
20
-207.7
11
189.915
21
-220.7
0
ARC
8
BLACK
10
145.171
20
-207.7
40
0.5
50
90
51
180
0
LINE
8
BLACK
6
CONTINUOUS
10
247.565
20
-221.2
11
260.565
21
-221.2
0
ARC
8
BLACK
10
266.615
20
-220.7
40
0.5
50
180
51
270
0
ARC
8
BLACK
10
279.615
20
-207.7
40
0.5
50
-0
51
90
0
LINE
8
BLACK
6
CONTINUOUS
10
242.015
20
-207.7
11
242.015
21
-220.7
0
LINE
8
BLACK
6
CONTINUOUS
10
280.115
20
-207.7
11
280.115
21
-220.7
0
LINE
8
BLACK
6
CONTINUOUS
10
158.671
20
-207.7
11
158.671
21
-220.7
0
LINE
8
BLACK
6
CONTINUOUS
10
266.115
20
-207.7
11
266.115
21
-220.7
0
ARC
8
BLACK
10
209.465
20
-220.7
40
0.5
50
180
51
270
0
LINE
8
BLACK
6
CONTINUOUS
10
222.965
20
-207.7
11
222.965
21
-220.7
0
ARC
8
BLACK
10
203.415
20
-220.7
40
0.5
50
-90
51
-0
0
LINE
8
BLACK
6
CONTINUOUS
10
144.671
20
-207.7
11
144.671
21
-220.7
0
ARC
8
BLACK
10
247.565
20
-220.7
40
0.5
50
180
51
270
0
ARC
8
BLACK
10
247.565
20
-207.7
40
0.5
50
90
51
180
0
LINE
8
BLACK
6
CONTINUOUS
10
190.415
20
-221.2
11
203.415
21
-221.2
0
ARC
8
BLACK
10
184.365
20
-220.7
40
0.5
50
-90
51
-0
0
LINE
8
BLACK
6
CONTINUOUS
10
184.865
20
-207.7
11
184.865
21
-220.7
0
ARC
8
BLACK
10
209.465
20
-207.7
40
0.5
50
90
51
180
0
ARC
8
BLACK
10
171.365
20
-220.7
40
0.5
50
180
51
270
0
LINE
8
BLACK
6
CONTINUOUS
10
145.171
20
-221.2
11
158.171
21
-221.2
0
ARC
8
BLACK
10
285.665
20
-220.7
40
0.5
50
180
51
270
0
ARC
8
BLACK
10
222.465
20
-207.7
40
0.5
50
-0
51
90
0
LINE
8
BLACK
6
CONTINUOUS
10
266.615
20
-207.2
11
279.615
21
-207.2
0
ARC
8
BLACK
10
298.665
20
-207.7
40
0.5
50
-0
51
90
0
LINE
8
BLACK
6
CONTINUOUS
10
461.09
20
-245.8
11
461.09
21
-258.8
0
ARC
8
BLACK
10
466.64
20
-245.8
40
0.5
50
90
51
180
0
ARC
8
BLACK
10
460.59
20
-245.8
40
0.5
50
-0
51
90
0
ARC
8
BLACK
10
441.54
20
-258.8
40
0.5
50
-90
51
-0
0
LINE
8
BLACK
6
CONTINUOUS
10
447.59
20
-245.3
11
460.59
21
-245.3
0
ARC
8
BLACK
10
466.64
20
-258.8
40
0.5
50
180
51
270
0
LINE
8
BLACK
6
CONTINUOUS
10
466.64
20
-259.3
11
479.64
21
-259.3
0
LINE
8
BLACK
6
CONTINUOUS
10
466.64
20
-245.3
11
479.64
21
-245.3
0
ARC
8
BLACK
10
479.64
20
-245.8
40
0.5
50
-0
51
90
0
LINE
8
BLACK
6
CONTINUOUS
10
480.14
20
-245.8
11
480.14
21
-258.8
0
ARC
8
BLACK
10
447.59
20
-245.8
40
0.5
50
90
51
180
0
ARC
8
BLACK
10
479.64
20
-258.8
40
0.5
50
-90
51
-0
0
ARC
8
BLACK
10
460.59
20
-258.8
40
0.5
50
-90
51
-0
0
ARC
8
BLACK
10
447.59
20
-258.8
40
0.5
50
180
51
270
0
LINE
8
BLACK
6
CONTINUOUS
10
447.59
20
-259.3
11
460.59
21
-259.3
0
LINE
8
BLACK
6
CONTINUOUS
10
447.09
20
-245.8
11
447.09
21
-258.8
0
LINE
8
BLACK
6
CONTINUOUS
10
466.14
20
-245.8
11
466.14
21
-258.8
0
ARC
8
BLACK
10
330.909
20
-245.8
40
0.5
50
90
51
180
0
LINE
8
BLACK
6
CONTINUOUS
10
330.909
20
-245.3
11
343.909
21
-245.3
0
ARC
8
BLACK
10
343.909
20
-245.8
40
0.5
50
-0
51
90
0
LINE
8
BLACK
6
CONTINUOUS
10
219.521
20
-244.24
11
219.521
21
-258.24
0
LINE
8
BLACK
6
CONTINUOUS
10
402.346
20
-245.3
11
415.346
21
-245.3
0
ARC
8
BLACK
10
441.54
20
-245.8
40
0.5
50
-0
51
90
0
LINE
8
BLACK
6
CONTINUOUS
10
442.04
20
-245.8
11
442.04
21
-258.8
0
LINE
8
BLACK
6
CONTINUOUS
10
428.04
20
-245.8
11
428.04
21
-258.8
0
LINE
8
BLACK
6
CONTINUOUS
10
428.54
20
-259.3
11
441.54
21
-259.3
0
LINE
8
BLACK
6
CONTINUOUS
10
428.54
20
-245.3
11
441.54
21
-245.3
0
LINE
8
BLACK
6
CONTINUOUS
10
378.534
20
-259.3
11
391.534
21
-259.3
0
ARC
8
BLACK
10
354.721
20
-245.8
40
0.5
50
90
51
180
0
LINE
8
BLACK
6
CONTINUOUS
10
354.221
20
-245.8
11
354.221
21
-258.8
0
ARC
8
BLACK
10
219.021
20
-244.24
40
0.5
50
-0
51
90
0
ARC
8
BLACK
10
318.951
20
-258.24
40
0.5
50
-90
51
-0
0
ARC
8
BLACK
10
272.471
20
-258.8
40
0.5
50
-90
51
-0
0
LINE
8
BLACK
6
CONTINUOUS
10
330.909
20
-259.3
11
343.909
21
-259.3
0
ARC
8
BLACK
10
343.909
20
-258.8
40
0.5
50
-90
51
-0
0
ARC
8
BLACK
10
213.021
20
-258.24
40
0.5
50
180
51
270
0
LINE
8
BLACK
6
CONTINUOUS
10
212.521
20
-244.24
11
212.521
21
-258.24
0
LINE
8
BLACK
6
CONTINUOUS
10
330.409
20
-245.8
11
330.409
21
-258.8
0
LINE
8
BLACK
6
CONTINUOUS
10
344.409
20
-245.8
11
344.409
21
-258.8
0
LINE
8
BLACK
6
CONTINUOUS
10
354.721
20
-245.3
11
367.721
21
-245.3
0
ARC
8
BLACK
10
312.951
20
-244.24
40
0.5
50
90
51
180
0
ARC
8
BLACK
10
330.909
20
-258.8
40
0.5
50
180
51
270
0
LINE
8
BLACK
6
CONTINUOUS
10
213.021
20
-243.74
11
219.021
21
-243.74
0
LINE
8
BLACK
6
CONTINUOUS
10
259.471
20
-259.3
11
272.471
21
-259.3
0
LINE
8
BLACK
6
CONTINUOUS
10
312.951
20
-243.74
11
318.951
21
-243.74
0
ARC
8
BLACK
10
402.346
20
-258.8
40
0.5
50
180
51
270
0
LINE
8
BLACK
6
CONTINUOUS
10
415.846
20
-245.8
11
415.846
21
-258.8
0
LINE
8
BLACK
6
CONTINUOUS
10
378.034
20
-245.8
11
378.034
21
-258.8
0
ARC
8
BLACK
10
312.951
20
-258.24
40
0.5
50
180
51
270
0
ARC
8
BLACK
10
367.721
20
-245.8
40
0.5
50
-0
51
90
0
ARC
8
BLACK
10
213.021
20
-244.24
40
0.5
50
90
51
180
0
ARC
8
BLACK
10
391.534
20
-245.8
40
0.5
50
-0
51
90
0
LINE
8
BLACK
6
CONTINUOUS
10
378.534
20
-245.3
11
391.534
21
-245.3
0
ARC
8
BLACK
10
367.721
20
-258.8
40
0.5
50
-90
51
-0
0
LINE
8
BLACK
6
CONTINUOUS
10
259.471
20
-245.3
11
272.471
21
-245.3
0
ARC
8
BLACK
10
219.021
20
-258.24
40
0.5
50
-90
51
-0
0
ARC
8
BLACK
10
272.471
20
-245.8
40
0.5
50
-0
51
90
0
LINE
8
BLACK
6
CONTINUOUS
10
319.451
20
-244.24
11
319.451
21
-258.24
0
ARC
8
BLACK
10
378.534
20
-245.8
40
0.5
50
90
51
180
0
LINE
8
BLACK
6
CONTINUOUS
10
272.971
20
-245.8
11
272.971
21
-258.8
0
ARC
8
BLACK
10
428.54
20
-258.8
40
0.5
50
180
51
270
0
ARC
8
BLACK
10
428.54
20
-245.8
40
0.5
50
90
51
180
0
ARC
8
BLACK
10
402.346
20
-245.8
40
0.5
50
90
51
180
0
LINE
8
BLACK
6
CONTINUOUS
10
312.951
20
-258.74
11
318.951
21
-258.74
0
ARC
8
BLACK
10
259.471
20
-258.8
40
0.5
50
180
51
270
0
LINE
8
BLACK
6
CONTINUOUS
10
401.846
20
-245.8
11
401.846
21
-258.8
0
ARC
8
BLACK
10
415.346
20
-258.8
40
0.5
50
-90
51
-0
0
ARC
8
BLACK
10
415.346
20
-245.8
40
0.5
50
-0
51
90
0
LINE
8
BLACK
6
CONTINUOUS
10
213.021
20
-258.74
11
219.021
21
-258.74
0
LINE
8
BLACK
6
CONTINUOUS
10
258.971
20
-245.8
11
258.971
21
-258.8
0
ARC
8
BLACK
10
318.951
20
-244.24
40
0.5
50
-0
51
90
0
LINE
8
BLACK
6
CONTINUOUS
10
402.346
20
-259.3
11
415.346
21
-259.3
0
ARC
8
BLACK
10
201.034
20
-258.8
40
0.5
50
-90
51
-0
0
LINE
8
BLACK
6
CONTINUOUS
10
312.451
20
-244.24
11
312.451
21
-258.24
0
ARC
8
BLACK
10
354.721
20
-258.8
40
0.5
50
180
51
270
0
ARC
8
BLACK
10
391.534
20
-258.8
40
0.5
50
-90
51
-0
0
ARC
8
BLACK
10
378.534
20
-258.8
40
0.5
50
180
51
270
0
LINE
8
BLACK
6
CONTINUOUS
10
392.034
20
-245.8
11
392.034
21
-258.8
0
ARC
8
BLACK
10
259.471
20
-245.8
40
0.5
50
90
51
180
0
LINE
8
BLACK
6
CONTINUOUS
10
368.221
20
-245.8
11
368.221
21
-258.8
0
LINE
8
BLACK
6
CONTINUOUS
10
354.721
20
-259.3
11
367.721
21
-259.3
0
ARC
8
BLACK
10
388.059
20
-239.75
40
0.5
50
180
51
270
0
LINE
8
BLACK
6
CONTINUOUS
10
379.121
20
-227.75
11
379.121
21
-241.75
0
LINE
8
BLACK
6
CONTINUOUS
10
388.059
20
-240.25
11
401.059
21
-240.25
0
LINE
8
BLACK
6
CONTINUOUS
10
201.534
20
-245.8
11
201.534
21
-258.8
0
LINE
8
BLACK
6
CONTINUOUS
10
187.534
20
-245.8
11
187.534
21
-258.8
0
ARC
8
BLACK
10
409.497
20
-241.75
40
0.5
50
-90
51
-0
0
LINE
8
BLACK
6
CONTINUOUS
10
188.034
20
-259.3
11
201.034
21
-259.3
0
LINE
8
BLACK
6
CONTINUOUS
10
188.034
20
-245.3
11
201.034
21
-245.3
0
ARC
8
BLACK
10
164.221
20
-258.8
40
0.5
50
180
51
270
0
ARC
8
BLACK
10
140.409
20
-258.8
40
0.5
50
180
51
270
0
LINE
8
BLACK
6
CONTINUOUS
10
379.621
20
-227.25
11
385.621
21
-227.25
0
ARC
8
BLACK
10
403.497
20
-227.75
40
0.5
50
90
51
180
0
LINE
8
BLACK
6
CONTINUOUS
10
401.559
20
-226.75
11
401.559
21
-239.75
0
ARC
8
BLACK
10
177.221
20
-258.8
40
0.5
50
-90
51
-0
0
LINE
8
BLACK
6
CONTINUOUS
10
163.721
20
-245.8
11
163.721
21
-258.8
0
LINE
8
BLACK
6
CONTINUOUS
10
164.221
20
-245.3
11
177.221
21
-245.3
0
ARC
8
BLACK
10
460.59
20
-239.75
40
0.5
50
-90
51
-0
0
ARC
8
BLACK
10
401.059
20
-239.75
40
0.5
50
-90
51
-0
0
ARC
8
BLACK
10
352.34
20
-226.75
40
0.5
50
90
51
180
0
ARC
8
BLACK
10
460.59
20
-226.75
40
0.5
50
-0
51
90
0
LINE
8
BLACK
6
CONTINUOUS
10
461.09
20
-226.75
11
461.09
21
-239.75
0
ARC
8
BLACK
10
385.621
20
-241.75
40
0.5
50
-90
51
-0
0
ARC
8
BLACK
10
385.621
20
-227.75
40
0.5
50
-0
51
90
0
ARC
8
BLACK
10
379.621
20
-227.75
40
0.5
50
90
51
180
0
ARC
8
BLACK
10
388.059
20
-226.75
40
0.5
50
90
51
180
0
ARC
8
BLACK
10
352.34
20
-239.75
40
0.5
50
180
51
270
0
LINE
8
BLACK
6
CONTINUOUS
10
386.121
20
-227.75
11
386.121
21
-241.75
0
LINE
8
BLACK
6
CONTINUOUS
10
352.34
20
-240.25
11
365.34
21
-240.25
0
LINE
8
BLACK
6
CONTINUOUS
10
403.497
20
-227.25
11
409.497
21
-227.25
0
LINE
8
BLACK
6
CONTINUOUS
10
352.34
20
-226.25
11
365.34
21
-226.25
0
ARC
8
BLACK
10
401.059
20
-226.75
40
0.5
50
-0
51
90
0
LINE
8
BLACK
6
CONTINUOUS
10
387.559
20
-226.75
11
387.559
21
-239.75
0
ARC
8
BLACK
10
365.34
20
-226.75
40
0.5
50
-0
51
90
0
LINE
8
BLACK
6
CONTINUOUS
10
365.84
20
-226.75
11
365.84
21
-239.75
0
LINE
8
BLACK
6
CONTINUOUS
10
388.059
20
-226.25
11
401.059
21
-226.25
0
ARC
8
BLACK
10
403.497
20
-241.75
40
0.5
50
180
51
270
0
ARC
8
BLACK
10
365.34
20
-239.75
40
0.5
50
-90
51
-0
0
ARC
8
BLACK
10
164.221
20
-245.8
40
0.5
50
90
51
180
0
ARC
8
BLACK
10
153.409
20
-258.8
40
0.5
50
-90
51
-0
0
ARC
8
BLACK
10
409.497
20
-227.75
40
0.5
50
-0
51
90
0
LINE
8
BLACK
6
CONTINUOUS
10
139.909
20
-245.8
11
139.909
21
-258.8
0
LINE
8
BLACK
6
CONTINUOUS
10
447.09
20
-226.75
11
447.09
21
-239.75
0
ARC
8
BLACK
10
447.59
20
-226.75
40
0.5
50
90
51
180
0
LINE
8
BLACK
6
CONTINUOUS
10
140.409
20
-259.3
11
153.409
21
-259.3
0
ARC
8
BLACK
10
346.29
20
-239.75
40
0.5
50
-90
51
-0
0
ARC
8
BLACK
10
140.409
20
-245.8
40
0.5
50
90
51
180
0
ARC
8
BLACK
10
379.621
20
-241.75
40
0.5
50
180
51
270
0
LINE
8
BLACK
6
CONTINUOUS
10
379.621
20
-242.25
11
385.621
21
-242.25
0
LINE
8
BLACK
6
CONTINUOUS
10
402.997
20
-227.75
11
402.997
21
-241.75
0
LINE
8
BLACK
6
CONTINUOUS
10
403.497
20
-242.25
11
409.497
21
-242.25
0
LINE
8
BLACK
6
CONTINUOUS
10
447.59
20
-226.25
11
460.59
21
-226.25
0
LINE
8
BLACK
6
CONTINUOUS
10
177.721
20
-245.8
11
177.721
21
-258.8
0
LINE
8
BLACK
6
CONTINUOUS
10
164.221
20
-259.3
11
177.221
21
-259.3
0
LINE
8
BLACK
6
CONTINUOUS
10
153.909
20
-245.8
11
153.909
21
-258.8
0
LINE
8
BLACK
6
CONTINUOUS
10
351.84
20
-226.75
11
351.84
21
-239.75
0
ARC
8
BLACK
10
447.59
20
-239.75
40
0.5
50
180
51
270
0
LINE
8
BLACK
6
CONTINUOUS
10
140.409
20
-245.3
11
153.409
21
-245.3
0
ARC
8
BLACK
10
177.221
20
-245.8
40
0.5
50
-0
51
90
0
ARC
8
BLACK
10
153.409
20
-245.8
40
0.5
50
-0
51
90
0
ARC
8
BLACK
10
188.034
20
-258.8
40
0.5
50
180
51
270
0
LINE
8
BLACK
6
CONTINUOUS
10
409.997
20
-227.75
11
409.997
21
-241.75
0
ARC
8
BLACK
10
201.034
20
-245.8
40
0.5
50
-0
51
90
0
ARC
8
BLACK
10
188.034
20
-245.8
40
0.5
50
90
51
180
0
LINE
8
BLACK
6
CONTINUOUS
10
447.59
20
-240.25
11
460.59
21
-240.25
0
ARC
8
BLACK
10
238.04
20
-226.75
40
0.5
50
90
51
180
0
LINE
8
BLACK
6
CONTINUOUS
10
238.04
20
-226.25
11
251.04
21
-226.25
0
ARC
8
BLACK
10
251.04
20
-226.75
40
0.5
50
-0
51
90
0
LINE
8
BLACK
6
CONTINUOUS
10
232.49
20
-226.75
11
232.49
21
-239.75
0
LINE
8
BLACK
6
CONTINUOUS
10
295.19
20
-226.25
11
308.19
21
-226.25
0
ARC
8
BLACK
10
333.29
20
-226.75
40
0.5
50
90
51
180
0
LINE
8
BLACK
6
CONTINUOUS
10
333.29
20
-226.25
11
346.29
21
-226.25
0
ARC
8
BLACK
10
327.24
20
-239.75
40
0.5
50
-90
51
-0
0
ARC
8
BLACK
10
327.24
20
-226.75
40
0.5
50
-0
51
90
0
LINE
8
BLACK
6
CONTINUOUS
10
314.24
20
-240.25
11
327.24
21
-240.25
0
LINE
8
BLACK
6
CONTINUOUS
10
314.24
20
-226.25
11
327.24
21
-226.25
0
LINE
8
BLACK
6
CONTINUOUS
10
276.14
20
-240.25
11
289.14
21
-240.25
0
ARC
8
BLACK
10
257.09
20
-226.75
40
0.5
50
90
51
180
0
ARC
8
BLACK
10
231.99
20
-226.75
40
0.5
50
-0
51
90
0
ARC
8
BLACK
10
212.94
20
-239.75
40
0.5
50
-90
51
-0
0
ARC
8
BLACK
10
193.89
20
-239.75
40
0.5
50
-90
51
-0
0
LINE
8
BLACK
6
CONTINUOUS
10
238.04
20
-240.25
11
251.04
21
-240.25
0
ARC
8
BLACK
10
251.04
20
-239.75
40
0.5
50
-90
51
-0
0
ARC
8
BLACK
10
218.99
20
-239.75
40
0.5
50
180
51
270
0
LINE
8
BLACK
6
CONTINUOUS
10
218.49
20
-226.75
11
218.49
21
-239.75
0
LINE
8
BLACK
6
CONTINUOUS
10
237.54
20
-226.75
11
237.54
21
-239.75
0
LINE
8
BLACK
6
CONTINUOUS
10
251.54
20
-226.75
11
251.54
21
-239.75
0
LINE
8
BLACK
6
CONTINUOUS
10
256.59
20
-226.75
11
256.59
21
-239.75
0
ARC
8
BLACK
10
199.94
20
-226.75
40
0.5
50
90
51
180
0
ARC
8
BLACK
10
238.04
20
-239.75
40
0.5
50
180
51
270
0
LINE
8
BLACK
6
CONTINUOUS
10
257.09
20
-226.25
11
270.09
21
-226.25
0
LINE
8
BLACK
6
CONTINUOUS
10
218.99
20
-226.25
11
231.99
21
-226.25
0
LINE
8
BLACK
6
CONTINUOUS
10
199.94
20
-226.25
11
212.94
21
-226.25
0
LINE
8
BLACK
6
CONTINUOUS
10
313.74
20
-226.75
11
313.74
21
-239.75
0
ARC
8
BLACK
10
295.19
20
-239.75
40
0.5
50
180
51
270
0
LINE
8
BLACK
6
CONTINUOUS
10
275.64
20
-226.75
11
275.64
21
-239.75
0
ARC
8
BLACK
10
199.94
20
-239.75
40
0.5
50
180
51
270
0
ARC
8
BLACK
10
270.09
20
-226.75
40
0.5
50
-0
51
90
0
ARC
8
BLACK
10
218.99
20
-226.75
40
0.5
50
90
51
180
0
ARC
8
BLACK
10
289.14
20
-226.75
40
0.5
50
-0
51
90
0
LINE
8
BLACK
6
CONTINUOUS
10
327.74
20
-226.75
11
327.74
21
-239.75
0
ARC
8
BLACK
10
333.29
20
-239.75
40
0.5
50
180
51
270
0
LINE
8
BLACK
6
CONTINUOUS
10
276.14
20
-226.25
11
289.14
21
-226.25
0
ARC
8
BLACK
10
270.09
20
-239.75
40
0.5
50
-90
51
-0
0
ARC
8
BLACK
10
231.99
20
-239.75
40
0.5
50
-90
51
-0
0
LINE
8
BLACK
6
CONTINUOUS
10
213.44
20
-226.75
11
213.44
21
-239.75
0
ARC
8
BLACK
10
276.14
20
-226.75
40
0.5
50
90
51
180
0
LINE
8
BLACK
6
CONTINUOUS
10
308.69
20
-226.75
11
308.69
21
-239.75
0
ARC
8
BLACK
10
346.29
20
-226.75
40
0.5
50
-0
51
90
0
LINE
8
BLACK
6
CONTINUOUS
10
333.29
20
-240.25
11
346.29
21
-240.25
0
LINE
8
BLACK
6
CONTINUOUS
10
332.79
20
-226.75
11
332.79
21
-239.75
0
ARC
8
BLACK
10
295.19
20
-226.75
40
0.5
50
90
51
180
0
LINE
8
BLACK
6
CONTINUOUS
10
199.94
20
-240.25
11
212.94
21
-240.25
0
LINE
8
BLACK
6
CONTINUOUS
10
294.69
20
-226.75
11
294.69
21
-239.75
0
ARC
8
BLACK
10
314.24
20
-226.75
40
0.5
50
90
51
180
0
LINE
8
BLACK
6
CONTINUOUS
10
346.79
20
-226.75
11
346.79
21
-239.75
0
ARC
8
BLACK
10
314.24
20
-239.75
40
0.5
50
180
51
270
0
LINE
8
BLACK
6
CONTINUOUS
10
218.99
20
-240.25
11
231.99
21
-240.25
0
ARC
8
BLACK
10
212.94
20
-226.75
40
0.5
50
-0
51
90
0
ARC
8
BLACK
10
308.19
20
-239.75
40
0.5
50
-90
51
-0
0
ARC
8
BLACK
10
308.19
20
-226.75
40
0.5
50
-0
51
90
0
LINE
8
BLACK
6
CONTINUOUS
10
199.44
20
-226.75
11
199.44
21
-239.75
0
ARC
8
BLACK
10
257.09
20
-239.75
40
0.5
50
180
51
270
0
LINE
8
BLACK
6
CONTINUOUS
10
295.19
20
-240.25
11
308.19
21
-240.25
0
ARC
8
BLACK
10
289.14
20
-239.75
40
0.5
50
-90
51
-0
0
ARC
8
BLACK
10
276.14
20
-239.75
40
0.5
50
180
51
270
0
LINE
8
BLACK
6
CONTINUOUS
10
289.64
20
-226.75
11
289.64
21
-239.75
0
LINE
8
BLACK
6
CONTINUOUS
10
270.59
20
-226.75
11
270.59
21
-239.75
0
LINE
8
BLACK
6
CONTINUOUS
10
257.09
20
-240.25
11
270.09
21
-240.25
0
LINE
8
BLACK
6
CONTINUOUS
10
304.215
20
-207.7
11
304.215
21
-220.7
0
LINE
8
BLACK
6
CONTINUOUS
10
194.39
20
-226.75
11
194.39
21
-239.75
0
ARC
8
BLACK
10
140.409
20
-226.75
40
0.5
50
90
51
180
0
LINE
8
BLACK
6
CONTINUOUS
10
180.39
20
-226.75
11
180.39
21
-239.75
0
LINE
8
BLACK
6
CONTINUOUS
10
180.89
20
-240.25
11
193.89
21
-240.25
0
LINE
8
BLACK
6
CONTINUOUS
10
180.89
20
-226.25
11
193.89
21
-226.25
0
ARC
8
BLACK
10
174.84
20
-226.75
40
0.5
50
-0
51
90
0
ARC
8
BLACK
10
342.815
20
-220.7
40
0.5
50
180
51
270
0
ARC
8
BLACK
10
336.765
20
-220.7
40
0.5
50
-90
51
-0
0
ARC
8
BLACK
10
140.409
20
-239.75
40
0.5
50
180
51
270
0
ARC
8
BLACK
10
355.815
20
-220.7
40
0.5
50
-90
51
-0
0
LINE
8
BLACK
6
CONTINUOUS
10
140.409
20
-226.25
11
153.409
21
-226.25
0
LINE
8
BLACK
6
CONTINUOUS
10
356.315
20
-207.7
11
356.315
21
-220.7
0
LINE
8
BLACK
6
CONTINUOUS
10
380.915
20
-207.2
11
393.915
21
-207.2
0
LINE
8
BLACK
6
CONTINUOUS
10
342.815
20
-221.2
11
355.815
21
-221.2
0
ARC
8
BLACK
10
174.84
20
-239.75
40
0.5
50
-90
51
-0
0
ARC
8
BLACK
10
304.715
20
-207.7
40
0.5
50
90
51
180
0
LINE
8
BLACK
6
CONTINUOUS
10
175.34
20
-226.75
11
175.34
21
-239.75
0
LINE
8
BLACK
6
CONTINUOUS
10
304.715
20
-207.2
11
317.715
21
-207.2
0
LINE
8
BLACK
6
CONTINUOUS
10
361.365
20
-207.7
11
361.365
21
-220.7
0
LINE
8
BLACK
6
CONTINUOUS
10
380.915
20
-221.2
11
383.397
21
-221.201
0
ARC
8
BLACK
10
342.815
20
-207.7
40
0.5
50
90
51
180
0
ARC
8
BLACK
10
304.715
20
-220.7
40
0.5
50
180
51
270
0
LINE
8
BLACK
6
CONTINUOUS
10
161.84
20
-226.25
11
174.84
21
-226.25
0
LINE
8
BLACK
6
CONTINUOUS
10
139.909
20
-226.75
11
139.909
21
-239.75
0
LINE
8
BLACK
6
CONTINUOUS
10
323.765
20
-207.2
11
336.765
21
-207.2
0
ARC
8
BLACK
10
380.915
20
-220.7
40
0.5
50
180
51
270
0
ARC
8
BLACK
10
380.915
20
-207.7
40
0.5
50
90
51
180
0
LINE
8
BLACK
6
CONTINUOUS
10
361.865
20
-221.2
11
374.865
21
-221.2
0
ARC
8
BLACK
10
361.865
20
-220.7
40
0.5
50
180
51
270
0
ARC
8
BLACK
10
361.865
20
-207.7
40
0.5
50
90
51
180
0
LINE
8
BLACK
6
CONTINUOUS
10
337.265
20
-207.7
11
337.265
21
-220.7
0
LINE
8
BLACK
6
CONTINUOUS
10
318.215
20
-207.7
11
318.215
21
-220.7
0
ARC
8
BLACK
10
317.715
20
-207.7
40
0.5
50
-0
51
90
0
LINE
8
BLACK
6
CONTINUOUS
10
323.265
20
-207.7
11
323.265
21
-220.7
0
LINE
8
BLACK
6
CONTINUOUS
10
380.415
20
-207.7
11
380.415
21
-220.7
0
ARC
8
BLACK
10
374.865
20
-220.7
40
0.5
50
-90
51
-0
0
ARC
8
BLACK
10
336.765
20
-207.7
40
0.5
50
-0
51
90
0
LINE
8
BLACK
6
CONTINUOUS
10
342.815
20
-207.2
11
355.815
21
-207.2
0
ARC
8
BLACK
10
298.665
20
-220.7
40
0.5
50
-90
51
-0
0
LINE
8
BLACK
6
CONTINUOUS
10
304.715
20
-221.2
11
317.715
21
-221.2
0
LINE
8
BLACK
6
CONTINUOUS
10
375.365
20
-207.7
11
375.365
21
-220.7
0
LINE
8
BLACK
6
CONTINUOUS
10
361.865
20
-207.2
11
374.865
21
-207.2
0
ARC
8
BLACK
10
323.765
20
-207.7
40
0.5
50
90
51
180
0
LINE
8
BLACK
6
CONTINUOUS
10
342.315
20
-207.7
11
342.315
21
-220.7
0
ARC
8
BLACK
10
317.715
20
-220.7
40
0.5
50
-90
51
-0
0
LINE
8
BLACK
6
CONTINUOUS
10
323.765
20
-221.2
11
336.765
21
-221.2
0
ARC
8
BLACK
10
180.89
20
-239.75
40
0.5
50
180
51
270
0
ARC
8
BLACK
10
323.765
20
-220.7
40
0.5
50
180
51
270
0
ARC
8
BLACK
10
180.89
20
-226.75
40
0.5
50
90
51
180
0
ARC
8
BLACK
10
374.865
20
-207.7
40
0.5
50
-0
51
90
0
ARC
8
BLACK
10
355.815
20
-207.7
40
0.5
50
-0
51
90
0
ARC
8
BLACK
10
193.89
20
-226.75
40
0.5
50
-0
51
90
0
ARC
8
BLACK
10
484.3
20
-108.4
40
3
50
-0
51
90
0
ARC
8
BLACK
10
135.7
20
-108.4
40
3
50
90
51
180
0
ARC
8
BLACK
10
135.7
20
-258.9
40
3
50
180
51
270
0
ARC
8
BLACK
10
484.3
20
-258.9
40
3
50
-90
51
-0
0
LINE
8
BLACK
6
CONTINUOUS
10
390.627
20
-109.753
11
390.627
21
-131.089
0
LINE
8
BLACK
6
CONTINUOUS
10
337.744
20
-131.089
11
337.744
21
-109.753
0
LINE
8
BLACK
6
CONTINUOUS
10
337.744
20
-131.089
11
390.627
21
-131.089
0
LINE
8
BLACK
6
CONTINUOUS
10
337.744
20
-109.753
11
390.627
21
-109.753
0
LINE
8
BLACK
6
CONTINUOUS
10
487.3
20
-108.4
11
487.3
21
-258.9
0
LINE
8
BLACK
6
CONTINUOUS
10
135.7
20
-105.4
11
484.3
21
-105.4
0
LINE
8
BLACK
6
CONTINUOUS
10
132.7
20
-258.9
11
132.7
21
-108.4
0
LINE
8
BLACK
6
CONTINUOUS
10
484.3
20
-261.9
11
135.7
21
-261.9
  0
ENDSEC
  0
EOF
