  0
SECTION
  2
HEADER
  9
$ANGBASE
  50
0.0
  9
$ANGDIR
  70
1
  9
$MEASUREMENT
  70
0
  0
ENDSEC
  0
SECTION
  2
TABLES
  0
TABLE
  2
LTYPE
  70
4
  0
LTYPE
  5
40F
  2
CONTINUOUS
  70
0
  3
Solid line
  72
65
  73
0
  40
0.0
  0
LTYPE
  5
410
  2
DASHDOT
 70
0
  3
Dash Dot ____ _ ____ _
 72
65
 73
4
 40
2.0
 49
1.25
 49
-0.25
 49
0.25
 49
-0.25
  0
LTYPE
  5
411
  2
DASHED
 70
0
  3
Dashed __ __ __ __ __
 72
65
 73
2
 40
0.75
 49
0.5
 49
-0.25
  0
LTYPE
  5
43B
  2
DOTTED
 70
0
  3
Dotted .  .  .  .
 72
65
 73
2
 40
0.2
 49
0.0
 49
-0.2
  0
ENDTAB
  0
TABLE
  2
STYLE
  70
4
  0
STYLE
  2
KICAD
  70
0
  40
0
  41
1
  42
1
  50
0
  71
0
  3
isocp.shx
  0
STYLE
  2
KICADB
  70
0
  40
0
  41
1
  42
1
  50
0
  71
0
  3
isocp.shx
  0
STYLE
  2
KICADI
  70
0
  40
0
  41
1
  42
1
  50
15
  71
0
  3
isocp.shx
  0
STYLE
  2
KICADBI
  70
0
  40
0
  41
1
  42
1
  50
15
  71
0
  3
isocp.shx
  0
ENDTAB
  0
TABLE
  2
LAYER
  70
1
  0
LAYER
  2
BLACK
  70
0
  62
7
  6
CONTINUOUS
  0
ENDTAB
  0
ENDSEC
  0
SECTION
  2
ENTITIES
0
ARC
8
BLACK
10
1.99649
20
-7.67756
40
0.019685
50
90
51
180
0
LINE
8
BLACK
6
CONTINUOUS
10
1.67751
20
-7.10669
11
3.03307
21
-7.10669
0
CIRCLE
8
BLACK
10
7.18337
20
-2.52579
40
0.0636195
0
CIRCLE
8
BLACK
10
1.5166
20
-8.36654
40
0.0636195
0
CIRCLE
8
BLACK
10
8.16289
20
-8.32323
40
0.0636195
0
CIRCLE
8
BLACK
10
15.1938
20
-8.3685
40
0.0636195
0
CIRCLE
8
BLACK
10
14.8148
20
-4.56929
40
0.0636195
0
CIRCLE
8
BLACK
10
8.35518
20
-4.57028
40
0.0636195
0
CIRCLE
8
BLACK
10
1.89357
20
-4.56929
40
0.0636195
0
CIRCLE
8
BLACK
10
1.56286
20
-2.54567
40
0.0636195
0
CIRCLE
8
BLACK
10
15.1456
20
-2.54567
40
0.0645717
0
LINE
8
BLACK
6
CONTINUOUS
10
12.2037
20
-6.9276
11
12.2037
21
-6.96693
0
ARC
8
BLACK
10
12.5018
20
-6.5524
40
0.019685
50
90
51
180
0
ARC
8
BLACK
10
11.559
20
-6.9276
40
0.019685
50
90
51
180
0
LINE
8
BLACK
6
CONTINUOUS
10
11.5393
20
-6.96693
11
11.5393
21
-6.9276
0
ARC
8
BLACK
10
11.244
20
-6.9276
40
0.019685
50
-0
51
90
0
LINE
8
BLACK
6
CONTINUOUS
10
11.2637
20
-6.96693
11
11.2637
21
-6.9276
0
LINE
8
BLACK
6
CONTINUOUS
10
11.9704
20
-6.337
11
11.9704
21
-6.17598
0
ARC
8
BLACK
10
11.9507
20
-6.337
40
0.019685
50
-90
51
-0
0
LINE
8
BLACK
6
CONTINUOUS
10
11.9507
20
-6.1563
11
11.8956
21
-6.1563
0
ARC
8
BLACK
10
11.8956
20
-6.13661
40
0.019685
50
180
51
270
0
ARC
8
BLACK
10
11.9507
20
-6.17598
40
0.019685
50
-0
51
90
0
ARC
8
BLACK
10
12.4469
20
-5.96201
40
0.019685
50
180
51
270
0
LINE
8
BLACK
6
CONTINUOUS
10
12.4625
20
-5.92508
11
12.4469
21
-5.92508
0
ARC
8
BLACK
10
12.4469
20
-5.94476
40
0.019685
50
90
51
180
0
ARC
8
BLACK
10
12.4469
20
-5.62992
40
0.019685
50
180
51
270
0
LINE
8
BLACK
6
CONTINUOUS
10
12.4272
20
-5.96201
11
12.4272
21
-5.94476
0
ARC
8
BLACK
10
12.4075
20
-5.6252
40
0.019685
50
-0
51
90
0
LINE
8
BLACK
6
CONTINUOUS
10
11.8759
20
-6.13661
11
11.876
21
-5.6252
0
LINE
8
BLACK
6
CONTINUOUS
10
12.4272
20
-5.6252
11
12.4272
21
-5.62992
0
LINE
8
BLACK
6
CONTINUOUS
10
11.8953
20
-5.60551
11
12.4075
21
-5.60551
0
ARC
8
BLACK
10
2.93649
20
-7.67756
40
0.019685
50
90
51
180
0
LINE
8
BLACK
6
CONTINUOUS
10
3.03307
20
-7.65787
11
2.93649
21
-7.65787
0
LINE
8
BLACK
6
CONTINUOUS
10
2.9168
20
-7.71693
11
2.9168
21
-7.67756
0
LINE
8
BLACK
6
CONTINUOUS
10
2.64121
20
-7.67756
11
2.64121
21
-7.71693
0
ARC
8
BLACK
10
2.62153
20
-7.67756
40
0.019685
50
-0
51
90
0
LINE
8
BLACK
6
CONTINUOUS
10
2.62153
20
-7.65787
11
1.99649
21
-7.65787
0
LINE
8
BLACK
6
CONTINUOUS
10
1.9768
20
-7.71693
11
1.9768
21
-7.67756
0
LINE
8
BLACK
6
CONTINUOUS
10
1.70121
20
-7.67756
11
1.70121
21
-7.71693
0
LINE
8
BLACK
6
CONTINUOUS
10
1.67751
20
-7.65787
11
1.68153
21
-7.65787
0
ARC
8
BLACK
10
1.68153
20
-7.67756
40
0.019685
50
-0
51
90
0
LINE
8
BLACK
6
CONTINUOUS
10
1.7209
20
-7.73661
11
1.95712
21
-7.73661
0
ARC
8
BLACK
10
11.5196
20
-6.96693
40
0.019685
50
-90
51
-0
0
ARC
8
BLACK
10
12.4625
20
-6.9669
40
0.019685
50
-90
51
-0
0
ARC
8
BLACK
10
2.6609
20
-7.71693
40
0.019685
50
180
51
270
0
ARC
8
BLACK
10
2.89712
20
-7.71693
40
0.019685
50
-90
51
-0
0
LINE
8
BLACK
6
CONTINUOUS
10
11.2834
20
-6.98661
11
11.5196
21
-6.98661
0
LINE
8
BLACK
6
CONTINUOUS
10
2.6609
20
-7.73661
11
2.89712
21
-7.73661
0
ARC
8
BLACK
10
12.2234
20
-6.96693
40
0.019685
50
180
51
270
0
ARC
8
BLACK
10
1.95712
20
-7.71693
40
0.019685
50
-90
51
-0
0
ARC
8
BLACK
10
1.7209
20
-7.71693
40
0.019685
50
180
51
270
0
ARC
8
BLACK
10
11.2834
20
-6.96693
40
0.019685
50
180
51
270
0
ARC
8
BLACK
10
12.184
20
-6.9276
40
0.019685
50
-0
51
90
0
LINE
8
BLACK
6
CONTINUOUS
10
12.2235
20
-6.9866
11
12.4625
21
-6.98658
0
LINE
8
BLACK
6
CONTINUOUS
10
11.559
20
-6.90791
11
12.184
21
-6.90791
0
LINE
8
BLACK
6
CONTINUOUS
10
12.4625
20
-5.64949
11
12.4469
21
-5.64961
0
ARC
8
BLACK
10
10.9588
20
-5.62638
40
0.019685
50
90
51
180
0
ARC
8
BLACK
10
11.4706
20
-6.13819
40
0.019685
50
-90
51
-0
0
LINE
8
BLACK
6
CONTINUOUS
10
13.7516
20
-5.62638
11
13.7516
21
-6.13819
0
ARC
8
BLACK
10
13.5331
20
-6.13819
40
0.019685
50
-90
51
-0
0
LINE
8
BLACK
6
CONTINUOUS
10
12.4821
20
-6.5524
11
12.4821
21
-6.9669
0
ARC
8
BLACK
10
14.2831
20
-6.13819
40
0.019685
50
-90
51
-0
0
ARC
8
BLACK
10
11.8957
20
-5.6252
40
0.019685
50
90
51
180
0
LINE
8
BLACK
6
CONTINUOUS
10
12.5018
20
-5.98169
11
12.4469
21
-5.98169
0
ARC
8
BLACK
10
14.2831
20
-5.62638
40
0.019685
50
-0
51
90
0
LINE
8
BLACK
6
CONTINUOUS
10
14.3028
20
-5.62638
11
14.3028
21
-6.13819
0
ARC
8
BLACK
10
12.4625
20
-5.66917
40
0.019685
50
-0
51
90
0
LINE
8
BLACK
6
CONTINUOUS
10
12.4821
20
-5.66917
11
12.4821
21
-5.90539
0
ARC
8
BLACK
10
12.5018
20
-6.51303
40
0.019685
50
-90
51
-0
0
LINE
8
BLACK
6
CONTINUOUS
10
13.5528
20
-5.62638
11
13.5528
21
-6.13819
0
LINE
8
BLACK
6
CONTINUOUS
10
13.0213
20
-6.15787
11
13.5331
21
-6.15787
0
ARC
8
BLACK
10
12.4625
20
-5.90539
40
0.019685
50
-90
51
-0
0
LINE
8
BLACK
6
CONTINUOUS
10
12.5215
20
-6.00138
11
12.5215
21
-6.51303
0
ARC
8
BLACK
10
11.4706
20
-5.62638
40
0.019685
50
-0
51
90
0
ARC
8
BLACK
10
13.7713
20
-5.62638
40
0.019685
50
90
51
180
0
ARC
8
BLACK
10
10.9588
20
-6.13819
40
0.019685
50
180
51
270
0
ARC
8
BLACK
10
13.0213
20
-6.13819
40
0.019685
50
180
51
270
0
ARC
8
BLACK
10
12.5018
20
-6.00138
40
0.019685
50
-0
51
90
0
LINE
8
BLACK
6
CONTINUOUS
10
13.7713
20
-6.15787
11
14.2831
21
-6.15787
0
LINE
8
BLACK
6
CONTINUOUS
10
13.0016
20
-5.62638
11
13.0016
21
-6.13819
0
LINE
8
BLACK
6
CONTINUOUS
10
14.5213
20
-5.60669
11
15.0331
21
-5.60669
0
ARC
8
BLACK
10
14.5213
20
-6.13819
40
0.019685
50
180
51
270
0
ARC
8
BLACK
10
15.0331
20
-5.62638
40
0.019685
50
-0
51
90
0
ARC
8
BLACK
10
13.5331
20
-5.62638
40
0.019685
50
-0
51
90
0
ARC
8
BLACK
10
14.5213
20
-5.62638
40
0.019685
50
90
51
180
0
ARC
8
BLACK
10
13.7713
20
-6.13819
40
0.019685
50
180
51
270
0
LINE
8
BLACK
6
CONTINUOUS
10
15.0528
20
-5.62638
11
15.0528
21
-6.13819
0
LINE
8
BLACK
6
CONTINUOUS
10
13.0213
20
-5.60669
11
13.5331
21
-5.60669
0
LINE
8
BLACK
6
CONTINUOUS
10
14.5016
20
-5.62638
11
14.5016
21
-6.13819
0
LINE
8
BLACK
6
CONTINUOUS
10
14.5213
20
-6.15787
11
15.0331
21
-6.15787
0
LINE
8
BLACK
6
CONTINUOUS
10
13.7713
20
-5.60669
11
14.2831
21
-5.60669
0
ARC
8
BLACK
10
13.0213
20
-5.62638
40
0.019685
50
90
51
180
0
ARC
8
BLACK
10
10.7206
20
-5.62638
40
0.019685
50
-0
51
90
0
LINE
8
BLACK
6
CONTINUOUS
10
7.95876
20
-6.15787
11
8.47057
21
-6.15787
0
ARC
8
BLACK
10
7.20876
20
-5.62638
40
0.019685
50
90
51
180
0
LINE
8
BLACK
6
CONTINUOUS
10
10.1891
20
-5.62638
11
10.1891
21
-6.13819
0
ARC
8
BLACK
10
7.72057
20
-5.62638
40
0.019685
50
-0
51
90
0
LINE
8
BLACK
6
CONTINUOUS
10
7.74026
20
-5.62638
11
7.74026
21
-6.13819
0
ARC
8
BLACK
10
6.45876
20
-5.62638
40
0.019685
50
90
51
180
0
LINE
8
BLACK
6
CONTINUOUS
10
6.45876
20
-5.60669
11
6.97057
21
-5.60669
0
LINE
8
BLACK
6
CONTINUOUS
10
7.93907
20
-5.62638
11
7.93907
21
-6.13819
0
ARC
8
BLACK
10
7.95876
20
-6.13819
40
0.019685
50
180
51
270
0
ARC
8
BLACK
10
6.97057
20
-5.62638
40
0.019685
50
-0
51
90
0
LINE
8
BLACK
6
CONTINUOUS
10
9.45876
20
-5.60669
11
9.97057
21
-5.60669
0
ARC
8
BLACK
10
10.2088
20
-6.13819
40
0.019685
50
180
51
270
0
LINE
8
BLACK
6
CONTINUOUS
10
10.9588
20
-5.60669
11
11.4706
21
-5.60669
0
ARC
8
BLACK
10
7.95876
20
-5.62638
40
0.019685
50
90
51
180
0
ARC
8
BLACK
10
6.45876
20
-6.13819
40
0.019685
50
180
51
270
0
LINE
8
BLACK
6
CONTINUOUS
10
10.2088
20
-5.60669
11
10.7206
21
-5.60669
0
ARC
8
BLACK
10
9.22057
20
-5.62638
40
0.019685
50
-0
51
90
0
ARC
8
BLACK
10
5.70876
20
-5.62638
40
0.019685
50
90
51
180
0
LINE
8
BLACK
6
CONTINUOUS
10
6.43907
20
-5.62638
11
6.43907
21
-6.13819
0
ARC
8
BLACK
10
4.95876
20
-5.62638
40
0.019685
50
90
51
180
0
ARC
8
BLACK
10
6.22057
20
-6.13819
40
0.019685
50
-90
51
-0
0
LINE
8
BLACK
6
CONTINUOUS
10
6.45876
20
-6.15787
11
6.97057
21
-6.15787
0
LINE
8
BLACK
6
CONTINUOUS
10
10.7403
20
-5.62638
11
10.7403
21
-6.13819
0
ARC
8
BLACK
10
8.47057
20
-6.13819
40
0.019685
50
-90
51
-0
0
LINE
8
BLACK
6
CONTINUOUS
10
5.70876
20
-5.60669
11
6.22057
21
-5.60669
0
LINE
8
BLACK
6
CONTINUOUS
10
8.49026
20
-5.62638
11
8.49026
21
-6.13819
0
ARC
8
BLACK
10
7.20876
20
-6.13819
40
0.019685
50
180
51
270
0
LINE
8
BLACK
6
CONTINUOUS
10
7.95876
20
-5.60669
11
8.47057
21
-5.60669
0
ARC
8
BLACK
10
4.95876
20
-6.13819
40
0.019685
50
180
51
270
0
LINE
8
BLACK
6
CONTINUOUS
10
10.9391
20
-5.62638
11
10.9391
21
-6.13819
0
LINE
8
BLACK
6
CONTINUOUS
10
5.70876
20
-6.15787
11
6.22057
21
-6.15787
0
LINE
8
BLACK
6
CONTINUOUS
10
9.24026
20
-5.62638
11
9.24026
21
-6.13819
0
ARC
8
BLACK
10
10.2088
20
-5.62638
40
0.019685
50
90
51
180
0
LINE
8
BLACK
6
CONTINUOUS
10
10.2088
20
-6.15787
11
10.7206
21
-6.15787
0
ARC
8
BLACK
10
9.97057
20
-6.13819
40
0.019685
50
-90
51
-0
0
ARC
8
BLACK
10
9.45876
20
-6.13819
40
0.019685
50
180
51
270
0
ARC
8
BLACK
10
5.47057
20
-5.62638
40
0.019685
50
-0
51
90
0
ARC
8
BLACK
10
9.97057
20
-5.62638
40
0.019685
50
-0
51
90
0
ARC
8
BLACK
10
5.70876
20
-6.13819
40
0.019685
50
180
51
270
0
LINE
8
BLACK
6
CONTINUOUS
10
8.70876
20
-6.15787
11
9.22057
21
-6.15787
0
ARC
8
BLACK
10
8.47057
20
-5.62638
40
0.019685
50
-0
51
90
0
ARC
8
BLACK
10
9.45876
20
-5.62638
40
0.019685
50
90
51
180
0
LINE
8
BLACK
6
CONTINUOUS
10
9.99026
20
-5.62638
11
9.99026
21
-6.13819
0
ARC
8
BLACK
10
7.72057
20
-6.13819
40
0.019685
50
-90
51
-0
0
LINE
8
BLACK
6
CONTINUOUS
10
9.43907
20
-5.62638
11
9.43907
21
-6.13819
0
LINE
8
BLACK
6
CONTINUOUS
10
9.45876
20
-6.15787
11
9.97057
21
-6.15787
0
ARC
8
BLACK
10
9.22057
20
-6.13819
40
0.019685
50
-90
51
-0
0
LINE
8
BLACK
6
CONTINUOUS
10
7.18907
20
-5.62638
11
7.18907
21
-6.13819
0
ARC
8
BLACK
10
6.97057
20
-6.13819
40
0.019685
50
-90
51
-0
0
LINE
8
BLACK
6
CONTINUOUS
10
6.99026
20
-5.62638
11
6.99026
21
-6.13819
0
ARC
8
BLACK
10
8.70876
20
-6.13819
40
0.019685
50
180
51
270
0
LINE
8
BLACK
6
CONTINUOUS
10
8.68907
20
-5.62638
11
8.68907
21
-6.13819
0
LINE
8
BLACK
6
CONTINUOUS
10
8.70876
20
-5.60669
11
9.22057
21
-5.60669
0
ARC
8
BLACK
10
6.22057
20
-5.62638
40
0.019685
50
-0
51
90
0
LINE
8
BLACK
6
CONTINUOUS
10
6.24026
20
-5.62638
11
6.24026
21
-6.13819
0
ARC
8
BLACK
10
5.47057
20
-6.13819
40
0.019685
50
-90
51
-0
0
LINE
8
BLACK
6
CONTINUOUS
10
7.20876
20
-5.60669
11
7.72057
21
-5.60669
0
LINE
8
BLACK
6
CONTINUOUS
10
11.4903
20
-5.62638
11
11.4903
21
-6.13819
0
LINE
8
BLACK
6
CONTINUOUS
10
5.68907
20
-5.62638
11
5.68907
21
-6.13819
0
LINE
8
BLACK
6
CONTINUOUS
10
10.9588
20
-6.15787
11
11.4706
21
-6.15787
0
LINE
8
BLACK
6
CONTINUOUS
10
7.20876
20
-6.15787
11
7.72057
21
-6.15787
0
ARC
8
BLACK
10
8.70876
20
-5.62638
40
0.019685
50
90
51
180
0
ARC
8
BLACK
10
10.7206
20
-6.13819
40
0.019685
50
-90
51
-0
0
ARC
8
BLACK
10
4.72057
20
-6.13819
40
0.019685
50
-90
51
-0
0
ARC
8
BLACK
10
13.7713
20
-5.38819
40
0.019685
50
180
51
270
0
ARC
8
BLACK
10
4.20876
20
-6.13819
40
0.019685
50
180
51
270
0
ARC
8
BLACK
10
4.72057
20
-5.62638
40
0.019685
50
-0
51
90
0
ARC
8
BLACK
10
4.20876
20
-5.62638
40
0.019685
50
90
51
180
0
LINE
8
BLACK
6
CONTINUOUS
10
2.70876
20
-6.15787
11
3.22057
21
-6.15787
0
LINE
8
BLACK
6
CONTINUOUS
10
13.7713
20
-5.40787
11
14.2831
21
-5.40787
0
ARC
8
BLACK
10
2.28307
20
-5.62638
40
0.019685
50
-0
51
90
0
LINE
8
BLACK
6
CONTINUOUS
10
4.74026
20
-5.62638
11
4.74026
21
-6.13819
0
ARC
8
BLACK
10
3.22057
20
-5.62638
40
0.019685
50
-0
51
90
0
LINE
8
BLACK
6
CONTINUOUS
10
2.68907
20
-5.62638
11
2.68907
21
-6.13819
0
LINE
8
BLACK
6
CONTINUOUS
10
4.18907
20
-5.62638
11
4.18907
21
-6.13819
0
ARC
8
BLACK
10
14.2831
20
-5.38819
40
0.019685
50
-90
51
-0
0
LINE
8
BLACK
6
CONTINUOUS
10
4.20876
20
-6.15787
11
4.72057
21
-6.15787
0
ARC
8
BLACK
10
3.45876
20
-6.13819
40
0.019685
50
180
51
270
0
LINE
8
BLACK
6
CONTINUOUS
10
3.99026
20
-5.62638
11
3.99026
21
-6.13819
0
ARC
8
BLACK
10
2.28307
20
-6.13819
40
0.019685
50
-90
51
-0
0
LINE
8
BLACK
6
CONTINUOUS
10
1.77126
20
-6.15787
11
2.28307
21
-6.15787
0
LINE
8
BLACK
6
CONTINUOUS
10
13.7713
20
-4.85669
11
14.2831
21
-4.85669
0
ARC
8
BLACK
10
1.77126
20
-6.13819
40
0.019685
50
180
51
270
0
LINE
8
BLACK
6
CONTINUOUS
10
14.5213
20
-5.40787
11
15.0331
21
-5.40787
0
ARC
8
BLACK
10
1.77126
20
-5.62638
40
0.019685
50
90
51
180
0
LINE
8
BLACK
6
CONTINUOUS
10
13.5528
20
-4.87638
11
13.5528
21
-5.38819
0
LINE
8
BLACK
6
CONTINUOUS
10
13.0213
20
-4.85669
11
13.5331
21
-4.85669
0
LINE
8
BLACK
6
CONTINUOUS
10
4.20876
20
-5.60669
11
4.72057
21
-5.60669
0
ARC
8
BLACK
10
15.0331
20
-4.87638
40
0.019685
50
-0
51
90
0
ARC
8
BLACK
10
3.97057
20
-6.13819
40
0.019685
50
-90
51
-0
0
ARC
8
BLACK
10
13.5331
20
-5.38819
40
0.019685
50
-90
51
-0
0
ARC
8
BLACK
10
2.70876
20
-6.13819
40
0.019685
50
180
51
270
0
LINE
8
BLACK
6
CONTINUOUS
10
15.0528
20
-4.87638
11
15.0528
21
-5.38819
0
ARC
8
BLACK
10
3.97057
20
-5.62638
40
0.019685
50
-0
51
90
0
ARC
8
BLACK
10
14.5213
20
-5.38819
40
0.019685
50
180
51
270
0
LINE
8
BLACK
6
CONTINUOUS
10
14.5213
20
-4.85669
11
15.0331
21
-4.85669
0
LINE
8
BLACK
6
CONTINUOUS
10
3.45876
20
-6.15787
11
3.97057
21
-6.15787
0
LINE
8
BLACK
6
CONTINUOUS
10
3.24026
20
-5.62638
11
3.24026
21
-6.13819
0
ARC
8
BLACK
10
3.22057
20
-6.13819
40
0.019685
50
-90
51
-0
0
LINE
8
BLACK
6
CONTINUOUS
10
14.5016
20
-4.87638
11
14.5016
21
-5.38819
0
ARC
8
BLACK
10
11.3766
20
-4.91575
40
0.019685
50
90
51
180
0
LINE
8
BLACK
6
CONTINUOUS
10
3.45876
20
-5.60669
11
3.97057
21
-5.60669
0
LINE
8
BLACK
6
CONTINUOUS
10
2.30276
20
-5.62638
11
2.30276
21
-6.13819
0
ARC
8
BLACK
10
14.2831
20
-4.87638
40
0.019685
50
-0
51
90
0
ARC
8
BLACK
10
13.0213
20
-4.87638
40
0.019685
50
90
51
180
0
ARC
8
BLACK
10
11.3766
20
-5.46693
40
0.019685
50
180
51
270
0
ARC
8
BLACK
10
11.6128
20
-4.91575
40
0.019685
50
-0
51
90
0
ARC
8
BLACK
10
13.0213
20
-5.38819
40
0.019685
50
180
51
270
0
LINE
8
BLACK
6
CONTINUOUS
10
13.0016
20
-4.87638
11
13.0016
21
-5.38819
0
ARC
8
BLACK
10
13.7713
20
-4.87638
40
0.019685
50
90
51
180
0
ARC
8
BLACK
10
3.45876
20
-5.62638
40
0.019685
50
90
51
180
0
ARC
8
BLACK
10
2.70876
20
-5.62638
40
0.019685
50
90
51
180
0
LINE
8
BLACK
6
CONTINUOUS
10
2.70876
20
-5.60669
11
3.22057
21
-5.60669
0
LINE
8
BLACK
6
CONTINUOUS
10
13.0213
20
-5.40787
11
13.5331
21
-5.40787
0
LINE
8
BLACK
6
CONTINUOUS
10
14.3028
20
-4.87638
11
14.3028
21
-5.38819
0
LINE
8
BLACK
6
CONTINUOUS
10
3.43907
20
-5.62638
11
3.43907
21
-6.13819
0
LINE
8
BLACK
6
CONTINUOUS
10
1.75157
20
-5.62638
11
1.75157
21
-6.13819
0
LINE
8
BLACK
6
CONTINUOUS
10
1.77126
20
-5.60669
11
2.28307
21
-5.60669
0
ARC
8
BLACK
10
14.5213
20
-4.87638
40
0.019685
50
90
51
180
0
ARC
8
BLACK
10
13.5331
20
-4.87638
40
0.019685
50
-0
51
90
0
ARC
8
BLACK
10
15.0331
20
-5.38819
40
0.019685
50
-90
51
-0
0
ARC
8
BLACK
10
11.6128
20
-5.46693
40
0.019685
50
-90
51
-0
0
LINE
8
BLACK
6
CONTINUOUS
10
13.7516
20
-4.87638
11
13.7516
21
-5.38819
0
LINE
8
BLACK
6
CONTINUOUS
10
5.49026
20
-5.62638
11
5.49026
21
-6.13819
0
LINE
8
BLACK
6
CONTINUOUS
10
4.93907
20
-5.62638
11
4.93907
21
-6.13819
0
LINE
8
BLACK
6
CONTINUOUS
10
4.95876
20
-6.15787
11
5.47057
21
-6.15787
0
LINE
8
BLACK
6
CONTINUOUS
10
4.95876
20
-5.60669
11
5.47057
21
-5.60669
0
ARC
8
BLACK
10
8.33376
20
-4.87638
40
0.019685
50
90
51
180
0
ARC
8
BLACK
10
9.08376
20
-4.87638
40
0.019685
50
90
51
180
0
LINE
8
BLACK
6
CONTINUOUS
10
8.31407
20
-4.87638
11
8.31407
21
-5.38819
0
LINE
8
BLACK
6
CONTINUOUS
10
9.08376
20
-5.40787
11
9.59557
21
-5.40787
0
LINE
8
BLACK
6
CONTINUOUS
10
11.7088
20
-4.85669
11
12.2206
21
-4.85669
0
ARC
8
BLACK
10
8.09557
20
-5.38819
40
0.019685
50
-90
51
-0
0
ARC
8
BLACK
10
10.3456
20
-5.38819
40
0.019685
50
-90
51
-0
0
LINE
8
BLACK
6
CONTINUOUS
10
10.3653
20
-4.87638
11
10.3653
21
-5.38819
0
LINE
8
BLACK
6
CONTINUOUS
10
10.5838
20
-4.85669
11
11.0956
21
-4.85669
0
ARC
8
BLACK
10
10.3456
20
-4.87638
40
0.019685
50
-0
51
90
0
ARC
8
BLACK
10
8.33376
20
-5.38819
40
0.019685
50
180
51
270
0
ARC
8
BLACK
10
7.34557
20
-4.87638
40
0.019685
50
-0
51
90
0
LINE
8
BLACK
6
CONTINUOUS
10
8.86526
20
-4.87638
11
8.86526
21
-5.38819
0
LINE
8
BLACK
6
CONTINUOUS
10
11.3766
20
-4.89606
11
11.6128
21
-4.89606
0
ARC
8
BLACK
10
12.3166
20
-4.91575
40
0.019685
50
90
51
180
0
LINE
8
BLACK
6
CONTINUOUS
10
12.3166
20
-4.89606
11
12.5528
21
-4.89606
0
LINE
8
BLACK
6
CONTINUOUS
10
12.2403
20
-4.87638
11
12.2403
21
-5.38819
0
ARC
8
BLACK
10
9.59557
20
-5.38819
40
0.019685
50
-90
51
-0
0
ARC
8
BLACK
10
8.09557
20
-4.87638
40
0.019685
50
-0
51
90
0
ARC
8
BLACK
10
11.7088
20
-5.38819
40
0.019685
50
180
51
270
0
LINE
8
BLACK
6
CONTINUOUS
10
11.7088
20
-5.40787
11
12.2206
21
-5.40787
0
LINE
8
BLACK
6
CONTINUOUS
10
11.1153
20
-4.87638
11
11.1153
21
-5.38819
0
LINE
8
BLACK
6
CONTINUOUS
10
10.5838
20
-5.40787
11
11.0956
21
-5.40787
0
ARC
8
BLACK
10
9.83376
20
-5.38819
40
0.019685
50
180
51
270
0
ARC
8
BLACK
10
8.84557
20
-4.87638
40
0.019685
50
-0
51
90
0
LINE
8
BLACK
6
CONTINUOUS
10
8.33376
20
-4.85669
11
8.84557
21
-4.85669
0
LINE
8
BLACK
6
CONTINUOUS
10
9.81407
20
-4.87638
11
9.81407
21
-5.38819
0
LINE
8
BLACK
6
CONTINUOUS
10
9.83376
20
-4.85669
11
10.3456
21
-4.85669
0
ARC
8
BLACK
10
11.0956
20
-4.87638
40
0.019685
50
-0
51
90
0
ARC
8
BLACK
10
9.08376
20
-5.38819
40
0.019685
50
180
51
270
0
ARC
8
BLACK
10
10.5838
20
-4.87638
40
0.019685
50
90
51
180
0
LINE
8
BLACK
6
CONTINUOUS
10
11.6891
20
-4.87638
11
11.6891
21
-5.38819
0
ARC
8
BLACK
10
10.5838
20
-5.38819
40
0.019685
50
180
51
270
0
ARC
8
BLACK
10
8.84557
20
-5.38819
40
0.019685
50
-90
51
-0
0
ARC
8
BLACK
10
7.58376
20
-5.38819
40
0.019685
50
180
51
270
0
LINE
8
BLACK
6
CONTINUOUS
10
10.5641
20
-4.87638
11
10.5641
21
-5.38819
0
ARC
8
BLACK
10
9.59557
20
-4.87638
40
0.019685
50
-0
51
90
0
LINE
8
BLACK
6
CONTINUOUS
10
9.06407
20
-4.87638
11
9.06407
21
-5.38819
0
LINE
8
BLACK
6
CONTINUOUS
10
7.56407
20
-4.87638
11
7.56407
21
-5.38819
0
LINE
8
BLACK
6
CONTINUOUS
10
12.5725
20
-4.91575
11
12.5725
21
-5.46693
0
ARC
8
BLACK
10
12.2206
20
-5.38819
40
0.019685
50
-90
51
-0
0
LINE
8
BLACK
6
CONTINUOUS
10
9.61526
20
-4.87638
11
9.61526
21
-5.38819
0
LINE
8
BLACK
6
CONTINUOUS
10
9.83376
20
-5.40787
11
10.3456
21
-5.40787
0
LINE
8
BLACK
6
CONTINUOUS
10
8.33376
20
-5.40787
11
8.84557
21
-5.40787
0
ARC
8
BLACK
10
7.58376
20
-4.87638
40
0.019685
50
90
51
180
0
LINE
8
BLACK
6
CONTINUOUS
10
8.11526
20
-4.87638
11
8.11526
21
-5.38819
0
ARC
8
BLACK
10
6.83376
20
-5.38819
40
0.019685
50
180
51
270
0
ARC
8
BLACK
10
6.83376
20
-4.87638
40
0.019685
50
90
51
180
0
ARC
8
BLACK
10
12.3166
20
-5.46693
40
0.019685
50
180
51
270
0
ARC
8
BLACK
10
9.83376
20
-4.87638
40
0.019685
50
90
51
180
0
LINE
8
BLACK
6
CONTINUOUS
10
9.08376
20
-4.85669
11
9.59557
21
-4.85669
0
LINE
8
BLACK
6
CONTINUOUS
10
12.2969
20
-4.91575
11
12.2969
21
-5.46693
0
LINE
8
BLACK
6
CONTINUOUS
10
7.58376
20
-5.40787
11
8.09557
21
-5.40787
0
ARC
8
BLACK
10
7.34557
20
-5.38819
40
0.019685
50
-90
51
-0
0
LINE
8
BLACK
6
CONTINUOUS
10
11.6325
20
-4.91575
11
11.6325
21
-5.46693
0
LINE
8
BLACK
6
CONTINUOUS
10
11.3569
20
-4.91575
11
11.3569
21
-5.46693
0
LINE
8
BLACK
6
CONTINUOUS
10
7.58376
20
-4.85669
11
8.09557
21
-4.85669
0
ARC
8
BLACK
10
12.2206
20
-4.87638
40
0.019685
50
-0
51
90
0
LINE
8
BLACK
6
CONTINUOUS
10
11.3766
20
-5.48661
11
11.6128
21
-5.48661
0
ARC
8
BLACK
10
12.5528
20
-5.46693
40
0.019685
50
-90
51
-0
0
ARC
8
BLACK
10
12.5528
20
-4.91575
40
0.019685
50
-0
51
90
0
LINE
8
BLACK
6
CONTINUOUS
10
12.3166
20
-5.48661
11
12.5528
21
-5.48661
0
ARC
8
BLACK
10
11.7088
20
-4.87638
40
0.019685
50
90
51
180
0
ARC
8
BLACK
10
11.0956
20
-5.38819
40
0.019685
50
-90
51
-0
0
ARC
8
BLACK
10
3.59557
20
-5.38819
40
0.019685
50
-90
51
-0
0
ARC
8
BLACK
10
15.0331
20
-4.26319
40
0.019685
50
-90
51
-0
0
LINE
8
BLACK
6
CONTINUOUS
10
2.33376
20
-5.40787
11
2.84557
21
-5.40787
0
ARC
8
BLACK
10
2.09557
20
-4.87638
40
0.019685
50
-0
51
90
0
ARC
8
BLACK
10
1.58376
20
-4.87638
40
0.019685
50
90
51
180
0
LINE
8
BLACK
6
CONTINUOUS
10
6.81407
20
-4.87638
11
6.81407
21
-5.38819
0
LINE
8
BLACK
6
CONTINUOUS
10
5.31407
20
-4.87638
11
5.31407
21
-5.38819
0
LINE
8
BLACK
6
CONTINUOUS
10
5.33376
20
-4.85669
11
5.84557
21
-4.85669
0
ARC
8
BLACK
10
5.84557
20
-5.38819
40
0.019685
50
-90
51
-0
0
ARC
8
BLACK
10
2.84557
20
-4.87638
40
0.019685
50
-0
51
90
0
LINE
8
BLACK
6
CONTINUOUS
10
6.61526
20
-4.87638
11
6.61526
21
-5.38819
0
ARC
8
BLACK
10
15.0331
20
-3.75138
40
0.019685
50
-0
51
90
0
LINE
8
BLACK
6
CONTINUOUS
10
6.83376
20
-4.85669
11
7.34557
21
-4.85669
0
LINE
8
BLACK
6
CONTINUOUS
10
6.08376
20
-5.40787
11
6.59557
21
-5.40787
0
ARC
8
BLACK
10
2.33376
20
-4.87638
40
0.019685
50
90
51
180
0
LINE
8
BLACK
6
CONTINUOUS
10
5.11526
20
-4.87638
11
5.11526
21
-5.38819
0
ARC
8
BLACK
10
6.08376
20
-4.87638
40
0.019685
50
90
51
180
0
LINE
8
BLACK
6
CONTINUOUS
10
6.08376
20
-4.85669
11
6.59557
21
-4.85669
0
LINE
8
BLACK
6
CONTINUOUS
10
4.58376
20
-4.85669
11
5.09557
21
-4.85669
0
LINE
8
BLACK
6
CONTINUOUS
10
3.08376
20
-5.40787
11
3.59557
21
-5.40787
0
LINE
8
BLACK
6
CONTINUOUS
10
3.83376
20
-5.40787
11
4.34557
21
-5.40787
0
ARC
8
BLACK
10
5.84557
20
-4.87638
40
0.019685
50
-0
51
90
0
LINE
8
BLACK
6
CONTINUOUS
10
5.86526
20
-4.87638
11
5.86526
21
-5.38819
0
LINE
8
BLACK
6
CONTINUOUS
10
3.61526
20
-4.87638
11
3.61526
21
-5.38819
0
ARC
8
BLACK
10
3.08376
20
-4.87638
40
0.019685
50
90
51
180
0
LINE
8
BLACK
6
CONTINUOUS
10
4.56407
20
-4.87638
11
4.56407
21
-5.38819
0
LINE
8
BLACK
6
CONTINUOUS
10
4.58376
20
-5.40787
11
5.09557
21
-5.40787
0
ARC
8
BLACK
10
4.34557
20
-4.87638
40
0.019685
50
-0
51
90
0
ARC
8
BLACK
10
4.34557
20
-5.38819
40
0.019685
50
-90
51
-0
0
ARC
8
BLACK
10
3.83376
20
-4.87638
40
0.019685
50
90
51
180
0
ARC
8
BLACK
10
2.33376
20
-5.38819
40
0.019685
50
180
51
270
0
LINE
8
BLACK
6
CONTINUOUS
10
2.31407
20
-4.87638
11
2.31407
21
-5.38819
0
ARC
8
BLACK
10
14.5213
20
-4.26319
40
0.019685
50
180
51
270
0
LINE
8
BLACK
6
CONTINUOUS
10
3.83376
20
-4.85669
11
4.34557
21
-4.85669
0
LINE
8
BLACK
6
CONTINUOUS
10
1.58376
20
-5.40787
11
2.09557
21
-5.40787
0
ARC
8
BLACK
10
2.84557
20
-5.38819
40
0.019685
50
-90
51
-0
0
ARC
8
BLACK
10
6.08376
20
-5.38819
40
0.019685
50
180
51
270
0
LINE
8
BLACK
6
CONTINUOUS
10
6.06407
20
-4.87638
11
6.06407
21
-5.38819
0
ARC
8
BLACK
10
5.33376
20
-4.87638
40
0.019685
50
90
51
180
0
LINE
8
BLACK
6
CONTINUOUS
10
4.36526
20
-4.87638
11
4.36526
21
-5.38819
0
ARC
8
BLACK
10
14.5213
20
-3.75138
40
0.019685
50
90
51
180
0
LINE
8
BLACK
6
CONTINUOUS
10
1.58376
20
-4.85669
11
2.09557
21
-4.85669
0
ARC
8
BLACK
10
2.09557
20
-5.38819
40
0.019685
50
-90
51
-0
0
LINE
8
BLACK
6
CONTINUOUS
10
3.81407
20
-4.87638
11
3.81407
21
-5.38819
0
ARC
8
BLACK
10
3.59557
20
-4.87638
40
0.019685
50
-0
51
90
0
ARC
8
BLACK
10
5.09557
20
-5.38819
40
0.019685
50
-90
51
-0
0
ARC
8
BLACK
10
3.08376
20
-5.38819
40
0.019685
50
180
51
270
0
LINE
8
BLACK
6
CONTINUOUS
10
2.33376
20
-4.85669
11
2.84557
21
-4.85669
0
ARC
8
BLACK
10
1.58376
20
-5.38819
40
0.019685
50
180
51
270
0
LINE
8
BLACK
6
CONTINUOUS
10
3.08376
20
-4.85669
11
3.59557
21
-4.85669
0
ARC
8
BLACK
10
4.58376
20
-4.87638
40
0.019685
50
90
51
180
0
LINE
8
BLACK
6
CONTINUOUS
10
7.36526
20
-4.87638
11
7.36526
21
-5.38819
0
LINE
8
BLACK
6
CONTINUOUS
10
3.06407
20
-4.87638
11
3.06407
21
-5.38819
0
ARC
8
BLACK
10
6.59557
20
-4.87638
40
0.019685
50
-0
51
90
0
ARC
8
BLACK
10
3.83376
20
-5.38819
40
0.019685
50
180
51
270
0
LINE
8
BLACK
6
CONTINUOUS
10
6.83376
20
-5.40787
11
7.34557
21
-5.40787
0
ARC
8
BLACK
10
6.59557
20
-5.38819
40
0.019685
50
-90
51
-0
0
ARC
8
BLACK
10
5.09557
20
-4.87638
40
0.019685
50
-0
51
90
0
ARC
8
BLACK
10
5.33376
20
-5.38819
40
0.019685
50
180
51
270
0
ARC
8
BLACK
10
4.58376
20
-5.38819
40
0.019685
50
180
51
270
0
LINE
8
BLACK
6
CONTINUOUS
10
2.86526
20
-4.87638
11
2.86526
21
-5.38819
0
LINE
8
BLACK
6
CONTINUOUS
10
1.56407
20
-4.87638
11
1.56407
21
-5.38819
0
LINE
8
BLACK
6
CONTINUOUS
10
2.11526
20
-4.87638
11
2.11526
21
-5.38819
0
LINE
8
BLACK
6
CONTINUOUS
10
5.33376
20
-5.40787
11
5.84557
21
-5.40787
0
LINE
8
BLACK
6
CONTINUOUS
10
13.7713
20
-3.73169
11
14.2831
21
-3.73169
0
ARC
8
BLACK
10
13.0213
20
-3.75138
40
0.019685
50
90
51
180
0
LINE
8
BLACK
6
CONTINUOUS
10
13.7713
20
-4.28287
11
14.2831
21
-4.28287
0
ARC
8
BLACK
10
12.5956
20
-4.26319
40
0.019685
50
-90
51
-0
0
LINE
8
BLACK
6
CONTINUOUS
10
15.0528
20
-3.75138
11
15.0528
21
-4.26319
0
LINE
8
BLACK
6
CONTINUOUS
10
14.5213
20
-3.73169
11
15.0331
21
-3.73169
0
ARC
8
BLACK
10
13.7713
20
-4.26319
40
0.019685
50
180
51
270
0
LINE
8
BLACK
6
CONTINUOUS
10
14.3028
20
-3.75138
11
14.3028
21
-4.26319
0
ARC
8
BLACK
10
13.5331
20
-4.26319
40
0.019685
50
-90
51
-0
0
LINE
8
BLACK
6
CONTINUOUS
10
10.5838
20
-4.28287
11
11.0956
21
-4.28287
0
LINE
8
BLACK
6
CONTINUOUS
10
9.81407
20
-3.75138
11
9.81407
21
-4.26319
0
LINE
8
BLACK
6
CONTINUOUS
10
13.0213
20
-4.28287
11
13.5331
21
-4.28287
0
LINE
8
BLACK
6
CONTINUOUS
10
10.5641
20
-3.75138
11
10.5641
21
-4.26319
0
LINE
8
BLACK
6
CONTINUOUS
10
12.6153
20
-3.75138
11
12.6153
21
-4.26319
0
ARC
8
BLACK
10
9.83376
20
-4.26319
40
0.019685
50
180
51
270
0
LINE
8
BLACK
6
CONTINUOUS
10
11.8653
20
-3.75138
11
11.8653
21
-4.26319
0
ARC
8
BLACK
10
13.5331
20
-3.75138
40
0.019685
50
-0
51
90
0
ARC
8
BLACK
10
9.83376
20
-3.75138
40
0.019685
50
90
51
180
0
LINE
8
BLACK
6
CONTINUOUS
10
13.0016
20
-3.75138
11
13.0016
21
-4.26319
0
ARC
8
BLACK
10
12.0838
20
-4.26319
40
0.019685
50
180
51
270
0
ARC
8
BLACK
10
13.0213
20
-4.26319
40
0.019685
50
180
51
270
0
ARC
8
BLACK
10
8.47057
20
-4.26319
40
0.019685
50
-90
51
-0
0
ARC
8
BLACK
10
13.7713
20
-3.75138
40
0.019685
50
90
51
180
0
LINE
8
BLACK
6
CONTINUOUS
10
12.0838
20
-3.73169
11
12.5956
21
-3.73169
0
LINE
8
BLACK
6
CONTINUOUS
10
13.7516
20
-3.75138
11
13.7516
21
-4.26319
0
ARC
8
BLACK
10
12.0838
20
-3.75138
40
0.019685
50
90
51
180
0
ARC
8
BLACK
10
11.0956
20
-3.75138
40
0.019685
50
-0
51
90
0
ARC
8
BLACK
10
11.3338
20
-3.75138
40
0.019685
50
90
51
180
0
ARC
8
BLACK
10
10.3456
20
-4.26319
40
0.019685
50
-90
51
-0
0
LINE
8
BLACK
6
CONTINUOUS
10
8.70876
20
-4.28287
11
9.22057
21
-4.28287
0
LINE
8
BLACK
6
CONTINUOUS
10
14.5016
20
-3.75138
11
14.5016
21
-4.26319
0
LINE
8
BLACK
6
CONTINUOUS
10
12.0641
20
-3.75138
11
12.0641
21
-4.26319
0
LINE
8
BLACK
6
CONTINUOUS
10
14.5213
20
-4.28287
11
15.0331
21
-4.28287
0
LINE
8
BLACK
6
CONTINUOUS
10
13.0213
20
-3.73169
11
13.5331
21
-3.73169
0
LINE
8
BLACK
6
CONTINUOUS
10
9.24026
20
-3.75138
11
9.24026
21
-4.26319
0
LINE
8
BLACK
6
CONTINUOUS
10
13.5528
20
-3.75138
11
13.5528
21
-4.26319
0
ARC
8
BLACK
10
11.8456
20
-4.26319
40
0.019685
50
-90
51
-0
0
ARC
8
BLACK
10
10.5838
20
-3.75138
40
0.019685
50
90
51
180
0
LINE
8
BLACK
6
CONTINUOUS
10
11.3338
20
-4.28287
11
11.8456
21
-4.28287
0
ARC
8
BLACK
10
11.0956
20
-4.26319
40
0.019685
50
-90
51
-0
0
ARC
8
BLACK
10
8.70876
20
-4.26319
40
0.019685
50
180
51
270
0
ARC
8
BLACK
10
7.95876
20
-4.26319
40
0.019685
50
180
51
270
0
LINE
8
BLACK
6
CONTINUOUS
10
8.70876
20
-3.73169
11
9.22057
21
-3.73169
0
ARC
8
BLACK
10
9.22057
20
-3.75138
40
0.019685
50
-0
51
90
0
ARC
8
BLACK
10
12.5956
20
-3.75138
40
0.019685
50
-0
51
90
0
ARC
8
BLACK
10
11.8456
20
-3.75138
40
0.019685
50
-0
51
90
0
LINE
8
BLACK
6
CONTINUOUS
10
9.83376
20
-3.73169
11
10.3456
21
-3.73169
0
LINE
8
BLACK
6
CONTINUOUS
10
11.3141
20
-3.75138
11
11.3141
21
-4.26319
0
LINE
8
BLACK
6
CONTINUOUS
10
10.3653
20
-3.75138
11
10.3653
21
-4.26319
0
LINE
8
BLACK
6
CONTINUOUS
10
12.0838
20
-4.28287
11
12.5956
21
-4.28287
0
ARC
8
BLACK
10
11.3338
20
-4.26319
40
0.019685
50
180
51
270
0
ARC
8
BLACK
10
10.5838
20
-4.26319
40
0.019685
50
180
51
270
0
LINE
8
BLACK
6
CONTINUOUS
10
11.1153
20
-3.75138
11
11.1153
21
-4.26319
0
ARC
8
BLACK
10
9.22057
20
-4.26319
40
0.019685
50
-90
51
-0
0
ARC
8
BLACK
10
10.3456
20
-3.75138
40
0.019685
50
-0
51
90
0
LINE
8
BLACK
6
CONTINUOUS
10
8.68907
20
-3.75138
11
8.68907
21
-4.26319
0
ARC
8
BLACK
10
8.70876
20
-3.75138
40
0.019685
50
90
51
180
0
ARC
8
BLACK
10
7.95876
20
-3.75138
40
0.019685
50
90
51
180
0
LINE
8
BLACK
6
CONTINUOUS
10
9.83376
20
-4.28287
11
10.3456
21
-4.28287
0
ARC
8
BLACK
10
8.47057
20
-3.75138
40
0.019685
50
-0
51
90
0
ARC
8
BLACK
10
14.2831
20
-4.26319
40
0.019685
50
-90
51
-0
0
LINE
8
BLACK
6
CONTINUOUS
10
11.3338
20
-3.73169
11
11.8456
21
-3.73169
0
LINE
8
BLACK
6
CONTINUOUS
10
10.5838
20
-3.73169
11
11.0956
21
-3.73169
0
ARC
8
BLACK
10
14.2831
20
-3.75138
40
0.019685
50
-0
51
90
0
ARC
8
BLACK
10
5.84557
20
-3.75138
40
0.019685
50
-0
51
90
0
LINE
8
BLACK
6
CONTINUOUS
10
3.61526
20
-3.75138
11
3.61526
21
-4.26319
0
ARC
8
BLACK
10
1.58376
20
-4.26319
40
0.019685
50
180
51
270
0
LINE
8
BLACK
6
CONTINUOUS
10
7.74026
20
-3.75138
11
7.74026
21
-4.26319
0
LINE
8
BLACK
6
CONTINUOUS
10
7.20876
20
-3.73169
11
7.72057
21
-3.73169
0
ARC
8
BLACK
10
2.09557
20
-4.26319
40
0.019685
50
-90
51
-0
0
ARC
8
BLACK
10
2.09557
20
-3.75138
40
0.019685
50
-0
51
90
0
ARC
8
BLACK
10
3.08376
20
-3.75138
40
0.019685
50
90
51
180
0
LINE
8
BLACK
6
CONTINUOUS
10
3.83376
20
-3.73169
11
4.34557
21
-3.73169
0
LINE
8
BLACK
6
CONTINUOUS
10
4.56407
20
-3.75138
11
4.56407
21
-4.26319
0
ARC
8
BLACK
10
5.84557
20
-4.26319
40
0.019685
50
-90
51
-0
0
LINE
8
BLACK
6
CONTINUOUS
10
8.49026
20
-3.75138
11
8.49026
21
-4.26319
0
ARC
8
BLACK
10
3.08376
20
-4.26319
40
0.019685
50
180
51
270
0
LINE
8
BLACK
6
CONTINUOUS
10
1.58376
20
-3.73169
11
2.09557
21
-3.73169
0
LINE
8
BLACK
6
CONTINUOUS
10
7.93907
20
-3.75138
11
7.93907
21
-4.26319
0
LINE
8
BLACK
6
CONTINUOUS
10
6.99026
20
-3.75138
11
6.99026
21
-4.26319
0
LINE
8
BLACK
6
CONTINUOUS
10
5.31407
20
-3.75138
11
5.31407
21
-4.26319
0
ARC
8
BLACK
10
4.34557
20
-4.26319
40
0.019685
50
-90
51
-0
0
LINE
8
BLACK
6
CONTINUOUS
10
7.95876
20
-4.28287
11
8.47057
21
-4.28287
0
LINE
8
BLACK
6
CONTINUOUS
10
7.95876
20
-3.73169
11
8.47057
21
-3.73169
0
ARC
8
BLACK
10
7.72057
20
-4.26319
40
0.019685
50
-90
51
-0
0
LINE
8
BLACK
6
CONTINUOUS
10
6.45876
20
-3.73169
11
6.97057
21
-3.73169
0
LINE
8
BLACK
6
CONTINUOUS
10
3.83376
20
-4.28287
11
4.34557
21
-4.28287
0
ARC
8
BLACK
10
3.59557
20
-3.75138
40
0.019685
50
-0
51
90
0
LINE
8
BLACK
6
CONTINUOUS
10
3.08376
20
-3.73169
11
3.59557
21
-3.73169
0
LINE
8
BLACK
6
CONTINUOUS
10
3.06407
20
-3.75138
11
3.06407
21
-4.26319
0
ARC
8
BLACK
10
6.45876
20
-3.75138
40
0.019685
50
90
51
180
0
LINE
8
BLACK
6
CONTINUOUS
10
6.45876
20
-4.28287
11
6.97057
21
-4.28287
0
ARC
8
BLACK
10
5.33376
20
-4.26319
40
0.019685
50
180
51
270
0
ARC
8
BLACK
10
4.34557
20
-3.75138
40
0.019685
50
-0
51
90
0
ARC
8
BLACK
10
7.72057
20
-3.75138
40
0.019685
50
-0
51
90
0
ARC
8
BLACK
10
5.33376
20
-3.75138
40
0.019685
50
90
51
180
0
LINE
8
BLACK
6
CONTINUOUS
10
7.18907
20
-3.75138
11
7.18907
21
-4.26319
0
LINE
8
BLACK
6
CONTINUOUS
10
5.86526
20
-3.75138
11
5.86526
21
-4.26319
0
LINE
8
BLACK
6
CONTINUOUS
10
7.20876
20
-4.28287
11
7.72057
21
-4.28287
0
ARC
8
BLACK
10
5.09557
20
-4.26319
40
0.019685
50
-90
51
-0
0
ARC
8
BLACK
10
6.45876
20
-4.26319
40
0.019685
50
180
51
270
0
LINE
8
BLACK
6
CONTINUOUS
10
4.36526
20
-3.75138
11
4.36526
21
-4.26319
0
ARC
8
BLACK
10
3.59557
20
-4.26319
40
0.019685
50
-90
51
-0
0
ARC
8
BLACK
10
6.97057
20
-3.75138
40
0.019685
50
-0
51
90
0
LINE
8
BLACK
6
CONTINUOUS
10
5.33376
20
-4.28287
11
5.84557
21
-4.28287
0
LINE
8
BLACK
6
CONTINUOUS
10
3.08376
20
-4.28287
11
3.59557
21
-4.28287
0
LINE
8
BLACK
6
CONTINUOUS
10
5.33376
20
-3.73169
11
5.84557
21
-3.73169
0
LINE
8
BLACK
6
CONTINUOUS
10
5.11526
20
-3.75138
11
5.11526
21
-4.26319
0
LINE
8
BLACK
6
CONTINUOUS
10
4.58376
20
-4.28287
11
5.09557
21
-4.28287
0
ARC
8
BLACK
10
1.58376
20
-3.75138
40
0.019685
50
90
51
180
0
LINE
8
BLACK
6
CONTINUOUS
10
1.58376
20
-4.28287
11
2.09557
21
-4.28287
0
ARC
8
BLACK
10
4.58376
20
-4.26319
40
0.019685
50
180
51
270
0
ARC
8
BLACK
10
4.58376
20
-3.75138
40
0.019685
50
90
51
180
0
LINE
8
BLACK
6
CONTINUOUS
10
4.58376
20
-3.73169
11
5.09557
21
-3.73169
0
LINE
8
BLACK
6
CONTINUOUS
10
3.81407
20
-3.75138
11
3.81407
21
-4.26319
0
ARC
8
BLACK
10
5.09557
20
-3.75138
40
0.019685
50
-0
51
90
0
ARC
8
BLACK
10
3.83376
20
-3.75138
40
0.019685
50
90
51
180
0
LINE
8
BLACK
6
CONTINUOUS
10
1.56407
20
-3.75138
11
1.56407
21
-4.26319
0
ARC
8
BLACK
10
7.20876
20
-4.26319
40
0.019685
50
180
51
270
0
ARC
8
BLACK
10
7.20876
20
-3.75138
40
0.019685
50
90
51
180
0
ARC
8
BLACK
10
6.97057
20
-4.26319
40
0.019685
50
-90
51
-0
0
LINE
8
BLACK
6
CONTINUOUS
10
2.11526
20
-3.75138
11
2.11526
21
-4.26319
0
ARC
8
BLACK
10
3.83376
20
-4.26319
40
0.019685
50
180
51
270
0
LINE
8
BLACK
6
CONTINUOUS
10
6.43907
20
-3.75138
11
6.43907
21
-4.26319
0
ARC
8
BLACK
10
5.65807
20
-6.37638
40
0.019685
50
-0
51
90
0
ARC
8
BLACK
10
2.37682
20
-6.37638
40
0.019685
50
-0
51
90
0
LINE
8
BLACK
6
CONTINUOUS
10
5.14626
20
-6.35669
11
5.65807
21
-6.35669
0
LINE
8
BLACK
6
CONTINUOUS
10
5.14626
20
-6.90787
11
5.65807
21
-6.90787
0
ARC
8
BLACK
10
4.90807
20
-6.88819
40
0.019685
50
-90
51
-0
0
LINE
8
BLACK
6
CONTINUOUS
10
4.39626
20
-6.35669
11
4.90807
21
-6.35669
0
LINE
8
BLACK
6
CONTINUOUS
10
1.86501
20
-6.35669
11
2.37682
21
-6.35669
0
ARC
8
BLACK
10
3.64626
20
-6.37638
40
0.019685
50
90
51
180
0
ARC
8
BLACK
10
5.14626
20
-6.88819
40
0.019685
50
180
51
270
0
LINE
8
BLACK
6
CONTINUOUS
10
5.87657
20
-6.37638
11
5.87657
21
-6.88819
0
LINE
8
BLACK
6
CONTINUOUS
10
4.39626
20
-6.90787
11
4.90807
21
-6.90787
0
ARC
8
BLACK
10
6.64626
20
-6.37638
40
0.019685
50
90
51
180
0
ARC
8
BLACK
10
1.86501
20
-6.88819
40
0.019685
50
180
51
270
0
ARC
8
BLACK
10
7.39626
20
-6.37638
40
0.019685
50
90
51
180
0
LINE
8
BLACK
6
CONTINUOUS
10
5.89626
20
-6.35669
11
6.40807
21
-6.35669
0
LINE
8
BLACK
6
CONTINUOUS
10
4.37657
20
-6.37638
11
4.37657
21
-6.88819
0
LINE
8
BLACK
6
CONTINUOUS
10
6.64626
20
-6.90787
11
7.15807
21
-6.90787
0
LINE
8
BLACK
6
CONTINUOUS
10
3.64626
20
-6.35669
11
4.15807
21
-6.35669
0
ARC
8
BLACK
10
15.0331
20
-6.13819
40
0.019685
50
-90
51
-0
0
ARC
8
BLACK
10
3.64626
20
-6.88819
40
0.019685
50
180
51
270
0
LINE
8
BLACK
6
CONTINUOUS
10
2.89626
20
-6.35669
11
3.40807
21
-6.35669
0
LINE
8
BLACK
6
CONTINUOUS
10
4.17776
20
-6.37638
11
4.17776
21
-6.88819
0
ARC
8
BLACK
10
4.15807
20
-6.37638
40
0.019685
50
-0
51
90
0
LINE
8
BLACK
6
CONTINUOUS
10
7.92776
20
-6.37638
11
7.92776
21
-6.88819
0
LINE
8
BLACK
6
CONTINUOUS
10
6.42776
20
-6.37638
11
6.42776
21
-6.88819
0
ARC
8
BLACK
10
2.89626
20
-6.37638
40
0.019685
50
90
51
180
0
ARC
8
BLACK
10
5.65807
20
-6.88819
40
0.019685
50
-90
51
-0
0
LINE
8
BLACK
6
CONTINUOUS
10
5.12657
20
-6.37638
11
5.12657
21
-6.88819
0
ARC
8
BLACK
10
5.14626
20
-6.37638
40
0.019685
50
90
51
180
0
LINE
8
BLACK
6
CONTINUOUS
10
2.87657
20
-6.37638
11
2.87657
21
-6.88819
0
ARC
8
BLACK
10
6.40807
20
-6.88819
40
0.019685
50
-90
51
-0
0
ARC
8
BLACK
10
3.40807
20
-6.37638
40
0.019685
50
-0
51
90
0
ARC
8
BLACK
10
2.37682
20
-6.88819
40
0.019685
50
-90
51
-0
0
LINE
8
BLACK
6
CONTINUOUS
10
7.37657
20
-6.37638
11
7.37657
21
-6.88819
0
LINE
8
BLACK
6
CONTINUOUS
10
7.39626
20
-6.90787
11
7.90807
21
-6.90787
0
LINE
8
BLACK
6
CONTINUOUS
10
7.39626
20
-6.35669
11
7.90807
21
-6.35669
0
ARC
8
BLACK
10
7.15807
20
-6.88819
40
0.019685
50
-90
51
-0
0
LINE
8
BLACK
6
CONTINUOUS
10
2.89626
20
-6.90787
11
3.40807
21
-6.90787
0
ARC
8
BLACK
10
6.40807
20
-6.37638
40
0.019685
50
-0
51
90
0
LINE
8
BLACK
6
CONTINUOUS
10
3.62657
20
-6.37638
11
3.62657
21
-6.88819
0
ARC
8
BLACK
10
1.86501
20
-6.37638
40
0.019685
50
90
51
180
0
LINE
8
BLACK
6
CONTINUOUS
10
5.89626
20
-6.90787
11
6.40807
21
-6.90787
0
ARC
8
BLACK
10
6.64626
20
-6.88819
40
0.019685
50
180
51
270
0
ARC
8
BLACK
10
7.15807
20
-6.37638
40
0.019685
50
-0
51
90
0
LINE
8
BLACK
6
CONTINUOUS
10
5.67776
20
-6.37638
11
5.67776
21
-6.88819
0
LINE
8
BLACK
6
CONTINUOUS
10
7.17776
20
-6.37638
11
7.17776
21
-6.88819
0
LINE
8
BLACK
6
CONTINUOUS
10
2.39651
20
-6.37638
11
2.39651
21
-6.88819
0
LINE
8
BLACK
6
CONTINUOUS
10
6.62657
20
-6.37638
11
6.62657
21
-6.88819
0
ARC
8
BLACK
10
4.39626
20
-6.88819
40
0.019685
50
180
51
270
0
LINE
8
BLACK
6
CONTINUOUS
10
4.92776
20
-6.37638
11
4.92776
21
-6.88819
0
ARC
8
BLACK
10
4.15807
20
-6.88819
40
0.019685
50
-90
51
-0
0
LINE
8
BLACK
6
CONTINUOUS
10
1.84532
20
-6.37638
11
1.84532
21
-6.88819
0
ARC
8
BLACK
10
5.89626
20
-6.88819
40
0.019685
50
180
51
270
0
ARC
8
BLACK
10
5.89626
20
-6.37638
40
0.019685
50
90
51
180
0
LINE
8
BLACK
6
CONTINUOUS
10
3.64626
20
-6.90787
11
4.15807
21
-6.90787
0
ARC
8
BLACK
10
3.40807
20
-6.88819
40
0.019685
50
-90
51
-0
0
LINE
8
BLACK
6
CONTINUOUS
10
3.42776
20
-6.37638
11
3.42776
21
-6.88819
0
ARC
8
BLACK
10
4.39626
20
-6.37638
40
0.019685
50
90
51
180
0
ARC
8
BLACK
10
2.89626
20
-6.88819
40
0.019685
50
180
51
270
0
LINE
8
BLACK
6
CONTINUOUS
10
1.86501
20
-6.90787
11
2.37682
21
-6.90787
0
ARC
8
BLACK
10
7.39626
20
-6.88819
40
0.019685
50
180
51
270
0
ARC
8
BLACK
10
4.90807
20
-6.37638
40
0.019685
50
-0
51
90
0
LINE
8
BLACK
6
CONTINUOUS
10
6.64626
20
-6.35669
11
7.15807
21
-6.35669
0
ARC
8
BLACK
10
7.90807
20
-6.37638
40
0.019685
50
-0
51
90
0
LINE
8
BLACK
6
CONTINUOUS
10
14.3028
20
-7.87638
11
14.3028
21
-8.38819
0
ARC
8
BLACK
10
14.5213
20
-7.87638
40
0.019685
50
90
51
180
0
ARC
8
BLACK
10
14.2831
20
-7.87638
40
0.019685
50
-0
51
90
0
ARC
8
BLACK
10
13.5331
20
-8.38819
40
0.019685
50
-90
51
-0
0
LINE
8
BLACK
6
CONTINUOUS
10
13.7713
20
-7.85669
11
14.2831
21
-7.85669
0
ARC
8
BLACK
10
14.5213
20
-8.38819
40
0.019685
50
180
51
270
0
LINE
8
BLACK
6
CONTINUOUS
10
14.5213
20
-8.40787
11
15.0331
21
-8.40787
0
LINE
8
BLACK
6
CONTINUOUS
10
14.5213
20
-7.85669
11
15.0331
21
-7.85669
0
ARC
8
BLACK
10
15.0331
20
-7.87638
40
0.019685
50
-0
51
90
0
LINE
8
BLACK
6
CONTINUOUS
10
15.0528
20
-7.87638
11
15.0528
21
-8.38819
0
ARC
8
BLACK
10
13.7713
20
-7.87638
40
0.019685
50
90
51
180
0
ARC
8
BLACK
10
15.0331
20
-8.38819
40
0.019685
50
-90
51
-0
0
ARC
8
BLACK
10
14.2831
20
-8.38819
40
0.019685
50
-90
51
-0
0
ARC
8
BLACK
10
13.7713
20
-8.38819
40
0.019685
50
180
51
270
0
LINE
8
BLACK
6
CONTINUOUS
10
13.7713
20
-8.40787
11
14.2831
21
-8.40787
0
LINE
8
BLACK
6
CONTINUOUS
10
13.7516
20
-7.87638
11
13.7516
21
-8.38819
0
LINE
8
BLACK
6
CONTINUOUS
10
14.5016
20
-7.87638
11
14.5016
21
-8.38819
0
ARC
8
BLACK
10
9.17751
20
-7.87638
40
0.019685
50
90
51
180
0
LINE
8
BLACK
6
CONTINUOUS
10
9.17751
20
-7.85669
11
9.68932
21
-7.85669
0
ARC
8
BLACK
10
9.68932
20
-7.87638
40
0.019685
50
-0
51
90
0
LINE
8
BLACK
6
CONTINUOUS
10
4.79218
20
-7.81496
11
4.79218
21
-8.36614
0
LINE
8
BLACK
6
CONTINUOUS
10
11.99
20
-7.85669
11
12.5018
21
-7.85669
0
ARC
8
BLACK
10
13.5331
20
-7.87638
40
0.019685
50
-0
51
90
0
LINE
8
BLACK
6
CONTINUOUS
10
13.5528
20
-7.87638
11
13.5528
21
-8.38819
0
LINE
8
BLACK
6
CONTINUOUS
10
13.0016
20
-7.87638
11
13.0016
21
-8.38819
0
LINE
8
BLACK
6
CONTINUOUS
10
13.0213
20
-8.40787
11
13.5331
21
-8.40787
0
LINE
8
BLACK
6
CONTINUOUS
10
13.0213
20
-7.85669
11
13.5331
21
-7.85669
0
LINE
8
BLACK
6
CONTINUOUS
10
11.0525
20
-8.40787
11
11.5643
21
-8.40787
0
ARC
8
BLACK
10
10.115
20
-7.87638
40
0.019685
50
90
51
180
0
LINE
8
BLACK
6
CONTINUOUS
10
10.0953
20
-7.87638
11
10.0953
21
-8.38819
0
ARC
8
BLACK
10
4.77249
20
-7.81496
40
0.019685
50
-0
51
90
0
ARC
8
BLACK
10
8.70674
20
-8.36614
40
0.019685
50
-90
51
-0
0
ARC
8
BLACK
10
6.87682
20
-8.38819
40
0.019685
50
-90
51
-0
0
LINE
8
BLACK
6
CONTINUOUS
10
9.17751
20
-8.40787
11
9.68932
21
-8.40787
0
ARC
8
BLACK
10
9.68932
20
-8.38819
40
0.019685
50
-90
51
-0
0
ARC
8
BLACK
10
4.53627
20
-8.36614
40
0.019685
50
180
51
270
0
LINE
8
BLACK
6
CONTINUOUS
10
4.51658
20
-7.81496
11
4.51658
21
-8.36614
0
LINE
8
BLACK
6
CONTINUOUS
10
9.15782
20
-7.87638
11
9.15782
21
-8.38819
0
LINE
8
BLACK
6
CONTINUOUS
10
9.70901
20
-7.87638
11
9.70901
21
-8.38819
0
LINE
8
BLACK
6
CONTINUOUS
10
10.115
20
-7.85669
11
10.6268
21
-7.85669
0
ARC
8
BLACK
10
8.47052
20
-7.81496
40
0.019685
50
90
51
180
0
ARC
8
BLACK
10
9.17751
20
-8.38819
40
0.019685
50
180
51
270
0
LINE
8
BLACK
6
CONTINUOUS
10
4.53627
20
-7.79528
11
4.77249
21
-7.79528
0
LINE
8
BLACK
6
CONTINUOUS
10
6.36501
20
-8.40787
11
6.87682
21
-8.40787
0
LINE
8
BLACK
6
CONTINUOUS
10
8.47052
20
-7.79528
11
8.70674
21
-7.79528
0
ARC
8
BLACK
10
11.99
20
-8.38819
40
0.019685
50
180
51
270
0
LINE
8
BLACK
6
CONTINUOUS
10
12.5215
20
-7.87638
11
12.5215
21
-8.38819
0
LINE
8
BLACK
6
CONTINUOUS
10
11.0328
20
-7.87638
11
11.0328
21
-8.38819
0
ARC
8
BLACK
10
8.47052
20
-8.36614
40
0.019685
50
180
51
270
0
ARC
8
BLACK
10
10.6268
20
-7.87638
40
0.019685
50
-0
51
90
0
ARC
8
BLACK
10
4.53627
20
-7.81496
40
0.019685
50
90
51
180
0
ARC
8
BLACK
10
11.5643
20
-7.87638
40
0.019685
50
-0
51
90
0
LINE
8
BLACK
6
CONTINUOUS
10
11.0525
20
-7.85669
11
11.5643
21
-7.85669
0
ARC
8
BLACK
10
10.6268
20
-8.38819
40
0.019685
50
-90
51
-0
0
LINE
8
BLACK
6
CONTINUOUS
10
6.36501
20
-7.85669
11
6.87682
21
-7.85669
0
ARC
8
BLACK
10
4.77249
20
-8.36614
40
0.019685
50
-90
51
-0
0
ARC
8
BLACK
10
6.87682
20
-7.87638
40
0.019685
50
-0
51
90
0
LINE
8
BLACK
6
CONTINUOUS
10
8.72643
20
-7.81496
11
8.72643
21
-8.36614
0
ARC
8
BLACK
10
11.0525
20
-7.87638
40
0.019685
50
90
51
180
0
LINE
8
BLACK
6
CONTINUOUS
10
6.89651
20
-7.87638
11
6.89651
21
-8.38819
0
ARC
8
BLACK
10
13.0213
20
-8.38819
40
0.019685
50
180
51
270
0
ARC
8
BLACK
10
13.0213
20
-7.87638
40
0.019685
50
90
51
180
0
ARC
8
BLACK
10
11.99
20
-7.87638
40
0.019685
50
90
51
180
0
LINE
8
BLACK
6
CONTINUOUS
10
8.47052
20
-8.38583
11
8.70674
21
-8.38583
0
ARC
8
BLACK
10
6.36501
20
-8.38819
40
0.019685
50
180
51
270
0
LINE
8
BLACK
6
CONTINUOUS
10
11.9703
20
-7.87638
11
11.9703
21
-8.38819
0
ARC
8
BLACK
10
12.5018
20
-8.38819
40
0.019685
50
-90
51
-0
0
ARC
8
BLACK
10
12.5018
20
-7.87638
40
0.019685
50
-0
51
90
0
LINE
8
BLACK
6
CONTINUOUS
10
4.53627
20
-8.38583
11
4.77249
21
-8.38583
0
LINE
8
BLACK
6
CONTINUOUS
10
6.34532
20
-7.87638
11
6.34532
21
-8.38819
0
ARC
8
BLACK
10
8.70674
20
-7.81496
40
0.019685
50
-0
51
90
0
LINE
8
BLACK
6
CONTINUOUS
10
11.99
20
-8.40787
11
12.5018
21
-8.40787
0
ARC
8
BLACK
10
4.06432
20
-8.38819
40
0.019685
50
-90
51
-0
0
LINE
8
BLACK
6
CONTINUOUS
10
8.45084
20
-7.81496
11
8.45084
21
-8.36614
0
ARC
8
BLACK
10
10.115
20
-8.38819
40
0.019685
50
180
51
270
0
ARC
8
BLACK
10
11.5643
20
-8.38819
40
0.019685
50
-90
51
-0
0
ARC
8
BLACK
10
11.0525
20
-8.38819
40
0.019685
50
180
51
270
0
LINE
8
BLACK
6
CONTINUOUS
10
11.584
20
-7.87638
11
11.584
21
-8.38819
0
ARC
8
BLACK
10
6.36501
20
-7.87638
40
0.019685
50
90
51
180
0
LINE
8
BLACK
6
CONTINUOUS
10
10.6465
20
-7.87638
11
10.6465
21
-8.38819
0
LINE
8
BLACK
6
CONTINUOUS
10
10.115
20
-8.40787
11
10.6268
21
-8.40787
0
ARC
8
BLACK
10
11.4275
20
-7.63819
40
0.019685
50
180
51
270
0
LINE
8
BLACK
6
CONTINUOUS
10
11.0756
20
-7.16575
11
11.0756
21
-7.71693
0
LINE
8
BLACK
6
CONTINUOUS
10
11.4275
20
-7.65787
11
11.9393
21
-7.65787
0
LINE
8
BLACK
6
CONTINUOUS
10
4.08401
20
-7.87638
11
4.08401
21
-8.38819
0
LINE
8
BLACK
6
CONTINUOUS
10
3.53282
20
-7.87638
11
3.53282
21
-8.38819
0
ARC
8
BLACK
10
12.2715
20
-7.71693
40
0.019685
50
-90
51
-0
0
LINE
8
BLACK
6
CONTINUOUS
10
3.55251
20
-8.40787
11
4.06432
21
-8.40787
0
LINE
8
BLACK
6
CONTINUOUS
10
3.55251
20
-7.85669
11
4.06432
21
-7.85669
0
ARC
8
BLACK
10
2.61501
20
-8.38819
40
0.019685
50
180
51
270
0
ARC
8
BLACK
10
1.67751
20
-8.38819
40
0.019685
50
180
51
270
0
LINE
8
BLACK
6
CONTINUOUS
10
11.0953
20
-7.14606
11
11.3315
21
-7.14606
0
ARC
8
BLACK
10
12.0353
20
-7.16575
40
0.019685
50
90
51
180
0
LINE
8
BLACK
6
CONTINUOUS
10
11.959
20
-7.12638
11
11.959
21
-7.63819
0
ARC
8
BLACK
10
3.12682
20
-8.38819
40
0.019685
50
-90
51
-0
0
LINE
8
BLACK
6
CONTINUOUS
10
2.59532
20
-7.87638
11
2.59532
21
-8.38819
0
LINE
8
BLACK
6
CONTINUOUS
10
2.61501
20
-7.85669
11
3.12682
21
-7.85669
0
ARC
8
BLACK
10
14.2831
20
-7.63819
40
0.019685
50
-90
51
-0
0
ARC
8
BLACK
10
11.9393
20
-7.63819
40
0.019685
50
-90
51
-0
0
ARC
8
BLACK
10
10.0213
20
-7.12638
40
0.019685
50
90
51
180
0
ARC
8
BLACK
10
14.2831
20
-7.12638
40
0.019685
50
-0
51
90
0
LINE
8
BLACK
6
CONTINUOUS
10
14.3028
20
-7.12638
11
14.3028
21
-7.63819
0
ARC
8
BLACK
10
11.3315
20
-7.71693
40
0.019685
50
-90
51
-0
0
ARC
8
BLACK
10
11.3315
20
-7.16575
40
0.019685
50
-0
51
90
0
ARC
8
BLACK
10
11.0953
20
-7.16575
40
0.019685
50
90
51
180
0
ARC
8
BLACK
10
11.4275
20
-7.12638
40
0.019685
50
90
51
180
0
ARC
8
BLACK
10
10.0213
20
-7.63819
40
0.019685
50
180
51
270
0
LINE
8
BLACK
6
CONTINUOUS
10
11.3512
20
-7.16575
11
11.3512
21
-7.71693
0
LINE
8
BLACK
6
CONTINUOUS
10
10.0213
20
-7.65787
11
10.5331
21
-7.65787
0
LINE
8
BLACK
6
CONTINUOUS
10
12.0353
20
-7.14606
11
12.2715
21
-7.14606
0
LINE
8
BLACK
6
CONTINUOUS
10
10.0213
20
-7.10669
11
10.5331
21
-7.10669
0
ARC
8
BLACK
10
11.9393
20
-7.12638
40
0.019685
50
-0
51
90
0
LINE
8
BLACK
6
CONTINUOUS
10
11.4078
20
-7.12638
11
11.4078
21
-7.63819
0
ARC
8
BLACK
10
10.5331
20
-7.12638
40
0.019685
50
-0
51
90
0
LINE
8
BLACK
6
CONTINUOUS
10
10.5528
20
-7.12638
11
10.5528
21
-7.63819
0
LINE
8
BLACK
6
CONTINUOUS
10
11.4275
20
-7.10669
11
11.9393
21
-7.10669
0
ARC
8
BLACK
10
12.0353
20
-7.71693
40
0.019685
50
180
51
270
0
ARC
8
BLACK
10
10.5331
20
-7.63819
40
0.019685
50
-90
51
-0
0
ARC
8
BLACK
10
2.61501
20
-7.87638
40
0.019685
50
90
51
180
0
ARC
8
BLACK
10
2.18932
20
-8.38819
40
0.019685
50
-90
51
-0
0
ARC
8
BLACK
10
12.2715
20
-7.16575
40
0.019685
50
-0
51
90
0
LINE
8
BLACK
6
CONTINUOUS
10
1.65782
20
-7.87638
11
1.65782
21
-8.38819
0
LINE
8
BLACK
6
CONTINUOUS
10
13.7516
20
-7.12638
11
13.7516
21
-7.63819
0
ARC
8
BLACK
10
13.7713
20
-7.12638
40
0.019685
50
90
51
180
0
LINE
8
BLACK
6
CONTINUOUS
10
1.67751
20
-8.40787
11
2.18932
21
-8.40787
0
ARC
8
BLACK
10
9.78307
20
-7.63819
40
0.019685
50
-90
51
-0
0
ARC
8
BLACK
10
1.67751
20
-7.87638
40
0.019685
50
90
51
180
0
ARC
8
BLACK
10
11.0953
20
-7.71693
40
0.019685
50
180
51
270
0
LINE
8
BLACK
6
CONTINUOUS
10
11.0953
20
-7.73661
11
11.3315
21
-7.73661
0
LINE
8
BLACK
6
CONTINUOUS
10
12.0156
20
-7.16575
11
12.0156
21
-7.71693
0
LINE
8
BLACK
6
CONTINUOUS
10
12.0353
20
-7.73661
11
12.2715
21
-7.73661
0
LINE
8
BLACK
6
CONTINUOUS
10
13.7713
20
-7.10669
11
14.2831
21
-7.10669
0
LINE
8
BLACK
6
CONTINUOUS
10
3.14651
20
-7.87638
11
3.14651
21
-8.38819
0
LINE
8
BLACK
6
CONTINUOUS
10
2.61501
20
-8.40787
11
3.12682
21
-8.40787
0
LINE
8
BLACK
6
CONTINUOUS
10
2.20901
20
-7.87638
11
2.20901
21
-8.38819
0
LINE
8
BLACK
6
CONTINUOUS
10
10.0016
20
-7.12638
11
10.0016
21
-7.63819
0
ARC
8
BLACK
10
13.7713
20
-7.63819
40
0.019685
50
180
51
270
0
LINE
8
BLACK
6
CONTINUOUS
10
1.67751
20
-7.85669
11
2.18932
21
-7.85669
0
ARC
8
BLACK
10
3.12682
20
-7.87638
40
0.019685
50
-0
51
90
0
ARC
8
BLACK
10
2.18932
20
-7.87638
40
0.019685
50
-0
51
90
0
ARC
8
BLACK
10
3.55251
20
-8.38819
40
0.019685
50
180
51
270
0
LINE
8
BLACK
6
CONTINUOUS
10
12.2912
20
-7.16575
11
12.2912
21
-7.71693
0
ARC
8
BLACK
10
4.06432
20
-7.87638
40
0.019685
50
-0
51
90
0
ARC
8
BLACK
10
3.55251
20
-7.87638
40
0.019685
50
90
51
180
0
LINE
8
BLACK
6
CONTINUOUS
10
13.7713
20
-7.65787
11
14.2831
21
-7.65787
0
ARC
8
BLACK
10
5.52126
20
-7.12638
40
0.019685
50
90
51
180
0
LINE
8
BLACK
6
CONTINUOUS
10
5.52126
20
-7.10669
11
6.03307
21
-7.10669
0
ARC
8
BLACK
10
6.03307
20
-7.12638
40
0.019685
50
-0
51
90
0
LINE
8
BLACK
6
CONTINUOUS
10
5.30276
20
-7.12638
11
5.30276
21
-7.63819
0
LINE
8
BLACK
6
CONTINUOUS
10
7.77126
20
-7.10669
11
8.28307
21
-7.10669
0
ARC
8
BLACK
10
9.27126
20
-7.12638
40
0.019685
50
90
51
180
0
LINE
8
BLACK
6
CONTINUOUS
10
9.27126
20
-7.10669
11
9.78307
21
-7.10669
0
ARC
8
BLACK
10
9.03307
20
-7.63819
40
0.019685
50
-90
51
-0
0
ARC
8
BLACK
10
9.03307
20
-7.12638
40
0.019685
50
-0
51
90
0
LINE
8
BLACK
6
CONTINUOUS
10
8.52126
20
-7.65787
11
9.03307
21
-7.65787
0
LINE
8
BLACK
6
CONTINUOUS
10
8.52126
20
-7.10669
11
9.03307
21
-7.10669
0
LINE
8
BLACK
6
CONTINUOUS
10
7.02126
20
-7.65787
11
7.53307
21
-7.65787
0
ARC
8
BLACK
10
6.27126
20
-7.12638
40
0.019685
50
90
51
180
0
ARC
8
BLACK
10
5.28307
20
-7.12638
40
0.019685
50
-0
51
90
0
ARC
8
BLACK
10
4.53307
20
-7.63819
40
0.019685
50
-90
51
-0
0
ARC
8
BLACK
10
3.78307
20
-7.63819
40
0.019685
50
-90
51
-0
0
LINE
8
BLACK
6
CONTINUOUS
10
5.52126
20
-7.65787
11
6.03307
21
-7.65787
0
ARC
8
BLACK
10
6.03307
20
-7.63819
40
0.019685
50
-90
51
-0
0
ARC
8
BLACK
10
4.77126
20
-7.63819
40
0.019685
50
180
51
270
0
LINE
8
BLACK
6
CONTINUOUS
10
4.75157
20
-7.12638
11
4.75157
21
-7.63819
0
LINE
8
BLACK
6
CONTINUOUS
10
5.50157
20
-7.12638
11
5.50157
21
-7.63819
0
LINE
8
BLACK
6
CONTINUOUS
10
6.05276
20
-7.12638
11
6.05276
21
-7.63819
0
LINE
8
BLACK
6
CONTINUOUS
10
6.25157
20
-7.12638
11
6.25157
21
-7.63819
0
ARC
8
BLACK
10
4.02126
20
-7.12638
40
0.019685
50
90
51
180
0
ARC
8
BLACK
10
5.52126
20
-7.63819
40
0.019685
50
180
51
270
0
LINE
8
BLACK
6
CONTINUOUS
10
6.27126
20
-7.10669
11
6.78307
21
-7.10669
0
LINE
8
BLACK
6
CONTINUOUS
10
4.77126
20
-7.10669
11
5.28307
21
-7.10669
0
LINE
8
BLACK
6
CONTINUOUS
10
4.02126
20
-7.10669
11
4.53307
21
-7.10669
0
LINE
8
BLACK
6
CONTINUOUS
10
8.50157
20
-7.12638
11
8.50157
21
-7.63819
0
ARC
8
BLACK
10
7.77126
20
-7.63819
40
0.019685
50
180
51
270
0
LINE
8
BLACK
6
CONTINUOUS
10
7.00157
20
-7.12638
11
7.00157
21
-7.63819
0
ARC
8
BLACK
10
4.02126
20
-7.63819
40
0.019685
50
180
51
270
0
ARC
8
BLACK
10
6.78307
20
-7.12638
40
0.019685
50
-0
51
90
0
ARC
8
BLACK
10
4.77126
20
-7.12638
40
0.019685
50
90
51
180
0
ARC
8
BLACK
10
7.53307
20
-7.12638
40
0.019685
50
-0
51
90
0
LINE
8
BLACK
6
CONTINUOUS
10
9.05276
20
-7.12638
11
9.05276
21
-7.63819
0
ARC
8
BLACK
10
9.27126
20
-7.63819
40
0.019685
50
180
51
270
0
LINE
8
BLACK
6
CONTINUOUS
10
7.02126
20
-7.10669
11
7.53307
21
-7.10669
0
ARC
8
BLACK
10
6.78307
20
-7.63819
40
0.019685
50
-90
51
-0
0
ARC
8
BLACK
10
5.28307
20
-7.63819
40
0.019685
50
-90
51
-0
0
LINE
8
BLACK
6
CONTINUOUS
10
4.55276
20
-7.12638
11
4.55276
21
-7.63819
0
ARC
8
BLACK
10
7.02126
20
-7.12638
40
0.019685
50
90
51
180
0
LINE
8
BLACK
6
CONTINUOUS
10
8.30276
20
-7.12638
11
8.30276
21
-7.63819
0
ARC
8
BLACK
10
9.78307
20
-7.12638
40
0.019685
50
-0
51
90
0
LINE
8
BLACK
6
CONTINUOUS
10
9.27126
20
-7.65787
11
9.78307
21
-7.65787
0
LINE
8
BLACK
6
CONTINUOUS
10
9.25157
20
-7.12638
11
9.25157
21
-7.63819
0
ARC
8
BLACK
10
7.77126
20
-7.12638
40
0.019685
50
90
51
180
0
LINE
8
BLACK
6
CONTINUOUS
10
4.02126
20
-7.65787
11
4.53307
21
-7.65787
0
LINE
8
BLACK
6
CONTINUOUS
10
7.75157
20
-7.12638
11
7.75157
21
-7.63819
0
ARC
8
BLACK
10
8.52126
20
-7.12638
40
0.019685
50
90
51
180
0
LINE
8
BLACK
6
CONTINUOUS
10
9.80276
20
-7.12638
11
9.80276
21
-7.63819
0
ARC
8
BLACK
10
8.52126
20
-7.63819
40
0.019685
50
180
51
270
0
LINE
8
BLACK
6
CONTINUOUS
10
4.77126
20
-7.65787
11
5.28307
21
-7.65787
0
ARC
8
BLACK
10
4.53307
20
-7.12638
40
0.019685
50
-0
51
90
0
ARC
8
BLACK
10
8.28307
20
-7.63819
40
0.019685
50
-90
51
-0
0
ARC
8
BLACK
10
8.28307
20
-7.12638
40
0.019685
50
-0
51
90
0
LINE
8
BLACK
6
CONTINUOUS
10
4.00157
20
-7.12638
11
4.00157
21
-7.63819
0
ARC
8
BLACK
10
6.27126
20
-7.63819
40
0.019685
50
180
51
270
0
LINE
8
BLACK
6
CONTINUOUS
10
7.77126
20
-7.65787
11
8.28307
21
-7.65787
0
ARC
8
BLACK
10
7.53307
20
-7.63819
40
0.019685
50
-90
51
-0
0
ARC
8
BLACK
10
7.02126
20
-7.63819
40
0.019685
50
180
51
270
0
LINE
8
BLACK
6
CONTINUOUS
10
7.55276
20
-7.12638
11
7.55276
21
-7.63819
0
LINE
8
BLACK
6
CONTINUOUS
10
6.80276
20
-7.12638
11
6.80276
21
-7.63819
0
LINE
8
BLACK
6
CONTINUOUS
10
6.27126
20
-7.65787
11
6.78307
21
-7.65787
0
LINE
8
BLACK
6
CONTINUOUS
10
8.12657
20
-6.37638
11
8.12657
21
-6.88819
0
LINE
8
BLACK
6
CONTINUOUS
10
3.80276
20
-7.12638
11
3.80276
21
-7.63819
0
ARC
8
BLACK
10
1.67751
20
-7.12638
40
0.019685
50
90
51
180
0
LINE
8
BLACK
6
CONTINUOUS
10
3.25157
20
-7.12638
11
3.25157
21
-7.63819
0
LINE
8
BLACK
6
CONTINUOUS
10
3.27126
20
-7.65787
11
3.78307
21
-7.65787
0
LINE
8
BLACK
6
CONTINUOUS
10
3.27126
20
-7.10669
11
3.78307
21
-7.10669
0
ARC
8
BLACK
10
3.03307
20
-7.12638
40
0.019685
50
-0
51
90
0
ARC
8
BLACK
10
9.64626
20
-6.88819
40
0.019685
50
180
51
270
0
ARC
8
BLACK
10
9.40807
20
-6.88819
40
0.019685
50
-90
51
-0
0
ARC
8
BLACK
10
1.67751
20
-7.63819
40
0.019685
50
180
51
270
0
ARC
8
BLACK
10
10.1581
20
-6.88819
40
0.019685
50
-90
51
-0
0
LINE
8
BLACK
6
CONTINUOUS
10
10.1778
20
-6.37638
11
10.1778
21
-6.88819
0
LINE
8
BLACK
6
CONTINUOUS
10
11.1463
20
-6.35669
11
11.9507
21
-6.35668
0
LINE
8
BLACK
6
CONTINUOUS
10
9.64626
20
-6.90787
11
10.1581
21
-6.90787
0
ARC
8
BLACK
10
3.03307
20
-7.63819
40
0.019685
50
-90
51
-0
0
ARC
8
BLACK
10
8.14626
20
-6.37638
40
0.019685
50
90
51
180
0
LINE
8
BLACK
6
CONTINUOUS
10
3.05276
20
-7.12638
11
3.05276
21
-7.63819
0
LINE
8
BLACK
6
CONTINUOUS
10
8.14626
20
-6.35669
11
8.65807
21
-6.35669
0
LINE
8
BLACK
6
CONTINUOUS
10
10.3766
20
-6.37638
11
10.3766
21
-6.88819
0
LINE
8
BLACK
6
CONTINUOUS
10
11.1463
20
-6.90787
11
11.244
21
-6.90791
0
ARC
8
BLACK
10
9.64626
20
-6.37638
40
0.019685
50
90
51
180
0
ARC
8
BLACK
10
8.14626
20
-6.88819
40
0.019685
50
180
51
270
0
LINE
8
BLACK
6
CONTINUOUS
10
1.65782
20
-7.12638
11
1.65782
21
-7.63819
0
LINE
8
BLACK
6
CONTINUOUS
10
8.89626
20
-6.35669
11
9.40807
21
-6.35669
0
ARC
8
BLACK
10
11.1463
20
-6.88819
40
0.019685
50
180
51
270
0
ARC
8
BLACK
10
11.1463
20
-6.37638
40
0.019685
50
90
51
180
0
LINE
8
BLACK
6
CONTINUOUS
10
10.3963
20
-6.90787
11
10.9081
21
-6.90787
0
ARC
8
BLACK
10
10.3963
20
-6.88819
40
0.019685
50
180
51
270
0
ARC
8
BLACK
10
10.3963
20
-6.37638
40
0.019685
50
90
51
180
0
LINE
8
BLACK
6
CONTINUOUS
10
9.42776
20
-6.37638
11
9.42776
21
-6.88819
0
LINE
8
BLACK
6
CONTINUOUS
10
8.67776
20
-6.37638
11
8.67776
21
-6.88819
0
ARC
8
BLACK
10
8.65807
20
-6.37638
40
0.019685
50
-0
51
90
0
LINE
8
BLACK
6
CONTINUOUS
10
8.87657
20
-6.37638
11
8.87657
21
-6.88819
0
LINE
8
BLACK
6
CONTINUOUS
10
11.1266
20
-6.37638
11
11.1266
21
-6.88819
0
ARC
8
BLACK
10
10.9081
20
-6.88819
40
0.019685
50
-90
51
-0
0
ARC
8
BLACK
10
9.40807
20
-6.37638
40
0.019685
50
-0
51
90
0
LINE
8
BLACK
6
CONTINUOUS
10
9.64626
20
-6.35669
11
10.1581
21
-6.35669
0
ARC
8
BLACK
10
7.90807
20
-6.88819
40
0.019685
50
-90
51
-0
0
LINE
8
BLACK
6
CONTINUOUS
10
8.14626
20
-6.90787
11
8.65807
21
-6.90787
0
LINE
8
BLACK
6
CONTINUOUS
10
10.9278
20
-6.37638
11
10.9278
21
-6.88819
0
LINE
8
BLACK
6
CONTINUOUS
10
10.3963
20
-6.35669
11
10.9081
21
-6.35669
0
ARC
8
BLACK
10
8.89626
20
-6.37638
40
0.019685
50
90
51
180
0
LINE
8
BLACK
6
CONTINUOUS
10
9.62657
20
-6.37638
11
9.62657
21
-6.88819
0
ARC
8
BLACK
10
8.65807
20
-6.88819
40
0.019685
50
-90
51
-0
0
LINE
8
BLACK
6
CONTINUOUS
10
8.89626
20
-6.90787
11
9.40807
21
-6.90787
0
ARC
8
BLACK
10
3.27126
20
-7.63819
40
0.019685
50
180
51
270
0
ARC
8
BLACK
10
8.89626
20
-6.88819
40
0.019685
50
180
51
270
0
ARC
8
BLACK
10
3.27126
20
-7.12638
40
0.019685
50
90
51
180
0
ARC
8
BLACK
10
10.9081
20
-6.37638
40
0.019685
50
-0
51
90
0
ARC
8
BLACK
10
10.1581
20
-6.37638
40
0.019685
50
-0
51
90
0
ARC
8
BLACK
10
3.78307
20
-7.12638
40
0.019685
50
-0
51
90
0
ARC
8
BLACK
10
15.2165
20
-2.46693
40
0.11811
50
-0
51
90
0
ARC
8
BLACK
10
1.49213
20
-2.46693
40
0.11811
50
90
51
180
0
ARC
8
BLACK
10
1.49213
20
-8.39213
40
0.11811
50
180
51
270
0
ARC
8
BLACK
10
15.2165
20
-8.39213
40
0.11811
50
-90
51
-0
0
LINE
8
BLACK
6
CONTINUOUS
10
11.5286
20
-2.52021
11
11.5286
21
-3.36021
0
LINE
8
BLACK
6
CONTINUOUS
10
9.44661
20
-3.36021
11
9.44661
21
-2.52021
0
LINE
8
BLACK
6
CONTINUOUS
10
9.44661
20
-3.36021
11
11.5286
21
-3.36021
0
LINE
8
BLACK
6
CONTINUOUS
10
9.44661
20
-2.52021
11
11.5286
21
-2.52021
0
LINE
8
BLACK
6
CONTINUOUS
10
15.3346
20
-2.46693
11
15.3346
21
-8.39213
0
LINE
8
BLACK
6
CONTINUOUS
10
1.49213
20
-2.34882
11
15.2165
21
-2.34882
0
LINE
8
BLACK
6
CONTINUOUS
10
1.37402
20
-8.39213
11
1.37402
21
-2.46693
0
LINE
8
BLACK
6
CONTINUOUS
10
15.2165
20
-8.51024
11
1.49213
21
-8.51024
  0
ENDSEC
  0
EOF
