<?xml version="1.0" standalone="no"?>
 <!DOCTYPE svg PUBLIC "-//W3C//DTD SVG 1.1//EN" 
 "http://www.w3.org/Graphics/SVG/1.1/DTD/svg11.dtd"> 
<svg
  xmlns:svg="http://www.w3.org/2000/svg"
  xmlns="http://www.w3.org/2000/svg"
  xmlns:xlink="http://www.w3.org/1999/xlink"
  version="1.1"
  width="34.813240cm" height="15.641320cm" viewBox="0 0 137060 61580">
<title>SVG Picture created as ENV_KB-brd.svg date 2021/04/20 11:04:53 </title>
  <desc>Picture generated by PCBNEW </desc>
<g style="fill:#000000; fill-opacity:1;stroke:#000000; stroke-opacity:1;
stroke-linecap:round; stroke-linejoin:round;"
 transform="translate(0 0) scale(1 1)">
</g>
<g style="fill:#000000; fill-opacity:0.0; 
stroke:#000000; stroke-width:-0.000393701; stroke-opacity:1; 
stroke-linecap:round; stroke-linejoin:round;">
</g>
<g style="fill:#FF0000; fill-opacity:0.0; 
stroke:#FF0000; stroke-width:-0.000393701; stroke-opacity:1; 
stroke-linecap:round; stroke-linejoin:round;">
</g>
<g style="fill:#FF0000; fill-opacity:0.0; 
stroke:#FF0000; stroke-width:39.3701; stroke-opacity:1; 
stroke-linecap:round; stroke-linejoin:round;">
<circle cx="9479.63" cy="59685.5" r="440" /> 
<circle cx="1809.63" cy="54015.5" r="440" /> 
<circle cx="1729.63" cy="1835.5" r="440" /> 
<circle cx="3859.63" cy="22145.5" r="440" /> 
<circle cx="68429.6" cy="22145.5" r="440" /> 
<circle cx="68429.6" cy="38915.5" r="440" /> 
<circle cx="68429.6" cy="59685.5" r="440" /> 
<circle cx="135226" cy="1845.5" r="444.072" /> 
<circle cx="133211" cy="22145.5" r="428.689" /> 
<circle cx="135260" cy="54025.5" r="424.5" /> 
<circle cx="129480" cy="59681.7" r="430.659" /> 
<g >
</g>
<g >
</g>
<g >
</g>
<g >
</g>
<g >
</g>
<g >
</g>
<g >
</g>
<g >
</g>
<g >
</g>
<g >
</g>
<g >
</g>
<g >
</g>
<g >
</g>
<g >
</g>
<g >
</g>
<g >
</g>
<g >
</g>
<g >
</g>
<g >
</g>
<g >
</g>
<g >
</g>
<g >
</g>
<g >
</g>
<g >
</g>
<g >
</g>
<g >
</g>
<g >
</g>
<g >
</g>
<g >
</g>
<g >
</g>
<g >
</g>
<g >
</g>
<g >
</g>
<g >
</g>
<g >
</g>
<g >
</g>
<g >
</g>
<g >
</g>
<g >
</g>
<g >
</g>
<g >
</g>
<g >
</g>
<g >
</g>
<g >
</g>
<g >
</g>
<g >
</g>
<g >
</g>
<g >
</g>
<g >
</g>
<g >
</g>
<g >
</g>
<g >
</g>
<g >
</g>
<g >
</g>
<g >
</g>
<g >
</g>
<g >
</g>
<g >
</g>
<g >
</g>
<g >
</g>
<g >
</g>
<g >
</g>
<g >
</g>
<g >
</g>
<g >
</g>
<g >
</g>
<g >
</g>
<g >
</g>
<g >
</g>
<g >
</g>
<g >
</g>
<g >
</g>
<g >
</g>
<g >
</g>
<g >
</g>
<g >
</g>
<g >
</g>
<g >
</g>
<g >
</g>
<g >
</g>
<g >
</g>
<g >
</g>
<g >
</g>
<g >
</g>
<g >
</g>
<g >
</g>
<g >
</g>
<g >
</g>
<g >
</g>
<g >
</g>
<g >
</g>
<g >
</g>
<g >
</g>
<g >
</g>
<g >
</g>
<g >
</g>
<g >
</g>
<g >
</g>
<g >
</g>
<g >
</g>
<g >
</g>
<g >
</g>
<g >
</g>
<g >
</g>
<g >
</g>
<g >
</g>
<g >
</g>
<g >
</g>
<g >
</g>
<g >
</g>
<g >
</g>
<g >
</g>
<g >
</g>
<g >
</g>
<g >
</g>
<g >
</g>
<g >
</g>
<g >
</g>
<g >
</g>
<g >
</g>
<g >
</g>
<g >
</g>
<g >
</g>
<g >
</g>
<g >
</g>
<g >
</g>
<g >
</g>
<g >
</g>
<g >
</g>
<g >
</g>
<g >
</g>
<g >
</g>
<g >
</g>
<g >
</g>
<g >
</g>
<g >
</g>
<g >
</g>
<g >
</g>
<g >
</g>
<g >
</g>
<g >
</g>
<g >
</g>
<g >
</g>
<g >
</g>
<g >
</g>
<g >
</g>
<g >
</g>
<g >
</g>
<g >
</g>
<g >
</g>
<g >
</g>
<g >
</g>
<g >
</g>
<g >
</g>
<g >
</g>
<g >
</g>
<g >
</g>
<g >
</g>
<g >
</g>
<g >
</g>
<g >
</g>
<g >
</g>
<g >
</g>
<g >
</g>
<g >
</g>
<g >
</g>
<g >
</g>
<g >
</g>
<g >
</g>
<g >
</g>
<g >
</g>
<g >
</g>
<g >
</g>
<g >
</g>
<g >
</g>
<g >
</g>
<g >
</g>
<g >
</g>
<g >
</g>
<g >
</g>
<g >
</g>
<g >
</g>
<g >
</g>
<g >
</g>
<g >
</g>
<g >
</g>
<g >
</g>
<g >
</g>
<g >
</g>
<g >
</g>
<g >
</g>
<g >
</g>
<g >
</g>
<g >
</g>
<g >
</g>
<g >
</g>
<g >
</g>
<g >
</g>
<g >
</g>
<g >
</g>
<g >
</g>
</g>
<g style="fill:#000000; fill-opacity:0.0; 
stroke:#000000; stroke-width:39.3701; stroke-opacity:1; 
stroke-linecap:round; stroke-linejoin:round;">
</g>
<g style="fill:#FF0000; fill-opacity:0.0; 
stroke:#FF0000; stroke-width:39.3701; stroke-opacity:1; 
stroke-linecap:round; stroke-linejoin:round;">
<path d="M99530 51182
L99530 53032
" />
<path d="M96273 50473
L96273 52941
" />
<path d="M99530 49371
L98930 49371
" />
<path d="M98930 52941
L98930 51182
" />
<path d="M107621 52941
L108300 52941
" />
<path d="M96952 53414
L98251 53414
" />
<path d="M105042 49371
L105042 47520
" />
<path d="M96952 52941
L96952 53414
" />
<path d="M98251 52941
L98930 52941
" />
<path d="M105042 47520
L99530 47520
" />
<path d="M106322 52941
L106322 53414
" />
<path d="M108625 49371
L108300 49371
" />
<path d="M106322 53414
L107621 53414
" />
<path d="M95948 50473
L96273 50473
" />
<path d="M99530 47520
L99530 49371
" />
<path d="M96273 49371
L95948 49371
" />
<path d="M98930 49371
L98930 48099
" />
<path d="M105042 51182
L105643 51182
" />
<path d="M105042 53032
L105042 51182
" />
<path d="M96273 52941
L96952 52941
" />
<path d="M95948 49371
L95948 50473
" />
<path d="M107621 53414
L107621 52941
" />
<path d="M108300 49371
L108300 48099
" />
<path d="M98930 51182
L99530 51182
" />
<path d="M96273 48099
L96273 49371
" />
<path d="M108625 50473
L108625 49371
" />
<path d="M98930 48099
L96273 48099
" />
<path d="M108300 52941
L108300 50473
" />
<path d="M105643 52941
L106322 52941
" />
<path d="M108300 48099
L105643 48099
" />
<path d="M105643 51182
L105643 52941
" />
<path d="M99530 53032
L105042 53032
" />
<path d="M108300 50473
L108625 50473
" />
<path d="M105643 49371
L105042 49371
" />
<path d="M105643 48099
L105643 49371
" />
<path d="M98251 53414
L98251 52941
" />
<path d="M100739 1655
L100739 10055
" />
<path d="M79919 10055
L79919 1655
" />
<path d="M79919 10055
L100739 10055
" />
<path d="M79919 1655
L100739 1655
" />
<path d="M2031 47520
L15980 47520
" />
<path d="M110175 45532
L109496 45532
" />
<path d="M96718 45531
L98826 45531
" />
<path d="M109729 35669
L109729 36270
" />
<path d="M122968 60531
L122968 55020
" />
<path d="M115468 55020
L120980 55020
" />
<path d="M120980 60531
L115468 60531
" />
<path d="M128480 60531
L122968 60531
" />
<path d="M120980 55020
L120980 60531
" />
<path d="M110667 41781
L110667 36270
" />
<path d="M110667 36270
L109729 36270
" />
<path d="M110500 41781
L110667 41781
" />
<path d="M109729 35669
L110088 35669
" />
<path d="M130468 32520
L135980 32520
" />
<path d="M110088 35669
L110088 33012
" />
<path d="M110088 33012
L109730 33012
" />
<path d="M128480 55020
L128480 60531
" />
<path d="M122968 55020
L128480 55020
" />
<path d="M135980 55020
L135980 60531
" />
<path d="M130468 60531
L130468 55020
" />
<path d="M135980 60531
L130468 60531
" />
<path d="M70696 54638
L70696 55110
" />
<path d="M70017 56870
L54417 56870
" />
<path d="M70696 55110
L70017 55110
" />
<path d="M70017 55110
L70017 56870
" />
<path d="M54417 56870
L54417 55020
" />
<path d="M30647 57579
L30322 57579
" />
<path d="M30647 58681
L30647 59952
" />
<path d="M30322 57579
L30322 58681
" />
<path d="M30647 59952
L33305 59952
" />
<path d="M30322 58681
L30647 58681
" />
<path d="M94730 40020
L94730 45531
" />
<path d="M87230 40020
L87230 45531
" />
<path d="M66718 45531
L66718 40020
" />
<path d="M87230 45531
L81718 45531
" />
<path d="M72230 45531
L66718 45531
" />
<path d="M72230 40020
L72230 45531
" />
<path d="M96718 45531
L96718 40020
" />
<path d="M89218 40020
L94730 40020
" />
<path d="M74218 40020
L79730 40020
" />
<path d="M79730 40020
L79730 45531
" />
<path d="M74218 45531
L74218 40020
" />
<path d="M81718 40020
L87230 40020
" />
<path d="M2031 53032
L2031 47520
" />
<path d="M79730 45531
L74218 45531
" />
<path d="M94730 45531
L89218 45531
" />
<path d="M89218 45531
L89218 40020
" />
<path d="M66718 40020
L72230 40020
" />
<path d="M81718 45531
L81718 40020
" />
<path d="M96718 40020
L105155 40020
" />
<path d="M57230 40020
L57230 45531
" />
<path d="M51718 40020
L57230 40020
" />
<path d="M64730 45531
L59218 45531
" />
<path d="M34730 40020
L34730 45531
" />
<path d="M21718 40020
L27230 40020
" />
<path d="M29218 45531
L29218 40020
" />
<path d="M34730 45531
L29218 45531
" />
<path d="M29218 40020
L34730 40020
" />
<path d="M36718 45531
L36718 40020
" />
<path d="M42230 45531
L36718 45531
" />
<path d="M42230 40020
L42230 45531
" />
<path d="M49730 45531
L44218 45531
" />
<path d="M57230 45531
L51718 45531
" />
<path d="M51718 45531
L51718 40020
" />
<path d="M49730 40020
L49730 45531
" />
<path d="M59218 45531
L59218 40020
" />
<path d="M59218 40020
L64730 40020
" />
<path d="M44218 40020
L49730 40020
" />
<path d="M64730 40020
L64730 45531
" />
<path d="M27230 45531
L21718 45531
" />
<path d="M27230 40020
L27230 45531
" />
<path d="M36718 40020
L42230 40020
" />
<path d="M44218 45531
L44218 40020
" />
<path d="M32626 55110
L32626 54638
" />
<path d="M30647 55110
L30647 57579
" />
<path d="M31326 55110
L30647 55110
" />
<path d="M31326 54638
L31326 55110
" />
<path d="M32626 54638
L31326 54638
" />
<path d="M128480 32520
L128480 38031
" />
<path d="M115468 38031
L115468 32520
" />
<path d="M128480 38031
L122968 38031
" />
<path d="M120980 38031
L115468 38031
" />
<path d="M79843 38031
L79843 32520
" />
<path d="M79843 32520
L85355 32520
" />
<path d="M122968 32520
L128480 32520
" />
<path d="M85355 32520
L85355 38031
" />
<path d="M100355 32520
L100355 38031
" />
<path d="M85355 38031
L79843 38031
" />
<path d="M87343 38031
L87343 32520
" />
<path d="M92855 38031
L87343 38031
" />
<path d="M94843 32520
L100355 32520
" />
<path d="M94843 38031
L94843 32520
" />
<path d="M135980 38031
L130468 38031
" />
<path d="M92855 32520
L92855 38031
" />
<path d="M135980 32520
L135980 38031
" />
<path d="M87343 32520
L92855 32520
" />
<path d="M100355 38031
L94843 38031
" />
<path d="M115468 32520
L120980 32520
" />
<path d="M122968 38031
L122968 32520
" />
<path d="M120980 32520
L120980 38031
" />
<path d="M130468 38031
L130468 32520
" />
<path d="M21718 45531
L21718 40020
" />
<path d="M14218 40020
L19730 40020
" />
<path d="M19730 45531
L14218 45531
" />
<path d="M9417 45531
L3905 45531
" />
<path d="M9417 40020
L9417 45531
" />
<path d="M3905 40020
L9417 40020
" />
<path d="M3905 45531
L3905 40020
" />
<path d="M105155 38032
L105155 40020
" />
<path d="M14218 45531
L14218 40020
" />
<path d="M19730 40020
L19730 45531
" />
<path d="M11405 60531
L11405 55020
" />
<path d="M16917 55020
L16917 60531
" />
<path d="M11405 55020
L16917 55020
" />
<path d="M20781 60531
L20781 55020
" />
<path d="M16917 60531
L11405 60531
" />
<path d="M77968 53031
L77968 47520
" />
<path d="M90980 53031
L85468 53031
" />
<path d="M85468 53031
L85468 47520
" />
<path d="M85468 47520
L90980 47520
" />
<path d="M62968 53031
L62968 47520
" />
<path d="M75980 53031
L70468 53031
" />
<path d="M83480 53031
L77968 53031
" />
<path d="M62968 47520
L68480 47520
" />
<path d="M53480 47520
L53480 53031
" />
<path d="M47968 47520
L53480 47520
" />
<path d="M55468 53031
L55468 47520
" />
<path d="M68480 53031
L62968 53031
" />
<path d="M60980 53031
L55468 53031
" />
<path d="M60980 47520
L60980 53031
" />
<path d="M70468 47520
L75980 47520
" />
<path d="M90980 47520
L90980 53031
" />
<path d="M55468 47520
L60980 47520
" />
<path d="M83480 47520
L83480 53031
" />
<path d="M77968 47520
L83480 47520
" />
<path d="M122968 53031
L122968 47520
" />
<path d="M75980 47520
L75980 53031
" />
<path d="M68480 47520
L68480 53031
" />
<path d="M70468 53031
L70468 47520
" />
<path d="M77855 32520
L77855 38031
" />
<path d="M62855 32520
L62855 38031
" />
<path d="M42343 38031
L42343 32520
" />
<path d="M47855 38031
L42343 38031
" />
<path d="M47855 32520
L47855 38031
" />
<path d="M42343 32520
L47855 32520
" />
<path d="M57343 32520
L62855 32520
" />
<path d="M64843 32520
L70355 32520
" />
<path d="M77855 38031
L72343 38031
" />
<path d="M70355 38031
L64843 38031
" />
<path d="M49843 38031
L49843 32520
" />
<path d="M64843 38031
L64843 32520
" />
<path d="M72343 38031
L72343 32520
" />
<path d="M49843 32520
L55355 32520
" />
<path d="M70355 32520
L70355 38031
" />
<path d="M55355 38031
L49843 38031
" />
<path d="M55355 32520
L55355 38031
" />
<path d="M57343 38031
L57343 32520
" />
<path d="M62855 38031
L57343 38031
" />
<path d="M40355 38031
L34843 38031
" />
<path d="M40355 32520
L40355 38031
" />
<path d="M72343 32520
L77855 32520
" />
<path d="M34843 32520
L40355 32520
" />
<path d="M115468 60531
L115468 55020
" />
<path d="M105155 60531
L105155 55020
" />
<path d="M110667 60531
L105155 60531
" />
<path d="M105155 55020
L110667 55020
" />
<path d="M110667 55020
L110667 60531
" />
<path d="M86405 60531
L86405 55020
" />
<path d="M91917 55020
L91917 60531
" />
<path d="M82542 55020
L82542 60531
" />
<path d="M91917 60531
L86405 60531
" />
<path d="M77031 55020
L82542 55020
" />
<path d="M128480 53031
L122968 53031
" />
<path d="M128480 47520
L128480 53031
" />
<path d="M122968 47520
L128480 47520
" />
<path d="M54417 60531
L54417 58681
" />
<path d="M54417 58681
L70017 58681
" />
<path d="M72675 55110
L71996 55110
" />
<path d="M72675 57579
L72675 55110
" />
<path d="M72999 57579
L72675 57579
" />
<path d="M70017 58681
L70017 59952
" />
<path d="M72675 59952
L72675 58681
" />
<path d="M70017 59952
L72675 59952
" />
<path d="M71996 54638
L70696 54638
" />
<path d="M72999 58681
L72999 57579
" />
<path d="M71996 55110
L71996 54638
" />
<path d="M72675 58681
L72999 58681
" />
<path d="M20781 55020
L26292 55020
" />
<path d="M77031 60531
L77031 55020
" />
<path d="M26292 55020
L26292 60531
" />
<path d="M82542 60531
L77031 60531
" />
<path d="M26292 60531
L20781 60531
" />
<path d="M12343 32520
L17855 32520
" />
<path d="M19843 38031
L19843 32520
" />
<path d="M102343 26870
L101742 26870
" />
<path d="M8480 38031
L2968 38031
" />
<path d="M8480 32520
L8480 38031
" />
<path d="M32855 38031
L27343 38031
" />
<path d="M25355 32520
L25355 38031
" />
<path d="M17855 32520
L17855 38031
" />
<path d="M27343 32520
L32855 32520
" />
<path d="M19843 32520
L25355 32520
" />
<path d="M17855 38031
L12343 38031
" />
<path d="M34843 38031
L34843 32520
" />
<path d="M32855 32520
L32855 38031
" />
<path d="M2968 38031
L2968 32520
" />
<path d="M27343 38031
L27343 32520
" />
<path d="M102343 25020
L102343 26870
" />
<path d="M101742 25599
L99085 25599
" />
<path d="M25355 38031
L19843 38031
" />
<path d="M99085 26870
L98760 26870
" />
<path d="M99085 25599
L99085 26870
" />
<path d="M2968 32520
L8480 32520
" />
<path d="M12343 38031
L12343 32520
" />
<path d="M101742 26870
L101742 25599
" />
<path d="M101292 60531
L95781 60531
" />
<path d="M86405 55020
L91917 55020
" />
<path d="M95781 60531
L95781 55020
" />
<path d="M101292 55020
L101292 60531
" />
<path d="M95781 55020
L101292 55020
" />
<path d="M31093 19281
L31093 13770
" />
<path d="M55355 19281
L49843 19281
" />
<path d="M55355 13770
L55355 19281
" />
<path d="M49843 13770
L55355 13770
" />
<path d="M36605 13770
L36605 19281
" />
<path d="M6605 13770
L6605 19281
" />
<path d="M23593 13770
L29105 13770
" />
<path d="M1093 19281
L1093 13770
" />
<path d="M29105 19281
L23593 19281
" />
<path d="M38593 19281
L38593 13770
" />
<path d="M44105 19281
L38593 19281
" />
<path d="M23593 19281
L23593 13770
" />
<path d="M29105 13770
L29105 19281
" />
<path d="M16093 13770
L21605 13770
" />
<path d="M31093 13770
L36605 13770
" />
<path d="M49843 19281
L49843 13770
" />
<path d="M21605 19281
L16093 19281
" />
<path d="M44105 13770
L44105 19281
" />
<path d="M21605 13770
L21605 19281
" />
<path d="M36605 19281
L31093 19281
" />
<path d="M38593 13770
L44105 13770
" />
<path d="M6605 19281
L1093 19281
" />
<path d="M1093 13770
L6605 13770
" />
<path d="M57343 19281
L57343 13770
" />
<path d="M16093 19281
L16093 13770
" />
<path d="M6605 30531
L1093 30531
" />
<path d="M96605 19281
L91093 19281
" />
<path d="M98593 13770
L104105 13770
" />
<path d="M135980 19281
L130468 19281
" />
<path d="M1093 30531
L1093 25020
" />
<path d="M16093 30531
L16093 25020
" />
<path d="M38593 30531
L38593 25020
" />
<path d="M77855 13770
L77855 19281
" />
<path d="M83593 19281
L83593 13770
" />
<path d="M106093 19281
L106093 13770
" />
<path d="M115468 19281
L115468 13770
" />
<path d="M23593 30531
L23593 25020
" />
<path d="M36605 25020
L36605 30531
" />
<path d="M16093 25020
L21605 25020
" />
<path d="M96605 13770
L96605 19281
" />
<path d="M14105 30531
L8593 30531
" />
<path d="M135980 13770
L135980 19281
" />
<path d="M29105 25020
L29105 30531
" />
<path d="M38593 25020
L44105 25020
" />
<path d="M8593 30531
L8593 25020
" />
<path d="M83593 13770
L89105 13770
" />
<path d="M23593 25020
L29105 25020
" />
<path d="M70355 13770
L70355 19281
" />
<path d="M77855 19281
L72343 19281
" />
<path d="M115468 13770
L120980 13770
" />
<path d="M128480 13770
L128480 19281
" />
<path d="M44105 30531
L38593 30531
" />
<path d="M1093 25020
L6605 25020
" />
<path d="M36605 30531
L31093 30531
" />
<path d="M104105 13770
L104105 19281
" />
<path d="M62855 19281
L57343 19281
" />
<path d="M62855 13770
L62855 19281
" />
<path d="M64843 19281
L64843 13770
" />
<path d="M104105 19281
L98593 19281
" />
<path d="M120980 13770
L120980 19281
" />
<path d="M72343 13770
L77855 13770
" />
<path d="M57343 13770
L62855 13770
" />
<path d="M21605 30531
L16093 30531
" />
<path d="M21605 25020
L21605 30531
" />
<path d="M46092 30531
L46092 25020
" />
<path d="M70355 19281
L64843 19281
" />
<path d="M64843 13770
L70355 13770
" />
<path d="M72343 19281
L72343 13770
" />
<path d="M122968 13770
L128480 13770
" />
<path d="M89105 19281
L83593 19281
" />
<path d="M89105 13770
L89105 19281
" />
<path d="M91093 19281
L91093 13770
" />
<path d="M91093 13770
L96605 13770
" />
<path d="M122968 19281
L122968 13770
" />
<path d="M98593 19281
L98593 13770
" />
<path d="M111605 13770
L111605 19281
" />
<path d="M44105 25020
L44105 30531
" />
<path d="M106093 13770
L111605 13770
" />
<path d="M120980 19281
L115468 19281
" />
<path d="M128480 19281
L122968 19281
" />
<path d="M130468 19281
L130468 13770
" />
<path d="M29105 30531
L23593 30531
" />
<path d="M14105 25020
L14105 30531
" />
<path d="M8593 25020
L14105 25020
" />
<path d="M6605 25020
L6605 30531
" />
<path d="M31093 30531
L31093 25020
" />
<path d="M111605 19281
L106093 19281
" />
<path d="M130468 13770
L135980 13770
" />
<path d="M31093 25020
L36605 25020
" />
<path d="M101742 30441
L101742 28681
" />
<path d="M111113 27972
L111438 27972
" />
<path d="M111113 30441
L111113 27972
" />
<path d="M110433 30913
L110433 30441
" />
<path d="M109135 30913
L110433 30913
" />
<path d="M109135 30441
L109135 30913
" />
<path d="M108455 30441
L109135 30441
" />
<path d="M108455 28681
L108455 30441
" />
<path d="M107855 28681
L108455 28681
" />
<path d="M102343 28681
L102343 30531
" />
<path d="M98760 26870
L98760 27972
" />
<path d="M107855 30531
L107855 28681
" />
<path d="M102343 30531
L107855 30531
" />
<path d="M99764 30441
L99764 30913
" />
<path d="M101742 28681
L102343 28681
" />
<path d="M101063 30913
L101063 30441
" />
<path d="M99085 27972
L99085 30441
" />
<path d="M99764 30913
L101063 30913
" />
<path d="M98760 27972
L99085 27972
" />
<path d="M101063 30441
L101742 30441
" />
<path d="M99085 30441
L99764 30441
" />
<path d="M111438 27972
L111438 26870
" />
<path d="M110433 30441
L111113 30441
" />
<path d="M48905 55020
L48905 56870
" />
<path d="M54417 55020
L48905 55020
" />
<path d="M33305 56870
L33305 55110
" />
<path d="M48905 56870
L33305 56870
" />
<path d="M33305 55110
L32626 55110
" />
<path d="M128480 25020
L128480 30531
" />
<path d="M96605 30531
L91093 30531
" />
<path d="M122968 30531
L122968 25020
" />
<path d="M130468 30531
L130468 25020
" />
<path d="M130468 25020
L135980 25020
" />
<path d="M108455 26870
L107855 26870
" />
<path d="M120980 25020
L120980 30531
" />
<path d="M128480 30531
L122968 30531
" />
<path d="M115468 30531
L115468 25020
" />
<path d="M122968 25020
L128480 25020
" />
<path d="M111438 26870
L111113 26870
" />
<path d="M96605 25020
L96605 30531
" />
<path d="M111113 26870
L111113 25599
" />
<path d="M115468 25020
L120980 25020
" />
<path d="M91093 25020
L96605 25020
" />
<path d="M120980 30531
L115468 30531
" />
<path d="M135980 25020
L135980 30531
" />
<path d="M108455 25599
L108455 26870
" />
<path d="M135980 30531
L130468 30531
" />
<path d="M91093 30531
L91093 25020
" />
<path d="M107855 25020
L102343 25020
" />
<path d="M107855 26870
L107855 25020
" />
<path d="M111113 25599
L108455 25599
" />
<path d="M130468 55020
L135980 55020
" />
<path d="M33305 59952
L33305 58681
" />
<path d="M48905 58681
L48905 60531
" />
<path d="M48905 60531
L54417 60531
" />
<path d="M33305 58681
L48905 58681
" />
<path d="M7542 55020
L7542 60531
" />
<path d="M2031 60531
L2031 55020
" />
<path d="M2031 55020
L7542 55020
" />
<path d="M7542 60531
L2031 60531
" />
<path d="M59105 30531
L53593 30531
" />
<path d="M53593 25020
L59105 25020
" />
<path d="M51605 25020
L51605 30531
" />
<path d="M53593 30531
L53593 25020
" />
<path d="M66605 30531
L61093 30531
" />
<path d="M68593 30531
L68593 25020
" />
<path d="M68593 25020
L74105 25020
" />
<path d="M76093 30531
L76093 25020
" />
<path d="M83593 25020
L89105 25020
" />
<path d="M66605 25020
L66605 30531
" />
<path d="M74105 30531
L68593 30531
" />
<path d="M74105 25020
L74105 30531
" />
<path d="M76093 25020
L81605 25020
" />
<path d="M81605 30531
L76093 30531
" />
<path d="M89105 25020
L89105 30531
" />
<path d="M83593 30531
L83593 25020
" />
<path d="M81605 25020
L81605 30531
" />
<path d="M89105 30531
L83593 30531
" />
<path d="M61093 25020
L66605 25020
" />
<path d="M59105 25020
L59105 30531
" />
<path d="M51605 30531
L46092 30531
" />
<path d="M46092 25020
L51605 25020
" />
<path d="M61093 30531
L61093 25020
" />
<path d="M30980 47520
L30980 53031
" />
<path d="M45980 53031
L40468 53031
" />
<path d="M38480 53031
L32968 53031
" />
<path d="M45980 47520
L45980 53031
" />
<path d="M38480 47520
L38480 53031
" />
<path d="M23480 47520
L23480 53031
" />
<path d="M40468 53031
L40468 47520
" />
<path d="M30980 53031
L25468 53031
" />
<path d="M17968 53031
L17968 47520
" />
<path d="M17968 47520
L23480 47520
" />
<path d="M25468 47520
L30980 47520
" />
<path d="M53480 53031
L47968 53031
" />
<path d="M15980 47520
L15980 53031
" />
<path d="M32968 53031
L32968 47520
" />
<path d="M25468 53031
L25468 47520
" />
<path d="M32968 47520
L38480 47520
" />
<path d="M47968 53031
L47968 47520
" />
<path d="M23480 53031
L17968 53031
" />
<path d="M40468 47520
L45980 47520
" />
<path d="M3202 53032
L3202 53414
" />
<path d="M13871 53032
L15980 53031
" />
<path d="M4500 53032
L12571 53032
" />
<path d="M3202 53414
L4501 53414
" />
<path d="M12571 53414
L13871 53414
" />
<path d="M13871 53414
L13871 53032
" />
<path d="M12571 53032
L12571 53414
" />
<path d="M4501 53414
L4500 53032
" />
<path d="M3202 53032
L2031 53032
" />
<path d="M108196 45914
L109496 45914
" />
<path d="M109496 45914
L109496 45532
" />
<path d="M110175 42973
L110500 42973
" />
<path d="M108196 45532
L108196 45914
" />
<path d="M110500 42973
L110500 41781
" />
<path d="M110175 45532
L110175 42973
" />
<path d="M100125 45532
L108196 45532
" />
<path d="M98826 45531
L98826 45914
" />
<path d="M100125 45914
L100125 45532
" />
<path d="M98826 45914
L100125 45914
" />
<path d="M104218 38032
L104218 32520
" />
<path d="M105155 38032
L104218 38032
" />
<path d="M109730 32520
L109730 33012
" />
<path d="M104218 32520
L109730 32520
" />
<g >
</g>
<g >
</g>
<g >
</g>
<g >
</g>
<g >
</g>
<g >
</g>
<g >
</g>
<g >
</g>
<g >
</g>
<g >
</g>
<g >
</g>
<g >
</g>
<g >
</g>
<g >
</g>
<g >
</g>
<g >
</g>
<g >
</g>
<g >
</g>
<g >
</g>
<g >
</g>
<g >
</g>
<g >
</g>
<g >
</g>
<g >
</g>
<g >
</g>
<g >
</g>
<g >
</g>
<g >
</g>
<g >
</g>
<g >
</g>
<g >
</g>
<g >
</g>
<g >
</g>
<g >
</g>
<g >
</g>
<g >
</g>
<g >
</g>
<g >
</g>
<g >
</g>
<g >
</g>
<g >
</g>
<g >
</g>
<g >
</g>
<g >
</g>
<g >
</g>
<g >
</g>
<g >
</g>
<g >
</g>
<g >
</g>
<g >
</g>
<g >
</g>
<g >
</g>
<g >
</g>
<g >
</g>
<g >
</g>
<g >
</g>
<g >
</g>
<g >
</g>
<g >
</g>
<g >
</g>
<g >
</g>
<g >
</g>
<g >
</g>
<g >
</g>
<g >
</g>
<g >
</g>
<g >
</g>
<g >
</g>
<g >
</g>
<g >
</g>
<g >
</g>
<g >
</g>
<g >
</g>
<g >
</g>
<g >
</g>
<g >
</g>
<g >
</g>
<g >
</g>
<g >
</g>
<g >
</g>
<g >
</g>
<g >
</g>
<g >
</g>
<g >
</g>
<g >
</g>
<g >
</g>
<g >
</g>
<g >
</g>
<g >
</g>
<g >
</g>
<g >
</g>
<g >
</g>
<g >
</g>
<g >
</g>
<g >
</g>
<g >
</g>
<g >
</g>
<g >
</g>
<g >
</g>
<g >
</g>
<g >
</g>
<g >
</g>
<g >
</g>
<g >
</g>
<g >
</g>
<g >
</g>
<g >
</g>
<g >
</g>
<g >
</g>
<g >
</g>
<g >
</g>
<g >
</g>
<g >
</g>
<g >
</g>
<g >
</g>
<g >
</g>
<g >
</g>
<g >
</g>
<g >
</g>
<g >
</g>
<g >
</g>
<g >
</g>
<g >
</g>
<g >
</g>
<g >
</g>
<g >
</g>
<g >
</g>
<g >
</g>
<g >
</g>
<g >
</g>
<g >
</g>
<g >
</g>
<g >
</g>
<g >
</g>
<g >
</g>
<g >
</g>
<g >
</g>
<g >
</g>
<g >
</g>
<g >
</g>
<g >
</g>
<g >
</g>
<g >
</g>
<g >
</g>
<g >
</g>
<g >
</g>
<g >
</g>
<g >
</g>
<g >
</g>
<g >
</g>
<g >
</g>
<g >
</g>
<g >
</g>
<g >
</g>
<g >
</g>
<g >
</g>
<g >
</g>
<g >
</g>
<g >
</g>
<g >
</g>
<g >
</g>
<g >
</g>
<g >
</g>
<g >
</g>
<g >
</g>
<g >
</g>
<g >
</g>
<g >
</g>
<g >
</g>
<g >
</g>
<g >
</g>
<g >
</g>
<g >
</g>
<g >
</g>
<g >
</g>
<g >
</g>
<g >
</g>
<g >
</g>
<g >
</g>
<g >
</g>
<g >
</g>
<g >
</g>
<g >
</g>
<g >
</g>
<g >
</g>
<g >
</g>
<g >
</g>
<g >
</g>
<g >
</g>
<g >
</g>
<g >
</g>
<g >
</g>
<g >
</g>
<g >
</g>
<g >
</g>
<g >
</g>
<g >
</g>
<g >
</g>
<g >
</g>
<g >
</g>
<g >
</g>
</g>
<g style="fill:#000000; fill-opacity:0.0; 
stroke:#000000; stroke-width:39.3701; stroke-opacity:1; 
stroke-linecap:round; stroke-linejoin:round;">
</g>
<g style="fill:#FF0000; fill-opacity:0.0; 
stroke:#FF0000; stroke-width:39.3701; stroke-opacity:1; 
stroke-linecap:round; stroke-linejoin:round;">
<path d="M137048 810
L137048 60778
" />
<path d="M827.34 20.3008 A807.087 807.087 0.0 0 0 20.4936 807.702" />
<path d="M20.4936 60563.1 A954.601 954.601 0.0 0 0 926.559 61555.7" />
<path d="M136261 61565.6 A787.402 787.402 0.0 0 0 137048 60778.2" />
<path d="M137048 810.852 A772.663 772.663 0.0 0 0 136276 19.6854" />
<path d="M827 20
L136275 19
" />
<path d="M20 60563
L20 807
" />
<path d="M136260 61565
L926 61555
" />
<g >
</g>
<g >
</g>
<g >
</g>
<g >
</g>
<g >
</g>
<g >
</g>
<g >
</g>
<g >
</g>
<g >
</g>
<g >
</g>
<g >
</g>
<g >
</g>
<g >
</g>
<g >
</g>
<g >
</g>
<g >
</g>
<g >
</g>
<g >
</g>
<g >
</g>
<g >
</g>
<g >
</g>
<g >
</g>
<g >
</g>
<g >
</g>
<g >
</g>
<g >
</g>
<g >
</g>
<g >
</g>
<g >
</g>
<g >
</g>
<g >
</g>
<g >
</g>
<g >
</g>
<g >
</g>
<g >
</g>
<g >
</g>
<g >
</g>
<g >
</g>
<g >
</g>
<g >
</g>
<g >
</g>
<g >
</g>
<g >
</g>
<g >
</g>
<g >
</g>
<g >
</g>
<g >
</g>
<g >
</g>
<g >
</g>
<g >
</g>
<g >
</g>
<g >
</g>
<g >
</g>
<g >
</g>
<g >
</g>
<g >
</g>
<g >
</g>
<g >
</g>
<g >
</g>
<g >
</g>
<g >
</g>
<g >
</g>
<g >
</g>
<g >
</g>
<g >
</g>
<g >
</g>
<g >
</g>
<g >
</g>
<g >
</g>
<g >
</g>
<g >
</g>
<g >
</g>
<g >
</g>
<g >
</g>
<g >
</g>
<g >
</g>
<g >
</g>
<g >
</g>
<g >
</g>
<g >
</g>
<g >
</g>
<g >
</g>
<g >
</g>
<g >
</g>
<g >
</g>
<g >
</g>
<g >
</g>
<g >
</g>
<g >
</g>
<g >
</g>
<g >
</g>
<g >
</g>
<g >
</g>
<g >
</g>
<g >
</g>
<g >
</g>
<g >
</g>
<g >
</g>
<g >
</g>
<g >
</g>
<g >
</g>
<g >
</g>
<g >
</g>
<g >
</g>
<g >
</g>
<g >
</g>
<g >
</g>
<g >
</g>
<g >
</g>
<g >
</g>
<g >
</g>
<g >
</g>
<g >
</g>
<g >
</g>
<g >
</g>
<g >
</g>
<g >
</g>
<g >
</g>
<g >
</g>
<g >
</g>
<g >
</g>
<g >
</g>
<g >
</g>
<g >
</g>
<g >
</g>
<g >
</g>
<g >
</g>
<g >
</g>
<g >
</g>
<g >
</g>
<g >
</g>
<g >
</g>
<g >
</g>
<g >
</g>
<g >
</g>
<g >
</g>
<g >
</g>
<g >
</g>
<g >
</g>
<g >
</g>
<g >
</g>
<g >
</g>
<g >
</g>
<g >
</g>
<g >
</g>
<g >
</g>
<g >
</g>
<g >
</g>
<g >
</g>
<g >
</g>
<g >
</g>
<g >
</g>
<g >
</g>
<g >
</g>
<g >
</g>
<g >
</g>
<g >
</g>
<g >
</g>
<g >
</g>
<g >
</g>
<g >
</g>
<g >
</g>
<g >
</g>
<g >
</g>
<g >
</g>
<g >
</g>
<g >
</g>
<g >
</g>
<g >
</g>
<g >
</g>
<g >
</g>
<g >
</g>
<g >
</g>
<g >
</g>
<g >
</g>
<g >
</g>
<g >
</g>
<g >
</g>
<g >
</g>
<g >
</g>
<g >
</g>
<g >
</g>
<g >
</g>
<g >
</g>
<g >
</g>
<g >
</g>
<g >
</g>
<g >
</g>
<g >
</g>
<g >
</g>
<g >
</g>
<g >
</g>
<g >
</g>
<g >
</g>
<g >
</g>
<g >
</g>
<g >
</g>
<g >
</g>
<g >
</g>
<g >
</g>
<g >
</g>
</g> 
</svg>
